%TF.GenerationSoftware,KiCad,Pcbnew,(5.1.12)-1*%
%TF.CreationDate,2022-03-16T22:40:05-06:00*%
%TF.ProjectId,RelayDriver,52656c61-7944-4726-9976-65722e6b6963,rev?*%
%TF.SameCoordinates,Original*%
%TF.FileFunction,Legend,Bot*%
%TF.FilePolarity,Positive*%
%FSLAX46Y46*%
G04 Gerber Fmt 4.6, Leading zero omitted, Abs format (unit mm)*
G04 Created by KiCad (PCBNEW (5.1.12)-1) date 2022-03-16 22:40:05*
%MOMM*%
%LPD*%
G01*
G04 APERTURE LIST*
%ADD10C,0.150000*%
%ADD11C,0.120000*%
G04 APERTURE END LIST*
D10*
X61785476Y-56703980D02*
X62261666Y-56703980D01*
X62309285Y-57180171D01*
X62261666Y-57132552D01*
X62166428Y-57084933D01*
X61928333Y-57084933D01*
X61833095Y-57132552D01*
X61785476Y-57180171D01*
X61737857Y-57275409D01*
X61737857Y-57513504D01*
X61785476Y-57608742D01*
X61833095Y-57656361D01*
X61928333Y-57703980D01*
X62166428Y-57703980D01*
X62261666Y-57656361D01*
X62309285Y-57608742D01*
X61452142Y-56703980D02*
X61118809Y-57703980D01*
X60785476Y-56703980D01*
X85267704Y-56726200D02*
X85362942Y-56678580D01*
X85505800Y-56678580D01*
X85648657Y-56726200D01*
X85743895Y-56821438D01*
X85791514Y-56916676D01*
X85839133Y-57107152D01*
X85839133Y-57250009D01*
X85791514Y-57440485D01*
X85743895Y-57535723D01*
X85648657Y-57630961D01*
X85505800Y-57678580D01*
X85410561Y-57678580D01*
X85267704Y-57630961D01*
X85220085Y-57583342D01*
X85220085Y-57250009D01*
X85410561Y-57250009D01*
X84791514Y-57678580D02*
X84791514Y-56678580D01*
X84220085Y-57678580D01*
X84220085Y-56678580D01*
X83743895Y-57678580D02*
X83743895Y-56678580D01*
X83505800Y-56678580D01*
X83362942Y-56726200D01*
X83267704Y-56821438D01*
X83220085Y-56916676D01*
X83172466Y-57107152D01*
X83172466Y-57250009D01*
X83220085Y-57440485D01*
X83267704Y-57535723D01*
X83362942Y-57630961D01*
X83505800Y-57678580D01*
X83743895Y-57678580D01*
D11*
%TO.C,J2*%
X85759600Y-52222400D02*
X85759600Y-50892400D01*
X85759600Y-50892400D02*
X84429600Y-50892400D01*
X85759600Y-53492400D02*
X83159600Y-53492400D01*
X83159600Y-53492400D02*
X83159600Y-50892400D01*
X83159600Y-50892400D02*
X60239600Y-50892400D01*
X60239600Y-56092400D02*
X60239600Y-50892400D01*
X85759600Y-56092400D02*
X60239600Y-56092400D01*
X85759600Y-56092400D02*
X85759600Y-53492400D01*
D10*
X73459933Y-56678580D02*
X73459933Y-57392866D01*
X73507552Y-57535723D01*
X73602790Y-57630961D01*
X73745647Y-57678580D01*
X73840885Y-57678580D01*
X73031361Y-56773819D02*
X72983742Y-56726200D01*
X72888504Y-56678580D01*
X72650409Y-56678580D01*
X72555171Y-56726200D01*
X72507552Y-56773819D01*
X72459933Y-56869057D01*
X72459933Y-56964295D01*
X72507552Y-57107152D01*
X73078980Y-57678580D01*
X72459933Y-57678580D01*
%TD*%
M02*
