G04 #@! TF.GenerationSoftware,KiCad,Pcbnew,(5.1.2)-2*
G04 #@! TF.CreationDate,2020-03-29T17:17:04-06:00*
G04 #@! TF.ProjectId,Switches,53776974-6368-4657-932e-6b696361645f,rev?*
G04 #@! TF.SameCoordinates,Original*
G04 #@! TF.FileFunction,Legend,Bot*
G04 #@! TF.FilePolarity,Positive*
%FSLAX46Y46*%
G04 Gerber Fmt 4.6, Leading zero omitted, Abs format (unit mm)*
G04 Created by KiCad (PCBNEW (5.1.2)-2) date 2020-03-29 17:17:04*
%MOMM*%
%LPD*%
G04 APERTURE LIST*
%ADD10C,0.150000*%
%ADD11C,0.300000*%
%ADD12C,0.120000*%
G04 APERTURE END LIST*
D10*
X214319809Y-53554380D02*
X214224571Y-53554380D01*
X214129333Y-53602000D01*
X214081714Y-53649619D01*
X214034095Y-53744857D01*
X213986476Y-53935333D01*
X213986476Y-54173428D01*
X214034095Y-54363904D01*
X214081714Y-54459142D01*
X214129333Y-54506761D01*
X214224571Y-54554380D01*
X214319809Y-54554380D01*
X214415047Y-54506761D01*
X214462666Y-54459142D01*
X214510285Y-54363904D01*
X214557904Y-54173428D01*
X214557904Y-53935333D01*
X214510285Y-53744857D01*
X214462666Y-53649619D01*
X214415047Y-53602000D01*
X214319809Y-53554380D01*
X213605523Y-53649619D02*
X213557904Y-53602000D01*
X213462666Y-53554380D01*
X213224571Y-53554380D01*
X213129333Y-53602000D01*
X213081714Y-53649619D01*
X213034095Y-53744857D01*
X213034095Y-53840095D01*
X213081714Y-53982952D01*
X213653142Y-54554380D01*
X213034095Y-54554380D01*
X212605523Y-54173428D02*
X211843619Y-54173428D01*
X211415047Y-54506761D02*
X211272190Y-54554380D01*
X211034095Y-54554380D01*
X210938857Y-54506761D01*
X210891238Y-54459142D01*
X210843619Y-54363904D01*
X210843619Y-54268666D01*
X210891238Y-54173428D01*
X210938857Y-54125809D01*
X211034095Y-54078190D01*
X211224571Y-54030571D01*
X211319809Y-53982952D01*
X211367428Y-53935333D01*
X211415047Y-53840095D01*
X211415047Y-53744857D01*
X211367428Y-53649619D01*
X211319809Y-53602000D01*
X211224571Y-53554380D01*
X210986476Y-53554380D01*
X210843619Y-53602000D01*
X210034095Y-54506761D02*
X210129333Y-54554380D01*
X210319809Y-54554380D01*
X210415047Y-54506761D01*
X210462666Y-54411523D01*
X210462666Y-54030571D01*
X210415047Y-53935333D01*
X210319809Y-53887714D01*
X210129333Y-53887714D01*
X210034095Y-53935333D01*
X209986476Y-54030571D01*
X209986476Y-54125809D01*
X210462666Y-54221047D01*
X209557904Y-53887714D02*
X209557904Y-54887714D01*
X209557904Y-53935333D02*
X209462666Y-53887714D01*
X209272190Y-53887714D01*
X209176952Y-53935333D01*
X209129333Y-53982952D01*
X209081714Y-54078190D01*
X209081714Y-54363904D01*
X209129333Y-54459142D01*
X209176952Y-54506761D01*
X209272190Y-54554380D01*
X209462666Y-54554380D01*
X209557904Y-54506761D01*
X208653142Y-54173428D02*
X207891238Y-54173428D01*
X207462666Y-53649619D02*
X207415047Y-53602000D01*
X207319809Y-53554380D01*
X207081714Y-53554380D01*
X206986476Y-53602000D01*
X206938857Y-53649619D01*
X206891238Y-53744857D01*
X206891238Y-53840095D01*
X206938857Y-53982952D01*
X207510285Y-54554380D01*
X206891238Y-54554380D01*
X206272190Y-53554380D02*
X206176952Y-53554380D01*
X206081714Y-53602000D01*
X206034095Y-53649619D01*
X205986476Y-53744857D01*
X205938857Y-53935333D01*
X205938857Y-54173428D01*
X205986476Y-54363904D01*
X206034095Y-54459142D01*
X206081714Y-54506761D01*
X206176952Y-54554380D01*
X206272190Y-54554380D01*
X206367428Y-54506761D01*
X206415047Y-54459142D01*
X206462666Y-54363904D01*
X206510285Y-54173428D01*
X206510285Y-53935333D01*
X206462666Y-53744857D01*
X206415047Y-53649619D01*
X206367428Y-53602000D01*
X206272190Y-53554380D01*
X204986476Y-54554380D02*
X205557904Y-54554380D01*
X205272190Y-54554380D02*
X205272190Y-53554380D01*
X205367428Y-53697238D01*
X205462666Y-53792476D01*
X205557904Y-53840095D01*
X204510285Y-54554380D02*
X204319809Y-54554380D01*
X204224571Y-54506761D01*
X204176952Y-54459142D01*
X204081714Y-54316285D01*
X204034095Y-54125809D01*
X204034095Y-53744857D01*
X204081714Y-53649619D01*
X204129333Y-53602000D01*
X204224571Y-53554380D01*
X204415047Y-53554380D01*
X204510285Y-53602000D01*
X204557904Y-53649619D01*
X204605523Y-53744857D01*
X204605523Y-53982952D01*
X204557904Y-54078190D01*
X204510285Y-54125809D01*
X204415047Y-54173428D01*
X204224571Y-54173428D01*
X204129333Y-54125809D01*
X204081714Y-54078190D01*
X204034095Y-53982952D01*
X213812285Y-58602571D02*
X213669428Y-58650190D01*
X213621809Y-58697809D01*
X213574190Y-58793047D01*
X213574190Y-58935904D01*
X213621809Y-59031142D01*
X213669428Y-59078761D01*
X213764666Y-59126380D01*
X214145619Y-59126380D01*
X214145619Y-58126380D01*
X213812285Y-58126380D01*
X213717047Y-58174000D01*
X213669428Y-58221619D01*
X213621809Y-58316857D01*
X213621809Y-58412095D01*
X213669428Y-58507333D01*
X213717047Y-58554952D01*
X213812285Y-58602571D01*
X214145619Y-58602571D01*
X212717047Y-59126380D02*
X212717047Y-58602571D01*
X212764666Y-58507333D01*
X212859904Y-58459714D01*
X213050380Y-58459714D01*
X213145619Y-58507333D01*
X212717047Y-59078761D02*
X212812285Y-59126380D01*
X213050380Y-59126380D01*
X213145619Y-59078761D01*
X213193238Y-58983523D01*
X213193238Y-58888285D01*
X213145619Y-58793047D01*
X213050380Y-58745428D01*
X212812285Y-58745428D01*
X212717047Y-58697809D01*
X211812285Y-59078761D02*
X211907523Y-59126380D01*
X212098000Y-59126380D01*
X212193238Y-59078761D01*
X212240857Y-59031142D01*
X212288476Y-58935904D01*
X212288476Y-58650190D01*
X212240857Y-58554952D01*
X212193238Y-58507333D01*
X212098000Y-58459714D01*
X211907523Y-58459714D01*
X211812285Y-58507333D01*
X211383714Y-59126380D02*
X211383714Y-58126380D01*
X211288476Y-58745428D02*
X211002761Y-59126380D01*
X211002761Y-58459714D02*
X211383714Y-58840666D01*
D11*
X178300000Y-60646571D02*
X177300000Y-60646571D01*
X177942857Y-62146571D01*
X167354285Y-60646571D02*
X167640000Y-60646571D01*
X167782857Y-60718000D01*
X167854285Y-60789428D01*
X167997142Y-61003714D01*
X168068571Y-61289428D01*
X168068571Y-61860857D01*
X167997142Y-62003714D01*
X167925714Y-62075142D01*
X167782857Y-62146571D01*
X167497142Y-62146571D01*
X167354285Y-62075142D01*
X167282857Y-62003714D01*
X167211428Y-61860857D01*
X167211428Y-61503714D01*
X167282857Y-61360857D01*
X167354285Y-61289428D01*
X167497142Y-61218000D01*
X167782857Y-61218000D01*
X167925714Y-61289428D01*
X167997142Y-61360857D01*
X168068571Y-61503714D01*
X154328857Y-60646571D02*
X155043142Y-60646571D01*
X155114571Y-61360857D01*
X155043142Y-61289428D01*
X154900285Y-61218000D01*
X154543142Y-61218000D01*
X154400285Y-61289428D01*
X154328857Y-61360857D01*
X154257428Y-61503714D01*
X154257428Y-61860857D01*
X154328857Y-62003714D01*
X154400285Y-62075142D01*
X154543142Y-62146571D01*
X154900285Y-62146571D01*
X155043142Y-62075142D01*
X155114571Y-62003714D01*
X91096857Y-61471857D02*
X91025428Y-61257571D01*
X91025428Y-60900428D01*
X91096857Y-60757571D01*
X91168285Y-60686142D01*
X91311142Y-60614714D01*
X91454000Y-60614714D01*
X91596857Y-60686142D01*
X91668285Y-60757571D01*
X91739714Y-60900428D01*
X91811142Y-61186142D01*
X91882571Y-61329000D01*
X91954000Y-61400428D01*
X92096857Y-61471857D01*
X92239714Y-61471857D01*
X92382571Y-61400428D01*
X92454000Y-61329000D01*
X92525428Y-61186142D01*
X92525428Y-60829000D01*
X92454000Y-60614714D01*
X91096857Y-59400428D02*
X91025428Y-59543285D01*
X91025428Y-59829000D01*
X91096857Y-59971857D01*
X91239714Y-60043285D01*
X91811142Y-60043285D01*
X91954000Y-59971857D01*
X92025428Y-59829000D01*
X92025428Y-59543285D01*
X91954000Y-59400428D01*
X91811142Y-59329000D01*
X91668285Y-59329000D01*
X91525428Y-60043285D01*
X91096857Y-58043285D02*
X91025428Y-58186142D01*
X91025428Y-58471857D01*
X91096857Y-58614714D01*
X91168285Y-58686142D01*
X91311142Y-58757571D01*
X91739714Y-58757571D01*
X91882571Y-58686142D01*
X91954000Y-58614714D01*
X92025428Y-58471857D01*
X92025428Y-58186142D01*
X91954000Y-58043285D01*
X91025428Y-56614714D02*
X91025428Y-57471857D01*
X91025428Y-57043285D02*
X92525428Y-57043285D01*
X92311142Y-57186142D01*
X92168285Y-57329000D01*
X92096857Y-57471857D01*
X95922857Y-61471857D02*
X95851428Y-61257571D01*
X95851428Y-60900428D01*
X95922857Y-60757571D01*
X95994285Y-60686142D01*
X96137142Y-60614714D01*
X96280000Y-60614714D01*
X96422857Y-60686142D01*
X96494285Y-60757571D01*
X96565714Y-60900428D01*
X96637142Y-61186142D01*
X96708571Y-61329000D01*
X96780000Y-61400428D01*
X96922857Y-61471857D01*
X97065714Y-61471857D01*
X97208571Y-61400428D01*
X97280000Y-61329000D01*
X97351428Y-61186142D01*
X97351428Y-60829000D01*
X97280000Y-60614714D01*
X95922857Y-59400428D02*
X95851428Y-59543285D01*
X95851428Y-59829000D01*
X95922857Y-59971857D01*
X96065714Y-60043285D01*
X96637142Y-60043285D01*
X96780000Y-59971857D01*
X96851428Y-59829000D01*
X96851428Y-59543285D01*
X96780000Y-59400428D01*
X96637142Y-59329000D01*
X96494285Y-59329000D01*
X96351428Y-60043285D01*
X95922857Y-58043285D02*
X95851428Y-58186142D01*
X95851428Y-58471857D01*
X95922857Y-58614714D01*
X95994285Y-58686142D01*
X96137142Y-58757571D01*
X96565714Y-58757571D01*
X96708571Y-58686142D01*
X96780000Y-58614714D01*
X96851428Y-58471857D01*
X96851428Y-58186142D01*
X96780000Y-58043285D01*
X97208571Y-57471857D02*
X97280000Y-57400428D01*
X97351428Y-57257571D01*
X97351428Y-56900428D01*
X97280000Y-56757571D01*
X97208571Y-56686142D01*
X97065714Y-56614714D01*
X96922857Y-56614714D01*
X96708571Y-56686142D01*
X95851428Y-57543285D01*
X95851428Y-56614714D01*
X93382857Y-61471857D02*
X93311428Y-61257571D01*
X93311428Y-60900428D01*
X93382857Y-60757571D01*
X93454285Y-60686142D01*
X93597142Y-60614714D01*
X93740000Y-60614714D01*
X93882857Y-60686142D01*
X93954285Y-60757571D01*
X94025714Y-60900428D01*
X94097142Y-61186142D01*
X94168571Y-61329000D01*
X94240000Y-61400428D01*
X94382857Y-61471857D01*
X94525714Y-61471857D01*
X94668571Y-61400428D01*
X94740000Y-61329000D01*
X94811428Y-61186142D01*
X94811428Y-60829000D01*
X94740000Y-60614714D01*
X93382857Y-59400428D02*
X93311428Y-59543285D01*
X93311428Y-59829000D01*
X93382857Y-59971857D01*
X93525714Y-60043285D01*
X94097142Y-60043285D01*
X94240000Y-59971857D01*
X94311428Y-59829000D01*
X94311428Y-59543285D01*
X94240000Y-59400428D01*
X94097142Y-59329000D01*
X93954285Y-59329000D01*
X93811428Y-60043285D01*
X93382857Y-58043285D02*
X93311428Y-58186142D01*
X93311428Y-58471857D01*
X93382857Y-58614714D01*
X93454285Y-58686142D01*
X93597142Y-58757571D01*
X94025714Y-58757571D01*
X94168571Y-58686142D01*
X94240000Y-58614714D01*
X94311428Y-58471857D01*
X94311428Y-58186142D01*
X94240000Y-58043285D01*
X94811428Y-57543285D02*
X94811428Y-56614714D01*
X94240000Y-57114714D01*
X94240000Y-56900428D01*
X94168571Y-56757571D01*
X94097142Y-56686142D01*
X93954285Y-56614714D01*
X93597142Y-56614714D01*
X93454285Y-56686142D01*
X93382857Y-56757571D01*
X93311428Y-56900428D01*
X93311428Y-57329000D01*
X93382857Y-57471857D01*
X93454285Y-57543285D01*
X98462857Y-61471857D02*
X98391428Y-61257571D01*
X98391428Y-60900428D01*
X98462857Y-60757571D01*
X98534285Y-60686142D01*
X98677142Y-60614714D01*
X98820000Y-60614714D01*
X98962857Y-60686142D01*
X99034285Y-60757571D01*
X99105714Y-60900428D01*
X99177142Y-61186142D01*
X99248571Y-61329000D01*
X99320000Y-61400428D01*
X99462857Y-61471857D01*
X99605714Y-61471857D01*
X99748571Y-61400428D01*
X99820000Y-61329000D01*
X99891428Y-61186142D01*
X99891428Y-60829000D01*
X99820000Y-60614714D01*
X98462857Y-59400428D02*
X98391428Y-59543285D01*
X98391428Y-59829000D01*
X98462857Y-59971857D01*
X98605714Y-60043285D01*
X99177142Y-60043285D01*
X99320000Y-59971857D01*
X99391428Y-59829000D01*
X99391428Y-59543285D01*
X99320000Y-59400428D01*
X99177142Y-59329000D01*
X99034285Y-59329000D01*
X98891428Y-60043285D01*
X98462857Y-58043285D02*
X98391428Y-58186142D01*
X98391428Y-58471857D01*
X98462857Y-58614714D01*
X98534285Y-58686142D01*
X98677142Y-58757571D01*
X99105714Y-58757571D01*
X99248571Y-58686142D01*
X99320000Y-58614714D01*
X99391428Y-58471857D01*
X99391428Y-58186142D01*
X99320000Y-58043285D01*
X99391428Y-56757571D02*
X98391428Y-56757571D01*
X99962857Y-57114714D02*
X98891428Y-57471857D01*
X98891428Y-56543285D01*
X101251857Y-61471857D02*
X101180428Y-61257571D01*
X101180428Y-60900428D01*
X101251857Y-60757571D01*
X101323285Y-60686142D01*
X101466142Y-60614714D01*
X101609000Y-60614714D01*
X101751857Y-60686142D01*
X101823285Y-60757571D01*
X101894714Y-60900428D01*
X101966142Y-61186142D01*
X102037571Y-61329000D01*
X102109000Y-61400428D01*
X102251857Y-61471857D01*
X102394714Y-61471857D01*
X102537571Y-61400428D01*
X102609000Y-61329000D01*
X102680428Y-61186142D01*
X102680428Y-60829000D01*
X102609000Y-60614714D01*
X101251857Y-59400428D02*
X101180428Y-59543285D01*
X101180428Y-59829000D01*
X101251857Y-59971857D01*
X101394714Y-60043285D01*
X101966142Y-60043285D01*
X102109000Y-59971857D01*
X102180428Y-59829000D01*
X102180428Y-59543285D01*
X102109000Y-59400428D01*
X101966142Y-59329000D01*
X101823285Y-59329000D01*
X101680428Y-60043285D01*
X101251857Y-58043285D02*
X101180428Y-58186142D01*
X101180428Y-58471857D01*
X101251857Y-58614714D01*
X101323285Y-58686142D01*
X101466142Y-58757571D01*
X101894714Y-58757571D01*
X102037571Y-58686142D01*
X102109000Y-58614714D01*
X102180428Y-58471857D01*
X102180428Y-58186142D01*
X102109000Y-58043285D01*
X102680428Y-56686142D02*
X102680428Y-57400428D01*
X101966142Y-57471857D01*
X102037571Y-57400428D01*
X102109000Y-57257571D01*
X102109000Y-56900428D01*
X102037571Y-56757571D01*
X101966142Y-56686142D01*
X101823285Y-56614714D01*
X101466142Y-56614714D01*
X101323285Y-56686142D01*
X101251857Y-56757571D01*
X101180428Y-56900428D01*
X101180428Y-57257571D01*
X101251857Y-57400428D01*
X101323285Y-57471857D01*
X103786857Y-61471857D02*
X103715428Y-61257571D01*
X103715428Y-60900428D01*
X103786857Y-60757571D01*
X103858285Y-60686142D01*
X104001142Y-60614714D01*
X104144000Y-60614714D01*
X104286857Y-60686142D01*
X104358285Y-60757571D01*
X104429714Y-60900428D01*
X104501142Y-61186142D01*
X104572571Y-61329000D01*
X104644000Y-61400428D01*
X104786857Y-61471857D01*
X104929714Y-61471857D01*
X105072571Y-61400428D01*
X105144000Y-61329000D01*
X105215428Y-61186142D01*
X105215428Y-60829000D01*
X105144000Y-60614714D01*
X103786857Y-59400428D02*
X103715428Y-59543285D01*
X103715428Y-59829000D01*
X103786857Y-59971857D01*
X103929714Y-60043285D01*
X104501142Y-60043285D01*
X104644000Y-59971857D01*
X104715428Y-59829000D01*
X104715428Y-59543285D01*
X104644000Y-59400428D01*
X104501142Y-59329000D01*
X104358285Y-59329000D01*
X104215428Y-60043285D01*
X103786857Y-58043285D02*
X103715428Y-58186142D01*
X103715428Y-58471857D01*
X103786857Y-58614714D01*
X103858285Y-58686142D01*
X104001142Y-58757571D01*
X104429714Y-58757571D01*
X104572571Y-58686142D01*
X104644000Y-58614714D01*
X104715428Y-58471857D01*
X104715428Y-58186142D01*
X104644000Y-58043285D01*
X105215428Y-56757571D02*
X105215428Y-57043285D01*
X105144000Y-57186142D01*
X105072571Y-57257571D01*
X104858285Y-57400428D01*
X104572571Y-57471857D01*
X104001142Y-57471857D01*
X103858285Y-57400428D01*
X103786857Y-57329000D01*
X103715428Y-57186142D01*
X103715428Y-56900428D01*
X103786857Y-56757571D01*
X103858285Y-56686142D01*
X104001142Y-56614714D01*
X104358285Y-56614714D01*
X104501142Y-56686142D01*
X104572571Y-56757571D01*
X104644000Y-56900428D01*
X104644000Y-57186142D01*
X104572571Y-57329000D01*
X104501142Y-57400428D01*
X104358285Y-57471857D01*
X106072857Y-61471857D02*
X106001428Y-61257571D01*
X106001428Y-60900428D01*
X106072857Y-60757571D01*
X106144285Y-60686142D01*
X106287142Y-60614714D01*
X106430000Y-60614714D01*
X106572857Y-60686142D01*
X106644285Y-60757571D01*
X106715714Y-60900428D01*
X106787142Y-61186142D01*
X106858571Y-61329000D01*
X106930000Y-61400428D01*
X107072857Y-61471857D01*
X107215714Y-61471857D01*
X107358571Y-61400428D01*
X107430000Y-61329000D01*
X107501428Y-61186142D01*
X107501428Y-60829000D01*
X107430000Y-60614714D01*
X106072857Y-59400428D02*
X106001428Y-59543285D01*
X106001428Y-59829000D01*
X106072857Y-59971857D01*
X106215714Y-60043285D01*
X106787142Y-60043285D01*
X106930000Y-59971857D01*
X107001428Y-59829000D01*
X107001428Y-59543285D01*
X106930000Y-59400428D01*
X106787142Y-59329000D01*
X106644285Y-59329000D01*
X106501428Y-60043285D01*
X106072857Y-58043285D02*
X106001428Y-58186142D01*
X106001428Y-58471857D01*
X106072857Y-58614714D01*
X106144285Y-58686142D01*
X106287142Y-58757571D01*
X106715714Y-58757571D01*
X106858571Y-58686142D01*
X106930000Y-58614714D01*
X107001428Y-58471857D01*
X107001428Y-58186142D01*
X106930000Y-58043285D01*
X107501428Y-57543285D02*
X107501428Y-56543285D01*
X106001428Y-57186142D01*
X191619142Y-61718000D02*
X190904857Y-61718000D01*
X191762000Y-62146571D02*
X191262000Y-60646571D01*
X190762000Y-62146571D01*
X147542285Y-61146571D02*
X147542285Y-62146571D01*
X147899428Y-60575142D02*
X148256571Y-61646571D01*
X147328000Y-61646571D01*
X140200000Y-60646571D02*
X139271428Y-60646571D01*
X139771428Y-61218000D01*
X139557142Y-61218000D01*
X139414285Y-61289428D01*
X139342857Y-61360857D01*
X139271428Y-61503714D01*
X139271428Y-61860857D01*
X139342857Y-62003714D01*
X139414285Y-62075142D01*
X139557142Y-62146571D01*
X139985714Y-62146571D01*
X140128571Y-62075142D01*
X140200000Y-62003714D01*
X128190571Y-60789428D02*
X128119142Y-60718000D01*
X127976285Y-60646571D01*
X127619142Y-60646571D01*
X127476285Y-60718000D01*
X127404857Y-60789428D01*
X127333428Y-60932285D01*
X127333428Y-61075142D01*
X127404857Y-61289428D01*
X128262000Y-62146571D01*
X127333428Y-62146571D01*
X117681428Y-62146571D02*
X118538571Y-62146571D01*
X118110000Y-62146571D02*
X118110000Y-60646571D01*
X118252857Y-60860857D01*
X118395714Y-61003714D01*
X118538571Y-61075142D01*
X66607428Y-57971857D02*
X66607428Y-58686142D01*
X65893142Y-58757571D01*
X65964571Y-58686142D01*
X66036000Y-58543285D01*
X66036000Y-58186142D01*
X65964571Y-58043285D01*
X65893142Y-57971857D01*
X65750285Y-57900428D01*
X65393142Y-57900428D01*
X65250285Y-57971857D01*
X65178857Y-58043285D01*
X65107428Y-58186142D01*
X65107428Y-58543285D01*
X65178857Y-58686142D01*
X65250285Y-58757571D01*
X66607428Y-57471857D02*
X65107428Y-56971857D01*
X66607428Y-56471857D01*
X63742000Y-59757571D02*
X63813428Y-59900428D01*
X63813428Y-60114714D01*
X63742000Y-60329000D01*
X63599142Y-60471857D01*
X63456285Y-60543285D01*
X63170571Y-60614714D01*
X62956285Y-60614714D01*
X62670571Y-60543285D01*
X62527714Y-60471857D01*
X62384857Y-60329000D01*
X62313428Y-60114714D01*
X62313428Y-59971857D01*
X62384857Y-59757571D01*
X62456285Y-59686142D01*
X62956285Y-59686142D01*
X62956285Y-59971857D01*
X62313428Y-59043285D02*
X63813428Y-59043285D01*
X62313428Y-58186142D01*
X63813428Y-58186142D01*
X62313428Y-57471857D02*
X63813428Y-57471857D01*
X63813428Y-57114714D01*
X63742000Y-56900428D01*
X63599142Y-56757571D01*
X63456285Y-56686142D01*
X63170571Y-56614714D01*
X62956285Y-56614714D01*
X62670571Y-56686142D01*
X62527714Y-56757571D01*
X62384857Y-56900428D01*
X62313428Y-57114714D01*
X62313428Y-57471857D01*
X88221428Y-62329000D02*
X89721428Y-62329000D01*
X89721428Y-61971857D01*
X89650000Y-61757571D01*
X89507142Y-61614714D01*
X89364285Y-61543285D01*
X89078571Y-61471857D01*
X88864285Y-61471857D01*
X88578571Y-61543285D01*
X88435714Y-61614714D01*
X88292857Y-61757571D01*
X88221428Y-61971857D01*
X88221428Y-62329000D01*
X89721428Y-60543285D02*
X89721428Y-60257571D01*
X89650000Y-60114714D01*
X89507142Y-59971857D01*
X89221428Y-59900428D01*
X88721428Y-59900428D01*
X88435714Y-59971857D01*
X88292857Y-60114714D01*
X88221428Y-60257571D01*
X88221428Y-60543285D01*
X88292857Y-60686142D01*
X88435714Y-60829000D01*
X88721428Y-60900428D01*
X89221428Y-60900428D01*
X89507142Y-60829000D01*
X89650000Y-60686142D01*
X89721428Y-60543285D01*
X89721428Y-59400428D02*
X88221428Y-59043285D01*
X89292857Y-58757571D01*
X88221428Y-58471857D01*
X89721428Y-58114714D01*
X88221428Y-57543285D02*
X89721428Y-57543285D01*
X88221428Y-56686142D01*
X89721428Y-56686142D01*
X86927428Y-59043285D02*
X85713142Y-59043285D01*
X85570285Y-58971857D01*
X85498857Y-58900428D01*
X85427428Y-58757571D01*
X85427428Y-58471857D01*
X85498857Y-58329000D01*
X85570285Y-58257571D01*
X85713142Y-58186142D01*
X86927428Y-58186142D01*
X85427428Y-57471857D02*
X86927428Y-57471857D01*
X86927428Y-56900428D01*
X86856000Y-56757571D01*
X86784571Y-56686142D01*
X86641714Y-56614714D01*
X86427428Y-56614714D01*
X86284571Y-56686142D01*
X86213142Y-56757571D01*
X86141714Y-56900428D01*
X86141714Y-57471857D01*
X83570000Y-61614714D02*
X83570000Y-60900428D01*
X83141428Y-61757571D02*
X84641428Y-61257571D01*
X83141428Y-60757571D01*
X84641428Y-60257571D02*
X83427142Y-60257571D01*
X83284285Y-60186142D01*
X83212857Y-60114714D01*
X83141428Y-59971857D01*
X83141428Y-59686142D01*
X83212857Y-59543285D01*
X83284285Y-59471857D01*
X83427142Y-59400428D01*
X84641428Y-59400428D01*
X84641428Y-58900428D02*
X84641428Y-58043285D01*
X83141428Y-58471857D02*
X84641428Y-58471857D01*
X84641428Y-57257571D02*
X84641428Y-56971857D01*
X84570000Y-56829000D01*
X84427142Y-56686142D01*
X84141428Y-56614714D01*
X83641428Y-56614714D01*
X83355714Y-56686142D01*
X83212857Y-56829000D01*
X83141428Y-56971857D01*
X83141428Y-57257571D01*
X83212857Y-57400428D01*
X83355714Y-57543285D01*
X83641428Y-57614714D01*
X84141428Y-57614714D01*
X84427142Y-57543285D01*
X84570000Y-57400428D01*
X84641428Y-57257571D01*
X80672857Y-60614714D02*
X80601428Y-60400428D01*
X80601428Y-60043285D01*
X80672857Y-59900428D01*
X80744285Y-59829000D01*
X80887142Y-59757571D01*
X81030000Y-59757571D01*
X81172857Y-59829000D01*
X81244285Y-59900428D01*
X81315714Y-60043285D01*
X81387142Y-60329000D01*
X81458571Y-60471857D01*
X81530000Y-60543285D01*
X81672857Y-60614714D01*
X81815714Y-60614714D01*
X81958571Y-60543285D01*
X82030000Y-60471857D01*
X82101428Y-60329000D01*
X82101428Y-59971857D01*
X82030000Y-59757571D01*
X82101428Y-59257571D02*
X80601428Y-58900428D01*
X81672857Y-58614714D01*
X80601428Y-58329000D01*
X82101428Y-57971857D01*
X81601428Y-56757571D02*
X80601428Y-56757571D01*
X82172857Y-57114714D02*
X81101428Y-57471857D01*
X81101428Y-56543285D01*
X78132857Y-60614714D02*
X78061428Y-60400428D01*
X78061428Y-60043285D01*
X78132857Y-59900428D01*
X78204285Y-59829000D01*
X78347142Y-59757571D01*
X78490000Y-59757571D01*
X78632857Y-59829000D01*
X78704285Y-59900428D01*
X78775714Y-60043285D01*
X78847142Y-60329000D01*
X78918571Y-60471857D01*
X78990000Y-60543285D01*
X79132857Y-60614714D01*
X79275714Y-60614714D01*
X79418571Y-60543285D01*
X79490000Y-60471857D01*
X79561428Y-60329000D01*
X79561428Y-59971857D01*
X79490000Y-59757571D01*
X79561428Y-59257571D02*
X78061428Y-58900428D01*
X79132857Y-58614714D01*
X78061428Y-58329000D01*
X79561428Y-57971857D01*
X79561428Y-57543285D02*
X79561428Y-56614714D01*
X78990000Y-57114714D01*
X78990000Y-56900428D01*
X78918571Y-56757571D01*
X78847142Y-56686142D01*
X78704285Y-56614714D01*
X78347142Y-56614714D01*
X78204285Y-56686142D01*
X78132857Y-56757571D01*
X78061428Y-56900428D01*
X78061428Y-57329000D01*
X78132857Y-57471857D01*
X78204285Y-57543285D01*
X75592857Y-60614714D02*
X75521428Y-60400428D01*
X75521428Y-60043285D01*
X75592857Y-59900428D01*
X75664285Y-59829000D01*
X75807142Y-59757571D01*
X75950000Y-59757571D01*
X76092857Y-59829000D01*
X76164285Y-59900428D01*
X76235714Y-60043285D01*
X76307142Y-60329000D01*
X76378571Y-60471857D01*
X76450000Y-60543285D01*
X76592857Y-60614714D01*
X76735714Y-60614714D01*
X76878571Y-60543285D01*
X76950000Y-60471857D01*
X77021428Y-60329000D01*
X77021428Y-59971857D01*
X76950000Y-59757571D01*
X77021428Y-59257571D02*
X75521428Y-58900428D01*
X76592857Y-58614714D01*
X75521428Y-58329000D01*
X77021428Y-57971857D01*
X76878571Y-57471857D02*
X76950000Y-57400428D01*
X77021428Y-57257571D01*
X77021428Y-56900428D01*
X76950000Y-56757571D01*
X76878571Y-56686142D01*
X76735714Y-56614714D01*
X76592857Y-56614714D01*
X76378571Y-56686142D01*
X75521428Y-57543285D01*
X75521428Y-56614714D01*
X73052857Y-60614714D02*
X72981428Y-60400428D01*
X72981428Y-60043285D01*
X73052857Y-59900428D01*
X73124285Y-59829000D01*
X73267142Y-59757571D01*
X73410000Y-59757571D01*
X73552857Y-59829000D01*
X73624285Y-59900428D01*
X73695714Y-60043285D01*
X73767142Y-60329000D01*
X73838571Y-60471857D01*
X73910000Y-60543285D01*
X74052857Y-60614714D01*
X74195714Y-60614714D01*
X74338571Y-60543285D01*
X74410000Y-60471857D01*
X74481428Y-60329000D01*
X74481428Y-59971857D01*
X74410000Y-59757571D01*
X74481428Y-59257571D02*
X72981428Y-58900428D01*
X74052857Y-58614714D01*
X72981428Y-58329000D01*
X74481428Y-57971857D01*
X72981428Y-56614714D02*
X72981428Y-57471857D01*
X72981428Y-57043285D02*
X74481428Y-57043285D01*
X74267142Y-57186142D01*
X74124285Y-57329000D01*
X74052857Y-57471857D01*
X71941428Y-59829000D02*
X71941428Y-59543285D01*
X71870000Y-59400428D01*
X71727142Y-59257571D01*
X71441428Y-59186142D01*
X70941428Y-59186142D01*
X70655714Y-59257571D01*
X70512857Y-59400428D01*
X70441428Y-59543285D01*
X70441428Y-59829000D01*
X70512857Y-59971857D01*
X70655714Y-60114714D01*
X70941428Y-60186142D01*
X71441428Y-60186142D01*
X71727142Y-60114714D01*
X71870000Y-59971857D01*
X71941428Y-59829000D01*
X71227142Y-58043285D02*
X71227142Y-58543285D01*
X70441428Y-58543285D02*
X71941428Y-58543285D01*
X71941428Y-57829000D01*
X71227142Y-56757571D02*
X71227142Y-57257571D01*
X70441428Y-57257571D02*
X71941428Y-57257571D01*
X71941428Y-56543285D01*
X69401428Y-58829000D02*
X69401428Y-58543285D01*
X69330000Y-58400428D01*
X69187142Y-58257571D01*
X68901428Y-58186142D01*
X68401428Y-58186142D01*
X68115714Y-58257571D01*
X67972857Y-58400428D01*
X67901428Y-58543285D01*
X67901428Y-58829000D01*
X67972857Y-58971857D01*
X68115714Y-59114714D01*
X68401428Y-59186142D01*
X68901428Y-59186142D01*
X69187142Y-59114714D01*
X69330000Y-58971857D01*
X69401428Y-58829000D01*
X67901428Y-57543285D02*
X69401428Y-57543285D01*
X67901428Y-56686142D01*
X69401428Y-56686142D01*
D10*
X214550000Y-52474761D02*
X214407142Y-52522380D01*
X214169047Y-52522380D01*
X214073809Y-52474761D01*
X214026190Y-52427142D01*
X213978571Y-52331904D01*
X213978571Y-52236666D01*
X214026190Y-52141428D01*
X214073809Y-52093809D01*
X214169047Y-52046190D01*
X214359523Y-51998571D01*
X214454761Y-51950952D01*
X214502380Y-51903333D01*
X214550000Y-51808095D01*
X214550000Y-51712857D01*
X214502380Y-51617619D01*
X214454761Y-51570000D01*
X214359523Y-51522380D01*
X214121428Y-51522380D01*
X213978571Y-51570000D01*
X213645238Y-51855714D02*
X213454761Y-52522380D01*
X213264285Y-52046190D01*
X213073809Y-52522380D01*
X212883333Y-51855714D01*
X212502380Y-52522380D02*
X212502380Y-51855714D01*
X212502380Y-51522380D02*
X212550000Y-51570000D01*
X212502380Y-51617619D01*
X212454761Y-51570000D01*
X212502380Y-51522380D01*
X212502380Y-51617619D01*
X212169047Y-51855714D02*
X211788095Y-51855714D01*
X212026190Y-51522380D02*
X212026190Y-52379523D01*
X211978571Y-52474761D01*
X211883333Y-52522380D01*
X211788095Y-52522380D01*
X211026190Y-52474761D02*
X211121428Y-52522380D01*
X211311904Y-52522380D01*
X211407142Y-52474761D01*
X211454761Y-52427142D01*
X211502380Y-52331904D01*
X211502380Y-52046190D01*
X211454761Y-51950952D01*
X211407142Y-51903333D01*
X211311904Y-51855714D01*
X211121428Y-51855714D01*
X211026190Y-51903333D01*
X210597619Y-52522380D02*
X210597619Y-51522380D01*
X210169047Y-52522380D02*
X210169047Y-51998571D01*
X210216666Y-51903333D01*
X210311904Y-51855714D01*
X210454761Y-51855714D01*
X210550000Y-51903333D01*
X210597619Y-51950952D01*
X209311904Y-52474761D02*
X209407142Y-52522380D01*
X209597619Y-52522380D01*
X209692857Y-52474761D01*
X209740476Y-52379523D01*
X209740476Y-51998571D01*
X209692857Y-51903333D01*
X209597619Y-51855714D01*
X209407142Y-51855714D01*
X209311904Y-51903333D01*
X209264285Y-51998571D01*
X209264285Y-52093809D01*
X209740476Y-52189047D01*
X208883333Y-52474761D02*
X208788095Y-52522380D01*
X208597619Y-52522380D01*
X208502380Y-52474761D01*
X208454761Y-52379523D01*
X208454761Y-52331904D01*
X208502380Y-52236666D01*
X208597619Y-52189047D01*
X208740476Y-52189047D01*
X208835714Y-52141428D01*
X208883333Y-52046190D01*
X208883333Y-51998571D01*
X208835714Y-51903333D01*
X208740476Y-51855714D01*
X208597619Y-51855714D01*
X208502380Y-51903333D01*
X206740476Y-52522380D02*
X207311904Y-52522380D01*
X207026190Y-52522380D02*
X207026190Y-51522380D01*
X207121428Y-51665238D01*
X207216666Y-51760476D01*
X207311904Y-51808095D01*
X206311904Y-52427142D02*
X206264285Y-52474761D01*
X206311904Y-52522380D01*
X206359523Y-52474761D01*
X206311904Y-52427142D01*
X206311904Y-52522380D01*
X205645238Y-51522380D02*
X205550000Y-51522380D01*
X205454761Y-51570000D01*
X205407142Y-51617619D01*
X205359523Y-51712857D01*
X205311904Y-51903333D01*
X205311904Y-52141428D01*
X205359523Y-52331904D01*
X205407142Y-52427142D01*
X205454761Y-52474761D01*
X205550000Y-52522380D01*
X205645238Y-52522380D01*
X205740476Y-52474761D01*
X205788095Y-52427142D01*
X205835714Y-52331904D01*
X205883333Y-52141428D01*
X205883333Y-51903333D01*
X205835714Y-51712857D01*
X205788095Y-51617619D01*
X205740476Y-51570000D01*
X205645238Y-51522380D01*
D12*
X193030000Y-59690000D02*
X193030000Y-50690000D01*
X113030000Y-59690000D02*
X113030000Y-50690000D01*
X113030000Y-50690000D02*
X193030000Y-50690000D01*
X113030000Y-59690000D02*
X193030000Y-59690000D01*
X62170000Y-52772000D02*
X62170000Y-54102000D01*
X63500000Y-52772000D02*
X62170000Y-52772000D01*
X64770000Y-52772000D02*
X64770000Y-55432000D01*
X64770000Y-55432000D02*
X108010000Y-55432000D01*
X64770000Y-52772000D02*
X108010000Y-52772000D01*
X108010000Y-52772000D02*
X108010000Y-55432000D01*
D10*
X115363333Y-60142380D02*
X115363333Y-60856666D01*
X115410952Y-60999523D01*
X115506190Y-61094761D01*
X115649047Y-61142380D01*
X115744285Y-61142380D01*
X114934761Y-60237619D02*
X114887142Y-60190000D01*
X114791904Y-60142380D01*
X114553809Y-60142380D01*
X114458571Y-60190000D01*
X114410952Y-60237619D01*
X114363333Y-60332857D01*
X114363333Y-60428095D01*
X114410952Y-60570952D01*
X114982380Y-61142380D01*
X114363333Y-61142380D01*
X60622380Y-53768666D02*
X61336666Y-53768666D01*
X61479523Y-53721047D01*
X61574761Y-53625809D01*
X61622380Y-53482952D01*
X61622380Y-53387714D01*
X61622380Y-54768666D02*
X61622380Y-54197238D01*
X61622380Y-54482952D02*
X60622380Y-54482952D01*
X60765238Y-54387714D01*
X60860476Y-54292476D01*
X60908095Y-54197238D01*
X205327142Y-68016380D02*
X205660476Y-67540190D01*
X205898571Y-68016380D02*
X205898571Y-67016380D01*
X205517619Y-67016380D01*
X205422380Y-67064000D01*
X205374761Y-67111619D01*
X205327142Y-67206857D01*
X205327142Y-67349714D01*
X205374761Y-67444952D01*
X205422380Y-67492571D01*
X205517619Y-67540190D01*
X205898571Y-67540190D01*
X204470000Y-68016380D02*
X204470000Y-67492571D01*
X204517619Y-67397333D01*
X204612857Y-67349714D01*
X204803333Y-67349714D01*
X204898571Y-67397333D01*
X204470000Y-67968761D02*
X204565238Y-68016380D01*
X204803333Y-68016380D01*
X204898571Y-67968761D01*
X204946190Y-67873523D01*
X204946190Y-67778285D01*
X204898571Y-67683047D01*
X204803333Y-67635428D01*
X204565238Y-67635428D01*
X204470000Y-67587809D01*
X204136666Y-67349714D02*
X203755714Y-67349714D01*
X203993809Y-67016380D02*
X203993809Y-67873523D01*
X203946190Y-67968761D01*
X203850952Y-68016380D01*
X203755714Y-68016380D01*
X203041428Y-67968761D02*
X203136666Y-68016380D01*
X203327142Y-68016380D01*
X203422380Y-67968761D01*
X203470000Y-67873523D01*
X203470000Y-67492571D01*
X203422380Y-67397333D01*
X203327142Y-67349714D01*
X203136666Y-67349714D01*
X203041428Y-67397333D01*
X202993809Y-67492571D01*
X202993809Y-67587809D01*
X203470000Y-67683047D01*
X63047619Y-69524285D02*
X64047619Y-69524285D01*
X63333333Y-69190952D01*
X64047619Y-68857619D01*
X63047619Y-68857619D01*
X63047619Y-67952857D02*
X63571428Y-67952857D01*
X63666666Y-68000476D01*
X63714285Y-68095714D01*
X63714285Y-68286190D01*
X63666666Y-68381428D01*
X63095238Y-67952857D02*
X63047619Y-68048095D01*
X63047619Y-68286190D01*
X63095238Y-68381428D01*
X63190476Y-68429047D01*
X63285714Y-68429047D01*
X63380952Y-68381428D01*
X63428571Y-68286190D01*
X63428571Y-68048095D01*
X63476190Y-67952857D01*
X63095238Y-67524285D02*
X63047619Y-67429047D01*
X63047619Y-67238571D01*
X63095238Y-67143333D01*
X63190476Y-67095714D01*
X63238095Y-67095714D01*
X63333333Y-67143333D01*
X63380952Y-67238571D01*
X63380952Y-67381428D01*
X63428571Y-67476666D01*
X63523809Y-67524285D01*
X63571428Y-67524285D01*
X63666666Y-67476666D01*
X63714285Y-67381428D01*
X63714285Y-67238571D01*
X63666666Y-67143333D01*
X63714285Y-66809999D02*
X63714285Y-66429047D01*
X64047619Y-66667142D02*
X63190476Y-66667142D01*
X63095238Y-66619523D01*
X63047619Y-66524285D01*
X63047619Y-66429047D01*
X63095238Y-65714761D02*
X63047619Y-65809999D01*
X63047619Y-66000476D01*
X63095238Y-66095714D01*
X63190476Y-66143333D01*
X63571428Y-66143333D01*
X63666666Y-66095714D01*
X63714285Y-66000476D01*
X63714285Y-65809999D01*
X63666666Y-65714761D01*
X63571428Y-65667142D01*
X63476190Y-65667142D01*
X63380952Y-66143333D01*
X63047619Y-65238571D02*
X63714285Y-65238571D01*
X63523809Y-65238571D02*
X63619047Y-65190952D01*
X63666666Y-65143333D01*
X63714285Y-65048095D01*
X63714285Y-64952857D01*
X180710241Y-67730666D02*
X180234050Y-67730666D01*
X180805479Y-68016380D02*
X180472146Y-67016380D01*
X180138812Y-68016380D01*
X179376908Y-67349714D02*
X179376908Y-68016380D01*
X179805479Y-67349714D02*
X179805479Y-67873523D01*
X179757860Y-67968761D01*
X179662622Y-68016380D01*
X179519765Y-68016380D01*
X179424527Y-67968761D01*
X179376908Y-67921142D01*
X179043574Y-67349714D02*
X178662622Y-67349714D01*
X178900717Y-67016380D02*
X178900717Y-67873523D01*
X178853098Y-67968761D01*
X178757860Y-68016380D01*
X178662622Y-68016380D01*
X178186431Y-68016380D02*
X178281670Y-67968761D01*
X178329289Y-67921142D01*
X178376908Y-67825904D01*
X178376908Y-67540190D01*
X178329289Y-67444952D01*
X178281670Y-67397333D01*
X178186431Y-67349714D01*
X178043574Y-67349714D01*
X177948336Y-67397333D01*
X177900717Y-67444952D01*
X177853098Y-67540190D01*
X177853098Y-67825904D01*
X177900717Y-67921142D01*
X177948336Y-67968761D01*
X178043574Y-68016380D01*
X178186431Y-68016380D01*
X155426669Y-67968761D02*
X155283812Y-68016380D01*
X155045716Y-68016380D01*
X154950478Y-67968761D01*
X154902859Y-67921142D01*
X154855240Y-67825904D01*
X154855240Y-67730666D01*
X154902859Y-67635428D01*
X154950478Y-67587809D01*
X155045716Y-67540190D01*
X155236193Y-67492571D01*
X155331431Y-67444952D01*
X155379050Y-67397333D01*
X155426669Y-67302095D01*
X155426669Y-67206857D01*
X155379050Y-67111619D01*
X155331431Y-67064000D01*
X155236193Y-67016380D01*
X154998097Y-67016380D01*
X154855240Y-67064000D01*
X154521907Y-67016380D02*
X154283812Y-68016380D01*
X154093336Y-67302095D01*
X153902859Y-68016380D01*
X153664764Y-67016380D01*
X152855240Y-67349714D02*
X152855240Y-68016380D01*
X153093336Y-66968761D02*
X153331431Y-67683047D01*
X152712383Y-67683047D01*
X129730335Y-67714761D02*
X129587478Y-67762380D01*
X129349382Y-67762380D01*
X129254144Y-67714761D01*
X129206525Y-67667142D01*
X129158906Y-67571904D01*
X129158906Y-67476666D01*
X129206525Y-67381428D01*
X129254144Y-67333809D01*
X129349382Y-67286190D01*
X129539859Y-67238571D01*
X129635097Y-67190952D01*
X129682716Y-67143333D01*
X129730335Y-67048095D01*
X129730335Y-66952857D01*
X129682716Y-66857619D01*
X129635097Y-66810000D01*
X129539859Y-66762380D01*
X129301763Y-66762380D01*
X129158906Y-66810000D01*
X128825573Y-66762380D02*
X128587478Y-67762380D01*
X128397002Y-67048095D01*
X128206525Y-67762380D01*
X127968430Y-66762380D01*
X127682716Y-66762380D02*
X127063668Y-66762380D01*
X127397002Y-67143333D01*
X127254144Y-67143333D01*
X127158906Y-67190952D01*
X127111287Y-67238571D01*
X127063668Y-67333809D01*
X127063668Y-67571904D01*
X127111287Y-67667142D01*
X127158906Y-67714761D01*
X127254144Y-67762380D01*
X127539859Y-67762380D01*
X127635097Y-67714761D01*
X127682716Y-67667142D01*
X104542001Y-67968761D02*
X104399144Y-68016380D01*
X104161048Y-68016380D01*
X104065810Y-67968761D01*
X104018191Y-67921142D01*
X103970572Y-67825904D01*
X103970572Y-67730666D01*
X104018191Y-67635428D01*
X104065810Y-67587809D01*
X104161048Y-67540190D01*
X104351525Y-67492571D01*
X104446763Y-67444952D01*
X104494382Y-67397333D01*
X104542001Y-67302095D01*
X104542001Y-67206857D01*
X104494382Y-67111619D01*
X104446763Y-67064000D01*
X104351525Y-67016380D01*
X104113429Y-67016380D01*
X103970572Y-67064000D01*
X103637239Y-67016380D02*
X103399144Y-68016380D01*
X103208668Y-67302095D01*
X103018191Y-68016380D01*
X102780096Y-67016380D01*
X102446763Y-67111619D02*
X102399144Y-67064000D01*
X102303906Y-67016380D01*
X102065810Y-67016380D01*
X101970572Y-67064000D01*
X101922953Y-67111619D01*
X101875334Y-67206857D01*
X101875334Y-67302095D01*
X101922953Y-67444952D01*
X102494382Y-68016380D01*
X101875334Y-68016380D01*
X79099667Y-67968761D02*
X78956810Y-68016380D01*
X78718714Y-68016380D01*
X78623476Y-67968761D01*
X78575857Y-67921142D01*
X78528238Y-67825904D01*
X78528238Y-67730666D01*
X78575857Y-67635428D01*
X78623476Y-67587809D01*
X78718714Y-67540190D01*
X78909191Y-67492571D01*
X79004429Y-67444952D01*
X79052048Y-67397333D01*
X79099667Y-67302095D01*
X79099667Y-67206857D01*
X79052048Y-67111619D01*
X79004429Y-67064000D01*
X78909191Y-67016380D01*
X78671095Y-67016380D01*
X78528238Y-67064000D01*
X78194905Y-67016380D02*
X77956810Y-68016380D01*
X77766334Y-67302095D01*
X77575857Y-68016380D01*
X77337762Y-67016380D01*
X76433000Y-68016380D02*
X77004429Y-68016380D01*
X76718714Y-68016380D02*
X76718714Y-67016380D01*
X76813953Y-67159238D01*
X76909191Y-67254476D01*
X77004429Y-67302095D01*
M02*
