G04 #@! TF.GenerationSoftware,KiCad,Pcbnew,(5.1.2)-2*
G04 #@! TF.CreationDate,2020-03-29T17:17:04-06:00*
G04 #@! TF.ProjectId,Switches,53776974-6368-4657-932e-6b696361645f,rev?*
G04 #@! TF.SameCoordinates,Original*
G04 #@! TF.FileFunction,Legend,Top*
G04 #@! TF.FilePolarity,Positive*
%FSLAX46Y46*%
G04 Gerber Fmt 4.6, Leading zero omitted, Abs format (unit mm)*
G04 Created by KiCad (PCBNEW (5.1.2)-2) date 2020-03-29 17:17:04*
%MOMM*%
%LPD*%
G04 APERTURE LIST*
%ADD10C,0.150000*%
%ADD11C,0.120000*%
G04 APERTURE END LIST*
D10*
X56046857Y-52506571D02*
X55713523Y-52506571D01*
X55713523Y-53030380D02*
X55713523Y-52030380D01*
X56189714Y-52030380D01*
X56570666Y-53030380D02*
X56570666Y-52363714D01*
X56570666Y-52554190D02*
X56618285Y-52458952D01*
X56665904Y-52411333D01*
X56761142Y-52363714D01*
X56856380Y-52363714D01*
X57332571Y-53030380D02*
X57237333Y-52982761D01*
X57189714Y-52935142D01*
X57142095Y-52839904D01*
X57142095Y-52554190D01*
X57189714Y-52458952D01*
X57237333Y-52411333D01*
X57332571Y-52363714D01*
X57475428Y-52363714D01*
X57570666Y-52411333D01*
X57618285Y-52458952D01*
X57665904Y-52554190D01*
X57665904Y-52839904D01*
X57618285Y-52935142D01*
X57570666Y-52982761D01*
X57475428Y-53030380D01*
X57332571Y-53030380D01*
X58094476Y-52363714D02*
X58094476Y-53030380D01*
X58094476Y-52458952D02*
X58142095Y-52411333D01*
X58237333Y-52363714D01*
X58380190Y-52363714D01*
X58475428Y-52411333D01*
X58523047Y-52506571D01*
X58523047Y-53030380D01*
X58856380Y-52363714D02*
X59237333Y-52363714D01*
X58999238Y-52030380D02*
X58999238Y-52887523D01*
X59046857Y-52982761D01*
X59142095Y-53030380D01*
X59237333Y-53030380D01*
D11*
X206883000Y-61214000D02*
X206883000Y-74218800D01*
X206883000Y-61214000D02*
X214782400Y-61214000D01*
X214782400Y-61214000D02*
X214782400Y-74218800D01*
X206883000Y-74218800D02*
X214782400Y-74218800D01*
X54483000Y-61214000D02*
X54483000Y-74218800D01*
X54483000Y-61214000D02*
X62382400Y-61214000D01*
X62382400Y-61214000D02*
X62382400Y-74218800D01*
X54483000Y-74218800D02*
X62382400Y-74218800D01*
X181483000Y-61214000D02*
X181483000Y-74218800D01*
X181483000Y-61214000D02*
X189382400Y-61214000D01*
X189382400Y-61214000D02*
X189382400Y-74218800D01*
X181483000Y-74218800D02*
X189382400Y-74218800D01*
X156083000Y-61214000D02*
X156083000Y-74218800D01*
X156083000Y-61214000D02*
X163982400Y-61214000D01*
X163982400Y-61214000D02*
X163982400Y-74218800D01*
X156083000Y-74218800D02*
X163982400Y-74218800D01*
X130683000Y-61214000D02*
X130683000Y-74218800D01*
X130683000Y-61214000D02*
X138582400Y-61214000D01*
X138582400Y-61214000D02*
X138582400Y-74218800D01*
X130683000Y-74218800D02*
X138582400Y-74218800D01*
X105283000Y-61214000D02*
X105283000Y-74218800D01*
X105283000Y-61214000D02*
X113182400Y-61214000D01*
X113182400Y-61214000D02*
X113182400Y-74218800D01*
X105283000Y-74218800D02*
X113182400Y-74218800D01*
X79883000Y-61214000D02*
X79883000Y-74218800D01*
X79883000Y-61214000D02*
X87782400Y-61214000D01*
X87782400Y-61214000D02*
X87782400Y-74218800D01*
X79883000Y-74218800D02*
X87782400Y-74218800D01*
D10*
X203390666Y-73810761D02*
X203533523Y-73858380D01*
X203771619Y-73858380D01*
X203866857Y-73810761D01*
X203914476Y-73763142D01*
X203962095Y-73667904D01*
X203962095Y-73572666D01*
X203914476Y-73477428D01*
X203866857Y-73429809D01*
X203771619Y-73382190D01*
X203581142Y-73334571D01*
X203485904Y-73286952D01*
X203438285Y-73239333D01*
X203390666Y-73144095D01*
X203390666Y-73048857D01*
X203438285Y-72953619D01*
X203485904Y-72906000D01*
X203581142Y-72858380D01*
X203819238Y-72858380D01*
X203962095Y-72906000D01*
X204295428Y-72858380D02*
X204533523Y-73858380D01*
X204724000Y-73144095D01*
X204914476Y-73858380D01*
X205152571Y-72858380D01*
X205438285Y-72858380D02*
X206104952Y-72858380D01*
X205676380Y-73858380D01*
X63436666Y-74318761D02*
X63579523Y-74366380D01*
X63817619Y-74366380D01*
X63912857Y-74318761D01*
X63960476Y-74271142D01*
X64008095Y-74175904D01*
X64008095Y-74080666D01*
X63960476Y-73985428D01*
X63912857Y-73937809D01*
X63817619Y-73890190D01*
X63627142Y-73842571D01*
X63531904Y-73794952D01*
X63484285Y-73747333D01*
X63436666Y-73652095D01*
X63436666Y-73556857D01*
X63484285Y-73461619D01*
X63531904Y-73414000D01*
X63627142Y-73366380D01*
X63865238Y-73366380D01*
X64008095Y-73414000D01*
X64341428Y-73366380D02*
X64579523Y-74366380D01*
X64770000Y-73652095D01*
X64960476Y-74366380D01*
X65198571Y-73366380D01*
X66008095Y-73366380D02*
X65817619Y-73366380D01*
X65722380Y-73414000D01*
X65674761Y-73461619D01*
X65579523Y-73604476D01*
X65531904Y-73794952D01*
X65531904Y-74175904D01*
X65579523Y-74271142D01*
X65627142Y-74318761D01*
X65722380Y-74366380D01*
X65912857Y-74366380D01*
X66008095Y-74318761D01*
X66055714Y-74271142D01*
X66103333Y-74175904D01*
X66103333Y-73937809D01*
X66055714Y-73842571D01*
X66008095Y-73794952D01*
X65912857Y-73747333D01*
X65722380Y-73747333D01*
X65627142Y-73794952D01*
X65579523Y-73842571D01*
X65531904Y-73937809D01*
X177821336Y-73810761D02*
X177964193Y-73858380D01*
X178202289Y-73858380D01*
X178297527Y-73810761D01*
X178345146Y-73763142D01*
X178392765Y-73667904D01*
X178392765Y-73572666D01*
X178345146Y-73477428D01*
X178297527Y-73429809D01*
X178202289Y-73382190D01*
X178011812Y-73334571D01*
X177916574Y-73286952D01*
X177868955Y-73239333D01*
X177821336Y-73144095D01*
X177821336Y-73048857D01*
X177868955Y-72953619D01*
X177916574Y-72906000D01*
X178011812Y-72858380D01*
X178249908Y-72858380D01*
X178392765Y-72906000D01*
X178726098Y-72858380D02*
X178964193Y-73858380D01*
X179154670Y-73144095D01*
X179345146Y-73858380D01*
X179583241Y-72858380D01*
X180440384Y-72858380D02*
X179964193Y-72858380D01*
X179916574Y-73334571D01*
X179964193Y-73286952D01*
X180059431Y-73239333D01*
X180297527Y-73239333D01*
X180392765Y-73286952D01*
X180440384Y-73334571D01*
X180488003Y-73429809D01*
X180488003Y-73667904D01*
X180440384Y-73763142D01*
X180392765Y-73810761D01*
X180297527Y-73858380D01*
X180059431Y-73858380D01*
X179964193Y-73810761D01*
X179916574Y-73763142D01*
X152506002Y-74064761D02*
X152648859Y-74112380D01*
X152886955Y-74112380D01*
X152982193Y-74064761D01*
X153029812Y-74017142D01*
X153077431Y-73921904D01*
X153077431Y-73826666D01*
X153029812Y-73731428D01*
X152982193Y-73683809D01*
X152886955Y-73636190D01*
X152696478Y-73588571D01*
X152601240Y-73540952D01*
X152553621Y-73493333D01*
X152506002Y-73398095D01*
X152506002Y-73302857D01*
X152553621Y-73207619D01*
X152601240Y-73160000D01*
X152696478Y-73112380D01*
X152934574Y-73112380D01*
X153077431Y-73160000D01*
X153410764Y-73112380D02*
X153648859Y-74112380D01*
X153839336Y-73398095D01*
X154029812Y-74112380D01*
X154267907Y-73112380D01*
X155077431Y-73445714D02*
X155077431Y-74112380D01*
X154839336Y-73064761D02*
X154601240Y-73779047D01*
X155220288Y-73779047D01*
X127190668Y-74064761D02*
X127333525Y-74112380D01*
X127571621Y-74112380D01*
X127666859Y-74064761D01*
X127714478Y-74017142D01*
X127762097Y-73921904D01*
X127762097Y-73826666D01*
X127714478Y-73731428D01*
X127666859Y-73683809D01*
X127571621Y-73636190D01*
X127381144Y-73588571D01*
X127285906Y-73540952D01*
X127238287Y-73493333D01*
X127190668Y-73398095D01*
X127190668Y-73302857D01*
X127238287Y-73207619D01*
X127285906Y-73160000D01*
X127381144Y-73112380D01*
X127619240Y-73112380D01*
X127762097Y-73160000D01*
X128095430Y-73112380D02*
X128333525Y-74112380D01*
X128524002Y-73398095D01*
X128714478Y-74112380D01*
X128952573Y-73112380D01*
X129238287Y-73112380D02*
X129857335Y-73112380D01*
X129524002Y-73493333D01*
X129666859Y-73493333D01*
X129762097Y-73540952D01*
X129809716Y-73588571D01*
X129857335Y-73683809D01*
X129857335Y-73921904D01*
X129809716Y-74017142D01*
X129762097Y-74064761D01*
X129666859Y-74112380D01*
X129381144Y-74112380D01*
X129285906Y-74064761D01*
X129238287Y-74017142D01*
X101621334Y-73810761D02*
X101764191Y-73858380D01*
X102002287Y-73858380D01*
X102097525Y-73810761D01*
X102145144Y-73763142D01*
X102192763Y-73667904D01*
X102192763Y-73572666D01*
X102145144Y-73477428D01*
X102097525Y-73429809D01*
X102002287Y-73382190D01*
X101811810Y-73334571D01*
X101716572Y-73286952D01*
X101668953Y-73239333D01*
X101621334Y-73144095D01*
X101621334Y-73048857D01*
X101668953Y-72953619D01*
X101716572Y-72906000D01*
X101811810Y-72858380D01*
X102049906Y-72858380D01*
X102192763Y-72906000D01*
X102526096Y-72858380D02*
X102764191Y-73858380D01*
X102954668Y-73144095D01*
X103145144Y-73858380D01*
X103383239Y-72858380D01*
X103716572Y-72953619D02*
X103764191Y-72906000D01*
X103859429Y-72858380D01*
X104097525Y-72858380D01*
X104192763Y-72906000D01*
X104240382Y-72953619D01*
X104288001Y-73048857D01*
X104288001Y-73144095D01*
X104240382Y-73286952D01*
X103668953Y-73858380D01*
X104288001Y-73858380D01*
X76560000Y-74064761D02*
X76702857Y-74112380D01*
X76940953Y-74112380D01*
X77036191Y-74064761D01*
X77083810Y-74017142D01*
X77131429Y-73921904D01*
X77131429Y-73826666D01*
X77083810Y-73731428D01*
X77036191Y-73683809D01*
X76940953Y-73636190D01*
X76750476Y-73588571D01*
X76655238Y-73540952D01*
X76607619Y-73493333D01*
X76560000Y-73398095D01*
X76560000Y-73302857D01*
X76607619Y-73207619D01*
X76655238Y-73160000D01*
X76750476Y-73112380D01*
X76988572Y-73112380D01*
X77131429Y-73160000D01*
X77464762Y-73112380D02*
X77702857Y-74112380D01*
X77893334Y-73398095D01*
X78083810Y-74112380D01*
X78321905Y-73112380D01*
X79226667Y-74112380D02*
X78655238Y-74112380D01*
X78940953Y-74112380D02*
X78940953Y-73112380D01*
X78845714Y-73255238D01*
X78750476Y-73350476D01*
X78655238Y-73398095D01*
M02*
