M48
; DRILL file {KiCad (5.1.2)-2} date 2020-03-29 5:17:06 PM
; FORMAT={-:-/ absolute / inch / decimal}
; #@! TF.CreationDate,2020-03-29T17:17:06-06:00
; #@! TF.GenerationSoftware,Kicad,Pcbnew,(5.1.2)-2
; #@! TF.FileFunction,Plated,1,2,PTH
FMAT,2
INCH
T1C0.0157
T2C0.0394
T3C0.0512
T4C0.0730
%
G90
G05
T1
X5.86Y-2.02
X5.86Y-2.1
T2
X2.5Y-2.13
X2.6Y-2.13
X2.7Y-2.13
X2.8Y-2.13
X2.9Y-2.13
X3.0Y-2.13
X3.1Y-2.13
X3.2Y-2.13
X3.3Y-2.13
X3.4Y-2.13
X3.5Y-2.13
X3.6Y-2.13
X3.7Y-2.13
X3.8Y-2.13
X3.9Y-2.13
X4.0Y-2.13
X4.1Y-2.13
X4.2Y-2.13
T3
X4.5484Y-2.1531
X4.7453Y-2.1531
X4.9421Y-2.1531
X5.139Y-2.1531
X5.3358Y-2.1531
X5.5327Y-2.1531
X5.7295Y-2.1531
X5.9264Y-2.1531
X6.1232Y-2.1531
X6.3201Y-2.1531
X6.5169Y-2.1531
X6.7138Y-2.1531
X6.9106Y-2.1531
X7.1075Y-2.1531
X7.3043Y-2.1531
X7.5012Y-2.1531
T4
X2.3Y-2.48
X2.3Y-2.665
X2.3Y-2.8501
X4.3Y-2.48
X4.3Y-2.665
X4.3Y-2.8501
X7.3Y-2.48
X7.3Y-2.665
X7.3Y-2.8501
X6.3Y-2.48
X6.3Y-2.665
X6.3Y-2.8501
X8.3Y-2.48
X8.3Y-2.665
X8.3Y-2.8501
X5.3Y-2.48
X5.3Y-2.665
X5.3Y-2.8501
X3.3Y-2.48
X3.3Y-2.665
X3.3Y-2.8501
T0
M30
