G04 #@! TF.GenerationSoftware,KiCad,Pcbnew,(5.1.2)-2*
G04 #@! TF.CreationDate,2020-03-29T17:17:04-06:00*
G04 #@! TF.ProjectId,Switches,53776974-6368-4657-932e-6b696361645f,rev?*
G04 #@! TF.SameCoordinates,Original*
G04 #@! TF.FileFunction,Copper,L1,Top*
G04 #@! TF.FilePolarity,Positive*
%FSLAX46Y46*%
G04 Gerber Fmt 4.6, Leading zero omitted, Abs format (unit mm)*
G04 Created by KiCad (PCBNEW (5.1.2)-2) date 2020-03-29 17:17:04*
%MOMM*%
%LPD*%
G04 APERTURE LIST*
%ADD10C,2.600000*%
%ADD11O,1.700000X1.700000*%
%ADD12R,1.700000X1.700000*%
%ADD13C,3.048000*%
%ADD14C,0.800000*%
%ADD15C,0.508000*%
G04 APERTURE END LIST*
D10*
X190530000Y-54690000D03*
X185530000Y-54690000D03*
X180530000Y-54690000D03*
X175530000Y-54690000D03*
X170530000Y-54690000D03*
X165530000Y-54690000D03*
X160530000Y-54690000D03*
X155530000Y-54690000D03*
X150530000Y-54690000D03*
X145530000Y-54690000D03*
X140530000Y-54690000D03*
X135530000Y-54690000D03*
X130530000Y-54690000D03*
X125530000Y-54690000D03*
X120530000Y-54690000D03*
X115530000Y-54690000D03*
D11*
X106680000Y-54102000D03*
X104140000Y-54102000D03*
X101600000Y-54102000D03*
X99060000Y-54102000D03*
X96520000Y-54102000D03*
X93980000Y-54102000D03*
X91440000Y-54102000D03*
X88900000Y-54102000D03*
X86360000Y-54102000D03*
X83820000Y-54102000D03*
X81280000Y-54102000D03*
X78740000Y-54102000D03*
X76200000Y-54102000D03*
X73660000Y-54102000D03*
X71120000Y-54102000D03*
X68580000Y-54102000D03*
X66040000Y-54102000D03*
D12*
X63500000Y-54102000D03*
D13*
X210820000Y-72392000D03*
X210820000Y-67692000D03*
X210820000Y-62992000D03*
X58420000Y-72392000D03*
X58420000Y-67692000D03*
X58420000Y-62992000D03*
X185420000Y-72392000D03*
X185420000Y-67692000D03*
X185420000Y-62992000D03*
X160020000Y-72392000D03*
X160020000Y-67692000D03*
X160020000Y-62992000D03*
X134620000Y-72392000D03*
X134620000Y-67692000D03*
X134620000Y-62992000D03*
X109220000Y-72392000D03*
X109220000Y-67692000D03*
X109220000Y-62992000D03*
X83820000Y-72392000D03*
X83820000Y-67692000D03*
X83820000Y-62992000D03*
D14*
X148844000Y-51308000D03*
X148844000Y-53340000D03*
D15*
X210820000Y-62992000D02*
X205688023Y-57860023D01*
X95829074Y-56149945D02*
X90947945Y-56149945D01*
X89749999Y-54951999D02*
X88900000Y-54102000D01*
X90947945Y-56149945D02*
X89749999Y-54951999D01*
X205688023Y-57860023D02*
X114101544Y-57860022D01*
X114101544Y-57860022D02*
X113393534Y-57152012D01*
X113393534Y-57152012D02*
X96831141Y-57152012D01*
X96831141Y-57152012D02*
X95829074Y-56149945D01*
X210820000Y-72392000D02*
X198733989Y-60305989D01*
X87209999Y-54951999D02*
X86360000Y-54102000D01*
X95535807Y-56857956D02*
X89115956Y-56857956D01*
X107615324Y-60667956D02*
X99345807Y-60667956D01*
X107977291Y-60305989D02*
X107615324Y-60667956D01*
X99345807Y-60667956D02*
X95535807Y-56857956D01*
X198733989Y-60305989D02*
X107977291Y-60305989D01*
X89115956Y-56857956D02*
X87209999Y-54951999D01*
X87283967Y-57565967D02*
X84669999Y-54951999D01*
X99306540Y-61629967D02*
X95242540Y-57565967D01*
X185420000Y-72392000D02*
X174041999Y-61013999D01*
X84669999Y-54951999D02*
X83820000Y-54102000D01*
X107654591Y-61629967D02*
X99306540Y-61629967D01*
X95242540Y-57565967D02*
X87283967Y-57565967D01*
X174041999Y-61013999D02*
X108270559Y-61013999D01*
X108270559Y-61013999D02*
X107654591Y-61629967D01*
X82129999Y-54951999D02*
X81280000Y-54102000D01*
X160020000Y-72392000D02*
X152598001Y-64970001D01*
X152598001Y-64970001D02*
X101645296Y-64970001D01*
X101645296Y-64970001D02*
X94949273Y-58273978D01*
X94949273Y-58273978D02*
X85451978Y-58273978D01*
X85451978Y-58273978D02*
X82129999Y-54951999D01*
X134620000Y-72392000D02*
X127941999Y-65713999D01*
X127941999Y-65713999D02*
X90470719Y-65713999D01*
X90470719Y-65713999D02*
X78858720Y-54102000D01*
X78858720Y-54102000D02*
X78740000Y-54102000D01*
X79161443Y-55406001D02*
X77504001Y-55406001D01*
X77049999Y-54951999D02*
X76200000Y-54102000D01*
X109220000Y-72392000D02*
X96147442Y-72392000D01*
X77504001Y-55406001D02*
X77049999Y-54951999D01*
X96147442Y-72392000D02*
X79161443Y-55406001D01*
X73660000Y-55304081D02*
X73660000Y-54102000D01*
X73660000Y-62232000D02*
X73660000Y-55304081D01*
X83820000Y-72392000D02*
X73660000Y-62232000D01*
X62230000Y-62992000D02*
X71120000Y-54102000D01*
X58420000Y-62992000D02*
X62230000Y-62992000D01*
X67730001Y-54951999D02*
X68580000Y-54102000D01*
X67275999Y-55406001D02*
X67730001Y-54951999D01*
X63078557Y-55406001D02*
X67275999Y-55406001D01*
X56441999Y-62042559D02*
X63078557Y-55406001D01*
X56441999Y-70413999D02*
X56441999Y-62042559D01*
X58420000Y-72392000D02*
X56441999Y-70413999D01*
X114688079Y-56444001D02*
X178775999Y-56444001D01*
X178775999Y-56444001D02*
X180530000Y-54690000D01*
X106680000Y-54102000D02*
X112520800Y-54102000D01*
X112520800Y-54102000D02*
X112520800Y-54276722D01*
X112520800Y-54276722D02*
X114688079Y-56444001D01*
X148844000Y-51308000D02*
X148844000Y-53340000D01*
X190663910Y-57152012D02*
X192284001Y-55531921D01*
X192284001Y-55531921D02*
X192284001Y-53848079D01*
X192284001Y-53848079D02*
X191371921Y-52935999D01*
X191371921Y-52935999D02*
X152284001Y-52935999D01*
X151829999Y-53390001D02*
X150530000Y-54690000D01*
X152284001Y-52935999D02*
X151829999Y-53390001D01*
X114394812Y-57152012D02*
X190663910Y-57152012D01*
X112648801Y-55406001D02*
X114394812Y-57152012D01*
X100364001Y-55406001D02*
X112648801Y-55406001D01*
X99060000Y-54102000D02*
X100364001Y-55406001D01*
X129230001Y-53390001D02*
X130530000Y-54690000D01*
X128637999Y-52797999D02*
X129230001Y-53390001D01*
X97824001Y-52797999D02*
X128637999Y-52797999D01*
X96520000Y-54102000D02*
X97824001Y-52797999D01*
X139230001Y-53390001D02*
X140530000Y-54690000D01*
X137910000Y-52070000D02*
X139230001Y-53390001D01*
X96012000Y-52070000D02*
X137910000Y-52070000D01*
X93980000Y-54102000D02*
X96012000Y-52070000D01*
M02*
