G04 #@! TF.GenerationSoftware,KiCad,Pcbnew,(5.1.2)-2*
G04 #@! TF.CreationDate,2020-03-29T17:17:04-06:00*
G04 #@! TF.ProjectId,Switches,53776974-6368-4657-932e-6b696361645f,rev?*
G04 #@! TF.SameCoordinates,Original*
G04 #@! TF.FileFunction,Copper,L2,Bot*
G04 #@! TF.FilePolarity,Positive*
%FSLAX46Y46*%
G04 Gerber Fmt 4.6, Leading zero omitted, Abs format (unit mm)*
G04 Created by KiCad (PCBNEW (5.1.2)-2) date 2020-03-29 17:17:04*
%MOMM*%
%LPD*%
G04 APERTURE LIST*
%ADD10C,2.600000*%
%ADD11O,1.700000X1.700000*%
%ADD12R,1.700000X1.700000*%
%ADD13C,3.048000*%
%ADD14C,0.800000*%
%ADD15C,0.508000*%
%ADD16C,0.254000*%
G04 APERTURE END LIST*
D10*
X190530000Y-54690000D03*
X185530000Y-54690000D03*
X180530000Y-54690000D03*
X175530000Y-54690000D03*
X170530000Y-54690000D03*
X165530000Y-54690000D03*
X160530000Y-54690000D03*
X155530000Y-54690000D03*
X150530000Y-54690000D03*
X145530000Y-54690000D03*
X140530000Y-54690000D03*
X135530000Y-54690000D03*
X130530000Y-54690000D03*
X125530000Y-54690000D03*
X120530000Y-54690000D03*
X115530000Y-54690000D03*
D11*
X106680000Y-54102000D03*
X104140000Y-54102000D03*
X101600000Y-54102000D03*
X99060000Y-54102000D03*
X96520000Y-54102000D03*
X93980000Y-54102000D03*
X91440000Y-54102000D03*
X88900000Y-54102000D03*
X86360000Y-54102000D03*
X83820000Y-54102000D03*
X81280000Y-54102000D03*
X78740000Y-54102000D03*
X76200000Y-54102000D03*
X73660000Y-54102000D03*
X71120000Y-54102000D03*
X68580000Y-54102000D03*
X66040000Y-54102000D03*
D12*
X63500000Y-54102000D03*
D13*
X210820000Y-72392000D03*
X210820000Y-67692000D03*
X210820000Y-62992000D03*
X58420000Y-72392000D03*
X58420000Y-67692000D03*
X58420000Y-62992000D03*
X185420000Y-72392000D03*
X185420000Y-67692000D03*
X185420000Y-62992000D03*
X160020000Y-72392000D03*
X160020000Y-67692000D03*
X160020000Y-62992000D03*
X134620000Y-72392000D03*
X134620000Y-67692000D03*
X134620000Y-62992000D03*
X109220000Y-72392000D03*
X109220000Y-67692000D03*
X109220000Y-62992000D03*
X83820000Y-72392000D03*
X83820000Y-67692000D03*
X83820000Y-62992000D03*
D14*
X148844000Y-51308000D03*
X148844000Y-53340000D03*
D15*
X190530000Y-67282000D02*
X190530000Y-54690000D01*
X185420000Y-72392000D02*
X190530000Y-67282000D01*
X66040000Y-54102000D02*
X69542011Y-57604011D01*
X69542011Y-57604011D02*
X118617267Y-57604011D01*
X118617267Y-57604011D02*
X119777277Y-56444001D01*
X119777277Y-56444001D02*
X126282723Y-56444001D01*
X183775999Y-56444001D02*
X184230001Y-55989999D01*
X184230001Y-55989999D02*
X185530000Y-54690000D01*
X174681277Y-56444001D02*
X183775999Y-56444001D01*
X173775267Y-57350011D02*
X174681277Y-56444001D01*
X127188733Y-57350011D02*
X173775267Y-57350011D01*
X126282723Y-56444001D02*
X127188733Y-57350011D01*
X212343999Y-66168001D02*
X210820000Y-67692000D01*
X212798001Y-65713999D02*
X212343999Y-66168001D01*
X212798001Y-62042559D02*
X212798001Y-65713999D01*
X203691441Y-52935999D02*
X212798001Y-62042559D01*
X177284001Y-52935999D02*
X203691441Y-52935999D01*
X175530000Y-54690000D02*
X177284001Y-52935999D01*
X183896001Y-69215999D02*
X185420000Y-67692000D01*
X183441999Y-69670001D02*
X183896001Y-69215999D01*
X183441999Y-73341441D02*
X183441999Y-69670001D01*
X184470559Y-74370001D02*
X183441999Y-73341441D01*
X201986738Y-74370001D02*
X184470559Y-74370001D01*
X208664739Y-67692000D02*
X201986738Y-74370001D01*
X210820000Y-67692000D02*
X208664739Y-67692000D01*
X183264739Y-67692000D02*
X160020000Y-67692000D01*
X185420000Y-67692000D02*
X183264739Y-67692000D01*
X157864739Y-67692000D02*
X134620000Y-67692000D01*
X160020000Y-67692000D02*
X157864739Y-67692000D01*
X134620000Y-67692000D02*
X108584000Y-67692000D01*
X108584000Y-67692000D02*
X109220000Y-67692000D01*
X109220000Y-67692000D02*
X83820000Y-67692000D01*
X83820000Y-67692000D02*
X58420000Y-67692000D01*
X63500000Y-62612000D02*
X63500000Y-54102000D01*
X58420000Y-67692000D02*
X63500000Y-62612000D01*
X166829999Y-55989999D02*
X165530000Y-54690000D01*
X167284001Y-56444001D02*
X166829999Y-55989999D01*
X171937522Y-56444001D02*
X167284001Y-56444001D01*
X173691523Y-54690000D02*
X171937522Y-56444001D01*
X175530000Y-54690000D02*
X173691523Y-54690000D01*
X157284001Y-56444001D02*
X156829999Y-55989999D01*
X163775999Y-56444001D02*
X157284001Y-56444001D01*
X156829999Y-55989999D02*
X155530000Y-54690000D01*
X165530000Y-54690000D02*
X163775999Y-56444001D01*
X146829999Y-55989999D02*
X145530000Y-54690000D01*
X147284001Y-56444001D02*
X146829999Y-55989999D01*
X153775999Y-56444001D02*
X147284001Y-56444001D01*
X155530000Y-54690000D02*
X153775999Y-56444001D01*
X136829999Y-55989999D02*
X135530000Y-54690000D01*
X137284001Y-56444001D02*
X136829999Y-55989999D01*
X143775999Y-56444001D02*
X137284001Y-56444001D01*
X145530000Y-54690000D02*
X143775999Y-56444001D01*
X126829999Y-55989999D02*
X125530000Y-54690000D01*
X127284001Y-56444001D02*
X126829999Y-55989999D01*
X133775999Y-56444001D02*
X127284001Y-56444001D01*
X135530000Y-54690000D02*
X133775999Y-56444001D01*
X116829999Y-53390001D02*
X115530000Y-54690000D01*
X117284001Y-52935999D02*
X116829999Y-53390001D01*
X123775999Y-52935999D02*
X117284001Y-52935999D01*
X125530000Y-54690000D02*
X123775999Y-52935999D01*
X104989999Y-53252001D02*
X104140000Y-54102000D01*
X106014011Y-52227989D02*
X104989999Y-53252001D01*
X168067989Y-52227989D02*
X106014011Y-52227989D01*
X170530000Y-54690000D02*
X168067989Y-52227989D01*
X159230001Y-53390001D02*
X160530000Y-54690000D01*
X158775999Y-52935999D02*
X159230001Y-53390001D01*
X149248001Y-52935999D02*
X158775999Y-52935999D01*
X148844000Y-53340000D02*
X149248001Y-52935999D01*
X104394000Y-51308000D02*
X101600000Y-54102000D01*
X148844000Y-51308000D02*
X104394000Y-51308000D01*
X139272000Y-54690000D02*
X139192000Y-54610000D01*
X140530000Y-54690000D02*
X139272000Y-54690000D01*
X119230001Y-55989999D02*
X120530000Y-54690000D01*
X118775999Y-56444001D02*
X119230001Y-55989999D01*
X93782001Y-56444001D02*
X118775999Y-56444001D01*
X91440000Y-54102000D02*
X93782001Y-56444001D01*
D16*
G36*
X103762341Y-50676341D02*
G01*
X103734506Y-50710258D01*
X101813884Y-52630881D01*
X101672950Y-52617000D01*
X101527050Y-52617000D01*
X101308889Y-52638487D01*
X101028966Y-52723401D01*
X100770986Y-52861294D01*
X100544866Y-53046866D01*
X100359294Y-53272986D01*
X100330000Y-53327791D01*
X100300706Y-53272986D01*
X100115134Y-53046866D01*
X99889014Y-52861294D01*
X99631034Y-52723401D01*
X99351111Y-52638487D01*
X99132950Y-52617000D01*
X98987050Y-52617000D01*
X98768889Y-52638487D01*
X98488966Y-52723401D01*
X98230986Y-52861294D01*
X98004866Y-53046866D01*
X97819294Y-53272986D01*
X97790000Y-53327791D01*
X97760706Y-53272986D01*
X97575134Y-53046866D01*
X97349014Y-52861294D01*
X97091034Y-52723401D01*
X96811111Y-52638487D01*
X96592950Y-52617000D01*
X96447050Y-52617000D01*
X96228889Y-52638487D01*
X95948966Y-52723401D01*
X95690986Y-52861294D01*
X95464866Y-53046866D01*
X95279294Y-53272986D01*
X95250000Y-53327791D01*
X95220706Y-53272986D01*
X95035134Y-53046866D01*
X94809014Y-52861294D01*
X94551034Y-52723401D01*
X94271111Y-52638487D01*
X94052950Y-52617000D01*
X93907050Y-52617000D01*
X93688889Y-52638487D01*
X93408966Y-52723401D01*
X93150986Y-52861294D01*
X92924866Y-53046866D01*
X92739294Y-53272986D01*
X92710000Y-53327791D01*
X92680706Y-53272986D01*
X92495134Y-53046866D01*
X92269014Y-52861294D01*
X92011034Y-52723401D01*
X91731111Y-52638487D01*
X91512950Y-52617000D01*
X91367050Y-52617000D01*
X91148889Y-52638487D01*
X90868966Y-52723401D01*
X90610986Y-52861294D01*
X90384866Y-53046866D01*
X90199294Y-53272986D01*
X90170000Y-53327791D01*
X90140706Y-53272986D01*
X89955134Y-53046866D01*
X89729014Y-52861294D01*
X89471034Y-52723401D01*
X89191111Y-52638487D01*
X88972950Y-52617000D01*
X88827050Y-52617000D01*
X88608889Y-52638487D01*
X88328966Y-52723401D01*
X88070986Y-52861294D01*
X87844866Y-53046866D01*
X87659294Y-53272986D01*
X87630000Y-53327791D01*
X87600706Y-53272986D01*
X87415134Y-53046866D01*
X87189014Y-52861294D01*
X86931034Y-52723401D01*
X86651111Y-52638487D01*
X86432950Y-52617000D01*
X86287050Y-52617000D01*
X86068889Y-52638487D01*
X85788966Y-52723401D01*
X85530986Y-52861294D01*
X85304866Y-53046866D01*
X85119294Y-53272986D01*
X85090000Y-53327791D01*
X85060706Y-53272986D01*
X84875134Y-53046866D01*
X84649014Y-52861294D01*
X84391034Y-52723401D01*
X84111111Y-52638487D01*
X83892950Y-52617000D01*
X83747050Y-52617000D01*
X83528889Y-52638487D01*
X83248966Y-52723401D01*
X82990986Y-52861294D01*
X82764866Y-53046866D01*
X82579294Y-53272986D01*
X82550000Y-53327791D01*
X82520706Y-53272986D01*
X82335134Y-53046866D01*
X82109014Y-52861294D01*
X81851034Y-52723401D01*
X81571111Y-52638487D01*
X81352950Y-52617000D01*
X81207050Y-52617000D01*
X80988889Y-52638487D01*
X80708966Y-52723401D01*
X80450986Y-52861294D01*
X80224866Y-53046866D01*
X80039294Y-53272986D01*
X80010000Y-53327791D01*
X79980706Y-53272986D01*
X79795134Y-53046866D01*
X79569014Y-52861294D01*
X79311034Y-52723401D01*
X79031111Y-52638487D01*
X78812950Y-52617000D01*
X78667050Y-52617000D01*
X78448889Y-52638487D01*
X78168966Y-52723401D01*
X77910986Y-52861294D01*
X77684866Y-53046866D01*
X77499294Y-53272986D01*
X77470000Y-53327791D01*
X77440706Y-53272986D01*
X77255134Y-53046866D01*
X77029014Y-52861294D01*
X76771034Y-52723401D01*
X76491111Y-52638487D01*
X76272950Y-52617000D01*
X76127050Y-52617000D01*
X75908889Y-52638487D01*
X75628966Y-52723401D01*
X75370986Y-52861294D01*
X75144866Y-53046866D01*
X74959294Y-53272986D01*
X74930000Y-53327791D01*
X74900706Y-53272986D01*
X74715134Y-53046866D01*
X74489014Y-52861294D01*
X74231034Y-52723401D01*
X73951111Y-52638487D01*
X73732950Y-52617000D01*
X73587050Y-52617000D01*
X73368889Y-52638487D01*
X73088966Y-52723401D01*
X72830986Y-52861294D01*
X72604866Y-53046866D01*
X72419294Y-53272986D01*
X72390000Y-53327791D01*
X72360706Y-53272986D01*
X72175134Y-53046866D01*
X71949014Y-52861294D01*
X71691034Y-52723401D01*
X71411111Y-52638487D01*
X71192950Y-52617000D01*
X71047050Y-52617000D01*
X70828889Y-52638487D01*
X70548966Y-52723401D01*
X70290986Y-52861294D01*
X70064866Y-53046866D01*
X69879294Y-53272986D01*
X69850000Y-53327791D01*
X69820706Y-53272986D01*
X69635134Y-53046866D01*
X69409014Y-52861294D01*
X69151034Y-52723401D01*
X68871111Y-52638487D01*
X68652950Y-52617000D01*
X68507050Y-52617000D01*
X68288889Y-52638487D01*
X68008966Y-52723401D01*
X67750986Y-52861294D01*
X67524866Y-53046866D01*
X67339294Y-53272986D01*
X67310000Y-53327791D01*
X67280706Y-53272986D01*
X67095134Y-53046866D01*
X66869014Y-52861294D01*
X66611034Y-52723401D01*
X66331111Y-52638487D01*
X66112950Y-52617000D01*
X65967050Y-52617000D01*
X65748889Y-52638487D01*
X65468966Y-52723401D01*
X65210986Y-52861294D01*
X64984866Y-53046866D01*
X64960393Y-53076687D01*
X64939502Y-53007820D01*
X64880537Y-52897506D01*
X64801185Y-52800815D01*
X64704494Y-52721463D01*
X64594180Y-52662498D01*
X64474482Y-52626188D01*
X64350000Y-52613928D01*
X63785750Y-52617000D01*
X63627000Y-52775750D01*
X63627000Y-53975000D01*
X63647000Y-53975000D01*
X63647000Y-54229000D01*
X63627000Y-54229000D01*
X63627000Y-55428250D01*
X63785750Y-55587000D01*
X64350000Y-55590072D01*
X64474482Y-55577812D01*
X64594180Y-55541502D01*
X64704494Y-55482537D01*
X64801185Y-55403185D01*
X64880537Y-55306494D01*
X64939502Y-55196180D01*
X64960393Y-55127313D01*
X64984866Y-55157134D01*
X65210986Y-55342706D01*
X65468966Y-55480599D01*
X65748889Y-55565513D01*
X65967050Y-55587000D01*
X66112950Y-55587000D01*
X66253884Y-55573119D01*
X68882517Y-58201753D01*
X68910352Y-58235670D01*
X69045720Y-58346764D01*
X69200160Y-58429314D01*
X69266069Y-58449307D01*
X69367735Y-58480147D01*
X69400935Y-58483417D01*
X69498344Y-58493011D01*
X69498350Y-58493011D01*
X69542010Y-58497311D01*
X69585670Y-58493011D01*
X118573607Y-58493011D01*
X118617267Y-58497311D01*
X118660927Y-58493011D01*
X118660934Y-58493011D01*
X118791541Y-58480147D01*
X118959118Y-58429314D01*
X119113558Y-58346764D01*
X119248926Y-58235670D01*
X119276766Y-58201747D01*
X120145513Y-57333001D01*
X125914488Y-57333001D01*
X126529238Y-57947752D01*
X126557074Y-57981670D01*
X126692442Y-58092764D01*
X126846882Y-58175314D01*
X126963625Y-58210727D01*
X127014458Y-58226147D01*
X127031058Y-58227782D01*
X127145066Y-58239011D01*
X127145073Y-58239011D01*
X127188733Y-58243311D01*
X127232393Y-58239011D01*
X173731607Y-58239011D01*
X173775267Y-58243311D01*
X173818927Y-58239011D01*
X173818934Y-58239011D01*
X173949541Y-58226147D01*
X174117118Y-58175314D01*
X174271558Y-58092764D01*
X174406926Y-57981670D01*
X174434766Y-57947747D01*
X175049513Y-57333001D01*
X183732339Y-57333001D01*
X183775999Y-57337301D01*
X183819659Y-57333001D01*
X183819666Y-57333001D01*
X183950273Y-57320137D01*
X184117850Y-57269304D01*
X184272290Y-57186754D01*
X184407658Y-57075660D01*
X184435498Y-57041737D01*
X184938014Y-56539221D01*
X184965581Y-56550639D01*
X185339419Y-56625000D01*
X185720581Y-56625000D01*
X186094419Y-56550639D01*
X186446566Y-56404775D01*
X186763491Y-56193013D01*
X187033013Y-55923491D01*
X187244775Y-55606566D01*
X187390639Y-55254419D01*
X187465000Y-54880581D01*
X187465000Y-54499419D01*
X187390639Y-54125581D01*
X187244775Y-53773434D01*
X187033013Y-53456509D01*
X186763491Y-53186987D01*
X186446566Y-52975225D01*
X186094419Y-52829361D01*
X185720581Y-52755000D01*
X185339419Y-52755000D01*
X184965581Y-52829361D01*
X184613434Y-52975225D01*
X184296509Y-53186987D01*
X184026987Y-53456509D01*
X183815225Y-53773434D01*
X183669361Y-54125581D01*
X183595000Y-54499419D01*
X183595000Y-54880581D01*
X183669361Y-55254419D01*
X183680779Y-55281986D01*
X183407764Y-55555001D01*
X182266134Y-55555001D01*
X182390639Y-55254419D01*
X182465000Y-54880581D01*
X182465000Y-54499419D01*
X182390639Y-54125581D01*
X182244775Y-53773434D01*
X182033013Y-53456509D01*
X181763491Y-53186987D01*
X181446566Y-52975225D01*
X181094419Y-52829361D01*
X180720581Y-52755000D01*
X180339419Y-52755000D01*
X179965581Y-52829361D01*
X179613434Y-52975225D01*
X179296509Y-53186987D01*
X179026987Y-53456509D01*
X178815225Y-53773434D01*
X178669361Y-54125581D01*
X178595000Y-54499419D01*
X178595000Y-54880581D01*
X178669361Y-55254419D01*
X178793866Y-55555001D01*
X177260898Y-55555001D01*
X177345159Y-55386955D01*
X177446250Y-55019443D01*
X177473701Y-54639271D01*
X177426457Y-54261049D01*
X177306333Y-53899310D01*
X177174312Y-53652317D01*
X176879224Y-53520381D01*
X175709605Y-54690000D01*
X175723748Y-54704143D01*
X175544143Y-54883748D01*
X175530000Y-54869605D01*
X175515858Y-54883748D01*
X175336253Y-54704143D01*
X175350395Y-54690000D01*
X174180776Y-53520381D01*
X173885688Y-53652317D01*
X173714841Y-53993045D01*
X173613750Y-54360557D01*
X173586299Y-54740729D01*
X173633543Y-55118951D01*
X173753667Y-55480690D01*
X173885688Y-55727683D01*
X174058582Y-55804985D01*
X174049618Y-55812342D01*
X174021782Y-55846260D01*
X173407032Y-56461011D01*
X171310800Y-56461011D01*
X171446566Y-56404775D01*
X171763491Y-56193013D01*
X172033013Y-55923491D01*
X172244775Y-55606566D01*
X172390639Y-55254419D01*
X172465000Y-54880581D01*
X172465000Y-54499419D01*
X172390639Y-54125581D01*
X172244775Y-53773434D01*
X172033013Y-53456509D01*
X171917280Y-53340776D01*
X174360381Y-53340776D01*
X175530000Y-54510395D01*
X176699619Y-53340776D01*
X176567683Y-53045688D01*
X176226955Y-52874841D01*
X175859443Y-52773750D01*
X175479271Y-52746299D01*
X175101049Y-52793543D01*
X174739310Y-52913667D01*
X174492317Y-53045688D01*
X174360381Y-53340776D01*
X171917280Y-53340776D01*
X171763491Y-53186987D01*
X171446566Y-52975225D01*
X171094419Y-52829361D01*
X170720581Y-52755000D01*
X170339419Y-52755000D01*
X169965581Y-52829361D01*
X169938014Y-52840779D01*
X168727488Y-51630253D01*
X168699648Y-51596330D01*
X168564280Y-51485236D01*
X168409840Y-51402686D01*
X168242263Y-51351853D01*
X168111656Y-51338989D01*
X168111649Y-51338989D01*
X168067989Y-51334689D01*
X168024329Y-51338989D01*
X149879000Y-51338989D01*
X149879000Y-51206061D01*
X149839226Y-51006102D01*
X149761205Y-50817744D01*
X149655804Y-50660000D01*
X215340000Y-50660000D01*
X215340001Y-74340000D01*
X211758850Y-74340000D01*
X211842670Y-74305281D01*
X212196282Y-74069004D01*
X212497004Y-73768282D01*
X212733281Y-73414670D01*
X212896030Y-73021757D01*
X212979000Y-72604643D01*
X212979000Y-72179357D01*
X212896030Y-71762243D01*
X212733281Y-71369330D01*
X212497004Y-71015718D01*
X212196282Y-70714996D01*
X211842670Y-70478719D01*
X211449757Y-70315970D01*
X211032643Y-70233000D01*
X210607357Y-70233000D01*
X210190243Y-70315970D01*
X209797330Y-70478719D01*
X209443718Y-70714996D01*
X209142996Y-71015718D01*
X208906719Y-71369330D01*
X208743970Y-71762243D01*
X208661000Y-72179357D01*
X208661000Y-72604643D01*
X208743970Y-73021757D01*
X208906719Y-73414670D01*
X209142996Y-73768282D01*
X209443718Y-74069004D01*
X209797330Y-74305281D01*
X209881150Y-74340000D01*
X186358850Y-74340000D01*
X186442670Y-74305281D01*
X186796282Y-74069004D01*
X187097004Y-73768282D01*
X187333281Y-73414670D01*
X187496030Y-73021757D01*
X187579000Y-72604643D01*
X187579000Y-72179357D01*
X187496030Y-71762243D01*
X187440662Y-71628573D01*
X189868495Y-69200740D01*
X209490865Y-69200740D01*
X209649764Y-69518758D01*
X210028632Y-69711959D01*
X210437913Y-69827534D01*
X210861876Y-69861042D01*
X211284230Y-69811194D01*
X211688744Y-69679908D01*
X211990236Y-69518758D01*
X212149135Y-69200740D01*
X210820000Y-67871605D01*
X209490865Y-69200740D01*
X189868495Y-69200740D01*
X191127737Y-67941498D01*
X191161659Y-67913659D01*
X191272753Y-67778291D01*
X191296493Y-67733876D01*
X208650958Y-67733876D01*
X208700806Y-68156230D01*
X208832092Y-68560744D01*
X208993242Y-68862236D01*
X209311260Y-69021135D01*
X210640395Y-67692000D01*
X210999605Y-67692000D01*
X212328740Y-69021135D01*
X212646758Y-68862236D01*
X212839959Y-68483368D01*
X212955534Y-68074087D01*
X212989042Y-67650124D01*
X212939194Y-67227770D01*
X212807908Y-66823256D01*
X212646758Y-66521764D01*
X212328740Y-66362865D01*
X210999605Y-67692000D01*
X210640395Y-67692000D01*
X209311260Y-66362865D01*
X208993242Y-66521764D01*
X208800041Y-66900632D01*
X208684466Y-67309913D01*
X208650958Y-67733876D01*
X191296493Y-67733876D01*
X191355303Y-67623851D01*
X191389112Y-67512395D01*
X191406136Y-67456276D01*
X191409406Y-67423076D01*
X191419000Y-67325667D01*
X191419000Y-67325661D01*
X191423300Y-67282001D01*
X191419000Y-67238341D01*
X191419000Y-66183260D01*
X209490865Y-66183260D01*
X210820000Y-67512395D01*
X212149135Y-66183260D01*
X211990236Y-65865242D01*
X211611368Y-65672041D01*
X211202087Y-65556466D01*
X210778124Y-65522958D01*
X210355770Y-65572806D01*
X209951256Y-65704092D01*
X209649764Y-65865242D01*
X209490865Y-66183260D01*
X191419000Y-66183260D01*
X191419000Y-62779357D01*
X208661000Y-62779357D01*
X208661000Y-63204643D01*
X208743970Y-63621757D01*
X208906719Y-64014670D01*
X209142996Y-64368282D01*
X209443718Y-64669004D01*
X209797330Y-64905281D01*
X210190243Y-65068030D01*
X210607357Y-65151000D01*
X211032643Y-65151000D01*
X211449757Y-65068030D01*
X211842670Y-64905281D01*
X212196282Y-64669004D01*
X212497004Y-64368282D01*
X212733281Y-64014670D01*
X212896030Y-63621757D01*
X212979000Y-63204643D01*
X212979000Y-62779357D01*
X212896030Y-62362243D01*
X212733281Y-61969330D01*
X212497004Y-61615718D01*
X212196282Y-61314996D01*
X211842670Y-61078719D01*
X211449757Y-60915970D01*
X211032643Y-60833000D01*
X210607357Y-60833000D01*
X210190243Y-60915970D01*
X209797330Y-61078719D01*
X209443718Y-61314996D01*
X209142996Y-61615718D01*
X208906719Y-61969330D01*
X208743970Y-62362243D01*
X208661000Y-62779357D01*
X191419000Y-62779357D01*
X191419000Y-56416193D01*
X191446566Y-56404775D01*
X191763491Y-56193013D01*
X192033013Y-55923491D01*
X192244775Y-55606566D01*
X192390639Y-55254419D01*
X192465000Y-54880581D01*
X192465000Y-54499419D01*
X192390639Y-54125581D01*
X192244775Y-53773434D01*
X192033013Y-53456509D01*
X191763491Y-53186987D01*
X191446566Y-52975225D01*
X191094419Y-52829361D01*
X190720581Y-52755000D01*
X190339419Y-52755000D01*
X189965581Y-52829361D01*
X189613434Y-52975225D01*
X189296509Y-53186987D01*
X189026987Y-53456509D01*
X188815225Y-53773434D01*
X188669361Y-54125581D01*
X188595000Y-54499419D01*
X188595000Y-54880581D01*
X188669361Y-55254419D01*
X188815225Y-55606566D01*
X189026987Y-55923491D01*
X189296509Y-56193013D01*
X189613434Y-56404775D01*
X189641001Y-56416194D01*
X189641000Y-66913765D01*
X186183427Y-70371338D01*
X186049757Y-70315970D01*
X185632643Y-70233000D01*
X185207357Y-70233000D01*
X184790243Y-70315970D01*
X184397330Y-70478719D01*
X184043718Y-70714996D01*
X183742996Y-71015718D01*
X183506719Y-71369330D01*
X183343970Y-71762243D01*
X183261000Y-72179357D01*
X183261000Y-72604643D01*
X183343970Y-73021757D01*
X183506719Y-73414670D01*
X183742996Y-73768282D01*
X184043718Y-74069004D01*
X184397330Y-74305281D01*
X184481150Y-74340000D01*
X160958850Y-74340000D01*
X161042670Y-74305281D01*
X161396282Y-74069004D01*
X161697004Y-73768282D01*
X161933281Y-73414670D01*
X162096030Y-73021757D01*
X162179000Y-72604643D01*
X162179000Y-72179357D01*
X162096030Y-71762243D01*
X161933281Y-71369330D01*
X161697004Y-71015718D01*
X161396282Y-70714996D01*
X161042670Y-70478719D01*
X160649757Y-70315970D01*
X160232643Y-70233000D01*
X159807357Y-70233000D01*
X159390243Y-70315970D01*
X158997330Y-70478719D01*
X158643718Y-70714996D01*
X158342996Y-71015718D01*
X158106719Y-71369330D01*
X157943970Y-71762243D01*
X157861000Y-72179357D01*
X157861000Y-72604643D01*
X157943970Y-73021757D01*
X158106719Y-73414670D01*
X158342996Y-73768282D01*
X158643718Y-74069004D01*
X158997330Y-74305281D01*
X159081150Y-74340000D01*
X135558850Y-74340000D01*
X135642670Y-74305281D01*
X135996282Y-74069004D01*
X136297004Y-73768282D01*
X136533281Y-73414670D01*
X136696030Y-73021757D01*
X136779000Y-72604643D01*
X136779000Y-72179357D01*
X136696030Y-71762243D01*
X136533281Y-71369330D01*
X136297004Y-71015718D01*
X135996282Y-70714996D01*
X135642670Y-70478719D01*
X135249757Y-70315970D01*
X134832643Y-70233000D01*
X134407357Y-70233000D01*
X133990243Y-70315970D01*
X133597330Y-70478719D01*
X133243718Y-70714996D01*
X132942996Y-71015718D01*
X132706719Y-71369330D01*
X132543970Y-71762243D01*
X132461000Y-72179357D01*
X132461000Y-72604643D01*
X132543970Y-73021757D01*
X132706719Y-73414670D01*
X132942996Y-73768282D01*
X133243718Y-74069004D01*
X133597330Y-74305281D01*
X133681150Y-74340000D01*
X110158850Y-74340000D01*
X110242670Y-74305281D01*
X110596282Y-74069004D01*
X110897004Y-73768282D01*
X111133281Y-73414670D01*
X111296030Y-73021757D01*
X111379000Y-72604643D01*
X111379000Y-72179357D01*
X111296030Y-71762243D01*
X111133281Y-71369330D01*
X110897004Y-71015718D01*
X110596282Y-70714996D01*
X110242670Y-70478719D01*
X109849757Y-70315970D01*
X109432643Y-70233000D01*
X109007357Y-70233000D01*
X108590243Y-70315970D01*
X108197330Y-70478719D01*
X107843718Y-70714996D01*
X107542996Y-71015718D01*
X107306719Y-71369330D01*
X107143970Y-71762243D01*
X107061000Y-72179357D01*
X107061000Y-72604643D01*
X107143970Y-73021757D01*
X107306719Y-73414670D01*
X107542996Y-73768282D01*
X107843718Y-74069004D01*
X108197330Y-74305281D01*
X108281150Y-74340000D01*
X84758850Y-74340000D01*
X84842670Y-74305281D01*
X85196282Y-74069004D01*
X85497004Y-73768282D01*
X85733281Y-73414670D01*
X85896030Y-73021757D01*
X85979000Y-72604643D01*
X85979000Y-72179357D01*
X85896030Y-71762243D01*
X85733281Y-71369330D01*
X85497004Y-71015718D01*
X85196282Y-70714996D01*
X84842670Y-70478719D01*
X84449757Y-70315970D01*
X84032643Y-70233000D01*
X83607357Y-70233000D01*
X83190243Y-70315970D01*
X82797330Y-70478719D01*
X82443718Y-70714996D01*
X82142996Y-71015718D01*
X81906719Y-71369330D01*
X81743970Y-71762243D01*
X81661000Y-72179357D01*
X81661000Y-72604643D01*
X81743970Y-73021757D01*
X81906719Y-73414670D01*
X82142996Y-73768282D01*
X82443718Y-74069004D01*
X82797330Y-74305281D01*
X82881150Y-74340000D01*
X59358850Y-74340000D01*
X59442670Y-74305281D01*
X59796282Y-74069004D01*
X60097004Y-73768282D01*
X60333281Y-73414670D01*
X60496030Y-73021757D01*
X60579000Y-72604643D01*
X60579000Y-72179357D01*
X60496030Y-71762243D01*
X60333281Y-71369330D01*
X60097004Y-71015718D01*
X59796282Y-70714996D01*
X59442670Y-70478719D01*
X59049757Y-70315970D01*
X58632643Y-70233000D01*
X58207357Y-70233000D01*
X57790243Y-70315970D01*
X57397330Y-70478719D01*
X57043718Y-70714996D01*
X56742996Y-71015718D01*
X56506719Y-71369330D01*
X56343970Y-71762243D01*
X56261000Y-72179357D01*
X56261000Y-72604643D01*
X56343970Y-73021757D01*
X56506719Y-73414670D01*
X56742996Y-73768282D01*
X57043718Y-74069004D01*
X57397330Y-74305281D01*
X57481150Y-74340000D01*
X53660000Y-74340000D01*
X53660000Y-69200740D01*
X57090865Y-69200740D01*
X57249764Y-69518758D01*
X57628632Y-69711959D01*
X58037913Y-69827534D01*
X58461876Y-69861042D01*
X58884230Y-69811194D01*
X59288744Y-69679908D01*
X59590236Y-69518758D01*
X59749135Y-69200740D01*
X82490865Y-69200740D01*
X82649764Y-69518758D01*
X83028632Y-69711959D01*
X83437913Y-69827534D01*
X83861876Y-69861042D01*
X84284230Y-69811194D01*
X84688744Y-69679908D01*
X84990236Y-69518758D01*
X85149135Y-69200740D01*
X107890865Y-69200740D01*
X108049764Y-69518758D01*
X108428632Y-69711959D01*
X108837913Y-69827534D01*
X109261876Y-69861042D01*
X109684230Y-69811194D01*
X110088744Y-69679908D01*
X110390236Y-69518758D01*
X110549135Y-69200740D01*
X133290865Y-69200740D01*
X133449764Y-69518758D01*
X133828632Y-69711959D01*
X134237913Y-69827534D01*
X134661876Y-69861042D01*
X135084230Y-69811194D01*
X135488744Y-69679908D01*
X135790236Y-69518758D01*
X135949135Y-69200740D01*
X158690865Y-69200740D01*
X158849764Y-69518758D01*
X159228632Y-69711959D01*
X159637913Y-69827534D01*
X160061876Y-69861042D01*
X160484230Y-69811194D01*
X160888744Y-69679908D01*
X161190236Y-69518758D01*
X161349135Y-69200740D01*
X184090865Y-69200740D01*
X184249764Y-69518758D01*
X184628632Y-69711959D01*
X185037913Y-69827534D01*
X185461876Y-69861042D01*
X185884230Y-69811194D01*
X186288744Y-69679908D01*
X186590236Y-69518758D01*
X186749135Y-69200740D01*
X185420000Y-67871605D01*
X184090865Y-69200740D01*
X161349135Y-69200740D01*
X160020000Y-67871605D01*
X158690865Y-69200740D01*
X135949135Y-69200740D01*
X134620000Y-67871605D01*
X133290865Y-69200740D01*
X110549135Y-69200740D01*
X109220000Y-67871605D01*
X107890865Y-69200740D01*
X85149135Y-69200740D01*
X83820000Y-67871605D01*
X82490865Y-69200740D01*
X59749135Y-69200740D01*
X58420000Y-67871605D01*
X57090865Y-69200740D01*
X53660000Y-69200740D01*
X53660000Y-67733876D01*
X56250958Y-67733876D01*
X56300806Y-68156230D01*
X56432092Y-68560744D01*
X56593242Y-68862236D01*
X56911260Y-69021135D01*
X58240395Y-67692000D01*
X58599605Y-67692000D01*
X59928740Y-69021135D01*
X60246758Y-68862236D01*
X60439959Y-68483368D01*
X60555534Y-68074087D01*
X60582422Y-67733876D01*
X81650958Y-67733876D01*
X81700806Y-68156230D01*
X81832092Y-68560744D01*
X81993242Y-68862236D01*
X82311260Y-69021135D01*
X83640395Y-67692000D01*
X83999605Y-67692000D01*
X85328740Y-69021135D01*
X85646758Y-68862236D01*
X85839959Y-68483368D01*
X85955534Y-68074087D01*
X85982422Y-67733876D01*
X107050958Y-67733876D01*
X107100806Y-68156230D01*
X107232092Y-68560744D01*
X107393242Y-68862236D01*
X107711260Y-69021135D01*
X109040395Y-67692000D01*
X109399605Y-67692000D01*
X110728740Y-69021135D01*
X111046758Y-68862236D01*
X111239959Y-68483368D01*
X111355534Y-68074087D01*
X111382422Y-67733876D01*
X132450958Y-67733876D01*
X132500806Y-68156230D01*
X132632092Y-68560744D01*
X132793242Y-68862236D01*
X133111260Y-69021135D01*
X134440395Y-67692000D01*
X134799605Y-67692000D01*
X136128740Y-69021135D01*
X136446758Y-68862236D01*
X136639959Y-68483368D01*
X136755534Y-68074087D01*
X136782422Y-67733876D01*
X157850958Y-67733876D01*
X157900806Y-68156230D01*
X158032092Y-68560744D01*
X158193242Y-68862236D01*
X158511260Y-69021135D01*
X159840395Y-67692000D01*
X160199605Y-67692000D01*
X161528740Y-69021135D01*
X161846758Y-68862236D01*
X162039959Y-68483368D01*
X162155534Y-68074087D01*
X162182422Y-67733876D01*
X183250958Y-67733876D01*
X183300806Y-68156230D01*
X183432092Y-68560744D01*
X183593242Y-68862236D01*
X183911260Y-69021135D01*
X185240395Y-67692000D01*
X185599605Y-67692000D01*
X186928740Y-69021135D01*
X187246758Y-68862236D01*
X187439959Y-68483368D01*
X187555534Y-68074087D01*
X187589042Y-67650124D01*
X187539194Y-67227770D01*
X187407908Y-66823256D01*
X187246758Y-66521764D01*
X186928740Y-66362865D01*
X185599605Y-67692000D01*
X185240395Y-67692000D01*
X183911260Y-66362865D01*
X183593242Y-66521764D01*
X183400041Y-66900632D01*
X183284466Y-67309913D01*
X183250958Y-67733876D01*
X162182422Y-67733876D01*
X162189042Y-67650124D01*
X162139194Y-67227770D01*
X162007908Y-66823256D01*
X161846758Y-66521764D01*
X161528740Y-66362865D01*
X160199605Y-67692000D01*
X159840395Y-67692000D01*
X158511260Y-66362865D01*
X158193242Y-66521764D01*
X158000041Y-66900632D01*
X157884466Y-67309913D01*
X157850958Y-67733876D01*
X136782422Y-67733876D01*
X136789042Y-67650124D01*
X136739194Y-67227770D01*
X136607908Y-66823256D01*
X136446758Y-66521764D01*
X136128740Y-66362865D01*
X134799605Y-67692000D01*
X134440395Y-67692000D01*
X133111260Y-66362865D01*
X132793242Y-66521764D01*
X132600041Y-66900632D01*
X132484466Y-67309913D01*
X132450958Y-67733876D01*
X111382422Y-67733876D01*
X111389042Y-67650124D01*
X111339194Y-67227770D01*
X111207908Y-66823256D01*
X111046758Y-66521764D01*
X110728740Y-66362865D01*
X109399605Y-67692000D01*
X109040395Y-67692000D01*
X107711260Y-66362865D01*
X107393242Y-66521764D01*
X107200041Y-66900632D01*
X107084466Y-67309913D01*
X107050958Y-67733876D01*
X85982422Y-67733876D01*
X85989042Y-67650124D01*
X85939194Y-67227770D01*
X85807908Y-66823256D01*
X85646758Y-66521764D01*
X85328740Y-66362865D01*
X83999605Y-67692000D01*
X83640395Y-67692000D01*
X82311260Y-66362865D01*
X81993242Y-66521764D01*
X81800041Y-66900632D01*
X81684466Y-67309913D01*
X81650958Y-67733876D01*
X60582422Y-67733876D01*
X60589042Y-67650124D01*
X60539194Y-67227770D01*
X60407908Y-66823256D01*
X60246758Y-66521764D01*
X59928740Y-66362865D01*
X58599605Y-67692000D01*
X58240395Y-67692000D01*
X56911260Y-66362865D01*
X56593242Y-66521764D01*
X56400041Y-66900632D01*
X56284466Y-67309913D01*
X56250958Y-67733876D01*
X53660000Y-67733876D01*
X53660000Y-66183260D01*
X57090865Y-66183260D01*
X58420000Y-67512395D01*
X59749135Y-66183260D01*
X82490865Y-66183260D01*
X83820000Y-67512395D01*
X85149135Y-66183260D01*
X107890865Y-66183260D01*
X109220000Y-67512395D01*
X110549135Y-66183260D01*
X133290865Y-66183260D01*
X134620000Y-67512395D01*
X135949135Y-66183260D01*
X158690865Y-66183260D01*
X160020000Y-67512395D01*
X161349135Y-66183260D01*
X184090865Y-66183260D01*
X185420000Y-67512395D01*
X186749135Y-66183260D01*
X186590236Y-65865242D01*
X186211368Y-65672041D01*
X185802087Y-65556466D01*
X185378124Y-65522958D01*
X184955770Y-65572806D01*
X184551256Y-65704092D01*
X184249764Y-65865242D01*
X184090865Y-66183260D01*
X161349135Y-66183260D01*
X161190236Y-65865242D01*
X160811368Y-65672041D01*
X160402087Y-65556466D01*
X159978124Y-65522958D01*
X159555770Y-65572806D01*
X159151256Y-65704092D01*
X158849764Y-65865242D01*
X158690865Y-66183260D01*
X135949135Y-66183260D01*
X135790236Y-65865242D01*
X135411368Y-65672041D01*
X135002087Y-65556466D01*
X134578124Y-65522958D01*
X134155770Y-65572806D01*
X133751256Y-65704092D01*
X133449764Y-65865242D01*
X133290865Y-66183260D01*
X110549135Y-66183260D01*
X110390236Y-65865242D01*
X110011368Y-65672041D01*
X109602087Y-65556466D01*
X109178124Y-65522958D01*
X108755770Y-65572806D01*
X108351256Y-65704092D01*
X108049764Y-65865242D01*
X107890865Y-66183260D01*
X85149135Y-66183260D01*
X84990236Y-65865242D01*
X84611368Y-65672041D01*
X84202087Y-65556466D01*
X83778124Y-65522958D01*
X83355770Y-65572806D01*
X82951256Y-65704092D01*
X82649764Y-65865242D01*
X82490865Y-66183260D01*
X59749135Y-66183260D01*
X59590236Y-65865242D01*
X59211368Y-65672041D01*
X58802087Y-65556466D01*
X58378124Y-65522958D01*
X57955770Y-65572806D01*
X57551256Y-65704092D01*
X57249764Y-65865242D01*
X57090865Y-66183260D01*
X53660000Y-66183260D01*
X53660000Y-62779357D01*
X56261000Y-62779357D01*
X56261000Y-63204643D01*
X56343970Y-63621757D01*
X56506719Y-64014670D01*
X56742996Y-64368282D01*
X57043718Y-64669004D01*
X57397330Y-64905281D01*
X57790243Y-65068030D01*
X58207357Y-65151000D01*
X58632643Y-65151000D01*
X59049757Y-65068030D01*
X59442670Y-64905281D01*
X59796282Y-64669004D01*
X60097004Y-64368282D01*
X60333281Y-64014670D01*
X60496030Y-63621757D01*
X60579000Y-63204643D01*
X60579000Y-62779357D01*
X81661000Y-62779357D01*
X81661000Y-63204643D01*
X81743970Y-63621757D01*
X81906719Y-64014670D01*
X82142996Y-64368282D01*
X82443718Y-64669004D01*
X82797330Y-64905281D01*
X83190243Y-65068030D01*
X83607357Y-65151000D01*
X84032643Y-65151000D01*
X84449757Y-65068030D01*
X84842670Y-64905281D01*
X85196282Y-64669004D01*
X85497004Y-64368282D01*
X85733281Y-64014670D01*
X85896030Y-63621757D01*
X85979000Y-63204643D01*
X85979000Y-62779357D01*
X107061000Y-62779357D01*
X107061000Y-63204643D01*
X107143970Y-63621757D01*
X107306719Y-64014670D01*
X107542996Y-64368282D01*
X107843718Y-64669004D01*
X108197330Y-64905281D01*
X108590243Y-65068030D01*
X109007357Y-65151000D01*
X109432643Y-65151000D01*
X109849757Y-65068030D01*
X110242670Y-64905281D01*
X110596282Y-64669004D01*
X110897004Y-64368282D01*
X111133281Y-64014670D01*
X111296030Y-63621757D01*
X111379000Y-63204643D01*
X111379000Y-62779357D01*
X132461000Y-62779357D01*
X132461000Y-63204643D01*
X132543970Y-63621757D01*
X132706719Y-64014670D01*
X132942996Y-64368282D01*
X133243718Y-64669004D01*
X133597330Y-64905281D01*
X133990243Y-65068030D01*
X134407357Y-65151000D01*
X134832643Y-65151000D01*
X135249757Y-65068030D01*
X135642670Y-64905281D01*
X135996282Y-64669004D01*
X136297004Y-64368282D01*
X136533281Y-64014670D01*
X136696030Y-63621757D01*
X136779000Y-63204643D01*
X136779000Y-62779357D01*
X157861000Y-62779357D01*
X157861000Y-63204643D01*
X157943970Y-63621757D01*
X158106719Y-64014670D01*
X158342996Y-64368282D01*
X158643718Y-64669004D01*
X158997330Y-64905281D01*
X159390243Y-65068030D01*
X159807357Y-65151000D01*
X160232643Y-65151000D01*
X160649757Y-65068030D01*
X161042670Y-64905281D01*
X161396282Y-64669004D01*
X161697004Y-64368282D01*
X161933281Y-64014670D01*
X162096030Y-63621757D01*
X162179000Y-63204643D01*
X162179000Y-62779357D01*
X183261000Y-62779357D01*
X183261000Y-63204643D01*
X183343970Y-63621757D01*
X183506719Y-64014670D01*
X183742996Y-64368282D01*
X184043718Y-64669004D01*
X184397330Y-64905281D01*
X184790243Y-65068030D01*
X185207357Y-65151000D01*
X185632643Y-65151000D01*
X186049757Y-65068030D01*
X186442670Y-64905281D01*
X186796282Y-64669004D01*
X187097004Y-64368282D01*
X187333281Y-64014670D01*
X187496030Y-63621757D01*
X187579000Y-63204643D01*
X187579000Y-62779357D01*
X187496030Y-62362243D01*
X187333281Y-61969330D01*
X187097004Y-61615718D01*
X186796282Y-61314996D01*
X186442670Y-61078719D01*
X186049757Y-60915970D01*
X185632643Y-60833000D01*
X185207357Y-60833000D01*
X184790243Y-60915970D01*
X184397330Y-61078719D01*
X184043718Y-61314996D01*
X183742996Y-61615718D01*
X183506719Y-61969330D01*
X183343970Y-62362243D01*
X183261000Y-62779357D01*
X162179000Y-62779357D01*
X162096030Y-62362243D01*
X161933281Y-61969330D01*
X161697004Y-61615718D01*
X161396282Y-61314996D01*
X161042670Y-61078719D01*
X160649757Y-60915970D01*
X160232643Y-60833000D01*
X159807357Y-60833000D01*
X159390243Y-60915970D01*
X158997330Y-61078719D01*
X158643718Y-61314996D01*
X158342996Y-61615718D01*
X158106719Y-61969330D01*
X157943970Y-62362243D01*
X157861000Y-62779357D01*
X136779000Y-62779357D01*
X136696030Y-62362243D01*
X136533281Y-61969330D01*
X136297004Y-61615718D01*
X135996282Y-61314996D01*
X135642670Y-61078719D01*
X135249757Y-60915970D01*
X134832643Y-60833000D01*
X134407357Y-60833000D01*
X133990243Y-60915970D01*
X133597330Y-61078719D01*
X133243718Y-61314996D01*
X132942996Y-61615718D01*
X132706719Y-61969330D01*
X132543970Y-62362243D01*
X132461000Y-62779357D01*
X111379000Y-62779357D01*
X111296030Y-62362243D01*
X111133281Y-61969330D01*
X110897004Y-61615718D01*
X110596282Y-61314996D01*
X110242670Y-61078719D01*
X109849757Y-60915970D01*
X109432643Y-60833000D01*
X109007357Y-60833000D01*
X108590243Y-60915970D01*
X108197330Y-61078719D01*
X107843718Y-61314996D01*
X107542996Y-61615718D01*
X107306719Y-61969330D01*
X107143970Y-62362243D01*
X107061000Y-62779357D01*
X85979000Y-62779357D01*
X85896030Y-62362243D01*
X85733281Y-61969330D01*
X85497004Y-61615718D01*
X85196282Y-61314996D01*
X84842670Y-61078719D01*
X84449757Y-60915970D01*
X84032643Y-60833000D01*
X83607357Y-60833000D01*
X83190243Y-60915970D01*
X82797330Y-61078719D01*
X82443718Y-61314996D01*
X82142996Y-61615718D01*
X81906719Y-61969330D01*
X81743970Y-62362243D01*
X81661000Y-62779357D01*
X60579000Y-62779357D01*
X60496030Y-62362243D01*
X60333281Y-61969330D01*
X60097004Y-61615718D01*
X59796282Y-61314996D01*
X59442670Y-61078719D01*
X59049757Y-60915970D01*
X58632643Y-60833000D01*
X58207357Y-60833000D01*
X57790243Y-60915970D01*
X57397330Y-61078719D01*
X57043718Y-61314996D01*
X56742996Y-61615718D01*
X56506719Y-61969330D01*
X56343970Y-62362243D01*
X56261000Y-62779357D01*
X53660000Y-62779357D01*
X53660000Y-54952000D01*
X62011928Y-54952000D01*
X62024188Y-55076482D01*
X62060498Y-55196180D01*
X62119463Y-55306494D01*
X62198815Y-55403185D01*
X62295506Y-55482537D01*
X62405820Y-55541502D01*
X62525518Y-55577812D01*
X62650000Y-55590072D01*
X63214250Y-55587000D01*
X63373000Y-55428250D01*
X63373000Y-54229000D01*
X62173750Y-54229000D01*
X62015000Y-54387750D01*
X62011928Y-54952000D01*
X53660000Y-54952000D01*
X53660000Y-53252000D01*
X62011928Y-53252000D01*
X62015000Y-53816250D01*
X62173750Y-53975000D01*
X63373000Y-53975000D01*
X63373000Y-52775750D01*
X63214250Y-52617000D01*
X62650000Y-52613928D01*
X62525518Y-52626188D01*
X62405820Y-52662498D01*
X62295506Y-52721463D01*
X62198815Y-52800815D01*
X62119463Y-52897506D01*
X62060498Y-53007820D01*
X62024188Y-53127518D01*
X62011928Y-53252000D01*
X53660000Y-53252000D01*
X53660000Y-50660000D01*
X103782253Y-50660000D01*
X103762341Y-50676341D01*
X103762341Y-50676341D01*
G37*
X103762341Y-50676341D02*
X103734506Y-50710258D01*
X101813884Y-52630881D01*
X101672950Y-52617000D01*
X101527050Y-52617000D01*
X101308889Y-52638487D01*
X101028966Y-52723401D01*
X100770986Y-52861294D01*
X100544866Y-53046866D01*
X100359294Y-53272986D01*
X100330000Y-53327791D01*
X100300706Y-53272986D01*
X100115134Y-53046866D01*
X99889014Y-52861294D01*
X99631034Y-52723401D01*
X99351111Y-52638487D01*
X99132950Y-52617000D01*
X98987050Y-52617000D01*
X98768889Y-52638487D01*
X98488966Y-52723401D01*
X98230986Y-52861294D01*
X98004866Y-53046866D01*
X97819294Y-53272986D01*
X97790000Y-53327791D01*
X97760706Y-53272986D01*
X97575134Y-53046866D01*
X97349014Y-52861294D01*
X97091034Y-52723401D01*
X96811111Y-52638487D01*
X96592950Y-52617000D01*
X96447050Y-52617000D01*
X96228889Y-52638487D01*
X95948966Y-52723401D01*
X95690986Y-52861294D01*
X95464866Y-53046866D01*
X95279294Y-53272986D01*
X95250000Y-53327791D01*
X95220706Y-53272986D01*
X95035134Y-53046866D01*
X94809014Y-52861294D01*
X94551034Y-52723401D01*
X94271111Y-52638487D01*
X94052950Y-52617000D01*
X93907050Y-52617000D01*
X93688889Y-52638487D01*
X93408966Y-52723401D01*
X93150986Y-52861294D01*
X92924866Y-53046866D01*
X92739294Y-53272986D01*
X92710000Y-53327791D01*
X92680706Y-53272986D01*
X92495134Y-53046866D01*
X92269014Y-52861294D01*
X92011034Y-52723401D01*
X91731111Y-52638487D01*
X91512950Y-52617000D01*
X91367050Y-52617000D01*
X91148889Y-52638487D01*
X90868966Y-52723401D01*
X90610986Y-52861294D01*
X90384866Y-53046866D01*
X90199294Y-53272986D01*
X90170000Y-53327791D01*
X90140706Y-53272986D01*
X89955134Y-53046866D01*
X89729014Y-52861294D01*
X89471034Y-52723401D01*
X89191111Y-52638487D01*
X88972950Y-52617000D01*
X88827050Y-52617000D01*
X88608889Y-52638487D01*
X88328966Y-52723401D01*
X88070986Y-52861294D01*
X87844866Y-53046866D01*
X87659294Y-53272986D01*
X87630000Y-53327791D01*
X87600706Y-53272986D01*
X87415134Y-53046866D01*
X87189014Y-52861294D01*
X86931034Y-52723401D01*
X86651111Y-52638487D01*
X86432950Y-52617000D01*
X86287050Y-52617000D01*
X86068889Y-52638487D01*
X85788966Y-52723401D01*
X85530986Y-52861294D01*
X85304866Y-53046866D01*
X85119294Y-53272986D01*
X85090000Y-53327791D01*
X85060706Y-53272986D01*
X84875134Y-53046866D01*
X84649014Y-52861294D01*
X84391034Y-52723401D01*
X84111111Y-52638487D01*
X83892950Y-52617000D01*
X83747050Y-52617000D01*
X83528889Y-52638487D01*
X83248966Y-52723401D01*
X82990986Y-52861294D01*
X82764866Y-53046866D01*
X82579294Y-53272986D01*
X82550000Y-53327791D01*
X82520706Y-53272986D01*
X82335134Y-53046866D01*
X82109014Y-52861294D01*
X81851034Y-52723401D01*
X81571111Y-52638487D01*
X81352950Y-52617000D01*
X81207050Y-52617000D01*
X80988889Y-52638487D01*
X80708966Y-52723401D01*
X80450986Y-52861294D01*
X80224866Y-53046866D01*
X80039294Y-53272986D01*
X80010000Y-53327791D01*
X79980706Y-53272986D01*
X79795134Y-53046866D01*
X79569014Y-52861294D01*
X79311034Y-52723401D01*
X79031111Y-52638487D01*
X78812950Y-52617000D01*
X78667050Y-52617000D01*
X78448889Y-52638487D01*
X78168966Y-52723401D01*
X77910986Y-52861294D01*
X77684866Y-53046866D01*
X77499294Y-53272986D01*
X77470000Y-53327791D01*
X77440706Y-53272986D01*
X77255134Y-53046866D01*
X77029014Y-52861294D01*
X76771034Y-52723401D01*
X76491111Y-52638487D01*
X76272950Y-52617000D01*
X76127050Y-52617000D01*
X75908889Y-52638487D01*
X75628966Y-52723401D01*
X75370986Y-52861294D01*
X75144866Y-53046866D01*
X74959294Y-53272986D01*
X74930000Y-53327791D01*
X74900706Y-53272986D01*
X74715134Y-53046866D01*
X74489014Y-52861294D01*
X74231034Y-52723401D01*
X73951111Y-52638487D01*
X73732950Y-52617000D01*
X73587050Y-52617000D01*
X73368889Y-52638487D01*
X73088966Y-52723401D01*
X72830986Y-52861294D01*
X72604866Y-53046866D01*
X72419294Y-53272986D01*
X72390000Y-53327791D01*
X72360706Y-53272986D01*
X72175134Y-53046866D01*
X71949014Y-52861294D01*
X71691034Y-52723401D01*
X71411111Y-52638487D01*
X71192950Y-52617000D01*
X71047050Y-52617000D01*
X70828889Y-52638487D01*
X70548966Y-52723401D01*
X70290986Y-52861294D01*
X70064866Y-53046866D01*
X69879294Y-53272986D01*
X69850000Y-53327791D01*
X69820706Y-53272986D01*
X69635134Y-53046866D01*
X69409014Y-52861294D01*
X69151034Y-52723401D01*
X68871111Y-52638487D01*
X68652950Y-52617000D01*
X68507050Y-52617000D01*
X68288889Y-52638487D01*
X68008966Y-52723401D01*
X67750986Y-52861294D01*
X67524866Y-53046866D01*
X67339294Y-53272986D01*
X67310000Y-53327791D01*
X67280706Y-53272986D01*
X67095134Y-53046866D01*
X66869014Y-52861294D01*
X66611034Y-52723401D01*
X66331111Y-52638487D01*
X66112950Y-52617000D01*
X65967050Y-52617000D01*
X65748889Y-52638487D01*
X65468966Y-52723401D01*
X65210986Y-52861294D01*
X64984866Y-53046866D01*
X64960393Y-53076687D01*
X64939502Y-53007820D01*
X64880537Y-52897506D01*
X64801185Y-52800815D01*
X64704494Y-52721463D01*
X64594180Y-52662498D01*
X64474482Y-52626188D01*
X64350000Y-52613928D01*
X63785750Y-52617000D01*
X63627000Y-52775750D01*
X63627000Y-53975000D01*
X63647000Y-53975000D01*
X63647000Y-54229000D01*
X63627000Y-54229000D01*
X63627000Y-55428250D01*
X63785750Y-55587000D01*
X64350000Y-55590072D01*
X64474482Y-55577812D01*
X64594180Y-55541502D01*
X64704494Y-55482537D01*
X64801185Y-55403185D01*
X64880537Y-55306494D01*
X64939502Y-55196180D01*
X64960393Y-55127313D01*
X64984866Y-55157134D01*
X65210986Y-55342706D01*
X65468966Y-55480599D01*
X65748889Y-55565513D01*
X65967050Y-55587000D01*
X66112950Y-55587000D01*
X66253884Y-55573119D01*
X68882517Y-58201753D01*
X68910352Y-58235670D01*
X69045720Y-58346764D01*
X69200160Y-58429314D01*
X69266069Y-58449307D01*
X69367735Y-58480147D01*
X69400935Y-58483417D01*
X69498344Y-58493011D01*
X69498350Y-58493011D01*
X69542010Y-58497311D01*
X69585670Y-58493011D01*
X118573607Y-58493011D01*
X118617267Y-58497311D01*
X118660927Y-58493011D01*
X118660934Y-58493011D01*
X118791541Y-58480147D01*
X118959118Y-58429314D01*
X119113558Y-58346764D01*
X119248926Y-58235670D01*
X119276766Y-58201747D01*
X120145513Y-57333001D01*
X125914488Y-57333001D01*
X126529238Y-57947752D01*
X126557074Y-57981670D01*
X126692442Y-58092764D01*
X126846882Y-58175314D01*
X126963625Y-58210727D01*
X127014458Y-58226147D01*
X127031058Y-58227782D01*
X127145066Y-58239011D01*
X127145073Y-58239011D01*
X127188733Y-58243311D01*
X127232393Y-58239011D01*
X173731607Y-58239011D01*
X173775267Y-58243311D01*
X173818927Y-58239011D01*
X173818934Y-58239011D01*
X173949541Y-58226147D01*
X174117118Y-58175314D01*
X174271558Y-58092764D01*
X174406926Y-57981670D01*
X174434766Y-57947747D01*
X175049513Y-57333001D01*
X183732339Y-57333001D01*
X183775999Y-57337301D01*
X183819659Y-57333001D01*
X183819666Y-57333001D01*
X183950273Y-57320137D01*
X184117850Y-57269304D01*
X184272290Y-57186754D01*
X184407658Y-57075660D01*
X184435498Y-57041737D01*
X184938014Y-56539221D01*
X184965581Y-56550639D01*
X185339419Y-56625000D01*
X185720581Y-56625000D01*
X186094419Y-56550639D01*
X186446566Y-56404775D01*
X186763491Y-56193013D01*
X187033013Y-55923491D01*
X187244775Y-55606566D01*
X187390639Y-55254419D01*
X187465000Y-54880581D01*
X187465000Y-54499419D01*
X187390639Y-54125581D01*
X187244775Y-53773434D01*
X187033013Y-53456509D01*
X186763491Y-53186987D01*
X186446566Y-52975225D01*
X186094419Y-52829361D01*
X185720581Y-52755000D01*
X185339419Y-52755000D01*
X184965581Y-52829361D01*
X184613434Y-52975225D01*
X184296509Y-53186987D01*
X184026987Y-53456509D01*
X183815225Y-53773434D01*
X183669361Y-54125581D01*
X183595000Y-54499419D01*
X183595000Y-54880581D01*
X183669361Y-55254419D01*
X183680779Y-55281986D01*
X183407764Y-55555001D01*
X182266134Y-55555001D01*
X182390639Y-55254419D01*
X182465000Y-54880581D01*
X182465000Y-54499419D01*
X182390639Y-54125581D01*
X182244775Y-53773434D01*
X182033013Y-53456509D01*
X181763491Y-53186987D01*
X181446566Y-52975225D01*
X181094419Y-52829361D01*
X180720581Y-52755000D01*
X180339419Y-52755000D01*
X179965581Y-52829361D01*
X179613434Y-52975225D01*
X179296509Y-53186987D01*
X179026987Y-53456509D01*
X178815225Y-53773434D01*
X178669361Y-54125581D01*
X178595000Y-54499419D01*
X178595000Y-54880581D01*
X178669361Y-55254419D01*
X178793866Y-55555001D01*
X177260898Y-55555001D01*
X177345159Y-55386955D01*
X177446250Y-55019443D01*
X177473701Y-54639271D01*
X177426457Y-54261049D01*
X177306333Y-53899310D01*
X177174312Y-53652317D01*
X176879224Y-53520381D01*
X175709605Y-54690000D01*
X175723748Y-54704143D01*
X175544143Y-54883748D01*
X175530000Y-54869605D01*
X175515858Y-54883748D01*
X175336253Y-54704143D01*
X175350395Y-54690000D01*
X174180776Y-53520381D01*
X173885688Y-53652317D01*
X173714841Y-53993045D01*
X173613750Y-54360557D01*
X173586299Y-54740729D01*
X173633543Y-55118951D01*
X173753667Y-55480690D01*
X173885688Y-55727683D01*
X174058582Y-55804985D01*
X174049618Y-55812342D01*
X174021782Y-55846260D01*
X173407032Y-56461011D01*
X171310800Y-56461011D01*
X171446566Y-56404775D01*
X171763491Y-56193013D01*
X172033013Y-55923491D01*
X172244775Y-55606566D01*
X172390639Y-55254419D01*
X172465000Y-54880581D01*
X172465000Y-54499419D01*
X172390639Y-54125581D01*
X172244775Y-53773434D01*
X172033013Y-53456509D01*
X171917280Y-53340776D01*
X174360381Y-53340776D01*
X175530000Y-54510395D01*
X176699619Y-53340776D01*
X176567683Y-53045688D01*
X176226955Y-52874841D01*
X175859443Y-52773750D01*
X175479271Y-52746299D01*
X175101049Y-52793543D01*
X174739310Y-52913667D01*
X174492317Y-53045688D01*
X174360381Y-53340776D01*
X171917280Y-53340776D01*
X171763491Y-53186987D01*
X171446566Y-52975225D01*
X171094419Y-52829361D01*
X170720581Y-52755000D01*
X170339419Y-52755000D01*
X169965581Y-52829361D01*
X169938014Y-52840779D01*
X168727488Y-51630253D01*
X168699648Y-51596330D01*
X168564280Y-51485236D01*
X168409840Y-51402686D01*
X168242263Y-51351853D01*
X168111656Y-51338989D01*
X168111649Y-51338989D01*
X168067989Y-51334689D01*
X168024329Y-51338989D01*
X149879000Y-51338989D01*
X149879000Y-51206061D01*
X149839226Y-51006102D01*
X149761205Y-50817744D01*
X149655804Y-50660000D01*
X215340000Y-50660000D01*
X215340001Y-74340000D01*
X211758850Y-74340000D01*
X211842670Y-74305281D01*
X212196282Y-74069004D01*
X212497004Y-73768282D01*
X212733281Y-73414670D01*
X212896030Y-73021757D01*
X212979000Y-72604643D01*
X212979000Y-72179357D01*
X212896030Y-71762243D01*
X212733281Y-71369330D01*
X212497004Y-71015718D01*
X212196282Y-70714996D01*
X211842670Y-70478719D01*
X211449757Y-70315970D01*
X211032643Y-70233000D01*
X210607357Y-70233000D01*
X210190243Y-70315970D01*
X209797330Y-70478719D01*
X209443718Y-70714996D01*
X209142996Y-71015718D01*
X208906719Y-71369330D01*
X208743970Y-71762243D01*
X208661000Y-72179357D01*
X208661000Y-72604643D01*
X208743970Y-73021757D01*
X208906719Y-73414670D01*
X209142996Y-73768282D01*
X209443718Y-74069004D01*
X209797330Y-74305281D01*
X209881150Y-74340000D01*
X186358850Y-74340000D01*
X186442670Y-74305281D01*
X186796282Y-74069004D01*
X187097004Y-73768282D01*
X187333281Y-73414670D01*
X187496030Y-73021757D01*
X187579000Y-72604643D01*
X187579000Y-72179357D01*
X187496030Y-71762243D01*
X187440662Y-71628573D01*
X189868495Y-69200740D01*
X209490865Y-69200740D01*
X209649764Y-69518758D01*
X210028632Y-69711959D01*
X210437913Y-69827534D01*
X210861876Y-69861042D01*
X211284230Y-69811194D01*
X211688744Y-69679908D01*
X211990236Y-69518758D01*
X212149135Y-69200740D01*
X210820000Y-67871605D01*
X209490865Y-69200740D01*
X189868495Y-69200740D01*
X191127737Y-67941498D01*
X191161659Y-67913659D01*
X191272753Y-67778291D01*
X191296493Y-67733876D01*
X208650958Y-67733876D01*
X208700806Y-68156230D01*
X208832092Y-68560744D01*
X208993242Y-68862236D01*
X209311260Y-69021135D01*
X210640395Y-67692000D01*
X210999605Y-67692000D01*
X212328740Y-69021135D01*
X212646758Y-68862236D01*
X212839959Y-68483368D01*
X212955534Y-68074087D01*
X212989042Y-67650124D01*
X212939194Y-67227770D01*
X212807908Y-66823256D01*
X212646758Y-66521764D01*
X212328740Y-66362865D01*
X210999605Y-67692000D01*
X210640395Y-67692000D01*
X209311260Y-66362865D01*
X208993242Y-66521764D01*
X208800041Y-66900632D01*
X208684466Y-67309913D01*
X208650958Y-67733876D01*
X191296493Y-67733876D01*
X191355303Y-67623851D01*
X191389112Y-67512395D01*
X191406136Y-67456276D01*
X191409406Y-67423076D01*
X191419000Y-67325667D01*
X191419000Y-67325661D01*
X191423300Y-67282001D01*
X191419000Y-67238341D01*
X191419000Y-66183260D01*
X209490865Y-66183260D01*
X210820000Y-67512395D01*
X212149135Y-66183260D01*
X211990236Y-65865242D01*
X211611368Y-65672041D01*
X211202087Y-65556466D01*
X210778124Y-65522958D01*
X210355770Y-65572806D01*
X209951256Y-65704092D01*
X209649764Y-65865242D01*
X209490865Y-66183260D01*
X191419000Y-66183260D01*
X191419000Y-62779357D01*
X208661000Y-62779357D01*
X208661000Y-63204643D01*
X208743970Y-63621757D01*
X208906719Y-64014670D01*
X209142996Y-64368282D01*
X209443718Y-64669004D01*
X209797330Y-64905281D01*
X210190243Y-65068030D01*
X210607357Y-65151000D01*
X211032643Y-65151000D01*
X211449757Y-65068030D01*
X211842670Y-64905281D01*
X212196282Y-64669004D01*
X212497004Y-64368282D01*
X212733281Y-64014670D01*
X212896030Y-63621757D01*
X212979000Y-63204643D01*
X212979000Y-62779357D01*
X212896030Y-62362243D01*
X212733281Y-61969330D01*
X212497004Y-61615718D01*
X212196282Y-61314996D01*
X211842670Y-61078719D01*
X211449757Y-60915970D01*
X211032643Y-60833000D01*
X210607357Y-60833000D01*
X210190243Y-60915970D01*
X209797330Y-61078719D01*
X209443718Y-61314996D01*
X209142996Y-61615718D01*
X208906719Y-61969330D01*
X208743970Y-62362243D01*
X208661000Y-62779357D01*
X191419000Y-62779357D01*
X191419000Y-56416193D01*
X191446566Y-56404775D01*
X191763491Y-56193013D01*
X192033013Y-55923491D01*
X192244775Y-55606566D01*
X192390639Y-55254419D01*
X192465000Y-54880581D01*
X192465000Y-54499419D01*
X192390639Y-54125581D01*
X192244775Y-53773434D01*
X192033013Y-53456509D01*
X191763491Y-53186987D01*
X191446566Y-52975225D01*
X191094419Y-52829361D01*
X190720581Y-52755000D01*
X190339419Y-52755000D01*
X189965581Y-52829361D01*
X189613434Y-52975225D01*
X189296509Y-53186987D01*
X189026987Y-53456509D01*
X188815225Y-53773434D01*
X188669361Y-54125581D01*
X188595000Y-54499419D01*
X188595000Y-54880581D01*
X188669361Y-55254419D01*
X188815225Y-55606566D01*
X189026987Y-55923491D01*
X189296509Y-56193013D01*
X189613434Y-56404775D01*
X189641001Y-56416194D01*
X189641000Y-66913765D01*
X186183427Y-70371338D01*
X186049757Y-70315970D01*
X185632643Y-70233000D01*
X185207357Y-70233000D01*
X184790243Y-70315970D01*
X184397330Y-70478719D01*
X184043718Y-70714996D01*
X183742996Y-71015718D01*
X183506719Y-71369330D01*
X183343970Y-71762243D01*
X183261000Y-72179357D01*
X183261000Y-72604643D01*
X183343970Y-73021757D01*
X183506719Y-73414670D01*
X183742996Y-73768282D01*
X184043718Y-74069004D01*
X184397330Y-74305281D01*
X184481150Y-74340000D01*
X160958850Y-74340000D01*
X161042670Y-74305281D01*
X161396282Y-74069004D01*
X161697004Y-73768282D01*
X161933281Y-73414670D01*
X162096030Y-73021757D01*
X162179000Y-72604643D01*
X162179000Y-72179357D01*
X162096030Y-71762243D01*
X161933281Y-71369330D01*
X161697004Y-71015718D01*
X161396282Y-70714996D01*
X161042670Y-70478719D01*
X160649757Y-70315970D01*
X160232643Y-70233000D01*
X159807357Y-70233000D01*
X159390243Y-70315970D01*
X158997330Y-70478719D01*
X158643718Y-70714996D01*
X158342996Y-71015718D01*
X158106719Y-71369330D01*
X157943970Y-71762243D01*
X157861000Y-72179357D01*
X157861000Y-72604643D01*
X157943970Y-73021757D01*
X158106719Y-73414670D01*
X158342996Y-73768282D01*
X158643718Y-74069004D01*
X158997330Y-74305281D01*
X159081150Y-74340000D01*
X135558850Y-74340000D01*
X135642670Y-74305281D01*
X135996282Y-74069004D01*
X136297004Y-73768282D01*
X136533281Y-73414670D01*
X136696030Y-73021757D01*
X136779000Y-72604643D01*
X136779000Y-72179357D01*
X136696030Y-71762243D01*
X136533281Y-71369330D01*
X136297004Y-71015718D01*
X135996282Y-70714996D01*
X135642670Y-70478719D01*
X135249757Y-70315970D01*
X134832643Y-70233000D01*
X134407357Y-70233000D01*
X133990243Y-70315970D01*
X133597330Y-70478719D01*
X133243718Y-70714996D01*
X132942996Y-71015718D01*
X132706719Y-71369330D01*
X132543970Y-71762243D01*
X132461000Y-72179357D01*
X132461000Y-72604643D01*
X132543970Y-73021757D01*
X132706719Y-73414670D01*
X132942996Y-73768282D01*
X133243718Y-74069004D01*
X133597330Y-74305281D01*
X133681150Y-74340000D01*
X110158850Y-74340000D01*
X110242670Y-74305281D01*
X110596282Y-74069004D01*
X110897004Y-73768282D01*
X111133281Y-73414670D01*
X111296030Y-73021757D01*
X111379000Y-72604643D01*
X111379000Y-72179357D01*
X111296030Y-71762243D01*
X111133281Y-71369330D01*
X110897004Y-71015718D01*
X110596282Y-70714996D01*
X110242670Y-70478719D01*
X109849757Y-70315970D01*
X109432643Y-70233000D01*
X109007357Y-70233000D01*
X108590243Y-70315970D01*
X108197330Y-70478719D01*
X107843718Y-70714996D01*
X107542996Y-71015718D01*
X107306719Y-71369330D01*
X107143970Y-71762243D01*
X107061000Y-72179357D01*
X107061000Y-72604643D01*
X107143970Y-73021757D01*
X107306719Y-73414670D01*
X107542996Y-73768282D01*
X107843718Y-74069004D01*
X108197330Y-74305281D01*
X108281150Y-74340000D01*
X84758850Y-74340000D01*
X84842670Y-74305281D01*
X85196282Y-74069004D01*
X85497004Y-73768282D01*
X85733281Y-73414670D01*
X85896030Y-73021757D01*
X85979000Y-72604643D01*
X85979000Y-72179357D01*
X85896030Y-71762243D01*
X85733281Y-71369330D01*
X85497004Y-71015718D01*
X85196282Y-70714996D01*
X84842670Y-70478719D01*
X84449757Y-70315970D01*
X84032643Y-70233000D01*
X83607357Y-70233000D01*
X83190243Y-70315970D01*
X82797330Y-70478719D01*
X82443718Y-70714996D01*
X82142996Y-71015718D01*
X81906719Y-71369330D01*
X81743970Y-71762243D01*
X81661000Y-72179357D01*
X81661000Y-72604643D01*
X81743970Y-73021757D01*
X81906719Y-73414670D01*
X82142996Y-73768282D01*
X82443718Y-74069004D01*
X82797330Y-74305281D01*
X82881150Y-74340000D01*
X59358850Y-74340000D01*
X59442670Y-74305281D01*
X59796282Y-74069004D01*
X60097004Y-73768282D01*
X60333281Y-73414670D01*
X60496030Y-73021757D01*
X60579000Y-72604643D01*
X60579000Y-72179357D01*
X60496030Y-71762243D01*
X60333281Y-71369330D01*
X60097004Y-71015718D01*
X59796282Y-70714996D01*
X59442670Y-70478719D01*
X59049757Y-70315970D01*
X58632643Y-70233000D01*
X58207357Y-70233000D01*
X57790243Y-70315970D01*
X57397330Y-70478719D01*
X57043718Y-70714996D01*
X56742996Y-71015718D01*
X56506719Y-71369330D01*
X56343970Y-71762243D01*
X56261000Y-72179357D01*
X56261000Y-72604643D01*
X56343970Y-73021757D01*
X56506719Y-73414670D01*
X56742996Y-73768282D01*
X57043718Y-74069004D01*
X57397330Y-74305281D01*
X57481150Y-74340000D01*
X53660000Y-74340000D01*
X53660000Y-69200740D01*
X57090865Y-69200740D01*
X57249764Y-69518758D01*
X57628632Y-69711959D01*
X58037913Y-69827534D01*
X58461876Y-69861042D01*
X58884230Y-69811194D01*
X59288744Y-69679908D01*
X59590236Y-69518758D01*
X59749135Y-69200740D01*
X82490865Y-69200740D01*
X82649764Y-69518758D01*
X83028632Y-69711959D01*
X83437913Y-69827534D01*
X83861876Y-69861042D01*
X84284230Y-69811194D01*
X84688744Y-69679908D01*
X84990236Y-69518758D01*
X85149135Y-69200740D01*
X107890865Y-69200740D01*
X108049764Y-69518758D01*
X108428632Y-69711959D01*
X108837913Y-69827534D01*
X109261876Y-69861042D01*
X109684230Y-69811194D01*
X110088744Y-69679908D01*
X110390236Y-69518758D01*
X110549135Y-69200740D01*
X133290865Y-69200740D01*
X133449764Y-69518758D01*
X133828632Y-69711959D01*
X134237913Y-69827534D01*
X134661876Y-69861042D01*
X135084230Y-69811194D01*
X135488744Y-69679908D01*
X135790236Y-69518758D01*
X135949135Y-69200740D01*
X158690865Y-69200740D01*
X158849764Y-69518758D01*
X159228632Y-69711959D01*
X159637913Y-69827534D01*
X160061876Y-69861042D01*
X160484230Y-69811194D01*
X160888744Y-69679908D01*
X161190236Y-69518758D01*
X161349135Y-69200740D01*
X184090865Y-69200740D01*
X184249764Y-69518758D01*
X184628632Y-69711959D01*
X185037913Y-69827534D01*
X185461876Y-69861042D01*
X185884230Y-69811194D01*
X186288744Y-69679908D01*
X186590236Y-69518758D01*
X186749135Y-69200740D01*
X185420000Y-67871605D01*
X184090865Y-69200740D01*
X161349135Y-69200740D01*
X160020000Y-67871605D01*
X158690865Y-69200740D01*
X135949135Y-69200740D01*
X134620000Y-67871605D01*
X133290865Y-69200740D01*
X110549135Y-69200740D01*
X109220000Y-67871605D01*
X107890865Y-69200740D01*
X85149135Y-69200740D01*
X83820000Y-67871605D01*
X82490865Y-69200740D01*
X59749135Y-69200740D01*
X58420000Y-67871605D01*
X57090865Y-69200740D01*
X53660000Y-69200740D01*
X53660000Y-67733876D01*
X56250958Y-67733876D01*
X56300806Y-68156230D01*
X56432092Y-68560744D01*
X56593242Y-68862236D01*
X56911260Y-69021135D01*
X58240395Y-67692000D01*
X58599605Y-67692000D01*
X59928740Y-69021135D01*
X60246758Y-68862236D01*
X60439959Y-68483368D01*
X60555534Y-68074087D01*
X60582422Y-67733876D01*
X81650958Y-67733876D01*
X81700806Y-68156230D01*
X81832092Y-68560744D01*
X81993242Y-68862236D01*
X82311260Y-69021135D01*
X83640395Y-67692000D01*
X83999605Y-67692000D01*
X85328740Y-69021135D01*
X85646758Y-68862236D01*
X85839959Y-68483368D01*
X85955534Y-68074087D01*
X85982422Y-67733876D01*
X107050958Y-67733876D01*
X107100806Y-68156230D01*
X107232092Y-68560744D01*
X107393242Y-68862236D01*
X107711260Y-69021135D01*
X109040395Y-67692000D01*
X109399605Y-67692000D01*
X110728740Y-69021135D01*
X111046758Y-68862236D01*
X111239959Y-68483368D01*
X111355534Y-68074087D01*
X111382422Y-67733876D01*
X132450958Y-67733876D01*
X132500806Y-68156230D01*
X132632092Y-68560744D01*
X132793242Y-68862236D01*
X133111260Y-69021135D01*
X134440395Y-67692000D01*
X134799605Y-67692000D01*
X136128740Y-69021135D01*
X136446758Y-68862236D01*
X136639959Y-68483368D01*
X136755534Y-68074087D01*
X136782422Y-67733876D01*
X157850958Y-67733876D01*
X157900806Y-68156230D01*
X158032092Y-68560744D01*
X158193242Y-68862236D01*
X158511260Y-69021135D01*
X159840395Y-67692000D01*
X160199605Y-67692000D01*
X161528740Y-69021135D01*
X161846758Y-68862236D01*
X162039959Y-68483368D01*
X162155534Y-68074087D01*
X162182422Y-67733876D01*
X183250958Y-67733876D01*
X183300806Y-68156230D01*
X183432092Y-68560744D01*
X183593242Y-68862236D01*
X183911260Y-69021135D01*
X185240395Y-67692000D01*
X185599605Y-67692000D01*
X186928740Y-69021135D01*
X187246758Y-68862236D01*
X187439959Y-68483368D01*
X187555534Y-68074087D01*
X187589042Y-67650124D01*
X187539194Y-67227770D01*
X187407908Y-66823256D01*
X187246758Y-66521764D01*
X186928740Y-66362865D01*
X185599605Y-67692000D01*
X185240395Y-67692000D01*
X183911260Y-66362865D01*
X183593242Y-66521764D01*
X183400041Y-66900632D01*
X183284466Y-67309913D01*
X183250958Y-67733876D01*
X162182422Y-67733876D01*
X162189042Y-67650124D01*
X162139194Y-67227770D01*
X162007908Y-66823256D01*
X161846758Y-66521764D01*
X161528740Y-66362865D01*
X160199605Y-67692000D01*
X159840395Y-67692000D01*
X158511260Y-66362865D01*
X158193242Y-66521764D01*
X158000041Y-66900632D01*
X157884466Y-67309913D01*
X157850958Y-67733876D01*
X136782422Y-67733876D01*
X136789042Y-67650124D01*
X136739194Y-67227770D01*
X136607908Y-66823256D01*
X136446758Y-66521764D01*
X136128740Y-66362865D01*
X134799605Y-67692000D01*
X134440395Y-67692000D01*
X133111260Y-66362865D01*
X132793242Y-66521764D01*
X132600041Y-66900632D01*
X132484466Y-67309913D01*
X132450958Y-67733876D01*
X111382422Y-67733876D01*
X111389042Y-67650124D01*
X111339194Y-67227770D01*
X111207908Y-66823256D01*
X111046758Y-66521764D01*
X110728740Y-66362865D01*
X109399605Y-67692000D01*
X109040395Y-67692000D01*
X107711260Y-66362865D01*
X107393242Y-66521764D01*
X107200041Y-66900632D01*
X107084466Y-67309913D01*
X107050958Y-67733876D01*
X85982422Y-67733876D01*
X85989042Y-67650124D01*
X85939194Y-67227770D01*
X85807908Y-66823256D01*
X85646758Y-66521764D01*
X85328740Y-66362865D01*
X83999605Y-67692000D01*
X83640395Y-67692000D01*
X82311260Y-66362865D01*
X81993242Y-66521764D01*
X81800041Y-66900632D01*
X81684466Y-67309913D01*
X81650958Y-67733876D01*
X60582422Y-67733876D01*
X60589042Y-67650124D01*
X60539194Y-67227770D01*
X60407908Y-66823256D01*
X60246758Y-66521764D01*
X59928740Y-66362865D01*
X58599605Y-67692000D01*
X58240395Y-67692000D01*
X56911260Y-66362865D01*
X56593242Y-66521764D01*
X56400041Y-66900632D01*
X56284466Y-67309913D01*
X56250958Y-67733876D01*
X53660000Y-67733876D01*
X53660000Y-66183260D01*
X57090865Y-66183260D01*
X58420000Y-67512395D01*
X59749135Y-66183260D01*
X82490865Y-66183260D01*
X83820000Y-67512395D01*
X85149135Y-66183260D01*
X107890865Y-66183260D01*
X109220000Y-67512395D01*
X110549135Y-66183260D01*
X133290865Y-66183260D01*
X134620000Y-67512395D01*
X135949135Y-66183260D01*
X158690865Y-66183260D01*
X160020000Y-67512395D01*
X161349135Y-66183260D01*
X184090865Y-66183260D01*
X185420000Y-67512395D01*
X186749135Y-66183260D01*
X186590236Y-65865242D01*
X186211368Y-65672041D01*
X185802087Y-65556466D01*
X185378124Y-65522958D01*
X184955770Y-65572806D01*
X184551256Y-65704092D01*
X184249764Y-65865242D01*
X184090865Y-66183260D01*
X161349135Y-66183260D01*
X161190236Y-65865242D01*
X160811368Y-65672041D01*
X160402087Y-65556466D01*
X159978124Y-65522958D01*
X159555770Y-65572806D01*
X159151256Y-65704092D01*
X158849764Y-65865242D01*
X158690865Y-66183260D01*
X135949135Y-66183260D01*
X135790236Y-65865242D01*
X135411368Y-65672041D01*
X135002087Y-65556466D01*
X134578124Y-65522958D01*
X134155770Y-65572806D01*
X133751256Y-65704092D01*
X133449764Y-65865242D01*
X133290865Y-66183260D01*
X110549135Y-66183260D01*
X110390236Y-65865242D01*
X110011368Y-65672041D01*
X109602087Y-65556466D01*
X109178124Y-65522958D01*
X108755770Y-65572806D01*
X108351256Y-65704092D01*
X108049764Y-65865242D01*
X107890865Y-66183260D01*
X85149135Y-66183260D01*
X84990236Y-65865242D01*
X84611368Y-65672041D01*
X84202087Y-65556466D01*
X83778124Y-65522958D01*
X83355770Y-65572806D01*
X82951256Y-65704092D01*
X82649764Y-65865242D01*
X82490865Y-66183260D01*
X59749135Y-66183260D01*
X59590236Y-65865242D01*
X59211368Y-65672041D01*
X58802087Y-65556466D01*
X58378124Y-65522958D01*
X57955770Y-65572806D01*
X57551256Y-65704092D01*
X57249764Y-65865242D01*
X57090865Y-66183260D01*
X53660000Y-66183260D01*
X53660000Y-62779357D01*
X56261000Y-62779357D01*
X56261000Y-63204643D01*
X56343970Y-63621757D01*
X56506719Y-64014670D01*
X56742996Y-64368282D01*
X57043718Y-64669004D01*
X57397330Y-64905281D01*
X57790243Y-65068030D01*
X58207357Y-65151000D01*
X58632643Y-65151000D01*
X59049757Y-65068030D01*
X59442670Y-64905281D01*
X59796282Y-64669004D01*
X60097004Y-64368282D01*
X60333281Y-64014670D01*
X60496030Y-63621757D01*
X60579000Y-63204643D01*
X60579000Y-62779357D01*
X81661000Y-62779357D01*
X81661000Y-63204643D01*
X81743970Y-63621757D01*
X81906719Y-64014670D01*
X82142996Y-64368282D01*
X82443718Y-64669004D01*
X82797330Y-64905281D01*
X83190243Y-65068030D01*
X83607357Y-65151000D01*
X84032643Y-65151000D01*
X84449757Y-65068030D01*
X84842670Y-64905281D01*
X85196282Y-64669004D01*
X85497004Y-64368282D01*
X85733281Y-64014670D01*
X85896030Y-63621757D01*
X85979000Y-63204643D01*
X85979000Y-62779357D01*
X107061000Y-62779357D01*
X107061000Y-63204643D01*
X107143970Y-63621757D01*
X107306719Y-64014670D01*
X107542996Y-64368282D01*
X107843718Y-64669004D01*
X108197330Y-64905281D01*
X108590243Y-65068030D01*
X109007357Y-65151000D01*
X109432643Y-65151000D01*
X109849757Y-65068030D01*
X110242670Y-64905281D01*
X110596282Y-64669004D01*
X110897004Y-64368282D01*
X111133281Y-64014670D01*
X111296030Y-63621757D01*
X111379000Y-63204643D01*
X111379000Y-62779357D01*
X132461000Y-62779357D01*
X132461000Y-63204643D01*
X132543970Y-63621757D01*
X132706719Y-64014670D01*
X132942996Y-64368282D01*
X133243718Y-64669004D01*
X133597330Y-64905281D01*
X133990243Y-65068030D01*
X134407357Y-65151000D01*
X134832643Y-65151000D01*
X135249757Y-65068030D01*
X135642670Y-64905281D01*
X135996282Y-64669004D01*
X136297004Y-64368282D01*
X136533281Y-64014670D01*
X136696030Y-63621757D01*
X136779000Y-63204643D01*
X136779000Y-62779357D01*
X157861000Y-62779357D01*
X157861000Y-63204643D01*
X157943970Y-63621757D01*
X158106719Y-64014670D01*
X158342996Y-64368282D01*
X158643718Y-64669004D01*
X158997330Y-64905281D01*
X159390243Y-65068030D01*
X159807357Y-65151000D01*
X160232643Y-65151000D01*
X160649757Y-65068030D01*
X161042670Y-64905281D01*
X161396282Y-64669004D01*
X161697004Y-64368282D01*
X161933281Y-64014670D01*
X162096030Y-63621757D01*
X162179000Y-63204643D01*
X162179000Y-62779357D01*
X183261000Y-62779357D01*
X183261000Y-63204643D01*
X183343970Y-63621757D01*
X183506719Y-64014670D01*
X183742996Y-64368282D01*
X184043718Y-64669004D01*
X184397330Y-64905281D01*
X184790243Y-65068030D01*
X185207357Y-65151000D01*
X185632643Y-65151000D01*
X186049757Y-65068030D01*
X186442670Y-64905281D01*
X186796282Y-64669004D01*
X187097004Y-64368282D01*
X187333281Y-64014670D01*
X187496030Y-63621757D01*
X187579000Y-63204643D01*
X187579000Y-62779357D01*
X187496030Y-62362243D01*
X187333281Y-61969330D01*
X187097004Y-61615718D01*
X186796282Y-61314996D01*
X186442670Y-61078719D01*
X186049757Y-60915970D01*
X185632643Y-60833000D01*
X185207357Y-60833000D01*
X184790243Y-60915970D01*
X184397330Y-61078719D01*
X184043718Y-61314996D01*
X183742996Y-61615718D01*
X183506719Y-61969330D01*
X183343970Y-62362243D01*
X183261000Y-62779357D01*
X162179000Y-62779357D01*
X162096030Y-62362243D01*
X161933281Y-61969330D01*
X161697004Y-61615718D01*
X161396282Y-61314996D01*
X161042670Y-61078719D01*
X160649757Y-60915970D01*
X160232643Y-60833000D01*
X159807357Y-60833000D01*
X159390243Y-60915970D01*
X158997330Y-61078719D01*
X158643718Y-61314996D01*
X158342996Y-61615718D01*
X158106719Y-61969330D01*
X157943970Y-62362243D01*
X157861000Y-62779357D01*
X136779000Y-62779357D01*
X136696030Y-62362243D01*
X136533281Y-61969330D01*
X136297004Y-61615718D01*
X135996282Y-61314996D01*
X135642670Y-61078719D01*
X135249757Y-60915970D01*
X134832643Y-60833000D01*
X134407357Y-60833000D01*
X133990243Y-60915970D01*
X133597330Y-61078719D01*
X133243718Y-61314996D01*
X132942996Y-61615718D01*
X132706719Y-61969330D01*
X132543970Y-62362243D01*
X132461000Y-62779357D01*
X111379000Y-62779357D01*
X111296030Y-62362243D01*
X111133281Y-61969330D01*
X110897004Y-61615718D01*
X110596282Y-61314996D01*
X110242670Y-61078719D01*
X109849757Y-60915970D01*
X109432643Y-60833000D01*
X109007357Y-60833000D01*
X108590243Y-60915970D01*
X108197330Y-61078719D01*
X107843718Y-61314996D01*
X107542996Y-61615718D01*
X107306719Y-61969330D01*
X107143970Y-62362243D01*
X107061000Y-62779357D01*
X85979000Y-62779357D01*
X85896030Y-62362243D01*
X85733281Y-61969330D01*
X85497004Y-61615718D01*
X85196282Y-61314996D01*
X84842670Y-61078719D01*
X84449757Y-60915970D01*
X84032643Y-60833000D01*
X83607357Y-60833000D01*
X83190243Y-60915970D01*
X82797330Y-61078719D01*
X82443718Y-61314996D01*
X82142996Y-61615718D01*
X81906719Y-61969330D01*
X81743970Y-62362243D01*
X81661000Y-62779357D01*
X60579000Y-62779357D01*
X60496030Y-62362243D01*
X60333281Y-61969330D01*
X60097004Y-61615718D01*
X59796282Y-61314996D01*
X59442670Y-61078719D01*
X59049757Y-60915970D01*
X58632643Y-60833000D01*
X58207357Y-60833000D01*
X57790243Y-60915970D01*
X57397330Y-61078719D01*
X57043718Y-61314996D01*
X56742996Y-61615718D01*
X56506719Y-61969330D01*
X56343970Y-62362243D01*
X56261000Y-62779357D01*
X53660000Y-62779357D01*
X53660000Y-54952000D01*
X62011928Y-54952000D01*
X62024188Y-55076482D01*
X62060498Y-55196180D01*
X62119463Y-55306494D01*
X62198815Y-55403185D01*
X62295506Y-55482537D01*
X62405820Y-55541502D01*
X62525518Y-55577812D01*
X62650000Y-55590072D01*
X63214250Y-55587000D01*
X63373000Y-55428250D01*
X63373000Y-54229000D01*
X62173750Y-54229000D01*
X62015000Y-54387750D01*
X62011928Y-54952000D01*
X53660000Y-54952000D01*
X53660000Y-53252000D01*
X62011928Y-53252000D01*
X62015000Y-53816250D01*
X62173750Y-53975000D01*
X63373000Y-53975000D01*
X63373000Y-52775750D01*
X63214250Y-52617000D01*
X62650000Y-52613928D01*
X62525518Y-52626188D01*
X62405820Y-52662498D01*
X62295506Y-52721463D01*
X62198815Y-52800815D01*
X62119463Y-52897506D01*
X62060498Y-53007820D01*
X62024188Y-53127518D01*
X62011928Y-53252000D01*
X53660000Y-53252000D01*
X53660000Y-50660000D01*
X103782253Y-50660000D01*
X103762341Y-50676341D01*
G36*
X134360381Y-53340776D02*
G01*
X135530000Y-54510395D01*
X136699619Y-53340776D01*
X136599562Y-53116989D01*
X139401269Y-53116989D01*
X139296509Y-53186987D01*
X139026987Y-53456509D01*
X138815225Y-53773434D01*
X138799302Y-53811876D01*
X138695709Y-53867248D01*
X138560341Y-53978341D01*
X138449248Y-54113709D01*
X138366698Y-54268148D01*
X138315864Y-54435726D01*
X138298700Y-54610000D01*
X138315864Y-54784274D01*
X138366698Y-54951852D01*
X138449248Y-55106291D01*
X138532505Y-55207740D01*
X138612501Y-55287736D01*
X138640341Y-55321659D01*
X138726502Y-55392370D01*
X138815225Y-55606566D01*
X139026987Y-55923491D01*
X139296509Y-56193013D01*
X139613434Y-56404775D01*
X139749200Y-56461011D01*
X136330647Y-56461011D01*
X136567683Y-56334312D01*
X136699619Y-56039224D01*
X135530000Y-54869605D01*
X134360381Y-56039224D01*
X134492317Y-56334312D01*
X134744999Y-56461011D01*
X131310800Y-56461011D01*
X131446566Y-56404775D01*
X131763491Y-56193013D01*
X132033013Y-55923491D01*
X132244775Y-55606566D01*
X132390639Y-55254419D01*
X132465000Y-54880581D01*
X132465000Y-54740729D01*
X133586299Y-54740729D01*
X133633543Y-55118951D01*
X133753667Y-55480690D01*
X133885688Y-55727683D01*
X134180776Y-55859619D01*
X135350395Y-54690000D01*
X135709605Y-54690000D01*
X136879224Y-55859619D01*
X137174312Y-55727683D01*
X137345159Y-55386955D01*
X137446250Y-55019443D01*
X137473701Y-54639271D01*
X137426457Y-54261049D01*
X137306333Y-53899310D01*
X137174312Y-53652317D01*
X136879224Y-53520381D01*
X135709605Y-54690000D01*
X135350395Y-54690000D01*
X134180776Y-53520381D01*
X133885688Y-53652317D01*
X133714841Y-53993045D01*
X133613750Y-54360557D01*
X133586299Y-54740729D01*
X132465000Y-54740729D01*
X132465000Y-54499419D01*
X132390639Y-54125581D01*
X132244775Y-53773434D01*
X132033013Y-53456509D01*
X131763491Y-53186987D01*
X131658731Y-53116989D01*
X134460438Y-53116989D01*
X134360381Y-53340776D01*
X134360381Y-53340776D01*
G37*
X134360381Y-53340776D02*
X135530000Y-54510395D01*
X136699619Y-53340776D01*
X136599562Y-53116989D01*
X139401269Y-53116989D01*
X139296509Y-53186987D01*
X139026987Y-53456509D01*
X138815225Y-53773434D01*
X138799302Y-53811876D01*
X138695709Y-53867248D01*
X138560341Y-53978341D01*
X138449248Y-54113709D01*
X138366698Y-54268148D01*
X138315864Y-54435726D01*
X138298700Y-54610000D01*
X138315864Y-54784274D01*
X138366698Y-54951852D01*
X138449248Y-55106291D01*
X138532505Y-55207740D01*
X138612501Y-55287736D01*
X138640341Y-55321659D01*
X138726502Y-55392370D01*
X138815225Y-55606566D01*
X139026987Y-55923491D01*
X139296509Y-56193013D01*
X139613434Y-56404775D01*
X139749200Y-56461011D01*
X136330647Y-56461011D01*
X136567683Y-56334312D01*
X136699619Y-56039224D01*
X135530000Y-54869605D01*
X134360381Y-56039224D01*
X134492317Y-56334312D01*
X134744999Y-56461011D01*
X131310800Y-56461011D01*
X131446566Y-56404775D01*
X131763491Y-56193013D01*
X132033013Y-55923491D01*
X132244775Y-55606566D01*
X132390639Y-55254419D01*
X132465000Y-54880581D01*
X132465000Y-54740729D01*
X133586299Y-54740729D01*
X133633543Y-55118951D01*
X133753667Y-55480690D01*
X133885688Y-55727683D01*
X134180776Y-55859619D01*
X135350395Y-54690000D01*
X135709605Y-54690000D01*
X136879224Y-55859619D01*
X137174312Y-55727683D01*
X137345159Y-55386955D01*
X137446250Y-55019443D01*
X137473701Y-54639271D01*
X137426457Y-54261049D01*
X137306333Y-53899310D01*
X137174312Y-53652317D01*
X136879224Y-53520381D01*
X135709605Y-54690000D01*
X135350395Y-54690000D01*
X134180776Y-53520381D01*
X133885688Y-53652317D01*
X133714841Y-53993045D01*
X133613750Y-54360557D01*
X133586299Y-54740729D01*
X132465000Y-54740729D01*
X132465000Y-54499419D01*
X132390639Y-54125581D01*
X132244775Y-53773434D01*
X132033013Y-53456509D01*
X131763491Y-53186987D01*
X131658731Y-53116989D01*
X134460438Y-53116989D01*
X134360381Y-53340776D01*
G36*
X164360381Y-53340776D02*
G01*
X165530000Y-54510395D01*
X166699619Y-53340776D01*
X166599562Y-53116989D01*
X167699754Y-53116989D01*
X168680779Y-54098014D01*
X168669361Y-54125581D01*
X168595000Y-54499419D01*
X168595000Y-54880581D01*
X168669361Y-55254419D01*
X168815225Y-55606566D01*
X169026987Y-55923491D01*
X169296509Y-56193013D01*
X169613434Y-56404775D01*
X169749200Y-56461011D01*
X166330647Y-56461011D01*
X166567683Y-56334312D01*
X166699619Y-56039224D01*
X165530000Y-54869605D01*
X164360381Y-56039224D01*
X164492317Y-56334312D01*
X164744999Y-56461011D01*
X161310800Y-56461011D01*
X161446566Y-56404775D01*
X161763491Y-56193013D01*
X162033013Y-55923491D01*
X162244775Y-55606566D01*
X162390639Y-55254419D01*
X162465000Y-54880581D01*
X162465000Y-54740729D01*
X163586299Y-54740729D01*
X163633543Y-55118951D01*
X163753667Y-55480690D01*
X163885688Y-55727683D01*
X164180776Y-55859619D01*
X165350395Y-54690000D01*
X165709605Y-54690000D01*
X166879224Y-55859619D01*
X167174312Y-55727683D01*
X167345159Y-55386955D01*
X167446250Y-55019443D01*
X167473701Y-54639271D01*
X167426457Y-54261049D01*
X167306333Y-53899310D01*
X167174312Y-53652317D01*
X166879224Y-53520381D01*
X165709605Y-54690000D01*
X165350395Y-54690000D01*
X164180776Y-53520381D01*
X163885688Y-53652317D01*
X163714841Y-53993045D01*
X163613750Y-54360557D01*
X163586299Y-54740729D01*
X162465000Y-54740729D01*
X162465000Y-54499419D01*
X162390639Y-54125581D01*
X162244775Y-53773434D01*
X162033013Y-53456509D01*
X161763491Y-53186987D01*
X161658731Y-53116989D01*
X164460438Y-53116989D01*
X164360381Y-53340776D01*
X164360381Y-53340776D01*
G37*
X164360381Y-53340776D02*
X165530000Y-54510395D01*
X166699619Y-53340776D01*
X166599562Y-53116989D01*
X167699754Y-53116989D01*
X168680779Y-54098014D01*
X168669361Y-54125581D01*
X168595000Y-54499419D01*
X168595000Y-54880581D01*
X168669361Y-55254419D01*
X168815225Y-55606566D01*
X169026987Y-55923491D01*
X169296509Y-56193013D01*
X169613434Y-56404775D01*
X169749200Y-56461011D01*
X166330647Y-56461011D01*
X166567683Y-56334312D01*
X166699619Y-56039224D01*
X165530000Y-54869605D01*
X164360381Y-56039224D01*
X164492317Y-56334312D01*
X164744999Y-56461011D01*
X161310800Y-56461011D01*
X161446566Y-56404775D01*
X161763491Y-56193013D01*
X162033013Y-55923491D01*
X162244775Y-55606566D01*
X162390639Y-55254419D01*
X162465000Y-54880581D01*
X162465000Y-54740729D01*
X163586299Y-54740729D01*
X163633543Y-55118951D01*
X163753667Y-55480690D01*
X163885688Y-55727683D01*
X164180776Y-55859619D01*
X165350395Y-54690000D01*
X165709605Y-54690000D01*
X166879224Y-55859619D01*
X167174312Y-55727683D01*
X167345159Y-55386955D01*
X167446250Y-55019443D01*
X167473701Y-54639271D01*
X167426457Y-54261049D01*
X167306333Y-53899310D01*
X167174312Y-53652317D01*
X166879224Y-53520381D01*
X165709605Y-54690000D01*
X165350395Y-54690000D01*
X164180776Y-53520381D01*
X163885688Y-53652317D01*
X163714841Y-53993045D01*
X163613750Y-54360557D01*
X163586299Y-54740729D01*
X162465000Y-54740729D01*
X162465000Y-54499419D01*
X162390639Y-54125581D01*
X162244775Y-53773434D01*
X162033013Y-53456509D01*
X161763491Y-53186987D01*
X161658731Y-53116989D01*
X164460438Y-53116989D01*
X164360381Y-53340776D01*
G36*
X153714841Y-53993045D02*
G01*
X153613750Y-54360557D01*
X153586299Y-54740729D01*
X153633543Y-55118951D01*
X153753667Y-55480690D01*
X153885688Y-55727683D01*
X154180776Y-55859619D01*
X155350395Y-54690000D01*
X155336253Y-54675858D01*
X155515858Y-54496253D01*
X155530000Y-54510395D01*
X155544143Y-54496253D01*
X155723748Y-54675858D01*
X155709605Y-54690000D01*
X156879224Y-55859619D01*
X157174312Y-55727683D01*
X157345159Y-55386955D01*
X157446250Y-55019443D01*
X157473701Y-54639271D01*
X157426457Y-54261049D01*
X157306333Y-53899310D01*
X157266613Y-53824999D01*
X158407764Y-53824999D01*
X158680779Y-54098014D01*
X158669361Y-54125581D01*
X158595000Y-54499419D01*
X158595000Y-54880581D01*
X158669361Y-55254419D01*
X158815225Y-55606566D01*
X159026987Y-55923491D01*
X159296509Y-56193013D01*
X159613434Y-56404775D01*
X159749200Y-56461011D01*
X156330647Y-56461011D01*
X156567683Y-56334312D01*
X156699619Y-56039224D01*
X155530000Y-54869605D01*
X154360381Y-56039224D01*
X154492317Y-56334312D01*
X154744999Y-56461011D01*
X151310800Y-56461011D01*
X151446566Y-56404775D01*
X151763491Y-56193013D01*
X152033013Y-55923491D01*
X152244775Y-55606566D01*
X152390639Y-55254419D01*
X152465000Y-54880581D01*
X152465000Y-54499419D01*
X152390639Y-54125581D01*
X152266134Y-53824999D01*
X153799102Y-53824999D01*
X153714841Y-53993045D01*
X153714841Y-53993045D01*
G37*
X153714841Y-53993045D02*
X153613750Y-54360557D01*
X153586299Y-54740729D01*
X153633543Y-55118951D01*
X153753667Y-55480690D01*
X153885688Y-55727683D01*
X154180776Y-55859619D01*
X155350395Y-54690000D01*
X155336253Y-54675858D01*
X155515858Y-54496253D01*
X155530000Y-54510395D01*
X155544143Y-54496253D01*
X155723748Y-54675858D01*
X155709605Y-54690000D01*
X156879224Y-55859619D01*
X157174312Y-55727683D01*
X157345159Y-55386955D01*
X157446250Y-55019443D01*
X157473701Y-54639271D01*
X157426457Y-54261049D01*
X157306333Y-53899310D01*
X157266613Y-53824999D01*
X158407764Y-53824999D01*
X158680779Y-54098014D01*
X158669361Y-54125581D01*
X158595000Y-54499419D01*
X158595000Y-54880581D01*
X158669361Y-55254419D01*
X158815225Y-55606566D01*
X159026987Y-55923491D01*
X159296509Y-56193013D01*
X159613434Y-56404775D01*
X159749200Y-56461011D01*
X156330647Y-56461011D01*
X156567683Y-56334312D01*
X156699619Y-56039224D01*
X155530000Y-54869605D01*
X154360381Y-56039224D01*
X154492317Y-56334312D01*
X154744999Y-56461011D01*
X151310800Y-56461011D01*
X151446566Y-56404775D01*
X151763491Y-56193013D01*
X152033013Y-55923491D01*
X152244775Y-55606566D01*
X152390639Y-55254419D01*
X152465000Y-54880581D01*
X152465000Y-54499419D01*
X152390639Y-54125581D01*
X152266134Y-53824999D01*
X153799102Y-53824999D01*
X153714841Y-53993045D01*
G36*
X144360381Y-53340776D02*
G01*
X145530000Y-54510395D01*
X146699619Y-53340776D01*
X146599562Y-53116989D01*
X147833083Y-53116989D01*
X147809000Y-53238061D01*
X147809000Y-53441939D01*
X147848774Y-53641898D01*
X147926795Y-53830256D01*
X148040063Y-53999774D01*
X148184226Y-54143937D01*
X148353744Y-54257205D01*
X148542102Y-54335226D01*
X148624404Y-54351597D01*
X148595000Y-54499419D01*
X148595000Y-54880581D01*
X148669361Y-55254419D01*
X148815225Y-55606566D01*
X149026987Y-55923491D01*
X149296509Y-56193013D01*
X149613434Y-56404775D01*
X149749200Y-56461011D01*
X146330647Y-56461011D01*
X146567683Y-56334312D01*
X146699619Y-56039224D01*
X145530000Y-54869605D01*
X144360381Y-56039224D01*
X144492317Y-56334312D01*
X144744999Y-56461011D01*
X141310800Y-56461011D01*
X141446566Y-56404775D01*
X141763491Y-56193013D01*
X142033013Y-55923491D01*
X142244775Y-55606566D01*
X142390639Y-55254419D01*
X142465000Y-54880581D01*
X142465000Y-54740729D01*
X143586299Y-54740729D01*
X143633543Y-55118951D01*
X143753667Y-55480690D01*
X143885688Y-55727683D01*
X144180776Y-55859619D01*
X145350395Y-54690000D01*
X145709605Y-54690000D01*
X146879224Y-55859619D01*
X147174312Y-55727683D01*
X147345159Y-55386955D01*
X147446250Y-55019443D01*
X147473701Y-54639271D01*
X147426457Y-54261049D01*
X147306333Y-53899310D01*
X147174312Y-53652317D01*
X146879224Y-53520381D01*
X145709605Y-54690000D01*
X145350395Y-54690000D01*
X144180776Y-53520381D01*
X143885688Y-53652317D01*
X143714841Y-53993045D01*
X143613750Y-54360557D01*
X143586299Y-54740729D01*
X142465000Y-54740729D01*
X142465000Y-54499419D01*
X142390639Y-54125581D01*
X142244775Y-53773434D01*
X142033013Y-53456509D01*
X141763491Y-53186987D01*
X141658731Y-53116989D01*
X144460438Y-53116989D01*
X144360381Y-53340776D01*
X144360381Y-53340776D01*
G37*
X144360381Y-53340776D02*
X145530000Y-54510395D01*
X146699619Y-53340776D01*
X146599562Y-53116989D01*
X147833083Y-53116989D01*
X147809000Y-53238061D01*
X147809000Y-53441939D01*
X147848774Y-53641898D01*
X147926795Y-53830256D01*
X148040063Y-53999774D01*
X148184226Y-54143937D01*
X148353744Y-54257205D01*
X148542102Y-54335226D01*
X148624404Y-54351597D01*
X148595000Y-54499419D01*
X148595000Y-54880581D01*
X148669361Y-55254419D01*
X148815225Y-55606566D01*
X149026987Y-55923491D01*
X149296509Y-56193013D01*
X149613434Y-56404775D01*
X149749200Y-56461011D01*
X146330647Y-56461011D01*
X146567683Y-56334312D01*
X146699619Y-56039224D01*
X145530000Y-54869605D01*
X144360381Y-56039224D01*
X144492317Y-56334312D01*
X144744999Y-56461011D01*
X141310800Y-56461011D01*
X141446566Y-56404775D01*
X141763491Y-56193013D01*
X142033013Y-55923491D01*
X142244775Y-55606566D01*
X142390639Y-55254419D01*
X142465000Y-54880581D01*
X142465000Y-54740729D01*
X143586299Y-54740729D01*
X143633543Y-55118951D01*
X143753667Y-55480690D01*
X143885688Y-55727683D01*
X144180776Y-55859619D01*
X145350395Y-54690000D01*
X145709605Y-54690000D01*
X146879224Y-55859619D01*
X147174312Y-55727683D01*
X147345159Y-55386955D01*
X147446250Y-55019443D01*
X147473701Y-54639271D01*
X147426457Y-54261049D01*
X147306333Y-53899310D01*
X147174312Y-53652317D01*
X146879224Y-53520381D01*
X145709605Y-54690000D01*
X145350395Y-54690000D01*
X144180776Y-53520381D01*
X143885688Y-53652317D01*
X143714841Y-53993045D01*
X143613750Y-54360557D01*
X143586299Y-54740729D01*
X142465000Y-54740729D01*
X142465000Y-54499419D01*
X142390639Y-54125581D01*
X142244775Y-53773434D01*
X142033013Y-53456509D01*
X141763491Y-53186987D01*
X141658731Y-53116989D01*
X144460438Y-53116989D01*
X144360381Y-53340776D01*
G36*
X124360381Y-53340776D02*
G01*
X125530000Y-54510395D01*
X126699619Y-53340776D01*
X126599562Y-53116989D01*
X129401269Y-53116989D01*
X129296509Y-53186987D01*
X129026987Y-53456509D01*
X128815225Y-53773434D01*
X128669361Y-54125581D01*
X128595000Y-54499419D01*
X128595000Y-54880581D01*
X128669361Y-55254419D01*
X128815225Y-55606566D01*
X129026987Y-55923491D01*
X129296509Y-56193013D01*
X129613434Y-56404775D01*
X129749200Y-56461011D01*
X127556969Y-56461011D01*
X126942222Y-55846265D01*
X126933329Y-55835428D01*
X127174312Y-55727683D01*
X127345159Y-55386955D01*
X127446250Y-55019443D01*
X127473701Y-54639271D01*
X127426457Y-54261049D01*
X127306333Y-53899310D01*
X127174312Y-53652317D01*
X126879224Y-53520381D01*
X125709605Y-54690000D01*
X125723748Y-54704143D01*
X125544143Y-54883748D01*
X125530000Y-54869605D01*
X125515858Y-54883748D01*
X125336253Y-54704143D01*
X125350395Y-54690000D01*
X124180776Y-53520381D01*
X123885688Y-53652317D01*
X123714841Y-53993045D01*
X123613750Y-54360557D01*
X123586299Y-54740729D01*
X123633543Y-55118951D01*
X123753667Y-55480690D01*
X123793387Y-55555001D01*
X122266134Y-55555001D01*
X122390639Y-55254419D01*
X122465000Y-54880581D01*
X122465000Y-54499419D01*
X122390639Y-54125581D01*
X122244775Y-53773434D01*
X122033013Y-53456509D01*
X121763491Y-53186987D01*
X121658731Y-53116989D01*
X124460438Y-53116989D01*
X124360381Y-53340776D01*
X124360381Y-53340776D01*
G37*
X124360381Y-53340776D02*
X125530000Y-54510395D01*
X126699619Y-53340776D01*
X126599562Y-53116989D01*
X129401269Y-53116989D01*
X129296509Y-53186987D01*
X129026987Y-53456509D01*
X128815225Y-53773434D01*
X128669361Y-54125581D01*
X128595000Y-54499419D01*
X128595000Y-54880581D01*
X128669361Y-55254419D01*
X128815225Y-55606566D01*
X129026987Y-55923491D01*
X129296509Y-56193013D01*
X129613434Y-56404775D01*
X129749200Y-56461011D01*
X127556969Y-56461011D01*
X126942222Y-55846265D01*
X126933329Y-55835428D01*
X127174312Y-55727683D01*
X127345159Y-55386955D01*
X127446250Y-55019443D01*
X127473701Y-54639271D01*
X127426457Y-54261049D01*
X127306333Y-53899310D01*
X127174312Y-53652317D01*
X126879224Y-53520381D01*
X125709605Y-54690000D01*
X125723748Y-54704143D01*
X125544143Y-54883748D01*
X125530000Y-54869605D01*
X125515858Y-54883748D01*
X125336253Y-54704143D01*
X125350395Y-54690000D01*
X124180776Y-53520381D01*
X123885688Y-53652317D01*
X123714841Y-53993045D01*
X123613750Y-54360557D01*
X123586299Y-54740729D01*
X123633543Y-55118951D01*
X123753667Y-55480690D01*
X123793387Y-55555001D01*
X122266134Y-55555001D01*
X122390639Y-55254419D01*
X122465000Y-54880581D01*
X122465000Y-54499419D01*
X122390639Y-54125581D01*
X122244775Y-53773434D01*
X122033013Y-53456509D01*
X121763491Y-53186987D01*
X121658731Y-53116989D01*
X124460438Y-53116989D01*
X124360381Y-53340776D01*
G36*
X114360381Y-53340776D02*
G01*
X115530000Y-54510395D01*
X116699619Y-53340776D01*
X116599562Y-53116989D01*
X119401269Y-53116989D01*
X119296509Y-53186987D01*
X119026987Y-53456509D01*
X118815225Y-53773434D01*
X118669361Y-54125581D01*
X118595000Y-54499419D01*
X118595000Y-54880581D01*
X118669361Y-55254419D01*
X118680779Y-55281986D01*
X118407764Y-55555001D01*
X117260898Y-55555001D01*
X117345159Y-55386955D01*
X117446250Y-55019443D01*
X117473701Y-54639271D01*
X117426457Y-54261049D01*
X117306333Y-53899310D01*
X117174312Y-53652317D01*
X116879224Y-53520381D01*
X115709605Y-54690000D01*
X115723748Y-54704143D01*
X115544143Y-54883748D01*
X115530000Y-54869605D01*
X115515858Y-54883748D01*
X115336253Y-54704143D01*
X115350395Y-54690000D01*
X114180776Y-53520381D01*
X113885688Y-53652317D01*
X113714841Y-53993045D01*
X113613750Y-54360557D01*
X113586299Y-54740729D01*
X113633543Y-55118951D01*
X113753667Y-55480690D01*
X113793387Y-55555001D01*
X107005764Y-55555001D01*
X107251034Y-55480599D01*
X107509014Y-55342706D01*
X107735134Y-55157134D01*
X107920706Y-54931014D01*
X108058599Y-54673034D01*
X108143513Y-54393111D01*
X108172185Y-54102000D01*
X108143513Y-53810889D01*
X108058599Y-53530966D01*
X107920706Y-53272986D01*
X107792682Y-53116989D01*
X114460438Y-53116989D01*
X114360381Y-53340776D01*
X114360381Y-53340776D01*
G37*
X114360381Y-53340776D02*
X115530000Y-54510395D01*
X116699619Y-53340776D01*
X116599562Y-53116989D01*
X119401269Y-53116989D01*
X119296509Y-53186987D01*
X119026987Y-53456509D01*
X118815225Y-53773434D01*
X118669361Y-54125581D01*
X118595000Y-54499419D01*
X118595000Y-54880581D01*
X118669361Y-55254419D01*
X118680779Y-55281986D01*
X118407764Y-55555001D01*
X117260898Y-55555001D01*
X117345159Y-55386955D01*
X117446250Y-55019443D01*
X117473701Y-54639271D01*
X117426457Y-54261049D01*
X117306333Y-53899310D01*
X117174312Y-53652317D01*
X116879224Y-53520381D01*
X115709605Y-54690000D01*
X115723748Y-54704143D01*
X115544143Y-54883748D01*
X115530000Y-54869605D01*
X115515858Y-54883748D01*
X115336253Y-54704143D01*
X115350395Y-54690000D01*
X114180776Y-53520381D01*
X113885688Y-53652317D01*
X113714841Y-53993045D01*
X113613750Y-54360557D01*
X113586299Y-54740729D01*
X113633543Y-55118951D01*
X113753667Y-55480690D01*
X113793387Y-55555001D01*
X107005764Y-55555001D01*
X107251034Y-55480599D01*
X107509014Y-55342706D01*
X107735134Y-55157134D01*
X107920706Y-54931014D01*
X108058599Y-54673034D01*
X108143513Y-54393111D01*
X108172185Y-54102000D01*
X108143513Y-53810889D01*
X108058599Y-53530966D01*
X107920706Y-53272986D01*
X107792682Y-53116989D01*
X114460438Y-53116989D01*
X114360381Y-53340776D01*
M02*
