%TF.GenerationSoftware,KiCad,Pcbnew,(5.1.12)-1*%
%TF.CreationDate,2022-03-16T22:40:05-06:00*%
%TF.ProjectId,RelayDriver,52656c61-7944-4726-9976-65722e6b6963,rev?*%
%TF.SameCoordinates,Original*%
%TF.FileFunction,Legend,Top*%
%TF.FilePolarity,Positive*%
%FSLAX46Y46*%
G04 Gerber Fmt 4.6, Leading zero omitted, Abs format (unit mm)*
G04 Created by KiCad (PCBNEW (5.1.12)-1) date 2022-03-16 22:40:05*
%MOMM*%
%LPD*%
G01*
G04 APERTURE LIST*
%ADD10C,0.150000*%
%ADD11C,0.120000*%
%ADD12C,0.152400*%
G04 APERTURE END LIST*
D10*
X63790580Y-59372476D02*
X63790580Y-59848666D01*
X64266771Y-59896285D01*
X64219152Y-59848666D01*
X64171533Y-59753428D01*
X64171533Y-59515333D01*
X64219152Y-59420095D01*
X64266771Y-59372476D01*
X64362009Y-59324857D01*
X64600104Y-59324857D01*
X64695342Y-59372476D01*
X64742961Y-59420095D01*
X64790580Y-59515333D01*
X64790580Y-59753428D01*
X64742961Y-59848666D01*
X64695342Y-59896285D01*
X63790580Y-59039142D02*
X64790580Y-58705809D01*
X63790580Y-58372476D01*
X63787400Y-63322104D02*
X63739780Y-63417342D01*
X63739780Y-63560200D01*
X63787400Y-63703057D01*
X63882638Y-63798295D01*
X63977876Y-63845914D01*
X64168352Y-63893533D01*
X64311209Y-63893533D01*
X64501685Y-63845914D01*
X64596923Y-63798295D01*
X64692161Y-63703057D01*
X64739780Y-63560200D01*
X64739780Y-63464961D01*
X64692161Y-63322104D01*
X64644542Y-63274485D01*
X64311209Y-63274485D01*
X64311209Y-63464961D01*
X64739780Y-62845914D02*
X63739780Y-62845914D01*
X64739780Y-62274485D01*
X63739780Y-62274485D01*
X64739780Y-61798295D02*
X63739780Y-61798295D01*
X63739780Y-61560200D01*
X63787400Y-61417342D01*
X63882638Y-61322104D01*
X63977876Y-61274485D01*
X64168352Y-61226866D01*
X64311209Y-61226866D01*
X64501685Y-61274485D01*
X64596923Y-61322104D01*
X64692161Y-61417342D01*
X64739780Y-61560200D01*
X64739780Y-61798295D01*
X60644314Y-66182411D02*
X60432647Y-65880030D01*
X60281457Y-66182411D02*
X60281457Y-65547411D01*
X60523361Y-65547411D01*
X60583838Y-65577650D01*
X60614076Y-65607888D01*
X60644314Y-65668364D01*
X60644314Y-65759078D01*
X60614076Y-65819554D01*
X60583838Y-65849792D01*
X60523361Y-65880030D01*
X60281457Y-65880030D01*
X61158361Y-66152173D02*
X61097885Y-66182411D01*
X60976933Y-66182411D01*
X60916457Y-66152173D01*
X60886219Y-66091697D01*
X60886219Y-65849792D01*
X60916457Y-65789316D01*
X60976933Y-65759078D01*
X61097885Y-65759078D01*
X61158361Y-65789316D01*
X61188600Y-65849792D01*
X61188600Y-65910269D01*
X60886219Y-65970745D01*
X61551457Y-66182411D02*
X61490980Y-66152173D01*
X61460742Y-66091697D01*
X61460742Y-65547411D01*
X62065504Y-66182411D02*
X62065504Y-65849792D01*
X62035266Y-65789316D01*
X61974790Y-65759078D01*
X61853838Y-65759078D01*
X61793361Y-65789316D01*
X62065504Y-66152173D02*
X62005028Y-66182411D01*
X61853838Y-66182411D01*
X61793361Y-66152173D01*
X61763123Y-66091697D01*
X61763123Y-66031221D01*
X61793361Y-65970745D01*
X61853838Y-65940507D01*
X62005028Y-65940507D01*
X62065504Y-65910269D01*
X62307409Y-65759078D02*
X62458600Y-66182411D01*
X62609790Y-65759078D02*
X62458600Y-66182411D01*
X62398123Y-66333602D01*
X62367885Y-66363840D01*
X62307409Y-66394078D01*
X62851695Y-66182411D02*
X62851695Y-65547411D01*
X63002885Y-65547411D01*
X63093600Y-65577650D01*
X63154076Y-65638126D01*
X63184314Y-65698602D01*
X63214552Y-65819554D01*
X63214552Y-65910269D01*
X63184314Y-66031221D01*
X63154076Y-66091697D01*
X63093600Y-66152173D01*
X63002885Y-66182411D01*
X62851695Y-66182411D01*
X63486695Y-66182411D02*
X63486695Y-65759078D01*
X63486695Y-65880030D02*
X63516933Y-65819554D01*
X63547171Y-65789316D01*
X63607647Y-65759078D01*
X63668123Y-65759078D01*
X63879790Y-66182411D02*
X63879790Y-65759078D01*
X63879790Y-65547411D02*
X63849552Y-65577650D01*
X63879790Y-65607888D01*
X63910028Y-65577650D01*
X63879790Y-65547411D01*
X63879790Y-65607888D01*
X64121695Y-65759078D02*
X64272885Y-66182411D01*
X64424076Y-65759078D01*
X64907885Y-66152173D02*
X64847409Y-66182411D01*
X64726457Y-66182411D01*
X64665980Y-66152173D01*
X64635742Y-66091697D01*
X64635742Y-65849792D01*
X64665980Y-65789316D01*
X64726457Y-65759078D01*
X64847409Y-65759078D01*
X64907885Y-65789316D01*
X64938123Y-65849792D01*
X64938123Y-65910269D01*
X64635742Y-65970745D01*
X65210266Y-66182411D02*
X65210266Y-65759078D01*
X65210266Y-65880030D02*
X65240504Y-65819554D01*
X65270742Y-65789316D01*
X65331219Y-65759078D01*
X65391695Y-65759078D01*
X65905742Y-65547411D02*
X65603361Y-65547411D01*
X65573123Y-65849792D01*
X65603361Y-65819554D01*
X65663838Y-65789316D01*
X65815028Y-65789316D01*
X65875504Y-65819554D01*
X65905742Y-65849792D01*
X65935980Y-65910269D01*
X65935980Y-66061459D01*
X65905742Y-66121935D01*
X65875504Y-66152173D01*
X65815028Y-66182411D01*
X65663838Y-66182411D01*
X65603361Y-66152173D01*
X65573123Y-66121935D01*
X60130266Y-67284911D02*
X59767409Y-67284911D01*
X59948838Y-67284911D02*
X59948838Y-66649911D01*
X59888361Y-66740626D01*
X59827885Y-66801102D01*
X59767409Y-66831340D01*
X60674552Y-66649911D02*
X60553600Y-66649911D01*
X60493123Y-66680150D01*
X60462885Y-66710388D01*
X60402409Y-66801102D01*
X60372171Y-66922054D01*
X60372171Y-67163959D01*
X60402409Y-67224435D01*
X60432647Y-67254673D01*
X60493123Y-67284911D01*
X60614076Y-67284911D01*
X60674552Y-67254673D01*
X60704790Y-67224435D01*
X60735028Y-67163959D01*
X60735028Y-67012769D01*
X60704790Y-66952292D01*
X60674552Y-66922054D01*
X60614076Y-66891816D01*
X60493123Y-66891816D01*
X60432647Y-66922054D01*
X60402409Y-66952292D01*
X60372171Y-67012769D01*
X61007171Y-67043007D02*
X61490980Y-67043007D01*
X61793361Y-67284911D02*
X61793361Y-66649911D01*
X62005028Y-67103483D01*
X62216695Y-66649911D01*
X62216695Y-67284911D01*
X62791219Y-67284911D02*
X62791219Y-66952292D01*
X62760980Y-66891816D01*
X62700504Y-66861578D01*
X62579552Y-66861578D01*
X62519076Y-66891816D01*
X62791219Y-67254673D02*
X62730742Y-67284911D01*
X62579552Y-67284911D01*
X62519076Y-67254673D01*
X62488838Y-67194197D01*
X62488838Y-67133721D01*
X62519076Y-67073245D01*
X62579552Y-67043007D01*
X62730742Y-67043007D01*
X62791219Y-67012769D01*
X63093600Y-67284911D02*
X63093600Y-66861578D01*
X63093600Y-66982530D02*
X63123838Y-66922054D01*
X63154076Y-66891816D01*
X63214552Y-66861578D01*
X63275028Y-66861578D01*
X63486695Y-67043007D02*
X63970504Y-67043007D01*
X64242647Y-66710388D02*
X64272885Y-66680150D01*
X64333361Y-66649911D01*
X64484552Y-66649911D01*
X64545028Y-66680150D01*
X64575266Y-66710388D01*
X64605504Y-66770864D01*
X64605504Y-66831340D01*
X64575266Y-66922054D01*
X64212409Y-67284911D01*
X64605504Y-67284911D01*
X64998600Y-66649911D02*
X65059076Y-66649911D01*
X65119552Y-66680150D01*
X65149790Y-66710388D01*
X65180028Y-66770864D01*
X65210266Y-66891816D01*
X65210266Y-67043007D01*
X65180028Y-67163959D01*
X65149790Y-67224435D01*
X65119552Y-67254673D01*
X65059076Y-67284911D01*
X64998600Y-67284911D01*
X64938123Y-67254673D01*
X64907885Y-67224435D01*
X64877647Y-67163959D01*
X64847409Y-67043007D01*
X64847409Y-66891816D01*
X64877647Y-66770864D01*
X64907885Y-66710388D01*
X64938123Y-66680150D01*
X64998600Y-66649911D01*
X65452171Y-66710388D02*
X65482409Y-66680150D01*
X65542885Y-66649911D01*
X65694076Y-66649911D01*
X65754552Y-66680150D01*
X65784790Y-66710388D01*
X65815028Y-66770864D01*
X65815028Y-66831340D01*
X65784790Y-66922054D01*
X65421933Y-67284911D01*
X65815028Y-67284911D01*
X66056933Y-66710388D02*
X66087171Y-66680150D01*
X66147647Y-66649911D01*
X66298838Y-66649911D01*
X66359314Y-66680150D01*
X66389552Y-66710388D01*
X66419790Y-66770864D01*
X66419790Y-66831340D01*
X66389552Y-66922054D01*
X66026695Y-67284911D01*
X66419790Y-67284911D01*
D11*
%TO.C,J3*%
X63204400Y-63458400D02*
X61874400Y-63458400D01*
X63204400Y-62128400D02*
X63204400Y-63458400D01*
X63204400Y-60858400D02*
X60544400Y-60858400D01*
X60544400Y-60858400D02*
X60544400Y-58258400D01*
X63204400Y-60858400D02*
X63204400Y-58258400D01*
X63204400Y-58258400D02*
X60544400Y-58258400D01*
D12*
%TO.C,U1*%
X82092800Y-67259200D02*
X83718400Y-67259200D01*
X81483200Y-67259200D02*
X82092800Y-67259200D01*
X79857600Y-67259200D02*
X81483200Y-67259200D01*
X83718400Y-59334400D02*
X79857600Y-59334400D01*
X77800200Y-64262000D02*
X76784200Y-64262000D01*
X86791800Y-61010800D02*
X85775800Y-61010800D01*
X81483200Y-67259200D02*
G75*
G02*
X82092800Y-67259200I304800J0D01*
G01*
D11*
%TO.C,J1*%
X67332000Y-65160600D02*
X67332000Y-61280600D01*
X70452000Y-60110600D02*
X70452000Y-61160600D01*
X69302000Y-60110600D02*
X70452000Y-60110600D01*
X70452000Y-65280600D02*
X71442000Y-65280600D01*
X70452000Y-66330600D02*
X70452000Y-65280600D01*
X69302000Y-66330600D02*
X70452000Y-66330600D01*
%TO.C,J3*%
D10*
X60728266Y-56805580D02*
X60728266Y-57519866D01*
X60680647Y-57662723D01*
X60585409Y-57757961D01*
X60442552Y-57805580D01*
X60347314Y-57805580D01*
X61109219Y-56805580D02*
X61728266Y-56805580D01*
X61394933Y-57186533D01*
X61537790Y-57186533D01*
X61633028Y-57234152D01*
X61680647Y-57281771D01*
X61728266Y-57377009D01*
X61728266Y-57615104D01*
X61680647Y-57710342D01*
X61633028Y-57757961D01*
X61537790Y-57805580D01*
X61252076Y-57805580D01*
X61156838Y-57757961D01*
X61109219Y-57710342D01*
%TO.C,U1*%
X76073095Y-62037980D02*
X76073095Y-62847504D01*
X76120714Y-62942742D01*
X76168333Y-62990361D01*
X76263571Y-63037980D01*
X76454047Y-63037980D01*
X76549285Y-62990361D01*
X76596904Y-62942742D01*
X76644523Y-62847504D01*
X76644523Y-62037980D01*
X77644523Y-63037980D02*
X77073095Y-63037980D01*
X77358809Y-63037980D02*
X77358809Y-62037980D01*
X77263571Y-62180838D01*
X77168333Y-62276076D01*
X77073095Y-62323695D01*
X74760866Y-58161180D02*
X74760866Y-57161180D01*
X75141819Y-57161180D01*
X75237057Y-57208800D01*
X75284676Y-57256419D01*
X75332295Y-57351657D01*
X75332295Y-57494514D01*
X75284676Y-57589752D01*
X75237057Y-57637371D01*
X75141819Y-57684990D01*
X74760866Y-57684990D01*
X76332295Y-58065942D02*
X76284676Y-58113561D01*
X76141819Y-58161180D01*
X76046580Y-58161180D01*
X75903723Y-58113561D01*
X75808485Y-58018323D01*
X75760866Y-57923085D01*
X75713247Y-57732609D01*
X75713247Y-57589752D01*
X75760866Y-57399276D01*
X75808485Y-57304038D01*
X75903723Y-57208800D01*
X76046580Y-57161180D01*
X76141819Y-57161180D01*
X76284676Y-57208800D01*
X76332295Y-57256419D01*
X76713247Y-57875466D02*
X77189438Y-57875466D01*
X76618009Y-58161180D02*
X76951342Y-57161180D01*
X77284676Y-58161180D01*
X77665628Y-58161180D02*
X77856104Y-58161180D01*
X77951342Y-58113561D01*
X77998961Y-58065942D01*
X78094200Y-57923085D01*
X78141819Y-57732609D01*
X78141819Y-57351657D01*
X78094200Y-57256419D01*
X78046580Y-57208800D01*
X77951342Y-57161180D01*
X77760866Y-57161180D01*
X77665628Y-57208800D01*
X77618009Y-57256419D01*
X77570390Y-57351657D01*
X77570390Y-57589752D01*
X77618009Y-57684990D01*
X77665628Y-57732609D01*
X77760866Y-57780228D01*
X77951342Y-57780228D01*
X78046580Y-57732609D01*
X78094200Y-57684990D01*
X78141819Y-57589752D01*
X79046580Y-57161180D02*
X78570390Y-57161180D01*
X78522771Y-57637371D01*
X78570390Y-57589752D01*
X78665628Y-57542133D01*
X78903723Y-57542133D01*
X78998961Y-57589752D01*
X79046580Y-57637371D01*
X79094200Y-57732609D01*
X79094200Y-57970704D01*
X79046580Y-58065942D01*
X78998961Y-58113561D01*
X78903723Y-58161180D01*
X78665628Y-58161180D01*
X78570390Y-58113561D01*
X78522771Y-58065942D01*
X79427533Y-57161180D02*
X80046580Y-57161180D01*
X79713247Y-57542133D01*
X79856104Y-57542133D01*
X79951342Y-57589752D01*
X79998961Y-57637371D01*
X80046580Y-57732609D01*
X80046580Y-57970704D01*
X79998961Y-58065942D01*
X79951342Y-58113561D01*
X79856104Y-58161180D01*
X79570390Y-58161180D01*
X79475152Y-58113561D01*
X79427533Y-58065942D01*
X80951342Y-57161180D02*
X80475152Y-57161180D01*
X80427533Y-57637371D01*
X80475152Y-57589752D01*
X80570390Y-57542133D01*
X80808485Y-57542133D01*
X80903723Y-57589752D01*
X80951342Y-57637371D01*
X80998961Y-57732609D01*
X80998961Y-57970704D01*
X80951342Y-58065942D01*
X80903723Y-58113561D01*
X80808485Y-58161180D01*
X80570390Y-58161180D01*
X80475152Y-58113561D01*
X80427533Y-58065942D01*
X81427533Y-58161180D02*
X81427533Y-57161180D01*
X81808485Y-57161180D01*
X81903723Y-57208800D01*
X81951342Y-57256419D01*
X81998961Y-57351657D01*
X81998961Y-57494514D01*
X81951342Y-57589752D01*
X81903723Y-57637371D01*
X81808485Y-57684990D01*
X81427533Y-57684990D01*
X82332295Y-57161180D02*
X82570390Y-58161180D01*
X82760866Y-57446895D01*
X82951342Y-58161180D01*
X83189438Y-57161180D01*
X83618009Y-58113561D02*
X83618009Y-58161180D01*
X83570390Y-58256419D01*
X83522771Y-58304038D01*
X84570390Y-58161180D02*
X83998961Y-58161180D01*
X84284676Y-58161180D02*
X84284676Y-57161180D01*
X84189438Y-57304038D01*
X84094200Y-57399276D01*
X83998961Y-57446895D01*
X85522771Y-58161180D02*
X84951342Y-58161180D01*
X85237057Y-58161180D02*
X85237057Y-57161180D01*
X85141819Y-57304038D01*
X85046580Y-57399276D01*
X84951342Y-57446895D01*
X86094200Y-57589752D02*
X85998961Y-57542133D01*
X85951342Y-57494514D01*
X85903723Y-57399276D01*
X85903723Y-57351657D01*
X85951342Y-57256419D01*
X85998961Y-57208800D01*
X86094200Y-57161180D01*
X86284676Y-57161180D01*
X86379914Y-57208800D01*
X86427533Y-57256419D01*
X86475152Y-57351657D01*
X86475152Y-57399276D01*
X86427533Y-57494514D01*
X86379914Y-57542133D01*
X86284676Y-57589752D01*
X86094200Y-57589752D01*
X85998961Y-57637371D01*
X85951342Y-57684990D01*
X85903723Y-57780228D01*
X85903723Y-57970704D01*
X85951342Y-58065942D01*
X85998961Y-58113561D01*
X86094200Y-58161180D01*
X86284676Y-58161180D01*
X86379914Y-58113561D01*
X86427533Y-58065942D01*
X86475152Y-57970704D01*
X86475152Y-57780228D01*
X86427533Y-57684990D01*
X86379914Y-57637371D01*
X86284676Y-57589752D01*
%TO.C,J1*%
X68576866Y-58202580D02*
X68576866Y-58916866D01*
X68529247Y-59059723D01*
X68434009Y-59154961D01*
X68291152Y-59202580D01*
X68195914Y-59202580D01*
X69576866Y-59202580D02*
X69005438Y-59202580D01*
X69291152Y-59202580D02*
X69291152Y-58202580D01*
X69195914Y-58345438D01*
X69100676Y-58440676D01*
X69005438Y-58488295D01*
X66714619Y-64065019D02*
X66667000Y-64160257D01*
X66571761Y-64255495D01*
X66428904Y-64398352D01*
X66381285Y-64493590D01*
X66381285Y-64588828D01*
X66619380Y-64541209D02*
X66571761Y-64636447D01*
X66476523Y-64731685D01*
X66286047Y-64779304D01*
X65952714Y-64779304D01*
X65762238Y-64731685D01*
X65667000Y-64636447D01*
X65619380Y-64541209D01*
X65619380Y-64350733D01*
X65667000Y-64255495D01*
X65762238Y-64160257D01*
X65952714Y-64112638D01*
X66286047Y-64112638D01*
X66476523Y-64160257D01*
X66571761Y-64255495D01*
X66619380Y-64350733D01*
X66619380Y-64541209D01*
X65952714Y-63779304D02*
X66619380Y-63588828D01*
X66143190Y-63398352D01*
X66619380Y-63207876D01*
X65952714Y-63017400D01*
X66619380Y-62636447D02*
X65952714Y-62636447D01*
X65619380Y-62636447D02*
X65667000Y-62684066D01*
X65714619Y-62636447D01*
X65667000Y-62588828D01*
X65619380Y-62636447D01*
X65714619Y-62636447D01*
X66619380Y-62160257D02*
X65952714Y-62160257D01*
X65619380Y-62160257D02*
X65667000Y-62207876D01*
X65714619Y-62160257D01*
X65667000Y-62112638D01*
X65619380Y-62160257D01*
X65714619Y-62160257D01*
X66571761Y-61255495D02*
X66619380Y-61350733D01*
X66619380Y-61541209D01*
X66571761Y-61636447D01*
X66524142Y-61684066D01*
X66428904Y-61731685D01*
X66143190Y-61731685D01*
X66047952Y-61684066D01*
X66000333Y-61636447D01*
X65952714Y-61541209D01*
X65952714Y-61350733D01*
X66000333Y-61255495D01*
%TD*%
M02*
