%TF.GenerationSoftware,KiCad,Pcbnew,(5.1.12)-1*%
%TF.CreationDate,2022-03-16T22:40:05-06:00*%
%TF.ProjectId,RelayDriver,52656c61-7944-4726-9976-65722e6b6963,rev?*%
%TF.SameCoordinates,Original*%
%TF.FileFunction,Copper,L2,Bot*%
%TF.FilePolarity,Positive*%
%FSLAX46Y46*%
G04 Gerber Fmt 4.6, Leading zero omitted, Abs format (unit mm)*
G04 Created by KiCad (PCBNEW (5.1.12)-1) date 2022-03-16 22:40:05*
%MOMM*%
%LPD*%
G01*
G04 APERTURE LIST*
%TA.AperFunction,ComponentPad*%
%ADD10O,1.700000X1.700000*%
%TD*%
%TA.AperFunction,ComponentPad*%
%ADD11R,1.700000X1.700000*%
%TD*%
%TA.AperFunction,ViaPad*%
%ADD12C,0.800000*%
%TD*%
%TA.AperFunction,Conductor*%
%ADD13C,0.254000*%
%TD*%
%TA.AperFunction,Conductor*%
%ADD14C,0.100000*%
%TD*%
G04 APERTURE END LIST*
D10*
%TO.P,J3,2*%
%TO.N,Net-(J2-Pad19)*%
X61874400Y-59588400D03*
D11*
%TO.P,J3,1*%
%TO.N,GND*%
X61874400Y-62128400D03*
%TD*%
D10*
%TO.P,J2,20*%
%TO.N,Net-(J2-Pad19)*%
X61569600Y-54762400D03*
%TO.P,J2,19*%
X61569600Y-52222400D03*
%TO.P,J2,18*%
%TO.N,Net-(J2-Pad18)*%
X64109600Y-54762400D03*
%TO.P,J2,17*%
%TO.N,Net-(J2-Pad17)*%
X64109600Y-52222400D03*
%TO.P,J2,16*%
%TO.N,Net-(J2-Pad16)*%
X66649600Y-54762400D03*
%TO.P,J2,15*%
%TO.N,Net-(J2-Pad15)*%
X66649600Y-52222400D03*
%TO.P,J2,14*%
%TO.N,Net-(J2-Pad14)*%
X69189600Y-54762400D03*
%TO.P,J2,13*%
%TO.N,Net-(J2-Pad13)*%
X69189600Y-52222400D03*
%TO.P,J2,12*%
%TO.N,Net-(J2-Pad12)*%
X71729600Y-54762400D03*
%TO.P,J2,11*%
%TO.N,Net-(J2-Pad11)*%
X71729600Y-52222400D03*
%TO.P,J2,10*%
%TO.N,Net-(J2-Pad10)*%
X74269600Y-54762400D03*
%TO.P,J2,9*%
%TO.N,Net-(J2-Pad9)*%
X74269600Y-52222400D03*
%TO.P,J2,8*%
%TO.N,Net-(J2-Pad8)*%
X76809600Y-54762400D03*
%TO.P,J2,7*%
%TO.N,Net-(J2-Pad7)*%
X76809600Y-52222400D03*
%TO.P,J2,6*%
%TO.N,Net-(J2-Pad6)*%
X79349600Y-54762400D03*
%TO.P,J2,5*%
%TO.N,Net-(J2-Pad5)*%
X79349600Y-52222400D03*
%TO.P,J2,4*%
%TO.N,Net-(J2-Pad4)*%
X81889600Y-54762400D03*
%TO.P,J2,3*%
%TO.N,Net-(J2-Pad3)*%
X81889600Y-52222400D03*
%TO.P,J2,2*%
%TO.N,GND*%
X84429600Y-54762400D03*
D11*
%TO.P,J2,1*%
X84429600Y-52222400D03*
%TD*%
D12*
%TO.N,GND*%
X72669400Y-66446400D03*
X84759800Y-58648600D03*
X86182200Y-65836800D03*
X77442991Y-64894923D03*
%TD*%
D13*
%TO.N,GND*%
X85259659Y-50688625D02*
X85509429Y-50764035D01*
X85739792Y-50886522D01*
X85941980Y-51051422D01*
X86108286Y-51252450D01*
X86232378Y-51481954D01*
X86309531Y-51731195D01*
X86340000Y-52021089D01*
X86340001Y-65967711D01*
X86311375Y-66259660D01*
X86235965Y-66509429D01*
X86113477Y-66739794D01*
X86000140Y-66878759D01*
X85685758Y-67141697D01*
X85518046Y-67232378D01*
X85268805Y-67309531D01*
X84978911Y-67340000D01*
X61032279Y-67340000D01*
X60750411Y-67312362D01*
X59761764Y-66499120D01*
X59690469Y-66268805D01*
X59660000Y-65978911D01*
X59660000Y-62978400D01*
X60386328Y-62978400D01*
X60398588Y-63102882D01*
X60434898Y-63222580D01*
X60493863Y-63332894D01*
X60573215Y-63429585D01*
X60669906Y-63508937D01*
X60780220Y-63567902D01*
X60899918Y-63604212D01*
X61024400Y-63616472D01*
X61588650Y-63613400D01*
X61747400Y-63454650D01*
X61747400Y-62255400D01*
X62001400Y-62255400D01*
X62001400Y-63454650D01*
X62160150Y-63613400D01*
X62724400Y-63616472D01*
X62848882Y-63604212D01*
X62968580Y-63567902D01*
X63078894Y-63508937D01*
X63175585Y-63429585D01*
X63254937Y-63332894D01*
X63313902Y-63222580D01*
X63350212Y-63102882D01*
X63362472Y-62978400D01*
X63359400Y-62414150D01*
X63200650Y-62255400D01*
X62001400Y-62255400D01*
X61747400Y-62255400D01*
X60548150Y-62255400D01*
X60389400Y-62414150D01*
X60386328Y-62978400D01*
X59660000Y-62978400D01*
X59660000Y-61278400D01*
X60386328Y-61278400D01*
X60389400Y-61842650D01*
X60548150Y-62001400D01*
X61747400Y-62001400D01*
X61747400Y-61981400D01*
X62001400Y-61981400D01*
X62001400Y-62001400D01*
X63200650Y-62001400D01*
X63359400Y-61842650D01*
X63362472Y-61278400D01*
X63350212Y-61153918D01*
X63313902Y-61034220D01*
X63254937Y-60923906D01*
X63175585Y-60827215D01*
X63078894Y-60747863D01*
X62968580Y-60688898D01*
X62896020Y-60666887D01*
X63027875Y-60535032D01*
X63190390Y-60291811D01*
X63302332Y-60021558D01*
X63359400Y-59734660D01*
X63359400Y-59442140D01*
X63302332Y-59155242D01*
X63190390Y-58884989D01*
X63027875Y-58641768D01*
X62821032Y-58434925D01*
X62577811Y-58272410D01*
X62307558Y-58160468D01*
X62020660Y-58103400D01*
X61728140Y-58103400D01*
X61441242Y-58160468D01*
X61170989Y-58272410D01*
X60927768Y-58434925D01*
X60720925Y-58641768D01*
X60558410Y-58884989D01*
X60446468Y-59155242D01*
X60389400Y-59442140D01*
X60389400Y-59734660D01*
X60446468Y-60021558D01*
X60558410Y-60291811D01*
X60720925Y-60535032D01*
X60852780Y-60666887D01*
X60780220Y-60688898D01*
X60669906Y-60747863D01*
X60573215Y-60827215D01*
X60493863Y-60923906D01*
X60434898Y-61034220D01*
X60398588Y-61153918D01*
X60386328Y-61278400D01*
X59660000Y-61278400D01*
X59660000Y-52076140D01*
X60084600Y-52076140D01*
X60084600Y-52368660D01*
X60141668Y-52655558D01*
X60253610Y-52925811D01*
X60416125Y-53169032D01*
X60622968Y-53375875D01*
X60797360Y-53492400D01*
X60622968Y-53608925D01*
X60416125Y-53815768D01*
X60253610Y-54058989D01*
X60141668Y-54329242D01*
X60084600Y-54616140D01*
X60084600Y-54908660D01*
X60141668Y-55195558D01*
X60253610Y-55465811D01*
X60416125Y-55709032D01*
X60622968Y-55915875D01*
X60866189Y-56078390D01*
X61136442Y-56190332D01*
X61423340Y-56247400D01*
X61715860Y-56247400D01*
X62002758Y-56190332D01*
X62273011Y-56078390D01*
X62516232Y-55915875D01*
X62723075Y-55709032D01*
X62839600Y-55534640D01*
X62956125Y-55709032D01*
X63162968Y-55915875D01*
X63406189Y-56078390D01*
X63676442Y-56190332D01*
X63963340Y-56247400D01*
X64255860Y-56247400D01*
X64542758Y-56190332D01*
X64813011Y-56078390D01*
X65056232Y-55915875D01*
X65263075Y-55709032D01*
X65379600Y-55534640D01*
X65496125Y-55709032D01*
X65702968Y-55915875D01*
X65946189Y-56078390D01*
X66216442Y-56190332D01*
X66503340Y-56247400D01*
X66795860Y-56247400D01*
X67082758Y-56190332D01*
X67353011Y-56078390D01*
X67596232Y-55915875D01*
X67803075Y-55709032D01*
X67919600Y-55534640D01*
X68036125Y-55709032D01*
X68242968Y-55915875D01*
X68486189Y-56078390D01*
X68756442Y-56190332D01*
X69043340Y-56247400D01*
X69335860Y-56247400D01*
X69622758Y-56190332D01*
X69893011Y-56078390D01*
X70136232Y-55915875D01*
X70343075Y-55709032D01*
X70459600Y-55534640D01*
X70576125Y-55709032D01*
X70782968Y-55915875D01*
X71026189Y-56078390D01*
X71296442Y-56190332D01*
X71583340Y-56247400D01*
X71875860Y-56247400D01*
X72162758Y-56190332D01*
X72433011Y-56078390D01*
X72676232Y-55915875D01*
X72883075Y-55709032D01*
X72999600Y-55534640D01*
X73116125Y-55709032D01*
X73322968Y-55915875D01*
X73566189Y-56078390D01*
X73836442Y-56190332D01*
X74123340Y-56247400D01*
X74415860Y-56247400D01*
X74702758Y-56190332D01*
X74973011Y-56078390D01*
X75216232Y-55915875D01*
X75423075Y-55709032D01*
X75539600Y-55534640D01*
X75656125Y-55709032D01*
X75862968Y-55915875D01*
X76106189Y-56078390D01*
X76376442Y-56190332D01*
X76663340Y-56247400D01*
X76955860Y-56247400D01*
X77242758Y-56190332D01*
X77513011Y-56078390D01*
X77756232Y-55915875D01*
X77963075Y-55709032D01*
X78079600Y-55534640D01*
X78196125Y-55709032D01*
X78402968Y-55915875D01*
X78646189Y-56078390D01*
X78916442Y-56190332D01*
X79203340Y-56247400D01*
X79495860Y-56247400D01*
X79782758Y-56190332D01*
X80053011Y-56078390D01*
X80296232Y-55915875D01*
X80503075Y-55709032D01*
X80619600Y-55534640D01*
X80736125Y-55709032D01*
X80942968Y-55915875D01*
X81186189Y-56078390D01*
X81456442Y-56190332D01*
X81743340Y-56247400D01*
X82035860Y-56247400D01*
X82322758Y-56190332D01*
X82593011Y-56078390D01*
X82836232Y-55915875D01*
X83043075Y-55709032D01*
X83164795Y-55526866D01*
X83234422Y-55643755D01*
X83429331Y-55859988D01*
X83662680Y-56034041D01*
X83925501Y-56159225D01*
X84072710Y-56203876D01*
X84302600Y-56082555D01*
X84302600Y-54889400D01*
X84556600Y-54889400D01*
X84556600Y-56082555D01*
X84786490Y-56203876D01*
X84933699Y-56159225D01*
X85196520Y-56034041D01*
X85429869Y-55859988D01*
X85624778Y-55643755D01*
X85773757Y-55393652D01*
X85871081Y-55119291D01*
X85750414Y-54889400D01*
X84556600Y-54889400D01*
X84302600Y-54889400D01*
X84282600Y-54889400D01*
X84282600Y-54635400D01*
X84302600Y-54635400D01*
X84302600Y-52349400D01*
X84556600Y-52349400D01*
X84556600Y-54635400D01*
X85750414Y-54635400D01*
X85871081Y-54405509D01*
X85773757Y-54131148D01*
X85624778Y-53881045D01*
X85447974Y-53684898D01*
X85523780Y-53661902D01*
X85634094Y-53602937D01*
X85730785Y-53523585D01*
X85810137Y-53426894D01*
X85869102Y-53316580D01*
X85905412Y-53196882D01*
X85917672Y-53072400D01*
X85914600Y-52508150D01*
X85755850Y-52349400D01*
X84556600Y-52349400D01*
X84302600Y-52349400D01*
X84282600Y-52349400D01*
X84282600Y-52095400D01*
X84302600Y-52095400D01*
X84302600Y-50896150D01*
X84556600Y-50896150D01*
X84556600Y-52095400D01*
X85755850Y-52095400D01*
X85914600Y-51936650D01*
X85917672Y-51372400D01*
X85905412Y-51247918D01*
X85869102Y-51128220D01*
X85810137Y-51017906D01*
X85730785Y-50921215D01*
X85634094Y-50841863D01*
X85523780Y-50782898D01*
X85404082Y-50746588D01*
X85279600Y-50734328D01*
X84715350Y-50737400D01*
X84556600Y-50896150D01*
X84302600Y-50896150D01*
X84143850Y-50737400D01*
X83579600Y-50734328D01*
X83455118Y-50746588D01*
X83335420Y-50782898D01*
X83225106Y-50841863D01*
X83128415Y-50921215D01*
X83049063Y-51017906D01*
X82990098Y-51128220D01*
X82968087Y-51200780D01*
X82836232Y-51068925D01*
X82593011Y-50906410D01*
X82322758Y-50794468D01*
X82035860Y-50737400D01*
X81743340Y-50737400D01*
X81456442Y-50794468D01*
X81186189Y-50906410D01*
X80942968Y-51068925D01*
X80736125Y-51275768D01*
X80619600Y-51450160D01*
X80503075Y-51275768D01*
X80296232Y-51068925D01*
X80053011Y-50906410D01*
X79782758Y-50794468D01*
X79495860Y-50737400D01*
X79203340Y-50737400D01*
X78916442Y-50794468D01*
X78646189Y-50906410D01*
X78402968Y-51068925D01*
X78196125Y-51275768D01*
X78079600Y-51450160D01*
X77963075Y-51275768D01*
X77756232Y-51068925D01*
X77513011Y-50906410D01*
X77242758Y-50794468D01*
X76955860Y-50737400D01*
X76663340Y-50737400D01*
X76376442Y-50794468D01*
X76106189Y-50906410D01*
X75862968Y-51068925D01*
X75656125Y-51275768D01*
X75539600Y-51450160D01*
X75423075Y-51275768D01*
X75216232Y-51068925D01*
X74973011Y-50906410D01*
X74702758Y-50794468D01*
X74415860Y-50737400D01*
X74123340Y-50737400D01*
X73836442Y-50794468D01*
X73566189Y-50906410D01*
X73322968Y-51068925D01*
X73116125Y-51275768D01*
X72999600Y-51450160D01*
X72883075Y-51275768D01*
X72676232Y-51068925D01*
X72433011Y-50906410D01*
X72162758Y-50794468D01*
X71875860Y-50737400D01*
X71583340Y-50737400D01*
X71296442Y-50794468D01*
X71026189Y-50906410D01*
X70782968Y-51068925D01*
X70576125Y-51275768D01*
X70459600Y-51450160D01*
X70343075Y-51275768D01*
X70136232Y-51068925D01*
X69893011Y-50906410D01*
X69622758Y-50794468D01*
X69335860Y-50737400D01*
X69043340Y-50737400D01*
X68756442Y-50794468D01*
X68486189Y-50906410D01*
X68242968Y-51068925D01*
X68036125Y-51275768D01*
X67919600Y-51450160D01*
X67803075Y-51275768D01*
X67596232Y-51068925D01*
X67353011Y-50906410D01*
X67082758Y-50794468D01*
X66795860Y-50737400D01*
X66503340Y-50737400D01*
X66216442Y-50794468D01*
X65946189Y-50906410D01*
X65702968Y-51068925D01*
X65496125Y-51275768D01*
X65379600Y-51450160D01*
X65263075Y-51275768D01*
X65056232Y-51068925D01*
X64813011Y-50906410D01*
X64542758Y-50794468D01*
X64255860Y-50737400D01*
X63963340Y-50737400D01*
X63676442Y-50794468D01*
X63406189Y-50906410D01*
X63162968Y-51068925D01*
X62956125Y-51275768D01*
X62839600Y-51450160D01*
X62723075Y-51275768D01*
X62516232Y-51068925D01*
X62273011Y-50906410D01*
X62002758Y-50794468D01*
X61715860Y-50737400D01*
X61423340Y-50737400D01*
X61136442Y-50794468D01*
X60866189Y-50906410D01*
X60622968Y-51068925D01*
X60416125Y-51275768D01*
X60253610Y-51518989D01*
X60141668Y-51789242D01*
X60084600Y-52076140D01*
X59660000Y-52076140D01*
X59660000Y-52032279D01*
X59688625Y-51740341D01*
X59764035Y-51490571D01*
X59886522Y-51260208D01*
X60051422Y-51058020D01*
X60252450Y-50891714D01*
X60481954Y-50767622D01*
X60731195Y-50690469D01*
X61021088Y-50660000D01*
X84967721Y-50660000D01*
X85259659Y-50688625D01*
%TA.AperFunction,Conductor*%
D14*
G36*
X85259659Y-50688625D02*
G01*
X85509429Y-50764035D01*
X85739792Y-50886522D01*
X85941980Y-51051422D01*
X86108286Y-51252450D01*
X86232378Y-51481954D01*
X86309531Y-51731195D01*
X86340000Y-52021089D01*
X86340001Y-65967711D01*
X86311375Y-66259660D01*
X86235965Y-66509429D01*
X86113477Y-66739794D01*
X86000140Y-66878759D01*
X85685758Y-67141697D01*
X85518046Y-67232378D01*
X85268805Y-67309531D01*
X84978911Y-67340000D01*
X61032279Y-67340000D01*
X60750411Y-67312362D01*
X59761764Y-66499120D01*
X59690469Y-66268805D01*
X59660000Y-65978911D01*
X59660000Y-62978400D01*
X60386328Y-62978400D01*
X60398588Y-63102882D01*
X60434898Y-63222580D01*
X60493863Y-63332894D01*
X60573215Y-63429585D01*
X60669906Y-63508937D01*
X60780220Y-63567902D01*
X60899918Y-63604212D01*
X61024400Y-63616472D01*
X61588650Y-63613400D01*
X61747400Y-63454650D01*
X61747400Y-62255400D01*
X62001400Y-62255400D01*
X62001400Y-63454650D01*
X62160150Y-63613400D01*
X62724400Y-63616472D01*
X62848882Y-63604212D01*
X62968580Y-63567902D01*
X63078894Y-63508937D01*
X63175585Y-63429585D01*
X63254937Y-63332894D01*
X63313902Y-63222580D01*
X63350212Y-63102882D01*
X63362472Y-62978400D01*
X63359400Y-62414150D01*
X63200650Y-62255400D01*
X62001400Y-62255400D01*
X61747400Y-62255400D01*
X60548150Y-62255400D01*
X60389400Y-62414150D01*
X60386328Y-62978400D01*
X59660000Y-62978400D01*
X59660000Y-61278400D01*
X60386328Y-61278400D01*
X60389400Y-61842650D01*
X60548150Y-62001400D01*
X61747400Y-62001400D01*
X61747400Y-61981400D01*
X62001400Y-61981400D01*
X62001400Y-62001400D01*
X63200650Y-62001400D01*
X63359400Y-61842650D01*
X63362472Y-61278400D01*
X63350212Y-61153918D01*
X63313902Y-61034220D01*
X63254937Y-60923906D01*
X63175585Y-60827215D01*
X63078894Y-60747863D01*
X62968580Y-60688898D01*
X62896020Y-60666887D01*
X63027875Y-60535032D01*
X63190390Y-60291811D01*
X63302332Y-60021558D01*
X63359400Y-59734660D01*
X63359400Y-59442140D01*
X63302332Y-59155242D01*
X63190390Y-58884989D01*
X63027875Y-58641768D01*
X62821032Y-58434925D01*
X62577811Y-58272410D01*
X62307558Y-58160468D01*
X62020660Y-58103400D01*
X61728140Y-58103400D01*
X61441242Y-58160468D01*
X61170989Y-58272410D01*
X60927768Y-58434925D01*
X60720925Y-58641768D01*
X60558410Y-58884989D01*
X60446468Y-59155242D01*
X60389400Y-59442140D01*
X60389400Y-59734660D01*
X60446468Y-60021558D01*
X60558410Y-60291811D01*
X60720925Y-60535032D01*
X60852780Y-60666887D01*
X60780220Y-60688898D01*
X60669906Y-60747863D01*
X60573215Y-60827215D01*
X60493863Y-60923906D01*
X60434898Y-61034220D01*
X60398588Y-61153918D01*
X60386328Y-61278400D01*
X59660000Y-61278400D01*
X59660000Y-52076140D01*
X60084600Y-52076140D01*
X60084600Y-52368660D01*
X60141668Y-52655558D01*
X60253610Y-52925811D01*
X60416125Y-53169032D01*
X60622968Y-53375875D01*
X60797360Y-53492400D01*
X60622968Y-53608925D01*
X60416125Y-53815768D01*
X60253610Y-54058989D01*
X60141668Y-54329242D01*
X60084600Y-54616140D01*
X60084600Y-54908660D01*
X60141668Y-55195558D01*
X60253610Y-55465811D01*
X60416125Y-55709032D01*
X60622968Y-55915875D01*
X60866189Y-56078390D01*
X61136442Y-56190332D01*
X61423340Y-56247400D01*
X61715860Y-56247400D01*
X62002758Y-56190332D01*
X62273011Y-56078390D01*
X62516232Y-55915875D01*
X62723075Y-55709032D01*
X62839600Y-55534640D01*
X62956125Y-55709032D01*
X63162968Y-55915875D01*
X63406189Y-56078390D01*
X63676442Y-56190332D01*
X63963340Y-56247400D01*
X64255860Y-56247400D01*
X64542758Y-56190332D01*
X64813011Y-56078390D01*
X65056232Y-55915875D01*
X65263075Y-55709032D01*
X65379600Y-55534640D01*
X65496125Y-55709032D01*
X65702968Y-55915875D01*
X65946189Y-56078390D01*
X66216442Y-56190332D01*
X66503340Y-56247400D01*
X66795860Y-56247400D01*
X67082758Y-56190332D01*
X67353011Y-56078390D01*
X67596232Y-55915875D01*
X67803075Y-55709032D01*
X67919600Y-55534640D01*
X68036125Y-55709032D01*
X68242968Y-55915875D01*
X68486189Y-56078390D01*
X68756442Y-56190332D01*
X69043340Y-56247400D01*
X69335860Y-56247400D01*
X69622758Y-56190332D01*
X69893011Y-56078390D01*
X70136232Y-55915875D01*
X70343075Y-55709032D01*
X70459600Y-55534640D01*
X70576125Y-55709032D01*
X70782968Y-55915875D01*
X71026189Y-56078390D01*
X71296442Y-56190332D01*
X71583340Y-56247400D01*
X71875860Y-56247400D01*
X72162758Y-56190332D01*
X72433011Y-56078390D01*
X72676232Y-55915875D01*
X72883075Y-55709032D01*
X72999600Y-55534640D01*
X73116125Y-55709032D01*
X73322968Y-55915875D01*
X73566189Y-56078390D01*
X73836442Y-56190332D01*
X74123340Y-56247400D01*
X74415860Y-56247400D01*
X74702758Y-56190332D01*
X74973011Y-56078390D01*
X75216232Y-55915875D01*
X75423075Y-55709032D01*
X75539600Y-55534640D01*
X75656125Y-55709032D01*
X75862968Y-55915875D01*
X76106189Y-56078390D01*
X76376442Y-56190332D01*
X76663340Y-56247400D01*
X76955860Y-56247400D01*
X77242758Y-56190332D01*
X77513011Y-56078390D01*
X77756232Y-55915875D01*
X77963075Y-55709032D01*
X78079600Y-55534640D01*
X78196125Y-55709032D01*
X78402968Y-55915875D01*
X78646189Y-56078390D01*
X78916442Y-56190332D01*
X79203340Y-56247400D01*
X79495860Y-56247400D01*
X79782758Y-56190332D01*
X80053011Y-56078390D01*
X80296232Y-55915875D01*
X80503075Y-55709032D01*
X80619600Y-55534640D01*
X80736125Y-55709032D01*
X80942968Y-55915875D01*
X81186189Y-56078390D01*
X81456442Y-56190332D01*
X81743340Y-56247400D01*
X82035860Y-56247400D01*
X82322758Y-56190332D01*
X82593011Y-56078390D01*
X82836232Y-55915875D01*
X83043075Y-55709032D01*
X83164795Y-55526866D01*
X83234422Y-55643755D01*
X83429331Y-55859988D01*
X83662680Y-56034041D01*
X83925501Y-56159225D01*
X84072710Y-56203876D01*
X84302600Y-56082555D01*
X84302600Y-54889400D01*
X84556600Y-54889400D01*
X84556600Y-56082555D01*
X84786490Y-56203876D01*
X84933699Y-56159225D01*
X85196520Y-56034041D01*
X85429869Y-55859988D01*
X85624778Y-55643755D01*
X85773757Y-55393652D01*
X85871081Y-55119291D01*
X85750414Y-54889400D01*
X84556600Y-54889400D01*
X84302600Y-54889400D01*
X84282600Y-54889400D01*
X84282600Y-54635400D01*
X84302600Y-54635400D01*
X84302600Y-52349400D01*
X84556600Y-52349400D01*
X84556600Y-54635400D01*
X85750414Y-54635400D01*
X85871081Y-54405509D01*
X85773757Y-54131148D01*
X85624778Y-53881045D01*
X85447974Y-53684898D01*
X85523780Y-53661902D01*
X85634094Y-53602937D01*
X85730785Y-53523585D01*
X85810137Y-53426894D01*
X85869102Y-53316580D01*
X85905412Y-53196882D01*
X85917672Y-53072400D01*
X85914600Y-52508150D01*
X85755850Y-52349400D01*
X84556600Y-52349400D01*
X84302600Y-52349400D01*
X84282600Y-52349400D01*
X84282600Y-52095400D01*
X84302600Y-52095400D01*
X84302600Y-50896150D01*
X84556600Y-50896150D01*
X84556600Y-52095400D01*
X85755850Y-52095400D01*
X85914600Y-51936650D01*
X85917672Y-51372400D01*
X85905412Y-51247918D01*
X85869102Y-51128220D01*
X85810137Y-51017906D01*
X85730785Y-50921215D01*
X85634094Y-50841863D01*
X85523780Y-50782898D01*
X85404082Y-50746588D01*
X85279600Y-50734328D01*
X84715350Y-50737400D01*
X84556600Y-50896150D01*
X84302600Y-50896150D01*
X84143850Y-50737400D01*
X83579600Y-50734328D01*
X83455118Y-50746588D01*
X83335420Y-50782898D01*
X83225106Y-50841863D01*
X83128415Y-50921215D01*
X83049063Y-51017906D01*
X82990098Y-51128220D01*
X82968087Y-51200780D01*
X82836232Y-51068925D01*
X82593011Y-50906410D01*
X82322758Y-50794468D01*
X82035860Y-50737400D01*
X81743340Y-50737400D01*
X81456442Y-50794468D01*
X81186189Y-50906410D01*
X80942968Y-51068925D01*
X80736125Y-51275768D01*
X80619600Y-51450160D01*
X80503075Y-51275768D01*
X80296232Y-51068925D01*
X80053011Y-50906410D01*
X79782758Y-50794468D01*
X79495860Y-50737400D01*
X79203340Y-50737400D01*
X78916442Y-50794468D01*
X78646189Y-50906410D01*
X78402968Y-51068925D01*
X78196125Y-51275768D01*
X78079600Y-51450160D01*
X77963075Y-51275768D01*
X77756232Y-51068925D01*
X77513011Y-50906410D01*
X77242758Y-50794468D01*
X76955860Y-50737400D01*
X76663340Y-50737400D01*
X76376442Y-50794468D01*
X76106189Y-50906410D01*
X75862968Y-51068925D01*
X75656125Y-51275768D01*
X75539600Y-51450160D01*
X75423075Y-51275768D01*
X75216232Y-51068925D01*
X74973011Y-50906410D01*
X74702758Y-50794468D01*
X74415860Y-50737400D01*
X74123340Y-50737400D01*
X73836442Y-50794468D01*
X73566189Y-50906410D01*
X73322968Y-51068925D01*
X73116125Y-51275768D01*
X72999600Y-51450160D01*
X72883075Y-51275768D01*
X72676232Y-51068925D01*
X72433011Y-50906410D01*
X72162758Y-50794468D01*
X71875860Y-50737400D01*
X71583340Y-50737400D01*
X71296442Y-50794468D01*
X71026189Y-50906410D01*
X70782968Y-51068925D01*
X70576125Y-51275768D01*
X70459600Y-51450160D01*
X70343075Y-51275768D01*
X70136232Y-51068925D01*
X69893011Y-50906410D01*
X69622758Y-50794468D01*
X69335860Y-50737400D01*
X69043340Y-50737400D01*
X68756442Y-50794468D01*
X68486189Y-50906410D01*
X68242968Y-51068925D01*
X68036125Y-51275768D01*
X67919600Y-51450160D01*
X67803075Y-51275768D01*
X67596232Y-51068925D01*
X67353011Y-50906410D01*
X67082758Y-50794468D01*
X66795860Y-50737400D01*
X66503340Y-50737400D01*
X66216442Y-50794468D01*
X65946189Y-50906410D01*
X65702968Y-51068925D01*
X65496125Y-51275768D01*
X65379600Y-51450160D01*
X65263075Y-51275768D01*
X65056232Y-51068925D01*
X64813011Y-50906410D01*
X64542758Y-50794468D01*
X64255860Y-50737400D01*
X63963340Y-50737400D01*
X63676442Y-50794468D01*
X63406189Y-50906410D01*
X63162968Y-51068925D01*
X62956125Y-51275768D01*
X62839600Y-51450160D01*
X62723075Y-51275768D01*
X62516232Y-51068925D01*
X62273011Y-50906410D01*
X62002758Y-50794468D01*
X61715860Y-50737400D01*
X61423340Y-50737400D01*
X61136442Y-50794468D01*
X60866189Y-50906410D01*
X60622968Y-51068925D01*
X60416125Y-51275768D01*
X60253610Y-51518989D01*
X60141668Y-51789242D01*
X60084600Y-52076140D01*
X59660000Y-52076140D01*
X59660000Y-52032279D01*
X59688625Y-51740341D01*
X59764035Y-51490571D01*
X59886522Y-51260208D01*
X60051422Y-51058020D01*
X60252450Y-50891714D01*
X60481954Y-50767622D01*
X60731195Y-50690469D01*
X61021088Y-50660000D01*
X84967721Y-50660000D01*
X85259659Y-50688625D01*
G37*
%TD.AperFunction*%
%TD*%
M02*
