M48
; DRILL file {KiCad (5.1.12)-1} date 03/16/22 22:40:08
; FORMAT={-:-/ absolute / inch / decimal}
; #@! TF.CreationDate,2022-03-16T22:40:08-06:00
; #@! TF.GenerationSoftware,Kicad,Pcbnew,(5.1.12)-1
; #@! TF.FileFunction,Plated,1,2,PTH
FMAT,2
INCH
T1C0.0157
T2C0.0394
%
G90
G05
T1
X2.861Y-2.616
X3.0489Y-2.5549
X3.337Y-2.309
X3.393Y-2.592
T2
X2.424Y-2.056
X2.424Y-2.156
X2.436Y-2.346
X2.436Y-2.446
X2.524Y-2.056
X2.524Y-2.156
X2.624Y-2.056
X2.624Y-2.156
X2.724Y-2.056
X2.724Y-2.156
X2.824Y-2.056
X2.824Y-2.156
X2.924Y-2.056
X2.924Y-2.156
X3.024Y-2.056
X3.024Y-2.156
X3.124Y-2.056
X3.124Y-2.156
X3.224Y-2.056
X3.224Y-2.156
X3.324Y-2.056
X3.324Y-2.156
T0
M30
