M48
; DRILL file {KiCad (5.1.12)-1} date 02/13/22 14:46:28
; FORMAT={-:-/ absolute / inch / decimal}
; #@! TF.CreationDate,2022-02-13T14:46:28-06:00
; #@! TF.GenerationSoftware,Kicad,Pcbnew,(5.1.12)-1
; #@! TF.FileFunction,Plated,1,2,PTH
FMAT,2
INCH
T1C0.0157
T2C0.0315
T3C0.0350
T4C0.0394
T5C0.0402
T6C0.0512
T7C0.0591
T8C0.0642
T9C0.0713
T10C0.1177
T11C0.1181
T12C0.1260
%
G90
G05
T1
X2.3211Y-4.4215
X2.5649Y-5.6336
X2.5664Y-5.5906
X2.5678Y-5.5476
X2.5939Y-4.7769
X2.6042Y-4.2211
X2.7606Y-5.0449
X3.1294Y-5.3115
X3.2193Y-5.9159
X3.3083Y-5.4712
X3.3083Y-5.6021
X3.6272Y-4.082
X3.6407Y-3.6763
X3.7572Y-5.2284
X3.8071Y-4.8588
X3.8928Y-3.0676
X3.8928Y-3.1431
X3.8953Y-3.0206
X3.9214Y-5.71
X4.7992Y-3.3268
X4.9535Y-4.4385
X4.9558Y-5.1526
X5.0197Y-4.4361
X5.1275Y-5.0386
X5.1455Y-2.3169
X5.1927Y-5.4272
X5.3024Y-4.5722
X5.3359Y-4.0796
X5.3419Y-5.7173
X5.3517Y-5.2002
X5.6584Y-5.2915
X5.6588Y-3.898
X6.0177Y-4.0836
X6.0218Y-4.3708
X6.1889Y-4.6755
X6.2528Y-5.2177
X6.3994Y-4.7156
X6.4205Y-3.51
X6.5125Y-5.2386
X6.6343Y-4.8814
X6.7418Y-5.2707
T2
X3.7065Y-2.1124
X3.7065Y-2.1911
X3.7065Y-2.2699
X3.7065Y-2.3486
X4.5196Y-3.269
X4.5196Y-3.3477
X4.5196Y-3.4265
X4.5984Y-3.269
X4.5984Y-3.3477
X4.5984Y-3.4265
T3
X1.292Y-6.2037
X1.342Y-6.1037
X1.392Y-6.2037
X1.442Y-6.1037
X1.492Y-6.2037
X1.542Y-6.1037
X1.592Y-6.2037
X1.642Y-6.1037
T4
X1.4573Y-4.8693
X1.4573Y-5.7693
X1.5573Y-4.8693
X1.5573Y-5.7693
X1.6573Y-4.8693
X1.6573Y-5.7693
X1.7573Y-4.8693
X1.7573Y-5.7693
X1.8573Y-4.8693
X1.8573Y-5.7693
X1.9573Y-4.8693
X1.9573Y-5.7693
X2.0573Y-4.8693
X2.0573Y-5.7693
X2.1573Y-4.8693
X2.1573Y-5.7693
X4.0064Y-4.213
X4.0064Y-4.313
X4.0064Y-4.413
X4.0064Y-4.513
X4.0064Y-4.613
X4.0064Y-4.713
X4.009Y-3.173
X4.009Y-3.773
X4.109Y-3.173
X4.109Y-3.773
X4.1494Y-4.013
X4.1494Y-4.913
X4.209Y-3.173
X4.209Y-3.773
X4.2494Y-4.013
X4.2494Y-4.913
X4.309Y-3.173
X4.309Y-3.773
X4.3494Y-4.013
X4.3494Y-4.913
X4.362Y-1.1156
X4.409Y-3.173
X4.409Y-3.773
X4.4494Y-4.013
X4.4494Y-4.913
X4.462Y-1.1156
X4.462Y-2.716
X4.509Y-3.173
X4.509Y-3.773
X4.5494Y-4.013
X4.5494Y-4.913
X4.562Y-1.1156
X4.562Y-2.716
X4.609Y-3.173
X4.609Y-3.773
X4.6494Y-4.013
X4.6494Y-4.913
X4.662Y-1.1156
X4.662Y-2.716
X4.709Y-3.173
X4.709Y-3.773
X4.7494Y-4.013
X4.7494Y-4.913
X4.7602Y-0.965
X4.762Y-1.1156
X4.762Y-2.716
X4.809Y-3.173
X4.809Y-3.773
X4.8494Y-4.013
X4.8494Y-4.913
X4.8602Y-0.965
X4.862Y-1.1156
X4.862Y-2.716
X4.909Y-3.173
X4.909Y-3.773
X4.9602Y-0.965
X4.962Y-1.1156
X4.962Y-2.716
X5.009Y-3.173
X5.009Y-3.773
X5.0602Y-0.965
X5.062Y-1.1156
X5.062Y-2.716
X5.109Y-3.173
X5.109Y-3.773
X5.12Y-2.865
X5.1602Y-0.965
X5.162Y-1.1156
X5.162Y-2.716
X5.209Y-3.173
X5.209Y-3.773
X5.22Y-2.865
X5.2602Y-0.965
X5.262Y-1.1156
X5.262Y-2.716
X5.309Y-3.173
X5.309Y-3.773
X5.32Y-2.865
X5.3602Y-0.965
X5.3637Y-5.0205
X5.409Y-3.173
X5.409Y-3.773
X5.42Y-2.865
X5.4602Y-0.965
X5.4637Y-5.0205
X5.52Y-2.865
X5.5602Y-0.965
X5.5637Y-5.0205
X5.609Y-3.173
X5.609Y-3.773
X5.62Y-2.865
X5.6602Y-0.965
X5.6637Y-5.0205
X5.709Y-3.173
X5.709Y-3.773
X5.72Y-2.865
X5.7637Y-5.0205
X5.809Y-3.173
X5.809Y-3.773
X5.82Y-0.965
X5.82Y-2.865
X5.8637Y-5.0205
X5.909Y-3.173
X5.909Y-3.773
X5.92Y-0.965
X5.9637Y-5.0205
X6.009Y-3.173
X6.009Y-3.773
X6.02Y-0.965
X6.02Y-2.865
X6.0637Y-5.0205
X6.109Y-3.173
X6.109Y-3.773
X6.12Y-0.965
X6.12Y-2.865
X6.1637Y-5.0205
X6.209Y-3.173
X6.209Y-3.773
X6.22Y-0.965
X6.22Y-2.865
X6.2637Y-5.0205
X6.309Y-3.173
X6.309Y-3.773
X6.32Y-0.965
X6.32Y-2.865
X6.42Y-0.965
X6.42Y-2.865
X6.52Y-0.965
X6.52Y-2.865
T5
X1.2062Y-6.6466
X1.3062Y-6.6466
X1.6278Y-6.6466
X1.7278Y-6.6466
T6
X3.119Y-6.3399
X3.119Y-6.6399
X3.319Y-6.3399
X3.319Y-6.6399
X3.519Y-6.3399
X3.519Y-6.6399
X3.719Y-6.3399
X3.719Y-6.6399
X3.919Y-6.3399
X3.919Y-6.6399
X4.119Y-6.3399
X4.119Y-6.6399
X4.1901Y-5.1377
X4.1901Y-5.6101
X4.6704Y-5.1377
X4.6704Y-5.6101
X6.2988Y-4.0811
X6.2988Y-4.2811
X6.5988Y-4.0811
X6.5988Y-4.2811
T7
X1.9643Y-6.0032
X1.9726Y-6.4254
X2.8387Y-6.4254
X3.0903Y-6.0032
X4.1114Y-5.3739
T8
X1.1621Y-6.3336
X1.7719Y-6.3336
T9
X5.115Y-5.911
X5.115Y-6.161
X5.29Y-5.911
X5.29Y-6.161
X5.465Y-5.911
X5.465Y-6.161
X5.6402Y-5.911
X5.6402Y-6.161
X5.8152Y-5.911
X5.8152Y-6.161
X5.9902Y-5.911
X5.9902Y-6.161
T10
X4.862Y-5.9512
X5.5526Y-6.4012
X6.2431Y-5.9512
T11
X3.9925Y-4.8621
X4.9925Y-4.8621
T12
X1.2048Y-0.9108
X1.2048Y-3.1155
X1.2048Y-4.0108
X2.3071Y-0.9108
X2.3071Y-3.1155
X3.4048Y-0.9108
X3.4048Y-4.0108
T0
M30
