M48
; DRILL file {KiCad (5.1.10)-1} date 12/31/22 06:25:56
; FORMAT={-:-/ absolute / inch / decimal}
; #@! TF.CreationDate,2022-12-31T06:25:56-06:00
; #@! TF.GenerationSoftware,Kicad,Pcbnew,(5.1.10)-1
; #@! TF.FileFunction,Plated,1,4,PTH
FMAT,2
INCH
T1C0.0157
T2C0.0197
T3C0.0315
T4C0.0350
T5C0.0394
T6C0.0402
T7C0.0469
T8C0.0512
T9C0.0591
T10C0.0642
T11C0.0689
T12C0.1154
T13C0.1260
T14C0.1890
%
G90
G05
T1
X1.023Y-4.353
X1.1475Y-4.1155
X1.283Y-2.473
X1.463Y-1.89
X1.615Y-2.785
X1.6566Y-2.7514
X1.671Y-3.577
X1.6744Y-1.893
X1.7195Y-3.6248
X1.7455Y-2.7514
X1.775Y-2.784
X1.8204Y-1.322
X1.822Y-2.498
X1.8224Y-1.733
X1.866Y-3.716
X1.875Y-2.497
X1.8774Y-1.786
X1.927Y-2.498
X1.985Y-4.871
X2.002Y-2.825
X2.049Y-3.72
X2.079Y-2.894
X2.12Y-3.433
X2.144Y-4.422
X2.1836Y-3.773
X2.2434Y-1.757
X2.2554Y-1.883
X2.282Y-4.072
X2.385Y-1.316
X2.42Y-3.069
X2.802Y-2.64
X2.815Y-3.268
X2.838Y-4.2324
X2.885Y-2.5495
X2.9486Y-3.439
X3.0866Y-3.52
X3.151Y-3.3004
X3.315Y-1.766
X3.342Y-1.888
X3.3746Y-3.358
X3.394Y-1.476
X3.469Y-4.1394
X3.591Y-1.47
X3.596Y-1.89
X3.7557Y-1.7146
X4.142Y-2.474
X4.238Y-2.5076
X4.249Y-4.1234
X4.37Y-3.2354
X4.373Y-3.6114
X4.5049Y-5.4843
X4.956Y-4.1204
X5.1974Y-3.419
X5.2287Y-2.9214
X5.469Y-4.1044
X5.58Y-3.4144
X5.6167Y-2.9214
X5.894Y-4.603
X6.069Y-4.776
X6.104Y-6.2674
X6.142Y-5.9044
X6.143Y-6.0914
X6.175Y-6.0214
X6.18Y-6.2654
X6.195Y-4.655
X6.318Y-5.5974
X6.3289Y-5.7584
X6.34Y-5.3614
X6.392Y-4.666
X6.424Y-5.1664
X6.54Y-6.2194
X6.615Y-6.2214
T3
X3.9446Y-2.1654
X3.9446Y-2.2441
X3.9446Y-2.3229
X4.0234Y-2.1654
X4.0234Y-2.2441
X4.0234Y-2.3229
X5.4239Y-1.7409
X5.5026Y-1.7409
X5.5814Y-1.7409
X5.6601Y-1.7409
T4
X6.27Y-4.4646
X6.32Y-4.3646
X6.37Y-4.4646
X6.42Y-4.3646
X6.47Y-4.4646
X6.52Y-4.3646
X6.57Y-4.4646
X6.62Y-4.3646
T5
X2.315Y-2.6834
X2.415Y-2.6834
X2.515Y-2.6834
X2.898Y-2.6834
X2.998Y-2.6834
X3.098Y-2.6834
X3.434Y-2.0694
X3.434Y-2.6694
X3.534Y-2.0694
X3.534Y-2.6694
X3.634Y-2.0694
X3.634Y-2.6694
X3.734Y-2.0694
X3.734Y-2.6694
X3.834Y-2.0694
X3.834Y-2.6694
X3.934Y-2.0694
X3.934Y-2.6694
X4.134Y-2.0694
X4.134Y-2.6694
X4.234Y-2.0694
X4.234Y-2.6694
X4.334Y-2.0694
X4.334Y-2.6694
X4.434Y-2.0694
X4.434Y-2.6694
X4.534Y-2.0694
X4.534Y-2.6694
X4.634Y-2.0694
X4.634Y-2.6694
X4.734Y-2.0694
X4.734Y-2.6694
X4.834Y-2.0694
X4.834Y-2.6694
X5.034Y-2.0694
X5.034Y-2.6694
X5.134Y-2.0694
X5.134Y-2.6694
X5.234Y-2.0694
X5.234Y-2.6694
X5.334Y-2.0694
X5.334Y-2.6694
X5.434Y-2.0694
X5.434Y-2.6694
X5.534Y-2.0694
X5.534Y-2.6694
X5.634Y-2.0694
X5.634Y-2.6694
X5.734Y-2.0694
X5.734Y-2.6694
X6.713Y-5.0604
X6.713Y-5.1604
X6.713Y-5.2604
X6.713Y-5.3604
X6.713Y-5.4604
X6.713Y-5.5604
X6.713Y-5.6604
X6.713Y-5.7604
X6.713Y-5.8604
X6.713Y-5.9604
T6
X6.1842Y-3.9217
X6.2842Y-3.9217
X6.6058Y-3.9217
X6.7058Y-3.9217
T7
X4.651Y-1.7496
X4.751Y-1.7496
X4.851Y-1.7496
X4.951Y-1.7496
X5.051Y-1.7496
T8
X1.1096Y-5.1084
X1.1411Y-5.4564
X1.1411Y-5.6564
X1.1411Y-5.8564
X1.1411Y-6.0564
X1.3987Y-3.859
X1.4411Y-5.4564
X1.4411Y-5.6564
X1.4411Y-5.8564
X1.4411Y-6.0564
X1.582Y-4.6281
X1.582Y-5.1084
X1.8153Y-4.636
X1.8153Y-5.1163
X1.879Y-3.859
X1.879Y-4.3314
X2.2878Y-4.636
X2.5177Y-4.4126
X2.5177Y-4.8929
X2.581Y-1.5111
X2.581Y-1.8111
X2.781Y-1.5111
X2.781Y-1.8111
X2.981Y-1.5111
X2.981Y-1.8111
X2.9901Y-4.4126
X3.181Y-1.5111
X3.181Y-1.8111
X3.22Y-4.4126
X3.22Y-4.8929
X3.6924Y-4.4126
X3.9223Y-4.4126
X3.9223Y-4.8929
X4.3948Y-4.4126
X4.6247Y-4.4126
X4.6247Y-4.8929
X4.7377Y-5.2014
X5.0971Y-4.4126
X5.218Y-5.2014
X5.218Y-5.6738
X5.327Y-4.4126
X5.327Y-4.8929
X5.5001Y-5.4114
X5.5001Y-5.6114
X5.5001Y-5.8114
X5.5001Y-6.0114
X5.7994Y-4.4126
X5.8001Y-5.4114
X5.8001Y-5.6114
X5.8001Y-5.8114
X5.8001Y-6.0114
T9
X1.3458Y-5.1871
X1.9577Y-4.0952
X2.0516Y-4.5572
X2.7539Y-4.3339
X3.4562Y-4.3339
X4.1586Y-4.3339
X4.8609Y-4.3339
X5.2967Y-5.4376
X5.5632Y-4.3339
T10
X6.1401Y-4.2347
X6.7499Y-4.2347
T11
X2.7559Y-5.7677
X2.7559Y-6.0827
X2.8346Y-5.9252
X2.9134Y-5.7677
X2.9134Y-6.0827
X2.9921Y-5.9252
X3.0709Y-5.7677
X3.0709Y-6.0827
X3.1496Y-5.9252
X3.2283Y-5.7677
X3.2283Y-6.0827
X3.3071Y-5.9252
X3.3858Y-5.7677
X3.3858Y-6.0827
X3.4646Y-5.9252
X3.5433Y-5.7677
X3.5433Y-6.0827
X3.622Y-5.9252
X3.7008Y-5.7677
X3.7008Y-6.0827
X3.7795Y-5.9252
X3.8583Y-5.7677
X3.8583Y-6.0827
T12
X2.5Y-5.9449
X4.1142Y-5.9449
T13
X2.6436Y-2.9719
X2.6436Y-5.1719
X3.5389Y-2.9719
X3.5389Y-4.0742
X3.8436Y-3.7317
X3.8436Y-5.1719
X5.7436Y-2.9719
X5.7436Y-3.7317
X5.7436Y-4.0742
X5.7436Y-5.1719
T14
X1.893Y-5.949
X6.554Y-1.458
T2
G00X2.1764Y-3.4693
M15
G01X2.1764Y-3.5127
M16
G05
G00X2.261Y-3.367
M15
G01X2.261Y-3.3945
M16
G05
G00X2.261Y-3.5875
M15
G01X2.261Y-3.615
M16
G05
T0
M30
