%TF.GenerationSoftware,KiCad,Pcbnew,(5.1.10)-1*%
%TF.CreationDate,2022-12-31T06:25:54-06:00*%
%TF.ProjectId,RC11,52433131-2e6b-4696-9361-645f70636258,rev?*%
%TF.SameCoordinates,Original*%
%TF.FileFunction,Soldermask,Bot*%
%TF.FilePolarity,Negative*%
%FSLAX46Y46*%
G04 Gerber Fmt 4.6, Leading zero omitted, Abs format (unit mm)*
G04 Created by KiCad (PCBNEW (5.1.10)-1) date 2022-12-31 06:25:54*
%MOMM*%
%LPD*%
G01*
G04 APERTURE LIST*
%ADD10C,2.445000*%
%ADD11C,1.530000*%
%ADD12C,1.446000*%
%ADD13C,3.200000*%
%ADD14C,2.600000*%
%ADD15R,2.600000X2.600000*%
%ADD16C,1.950000*%
%ADD17C,2.250000*%
%ADD18R,1.950000X1.950000*%
%ADD19O,1.100000X2.200000*%
%ADD20O,1.100000X2.000000*%
%ADD21O,1.740000X2.190000*%
%ADD22O,1.700000X1.700000*%
%ADD23R,1.700000X1.700000*%
%ADD24C,9.000000*%
%ADD25C,1.308000*%
%ADD26R,1.308000X1.308000*%
%ADD27O,1.350000X1.350000*%
%ADD28R,1.350000X1.350000*%
%ADD29C,4.395000*%
%ADD30C,2.625000*%
G04 APERTURE END LIST*
D10*
%TO.C,J12*%
X155958000Y-107560800D03*
X171448000Y-107560800D03*
D11*
X157078000Y-99610800D03*
X159618000Y-99610800D03*
X167788000Y-99610800D03*
X170328000Y-99610800D03*
D12*
X159258000Y-113400800D03*
X160528000Y-110860800D03*
X161798000Y-113400800D03*
X163068000Y-110860800D03*
X164338000Y-113400800D03*
X165608000Y-110860800D03*
X166878000Y-113400800D03*
X168148000Y-110860800D03*
%TD*%
D13*
%TO.C,REF\u002A\u002A*%
X145887800Y-103485600D03*
X89887800Y-103485600D03*
X89887800Y-75485600D03*
X145887800Y-75485600D03*
X145887800Y-131365600D03*
X67147800Y-131365600D03*
X67147800Y-75485600D03*
X145887800Y-94785600D03*
X97627800Y-94785600D03*
X97627800Y-131365600D03*
%TD*%
D14*
%TO.C,KF3*%
X65557400Y-46000800D03*
X65557400Y-38380800D03*
X70637400Y-46000800D03*
X70637400Y-38380800D03*
X75717400Y-46000800D03*
X75717400Y-38380800D03*
D15*
X80797400Y-46000800D03*
X80797400Y-38380800D03*
%TD*%
D16*
%TO.C,RLY9*%
X40182800Y-117553400D03*
X28182800Y-129753400D03*
D17*
X34182800Y-131753400D03*
D18*
X40182800Y-129753400D03*
%TD*%
D19*
%TO.C,J9*%
X55279400Y-88671400D03*
X57429400Y-91471400D03*
D20*
X57429400Y-85871400D03*
%TD*%
D14*
%TO.C,KF2*%
X147321400Y-152689600D03*
X139701400Y-152689600D03*
X147321400Y-147609600D03*
X139701400Y-147609600D03*
X147321400Y-142529600D03*
X139701400Y-142529600D03*
D15*
X147321400Y-137449600D03*
X139701400Y-137449600D03*
%TD*%
D14*
%TO.C,KF1*%
X36602800Y-153832600D03*
X28982800Y-153832600D03*
X36602800Y-148752600D03*
X28982800Y-148752600D03*
X36602800Y-143672600D03*
X28982800Y-143672600D03*
D15*
X36602800Y-138592600D03*
X28982800Y-138592600D03*
%TD*%
D21*
%TO.C,J13*%
X128295400Y-44439800D03*
X125755400Y-44439800D03*
X123215400Y-44439800D03*
X120675400Y-44439800D03*
G36*
G01*
X117265400Y-45284801D02*
X117265400Y-43594799D01*
G75*
G02*
X117515399Y-43344800I249999J0D01*
G01*
X118755401Y-43344800D01*
G75*
G02*
X119005400Y-43594799I0J-249999D01*
G01*
X119005400Y-45284801D01*
G75*
G02*
X118755401Y-45534800I-249999J0D01*
G01*
X117515399Y-45534800D01*
G75*
G02*
X117265400Y-45284801I0J249999D01*
G01*
G37*
%TD*%
D22*
%TO.C,J19*%
X170510200Y-128534200D03*
X170510200Y-131074200D03*
X170510200Y-133614200D03*
X170510200Y-136154200D03*
X170510200Y-138694200D03*
X170510200Y-141234200D03*
X170510200Y-143774200D03*
X170510200Y-146314200D03*
X170510200Y-148854200D03*
D23*
X170510200Y-151394200D03*
%TD*%
D22*
%TO.C,J18*%
X58801000Y-68158400D03*
X61341000Y-68158400D03*
D23*
X63881000Y-68158400D03*
%TD*%
D22*
%TO.C,J10*%
X73609200Y-68158400D03*
X76149200Y-68158400D03*
D23*
X78689200Y-68158400D03*
%TD*%
D16*
%TO.C,RLY3*%
X63948732Y-124280600D03*
X75948732Y-112080600D03*
D17*
X69948732Y-110080600D03*
D18*
X63948732Y-112080600D03*
%TD*%
D24*
%TO.C,J17*%
X48082200Y-151104600D03*
%TD*%
%TO.C,J14*%
X166471600Y-37033200D03*
%TD*%
D25*
%TO.C,J21*%
X137766800Y-44219800D03*
X139766800Y-44219800D03*
X141766800Y-44219800D03*
D26*
X143766800Y-44219800D03*
%TD*%
D22*
%TO.C,J16*%
X122783600Y-52562800D03*
X120243600Y-52562800D03*
X117703600Y-52562800D03*
X115163600Y-52562800D03*
X112623600Y-52562800D03*
X110083600Y-52562800D03*
X107543600Y-52562800D03*
D23*
X105003600Y-52562800D03*
%TD*%
D22*
%TO.C,J15*%
X99923600Y-52562800D03*
X97383600Y-52562800D03*
X94843600Y-52562800D03*
X92303600Y-52562800D03*
X89763600Y-52562800D03*
D23*
X87223600Y-52562800D03*
%TD*%
D22*
%TO.C,J6*%
X122783600Y-67802800D03*
X120243600Y-67802800D03*
X117703600Y-67802800D03*
X115163600Y-67802800D03*
X112623600Y-67802800D03*
X110083600Y-67802800D03*
X107543600Y-67802800D03*
D23*
X105003600Y-67802800D03*
%TD*%
D22*
%TO.C,J4*%
X99923600Y-67802800D03*
X97383600Y-67802800D03*
X94843600Y-67802800D03*
X92303600Y-67802800D03*
X89763600Y-67802800D03*
D23*
X87223600Y-67802800D03*
%TD*%
D13*
%TO.C, *%
X175539400Y-33469600D03*
%TD*%
%TO.C, *%
X23393400Y-33444200D03*
%TD*%
%TO.C, *%
X23520400Y-156517400D03*
%TD*%
%TO.C, *%
X175514000Y-156466600D03*
%TD*%
D27*
%TO.C,J11*%
X102193600Y-59001200D03*
X100193600Y-59001200D03*
X102193600Y-57001200D03*
X100193600Y-57001200D03*
X102193600Y-55001200D03*
D28*
X100193600Y-55001200D03*
%TD*%
D22*
%TO.C,J7*%
X145643600Y-52562800D03*
X143103600Y-52562800D03*
X140563600Y-52562800D03*
X138023600Y-52562800D03*
X135483600Y-52562800D03*
X132943600Y-52562800D03*
X130403600Y-52562800D03*
D23*
X127863600Y-52562800D03*
%TD*%
D22*
%TO.C,J5*%
X145643600Y-67802800D03*
X143103600Y-67802800D03*
X140563600Y-67802800D03*
X138023600Y-67802800D03*
X135483600Y-67802800D03*
X132943600Y-67802800D03*
X130403600Y-67802800D03*
D23*
X127863600Y-67802800D03*
%TD*%
D16*
%TO.C,RLY7*%
X135305800Y-124280600D03*
X147305800Y-112080600D03*
D17*
X141305800Y-110080600D03*
D18*
X135305800Y-112080600D03*
%TD*%
D16*
%TO.C,RLY6*%
X117466530Y-124280600D03*
X129466530Y-112080600D03*
D17*
X123466530Y-110080600D03*
D18*
X117466530Y-112080600D03*
%TD*%
D16*
%TO.C,RLY5*%
X99627264Y-124280600D03*
X111627264Y-112080600D03*
D17*
X105627264Y-110080600D03*
D18*
X99627264Y-112080600D03*
%TD*%
D16*
%TO.C,RLY4*%
X81787998Y-124280600D03*
X93787998Y-112080600D03*
D17*
X87787998Y-110080600D03*
D18*
X81787998Y-112080600D03*
%TD*%
D16*
%TO.C,RLY2*%
X46109466Y-129953400D03*
X58109466Y-117753400D03*
D17*
X52109466Y-115753400D03*
D18*
X46109466Y-117753400D03*
%TD*%
D16*
%TO.C,RLY1*%
X35526600Y-98018600D03*
X47726600Y-110018600D03*
D17*
X49726600Y-104018600D03*
D18*
X47726600Y-98018600D03*
%TD*%
D16*
%TO.C,RLY8*%
X120337200Y-132115600D03*
X132537200Y-144115600D03*
D17*
X134537200Y-138115600D03*
D18*
X132537200Y-132115600D03*
%TD*%
D29*
%TO.C,J8*%
X104500000Y-151000000D03*
X63500000Y-151000000D03*
D30*
X98000000Y-154500000D03*
X94000000Y-154500000D03*
X90000000Y-154500000D03*
X86000000Y-154500000D03*
X82000000Y-154500000D03*
X78000000Y-154500000D03*
X74000000Y-154500000D03*
X70000000Y-154500000D03*
X96000000Y-150500000D03*
X92000000Y-150500000D03*
X88000000Y-150500000D03*
X84000000Y-150500000D03*
X80000000Y-150500000D03*
X76000000Y-150500000D03*
X72000000Y-150500000D03*
X98000000Y-146500000D03*
X94000000Y-146500000D03*
X90000000Y-146500000D03*
X86000000Y-146500000D03*
X82000000Y-146500000D03*
X78000000Y-146500000D03*
X74000000Y-146500000D03*
X70000000Y-146500000D03*
%TD*%
M02*
