%TF.GenerationSoftware,KiCad,Pcbnew,(5.1.9)-1*%
%TF.CreationDate,2022-03-17T08:19:33-06:00*%
%TF.ProjectId,AS13,41533133-2e6b-4696-9361-645f70636258,rev?*%
%TF.SameCoordinates,Original*%
%TF.FileFunction,Copper,L1,Top*%
%TF.FilePolarity,Positive*%
%FSLAX46Y46*%
G04 Gerber Fmt 4.6, Leading zero omitted, Abs format (unit mm)*
G04 Created by KiCad (PCBNEW (5.1.9)-1) date 2022-03-17 08:19:33*
%MOMM*%
%LPD*%
G01*
G04 APERTURE LIST*
%TA.AperFunction,ComponentPad*%
%ADD10O,1.700000X1.700000*%
%TD*%
%TA.AperFunction,ComponentPad*%
%ADD11R,1.700000X1.700000*%
%TD*%
%TA.AperFunction,ComponentPad*%
%ADD12C,2.445000*%
%TD*%
%TA.AperFunction,ComponentPad*%
%ADD13C,1.530000*%
%TD*%
%TA.AperFunction,ComponentPad*%
%ADD14C,1.446000*%
%TD*%
%TA.AperFunction,SMDPad,CuDef*%
%ADD15R,0.900000X0.800000*%
%TD*%
%TA.AperFunction,ComponentPad*%
%ADD16C,2.999999*%
%TD*%
%TA.AperFunction,ComponentPad*%
%ADD17C,3.000000*%
%TD*%
%TA.AperFunction,ComponentPad*%
%ADD18C,4.485000*%
%TD*%
%TA.AperFunction,ComponentPad*%
%ADD19C,2.715000*%
%TD*%
%TA.AperFunction,ComponentPad*%
%ADD20R,2.715000X2.715000*%
%TD*%
%TA.AperFunction,ComponentPad*%
%ADD21O,2.500000X2.500000*%
%TD*%
%TA.AperFunction,ComponentPad*%
%ADD22R,2.500000X2.500000*%
%TD*%
%TA.AperFunction,ComponentPad*%
%ADD23C,2.600000*%
%TD*%
%TA.AperFunction,ComponentPad*%
%ADD24R,2.600000X2.600000*%
%TD*%
%TA.AperFunction,ComponentPad*%
%ADD25R,2.250000X2.250000*%
%TD*%
%TA.AperFunction,ComponentPad*%
%ADD26C,2.250000*%
%TD*%
%TA.AperFunction,ComponentPad*%
%ADD27C,3.200000*%
%TD*%
%TA.AperFunction,ComponentPad*%
%ADD28C,3.400000*%
%TD*%
%TA.AperFunction,ComponentPad*%
%ADD29C,1.300000*%
%TD*%
%TA.AperFunction,ComponentPad*%
%ADD30R,1.300000X1.300000*%
%TD*%
%TA.AperFunction,SMDPad,CuDef*%
%ADD31R,1.800000X1.800000*%
%TD*%
%TA.AperFunction,SMDPad,CuDef*%
%ADD32R,0.530000X1.980000*%
%TD*%
%TA.AperFunction,SMDPad,CuDef*%
%ADD33R,1.800000X2.500000*%
%TD*%
%TA.AperFunction,SMDPad,CuDef*%
%ADD34R,2.000000X1.500000*%
%TD*%
%TA.AperFunction,SMDPad,CuDef*%
%ADD35R,2.000000X3.800000*%
%TD*%
%TA.AperFunction,SMDPad,CuDef*%
%ADD36R,10.530000X8.460000*%
%TD*%
%TA.AperFunction,SMDPad,CuDef*%
%ADD37R,1.050000X3.210000*%
%TD*%
%TA.AperFunction,SMDPad,CuDef*%
%ADD38R,5.400000X2.900000*%
%TD*%
%TA.AperFunction,SMDPad,CuDef*%
%ADD39R,1.550000X0.600000*%
%TD*%
%TA.AperFunction,ComponentPad*%
%ADD40C,1.308000*%
%TD*%
%TA.AperFunction,ComponentPad*%
%ADD41R,1.308000X1.308000*%
%TD*%
%TA.AperFunction,SMDPad,CuDef*%
%ADD42R,0.800000X0.900000*%
%TD*%
%TA.AperFunction,ComponentPad*%
%ADD43O,1.350000X1.350000*%
%TD*%
%TA.AperFunction,ComponentPad*%
%ADD44R,1.350000X1.350000*%
%TD*%
%TA.AperFunction,ViaPad*%
%ADD45C,0.800000*%
%TD*%
%TA.AperFunction,Conductor*%
%ADD46C,0.508000*%
%TD*%
%TA.AperFunction,Conductor*%
%ADD47C,1.270000*%
%TD*%
%TA.AperFunction,Conductor*%
%ADD48C,2.032000*%
%TD*%
%TA.AperFunction,Conductor*%
%ADD49C,3.810000*%
%TD*%
%TA.AperFunction,Conductor*%
%ADD50C,0.431800*%
%TD*%
%TA.AperFunction,Conductor*%
%ADD51C,0.254000*%
%TD*%
%TA.AperFunction,Conductor*%
%ADD52C,0.100000*%
%TD*%
G04 APERTURE END LIST*
D10*
%TO.P,J12,4*%
%TO.N,GND*%
X96723200Y-31699200D03*
%TO.P,J12,3*%
X96723200Y-29159200D03*
%TO.P,J12,2*%
%TO.N,Net-(C11-Pad1)*%
X94183200Y-31699200D03*
D11*
%TO.P,J12,1*%
X94183200Y-29159200D03*
%TD*%
D12*
%TO.P,J4,MH2*%
%TO.N,GND*%
X47190000Y-169300000D03*
%TO.P,J4,MH1*%
X31700000Y-169300000D03*
D13*
%TO.P,J4,12*%
%TO.N,Net-(J4-Pad12)*%
X46070000Y-177250000D03*
%TO.P,J4,11*%
%TO.N,Net-(J4-Pad11)*%
X43530000Y-177250000D03*
%TO.P,J4,10*%
%TO.N,GND*%
X35360000Y-177250000D03*
%TO.P,J4,9*%
%TO.N,Net-(J4-Pad9)*%
X32820000Y-177250000D03*
D14*
%TO.P,J4,8*%
%TO.N,GND*%
X43890000Y-163460000D03*
%TO.P,J4,7*%
%TO.N,Net-(J4-Pad7)*%
X42620000Y-166000000D03*
%TO.P,J4,6*%
%TO.N,Net-(J4-Pad6)*%
X41350000Y-163460000D03*
%TO.P,J4,5*%
%TO.N,Net-(C2-Pad1)*%
X40080000Y-166000000D03*
%TO.P,J4,4*%
X38810000Y-163460000D03*
%TO.P,J4,3*%
%TO.N,Net-(J4-Pad3)*%
X37540000Y-166000000D03*
%TO.P,J4,2*%
%TO.N,Net-(J4-Pad2)*%
X36270000Y-163460000D03*
%TO.P,J4,1*%
%TO.N,Net-(J4-Pad1)*%
X35000000Y-166000000D03*
%TD*%
%TO.P,R12,2*%
%TO.N,Net-(J13-Pad4)*%
%TA.AperFunction,SMDPad,CuDef*%
G36*
G01*
X98200002Y-120750000D02*
X96949998Y-120750000D01*
G75*
G02*
X96700000Y-120500002I0J249998D01*
G01*
X96700000Y-119874998D01*
G75*
G02*
X96949998Y-119625000I249998J0D01*
G01*
X98200002Y-119625000D01*
G75*
G02*
X98450000Y-119874998I0J-249998D01*
G01*
X98450000Y-120500002D01*
G75*
G02*
X98200002Y-120750000I-249998J0D01*
G01*
G37*
%TD.AperFunction*%
%TO.P,R12,1*%
%TO.N,Net-(Q1-Pad1)*%
%TA.AperFunction,SMDPad,CuDef*%
G36*
G01*
X98200002Y-123675000D02*
X96949998Y-123675000D01*
G75*
G02*
X96700000Y-123425002I0J249998D01*
G01*
X96700000Y-122799998D01*
G75*
G02*
X96949998Y-122550000I249998J0D01*
G01*
X98200002Y-122550000D01*
G75*
G02*
X98450000Y-122799998I0J-249998D01*
G01*
X98450000Y-123425002D01*
G75*
G02*
X98200002Y-123675000I-249998J0D01*
G01*
G37*
%TD.AperFunction*%
%TD*%
%TO.P,R14,2*%
%TO.N,GND*%
%TA.AperFunction,SMDPad,CuDef*%
G36*
G01*
X142987600Y-147970402D02*
X142987600Y-146720398D01*
G75*
G02*
X143237598Y-146470400I249998J0D01*
G01*
X143862602Y-146470400D01*
G75*
G02*
X144112600Y-146720398I0J-249998D01*
G01*
X144112600Y-147970402D01*
G75*
G02*
X143862602Y-148220400I-249998J0D01*
G01*
X143237598Y-148220400D01*
G75*
G02*
X142987600Y-147970402I0J249998D01*
G01*
G37*
%TD.AperFunction*%
%TO.P,R14,1*%
%TO.N,Net-(D6-Pad3)*%
%TA.AperFunction,SMDPad,CuDef*%
G36*
G01*
X140062600Y-147970402D02*
X140062600Y-146720398D01*
G75*
G02*
X140312598Y-146470400I249998J0D01*
G01*
X140937602Y-146470400D01*
G75*
G02*
X141187600Y-146720398I0J-249998D01*
G01*
X141187600Y-147970402D01*
G75*
G02*
X140937602Y-148220400I-249998J0D01*
G01*
X140312598Y-148220400D01*
G75*
G02*
X140062600Y-147970402I0J249998D01*
G01*
G37*
%TD.AperFunction*%
%TD*%
%TO.P,R13,2*%
%TO.N,Net-(J6-Pad4)*%
%TA.AperFunction,SMDPad,CuDef*%
G36*
G01*
X143038400Y-151755002D02*
X143038400Y-150504998D01*
G75*
G02*
X143288398Y-150255000I249998J0D01*
G01*
X143913402Y-150255000D01*
G75*
G02*
X144163400Y-150504998I0J-249998D01*
G01*
X144163400Y-151755002D01*
G75*
G02*
X143913402Y-152005000I-249998J0D01*
G01*
X143288398Y-152005000D01*
G75*
G02*
X143038400Y-151755002I0J249998D01*
G01*
G37*
%TD.AperFunction*%
%TO.P,R13,1*%
%TO.N,Net-(D6-Pad3)*%
%TA.AperFunction,SMDPad,CuDef*%
G36*
G01*
X140113400Y-151755002D02*
X140113400Y-150504998D01*
G75*
G02*
X140363398Y-150255000I249998J0D01*
G01*
X140988402Y-150255000D01*
G75*
G02*
X141238400Y-150504998I0J-249998D01*
G01*
X141238400Y-151755002D01*
G75*
G02*
X140988402Y-152005000I-249998J0D01*
G01*
X140363398Y-152005000D01*
G75*
G02*
X140113400Y-151755002I0J249998D01*
G01*
G37*
%TD.AperFunction*%
%TD*%
%TO.P,R9,2*%
%TO.N,GND*%
%TA.AperFunction,SMDPad,CuDef*%
G36*
G01*
X128865200Y-141214002D02*
X128865200Y-139963998D01*
G75*
G02*
X129115198Y-139714000I249998J0D01*
G01*
X129740202Y-139714000D01*
G75*
G02*
X129990200Y-139963998I0J-249998D01*
G01*
X129990200Y-141214002D01*
G75*
G02*
X129740202Y-141464000I-249998J0D01*
G01*
X129115198Y-141464000D01*
G75*
G02*
X128865200Y-141214002I0J249998D01*
G01*
G37*
%TD.AperFunction*%
%TO.P,R9,1*%
%TO.N,Net-(D1-Pad3)*%
%TA.AperFunction,SMDPad,CuDef*%
G36*
G01*
X125940200Y-141214002D02*
X125940200Y-139963998D01*
G75*
G02*
X126190198Y-139714000I249998J0D01*
G01*
X126815202Y-139714000D01*
G75*
G02*
X127065200Y-139963998I0J-249998D01*
G01*
X127065200Y-141214002D01*
G75*
G02*
X126815202Y-141464000I-249998J0D01*
G01*
X126190198Y-141464000D01*
G75*
G02*
X125940200Y-141214002I0J249998D01*
G01*
G37*
%TD.AperFunction*%
%TD*%
%TO.P,R8,2*%
%TO.N,Net-(R8-Pad2)*%
%TA.AperFunction,SMDPad,CuDef*%
G36*
G01*
X128814400Y-144947802D02*
X128814400Y-143697798D01*
G75*
G02*
X129064398Y-143447800I249998J0D01*
G01*
X129689402Y-143447800D01*
G75*
G02*
X129939400Y-143697798I0J-249998D01*
G01*
X129939400Y-144947802D01*
G75*
G02*
X129689402Y-145197800I-249998J0D01*
G01*
X129064398Y-145197800D01*
G75*
G02*
X128814400Y-144947802I0J249998D01*
G01*
G37*
%TD.AperFunction*%
%TO.P,R8,1*%
%TO.N,Net-(D1-Pad3)*%
%TA.AperFunction,SMDPad,CuDef*%
G36*
G01*
X125889400Y-144947802D02*
X125889400Y-143697798D01*
G75*
G02*
X126139398Y-143447800I249998J0D01*
G01*
X126764402Y-143447800D01*
G75*
G02*
X127014400Y-143697798I0J-249998D01*
G01*
X127014400Y-144947802D01*
G75*
G02*
X126764402Y-145197800I-249998J0D01*
G01*
X126139398Y-145197800D01*
G75*
G02*
X125889400Y-144947802I0J249998D01*
G01*
G37*
%TD.AperFunction*%
%TD*%
%TO.P,R7,2*%
%TO.N,GND*%
%TA.AperFunction,SMDPad,CuDef*%
G36*
G01*
X158837200Y-116474402D02*
X158837200Y-115224398D01*
G75*
G02*
X159087198Y-114974400I249998J0D01*
G01*
X159712202Y-114974400D01*
G75*
G02*
X159962200Y-115224398I0J-249998D01*
G01*
X159962200Y-116474402D01*
G75*
G02*
X159712202Y-116724400I-249998J0D01*
G01*
X159087198Y-116724400D01*
G75*
G02*
X158837200Y-116474402I0J249998D01*
G01*
G37*
%TD.AperFunction*%
%TO.P,R7,1*%
%TO.N,Net-(D2-Pad3)*%
%TA.AperFunction,SMDPad,CuDef*%
G36*
G01*
X155912200Y-116474402D02*
X155912200Y-115224398D01*
G75*
G02*
X156162198Y-114974400I249998J0D01*
G01*
X156787202Y-114974400D01*
G75*
G02*
X157037200Y-115224398I0J-249998D01*
G01*
X157037200Y-116474402D01*
G75*
G02*
X156787202Y-116724400I-249998J0D01*
G01*
X156162198Y-116724400D01*
G75*
G02*
X155912200Y-116474402I0J249998D01*
G01*
G37*
%TD.AperFunction*%
%TD*%
%TO.P,R6,2*%
%TO.N,Net-(KF3-Pad4)*%
%TA.AperFunction,SMDPad,CuDef*%
G36*
G01*
X158913400Y-120208202D02*
X158913400Y-118958198D01*
G75*
G02*
X159163398Y-118708200I249998J0D01*
G01*
X159788402Y-118708200D01*
G75*
G02*
X160038400Y-118958198I0J-249998D01*
G01*
X160038400Y-120208202D01*
G75*
G02*
X159788402Y-120458200I-249998J0D01*
G01*
X159163398Y-120458200D01*
G75*
G02*
X158913400Y-120208202I0J249998D01*
G01*
G37*
%TD.AperFunction*%
%TO.P,R6,1*%
%TO.N,Net-(D2-Pad3)*%
%TA.AperFunction,SMDPad,CuDef*%
G36*
G01*
X155988400Y-120208202D02*
X155988400Y-118958198D01*
G75*
G02*
X156238398Y-118708200I249998J0D01*
G01*
X156863402Y-118708200D01*
G75*
G02*
X157113400Y-118958198I0J-249998D01*
G01*
X157113400Y-120208202D01*
G75*
G02*
X156863402Y-120458200I-249998J0D01*
G01*
X156238398Y-120458200D01*
G75*
G02*
X155988400Y-120208202I0J249998D01*
G01*
G37*
%TD.AperFunction*%
%TD*%
D15*
%TO.P,D6,3*%
%TO.N,Net-(D6-Pad3)*%
X140884400Y-142798800D03*
%TO.P,D6,2*%
%TO.N,Net-(C1-Pad1)*%
X142884400Y-141848800D03*
%TO.P,D6,1*%
%TO.N,GND*%
X142884400Y-143748800D03*
%TD*%
%TO.P,D2,3*%
%TO.N,Net-(D2-Pad3)*%
X158759400Y-111277400D03*
%TO.P,D2,2*%
%TO.N,Net-(C1-Pad1)*%
X156759400Y-112227400D03*
%TO.P,D2,1*%
%TO.N,GND*%
X156759400Y-110327400D03*
%TD*%
%TO.P,D1,3*%
%TO.N,Net-(D1-Pad3)*%
X128990600Y-136220200D03*
%TO.P,D1,2*%
%TO.N,Net-(C1-Pad1)*%
X126990600Y-137170200D03*
%TO.P,D1,1*%
%TO.N,GND*%
X126990600Y-135270200D03*
%TD*%
D16*
%TO.P,REF\u002A\u002A,4*%
%TO.N,N/C*%
X168859200Y-109819200D03*
%TO.P,REF\u002A\u002A,3*%
X168859200Y-127599200D03*
%TO.P,REF\u002A\u002A,2*%
X148539200Y-127599200D03*
%TO.P,REF\u002A\u002A,1*%
X148539200Y-109819200D03*
%TD*%
D17*
%TO.P,M1,2*%
%TO.N,N/C*%
X120425000Y-126050000D03*
%TO.P,M1,1*%
X106425000Y-114550000D03*
%TD*%
%TO.P,REF\u002A\u002A,*%
%TO.N,*%
X101660000Y-130560000D03*
X127060000Y-130560000D03*
%TD*%
D18*
%TO.P,J6,MH3*%
%TO.N,Net-(J6-PadMH3)*%
X158655000Y-158020000D03*
%TO.P,J6,MH2*%
%TO.N,Net-(J6-PadMH2)*%
X141115000Y-169450000D03*
%TO.P,J6,MH1*%
%TO.N,Net-(J6-PadMH1)*%
X123575000Y-158020000D03*
D19*
%TO.P,J6,12*%
%TO.N,Net-(J6-Pad12)*%
X130000000Y-163350000D03*
%TO.P,J6,11*%
%TO.N,GND*%
X134445000Y-163350000D03*
%TO.P,J6,10*%
%TO.N,Net-(C11-Pad1)*%
X138890000Y-163350000D03*
%TO.P,J6,9*%
%TO.N,Net-(J6-Pad9)*%
X143340000Y-163350000D03*
%TO.P,J6,8*%
%TO.N,Net-(J6-Pad8)*%
X147785000Y-163350000D03*
%TO.P,J6,7*%
%TO.N,Net-(J6-Pad7)*%
X152230000Y-163350000D03*
%TO.P,J6,6*%
%TO.N,Net-(J2-Pad3)*%
X152230000Y-157000000D03*
%TO.P,J6,5*%
%TO.N,Net-(J2-Pad4)*%
X147785000Y-157000000D03*
%TO.P,J6,4*%
%TO.N,Net-(J6-Pad4)*%
X143340000Y-157000000D03*
%TO.P,J6,3*%
%TO.N,Net-(J6-Pad3)*%
X138890000Y-157000000D03*
%TO.P,J6,2*%
%TO.N,Net-(J6-Pad2)*%
X134445000Y-157000000D03*
D20*
%TO.P,J6,1*%
%TO.N,Net-(J6-Pad1)*%
X130000000Y-157000000D03*
%TD*%
D21*
%TO.P,K1,2*%
%TO.N,Net-(D5-Pad2)*%
X107000800Y-137501200D03*
%TO.P,K1,4*%
%TO.N,Net-(K1-Pad4)*%
X119200800Y-137501200D03*
%TO.P,K1,5*%
%TO.N,Net-(J6-Pad1)*%
X119200800Y-149501200D03*
%TO.P,K1,1*%
%TO.N,Net-(C11-Pad1)*%
X107000800Y-149501200D03*
D22*
%TO.P,K1,3*%
%TO.N,Net-(K1-Pad3)*%
X105000800Y-143501200D03*
%TD*%
D23*
%TO.P,KF3,4*%
%TO.N,Net-(KF3-Pad4)*%
X135330000Y-122530000D03*
X142950000Y-122530000D03*
%TO.P,KF3,3*%
%TO.N,Net-(J5-Pad5)*%
X135330000Y-127610000D03*
X142950000Y-127610000D03*
%TO.P,KF3,2*%
%TO.N,Net-(J5-Pad6)*%
X135330000Y-132690000D03*
X142950000Y-132690000D03*
D24*
%TO.P,KF3,1*%
%TO.N,GND*%
X135330000Y-137770000D03*
X142950000Y-137770000D03*
%TD*%
%TO.P,R3,2*%
%TO.N,Net-(R3-Pad2)*%
%TA.AperFunction,SMDPad,CuDef*%
G36*
G01*
X149041600Y-140823402D02*
X149041600Y-139573398D01*
G75*
G02*
X149291598Y-139323400I249998J0D01*
G01*
X149916602Y-139323400D01*
G75*
G02*
X150166600Y-139573398I0J-249998D01*
G01*
X150166600Y-140823402D01*
G75*
G02*
X149916602Y-141073400I-249998J0D01*
G01*
X149291598Y-141073400D01*
G75*
G02*
X149041600Y-140823402I0J249998D01*
G01*
G37*
%TD.AperFunction*%
%TO.P,R3,1*%
%TO.N,Net-(C11-Pad1)*%
%TA.AperFunction,SMDPad,CuDef*%
G36*
G01*
X146116600Y-140823402D02*
X146116600Y-139573398D01*
G75*
G02*
X146366598Y-139323400I249998J0D01*
G01*
X146991602Y-139323400D01*
G75*
G02*
X147241600Y-139573398I0J-249998D01*
G01*
X147241600Y-140823402D01*
G75*
G02*
X146991602Y-141073400I-249998J0D01*
G01*
X146366598Y-141073400D01*
G75*
G02*
X146116600Y-140823402I0J249998D01*
G01*
G37*
%TD.AperFunction*%
%TD*%
%TO.P,R2,2*%
%TO.N,Net-(R2-Pad2)*%
%TA.AperFunction,SMDPad,CuDef*%
G36*
G01*
X149041600Y-145649402D02*
X149041600Y-144399398D01*
G75*
G02*
X149291598Y-144149400I249998J0D01*
G01*
X149916602Y-144149400D01*
G75*
G02*
X150166600Y-144399398I0J-249998D01*
G01*
X150166600Y-145649402D01*
G75*
G02*
X149916602Y-145899400I-249998J0D01*
G01*
X149291598Y-145899400D01*
G75*
G02*
X149041600Y-145649402I0J249998D01*
G01*
G37*
%TD.AperFunction*%
%TO.P,R2,1*%
%TO.N,Net-(C11-Pad1)*%
%TA.AperFunction,SMDPad,CuDef*%
G36*
G01*
X146116600Y-145649402D02*
X146116600Y-144399398D01*
G75*
G02*
X146366598Y-144149400I249998J0D01*
G01*
X146991602Y-144149400D01*
G75*
G02*
X147241600Y-144399398I0J-249998D01*
G01*
X147241600Y-145649402D01*
G75*
G02*
X146991602Y-145899400I-249998J0D01*
G01*
X146366598Y-145899400D01*
G75*
G02*
X146116600Y-145649402I0J249998D01*
G01*
G37*
%TD.AperFunction*%
%TD*%
%TO.P,R1,2*%
%TO.N,Net-(R1-Pad2)*%
%TA.AperFunction,SMDPad,CuDef*%
G36*
G01*
X149092400Y-150272202D02*
X149092400Y-149022198D01*
G75*
G02*
X149342398Y-148772200I249998J0D01*
G01*
X149967402Y-148772200D01*
G75*
G02*
X150217400Y-149022198I0J-249998D01*
G01*
X150217400Y-150272202D01*
G75*
G02*
X149967402Y-150522200I-249998J0D01*
G01*
X149342398Y-150522200D01*
G75*
G02*
X149092400Y-150272202I0J249998D01*
G01*
G37*
%TD.AperFunction*%
%TO.P,R1,1*%
%TO.N,Net-(C11-Pad1)*%
%TA.AperFunction,SMDPad,CuDef*%
G36*
G01*
X146167400Y-150272202D02*
X146167400Y-149022198D01*
G75*
G02*
X146417398Y-148772200I249998J0D01*
G01*
X147042402Y-148772200D01*
G75*
G02*
X147292400Y-149022198I0J-249998D01*
G01*
X147292400Y-150272202D01*
G75*
G02*
X147042402Y-150522200I-249998J0D01*
G01*
X146417398Y-150522200D01*
G75*
G02*
X146167400Y-150272202I0J249998D01*
G01*
G37*
%TD.AperFunction*%
%TD*%
D25*
%TO.P,D4,1*%
%TO.N,Net-(C8-Pad1)*%
X71925000Y-148875000D03*
D26*
%TO.P,D4,2*%
%TO.N,Net-(D4-Pad2)*%
X71925000Y-171475000D03*
%TD*%
%TO.P,R11,2*%
%TO.N,Net-(J13-Pad15)*%
%TA.AperFunction,SMDPad,CuDef*%
G36*
G01*
X131374997Y-98900000D02*
X132625003Y-98900000D01*
G75*
G02*
X132875000Y-99149997I0J-249997D01*
G01*
X132875000Y-99775003D01*
G75*
G02*
X132625003Y-100025000I-249997J0D01*
G01*
X131374997Y-100025000D01*
G75*
G02*
X131125000Y-99775003I0J249997D01*
G01*
X131125000Y-99149997D01*
G75*
G02*
X131374997Y-98900000I249997J0D01*
G01*
G37*
%TD.AperFunction*%
%TO.P,R11,1*%
%TO.N,Net-(J10-Pad4)*%
%TA.AperFunction,SMDPad,CuDef*%
G36*
G01*
X131374997Y-95975000D02*
X132625003Y-95975000D01*
G75*
G02*
X132875000Y-96224997I0J-249997D01*
G01*
X132875000Y-96850003D01*
G75*
G02*
X132625003Y-97100000I-249997J0D01*
G01*
X131374997Y-97100000D01*
G75*
G02*
X131125000Y-96850003I0J249997D01*
G01*
X131125000Y-96224997D01*
G75*
G02*
X131374997Y-95975000I249997J0D01*
G01*
G37*
%TD.AperFunction*%
%TD*%
%TO.P,R10,2*%
%TO.N,Net-(J13-Pad15)*%
%TA.AperFunction,SMDPad,CuDef*%
G36*
G01*
X136374997Y-98900000D02*
X137625003Y-98900000D01*
G75*
G02*
X137875000Y-99149997I0J-249997D01*
G01*
X137875000Y-99775003D01*
G75*
G02*
X137625003Y-100025000I-249997J0D01*
G01*
X136374997Y-100025000D01*
G75*
G02*
X136125000Y-99775003I0J249997D01*
G01*
X136125000Y-99149997D01*
G75*
G02*
X136374997Y-98900000I249997J0D01*
G01*
G37*
%TD.AperFunction*%
%TO.P,R10,1*%
%TO.N,Net-(J10-Pad3)*%
%TA.AperFunction,SMDPad,CuDef*%
G36*
G01*
X136374997Y-95975000D02*
X137625003Y-95975000D01*
G75*
G02*
X137875000Y-96224997I0J-249997D01*
G01*
X137875000Y-96850003D01*
G75*
G02*
X137625003Y-97100000I-249997J0D01*
G01*
X136374997Y-97100000D01*
G75*
G02*
X136125000Y-96850003I0J249997D01*
G01*
X136125000Y-96224997D01*
G75*
G02*
X136374997Y-95975000I249997J0D01*
G01*
G37*
%TD.AperFunction*%
%TD*%
%TO.P,C2,2*%
%TO.N,GND*%
%TA.AperFunction,SMDPad,CuDef*%
G36*
G01*
X50625000Y-165850000D02*
X51575000Y-165850000D01*
G75*
G02*
X51825000Y-166100000I0J-250000D01*
G01*
X51825000Y-166600000D01*
G75*
G02*
X51575000Y-166850000I-250000J0D01*
G01*
X50625000Y-166850000D01*
G75*
G02*
X50375000Y-166600000I0J250000D01*
G01*
X50375000Y-166100000D01*
G75*
G02*
X50625000Y-165850000I250000J0D01*
G01*
G37*
%TD.AperFunction*%
%TO.P,C2,1*%
%TO.N,Net-(C2-Pad1)*%
%TA.AperFunction,SMDPad,CuDef*%
G36*
G01*
X50625000Y-163950000D02*
X51575000Y-163950000D01*
G75*
G02*
X51825000Y-164200000I0J-250000D01*
G01*
X51825000Y-164700000D01*
G75*
G02*
X51575000Y-164950000I-250000J0D01*
G01*
X50625000Y-164950000D01*
G75*
G02*
X50375000Y-164700000I0J250000D01*
G01*
X50375000Y-164200000D01*
G75*
G02*
X50625000Y-163950000I250000J0D01*
G01*
G37*
%TD.AperFunction*%
%TD*%
%TO.P,J2,MP*%
%TO.N,N/C*%
%TA.AperFunction,SMDPad,CuDef*%
G36*
G01*
X163852500Y-134892899D02*
X163852500Y-136192901D01*
G75*
G02*
X163602501Y-136442900I-249999J0D01*
G01*
X162902499Y-136442900D01*
G75*
G02*
X162652500Y-136192901I0J249999D01*
G01*
X162652500Y-134892899D01*
G75*
G02*
X162902499Y-134642900I249999J0D01*
G01*
X163602501Y-134642900D01*
G75*
G02*
X163852500Y-134892899I0J-249999D01*
G01*
G37*
%TD.AperFunction*%
%TA.AperFunction,SMDPad,CuDef*%
G36*
G01*
X169452500Y-134892899D02*
X169452500Y-136192901D01*
G75*
G02*
X169202501Y-136442900I-249999J0D01*
G01*
X168502499Y-136442900D01*
G75*
G02*
X168252500Y-136192901I0J249999D01*
G01*
X168252500Y-134892899D01*
G75*
G02*
X168502499Y-134642900I249999J0D01*
G01*
X169202501Y-134642900D01*
G75*
G02*
X169452500Y-134892899I0J-249999D01*
G01*
G37*
%TD.AperFunction*%
%TO.P,J2,4*%
%TO.N,Net-(J2-Pad4)*%
%TA.AperFunction,SMDPad,CuDef*%
G36*
G01*
X164852500Y-132392900D02*
X164852500Y-133642900D01*
G75*
G02*
X164702500Y-133792900I-150000J0D01*
G01*
X164402500Y-133792900D01*
G75*
G02*
X164252500Y-133642900I0J150000D01*
G01*
X164252500Y-132392900D01*
G75*
G02*
X164402500Y-132242900I150000J0D01*
G01*
X164702500Y-132242900D01*
G75*
G02*
X164852500Y-132392900I0J-150000D01*
G01*
G37*
%TD.AperFunction*%
%TO.P,J2,3*%
%TO.N,Net-(J2-Pad3)*%
%TA.AperFunction,SMDPad,CuDef*%
G36*
G01*
X165852500Y-132392900D02*
X165852500Y-133642900D01*
G75*
G02*
X165702500Y-133792900I-150000J0D01*
G01*
X165402500Y-133792900D01*
G75*
G02*
X165252500Y-133642900I0J150000D01*
G01*
X165252500Y-132392900D01*
G75*
G02*
X165402500Y-132242900I150000J0D01*
G01*
X165702500Y-132242900D01*
G75*
G02*
X165852500Y-132392900I0J-150000D01*
G01*
G37*
%TD.AperFunction*%
%TO.P,J2,2*%
%TO.N,Net-(J2-Pad2)*%
%TA.AperFunction,SMDPad,CuDef*%
G36*
G01*
X166852500Y-132392900D02*
X166852500Y-133642900D01*
G75*
G02*
X166702500Y-133792900I-150000J0D01*
G01*
X166402500Y-133792900D01*
G75*
G02*
X166252500Y-133642900I0J150000D01*
G01*
X166252500Y-132392900D01*
G75*
G02*
X166402500Y-132242900I150000J0D01*
G01*
X166702500Y-132242900D01*
G75*
G02*
X166852500Y-132392900I0J-150000D01*
G01*
G37*
%TD.AperFunction*%
%TO.P,J2,1*%
%TO.N,GND*%
%TA.AperFunction,SMDPad,CuDef*%
G36*
G01*
X167852500Y-132392900D02*
X167852500Y-133642900D01*
G75*
G02*
X167702500Y-133792900I-150000J0D01*
G01*
X167402500Y-133792900D01*
G75*
G02*
X167252500Y-133642900I0J150000D01*
G01*
X167252500Y-132392900D01*
G75*
G02*
X167402500Y-132242900I150000J0D01*
G01*
X167702500Y-132242900D01*
G75*
G02*
X167852500Y-132392900I0J-150000D01*
G01*
G37*
%TD.AperFunction*%
%TD*%
D27*
%TO.P,REF\u002A\u002A,8*%
%TO.N,N/C*%
X58560000Y-30380000D03*
X58560000Y-86380000D03*
X30560000Y-86380000D03*
X30560000Y-30380000D03*
X86440000Y-30380000D03*
X86440000Y-109120000D03*
X30560000Y-109120000D03*
%TD*%
D10*
%TO.P,J5,6*%
%TO.N,Net-(J5-Pad6)*%
X146761200Y-133517400D03*
%TO.P,J5,5*%
%TO.N,Net-(J5-Pad5)*%
X149301200Y-133517400D03*
%TO.P,J5,4*%
%TO.N,Net-(J14-Pad6)*%
X151841200Y-133517400D03*
%TO.P,J5,3*%
%TO.N,Net-(J14-Pad7)*%
X154381200Y-133517400D03*
%TO.P,J5,2*%
%TO.N,GND*%
X156921200Y-133517400D03*
D11*
%TO.P,J5,1*%
%TO.N,Net-(C1-Pad1)*%
X159461200Y-133517400D03*
%TD*%
%TO.P,C5,2*%
%TO.N,GND*%
%TA.AperFunction,SMDPad,CuDef*%
G36*
G01*
X156939000Y-129130400D02*
X155989000Y-129130400D01*
G75*
G02*
X155739000Y-128880400I0J250000D01*
G01*
X155739000Y-128380400D01*
G75*
G02*
X155989000Y-128130400I250000J0D01*
G01*
X156939000Y-128130400D01*
G75*
G02*
X157189000Y-128380400I0J-250000D01*
G01*
X157189000Y-128880400D01*
G75*
G02*
X156939000Y-129130400I-250000J0D01*
G01*
G37*
%TD.AperFunction*%
%TO.P,C5,1*%
%TO.N,Net-(C1-Pad1)*%
%TA.AperFunction,SMDPad,CuDef*%
G36*
G01*
X156939000Y-131030400D02*
X155989000Y-131030400D01*
G75*
G02*
X155739000Y-130780400I0J250000D01*
G01*
X155739000Y-130280400D01*
G75*
G02*
X155989000Y-130030400I250000J0D01*
G01*
X156939000Y-130030400D01*
G75*
G02*
X157189000Y-130280400I0J-250000D01*
G01*
X157189000Y-130780400D01*
G75*
G02*
X156939000Y-131030400I-250000J0D01*
G01*
G37*
%TD.AperFunction*%
%TD*%
D28*
%TO.P,J1,6*%
%TO.N,GND*%
X93735800Y-116670800D03*
%TO.P,J1,5*%
X93735800Y-103820800D03*
D29*
%TO.P,J1,4*%
X95935800Y-113745800D03*
%TO.P,J1,3*%
%TO.N,Net-(J1-Pad3)*%
X95935800Y-111245800D03*
%TO.P,J1,2*%
%TO.N,Net-(J1-Pad2)*%
X95935800Y-109245800D03*
D30*
%TO.P,J1,1*%
%TO.N,Net-(C11-Pad1)*%
X95935800Y-106745800D03*
%TD*%
D23*
%TO.P,KF1,2*%
%TO.N,Net-(C11-Pad1)*%
X60482200Y-168034600D03*
X60482200Y-175654600D03*
D24*
%TO.P,KF1,1*%
%TO.N,GND*%
X55402200Y-168034600D03*
X55402200Y-175654600D03*
%TD*%
D10*
%TO.P,J18,8*%
%TO.N,Net-(J18-Pad8)*%
X160248600Y-87594200D03*
%TO.P,J18,7*%
%TO.N,Net-(J18-Pad7)*%
X157708600Y-87594200D03*
%TO.P,J18,6*%
%TO.N,Net-(J18-Pad6)*%
X155168600Y-87594200D03*
%TO.P,J18,5*%
%TO.N,Net-(J18-Pad5)*%
X152628600Y-87594200D03*
%TO.P,J18,4*%
%TO.N,Net-(J18-Pad4)*%
X150088600Y-87594200D03*
%TO.P,J18,3*%
%TO.N,Net-(J18-Pad3)*%
X147548600Y-87594200D03*
%TO.P,J18,2*%
%TO.N,Net-(J18-Pad2)*%
X145008600Y-87594200D03*
D11*
%TO.P,J18,1*%
%TO.N,Net-(J18-Pad1)*%
X142468600Y-87594200D03*
%TD*%
D10*
%TO.P,J3,5*%
%TO.N,GND*%
X118287800Y-99783400D03*
%TO.P,J3,4*%
X115747800Y-99783400D03*
%TO.P,J3,3*%
%TO.N,Net-(J1-Pad3)*%
X113207800Y-99783400D03*
%TO.P,J3,2*%
%TO.N,Net-(J1-Pad2)*%
X110667800Y-99783400D03*
D11*
%TO.P,J3,1*%
%TO.N,Net-(J3-Pad1)*%
X108127800Y-99783400D03*
%TD*%
D31*
%TO.P,D3,2*%
%TO.N,GND*%
X78779000Y-150055200D03*
%TO.P,D3,1*%
%TO.N,Net-(D3-Pad1)*%
X78779000Y-154055200D03*
%TD*%
D32*
%TO.P,U1,8*%
%TO.N,Net-(C1-Pad1)*%
X164235160Y-127227420D03*
%TO.P,U1,7*%
%TO.N,Net-(J2-Pad3)*%
X162965160Y-127227420D03*
%TO.P,U1,6*%
%TO.N,Net-(J2-Pad4)*%
X161695160Y-127227420D03*
%TO.P,U1,5*%
%TO.N,GND*%
X160425160Y-127227420D03*
%TO.P,U1,4*%
%TO.N,Net-(J14-Pad3)*%
X160425160Y-122297420D03*
%TO.P,U1,3*%
X161695160Y-122297420D03*
%TO.P,U1,2*%
%TO.N,Net-(J14-Pad5)*%
X162965160Y-122297420D03*
%TO.P,U1,1*%
%TO.N,Net-(J14-Pad4)*%
X164235160Y-122297420D03*
%TD*%
%TO.P,C6,2*%
%TO.N,GND*%
%TA.AperFunction,SMDPad,CuDef*%
G36*
G01*
X82440800Y-127377800D02*
X81490800Y-127377800D01*
G75*
G02*
X81240800Y-127127800I0J250000D01*
G01*
X81240800Y-126627800D01*
G75*
G02*
X81490800Y-126377800I250000J0D01*
G01*
X82440800Y-126377800D01*
G75*
G02*
X82690800Y-126627800I0J-250000D01*
G01*
X82690800Y-127127800D01*
G75*
G02*
X82440800Y-127377800I-250000J0D01*
G01*
G37*
%TD.AperFunction*%
%TO.P,C6,1*%
%TO.N,Net-(C11-Pad1)*%
%TA.AperFunction,SMDPad,CuDef*%
G36*
G01*
X82440800Y-129277800D02*
X81490800Y-129277800D01*
G75*
G02*
X81240800Y-129027800I0J250000D01*
G01*
X81240800Y-128527800D01*
G75*
G02*
X81490800Y-128277800I250000J0D01*
G01*
X82440800Y-128277800D01*
G75*
G02*
X82690800Y-128527800I0J-250000D01*
G01*
X82690800Y-129027800D01*
G75*
G02*
X82440800Y-129277800I-250000J0D01*
G01*
G37*
%TD.AperFunction*%
%TD*%
D33*
%TO.P,D5,2*%
%TO.N,Net-(D5-Pad2)*%
X99260660Y-141184640D03*
%TO.P,D5,1*%
%TO.N,Net-(C11-Pad1)*%
X99260660Y-145184640D03*
%TD*%
D34*
%TO.P,IC1,1*%
%TO.N,GND*%
X84708600Y-124130800D03*
%TO.P,IC1,3*%
%TO.N,Net-(C11-Pad1)*%
X84708600Y-128730800D03*
%TO.P,IC1,2*%
%TO.N,Net-(C1-Pad1)*%
X84708600Y-126430800D03*
D35*
%TO.P,IC1,4*%
%TO.N,Net-(IC1-Pad4)*%
X91008600Y-126430800D03*
%TD*%
D36*
%TO.P,IC2,6*%
%TO.N,GND*%
X71800000Y-132625000D03*
D37*
%TO.P,IC2,5*%
X75200000Y-142255000D03*
%TO.P,IC2,4*%
%TO.N,Net-(C11-Pad1)*%
X73500000Y-142255000D03*
%TO.P,IC2,3*%
%TO.N,GND*%
X71800000Y-142255000D03*
%TO.P,IC2,2*%
%TO.N,Net-(D3-Pad1)*%
X70100000Y-142255000D03*
%TO.P,IC2,1*%
%TO.N,Net-(C8-Pad1)*%
X68400000Y-142255000D03*
%TD*%
%TO.P,C8,2*%
%TO.N,GND*%
%TA.AperFunction,SMDPad,CuDef*%
G36*
G01*
X65200000Y-142400000D02*
X64250000Y-142400000D01*
G75*
G02*
X64000000Y-142150000I0J250000D01*
G01*
X64000000Y-141650000D01*
G75*
G02*
X64250000Y-141400000I250000J0D01*
G01*
X65200000Y-141400000D01*
G75*
G02*
X65450000Y-141650000I0J-250000D01*
G01*
X65450000Y-142150000D01*
G75*
G02*
X65200000Y-142400000I-250000J0D01*
G01*
G37*
%TD.AperFunction*%
%TO.P,C8,1*%
%TO.N,Net-(C8-Pad1)*%
%TA.AperFunction,SMDPad,CuDef*%
G36*
G01*
X65200000Y-144300000D02*
X64250000Y-144300000D01*
G75*
G02*
X64000000Y-144050000I0J250000D01*
G01*
X64000000Y-143550000D01*
G75*
G02*
X64250000Y-143300000I250000J0D01*
G01*
X65200000Y-143300000D01*
G75*
G02*
X65450000Y-143550000I0J-250000D01*
G01*
X65450000Y-144050000D01*
G75*
G02*
X65200000Y-144300000I-250000J0D01*
G01*
G37*
%TD.AperFunction*%
%TD*%
D38*
%TO.P,L1,2*%
%TO.N,Net-(C11-Pad1)*%
X88544400Y-145026600D03*
%TO.P,L1,1*%
%TO.N,Net-(D3-Pad1)*%
X88544400Y-154926600D03*
%TD*%
%TO.P,C11,2*%
%TO.N,GND*%
%TA.AperFunction,SMDPad,CuDef*%
G36*
G01*
X85122000Y-135717800D02*
X85122000Y-137717800D01*
G75*
G02*
X84872000Y-137967800I-250000J0D01*
G01*
X80972000Y-137967800D01*
G75*
G02*
X80722000Y-137717800I0J250000D01*
G01*
X80722000Y-135717800D01*
G75*
G02*
X80972000Y-135467800I250000J0D01*
G01*
X84872000Y-135467800D01*
G75*
G02*
X85122000Y-135717800I0J-250000D01*
G01*
G37*
%TD.AperFunction*%
%TO.P,C11,1*%
%TO.N,Net-(C11-Pad1)*%
%TA.AperFunction,SMDPad,CuDef*%
G36*
G01*
X93522000Y-135717800D02*
X93522000Y-137717800D01*
G75*
G02*
X93272000Y-137967800I-250000J0D01*
G01*
X89372000Y-137967800D01*
G75*
G02*
X89122000Y-137717800I0J250000D01*
G01*
X89122000Y-135717800D01*
G75*
G02*
X89372000Y-135467800I250000J0D01*
G01*
X93272000Y-135467800D01*
G75*
G02*
X93522000Y-135717800I0J-250000D01*
G01*
G37*
%TD.AperFunction*%
%TD*%
%TO.P,C9,2*%
%TO.N,GND*%
%TA.AperFunction,SMDPad,CuDef*%
G36*
G01*
X57969400Y-155402800D02*
X57969400Y-157402800D01*
G75*
G02*
X57719400Y-157652800I-250000J0D01*
G01*
X53819400Y-157652800D01*
G75*
G02*
X53569400Y-157402800I0J250000D01*
G01*
X53569400Y-155402800D01*
G75*
G02*
X53819400Y-155152800I250000J0D01*
G01*
X57719400Y-155152800D01*
G75*
G02*
X57969400Y-155402800I0J-250000D01*
G01*
G37*
%TD.AperFunction*%
%TO.P,C9,1*%
%TO.N,Net-(C8-Pad1)*%
%TA.AperFunction,SMDPad,CuDef*%
G36*
G01*
X66369400Y-155402800D02*
X66369400Y-157402800D01*
G75*
G02*
X66119400Y-157652800I-250000J0D01*
G01*
X62219400Y-157652800D01*
G75*
G02*
X61969400Y-157402800I0J250000D01*
G01*
X61969400Y-155402800D01*
G75*
G02*
X62219400Y-155152800I250000J0D01*
G01*
X66119400Y-155152800D01*
G75*
G02*
X66369400Y-155402800I0J-250000D01*
G01*
G37*
%TD.AperFunction*%
%TD*%
%TO.P,R4,2*%
%TO.N,Net-(R4-Pad2)*%
%TA.AperFunction,SMDPad,CuDef*%
G36*
G01*
X127850000Y-114550003D02*
X127850000Y-113299997D01*
G75*
G02*
X128099997Y-113050000I249997J0D01*
G01*
X128725003Y-113050000D01*
G75*
G02*
X128975000Y-113299997I0J-249997D01*
G01*
X128975000Y-114550003D01*
G75*
G02*
X128725003Y-114800000I-249997J0D01*
G01*
X128099997Y-114800000D01*
G75*
G02*
X127850000Y-114550003I0J249997D01*
G01*
G37*
%TD.AperFunction*%
%TO.P,R4,1*%
%TO.N,Net-(J13-Pad13)*%
%TA.AperFunction,SMDPad,CuDef*%
G36*
G01*
X124925000Y-114550003D02*
X124925000Y-113299997D01*
G75*
G02*
X125174997Y-113050000I249997J0D01*
G01*
X125800003Y-113050000D01*
G75*
G02*
X126050000Y-113299997I0J-249997D01*
G01*
X126050000Y-114550003D01*
G75*
G02*
X125800003Y-114800000I-249997J0D01*
G01*
X125174997Y-114800000D01*
G75*
G02*
X124925000Y-114550003I0J249997D01*
G01*
G37*
%TD.AperFunction*%
%TD*%
%TO.P,R5,2*%
%TO.N,Net-(J2-Pad4)*%
%TA.AperFunction,SMDPad,CuDef*%
G36*
G01*
X161355200Y-129473557D02*
X161355200Y-130723563D01*
G75*
G02*
X161105203Y-130973560I-249997J0D01*
G01*
X160480197Y-130973560D01*
G75*
G02*
X160230200Y-130723563I0J249997D01*
G01*
X160230200Y-129473557D01*
G75*
G02*
X160480197Y-129223560I249997J0D01*
G01*
X161105203Y-129223560D01*
G75*
G02*
X161355200Y-129473557I0J-249997D01*
G01*
G37*
%TD.AperFunction*%
%TO.P,R5,1*%
%TO.N,Net-(J2-Pad3)*%
%TA.AperFunction,SMDPad,CuDef*%
G36*
G01*
X164280200Y-129473557D02*
X164280200Y-130723563D01*
G75*
G02*
X164030203Y-130973560I-249997J0D01*
G01*
X163405197Y-130973560D01*
G75*
G02*
X163155200Y-130723563I0J249997D01*
G01*
X163155200Y-129473557D01*
G75*
G02*
X163405197Y-129223560I249997J0D01*
G01*
X164030203Y-129223560D01*
G75*
G02*
X164280200Y-129473557I0J-249997D01*
G01*
G37*
%TD.AperFunction*%
%TD*%
%TO.P,U5,4*%
%TO.N,Net-(J6-Pad3)*%
%TA.AperFunction,SMDPad,CuDef*%
G36*
G01*
X127746400Y-124455000D02*
X128693600Y-124455000D01*
G75*
G02*
X128960000Y-124721400I0J-266400D01*
G01*
X128960000Y-126338600D01*
G75*
G02*
X128693600Y-126605000I-266400J0D01*
G01*
X127746400Y-126605000D01*
G75*
G02*
X127480000Y-126338600I0J266400D01*
G01*
X127480000Y-124721400D01*
G75*
G02*
X127746400Y-124455000I266400J0D01*
G01*
G37*
%TD.AperFunction*%
%TO.P,U5,3*%
%TO.N,GND*%
%TA.AperFunction,SMDPad,CuDef*%
G36*
G01*
X125206400Y-124455000D02*
X126153600Y-124455000D01*
G75*
G02*
X126420000Y-124721400I0J-266400D01*
G01*
X126420000Y-126338600D01*
G75*
G02*
X126153600Y-126605000I-266400J0D01*
G01*
X125206400Y-126605000D01*
G75*
G02*
X124940000Y-126338600I0J266400D01*
G01*
X124940000Y-124721400D01*
G75*
G02*
X125206400Y-124455000I266400J0D01*
G01*
G37*
%TD.AperFunction*%
%TO.P,U5,2*%
%TA.AperFunction,SMDPad,CuDef*%
G36*
G01*
X125206400Y-115895000D02*
X126153600Y-115895000D01*
G75*
G02*
X126420000Y-116161400I0J-266400D01*
G01*
X126420000Y-117778600D01*
G75*
G02*
X126153600Y-118045000I-266400J0D01*
G01*
X125206400Y-118045000D01*
G75*
G02*
X124940000Y-117778600I0J266400D01*
G01*
X124940000Y-116161400D01*
G75*
G02*
X125206400Y-115895000I266400J0D01*
G01*
G37*
%TD.AperFunction*%
%TO.P,U5,1*%
%TO.N,Net-(R4-Pad2)*%
%TA.AperFunction,SMDPad,CuDef*%
G36*
G01*
X127746400Y-115895000D02*
X128693600Y-115895000D01*
G75*
G02*
X128960000Y-116161400I0J-266400D01*
G01*
X128960000Y-117778600D01*
G75*
G02*
X128693600Y-118045000I-266400J0D01*
G01*
X127746400Y-118045000D01*
G75*
G02*
X127480000Y-117778600I0J266400D01*
G01*
X127480000Y-116161400D01*
G75*
G02*
X127746400Y-115895000I266400J0D01*
G01*
G37*
%TD.AperFunction*%
%TD*%
%TO.P,C4,2*%
%TO.N,GND*%
%TA.AperFunction,SMDPad,CuDef*%
G36*
G01*
X136350000Y-147200000D02*
X136350000Y-146250000D01*
G75*
G02*
X136600000Y-146000000I250000J0D01*
G01*
X137100000Y-146000000D01*
G75*
G02*
X137350000Y-146250000I0J-250000D01*
G01*
X137350000Y-147200000D01*
G75*
G02*
X137100000Y-147450000I-250000J0D01*
G01*
X136600000Y-147450000D01*
G75*
G02*
X136350000Y-147200000I0J250000D01*
G01*
G37*
%TD.AperFunction*%
%TO.P,C4,1*%
%TO.N,Net-(C11-Pad1)*%
%TA.AperFunction,SMDPad,CuDef*%
G36*
G01*
X134450000Y-147200000D02*
X134450000Y-146250000D01*
G75*
G02*
X134700000Y-146000000I250000J0D01*
G01*
X135200000Y-146000000D01*
G75*
G02*
X135450000Y-146250000I0J-250000D01*
G01*
X135450000Y-147200000D01*
G75*
G02*
X135200000Y-147450000I-250000J0D01*
G01*
X134700000Y-147450000D01*
G75*
G02*
X134450000Y-147200000I0J250000D01*
G01*
G37*
%TD.AperFunction*%
%TD*%
D10*
%TO.P,J9,8*%
%TO.N,Net-(C11-Pad1)*%
X54295000Y-125179400D03*
%TO.P,J9,7*%
%TO.N,GND*%
X51755000Y-125179400D03*
%TO.P,J9,6*%
%TO.N,Net-(J9-Pad6)*%
X49215000Y-125179400D03*
%TO.P,J9,5*%
%TO.N,Net-(J9-Pad5)*%
X46675000Y-125179400D03*
%TO.P,J9,4*%
%TO.N,Net-(J9-Pad4)*%
X44135000Y-125179400D03*
%TO.P,J9,3*%
%TO.N,Net-(J9-Pad3)*%
X41595000Y-125179400D03*
%TO.P,J9,2*%
%TO.N,Net-(J13-Pad3)*%
X39055000Y-125179400D03*
D11*
%TO.P,J9,1*%
%TO.N,Net-(J13-Pad2)*%
X36515000Y-125179400D03*
%TD*%
D10*
%TO.P,J7,8*%
%TO.N,Net-(J7-Pad8)*%
X54295000Y-148039400D03*
%TO.P,J7,7*%
%TO.N,Net-(J7-Pad7)*%
X51755000Y-148039400D03*
%TO.P,J7,6*%
%TO.N,Net-(J7-Pad6)*%
X49215000Y-148039400D03*
%TO.P,J7,5*%
%TO.N,Net-(J7-Pad5)*%
X46675000Y-148039400D03*
%TO.P,J7,4*%
%TO.N,Net-(J7-Pad4)*%
X44135000Y-148039400D03*
%TO.P,J7,3*%
%TO.N,Net-(J7-Pad3)*%
X41595000Y-148039400D03*
%TO.P,J7,2*%
%TO.N,Net-(J7-Pad2)*%
X39055000Y-148039400D03*
D11*
%TO.P,J7,1*%
%TO.N,Net-(J7-Pad1)*%
X36515000Y-148039400D03*
%TD*%
%TO.P,C3,2*%
%TO.N,GND*%
%TA.AperFunction,SMDPad,CuDef*%
G36*
G01*
X57335400Y-126601400D02*
X58285400Y-126601400D01*
G75*
G02*
X58535400Y-126851400I0J-250000D01*
G01*
X58535400Y-127351400D01*
G75*
G02*
X58285400Y-127601400I-250000J0D01*
G01*
X57335400Y-127601400D01*
G75*
G02*
X57085400Y-127351400I0J250000D01*
G01*
X57085400Y-126851400D01*
G75*
G02*
X57335400Y-126601400I250000J0D01*
G01*
G37*
%TD.AperFunction*%
%TO.P,C3,1*%
%TO.N,Net-(C11-Pad1)*%
%TA.AperFunction,SMDPad,CuDef*%
G36*
G01*
X57335400Y-124701400D02*
X58285400Y-124701400D01*
G75*
G02*
X58535400Y-124951400I0J-250000D01*
G01*
X58535400Y-125451400D01*
G75*
G02*
X58285400Y-125701400I-250000J0D01*
G01*
X57335400Y-125701400D01*
G75*
G02*
X57085400Y-125451400I0J250000D01*
G01*
X57085400Y-124951400D01*
G75*
G02*
X57335400Y-124701400I250000J0D01*
G01*
G37*
%TD.AperFunction*%
%TD*%
D39*
%TO.P,U6,5*%
%TO.N,GND*%
X131950000Y-150430000D03*
%TO.P,U6,6*%
%TO.N,Net-(U6-Pad6)*%
X131950000Y-149160000D03*
%TO.P,U6,8*%
%TO.N,Net-(C11-Pad1)*%
X131950000Y-146620000D03*
%TO.P,U6,4*%
%TO.N,Net-(J6-Pad2)*%
X126550000Y-150430000D03*
%TO.P,U6,3*%
X126550000Y-149160000D03*
%TO.P,U6,1*%
%TO.N,Net-(KF2-Pad5)*%
X126550000Y-146620000D03*
%TO.P,U6,7*%
%TO.N,Net-(R8-Pad2)*%
X131950000Y-147890000D03*
%TO.P,U6,2*%
%TO.N,Net-(KF2-Pad5)*%
X126550000Y-147890000D03*
%TD*%
%TO.P,U3,4*%
%TO.N,Net-(J18-Pad2)*%
%TA.AperFunction,SMDPad,CuDef*%
G36*
G01*
X160515600Y-142063000D02*
X159568400Y-142063000D01*
G75*
G02*
X159302000Y-141796600I0J266400D01*
G01*
X159302000Y-140179400D01*
G75*
G02*
X159568400Y-139913000I266400J0D01*
G01*
X160515600Y-139913000D01*
G75*
G02*
X160782000Y-140179400I0J-266400D01*
G01*
X160782000Y-141796600D01*
G75*
G02*
X160515600Y-142063000I-266400J0D01*
G01*
G37*
%TD.AperFunction*%
%TO.P,U3,3*%
%TO.N,GND*%
%TA.AperFunction,SMDPad,CuDef*%
G36*
G01*
X163055600Y-142063000D02*
X162108400Y-142063000D01*
G75*
G02*
X161842000Y-141796600I0J266400D01*
G01*
X161842000Y-140179400D01*
G75*
G02*
X162108400Y-139913000I266400J0D01*
G01*
X163055600Y-139913000D01*
G75*
G02*
X163322000Y-140179400I0J-266400D01*
G01*
X163322000Y-141796600D01*
G75*
G02*
X163055600Y-142063000I-266400J0D01*
G01*
G37*
%TD.AperFunction*%
%TO.P,U3,2*%
%TO.N,Net-(J6-Pad8)*%
%TA.AperFunction,SMDPad,CuDef*%
G36*
G01*
X163055600Y-150623000D02*
X162108400Y-150623000D01*
G75*
G02*
X161842000Y-150356600I0J266400D01*
G01*
X161842000Y-148739400D01*
G75*
G02*
X162108400Y-148473000I266400J0D01*
G01*
X163055600Y-148473000D01*
G75*
G02*
X163322000Y-148739400I0J-266400D01*
G01*
X163322000Y-150356600D01*
G75*
G02*
X163055600Y-150623000I-266400J0D01*
G01*
G37*
%TD.AperFunction*%
%TO.P,U3,1*%
%TO.N,Net-(R2-Pad2)*%
%TA.AperFunction,SMDPad,CuDef*%
G36*
G01*
X160515600Y-150623000D02*
X159568400Y-150623000D01*
G75*
G02*
X159302000Y-150356600I0J266400D01*
G01*
X159302000Y-148739400D01*
G75*
G02*
X159568400Y-148473000I266400J0D01*
G01*
X160515600Y-148473000D01*
G75*
G02*
X160782000Y-148739400I0J-266400D01*
G01*
X160782000Y-150356600D01*
G75*
G02*
X160515600Y-150623000I-266400J0D01*
G01*
G37*
%TD.AperFunction*%
%TD*%
%TO.P,U2,4*%
%TO.N,Net-(J14-Pad8)*%
%TA.AperFunction,SMDPad,CuDef*%
G36*
G01*
X154365600Y-142063000D02*
X153418400Y-142063000D01*
G75*
G02*
X153152000Y-141796600I0J266400D01*
G01*
X153152000Y-140179400D01*
G75*
G02*
X153418400Y-139913000I266400J0D01*
G01*
X154365600Y-139913000D01*
G75*
G02*
X154632000Y-140179400I0J-266400D01*
G01*
X154632000Y-141796600D01*
G75*
G02*
X154365600Y-142063000I-266400J0D01*
G01*
G37*
%TD.AperFunction*%
%TO.P,U2,3*%
%TO.N,GND*%
%TA.AperFunction,SMDPad,CuDef*%
G36*
G01*
X156905600Y-142063000D02*
X155958400Y-142063000D01*
G75*
G02*
X155692000Y-141796600I0J266400D01*
G01*
X155692000Y-140179400D01*
G75*
G02*
X155958400Y-139913000I266400J0D01*
G01*
X156905600Y-139913000D01*
G75*
G02*
X157172000Y-140179400I0J-266400D01*
G01*
X157172000Y-141796600D01*
G75*
G02*
X156905600Y-142063000I-266400J0D01*
G01*
G37*
%TD.AperFunction*%
%TO.P,U2,2*%
%TO.N,Net-(J6-Pad9)*%
%TA.AperFunction,SMDPad,CuDef*%
G36*
G01*
X156905600Y-150623000D02*
X155958400Y-150623000D01*
G75*
G02*
X155692000Y-150356600I0J266400D01*
G01*
X155692000Y-148739400D01*
G75*
G02*
X155958400Y-148473000I266400J0D01*
G01*
X156905600Y-148473000D01*
G75*
G02*
X157172000Y-148739400I0J-266400D01*
G01*
X157172000Y-150356600D01*
G75*
G02*
X156905600Y-150623000I-266400J0D01*
G01*
G37*
%TD.AperFunction*%
%TO.P,U2,1*%
%TO.N,Net-(R1-Pad2)*%
%TA.AperFunction,SMDPad,CuDef*%
G36*
G01*
X154365600Y-150623000D02*
X153418400Y-150623000D01*
G75*
G02*
X153152000Y-150356600I0J266400D01*
G01*
X153152000Y-148739400D01*
G75*
G02*
X153418400Y-148473000I266400J0D01*
G01*
X154365600Y-148473000D01*
G75*
G02*
X154632000Y-148739400I0J-266400D01*
G01*
X154632000Y-150356600D01*
G75*
G02*
X154365600Y-150623000I-266400J0D01*
G01*
G37*
%TD.AperFunction*%
%TD*%
D23*
%TO.P,KF2,6*%
%TO.N,Net-(J6-Pad12)*%
X103872600Y-167009600D03*
X103872600Y-174629600D03*
%TO.P,KF2,5*%
%TO.N,Net-(KF2-Pad5)*%
X98792600Y-167009600D03*
X98792600Y-174629600D03*
%TO.P,KF2,4*%
%TO.N,Net-(K1-Pad3)*%
X93712600Y-167009600D03*
X93712600Y-174629600D03*
%TO.P,KF2,3*%
%TO.N,GND*%
X88632600Y-167009600D03*
X88632600Y-174629600D03*
%TO.P,KF2,2*%
%TO.N,Net-(D4-Pad2)*%
X83552600Y-167009600D03*
X83552600Y-174629600D03*
D24*
%TO.P,KF2,1*%
X78472600Y-167009600D03*
X78472600Y-174629600D03*
%TD*%
%TO.P,J19,MP*%
%TO.N,N/C*%
%TA.AperFunction,SMDPad,CuDef*%
G36*
G01*
X165230800Y-87189399D02*
X165230800Y-88489401D01*
G75*
G02*
X164980801Y-88739400I-249999J0D01*
G01*
X164280799Y-88739400D01*
G75*
G02*
X164030800Y-88489401I0J249999D01*
G01*
X164030800Y-87189399D01*
G75*
G02*
X164280799Y-86939400I249999J0D01*
G01*
X164980801Y-86939400D01*
G75*
G02*
X165230800Y-87189399I0J-249999D01*
G01*
G37*
%TD.AperFunction*%
%TA.AperFunction,SMDPad,CuDef*%
G36*
G01*
X170830800Y-87189399D02*
X170830800Y-88489401D01*
G75*
G02*
X170580801Y-88739400I-249999J0D01*
G01*
X169880799Y-88739400D01*
G75*
G02*
X169630800Y-88489401I0J249999D01*
G01*
X169630800Y-87189399D01*
G75*
G02*
X169880799Y-86939400I249999J0D01*
G01*
X170580801Y-86939400D01*
G75*
G02*
X170830800Y-87189399I0J-249999D01*
G01*
G37*
%TD.AperFunction*%
%TO.P,J19,4*%
%TO.N,Net-(J18-Pad5)*%
%TA.AperFunction,SMDPad,CuDef*%
G36*
G01*
X166230800Y-84689400D02*
X166230800Y-85939400D01*
G75*
G02*
X166080800Y-86089400I-150000J0D01*
G01*
X165780800Y-86089400D01*
G75*
G02*
X165630800Y-85939400I0J150000D01*
G01*
X165630800Y-84689400D01*
G75*
G02*
X165780800Y-84539400I150000J0D01*
G01*
X166080800Y-84539400D01*
G75*
G02*
X166230800Y-84689400I0J-150000D01*
G01*
G37*
%TD.AperFunction*%
%TO.P,J19,3*%
%TO.N,Net-(J18-Pad4)*%
%TA.AperFunction,SMDPad,CuDef*%
G36*
G01*
X167230800Y-84689400D02*
X167230800Y-85939400D01*
G75*
G02*
X167080800Y-86089400I-150000J0D01*
G01*
X166780800Y-86089400D01*
G75*
G02*
X166630800Y-85939400I0J150000D01*
G01*
X166630800Y-84689400D01*
G75*
G02*
X166780800Y-84539400I150000J0D01*
G01*
X167080800Y-84539400D01*
G75*
G02*
X167230800Y-84689400I0J-150000D01*
G01*
G37*
%TD.AperFunction*%
%TO.P,J19,2*%
%TO.N,Net-(J19-Pad2)*%
%TA.AperFunction,SMDPad,CuDef*%
G36*
G01*
X168230800Y-84689400D02*
X168230800Y-85939400D01*
G75*
G02*
X168080800Y-86089400I-150000J0D01*
G01*
X167780800Y-86089400D01*
G75*
G02*
X167630800Y-85939400I0J150000D01*
G01*
X167630800Y-84689400D01*
G75*
G02*
X167780800Y-84539400I150000J0D01*
G01*
X168080800Y-84539400D01*
G75*
G02*
X168230800Y-84689400I0J-150000D01*
G01*
G37*
%TD.AperFunction*%
%TO.P,J19,1*%
%TO.N,GND*%
%TA.AperFunction,SMDPad,CuDef*%
G36*
G01*
X169230800Y-84689400D02*
X169230800Y-85939400D01*
G75*
G02*
X169080800Y-86089400I-150000J0D01*
G01*
X168780800Y-86089400D01*
G75*
G02*
X168630800Y-85939400I0J150000D01*
G01*
X168630800Y-84689400D01*
G75*
G02*
X168780800Y-84539400I150000J0D01*
G01*
X169080800Y-84539400D01*
G75*
G02*
X169230800Y-84689400I0J-150000D01*
G01*
G37*
%TD.AperFunction*%
%TD*%
%TO.P,C10,2*%
%TO.N,GND*%
%TA.AperFunction,SMDPad,CuDef*%
G36*
G01*
X116550000Y-125925000D02*
X115600000Y-125925000D01*
G75*
G02*
X115350000Y-125675000I0J250000D01*
G01*
X115350000Y-125175000D01*
G75*
G02*
X115600000Y-124925000I250000J0D01*
G01*
X116550000Y-124925000D01*
G75*
G02*
X116800000Y-125175000I0J-250000D01*
G01*
X116800000Y-125675000D01*
G75*
G02*
X116550000Y-125925000I-250000J0D01*
G01*
G37*
%TD.AperFunction*%
%TO.P,C10,1*%
%TO.N,Net-(C1-Pad1)*%
%TA.AperFunction,SMDPad,CuDef*%
G36*
G01*
X116550000Y-127825000D02*
X115600000Y-127825000D01*
G75*
G02*
X115350000Y-127575000I0J250000D01*
G01*
X115350000Y-127075000D01*
G75*
G02*
X115600000Y-126825000I250000J0D01*
G01*
X116550000Y-126825000D01*
G75*
G02*
X116800000Y-127075000I0J-250000D01*
G01*
X116800000Y-127575000D01*
G75*
G02*
X116550000Y-127825000I-250000J0D01*
G01*
G37*
%TD.AperFunction*%
%TD*%
%TO.P,C1,2*%
%TO.N,GND*%
%TA.AperFunction,SMDPad,CuDef*%
G36*
G01*
X157513000Y-125621200D02*
X158463000Y-125621200D01*
G75*
G02*
X158713000Y-125871200I0J-250000D01*
G01*
X158713000Y-126371200D01*
G75*
G02*
X158463000Y-126621200I-250000J0D01*
G01*
X157513000Y-126621200D01*
G75*
G02*
X157263000Y-126371200I0J250000D01*
G01*
X157263000Y-125871200D01*
G75*
G02*
X157513000Y-125621200I250000J0D01*
G01*
G37*
%TD.AperFunction*%
%TO.P,C1,1*%
%TO.N,Net-(C1-Pad1)*%
%TA.AperFunction,SMDPad,CuDef*%
G36*
G01*
X157513000Y-123721200D02*
X158463000Y-123721200D01*
G75*
G02*
X158713000Y-123971200I0J-250000D01*
G01*
X158713000Y-124471200D01*
G75*
G02*
X158463000Y-124721200I-250000J0D01*
G01*
X157513000Y-124721200D01*
G75*
G02*
X157263000Y-124471200I0J250000D01*
G01*
X157263000Y-123971200D01*
G75*
G02*
X157513000Y-123721200I250000J0D01*
G01*
G37*
%TD.AperFunction*%
%TD*%
D40*
%TO.P,J27,4*%
%TO.N,GND*%
X94145100Y-66654700D03*
%TO.P,J27,3*%
%TO.N,Net-(J27-Pad3)*%
X94145100Y-64654700D03*
%TO.P,J27,2*%
%TO.N,Net-(J17-Pad4)*%
X94145100Y-62654700D03*
D41*
%TO.P,J27,1*%
%TO.N,Net-(J17-Pad5)*%
X94145100Y-60654700D03*
%TD*%
%TO.P,U4,4*%
%TO.N,Net-(J18-Pad3)*%
%TA.AperFunction,SMDPad,CuDef*%
G36*
G01*
X166665600Y-142063000D02*
X165718400Y-142063000D01*
G75*
G02*
X165452000Y-141796600I0J266400D01*
G01*
X165452000Y-140179400D01*
G75*
G02*
X165718400Y-139913000I266400J0D01*
G01*
X166665600Y-139913000D01*
G75*
G02*
X166932000Y-140179400I0J-266400D01*
G01*
X166932000Y-141796600D01*
G75*
G02*
X166665600Y-142063000I-266400J0D01*
G01*
G37*
%TD.AperFunction*%
%TO.P,U4,3*%
%TO.N,GND*%
%TA.AperFunction,SMDPad,CuDef*%
G36*
G01*
X169205600Y-142063000D02*
X168258400Y-142063000D01*
G75*
G02*
X167992000Y-141796600I0J266400D01*
G01*
X167992000Y-140179400D01*
G75*
G02*
X168258400Y-139913000I266400J0D01*
G01*
X169205600Y-139913000D01*
G75*
G02*
X169472000Y-140179400I0J-266400D01*
G01*
X169472000Y-141796600D01*
G75*
G02*
X169205600Y-142063000I-266400J0D01*
G01*
G37*
%TD.AperFunction*%
%TO.P,U4,2*%
%TO.N,Net-(J6-Pad7)*%
%TA.AperFunction,SMDPad,CuDef*%
G36*
G01*
X169205600Y-150623000D02*
X168258400Y-150623000D01*
G75*
G02*
X167992000Y-150356600I0J266400D01*
G01*
X167992000Y-148739400D01*
G75*
G02*
X168258400Y-148473000I266400J0D01*
G01*
X169205600Y-148473000D01*
G75*
G02*
X169472000Y-148739400I0J-266400D01*
G01*
X169472000Y-150356600D01*
G75*
G02*
X169205600Y-150623000I-266400J0D01*
G01*
G37*
%TD.AperFunction*%
%TO.P,U4,1*%
%TO.N,Net-(R3-Pad2)*%
%TA.AperFunction,SMDPad,CuDef*%
G36*
G01*
X166665600Y-150623000D02*
X165718400Y-150623000D01*
G75*
G02*
X165452000Y-150356600I0J266400D01*
G01*
X165452000Y-148739400D01*
G75*
G02*
X165718400Y-148473000I266400J0D01*
G01*
X166665600Y-148473000D01*
G75*
G02*
X166932000Y-148739400I0J-266400D01*
G01*
X166932000Y-150356600D01*
G75*
G02*
X166665600Y-150623000I-266400J0D01*
G01*
G37*
%TD.AperFunction*%
%TD*%
D42*
%TO.P,Q1,3*%
%TO.N,Net-(D5-Pad2)*%
X97825000Y-138000000D03*
%TO.P,Q1,2*%
%TO.N,GND*%
X96875000Y-136000000D03*
%TO.P,Q1,1*%
%TO.N,Net-(Q1-Pad1)*%
X98775000Y-136000000D03*
%TD*%
D10*
%TO.P,J26,8*%
%TO.N,Net-(J18-Pad7)*%
X165608000Y-31511000D03*
%TO.P,J26,7*%
%TO.N,Net-(J18-Pad6)*%
X163068000Y-31511000D03*
%TO.P,J26,6*%
%TO.N,Net-(J17-Pad13)*%
X160528000Y-31511000D03*
%TO.P,J26,5*%
%TO.N,Net-(J26-Pad5)*%
X157988000Y-31511000D03*
%TO.P,J26,4*%
%TO.N,Net-(J26-Pad4)*%
X155448000Y-31511000D03*
%TO.P,J26,3*%
%TO.N,Net-(J26-Pad3)*%
X152908000Y-31511000D03*
%TO.P,J26,2*%
%TO.N,Net-(J26-Pad2)*%
X150368000Y-31511000D03*
D11*
%TO.P,J26,1*%
%TO.N,Net-(J26-Pad1)*%
X147828000Y-31511000D03*
%TD*%
D10*
%TO.P,J25,10*%
%TO.N,Net-(J17-Pad12)*%
X143768000Y-31511000D03*
%TO.P,J25,9*%
%TO.N,Net-(J25-Pad9)*%
X141228000Y-31511000D03*
%TO.P,J25,8*%
%TO.N,Net-(J25-Pad8)*%
X138688000Y-31511000D03*
%TO.P,J25,7*%
%TO.N,Net-(J25-Pad7)*%
X136148000Y-31511000D03*
%TO.P,J25,6*%
%TO.N,Net-(J25-Pad6)*%
X133608000Y-31511000D03*
%TO.P,J25,5*%
%TO.N,Net-(J25-Pad5)*%
X131068000Y-31511000D03*
%TO.P,J25,4*%
%TO.N,GND*%
X128528000Y-31511000D03*
%TO.P,J25,3*%
%TO.N,Net-(J25-Pad3)*%
X125988000Y-31511000D03*
%TO.P,J25,2*%
%TO.N,Net-(J25-Pad2)*%
X123448000Y-31511000D03*
D11*
%TO.P,J25,1*%
%TO.N,Net-(J25-Pad1)*%
X120908000Y-31511000D03*
%TD*%
D10*
%TO.P,J24,10*%
%TO.N,Net-(J24-Pad10)*%
X110794800Y-35336400D03*
%TO.P,J24,9*%
%TO.N,Net-(J24-Pad9)*%
X113334800Y-35336400D03*
%TO.P,J24,8*%
%TO.N,Net-(J24-Pad8)*%
X115874800Y-35336400D03*
%TO.P,J24,7*%
%TO.N,Net-(J24-Pad7)*%
X118414800Y-35336400D03*
%TO.P,J24,6*%
%TO.N,Net-(J24-Pad6)*%
X120954800Y-35336400D03*
%TO.P,J24,5*%
%TO.N,Net-(J24-Pad5)*%
X123494800Y-35336400D03*
%TO.P,J24,4*%
%TO.N,Net-(J24-Pad4)*%
X126034800Y-35336400D03*
%TO.P,J24,3*%
%TO.N,Net-(J24-Pad3)*%
X128574800Y-35336400D03*
%TO.P,J24,2*%
%TO.N,Net-(J24-Pad2)*%
X131114800Y-35336400D03*
D11*
%TO.P,J24,1*%
%TO.N,Net-(J24-Pad1)*%
X133654800Y-35336400D03*
%TD*%
D10*
%TO.P,J23,6*%
%TO.N,Net-(J23-Pad6)*%
X165608000Y-79771000D03*
%TO.P,J23,5*%
%TO.N,Net-(J23-Pad5)*%
X163068000Y-79771000D03*
%TO.P,J23,4*%
%TO.N,Net-(J23-Pad4)*%
X160528000Y-79771000D03*
%TO.P,J23,3*%
%TO.N,Net-(J23-Pad3)*%
X157988000Y-79771000D03*
%TO.P,J23,2*%
%TO.N,Net-(J23-Pad2)*%
X155448000Y-79771000D03*
D11*
%TO.P,J23,1*%
%TO.N,Net-(J23-Pad1)*%
X152908000Y-79771000D03*
%TD*%
D10*
%TO.P,J22,8*%
%TO.N,Net-(J22-Pad8)*%
X147828000Y-79771000D03*
%TO.P,J22,7*%
%TO.N,GND*%
X145288000Y-79771000D03*
%TO.P,J22,6*%
X142748000Y-79771000D03*
%TO.P,J22,5*%
%TO.N,Net-(C11-Pad1)*%
X140208000Y-79771000D03*
%TO.P,J22,4*%
%TO.N,Net-(J22-Pad4)*%
X137668000Y-79771000D03*
%TO.P,J22,3*%
%TO.N,Net-(J22-Pad3)*%
X135128000Y-79771000D03*
%TO.P,J22,2*%
%TO.N,Net-(J17-Pad3)*%
X132588000Y-79771000D03*
D11*
%TO.P,J22,1*%
%TO.N,Net-(J22-Pad1)*%
X130048000Y-79771000D03*
%TD*%
D10*
%TO.P,J21,9*%
%TO.N,Net-(J21-Pad9)*%
X113334800Y-75986400D03*
%TO.P,J21,8*%
%TO.N,Net-(J17-Pad6)*%
X115874800Y-75986400D03*
%TO.P,J21,7*%
%TO.N,Net-(J17-Pad7)*%
X118414800Y-75986400D03*
%TO.P,J21,6*%
%TO.N,Net-(J21-Pad6)*%
X120954800Y-75986400D03*
%TO.P,J21,5*%
%TO.N,Net-(J17-Pad10)*%
X123494800Y-75986400D03*
%TO.P,J21,4*%
%TO.N,Net-(J17-Pad11)*%
X126034800Y-75986400D03*
%TO.P,J21,3*%
%TO.N,Net-(J21-Pad3)*%
X128574800Y-75986400D03*
%TO.P,J21,2*%
%TO.N,Net-(C11-Pad1)*%
X131114800Y-75986400D03*
D11*
%TO.P,J21,1*%
%TO.N,GND*%
X133654800Y-75986400D03*
%TD*%
%TO.P,J20,MP*%
%TO.N,N/C*%
%TA.AperFunction,SMDPad,CuDef*%
G36*
G01*
X94471401Y-83159000D02*
X93171399Y-83159000D01*
G75*
G02*
X92921400Y-82909001I0J249999D01*
G01*
X92921400Y-82208999D01*
G75*
G02*
X93171399Y-81959000I249999J0D01*
G01*
X94471401Y-81959000D01*
G75*
G02*
X94721400Y-82208999I0J-249999D01*
G01*
X94721400Y-82909001D01*
G75*
G02*
X94471401Y-83159000I-249999J0D01*
G01*
G37*
%TD.AperFunction*%
%TA.AperFunction,SMDPad,CuDef*%
G36*
G01*
X94471401Y-88759000D02*
X93171399Y-88759000D01*
G75*
G02*
X92921400Y-88509001I0J249999D01*
G01*
X92921400Y-87808999D01*
G75*
G02*
X93171399Y-87559000I249999J0D01*
G01*
X94471401Y-87559000D01*
G75*
G02*
X94721400Y-87808999I0J-249999D01*
G01*
X94721400Y-88509001D01*
G75*
G02*
X94471401Y-88759000I-249999J0D01*
G01*
G37*
%TD.AperFunction*%
%TO.P,J20,4*%
%TO.N,Net-(J17-Pad5)*%
%TA.AperFunction,SMDPad,CuDef*%
G36*
G01*
X96971400Y-84159000D02*
X95721400Y-84159000D01*
G75*
G02*
X95571400Y-84009000I0J150000D01*
G01*
X95571400Y-83709000D01*
G75*
G02*
X95721400Y-83559000I150000J0D01*
G01*
X96971400Y-83559000D01*
G75*
G02*
X97121400Y-83709000I0J-150000D01*
G01*
X97121400Y-84009000D01*
G75*
G02*
X96971400Y-84159000I-150000J0D01*
G01*
G37*
%TD.AperFunction*%
%TO.P,J20,3*%
%TO.N,Net-(J17-Pad4)*%
%TA.AperFunction,SMDPad,CuDef*%
G36*
G01*
X96971400Y-85159000D02*
X95721400Y-85159000D01*
G75*
G02*
X95571400Y-85009000I0J150000D01*
G01*
X95571400Y-84709000D01*
G75*
G02*
X95721400Y-84559000I150000J0D01*
G01*
X96971400Y-84559000D01*
G75*
G02*
X97121400Y-84709000I0J-150000D01*
G01*
X97121400Y-85009000D01*
G75*
G02*
X96971400Y-85159000I-150000J0D01*
G01*
G37*
%TD.AperFunction*%
%TO.P,J20,2*%
%TO.N,Net-(J20-Pad2)*%
%TA.AperFunction,SMDPad,CuDef*%
G36*
G01*
X96971400Y-86159000D02*
X95721400Y-86159000D01*
G75*
G02*
X95571400Y-86009000I0J150000D01*
G01*
X95571400Y-85709000D01*
G75*
G02*
X95721400Y-85559000I150000J0D01*
G01*
X96971400Y-85559000D01*
G75*
G02*
X97121400Y-85709000I0J-150000D01*
G01*
X97121400Y-86009000D01*
G75*
G02*
X96971400Y-86159000I-150000J0D01*
G01*
G37*
%TD.AperFunction*%
%TO.P,J20,1*%
%TO.N,GND*%
%TA.AperFunction,SMDPad,CuDef*%
G36*
G01*
X96971400Y-87159000D02*
X95721400Y-87159000D01*
G75*
G02*
X95571400Y-87009000I0J150000D01*
G01*
X95571400Y-86709000D01*
G75*
G02*
X95721400Y-86559000I150000J0D01*
G01*
X96971400Y-86559000D01*
G75*
G02*
X97121400Y-86709000I0J-150000D01*
G01*
X97121400Y-87009000D01*
G75*
G02*
X96971400Y-87159000I-150000J0D01*
G01*
G37*
%TD.AperFunction*%
%TD*%
D10*
%TO.P,J17,15*%
%TO.N,GND*%
X137388600Y-87594200D03*
%TO.P,J17,14*%
%TO.N,Net-(J17-Pad14)*%
X134848600Y-87594200D03*
%TO.P,J17,13*%
%TO.N,Net-(J17-Pad13)*%
X132308600Y-87594200D03*
%TO.P,J17,12*%
%TO.N,Net-(J17-Pad12)*%
X129768600Y-87594200D03*
%TO.P,J17,11*%
%TO.N,Net-(J17-Pad11)*%
X127228600Y-87594200D03*
%TO.P,J17,10*%
%TO.N,Net-(J17-Pad10)*%
X124688600Y-87594200D03*
%TO.P,J17,9*%
%TO.N,Net-(J10-Pad3)*%
X122148600Y-87594200D03*
%TO.P,J17,8*%
%TO.N,Net-(J10-Pad4)*%
X119608600Y-87594200D03*
%TO.P,J17,7*%
%TO.N,Net-(J17-Pad7)*%
X117068600Y-87594200D03*
%TO.P,J17,6*%
%TO.N,Net-(J17-Pad6)*%
X114528600Y-87594200D03*
%TO.P,J17,5*%
%TO.N,Net-(J17-Pad5)*%
X111988600Y-87594200D03*
%TO.P,J17,4*%
%TO.N,Net-(J17-Pad4)*%
X109448600Y-87594200D03*
%TO.P,J17,3*%
%TO.N,Net-(J17-Pad3)*%
X106908600Y-87594200D03*
%TO.P,J17,2*%
%TO.N,GND*%
X104368600Y-87594200D03*
D11*
%TO.P,J17,1*%
%TO.N,Net-(C11-Pad1)*%
X101828600Y-87594200D03*
%TD*%
D43*
%TO.P,J8,6*%
%TO.N,Net-(J4-Pad1)*%
X116798600Y-94032600D03*
%TO.P,J8,5*%
%TO.N,Net-(J4-Pad2)*%
X114798600Y-94032600D03*
%TO.P,J8,4*%
%TO.N,GND*%
X116798600Y-92032600D03*
%TO.P,J8,3*%
%TO.N,Net-(J4-Pad9)*%
X114798600Y-92032600D03*
%TO.P,J8,2*%
%TO.N,Net-(J4-Pad6)*%
X116798600Y-90032600D03*
D44*
%TO.P,J8,1*%
%TO.N,Net-(J4-Pad3)*%
X114798600Y-90032600D03*
%TD*%
D10*
%TO.P,J14,8*%
%TO.N,Net-(J14-Pad8)*%
X160248600Y-102834200D03*
%TO.P,J14,7*%
%TO.N,Net-(J14-Pad7)*%
X157708600Y-102834200D03*
%TO.P,J14,6*%
%TO.N,Net-(J14-Pad6)*%
X155168600Y-102834200D03*
%TO.P,J14,5*%
%TO.N,Net-(J14-Pad5)*%
X152628600Y-102834200D03*
%TO.P,J14,4*%
%TO.N,Net-(J14-Pad4)*%
X150088600Y-102834200D03*
%TO.P,J14,3*%
%TO.N,Net-(J14-Pad3)*%
X147548600Y-102834200D03*
%TO.P,J14,2*%
%TO.N,Net-(D2-Pad3)*%
X145008600Y-102834200D03*
D11*
%TO.P,J14,1*%
%TO.N,Net-(D6-Pad3)*%
X142468600Y-102834200D03*
%TD*%
D10*
%TO.P,J13,15*%
%TO.N,Net-(J13-Pad15)*%
X137388600Y-102834200D03*
%TO.P,J13,14*%
%TO.N,Net-(J13-Pad14)*%
X134848600Y-102834200D03*
%TO.P,J13,13*%
%TO.N,Net-(J13-Pad13)*%
X132308600Y-102834200D03*
%TO.P,J13,12*%
%TO.N,Net-(D1-Pad3)*%
X129768600Y-102834200D03*
%TO.P,J13,11*%
%TO.N,Net-(J13-Pad11)*%
X127228600Y-102834200D03*
%TO.P,J13,10*%
%TO.N,Net-(J13-Pad10)*%
X124688600Y-102834200D03*
%TO.P,J13,9*%
%TO.N,Net-(J13-Pad9)*%
X122148600Y-102834200D03*
%TO.P,J13,8*%
%TO.N,Net-(J13-Pad8)*%
X119608600Y-102834200D03*
%TO.P,J13,7*%
%TO.N,Net-(J13-Pad7)*%
X117068600Y-102834200D03*
%TO.P,J13,6*%
%TO.N,Net-(J13-Pad6)*%
X114528600Y-102834200D03*
%TO.P,J13,5*%
%TO.N,Net-(J13-Pad5)*%
X111988600Y-102834200D03*
%TO.P,J13,4*%
%TO.N,Net-(J13-Pad4)*%
X109448600Y-102834200D03*
%TO.P,J13,3*%
%TO.N,Net-(J13-Pad3)*%
X106908600Y-102834200D03*
%TO.P,J13,2*%
%TO.N,Net-(J13-Pad2)*%
X104368600Y-102834200D03*
D11*
%TO.P,J13,1*%
%TO.N,GND*%
X101828600Y-102834200D03*
%TD*%
%TO.P,J11,MP*%
%TO.N,N/C*%
%TA.AperFunction,SMDPad,CuDef*%
G36*
G01*
X134891601Y-107705200D02*
X133591599Y-107705200D01*
G75*
G02*
X133341600Y-107455201I0J249999D01*
G01*
X133341600Y-106755199D01*
G75*
G02*
X133591599Y-106505200I249999J0D01*
G01*
X134891601Y-106505200D01*
G75*
G02*
X135141600Y-106755199I0J-249999D01*
G01*
X135141600Y-107455201D01*
G75*
G02*
X134891601Y-107705200I-249999J0D01*
G01*
G37*
%TD.AperFunction*%
%TA.AperFunction,SMDPad,CuDef*%
G36*
G01*
X134891601Y-113305200D02*
X133591599Y-113305200D01*
G75*
G02*
X133341600Y-113055201I0J249999D01*
G01*
X133341600Y-112355199D01*
G75*
G02*
X133591599Y-112105200I249999J0D01*
G01*
X134891601Y-112105200D01*
G75*
G02*
X135141600Y-112355199I0J-249999D01*
G01*
X135141600Y-113055201D01*
G75*
G02*
X134891601Y-113305200I-249999J0D01*
G01*
G37*
%TD.AperFunction*%
%TO.P,J11,4*%
%TO.N,Net-(J10-Pad4)*%
%TA.AperFunction,SMDPad,CuDef*%
G36*
G01*
X137391600Y-108705200D02*
X136141600Y-108705200D01*
G75*
G02*
X135991600Y-108555200I0J150000D01*
G01*
X135991600Y-108255200D01*
G75*
G02*
X136141600Y-108105200I150000J0D01*
G01*
X137391600Y-108105200D01*
G75*
G02*
X137541600Y-108255200I0J-150000D01*
G01*
X137541600Y-108555200D01*
G75*
G02*
X137391600Y-108705200I-150000J0D01*
G01*
G37*
%TD.AperFunction*%
%TO.P,J11,3*%
%TO.N,Net-(J10-Pad3)*%
%TA.AperFunction,SMDPad,CuDef*%
G36*
G01*
X137391600Y-109705200D02*
X136141600Y-109705200D01*
G75*
G02*
X135991600Y-109555200I0J150000D01*
G01*
X135991600Y-109255200D01*
G75*
G02*
X136141600Y-109105200I150000J0D01*
G01*
X137391600Y-109105200D01*
G75*
G02*
X137541600Y-109255200I0J-150000D01*
G01*
X137541600Y-109555200D01*
G75*
G02*
X137391600Y-109705200I-150000J0D01*
G01*
G37*
%TD.AperFunction*%
%TO.P,J11,2*%
%TO.N,Net-(C1-Pad1)*%
%TA.AperFunction,SMDPad,CuDef*%
G36*
G01*
X137391600Y-110705200D02*
X136141600Y-110705200D01*
G75*
G02*
X135991600Y-110555200I0J150000D01*
G01*
X135991600Y-110255200D01*
G75*
G02*
X136141600Y-110105200I150000J0D01*
G01*
X137391600Y-110105200D01*
G75*
G02*
X137541600Y-110255200I0J-150000D01*
G01*
X137541600Y-110555200D01*
G75*
G02*
X137391600Y-110705200I-150000J0D01*
G01*
G37*
%TD.AperFunction*%
%TO.P,J11,1*%
%TO.N,GND*%
%TA.AperFunction,SMDPad,CuDef*%
G36*
G01*
X137391600Y-111705200D02*
X136141600Y-111705200D01*
G75*
G02*
X135991600Y-111555200I0J150000D01*
G01*
X135991600Y-111255200D01*
G75*
G02*
X136141600Y-111105200I150000J0D01*
G01*
X137391600Y-111105200D01*
G75*
G02*
X137541600Y-111255200I0J-150000D01*
G01*
X137541600Y-111555200D01*
G75*
G02*
X137391600Y-111705200I-150000J0D01*
G01*
G37*
%TD.AperFunction*%
%TD*%
%TO.P,J10,MP*%
%TO.N,N/C*%
%TA.AperFunction,SMDPad,CuDef*%
G36*
G01*
X141391601Y-107705200D02*
X140091599Y-107705200D01*
G75*
G02*
X139841600Y-107455201I0J249999D01*
G01*
X139841600Y-106755199D01*
G75*
G02*
X140091599Y-106505200I249999J0D01*
G01*
X141391601Y-106505200D01*
G75*
G02*
X141641600Y-106755199I0J-249999D01*
G01*
X141641600Y-107455201D01*
G75*
G02*
X141391601Y-107705200I-249999J0D01*
G01*
G37*
%TD.AperFunction*%
%TA.AperFunction,SMDPad,CuDef*%
G36*
G01*
X141391601Y-113305200D02*
X140091599Y-113305200D01*
G75*
G02*
X139841600Y-113055201I0J249999D01*
G01*
X139841600Y-112355199D01*
G75*
G02*
X140091599Y-112105200I249999J0D01*
G01*
X141391601Y-112105200D01*
G75*
G02*
X141641600Y-112355199I0J-249999D01*
G01*
X141641600Y-113055201D01*
G75*
G02*
X141391601Y-113305200I-249999J0D01*
G01*
G37*
%TD.AperFunction*%
%TO.P,J10,4*%
%TO.N,Net-(J10-Pad4)*%
%TA.AperFunction,SMDPad,CuDef*%
G36*
G01*
X143891600Y-108705200D02*
X142641600Y-108705200D01*
G75*
G02*
X142491600Y-108555200I0J150000D01*
G01*
X142491600Y-108255200D01*
G75*
G02*
X142641600Y-108105200I150000J0D01*
G01*
X143891600Y-108105200D01*
G75*
G02*
X144041600Y-108255200I0J-150000D01*
G01*
X144041600Y-108555200D01*
G75*
G02*
X143891600Y-108705200I-150000J0D01*
G01*
G37*
%TD.AperFunction*%
%TO.P,J10,3*%
%TO.N,Net-(J10-Pad3)*%
%TA.AperFunction,SMDPad,CuDef*%
G36*
G01*
X143891600Y-109705200D02*
X142641600Y-109705200D01*
G75*
G02*
X142491600Y-109555200I0J150000D01*
G01*
X142491600Y-109255200D01*
G75*
G02*
X142641600Y-109105200I150000J0D01*
G01*
X143891600Y-109105200D01*
G75*
G02*
X144041600Y-109255200I0J-150000D01*
G01*
X144041600Y-109555200D01*
G75*
G02*
X143891600Y-109705200I-150000J0D01*
G01*
G37*
%TD.AperFunction*%
%TO.P,J10,2*%
%TO.N,Net-(C1-Pad1)*%
%TA.AperFunction,SMDPad,CuDef*%
G36*
G01*
X143891600Y-110705200D02*
X142641600Y-110705200D01*
G75*
G02*
X142491600Y-110555200I0J150000D01*
G01*
X142491600Y-110255200D01*
G75*
G02*
X142641600Y-110105200I150000J0D01*
G01*
X143891600Y-110105200D01*
G75*
G02*
X144041600Y-110255200I0J-150000D01*
G01*
X144041600Y-110555200D01*
G75*
G02*
X143891600Y-110705200I-150000J0D01*
G01*
G37*
%TD.AperFunction*%
%TO.P,J10,1*%
%TO.N,GND*%
%TA.AperFunction,SMDPad,CuDef*%
G36*
G01*
X143891600Y-111705200D02*
X142641600Y-111705200D01*
G75*
G02*
X142491600Y-111555200I0J150000D01*
G01*
X142491600Y-111255200D01*
G75*
G02*
X142641600Y-111105200I150000J0D01*
G01*
X143891600Y-111105200D01*
G75*
G02*
X144041600Y-111255200I0J-150000D01*
G01*
X144041600Y-111555200D01*
G75*
G02*
X143891600Y-111705200I-150000J0D01*
G01*
G37*
%TD.AperFunction*%
%TD*%
D10*
%TO.P,J16,8*%
%TO.N,Net-(J16-Pad8)*%
X105394760Y-131790200D03*
%TO.P,J16,7*%
%TO.N,Net-(J16-Pad7)*%
X107934760Y-131790200D03*
%TO.P,J16,6*%
%TO.N,Net-(J16-Pad6)*%
X110474760Y-131790200D03*
%TO.P,J16,5*%
%TO.N,Net-(J16-Pad5)*%
X113014760Y-131790200D03*
%TO.P,J16,4*%
%TO.N,Net-(J16-Pad4)*%
X115554760Y-131790200D03*
%TO.P,J16,3*%
%TO.N,Net-(J16-Pad3)*%
X118094760Y-131790200D03*
%TO.P,J16,2*%
%TO.N,Net-(C1-Pad1)*%
X120634760Y-131790200D03*
D11*
%TO.P,J16,1*%
%TO.N,GND*%
X123174760Y-131790200D03*
%TD*%
D10*
%TO.P,J15,8*%
%TO.N,Net-(J15-Pad8)*%
X105394760Y-108930200D03*
%TO.P,J15,7*%
%TO.N,Net-(J15-Pad7)*%
X107934760Y-108930200D03*
%TO.P,J15,6*%
%TO.N,Net-(J10-Pad4)*%
X110474760Y-108930200D03*
%TO.P,J15,5*%
%TO.N,Net-(J10-Pad3)*%
X113014760Y-108930200D03*
%TO.P,J15,4*%
%TO.N,Net-(J15-Pad4)*%
X115554760Y-108930200D03*
%TO.P,J15,3*%
%TO.N,Net-(J15-Pad3)*%
X118094760Y-108930200D03*
%TO.P,J15,2*%
%TO.N,Net-(J15-Pad2)*%
X120634760Y-108930200D03*
D11*
%TO.P,J15,1*%
%TO.N,Net-(J15-Pad1)*%
X123174760Y-108930200D03*
%TD*%
%TO.P,C13,2*%
%TO.N,GND*%
%TA.AperFunction,SMDPad,CuDef*%
G36*
G01*
X131023380Y-68548860D02*
X130073380Y-68548860D01*
G75*
G02*
X129823380Y-68298860I0J250000D01*
G01*
X129823380Y-67798860D01*
G75*
G02*
X130073380Y-67548860I250000J0D01*
G01*
X131023380Y-67548860D01*
G75*
G02*
X131273380Y-67798860I0J-250000D01*
G01*
X131273380Y-68298860D01*
G75*
G02*
X131023380Y-68548860I-250000J0D01*
G01*
G37*
%TD.AperFunction*%
%TO.P,C13,1*%
%TO.N,Net-(C11-Pad1)*%
%TA.AperFunction,SMDPad,CuDef*%
G36*
G01*
X131023380Y-70448860D02*
X130073380Y-70448860D01*
G75*
G02*
X129823380Y-70198860I0J250000D01*
G01*
X129823380Y-69698860D01*
G75*
G02*
X130073380Y-69448860I250000J0D01*
G01*
X131023380Y-69448860D01*
G75*
G02*
X131273380Y-69698860I0J-250000D01*
G01*
X131273380Y-70198860D01*
G75*
G02*
X131023380Y-70448860I-250000J0D01*
G01*
G37*
%TD.AperFunction*%
%TD*%
%TO.P,C12,2*%
%TO.N,GND*%
%TA.AperFunction,SMDPad,CuDef*%
G36*
G01*
X103279360Y-91676000D02*
X103279360Y-90726000D01*
G75*
G02*
X103529360Y-90476000I250000J0D01*
G01*
X104029360Y-90476000D01*
G75*
G02*
X104279360Y-90726000I0J-250000D01*
G01*
X104279360Y-91676000D01*
G75*
G02*
X104029360Y-91926000I-250000J0D01*
G01*
X103529360Y-91926000D01*
G75*
G02*
X103279360Y-91676000I0J250000D01*
G01*
G37*
%TD.AperFunction*%
%TO.P,C12,1*%
%TO.N,Net-(C11-Pad1)*%
%TA.AperFunction,SMDPad,CuDef*%
G36*
G01*
X101379360Y-91676000D02*
X101379360Y-90726000D01*
G75*
G02*
X101629360Y-90476000I250000J0D01*
G01*
X102129360Y-90476000D01*
G75*
G02*
X102379360Y-90726000I0J-250000D01*
G01*
X102379360Y-91676000D01*
G75*
G02*
X102129360Y-91926000I-250000J0D01*
G01*
X101629360Y-91926000D01*
G75*
G02*
X101379360Y-91676000I0J250000D01*
G01*
G37*
%TD.AperFunction*%
%TD*%
%TO.P,C7,2*%
%TO.N,GND*%
%TA.AperFunction,SMDPad,CuDef*%
G36*
G01*
X91661000Y-120291200D02*
X90711000Y-120291200D01*
G75*
G02*
X90461000Y-120041200I0J250000D01*
G01*
X90461000Y-119541200D01*
G75*
G02*
X90711000Y-119291200I250000J0D01*
G01*
X91661000Y-119291200D01*
G75*
G02*
X91911000Y-119541200I0J-250000D01*
G01*
X91911000Y-120041200D01*
G75*
G02*
X91661000Y-120291200I-250000J0D01*
G01*
G37*
%TD.AperFunction*%
%TO.P,C7,1*%
%TO.N,Net-(C1-Pad1)*%
%TA.AperFunction,SMDPad,CuDef*%
G36*
G01*
X91661000Y-122191200D02*
X90711000Y-122191200D01*
G75*
G02*
X90461000Y-121941200I0J250000D01*
G01*
X90461000Y-121441200D01*
G75*
G02*
X90711000Y-121191200I250000J0D01*
G01*
X91661000Y-121191200D01*
G75*
G02*
X91911000Y-121441200I0J-250000D01*
G01*
X91911000Y-121941200D01*
G75*
G02*
X91661000Y-122191200I-250000J0D01*
G01*
G37*
%TD.AperFunction*%
%TD*%
D45*
%TO.N,GND*%
X130695700Y-65849260D03*
X168904000Y-90919300D03*
X98877120Y-86834740D03*
X158861760Y-127817640D03*
X84759800Y-121858800D03*
X82042000Y-124932200D03*
X136800000Y-114405200D03*
X143364323Y-114327923D03*
X157800000Y-138900000D03*
X163700000Y-139166942D03*
X170205764Y-139157726D03*
X78800000Y-147250000D03*
X167575000Y-130900000D03*
X64750000Y-140175000D03*
X76825000Y-139850000D03*
X70650000Y-127300000D03*
X71525000Y-127300000D03*
X76900000Y-142275000D03*
X79200000Y-136675000D03*
X95000000Y-136000000D03*
X116075000Y-122850000D03*
X134000000Y-150375000D03*
X136849999Y-148574999D03*
X131216400Y-141071600D03*
X123459810Y-125484602D03*
X123459810Y-116914865D03*
X145186400Y-148259800D03*
X144500600Y-143789400D03*
X155219400Y-110286800D03*
X156032200Y-126212600D03*
X159512000Y-117703600D03*
%TO.N,Net-(C1-Pad1)*%
X125571400Y-136709000D03*
X136220200Y-141122400D03*
X153720800Y-112547400D03*
X145567400Y-111785400D03*
%TO.N,Net-(J14-Pad7)*%
X153111200Y-109088800D03*
%TO.N,Net-(J14-Pad6)*%
X151841200Y-109158800D03*
%TO.N,Net-(J4-Pad3)*%
X28976501Y-161548499D03*
%TO.N,Net-(J13-Pad13)*%
X128125000Y-112175000D03*
%TO.N,Net-(J17-Pad5)*%
X98940620Y-83723240D03*
%TO.N,Net-(J17-Pad4)*%
X98877120Y-84917040D03*
%TO.N,Net-(C11-Pad1)*%
X97200000Y-95700000D03*
%TO.N,Net-(KF3-Pad4)*%
X154635200Y-122504200D03*
%TO.N,Net-(D1-Pad3)*%
X122732800Y-113258600D03*
%TD*%
D46*
%TO.N,GND*%
X168930800Y-90892500D02*
X168904000Y-90919300D01*
X168930800Y-85314400D02*
X168930800Y-90892500D01*
D47*
X130548380Y-65996580D02*
X130695700Y-65849260D01*
X130548380Y-68048860D02*
X130548380Y-65996580D01*
X103779360Y-88183440D02*
X104368600Y-87594200D01*
X103779360Y-91201000D02*
X103779360Y-88183440D01*
D46*
X96346400Y-86859000D02*
X98852860Y-86859000D01*
X98852860Y-86859000D02*
X98877120Y-86834740D01*
X159451981Y-127227419D02*
X158861760Y-127817640D01*
X160425160Y-127227419D02*
X159451981Y-127227419D01*
X158049000Y-128630400D02*
X158861760Y-127817640D01*
X156464000Y-128630400D02*
X158049000Y-128630400D01*
D47*
X84708600Y-121910000D02*
X84759800Y-121858800D01*
X84708600Y-124130800D02*
X84708600Y-121910000D01*
X53677000Y-127101400D02*
X51755000Y-125179400D01*
X57810400Y-127101400D02*
X53677000Y-127101400D01*
X81965800Y-125008400D02*
X82042000Y-124932200D01*
X81965800Y-126877800D02*
X81965800Y-125008400D01*
X91186000Y-119220600D02*
X93735800Y-116670800D01*
X91186000Y-119791200D02*
X91186000Y-119220600D01*
D46*
X136766600Y-113230200D02*
X136766600Y-111405200D01*
X136800000Y-114405200D02*
X136766600Y-113230200D01*
X53717600Y-166350000D02*
X55402200Y-168034600D01*
X51100000Y-166350000D02*
X53717600Y-166350000D01*
D47*
X55769400Y-167667400D02*
X55402200Y-168034600D01*
X55769400Y-156402800D02*
X55769400Y-167667400D01*
D46*
X143266600Y-111405200D02*
X143266600Y-114230200D01*
X143266600Y-114230200D02*
X143364323Y-114327923D01*
X156432000Y-140988000D02*
X157800000Y-139620000D01*
X157800000Y-139620000D02*
X157800000Y-138900000D01*
X163700000Y-139870000D02*
X163700000Y-139166942D01*
X162582000Y-140988000D02*
X163700000Y-139870000D01*
X168732000Y-140988000D02*
X170205764Y-139514236D01*
X170205764Y-139514236D02*
X170205764Y-139157726D01*
D47*
X78779000Y-150055200D02*
X78779000Y-147271000D01*
X78779000Y-147271000D02*
X78800000Y-147250000D01*
D46*
X167552500Y-133017900D02*
X167552500Y-130922500D01*
X167552500Y-130922500D02*
X167575000Y-130900000D01*
D48*
X64750000Y-141567990D02*
X64725000Y-141567990D01*
X64750000Y-140175000D02*
X64750000Y-141567990D01*
X70650000Y-131475000D02*
X71800000Y-132625000D01*
X70650000Y-127300000D02*
X70650000Y-131475000D01*
X71525000Y-132350000D02*
X71800000Y-132625000D01*
X71525000Y-127300000D02*
X71525000Y-132350000D01*
D47*
X75200000Y-142255000D02*
X76880000Y-142255000D01*
X76880000Y-142255000D02*
X76900000Y-142275000D01*
X71800000Y-140321998D02*
X71800000Y-142255000D01*
X76425001Y-139450001D02*
X72671997Y-139450001D01*
X72671997Y-139450001D02*
X71800000Y-140321998D01*
X76825000Y-139850000D02*
X76425001Y-139450001D01*
X82922000Y-136717800D02*
X79242800Y-136717800D01*
X79242800Y-136717800D02*
X79200000Y-136675000D01*
X96875000Y-136000000D02*
X95000000Y-136000000D01*
X116075000Y-125425000D02*
X116075000Y-122850000D01*
D46*
X133945000Y-150430000D02*
X134000000Y-150375000D01*
X131950000Y-150430000D02*
X133945000Y-150430000D01*
X136850000Y-146725000D02*
X136849999Y-148009314D01*
X136849999Y-148009314D02*
X136849999Y-148574999D01*
X130733800Y-140589000D02*
X131216400Y-141071600D01*
X129427700Y-140589000D02*
X130733800Y-140589000D01*
X126654760Y-135270200D02*
X123174760Y-131790200D01*
X126990600Y-135270200D02*
X126654760Y-135270200D01*
X123505208Y-125530000D02*
X123459810Y-125484602D01*
X125680000Y-125530000D02*
X123505208Y-125530000D01*
X125680000Y-116970000D02*
X123514945Y-116970000D01*
X123514945Y-116970000D02*
X123459810Y-116914865D01*
X144272000Y-147345400D02*
X145186400Y-148259800D01*
X143550100Y-147345400D02*
X144272000Y-147345400D01*
X144460000Y-143748800D02*
X144500600Y-143789400D01*
X142884400Y-143748800D02*
X144460000Y-143748800D01*
X155260000Y-110327400D02*
X155219400Y-110286800D01*
X156759400Y-110327400D02*
X155260000Y-110327400D01*
X156123600Y-126121200D02*
X156032200Y-126212600D01*
X157988000Y-126121200D02*
X156123600Y-126121200D01*
X159399700Y-115849400D02*
X159399700Y-117591300D01*
X159399700Y-117591300D02*
X159512000Y-117703600D01*
D47*
%TO.N,Net-(C1-Pad1)*%
X120634760Y-131790200D02*
X120634760Y-131790200D01*
X120634760Y-131790200D02*
X120634760Y-131790200D01*
D46*
X143266600Y-110405200D02*
X136766600Y-110405200D01*
X156474200Y-130530400D02*
X159397700Y-133453900D01*
X156464000Y-130530400D02*
X156474200Y-130530400D01*
X159397700Y-133453900D02*
X159512000Y-133339600D01*
X159512000Y-133339600D02*
X159461200Y-133517400D01*
D47*
X86446400Y-126430800D02*
X91186000Y-121691200D01*
X84708600Y-126430800D02*
X86446400Y-126430800D01*
X116169560Y-127325000D02*
X120634760Y-131790200D01*
X116075000Y-127325000D02*
X116169560Y-127325000D01*
X115000000Y-127325000D02*
X116075000Y-127325000D01*
D46*
X114610990Y-126935990D02*
X115000000Y-127325000D01*
X114610990Y-117864010D02*
X114610990Y-126935990D01*
X125776278Y-112300000D02*
X120175000Y-112300000D01*
X120175000Y-112300000D02*
X114610990Y-117864010D01*
X127671078Y-110405200D02*
X125776278Y-112300000D01*
X136766600Y-110405200D02*
X127671078Y-110405200D01*
X120652600Y-131790200D02*
X120634760Y-131790200D01*
X126032600Y-137170200D02*
X125571400Y-136709000D01*
X126990600Y-137170200D02*
X126032600Y-137170200D01*
X125571400Y-136709000D02*
X124745900Y-135883500D01*
X124745900Y-135883500D02*
X120652600Y-131790200D01*
X142158000Y-141122400D02*
X142884400Y-141848800D01*
X136220200Y-141122400D02*
X142158000Y-141122400D01*
X156439400Y-112547400D02*
X156759400Y-112227400D01*
X153720800Y-112547400D02*
X156439400Y-112547400D01*
X164235160Y-127227420D02*
X164235160Y-126033560D01*
X164235160Y-126033560D02*
X163220400Y-125018800D01*
X158785600Y-125018800D02*
X157988000Y-124221200D01*
X163220400Y-125018800D02*
X158785600Y-125018800D01*
X153720800Y-120218200D02*
X153720800Y-112547400D01*
X156464000Y-130530400D02*
X153720800Y-127787200D01*
X153888400Y-124221200D02*
X153720800Y-124053600D01*
X153720800Y-124053600D02*
X153720800Y-120218200D01*
X157988000Y-124221200D02*
X153888400Y-124221200D01*
X153720800Y-127787200D02*
X153720800Y-124053600D01*
D47*
X105725000Y-127225000D02*
X105725000Y-127325000D01*
X100130200Y-121630200D02*
X105725000Y-127225000D01*
X91247000Y-121630200D02*
X100130200Y-121630200D01*
X91186000Y-121691200D02*
X91247000Y-121630200D01*
X105725000Y-127325000D02*
X115000000Y-127325000D01*
D46*
X143266600Y-110405200D02*
X144187200Y-110405200D01*
X144187200Y-110405200D02*
X145567400Y-111785400D01*
%TO.N,Net-(J10-Pad4)*%
X128551900Y-96537500D02*
X132000000Y-96537500D01*
X119608600Y-87594200D02*
X128551900Y-96537500D01*
X143266600Y-108405200D02*
X139994800Y-108405200D01*
X133016510Y-97554010D02*
X137474632Y-97554010D01*
X144041600Y-108405200D02*
X143266600Y-108405200D01*
X132000000Y-96537500D02*
X133016510Y-97554010D01*
X137474632Y-97554010D02*
X139000000Y-99079378D01*
X139000000Y-99079378D02*
X139000000Y-103900000D01*
X143315401Y-108356399D02*
X143266600Y-108405200D01*
X136766600Y-106133400D02*
X139000000Y-103900000D01*
X136766600Y-108405200D02*
X136766600Y-106133400D01*
X138694800Y-108405200D02*
X136766600Y-108405200D01*
X139994800Y-108405200D02*
X138694800Y-108405200D01*
X133545978Y-108405200D02*
X136766600Y-108405200D01*
X131640778Y-106500000D02*
X133545978Y-108405200D01*
X112904960Y-106500000D02*
X131640778Y-106500000D01*
X110474760Y-108930200D02*
X112904960Y-106500000D01*
%TO.N,Net-(R3-Pad2)*%
X159161010Y-142517010D02*
X166192000Y-149548000D01*
X151922710Y-142517010D02*
X159161010Y-142517010D01*
X149604100Y-140198400D02*
X151922710Y-142517010D01*
%TO.N,Net-(J14-Pad8)*%
X157275079Y-137604921D02*
X153892000Y-140988000D01*
X168203599Y-137604921D02*
X157275079Y-137604921D01*
X168911610Y-136896910D02*
X168203599Y-137604921D01*
X169494112Y-136896910D02*
X168911610Y-136896910D01*
X171000000Y-135391022D02*
X169494112Y-136896910D01*
X171000000Y-108975000D02*
X171000000Y-135391022D01*
X164859200Y-102834200D02*
X171000000Y-108975000D01*
X160248600Y-102834200D02*
X164859200Y-102834200D01*
%TO.N,Net-(J14-Pad7)*%
X153111200Y-109088800D02*
X152711201Y-109488799D01*
X152711201Y-109488799D02*
X152711201Y-131847401D01*
X152711201Y-131847401D02*
X153531201Y-132667401D01*
X153531201Y-132667401D02*
X154381200Y-133517400D01*
%TO.N,Net-(J14-Pad6)*%
X155168600Y-102834200D02*
X155778678Y-102834200D01*
X151841200Y-133517400D02*
X151841200Y-124658800D01*
X151841200Y-124658800D02*
X151841200Y-109158800D01*
X151841200Y-125458800D02*
X151841200Y-124658800D01*
%TO.N,Net-(J14-Pad5)*%
X162965160Y-123939560D02*
X162965160Y-122297420D01*
X163067000Y-124041400D02*
X162965160Y-123939560D01*
X164563382Y-124041400D02*
X163067000Y-124041400D01*
X165150800Y-123453982D02*
X164563382Y-124041400D01*
X152628600Y-102834200D02*
X155069400Y-105275000D01*
X155069400Y-105275000D02*
X158183200Y-105275000D01*
X165150800Y-112242600D02*
X165150800Y-123453982D01*
X158183200Y-105275000D02*
X165150800Y-112242600D01*
%TO.N,Net-(J14-Pad4)*%
X150088600Y-102834200D02*
X153237411Y-105983011D01*
X153237411Y-105983011D02*
X157570411Y-105983011D01*
X164235160Y-112647760D02*
X164235160Y-122297420D01*
X157570411Y-105983011D02*
X164235160Y-112647760D01*
%TO.N,Net-(J14-Pad3)*%
X147548600Y-102834200D02*
X151405422Y-106691022D01*
X151405422Y-106691022D02*
X156957622Y-106691022D01*
X161695160Y-111428560D02*
X161695160Y-122297420D01*
X156957622Y-106691022D02*
X161695160Y-111428560D01*
X161695160Y-122297420D02*
X160425160Y-122297420D01*
%TO.N,Net-(J18-Pad3)*%
X155591989Y-91491989D02*
X151446389Y-91491989D01*
X172575000Y-108475000D02*
X155591989Y-91491989D01*
X151446389Y-91491989D02*
X147548600Y-87594200D01*
X172575000Y-135818578D02*
X172575000Y-108475000D01*
X170080648Y-138312930D02*
X172575000Y-135818578D01*
X166192000Y-140988000D02*
X167721010Y-139458990D01*
X169498146Y-138312930D02*
X170080648Y-138312930D01*
X167721010Y-139458990D02*
X168352086Y-139458990D01*
X168352086Y-139458990D02*
X169498146Y-138312930D01*
%TO.N,Net-(Q1-Pad1)*%
X97575000Y-134800000D02*
X98775000Y-136000000D01*
X97575000Y-123112500D02*
X97575000Y-134800000D01*
D48*
%TO.N,Net-(C8-Pad1)*%
X64169400Y-144355600D02*
X64725000Y-143800000D01*
X64169400Y-156402800D02*
X64169400Y-144355600D01*
X66855000Y-143800000D02*
X68358999Y-142296001D01*
X64725000Y-143800000D02*
X66855000Y-143800000D01*
D49*
X64397200Y-156402800D02*
X71925000Y-148875000D01*
X64169400Y-156402800D02*
X64397200Y-156402800D01*
D47*
%TO.N,Net-(D3-Pad1)*%
X81711800Y-158231600D02*
X87655400Y-158231600D01*
X88544400Y-157342600D02*
X88544400Y-154926600D01*
X87655400Y-158231600D02*
X88544400Y-157342600D01*
X78779000Y-155298800D02*
X81711800Y-158231600D01*
X78779000Y-154055200D02*
X78779000Y-155298800D01*
X78779000Y-154055200D02*
X75750000Y-151026200D01*
X75750000Y-151026200D02*
X75750000Y-148400000D01*
X75750000Y-148400000D02*
X73275000Y-145925000D01*
X73275000Y-145925000D02*
X71375000Y-145925000D01*
X70210007Y-143062715D02*
X70210007Y-142255000D01*
X70100000Y-143172722D02*
X70210007Y-143062715D01*
X70100000Y-144650000D02*
X70100000Y-143172722D01*
X71375000Y-145925000D02*
X70100000Y-144650000D01*
D50*
%TO.N,Net-(J1-Pad3)*%
X113262699Y-99838299D02*
X113207800Y-99783400D01*
X113262699Y-103433635D02*
X113262699Y-99838299D01*
X109986601Y-106709733D02*
X113262699Y-103433635D01*
X101391105Y-106709733D02*
X109986601Y-106709733D01*
X96855038Y-111245800D02*
X101391105Y-106709733D01*
X95935800Y-111245800D02*
X96855038Y-111245800D01*
%TO.N,Net-(J1-Pad2)*%
X110722699Y-103433635D02*
X110722699Y-99838299D01*
X110722699Y-99838299D02*
X110667800Y-99783400D01*
X108078412Y-106077922D02*
X110722699Y-103433635D01*
X100328564Y-106077922D02*
X108078412Y-106077922D01*
X97160686Y-109245800D02*
X100328564Y-106077922D01*
X95935800Y-109245800D02*
X97160686Y-109245800D01*
D46*
%TO.N,Net-(J4-Pad6)*%
X115846409Y-96791991D02*
X117927601Y-94710799D01*
X101833575Y-96791991D02*
X115846409Y-96791991D01*
X98893522Y-99732044D02*
X101833575Y-96791991D01*
X117927601Y-94710799D02*
X117927601Y-91161601D01*
X117927601Y-91161601D02*
X116798600Y-90032600D01*
X52967956Y-99732044D02*
X98893522Y-99732044D01*
X27900000Y-150010000D02*
X27900000Y-124800000D01*
X41350000Y-163460000D02*
X27900000Y-150010000D01*
X27900000Y-124800000D02*
X52967956Y-99732044D01*
%TO.N,Net-(J4-Pad3)*%
X114798600Y-90032600D02*
X110871253Y-93959947D01*
X110871253Y-93959947D02*
X100660506Y-93959948D01*
X97720454Y-96900000D02*
X51794888Y-96900000D01*
X51794888Y-96900000D02*
X24517629Y-124177259D01*
X24517629Y-151217629D02*
X28976501Y-155676501D01*
X100660506Y-93959948D02*
X97720454Y-96900000D01*
X24517629Y-124177259D02*
X24517629Y-151217629D01*
X28976501Y-155676501D02*
X28976501Y-161548499D01*
%TO.N,Net-(R4-Pad2)*%
X128220000Y-114117500D02*
X128412500Y-113925000D01*
X128220000Y-116970000D02*
X128220000Y-114117500D01*
D47*
%TO.N,Net-(D5-Pad2)*%
X102915360Y-141184640D02*
X106750000Y-137350000D01*
X99260660Y-141184640D02*
X102915360Y-141184640D01*
X99260660Y-139435660D02*
X97825000Y-138000000D01*
X99260660Y-141184640D02*
X99260660Y-139435660D01*
D46*
%TO.N,Net-(J10-Pad3)*%
X136766600Y-109405200D02*
X138794800Y-109405200D01*
X143266600Y-109405200D02*
X143895800Y-109405200D01*
X138794800Y-109405200D02*
X139394800Y-109405200D01*
X139394800Y-109405200D02*
X143266600Y-109405200D01*
X135762500Y-95300000D02*
X137000000Y-96537500D01*
X129854400Y-95300000D02*
X135762500Y-95300000D01*
X122148600Y-87594200D02*
X129854400Y-95300000D01*
X125975000Y-111100000D02*
X127669800Y-109405200D01*
X127669800Y-109405200D02*
X136766600Y-109405200D01*
X115184560Y-111100000D02*
X125975000Y-111100000D01*
X113014760Y-108930200D02*
X115184560Y-111100000D01*
X138325000Y-96537500D02*
X137000000Y-96537500D01*
X139708011Y-97920511D02*
X138325000Y-96537500D01*
X139708011Y-102497011D02*
X139708011Y-101989011D01*
X145110200Y-107899200D02*
X139708011Y-102497011D01*
X145110200Y-109093000D02*
X145110200Y-107899200D01*
X144798000Y-109405200D02*
X145110200Y-109093000D01*
X143266600Y-109405200D02*
X144798000Y-109405200D01*
X139708011Y-101989011D02*
X139708011Y-97920511D01*
X139708011Y-102633011D02*
X139708011Y-101989011D01*
%TO.N,Net-(J18-Pad6)*%
X159262800Y-83500000D02*
X155168600Y-87594200D01*
X168100000Y-36543000D02*
X168100000Y-80200000D01*
X168100000Y-80200000D02*
X164800000Y-83500000D01*
X163068000Y-31511000D02*
X168100000Y-36543000D01*
X164800000Y-83500000D02*
X159262800Y-83500000D01*
%TO.N,Net-(J13-Pad3)*%
X39055000Y-116045000D02*
X39055000Y-125179400D01*
X53433201Y-101666799D02*
X39055000Y-116045000D01*
X97266799Y-101666799D02*
X53433201Y-101666799D01*
X100300000Y-104700000D02*
X97266799Y-101666799D01*
X105042800Y-104700000D02*
X100300000Y-104700000D01*
X106908600Y-102834200D02*
X105042800Y-104700000D01*
%TO.N,Net-(J13-Pad2)*%
X36515000Y-117385000D02*
X36515000Y-125179400D01*
X53224800Y-100675200D02*
X36515000Y-117385000D01*
X102209600Y-100675200D02*
X53224800Y-100675200D01*
X104368600Y-102834200D02*
X102209600Y-100675200D01*
D48*
%TO.N,Net-(KF2-Pad5)*%
X98792600Y-174629600D02*
X98792600Y-167009600D01*
X126592991Y-147467991D02*
X126700000Y-147467991D01*
X126008999Y-146883999D02*
X126592991Y-147467991D01*
X124541001Y-146883999D02*
X126008999Y-146883999D01*
X124541001Y-146883999D02*
X126083999Y-146883999D01*
X98792600Y-165207400D02*
X117116001Y-146883999D01*
X117116001Y-146883999D02*
X124541001Y-146883999D01*
X98792600Y-167009600D02*
X98792600Y-165207400D01*
D46*
%TO.N,Net-(J2-Pad4)*%
X161695160Y-129196100D02*
X160792700Y-130098560D01*
X161695160Y-127227419D02*
X161695160Y-129196100D01*
X160869500Y-130175360D02*
X160792700Y-130098560D01*
X163712040Y-133017900D02*
X160792700Y-130098560D01*
X164552500Y-133017900D02*
X163712040Y-133017900D01*
X163732100Y-133017900D02*
X164552500Y-133017900D01*
X149750000Y-136175000D02*
X160575000Y-136175000D01*
X160575000Y-136175000D02*
X163732100Y-133017900D01*
X147785000Y-138140000D02*
X149750000Y-136175000D01*
X147785000Y-157000000D02*
X147785000Y-138140000D01*
%TO.N,Net-(J2-Pad3)*%
X162965160Y-129346020D02*
X163717700Y-130098560D01*
X162965160Y-127227419D02*
X162965160Y-129346020D01*
X165552500Y-131933360D02*
X163717700Y-130098560D01*
X165552500Y-133017900D02*
X165552500Y-131933360D01*
X163894112Y-136896910D02*
X150972468Y-136896910D01*
X165552500Y-135238522D02*
X163894112Y-136896910D01*
X165552500Y-133017900D02*
X165552500Y-135238522D01*
X148587590Y-139281788D02*
X148587590Y-153357590D01*
X148587590Y-153357590D02*
X152230000Y-157000000D01*
X150972468Y-136896910D02*
X148587590Y-139281788D01*
%TO.N,Net-(J4-Pad9)*%
X29923009Y-174353009D02*
X32820000Y-177250000D01*
X29923009Y-155621731D02*
X29923009Y-174353009D01*
X52088155Y-97608011D02*
X25225640Y-124470526D01*
X98013721Y-97608011D02*
X52088155Y-97608011D01*
X100953774Y-94667958D02*
X98013721Y-97608011D01*
X25225640Y-150924362D02*
X29923009Y-155621731D01*
X112163242Y-94667958D02*
X100953774Y-94667958D01*
X25225640Y-124470526D02*
X25225640Y-150924362D01*
X114798600Y-92032600D02*
X112163242Y-94667958D01*
%TO.N,Net-(J4-Pad2)*%
X113455231Y-95375969D02*
X114798600Y-94032600D01*
X52381422Y-98316022D02*
X98306988Y-98316022D01*
X98306988Y-98316022D02*
X101247041Y-95375969D01*
X26276278Y-150677556D02*
X26276278Y-124421166D01*
X101247041Y-95375969D02*
X113455231Y-95375969D01*
X33750000Y-158151278D02*
X26276278Y-150677556D01*
X33750000Y-166825000D02*
X33750000Y-158151278D01*
X35625000Y-167325000D02*
X34250000Y-167325000D01*
X26276278Y-124421166D02*
X52381422Y-98316022D01*
X34250000Y-167325000D02*
X33750000Y-166825000D01*
X36270000Y-166680000D02*
X35625000Y-167325000D01*
X36270000Y-163460000D02*
X36270000Y-166680000D01*
%TO.N,Net-(J4-Pad1)*%
X35000000Y-164977524D02*
X35000000Y-166000000D01*
X27191989Y-150303267D02*
X35000000Y-158111278D01*
X27191989Y-124506733D02*
X27191989Y-150303267D01*
X52674689Y-99024033D02*
X27191989Y-124506733D01*
X98600255Y-99024033D02*
X52674689Y-99024033D01*
X101540308Y-96083980D02*
X98600255Y-99024033D01*
X114747220Y-96083980D02*
X101540308Y-96083980D01*
X35000000Y-158111278D02*
X35000000Y-164977524D01*
X116798600Y-94032600D02*
X114747220Y-96083980D01*
%TO.N,Net-(J5-Pad6)*%
X143777400Y-133517400D02*
X142950000Y-132690000D01*
X146761200Y-133517400D02*
X143777400Y-133517400D01*
X142950000Y-132690000D02*
X135330000Y-132690000D01*
%TO.N,Net-(J5-Pad5)*%
X135330000Y-127610000D02*
X142950000Y-127610000D01*
X148857400Y-133517400D02*
X149301200Y-133517400D01*
X142950000Y-127610000D02*
X148857400Y-133517400D01*
D48*
%TO.N,Net-(J6-Pad2)*%
X134445000Y-157000000D02*
X127145000Y-149700000D01*
%TO.N,Net-(J6-Pad1)*%
X120500000Y-149350000D02*
X118950000Y-149350000D01*
X128150000Y-157000000D02*
X120500000Y-149350000D01*
X130000000Y-157000000D02*
X128150000Y-157000000D01*
D46*
%TO.N,Net-(J13-Pad15)*%
X132000000Y-99462500D02*
X137000000Y-99462500D01*
X137000000Y-102445600D02*
X137388600Y-102834200D01*
X137000000Y-99462500D02*
X137000000Y-102445600D01*
%TO.N,Net-(J13-Pad13)*%
X125487500Y-113925000D02*
X127237500Y-112175000D01*
X127237500Y-112175000D02*
X128125000Y-112175000D01*
%TO.N,Net-(J13-Pad4)*%
X106874789Y-105408011D02*
X109448600Y-102834200D01*
X100051078Y-105408011D02*
X106874789Y-105408011D01*
X95697877Y-107849801D02*
X97609288Y-107849801D01*
X94831799Y-108715879D02*
X95697877Y-107849801D01*
X97609288Y-107849801D02*
X100051078Y-105408011D01*
X94831799Y-114275721D02*
X94831799Y-108715879D01*
X97575000Y-117018922D02*
X94831799Y-114275721D01*
X97575000Y-120187500D02*
X97575000Y-117018922D01*
%TO.N,Net-(J17-Pad13)*%
X150708011Y-41330989D02*
X159678001Y-32360999D01*
X132308600Y-87594200D02*
X135302800Y-84600000D01*
X135302800Y-84600000D02*
X148301278Y-84600000D01*
X148301278Y-84600000D02*
X150708011Y-82193267D01*
X150708011Y-82193267D02*
X150708011Y-41330989D01*
X159678001Y-32360999D02*
X160528000Y-31511000D01*
%TO.N,Net-(J17-Pad12)*%
X133562800Y-83800000D02*
X129768600Y-87594200D01*
X148100000Y-83800000D02*
X133562800Y-83800000D01*
X150000000Y-81900000D02*
X148100000Y-83800000D01*
X150000000Y-37743000D02*
X150000000Y-81900000D01*
X143768000Y-31511000D02*
X150000000Y-37743000D01*
%TO.N,Net-(J17-Pad11)*%
X126034800Y-86400400D02*
X127228600Y-87594200D01*
X126034800Y-75986400D02*
X126034800Y-86400400D01*
%TO.N,Net-(J17-Pad10)*%
X123494800Y-86400400D02*
X124688600Y-87594200D01*
X123494800Y-75986400D02*
X123494800Y-86400400D01*
%TO.N,Net-(J17-Pad7)*%
X118414800Y-86248000D02*
X117068600Y-87594200D01*
X118414800Y-75986400D02*
X118414800Y-86248000D01*
%TO.N,Net-(J17-Pad6)*%
X115874800Y-86248000D02*
X114528600Y-87594200D01*
X115874800Y-75986400D02*
X115874800Y-86248000D01*
%TO.N,Net-(J17-Pad5)*%
X96346400Y-62856000D02*
X94145100Y-60654700D01*
X96346400Y-83859000D02*
X96346400Y-83859000D01*
X96346400Y-83859000D02*
X96346400Y-62856000D01*
X96482160Y-83723240D02*
X96346400Y-83859000D01*
X98940620Y-83723240D02*
X96482160Y-83723240D01*
%TO.N,Net-(J17-Pad4)*%
X96346400Y-84859000D02*
X96346400Y-84859000D01*
X96404440Y-84917040D02*
X96346400Y-84859000D01*
X98877120Y-84917040D02*
X96404440Y-84917040D01*
X91900000Y-64899800D02*
X94145100Y-62654700D01*
X91900000Y-83700000D02*
X91900000Y-64899800D01*
X93059000Y-84859000D02*
X91900000Y-83700000D01*
X96346400Y-84859000D02*
X93059000Y-84859000D01*
%TO.N,Net-(J17-Pad3)*%
X109738653Y-84764147D02*
X106908600Y-87594200D01*
X109738653Y-77709013D02*
X109738653Y-84764147D01*
D50*
X109738653Y-75361347D02*
X109738653Y-77709013D01*
X127761934Y-73300000D02*
X111800000Y-73300000D01*
X129840701Y-75378767D02*
X127761934Y-73300000D01*
X129840701Y-77023701D02*
X129840701Y-75378767D01*
X111800000Y-73300000D02*
X109738653Y-75361347D01*
X132588000Y-79771000D02*
X129840701Y-77023701D01*
D46*
%TO.N,Net-(J18-Pad7)*%
X165608000Y-31511000D02*
X168808010Y-34711010D01*
X168808010Y-34711010D02*
X168808010Y-80493268D01*
X168808010Y-80493268D02*
X164901278Y-84400000D01*
X164901278Y-84400000D02*
X160902800Y-84400000D01*
X160902800Y-84400000D02*
X157708600Y-87594200D01*
%TO.N,Net-(J18-Pad5)*%
X165930800Y-88535022D02*
X165930800Y-85314400D01*
X164465822Y-90000000D02*
X165930800Y-88535022D01*
X155034400Y-90000000D02*
X164465822Y-90000000D01*
X152628600Y-87594200D02*
X155034400Y-90000000D01*
%TO.N,Net-(J18-Pad4)*%
X150088600Y-87594200D02*
X153244400Y-90750000D01*
X164717100Y-90750000D02*
X166930800Y-88536300D01*
X166930800Y-88536300D02*
X166930800Y-85314400D01*
X153244400Y-90750000D02*
X164717100Y-90750000D01*
%TO.N,Net-(J18-Pad2)*%
X155298722Y-92200000D02*
X149614400Y-92200000D01*
X171866989Y-108768267D02*
X155298722Y-92200000D01*
X171866989Y-135525311D02*
X171866989Y-108768267D01*
X169204879Y-137604919D02*
X169787381Y-137604919D01*
X168496867Y-138312931D02*
X169204879Y-137604919D01*
X162717068Y-138312932D02*
X168496867Y-138312931D01*
X160042000Y-140988000D02*
X162717068Y-138312932D01*
X149614400Y-92200000D02*
X145008600Y-87594200D01*
X169787381Y-137604919D02*
X171866989Y-135525311D01*
%TO.N,Net-(R1-Pad2)*%
X153792800Y-149647200D02*
X153892000Y-149548000D01*
X149654900Y-149647200D02*
X153792800Y-149647200D01*
%TO.N,Net-(R2-Pad2)*%
X155518400Y-145024400D02*
X160042000Y-149548000D01*
X149604100Y-145024400D02*
X155518400Y-145024400D01*
%TO.N,Net-(C2-Pad1)*%
X40080000Y-164730000D02*
X38810000Y-163460000D01*
X40080000Y-166000000D02*
X40080000Y-164730000D01*
X40050000Y-164700000D02*
X38810000Y-163460000D01*
X50850000Y-164700000D02*
X40050000Y-164700000D01*
X51100000Y-164450000D02*
X50850000Y-164700000D01*
D47*
%TO.N,Net-(C11-Pad1)*%
X101615200Y-87807600D02*
X101828600Y-87594200D01*
D46*
X146679100Y-145024400D02*
X146679100Y-140198400D01*
D47*
X101879360Y-87644960D02*
X101828600Y-87594200D01*
X101879360Y-91201000D02*
X101879360Y-87644960D01*
X140208000Y-79197000D02*
X140208000Y-79771000D01*
X133573500Y-72562500D02*
X140208000Y-79197000D01*
X131114800Y-75986400D02*
X131114800Y-75021200D01*
X131114800Y-75021200D02*
X133573500Y-72562500D01*
X131155400Y-70144400D02*
X133573500Y-72562500D01*
X57788400Y-125179400D02*
X57810400Y-125201400D01*
X54295000Y-125179400D02*
X57788400Y-125179400D01*
X91322000Y-136717800D02*
X88163400Y-136717800D01*
X81965800Y-130520200D02*
X81965800Y-128777800D01*
X88163400Y-136717800D02*
X81965800Y-130520200D01*
X84661600Y-128777800D02*
X84708600Y-128730800D01*
X81965800Y-128777800D02*
X84661600Y-128777800D01*
X81240800Y-128777800D02*
X80405790Y-127942790D01*
X81965800Y-128777800D02*
X81240800Y-128777800D01*
X93675200Y-106745800D02*
X95935800Y-106745800D01*
X80405790Y-120015210D02*
X93675200Y-106745800D01*
X99314000Y-145237980D02*
X99260660Y-145184640D01*
X60482200Y-171582200D02*
X60482200Y-175654600D01*
X60482200Y-168034600D02*
X60482200Y-171582200D01*
X97380360Y-95700000D02*
X97200000Y-95700000D01*
X101879360Y-91201000D02*
X97380360Y-95700000D01*
X113664928Y-69948860D02*
X130548380Y-69948860D01*
X101828600Y-87594200D02*
X101828600Y-81785188D01*
X101828600Y-81785188D02*
X113664928Y-69948860D01*
D46*
X146729900Y-145075200D02*
X146679100Y-145024400D01*
X146729900Y-149647200D02*
X146729900Y-145075200D01*
X145973499Y-150403601D02*
X146729900Y-149647200D01*
X145973499Y-157047523D02*
X145973499Y-150403601D01*
X139671022Y-163350000D02*
X145973499Y-157047523D01*
X138890000Y-163350000D02*
X139671022Y-163350000D01*
D47*
X138890000Y-163350000D02*
X124565000Y-177675000D01*
X62502600Y-177675000D02*
X60482200Y-175654600D01*
X91050000Y-177675000D02*
X62502600Y-177675000D01*
X124565000Y-177675000D02*
X91050000Y-177675000D01*
X79876400Y-125201400D02*
X80405790Y-125730790D01*
X57810400Y-125201400D02*
X79876400Y-125201400D01*
X80405790Y-125730790D02*
X80405790Y-120015210D01*
X80405790Y-127942790D02*
X80405790Y-125730790D01*
X73500000Y-144071091D02*
X73500000Y-142255000D01*
X74303909Y-144875000D02*
X73500000Y-144071091D01*
X79800000Y-144875000D02*
X74303909Y-144875000D01*
X87957200Y-136717800D02*
X79800000Y-144875000D01*
X91322000Y-136717800D02*
X87957200Y-136717800D01*
X89850000Y-143721000D02*
X88544400Y-145026600D01*
X89850000Y-139025000D02*
X89850000Y-143721000D01*
X91322000Y-137553000D02*
X89850000Y-139025000D01*
X91322000Y-136717800D02*
X91322000Y-137553000D01*
X91322000Y-137572000D02*
X91322000Y-136717800D01*
X98934640Y-145184640D02*
X91322000Y-137572000D01*
X99260660Y-145184640D02*
X98934640Y-145184640D01*
X102584640Y-145184640D02*
X106512500Y-149112500D01*
X99260660Y-145184640D02*
X102584640Y-145184640D01*
X105373800Y-149501200D02*
X107000800Y-149501200D01*
X91200000Y-163675000D02*
X105373800Y-149501200D01*
X91200000Y-177147401D02*
X91200000Y-163675000D01*
D46*
X132055000Y-146725000D02*
X131950000Y-146620000D01*
X134950000Y-146725000D02*
X132055000Y-146725000D01*
X138890000Y-163350000D02*
X137078499Y-161538499D01*
X137078499Y-161538499D02*
X137078499Y-150117423D01*
X137078499Y-150117423D02*
X134950000Y-147988924D01*
X134950000Y-147988924D02*
X134950000Y-146725000D01*
D47*
X94183200Y-29159200D02*
X94183200Y-31699200D01*
X94183200Y-50467132D02*
X94984634Y-51268566D01*
X94183200Y-31699200D02*
X94183200Y-50467132D01*
X94984634Y-51268566D02*
X94361000Y-50644932D01*
X113664928Y-69948860D02*
X94984634Y-51268566D01*
D46*
%TO.N,Net-(J6-Pad9)*%
X149642477Y-158811501D02*
X153263499Y-158811501D01*
X143340000Y-163350000D02*
X145103978Y-163350000D01*
X145103978Y-163350000D02*
X149642477Y-158811501D01*
X155250488Y-150729512D02*
X156432000Y-149548000D01*
X155250488Y-156824512D02*
X155250488Y-150729512D01*
X153263499Y-158811501D02*
X155250488Y-156824512D01*
%TO.N,Net-(J6-Pad8)*%
X147785000Y-163350000D02*
X151615488Y-159519512D01*
X151615488Y-159519512D02*
X153556767Y-159519511D01*
X155958499Y-156171501D02*
X161842000Y-150288000D01*
X153556767Y-159519511D02*
X155958499Y-157117779D01*
X155958499Y-157117779D02*
X155958499Y-156171501D01*
X161842000Y-150288000D02*
X162582000Y-149548000D01*
%TO.N,Net-(J6-Pad7)*%
X168732000Y-151933822D02*
X168732000Y-149548000D01*
X157315822Y-163350000D02*
X168732000Y-151933822D01*
X152230000Y-163350000D02*
X157315822Y-163350000D01*
%TO.N,Net-(J6-Pad3)*%
X132075000Y-129385000D02*
X128220000Y-125530000D01*
X132075000Y-139575000D02*
X132075000Y-129385000D01*
X138890000Y-146390000D02*
X132075000Y-139575000D01*
X138890000Y-157000000D02*
X138890000Y-146390000D01*
%TO.N,Net-(KF3-Pad4)*%
X142950000Y-122530000D02*
X135330000Y-122530000D01*
X156554900Y-122504200D02*
X159475900Y-119583200D01*
X154635200Y-122504200D02*
X156554900Y-122504200D01*
%TO.N,Net-(J6-Pad4)*%
X143600900Y-156739100D02*
X143340000Y-157000000D01*
X143600900Y-151130000D02*
X143600900Y-156739100D01*
D48*
%TO.N,Net-(K1-Pad3)*%
X93712600Y-174629600D02*
X93712600Y-167009600D01*
X106750000Y-143350000D02*
X104750000Y-143350000D01*
X110400000Y-147000000D02*
X106750000Y-143350000D01*
X110400000Y-150322200D02*
X110400000Y-147000000D01*
X93712600Y-167009600D02*
X110400000Y-150322200D01*
D46*
%TO.N,Net-(D1-Pad3)*%
X126451900Y-140639800D02*
X126502700Y-140589000D01*
X126451900Y-144322800D02*
X126451900Y-140639800D01*
X128990600Y-138101100D02*
X128990600Y-136220200D01*
X126502700Y-140589000D02*
X128990600Y-138101100D01*
X122605800Y-113385600D02*
X122732800Y-113258600D01*
X122605800Y-126771400D02*
X122605800Y-113385600D01*
X123672600Y-127838200D02*
X122605800Y-126771400D01*
X127787400Y-127838200D02*
X123672600Y-127838200D01*
X129260600Y-129311400D02*
X127787400Y-127838200D01*
X129260600Y-135950200D02*
X129260600Y-129311400D01*
X128990600Y-136220200D02*
X129260600Y-135950200D01*
%TO.N,Net-(D2-Pad3)*%
X150039600Y-107865200D02*
X145008600Y-102834200D01*
X156550900Y-115925600D02*
X156474700Y-115849400D01*
X156550900Y-119583200D02*
X156550900Y-115925600D01*
X158759400Y-113564700D02*
X158759400Y-111277400D01*
X156474700Y-115849400D02*
X158759400Y-113564700D01*
X158759400Y-110369400D02*
X156329800Y-107939800D01*
X158759400Y-111277400D02*
X158759400Y-110369400D01*
X150114200Y-107939800D02*
X150039600Y-107865200D01*
X156329800Y-107939800D02*
X150114200Y-107939800D01*
%TO.N,Net-(D6-Pad3)*%
X140884400Y-147086100D02*
X140625100Y-147345400D01*
X140884400Y-142798800D02*
X140884400Y-147086100D01*
X140625100Y-151079200D02*
X140675900Y-151130000D01*
X140625100Y-147345400D02*
X140625100Y-151079200D01*
X133075000Y-120325000D02*
X133075000Y-139450000D01*
X142468600Y-102834200D02*
X146421401Y-106787001D01*
X143175000Y-118500000D02*
X134900000Y-118500000D01*
X146421401Y-106787001D02*
X146421401Y-115253599D01*
X133075000Y-139450000D02*
X136423800Y-142798800D01*
X134900000Y-118500000D02*
X133075000Y-120325000D01*
X146421401Y-115253599D02*
X143175000Y-118500000D01*
X136423800Y-142798800D02*
X140884400Y-142798800D01*
%TO.N,Net-(R8-Pad2)*%
X129376900Y-146599900D02*
X129376900Y-144322800D01*
X130667000Y-147890000D02*
X129376900Y-146599900D01*
X131950000Y-147890000D02*
X130667000Y-147890000D01*
%TD*%
D51*
%TO.N,Net-(J6-Pad12)*%
X132270868Y-162658177D02*
X132206242Y-164126929D01*
X130890795Y-165719948D01*
X105351973Y-176405000D01*
X104665036Y-176405000D01*
X104910283Y-176273912D01*
X105042219Y-175978824D01*
X103872600Y-174809205D01*
X102702981Y-175978824D01*
X102834917Y-176273912D01*
X103096352Y-176405000D01*
X102554720Y-176405000D01*
X101727493Y-175028104D01*
X101732350Y-174680329D01*
X101928899Y-174680329D01*
X101976143Y-175058551D01*
X102096267Y-175420290D01*
X102228288Y-175667283D01*
X102523376Y-175799219D01*
X103692995Y-174629600D01*
X104052205Y-174629600D01*
X105221824Y-175799219D01*
X105516912Y-175667283D01*
X105687759Y-175326555D01*
X105788850Y-174959043D01*
X105816301Y-174578871D01*
X105769057Y-174200649D01*
X105648933Y-173838910D01*
X105516912Y-173591917D01*
X105221824Y-173459981D01*
X104052205Y-174629600D01*
X103692995Y-174629600D01*
X102523376Y-173459981D01*
X102228288Y-173591917D01*
X102057441Y-173932645D01*
X101956350Y-174300157D01*
X101928899Y-174680329D01*
X101732350Y-174680329D01*
X101751902Y-173280376D01*
X102702981Y-173280376D01*
X103872600Y-174449995D01*
X105042219Y-173280376D01*
X104910283Y-172985288D01*
X104569555Y-172814441D01*
X104202043Y-172713350D01*
X103821871Y-172685899D01*
X103443649Y-172733143D01*
X103081910Y-172853267D01*
X102834917Y-172985288D01*
X102702981Y-173280376D01*
X101751902Y-173280376D01*
X101820638Y-168358824D01*
X102702981Y-168358824D01*
X102834917Y-168653912D01*
X103175645Y-168824759D01*
X103543157Y-168925850D01*
X103923329Y-168953301D01*
X104301551Y-168906057D01*
X104663290Y-168785933D01*
X104910283Y-168653912D01*
X105042219Y-168358824D01*
X103872600Y-167189205D01*
X102702981Y-168358824D01*
X101820638Y-168358824D01*
X101838774Y-167060329D01*
X101928899Y-167060329D01*
X101976143Y-167438551D01*
X102096267Y-167800290D01*
X102228288Y-168047283D01*
X102523376Y-168179219D01*
X103692995Y-167009600D01*
X104052205Y-167009600D01*
X105221824Y-168179219D01*
X105516912Y-168047283D01*
X105687759Y-167706555D01*
X105788850Y-167339043D01*
X105816301Y-166958871D01*
X105769057Y-166580649D01*
X105648933Y-166218910D01*
X105516912Y-165971917D01*
X105221824Y-165839981D01*
X104052205Y-167009600D01*
X103692995Y-167009600D01*
X102523376Y-165839981D01*
X102228288Y-165971917D01*
X102057441Y-166312645D01*
X101956350Y-166680157D01*
X101928899Y-167060329D01*
X101838774Y-167060329D01*
X101851262Y-166166233D01*
X102362558Y-165660376D01*
X102702981Y-165660376D01*
X103872600Y-166829995D01*
X105042219Y-165660376D01*
X104910283Y-165365288D01*
X104569555Y-165194441D01*
X104202043Y-165093350D01*
X103821871Y-165065899D01*
X103443649Y-165113143D01*
X103081910Y-165233267D01*
X102834917Y-165365288D01*
X102702981Y-165660376D01*
X102362558Y-165660376D01*
X102959610Y-165069676D01*
X105228569Y-164740180D01*
X128789425Y-164740180D01*
X128928286Y-165041153D01*
X129278806Y-165217739D01*
X129657042Y-165322549D01*
X130048457Y-165351556D01*
X130438010Y-165303643D01*
X130810730Y-165180653D01*
X131071714Y-165041153D01*
X131210575Y-164740180D01*
X130000000Y-163529605D01*
X128789425Y-164740180D01*
X105228569Y-164740180D01*
X114467880Y-163398457D01*
X127998444Y-163398457D01*
X128046357Y-163788010D01*
X128169347Y-164160730D01*
X128308847Y-164421714D01*
X128609820Y-164560575D01*
X129820395Y-163350000D01*
X130179605Y-163350000D01*
X131390180Y-164560575D01*
X131691153Y-164421714D01*
X131867739Y-164071194D01*
X131972549Y-163692958D01*
X132001556Y-163301543D01*
X131953643Y-162911990D01*
X131830653Y-162539270D01*
X131691153Y-162278286D01*
X131390180Y-162139425D01*
X130179605Y-163350000D01*
X129820395Y-163350000D01*
X128609820Y-162139425D01*
X128308847Y-162278286D01*
X128132261Y-162628806D01*
X128027451Y-163007042D01*
X127998444Y-163398457D01*
X114467880Y-163398457D01*
X124374555Y-161959820D01*
X128789425Y-161959820D01*
X130000000Y-163170395D01*
X131210575Y-161959820D01*
X131071714Y-161658847D01*
X130721194Y-161482261D01*
X130342958Y-161377451D01*
X129951543Y-161348444D01*
X129561990Y-161396357D01*
X129189270Y-161519347D01*
X128928286Y-161658847D01*
X128789425Y-161959820D01*
X124374555Y-161959820D01*
X130825318Y-161023047D01*
X132270868Y-162658177D01*
%TA.AperFunction,Conductor*%
D52*
G36*
X132270868Y-162658177D02*
G01*
X132206242Y-164126929D01*
X130890795Y-165719948D01*
X105351973Y-176405000D01*
X104665036Y-176405000D01*
X104910283Y-176273912D01*
X105042219Y-175978824D01*
X103872600Y-174809205D01*
X102702981Y-175978824D01*
X102834917Y-176273912D01*
X103096352Y-176405000D01*
X102554720Y-176405000D01*
X101727493Y-175028104D01*
X101732350Y-174680329D01*
X101928899Y-174680329D01*
X101976143Y-175058551D01*
X102096267Y-175420290D01*
X102228288Y-175667283D01*
X102523376Y-175799219D01*
X103692995Y-174629600D01*
X104052205Y-174629600D01*
X105221824Y-175799219D01*
X105516912Y-175667283D01*
X105687759Y-175326555D01*
X105788850Y-174959043D01*
X105816301Y-174578871D01*
X105769057Y-174200649D01*
X105648933Y-173838910D01*
X105516912Y-173591917D01*
X105221824Y-173459981D01*
X104052205Y-174629600D01*
X103692995Y-174629600D01*
X102523376Y-173459981D01*
X102228288Y-173591917D01*
X102057441Y-173932645D01*
X101956350Y-174300157D01*
X101928899Y-174680329D01*
X101732350Y-174680329D01*
X101751902Y-173280376D01*
X102702981Y-173280376D01*
X103872600Y-174449995D01*
X105042219Y-173280376D01*
X104910283Y-172985288D01*
X104569555Y-172814441D01*
X104202043Y-172713350D01*
X103821871Y-172685899D01*
X103443649Y-172733143D01*
X103081910Y-172853267D01*
X102834917Y-172985288D01*
X102702981Y-173280376D01*
X101751902Y-173280376D01*
X101820638Y-168358824D01*
X102702981Y-168358824D01*
X102834917Y-168653912D01*
X103175645Y-168824759D01*
X103543157Y-168925850D01*
X103923329Y-168953301D01*
X104301551Y-168906057D01*
X104663290Y-168785933D01*
X104910283Y-168653912D01*
X105042219Y-168358824D01*
X103872600Y-167189205D01*
X102702981Y-168358824D01*
X101820638Y-168358824D01*
X101838774Y-167060329D01*
X101928899Y-167060329D01*
X101976143Y-167438551D01*
X102096267Y-167800290D01*
X102228288Y-168047283D01*
X102523376Y-168179219D01*
X103692995Y-167009600D01*
X104052205Y-167009600D01*
X105221824Y-168179219D01*
X105516912Y-168047283D01*
X105687759Y-167706555D01*
X105788850Y-167339043D01*
X105816301Y-166958871D01*
X105769057Y-166580649D01*
X105648933Y-166218910D01*
X105516912Y-165971917D01*
X105221824Y-165839981D01*
X104052205Y-167009600D01*
X103692995Y-167009600D01*
X102523376Y-165839981D01*
X102228288Y-165971917D01*
X102057441Y-166312645D01*
X101956350Y-166680157D01*
X101928899Y-167060329D01*
X101838774Y-167060329D01*
X101851262Y-166166233D01*
X102362558Y-165660376D01*
X102702981Y-165660376D01*
X103872600Y-166829995D01*
X105042219Y-165660376D01*
X104910283Y-165365288D01*
X104569555Y-165194441D01*
X104202043Y-165093350D01*
X103821871Y-165065899D01*
X103443649Y-165113143D01*
X103081910Y-165233267D01*
X102834917Y-165365288D01*
X102702981Y-165660376D01*
X102362558Y-165660376D01*
X102959610Y-165069676D01*
X105228569Y-164740180D01*
X128789425Y-164740180D01*
X128928286Y-165041153D01*
X129278806Y-165217739D01*
X129657042Y-165322549D01*
X130048457Y-165351556D01*
X130438010Y-165303643D01*
X130810730Y-165180653D01*
X131071714Y-165041153D01*
X131210575Y-164740180D01*
X130000000Y-163529605D01*
X128789425Y-164740180D01*
X105228569Y-164740180D01*
X114467880Y-163398457D01*
X127998444Y-163398457D01*
X128046357Y-163788010D01*
X128169347Y-164160730D01*
X128308847Y-164421714D01*
X128609820Y-164560575D01*
X129820395Y-163350000D01*
X130179605Y-163350000D01*
X131390180Y-164560575D01*
X131691153Y-164421714D01*
X131867739Y-164071194D01*
X131972549Y-163692958D01*
X132001556Y-163301543D01*
X131953643Y-162911990D01*
X131830653Y-162539270D01*
X131691153Y-162278286D01*
X131390180Y-162139425D01*
X130179605Y-163350000D01*
X129820395Y-163350000D01*
X128609820Y-162139425D01*
X128308847Y-162278286D01*
X128132261Y-162628806D01*
X128027451Y-163007042D01*
X127998444Y-163398457D01*
X114467880Y-163398457D01*
X124374555Y-161959820D01*
X128789425Y-161959820D01*
X130000000Y-163170395D01*
X131210575Y-161959820D01*
X131071714Y-161658847D01*
X130721194Y-161482261D01*
X130342958Y-161377451D01*
X129951543Y-161348444D01*
X129561990Y-161396357D01*
X129189270Y-161519347D01*
X128928286Y-161658847D01*
X128789425Y-161959820D01*
X124374555Y-161959820D01*
X130825318Y-161023047D01*
X132270868Y-162658177D01*
G37*
%TD.AperFunction*%
%TD*%
D51*
%TO.N,Net-(D4-Pad2)*%
X85648276Y-165051641D02*
X85672721Y-176247330D01*
X84604675Y-176241723D01*
X84722219Y-175978824D01*
X83552600Y-174809205D01*
X82382981Y-175978824D01*
X82495575Y-176230652D01*
X80337757Y-176219325D01*
X80362102Y-176173780D01*
X80398412Y-176054082D01*
X80410672Y-175929600D01*
X80407600Y-174915350D01*
X80248850Y-174756600D01*
X78599600Y-174756600D01*
X78599600Y-174776600D01*
X78345600Y-174776600D01*
X78345600Y-174756600D01*
X76696350Y-174756600D01*
X76537600Y-174915350D01*
X76534528Y-175929600D01*
X76546788Y-176054082D01*
X76583098Y-176173780D01*
X76596947Y-176199688D01*
X76308832Y-176198176D01*
X73633938Y-174680329D01*
X81608899Y-174680329D01*
X81656143Y-175058551D01*
X81776267Y-175420290D01*
X81908288Y-175667283D01*
X82203376Y-175799219D01*
X83372995Y-174629600D01*
X83732205Y-174629600D01*
X84901824Y-175799219D01*
X85196912Y-175667283D01*
X85367759Y-175326555D01*
X85468850Y-174959043D01*
X85496301Y-174578871D01*
X85449057Y-174200649D01*
X85328933Y-173838910D01*
X85196912Y-173591917D01*
X84901824Y-173459981D01*
X83732205Y-174629600D01*
X83372995Y-174629600D01*
X82203376Y-173459981D01*
X81908288Y-173591917D01*
X81737441Y-173932645D01*
X81636350Y-174300157D01*
X81608899Y-174680329D01*
X73633938Y-174680329D01*
X71253554Y-173329600D01*
X76534528Y-173329600D01*
X76537600Y-174343850D01*
X76696350Y-174502600D01*
X78345600Y-174502600D01*
X78345600Y-172853350D01*
X78599600Y-172853350D01*
X78599600Y-174502600D01*
X80248850Y-174502600D01*
X80407600Y-174343850D01*
X80410672Y-173329600D01*
X80405825Y-173280376D01*
X82382981Y-173280376D01*
X83552600Y-174449995D01*
X84722219Y-173280376D01*
X84590283Y-172985288D01*
X84249555Y-172814441D01*
X83882043Y-172713350D01*
X83501871Y-172685899D01*
X83123649Y-172733143D01*
X82761910Y-172853267D01*
X82514917Y-172985288D01*
X82382981Y-173280376D01*
X80405825Y-173280376D01*
X80398412Y-173205118D01*
X80362102Y-173085420D01*
X80303137Y-172975106D01*
X80223785Y-172878415D01*
X80127094Y-172799063D01*
X80016780Y-172740098D01*
X79897082Y-172703788D01*
X79772600Y-172691528D01*
X78758350Y-172694600D01*
X78599600Y-172853350D01*
X78345600Y-172853350D01*
X78186850Y-172694600D01*
X77172600Y-172691528D01*
X77048118Y-172703788D01*
X76928420Y-172740098D01*
X76818106Y-172799063D01*
X76721415Y-172878415D01*
X76642063Y-172975106D01*
X76583098Y-173085420D01*
X76546788Y-173205118D01*
X76534528Y-173329600D01*
X71253554Y-173329600D01*
X70984529Y-173176944D01*
X70610902Y-172699531D01*
X70880074Y-172699531D01*
X70990921Y-172976714D01*
X71301840Y-173130089D01*
X71636705Y-173219860D01*
X71982650Y-173242576D01*
X72326380Y-173197366D01*
X72654685Y-173085966D01*
X72859079Y-172976714D01*
X72969926Y-172699531D01*
X71925000Y-171654605D01*
X70880074Y-172699531D01*
X70610902Y-172699531D01*
X70127000Y-172081212D01*
X70127000Y-171532650D01*
X70157424Y-171532650D01*
X70202634Y-171876380D01*
X70314034Y-172204685D01*
X70423286Y-172409079D01*
X70700469Y-172519926D01*
X71745395Y-171475000D01*
X72104605Y-171475000D01*
X73149531Y-172519926D01*
X73426714Y-172409079D01*
X73580089Y-172098160D01*
X73669860Y-171763295D01*
X73692576Y-171417350D01*
X73647366Y-171073620D01*
X73535966Y-170745315D01*
X73426714Y-170540921D01*
X73149531Y-170430074D01*
X72104605Y-171475000D01*
X71745395Y-171475000D01*
X70700469Y-170430074D01*
X70423286Y-170540921D01*
X70269911Y-170851840D01*
X70180140Y-171186705D01*
X70157424Y-171532650D01*
X70127000Y-171532650D01*
X70127000Y-170610427D01*
X70569780Y-170250469D01*
X70880074Y-170250469D01*
X71925000Y-171295395D01*
X72969926Y-170250469D01*
X72859079Y-169973286D01*
X72548160Y-169819911D01*
X72213295Y-169730140D01*
X71867350Y-169707424D01*
X71523620Y-169752634D01*
X71195315Y-169864034D01*
X70990921Y-169973286D01*
X70880074Y-170250469D01*
X70569780Y-170250469D01*
X72957220Y-168309600D01*
X76534528Y-168309600D01*
X76546788Y-168434082D01*
X76583098Y-168553780D01*
X76642063Y-168664094D01*
X76721415Y-168760785D01*
X76818106Y-168840137D01*
X76928420Y-168899102D01*
X77048118Y-168935412D01*
X77172600Y-168947672D01*
X78186850Y-168944600D01*
X78345600Y-168785850D01*
X78345600Y-167136600D01*
X78599600Y-167136600D01*
X78599600Y-168785850D01*
X78758350Y-168944600D01*
X79772600Y-168947672D01*
X79897082Y-168935412D01*
X80016780Y-168899102D01*
X80127094Y-168840137D01*
X80223785Y-168760785D01*
X80303137Y-168664094D01*
X80362102Y-168553780D01*
X80398412Y-168434082D01*
X80405824Y-168358824D01*
X82382981Y-168358824D01*
X82514917Y-168653912D01*
X82855645Y-168824759D01*
X83223157Y-168925850D01*
X83603329Y-168953301D01*
X83981551Y-168906057D01*
X84343290Y-168785933D01*
X84590283Y-168653912D01*
X84722219Y-168358824D01*
X83552600Y-167189205D01*
X82382981Y-168358824D01*
X80405824Y-168358824D01*
X80410672Y-168309600D01*
X80407600Y-167295350D01*
X80248850Y-167136600D01*
X78599600Y-167136600D01*
X78345600Y-167136600D01*
X76696350Y-167136600D01*
X76537600Y-167295350D01*
X76534528Y-168309600D01*
X72957220Y-168309600D01*
X74493933Y-167060329D01*
X81608899Y-167060329D01*
X81656143Y-167438551D01*
X81776267Y-167800290D01*
X81908288Y-168047283D01*
X82203376Y-168179219D01*
X83372995Y-167009600D01*
X83732205Y-167009600D01*
X84901824Y-168179219D01*
X85196912Y-168047283D01*
X85367759Y-167706555D01*
X85468850Y-167339043D01*
X85496301Y-166958871D01*
X85449057Y-166580649D01*
X85328933Y-166218910D01*
X85196912Y-165971917D01*
X84901824Y-165839981D01*
X83732205Y-167009600D01*
X83372995Y-167009600D01*
X82203376Y-165839981D01*
X81908288Y-165971917D01*
X81737441Y-166312645D01*
X81636350Y-166680157D01*
X81608899Y-167060329D01*
X74493933Y-167060329D01*
X76155450Y-165709600D01*
X76534528Y-165709600D01*
X76537600Y-166723850D01*
X76696350Y-166882600D01*
X78345600Y-166882600D01*
X78345600Y-165233350D01*
X78599600Y-165233350D01*
X78599600Y-166882600D01*
X80248850Y-166882600D01*
X80407600Y-166723850D01*
X80410672Y-165709600D01*
X80405825Y-165660376D01*
X82382981Y-165660376D01*
X83552600Y-166829995D01*
X84722219Y-165660376D01*
X84590283Y-165365288D01*
X84249555Y-165194441D01*
X83882043Y-165093350D01*
X83501871Y-165065899D01*
X83123649Y-165113143D01*
X82761910Y-165233267D01*
X82514917Y-165365288D01*
X82382981Y-165660376D01*
X80405825Y-165660376D01*
X80398412Y-165585118D01*
X80362102Y-165465420D01*
X80303137Y-165355106D01*
X80223785Y-165258415D01*
X80127094Y-165179063D01*
X80016780Y-165120098D01*
X79897082Y-165083788D01*
X79772600Y-165071528D01*
X78758350Y-165074600D01*
X78599600Y-165233350D01*
X78345600Y-165233350D01*
X78186850Y-165074600D01*
X77172600Y-165071528D01*
X77048118Y-165083788D01*
X76928420Y-165120098D01*
X76818106Y-165179063D01*
X76721415Y-165258415D01*
X76642063Y-165355106D01*
X76583098Y-165465420D01*
X76546788Y-165585118D01*
X76534528Y-165709600D01*
X76155450Y-165709600D01*
X76994953Y-165027127D01*
X85648276Y-165051641D01*
%TA.AperFunction,Conductor*%
D52*
G36*
X85648276Y-165051641D02*
G01*
X85672721Y-176247330D01*
X84604675Y-176241723D01*
X84722219Y-175978824D01*
X83552600Y-174809205D01*
X82382981Y-175978824D01*
X82495575Y-176230652D01*
X80337757Y-176219325D01*
X80362102Y-176173780D01*
X80398412Y-176054082D01*
X80410672Y-175929600D01*
X80407600Y-174915350D01*
X80248850Y-174756600D01*
X78599600Y-174756600D01*
X78599600Y-174776600D01*
X78345600Y-174776600D01*
X78345600Y-174756600D01*
X76696350Y-174756600D01*
X76537600Y-174915350D01*
X76534528Y-175929600D01*
X76546788Y-176054082D01*
X76583098Y-176173780D01*
X76596947Y-176199688D01*
X76308832Y-176198176D01*
X73633938Y-174680329D01*
X81608899Y-174680329D01*
X81656143Y-175058551D01*
X81776267Y-175420290D01*
X81908288Y-175667283D01*
X82203376Y-175799219D01*
X83372995Y-174629600D01*
X83732205Y-174629600D01*
X84901824Y-175799219D01*
X85196912Y-175667283D01*
X85367759Y-175326555D01*
X85468850Y-174959043D01*
X85496301Y-174578871D01*
X85449057Y-174200649D01*
X85328933Y-173838910D01*
X85196912Y-173591917D01*
X84901824Y-173459981D01*
X83732205Y-174629600D01*
X83372995Y-174629600D01*
X82203376Y-173459981D01*
X81908288Y-173591917D01*
X81737441Y-173932645D01*
X81636350Y-174300157D01*
X81608899Y-174680329D01*
X73633938Y-174680329D01*
X71253554Y-173329600D01*
X76534528Y-173329600D01*
X76537600Y-174343850D01*
X76696350Y-174502600D01*
X78345600Y-174502600D01*
X78345600Y-172853350D01*
X78599600Y-172853350D01*
X78599600Y-174502600D01*
X80248850Y-174502600D01*
X80407600Y-174343850D01*
X80410672Y-173329600D01*
X80405825Y-173280376D01*
X82382981Y-173280376D01*
X83552600Y-174449995D01*
X84722219Y-173280376D01*
X84590283Y-172985288D01*
X84249555Y-172814441D01*
X83882043Y-172713350D01*
X83501871Y-172685899D01*
X83123649Y-172733143D01*
X82761910Y-172853267D01*
X82514917Y-172985288D01*
X82382981Y-173280376D01*
X80405825Y-173280376D01*
X80398412Y-173205118D01*
X80362102Y-173085420D01*
X80303137Y-172975106D01*
X80223785Y-172878415D01*
X80127094Y-172799063D01*
X80016780Y-172740098D01*
X79897082Y-172703788D01*
X79772600Y-172691528D01*
X78758350Y-172694600D01*
X78599600Y-172853350D01*
X78345600Y-172853350D01*
X78186850Y-172694600D01*
X77172600Y-172691528D01*
X77048118Y-172703788D01*
X76928420Y-172740098D01*
X76818106Y-172799063D01*
X76721415Y-172878415D01*
X76642063Y-172975106D01*
X76583098Y-173085420D01*
X76546788Y-173205118D01*
X76534528Y-173329600D01*
X71253554Y-173329600D01*
X70984529Y-173176944D01*
X70610902Y-172699531D01*
X70880074Y-172699531D01*
X70990921Y-172976714D01*
X71301840Y-173130089D01*
X71636705Y-173219860D01*
X71982650Y-173242576D01*
X72326380Y-173197366D01*
X72654685Y-173085966D01*
X72859079Y-172976714D01*
X72969926Y-172699531D01*
X71925000Y-171654605D01*
X70880074Y-172699531D01*
X70610902Y-172699531D01*
X70127000Y-172081212D01*
X70127000Y-171532650D01*
X70157424Y-171532650D01*
X70202634Y-171876380D01*
X70314034Y-172204685D01*
X70423286Y-172409079D01*
X70700469Y-172519926D01*
X71745395Y-171475000D01*
X72104605Y-171475000D01*
X73149531Y-172519926D01*
X73426714Y-172409079D01*
X73580089Y-172098160D01*
X73669860Y-171763295D01*
X73692576Y-171417350D01*
X73647366Y-171073620D01*
X73535966Y-170745315D01*
X73426714Y-170540921D01*
X73149531Y-170430074D01*
X72104605Y-171475000D01*
X71745395Y-171475000D01*
X70700469Y-170430074D01*
X70423286Y-170540921D01*
X70269911Y-170851840D01*
X70180140Y-171186705D01*
X70157424Y-171532650D01*
X70127000Y-171532650D01*
X70127000Y-170610427D01*
X70569780Y-170250469D01*
X70880074Y-170250469D01*
X71925000Y-171295395D01*
X72969926Y-170250469D01*
X72859079Y-169973286D01*
X72548160Y-169819911D01*
X72213295Y-169730140D01*
X71867350Y-169707424D01*
X71523620Y-169752634D01*
X71195315Y-169864034D01*
X70990921Y-169973286D01*
X70880074Y-170250469D01*
X70569780Y-170250469D01*
X72957220Y-168309600D01*
X76534528Y-168309600D01*
X76546788Y-168434082D01*
X76583098Y-168553780D01*
X76642063Y-168664094D01*
X76721415Y-168760785D01*
X76818106Y-168840137D01*
X76928420Y-168899102D01*
X77048118Y-168935412D01*
X77172600Y-168947672D01*
X78186850Y-168944600D01*
X78345600Y-168785850D01*
X78345600Y-167136600D01*
X78599600Y-167136600D01*
X78599600Y-168785850D01*
X78758350Y-168944600D01*
X79772600Y-168947672D01*
X79897082Y-168935412D01*
X80016780Y-168899102D01*
X80127094Y-168840137D01*
X80223785Y-168760785D01*
X80303137Y-168664094D01*
X80362102Y-168553780D01*
X80398412Y-168434082D01*
X80405824Y-168358824D01*
X82382981Y-168358824D01*
X82514917Y-168653912D01*
X82855645Y-168824759D01*
X83223157Y-168925850D01*
X83603329Y-168953301D01*
X83981551Y-168906057D01*
X84343290Y-168785933D01*
X84590283Y-168653912D01*
X84722219Y-168358824D01*
X83552600Y-167189205D01*
X82382981Y-168358824D01*
X80405824Y-168358824D01*
X80410672Y-168309600D01*
X80407600Y-167295350D01*
X80248850Y-167136600D01*
X78599600Y-167136600D01*
X78345600Y-167136600D01*
X76696350Y-167136600D01*
X76537600Y-167295350D01*
X76534528Y-168309600D01*
X72957220Y-168309600D01*
X74493933Y-167060329D01*
X81608899Y-167060329D01*
X81656143Y-167438551D01*
X81776267Y-167800290D01*
X81908288Y-168047283D01*
X82203376Y-168179219D01*
X83372995Y-167009600D01*
X83732205Y-167009600D01*
X84901824Y-168179219D01*
X85196912Y-168047283D01*
X85367759Y-167706555D01*
X85468850Y-167339043D01*
X85496301Y-166958871D01*
X85449057Y-166580649D01*
X85328933Y-166218910D01*
X85196912Y-165971917D01*
X84901824Y-165839981D01*
X83732205Y-167009600D01*
X83372995Y-167009600D01*
X82203376Y-165839981D01*
X81908288Y-165971917D01*
X81737441Y-166312645D01*
X81636350Y-166680157D01*
X81608899Y-167060329D01*
X74493933Y-167060329D01*
X76155450Y-165709600D01*
X76534528Y-165709600D01*
X76537600Y-166723850D01*
X76696350Y-166882600D01*
X78345600Y-166882600D01*
X78345600Y-165233350D01*
X78599600Y-165233350D01*
X78599600Y-166882600D01*
X80248850Y-166882600D01*
X80407600Y-166723850D01*
X80410672Y-165709600D01*
X80405825Y-165660376D01*
X82382981Y-165660376D01*
X83552600Y-166829995D01*
X84722219Y-165660376D01*
X84590283Y-165365288D01*
X84249555Y-165194441D01*
X83882043Y-165093350D01*
X83501871Y-165065899D01*
X83123649Y-165113143D01*
X82761910Y-165233267D01*
X82514917Y-165365288D01*
X82382981Y-165660376D01*
X80405825Y-165660376D01*
X80398412Y-165585118D01*
X80362102Y-165465420D01*
X80303137Y-165355106D01*
X80223785Y-165258415D01*
X80127094Y-165179063D01*
X80016780Y-165120098D01*
X79897082Y-165083788D01*
X79772600Y-165071528D01*
X78758350Y-165074600D01*
X78599600Y-165233350D01*
X78345600Y-165233350D01*
X78186850Y-165074600D01*
X77172600Y-165071528D01*
X77048118Y-165083788D01*
X76928420Y-165120098D01*
X76818106Y-165179063D01*
X76721415Y-165258415D01*
X76642063Y-165355106D01*
X76583098Y-165465420D01*
X76546788Y-165585118D01*
X76534528Y-165709600D01*
X76155450Y-165709600D01*
X76994953Y-165027127D01*
X85648276Y-165051641D01*
G37*
%TD.AperFunction*%
%TD*%
M02*
