M48
; DRILL file {KiCad (5.1.9)-1} date 03/17/22 08:19:37
; FORMAT={-:-/ absolute / inch / decimal}
; #@! TF.CreationDate,2022-03-17T08:19:37-06:00
; #@! TF.GenerationSoftware,Kicad,Pcbnew,(5.1.9)-1
; #@! TF.FileFunction,Plated,1,2,PTH
FMAT,2
INCH
T1C0.0157
T2C0.0315
T3C0.0350
T4C0.0362
T5C0.0394
T6C0.0402
T7C0.0512
T8C0.0591
T9C0.0642
T10C0.0713
T11C0.0906
T12C0.1177
T13C0.1181
T14C0.1181
T15C0.1260
%
G90
G05
T1
X1.1408Y-6.3602
X2.5492Y-5.5187
X2.7815Y-5.0118
X2.8159Y-5.0118
X3.0246Y-5.5059
X3.0276Y-5.6014
X3.1024Y-5.7972
X3.1181Y-5.3809
X3.23Y-4.9186
X3.337Y-4.7976
X3.7402Y-5.3543
X3.8268Y-3.7677
X3.8928Y-3.3432
X3.8928Y-3.4187
X3.8953Y-3.2962
X4.5699Y-4.8366
X4.832Y-4.459
X4.8606Y-4.6029
X4.8606Y-4.9403
X4.9438Y-5.3822
X5.0443Y-4.4163
X5.1455Y-2.5925
X5.166Y-5.554
X5.2756Y-5.9203
X5.363Y-5.556
X5.3858Y-4.5041
X5.3878Y-5.8494
X5.6443Y-4.5011
X5.689Y-5.661
X5.716Y-5.837
X5.731Y-4.401
X5.978Y-4.2976
X6.028Y-4.2948
X6.052Y-4.431
X6.088Y-4.823
X6.111Y-4.342
X6.143Y-4.969
X6.2126Y-5.4685
X6.2544Y-5.0322
X6.28Y-4.634
X6.4449Y-5.479
X6.5974Y-5.1535
X6.6498Y-3.5795
X6.701Y-5.4787
T2
X3.7065Y-2.388
X3.7065Y-2.4667
X3.7065Y-2.5455
X3.7065Y-2.6242
X4.5196Y-3.5446
X4.5196Y-3.6233
X4.5196Y-3.7021
X4.5984Y-3.5446
X4.5984Y-3.6233
X4.5984Y-3.7021
T3
X1.378Y-6.5354
X1.428Y-6.4354
X1.478Y-6.5354
X1.528Y-6.4354
X1.578Y-6.5354
X1.628Y-6.4354
X1.678Y-6.5354
X1.728Y-6.4354
T4
X3.777Y-4.2026
X3.777Y-4.301
X3.777Y-4.3798
X3.777Y-4.4782
T5
X1.4376Y-4.9283
X1.4376Y-5.8283
X1.5376Y-4.9283
X1.5376Y-5.8283
X1.6376Y-4.9283
X1.6376Y-5.8283
X1.7376Y-4.9283
X1.7376Y-5.8283
X1.8376Y-4.9283
X1.8376Y-5.8283
X1.9376Y-4.9283
X1.9376Y-5.8283
X2.0376Y-4.9283
X2.0376Y-5.8283
X2.1376Y-4.9283
X2.1376Y-5.8283
X3.708Y-1.148
X3.708Y-1.248
X3.808Y-1.148
X3.808Y-1.248
X4.009Y-3.4486
X4.009Y-4.0486
X4.109Y-3.4486
X4.109Y-4.0486
X4.1494Y-4.2886
X4.1494Y-5.1886
X4.209Y-3.4486
X4.209Y-4.0486
X4.2494Y-4.2886
X4.2494Y-5.1886
X4.257Y-3.9285
X4.309Y-3.4486
X4.309Y-4.0486
X4.3494Y-4.2886
X4.3494Y-5.1886
X4.357Y-3.9285
X4.362Y-1.3912
X4.409Y-3.4486
X4.409Y-4.0486
X4.4494Y-4.2886
X4.4494Y-5.1886
X4.457Y-3.9285
X4.462Y-1.3912
X4.462Y-2.9916
X4.509Y-3.4486
X4.509Y-4.0486
X4.5494Y-4.2886
X4.5494Y-5.1886
X4.557Y-3.9285
X4.562Y-1.3912
X4.562Y-2.9916
X4.609Y-3.4486
X4.609Y-4.0486
X4.6494Y-4.2886
X4.6494Y-5.1886
X4.657Y-3.9285
X4.662Y-1.3912
X4.662Y-2.9916
X4.709Y-3.4486
X4.709Y-4.0486
X4.7494Y-4.2886
X4.7494Y-5.1886
X4.7602Y-1.2406
X4.762Y-1.3912
X4.762Y-2.9916
X4.809Y-3.4486
X4.809Y-4.0486
X4.8494Y-4.2886
X4.8494Y-5.1886
X4.8602Y-1.2406
X4.862Y-1.3912
X4.862Y-2.9916
X4.909Y-3.4486
X4.909Y-4.0486
X4.9602Y-1.2406
X4.962Y-1.3912
X4.962Y-2.9916
X5.009Y-3.4486
X5.009Y-4.0486
X5.0602Y-1.2406
X5.062Y-1.3912
X5.062Y-2.9916
X5.109Y-3.4486
X5.109Y-4.0486
X5.12Y-3.1406
X5.1602Y-1.2406
X5.162Y-1.3912
X5.162Y-2.9916
X5.209Y-3.4486
X5.209Y-4.0486
X5.22Y-3.1406
X5.2602Y-1.2406
X5.262Y-1.3912
X5.262Y-2.9916
X5.309Y-3.4486
X5.309Y-4.0486
X5.32Y-3.1406
X5.3602Y-1.2406
X5.409Y-3.4486
X5.409Y-4.0486
X5.42Y-3.1406
X5.4602Y-1.2406
X5.52Y-3.1406
X5.5602Y-1.2406
X5.609Y-3.4486
X5.609Y-4.0486
X5.62Y-3.1406
X5.6602Y-1.2406
X5.709Y-3.4486
X5.709Y-4.0486
X5.72Y-3.1406
X5.778Y-5.2566
X5.809Y-3.4486
X5.809Y-4.0486
X5.82Y-1.2406
X5.82Y-3.1406
X5.878Y-5.2566
X5.909Y-3.4486
X5.909Y-4.0486
X5.92Y-1.2406
X5.978Y-5.2566
X6.009Y-3.4486
X6.009Y-4.0486
X6.02Y-1.2406
X6.02Y-3.1406
X6.078Y-5.2566
X6.109Y-3.4486
X6.109Y-4.0486
X6.12Y-1.2406
X6.12Y-3.1406
X6.178Y-5.2566
X6.209Y-3.4486
X6.209Y-4.0486
X6.22Y-1.2406
X6.22Y-3.1406
X6.278Y-5.2566
X6.309Y-3.4486
X6.309Y-4.0486
X6.32Y-1.2406
X6.32Y-3.1406
X6.42Y-1.2406
X6.42Y-3.1406
X6.52Y-1.2406
X6.52Y-3.1406
T6
X1.2921Y-6.9783
X1.3921Y-6.9783
X1.7138Y-6.9783
X1.8138Y-6.9783
T7
X2.1812Y-6.6155
X2.1812Y-6.9155
X2.3812Y-6.6155
X2.3812Y-6.9155
X3.0895Y-6.5752
X3.0895Y-6.8752
X3.2895Y-6.5752
X3.2895Y-6.8752
X3.4895Y-6.5752
X3.4895Y-6.8752
X3.6895Y-6.5752
X3.6895Y-6.8752
X3.8895Y-6.5752
X3.8895Y-6.8752
X4.0895Y-6.5752
X4.0895Y-6.8752
X4.1339Y-5.6497
X4.2126Y-5.4134
X4.2126Y-5.8859
X4.6929Y-5.4134
X4.6929Y-5.8859
X5.328Y-4.824
X5.328Y-5.024
X5.328Y-5.224
X5.328Y-5.424
X5.628Y-4.824
X5.628Y-5.024
X5.628Y-5.224
X5.628Y-5.424
T8
X2.8317Y-5.8612
X2.8317Y-6.751
T9
X1.248Y-6.6654
X1.8579Y-6.6654
T10
X5.1181Y-6.1811
X5.1181Y-6.4311
X5.2931Y-6.1811
X5.2931Y-6.4311
X5.4681Y-6.1811
X5.4681Y-6.4311
X5.6433Y-6.1811
X5.6433Y-6.4311
X5.8183Y-6.1811
X5.8183Y-6.4311
X5.9933Y-6.1811
X5.9933Y-6.4311
T11
X3.6904Y-4.0874
X3.6904Y-4.5933
T12
X4.8652Y-6.2213
X5.5557Y-6.6713
X6.2463Y-6.2213
T13
X5.848Y-4.3236
X5.848Y-5.0236
X6.648Y-4.3236
X6.648Y-5.0236
T14
X4.0024Y-5.1402
X4.19Y-4.5098
X4.7411Y-4.9626
X5.0024Y-5.1402
T15
X1.2031Y-1.1961
X1.2031Y-3.4008
X1.2031Y-4.2961
X2.3055Y-1.1961
X2.3055Y-3.4008
X3.4031Y-1.1961
X3.4031Y-4.2961
T0
M30
