%TF.GenerationSoftware,KiCad,Pcbnew,(5.1.9)-1*%
%TF.CreationDate,2022-03-17T08:19:33-06:00*%
%TF.ProjectId,AS13,41533133-2e6b-4696-9361-645f70636258,rev?*%
%TF.SameCoordinates,Original*%
%TF.FileFunction,Soldermask,Top*%
%TF.FilePolarity,Negative*%
%FSLAX46Y46*%
G04 Gerber Fmt 4.6, Leading zero omitted, Abs format (unit mm)*
G04 Created by KiCad (PCBNEW (5.1.9)-1) date 2022-03-17 08:19:33*
%MOMM*%
%LPD*%
G01*
G04 APERTURE LIST*
%ADD10O,1.700000X1.700000*%
%ADD11R,1.700000X1.700000*%
%ADD12C,2.445000*%
%ADD13C,1.530000*%
%ADD14C,1.446000*%
%ADD15R,0.900000X0.800000*%
%ADD16C,2.999999*%
%ADD17C,3.000000*%
%ADD18C,4.485000*%
%ADD19C,2.715000*%
%ADD20R,2.715000X2.715000*%
%ADD21O,2.500000X2.500000*%
%ADD22R,2.500000X2.500000*%
%ADD23C,2.600000*%
%ADD24R,2.600000X2.600000*%
%ADD25R,2.250000X2.250000*%
%ADD26C,2.250000*%
%ADD27C,3.200000*%
%ADD28C,3.400000*%
%ADD29C,1.300000*%
%ADD30R,1.300000X1.300000*%
%ADD31R,1.800000X1.800000*%
%ADD32R,0.530000X1.980000*%
%ADD33R,1.800000X2.500000*%
%ADD34R,2.000000X1.500000*%
%ADD35R,2.000000X3.800000*%
%ADD36R,10.530000X8.460000*%
%ADD37R,1.050000X3.210000*%
%ADD38R,5.400000X2.900000*%
%ADD39C,1.308000*%
%ADD40R,1.308000X1.308000*%
%ADD41R,0.800000X0.900000*%
%ADD42O,1.350000X1.350000*%
%ADD43R,1.350000X1.350000*%
G04 APERTURE END LIST*
D10*
%TO.C,J12*%
X96723200Y-31699200D03*
X96723200Y-29159200D03*
X94183200Y-31699200D03*
D11*
X94183200Y-29159200D03*
%TD*%
D12*
%TO.C,J4*%
X47190000Y-169300000D03*
X31700000Y-169300000D03*
D13*
X46070000Y-177250000D03*
X43530000Y-177250000D03*
X35360000Y-177250000D03*
X32820000Y-177250000D03*
D14*
X43890000Y-163460000D03*
X42620000Y-166000000D03*
X41350000Y-163460000D03*
X40080000Y-166000000D03*
X38810000Y-163460000D03*
X37540000Y-166000000D03*
X36270000Y-163460000D03*
X35000000Y-166000000D03*
%TD*%
%TO.C,R12*%
G36*
G01*
X98200002Y-120750000D02*
X96949998Y-120750000D01*
G75*
G02*
X96700000Y-120500002I0J249998D01*
G01*
X96700000Y-119874998D01*
G75*
G02*
X96949998Y-119625000I249998J0D01*
G01*
X98200002Y-119625000D01*
G75*
G02*
X98450000Y-119874998I0J-249998D01*
G01*
X98450000Y-120500002D01*
G75*
G02*
X98200002Y-120750000I-249998J0D01*
G01*
G37*
G36*
G01*
X98200002Y-123675000D02*
X96949998Y-123675000D01*
G75*
G02*
X96700000Y-123425002I0J249998D01*
G01*
X96700000Y-122799998D01*
G75*
G02*
X96949998Y-122550000I249998J0D01*
G01*
X98200002Y-122550000D01*
G75*
G02*
X98450000Y-122799998I0J-249998D01*
G01*
X98450000Y-123425002D01*
G75*
G02*
X98200002Y-123675000I-249998J0D01*
G01*
G37*
%TD*%
%TO.C,R14*%
G36*
G01*
X142987600Y-147970402D02*
X142987600Y-146720398D01*
G75*
G02*
X143237598Y-146470400I249998J0D01*
G01*
X143862602Y-146470400D01*
G75*
G02*
X144112600Y-146720398I0J-249998D01*
G01*
X144112600Y-147970402D01*
G75*
G02*
X143862602Y-148220400I-249998J0D01*
G01*
X143237598Y-148220400D01*
G75*
G02*
X142987600Y-147970402I0J249998D01*
G01*
G37*
G36*
G01*
X140062600Y-147970402D02*
X140062600Y-146720398D01*
G75*
G02*
X140312598Y-146470400I249998J0D01*
G01*
X140937602Y-146470400D01*
G75*
G02*
X141187600Y-146720398I0J-249998D01*
G01*
X141187600Y-147970402D01*
G75*
G02*
X140937602Y-148220400I-249998J0D01*
G01*
X140312598Y-148220400D01*
G75*
G02*
X140062600Y-147970402I0J249998D01*
G01*
G37*
%TD*%
%TO.C,R13*%
G36*
G01*
X143038400Y-151755002D02*
X143038400Y-150504998D01*
G75*
G02*
X143288398Y-150255000I249998J0D01*
G01*
X143913402Y-150255000D01*
G75*
G02*
X144163400Y-150504998I0J-249998D01*
G01*
X144163400Y-151755002D01*
G75*
G02*
X143913402Y-152005000I-249998J0D01*
G01*
X143288398Y-152005000D01*
G75*
G02*
X143038400Y-151755002I0J249998D01*
G01*
G37*
G36*
G01*
X140113400Y-151755002D02*
X140113400Y-150504998D01*
G75*
G02*
X140363398Y-150255000I249998J0D01*
G01*
X140988402Y-150255000D01*
G75*
G02*
X141238400Y-150504998I0J-249998D01*
G01*
X141238400Y-151755002D01*
G75*
G02*
X140988402Y-152005000I-249998J0D01*
G01*
X140363398Y-152005000D01*
G75*
G02*
X140113400Y-151755002I0J249998D01*
G01*
G37*
%TD*%
%TO.C,R9*%
G36*
G01*
X128865200Y-141214002D02*
X128865200Y-139963998D01*
G75*
G02*
X129115198Y-139714000I249998J0D01*
G01*
X129740202Y-139714000D01*
G75*
G02*
X129990200Y-139963998I0J-249998D01*
G01*
X129990200Y-141214002D01*
G75*
G02*
X129740202Y-141464000I-249998J0D01*
G01*
X129115198Y-141464000D01*
G75*
G02*
X128865200Y-141214002I0J249998D01*
G01*
G37*
G36*
G01*
X125940200Y-141214002D02*
X125940200Y-139963998D01*
G75*
G02*
X126190198Y-139714000I249998J0D01*
G01*
X126815202Y-139714000D01*
G75*
G02*
X127065200Y-139963998I0J-249998D01*
G01*
X127065200Y-141214002D01*
G75*
G02*
X126815202Y-141464000I-249998J0D01*
G01*
X126190198Y-141464000D01*
G75*
G02*
X125940200Y-141214002I0J249998D01*
G01*
G37*
%TD*%
%TO.C,R8*%
G36*
G01*
X128814400Y-144947802D02*
X128814400Y-143697798D01*
G75*
G02*
X129064398Y-143447800I249998J0D01*
G01*
X129689402Y-143447800D01*
G75*
G02*
X129939400Y-143697798I0J-249998D01*
G01*
X129939400Y-144947802D01*
G75*
G02*
X129689402Y-145197800I-249998J0D01*
G01*
X129064398Y-145197800D01*
G75*
G02*
X128814400Y-144947802I0J249998D01*
G01*
G37*
G36*
G01*
X125889400Y-144947802D02*
X125889400Y-143697798D01*
G75*
G02*
X126139398Y-143447800I249998J0D01*
G01*
X126764402Y-143447800D01*
G75*
G02*
X127014400Y-143697798I0J-249998D01*
G01*
X127014400Y-144947802D01*
G75*
G02*
X126764402Y-145197800I-249998J0D01*
G01*
X126139398Y-145197800D01*
G75*
G02*
X125889400Y-144947802I0J249998D01*
G01*
G37*
%TD*%
%TO.C,R7*%
G36*
G01*
X158837200Y-116474402D02*
X158837200Y-115224398D01*
G75*
G02*
X159087198Y-114974400I249998J0D01*
G01*
X159712202Y-114974400D01*
G75*
G02*
X159962200Y-115224398I0J-249998D01*
G01*
X159962200Y-116474402D01*
G75*
G02*
X159712202Y-116724400I-249998J0D01*
G01*
X159087198Y-116724400D01*
G75*
G02*
X158837200Y-116474402I0J249998D01*
G01*
G37*
G36*
G01*
X155912200Y-116474402D02*
X155912200Y-115224398D01*
G75*
G02*
X156162198Y-114974400I249998J0D01*
G01*
X156787202Y-114974400D01*
G75*
G02*
X157037200Y-115224398I0J-249998D01*
G01*
X157037200Y-116474402D01*
G75*
G02*
X156787202Y-116724400I-249998J0D01*
G01*
X156162198Y-116724400D01*
G75*
G02*
X155912200Y-116474402I0J249998D01*
G01*
G37*
%TD*%
%TO.C,R6*%
G36*
G01*
X158913400Y-120208202D02*
X158913400Y-118958198D01*
G75*
G02*
X159163398Y-118708200I249998J0D01*
G01*
X159788402Y-118708200D01*
G75*
G02*
X160038400Y-118958198I0J-249998D01*
G01*
X160038400Y-120208202D01*
G75*
G02*
X159788402Y-120458200I-249998J0D01*
G01*
X159163398Y-120458200D01*
G75*
G02*
X158913400Y-120208202I0J249998D01*
G01*
G37*
G36*
G01*
X155988400Y-120208202D02*
X155988400Y-118958198D01*
G75*
G02*
X156238398Y-118708200I249998J0D01*
G01*
X156863402Y-118708200D01*
G75*
G02*
X157113400Y-118958198I0J-249998D01*
G01*
X157113400Y-120208202D01*
G75*
G02*
X156863402Y-120458200I-249998J0D01*
G01*
X156238398Y-120458200D01*
G75*
G02*
X155988400Y-120208202I0J249998D01*
G01*
G37*
%TD*%
D15*
%TO.C,D6*%
X140884400Y-142798800D03*
X142884400Y-141848800D03*
X142884400Y-143748800D03*
%TD*%
%TO.C,D2*%
X158759400Y-111277400D03*
X156759400Y-112227400D03*
X156759400Y-110327400D03*
%TD*%
%TO.C,D1*%
X128990600Y-136220200D03*
X126990600Y-137170200D03*
X126990600Y-135270200D03*
%TD*%
D16*
%TO.C,REF\u002A\u002A*%
X168859200Y-109819200D03*
X168859200Y-127599200D03*
X148539200Y-127599200D03*
X148539200Y-109819200D03*
%TD*%
D17*
%TO.C,M1*%
X120425000Y-126050000D03*
X106425000Y-114550000D03*
%TD*%
%TO.C,REF\u002A\u002A*%
X101660000Y-130560000D03*
X127060000Y-130560000D03*
%TD*%
D18*
%TO.C,J6*%
X158655000Y-158020000D03*
X141115000Y-169450000D03*
X123575000Y-158020000D03*
D19*
X130000000Y-163350000D03*
X134445000Y-163350000D03*
X138890000Y-163350000D03*
X143340000Y-163350000D03*
X147785000Y-163350000D03*
X152230000Y-163350000D03*
X152230000Y-157000000D03*
X147785000Y-157000000D03*
X143340000Y-157000000D03*
X138890000Y-157000000D03*
X134445000Y-157000000D03*
D20*
X130000000Y-157000000D03*
%TD*%
D21*
%TO.C,K1*%
X107000800Y-137501200D03*
X119200800Y-137501200D03*
X119200800Y-149501200D03*
X107000800Y-149501200D03*
D22*
X105000800Y-143501200D03*
%TD*%
D23*
%TO.C,KF3*%
X135330000Y-122530000D03*
X142950000Y-122530000D03*
X135330000Y-127610000D03*
X142950000Y-127610000D03*
X135330000Y-132690000D03*
X142950000Y-132690000D03*
D24*
X135330000Y-137770000D03*
X142950000Y-137770000D03*
%TD*%
%TO.C,R3*%
G36*
G01*
X149041600Y-140823402D02*
X149041600Y-139573398D01*
G75*
G02*
X149291598Y-139323400I249998J0D01*
G01*
X149916602Y-139323400D01*
G75*
G02*
X150166600Y-139573398I0J-249998D01*
G01*
X150166600Y-140823402D01*
G75*
G02*
X149916602Y-141073400I-249998J0D01*
G01*
X149291598Y-141073400D01*
G75*
G02*
X149041600Y-140823402I0J249998D01*
G01*
G37*
G36*
G01*
X146116600Y-140823402D02*
X146116600Y-139573398D01*
G75*
G02*
X146366598Y-139323400I249998J0D01*
G01*
X146991602Y-139323400D01*
G75*
G02*
X147241600Y-139573398I0J-249998D01*
G01*
X147241600Y-140823402D01*
G75*
G02*
X146991602Y-141073400I-249998J0D01*
G01*
X146366598Y-141073400D01*
G75*
G02*
X146116600Y-140823402I0J249998D01*
G01*
G37*
%TD*%
%TO.C,R2*%
G36*
G01*
X149041600Y-145649402D02*
X149041600Y-144399398D01*
G75*
G02*
X149291598Y-144149400I249998J0D01*
G01*
X149916602Y-144149400D01*
G75*
G02*
X150166600Y-144399398I0J-249998D01*
G01*
X150166600Y-145649402D01*
G75*
G02*
X149916602Y-145899400I-249998J0D01*
G01*
X149291598Y-145899400D01*
G75*
G02*
X149041600Y-145649402I0J249998D01*
G01*
G37*
G36*
G01*
X146116600Y-145649402D02*
X146116600Y-144399398D01*
G75*
G02*
X146366598Y-144149400I249998J0D01*
G01*
X146991602Y-144149400D01*
G75*
G02*
X147241600Y-144399398I0J-249998D01*
G01*
X147241600Y-145649402D01*
G75*
G02*
X146991602Y-145899400I-249998J0D01*
G01*
X146366598Y-145899400D01*
G75*
G02*
X146116600Y-145649402I0J249998D01*
G01*
G37*
%TD*%
%TO.C,R1*%
G36*
G01*
X149092400Y-150272202D02*
X149092400Y-149022198D01*
G75*
G02*
X149342398Y-148772200I249998J0D01*
G01*
X149967402Y-148772200D01*
G75*
G02*
X150217400Y-149022198I0J-249998D01*
G01*
X150217400Y-150272202D01*
G75*
G02*
X149967402Y-150522200I-249998J0D01*
G01*
X149342398Y-150522200D01*
G75*
G02*
X149092400Y-150272202I0J249998D01*
G01*
G37*
G36*
G01*
X146167400Y-150272202D02*
X146167400Y-149022198D01*
G75*
G02*
X146417398Y-148772200I249998J0D01*
G01*
X147042402Y-148772200D01*
G75*
G02*
X147292400Y-149022198I0J-249998D01*
G01*
X147292400Y-150272202D01*
G75*
G02*
X147042402Y-150522200I-249998J0D01*
G01*
X146417398Y-150522200D01*
G75*
G02*
X146167400Y-150272202I0J249998D01*
G01*
G37*
%TD*%
D25*
%TO.C,D4*%
X71925000Y-148875000D03*
D26*
X71925000Y-171475000D03*
%TD*%
%TO.C,R11*%
G36*
G01*
X131374997Y-98900000D02*
X132625003Y-98900000D01*
G75*
G02*
X132875000Y-99149997I0J-249997D01*
G01*
X132875000Y-99775003D01*
G75*
G02*
X132625003Y-100025000I-249997J0D01*
G01*
X131374997Y-100025000D01*
G75*
G02*
X131125000Y-99775003I0J249997D01*
G01*
X131125000Y-99149997D01*
G75*
G02*
X131374997Y-98900000I249997J0D01*
G01*
G37*
G36*
G01*
X131374997Y-95975000D02*
X132625003Y-95975000D01*
G75*
G02*
X132875000Y-96224997I0J-249997D01*
G01*
X132875000Y-96850003D01*
G75*
G02*
X132625003Y-97100000I-249997J0D01*
G01*
X131374997Y-97100000D01*
G75*
G02*
X131125000Y-96850003I0J249997D01*
G01*
X131125000Y-96224997D01*
G75*
G02*
X131374997Y-95975000I249997J0D01*
G01*
G37*
%TD*%
%TO.C,R10*%
G36*
G01*
X136374997Y-98900000D02*
X137625003Y-98900000D01*
G75*
G02*
X137875000Y-99149997I0J-249997D01*
G01*
X137875000Y-99775003D01*
G75*
G02*
X137625003Y-100025000I-249997J0D01*
G01*
X136374997Y-100025000D01*
G75*
G02*
X136125000Y-99775003I0J249997D01*
G01*
X136125000Y-99149997D01*
G75*
G02*
X136374997Y-98900000I249997J0D01*
G01*
G37*
G36*
G01*
X136374997Y-95975000D02*
X137625003Y-95975000D01*
G75*
G02*
X137875000Y-96224997I0J-249997D01*
G01*
X137875000Y-96850003D01*
G75*
G02*
X137625003Y-97100000I-249997J0D01*
G01*
X136374997Y-97100000D01*
G75*
G02*
X136125000Y-96850003I0J249997D01*
G01*
X136125000Y-96224997D01*
G75*
G02*
X136374997Y-95975000I249997J0D01*
G01*
G37*
%TD*%
%TO.C,C2*%
G36*
G01*
X50625000Y-165850000D02*
X51575000Y-165850000D01*
G75*
G02*
X51825000Y-166100000I0J-250000D01*
G01*
X51825000Y-166600000D01*
G75*
G02*
X51575000Y-166850000I-250000J0D01*
G01*
X50625000Y-166850000D01*
G75*
G02*
X50375000Y-166600000I0J250000D01*
G01*
X50375000Y-166100000D01*
G75*
G02*
X50625000Y-165850000I250000J0D01*
G01*
G37*
G36*
G01*
X50625000Y-163950000D02*
X51575000Y-163950000D01*
G75*
G02*
X51825000Y-164200000I0J-250000D01*
G01*
X51825000Y-164700000D01*
G75*
G02*
X51575000Y-164950000I-250000J0D01*
G01*
X50625000Y-164950000D01*
G75*
G02*
X50375000Y-164700000I0J250000D01*
G01*
X50375000Y-164200000D01*
G75*
G02*
X50625000Y-163950000I250000J0D01*
G01*
G37*
%TD*%
%TO.C,J2*%
G36*
G01*
X163852500Y-134892899D02*
X163852500Y-136192901D01*
G75*
G02*
X163602501Y-136442900I-249999J0D01*
G01*
X162902499Y-136442900D01*
G75*
G02*
X162652500Y-136192901I0J249999D01*
G01*
X162652500Y-134892899D01*
G75*
G02*
X162902499Y-134642900I249999J0D01*
G01*
X163602501Y-134642900D01*
G75*
G02*
X163852500Y-134892899I0J-249999D01*
G01*
G37*
G36*
G01*
X169452500Y-134892899D02*
X169452500Y-136192901D01*
G75*
G02*
X169202501Y-136442900I-249999J0D01*
G01*
X168502499Y-136442900D01*
G75*
G02*
X168252500Y-136192901I0J249999D01*
G01*
X168252500Y-134892899D01*
G75*
G02*
X168502499Y-134642900I249999J0D01*
G01*
X169202501Y-134642900D01*
G75*
G02*
X169452500Y-134892899I0J-249999D01*
G01*
G37*
G36*
G01*
X164852500Y-132392900D02*
X164852500Y-133642900D01*
G75*
G02*
X164702500Y-133792900I-150000J0D01*
G01*
X164402500Y-133792900D01*
G75*
G02*
X164252500Y-133642900I0J150000D01*
G01*
X164252500Y-132392900D01*
G75*
G02*
X164402500Y-132242900I150000J0D01*
G01*
X164702500Y-132242900D01*
G75*
G02*
X164852500Y-132392900I0J-150000D01*
G01*
G37*
G36*
G01*
X165852500Y-132392900D02*
X165852500Y-133642900D01*
G75*
G02*
X165702500Y-133792900I-150000J0D01*
G01*
X165402500Y-133792900D01*
G75*
G02*
X165252500Y-133642900I0J150000D01*
G01*
X165252500Y-132392900D01*
G75*
G02*
X165402500Y-132242900I150000J0D01*
G01*
X165702500Y-132242900D01*
G75*
G02*
X165852500Y-132392900I0J-150000D01*
G01*
G37*
G36*
G01*
X166852500Y-132392900D02*
X166852500Y-133642900D01*
G75*
G02*
X166702500Y-133792900I-150000J0D01*
G01*
X166402500Y-133792900D01*
G75*
G02*
X166252500Y-133642900I0J150000D01*
G01*
X166252500Y-132392900D01*
G75*
G02*
X166402500Y-132242900I150000J0D01*
G01*
X166702500Y-132242900D01*
G75*
G02*
X166852500Y-132392900I0J-150000D01*
G01*
G37*
G36*
G01*
X167852500Y-132392900D02*
X167852500Y-133642900D01*
G75*
G02*
X167702500Y-133792900I-150000J0D01*
G01*
X167402500Y-133792900D01*
G75*
G02*
X167252500Y-133642900I0J150000D01*
G01*
X167252500Y-132392900D01*
G75*
G02*
X167402500Y-132242900I150000J0D01*
G01*
X167702500Y-132242900D01*
G75*
G02*
X167852500Y-132392900I0J-150000D01*
G01*
G37*
%TD*%
D27*
%TO.C,  *%
X175500000Y-99500000D03*
%TD*%
%TO.C,  *%
X23500000Y-99500000D03*
%TD*%
%TO.C,  *%
X23500000Y-23500000D03*
%TD*%
%TO.C,  *%
X175500000Y-23500000D03*
%TD*%
%TO.C,  *%
X175500000Y-175500000D03*
%TD*%
%TO.C,  *%
X23500000Y-175500000D03*
%TD*%
%TO.C,REF\u002A\u002A*%
X58560000Y-30380000D03*
X58560000Y-86380000D03*
X30560000Y-86380000D03*
X30560000Y-30380000D03*
X86440000Y-30380000D03*
X86440000Y-109120000D03*
X30560000Y-109120000D03*
%TD*%
D10*
%TO.C,J5*%
X146761200Y-133517400D03*
X149301200Y-133517400D03*
X151841200Y-133517400D03*
X154381200Y-133517400D03*
X156921200Y-133517400D03*
D11*
X159461200Y-133517400D03*
%TD*%
%TO.C,C5*%
G36*
G01*
X156939000Y-129130400D02*
X155989000Y-129130400D01*
G75*
G02*
X155739000Y-128880400I0J250000D01*
G01*
X155739000Y-128380400D01*
G75*
G02*
X155989000Y-128130400I250000J0D01*
G01*
X156939000Y-128130400D01*
G75*
G02*
X157189000Y-128380400I0J-250000D01*
G01*
X157189000Y-128880400D01*
G75*
G02*
X156939000Y-129130400I-250000J0D01*
G01*
G37*
G36*
G01*
X156939000Y-131030400D02*
X155989000Y-131030400D01*
G75*
G02*
X155739000Y-130780400I0J250000D01*
G01*
X155739000Y-130280400D01*
G75*
G02*
X155989000Y-130030400I250000J0D01*
G01*
X156939000Y-130030400D01*
G75*
G02*
X157189000Y-130280400I0J-250000D01*
G01*
X157189000Y-130780400D01*
G75*
G02*
X156939000Y-131030400I-250000J0D01*
G01*
G37*
%TD*%
D28*
%TO.C,J1*%
X93735800Y-116670800D03*
X93735800Y-103820800D03*
D29*
X95935800Y-113745800D03*
X95935800Y-111245800D03*
X95935800Y-109245800D03*
D30*
X95935800Y-106745800D03*
%TD*%
D23*
%TO.C,KF1*%
X60482200Y-168034600D03*
X60482200Y-175654600D03*
D24*
X55402200Y-168034600D03*
X55402200Y-175654600D03*
%TD*%
D10*
%TO.C,J18*%
X160248600Y-87594200D03*
X157708600Y-87594200D03*
X155168600Y-87594200D03*
X152628600Y-87594200D03*
X150088600Y-87594200D03*
X147548600Y-87594200D03*
X145008600Y-87594200D03*
D11*
X142468600Y-87594200D03*
%TD*%
D10*
%TO.C,J3*%
X118287800Y-99783400D03*
X115747800Y-99783400D03*
X113207800Y-99783400D03*
X110667800Y-99783400D03*
D11*
X108127800Y-99783400D03*
%TD*%
D31*
%TO.C,D3*%
X78779000Y-150055200D03*
X78779000Y-154055200D03*
%TD*%
D32*
%TO.C,U1*%
X164235160Y-127227420D03*
X162965160Y-127227420D03*
X161695160Y-127227420D03*
X160425160Y-127227420D03*
X160425160Y-122297420D03*
X161695160Y-122297420D03*
X162965160Y-122297420D03*
X164235160Y-122297420D03*
%TD*%
%TO.C,C6*%
G36*
G01*
X82440800Y-127377800D02*
X81490800Y-127377800D01*
G75*
G02*
X81240800Y-127127800I0J250000D01*
G01*
X81240800Y-126627800D01*
G75*
G02*
X81490800Y-126377800I250000J0D01*
G01*
X82440800Y-126377800D01*
G75*
G02*
X82690800Y-126627800I0J-250000D01*
G01*
X82690800Y-127127800D01*
G75*
G02*
X82440800Y-127377800I-250000J0D01*
G01*
G37*
G36*
G01*
X82440800Y-129277800D02*
X81490800Y-129277800D01*
G75*
G02*
X81240800Y-129027800I0J250000D01*
G01*
X81240800Y-128527800D01*
G75*
G02*
X81490800Y-128277800I250000J0D01*
G01*
X82440800Y-128277800D01*
G75*
G02*
X82690800Y-128527800I0J-250000D01*
G01*
X82690800Y-129027800D01*
G75*
G02*
X82440800Y-129277800I-250000J0D01*
G01*
G37*
%TD*%
D33*
%TO.C,D5*%
X99260660Y-141184640D03*
X99260660Y-145184640D03*
%TD*%
D34*
%TO.C,IC1*%
X84708600Y-124130800D03*
X84708600Y-128730800D03*
X84708600Y-126430800D03*
D35*
X91008600Y-126430800D03*
%TD*%
D36*
%TO.C,IC2*%
X71800000Y-132625000D03*
D37*
X75200000Y-142255000D03*
X73500000Y-142255000D03*
X71800000Y-142255000D03*
X70100000Y-142255000D03*
X68400000Y-142255000D03*
%TD*%
%TO.C,C8*%
G36*
G01*
X65200000Y-142400000D02*
X64250000Y-142400000D01*
G75*
G02*
X64000000Y-142150000I0J250000D01*
G01*
X64000000Y-141650000D01*
G75*
G02*
X64250000Y-141400000I250000J0D01*
G01*
X65200000Y-141400000D01*
G75*
G02*
X65450000Y-141650000I0J-250000D01*
G01*
X65450000Y-142150000D01*
G75*
G02*
X65200000Y-142400000I-250000J0D01*
G01*
G37*
G36*
G01*
X65200000Y-144300000D02*
X64250000Y-144300000D01*
G75*
G02*
X64000000Y-144050000I0J250000D01*
G01*
X64000000Y-143550000D01*
G75*
G02*
X64250000Y-143300000I250000J0D01*
G01*
X65200000Y-143300000D01*
G75*
G02*
X65450000Y-143550000I0J-250000D01*
G01*
X65450000Y-144050000D01*
G75*
G02*
X65200000Y-144300000I-250000J0D01*
G01*
G37*
%TD*%
D38*
%TO.C,L1*%
X88544400Y-145026600D03*
X88544400Y-154926600D03*
%TD*%
%TO.C,C11*%
G36*
G01*
X85122000Y-135717800D02*
X85122000Y-137717800D01*
G75*
G02*
X84872000Y-137967800I-250000J0D01*
G01*
X80972000Y-137967800D01*
G75*
G02*
X80722000Y-137717800I0J250000D01*
G01*
X80722000Y-135717800D01*
G75*
G02*
X80972000Y-135467800I250000J0D01*
G01*
X84872000Y-135467800D01*
G75*
G02*
X85122000Y-135717800I0J-250000D01*
G01*
G37*
G36*
G01*
X93522000Y-135717800D02*
X93522000Y-137717800D01*
G75*
G02*
X93272000Y-137967800I-250000J0D01*
G01*
X89372000Y-137967800D01*
G75*
G02*
X89122000Y-137717800I0J250000D01*
G01*
X89122000Y-135717800D01*
G75*
G02*
X89372000Y-135467800I250000J0D01*
G01*
X93272000Y-135467800D01*
G75*
G02*
X93522000Y-135717800I0J-250000D01*
G01*
G37*
%TD*%
%TO.C,C9*%
G36*
G01*
X57969400Y-155402800D02*
X57969400Y-157402800D01*
G75*
G02*
X57719400Y-157652800I-250000J0D01*
G01*
X53819400Y-157652800D01*
G75*
G02*
X53569400Y-157402800I0J250000D01*
G01*
X53569400Y-155402800D01*
G75*
G02*
X53819400Y-155152800I250000J0D01*
G01*
X57719400Y-155152800D01*
G75*
G02*
X57969400Y-155402800I0J-250000D01*
G01*
G37*
G36*
G01*
X66369400Y-155402800D02*
X66369400Y-157402800D01*
G75*
G02*
X66119400Y-157652800I-250000J0D01*
G01*
X62219400Y-157652800D01*
G75*
G02*
X61969400Y-157402800I0J250000D01*
G01*
X61969400Y-155402800D01*
G75*
G02*
X62219400Y-155152800I250000J0D01*
G01*
X66119400Y-155152800D01*
G75*
G02*
X66369400Y-155402800I0J-250000D01*
G01*
G37*
%TD*%
%TO.C,R4*%
G36*
G01*
X127850000Y-114550003D02*
X127850000Y-113299997D01*
G75*
G02*
X128099997Y-113050000I249997J0D01*
G01*
X128725003Y-113050000D01*
G75*
G02*
X128975000Y-113299997I0J-249997D01*
G01*
X128975000Y-114550003D01*
G75*
G02*
X128725003Y-114800000I-249997J0D01*
G01*
X128099997Y-114800000D01*
G75*
G02*
X127850000Y-114550003I0J249997D01*
G01*
G37*
G36*
G01*
X124925000Y-114550003D02*
X124925000Y-113299997D01*
G75*
G02*
X125174997Y-113050000I249997J0D01*
G01*
X125800003Y-113050000D01*
G75*
G02*
X126050000Y-113299997I0J-249997D01*
G01*
X126050000Y-114550003D01*
G75*
G02*
X125800003Y-114800000I-249997J0D01*
G01*
X125174997Y-114800000D01*
G75*
G02*
X124925000Y-114550003I0J249997D01*
G01*
G37*
%TD*%
%TO.C,R5*%
G36*
G01*
X161355200Y-129473557D02*
X161355200Y-130723563D01*
G75*
G02*
X161105203Y-130973560I-249997J0D01*
G01*
X160480197Y-130973560D01*
G75*
G02*
X160230200Y-130723563I0J249997D01*
G01*
X160230200Y-129473557D01*
G75*
G02*
X160480197Y-129223560I249997J0D01*
G01*
X161105203Y-129223560D01*
G75*
G02*
X161355200Y-129473557I0J-249997D01*
G01*
G37*
G36*
G01*
X164280200Y-129473557D02*
X164280200Y-130723563D01*
G75*
G02*
X164030203Y-130973560I-249997J0D01*
G01*
X163405197Y-130973560D01*
G75*
G02*
X163155200Y-130723563I0J249997D01*
G01*
X163155200Y-129473557D01*
G75*
G02*
X163405197Y-129223560I249997J0D01*
G01*
X164030203Y-129223560D01*
G75*
G02*
X164280200Y-129473557I0J-249997D01*
G01*
G37*
%TD*%
%TO.C,U5*%
G36*
G01*
X127746400Y-124455000D02*
X128693600Y-124455000D01*
G75*
G02*
X128960000Y-124721400I0J-266400D01*
G01*
X128960000Y-126338600D01*
G75*
G02*
X128693600Y-126605000I-266400J0D01*
G01*
X127746400Y-126605000D01*
G75*
G02*
X127480000Y-126338600I0J266400D01*
G01*
X127480000Y-124721400D01*
G75*
G02*
X127746400Y-124455000I266400J0D01*
G01*
G37*
G36*
G01*
X125206400Y-124455000D02*
X126153600Y-124455000D01*
G75*
G02*
X126420000Y-124721400I0J-266400D01*
G01*
X126420000Y-126338600D01*
G75*
G02*
X126153600Y-126605000I-266400J0D01*
G01*
X125206400Y-126605000D01*
G75*
G02*
X124940000Y-126338600I0J266400D01*
G01*
X124940000Y-124721400D01*
G75*
G02*
X125206400Y-124455000I266400J0D01*
G01*
G37*
G36*
G01*
X125206400Y-115895000D02*
X126153600Y-115895000D01*
G75*
G02*
X126420000Y-116161400I0J-266400D01*
G01*
X126420000Y-117778600D01*
G75*
G02*
X126153600Y-118045000I-266400J0D01*
G01*
X125206400Y-118045000D01*
G75*
G02*
X124940000Y-117778600I0J266400D01*
G01*
X124940000Y-116161400D01*
G75*
G02*
X125206400Y-115895000I266400J0D01*
G01*
G37*
G36*
G01*
X127746400Y-115895000D02*
X128693600Y-115895000D01*
G75*
G02*
X128960000Y-116161400I0J-266400D01*
G01*
X128960000Y-117778600D01*
G75*
G02*
X128693600Y-118045000I-266400J0D01*
G01*
X127746400Y-118045000D01*
G75*
G02*
X127480000Y-117778600I0J266400D01*
G01*
X127480000Y-116161400D01*
G75*
G02*
X127746400Y-115895000I266400J0D01*
G01*
G37*
%TD*%
%TO.C,C4*%
G36*
G01*
X136350000Y-147200000D02*
X136350000Y-146250000D01*
G75*
G02*
X136600000Y-146000000I250000J0D01*
G01*
X137100000Y-146000000D01*
G75*
G02*
X137350000Y-146250000I0J-250000D01*
G01*
X137350000Y-147200000D01*
G75*
G02*
X137100000Y-147450000I-250000J0D01*
G01*
X136600000Y-147450000D01*
G75*
G02*
X136350000Y-147200000I0J250000D01*
G01*
G37*
G36*
G01*
X134450000Y-147200000D02*
X134450000Y-146250000D01*
G75*
G02*
X134700000Y-146000000I250000J0D01*
G01*
X135200000Y-146000000D01*
G75*
G02*
X135450000Y-146250000I0J-250000D01*
G01*
X135450000Y-147200000D01*
G75*
G02*
X135200000Y-147450000I-250000J0D01*
G01*
X134700000Y-147450000D01*
G75*
G02*
X134450000Y-147200000I0J250000D01*
G01*
G37*
%TD*%
D10*
%TO.C,J9*%
X54295000Y-125179400D03*
X51755000Y-125179400D03*
X49215000Y-125179400D03*
X46675000Y-125179400D03*
X44135000Y-125179400D03*
X41595000Y-125179400D03*
X39055000Y-125179400D03*
D11*
X36515000Y-125179400D03*
%TD*%
D10*
%TO.C,J7*%
X54295000Y-148039400D03*
X51755000Y-148039400D03*
X49215000Y-148039400D03*
X46675000Y-148039400D03*
X44135000Y-148039400D03*
X41595000Y-148039400D03*
X39055000Y-148039400D03*
D11*
X36515000Y-148039400D03*
%TD*%
%TO.C,C3*%
G36*
G01*
X57335400Y-126601400D02*
X58285400Y-126601400D01*
G75*
G02*
X58535400Y-126851400I0J-250000D01*
G01*
X58535400Y-127351400D01*
G75*
G02*
X58285400Y-127601400I-250000J0D01*
G01*
X57335400Y-127601400D01*
G75*
G02*
X57085400Y-127351400I0J250000D01*
G01*
X57085400Y-126851400D01*
G75*
G02*
X57335400Y-126601400I250000J0D01*
G01*
G37*
G36*
G01*
X57335400Y-124701400D02*
X58285400Y-124701400D01*
G75*
G02*
X58535400Y-124951400I0J-250000D01*
G01*
X58535400Y-125451400D01*
G75*
G02*
X58285400Y-125701400I-250000J0D01*
G01*
X57335400Y-125701400D01*
G75*
G02*
X57085400Y-125451400I0J250000D01*
G01*
X57085400Y-124951400D01*
G75*
G02*
X57335400Y-124701400I250000J0D01*
G01*
G37*
%TD*%
%TO.C,U6*%
G36*
G01*
X130975000Y-150730000D02*
X130975000Y-150130000D01*
G75*
G02*
X131175000Y-149930000I200000J0D01*
G01*
X132725000Y-149930000D01*
G75*
G02*
X132925000Y-150130000I0J-200000D01*
G01*
X132925000Y-150730000D01*
G75*
G02*
X132725000Y-150930000I-200000J0D01*
G01*
X131175000Y-150930000D01*
G75*
G02*
X130975000Y-150730000I0J200000D01*
G01*
G37*
G36*
G01*
X130975000Y-149460000D02*
X130975000Y-148860000D01*
G75*
G02*
X131175000Y-148660000I200000J0D01*
G01*
X132725000Y-148660000D01*
G75*
G02*
X132925000Y-148860000I0J-200000D01*
G01*
X132925000Y-149460000D01*
G75*
G02*
X132725000Y-149660000I-200000J0D01*
G01*
X131175000Y-149660000D01*
G75*
G02*
X130975000Y-149460000I0J200000D01*
G01*
G37*
G36*
G01*
X130975000Y-146920000D02*
X130975000Y-146320000D01*
G75*
G02*
X131175000Y-146120000I200000J0D01*
G01*
X132725000Y-146120000D01*
G75*
G02*
X132925000Y-146320000I0J-200000D01*
G01*
X132925000Y-146920000D01*
G75*
G02*
X132725000Y-147120000I-200000J0D01*
G01*
X131175000Y-147120000D01*
G75*
G02*
X130975000Y-146920000I0J200000D01*
G01*
G37*
G36*
G01*
X127525000Y-150130000D02*
X127525000Y-150730000D01*
G75*
G02*
X127325000Y-150930000I-200000J0D01*
G01*
X125775000Y-150930000D01*
G75*
G02*
X125575000Y-150730000I0J200000D01*
G01*
X125575000Y-150130000D01*
G75*
G02*
X125775000Y-149930000I200000J0D01*
G01*
X127325000Y-149930000D01*
G75*
G02*
X127525000Y-150130000I0J-200000D01*
G01*
G37*
G36*
G01*
X125575000Y-149460000D02*
X125575000Y-148860000D01*
G75*
G02*
X125775000Y-148660000I200000J0D01*
G01*
X127325000Y-148660000D01*
G75*
G02*
X127525000Y-148860000I0J-200000D01*
G01*
X127525000Y-149460000D01*
G75*
G02*
X127325000Y-149660000I-200000J0D01*
G01*
X125775000Y-149660000D01*
G75*
G02*
X125575000Y-149460000I0J200000D01*
G01*
G37*
G36*
G01*
X125575000Y-146920000D02*
X125575000Y-146320000D01*
G75*
G02*
X125775000Y-146120000I200000J0D01*
G01*
X127325000Y-146120000D01*
G75*
G02*
X127525000Y-146320000I0J-200000D01*
G01*
X127525000Y-146920000D01*
G75*
G02*
X127325000Y-147120000I-200000J0D01*
G01*
X125775000Y-147120000D01*
G75*
G02*
X125575000Y-146920000I0J200000D01*
G01*
G37*
G36*
G01*
X130975000Y-148190000D02*
X130975000Y-147590000D01*
G75*
G02*
X131175000Y-147390000I200000J0D01*
G01*
X132725000Y-147390000D01*
G75*
G02*
X132925000Y-147590000I0J-200000D01*
G01*
X132925000Y-148190000D01*
G75*
G02*
X132725000Y-148390000I-200000J0D01*
G01*
X131175000Y-148390000D01*
G75*
G02*
X130975000Y-148190000I0J200000D01*
G01*
G37*
G36*
G01*
X125575000Y-148190000D02*
X125575000Y-147590000D01*
G75*
G02*
X125775000Y-147390000I200000J0D01*
G01*
X127325000Y-147390000D01*
G75*
G02*
X127525000Y-147590000I0J-200000D01*
G01*
X127525000Y-148190000D01*
G75*
G02*
X127325000Y-148390000I-200000J0D01*
G01*
X125775000Y-148390000D01*
G75*
G02*
X125575000Y-148190000I0J200000D01*
G01*
G37*
%TD*%
%TO.C,U3*%
G36*
G01*
X160515600Y-142063000D02*
X159568400Y-142063000D01*
G75*
G02*
X159302000Y-141796600I0J266400D01*
G01*
X159302000Y-140179400D01*
G75*
G02*
X159568400Y-139913000I266400J0D01*
G01*
X160515600Y-139913000D01*
G75*
G02*
X160782000Y-140179400I0J-266400D01*
G01*
X160782000Y-141796600D01*
G75*
G02*
X160515600Y-142063000I-266400J0D01*
G01*
G37*
G36*
G01*
X163055600Y-142063000D02*
X162108400Y-142063000D01*
G75*
G02*
X161842000Y-141796600I0J266400D01*
G01*
X161842000Y-140179400D01*
G75*
G02*
X162108400Y-139913000I266400J0D01*
G01*
X163055600Y-139913000D01*
G75*
G02*
X163322000Y-140179400I0J-266400D01*
G01*
X163322000Y-141796600D01*
G75*
G02*
X163055600Y-142063000I-266400J0D01*
G01*
G37*
G36*
G01*
X163055600Y-150623000D02*
X162108400Y-150623000D01*
G75*
G02*
X161842000Y-150356600I0J266400D01*
G01*
X161842000Y-148739400D01*
G75*
G02*
X162108400Y-148473000I266400J0D01*
G01*
X163055600Y-148473000D01*
G75*
G02*
X163322000Y-148739400I0J-266400D01*
G01*
X163322000Y-150356600D01*
G75*
G02*
X163055600Y-150623000I-266400J0D01*
G01*
G37*
G36*
G01*
X160515600Y-150623000D02*
X159568400Y-150623000D01*
G75*
G02*
X159302000Y-150356600I0J266400D01*
G01*
X159302000Y-148739400D01*
G75*
G02*
X159568400Y-148473000I266400J0D01*
G01*
X160515600Y-148473000D01*
G75*
G02*
X160782000Y-148739400I0J-266400D01*
G01*
X160782000Y-150356600D01*
G75*
G02*
X160515600Y-150623000I-266400J0D01*
G01*
G37*
%TD*%
%TO.C,U2*%
G36*
G01*
X154365600Y-142063000D02*
X153418400Y-142063000D01*
G75*
G02*
X153152000Y-141796600I0J266400D01*
G01*
X153152000Y-140179400D01*
G75*
G02*
X153418400Y-139913000I266400J0D01*
G01*
X154365600Y-139913000D01*
G75*
G02*
X154632000Y-140179400I0J-266400D01*
G01*
X154632000Y-141796600D01*
G75*
G02*
X154365600Y-142063000I-266400J0D01*
G01*
G37*
G36*
G01*
X156905600Y-142063000D02*
X155958400Y-142063000D01*
G75*
G02*
X155692000Y-141796600I0J266400D01*
G01*
X155692000Y-140179400D01*
G75*
G02*
X155958400Y-139913000I266400J0D01*
G01*
X156905600Y-139913000D01*
G75*
G02*
X157172000Y-140179400I0J-266400D01*
G01*
X157172000Y-141796600D01*
G75*
G02*
X156905600Y-142063000I-266400J0D01*
G01*
G37*
G36*
G01*
X156905600Y-150623000D02*
X155958400Y-150623000D01*
G75*
G02*
X155692000Y-150356600I0J266400D01*
G01*
X155692000Y-148739400D01*
G75*
G02*
X155958400Y-148473000I266400J0D01*
G01*
X156905600Y-148473000D01*
G75*
G02*
X157172000Y-148739400I0J-266400D01*
G01*
X157172000Y-150356600D01*
G75*
G02*
X156905600Y-150623000I-266400J0D01*
G01*
G37*
G36*
G01*
X154365600Y-150623000D02*
X153418400Y-150623000D01*
G75*
G02*
X153152000Y-150356600I0J266400D01*
G01*
X153152000Y-148739400D01*
G75*
G02*
X153418400Y-148473000I266400J0D01*
G01*
X154365600Y-148473000D01*
G75*
G02*
X154632000Y-148739400I0J-266400D01*
G01*
X154632000Y-150356600D01*
G75*
G02*
X154365600Y-150623000I-266400J0D01*
G01*
G37*
%TD*%
D23*
%TO.C,KF2*%
X103872600Y-167009600D03*
X103872600Y-174629600D03*
X98792600Y-167009600D03*
X98792600Y-174629600D03*
X93712600Y-167009600D03*
X93712600Y-174629600D03*
X88632600Y-167009600D03*
X88632600Y-174629600D03*
X83552600Y-167009600D03*
X83552600Y-174629600D03*
D24*
X78472600Y-167009600D03*
X78472600Y-174629600D03*
%TD*%
%TO.C,J19*%
G36*
G01*
X165230800Y-87189399D02*
X165230800Y-88489401D01*
G75*
G02*
X164980801Y-88739400I-249999J0D01*
G01*
X164280799Y-88739400D01*
G75*
G02*
X164030800Y-88489401I0J249999D01*
G01*
X164030800Y-87189399D01*
G75*
G02*
X164280799Y-86939400I249999J0D01*
G01*
X164980801Y-86939400D01*
G75*
G02*
X165230800Y-87189399I0J-249999D01*
G01*
G37*
G36*
G01*
X170830800Y-87189399D02*
X170830800Y-88489401D01*
G75*
G02*
X170580801Y-88739400I-249999J0D01*
G01*
X169880799Y-88739400D01*
G75*
G02*
X169630800Y-88489401I0J249999D01*
G01*
X169630800Y-87189399D01*
G75*
G02*
X169880799Y-86939400I249999J0D01*
G01*
X170580801Y-86939400D01*
G75*
G02*
X170830800Y-87189399I0J-249999D01*
G01*
G37*
G36*
G01*
X166230800Y-84689400D02*
X166230800Y-85939400D01*
G75*
G02*
X166080800Y-86089400I-150000J0D01*
G01*
X165780800Y-86089400D01*
G75*
G02*
X165630800Y-85939400I0J150000D01*
G01*
X165630800Y-84689400D01*
G75*
G02*
X165780800Y-84539400I150000J0D01*
G01*
X166080800Y-84539400D01*
G75*
G02*
X166230800Y-84689400I0J-150000D01*
G01*
G37*
G36*
G01*
X167230800Y-84689400D02*
X167230800Y-85939400D01*
G75*
G02*
X167080800Y-86089400I-150000J0D01*
G01*
X166780800Y-86089400D01*
G75*
G02*
X166630800Y-85939400I0J150000D01*
G01*
X166630800Y-84689400D01*
G75*
G02*
X166780800Y-84539400I150000J0D01*
G01*
X167080800Y-84539400D01*
G75*
G02*
X167230800Y-84689400I0J-150000D01*
G01*
G37*
G36*
G01*
X168230800Y-84689400D02*
X168230800Y-85939400D01*
G75*
G02*
X168080800Y-86089400I-150000J0D01*
G01*
X167780800Y-86089400D01*
G75*
G02*
X167630800Y-85939400I0J150000D01*
G01*
X167630800Y-84689400D01*
G75*
G02*
X167780800Y-84539400I150000J0D01*
G01*
X168080800Y-84539400D01*
G75*
G02*
X168230800Y-84689400I0J-150000D01*
G01*
G37*
G36*
G01*
X169230800Y-84689400D02*
X169230800Y-85939400D01*
G75*
G02*
X169080800Y-86089400I-150000J0D01*
G01*
X168780800Y-86089400D01*
G75*
G02*
X168630800Y-85939400I0J150000D01*
G01*
X168630800Y-84689400D01*
G75*
G02*
X168780800Y-84539400I150000J0D01*
G01*
X169080800Y-84539400D01*
G75*
G02*
X169230800Y-84689400I0J-150000D01*
G01*
G37*
%TD*%
%TO.C,C10*%
G36*
G01*
X116550000Y-125925000D02*
X115600000Y-125925000D01*
G75*
G02*
X115350000Y-125675000I0J250000D01*
G01*
X115350000Y-125175000D01*
G75*
G02*
X115600000Y-124925000I250000J0D01*
G01*
X116550000Y-124925000D01*
G75*
G02*
X116800000Y-125175000I0J-250000D01*
G01*
X116800000Y-125675000D01*
G75*
G02*
X116550000Y-125925000I-250000J0D01*
G01*
G37*
G36*
G01*
X116550000Y-127825000D02*
X115600000Y-127825000D01*
G75*
G02*
X115350000Y-127575000I0J250000D01*
G01*
X115350000Y-127075000D01*
G75*
G02*
X115600000Y-126825000I250000J0D01*
G01*
X116550000Y-126825000D01*
G75*
G02*
X116800000Y-127075000I0J-250000D01*
G01*
X116800000Y-127575000D01*
G75*
G02*
X116550000Y-127825000I-250000J0D01*
G01*
G37*
%TD*%
%TO.C,C1*%
G36*
G01*
X157513000Y-125621200D02*
X158463000Y-125621200D01*
G75*
G02*
X158713000Y-125871200I0J-250000D01*
G01*
X158713000Y-126371200D01*
G75*
G02*
X158463000Y-126621200I-250000J0D01*
G01*
X157513000Y-126621200D01*
G75*
G02*
X157263000Y-126371200I0J250000D01*
G01*
X157263000Y-125871200D01*
G75*
G02*
X157513000Y-125621200I250000J0D01*
G01*
G37*
G36*
G01*
X157513000Y-123721200D02*
X158463000Y-123721200D01*
G75*
G02*
X158713000Y-123971200I0J-250000D01*
G01*
X158713000Y-124471200D01*
G75*
G02*
X158463000Y-124721200I-250000J0D01*
G01*
X157513000Y-124721200D01*
G75*
G02*
X157263000Y-124471200I0J250000D01*
G01*
X157263000Y-123971200D01*
G75*
G02*
X157513000Y-123721200I250000J0D01*
G01*
G37*
%TD*%
D39*
%TO.C,J27*%
X94145100Y-66654700D03*
X94145100Y-64654700D03*
X94145100Y-62654700D03*
D40*
X94145100Y-60654700D03*
%TD*%
%TO.C,U4*%
G36*
G01*
X166665600Y-142063000D02*
X165718400Y-142063000D01*
G75*
G02*
X165452000Y-141796600I0J266400D01*
G01*
X165452000Y-140179400D01*
G75*
G02*
X165718400Y-139913000I266400J0D01*
G01*
X166665600Y-139913000D01*
G75*
G02*
X166932000Y-140179400I0J-266400D01*
G01*
X166932000Y-141796600D01*
G75*
G02*
X166665600Y-142063000I-266400J0D01*
G01*
G37*
G36*
G01*
X169205600Y-142063000D02*
X168258400Y-142063000D01*
G75*
G02*
X167992000Y-141796600I0J266400D01*
G01*
X167992000Y-140179400D01*
G75*
G02*
X168258400Y-139913000I266400J0D01*
G01*
X169205600Y-139913000D01*
G75*
G02*
X169472000Y-140179400I0J-266400D01*
G01*
X169472000Y-141796600D01*
G75*
G02*
X169205600Y-142063000I-266400J0D01*
G01*
G37*
G36*
G01*
X169205600Y-150623000D02*
X168258400Y-150623000D01*
G75*
G02*
X167992000Y-150356600I0J266400D01*
G01*
X167992000Y-148739400D01*
G75*
G02*
X168258400Y-148473000I266400J0D01*
G01*
X169205600Y-148473000D01*
G75*
G02*
X169472000Y-148739400I0J-266400D01*
G01*
X169472000Y-150356600D01*
G75*
G02*
X169205600Y-150623000I-266400J0D01*
G01*
G37*
G36*
G01*
X166665600Y-150623000D02*
X165718400Y-150623000D01*
G75*
G02*
X165452000Y-150356600I0J266400D01*
G01*
X165452000Y-148739400D01*
G75*
G02*
X165718400Y-148473000I266400J0D01*
G01*
X166665600Y-148473000D01*
G75*
G02*
X166932000Y-148739400I0J-266400D01*
G01*
X166932000Y-150356600D01*
G75*
G02*
X166665600Y-150623000I-266400J0D01*
G01*
G37*
%TD*%
D41*
%TO.C,Q1*%
X97825000Y-138000000D03*
X96875000Y-136000000D03*
X98775000Y-136000000D03*
%TD*%
D10*
%TO.C,J26*%
X165608000Y-31511000D03*
X163068000Y-31511000D03*
X160528000Y-31511000D03*
X157988000Y-31511000D03*
X155448000Y-31511000D03*
X152908000Y-31511000D03*
X150368000Y-31511000D03*
D11*
X147828000Y-31511000D03*
%TD*%
D10*
%TO.C,J25*%
X143768000Y-31511000D03*
X141228000Y-31511000D03*
X138688000Y-31511000D03*
X136148000Y-31511000D03*
X133608000Y-31511000D03*
X131068000Y-31511000D03*
X128528000Y-31511000D03*
X125988000Y-31511000D03*
X123448000Y-31511000D03*
D11*
X120908000Y-31511000D03*
%TD*%
D10*
%TO.C,J24*%
X110794800Y-35336400D03*
X113334800Y-35336400D03*
X115874800Y-35336400D03*
X118414800Y-35336400D03*
X120954800Y-35336400D03*
X123494800Y-35336400D03*
X126034800Y-35336400D03*
X128574800Y-35336400D03*
X131114800Y-35336400D03*
D11*
X133654800Y-35336400D03*
%TD*%
D10*
%TO.C,J23*%
X165608000Y-79771000D03*
X163068000Y-79771000D03*
X160528000Y-79771000D03*
X157988000Y-79771000D03*
X155448000Y-79771000D03*
D11*
X152908000Y-79771000D03*
%TD*%
D10*
%TO.C,J22*%
X147828000Y-79771000D03*
X145288000Y-79771000D03*
X142748000Y-79771000D03*
X140208000Y-79771000D03*
X137668000Y-79771000D03*
X135128000Y-79771000D03*
X132588000Y-79771000D03*
D11*
X130048000Y-79771000D03*
%TD*%
D10*
%TO.C,J21*%
X113334800Y-75986400D03*
X115874800Y-75986400D03*
X118414800Y-75986400D03*
X120954800Y-75986400D03*
X123494800Y-75986400D03*
X126034800Y-75986400D03*
X128574800Y-75986400D03*
X131114800Y-75986400D03*
D11*
X133654800Y-75986400D03*
%TD*%
%TO.C,J20*%
G36*
G01*
X94471401Y-83159000D02*
X93171399Y-83159000D01*
G75*
G02*
X92921400Y-82909001I0J249999D01*
G01*
X92921400Y-82208999D01*
G75*
G02*
X93171399Y-81959000I249999J0D01*
G01*
X94471401Y-81959000D01*
G75*
G02*
X94721400Y-82208999I0J-249999D01*
G01*
X94721400Y-82909001D01*
G75*
G02*
X94471401Y-83159000I-249999J0D01*
G01*
G37*
G36*
G01*
X94471401Y-88759000D02*
X93171399Y-88759000D01*
G75*
G02*
X92921400Y-88509001I0J249999D01*
G01*
X92921400Y-87808999D01*
G75*
G02*
X93171399Y-87559000I249999J0D01*
G01*
X94471401Y-87559000D01*
G75*
G02*
X94721400Y-87808999I0J-249999D01*
G01*
X94721400Y-88509001D01*
G75*
G02*
X94471401Y-88759000I-249999J0D01*
G01*
G37*
G36*
G01*
X96971400Y-84159000D02*
X95721400Y-84159000D01*
G75*
G02*
X95571400Y-84009000I0J150000D01*
G01*
X95571400Y-83709000D01*
G75*
G02*
X95721400Y-83559000I150000J0D01*
G01*
X96971400Y-83559000D01*
G75*
G02*
X97121400Y-83709000I0J-150000D01*
G01*
X97121400Y-84009000D01*
G75*
G02*
X96971400Y-84159000I-150000J0D01*
G01*
G37*
G36*
G01*
X96971400Y-85159000D02*
X95721400Y-85159000D01*
G75*
G02*
X95571400Y-85009000I0J150000D01*
G01*
X95571400Y-84709000D01*
G75*
G02*
X95721400Y-84559000I150000J0D01*
G01*
X96971400Y-84559000D01*
G75*
G02*
X97121400Y-84709000I0J-150000D01*
G01*
X97121400Y-85009000D01*
G75*
G02*
X96971400Y-85159000I-150000J0D01*
G01*
G37*
G36*
G01*
X96971400Y-86159000D02*
X95721400Y-86159000D01*
G75*
G02*
X95571400Y-86009000I0J150000D01*
G01*
X95571400Y-85709000D01*
G75*
G02*
X95721400Y-85559000I150000J0D01*
G01*
X96971400Y-85559000D01*
G75*
G02*
X97121400Y-85709000I0J-150000D01*
G01*
X97121400Y-86009000D01*
G75*
G02*
X96971400Y-86159000I-150000J0D01*
G01*
G37*
G36*
G01*
X96971400Y-87159000D02*
X95721400Y-87159000D01*
G75*
G02*
X95571400Y-87009000I0J150000D01*
G01*
X95571400Y-86709000D01*
G75*
G02*
X95721400Y-86559000I150000J0D01*
G01*
X96971400Y-86559000D01*
G75*
G02*
X97121400Y-86709000I0J-150000D01*
G01*
X97121400Y-87009000D01*
G75*
G02*
X96971400Y-87159000I-150000J0D01*
G01*
G37*
%TD*%
D10*
%TO.C,J17*%
X137388600Y-87594200D03*
X134848600Y-87594200D03*
X132308600Y-87594200D03*
X129768600Y-87594200D03*
X127228600Y-87594200D03*
X124688600Y-87594200D03*
X122148600Y-87594200D03*
X119608600Y-87594200D03*
X117068600Y-87594200D03*
X114528600Y-87594200D03*
X111988600Y-87594200D03*
X109448600Y-87594200D03*
X106908600Y-87594200D03*
X104368600Y-87594200D03*
D11*
X101828600Y-87594200D03*
%TD*%
D42*
%TO.C,J8*%
X116798600Y-94032600D03*
X114798600Y-94032600D03*
X116798600Y-92032600D03*
X114798600Y-92032600D03*
X116798600Y-90032600D03*
D43*
X114798600Y-90032600D03*
%TD*%
D10*
%TO.C,J14*%
X160248600Y-102834200D03*
X157708600Y-102834200D03*
X155168600Y-102834200D03*
X152628600Y-102834200D03*
X150088600Y-102834200D03*
X147548600Y-102834200D03*
X145008600Y-102834200D03*
D11*
X142468600Y-102834200D03*
%TD*%
D10*
%TO.C,J13*%
X137388600Y-102834200D03*
X134848600Y-102834200D03*
X132308600Y-102834200D03*
X129768600Y-102834200D03*
X127228600Y-102834200D03*
X124688600Y-102834200D03*
X122148600Y-102834200D03*
X119608600Y-102834200D03*
X117068600Y-102834200D03*
X114528600Y-102834200D03*
X111988600Y-102834200D03*
X109448600Y-102834200D03*
X106908600Y-102834200D03*
X104368600Y-102834200D03*
D11*
X101828600Y-102834200D03*
%TD*%
%TO.C,J11*%
G36*
G01*
X134891601Y-107705200D02*
X133591599Y-107705200D01*
G75*
G02*
X133341600Y-107455201I0J249999D01*
G01*
X133341600Y-106755199D01*
G75*
G02*
X133591599Y-106505200I249999J0D01*
G01*
X134891601Y-106505200D01*
G75*
G02*
X135141600Y-106755199I0J-249999D01*
G01*
X135141600Y-107455201D01*
G75*
G02*
X134891601Y-107705200I-249999J0D01*
G01*
G37*
G36*
G01*
X134891601Y-113305200D02*
X133591599Y-113305200D01*
G75*
G02*
X133341600Y-113055201I0J249999D01*
G01*
X133341600Y-112355199D01*
G75*
G02*
X133591599Y-112105200I249999J0D01*
G01*
X134891601Y-112105200D01*
G75*
G02*
X135141600Y-112355199I0J-249999D01*
G01*
X135141600Y-113055201D01*
G75*
G02*
X134891601Y-113305200I-249999J0D01*
G01*
G37*
G36*
G01*
X137391600Y-108705200D02*
X136141600Y-108705200D01*
G75*
G02*
X135991600Y-108555200I0J150000D01*
G01*
X135991600Y-108255200D01*
G75*
G02*
X136141600Y-108105200I150000J0D01*
G01*
X137391600Y-108105200D01*
G75*
G02*
X137541600Y-108255200I0J-150000D01*
G01*
X137541600Y-108555200D01*
G75*
G02*
X137391600Y-108705200I-150000J0D01*
G01*
G37*
G36*
G01*
X137391600Y-109705200D02*
X136141600Y-109705200D01*
G75*
G02*
X135991600Y-109555200I0J150000D01*
G01*
X135991600Y-109255200D01*
G75*
G02*
X136141600Y-109105200I150000J0D01*
G01*
X137391600Y-109105200D01*
G75*
G02*
X137541600Y-109255200I0J-150000D01*
G01*
X137541600Y-109555200D01*
G75*
G02*
X137391600Y-109705200I-150000J0D01*
G01*
G37*
G36*
G01*
X137391600Y-110705200D02*
X136141600Y-110705200D01*
G75*
G02*
X135991600Y-110555200I0J150000D01*
G01*
X135991600Y-110255200D01*
G75*
G02*
X136141600Y-110105200I150000J0D01*
G01*
X137391600Y-110105200D01*
G75*
G02*
X137541600Y-110255200I0J-150000D01*
G01*
X137541600Y-110555200D01*
G75*
G02*
X137391600Y-110705200I-150000J0D01*
G01*
G37*
G36*
G01*
X137391600Y-111705200D02*
X136141600Y-111705200D01*
G75*
G02*
X135991600Y-111555200I0J150000D01*
G01*
X135991600Y-111255200D01*
G75*
G02*
X136141600Y-111105200I150000J0D01*
G01*
X137391600Y-111105200D01*
G75*
G02*
X137541600Y-111255200I0J-150000D01*
G01*
X137541600Y-111555200D01*
G75*
G02*
X137391600Y-111705200I-150000J0D01*
G01*
G37*
%TD*%
%TO.C,J10*%
G36*
G01*
X141391601Y-107705200D02*
X140091599Y-107705200D01*
G75*
G02*
X139841600Y-107455201I0J249999D01*
G01*
X139841600Y-106755199D01*
G75*
G02*
X140091599Y-106505200I249999J0D01*
G01*
X141391601Y-106505200D01*
G75*
G02*
X141641600Y-106755199I0J-249999D01*
G01*
X141641600Y-107455201D01*
G75*
G02*
X141391601Y-107705200I-249999J0D01*
G01*
G37*
G36*
G01*
X141391601Y-113305200D02*
X140091599Y-113305200D01*
G75*
G02*
X139841600Y-113055201I0J249999D01*
G01*
X139841600Y-112355199D01*
G75*
G02*
X140091599Y-112105200I249999J0D01*
G01*
X141391601Y-112105200D01*
G75*
G02*
X141641600Y-112355199I0J-249999D01*
G01*
X141641600Y-113055201D01*
G75*
G02*
X141391601Y-113305200I-249999J0D01*
G01*
G37*
G36*
G01*
X143891600Y-108705200D02*
X142641600Y-108705200D01*
G75*
G02*
X142491600Y-108555200I0J150000D01*
G01*
X142491600Y-108255200D01*
G75*
G02*
X142641600Y-108105200I150000J0D01*
G01*
X143891600Y-108105200D01*
G75*
G02*
X144041600Y-108255200I0J-150000D01*
G01*
X144041600Y-108555200D01*
G75*
G02*
X143891600Y-108705200I-150000J0D01*
G01*
G37*
G36*
G01*
X143891600Y-109705200D02*
X142641600Y-109705200D01*
G75*
G02*
X142491600Y-109555200I0J150000D01*
G01*
X142491600Y-109255200D01*
G75*
G02*
X142641600Y-109105200I150000J0D01*
G01*
X143891600Y-109105200D01*
G75*
G02*
X144041600Y-109255200I0J-150000D01*
G01*
X144041600Y-109555200D01*
G75*
G02*
X143891600Y-109705200I-150000J0D01*
G01*
G37*
G36*
G01*
X143891600Y-110705200D02*
X142641600Y-110705200D01*
G75*
G02*
X142491600Y-110555200I0J150000D01*
G01*
X142491600Y-110255200D01*
G75*
G02*
X142641600Y-110105200I150000J0D01*
G01*
X143891600Y-110105200D01*
G75*
G02*
X144041600Y-110255200I0J-150000D01*
G01*
X144041600Y-110555200D01*
G75*
G02*
X143891600Y-110705200I-150000J0D01*
G01*
G37*
G36*
G01*
X143891600Y-111705200D02*
X142641600Y-111705200D01*
G75*
G02*
X142491600Y-111555200I0J150000D01*
G01*
X142491600Y-111255200D01*
G75*
G02*
X142641600Y-111105200I150000J0D01*
G01*
X143891600Y-111105200D01*
G75*
G02*
X144041600Y-111255200I0J-150000D01*
G01*
X144041600Y-111555200D01*
G75*
G02*
X143891600Y-111705200I-150000J0D01*
G01*
G37*
%TD*%
D10*
%TO.C,J16*%
X105394760Y-131790200D03*
X107934760Y-131790200D03*
X110474760Y-131790200D03*
X113014760Y-131790200D03*
X115554760Y-131790200D03*
X118094760Y-131790200D03*
X120634760Y-131790200D03*
D11*
X123174760Y-131790200D03*
%TD*%
D10*
%TO.C,J15*%
X105394760Y-108930200D03*
X107934760Y-108930200D03*
X110474760Y-108930200D03*
X113014760Y-108930200D03*
X115554760Y-108930200D03*
X118094760Y-108930200D03*
X120634760Y-108930200D03*
D11*
X123174760Y-108930200D03*
%TD*%
%TO.C,C13*%
G36*
G01*
X131023380Y-68548860D02*
X130073380Y-68548860D01*
G75*
G02*
X129823380Y-68298860I0J250000D01*
G01*
X129823380Y-67798860D01*
G75*
G02*
X130073380Y-67548860I250000J0D01*
G01*
X131023380Y-67548860D01*
G75*
G02*
X131273380Y-67798860I0J-250000D01*
G01*
X131273380Y-68298860D01*
G75*
G02*
X131023380Y-68548860I-250000J0D01*
G01*
G37*
G36*
G01*
X131023380Y-70448860D02*
X130073380Y-70448860D01*
G75*
G02*
X129823380Y-70198860I0J250000D01*
G01*
X129823380Y-69698860D01*
G75*
G02*
X130073380Y-69448860I250000J0D01*
G01*
X131023380Y-69448860D01*
G75*
G02*
X131273380Y-69698860I0J-250000D01*
G01*
X131273380Y-70198860D01*
G75*
G02*
X131023380Y-70448860I-250000J0D01*
G01*
G37*
%TD*%
%TO.C,C12*%
G36*
G01*
X103279360Y-91676000D02*
X103279360Y-90726000D01*
G75*
G02*
X103529360Y-90476000I250000J0D01*
G01*
X104029360Y-90476000D01*
G75*
G02*
X104279360Y-90726000I0J-250000D01*
G01*
X104279360Y-91676000D01*
G75*
G02*
X104029360Y-91926000I-250000J0D01*
G01*
X103529360Y-91926000D01*
G75*
G02*
X103279360Y-91676000I0J250000D01*
G01*
G37*
G36*
G01*
X101379360Y-91676000D02*
X101379360Y-90726000D01*
G75*
G02*
X101629360Y-90476000I250000J0D01*
G01*
X102129360Y-90476000D01*
G75*
G02*
X102379360Y-90726000I0J-250000D01*
G01*
X102379360Y-91676000D01*
G75*
G02*
X102129360Y-91926000I-250000J0D01*
G01*
X101629360Y-91926000D01*
G75*
G02*
X101379360Y-91676000I0J250000D01*
G01*
G37*
%TD*%
%TO.C,C7*%
G36*
G01*
X91661000Y-120291200D02*
X90711000Y-120291200D01*
G75*
G02*
X90461000Y-120041200I0J250000D01*
G01*
X90461000Y-119541200D01*
G75*
G02*
X90711000Y-119291200I250000J0D01*
G01*
X91661000Y-119291200D01*
G75*
G02*
X91911000Y-119541200I0J-250000D01*
G01*
X91911000Y-120041200D01*
G75*
G02*
X91661000Y-120291200I-250000J0D01*
G01*
G37*
G36*
G01*
X91661000Y-122191200D02*
X90711000Y-122191200D01*
G75*
G02*
X90461000Y-121941200I0J250000D01*
G01*
X90461000Y-121441200D01*
G75*
G02*
X90711000Y-121191200I250000J0D01*
G01*
X91661000Y-121191200D01*
G75*
G02*
X91911000Y-121441200I0J-250000D01*
G01*
X91911000Y-121941200D01*
G75*
G02*
X91661000Y-122191200I-250000J0D01*
G01*
G37*
%TD*%
M02*
