%TF.GenerationSoftware,KiCad,Pcbnew,(5.1.9)-1*%
%TF.CreationDate,2021-11-25T16:44:50-06:00*%
%TF.ProjectId,RC8,5243382e-6b69-4636-9164-5f7063625858,rev?*%
%TF.SameCoordinates,Original*%
%TF.FileFunction,Copper,L1,Top*%
%TF.FilePolarity,Positive*%
%FSLAX46Y46*%
G04 Gerber Fmt 4.6, Leading zero omitted, Abs format (unit mm)*
G04 Created by KiCad (PCBNEW (5.1.9)-1) date 2021-11-25 16:44:50*
%MOMM*%
%LPD*%
G01*
G04 APERTURE LIST*
%TA.AperFunction,ComponentPad*%
%ADD10C,2.600000*%
%TD*%
%TA.AperFunction,ComponentPad*%
%ADD11R,2.600000X2.600000*%
%TD*%
%TA.AperFunction,ComponentPad*%
%ADD12O,1.700000X1.700000*%
%TD*%
%TA.AperFunction,ComponentPad*%
%ADD13R,1.700000X1.700000*%
%TD*%
%TA.AperFunction,ComponentPad*%
%ADD14O,1.600000X2.000000*%
%TD*%
%TA.AperFunction,ComponentPad*%
%ADD15R,2.000000X2.000000*%
%TD*%
%TA.AperFunction,ComponentPad*%
%ADD16C,1.600000*%
%TD*%
%TA.AperFunction,ComponentPad*%
%ADD17C,2.000000*%
%TD*%
%TA.AperFunction,ComponentPad*%
%ADD18O,1.600000X1.600000*%
%TD*%
%TA.AperFunction,ComponentPad*%
%ADD19R,1.600000X1.600000*%
%TD*%
%TA.AperFunction,ComponentPad*%
%ADD20C,1.590000*%
%TD*%
%TA.AperFunction,ComponentPad*%
%ADD21C,3.500000*%
%TD*%
%TA.AperFunction,Conductor*%
%ADD22C,0.635000*%
%TD*%
%TA.AperFunction,Conductor*%
%ADD23C,2.032000*%
%TD*%
%TA.AperFunction,Conductor*%
%ADD24C,1.270000*%
%TD*%
%TA.AperFunction,Conductor*%
%ADD25C,3.810000*%
%TD*%
G04 APERTURE END LIST*
D10*
%TO.P,J4,10*%
%TO.N,Net-(D1-PadA)*%
X65005740Y-45654180D03*
%TO.P,J4,9*%
%TO.N,GND*%
X70005740Y-45654180D03*
%TO.P,J4,8*%
X75005740Y-45654180D03*
%TO.P,J4,7*%
X80005740Y-45654180D03*
%TO.P,J4,6*%
X85005740Y-45654180D03*
%TO.P,J4,5*%
%TO.N,Net-(A1-Pad27)*%
X90005740Y-45654180D03*
%TO.P,J4,4*%
X95005740Y-45654180D03*
%TO.P,J4,3*%
X100005740Y-45654180D03*
%TO.P,J4,2*%
%TO.N,Net-(A1-Pad6)*%
X105005740Y-45654180D03*
D11*
%TO.P,J4,1*%
%TO.N,Net-(A1-Pad5)*%
X110005740Y-45654180D03*
%TD*%
D12*
%TO.P,J3,5*%
%TO.N,Net-(A1-Pad7)*%
X105178860Y-58742580D03*
%TO.P,J3,4*%
%TO.N,Net-(A1-Pad8)*%
X102638860Y-58742580D03*
%TO.P,J3,3*%
%TO.N,Net-(A1-Pad9)*%
X100098860Y-58742580D03*
%TO.P,J3,2*%
%TO.N,Net-(A1-Pad12)*%
X97558860Y-58742580D03*
D13*
%TO.P,J3,1*%
%TO.N,GND*%
X95018860Y-58742580D03*
%TD*%
D14*
%TO.P,U2,16*%
%TO.N,Net-(A1-Pad2)*%
X59423300Y-84907120D03*
%TO.P,U2,15*%
%TO.N,Net-(U2-Pad15)*%
X61963300Y-84907120D03*
%TO.P,U2,14*%
%TO.N,Net-(U2-Pad14)*%
X64503300Y-84907120D03*
%TO.P,U2,13*%
%TO.N,Net-(U2-Pad13)*%
X67043300Y-84907120D03*
%TO.P,U2,12*%
%TO.N,Net-(U2-Pad12)*%
X69583300Y-84907120D03*
%TO.P,U2,11*%
%TO.N,Net-(U2-Pad11)*%
X72123300Y-84907120D03*
%TO.P,U2,10*%
%TO.N,GND*%
X74663300Y-84907120D03*
%TO.P,U2,9*%
%TO.N,Net-(A1-Pad27)*%
X77203300Y-84907120D03*
%TO.P,U2,8*%
%TO.N,Net-(U2-Pad8)*%
X77203300Y-107767120D03*
%TO.P,U2,7*%
%TO.N,Net-(U2-Pad7)*%
X74663300Y-107767120D03*
%TO.P,U2,6*%
%TO.N,Net-(U2-Pad6)*%
X72123300Y-107767120D03*
%TO.P,U2,5*%
%TO.N,Net-(U2-Pad5)*%
X69583300Y-107767120D03*
%TO.P,U2,4*%
%TO.N,Net-(U2-Pad4)*%
X67043300Y-107767120D03*
%TO.P,U2,3*%
%TO.N,Net-(U2-Pad3)*%
X64503300Y-107767120D03*
D15*
%TO.P,U2,1*%
%TO.N,Net-(U2-Pad1)*%
X59423300Y-107767120D03*
D14*
%TO.P,U2,2*%
%TO.N,Net-(U2-Pad2)*%
X61963300Y-107767120D03*
%TD*%
D16*
%TO.P,C4,2*%
%TO.N,Net-(A1-Pad27)*%
X75146540Y-79689960D03*
%TO.P,C4,1*%
%TO.N,GND*%
X72646540Y-79689960D03*
%TD*%
D12*
%TO.P,J1,10*%
%TO.N,GND*%
X115685880Y-85498940D03*
%TO.P,J1,9*%
%TO.N,Net-(J1-Pad9)*%
X113145880Y-85498940D03*
%TO.P,J1,8*%
%TO.N,Net-(J1-Pad8)*%
X110605880Y-85498940D03*
%TO.P,J1,7*%
%TO.N,Net-(J1-Pad7)*%
X108065880Y-85498940D03*
%TO.P,J1,6*%
%TO.N,Net-(J1-Pad6)*%
X105525880Y-85498940D03*
%TO.P,J1,5*%
%TO.N,Net-(J1-Pad5)*%
X102985880Y-85498940D03*
%TO.P,J1,4*%
%TO.N,Net-(J1-Pad4)*%
X100445880Y-85498940D03*
%TO.P,J1,3*%
%TO.N,Net-(J1-Pad3)*%
X97905880Y-85498940D03*
%TO.P,J1,2*%
%TO.N,Net-(J1-Pad2)*%
X95365880Y-85498940D03*
D13*
%TO.P,J1,1*%
%TO.N,Net-(A1-Pad27)*%
X92825880Y-85498940D03*
%TD*%
D12*
%TO.P,J2,10*%
%TO.N,Net-(A1-Pad27)*%
X92765880Y-104371140D03*
%TO.P,J2,9*%
%TO.N,Net-(J2-Pad9)*%
X95305880Y-104371140D03*
%TO.P,J2,8*%
%TO.N,Net-(J2-Pad8)*%
X97845880Y-104371140D03*
%TO.P,J2,7*%
%TO.N,Net-(J2-Pad7)*%
X100385880Y-104371140D03*
%TO.P,J2,6*%
%TO.N,Net-(J2-Pad6)*%
X102925880Y-104371140D03*
%TO.P,J2,5*%
%TO.N,Net-(J2-Pad5)*%
X105465880Y-104371140D03*
%TO.P,J2,4*%
%TO.N,Net-(J2-Pad4)*%
X108005880Y-104371140D03*
%TO.P,J2,3*%
%TO.N,Net-(J2-Pad3)*%
X110545880Y-104371140D03*
%TO.P,J2,2*%
%TO.N,Net-(J2-Pad2)*%
X113085880Y-104371140D03*
D13*
%TO.P,J2,1*%
%TO.N,GND*%
X115625880Y-104371140D03*
%TD*%
D17*
%TO.P,C1,2*%
%TO.N,GND*%
X85895180Y-60798720D03*
D15*
%TO.P,C1,1*%
%TO.N,Net-(A1-Pad27)*%
X85895180Y-55798720D03*
%TD*%
D18*
%TO.P,U1,28*%
%TO.N,Net-(J2-Pad2)*%
X115875880Y-98755040D03*
%TO.P,U1,14*%
%TO.N,Net-(U1-Pad14)*%
X82855880Y-91135040D03*
%TO.P,U1,27*%
%TO.N,Net-(J2-Pad3)*%
X113335880Y-98755040D03*
%TO.P,U1,13*%
%TO.N,Net-(A1-Pad23)*%
X85395880Y-91135040D03*
%TO.P,U1,26*%
%TO.N,Net-(J2-Pad4)*%
X110795880Y-98755040D03*
%TO.P,U1,12*%
%TO.N,Net-(A1-Pad24)*%
X87935880Y-91135040D03*
%TO.P,U1,25*%
%TO.N,Net-(J2-Pad5)*%
X108255880Y-98755040D03*
%TO.P,U1,11*%
%TO.N,Net-(U1-Pad11)*%
X90475880Y-91135040D03*
%TO.P,U1,24*%
%TO.N,Net-(J2-Pad6)*%
X105715880Y-98755040D03*
%TO.P,U1,10*%
%TO.N,GND*%
X93015880Y-91135040D03*
%TO.P,U1,23*%
%TO.N,Net-(J2-Pad7)*%
X103175880Y-98755040D03*
%TO.P,U1,9*%
%TO.N,Net-(A1-Pad27)*%
X95555880Y-91135040D03*
%TO.P,U1,22*%
%TO.N,Net-(J2-Pad8)*%
X100635880Y-98755040D03*
%TO.P,U1,8*%
%TO.N,Net-(J1-Pad2)*%
X98095880Y-91135040D03*
%TO.P,U1,21*%
%TO.N,Net-(J2-Pad9)*%
X98095880Y-98755040D03*
%TO.P,U1,7*%
%TO.N,Net-(J1-Pad3)*%
X100635880Y-91135040D03*
%TO.P,U1,20*%
%TO.N,Net-(U1-Pad20)*%
X95555880Y-98755040D03*
%TO.P,U1,6*%
%TO.N,Net-(J1-Pad4)*%
X103175880Y-91135040D03*
%TO.P,U1,19*%
%TO.N,Net-(U1-Pad19)*%
X93015880Y-98755040D03*
%TO.P,U1,5*%
%TO.N,Net-(J1-Pad5)*%
X105715880Y-91135040D03*
%TO.P,U1,18*%
%TO.N,Net-(R1-Pad2)*%
X90475880Y-98755040D03*
%TO.P,U1,4*%
%TO.N,Net-(J1-Pad6)*%
X108255880Y-91135040D03*
%TO.P,U1,17*%
%TO.N,GND*%
X87935880Y-98755040D03*
%TO.P,U1,3*%
%TO.N,Net-(J1-Pad7)*%
X110795880Y-91135040D03*
%TO.P,U1,16*%
%TO.N,GND*%
X85395880Y-98755040D03*
%TO.P,U1,2*%
%TO.N,Net-(J1-Pad8)*%
X113335880Y-91135040D03*
%TO.P,U1,15*%
%TO.N,GND*%
X82855880Y-98755040D03*
D19*
%TO.P,U1,1*%
%TO.N,Net-(J1-Pad9)*%
X115875880Y-91135040D03*
%TD*%
D20*
%TO.P,RG1,3*%
%TO.N,Net-(A1-Pad27)*%
X66306700Y-66716800D03*
%TO.P,RG1,2*%
%TO.N,GND*%
X63766700Y-66716800D03*
%TO.P,RG1,1*%
%TO.N,Net-(C5-Pad1)*%
X61226700Y-66716800D03*
%TD*%
D18*
%TO.P,R2,2*%
%TO.N,Net-(A1-Pad23)*%
X101965760Y-78364080D03*
D16*
%TO.P,R2,1*%
%TO.N,Net-(A1-Pad27)*%
X101965760Y-68204080D03*
%TD*%
D18*
%TO.P,R3,2*%
%TO.N,Net-(A1-Pad24)*%
X105928160Y-78364080D03*
D16*
%TO.P,R3,1*%
%TO.N,Net-(A1-Pad27)*%
X105928160Y-68204080D03*
%TD*%
%TO.P,R1,1*%
%TO.N,Net-(A1-Pad27)*%
X76784200Y-103789480D03*
D18*
%TO.P,R1,2*%
%TO.N,Net-(R1-Pad2)*%
X86944200Y-103789480D03*
%TD*%
D21*
%TO.P,D1,C*%
%TO.N,Net-(C5-Pad1)*%
X67536060Y-54919880D03*
%TO.P,D1,A*%
%TO.N,Net-(D1-PadA)*%
X52296060Y-54919880D03*
%TD*%
D16*
%TO.P,C7,2*%
%TO.N,Net-(A1-Pad27)*%
X112526440Y-77182980D03*
%TO.P,C7,1*%
%TO.N,GND*%
X115026440Y-77182980D03*
%TD*%
D17*
%TO.P,C6,2*%
%TO.N,GND*%
X74856340Y-60798720D03*
D15*
%TO.P,C6,1*%
%TO.N,Net-(C5-Pad1)*%
X74856340Y-55798720D03*
%TD*%
D16*
%TO.P,C5,2*%
%TO.N,GND*%
X54329960Y-62717680D03*
%TO.P,C5,1*%
%TO.N,Net-(C5-Pad1)*%
X56829960Y-62717680D03*
%TD*%
%TO.P,C3,2*%
%TO.N,Net-(A1-Pad27)*%
X79421360Y-94902020D03*
%TO.P,C3,1*%
%TO.N,GND*%
X76921360Y-94902020D03*
%TD*%
%TO.P,C2,2*%
%TO.N,GND*%
X71478140Y-70290060D03*
%TO.P,C2,1*%
%TO.N,Net-(A1-Pad27)*%
X71478140Y-67790060D03*
%TD*%
D18*
%TO.P,A1,16*%
%TO.N,Net-(A1-Pad16)*%
X84582000Y-80873600D03*
%TO.P,A1,15*%
%TO.N,Net-(A1-Pad15)*%
X84582000Y-65633600D03*
%TO.P,A1,30*%
%TO.N,Net-(A1-Pad30)*%
X120142000Y-80873600D03*
%TO.P,A1,14*%
%TO.N,Net-(A1-Pad14)*%
X87122000Y-65633600D03*
%TO.P,A1,29*%
%TO.N,GND*%
X117602000Y-80873600D03*
%TO.P,A1,13*%
%TO.N,Net-(A1-Pad13)*%
X89662000Y-65633600D03*
%TO.P,A1,28*%
%TO.N,Net-(A1-Pad28)*%
X115062000Y-80873600D03*
%TO.P,A1,12*%
%TO.N,Net-(A1-Pad12)*%
X92202000Y-65633600D03*
%TO.P,A1,27*%
%TO.N,Net-(A1-Pad27)*%
X112522000Y-80873600D03*
%TO.P,A1,11*%
%TO.N,Net-(A1-Pad11)*%
X94742000Y-65633600D03*
%TO.P,A1,26*%
%TO.N,Net-(A1-Pad26)*%
X109982000Y-80873600D03*
%TO.P,A1,10*%
%TO.N,Net-(A1-Pad10)*%
X97282000Y-65633600D03*
%TO.P,A1,25*%
%TO.N,Net-(A1-Pad25)*%
X107442000Y-80873600D03*
%TO.P,A1,9*%
%TO.N,Net-(A1-Pad9)*%
X99822000Y-65633600D03*
%TO.P,A1,24*%
%TO.N,Net-(A1-Pad24)*%
X104902000Y-80873600D03*
%TO.P,A1,8*%
%TO.N,Net-(A1-Pad8)*%
X102362000Y-65633600D03*
%TO.P,A1,23*%
%TO.N,Net-(A1-Pad23)*%
X102362000Y-80873600D03*
%TO.P,A1,7*%
%TO.N,Net-(A1-Pad7)*%
X104902000Y-65633600D03*
%TO.P,A1,22*%
%TO.N,Net-(A1-Pad22)*%
X99822000Y-80873600D03*
%TO.P,A1,6*%
%TO.N,Net-(A1-Pad6)*%
X107442000Y-65633600D03*
%TO.P,A1,21*%
%TO.N,Net-(A1-Pad21)*%
X97282000Y-80873600D03*
%TO.P,A1,5*%
%TO.N,Net-(A1-Pad5)*%
X109982000Y-65633600D03*
%TO.P,A1,20*%
%TO.N,Net-(A1-Pad20)*%
X94742000Y-80873600D03*
%TO.P,A1,4*%
%TO.N,GND*%
X112522000Y-65633600D03*
%TO.P,A1,19*%
%TO.N,Net-(A1-Pad19)*%
X92202000Y-80873600D03*
%TO.P,A1,3*%
%TO.N,Net-(A1-Pad3)*%
X115062000Y-65633600D03*
%TO.P,A1,18*%
%TO.N,Net-(A1-Pad18)*%
X89662000Y-80873600D03*
%TO.P,A1,2*%
%TO.N,Net-(A1-Pad2)*%
X117602000Y-65633600D03*
%TO.P,A1,17*%
%TO.N,Net-(A1-Pad17)*%
X87122000Y-80873600D03*
D19*
%TO.P,A1,1*%
%TO.N,Net-(A1-Pad1)*%
X120142000Y-65633600D03*
%TD*%
D22*
%TO.N,Net-(A1-Pad12)*%
X97558860Y-60276740D02*
X92202000Y-65633600D01*
X97558860Y-58742580D02*
X97558860Y-60276740D01*
D23*
%TO.N,Net-(A1-Pad27)*%
X112526440Y-80869160D02*
X112522000Y-80873600D01*
X112526440Y-77182980D02*
X112526440Y-80869160D01*
X112526440Y-74802360D02*
X105928160Y-68204080D01*
X112526440Y-77182980D02*
X112526440Y-74802360D01*
X105928160Y-68204080D02*
X101965760Y-68204080D01*
X77203300Y-81746720D02*
X77203300Y-84907120D01*
X75146540Y-79689960D02*
X77203300Y-81746720D01*
X85895180Y-49764740D02*
X90005740Y-45654180D01*
X85895180Y-55798720D02*
X85895180Y-49764740D01*
X90005740Y-45654180D02*
X95005740Y-45654180D01*
X95005740Y-45654180D02*
X100005740Y-45654180D01*
X95555880Y-88746622D02*
X92825880Y-86016622D01*
X92825880Y-86016622D02*
X92825880Y-85498940D01*
X95555880Y-91135040D02*
X95555880Y-88746622D01*
X70404880Y-66716800D02*
X71478140Y-67790060D01*
X66306700Y-66716800D02*
X70404880Y-66716800D01*
X73903840Y-67790060D02*
X85895180Y-55798720D01*
X71478140Y-67790060D02*
X73903840Y-67790060D01*
X101551740Y-67790060D02*
X101965760Y-68204080D01*
X71478140Y-67790060D02*
X101551740Y-67790060D01*
X72609510Y-67790060D02*
X71478140Y-67790060D01*
X75146540Y-70327090D02*
X72609510Y-67790060D01*
X75146540Y-79689960D02*
X75146540Y-70327090D01*
X78800201Y-105805481D02*
X91331539Y-105805481D01*
X76784200Y-103789480D02*
X78800201Y-105805481D01*
X91331539Y-105805481D02*
X92765880Y-104371140D01*
X79421360Y-94902020D02*
X79421360Y-101152320D01*
X79421360Y-101152320D02*
X76784200Y-103789480D01*
X77203300Y-84907120D02*
X79421360Y-87125180D01*
X79421360Y-87125180D02*
X79421360Y-94902020D01*
X95555880Y-91135040D02*
X95555880Y-94154180D01*
X95555880Y-94154180D02*
X94808040Y-94902020D01*
X79421360Y-94902020D02*
X94808040Y-94902020D01*
D22*
%TO.N,Net-(A1-Pad9)*%
X100098860Y-65356740D02*
X99822000Y-65633600D01*
X100098860Y-58742580D02*
X100098860Y-65356740D01*
%TO.N,Net-(A1-Pad24)*%
X105928160Y-79847440D02*
X104902000Y-80873600D01*
X105928160Y-78364080D02*
X105928160Y-79847440D01*
X101810171Y-83965429D02*
X91924273Y-83965429D01*
X87935880Y-87953822D02*
X87935880Y-91135040D01*
X91924273Y-83965429D02*
X87935880Y-87953822D01*
X104902000Y-80873600D02*
X101810171Y-83965429D01*
%TO.N,Net-(A1-Pad8)*%
X102638860Y-65356740D02*
X102362000Y-65633600D01*
X102638860Y-58742580D02*
X102638860Y-65356740D01*
%TO.N,Net-(A1-Pad23)*%
X101965760Y-80477360D02*
X102362000Y-80873600D01*
X101965760Y-78364080D02*
X101965760Y-80477360D01*
X85395880Y-89116555D02*
X85395880Y-91135040D01*
X102362000Y-80873600D02*
X100105182Y-83130418D01*
X91382017Y-83130418D02*
X85395880Y-89116555D01*
X100105182Y-83130418D02*
X91382017Y-83130418D01*
%TO.N,Net-(A1-Pad7)*%
X105178860Y-65356740D02*
X104902000Y-65633600D01*
X105178860Y-58742580D02*
X105178860Y-65356740D01*
%TO.N,Net-(A1-Pad6)*%
X107442000Y-48090440D02*
X105005740Y-45654180D01*
X107442000Y-65633600D02*
X107442000Y-48090440D01*
%TO.N,Net-(A1-Pad5)*%
X110005740Y-65609860D02*
X109982000Y-65633600D01*
X110005740Y-45654180D02*
X110005740Y-65609860D01*
%TO.N,Net-(J1-Pad4)*%
X103175880Y-88228940D02*
X100445880Y-85498940D01*
X103175880Y-91135040D02*
X103175880Y-88228940D01*
%TO.N,Net-(J1-Pad3)*%
X100635880Y-88228940D02*
X97905880Y-85498940D01*
X100635880Y-91135040D02*
X100635880Y-88228940D01*
%TO.N,Net-(J1-Pad2)*%
X98095880Y-88228940D02*
X95365880Y-85498940D01*
X98095880Y-91135040D02*
X98095880Y-88228940D01*
%TO.N,Net-(J2-Pad9)*%
X95305880Y-101545040D02*
X98095880Y-98755040D01*
X95305880Y-104371140D02*
X95305880Y-101545040D01*
%TO.N,Net-(J2-Pad8)*%
X97845880Y-101545040D02*
X100635880Y-98755040D01*
X97845880Y-104371140D02*
X97845880Y-101545040D01*
%TO.N,Net-(J2-Pad7)*%
X100385880Y-101545040D02*
X103175880Y-98755040D01*
X100385880Y-104371140D02*
X100385880Y-101545040D01*
%TO.N,Net-(J2-Pad6)*%
X102925880Y-101545040D02*
X105715880Y-98755040D01*
X102925880Y-104371140D02*
X102925880Y-101545040D01*
%TO.N,Net-(J2-Pad5)*%
X105465880Y-101545040D02*
X108255880Y-98755040D01*
X105465880Y-104371140D02*
X105465880Y-101545040D01*
%TO.N,Net-(J2-Pad4)*%
X108005880Y-101545040D02*
X110795880Y-98755040D01*
X108005880Y-104371140D02*
X108005880Y-101545040D01*
%TO.N,Net-(J2-Pad3)*%
X110545880Y-101545040D02*
X113335880Y-98755040D01*
X110545880Y-104371140D02*
X110545880Y-101545040D01*
%TO.N,Net-(J2-Pad2)*%
X113085880Y-101545040D02*
X115875880Y-98755040D01*
X113085880Y-104371140D02*
X113085880Y-101545040D01*
%TO.N,Net-(J1-Pad9)*%
X115875880Y-88228940D02*
X113145880Y-85498940D01*
X115875880Y-91135040D02*
X115875880Y-88228940D01*
%TO.N,Net-(J1-Pad8)*%
X113335880Y-88228940D02*
X110605880Y-85498940D01*
X113335880Y-91135040D02*
X113335880Y-88228940D01*
%TO.N,Net-(J1-Pad7)*%
X110795880Y-88228940D02*
X108065880Y-85498940D01*
X110795880Y-91135040D02*
X110795880Y-88228940D01*
%TO.N,Net-(J1-Pad6)*%
X108255880Y-88228940D02*
X105525880Y-85498940D01*
X108255880Y-91135040D02*
X108255880Y-88228940D01*
%TO.N,Net-(J1-Pad5)*%
X105715880Y-88228940D02*
X102985880Y-85498940D01*
X105715880Y-91135040D02*
X105715880Y-88228940D01*
D24*
%TO.N,Net-(R1-Pad2)*%
X86944200Y-102286720D02*
X90475880Y-98755040D01*
X86944200Y-103789480D02*
X86944200Y-102286720D01*
D25*
%TO.N,Net-(D1-PadA)*%
X61561760Y-45654180D02*
X52296060Y-54919880D01*
X65005740Y-45654180D02*
X61561760Y-45654180D01*
%TO.N,Net-(C5-Pad1)*%
X73977500Y-54919880D02*
X74856340Y-55798720D01*
X67536060Y-54919880D02*
X73977500Y-54919880D01*
X67536060Y-54919880D02*
X64627760Y-54919880D01*
X58661300Y-64151400D02*
X60866699Y-66356799D01*
X58661300Y-60886340D02*
X58661300Y-64151400D01*
X64627760Y-54919880D02*
X58661300Y-60886340D01*
X58661300Y-60886340D02*
X57234961Y-62312679D01*
%TD*%
M02*
