M48
; DRILL file {KiCad (5.1.10)-1} date 08/04/22 08:13:10
; FORMAT={-:-/ absolute / inch / decimal}
; #@! TF.CreationDate,2022-08-04T08:13:10-06:00
; #@! TF.GenerationSoftware,Kicad,Pcbnew,(5.1.10)-1
; #@! TF.FileFunction,Plated,1,2,PTH
FMAT,2
INCH
T1C0.0157
T2C0.0315
T3C0.0350
T4C0.0374
T5C0.0394
T6C0.0402
T7C0.0512
T8C0.0591
T9C0.0642
T10C0.0713
T11C0.0906
T12C0.1177
T13C0.1181
T14C0.1181
T15C0.1260
T16C0.1299
%
G90
G05
T1
X1.16Y-4.16
X1.248Y-5.417
X1.34Y-4.175
X1.345Y-4.285
X1.365Y-4.035
X1.375Y-4.465
X1.394Y-4.1744
X1.395Y-4.285
X1.445Y-3.995
X1.46Y-4.175
X1.503Y-3.939
X1.53Y-4.465
X1.605Y-4.485
X1.819Y-4.913
X1.92Y-3.877
X1.926Y-4.38
X1.974Y-4.888
X2.12Y-4.692
X2.383Y-5.084
X2.495Y-1.217
X2.556Y-5.087
X2.755Y-4.985
X3.005Y-5.445
X3.005Y-5.485
X3.17Y-5.323
X3.34Y-3.075
X3.547Y-6.272
X3.715Y-3.305
X3.725Y-2.805
X3.77Y-2.865
X4.01Y-4.075
X4.25Y-5.525
X4.379Y-5.609
X4.512Y-5.303
X4.523Y-5.351
X4.6951Y-4.9275
X4.778Y-4.968
X4.785Y-0.925
X4.794Y-5.383
X4.8505Y-5.0768
X4.876Y-4.92
X4.878Y-5.105
X5.0067Y-5.3058
X5.125Y-4.712
X5.1998Y-4.7382
X5.2188Y-5.1376
X5.286Y-5.139
X5.375Y-5.823
X5.38Y-5.378
X5.385Y-5.48
X5.567Y-5.929
X5.76Y-5.572
X5.829Y-5.922
X5.903Y-6.114
X5.905Y-5.15
X6.058Y-6.112
X6.09Y-6.203
X6.212Y-4.848
X6.246Y-6.753
X6.2498Y-6.9542
X6.355Y-5.32
X6.4195Y-6.2015
X6.522Y-6.138
T2
X3.8665Y-3.448
X3.8665Y-3.5267
X3.8665Y-3.6055
X3.8665Y-3.6842
X4.185Y-3.4519
X4.185Y-3.5306
X4.185Y-3.6094
X4.185Y-3.6881
X4.2829Y-1.3746
X4.2829Y-1.4534
X4.3617Y-1.3746
X4.3617Y-1.4534
X4.4404Y-1.3746
X4.4404Y-1.4534
T3
X1.723Y-1.383
X1.773Y-1.283
X1.823Y-1.383
X1.873Y-1.283
X1.923Y-1.383
X1.973Y-1.283
X2.023Y-1.383
X2.073Y-1.283
T4
X2.9154Y-1.152
X3.0138Y-1.152
X3.0926Y-1.152
X3.191Y-1.152
T5
X1.624Y-5.18
X1.624Y-5.28
X1.724Y-5.18
X1.724Y-5.28
X3.8199Y-4.3021
X3.8199Y-5.2021
X3.9199Y-4.3021
X3.9199Y-5.2021
X3.9364Y-0.864
X3.9364Y-0.964
X3.9364Y-1.064
X3.9364Y-1.164
X3.9364Y-1.264
X3.9364Y-1.364
X3.9364Y-1.464
X3.9364Y-1.564
X3.9364Y-1.664
X3.9364Y-1.764
X3.9364Y-1.864
X3.9364Y-1.964
X3.9364Y-2.064
X3.9364Y-2.164
X3.9364Y-2.264
X3.9364Y-2.464
X3.9364Y-2.564
X3.9364Y-2.664
X3.9364Y-2.764
X3.9364Y-2.864
X3.9364Y-2.964
X3.9364Y-3.064
X3.9364Y-3.164
X4.0199Y-4.3021
X4.0199Y-5.2021
X4.0565Y-1.112
X4.0565Y-1.212
X4.0565Y-1.312
X4.0565Y-1.412
X4.0565Y-1.512
X4.1199Y-4.3021
X4.1199Y-5.2021
X4.2199Y-4.3021
X4.2199Y-5.2021
X4.3199Y-4.3021
X4.3199Y-5.2021
X4.4199Y-4.3021
X4.4199Y-5.2021
X4.5199Y-4.3021
X4.5199Y-5.2021
X4.5364Y-0.864
X4.5364Y-0.964
X4.5364Y-1.064
X4.5364Y-1.164
X4.5364Y-1.264
X4.5364Y-1.364
X4.5364Y-1.464
X4.5364Y-1.564
X4.5364Y-1.664
X4.5364Y-1.764
X4.5364Y-1.864
X4.5364Y-1.964
X4.5364Y-2.064
X4.5364Y-2.164
X4.5364Y-2.264
X4.5364Y-2.464
X4.5364Y-2.564
X4.5364Y-2.664
X4.5364Y-2.764
X4.5364Y-2.864
X4.5364Y-2.964
X4.5364Y-3.064
X4.5364Y-3.164
X4.8244Y-1.92
X4.8244Y-2.02
X4.8244Y-2.12
X4.8244Y-2.22
X4.8244Y-2.32
X4.8244Y-2.42
X4.8244Y-2.52
X4.8244Y-2.62
X4.8244Y-2.82
X4.8244Y-2.92
X4.8244Y-3.02
X4.8244Y-3.12
X4.8244Y-3.22
X4.8244Y-3.32
X5.431Y-4.696
X5.431Y-5.059
X5.531Y-4.696
X5.531Y-5.059
X5.631Y-4.696
X5.631Y-5.059
X5.8473Y-3.9119
X5.8473Y-4.0119
X5.8473Y-4.1119
X5.8473Y-4.2119
X5.8473Y-4.3119
X5.8473Y-4.4119
X5.8473Y-4.5119
X5.8473Y-4.6119
X6.708Y-6.031
X6.708Y-6.131
X6.708Y-6.231
X6.708Y-6.331
X6.708Y-6.431
X6.708Y-6.531
X6.708Y-6.631
X6.708Y-6.731
X6.708Y-6.831
X6.708Y-6.931
X6.7244Y-1.5602
X6.7244Y-1.6602
X6.7244Y-1.7602
X6.7244Y-1.8602
X6.7244Y-1.9602
X6.7244Y-2.0602
X6.7244Y-2.1602
X6.7244Y-2.2602
X6.7244Y-2.3602
X6.7244Y-2.4602
X6.7244Y-2.62
X6.7244Y-2.72
X6.7244Y-2.82
X6.7244Y-2.92
X6.7244Y-3.02
X6.7244Y-3.12
X6.7244Y-3.22
X6.7244Y-3.32
X6.7473Y-3.9119
X6.7473Y-4.0119
X6.7473Y-4.1119
X6.7473Y-4.2119
X6.7473Y-4.3119
X6.7473Y-4.4119
X6.7473Y-4.5119
X6.7473Y-4.6119
T6
X1.6372Y-0.8401
X1.7372Y-0.8401
X2.0588Y-0.8401
X2.1588Y-0.8401
T7
X1.147Y-5.6279
X1.147Y-5.9279
X1.347Y-5.6279
X1.347Y-5.9279
X1.547Y-5.6279
X1.547Y-5.9279
X1.747Y-5.6279
X1.747Y-5.9279
X3.2535Y-5.6369
X3.2535Y-5.9369
X3.4535Y-5.6369
X3.4535Y-5.9369
X3.6535Y-5.6369
X3.6535Y-5.9369
X3.8535Y-5.6369
X3.8535Y-5.9369
X4.0535Y-5.6369
X4.0535Y-5.9369
X4.2535Y-5.6369
X4.2535Y-5.9369
X6.2108Y-5.1707
X6.2108Y-5.6511
X6.447Y-5.092
X6.6832Y-5.1707
X6.6832Y-5.6511
T8
X2.045Y-5.8
X2.9348Y-5.8
T9
X1.5931Y-1.1531
X2.2029Y-1.1531
T10
X1.7717Y-6.18
X1.7717Y-6.43
X1.9467Y-6.18
X1.9467Y-6.43
X2.1217Y-6.18
X2.1217Y-6.43
X2.2969Y-6.18
X2.2969Y-6.43
X2.4719Y-6.18
X2.4719Y-6.43
X2.6469Y-6.18
X2.6469Y-6.43
X4.2126Y-6.18
X4.2126Y-6.43
X4.3876Y-6.18
X4.3876Y-6.43
X4.5626Y-6.18
X4.5626Y-6.43
X4.7378Y-6.18
X4.7378Y-6.43
X4.9128Y-6.18
X4.9128Y-6.43
X5.0878Y-6.18
X5.0878Y-6.43
T11
X2.7945Y-1.0453
X3.3119Y-1.0453
T12
X1.5187Y-6.2202
X2.2093Y-6.6702
X2.8998Y-6.2202
X3.9596Y-6.2202
X4.6502Y-6.6702
X5.3407Y-6.2202
T13
X4.892Y-3.649
X4.892Y-4.449
X5.592Y-3.649
X5.592Y-4.449
T14
X3.6711Y-5.1511
X4.6711Y-5.1511
X5.005Y-3.8278
X5.5562Y-4.2806
T15
X1.2105Y-1.7034
X1.2105Y-3.9081
X1.2105Y-4.8034
X2.3128Y-1.7034
X2.3128Y-3.9081
X3.4105Y-1.7034
X3.4105Y-4.8034
T16
X5.0606Y-0.895
X5.0606Y-2.395
X6.5606Y-0.895
X6.5606Y-2.395
T0
M30
