G04 #@! TF.GenerationSoftware,KiCad,Pcbnew,(5.1.2)-2*
G04 #@! TF.CreationDate,2020-02-17T19:57:39-06:00*
G04 #@! TF.ProjectId,Switches4,53776974-6368-4657-9334-2e6b69636164,rev?*
G04 #@! TF.SameCoordinates,Original*
G04 #@! TF.FileFunction,Legend,Top*
G04 #@! TF.FilePolarity,Positive*
%FSLAX46Y46*%
G04 Gerber Fmt 4.6, Leading zero omitted, Abs format (unit mm)*
G04 Created by KiCad (PCBNEW (5.1.2)-2) date 2020-02-17 19:57:39*
%MOMM*%
%LPD*%
G04 APERTURE LIST*
%ADD10C,0.150000*%
%ADD11C,0.120000*%
G04 APERTURE END LIST*
D10*
X56046857Y-52506571D02*
X55713523Y-52506571D01*
X55713523Y-53030380D02*
X55713523Y-52030380D01*
X56189714Y-52030380D01*
X56570666Y-53030380D02*
X56570666Y-52363714D01*
X56570666Y-52554190D02*
X56618285Y-52458952D01*
X56665904Y-52411333D01*
X56761142Y-52363714D01*
X56856380Y-52363714D01*
X57332571Y-53030380D02*
X57237333Y-52982761D01*
X57189714Y-52935142D01*
X57142095Y-52839904D01*
X57142095Y-52554190D01*
X57189714Y-52458952D01*
X57237333Y-52411333D01*
X57332571Y-52363714D01*
X57475428Y-52363714D01*
X57570666Y-52411333D01*
X57618285Y-52458952D01*
X57665904Y-52554190D01*
X57665904Y-52839904D01*
X57618285Y-52935142D01*
X57570666Y-52982761D01*
X57475428Y-53030380D01*
X57332571Y-53030380D01*
X58094476Y-52363714D02*
X58094476Y-53030380D01*
X58094476Y-52458952D02*
X58142095Y-52411333D01*
X58237333Y-52363714D01*
X58380190Y-52363714D01*
X58475428Y-52411333D01*
X58523047Y-52506571D01*
X58523047Y-53030380D01*
X58856380Y-52363714D02*
X59237333Y-52363714D01*
X58999238Y-52030380D02*
X58999238Y-52887523D01*
X59046857Y-52982761D01*
X59142095Y-53030380D01*
X59237333Y-53030380D01*
D11*
X159700000Y-60300000D02*
X160100000Y-60300000D01*
X159700000Y-59660000D02*
X159700000Y-60300000D01*
X206242000Y-55992000D02*
X205847000Y-56388000D01*
X208888000Y-53346000D02*
X208508000Y-53726000D01*
X206493000Y-56274000D02*
X206113000Y-56654000D01*
X209154000Y-53612000D02*
X208759000Y-54008000D01*
X201242000Y-55992000D02*
X200847000Y-56388000D01*
X203888000Y-53346000D02*
X203508000Y-53726000D01*
X201493000Y-56274000D02*
X201113000Y-56654000D01*
X204154000Y-53612000D02*
X203759000Y-54008000D01*
X196242000Y-55992000D02*
X195847000Y-56388000D01*
X198888000Y-53346000D02*
X198508000Y-53726000D01*
X196493000Y-56274000D02*
X196113000Y-56654000D01*
X199154000Y-53612000D02*
X198759000Y-54008000D01*
X191242000Y-55992000D02*
X190847000Y-56388000D01*
X193888000Y-53346000D02*
X193508000Y-53726000D01*
X191493000Y-56274000D02*
X191113000Y-56654000D01*
X194154000Y-53612000D02*
X193759000Y-54008000D01*
X186242000Y-55992000D02*
X185847000Y-56388000D01*
X188888000Y-53346000D02*
X188508000Y-53726000D01*
X186493000Y-56274000D02*
X186113000Y-56654000D01*
X189154000Y-53612000D02*
X188759000Y-54008000D01*
X181242000Y-55992000D02*
X180847000Y-56388000D01*
X183888000Y-53346000D02*
X183508000Y-53726000D01*
X181493000Y-56274000D02*
X181113000Y-56654000D01*
X184154000Y-53612000D02*
X183759000Y-54008000D01*
X176242000Y-55992000D02*
X175847000Y-56388000D01*
X178888000Y-53346000D02*
X178508000Y-53726000D01*
X176493000Y-56274000D02*
X176113000Y-56654000D01*
X179154000Y-53612000D02*
X178759000Y-54008000D01*
X171242000Y-55992000D02*
X170847000Y-56388000D01*
X173888000Y-53346000D02*
X173508000Y-53726000D01*
X171493000Y-56274000D02*
X171113000Y-56654000D01*
X174154000Y-53612000D02*
X173759000Y-54008000D01*
X166242000Y-55992000D02*
X165847000Y-56388000D01*
X168888000Y-53346000D02*
X168508000Y-53726000D01*
X166493000Y-56274000D02*
X166113000Y-56654000D01*
X169154000Y-53612000D02*
X168759000Y-54008000D01*
X160952000Y-56281000D02*
X160846000Y-56388000D01*
X163888000Y-53346000D02*
X163781000Y-53453000D01*
X161218000Y-56547000D02*
X161112000Y-56654000D01*
X164154000Y-53612000D02*
X164047000Y-53719000D01*
X210060000Y-50940000D02*
X210060000Y-60060000D01*
X159940000Y-50940000D02*
X159940000Y-60060000D01*
X159940000Y-60060000D02*
X210060000Y-60060000D01*
X159940000Y-50940000D02*
X210060000Y-50940000D01*
X159940000Y-58500000D02*
X210060000Y-58500000D01*
X159940000Y-59600000D02*
X210060000Y-59600000D01*
X209680000Y-55000000D02*
G75*
G03X209680000Y-55000000I-2180000J0D01*
G01*
X204680000Y-55000000D02*
G75*
G03X204680000Y-55000000I-2180000J0D01*
G01*
X199680000Y-55000000D02*
G75*
G03X199680000Y-55000000I-2180000J0D01*
G01*
X194680000Y-55000000D02*
G75*
G03X194680000Y-55000000I-2180000J0D01*
G01*
X189680000Y-55000000D02*
G75*
G03X189680000Y-55000000I-2180000J0D01*
G01*
X184680000Y-55000000D02*
G75*
G03X184680000Y-55000000I-2180000J0D01*
G01*
X179680000Y-55000000D02*
G75*
G03X179680000Y-55000000I-2180000J0D01*
G01*
X174680000Y-55000000D02*
G75*
G03X174680000Y-55000000I-2180000J0D01*
G01*
X169680000Y-55000000D02*
G75*
G03X169680000Y-55000000I-2180000J0D01*
G01*
X164680000Y-55000000D02*
G75*
G03X164680000Y-55000000I-2180000J0D01*
G01*
X117200000Y-60300000D02*
X117600000Y-60300000D01*
X117200000Y-59660000D02*
X117200000Y-60300000D01*
X153742000Y-55992000D02*
X153347000Y-56388000D01*
X156388000Y-53346000D02*
X156008000Y-53726000D01*
X153993000Y-56274000D02*
X153613000Y-56654000D01*
X156654000Y-53612000D02*
X156259000Y-54008000D01*
X148742000Y-55992000D02*
X148347000Y-56388000D01*
X151388000Y-53346000D02*
X151008000Y-53726000D01*
X148993000Y-56274000D02*
X148613000Y-56654000D01*
X151654000Y-53612000D02*
X151259000Y-54008000D01*
X143742000Y-55992000D02*
X143347000Y-56388000D01*
X146388000Y-53346000D02*
X146008000Y-53726000D01*
X143993000Y-56274000D02*
X143613000Y-56654000D01*
X146654000Y-53612000D02*
X146259000Y-54008000D01*
X138742000Y-55992000D02*
X138347000Y-56388000D01*
X141388000Y-53346000D02*
X141008000Y-53726000D01*
X138993000Y-56274000D02*
X138613000Y-56654000D01*
X141654000Y-53612000D02*
X141259000Y-54008000D01*
X133742000Y-55992000D02*
X133347000Y-56388000D01*
X136388000Y-53346000D02*
X136008000Y-53726000D01*
X133993000Y-56274000D02*
X133613000Y-56654000D01*
X136654000Y-53612000D02*
X136259000Y-54008000D01*
X128742000Y-55992000D02*
X128347000Y-56388000D01*
X131388000Y-53346000D02*
X131008000Y-53726000D01*
X128993000Y-56274000D02*
X128613000Y-56654000D01*
X131654000Y-53612000D02*
X131259000Y-54008000D01*
X123742000Y-55992000D02*
X123347000Y-56388000D01*
X126388000Y-53346000D02*
X126008000Y-53726000D01*
X123993000Y-56274000D02*
X123613000Y-56654000D01*
X126654000Y-53612000D02*
X126259000Y-54008000D01*
X118452000Y-56281000D02*
X118346000Y-56388000D01*
X121388000Y-53346000D02*
X121281000Y-53453000D01*
X118718000Y-56547000D02*
X118612000Y-56654000D01*
X121654000Y-53612000D02*
X121547000Y-53719000D01*
X157560000Y-50940000D02*
X157560000Y-60060000D01*
X117440000Y-50940000D02*
X117440000Y-60060000D01*
X117440000Y-60060000D02*
X157560000Y-60060000D01*
X117440000Y-50940000D02*
X157560000Y-50940000D01*
X117440000Y-58500000D02*
X157560000Y-58500000D01*
X117440000Y-59600000D02*
X157560000Y-59600000D01*
X157180000Y-55000000D02*
G75*
G03X157180000Y-55000000I-2180000J0D01*
G01*
X152180000Y-55000000D02*
G75*
G03X152180000Y-55000000I-2180000J0D01*
G01*
X147180000Y-55000000D02*
G75*
G03X147180000Y-55000000I-2180000J0D01*
G01*
X142180000Y-55000000D02*
G75*
G03X142180000Y-55000000I-2180000J0D01*
G01*
X137180000Y-55000000D02*
G75*
G03X137180000Y-55000000I-2180000J0D01*
G01*
X132180000Y-55000000D02*
G75*
G03X132180000Y-55000000I-2180000J0D01*
G01*
X127180000Y-55000000D02*
G75*
G03X127180000Y-55000000I-2180000J0D01*
G01*
X122180000Y-55000000D02*
G75*
G03X122180000Y-55000000I-2180000J0D01*
G01*
X206883000Y-61214000D02*
X206883000Y-74218800D01*
X206883000Y-61214000D02*
X214782400Y-61214000D01*
X214782400Y-61214000D02*
X214782400Y-74218800D01*
X206883000Y-74218800D02*
X214782400Y-74218800D01*
X54483000Y-61214000D02*
X54483000Y-74218800D01*
X54483000Y-61214000D02*
X62382400Y-61214000D01*
X62382400Y-61214000D02*
X62382400Y-74218800D01*
X54483000Y-74218800D02*
X62382400Y-74218800D01*
X181483000Y-61214000D02*
X181483000Y-74218800D01*
X181483000Y-61214000D02*
X189382400Y-61214000D01*
X189382400Y-61214000D02*
X189382400Y-74218800D01*
X181483000Y-74218800D02*
X189382400Y-74218800D01*
X156083000Y-61214000D02*
X156083000Y-74218800D01*
X156083000Y-61214000D02*
X163982400Y-61214000D01*
X163982400Y-61214000D02*
X163982400Y-74218800D01*
X156083000Y-74218800D02*
X163982400Y-74218800D01*
X130683000Y-61214000D02*
X130683000Y-74218800D01*
X130683000Y-61214000D02*
X138582400Y-61214000D01*
X138582400Y-61214000D02*
X138582400Y-74218800D01*
X130683000Y-74218800D02*
X138582400Y-74218800D01*
X105283000Y-61214000D02*
X105283000Y-74218800D01*
X105283000Y-61214000D02*
X113182400Y-61214000D01*
X113182400Y-61214000D02*
X113182400Y-74218800D01*
X105283000Y-74218800D02*
X113182400Y-74218800D01*
X79883000Y-61214000D02*
X79883000Y-74218800D01*
X79883000Y-61214000D02*
X87782400Y-61214000D01*
X87782400Y-61214000D02*
X87782400Y-74218800D01*
X79883000Y-74218800D02*
X87782400Y-74218800D01*
D10*
X203390666Y-73810761D02*
X203533523Y-73858380D01*
X203771619Y-73858380D01*
X203866857Y-73810761D01*
X203914476Y-73763142D01*
X203962095Y-73667904D01*
X203962095Y-73572666D01*
X203914476Y-73477428D01*
X203866857Y-73429809D01*
X203771619Y-73382190D01*
X203581142Y-73334571D01*
X203485904Y-73286952D01*
X203438285Y-73239333D01*
X203390666Y-73144095D01*
X203390666Y-73048857D01*
X203438285Y-72953619D01*
X203485904Y-72906000D01*
X203581142Y-72858380D01*
X203819238Y-72858380D01*
X203962095Y-72906000D01*
X204295428Y-72858380D02*
X204533523Y-73858380D01*
X204724000Y-73144095D01*
X204914476Y-73858380D01*
X205152571Y-72858380D01*
X205438285Y-72858380D02*
X206104952Y-72858380D01*
X205676380Y-73858380D01*
X63436666Y-74318761D02*
X63579523Y-74366380D01*
X63817619Y-74366380D01*
X63912857Y-74318761D01*
X63960476Y-74271142D01*
X64008095Y-74175904D01*
X64008095Y-74080666D01*
X63960476Y-73985428D01*
X63912857Y-73937809D01*
X63817619Y-73890190D01*
X63627142Y-73842571D01*
X63531904Y-73794952D01*
X63484285Y-73747333D01*
X63436666Y-73652095D01*
X63436666Y-73556857D01*
X63484285Y-73461619D01*
X63531904Y-73414000D01*
X63627142Y-73366380D01*
X63865238Y-73366380D01*
X64008095Y-73414000D01*
X64341428Y-73366380D02*
X64579523Y-74366380D01*
X64770000Y-73652095D01*
X64960476Y-74366380D01*
X65198571Y-73366380D01*
X66008095Y-73366380D02*
X65817619Y-73366380D01*
X65722380Y-73414000D01*
X65674761Y-73461619D01*
X65579523Y-73604476D01*
X65531904Y-73794952D01*
X65531904Y-74175904D01*
X65579523Y-74271142D01*
X65627142Y-74318761D01*
X65722380Y-74366380D01*
X65912857Y-74366380D01*
X66008095Y-74318761D01*
X66055714Y-74271142D01*
X66103333Y-74175904D01*
X66103333Y-73937809D01*
X66055714Y-73842571D01*
X66008095Y-73794952D01*
X65912857Y-73747333D01*
X65722380Y-73747333D01*
X65627142Y-73794952D01*
X65579523Y-73842571D01*
X65531904Y-73937809D01*
X177821336Y-73810761D02*
X177964193Y-73858380D01*
X178202289Y-73858380D01*
X178297527Y-73810761D01*
X178345146Y-73763142D01*
X178392765Y-73667904D01*
X178392765Y-73572666D01*
X178345146Y-73477428D01*
X178297527Y-73429809D01*
X178202289Y-73382190D01*
X178011812Y-73334571D01*
X177916574Y-73286952D01*
X177868955Y-73239333D01*
X177821336Y-73144095D01*
X177821336Y-73048857D01*
X177868955Y-72953619D01*
X177916574Y-72906000D01*
X178011812Y-72858380D01*
X178249908Y-72858380D01*
X178392765Y-72906000D01*
X178726098Y-72858380D02*
X178964193Y-73858380D01*
X179154670Y-73144095D01*
X179345146Y-73858380D01*
X179583241Y-72858380D01*
X180440384Y-72858380D02*
X179964193Y-72858380D01*
X179916574Y-73334571D01*
X179964193Y-73286952D01*
X180059431Y-73239333D01*
X180297527Y-73239333D01*
X180392765Y-73286952D01*
X180440384Y-73334571D01*
X180488003Y-73429809D01*
X180488003Y-73667904D01*
X180440384Y-73763142D01*
X180392765Y-73810761D01*
X180297527Y-73858380D01*
X180059431Y-73858380D01*
X179964193Y-73810761D01*
X179916574Y-73763142D01*
X152506002Y-74064761D02*
X152648859Y-74112380D01*
X152886955Y-74112380D01*
X152982193Y-74064761D01*
X153029812Y-74017142D01*
X153077431Y-73921904D01*
X153077431Y-73826666D01*
X153029812Y-73731428D01*
X152982193Y-73683809D01*
X152886955Y-73636190D01*
X152696478Y-73588571D01*
X152601240Y-73540952D01*
X152553621Y-73493333D01*
X152506002Y-73398095D01*
X152506002Y-73302857D01*
X152553621Y-73207619D01*
X152601240Y-73160000D01*
X152696478Y-73112380D01*
X152934574Y-73112380D01*
X153077431Y-73160000D01*
X153410764Y-73112380D02*
X153648859Y-74112380D01*
X153839336Y-73398095D01*
X154029812Y-74112380D01*
X154267907Y-73112380D01*
X155077431Y-73445714D02*
X155077431Y-74112380D01*
X154839336Y-73064761D02*
X154601240Y-73779047D01*
X155220288Y-73779047D01*
X127190668Y-74064761D02*
X127333525Y-74112380D01*
X127571621Y-74112380D01*
X127666859Y-74064761D01*
X127714478Y-74017142D01*
X127762097Y-73921904D01*
X127762097Y-73826666D01*
X127714478Y-73731428D01*
X127666859Y-73683809D01*
X127571621Y-73636190D01*
X127381144Y-73588571D01*
X127285906Y-73540952D01*
X127238287Y-73493333D01*
X127190668Y-73398095D01*
X127190668Y-73302857D01*
X127238287Y-73207619D01*
X127285906Y-73160000D01*
X127381144Y-73112380D01*
X127619240Y-73112380D01*
X127762097Y-73160000D01*
X128095430Y-73112380D02*
X128333525Y-74112380D01*
X128524002Y-73398095D01*
X128714478Y-74112380D01*
X128952573Y-73112380D01*
X129238287Y-73112380D02*
X129857335Y-73112380D01*
X129524002Y-73493333D01*
X129666859Y-73493333D01*
X129762097Y-73540952D01*
X129809716Y-73588571D01*
X129857335Y-73683809D01*
X129857335Y-73921904D01*
X129809716Y-74017142D01*
X129762097Y-74064761D01*
X129666859Y-74112380D01*
X129381144Y-74112380D01*
X129285906Y-74064761D01*
X129238287Y-74017142D01*
X101621334Y-73810761D02*
X101764191Y-73858380D01*
X102002287Y-73858380D01*
X102097525Y-73810761D01*
X102145144Y-73763142D01*
X102192763Y-73667904D01*
X102192763Y-73572666D01*
X102145144Y-73477428D01*
X102097525Y-73429809D01*
X102002287Y-73382190D01*
X101811810Y-73334571D01*
X101716572Y-73286952D01*
X101668953Y-73239333D01*
X101621334Y-73144095D01*
X101621334Y-73048857D01*
X101668953Y-72953619D01*
X101716572Y-72906000D01*
X101811810Y-72858380D01*
X102049906Y-72858380D01*
X102192763Y-72906000D01*
X102526096Y-72858380D02*
X102764191Y-73858380D01*
X102954668Y-73144095D01*
X103145144Y-73858380D01*
X103383239Y-72858380D01*
X103716572Y-72953619D02*
X103764191Y-72906000D01*
X103859429Y-72858380D01*
X104097525Y-72858380D01*
X104192763Y-72906000D01*
X104240382Y-72953619D01*
X104288001Y-73048857D01*
X104288001Y-73144095D01*
X104240382Y-73286952D01*
X103668953Y-73858380D01*
X104288001Y-73858380D01*
X76560000Y-74064761D02*
X76702857Y-74112380D01*
X76940953Y-74112380D01*
X77036191Y-74064761D01*
X77083810Y-74017142D01*
X77131429Y-73921904D01*
X77131429Y-73826666D01*
X77083810Y-73731428D01*
X77036191Y-73683809D01*
X76940953Y-73636190D01*
X76750476Y-73588571D01*
X76655238Y-73540952D01*
X76607619Y-73493333D01*
X76560000Y-73398095D01*
X76560000Y-73302857D01*
X76607619Y-73207619D01*
X76655238Y-73160000D01*
X76750476Y-73112380D01*
X76988572Y-73112380D01*
X77131429Y-73160000D01*
X77464762Y-73112380D02*
X77702857Y-74112380D01*
X77893334Y-73398095D01*
X78083810Y-74112380D01*
X78321905Y-73112380D01*
X79226667Y-74112380D02*
X78655238Y-74112380D01*
X78940953Y-74112380D02*
X78940953Y-73112380D01*
X78845714Y-73255238D01*
X78750476Y-73350476D01*
X78655238Y-73398095D01*
M02*
