M48
; DRILL file {KiCad (5.1.2)-2} date 2020-02-17 7:57:41 PM
; FORMAT={-:-/ absolute / inch / decimal}
; #@! TF.CreationDate,2020-02-17T19:57:41-06:00
; #@! TF.GenerationSoftware,Kicad,Pcbnew,(5.1.2)-2
; #@! TF.FileFunction,Plated,1,2,PTH
FMAT,2
INCH
T1C0.0394
T2C0.0512
T3C0.0730
%
G90
G05
T1
X3.7488Y-2.1457
X3.8488Y-2.1457
X3.9488Y-2.1457
X4.0488Y-2.1457
X4.1488Y-2.1457
X4.2488Y-2.1457
X4.3488Y-2.1457
X4.4488Y-2.1457
X2.4843Y-2.1457
X2.5843Y-2.1457
X2.6843Y-2.1457
X2.7843Y-2.1457
X2.8843Y-2.1457
X2.9843Y-2.1457
X3.0843Y-2.1457
X3.1843Y-2.1457
X3.2843Y-2.1457
X3.3843Y-2.1457
X3.4843Y-2.1457
T2
X6.3976Y-2.1654
X6.5945Y-2.1654
X6.7913Y-2.1654
X6.9882Y-2.1654
X7.185Y-2.1654
X7.3819Y-2.1654
X7.5787Y-2.1654
X7.7756Y-2.1654
X7.9724Y-2.1654
X8.1693Y-2.1654
X4.7244Y-2.1654
X4.9213Y-2.1654
X5.1181Y-2.1654
X5.315Y-2.1654
X5.5118Y-2.1654
X5.7087Y-2.1654
X5.9055Y-2.1654
X6.1024Y-2.1654
T3
X8.3Y-2.48
X8.3Y-2.665
X8.3Y-2.8501
X5.3Y-2.48
X5.3Y-2.665
X5.3Y-2.8501
X2.3Y-2.48
X2.3Y-2.665
X2.3Y-2.8501
X3.3Y-2.48
X3.3Y-2.665
X3.3Y-2.8501
X7.3Y-2.48
X7.3Y-2.665
X7.3Y-2.8501
X4.3Y-2.48
X4.3Y-2.665
X4.3Y-2.8501
X6.3Y-2.48
X6.3Y-2.665
X6.3Y-2.8501
T0
M30
