G04 #@! TF.GenerationSoftware,KiCad,Pcbnew,(5.1.2)-2*
G04 #@! TF.CreationDate,2020-02-17T19:57:39-06:00*
G04 #@! TF.ProjectId,Switches4,53776974-6368-4657-9334-2e6b69636164,rev?*
G04 #@! TF.SameCoordinates,Original*
G04 #@! TF.FileFunction,Soldermask,Top*
G04 #@! TF.FilePolarity,Negative*
%FSLAX46Y46*%
G04 Gerber Fmt 4.6, Leading zero omitted, Abs format (unit mm)*
G04 Created by KiCad (PCBNEW (5.1.2)-2) date 2020-02-17 19:57:39*
%MOMM*%
%LPD*%
G04 APERTURE LIST*
%ADD10C,0.100000*%
G04 APERTURE END LIST*
D10*
G36*
X211127267Y-70847263D02*
G01*
X211279411Y-70877526D01*
X211398137Y-70926704D01*
X211566041Y-70996252D01*
X211566042Y-70996253D01*
X211824004Y-71168617D01*
X212043383Y-71387996D01*
X212158553Y-71560361D01*
X212215748Y-71645959D01*
X212334474Y-71932590D01*
X212395000Y-72236875D01*
X212395000Y-72547125D01*
X212334474Y-72851410D01*
X212215748Y-73138041D01*
X212215747Y-73138042D01*
X212043383Y-73396004D01*
X211824004Y-73615383D01*
X211651639Y-73730553D01*
X211566041Y-73787748D01*
X211398137Y-73857296D01*
X211279411Y-73906474D01*
X210975125Y-73967000D01*
X210664875Y-73967000D01*
X210360589Y-73906474D01*
X210241863Y-73857296D01*
X210073959Y-73787748D01*
X209988361Y-73730553D01*
X209815996Y-73615383D01*
X209596617Y-73396004D01*
X209424253Y-73138042D01*
X209424252Y-73138041D01*
X209305526Y-72851410D01*
X209245000Y-72547125D01*
X209245000Y-72236875D01*
X209305526Y-71932590D01*
X209424252Y-71645959D01*
X209481447Y-71560361D01*
X209596617Y-71387996D01*
X209815996Y-71168617D01*
X210073958Y-70996253D01*
X210073959Y-70996252D01*
X210241863Y-70926704D01*
X210360589Y-70877526D01*
X210664875Y-70817000D01*
X210975125Y-70817000D01*
X211127267Y-70847263D01*
X211127267Y-70847263D01*
G37*
G36*
X185727267Y-70847263D02*
G01*
X185879411Y-70877526D01*
X185998137Y-70926704D01*
X186166041Y-70996252D01*
X186166042Y-70996253D01*
X186424004Y-71168617D01*
X186643383Y-71387996D01*
X186758553Y-71560361D01*
X186815748Y-71645959D01*
X186934474Y-71932590D01*
X186995000Y-72236875D01*
X186995000Y-72547125D01*
X186934474Y-72851410D01*
X186815748Y-73138041D01*
X186815747Y-73138042D01*
X186643383Y-73396004D01*
X186424004Y-73615383D01*
X186251639Y-73730553D01*
X186166041Y-73787748D01*
X185998137Y-73857296D01*
X185879411Y-73906474D01*
X185575125Y-73967000D01*
X185264875Y-73967000D01*
X184960589Y-73906474D01*
X184841863Y-73857296D01*
X184673959Y-73787748D01*
X184588361Y-73730553D01*
X184415996Y-73615383D01*
X184196617Y-73396004D01*
X184024253Y-73138042D01*
X184024252Y-73138041D01*
X183905526Y-72851410D01*
X183845000Y-72547125D01*
X183845000Y-72236875D01*
X183905526Y-71932590D01*
X184024252Y-71645959D01*
X184081447Y-71560361D01*
X184196617Y-71387996D01*
X184415996Y-71168617D01*
X184673958Y-70996253D01*
X184673959Y-70996252D01*
X184841863Y-70926704D01*
X184960589Y-70877526D01*
X185264875Y-70817000D01*
X185575125Y-70817000D01*
X185727267Y-70847263D01*
X185727267Y-70847263D01*
G37*
G36*
X84127267Y-70847263D02*
G01*
X84279411Y-70877526D01*
X84398137Y-70926704D01*
X84566041Y-70996252D01*
X84566042Y-70996253D01*
X84824004Y-71168617D01*
X85043383Y-71387996D01*
X85158553Y-71560361D01*
X85215748Y-71645959D01*
X85334474Y-71932590D01*
X85395000Y-72236875D01*
X85395000Y-72547125D01*
X85334474Y-72851410D01*
X85215748Y-73138041D01*
X85215747Y-73138042D01*
X85043383Y-73396004D01*
X84824004Y-73615383D01*
X84651639Y-73730553D01*
X84566041Y-73787748D01*
X84398137Y-73857296D01*
X84279411Y-73906474D01*
X83975125Y-73967000D01*
X83664875Y-73967000D01*
X83360589Y-73906474D01*
X83241863Y-73857296D01*
X83073959Y-73787748D01*
X82988361Y-73730553D01*
X82815996Y-73615383D01*
X82596617Y-73396004D01*
X82424253Y-73138042D01*
X82424252Y-73138041D01*
X82305526Y-72851410D01*
X82245000Y-72547125D01*
X82245000Y-72236875D01*
X82305526Y-71932590D01*
X82424252Y-71645959D01*
X82481447Y-71560361D01*
X82596617Y-71387996D01*
X82815996Y-71168617D01*
X83073958Y-70996253D01*
X83073959Y-70996252D01*
X83241863Y-70926704D01*
X83360589Y-70877526D01*
X83512733Y-70847263D01*
X83664875Y-70817000D01*
X83975125Y-70817000D01*
X84127267Y-70847263D01*
X84127267Y-70847263D01*
G37*
G36*
X109527267Y-70847263D02*
G01*
X109679411Y-70877526D01*
X109798137Y-70926704D01*
X109966041Y-70996252D01*
X109966042Y-70996253D01*
X110224004Y-71168617D01*
X110443383Y-71387996D01*
X110558553Y-71560361D01*
X110615748Y-71645959D01*
X110734474Y-71932590D01*
X110795000Y-72236875D01*
X110795000Y-72547125D01*
X110734474Y-72851410D01*
X110615748Y-73138041D01*
X110615747Y-73138042D01*
X110443383Y-73396004D01*
X110224004Y-73615383D01*
X110051639Y-73730553D01*
X109966041Y-73787748D01*
X109798137Y-73857296D01*
X109679411Y-73906474D01*
X109375125Y-73967000D01*
X109064875Y-73967000D01*
X108760589Y-73906474D01*
X108641863Y-73857296D01*
X108473959Y-73787748D01*
X108388361Y-73730553D01*
X108215996Y-73615383D01*
X107996617Y-73396004D01*
X107824253Y-73138042D01*
X107824252Y-73138041D01*
X107705526Y-72851410D01*
X107645000Y-72547125D01*
X107645000Y-72236875D01*
X107705526Y-71932590D01*
X107824252Y-71645959D01*
X107881447Y-71560361D01*
X107996617Y-71387996D01*
X108215996Y-71168617D01*
X108473958Y-70996253D01*
X108473959Y-70996252D01*
X108641863Y-70926704D01*
X108760589Y-70877526D01*
X108912733Y-70847263D01*
X109064875Y-70817000D01*
X109375125Y-70817000D01*
X109527267Y-70847263D01*
X109527267Y-70847263D01*
G37*
G36*
X160327267Y-70847263D02*
G01*
X160479411Y-70877526D01*
X160598137Y-70926704D01*
X160766041Y-70996252D01*
X160766042Y-70996253D01*
X161024004Y-71168617D01*
X161243383Y-71387996D01*
X161358553Y-71560361D01*
X161415748Y-71645959D01*
X161534474Y-71932590D01*
X161595000Y-72236875D01*
X161595000Y-72547125D01*
X161534474Y-72851410D01*
X161415748Y-73138041D01*
X161415747Y-73138042D01*
X161243383Y-73396004D01*
X161024004Y-73615383D01*
X160851639Y-73730553D01*
X160766041Y-73787748D01*
X160598137Y-73857296D01*
X160479411Y-73906474D01*
X160175125Y-73967000D01*
X159864875Y-73967000D01*
X159560589Y-73906474D01*
X159441863Y-73857296D01*
X159273959Y-73787748D01*
X159188361Y-73730553D01*
X159015996Y-73615383D01*
X158796617Y-73396004D01*
X158624253Y-73138042D01*
X158624252Y-73138041D01*
X158505526Y-72851410D01*
X158445000Y-72547125D01*
X158445000Y-72236875D01*
X158505526Y-71932590D01*
X158624252Y-71645959D01*
X158681447Y-71560361D01*
X158796617Y-71387996D01*
X159015996Y-71168617D01*
X159273958Y-70996253D01*
X159273959Y-70996252D01*
X159441863Y-70926704D01*
X159560589Y-70877526D01*
X159712733Y-70847263D01*
X159864875Y-70817000D01*
X160175125Y-70817000D01*
X160327267Y-70847263D01*
X160327267Y-70847263D01*
G37*
G36*
X58727267Y-70847263D02*
G01*
X58879411Y-70877526D01*
X58998137Y-70926704D01*
X59166041Y-70996252D01*
X59166042Y-70996253D01*
X59424004Y-71168617D01*
X59643383Y-71387996D01*
X59758553Y-71560361D01*
X59815748Y-71645959D01*
X59934474Y-71932590D01*
X59995000Y-72236875D01*
X59995000Y-72547125D01*
X59934474Y-72851410D01*
X59815748Y-73138041D01*
X59815747Y-73138042D01*
X59643383Y-73396004D01*
X59424004Y-73615383D01*
X59251639Y-73730553D01*
X59166041Y-73787748D01*
X58998137Y-73857296D01*
X58879411Y-73906474D01*
X58575125Y-73967000D01*
X58264875Y-73967000D01*
X57960589Y-73906474D01*
X57841863Y-73857296D01*
X57673959Y-73787748D01*
X57588361Y-73730553D01*
X57415996Y-73615383D01*
X57196617Y-73396004D01*
X57024253Y-73138042D01*
X57024252Y-73138041D01*
X56905526Y-72851410D01*
X56845000Y-72547125D01*
X56845000Y-72236875D01*
X56905526Y-71932590D01*
X57024252Y-71645959D01*
X57081447Y-71560361D01*
X57196617Y-71387996D01*
X57415996Y-71168617D01*
X57673958Y-70996253D01*
X57673959Y-70996252D01*
X57841863Y-70926704D01*
X57960589Y-70877526D01*
X58112733Y-70847263D01*
X58264875Y-70817000D01*
X58575125Y-70817000D01*
X58727267Y-70847263D01*
X58727267Y-70847263D01*
G37*
G36*
X134927267Y-70847263D02*
G01*
X135079411Y-70877526D01*
X135198137Y-70926704D01*
X135366041Y-70996252D01*
X135366042Y-70996253D01*
X135624004Y-71168617D01*
X135843383Y-71387996D01*
X135958553Y-71560361D01*
X136015748Y-71645959D01*
X136134474Y-71932590D01*
X136195000Y-72236875D01*
X136195000Y-72547125D01*
X136134474Y-72851410D01*
X136015748Y-73138041D01*
X136015747Y-73138042D01*
X135843383Y-73396004D01*
X135624004Y-73615383D01*
X135451639Y-73730553D01*
X135366041Y-73787748D01*
X135198137Y-73857296D01*
X135079411Y-73906474D01*
X134775125Y-73967000D01*
X134464875Y-73967000D01*
X134160589Y-73906474D01*
X134041863Y-73857296D01*
X133873959Y-73787748D01*
X133788361Y-73730553D01*
X133615996Y-73615383D01*
X133396617Y-73396004D01*
X133224253Y-73138042D01*
X133224252Y-73138041D01*
X133105526Y-72851410D01*
X133045000Y-72547125D01*
X133045000Y-72236875D01*
X133105526Y-71932590D01*
X133224252Y-71645959D01*
X133281447Y-71560361D01*
X133396617Y-71387996D01*
X133615996Y-71168617D01*
X133873958Y-70996253D01*
X133873959Y-70996252D01*
X134041863Y-70926704D01*
X134160589Y-70877526D01*
X134312733Y-70847263D01*
X134464875Y-70817000D01*
X134775125Y-70817000D01*
X134927267Y-70847263D01*
X134927267Y-70847263D01*
G37*
G36*
X135079411Y-66177526D02*
G01*
X135198137Y-66226704D01*
X135366041Y-66296252D01*
X135366042Y-66296253D01*
X135624004Y-66468617D01*
X135843383Y-66687996D01*
X135958553Y-66860361D01*
X136015748Y-66945959D01*
X136134474Y-67232590D01*
X136195000Y-67536875D01*
X136195000Y-67847125D01*
X136134474Y-68151410D01*
X136015748Y-68438041D01*
X136015747Y-68438042D01*
X135843383Y-68696004D01*
X135624004Y-68915383D01*
X135451639Y-69030553D01*
X135366041Y-69087748D01*
X135198137Y-69157296D01*
X135079411Y-69206474D01*
X134927267Y-69236737D01*
X134775125Y-69267000D01*
X134464875Y-69267000D01*
X134312733Y-69236737D01*
X134160589Y-69206474D01*
X134041863Y-69157296D01*
X133873959Y-69087748D01*
X133788361Y-69030553D01*
X133615996Y-68915383D01*
X133396617Y-68696004D01*
X133224253Y-68438042D01*
X133224252Y-68438041D01*
X133105526Y-68151410D01*
X133045000Y-67847125D01*
X133045000Y-67536875D01*
X133105526Y-67232590D01*
X133224252Y-66945959D01*
X133281447Y-66860361D01*
X133396617Y-66687996D01*
X133615996Y-66468617D01*
X133873958Y-66296253D01*
X133873959Y-66296252D01*
X134041863Y-66226704D01*
X134160589Y-66177526D01*
X134464875Y-66117000D01*
X134775125Y-66117000D01*
X135079411Y-66177526D01*
X135079411Y-66177526D01*
G37*
G36*
X211279411Y-66177526D02*
G01*
X211398137Y-66226704D01*
X211566041Y-66296252D01*
X211566042Y-66296253D01*
X211824004Y-66468617D01*
X212043383Y-66687996D01*
X212158553Y-66860361D01*
X212215748Y-66945959D01*
X212334474Y-67232590D01*
X212395000Y-67536875D01*
X212395000Y-67847125D01*
X212334474Y-68151410D01*
X212215748Y-68438041D01*
X212215747Y-68438042D01*
X212043383Y-68696004D01*
X211824004Y-68915383D01*
X211651639Y-69030553D01*
X211566041Y-69087748D01*
X211398137Y-69157296D01*
X211279411Y-69206474D01*
X211127267Y-69236737D01*
X210975125Y-69267000D01*
X210664875Y-69267000D01*
X210512733Y-69236737D01*
X210360589Y-69206474D01*
X210241863Y-69157296D01*
X210073959Y-69087748D01*
X209988361Y-69030553D01*
X209815996Y-68915383D01*
X209596617Y-68696004D01*
X209424253Y-68438042D01*
X209424252Y-68438041D01*
X209305526Y-68151410D01*
X209245000Y-67847125D01*
X209245000Y-67536875D01*
X209305526Y-67232590D01*
X209424252Y-66945959D01*
X209481447Y-66860361D01*
X209596617Y-66687996D01*
X209815996Y-66468617D01*
X210073958Y-66296253D01*
X210073959Y-66296252D01*
X210241863Y-66226704D01*
X210360589Y-66177526D01*
X210664875Y-66117000D01*
X210975125Y-66117000D01*
X211279411Y-66177526D01*
X211279411Y-66177526D01*
G37*
G36*
X58879411Y-66177526D02*
G01*
X58998137Y-66226704D01*
X59166041Y-66296252D01*
X59166042Y-66296253D01*
X59424004Y-66468617D01*
X59643383Y-66687996D01*
X59758553Y-66860361D01*
X59815748Y-66945959D01*
X59934474Y-67232590D01*
X59995000Y-67536875D01*
X59995000Y-67847125D01*
X59934474Y-68151410D01*
X59815748Y-68438041D01*
X59815747Y-68438042D01*
X59643383Y-68696004D01*
X59424004Y-68915383D01*
X59251639Y-69030553D01*
X59166041Y-69087748D01*
X58998137Y-69157296D01*
X58879411Y-69206474D01*
X58727267Y-69236737D01*
X58575125Y-69267000D01*
X58264875Y-69267000D01*
X58112733Y-69236737D01*
X57960589Y-69206474D01*
X57841863Y-69157296D01*
X57673959Y-69087748D01*
X57588361Y-69030553D01*
X57415996Y-68915383D01*
X57196617Y-68696004D01*
X57024253Y-68438042D01*
X57024252Y-68438041D01*
X56905526Y-68151410D01*
X56845000Y-67847125D01*
X56845000Y-67536875D01*
X56905526Y-67232590D01*
X57024252Y-66945959D01*
X57081447Y-66860361D01*
X57196617Y-66687996D01*
X57415996Y-66468617D01*
X57673958Y-66296253D01*
X57673959Y-66296252D01*
X57841863Y-66226704D01*
X57960589Y-66177526D01*
X58264875Y-66117000D01*
X58575125Y-66117000D01*
X58879411Y-66177526D01*
X58879411Y-66177526D01*
G37*
G36*
X185879411Y-66177526D02*
G01*
X185998137Y-66226704D01*
X186166041Y-66296252D01*
X186166042Y-66296253D01*
X186424004Y-66468617D01*
X186643383Y-66687996D01*
X186758553Y-66860361D01*
X186815748Y-66945959D01*
X186934474Y-67232590D01*
X186995000Y-67536875D01*
X186995000Y-67847125D01*
X186934474Y-68151410D01*
X186815748Y-68438041D01*
X186815747Y-68438042D01*
X186643383Y-68696004D01*
X186424004Y-68915383D01*
X186251639Y-69030553D01*
X186166041Y-69087748D01*
X185998137Y-69157296D01*
X185879411Y-69206474D01*
X185727267Y-69236737D01*
X185575125Y-69267000D01*
X185264875Y-69267000D01*
X185112733Y-69236737D01*
X184960589Y-69206474D01*
X184841863Y-69157296D01*
X184673959Y-69087748D01*
X184588361Y-69030553D01*
X184415996Y-68915383D01*
X184196617Y-68696004D01*
X184024253Y-68438042D01*
X184024252Y-68438041D01*
X183905526Y-68151410D01*
X183845000Y-67847125D01*
X183845000Y-67536875D01*
X183905526Y-67232590D01*
X184024252Y-66945959D01*
X184081447Y-66860361D01*
X184196617Y-66687996D01*
X184415996Y-66468617D01*
X184673958Y-66296253D01*
X184673959Y-66296252D01*
X184841863Y-66226704D01*
X184960589Y-66177526D01*
X185264875Y-66117000D01*
X185575125Y-66117000D01*
X185879411Y-66177526D01*
X185879411Y-66177526D01*
G37*
G36*
X160479411Y-66177526D02*
G01*
X160598137Y-66226704D01*
X160766041Y-66296252D01*
X160766042Y-66296253D01*
X161024004Y-66468617D01*
X161243383Y-66687996D01*
X161358553Y-66860361D01*
X161415748Y-66945959D01*
X161534474Y-67232590D01*
X161595000Y-67536875D01*
X161595000Y-67847125D01*
X161534474Y-68151410D01*
X161415748Y-68438041D01*
X161415747Y-68438042D01*
X161243383Y-68696004D01*
X161024004Y-68915383D01*
X160851639Y-69030553D01*
X160766041Y-69087748D01*
X160598137Y-69157296D01*
X160479411Y-69206474D01*
X160327267Y-69236737D01*
X160175125Y-69267000D01*
X159864875Y-69267000D01*
X159712733Y-69236737D01*
X159560589Y-69206474D01*
X159441863Y-69157296D01*
X159273959Y-69087748D01*
X159188361Y-69030553D01*
X159015996Y-68915383D01*
X158796617Y-68696004D01*
X158624253Y-68438042D01*
X158624252Y-68438041D01*
X158505526Y-68151410D01*
X158445000Y-67847125D01*
X158445000Y-67536875D01*
X158505526Y-67232590D01*
X158624252Y-66945959D01*
X158681447Y-66860361D01*
X158796617Y-66687996D01*
X159015996Y-66468617D01*
X159273958Y-66296253D01*
X159273959Y-66296252D01*
X159441863Y-66226704D01*
X159560589Y-66177526D01*
X159864875Y-66117000D01*
X160175125Y-66117000D01*
X160479411Y-66177526D01*
X160479411Y-66177526D01*
G37*
G36*
X109679411Y-66177526D02*
G01*
X109798137Y-66226704D01*
X109966041Y-66296252D01*
X109966042Y-66296253D01*
X110224004Y-66468617D01*
X110443383Y-66687996D01*
X110558553Y-66860361D01*
X110615748Y-66945959D01*
X110734474Y-67232590D01*
X110795000Y-67536875D01*
X110795000Y-67847125D01*
X110734474Y-68151410D01*
X110615748Y-68438041D01*
X110615747Y-68438042D01*
X110443383Y-68696004D01*
X110224004Y-68915383D01*
X110051639Y-69030553D01*
X109966041Y-69087748D01*
X109798137Y-69157296D01*
X109679411Y-69206474D01*
X109527267Y-69236737D01*
X109375125Y-69267000D01*
X109064875Y-69267000D01*
X108912733Y-69236737D01*
X108760589Y-69206474D01*
X108641863Y-69157296D01*
X108473959Y-69087748D01*
X108388361Y-69030553D01*
X108215996Y-68915383D01*
X107996617Y-68696004D01*
X107824253Y-68438042D01*
X107824252Y-68438041D01*
X107705526Y-68151410D01*
X107645000Y-67847125D01*
X107645000Y-67536875D01*
X107705526Y-67232590D01*
X107824252Y-66945959D01*
X107881447Y-66860361D01*
X107996617Y-66687996D01*
X108215996Y-66468617D01*
X108473958Y-66296253D01*
X108473959Y-66296252D01*
X108641863Y-66226704D01*
X108760589Y-66177526D01*
X109064875Y-66117000D01*
X109375125Y-66117000D01*
X109679411Y-66177526D01*
X109679411Y-66177526D01*
G37*
G36*
X84279411Y-66177526D02*
G01*
X84398137Y-66226704D01*
X84566041Y-66296252D01*
X84566042Y-66296253D01*
X84824004Y-66468617D01*
X85043383Y-66687996D01*
X85158553Y-66860361D01*
X85215748Y-66945959D01*
X85334474Y-67232590D01*
X85395000Y-67536875D01*
X85395000Y-67847125D01*
X85334474Y-68151410D01*
X85215748Y-68438041D01*
X85215747Y-68438042D01*
X85043383Y-68696004D01*
X84824004Y-68915383D01*
X84651639Y-69030553D01*
X84566041Y-69087748D01*
X84398137Y-69157296D01*
X84279411Y-69206474D01*
X84127267Y-69236737D01*
X83975125Y-69267000D01*
X83664875Y-69267000D01*
X83512733Y-69236737D01*
X83360589Y-69206474D01*
X83241863Y-69157296D01*
X83073959Y-69087748D01*
X82988361Y-69030553D01*
X82815996Y-68915383D01*
X82596617Y-68696004D01*
X82424253Y-68438042D01*
X82424252Y-68438041D01*
X82305526Y-68151410D01*
X82245000Y-67847125D01*
X82245000Y-67536875D01*
X82305526Y-67232590D01*
X82424252Y-66945959D01*
X82481447Y-66860361D01*
X82596617Y-66687996D01*
X82815996Y-66468617D01*
X83073958Y-66296253D01*
X83073959Y-66296252D01*
X83241863Y-66226704D01*
X83360589Y-66177526D01*
X83664875Y-66117000D01*
X83975125Y-66117000D01*
X84279411Y-66177526D01*
X84279411Y-66177526D01*
G37*
G36*
X185727267Y-61447263D02*
G01*
X185879411Y-61477526D01*
X185998137Y-61526704D01*
X186166041Y-61596252D01*
X186166042Y-61596253D01*
X186424004Y-61768617D01*
X186643383Y-61987996D01*
X186758553Y-62160361D01*
X186815748Y-62245959D01*
X186934474Y-62532590D01*
X186995000Y-62836875D01*
X186995000Y-63147125D01*
X186934474Y-63451410D01*
X186815748Y-63738041D01*
X186815747Y-63738042D01*
X186643383Y-63996004D01*
X186424004Y-64215383D01*
X186251639Y-64330553D01*
X186166041Y-64387748D01*
X185998137Y-64457296D01*
X185879411Y-64506474D01*
X185727267Y-64536737D01*
X185575125Y-64567000D01*
X185264875Y-64567000D01*
X185112733Y-64536737D01*
X184960589Y-64506474D01*
X184841863Y-64457296D01*
X184673959Y-64387748D01*
X184588361Y-64330553D01*
X184415996Y-64215383D01*
X184196617Y-63996004D01*
X184024253Y-63738042D01*
X184024252Y-63738041D01*
X183905526Y-63451410D01*
X183845000Y-63147125D01*
X183845000Y-62836875D01*
X183905526Y-62532590D01*
X184024252Y-62245959D01*
X184081447Y-62160361D01*
X184196617Y-61987996D01*
X184415996Y-61768617D01*
X184673958Y-61596253D01*
X184673959Y-61596252D01*
X184841863Y-61526704D01*
X184960589Y-61477526D01*
X185112733Y-61447263D01*
X185264875Y-61417000D01*
X185575125Y-61417000D01*
X185727267Y-61447263D01*
X185727267Y-61447263D01*
G37*
G36*
X84127267Y-61447263D02*
G01*
X84279411Y-61477526D01*
X84398137Y-61526704D01*
X84566041Y-61596252D01*
X84566042Y-61596253D01*
X84824004Y-61768617D01*
X85043383Y-61987996D01*
X85158553Y-62160361D01*
X85215748Y-62245959D01*
X85334474Y-62532590D01*
X85395000Y-62836875D01*
X85395000Y-63147125D01*
X85334474Y-63451410D01*
X85215748Y-63738041D01*
X85215747Y-63738042D01*
X85043383Y-63996004D01*
X84824004Y-64215383D01*
X84651639Y-64330553D01*
X84566041Y-64387748D01*
X84398137Y-64457296D01*
X84279411Y-64506474D01*
X84127267Y-64536737D01*
X83975125Y-64567000D01*
X83664875Y-64567000D01*
X83512733Y-64536737D01*
X83360589Y-64506474D01*
X83241863Y-64457296D01*
X83073959Y-64387748D01*
X82988361Y-64330553D01*
X82815996Y-64215383D01*
X82596617Y-63996004D01*
X82424253Y-63738042D01*
X82424252Y-63738041D01*
X82305526Y-63451410D01*
X82245000Y-63147125D01*
X82245000Y-62836875D01*
X82305526Y-62532590D01*
X82424252Y-62245959D01*
X82481447Y-62160361D01*
X82596617Y-61987996D01*
X82815996Y-61768617D01*
X83073958Y-61596253D01*
X83073959Y-61596252D01*
X83241863Y-61526704D01*
X83360589Y-61477526D01*
X83512733Y-61447263D01*
X83664875Y-61417000D01*
X83975125Y-61417000D01*
X84127267Y-61447263D01*
X84127267Y-61447263D01*
G37*
G36*
X211127267Y-61447263D02*
G01*
X211279411Y-61477526D01*
X211398137Y-61526704D01*
X211566041Y-61596252D01*
X211566042Y-61596253D01*
X211824004Y-61768617D01*
X212043383Y-61987996D01*
X212158553Y-62160361D01*
X212215748Y-62245959D01*
X212334474Y-62532590D01*
X212395000Y-62836875D01*
X212395000Y-63147125D01*
X212334474Y-63451410D01*
X212215748Y-63738041D01*
X212215747Y-63738042D01*
X212043383Y-63996004D01*
X211824004Y-64215383D01*
X211651639Y-64330553D01*
X211566041Y-64387748D01*
X211398137Y-64457296D01*
X211279411Y-64506474D01*
X211127267Y-64536737D01*
X210975125Y-64567000D01*
X210664875Y-64567000D01*
X210512733Y-64536737D01*
X210360589Y-64506474D01*
X210241863Y-64457296D01*
X210073959Y-64387748D01*
X209988361Y-64330553D01*
X209815996Y-64215383D01*
X209596617Y-63996004D01*
X209424253Y-63738042D01*
X209424252Y-63738041D01*
X209305526Y-63451410D01*
X209245000Y-63147125D01*
X209245000Y-62836875D01*
X209305526Y-62532590D01*
X209424252Y-62245959D01*
X209481447Y-62160361D01*
X209596617Y-61987996D01*
X209815996Y-61768617D01*
X210073958Y-61596253D01*
X210073959Y-61596252D01*
X210241863Y-61526704D01*
X210360589Y-61477526D01*
X210512733Y-61447263D01*
X210664875Y-61417000D01*
X210975125Y-61417000D01*
X211127267Y-61447263D01*
X211127267Y-61447263D01*
G37*
G36*
X58727267Y-61447263D02*
G01*
X58879411Y-61477526D01*
X58998137Y-61526704D01*
X59166041Y-61596252D01*
X59166042Y-61596253D01*
X59424004Y-61768617D01*
X59643383Y-61987996D01*
X59758553Y-62160361D01*
X59815748Y-62245959D01*
X59934474Y-62532590D01*
X59995000Y-62836875D01*
X59995000Y-63147125D01*
X59934474Y-63451410D01*
X59815748Y-63738041D01*
X59815747Y-63738042D01*
X59643383Y-63996004D01*
X59424004Y-64215383D01*
X59251639Y-64330553D01*
X59166041Y-64387748D01*
X58998137Y-64457296D01*
X58879411Y-64506474D01*
X58727267Y-64536737D01*
X58575125Y-64567000D01*
X58264875Y-64567000D01*
X58112733Y-64536737D01*
X57960589Y-64506474D01*
X57841863Y-64457296D01*
X57673959Y-64387748D01*
X57588361Y-64330553D01*
X57415996Y-64215383D01*
X57196617Y-63996004D01*
X57024253Y-63738042D01*
X57024252Y-63738041D01*
X56905526Y-63451410D01*
X56845000Y-63147125D01*
X56845000Y-62836875D01*
X56905526Y-62532590D01*
X57024252Y-62245959D01*
X57081447Y-62160361D01*
X57196617Y-61987996D01*
X57415996Y-61768617D01*
X57673958Y-61596253D01*
X57673959Y-61596252D01*
X57841863Y-61526704D01*
X57960589Y-61477526D01*
X58112733Y-61447263D01*
X58264875Y-61417000D01*
X58575125Y-61417000D01*
X58727267Y-61447263D01*
X58727267Y-61447263D01*
G37*
G36*
X160327267Y-61447263D02*
G01*
X160479411Y-61477526D01*
X160598137Y-61526704D01*
X160766041Y-61596252D01*
X160766042Y-61596253D01*
X161024004Y-61768617D01*
X161243383Y-61987996D01*
X161358553Y-62160361D01*
X161415748Y-62245959D01*
X161534474Y-62532590D01*
X161595000Y-62836875D01*
X161595000Y-63147125D01*
X161534474Y-63451410D01*
X161415748Y-63738041D01*
X161415747Y-63738042D01*
X161243383Y-63996004D01*
X161024004Y-64215383D01*
X160851639Y-64330553D01*
X160766041Y-64387748D01*
X160598137Y-64457296D01*
X160479411Y-64506474D01*
X160327267Y-64536737D01*
X160175125Y-64567000D01*
X159864875Y-64567000D01*
X159712733Y-64536737D01*
X159560589Y-64506474D01*
X159441863Y-64457296D01*
X159273959Y-64387748D01*
X159188361Y-64330553D01*
X159015996Y-64215383D01*
X158796617Y-63996004D01*
X158624253Y-63738042D01*
X158624252Y-63738041D01*
X158505526Y-63451410D01*
X158445000Y-63147125D01*
X158445000Y-62836875D01*
X158505526Y-62532590D01*
X158624252Y-62245959D01*
X158681447Y-62160361D01*
X158796617Y-61987996D01*
X159015996Y-61768617D01*
X159273958Y-61596253D01*
X159273959Y-61596252D01*
X159441863Y-61526704D01*
X159560589Y-61477526D01*
X159712733Y-61447263D01*
X159864875Y-61417000D01*
X160175125Y-61417000D01*
X160327267Y-61447263D01*
X160327267Y-61447263D01*
G37*
G36*
X109527267Y-61447263D02*
G01*
X109679411Y-61477526D01*
X109798137Y-61526704D01*
X109966041Y-61596252D01*
X109966042Y-61596253D01*
X110224004Y-61768617D01*
X110443383Y-61987996D01*
X110558553Y-62160361D01*
X110615748Y-62245959D01*
X110734474Y-62532590D01*
X110795000Y-62836875D01*
X110795000Y-63147125D01*
X110734474Y-63451410D01*
X110615748Y-63738041D01*
X110615747Y-63738042D01*
X110443383Y-63996004D01*
X110224004Y-64215383D01*
X110051639Y-64330553D01*
X109966041Y-64387748D01*
X109798137Y-64457296D01*
X109679411Y-64506474D01*
X109527267Y-64536737D01*
X109375125Y-64567000D01*
X109064875Y-64567000D01*
X108912733Y-64536737D01*
X108760589Y-64506474D01*
X108641863Y-64457296D01*
X108473959Y-64387748D01*
X108388361Y-64330553D01*
X108215996Y-64215383D01*
X107996617Y-63996004D01*
X107824253Y-63738042D01*
X107824252Y-63738041D01*
X107705526Y-63451410D01*
X107645000Y-63147125D01*
X107645000Y-62836875D01*
X107705526Y-62532590D01*
X107824252Y-62245959D01*
X107881447Y-62160361D01*
X107996617Y-61987996D01*
X108215996Y-61768617D01*
X108473958Y-61596253D01*
X108473959Y-61596252D01*
X108641863Y-61526704D01*
X108760589Y-61477526D01*
X108912733Y-61447263D01*
X109064875Y-61417000D01*
X109375125Y-61417000D01*
X109527267Y-61447263D01*
X109527267Y-61447263D01*
G37*
G36*
X134927267Y-61447263D02*
G01*
X135079411Y-61477526D01*
X135198137Y-61526704D01*
X135366041Y-61596252D01*
X135366042Y-61596253D01*
X135624004Y-61768617D01*
X135843383Y-61987996D01*
X135958553Y-62160361D01*
X136015748Y-62245959D01*
X136134474Y-62532590D01*
X136195000Y-62836875D01*
X136195000Y-63147125D01*
X136134474Y-63451410D01*
X136015748Y-63738041D01*
X136015747Y-63738042D01*
X135843383Y-63996004D01*
X135624004Y-64215383D01*
X135451639Y-64330553D01*
X135366041Y-64387748D01*
X135198137Y-64457296D01*
X135079411Y-64506474D01*
X134927267Y-64536737D01*
X134775125Y-64567000D01*
X134464875Y-64567000D01*
X134312733Y-64536737D01*
X134160589Y-64506474D01*
X134041863Y-64457296D01*
X133873959Y-64387748D01*
X133788361Y-64330553D01*
X133615996Y-64215383D01*
X133396617Y-63996004D01*
X133224253Y-63738042D01*
X133224252Y-63738041D01*
X133105526Y-63451410D01*
X133045000Y-63147125D01*
X133045000Y-62836875D01*
X133105526Y-62532590D01*
X133224252Y-62245959D01*
X133281447Y-62160361D01*
X133396617Y-61987996D01*
X133615996Y-61768617D01*
X133873958Y-61596253D01*
X133873959Y-61596252D01*
X134041863Y-61526704D01*
X134160589Y-61477526D01*
X134312733Y-61447263D01*
X134464875Y-61417000D01*
X134775125Y-61417000D01*
X134927267Y-61447263D01*
X134927267Y-61447263D01*
G37*
G36*
X207894072Y-53700918D02*
G01*
X208139939Y-53802759D01*
X208361212Y-53950610D01*
X208549390Y-54138788D01*
X208672727Y-54323373D01*
X208697242Y-54360063D01*
X208799082Y-54605928D01*
X208813145Y-54676625D01*
X208851000Y-54866938D01*
X208851000Y-55133062D01*
X208799082Y-55394072D01*
X208697241Y-55639939D01*
X208549390Y-55861212D01*
X208361212Y-56049390D01*
X208139939Y-56197241D01*
X208139938Y-56197242D01*
X208139937Y-56197242D01*
X207894072Y-56299082D01*
X207633063Y-56351000D01*
X207366937Y-56351000D01*
X207105928Y-56299082D01*
X206860063Y-56197242D01*
X206860062Y-56197242D01*
X206860061Y-56197241D01*
X206638788Y-56049390D01*
X206450610Y-55861212D01*
X206302759Y-55639939D01*
X206200918Y-55394072D01*
X206149000Y-55133062D01*
X206149000Y-54866938D01*
X206186856Y-54676625D01*
X206200918Y-54605928D01*
X206302758Y-54360063D01*
X206327274Y-54323373D01*
X206450610Y-54138788D01*
X206638788Y-53950610D01*
X206860061Y-53802759D01*
X207105928Y-53700918D01*
X207366937Y-53649000D01*
X207633063Y-53649000D01*
X207894072Y-53700918D01*
X207894072Y-53700918D01*
G37*
G36*
X202894072Y-53700918D02*
G01*
X203139939Y-53802759D01*
X203361212Y-53950610D01*
X203549390Y-54138788D01*
X203672727Y-54323373D01*
X203697242Y-54360063D01*
X203799082Y-54605928D01*
X203813145Y-54676625D01*
X203851000Y-54866938D01*
X203851000Y-55133062D01*
X203799082Y-55394072D01*
X203697241Y-55639939D01*
X203549390Y-55861212D01*
X203361212Y-56049390D01*
X203139939Y-56197241D01*
X203139938Y-56197242D01*
X203139937Y-56197242D01*
X202894072Y-56299082D01*
X202633063Y-56351000D01*
X202366937Y-56351000D01*
X202105928Y-56299082D01*
X201860063Y-56197242D01*
X201860062Y-56197242D01*
X201860061Y-56197241D01*
X201638788Y-56049390D01*
X201450610Y-55861212D01*
X201302759Y-55639939D01*
X201200918Y-55394072D01*
X201149000Y-55133062D01*
X201149000Y-54866938D01*
X201186856Y-54676625D01*
X201200918Y-54605928D01*
X201302758Y-54360063D01*
X201327274Y-54323373D01*
X201450610Y-54138788D01*
X201638788Y-53950610D01*
X201860061Y-53802759D01*
X202105928Y-53700918D01*
X202366937Y-53649000D01*
X202633063Y-53649000D01*
X202894072Y-53700918D01*
X202894072Y-53700918D01*
G37*
G36*
X197894072Y-53700918D02*
G01*
X198139939Y-53802759D01*
X198361212Y-53950610D01*
X198549390Y-54138788D01*
X198672727Y-54323373D01*
X198697242Y-54360063D01*
X198799082Y-54605928D01*
X198813145Y-54676625D01*
X198851000Y-54866938D01*
X198851000Y-55133062D01*
X198799082Y-55394072D01*
X198697241Y-55639939D01*
X198549390Y-55861212D01*
X198361212Y-56049390D01*
X198139939Y-56197241D01*
X198139938Y-56197242D01*
X198139937Y-56197242D01*
X197894072Y-56299082D01*
X197633063Y-56351000D01*
X197366937Y-56351000D01*
X197105928Y-56299082D01*
X196860063Y-56197242D01*
X196860062Y-56197242D01*
X196860061Y-56197241D01*
X196638788Y-56049390D01*
X196450610Y-55861212D01*
X196302759Y-55639939D01*
X196200918Y-55394072D01*
X196149000Y-55133062D01*
X196149000Y-54866938D01*
X196186856Y-54676625D01*
X196200918Y-54605928D01*
X196302758Y-54360063D01*
X196327274Y-54323373D01*
X196450610Y-54138788D01*
X196638788Y-53950610D01*
X196860061Y-53802759D01*
X197105928Y-53700918D01*
X197366937Y-53649000D01*
X197633063Y-53649000D01*
X197894072Y-53700918D01*
X197894072Y-53700918D01*
G37*
G36*
X192894072Y-53700918D02*
G01*
X193139939Y-53802759D01*
X193361212Y-53950610D01*
X193549390Y-54138788D01*
X193672727Y-54323373D01*
X193697242Y-54360063D01*
X193799082Y-54605928D01*
X193813145Y-54676625D01*
X193851000Y-54866938D01*
X193851000Y-55133062D01*
X193799082Y-55394072D01*
X193697241Y-55639939D01*
X193549390Y-55861212D01*
X193361212Y-56049390D01*
X193139939Y-56197241D01*
X193139938Y-56197242D01*
X193139937Y-56197242D01*
X192894072Y-56299082D01*
X192633063Y-56351000D01*
X192366937Y-56351000D01*
X192105928Y-56299082D01*
X191860063Y-56197242D01*
X191860062Y-56197242D01*
X191860061Y-56197241D01*
X191638788Y-56049390D01*
X191450610Y-55861212D01*
X191302759Y-55639939D01*
X191200918Y-55394072D01*
X191149000Y-55133062D01*
X191149000Y-54866938D01*
X191186856Y-54676625D01*
X191200918Y-54605928D01*
X191302758Y-54360063D01*
X191327274Y-54323373D01*
X191450610Y-54138788D01*
X191638788Y-53950610D01*
X191860061Y-53802759D01*
X192105928Y-53700918D01*
X192366937Y-53649000D01*
X192633063Y-53649000D01*
X192894072Y-53700918D01*
X192894072Y-53700918D01*
G37*
G36*
X187894072Y-53700918D02*
G01*
X188139939Y-53802759D01*
X188361212Y-53950610D01*
X188549390Y-54138788D01*
X188672727Y-54323373D01*
X188697242Y-54360063D01*
X188799082Y-54605928D01*
X188813145Y-54676625D01*
X188851000Y-54866938D01*
X188851000Y-55133062D01*
X188799082Y-55394072D01*
X188697241Y-55639939D01*
X188549390Y-55861212D01*
X188361212Y-56049390D01*
X188139939Y-56197241D01*
X188139938Y-56197242D01*
X188139937Y-56197242D01*
X187894072Y-56299082D01*
X187633063Y-56351000D01*
X187366937Y-56351000D01*
X187105928Y-56299082D01*
X186860063Y-56197242D01*
X186860062Y-56197242D01*
X186860061Y-56197241D01*
X186638788Y-56049390D01*
X186450610Y-55861212D01*
X186302759Y-55639939D01*
X186200918Y-55394072D01*
X186149000Y-55133062D01*
X186149000Y-54866938D01*
X186186856Y-54676625D01*
X186200918Y-54605928D01*
X186302758Y-54360063D01*
X186327274Y-54323373D01*
X186450610Y-54138788D01*
X186638788Y-53950610D01*
X186860061Y-53802759D01*
X187105928Y-53700918D01*
X187366937Y-53649000D01*
X187633063Y-53649000D01*
X187894072Y-53700918D01*
X187894072Y-53700918D01*
G37*
G36*
X182894072Y-53700918D02*
G01*
X183139939Y-53802759D01*
X183361212Y-53950610D01*
X183549390Y-54138788D01*
X183672727Y-54323373D01*
X183697242Y-54360063D01*
X183799082Y-54605928D01*
X183813145Y-54676625D01*
X183851000Y-54866938D01*
X183851000Y-55133062D01*
X183799082Y-55394072D01*
X183697241Y-55639939D01*
X183549390Y-55861212D01*
X183361212Y-56049390D01*
X183139939Y-56197241D01*
X183139938Y-56197242D01*
X183139937Y-56197242D01*
X182894072Y-56299082D01*
X182633063Y-56351000D01*
X182366937Y-56351000D01*
X182105928Y-56299082D01*
X181860063Y-56197242D01*
X181860062Y-56197242D01*
X181860061Y-56197241D01*
X181638788Y-56049390D01*
X181450610Y-55861212D01*
X181302759Y-55639939D01*
X181200918Y-55394072D01*
X181149000Y-55133062D01*
X181149000Y-54866938D01*
X181186856Y-54676625D01*
X181200918Y-54605928D01*
X181302758Y-54360063D01*
X181327274Y-54323373D01*
X181450610Y-54138788D01*
X181638788Y-53950610D01*
X181860061Y-53802759D01*
X182105928Y-53700918D01*
X182366937Y-53649000D01*
X182633063Y-53649000D01*
X182894072Y-53700918D01*
X182894072Y-53700918D01*
G37*
G36*
X177894072Y-53700918D02*
G01*
X178139939Y-53802759D01*
X178361212Y-53950610D01*
X178549390Y-54138788D01*
X178672727Y-54323373D01*
X178697242Y-54360063D01*
X178799082Y-54605928D01*
X178813145Y-54676625D01*
X178851000Y-54866938D01*
X178851000Y-55133062D01*
X178799082Y-55394072D01*
X178697241Y-55639939D01*
X178549390Y-55861212D01*
X178361212Y-56049390D01*
X178139939Y-56197241D01*
X178139938Y-56197242D01*
X178139937Y-56197242D01*
X177894072Y-56299082D01*
X177633063Y-56351000D01*
X177366937Y-56351000D01*
X177105928Y-56299082D01*
X176860063Y-56197242D01*
X176860062Y-56197242D01*
X176860061Y-56197241D01*
X176638788Y-56049390D01*
X176450610Y-55861212D01*
X176302759Y-55639939D01*
X176200918Y-55394072D01*
X176149000Y-55133062D01*
X176149000Y-54866938D01*
X176186856Y-54676625D01*
X176200918Y-54605928D01*
X176302758Y-54360063D01*
X176327274Y-54323373D01*
X176450610Y-54138788D01*
X176638788Y-53950610D01*
X176860061Y-53802759D01*
X177105928Y-53700918D01*
X177366937Y-53649000D01*
X177633063Y-53649000D01*
X177894072Y-53700918D01*
X177894072Y-53700918D01*
G37*
G36*
X172894072Y-53700918D02*
G01*
X173139939Y-53802759D01*
X173361212Y-53950610D01*
X173549390Y-54138788D01*
X173672727Y-54323373D01*
X173697242Y-54360063D01*
X173799082Y-54605928D01*
X173813145Y-54676625D01*
X173851000Y-54866938D01*
X173851000Y-55133062D01*
X173799082Y-55394072D01*
X173697241Y-55639939D01*
X173549390Y-55861212D01*
X173361212Y-56049390D01*
X173139939Y-56197241D01*
X173139938Y-56197242D01*
X173139937Y-56197242D01*
X172894072Y-56299082D01*
X172633063Y-56351000D01*
X172366937Y-56351000D01*
X172105928Y-56299082D01*
X171860063Y-56197242D01*
X171860062Y-56197242D01*
X171860061Y-56197241D01*
X171638788Y-56049390D01*
X171450610Y-55861212D01*
X171302759Y-55639939D01*
X171200918Y-55394072D01*
X171149000Y-55133062D01*
X171149000Y-54866938D01*
X171186856Y-54676625D01*
X171200918Y-54605928D01*
X171302758Y-54360063D01*
X171327274Y-54323373D01*
X171450610Y-54138788D01*
X171638788Y-53950610D01*
X171860061Y-53802759D01*
X172105928Y-53700918D01*
X172366937Y-53649000D01*
X172633063Y-53649000D01*
X172894072Y-53700918D01*
X172894072Y-53700918D01*
G37*
G36*
X121351000Y-56351000D02*
G01*
X118649000Y-56351000D01*
X118649000Y-53649000D01*
X121351000Y-53649000D01*
X121351000Y-56351000D01*
X121351000Y-56351000D01*
G37*
G36*
X155394072Y-53700918D02*
G01*
X155639939Y-53802759D01*
X155861212Y-53950610D01*
X156049390Y-54138788D01*
X156172727Y-54323373D01*
X156197242Y-54360063D01*
X156299082Y-54605928D01*
X156313145Y-54676625D01*
X156351000Y-54866938D01*
X156351000Y-55133062D01*
X156299082Y-55394072D01*
X156197241Y-55639939D01*
X156049390Y-55861212D01*
X155861212Y-56049390D01*
X155639939Y-56197241D01*
X155639938Y-56197242D01*
X155639937Y-56197242D01*
X155394072Y-56299082D01*
X155133063Y-56351000D01*
X154866937Y-56351000D01*
X154605928Y-56299082D01*
X154360063Y-56197242D01*
X154360062Y-56197242D01*
X154360061Y-56197241D01*
X154138788Y-56049390D01*
X153950610Y-55861212D01*
X153802759Y-55639939D01*
X153700918Y-55394072D01*
X153649000Y-55133062D01*
X153649000Y-54866938D01*
X153686856Y-54676625D01*
X153700918Y-54605928D01*
X153802758Y-54360063D01*
X153827274Y-54323373D01*
X153950610Y-54138788D01*
X154138788Y-53950610D01*
X154360061Y-53802759D01*
X154605928Y-53700918D01*
X154866937Y-53649000D01*
X155133063Y-53649000D01*
X155394072Y-53700918D01*
X155394072Y-53700918D01*
G37*
G36*
X167894072Y-53700918D02*
G01*
X168139939Y-53802759D01*
X168361212Y-53950610D01*
X168549390Y-54138788D01*
X168672727Y-54323373D01*
X168697242Y-54360063D01*
X168799082Y-54605928D01*
X168813145Y-54676625D01*
X168851000Y-54866938D01*
X168851000Y-55133062D01*
X168799082Y-55394072D01*
X168697241Y-55639939D01*
X168549390Y-55861212D01*
X168361212Y-56049390D01*
X168139939Y-56197241D01*
X168139938Y-56197242D01*
X168139937Y-56197242D01*
X167894072Y-56299082D01*
X167633063Y-56351000D01*
X167366937Y-56351000D01*
X167105928Y-56299082D01*
X166860063Y-56197242D01*
X166860062Y-56197242D01*
X166860061Y-56197241D01*
X166638788Y-56049390D01*
X166450610Y-55861212D01*
X166302759Y-55639939D01*
X166200918Y-55394072D01*
X166149000Y-55133062D01*
X166149000Y-54866938D01*
X166186856Y-54676625D01*
X166200918Y-54605928D01*
X166302758Y-54360063D01*
X166327274Y-54323373D01*
X166450610Y-54138788D01*
X166638788Y-53950610D01*
X166860061Y-53802759D01*
X167105928Y-53700918D01*
X167366937Y-53649000D01*
X167633063Y-53649000D01*
X167894072Y-53700918D01*
X167894072Y-53700918D01*
G37*
G36*
X145394072Y-53700918D02*
G01*
X145639939Y-53802759D01*
X145861212Y-53950610D01*
X146049390Y-54138788D01*
X146172727Y-54323373D01*
X146197242Y-54360063D01*
X146299082Y-54605928D01*
X146313145Y-54676625D01*
X146351000Y-54866938D01*
X146351000Y-55133062D01*
X146299082Y-55394072D01*
X146197241Y-55639939D01*
X146049390Y-55861212D01*
X145861212Y-56049390D01*
X145639939Y-56197241D01*
X145639938Y-56197242D01*
X145639937Y-56197242D01*
X145394072Y-56299082D01*
X145133063Y-56351000D01*
X144866937Y-56351000D01*
X144605928Y-56299082D01*
X144360063Y-56197242D01*
X144360062Y-56197242D01*
X144360061Y-56197241D01*
X144138788Y-56049390D01*
X143950610Y-55861212D01*
X143802759Y-55639939D01*
X143700918Y-55394072D01*
X143649000Y-55133062D01*
X143649000Y-54866938D01*
X143686856Y-54676625D01*
X143700918Y-54605928D01*
X143802758Y-54360063D01*
X143827274Y-54323373D01*
X143950610Y-54138788D01*
X144138788Y-53950610D01*
X144360061Y-53802759D01*
X144605928Y-53700918D01*
X144866937Y-53649000D01*
X145133063Y-53649000D01*
X145394072Y-53700918D01*
X145394072Y-53700918D01*
G37*
G36*
X163851000Y-56351000D02*
G01*
X161149000Y-56351000D01*
X161149000Y-53649000D01*
X163851000Y-53649000D01*
X163851000Y-56351000D01*
X163851000Y-56351000D01*
G37*
G36*
X140394072Y-53700918D02*
G01*
X140639939Y-53802759D01*
X140861212Y-53950610D01*
X141049390Y-54138788D01*
X141172727Y-54323373D01*
X141197242Y-54360063D01*
X141299082Y-54605928D01*
X141313145Y-54676625D01*
X141351000Y-54866938D01*
X141351000Y-55133062D01*
X141299082Y-55394072D01*
X141197241Y-55639939D01*
X141049390Y-55861212D01*
X140861212Y-56049390D01*
X140639939Y-56197241D01*
X140639938Y-56197242D01*
X140639937Y-56197242D01*
X140394072Y-56299082D01*
X140133063Y-56351000D01*
X139866937Y-56351000D01*
X139605928Y-56299082D01*
X139360063Y-56197242D01*
X139360062Y-56197242D01*
X139360061Y-56197241D01*
X139138788Y-56049390D01*
X138950610Y-55861212D01*
X138802759Y-55639939D01*
X138700918Y-55394072D01*
X138649000Y-55133062D01*
X138649000Y-54866938D01*
X138686856Y-54676625D01*
X138700918Y-54605928D01*
X138802758Y-54360063D01*
X138827274Y-54323373D01*
X138950610Y-54138788D01*
X139138788Y-53950610D01*
X139360061Y-53802759D01*
X139605928Y-53700918D01*
X139866937Y-53649000D01*
X140133063Y-53649000D01*
X140394072Y-53700918D01*
X140394072Y-53700918D01*
G37*
G36*
X135394072Y-53700918D02*
G01*
X135639939Y-53802759D01*
X135861212Y-53950610D01*
X136049390Y-54138788D01*
X136172727Y-54323373D01*
X136197242Y-54360063D01*
X136299082Y-54605928D01*
X136313145Y-54676625D01*
X136351000Y-54866938D01*
X136351000Y-55133062D01*
X136299082Y-55394072D01*
X136197241Y-55639939D01*
X136049390Y-55861212D01*
X135861212Y-56049390D01*
X135639939Y-56197241D01*
X135639938Y-56197242D01*
X135639937Y-56197242D01*
X135394072Y-56299082D01*
X135133063Y-56351000D01*
X134866937Y-56351000D01*
X134605928Y-56299082D01*
X134360063Y-56197242D01*
X134360062Y-56197242D01*
X134360061Y-56197241D01*
X134138788Y-56049390D01*
X133950610Y-55861212D01*
X133802759Y-55639939D01*
X133700918Y-55394072D01*
X133649000Y-55133062D01*
X133649000Y-54866938D01*
X133686856Y-54676625D01*
X133700918Y-54605928D01*
X133802758Y-54360063D01*
X133827274Y-54323373D01*
X133950610Y-54138788D01*
X134138788Y-53950610D01*
X134360061Y-53802759D01*
X134605928Y-53700918D01*
X134866937Y-53649000D01*
X135133063Y-53649000D01*
X135394072Y-53700918D01*
X135394072Y-53700918D01*
G37*
G36*
X125394072Y-53700918D02*
G01*
X125639939Y-53802759D01*
X125861212Y-53950610D01*
X126049390Y-54138788D01*
X126172727Y-54323373D01*
X126197242Y-54360063D01*
X126299082Y-54605928D01*
X126313145Y-54676625D01*
X126351000Y-54866938D01*
X126351000Y-55133062D01*
X126299082Y-55394072D01*
X126197241Y-55639939D01*
X126049390Y-55861212D01*
X125861212Y-56049390D01*
X125639939Y-56197241D01*
X125639938Y-56197242D01*
X125639937Y-56197242D01*
X125394072Y-56299082D01*
X125133063Y-56351000D01*
X124866937Y-56351000D01*
X124605928Y-56299082D01*
X124360063Y-56197242D01*
X124360062Y-56197242D01*
X124360061Y-56197241D01*
X124138788Y-56049390D01*
X123950610Y-55861212D01*
X123802759Y-55639939D01*
X123700918Y-55394072D01*
X123649000Y-55133062D01*
X123649000Y-54866938D01*
X123686856Y-54676625D01*
X123700918Y-54605928D01*
X123802758Y-54360063D01*
X123827274Y-54323373D01*
X123950610Y-54138788D01*
X124138788Y-53950610D01*
X124360061Y-53802759D01*
X124605928Y-53700918D01*
X124866937Y-53649000D01*
X125133063Y-53649000D01*
X125394072Y-53700918D01*
X125394072Y-53700918D01*
G37*
G36*
X130394072Y-53700918D02*
G01*
X130639939Y-53802759D01*
X130861212Y-53950610D01*
X131049390Y-54138788D01*
X131172727Y-54323373D01*
X131197242Y-54360063D01*
X131299082Y-54605928D01*
X131313145Y-54676625D01*
X131351000Y-54866938D01*
X131351000Y-55133062D01*
X131299082Y-55394072D01*
X131197241Y-55639939D01*
X131049390Y-55861212D01*
X130861212Y-56049390D01*
X130639939Y-56197241D01*
X130639938Y-56197242D01*
X130639937Y-56197242D01*
X130394072Y-56299082D01*
X130133063Y-56351000D01*
X129866937Y-56351000D01*
X129605928Y-56299082D01*
X129360063Y-56197242D01*
X129360062Y-56197242D01*
X129360061Y-56197241D01*
X129138788Y-56049390D01*
X128950610Y-55861212D01*
X128802759Y-55639939D01*
X128700918Y-55394072D01*
X128649000Y-55133062D01*
X128649000Y-54866938D01*
X128686856Y-54676625D01*
X128700918Y-54605928D01*
X128802758Y-54360063D01*
X128827274Y-54323373D01*
X128950610Y-54138788D01*
X129138788Y-53950610D01*
X129360061Y-53802759D01*
X129605928Y-53700918D01*
X129866937Y-53649000D01*
X130133063Y-53649000D01*
X130394072Y-53700918D01*
X130394072Y-53700918D01*
G37*
G36*
X150394072Y-53700918D02*
G01*
X150639939Y-53802759D01*
X150861212Y-53950610D01*
X151049390Y-54138788D01*
X151172727Y-54323373D01*
X151197242Y-54360063D01*
X151299082Y-54605928D01*
X151313145Y-54676625D01*
X151351000Y-54866938D01*
X151351000Y-55133062D01*
X151299082Y-55394072D01*
X151197241Y-55639939D01*
X151049390Y-55861212D01*
X150861212Y-56049390D01*
X150639939Y-56197241D01*
X150639938Y-56197242D01*
X150639937Y-56197242D01*
X150394072Y-56299082D01*
X150133063Y-56351000D01*
X149866937Y-56351000D01*
X149605928Y-56299082D01*
X149360063Y-56197242D01*
X149360062Y-56197242D01*
X149360061Y-56197241D01*
X149138788Y-56049390D01*
X148950610Y-55861212D01*
X148802759Y-55639939D01*
X148700918Y-55394072D01*
X148649000Y-55133062D01*
X148649000Y-54866938D01*
X148686856Y-54676625D01*
X148700918Y-54605928D01*
X148802758Y-54360063D01*
X148827274Y-54323373D01*
X148950610Y-54138788D01*
X149138788Y-53950610D01*
X149360061Y-53802759D01*
X149605928Y-53700918D01*
X149866937Y-53649000D01*
X150133063Y-53649000D01*
X150394072Y-53700918D01*
X150394072Y-53700918D01*
G37*
G36*
X65750443Y-53605519D02*
G01*
X65816627Y-53612037D01*
X65986466Y-53663557D01*
X66142991Y-53747222D01*
X66178729Y-53776552D01*
X66280186Y-53859814D01*
X66354698Y-53950609D01*
X66392778Y-53997009D01*
X66476443Y-54153534D01*
X66527963Y-54323373D01*
X66545359Y-54500000D01*
X66527963Y-54676627D01*
X66476443Y-54846466D01*
X66392778Y-55002991D01*
X66363448Y-55038729D01*
X66280186Y-55140186D01*
X66178729Y-55223448D01*
X66142991Y-55252778D01*
X65986466Y-55336443D01*
X65816627Y-55387963D01*
X65754600Y-55394072D01*
X65684260Y-55401000D01*
X65595740Y-55401000D01*
X65525400Y-55394072D01*
X65463373Y-55387963D01*
X65293534Y-55336443D01*
X65137009Y-55252778D01*
X65101271Y-55223448D01*
X64999814Y-55140186D01*
X64916552Y-55038729D01*
X64887222Y-55002991D01*
X64803557Y-54846466D01*
X64752037Y-54676627D01*
X64734641Y-54500000D01*
X64752037Y-54323373D01*
X64803557Y-54153534D01*
X64887222Y-53997009D01*
X64925302Y-53950609D01*
X64999814Y-53859814D01*
X65101271Y-53776552D01*
X65137009Y-53747222D01*
X65293534Y-53663557D01*
X65463373Y-53612037D01*
X65529557Y-53605519D01*
X65595740Y-53599000D01*
X65684260Y-53599000D01*
X65750443Y-53605519D01*
X65750443Y-53605519D01*
G37*
G36*
X63210443Y-53605519D02*
G01*
X63276627Y-53612037D01*
X63446466Y-53663557D01*
X63602991Y-53747222D01*
X63638729Y-53776552D01*
X63740186Y-53859814D01*
X63814698Y-53950609D01*
X63852778Y-53997009D01*
X63936443Y-54153534D01*
X63987963Y-54323373D01*
X64005359Y-54500000D01*
X63987963Y-54676627D01*
X63936443Y-54846466D01*
X63852778Y-55002991D01*
X63823448Y-55038729D01*
X63740186Y-55140186D01*
X63638729Y-55223448D01*
X63602991Y-55252778D01*
X63446466Y-55336443D01*
X63276627Y-55387963D01*
X63214600Y-55394072D01*
X63144260Y-55401000D01*
X63055740Y-55401000D01*
X62985400Y-55394072D01*
X62923373Y-55387963D01*
X62753534Y-55336443D01*
X62597009Y-55252778D01*
X62561271Y-55223448D01*
X62459814Y-55140186D01*
X62376552Y-55038729D01*
X62347222Y-55002991D01*
X62263557Y-54846466D01*
X62212037Y-54676627D01*
X62194641Y-54500000D01*
X62212037Y-54323373D01*
X62263557Y-54153534D01*
X62347222Y-53997009D01*
X62385302Y-53950609D01*
X62459814Y-53859814D01*
X62561271Y-53776552D01*
X62597009Y-53747222D01*
X62753534Y-53663557D01*
X62923373Y-53612037D01*
X62989557Y-53605519D01*
X63055740Y-53599000D01*
X63144260Y-53599000D01*
X63210443Y-53605519D01*
X63210443Y-53605519D01*
G37*
G36*
X113901000Y-55401000D02*
G01*
X112099000Y-55401000D01*
X112099000Y-53599000D01*
X113901000Y-53599000D01*
X113901000Y-55401000D01*
X113901000Y-55401000D01*
G37*
G36*
X110570443Y-53605519D02*
G01*
X110636627Y-53612037D01*
X110806466Y-53663557D01*
X110962991Y-53747222D01*
X110998729Y-53776552D01*
X111100186Y-53859814D01*
X111174698Y-53950609D01*
X111212778Y-53997009D01*
X111296443Y-54153534D01*
X111347963Y-54323373D01*
X111365359Y-54500000D01*
X111347963Y-54676627D01*
X111296443Y-54846466D01*
X111212778Y-55002991D01*
X111183448Y-55038729D01*
X111100186Y-55140186D01*
X110998729Y-55223448D01*
X110962991Y-55252778D01*
X110806466Y-55336443D01*
X110636627Y-55387963D01*
X110574600Y-55394072D01*
X110504260Y-55401000D01*
X110415740Y-55401000D01*
X110345400Y-55394072D01*
X110283373Y-55387963D01*
X110113534Y-55336443D01*
X109957009Y-55252778D01*
X109921271Y-55223448D01*
X109819814Y-55140186D01*
X109736552Y-55038729D01*
X109707222Y-55002991D01*
X109623557Y-54846466D01*
X109572037Y-54676627D01*
X109554641Y-54500000D01*
X109572037Y-54323373D01*
X109623557Y-54153534D01*
X109707222Y-53997009D01*
X109745302Y-53950609D01*
X109819814Y-53859814D01*
X109921271Y-53776552D01*
X109957009Y-53747222D01*
X110113534Y-53663557D01*
X110283373Y-53612037D01*
X110349557Y-53605519D01*
X110415740Y-53599000D01*
X110504260Y-53599000D01*
X110570443Y-53605519D01*
X110570443Y-53605519D01*
G37*
G36*
X108030443Y-53605519D02*
G01*
X108096627Y-53612037D01*
X108266466Y-53663557D01*
X108422991Y-53747222D01*
X108458729Y-53776552D01*
X108560186Y-53859814D01*
X108634698Y-53950609D01*
X108672778Y-53997009D01*
X108756443Y-54153534D01*
X108807963Y-54323373D01*
X108825359Y-54500000D01*
X108807963Y-54676627D01*
X108756443Y-54846466D01*
X108672778Y-55002991D01*
X108643448Y-55038729D01*
X108560186Y-55140186D01*
X108458729Y-55223448D01*
X108422991Y-55252778D01*
X108266466Y-55336443D01*
X108096627Y-55387963D01*
X108034600Y-55394072D01*
X107964260Y-55401000D01*
X107875740Y-55401000D01*
X107805400Y-55394072D01*
X107743373Y-55387963D01*
X107573534Y-55336443D01*
X107417009Y-55252778D01*
X107381271Y-55223448D01*
X107279814Y-55140186D01*
X107196552Y-55038729D01*
X107167222Y-55002991D01*
X107083557Y-54846466D01*
X107032037Y-54676627D01*
X107014641Y-54500000D01*
X107032037Y-54323373D01*
X107083557Y-54153534D01*
X107167222Y-53997009D01*
X107205302Y-53950609D01*
X107279814Y-53859814D01*
X107381271Y-53776552D01*
X107417009Y-53747222D01*
X107573534Y-53663557D01*
X107743373Y-53612037D01*
X107809557Y-53605519D01*
X107875740Y-53599000D01*
X107964260Y-53599000D01*
X108030443Y-53605519D01*
X108030443Y-53605519D01*
G37*
G36*
X105490443Y-53605519D02*
G01*
X105556627Y-53612037D01*
X105726466Y-53663557D01*
X105882991Y-53747222D01*
X105918729Y-53776552D01*
X106020186Y-53859814D01*
X106094698Y-53950609D01*
X106132778Y-53997009D01*
X106216443Y-54153534D01*
X106267963Y-54323373D01*
X106285359Y-54500000D01*
X106267963Y-54676627D01*
X106216443Y-54846466D01*
X106132778Y-55002991D01*
X106103448Y-55038729D01*
X106020186Y-55140186D01*
X105918729Y-55223448D01*
X105882991Y-55252778D01*
X105726466Y-55336443D01*
X105556627Y-55387963D01*
X105494600Y-55394072D01*
X105424260Y-55401000D01*
X105335740Y-55401000D01*
X105265400Y-55394072D01*
X105203373Y-55387963D01*
X105033534Y-55336443D01*
X104877009Y-55252778D01*
X104841271Y-55223448D01*
X104739814Y-55140186D01*
X104656552Y-55038729D01*
X104627222Y-55002991D01*
X104543557Y-54846466D01*
X104492037Y-54676627D01*
X104474641Y-54500000D01*
X104492037Y-54323373D01*
X104543557Y-54153534D01*
X104627222Y-53997009D01*
X104665302Y-53950609D01*
X104739814Y-53859814D01*
X104841271Y-53776552D01*
X104877009Y-53747222D01*
X105033534Y-53663557D01*
X105203373Y-53612037D01*
X105269557Y-53605519D01*
X105335740Y-53599000D01*
X105424260Y-53599000D01*
X105490443Y-53605519D01*
X105490443Y-53605519D01*
G37*
G36*
X102950443Y-53605519D02*
G01*
X103016627Y-53612037D01*
X103186466Y-53663557D01*
X103342991Y-53747222D01*
X103378729Y-53776552D01*
X103480186Y-53859814D01*
X103554698Y-53950609D01*
X103592778Y-53997009D01*
X103676443Y-54153534D01*
X103727963Y-54323373D01*
X103745359Y-54500000D01*
X103727963Y-54676627D01*
X103676443Y-54846466D01*
X103592778Y-55002991D01*
X103563448Y-55038729D01*
X103480186Y-55140186D01*
X103378729Y-55223448D01*
X103342991Y-55252778D01*
X103186466Y-55336443D01*
X103016627Y-55387963D01*
X102954600Y-55394072D01*
X102884260Y-55401000D01*
X102795740Y-55401000D01*
X102725400Y-55394072D01*
X102663373Y-55387963D01*
X102493534Y-55336443D01*
X102337009Y-55252778D01*
X102301271Y-55223448D01*
X102199814Y-55140186D01*
X102116552Y-55038729D01*
X102087222Y-55002991D01*
X102003557Y-54846466D01*
X101952037Y-54676627D01*
X101934641Y-54500000D01*
X101952037Y-54323373D01*
X102003557Y-54153534D01*
X102087222Y-53997009D01*
X102125302Y-53950609D01*
X102199814Y-53859814D01*
X102301271Y-53776552D01*
X102337009Y-53747222D01*
X102493534Y-53663557D01*
X102663373Y-53612037D01*
X102729557Y-53605519D01*
X102795740Y-53599000D01*
X102884260Y-53599000D01*
X102950443Y-53605519D01*
X102950443Y-53605519D01*
G37*
G36*
X100410443Y-53605519D02*
G01*
X100476627Y-53612037D01*
X100646466Y-53663557D01*
X100802991Y-53747222D01*
X100838729Y-53776552D01*
X100940186Y-53859814D01*
X101014698Y-53950609D01*
X101052778Y-53997009D01*
X101136443Y-54153534D01*
X101187963Y-54323373D01*
X101205359Y-54500000D01*
X101187963Y-54676627D01*
X101136443Y-54846466D01*
X101052778Y-55002991D01*
X101023448Y-55038729D01*
X100940186Y-55140186D01*
X100838729Y-55223448D01*
X100802991Y-55252778D01*
X100646466Y-55336443D01*
X100476627Y-55387963D01*
X100414600Y-55394072D01*
X100344260Y-55401000D01*
X100255740Y-55401000D01*
X100185400Y-55394072D01*
X100123373Y-55387963D01*
X99953534Y-55336443D01*
X99797009Y-55252778D01*
X99761271Y-55223448D01*
X99659814Y-55140186D01*
X99576552Y-55038729D01*
X99547222Y-55002991D01*
X99463557Y-54846466D01*
X99412037Y-54676627D01*
X99394641Y-54500000D01*
X99412037Y-54323373D01*
X99463557Y-54153534D01*
X99547222Y-53997009D01*
X99585302Y-53950609D01*
X99659814Y-53859814D01*
X99761271Y-53776552D01*
X99797009Y-53747222D01*
X99953534Y-53663557D01*
X100123373Y-53612037D01*
X100189557Y-53605519D01*
X100255740Y-53599000D01*
X100344260Y-53599000D01*
X100410443Y-53605519D01*
X100410443Y-53605519D01*
G37*
G36*
X97870443Y-53605519D02*
G01*
X97936627Y-53612037D01*
X98106466Y-53663557D01*
X98262991Y-53747222D01*
X98298729Y-53776552D01*
X98400186Y-53859814D01*
X98474698Y-53950609D01*
X98512778Y-53997009D01*
X98596443Y-54153534D01*
X98647963Y-54323373D01*
X98665359Y-54500000D01*
X98647963Y-54676627D01*
X98596443Y-54846466D01*
X98512778Y-55002991D01*
X98483448Y-55038729D01*
X98400186Y-55140186D01*
X98298729Y-55223448D01*
X98262991Y-55252778D01*
X98106466Y-55336443D01*
X97936627Y-55387963D01*
X97874600Y-55394072D01*
X97804260Y-55401000D01*
X97715740Y-55401000D01*
X97645400Y-55394072D01*
X97583373Y-55387963D01*
X97413534Y-55336443D01*
X97257009Y-55252778D01*
X97221271Y-55223448D01*
X97119814Y-55140186D01*
X97036552Y-55038729D01*
X97007222Y-55002991D01*
X96923557Y-54846466D01*
X96872037Y-54676627D01*
X96854641Y-54500000D01*
X96872037Y-54323373D01*
X96923557Y-54153534D01*
X97007222Y-53997009D01*
X97045302Y-53950609D01*
X97119814Y-53859814D01*
X97221271Y-53776552D01*
X97257009Y-53747222D01*
X97413534Y-53663557D01*
X97583373Y-53612037D01*
X97649557Y-53605519D01*
X97715740Y-53599000D01*
X97804260Y-53599000D01*
X97870443Y-53605519D01*
X97870443Y-53605519D01*
G37*
G36*
X95330443Y-53605519D02*
G01*
X95396627Y-53612037D01*
X95566466Y-53663557D01*
X95722991Y-53747222D01*
X95758729Y-53776552D01*
X95860186Y-53859814D01*
X95934698Y-53950609D01*
X95972778Y-53997009D01*
X96056443Y-54153534D01*
X96107963Y-54323373D01*
X96125359Y-54500000D01*
X96107963Y-54676627D01*
X96056443Y-54846466D01*
X95972778Y-55002991D01*
X95943448Y-55038729D01*
X95860186Y-55140186D01*
X95758729Y-55223448D01*
X95722991Y-55252778D01*
X95566466Y-55336443D01*
X95396627Y-55387963D01*
X95334600Y-55394072D01*
X95264260Y-55401000D01*
X95175740Y-55401000D01*
X95105400Y-55394072D01*
X95043373Y-55387963D01*
X94873534Y-55336443D01*
X94717009Y-55252778D01*
X94681271Y-55223448D01*
X94579814Y-55140186D01*
X94496552Y-55038729D01*
X94467222Y-55002991D01*
X94383557Y-54846466D01*
X94332037Y-54676627D01*
X94314641Y-54500000D01*
X94332037Y-54323373D01*
X94383557Y-54153534D01*
X94467222Y-53997009D01*
X94505302Y-53950609D01*
X94579814Y-53859814D01*
X94681271Y-53776552D01*
X94717009Y-53747222D01*
X94873534Y-53663557D01*
X95043373Y-53612037D01*
X95109557Y-53605519D01*
X95175740Y-53599000D01*
X95264260Y-53599000D01*
X95330443Y-53605519D01*
X95330443Y-53605519D01*
G37*
G36*
X89401000Y-55401000D02*
G01*
X87599000Y-55401000D01*
X87599000Y-53599000D01*
X89401000Y-53599000D01*
X89401000Y-55401000D01*
X89401000Y-55401000D01*
G37*
G36*
X86070443Y-53605519D02*
G01*
X86136627Y-53612037D01*
X86306466Y-53663557D01*
X86462991Y-53747222D01*
X86498729Y-53776552D01*
X86600186Y-53859814D01*
X86674698Y-53950609D01*
X86712778Y-53997009D01*
X86796443Y-54153534D01*
X86847963Y-54323373D01*
X86865359Y-54500000D01*
X86847963Y-54676627D01*
X86796443Y-54846466D01*
X86712778Y-55002991D01*
X86683448Y-55038729D01*
X86600186Y-55140186D01*
X86498729Y-55223448D01*
X86462991Y-55252778D01*
X86306466Y-55336443D01*
X86136627Y-55387963D01*
X86074600Y-55394072D01*
X86004260Y-55401000D01*
X85915740Y-55401000D01*
X85845400Y-55394072D01*
X85783373Y-55387963D01*
X85613534Y-55336443D01*
X85457009Y-55252778D01*
X85421271Y-55223448D01*
X85319814Y-55140186D01*
X85236552Y-55038729D01*
X85207222Y-55002991D01*
X85123557Y-54846466D01*
X85072037Y-54676627D01*
X85054641Y-54500000D01*
X85072037Y-54323373D01*
X85123557Y-54153534D01*
X85207222Y-53997009D01*
X85245302Y-53950609D01*
X85319814Y-53859814D01*
X85421271Y-53776552D01*
X85457009Y-53747222D01*
X85613534Y-53663557D01*
X85783373Y-53612037D01*
X85849557Y-53605519D01*
X85915740Y-53599000D01*
X86004260Y-53599000D01*
X86070443Y-53605519D01*
X86070443Y-53605519D01*
G37*
G36*
X83530443Y-53605519D02*
G01*
X83596627Y-53612037D01*
X83766466Y-53663557D01*
X83922991Y-53747222D01*
X83958729Y-53776552D01*
X84060186Y-53859814D01*
X84134698Y-53950609D01*
X84172778Y-53997009D01*
X84256443Y-54153534D01*
X84307963Y-54323373D01*
X84325359Y-54500000D01*
X84307963Y-54676627D01*
X84256443Y-54846466D01*
X84172778Y-55002991D01*
X84143448Y-55038729D01*
X84060186Y-55140186D01*
X83958729Y-55223448D01*
X83922991Y-55252778D01*
X83766466Y-55336443D01*
X83596627Y-55387963D01*
X83534600Y-55394072D01*
X83464260Y-55401000D01*
X83375740Y-55401000D01*
X83305400Y-55394072D01*
X83243373Y-55387963D01*
X83073534Y-55336443D01*
X82917009Y-55252778D01*
X82881271Y-55223448D01*
X82779814Y-55140186D01*
X82696552Y-55038729D01*
X82667222Y-55002991D01*
X82583557Y-54846466D01*
X82532037Y-54676627D01*
X82514641Y-54500000D01*
X82532037Y-54323373D01*
X82583557Y-54153534D01*
X82667222Y-53997009D01*
X82705302Y-53950609D01*
X82779814Y-53859814D01*
X82881271Y-53776552D01*
X82917009Y-53747222D01*
X83073534Y-53663557D01*
X83243373Y-53612037D01*
X83309557Y-53605519D01*
X83375740Y-53599000D01*
X83464260Y-53599000D01*
X83530443Y-53605519D01*
X83530443Y-53605519D01*
G37*
G36*
X80990443Y-53605519D02*
G01*
X81056627Y-53612037D01*
X81226466Y-53663557D01*
X81382991Y-53747222D01*
X81418729Y-53776552D01*
X81520186Y-53859814D01*
X81594698Y-53950609D01*
X81632778Y-53997009D01*
X81716443Y-54153534D01*
X81767963Y-54323373D01*
X81785359Y-54500000D01*
X81767963Y-54676627D01*
X81716443Y-54846466D01*
X81632778Y-55002991D01*
X81603448Y-55038729D01*
X81520186Y-55140186D01*
X81418729Y-55223448D01*
X81382991Y-55252778D01*
X81226466Y-55336443D01*
X81056627Y-55387963D01*
X80994600Y-55394072D01*
X80924260Y-55401000D01*
X80835740Y-55401000D01*
X80765400Y-55394072D01*
X80703373Y-55387963D01*
X80533534Y-55336443D01*
X80377009Y-55252778D01*
X80341271Y-55223448D01*
X80239814Y-55140186D01*
X80156552Y-55038729D01*
X80127222Y-55002991D01*
X80043557Y-54846466D01*
X79992037Y-54676627D01*
X79974641Y-54500000D01*
X79992037Y-54323373D01*
X80043557Y-54153534D01*
X80127222Y-53997009D01*
X80165302Y-53950609D01*
X80239814Y-53859814D01*
X80341271Y-53776552D01*
X80377009Y-53747222D01*
X80533534Y-53663557D01*
X80703373Y-53612037D01*
X80769557Y-53605519D01*
X80835740Y-53599000D01*
X80924260Y-53599000D01*
X80990443Y-53605519D01*
X80990443Y-53605519D01*
G37*
G36*
X78450443Y-53605519D02*
G01*
X78516627Y-53612037D01*
X78686466Y-53663557D01*
X78842991Y-53747222D01*
X78878729Y-53776552D01*
X78980186Y-53859814D01*
X79054698Y-53950609D01*
X79092778Y-53997009D01*
X79176443Y-54153534D01*
X79227963Y-54323373D01*
X79245359Y-54500000D01*
X79227963Y-54676627D01*
X79176443Y-54846466D01*
X79092778Y-55002991D01*
X79063448Y-55038729D01*
X78980186Y-55140186D01*
X78878729Y-55223448D01*
X78842991Y-55252778D01*
X78686466Y-55336443D01*
X78516627Y-55387963D01*
X78454600Y-55394072D01*
X78384260Y-55401000D01*
X78295740Y-55401000D01*
X78225400Y-55394072D01*
X78163373Y-55387963D01*
X77993534Y-55336443D01*
X77837009Y-55252778D01*
X77801271Y-55223448D01*
X77699814Y-55140186D01*
X77616552Y-55038729D01*
X77587222Y-55002991D01*
X77503557Y-54846466D01*
X77452037Y-54676627D01*
X77434641Y-54500000D01*
X77452037Y-54323373D01*
X77503557Y-54153534D01*
X77587222Y-53997009D01*
X77625302Y-53950609D01*
X77699814Y-53859814D01*
X77801271Y-53776552D01*
X77837009Y-53747222D01*
X77993534Y-53663557D01*
X78163373Y-53612037D01*
X78229557Y-53605519D01*
X78295740Y-53599000D01*
X78384260Y-53599000D01*
X78450443Y-53605519D01*
X78450443Y-53605519D01*
G37*
G36*
X75910443Y-53605519D02*
G01*
X75976627Y-53612037D01*
X76146466Y-53663557D01*
X76302991Y-53747222D01*
X76338729Y-53776552D01*
X76440186Y-53859814D01*
X76514698Y-53950609D01*
X76552778Y-53997009D01*
X76636443Y-54153534D01*
X76687963Y-54323373D01*
X76705359Y-54500000D01*
X76687963Y-54676627D01*
X76636443Y-54846466D01*
X76552778Y-55002991D01*
X76523448Y-55038729D01*
X76440186Y-55140186D01*
X76338729Y-55223448D01*
X76302991Y-55252778D01*
X76146466Y-55336443D01*
X75976627Y-55387963D01*
X75914600Y-55394072D01*
X75844260Y-55401000D01*
X75755740Y-55401000D01*
X75685400Y-55394072D01*
X75623373Y-55387963D01*
X75453534Y-55336443D01*
X75297009Y-55252778D01*
X75261271Y-55223448D01*
X75159814Y-55140186D01*
X75076552Y-55038729D01*
X75047222Y-55002991D01*
X74963557Y-54846466D01*
X74912037Y-54676627D01*
X74894641Y-54500000D01*
X74912037Y-54323373D01*
X74963557Y-54153534D01*
X75047222Y-53997009D01*
X75085302Y-53950609D01*
X75159814Y-53859814D01*
X75261271Y-53776552D01*
X75297009Y-53747222D01*
X75453534Y-53663557D01*
X75623373Y-53612037D01*
X75689557Y-53605519D01*
X75755740Y-53599000D01*
X75844260Y-53599000D01*
X75910443Y-53605519D01*
X75910443Y-53605519D01*
G37*
G36*
X73370443Y-53605519D02*
G01*
X73436627Y-53612037D01*
X73606466Y-53663557D01*
X73762991Y-53747222D01*
X73798729Y-53776552D01*
X73900186Y-53859814D01*
X73974698Y-53950609D01*
X74012778Y-53997009D01*
X74096443Y-54153534D01*
X74147963Y-54323373D01*
X74165359Y-54500000D01*
X74147963Y-54676627D01*
X74096443Y-54846466D01*
X74012778Y-55002991D01*
X73983448Y-55038729D01*
X73900186Y-55140186D01*
X73798729Y-55223448D01*
X73762991Y-55252778D01*
X73606466Y-55336443D01*
X73436627Y-55387963D01*
X73374600Y-55394072D01*
X73304260Y-55401000D01*
X73215740Y-55401000D01*
X73145400Y-55394072D01*
X73083373Y-55387963D01*
X72913534Y-55336443D01*
X72757009Y-55252778D01*
X72721271Y-55223448D01*
X72619814Y-55140186D01*
X72536552Y-55038729D01*
X72507222Y-55002991D01*
X72423557Y-54846466D01*
X72372037Y-54676627D01*
X72354641Y-54500000D01*
X72372037Y-54323373D01*
X72423557Y-54153534D01*
X72507222Y-53997009D01*
X72545302Y-53950609D01*
X72619814Y-53859814D01*
X72721271Y-53776552D01*
X72757009Y-53747222D01*
X72913534Y-53663557D01*
X73083373Y-53612037D01*
X73149557Y-53605519D01*
X73215740Y-53599000D01*
X73304260Y-53599000D01*
X73370443Y-53605519D01*
X73370443Y-53605519D01*
G37*
G36*
X68290443Y-53605519D02*
G01*
X68356627Y-53612037D01*
X68526466Y-53663557D01*
X68682991Y-53747222D01*
X68718729Y-53776552D01*
X68820186Y-53859814D01*
X68894698Y-53950609D01*
X68932778Y-53997009D01*
X69016443Y-54153534D01*
X69067963Y-54323373D01*
X69085359Y-54500000D01*
X69067963Y-54676627D01*
X69016443Y-54846466D01*
X68932778Y-55002991D01*
X68903448Y-55038729D01*
X68820186Y-55140186D01*
X68718729Y-55223448D01*
X68682991Y-55252778D01*
X68526466Y-55336443D01*
X68356627Y-55387963D01*
X68294600Y-55394072D01*
X68224260Y-55401000D01*
X68135740Y-55401000D01*
X68065400Y-55394072D01*
X68003373Y-55387963D01*
X67833534Y-55336443D01*
X67677009Y-55252778D01*
X67641271Y-55223448D01*
X67539814Y-55140186D01*
X67456552Y-55038729D01*
X67427222Y-55002991D01*
X67343557Y-54846466D01*
X67292037Y-54676627D01*
X67274641Y-54500000D01*
X67292037Y-54323373D01*
X67343557Y-54153534D01*
X67427222Y-53997009D01*
X67465302Y-53950609D01*
X67539814Y-53859814D01*
X67641271Y-53776552D01*
X67677009Y-53747222D01*
X67833534Y-53663557D01*
X68003373Y-53612037D01*
X68069557Y-53605519D01*
X68135740Y-53599000D01*
X68224260Y-53599000D01*
X68290443Y-53605519D01*
X68290443Y-53605519D01*
G37*
G36*
X70830443Y-53605519D02*
G01*
X70896627Y-53612037D01*
X71066466Y-53663557D01*
X71222991Y-53747222D01*
X71258729Y-53776552D01*
X71360186Y-53859814D01*
X71434698Y-53950609D01*
X71472778Y-53997009D01*
X71556443Y-54153534D01*
X71607963Y-54323373D01*
X71625359Y-54500000D01*
X71607963Y-54676627D01*
X71556443Y-54846466D01*
X71472778Y-55002991D01*
X71443448Y-55038729D01*
X71360186Y-55140186D01*
X71258729Y-55223448D01*
X71222991Y-55252778D01*
X71066466Y-55336443D01*
X70896627Y-55387963D01*
X70834600Y-55394072D01*
X70764260Y-55401000D01*
X70675740Y-55401000D01*
X70605400Y-55394072D01*
X70543373Y-55387963D01*
X70373534Y-55336443D01*
X70217009Y-55252778D01*
X70181271Y-55223448D01*
X70079814Y-55140186D01*
X69996552Y-55038729D01*
X69967222Y-55002991D01*
X69883557Y-54846466D01*
X69832037Y-54676627D01*
X69814641Y-54500000D01*
X69832037Y-54323373D01*
X69883557Y-54153534D01*
X69967222Y-53997009D01*
X70005302Y-53950609D01*
X70079814Y-53859814D01*
X70181271Y-53776552D01*
X70217009Y-53747222D01*
X70373534Y-53663557D01*
X70543373Y-53612037D01*
X70609557Y-53605519D01*
X70675740Y-53599000D01*
X70764260Y-53599000D01*
X70830443Y-53605519D01*
X70830443Y-53605519D01*
G37*
M02*
