G04 #@! TF.GenerationSoftware,KiCad,Pcbnew,(5.1.2)-2*
G04 #@! TF.CreationDate,2020-02-17T19:57:39-06:00*
G04 #@! TF.ProjectId,Switches4,53776974-6368-4657-9334-2e6b69636164,rev?*
G04 #@! TF.SameCoordinates,Original*
G04 #@! TF.FileFunction,Copper,L1,Top*
G04 #@! TF.FilePolarity,Positive*
%FSLAX46Y46*%
G04 Gerber Fmt 4.6, Leading zero omitted, Abs format (unit mm)*
G04 Created by KiCad (PCBNEW (5.1.2)-2) date 2020-02-17 19:57:39*
%MOMM*%
%LPD*%
G04 APERTURE LIST*
%ADD10C,2.600000*%
%ADD11R,2.600000X2.600000*%
%ADD12O,1.700000X1.700000*%
%ADD13R,1.700000X1.700000*%
%ADD14C,3.048000*%
%ADD15C,0.508000*%
G04 APERTURE END LIST*
D10*
X207500000Y-55000000D03*
X202500000Y-55000000D03*
X197500000Y-55000000D03*
X192500000Y-55000000D03*
X187500000Y-55000000D03*
X182500000Y-55000000D03*
X177500000Y-55000000D03*
X172500000Y-55000000D03*
X167500000Y-55000000D03*
D11*
X162500000Y-55000000D03*
D10*
X155000000Y-55000000D03*
X150000000Y-55000000D03*
X145000000Y-55000000D03*
X140000000Y-55000000D03*
X135000000Y-55000000D03*
X130000000Y-55000000D03*
X125000000Y-55000000D03*
D11*
X120000000Y-55000000D03*
D12*
X95220000Y-54500000D03*
X97760000Y-54500000D03*
X100300000Y-54500000D03*
X102840000Y-54500000D03*
X105380000Y-54500000D03*
X107920000Y-54500000D03*
X110460000Y-54500000D03*
D13*
X113000000Y-54500000D03*
D12*
X63100000Y-54500000D03*
X65640000Y-54500000D03*
X68180000Y-54500000D03*
X70720000Y-54500000D03*
X73260000Y-54500000D03*
X75800000Y-54500000D03*
X78340000Y-54500000D03*
X80880000Y-54500000D03*
X83420000Y-54500000D03*
X85960000Y-54500000D03*
D13*
X88500000Y-54500000D03*
D14*
X210820000Y-72392000D03*
X210820000Y-67692000D03*
X210820000Y-62992000D03*
X58420000Y-72392000D03*
X58420000Y-67692000D03*
X58420000Y-62992000D03*
X185420000Y-72392000D03*
X185420000Y-67692000D03*
X185420000Y-62992000D03*
X160020000Y-72392000D03*
X160020000Y-67692000D03*
X160020000Y-62992000D03*
X134620000Y-72392000D03*
X134620000Y-67692000D03*
X134620000Y-62992000D03*
X109220000Y-72392000D03*
X109220000Y-67692000D03*
X109220000Y-62992000D03*
X83820000Y-72392000D03*
X83820000Y-67692000D03*
X83820000Y-62992000D03*
D15*
X116909732Y-59332044D02*
X117163733Y-59586044D01*
X209296001Y-61468001D02*
X210820000Y-62992000D01*
X140127079Y-58878033D02*
X206706033Y-58878033D01*
X139419071Y-59586041D02*
X140127079Y-58878033D01*
X88400000Y-54500000D02*
X93232041Y-59332041D01*
X206706033Y-58878033D02*
X209296001Y-61468001D01*
X117296424Y-59586042D02*
X139419071Y-59586041D01*
X93232041Y-59332041D02*
X116909732Y-59332044D01*
X117163733Y-59586044D02*
X117296424Y-59586042D01*
X198722054Y-60294054D02*
X209296001Y-70868001D01*
X116784422Y-60208010D02*
X116870466Y-60294054D01*
X209296001Y-70868001D02*
X210820000Y-72392000D01*
X116870466Y-60294054D02*
X198722054Y-60294054D01*
X91568010Y-60208010D02*
X116784422Y-60208010D01*
X85860000Y-54500000D02*
X91568010Y-60208010D01*
X203799999Y-56299999D02*
X202500000Y-55000000D01*
X204254001Y-56754001D02*
X203799999Y-56299999D01*
X207509443Y-56754001D02*
X204254001Y-56754001D01*
X212798001Y-62042559D02*
X207509443Y-56754001D01*
X212798001Y-73341441D02*
X212798001Y-62042559D01*
X211769441Y-74370001D02*
X212798001Y-73341441D01*
X187398001Y-74370001D02*
X211769441Y-74370001D01*
X185420000Y-72392000D02*
X187398001Y-74370001D01*
X89066734Y-58708012D02*
X87528011Y-58708011D01*
X116515657Y-61002062D02*
X116429616Y-60916021D01*
X91274743Y-60916021D02*
X89066734Y-58708012D01*
X84169999Y-55349999D02*
X83320000Y-54500000D01*
X116429616Y-60916021D02*
X91274743Y-60916021D01*
X185420000Y-72392000D02*
X174030062Y-61002062D01*
X87528011Y-58708011D02*
X84169999Y-55349999D01*
X174030062Y-61002062D02*
X116515657Y-61002062D01*
X88773466Y-59416022D02*
X85696022Y-59416022D01*
X99027445Y-69670001D02*
X88773466Y-59416022D01*
X85696022Y-59416022D02*
X81629999Y-55349999D01*
X133377291Y-70378011D02*
X132669281Y-69670001D01*
X137878744Y-72392000D02*
X135864756Y-70378012D01*
X160020000Y-72392000D02*
X137878744Y-72392000D01*
X135864756Y-70378012D02*
X133377291Y-70378011D01*
X132669281Y-69670001D02*
X99027445Y-69670001D01*
X81629999Y-55349999D02*
X80780000Y-54500000D01*
X79089999Y-55349999D02*
X78240000Y-54500000D01*
X134620000Y-72392000D02*
X132464739Y-72392000D01*
X130486738Y-70413999D02*
X98770165Y-70413999D01*
X88480199Y-60124033D02*
X83864033Y-60124033D01*
X98770165Y-70413999D02*
X88480199Y-60124033D01*
X83864033Y-60124033D02*
X79089999Y-55349999D01*
X132464739Y-72392000D02*
X130486738Y-70413999D01*
X107064739Y-72392000D02*
X109220000Y-72392000D01*
X99746888Y-72392000D02*
X107064739Y-72392000D01*
X82032044Y-60832044D02*
X88186932Y-60832044D01*
X75700000Y-54500000D02*
X82032044Y-60832044D01*
X88186932Y-60832044D02*
X99746888Y-72392000D01*
X73160000Y-61732000D02*
X83820000Y-72392000D01*
X73160000Y-54500000D02*
X73160000Y-61732000D01*
X62128000Y-62992000D02*
X70620000Y-54500000D01*
X58420000Y-62992000D02*
X62128000Y-62992000D01*
X67230001Y-55349999D02*
X68080000Y-54500000D01*
X66775999Y-55804001D02*
X67230001Y-55349999D01*
X62680557Y-55804001D02*
X66775999Y-55804001D01*
X56441999Y-62042559D02*
X62680557Y-55804001D01*
X56441999Y-70413999D02*
X56441999Y-62042559D01*
X58420000Y-72392000D02*
X56441999Y-70413999D01*
X206200001Y-53700001D02*
X207500000Y-55000000D01*
X203500000Y-51000000D02*
X206200001Y-53700001D01*
X69040000Y-51000000D02*
X203500000Y-51000000D01*
X65540000Y-54500000D02*
X69040000Y-51000000D01*
X117456999Y-58878033D02*
X139125803Y-58878031D01*
X139125803Y-58878031D02*
X139833812Y-58170022D01*
X99344033Y-58624033D02*
X117202997Y-58624033D01*
X139833812Y-58170022D02*
X151829978Y-58170022D01*
X95220000Y-54500000D02*
X99344033Y-58624033D01*
X117202997Y-58624033D02*
X117456999Y-58878033D01*
X151829978Y-58170022D02*
X153700001Y-56299999D01*
X153700001Y-56299999D02*
X155000000Y-55000000D01*
X117496264Y-57916022D02*
X117750265Y-58170023D01*
X139540545Y-57462011D02*
X147537989Y-57462011D01*
X147537989Y-57462011D02*
X148700001Y-56299999D01*
X148700001Y-56299999D02*
X150000000Y-55000000D01*
X138832535Y-58170021D02*
X139540545Y-57462011D01*
X97760000Y-54500000D02*
X101176021Y-57916021D01*
X117750265Y-58170023D02*
X138832535Y-58170021D01*
X102714744Y-57916022D02*
X117496264Y-57916022D01*
X101176021Y-57916021D02*
X102714744Y-57916022D01*
X139247278Y-56754000D02*
X143246000Y-56754000D01*
X143700001Y-56299999D02*
X145000000Y-55000000D01*
X143246000Y-56754000D02*
X143700001Y-56299999D01*
X138539267Y-57462011D02*
X139247278Y-56754000D01*
X118043532Y-57462012D02*
X138539267Y-57462011D01*
X103008011Y-57208011D02*
X117789531Y-57208011D01*
X100300000Y-54500000D02*
X103008011Y-57208011D01*
X117789531Y-57208011D02*
X118043532Y-57462012D01*
X138245999Y-56754001D02*
X138700001Y-56299999D01*
X102840000Y-54500000D02*
X102840000Y-55702081D01*
X118082798Y-56500000D02*
X118336799Y-56754001D01*
X138700001Y-56299999D02*
X140000000Y-55000000D01*
X118336799Y-56754001D02*
X138245999Y-56754001D01*
X102840000Y-55702081D02*
X103637919Y-56500000D01*
X103637919Y-56500000D02*
X118082798Y-56500000D01*
X133700001Y-53700001D02*
X135000000Y-55000000D01*
X131779982Y-51779982D02*
X133700001Y-53700001D01*
X108100018Y-51779982D02*
X131779982Y-51779982D01*
X105380000Y-54500000D02*
X108100018Y-51779982D01*
X128700001Y-53700001D02*
X130000000Y-55000000D01*
X127487988Y-52487988D02*
X128700001Y-53700001D01*
X109932013Y-52487988D02*
X127487988Y-52487988D01*
X107920000Y-54500000D02*
X109932013Y-52487988D01*
X123700001Y-53700001D02*
X125000000Y-55000000D01*
X123195999Y-53195999D02*
X123700001Y-53700001D01*
X111764001Y-53195999D02*
X123195999Y-53195999D01*
X110460000Y-54500000D02*
X111764001Y-53195999D01*
X119500000Y-54500000D02*
X120000000Y-55000000D01*
X113000000Y-54500000D02*
X119500000Y-54500000D01*
M02*
