G04 #@! TF.GenerationSoftware,KiCad,Pcbnew,(5.1.2)-2*
G04 #@! TF.CreationDate,2020-02-17T19:57:39-06:00*
G04 #@! TF.ProjectId,Switches4,53776974-6368-4657-9334-2e6b69636164,rev?*
G04 #@! TF.SameCoordinates,Original*
G04 #@! TF.FileFunction,Copper,L2,Bot*
G04 #@! TF.FilePolarity,Positive*
%FSLAX46Y46*%
G04 Gerber Fmt 4.6, Leading zero omitted, Abs format (unit mm)*
G04 Created by KiCad (PCBNEW (5.1.2)-2) date 2020-02-17 19:57:39*
%MOMM*%
%LPD*%
G04 APERTURE LIST*
%ADD10C,2.600000*%
%ADD11R,2.600000X2.600000*%
%ADD12O,1.700000X1.700000*%
%ADD13R,1.700000X1.700000*%
%ADD14C,3.048000*%
%ADD15C,0.254000*%
G04 APERTURE END LIST*
D10*
X207500000Y-55000000D03*
X202500000Y-55000000D03*
X197500000Y-55000000D03*
X192500000Y-55000000D03*
X187500000Y-55000000D03*
X182500000Y-55000000D03*
X177500000Y-55000000D03*
X172500000Y-55000000D03*
X167500000Y-55000000D03*
D11*
X162500000Y-55000000D03*
D10*
X155000000Y-55000000D03*
X150000000Y-55000000D03*
X145000000Y-55000000D03*
X140000000Y-55000000D03*
X135000000Y-55000000D03*
X130000000Y-55000000D03*
X125000000Y-55000000D03*
D11*
X120000000Y-55000000D03*
D12*
X95220000Y-54500000D03*
X97760000Y-54500000D03*
X100300000Y-54500000D03*
X102840000Y-54500000D03*
X105380000Y-54500000D03*
X107920000Y-54500000D03*
X110460000Y-54500000D03*
D13*
X113000000Y-54500000D03*
D12*
X63100000Y-54500000D03*
X65640000Y-54500000D03*
X68180000Y-54500000D03*
X70720000Y-54500000D03*
X73260000Y-54500000D03*
X75800000Y-54500000D03*
X78340000Y-54500000D03*
X80880000Y-54500000D03*
X83420000Y-54500000D03*
X85960000Y-54500000D03*
D13*
X88500000Y-54500000D03*
D14*
X210820000Y-72392000D03*
X210820000Y-67692000D03*
X210820000Y-62992000D03*
X58420000Y-72392000D03*
X58420000Y-67692000D03*
X58420000Y-62992000D03*
X185420000Y-72392000D03*
X185420000Y-67692000D03*
X185420000Y-62992000D03*
X160020000Y-72392000D03*
X160020000Y-67692000D03*
X160020000Y-62992000D03*
X134620000Y-72392000D03*
X134620000Y-67692000D03*
X134620000Y-62992000D03*
X109220000Y-72392000D03*
X109220000Y-67692000D03*
X109220000Y-62992000D03*
X83820000Y-72392000D03*
X83820000Y-67692000D03*
X83820000Y-62992000D03*
D15*
G36*
X215340001Y-74340000D02*
G01*
X211758850Y-74340000D01*
X211842670Y-74305281D01*
X212196282Y-74069004D01*
X212497004Y-73768282D01*
X212733281Y-73414670D01*
X212896030Y-73021757D01*
X212979000Y-72604643D01*
X212979000Y-72179357D01*
X212896030Y-71762243D01*
X212733281Y-71369330D01*
X212497004Y-71015718D01*
X212196282Y-70714996D01*
X211842670Y-70478719D01*
X211449757Y-70315970D01*
X211032643Y-70233000D01*
X210607357Y-70233000D01*
X210190243Y-70315970D01*
X209797330Y-70478719D01*
X209443718Y-70714996D01*
X209142996Y-71015718D01*
X208906719Y-71369330D01*
X208743970Y-71762243D01*
X208661000Y-72179357D01*
X208661000Y-72604643D01*
X208743970Y-73021757D01*
X208906719Y-73414670D01*
X209142996Y-73768282D01*
X209443718Y-74069004D01*
X209797330Y-74305281D01*
X209881150Y-74340000D01*
X186358850Y-74340000D01*
X186442670Y-74305281D01*
X186796282Y-74069004D01*
X187097004Y-73768282D01*
X187333281Y-73414670D01*
X187496030Y-73021757D01*
X187579000Y-72604643D01*
X187579000Y-72179357D01*
X187496030Y-71762243D01*
X187333281Y-71369330D01*
X187097004Y-71015718D01*
X186796282Y-70714996D01*
X186442670Y-70478719D01*
X186049757Y-70315970D01*
X185632643Y-70233000D01*
X185207357Y-70233000D01*
X184790243Y-70315970D01*
X184397330Y-70478719D01*
X184043718Y-70714996D01*
X183742996Y-71015718D01*
X183506719Y-71369330D01*
X183343970Y-71762243D01*
X183261000Y-72179357D01*
X183261000Y-72604643D01*
X183343970Y-73021757D01*
X183506719Y-73414670D01*
X183742996Y-73768282D01*
X184043718Y-74069004D01*
X184397330Y-74305281D01*
X184481150Y-74340000D01*
X160958850Y-74340000D01*
X161042670Y-74305281D01*
X161396282Y-74069004D01*
X161697004Y-73768282D01*
X161933281Y-73414670D01*
X162096030Y-73021757D01*
X162179000Y-72604643D01*
X162179000Y-72179357D01*
X162096030Y-71762243D01*
X161933281Y-71369330D01*
X161697004Y-71015718D01*
X161396282Y-70714996D01*
X161042670Y-70478719D01*
X160649757Y-70315970D01*
X160232643Y-70233000D01*
X159807357Y-70233000D01*
X159390243Y-70315970D01*
X158997330Y-70478719D01*
X158643718Y-70714996D01*
X158342996Y-71015718D01*
X158106719Y-71369330D01*
X157943970Y-71762243D01*
X157861000Y-72179357D01*
X157861000Y-72604643D01*
X157943970Y-73021757D01*
X158106719Y-73414670D01*
X158342996Y-73768282D01*
X158643718Y-74069004D01*
X158997330Y-74305281D01*
X159081150Y-74340000D01*
X135558850Y-74340000D01*
X135642670Y-74305281D01*
X135996282Y-74069004D01*
X136297004Y-73768282D01*
X136533281Y-73414670D01*
X136696030Y-73021757D01*
X136779000Y-72604643D01*
X136779000Y-72179357D01*
X136696030Y-71762243D01*
X136533281Y-71369330D01*
X136297004Y-71015718D01*
X135996282Y-70714996D01*
X135642670Y-70478719D01*
X135249757Y-70315970D01*
X134832643Y-70233000D01*
X134407357Y-70233000D01*
X133990243Y-70315970D01*
X133597330Y-70478719D01*
X133243718Y-70714996D01*
X132942996Y-71015718D01*
X132706719Y-71369330D01*
X132543970Y-71762243D01*
X132461000Y-72179357D01*
X132461000Y-72604643D01*
X132543970Y-73021757D01*
X132706719Y-73414670D01*
X132942996Y-73768282D01*
X133243718Y-74069004D01*
X133597330Y-74305281D01*
X133681150Y-74340000D01*
X110158850Y-74340000D01*
X110242670Y-74305281D01*
X110596282Y-74069004D01*
X110897004Y-73768282D01*
X111133281Y-73414670D01*
X111296030Y-73021757D01*
X111379000Y-72604643D01*
X111379000Y-72179357D01*
X111296030Y-71762243D01*
X111133281Y-71369330D01*
X110897004Y-71015718D01*
X110596282Y-70714996D01*
X110242670Y-70478719D01*
X109849757Y-70315970D01*
X109432643Y-70233000D01*
X109007357Y-70233000D01*
X108590243Y-70315970D01*
X108197330Y-70478719D01*
X107843718Y-70714996D01*
X107542996Y-71015718D01*
X107306719Y-71369330D01*
X107143970Y-71762243D01*
X107061000Y-72179357D01*
X107061000Y-72604643D01*
X107143970Y-73021757D01*
X107306719Y-73414670D01*
X107542996Y-73768282D01*
X107843718Y-74069004D01*
X108197330Y-74305281D01*
X108281150Y-74340000D01*
X84758850Y-74340000D01*
X84842670Y-74305281D01*
X85196282Y-74069004D01*
X85497004Y-73768282D01*
X85733281Y-73414670D01*
X85896030Y-73021757D01*
X85979000Y-72604643D01*
X85979000Y-72179357D01*
X85896030Y-71762243D01*
X85733281Y-71369330D01*
X85497004Y-71015718D01*
X85196282Y-70714996D01*
X84842670Y-70478719D01*
X84449757Y-70315970D01*
X84032643Y-70233000D01*
X83607357Y-70233000D01*
X83190243Y-70315970D01*
X82797330Y-70478719D01*
X82443718Y-70714996D01*
X82142996Y-71015718D01*
X81906719Y-71369330D01*
X81743970Y-71762243D01*
X81661000Y-72179357D01*
X81661000Y-72604643D01*
X81743970Y-73021757D01*
X81906719Y-73414670D01*
X82142996Y-73768282D01*
X82443718Y-74069004D01*
X82797330Y-74305281D01*
X82881150Y-74340000D01*
X59358850Y-74340000D01*
X59442670Y-74305281D01*
X59796282Y-74069004D01*
X60097004Y-73768282D01*
X60333281Y-73414670D01*
X60496030Y-73021757D01*
X60579000Y-72604643D01*
X60579000Y-72179357D01*
X60496030Y-71762243D01*
X60333281Y-71369330D01*
X60097004Y-71015718D01*
X59796282Y-70714996D01*
X59442670Y-70478719D01*
X59049757Y-70315970D01*
X58632643Y-70233000D01*
X58207357Y-70233000D01*
X57790243Y-70315970D01*
X57397330Y-70478719D01*
X57043718Y-70714996D01*
X56742996Y-71015718D01*
X56506719Y-71369330D01*
X56343970Y-71762243D01*
X56261000Y-72179357D01*
X56261000Y-72604643D01*
X56343970Y-73021757D01*
X56506719Y-73414670D01*
X56742996Y-73768282D01*
X57043718Y-74069004D01*
X57397330Y-74305281D01*
X57481150Y-74340000D01*
X53660000Y-74340000D01*
X53660000Y-69200740D01*
X57090865Y-69200740D01*
X57249764Y-69518758D01*
X57628632Y-69711959D01*
X58037913Y-69827534D01*
X58461876Y-69861042D01*
X58884230Y-69811194D01*
X59288744Y-69679908D01*
X59590236Y-69518758D01*
X59749135Y-69200740D01*
X82490865Y-69200740D01*
X82649764Y-69518758D01*
X83028632Y-69711959D01*
X83437913Y-69827534D01*
X83861876Y-69861042D01*
X84284230Y-69811194D01*
X84688744Y-69679908D01*
X84990236Y-69518758D01*
X85149135Y-69200740D01*
X107890865Y-69200740D01*
X108049764Y-69518758D01*
X108428632Y-69711959D01*
X108837913Y-69827534D01*
X109261876Y-69861042D01*
X109684230Y-69811194D01*
X110088744Y-69679908D01*
X110390236Y-69518758D01*
X110549135Y-69200740D01*
X133290865Y-69200740D01*
X133449764Y-69518758D01*
X133828632Y-69711959D01*
X134237913Y-69827534D01*
X134661876Y-69861042D01*
X135084230Y-69811194D01*
X135488744Y-69679908D01*
X135790236Y-69518758D01*
X135949135Y-69200740D01*
X158690865Y-69200740D01*
X158849764Y-69518758D01*
X159228632Y-69711959D01*
X159637913Y-69827534D01*
X160061876Y-69861042D01*
X160484230Y-69811194D01*
X160888744Y-69679908D01*
X161190236Y-69518758D01*
X161349135Y-69200740D01*
X184090865Y-69200740D01*
X184249764Y-69518758D01*
X184628632Y-69711959D01*
X185037913Y-69827534D01*
X185461876Y-69861042D01*
X185884230Y-69811194D01*
X186288744Y-69679908D01*
X186590236Y-69518758D01*
X186749135Y-69200740D01*
X209490865Y-69200740D01*
X209649764Y-69518758D01*
X210028632Y-69711959D01*
X210437913Y-69827534D01*
X210861876Y-69861042D01*
X211284230Y-69811194D01*
X211688744Y-69679908D01*
X211990236Y-69518758D01*
X212149135Y-69200740D01*
X210820000Y-67871605D01*
X209490865Y-69200740D01*
X186749135Y-69200740D01*
X185420000Y-67871605D01*
X184090865Y-69200740D01*
X161349135Y-69200740D01*
X160020000Y-67871605D01*
X158690865Y-69200740D01*
X135949135Y-69200740D01*
X134620000Y-67871605D01*
X133290865Y-69200740D01*
X110549135Y-69200740D01*
X109220000Y-67871605D01*
X107890865Y-69200740D01*
X85149135Y-69200740D01*
X83820000Y-67871605D01*
X82490865Y-69200740D01*
X59749135Y-69200740D01*
X58420000Y-67871605D01*
X57090865Y-69200740D01*
X53660000Y-69200740D01*
X53660000Y-67733876D01*
X56250958Y-67733876D01*
X56300806Y-68156230D01*
X56432092Y-68560744D01*
X56593242Y-68862236D01*
X56911260Y-69021135D01*
X58240395Y-67692000D01*
X58599605Y-67692000D01*
X59928740Y-69021135D01*
X60246758Y-68862236D01*
X60439959Y-68483368D01*
X60555534Y-68074087D01*
X60582422Y-67733876D01*
X81650958Y-67733876D01*
X81700806Y-68156230D01*
X81832092Y-68560744D01*
X81993242Y-68862236D01*
X82311260Y-69021135D01*
X83640395Y-67692000D01*
X83999605Y-67692000D01*
X85328740Y-69021135D01*
X85646758Y-68862236D01*
X85839959Y-68483368D01*
X85955534Y-68074087D01*
X85982422Y-67733876D01*
X107050958Y-67733876D01*
X107100806Y-68156230D01*
X107232092Y-68560744D01*
X107393242Y-68862236D01*
X107711260Y-69021135D01*
X109040395Y-67692000D01*
X109399605Y-67692000D01*
X110728740Y-69021135D01*
X111046758Y-68862236D01*
X111239959Y-68483368D01*
X111355534Y-68074087D01*
X111382422Y-67733876D01*
X132450958Y-67733876D01*
X132500806Y-68156230D01*
X132632092Y-68560744D01*
X132793242Y-68862236D01*
X133111260Y-69021135D01*
X134440395Y-67692000D01*
X134799605Y-67692000D01*
X136128740Y-69021135D01*
X136446758Y-68862236D01*
X136639959Y-68483368D01*
X136755534Y-68074087D01*
X136782422Y-67733876D01*
X157850958Y-67733876D01*
X157900806Y-68156230D01*
X158032092Y-68560744D01*
X158193242Y-68862236D01*
X158511260Y-69021135D01*
X159840395Y-67692000D01*
X160199605Y-67692000D01*
X161528740Y-69021135D01*
X161846758Y-68862236D01*
X162039959Y-68483368D01*
X162155534Y-68074087D01*
X162182422Y-67733876D01*
X183250958Y-67733876D01*
X183300806Y-68156230D01*
X183432092Y-68560744D01*
X183593242Y-68862236D01*
X183911260Y-69021135D01*
X185240395Y-67692000D01*
X185599605Y-67692000D01*
X186928740Y-69021135D01*
X187246758Y-68862236D01*
X187439959Y-68483368D01*
X187555534Y-68074087D01*
X187582422Y-67733876D01*
X208650958Y-67733876D01*
X208700806Y-68156230D01*
X208832092Y-68560744D01*
X208993242Y-68862236D01*
X209311260Y-69021135D01*
X210640395Y-67692000D01*
X210999605Y-67692000D01*
X212328740Y-69021135D01*
X212646758Y-68862236D01*
X212839959Y-68483368D01*
X212955534Y-68074087D01*
X212989042Y-67650124D01*
X212939194Y-67227770D01*
X212807908Y-66823256D01*
X212646758Y-66521764D01*
X212328740Y-66362865D01*
X210999605Y-67692000D01*
X210640395Y-67692000D01*
X209311260Y-66362865D01*
X208993242Y-66521764D01*
X208800041Y-66900632D01*
X208684466Y-67309913D01*
X208650958Y-67733876D01*
X187582422Y-67733876D01*
X187589042Y-67650124D01*
X187539194Y-67227770D01*
X187407908Y-66823256D01*
X187246758Y-66521764D01*
X186928740Y-66362865D01*
X185599605Y-67692000D01*
X185240395Y-67692000D01*
X183911260Y-66362865D01*
X183593242Y-66521764D01*
X183400041Y-66900632D01*
X183284466Y-67309913D01*
X183250958Y-67733876D01*
X162182422Y-67733876D01*
X162189042Y-67650124D01*
X162139194Y-67227770D01*
X162007908Y-66823256D01*
X161846758Y-66521764D01*
X161528740Y-66362865D01*
X160199605Y-67692000D01*
X159840395Y-67692000D01*
X158511260Y-66362865D01*
X158193242Y-66521764D01*
X158000041Y-66900632D01*
X157884466Y-67309913D01*
X157850958Y-67733876D01*
X136782422Y-67733876D01*
X136789042Y-67650124D01*
X136739194Y-67227770D01*
X136607908Y-66823256D01*
X136446758Y-66521764D01*
X136128740Y-66362865D01*
X134799605Y-67692000D01*
X134440395Y-67692000D01*
X133111260Y-66362865D01*
X132793242Y-66521764D01*
X132600041Y-66900632D01*
X132484466Y-67309913D01*
X132450958Y-67733876D01*
X111382422Y-67733876D01*
X111389042Y-67650124D01*
X111339194Y-67227770D01*
X111207908Y-66823256D01*
X111046758Y-66521764D01*
X110728740Y-66362865D01*
X109399605Y-67692000D01*
X109040395Y-67692000D01*
X107711260Y-66362865D01*
X107393242Y-66521764D01*
X107200041Y-66900632D01*
X107084466Y-67309913D01*
X107050958Y-67733876D01*
X85982422Y-67733876D01*
X85989042Y-67650124D01*
X85939194Y-67227770D01*
X85807908Y-66823256D01*
X85646758Y-66521764D01*
X85328740Y-66362865D01*
X83999605Y-67692000D01*
X83640395Y-67692000D01*
X82311260Y-66362865D01*
X81993242Y-66521764D01*
X81800041Y-66900632D01*
X81684466Y-67309913D01*
X81650958Y-67733876D01*
X60582422Y-67733876D01*
X60589042Y-67650124D01*
X60539194Y-67227770D01*
X60407908Y-66823256D01*
X60246758Y-66521764D01*
X59928740Y-66362865D01*
X58599605Y-67692000D01*
X58240395Y-67692000D01*
X56911260Y-66362865D01*
X56593242Y-66521764D01*
X56400041Y-66900632D01*
X56284466Y-67309913D01*
X56250958Y-67733876D01*
X53660000Y-67733876D01*
X53660000Y-66183260D01*
X57090865Y-66183260D01*
X58420000Y-67512395D01*
X59749135Y-66183260D01*
X82490865Y-66183260D01*
X83820000Y-67512395D01*
X85149135Y-66183260D01*
X107890865Y-66183260D01*
X109220000Y-67512395D01*
X110549135Y-66183260D01*
X133290865Y-66183260D01*
X134620000Y-67512395D01*
X135949135Y-66183260D01*
X158690865Y-66183260D01*
X160020000Y-67512395D01*
X161349135Y-66183260D01*
X184090865Y-66183260D01*
X185420000Y-67512395D01*
X186749135Y-66183260D01*
X209490865Y-66183260D01*
X210820000Y-67512395D01*
X212149135Y-66183260D01*
X211990236Y-65865242D01*
X211611368Y-65672041D01*
X211202087Y-65556466D01*
X210778124Y-65522958D01*
X210355770Y-65572806D01*
X209951256Y-65704092D01*
X209649764Y-65865242D01*
X209490865Y-66183260D01*
X186749135Y-66183260D01*
X186590236Y-65865242D01*
X186211368Y-65672041D01*
X185802087Y-65556466D01*
X185378124Y-65522958D01*
X184955770Y-65572806D01*
X184551256Y-65704092D01*
X184249764Y-65865242D01*
X184090865Y-66183260D01*
X161349135Y-66183260D01*
X161190236Y-65865242D01*
X160811368Y-65672041D01*
X160402087Y-65556466D01*
X159978124Y-65522958D01*
X159555770Y-65572806D01*
X159151256Y-65704092D01*
X158849764Y-65865242D01*
X158690865Y-66183260D01*
X135949135Y-66183260D01*
X135790236Y-65865242D01*
X135411368Y-65672041D01*
X135002087Y-65556466D01*
X134578124Y-65522958D01*
X134155770Y-65572806D01*
X133751256Y-65704092D01*
X133449764Y-65865242D01*
X133290865Y-66183260D01*
X110549135Y-66183260D01*
X110390236Y-65865242D01*
X110011368Y-65672041D01*
X109602087Y-65556466D01*
X109178124Y-65522958D01*
X108755770Y-65572806D01*
X108351256Y-65704092D01*
X108049764Y-65865242D01*
X107890865Y-66183260D01*
X85149135Y-66183260D01*
X84990236Y-65865242D01*
X84611368Y-65672041D01*
X84202087Y-65556466D01*
X83778124Y-65522958D01*
X83355770Y-65572806D01*
X82951256Y-65704092D01*
X82649764Y-65865242D01*
X82490865Y-66183260D01*
X59749135Y-66183260D01*
X59590236Y-65865242D01*
X59211368Y-65672041D01*
X58802087Y-65556466D01*
X58378124Y-65522958D01*
X57955770Y-65572806D01*
X57551256Y-65704092D01*
X57249764Y-65865242D01*
X57090865Y-66183260D01*
X53660000Y-66183260D01*
X53660000Y-62779357D01*
X56261000Y-62779357D01*
X56261000Y-63204643D01*
X56343970Y-63621757D01*
X56506719Y-64014670D01*
X56742996Y-64368282D01*
X57043718Y-64669004D01*
X57397330Y-64905281D01*
X57790243Y-65068030D01*
X58207357Y-65151000D01*
X58632643Y-65151000D01*
X59049757Y-65068030D01*
X59442670Y-64905281D01*
X59796282Y-64669004D01*
X60097004Y-64368282D01*
X60333281Y-64014670D01*
X60496030Y-63621757D01*
X60579000Y-63204643D01*
X60579000Y-62779357D01*
X81661000Y-62779357D01*
X81661000Y-63204643D01*
X81743970Y-63621757D01*
X81906719Y-64014670D01*
X82142996Y-64368282D01*
X82443718Y-64669004D01*
X82797330Y-64905281D01*
X83190243Y-65068030D01*
X83607357Y-65151000D01*
X84032643Y-65151000D01*
X84449757Y-65068030D01*
X84842670Y-64905281D01*
X85196282Y-64669004D01*
X85497004Y-64368282D01*
X85733281Y-64014670D01*
X85896030Y-63621757D01*
X85979000Y-63204643D01*
X85979000Y-62779357D01*
X107061000Y-62779357D01*
X107061000Y-63204643D01*
X107143970Y-63621757D01*
X107306719Y-64014670D01*
X107542996Y-64368282D01*
X107843718Y-64669004D01*
X108197330Y-64905281D01*
X108590243Y-65068030D01*
X109007357Y-65151000D01*
X109432643Y-65151000D01*
X109849757Y-65068030D01*
X110242670Y-64905281D01*
X110596282Y-64669004D01*
X110897004Y-64368282D01*
X111133281Y-64014670D01*
X111296030Y-63621757D01*
X111379000Y-63204643D01*
X111379000Y-62779357D01*
X132461000Y-62779357D01*
X132461000Y-63204643D01*
X132543970Y-63621757D01*
X132706719Y-64014670D01*
X132942996Y-64368282D01*
X133243718Y-64669004D01*
X133597330Y-64905281D01*
X133990243Y-65068030D01*
X134407357Y-65151000D01*
X134832643Y-65151000D01*
X135249757Y-65068030D01*
X135642670Y-64905281D01*
X135996282Y-64669004D01*
X136297004Y-64368282D01*
X136533281Y-64014670D01*
X136696030Y-63621757D01*
X136779000Y-63204643D01*
X136779000Y-62779357D01*
X157861000Y-62779357D01*
X157861000Y-63204643D01*
X157943970Y-63621757D01*
X158106719Y-64014670D01*
X158342996Y-64368282D01*
X158643718Y-64669004D01*
X158997330Y-64905281D01*
X159390243Y-65068030D01*
X159807357Y-65151000D01*
X160232643Y-65151000D01*
X160649757Y-65068030D01*
X161042670Y-64905281D01*
X161396282Y-64669004D01*
X161697004Y-64368282D01*
X161933281Y-64014670D01*
X162096030Y-63621757D01*
X162179000Y-63204643D01*
X162179000Y-62779357D01*
X183261000Y-62779357D01*
X183261000Y-63204643D01*
X183343970Y-63621757D01*
X183506719Y-64014670D01*
X183742996Y-64368282D01*
X184043718Y-64669004D01*
X184397330Y-64905281D01*
X184790243Y-65068030D01*
X185207357Y-65151000D01*
X185632643Y-65151000D01*
X186049757Y-65068030D01*
X186442670Y-64905281D01*
X186796282Y-64669004D01*
X187097004Y-64368282D01*
X187333281Y-64014670D01*
X187496030Y-63621757D01*
X187579000Y-63204643D01*
X187579000Y-62779357D01*
X208661000Y-62779357D01*
X208661000Y-63204643D01*
X208743970Y-63621757D01*
X208906719Y-64014670D01*
X209142996Y-64368282D01*
X209443718Y-64669004D01*
X209797330Y-64905281D01*
X210190243Y-65068030D01*
X210607357Y-65151000D01*
X211032643Y-65151000D01*
X211449757Y-65068030D01*
X211842670Y-64905281D01*
X212196282Y-64669004D01*
X212497004Y-64368282D01*
X212733281Y-64014670D01*
X212896030Y-63621757D01*
X212979000Y-63204643D01*
X212979000Y-62779357D01*
X212896030Y-62362243D01*
X212733281Y-61969330D01*
X212497004Y-61615718D01*
X212196282Y-61314996D01*
X211842670Y-61078719D01*
X211449757Y-60915970D01*
X211032643Y-60833000D01*
X210607357Y-60833000D01*
X210190243Y-60915970D01*
X209797330Y-61078719D01*
X209443718Y-61314996D01*
X209142996Y-61615718D01*
X208906719Y-61969330D01*
X208743970Y-62362243D01*
X208661000Y-62779357D01*
X187579000Y-62779357D01*
X187496030Y-62362243D01*
X187333281Y-61969330D01*
X187097004Y-61615718D01*
X186796282Y-61314996D01*
X186442670Y-61078719D01*
X186049757Y-60915970D01*
X185632643Y-60833000D01*
X185207357Y-60833000D01*
X184790243Y-60915970D01*
X184397330Y-61078719D01*
X184043718Y-61314996D01*
X183742996Y-61615718D01*
X183506719Y-61969330D01*
X183343970Y-62362243D01*
X183261000Y-62779357D01*
X162179000Y-62779357D01*
X162096030Y-62362243D01*
X161933281Y-61969330D01*
X161697004Y-61615718D01*
X161396282Y-61314996D01*
X161042670Y-61078719D01*
X160649757Y-60915970D01*
X160232643Y-60833000D01*
X159807357Y-60833000D01*
X159390243Y-60915970D01*
X158997330Y-61078719D01*
X158643718Y-61314996D01*
X158342996Y-61615718D01*
X158106719Y-61969330D01*
X157943970Y-62362243D01*
X157861000Y-62779357D01*
X136779000Y-62779357D01*
X136696030Y-62362243D01*
X136533281Y-61969330D01*
X136297004Y-61615718D01*
X135996282Y-61314996D01*
X135642670Y-61078719D01*
X135249757Y-60915970D01*
X134832643Y-60833000D01*
X134407357Y-60833000D01*
X133990243Y-60915970D01*
X133597330Y-61078719D01*
X133243718Y-61314996D01*
X132942996Y-61615718D01*
X132706719Y-61969330D01*
X132543970Y-62362243D01*
X132461000Y-62779357D01*
X111379000Y-62779357D01*
X111296030Y-62362243D01*
X111133281Y-61969330D01*
X110897004Y-61615718D01*
X110596282Y-61314996D01*
X110242670Y-61078719D01*
X109849757Y-60915970D01*
X109432643Y-60833000D01*
X109007357Y-60833000D01*
X108590243Y-60915970D01*
X108197330Y-61078719D01*
X107843718Y-61314996D01*
X107542996Y-61615718D01*
X107306719Y-61969330D01*
X107143970Y-62362243D01*
X107061000Y-62779357D01*
X85979000Y-62779357D01*
X85896030Y-62362243D01*
X85733281Y-61969330D01*
X85497004Y-61615718D01*
X85196282Y-61314996D01*
X84842670Y-61078719D01*
X84449757Y-60915970D01*
X84032643Y-60833000D01*
X83607357Y-60833000D01*
X83190243Y-60915970D01*
X82797330Y-61078719D01*
X82443718Y-61314996D01*
X82142996Y-61615718D01*
X81906719Y-61969330D01*
X81743970Y-62362243D01*
X81661000Y-62779357D01*
X60579000Y-62779357D01*
X60496030Y-62362243D01*
X60333281Y-61969330D01*
X60097004Y-61615718D01*
X59796282Y-61314996D01*
X59442670Y-61078719D01*
X59049757Y-60915970D01*
X58632643Y-60833000D01*
X58207357Y-60833000D01*
X57790243Y-60915970D01*
X57397330Y-61078719D01*
X57043718Y-61314996D01*
X56742996Y-61615718D01*
X56506719Y-61969330D01*
X56343970Y-62362243D01*
X56261000Y-62779357D01*
X53660000Y-62779357D01*
X53660000Y-54856891D01*
X61658519Y-54856891D01*
X61755843Y-55131252D01*
X61904822Y-55381355D01*
X62099731Y-55597588D01*
X62333080Y-55771641D01*
X62595901Y-55896825D01*
X62743110Y-55941476D01*
X62973000Y-55820155D01*
X62973000Y-54627000D01*
X61779186Y-54627000D01*
X61658519Y-54856891D01*
X53660000Y-54856891D01*
X53660000Y-54143109D01*
X61658519Y-54143109D01*
X61779186Y-54373000D01*
X62973000Y-54373000D01*
X62973000Y-53179845D01*
X63227000Y-53179845D01*
X63227000Y-54373000D01*
X63247000Y-54373000D01*
X63247000Y-54627000D01*
X63227000Y-54627000D01*
X63227000Y-55820155D01*
X63456890Y-55941476D01*
X63604099Y-55896825D01*
X63866920Y-55771641D01*
X64100269Y-55597588D01*
X64295178Y-55381355D01*
X64364799Y-55264477D01*
X64399294Y-55329014D01*
X64584866Y-55555134D01*
X64810986Y-55740706D01*
X65068966Y-55878599D01*
X65348889Y-55963513D01*
X65567050Y-55985000D01*
X65712950Y-55985000D01*
X65931111Y-55963513D01*
X66211034Y-55878599D01*
X66469014Y-55740706D01*
X66695134Y-55555134D01*
X66880706Y-55329014D01*
X66910000Y-55274209D01*
X66939294Y-55329014D01*
X67124866Y-55555134D01*
X67350986Y-55740706D01*
X67608966Y-55878599D01*
X67888889Y-55963513D01*
X68107050Y-55985000D01*
X68252950Y-55985000D01*
X68471111Y-55963513D01*
X68751034Y-55878599D01*
X69009014Y-55740706D01*
X69235134Y-55555134D01*
X69420706Y-55329014D01*
X69450000Y-55274209D01*
X69479294Y-55329014D01*
X69664866Y-55555134D01*
X69890986Y-55740706D01*
X70148966Y-55878599D01*
X70428889Y-55963513D01*
X70647050Y-55985000D01*
X70792950Y-55985000D01*
X71011111Y-55963513D01*
X71291034Y-55878599D01*
X71549014Y-55740706D01*
X71775134Y-55555134D01*
X71960706Y-55329014D01*
X71990000Y-55274209D01*
X72019294Y-55329014D01*
X72204866Y-55555134D01*
X72430986Y-55740706D01*
X72688966Y-55878599D01*
X72968889Y-55963513D01*
X73187050Y-55985000D01*
X73332950Y-55985000D01*
X73551111Y-55963513D01*
X73831034Y-55878599D01*
X74089014Y-55740706D01*
X74315134Y-55555134D01*
X74500706Y-55329014D01*
X74530000Y-55274209D01*
X74559294Y-55329014D01*
X74744866Y-55555134D01*
X74970986Y-55740706D01*
X75228966Y-55878599D01*
X75508889Y-55963513D01*
X75727050Y-55985000D01*
X75872950Y-55985000D01*
X76091111Y-55963513D01*
X76371034Y-55878599D01*
X76629014Y-55740706D01*
X76855134Y-55555134D01*
X77040706Y-55329014D01*
X77070000Y-55274209D01*
X77099294Y-55329014D01*
X77284866Y-55555134D01*
X77510986Y-55740706D01*
X77768966Y-55878599D01*
X78048889Y-55963513D01*
X78267050Y-55985000D01*
X78412950Y-55985000D01*
X78631111Y-55963513D01*
X78911034Y-55878599D01*
X79169014Y-55740706D01*
X79395134Y-55555134D01*
X79580706Y-55329014D01*
X79610000Y-55274209D01*
X79639294Y-55329014D01*
X79824866Y-55555134D01*
X80050986Y-55740706D01*
X80308966Y-55878599D01*
X80588889Y-55963513D01*
X80807050Y-55985000D01*
X80952950Y-55985000D01*
X81171111Y-55963513D01*
X81451034Y-55878599D01*
X81709014Y-55740706D01*
X81935134Y-55555134D01*
X82120706Y-55329014D01*
X82150000Y-55274209D01*
X82179294Y-55329014D01*
X82364866Y-55555134D01*
X82590986Y-55740706D01*
X82848966Y-55878599D01*
X83128889Y-55963513D01*
X83347050Y-55985000D01*
X83492950Y-55985000D01*
X83711111Y-55963513D01*
X83991034Y-55878599D01*
X84249014Y-55740706D01*
X84475134Y-55555134D01*
X84660706Y-55329014D01*
X84690000Y-55274209D01*
X84719294Y-55329014D01*
X84904866Y-55555134D01*
X85130986Y-55740706D01*
X85388966Y-55878599D01*
X85668889Y-55963513D01*
X85887050Y-55985000D01*
X86032950Y-55985000D01*
X86251111Y-55963513D01*
X86531034Y-55878599D01*
X86789014Y-55740706D01*
X87015134Y-55555134D01*
X87039607Y-55525313D01*
X87060498Y-55594180D01*
X87119463Y-55704494D01*
X87198815Y-55801185D01*
X87295506Y-55880537D01*
X87405820Y-55939502D01*
X87525518Y-55975812D01*
X87650000Y-55988072D01*
X89350000Y-55988072D01*
X89474482Y-55975812D01*
X89594180Y-55939502D01*
X89704494Y-55880537D01*
X89801185Y-55801185D01*
X89880537Y-55704494D01*
X89939502Y-55594180D01*
X89975812Y-55474482D01*
X89988072Y-55350000D01*
X89988072Y-54500000D01*
X93727815Y-54500000D01*
X93756487Y-54791111D01*
X93841401Y-55071034D01*
X93979294Y-55329014D01*
X94164866Y-55555134D01*
X94390986Y-55740706D01*
X94648966Y-55878599D01*
X94928889Y-55963513D01*
X95147050Y-55985000D01*
X95292950Y-55985000D01*
X95511111Y-55963513D01*
X95791034Y-55878599D01*
X96049014Y-55740706D01*
X96275134Y-55555134D01*
X96460706Y-55329014D01*
X96490000Y-55274209D01*
X96519294Y-55329014D01*
X96704866Y-55555134D01*
X96930986Y-55740706D01*
X97188966Y-55878599D01*
X97468889Y-55963513D01*
X97687050Y-55985000D01*
X97832950Y-55985000D01*
X98051111Y-55963513D01*
X98331034Y-55878599D01*
X98589014Y-55740706D01*
X98815134Y-55555134D01*
X99000706Y-55329014D01*
X99030000Y-55274209D01*
X99059294Y-55329014D01*
X99244866Y-55555134D01*
X99470986Y-55740706D01*
X99728966Y-55878599D01*
X100008889Y-55963513D01*
X100227050Y-55985000D01*
X100372950Y-55985000D01*
X100591111Y-55963513D01*
X100871034Y-55878599D01*
X101129014Y-55740706D01*
X101355134Y-55555134D01*
X101540706Y-55329014D01*
X101570000Y-55274209D01*
X101599294Y-55329014D01*
X101784866Y-55555134D01*
X102010986Y-55740706D01*
X102268966Y-55878599D01*
X102548889Y-55963513D01*
X102767050Y-55985000D01*
X102912950Y-55985000D01*
X103131111Y-55963513D01*
X103411034Y-55878599D01*
X103669014Y-55740706D01*
X103895134Y-55555134D01*
X104080706Y-55329014D01*
X104110000Y-55274209D01*
X104139294Y-55329014D01*
X104324866Y-55555134D01*
X104550986Y-55740706D01*
X104808966Y-55878599D01*
X105088889Y-55963513D01*
X105307050Y-55985000D01*
X105452950Y-55985000D01*
X105671111Y-55963513D01*
X105951034Y-55878599D01*
X106209014Y-55740706D01*
X106435134Y-55555134D01*
X106620706Y-55329014D01*
X106650000Y-55274209D01*
X106679294Y-55329014D01*
X106864866Y-55555134D01*
X107090986Y-55740706D01*
X107348966Y-55878599D01*
X107628889Y-55963513D01*
X107847050Y-55985000D01*
X107992950Y-55985000D01*
X108211111Y-55963513D01*
X108491034Y-55878599D01*
X108749014Y-55740706D01*
X108975134Y-55555134D01*
X109160706Y-55329014D01*
X109190000Y-55274209D01*
X109219294Y-55329014D01*
X109404866Y-55555134D01*
X109630986Y-55740706D01*
X109888966Y-55878599D01*
X110168889Y-55963513D01*
X110387050Y-55985000D01*
X110532950Y-55985000D01*
X110751111Y-55963513D01*
X111031034Y-55878599D01*
X111289014Y-55740706D01*
X111515134Y-55555134D01*
X111539607Y-55525313D01*
X111560498Y-55594180D01*
X111619463Y-55704494D01*
X111698815Y-55801185D01*
X111795506Y-55880537D01*
X111905820Y-55939502D01*
X112025518Y-55975812D01*
X112150000Y-55988072D01*
X113850000Y-55988072D01*
X113974482Y-55975812D01*
X114094180Y-55939502D01*
X114204494Y-55880537D01*
X114301185Y-55801185D01*
X114380537Y-55704494D01*
X114439502Y-55594180D01*
X114475812Y-55474482D01*
X114488072Y-55350000D01*
X114488072Y-53700000D01*
X118061928Y-53700000D01*
X118061928Y-56300000D01*
X118074188Y-56424482D01*
X118110498Y-56544180D01*
X118169463Y-56654494D01*
X118248815Y-56751185D01*
X118345506Y-56830537D01*
X118455820Y-56889502D01*
X118575518Y-56925812D01*
X118700000Y-56938072D01*
X121300000Y-56938072D01*
X121424482Y-56925812D01*
X121544180Y-56889502D01*
X121654494Y-56830537D01*
X121751185Y-56751185D01*
X121830537Y-56654494D01*
X121889502Y-56544180D01*
X121925812Y-56424482D01*
X121938072Y-56300000D01*
X121938072Y-54809419D01*
X123065000Y-54809419D01*
X123065000Y-55190581D01*
X123139361Y-55564419D01*
X123285225Y-55916566D01*
X123496987Y-56233491D01*
X123766509Y-56503013D01*
X124083434Y-56714775D01*
X124435581Y-56860639D01*
X124809419Y-56935000D01*
X125190581Y-56935000D01*
X125564419Y-56860639D01*
X125916566Y-56714775D01*
X126233491Y-56503013D01*
X126503013Y-56233491D01*
X126714775Y-55916566D01*
X126860639Y-55564419D01*
X126935000Y-55190581D01*
X126935000Y-54809419D01*
X128065000Y-54809419D01*
X128065000Y-55190581D01*
X128139361Y-55564419D01*
X128285225Y-55916566D01*
X128496987Y-56233491D01*
X128766509Y-56503013D01*
X129083434Y-56714775D01*
X129435581Y-56860639D01*
X129809419Y-56935000D01*
X130190581Y-56935000D01*
X130564419Y-56860639D01*
X130916566Y-56714775D01*
X131233491Y-56503013D01*
X131503013Y-56233491D01*
X131714775Y-55916566D01*
X131860639Y-55564419D01*
X131935000Y-55190581D01*
X131935000Y-54809419D01*
X133065000Y-54809419D01*
X133065000Y-55190581D01*
X133139361Y-55564419D01*
X133285225Y-55916566D01*
X133496987Y-56233491D01*
X133766509Y-56503013D01*
X134083434Y-56714775D01*
X134435581Y-56860639D01*
X134809419Y-56935000D01*
X135190581Y-56935000D01*
X135564419Y-56860639D01*
X135916566Y-56714775D01*
X136233491Y-56503013D01*
X136503013Y-56233491D01*
X136714775Y-55916566D01*
X136860639Y-55564419D01*
X136935000Y-55190581D01*
X136935000Y-54809419D01*
X138065000Y-54809419D01*
X138065000Y-55190581D01*
X138139361Y-55564419D01*
X138285225Y-55916566D01*
X138496987Y-56233491D01*
X138766509Y-56503013D01*
X139083434Y-56714775D01*
X139435581Y-56860639D01*
X139809419Y-56935000D01*
X140190581Y-56935000D01*
X140564419Y-56860639D01*
X140916566Y-56714775D01*
X141233491Y-56503013D01*
X141503013Y-56233491D01*
X141714775Y-55916566D01*
X141860639Y-55564419D01*
X141935000Y-55190581D01*
X141935000Y-54809419D01*
X143065000Y-54809419D01*
X143065000Y-55190581D01*
X143139361Y-55564419D01*
X143285225Y-55916566D01*
X143496987Y-56233491D01*
X143766509Y-56503013D01*
X144083434Y-56714775D01*
X144435581Y-56860639D01*
X144809419Y-56935000D01*
X145190581Y-56935000D01*
X145564419Y-56860639D01*
X145916566Y-56714775D01*
X146233491Y-56503013D01*
X146503013Y-56233491D01*
X146714775Y-55916566D01*
X146860639Y-55564419D01*
X146935000Y-55190581D01*
X146935000Y-54809419D01*
X148065000Y-54809419D01*
X148065000Y-55190581D01*
X148139361Y-55564419D01*
X148285225Y-55916566D01*
X148496987Y-56233491D01*
X148766509Y-56503013D01*
X149083434Y-56714775D01*
X149435581Y-56860639D01*
X149809419Y-56935000D01*
X150190581Y-56935000D01*
X150564419Y-56860639D01*
X150916566Y-56714775D01*
X151233491Y-56503013D01*
X151503013Y-56233491D01*
X151714775Y-55916566D01*
X151860639Y-55564419D01*
X151935000Y-55190581D01*
X151935000Y-54809419D01*
X153065000Y-54809419D01*
X153065000Y-55190581D01*
X153139361Y-55564419D01*
X153285225Y-55916566D01*
X153496987Y-56233491D01*
X153766509Y-56503013D01*
X154083434Y-56714775D01*
X154435581Y-56860639D01*
X154809419Y-56935000D01*
X155190581Y-56935000D01*
X155564419Y-56860639D01*
X155916566Y-56714775D01*
X156233491Y-56503013D01*
X156436504Y-56300000D01*
X160561928Y-56300000D01*
X160574188Y-56424482D01*
X160610498Y-56544180D01*
X160669463Y-56654494D01*
X160748815Y-56751185D01*
X160845506Y-56830537D01*
X160955820Y-56889502D01*
X161075518Y-56925812D01*
X161200000Y-56938072D01*
X162214250Y-56935000D01*
X162373000Y-56776250D01*
X162373000Y-55127000D01*
X162627000Y-55127000D01*
X162627000Y-56776250D01*
X162785750Y-56935000D01*
X163800000Y-56938072D01*
X163924482Y-56925812D01*
X164044180Y-56889502D01*
X164154494Y-56830537D01*
X164251185Y-56751185D01*
X164330537Y-56654494D01*
X164389502Y-56544180D01*
X164425812Y-56424482D01*
X164433224Y-56349224D01*
X166330381Y-56349224D01*
X166462317Y-56644312D01*
X166803045Y-56815159D01*
X167170557Y-56916250D01*
X167550729Y-56943701D01*
X167928951Y-56896457D01*
X168290690Y-56776333D01*
X168537683Y-56644312D01*
X168669619Y-56349224D01*
X171330381Y-56349224D01*
X171462317Y-56644312D01*
X171803045Y-56815159D01*
X172170557Y-56916250D01*
X172550729Y-56943701D01*
X172928951Y-56896457D01*
X173290690Y-56776333D01*
X173537683Y-56644312D01*
X173669619Y-56349224D01*
X176330381Y-56349224D01*
X176462317Y-56644312D01*
X176803045Y-56815159D01*
X177170557Y-56916250D01*
X177550729Y-56943701D01*
X177928951Y-56896457D01*
X178290690Y-56776333D01*
X178537683Y-56644312D01*
X178669619Y-56349224D01*
X181330381Y-56349224D01*
X181462317Y-56644312D01*
X181803045Y-56815159D01*
X182170557Y-56916250D01*
X182550729Y-56943701D01*
X182928951Y-56896457D01*
X183290690Y-56776333D01*
X183537683Y-56644312D01*
X183669619Y-56349224D01*
X186330381Y-56349224D01*
X186462317Y-56644312D01*
X186803045Y-56815159D01*
X187170557Y-56916250D01*
X187550729Y-56943701D01*
X187928951Y-56896457D01*
X188290690Y-56776333D01*
X188537683Y-56644312D01*
X188669619Y-56349224D01*
X191330381Y-56349224D01*
X191462317Y-56644312D01*
X191803045Y-56815159D01*
X192170557Y-56916250D01*
X192550729Y-56943701D01*
X192928951Y-56896457D01*
X193290690Y-56776333D01*
X193537683Y-56644312D01*
X193669619Y-56349224D01*
X196330381Y-56349224D01*
X196462317Y-56644312D01*
X196803045Y-56815159D01*
X197170557Y-56916250D01*
X197550729Y-56943701D01*
X197928951Y-56896457D01*
X198290690Y-56776333D01*
X198537683Y-56644312D01*
X198669619Y-56349224D01*
X197500000Y-55179605D01*
X196330381Y-56349224D01*
X193669619Y-56349224D01*
X192500000Y-55179605D01*
X191330381Y-56349224D01*
X188669619Y-56349224D01*
X187500000Y-55179605D01*
X186330381Y-56349224D01*
X183669619Y-56349224D01*
X182500000Y-55179605D01*
X181330381Y-56349224D01*
X178669619Y-56349224D01*
X177500000Y-55179605D01*
X176330381Y-56349224D01*
X173669619Y-56349224D01*
X172500000Y-55179605D01*
X171330381Y-56349224D01*
X168669619Y-56349224D01*
X167500000Y-55179605D01*
X166330381Y-56349224D01*
X164433224Y-56349224D01*
X164438072Y-56300000D01*
X164435000Y-55285750D01*
X164276250Y-55127000D01*
X162627000Y-55127000D01*
X162373000Y-55127000D01*
X160723750Y-55127000D01*
X160565000Y-55285750D01*
X160561928Y-56300000D01*
X156436504Y-56300000D01*
X156503013Y-56233491D01*
X156714775Y-55916566D01*
X156860639Y-55564419D01*
X156935000Y-55190581D01*
X156935000Y-55050729D01*
X165556299Y-55050729D01*
X165603543Y-55428951D01*
X165723667Y-55790690D01*
X165855688Y-56037683D01*
X166150776Y-56169619D01*
X167320395Y-55000000D01*
X167679605Y-55000000D01*
X168849224Y-56169619D01*
X169144312Y-56037683D01*
X169315159Y-55696955D01*
X169416250Y-55329443D01*
X169436375Y-55050729D01*
X170556299Y-55050729D01*
X170603543Y-55428951D01*
X170723667Y-55790690D01*
X170855688Y-56037683D01*
X171150776Y-56169619D01*
X172320395Y-55000000D01*
X172679605Y-55000000D01*
X173849224Y-56169619D01*
X174144312Y-56037683D01*
X174315159Y-55696955D01*
X174416250Y-55329443D01*
X174436375Y-55050729D01*
X175556299Y-55050729D01*
X175603543Y-55428951D01*
X175723667Y-55790690D01*
X175855688Y-56037683D01*
X176150776Y-56169619D01*
X177320395Y-55000000D01*
X177679605Y-55000000D01*
X178849224Y-56169619D01*
X179144312Y-56037683D01*
X179315159Y-55696955D01*
X179416250Y-55329443D01*
X179436375Y-55050729D01*
X180556299Y-55050729D01*
X180603543Y-55428951D01*
X180723667Y-55790690D01*
X180855688Y-56037683D01*
X181150776Y-56169619D01*
X182320395Y-55000000D01*
X182679605Y-55000000D01*
X183849224Y-56169619D01*
X184144312Y-56037683D01*
X184315159Y-55696955D01*
X184416250Y-55329443D01*
X184436375Y-55050729D01*
X185556299Y-55050729D01*
X185603543Y-55428951D01*
X185723667Y-55790690D01*
X185855688Y-56037683D01*
X186150776Y-56169619D01*
X187320395Y-55000000D01*
X187679605Y-55000000D01*
X188849224Y-56169619D01*
X189144312Y-56037683D01*
X189315159Y-55696955D01*
X189416250Y-55329443D01*
X189436375Y-55050729D01*
X190556299Y-55050729D01*
X190603543Y-55428951D01*
X190723667Y-55790690D01*
X190855688Y-56037683D01*
X191150776Y-56169619D01*
X192320395Y-55000000D01*
X192679605Y-55000000D01*
X193849224Y-56169619D01*
X194144312Y-56037683D01*
X194315159Y-55696955D01*
X194416250Y-55329443D01*
X194436375Y-55050729D01*
X195556299Y-55050729D01*
X195603543Y-55428951D01*
X195723667Y-55790690D01*
X195855688Y-56037683D01*
X196150776Y-56169619D01*
X197320395Y-55000000D01*
X197679605Y-55000000D01*
X198849224Y-56169619D01*
X199144312Y-56037683D01*
X199315159Y-55696955D01*
X199416250Y-55329443D01*
X199443701Y-54949271D01*
X199426232Y-54809419D01*
X200565000Y-54809419D01*
X200565000Y-55190581D01*
X200639361Y-55564419D01*
X200785225Y-55916566D01*
X200996987Y-56233491D01*
X201266509Y-56503013D01*
X201583434Y-56714775D01*
X201935581Y-56860639D01*
X202309419Y-56935000D01*
X202690581Y-56935000D01*
X203064419Y-56860639D01*
X203416566Y-56714775D01*
X203733491Y-56503013D01*
X204003013Y-56233491D01*
X204214775Y-55916566D01*
X204360639Y-55564419D01*
X204435000Y-55190581D01*
X204435000Y-54809419D01*
X205565000Y-54809419D01*
X205565000Y-55190581D01*
X205639361Y-55564419D01*
X205785225Y-55916566D01*
X205996987Y-56233491D01*
X206266509Y-56503013D01*
X206583434Y-56714775D01*
X206935581Y-56860639D01*
X207309419Y-56935000D01*
X207690581Y-56935000D01*
X208064419Y-56860639D01*
X208416566Y-56714775D01*
X208733491Y-56503013D01*
X209003013Y-56233491D01*
X209214775Y-55916566D01*
X209360639Y-55564419D01*
X209435000Y-55190581D01*
X209435000Y-54809419D01*
X209360639Y-54435581D01*
X209214775Y-54083434D01*
X209003013Y-53766509D01*
X208733491Y-53496987D01*
X208416566Y-53285225D01*
X208064419Y-53139361D01*
X207690581Y-53065000D01*
X207309419Y-53065000D01*
X206935581Y-53139361D01*
X206583434Y-53285225D01*
X206266509Y-53496987D01*
X205996987Y-53766509D01*
X205785225Y-54083434D01*
X205639361Y-54435581D01*
X205565000Y-54809419D01*
X204435000Y-54809419D01*
X204360639Y-54435581D01*
X204214775Y-54083434D01*
X204003013Y-53766509D01*
X203733491Y-53496987D01*
X203416566Y-53285225D01*
X203064419Y-53139361D01*
X202690581Y-53065000D01*
X202309419Y-53065000D01*
X201935581Y-53139361D01*
X201583434Y-53285225D01*
X201266509Y-53496987D01*
X200996987Y-53766509D01*
X200785225Y-54083434D01*
X200639361Y-54435581D01*
X200565000Y-54809419D01*
X199426232Y-54809419D01*
X199396457Y-54571049D01*
X199276333Y-54209310D01*
X199144312Y-53962317D01*
X198849224Y-53830381D01*
X197679605Y-55000000D01*
X197320395Y-55000000D01*
X196150776Y-53830381D01*
X195855688Y-53962317D01*
X195684841Y-54303045D01*
X195583750Y-54670557D01*
X195556299Y-55050729D01*
X194436375Y-55050729D01*
X194443701Y-54949271D01*
X194396457Y-54571049D01*
X194276333Y-54209310D01*
X194144312Y-53962317D01*
X193849224Y-53830381D01*
X192679605Y-55000000D01*
X192320395Y-55000000D01*
X191150776Y-53830381D01*
X190855688Y-53962317D01*
X190684841Y-54303045D01*
X190583750Y-54670557D01*
X190556299Y-55050729D01*
X189436375Y-55050729D01*
X189443701Y-54949271D01*
X189396457Y-54571049D01*
X189276333Y-54209310D01*
X189144312Y-53962317D01*
X188849224Y-53830381D01*
X187679605Y-55000000D01*
X187320395Y-55000000D01*
X186150776Y-53830381D01*
X185855688Y-53962317D01*
X185684841Y-54303045D01*
X185583750Y-54670557D01*
X185556299Y-55050729D01*
X184436375Y-55050729D01*
X184443701Y-54949271D01*
X184396457Y-54571049D01*
X184276333Y-54209310D01*
X184144312Y-53962317D01*
X183849224Y-53830381D01*
X182679605Y-55000000D01*
X182320395Y-55000000D01*
X181150776Y-53830381D01*
X180855688Y-53962317D01*
X180684841Y-54303045D01*
X180583750Y-54670557D01*
X180556299Y-55050729D01*
X179436375Y-55050729D01*
X179443701Y-54949271D01*
X179396457Y-54571049D01*
X179276333Y-54209310D01*
X179144312Y-53962317D01*
X178849224Y-53830381D01*
X177679605Y-55000000D01*
X177320395Y-55000000D01*
X176150776Y-53830381D01*
X175855688Y-53962317D01*
X175684841Y-54303045D01*
X175583750Y-54670557D01*
X175556299Y-55050729D01*
X174436375Y-55050729D01*
X174443701Y-54949271D01*
X174396457Y-54571049D01*
X174276333Y-54209310D01*
X174144312Y-53962317D01*
X173849224Y-53830381D01*
X172679605Y-55000000D01*
X172320395Y-55000000D01*
X171150776Y-53830381D01*
X170855688Y-53962317D01*
X170684841Y-54303045D01*
X170583750Y-54670557D01*
X170556299Y-55050729D01*
X169436375Y-55050729D01*
X169443701Y-54949271D01*
X169396457Y-54571049D01*
X169276333Y-54209310D01*
X169144312Y-53962317D01*
X168849224Y-53830381D01*
X167679605Y-55000000D01*
X167320395Y-55000000D01*
X166150776Y-53830381D01*
X165855688Y-53962317D01*
X165684841Y-54303045D01*
X165583750Y-54670557D01*
X165556299Y-55050729D01*
X156935000Y-55050729D01*
X156935000Y-54809419D01*
X156860639Y-54435581D01*
X156714775Y-54083434D01*
X156503013Y-53766509D01*
X156436504Y-53700000D01*
X160561928Y-53700000D01*
X160565000Y-54714250D01*
X160723750Y-54873000D01*
X162373000Y-54873000D01*
X162373000Y-53223750D01*
X162627000Y-53223750D01*
X162627000Y-54873000D01*
X164276250Y-54873000D01*
X164435000Y-54714250D01*
X164438072Y-53700000D01*
X164433225Y-53650776D01*
X166330381Y-53650776D01*
X167500000Y-54820395D01*
X168669619Y-53650776D01*
X171330381Y-53650776D01*
X172500000Y-54820395D01*
X173669619Y-53650776D01*
X176330381Y-53650776D01*
X177500000Y-54820395D01*
X178669619Y-53650776D01*
X181330381Y-53650776D01*
X182500000Y-54820395D01*
X183669619Y-53650776D01*
X186330381Y-53650776D01*
X187500000Y-54820395D01*
X188669619Y-53650776D01*
X191330381Y-53650776D01*
X192500000Y-54820395D01*
X193669619Y-53650776D01*
X196330381Y-53650776D01*
X197500000Y-54820395D01*
X198669619Y-53650776D01*
X198537683Y-53355688D01*
X198196955Y-53184841D01*
X197829443Y-53083750D01*
X197449271Y-53056299D01*
X197071049Y-53103543D01*
X196709310Y-53223667D01*
X196462317Y-53355688D01*
X196330381Y-53650776D01*
X193669619Y-53650776D01*
X193537683Y-53355688D01*
X193196955Y-53184841D01*
X192829443Y-53083750D01*
X192449271Y-53056299D01*
X192071049Y-53103543D01*
X191709310Y-53223667D01*
X191462317Y-53355688D01*
X191330381Y-53650776D01*
X188669619Y-53650776D01*
X188537683Y-53355688D01*
X188196955Y-53184841D01*
X187829443Y-53083750D01*
X187449271Y-53056299D01*
X187071049Y-53103543D01*
X186709310Y-53223667D01*
X186462317Y-53355688D01*
X186330381Y-53650776D01*
X183669619Y-53650776D01*
X183537683Y-53355688D01*
X183196955Y-53184841D01*
X182829443Y-53083750D01*
X182449271Y-53056299D01*
X182071049Y-53103543D01*
X181709310Y-53223667D01*
X181462317Y-53355688D01*
X181330381Y-53650776D01*
X178669619Y-53650776D01*
X178537683Y-53355688D01*
X178196955Y-53184841D01*
X177829443Y-53083750D01*
X177449271Y-53056299D01*
X177071049Y-53103543D01*
X176709310Y-53223667D01*
X176462317Y-53355688D01*
X176330381Y-53650776D01*
X173669619Y-53650776D01*
X173537683Y-53355688D01*
X173196955Y-53184841D01*
X172829443Y-53083750D01*
X172449271Y-53056299D01*
X172071049Y-53103543D01*
X171709310Y-53223667D01*
X171462317Y-53355688D01*
X171330381Y-53650776D01*
X168669619Y-53650776D01*
X168537683Y-53355688D01*
X168196955Y-53184841D01*
X167829443Y-53083750D01*
X167449271Y-53056299D01*
X167071049Y-53103543D01*
X166709310Y-53223667D01*
X166462317Y-53355688D01*
X166330381Y-53650776D01*
X164433225Y-53650776D01*
X164425812Y-53575518D01*
X164389502Y-53455820D01*
X164330537Y-53345506D01*
X164251185Y-53248815D01*
X164154494Y-53169463D01*
X164044180Y-53110498D01*
X163924482Y-53074188D01*
X163800000Y-53061928D01*
X162785750Y-53065000D01*
X162627000Y-53223750D01*
X162373000Y-53223750D01*
X162214250Y-53065000D01*
X161200000Y-53061928D01*
X161075518Y-53074188D01*
X160955820Y-53110498D01*
X160845506Y-53169463D01*
X160748815Y-53248815D01*
X160669463Y-53345506D01*
X160610498Y-53455820D01*
X160574188Y-53575518D01*
X160561928Y-53700000D01*
X156436504Y-53700000D01*
X156233491Y-53496987D01*
X155916566Y-53285225D01*
X155564419Y-53139361D01*
X155190581Y-53065000D01*
X154809419Y-53065000D01*
X154435581Y-53139361D01*
X154083434Y-53285225D01*
X153766509Y-53496987D01*
X153496987Y-53766509D01*
X153285225Y-54083434D01*
X153139361Y-54435581D01*
X153065000Y-54809419D01*
X151935000Y-54809419D01*
X151860639Y-54435581D01*
X151714775Y-54083434D01*
X151503013Y-53766509D01*
X151233491Y-53496987D01*
X150916566Y-53285225D01*
X150564419Y-53139361D01*
X150190581Y-53065000D01*
X149809419Y-53065000D01*
X149435581Y-53139361D01*
X149083434Y-53285225D01*
X148766509Y-53496987D01*
X148496987Y-53766509D01*
X148285225Y-54083434D01*
X148139361Y-54435581D01*
X148065000Y-54809419D01*
X146935000Y-54809419D01*
X146860639Y-54435581D01*
X146714775Y-54083434D01*
X146503013Y-53766509D01*
X146233491Y-53496987D01*
X145916566Y-53285225D01*
X145564419Y-53139361D01*
X145190581Y-53065000D01*
X144809419Y-53065000D01*
X144435581Y-53139361D01*
X144083434Y-53285225D01*
X143766509Y-53496987D01*
X143496987Y-53766509D01*
X143285225Y-54083434D01*
X143139361Y-54435581D01*
X143065000Y-54809419D01*
X141935000Y-54809419D01*
X141860639Y-54435581D01*
X141714775Y-54083434D01*
X141503013Y-53766509D01*
X141233491Y-53496987D01*
X140916566Y-53285225D01*
X140564419Y-53139361D01*
X140190581Y-53065000D01*
X139809419Y-53065000D01*
X139435581Y-53139361D01*
X139083434Y-53285225D01*
X138766509Y-53496987D01*
X138496987Y-53766509D01*
X138285225Y-54083434D01*
X138139361Y-54435581D01*
X138065000Y-54809419D01*
X136935000Y-54809419D01*
X136860639Y-54435581D01*
X136714775Y-54083434D01*
X136503013Y-53766509D01*
X136233491Y-53496987D01*
X135916566Y-53285225D01*
X135564419Y-53139361D01*
X135190581Y-53065000D01*
X134809419Y-53065000D01*
X134435581Y-53139361D01*
X134083434Y-53285225D01*
X133766509Y-53496987D01*
X133496987Y-53766509D01*
X133285225Y-54083434D01*
X133139361Y-54435581D01*
X133065000Y-54809419D01*
X131935000Y-54809419D01*
X131860639Y-54435581D01*
X131714775Y-54083434D01*
X131503013Y-53766509D01*
X131233491Y-53496987D01*
X130916566Y-53285225D01*
X130564419Y-53139361D01*
X130190581Y-53065000D01*
X129809419Y-53065000D01*
X129435581Y-53139361D01*
X129083434Y-53285225D01*
X128766509Y-53496987D01*
X128496987Y-53766509D01*
X128285225Y-54083434D01*
X128139361Y-54435581D01*
X128065000Y-54809419D01*
X126935000Y-54809419D01*
X126860639Y-54435581D01*
X126714775Y-54083434D01*
X126503013Y-53766509D01*
X126233491Y-53496987D01*
X125916566Y-53285225D01*
X125564419Y-53139361D01*
X125190581Y-53065000D01*
X124809419Y-53065000D01*
X124435581Y-53139361D01*
X124083434Y-53285225D01*
X123766509Y-53496987D01*
X123496987Y-53766509D01*
X123285225Y-54083434D01*
X123139361Y-54435581D01*
X123065000Y-54809419D01*
X121938072Y-54809419D01*
X121938072Y-53700000D01*
X121925812Y-53575518D01*
X121889502Y-53455820D01*
X121830537Y-53345506D01*
X121751185Y-53248815D01*
X121654494Y-53169463D01*
X121544180Y-53110498D01*
X121424482Y-53074188D01*
X121300000Y-53061928D01*
X118700000Y-53061928D01*
X118575518Y-53074188D01*
X118455820Y-53110498D01*
X118345506Y-53169463D01*
X118248815Y-53248815D01*
X118169463Y-53345506D01*
X118110498Y-53455820D01*
X118074188Y-53575518D01*
X118061928Y-53700000D01*
X114488072Y-53700000D01*
X114488072Y-53650000D01*
X114475812Y-53525518D01*
X114439502Y-53405820D01*
X114380537Y-53295506D01*
X114301185Y-53198815D01*
X114204494Y-53119463D01*
X114094180Y-53060498D01*
X113974482Y-53024188D01*
X113850000Y-53011928D01*
X112150000Y-53011928D01*
X112025518Y-53024188D01*
X111905820Y-53060498D01*
X111795506Y-53119463D01*
X111698815Y-53198815D01*
X111619463Y-53295506D01*
X111560498Y-53405820D01*
X111539607Y-53474687D01*
X111515134Y-53444866D01*
X111289014Y-53259294D01*
X111031034Y-53121401D01*
X110751111Y-53036487D01*
X110532950Y-53015000D01*
X110387050Y-53015000D01*
X110168889Y-53036487D01*
X109888966Y-53121401D01*
X109630986Y-53259294D01*
X109404866Y-53444866D01*
X109219294Y-53670986D01*
X109190000Y-53725791D01*
X109160706Y-53670986D01*
X108975134Y-53444866D01*
X108749014Y-53259294D01*
X108491034Y-53121401D01*
X108211111Y-53036487D01*
X107992950Y-53015000D01*
X107847050Y-53015000D01*
X107628889Y-53036487D01*
X107348966Y-53121401D01*
X107090986Y-53259294D01*
X106864866Y-53444866D01*
X106679294Y-53670986D01*
X106650000Y-53725791D01*
X106620706Y-53670986D01*
X106435134Y-53444866D01*
X106209014Y-53259294D01*
X105951034Y-53121401D01*
X105671111Y-53036487D01*
X105452950Y-53015000D01*
X105307050Y-53015000D01*
X105088889Y-53036487D01*
X104808966Y-53121401D01*
X104550986Y-53259294D01*
X104324866Y-53444866D01*
X104139294Y-53670986D01*
X104110000Y-53725791D01*
X104080706Y-53670986D01*
X103895134Y-53444866D01*
X103669014Y-53259294D01*
X103411034Y-53121401D01*
X103131111Y-53036487D01*
X102912950Y-53015000D01*
X102767050Y-53015000D01*
X102548889Y-53036487D01*
X102268966Y-53121401D01*
X102010986Y-53259294D01*
X101784866Y-53444866D01*
X101599294Y-53670986D01*
X101570000Y-53725791D01*
X101540706Y-53670986D01*
X101355134Y-53444866D01*
X101129014Y-53259294D01*
X100871034Y-53121401D01*
X100591111Y-53036487D01*
X100372950Y-53015000D01*
X100227050Y-53015000D01*
X100008889Y-53036487D01*
X99728966Y-53121401D01*
X99470986Y-53259294D01*
X99244866Y-53444866D01*
X99059294Y-53670986D01*
X99030000Y-53725791D01*
X99000706Y-53670986D01*
X98815134Y-53444866D01*
X98589014Y-53259294D01*
X98331034Y-53121401D01*
X98051111Y-53036487D01*
X97832950Y-53015000D01*
X97687050Y-53015000D01*
X97468889Y-53036487D01*
X97188966Y-53121401D01*
X96930986Y-53259294D01*
X96704866Y-53444866D01*
X96519294Y-53670986D01*
X96490000Y-53725791D01*
X96460706Y-53670986D01*
X96275134Y-53444866D01*
X96049014Y-53259294D01*
X95791034Y-53121401D01*
X95511111Y-53036487D01*
X95292950Y-53015000D01*
X95147050Y-53015000D01*
X94928889Y-53036487D01*
X94648966Y-53121401D01*
X94390986Y-53259294D01*
X94164866Y-53444866D01*
X93979294Y-53670986D01*
X93841401Y-53928966D01*
X93756487Y-54208889D01*
X93727815Y-54500000D01*
X89988072Y-54500000D01*
X89988072Y-53650000D01*
X89975812Y-53525518D01*
X89939502Y-53405820D01*
X89880537Y-53295506D01*
X89801185Y-53198815D01*
X89704494Y-53119463D01*
X89594180Y-53060498D01*
X89474482Y-53024188D01*
X89350000Y-53011928D01*
X87650000Y-53011928D01*
X87525518Y-53024188D01*
X87405820Y-53060498D01*
X87295506Y-53119463D01*
X87198815Y-53198815D01*
X87119463Y-53295506D01*
X87060498Y-53405820D01*
X87039607Y-53474687D01*
X87015134Y-53444866D01*
X86789014Y-53259294D01*
X86531034Y-53121401D01*
X86251111Y-53036487D01*
X86032950Y-53015000D01*
X85887050Y-53015000D01*
X85668889Y-53036487D01*
X85388966Y-53121401D01*
X85130986Y-53259294D01*
X84904866Y-53444866D01*
X84719294Y-53670986D01*
X84690000Y-53725791D01*
X84660706Y-53670986D01*
X84475134Y-53444866D01*
X84249014Y-53259294D01*
X83991034Y-53121401D01*
X83711111Y-53036487D01*
X83492950Y-53015000D01*
X83347050Y-53015000D01*
X83128889Y-53036487D01*
X82848966Y-53121401D01*
X82590986Y-53259294D01*
X82364866Y-53444866D01*
X82179294Y-53670986D01*
X82150000Y-53725791D01*
X82120706Y-53670986D01*
X81935134Y-53444866D01*
X81709014Y-53259294D01*
X81451034Y-53121401D01*
X81171111Y-53036487D01*
X80952950Y-53015000D01*
X80807050Y-53015000D01*
X80588889Y-53036487D01*
X80308966Y-53121401D01*
X80050986Y-53259294D01*
X79824866Y-53444866D01*
X79639294Y-53670986D01*
X79610000Y-53725791D01*
X79580706Y-53670986D01*
X79395134Y-53444866D01*
X79169014Y-53259294D01*
X78911034Y-53121401D01*
X78631111Y-53036487D01*
X78412950Y-53015000D01*
X78267050Y-53015000D01*
X78048889Y-53036487D01*
X77768966Y-53121401D01*
X77510986Y-53259294D01*
X77284866Y-53444866D01*
X77099294Y-53670986D01*
X77070000Y-53725791D01*
X77040706Y-53670986D01*
X76855134Y-53444866D01*
X76629014Y-53259294D01*
X76371034Y-53121401D01*
X76091111Y-53036487D01*
X75872950Y-53015000D01*
X75727050Y-53015000D01*
X75508889Y-53036487D01*
X75228966Y-53121401D01*
X74970986Y-53259294D01*
X74744866Y-53444866D01*
X74559294Y-53670986D01*
X74530000Y-53725791D01*
X74500706Y-53670986D01*
X74315134Y-53444866D01*
X74089014Y-53259294D01*
X73831034Y-53121401D01*
X73551111Y-53036487D01*
X73332950Y-53015000D01*
X73187050Y-53015000D01*
X72968889Y-53036487D01*
X72688966Y-53121401D01*
X72430986Y-53259294D01*
X72204866Y-53444866D01*
X72019294Y-53670986D01*
X71990000Y-53725791D01*
X71960706Y-53670986D01*
X71775134Y-53444866D01*
X71549014Y-53259294D01*
X71291034Y-53121401D01*
X71011111Y-53036487D01*
X70792950Y-53015000D01*
X70647050Y-53015000D01*
X70428889Y-53036487D01*
X70148966Y-53121401D01*
X69890986Y-53259294D01*
X69664866Y-53444866D01*
X69479294Y-53670986D01*
X69450000Y-53725791D01*
X69420706Y-53670986D01*
X69235134Y-53444866D01*
X69009014Y-53259294D01*
X68751034Y-53121401D01*
X68471111Y-53036487D01*
X68252950Y-53015000D01*
X68107050Y-53015000D01*
X67888889Y-53036487D01*
X67608966Y-53121401D01*
X67350986Y-53259294D01*
X67124866Y-53444866D01*
X66939294Y-53670986D01*
X66910000Y-53725791D01*
X66880706Y-53670986D01*
X66695134Y-53444866D01*
X66469014Y-53259294D01*
X66211034Y-53121401D01*
X65931111Y-53036487D01*
X65712950Y-53015000D01*
X65567050Y-53015000D01*
X65348889Y-53036487D01*
X65068966Y-53121401D01*
X64810986Y-53259294D01*
X64584866Y-53444866D01*
X64399294Y-53670986D01*
X64364799Y-53735523D01*
X64295178Y-53618645D01*
X64100269Y-53402412D01*
X63866920Y-53228359D01*
X63604099Y-53103175D01*
X63456890Y-53058524D01*
X63227000Y-53179845D01*
X62973000Y-53179845D01*
X62743110Y-53058524D01*
X62595901Y-53103175D01*
X62333080Y-53228359D01*
X62099731Y-53402412D01*
X61904822Y-53618645D01*
X61755843Y-53868748D01*
X61658519Y-54143109D01*
X53660000Y-54143109D01*
X53660000Y-50660000D01*
X215340000Y-50660000D01*
X215340001Y-74340000D01*
X215340001Y-74340000D01*
G37*
X215340001Y-74340000D02*
X211758850Y-74340000D01*
X211842670Y-74305281D01*
X212196282Y-74069004D01*
X212497004Y-73768282D01*
X212733281Y-73414670D01*
X212896030Y-73021757D01*
X212979000Y-72604643D01*
X212979000Y-72179357D01*
X212896030Y-71762243D01*
X212733281Y-71369330D01*
X212497004Y-71015718D01*
X212196282Y-70714996D01*
X211842670Y-70478719D01*
X211449757Y-70315970D01*
X211032643Y-70233000D01*
X210607357Y-70233000D01*
X210190243Y-70315970D01*
X209797330Y-70478719D01*
X209443718Y-70714996D01*
X209142996Y-71015718D01*
X208906719Y-71369330D01*
X208743970Y-71762243D01*
X208661000Y-72179357D01*
X208661000Y-72604643D01*
X208743970Y-73021757D01*
X208906719Y-73414670D01*
X209142996Y-73768282D01*
X209443718Y-74069004D01*
X209797330Y-74305281D01*
X209881150Y-74340000D01*
X186358850Y-74340000D01*
X186442670Y-74305281D01*
X186796282Y-74069004D01*
X187097004Y-73768282D01*
X187333281Y-73414670D01*
X187496030Y-73021757D01*
X187579000Y-72604643D01*
X187579000Y-72179357D01*
X187496030Y-71762243D01*
X187333281Y-71369330D01*
X187097004Y-71015718D01*
X186796282Y-70714996D01*
X186442670Y-70478719D01*
X186049757Y-70315970D01*
X185632643Y-70233000D01*
X185207357Y-70233000D01*
X184790243Y-70315970D01*
X184397330Y-70478719D01*
X184043718Y-70714996D01*
X183742996Y-71015718D01*
X183506719Y-71369330D01*
X183343970Y-71762243D01*
X183261000Y-72179357D01*
X183261000Y-72604643D01*
X183343970Y-73021757D01*
X183506719Y-73414670D01*
X183742996Y-73768282D01*
X184043718Y-74069004D01*
X184397330Y-74305281D01*
X184481150Y-74340000D01*
X160958850Y-74340000D01*
X161042670Y-74305281D01*
X161396282Y-74069004D01*
X161697004Y-73768282D01*
X161933281Y-73414670D01*
X162096030Y-73021757D01*
X162179000Y-72604643D01*
X162179000Y-72179357D01*
X162096030Y-71762243D01*
X161933281Y-71369330D01*
X161697004Y-71015718D01*
X161396282Y-70714996D01*
X161042670Y-70478719D01*
X160649757Y-70315970D01*
X160232643Y-70233000D01*
X159807357Y-70233000D01*
X159390243Y-70315970D01*
X158997330Y-70478719D01*
X158643718Y-70714996D01*
X158342996Y-71015718D01*
X158106719Y-71369330D01*
X157943970Y-71762243D01*
X157861000Y-72179357D01*
X157861000Y-72604643D01*
X157943970Y-73021757D01*
X158106719Y-73414670D01*
X158342996Y-73768282D01*
X158643718Y-74069004D01*
X158997330Y-74305281D01*
X159081150Y-74340000D01*
X135558850Y-74340000D01*
X135642670Y-74305281D01*
X135996282Y-74069004D01*
X136297004Y-73768282D01*
X136533281Y-73414670D01*
X136696030Y-73021757D01*
X136779000Y-72604643D01*
X136779000Y-72179357D01*
X136696030Y-71762243D01*
X136533281Y-71369330D01*
X136297004Y-71015718D01*
X135996282Y-70714996D01*
X135642670Y-70478719D01*
X135249757Y-70315970D01*
X134832643Y-70233000D01*
X134407357Y-70233000D01*
X133990243Y-70315970D01*
X133597330Y-70478719D01*
X133243718Y-70714996D01*
X132942996Y-71015718D01*
X132706719Y-71369330D01*
X132543970Y-71762243D01*
X132461000Y-72179357D01*
X132461000Y-72604643D01*
X132543970Y-73021757D01*
X132706719Y-73414670D01*
X132942996Y-73768282D01*
X133243718Y-74069004D01*
X133597330Y-74305281D01*
X133681150Y-74340000D01*
X110158850Y-74340000D01*
X110242670Y-74305281D01*
X110596282Y-74069004D01*
X110897004Y-73768282D01*
X111133281Y-73414670D01*
X111296030Y-73021757D01*
X111379000Y-72604643D01*
X111379000Y-72179357D01*
X111296030Y-71762243D01*
X111133281Y-71369330D01*
X110897004Y-71015718D01*
X110596282Y-70714996D01*
X110242670Y-70478719D01*
X109849757Y-70315970D01*
X109432643Y-70233000D01*
X109007357Y-70233000D01*
X108590243Y-70315970D01*
X108197330Y-70478719D01*
X107843718Y-70714996D01*
X107542996Y-71015718D01*
X107306719Y-71369330D01*
X107143970Y-71762243D01*
X107061000Y-72179357D01*
X107061000Y-72604643D01*
X107143970Y-73021757D01*
X107306719Y-73414670D01*
X107542996Y-73768282D01*
X107843718Y-74069004D01*
X108197330Y-74305281D01*
X108281150Y-74340000D01*
X84758850Y-74340000D01*
X84842670Y-74305281D01*
X85196282Y-74069004D01*
X85497004Y-73768282D01*
X85733281Y-73414670D01*
X85896030Y-73021757D01*
X85979000Y-72604643D01*
X85979000Y-72179357D01*
X85896030Y-71762243D01*
X85733281Y-71369330D01*
X85497004Y-71015718D01*
X85196282Y-70714996D01*
X84842670Y-70478719D01*
X84449757Y-70315970D01*
X84032643Y-70233000D01*
X83607357Y-70233000D01*
X83190243Y-70315970D01*
X82797330Y-70478719D01*
X82443718Y-70714996D01*
X82142996Y-71015718D01*
X81906719Y-71369330D01*
X81743970Y-71762243D01*
X81661000Y-72179357D01*
X81661000Y-72604643D01*
X81743970Y-73021757D01*
X81906719Y-73414670D01*
X82142996Y-73768282D01*
X82443718Y-74069004D01*
X82797330Y-74305281D01*
X82881150Y-74340000D01*
X59358850Y-74340000D01*
X59442670Y-74305281D01*
X59796282Y-74069004D01*
X60097004Y-73768282D01*
X60333281Y-73414670D01*
X60496030Y-73021757D01*
X60579000Y-72604643D01*
X60579000Y-72179357D01*
X60496030Y-71762243D01*
X60333281Y-71369330D01*
X60097004Y-71015718D01*
X59796282Y-70714996D01*
X59442670Y-70478719D01*
X59049757Y-70315970D01*
X58632643Y-70233000D01*
X58207357Y-70233000D01*
X57790243Y-70315970D01*
X57397330Y-70478719D01*
X57043718Y-70714996D01*
X56742996Y-71015718D01*
X56506719Y-71369330D01*
X56343970Y-71762243D01*
X56261000Y-72179357D01*
X56261000Y-72604643D01*
X56343970Y-73021757D01*
X56506719Y-73414670D01*
X56742996Y-73768282D01*
X57043718Y-74069004D01*
X57397330Y-74305281D01*
X57481150Y-74340000D01*
X53660000Y-74340000D01*
X53660000Y-69200740D01*
X57090865Y-69200740D01*
X57249764Y-69518758D01*
X57628632Y-69711959D01*
X58037913Y-69827534D01*
X58461876Y-69861042D01*
X58884230Y-69811194D01*
X59288744Y-69679908D01*
X59590236Y-69518758D01*
X59749135Y-69200740D01*
X82490865Y-69200740D01*
X82649764Y-69518758D01*
X83028632Y-69711959D01*
X83437913Y-69827534D01*
X83861876Y-69861042D01*
X84284230Y-69811194D01*
X84688744Y-69679908D01*
X84990236Y-69518758D01*
X85149135Y-69200740D01*
X107890865Y-69200740D01*
X108049764Y-69518758D01*
X108428632Y-69711959D01*
X108837913Y-69827534D01*
X109261876Y-69861042D01*
X109684230Y-69811194D01*
X110088744Y-69679908D01*
X110390236Y-69518758D01*
X110549135Y-69200740D01*
X133290865Y-69200740D01*
X133449764Y-69518758D01*
X133828632Y-69711959D01*
X134237913Y-69827534D01*
X134661876Y-69861042D01*
X135084230Y-69811194D01*
X135488744Y-69679908D01*
X135790236Y-69518758D01*
X135949135Y-69200740D01*
X158690865Y-69200740D01*
X158849764Y-69518758D01*
X159228632Y-69711959D01*
X159637913Y-69827534D01*
X160061876Y-69861042D01*
X160484230Y-69811194D01*
X160888744Y-69679908D01*
X161190236Y-69518758D01*
X161349135Y-69200740D01*
X184090865Y-69200740D01*
X184249764Y-69518758D01*
X184628632Y-69711959D01*
X185037913Y-69827534D01*
X185461876Y-69861042D01*
X185884230Y-69811194D01*
X186288744Y-69679908D01*
X186590236Y-69518758D01*
X186749135Y-69200740D01*
X209490865Y-69200740D01*
X209649764Y-69518758D01*
X210028632Y-69711959D01*
X210437913Y-69827534D01*
X210861876Y-69861042D01*
X211284230Y-69811194D01*
X211688744Y-69679908D01*
X211990236Y-69518758D01*
X212149135Y-69200740D01*
X210820000Y-67871605D01*
X209490865Y-69200740D01*
X186749135Y-69200740D01*
X185420000Y-67871605D01*
X184090865Y-69200740D01*
X161349135Y-69200740D01*
X160020000Y-67871605D01*
X158690865Y-69200740D01*
X135949135Y-69200740D01*
X134620000Y-67871605D01*
X133290865Y-69200740D01*
X110549135Y-69200740D01*
X109220000Y-67871605D01*
X107890865Y-69200740D01*
X85149135Y-69200740D01*
X83820000Y-67871605D01*
X82490865Y-69200740D01*
X59749135Y-69200740D01*
X58420000Y-67871605D01*
X57090865Y-69200740D01*
X53660000Y-69200740D01*
X53660000Y-67733876D01*
X56250958Y-67733876D01*
X56300806Y-68156230D01*
X56432092Y-68560744D01*
X56593242Y-68862236D01*
X56911260Y-69021135D01*
X58240395Y-67692000D01*
X58599605Y-67692000D01*
X59928740Y-69021135D01*
X60246758Y-68862236D01*
X60439959Y-68483368D01*
X60555534Y-68074087D01*
X60582422Y-67733876D01*
X81650958Y-67733876D01*
X81700806Y-68156230D01*
X81832092Y-68560744D01*
X81993242Y-68862236D01*
X82311260Y-69021135D01*
X83640395Y-67692000D01*
X83999605Y-67692000D01*
X85328740Y-69021135D01*
X85646758Y-68862236D01*
X85839959Y-68483368D01*
X85955534Y-68074087D01*
X85982422Y-67733876D01*
X107050958Y-67733876D01*
X107100806Y-68156230D01*
X107232092Y-68560744D01*
X107393242Y-68862236D01*
X107711260Y-69021135D01*
X109040395Y-67692000D01*
X109399605Y-67692000D01*
X110728740Y-69021135D01*
X111046758Y-68862236D01*
X111239959Y-68483368D01*
X111355534Y-68074087D01*
X111382422Y-67733876D01*
X132450958Y-67733876D01*
X132500806Y-68156230D01*
X132632092Y-68560744D01*
X132793242Y-68862236D01*
X133111260Y-69021135D01*
X134440395Y-67692000D01*
X134799605Y-67692000D01*
X136128740Y-69021135D01*
X136446758Y-68862236D01*
X136639959Y-68483368D01*
X136755534Y-68074087D01*
X136782422Y-67733876D01*
X157850958Y-67733876D01*
X157900806Y-68156230D01*
X158032092Y-68560744D01*
X158193242Y-68862236D01*
X158511260Y-69021135D01*
X159840395Y-67692000D01*
X160199605Y-67692000D01*
X161528740Y-69021135D01*
X161846758Y-68862236D01*
X162039959Y-68483368D01*
X162155534Y-68074087D01*
X162182422Y-67733876D01*
X183250958Y-67733876D01*
X183300806Y-68156230D01*
X183432092Y-68560744D01*
X183593242Y-68862236D01*
X183911260Y-69021135D01*
X185240395Y-67692000D01*
X185599605Y-67692000D01*
X186928740Y-69021135D01*
X187246758Y-68862236D01*
X187439959Y-68483368D01*
X187555534Y-68074087D01*
X187582422Y-67733876D01*
X208650958Y-67733876D01*
X208700806Y-68156230D01*
X208832092Y-68560744D01*
X208993242Y-68862236D01*
X209311260Y-69021135D01*
X210640395Y-67692000D01*
X210999605Y-67692000D01*
X212328740Y-69021135D01*
X212646758Y-68862236D01*
X212839959Y-68483368D01*
X212955534Y-68074087D01*
X212989042Y-67650124D01*
X212939194Y-67227770D01*
X212807908Y-66823256D01*
X212646758Y-66521764D01*
X212328740Y-66362865D01*
X210999605Y-67692000D01*
X210640395Y-67692000D01*
X209311260Y-66362865D01*
X208993242Y-66521764D01*
X208800041Y-66900632D01*
X208684466Y-67309913D01*
X208650958Y-67733876D01*
X187582422Y-67733876D01*
X187589042Y-67650124D01*
X187539194Y-67227770D01*
X187407908Y-66823256D01*
X187246758Y-66521764D01*
X186928740Y-66362865D01*
X185599605Y-67692000D01*
X185240395Y-67692000D01*
X183911260Y-66362865D01*
X183593242Y-66521764D01*
X183400041Y-66900632D01*
X183284466Y-67309913D01*
X183250958Y-67733876D01*
X162182422Y-67733876D01*
X162189042Y-67650124D01*
X162139194Y-67227770D01*
X162007908Y-66823256D01*
X161846758Y-66521764D01*
X161528740Y-66362865D01*
X160199605Y-67692000D01*
X159840395Y-67692000D01*
X158511260Y-66362865D01*
X158193242Y-66521764D01*
X158000041Y-66900632D01*
X157884466Y-67309913D01*
X157850958Y-67733876D01*
X136782422Y-67733876D01*
X136789042Y-67650124D01*
X136739194Y-67227770D01*
X136607908Y-66823256D01*
X136446758Y-66521764D01*
X136128740Y-66362865D01*
X134799605Y-67692000D01*
X134440395Y-67692000D01*
X133111260Y-66362865D01*
X132793242Y-66521764D01*
X132600041Y-66900632D01*
X132484466Y-67309913D01*
X132450958Y-67733876D01*
X111382422Y-67733876D01*
X111389042Y-67650124D01*
X111339194Y-67227770D01*
X111207908Y-66823256D01*
X111046758Y-66521764D01*
X110728740Y-66362865D01*
X109399605Y-67692000D01*
X109040395Y-67692000D01*
X107711260Y-66362865D01*
X107393242Y-66521764D01*
X107200041Y-66900632D01*
X107084466Y-67309913D01*
X107050958Y-67733876D01*
X85982422Y-67733876D01*
X85989042Y-67650124D01*
X85939194Y-67227770D01*
X85807908Y-66823256D01*
X85646758Y-66521764D01*
X85328740Y-66362865D01*
X83999605Y-67692000D01*
X83640395Y-67692000D01*
X82311260Y-66362865D01*
X81993242Y-66521764D01*
X81800041Y-66900632D01*
X81684466Y-67309913D01*
X81650958Y-67733876D01*
X60582422Y-67733876D01*
X60589042Y-67650124D01*
X60539194Y-67227770D01*
X60407908Y-66823256D01*
X60246758Y-66521764D01*
X59928740Y-66362865D01*
X58599605Y-67692000D01*
X58240395Y-67692000D01*
X56911260Y-66362865D01*
X56593242Y-66521764D01*
X56400041Y-66900632D01*
X56284466Y-67309913D01*
X56250958Y-67733876D01*
X53660000Y-67733876D01*
X53660000Y-66183260D01*
X57090865Y-66183260D01*
X58420000Y-67512395D01*
X59749135Y-66183260D01*
X82490865Y-66183260D01*
X83820000Y-67512395D01*
X85149135Y-66183260D01*
X107890865Y-66183260D01*
X109220000Y-67512395D01*
X110549135Y-66183260D01*
X133290865Y-66183260D01*
X134620000Y-67512395D01*
X135949135Y-66183260D01*
X158690865Y-66183260D01*
X160020000Y-67512395D01*
X161349135Y-66183260D01*
X184090865Y-66183260D01*
X185420000Y-67512395D01*
X186749135Y-66183260D01*
X209490865Y-66183260D01*
X210820000Y-67512395D01*
X212149135Y-66183260D01*
X211990236Y-65865242D01*
X211611368Y-65672041D01*
X211202087Y-65556466D01*
X210778124Y-65522958D01*
X210355770Y-65572806D01*
X209951256Y-65704092D01*
X209649764Y-65865242D01*
X209490865Y-66183260D01*
X186749135Y-66183260D01*
X186590236Y-65865242D01*
X186211368Y-65672041D01*
X185802087Y-65556466D01*
X185378124Y-65522958D01*
X184955770Y-65572806D01*
X184551256Y-65704092D01*
X184249764Y-65865242D01*
X184090865Y-66183260D01*
X161349135Y-66183260D01*
X161190236Y-65865242D01*
X160811368Y-65672041D01*
X160402087Y-65556466D01*
X159978124Y-65522958D01*
X159555770Y-65572806D01*
X159151256Y-65704092D01*
X158849764Y-65865242D01*
X158690865Y-66183260D01*
X135949135Y-66183260D01*
X135790236Y-65865242D01*
X135411368Y-65672041D01*
X135002087Y-65556466D01*
X134578124Y-65522958D01*
X134155770Y-65572806D01*
X133751256Y-65704092D01*
X133449764Y-65865242D01*
X133290865Y-66183260D01*
X110549135Y-66183260D01*
X110390236Y-65865242D01*
X110011368Y-65672041D01*
X109602087Y-65556466D01*
X109178124Y-65522958D01*
X108755770Y-65572806D01*
X108351256Y-65704092D01*
X108049764Y-65865242D01*
X107890865Y-66183260D01*
X85149135Y-66183260D01*
X84990236Y-65865242D01*
X84611368Y-65672041D01*
X84202087Y-65556466D01*
X83778124Y-65522958D01*
X83355770Y-65572806D01*
X82951256Y-65704092D01*
X82649764Y-65865242D01*
X82490865Y-66183260D01*
X59749135Y-66183260D01*
X59590236Y-65865242D01*
X59211368Y-65672041D01*
X58802087Y-65556466D01*
X58378124Y-65522958D01*
X57955770Y-65572806D01*
X57551256Y-65704092D01*
X57249764Y-65865242D01*
X57090865Y-66183260D01*
X53660000Y-66183260D01*
X53660000Y-62779357D01*
X56261000Y-62779357D01*
X56261000Y-63204643D01*
X56343970Y-63621757D01*
X56506719Y-64014670D01*
X56742996Y-64368282D01*
X57043718Y-64669004D01*
X57397330Y-64905281D01*
X57790243Y-65068030D01*
X58207357Y-65151000D01*
X58632643Y-65151000D01*
X59049757Y-65068030D01*
X59442670Y-64905281D01*
X59796282Y-64669004D01*
X60097004Y-64368282D01*
X60333281Y-64014670D01*
X60496030Y-63621757D01*
X60579000Y-63204643D01*
X60579000Y-62779357D01*
X81661000Y-62779357D01*
X81661000Y-63204643D01*
X81743970Y-63621757D01*
X81906719Y-64014670D01*
X82142996Y-64368282D01*
X82443718Y-64669004D01*
X82797330Y-64905281D01*
X83190243Y-65068030D01*
X83607357Y-65151000D01*
X84032643Y-65151000D01*
X84449757Y-65068030D01*
X84842670Y-64905281D01*
X85196282Y-64669004D01*
X85497004Y-64368282D01*
X85733281Y-64014670D01*
X85896030Y-63621757D01*
X85979000Y-63204643D01*
X85979000Y-62779357D01*
X107061000Y-62779357D01*
X107061000Y-63204643D01*
X107143970Y-63621757D01*
X107306719Y-64014670D01*
X107542996Y-64368282D01*
X107843718Y-64669004D01*
X108197330Y-64905281D01*
X108590243Y-65068030D01*
X109007357Y-65151000D01*
X109432643Y-65151000D01*
X109849757Y-65068030D01*
X110242670Y-64905281D01*
X110596282Y-64669004D01*
X110897004Y-64368282D01*
X111133281Y-64014670D01*
X111296030Y-63621757D01*
X111379000Y-63204643D01*
X111379000Y-62779357D01*
X132461000Y-62779357D01*
X132461000Y-63204643D01*
X132543970Y-63621757D01*
X132706719Y-64014670D01*
X132942996Y-64368282D01*
X133243718Y-64669004D01*
X133597330Y-64905281D01*
X133990243Y-65068030D01*
X134407357Y-65151000D01*
X134832643Y-65151000D01*
X135249757Y-65068030D01*
X135642670Y-64905281D01*
X135996282Y-64669004D01*
X136297004Y-64368282D01*
X136533281Y-64014670D01*
X136696030Y-63621757D01*
X136779000Y-63204643D01*
X136779000Y-62779357D01*
X157861000Y-62779357D01*
X157861000Y-63204643D01*
X157943970Y-63621757D01*
X158106719Y-64014670D01*
X158342996Y-64368282D01*
X158643718Y-64669004D01*
X158997330Y-64905281D01*
X159390243Y-65068030D01*
X159807357Y-65151000D01*
X160232643Y-65151000D01*
X160649757Y-65068030D01*
X161042670Y-64905281D01*
X161396282Y-64669004D01*
X161697004Y-64368282D01*
X161933281Y-64014670D01*
X162096030Y-63621757D01*
X162179000Y-63204643D01*
X162179000Y-62779357D01*
X183261000Y-62779357D01*
X183261000Y-63204643D01*
X183343970Y-63621757D01*
X183506719Y-64014670D01*
X183742996Y-64368282D01*
X184043718Y-64669004D01*
X184397330Y-64905281D01*
X184790243Y-65068030D01*
X185207357Y-65151000D01*
X185632643Y-65151000D01*
X186049757Y-65068030D01*
X186442670Y-64905281D01*
X186796282Y-64669004D01*
X187097004Y-64368282D01*
X187333281Y-64014670D01*
X187496030Y-63621757D01*
X187579000Y-63204643D01*
X187579000Y-62779357D01*
X208661000Y-62779357D01*
X208661000Y-63204643D01*
X208743970Y-63621757D01*
X208906719Y-64014670D01*
X209142996Y-64368282D01*
X209443718Y-64669004D01*
X209797330Y-64905281D01*
X210190243Y-65068030D01*
X210607357Y-65151000D01*
X211032643Y-65151000D01*
X211449757Y-65068030D01*
X211842670Y-64905281D01*
X212196282Y-64669004D01*
X212497004Y-64368282D01*
X212733281Y-64014670D01*
X212896030Y-63621757D01*
X212979000Y-63204643D01*
X212979000Y-62779357D01*
X212896030Y-62362243D01*
X212733281Y-61969330D01*
X212497004Y-61615718D01*
X212196282Y-61314996D01*
X211842670Y-61078719D01*
X211449757Y-60915970D01*
X211032643Y-60833000D01*
X210607357Y-60833000D01*
X210190243Y-60915970D01*
X209797330Y-61078719D01*
X209443718Y-61314996D01*
X209142996Y-61615718D01*
X208906719Y-61969330D01*
X208743970Y-62362243D01*
X208661000Y-62779357D01*
X187579000Y-62779357D01*
X187496030Y-62362243D01*
X187333281Y-61969330D01*
X187097004Y-61615718D01*
X186796282Y-61314996D01*
X186442670Y-61078719D01*
X186049757Y-60915970D01*
X185632643Y-60833000D01*
X185207357Y-60833000D01*
X184790243Y-60915970D01*
X184397330Y-61078719D01*
X184043718Y-61314996D01*
X183742996Y-61615718D01*
X183506719Y-61969330D01*
X183343970Y-62362243D01*
X183261000Y-62779357D01*
X162179000Y-62779357D01*
X162096030Y-62362243D01*
X161933281Y-61969330D01*
X161697004Y-61615718D01*
X161396282Y-61314996D01*
X161042670Y-61078719D01*
X160649757Y-60915970D01*
X160232643Y-60833000D01*
X159807357Y-60833000D01*
X159390243Y-60915970D01*
X158997330Y-61078719D01*
X158643718Y-61314996D01*
X158342996Y-61615718D01*
X158106719Y-61969330D01*
X157943970Y-62362243D01*
X157861000Y-62779357D01*
X136779000Y-62779357D01*
X136696030Y-62362243D01*
X136533281Y-61969330D01*
X136297004Y-61615718D01*
X135996282Y-61314996D01*
X135642670Y-61078719D01*
X135249757Y-60915970D01*
X134832643Y-60833000D01*
X134407357Y-60833000D01*
X133990243Y-60915970D01*
X133597330Y-61078719D01*
X133243718Y-61314996D01*
X132942996Y-61615718D01*
X132706719Y-61969330D01*
X132543970Y-62362243D01*
X132461000Y-62779357D01*
X111379000Y-62779357D01*
X111296030Y-62362243D01*
X111133281Y-61969330D01*
X110897004Y-61615718D01*
X110596282Y-61314996D01*
X110242670Y-61078719D01*
X109849757Y-60915970D01*
X109432643Y-60833000D01*
X109007357Y-60833000D01*
X108590243Y-60915970D01*
X108197330Y-61078719D01*
X107843718Y-61314996D01*
X107542996Y-61615718D01*
X107306719Y-61969330D01*
X107143970Y-62362243D01*
X107061000Y-62779357D01*
X85979000Y-62779357D01*
X85896030Y-62362243D01*
X85733281Y-61969330D01*
X85497004Y-61615718D01*
X85196282Y-61314996D01*
X84842670Y-61078719D01*
X84449757Y-60915970D01*
X84032643Y-60833000D01*
X83607357Y-60833000D01*
X83190243Y-60915970D01*
X82797330Y-61078719D01*
X82443718Y-61314996D01*
X82142996Y-61615718D01*
X81906719Y-61969330D01*
X81743970Y-62362243D01*
X81661000Y-62779357D01*
X60579000Y-62779357D01*
X60496030Y-62362243D01*
X60333281Y-61969330D01*
X60097004Y-61615718D01*
X59796282Y-61314996D01*
X59442670Y-61078719D01*
X59049757Y-60915970D01*
X58632643Y-60833000D01*
X58207357Y-60833000D01*
X57790243Y-60915970D01*
X57397330Y-61078719D01*
X57043718Y-61314996D01*
X56742996Y-61615718D01*
X56506719Y-61969330D01*
X56343970Y-62362243D01*
X56261000Y-62779357D01*
X53660000Y-62779357D01*
X53660000Y-54856891D01*
X61658519Y-54856891D01*
X61755843Y-55131252D01*
X61904822Y-55381355D01*
X62099731Y-55597588D01*
X62333080Y-55771641D01*
X62595901Y-55896825D01*
X62743110Y-55941476D01*
X62973000Y-55820155D01*
X62973000Y-54627000D01*
X61779186Y-54627000D01*
X61658519Y-54856891D01*
X53660000Y-54856891D01*
X53660000Y-54143109D01*
X61658519Y-54143109D01*
X61779186Y-54373000D01*
X62973000Y-54373000D01*
X62973000Y-53179845D01*
X63227000Y-53179845D01*
X63227000Y-54373000D01*
X63247000Y-54373000D01*
X63247000Y-54627000D01*
X63227000Y-54627000D01*
X63227000Y-55820155D01*
X63456890Y-55941476D01*
X63604099Y-55896825D01*
X63866920Y-55771641D01*
X64100269Y-55597588D01*
X64295178Y-55381355D01*
X64364799Y-55264477D01*
X64399294Y-55329014D01*
X64584866Y-55555134D01*
X64810986Y-55740706D01*
X65068966Y-55878599D01*
X65348889Y-55963513D01*
X65567050Y-55985000D01*
X65712950Y-55985000D01*
X65931111Y-55963513D01*
X66211034Y-55878599D01*
X66469014Y-55740706D01*
X66695134Y-55555134D01*
X66880706Y-55329014D01*
X66910000Y-55274209D01*
X66939294Y-55329014D01*
X67124866Y-55555134D01*
X67350986Y-55740706D01*
X67608966Y-55878599D01*
X67888889Y-55963513D01*
X68107050Y-55985000D01*
X68252950Y-55985000D01*
X68471111Y-55963513D01*
X68751034Y-55878599D01*
X69009014Y-55740706D01*
X69235134Y-55555134D01*
X69420706Y-55329014D01*
X69450000Y-55274209D01*
X69479294Y-55329014D01*
X69664866Y-55555134D01*
X69890986Y-55740706D01*
X70148966Y-55878599D01*
X70428889Y-55963513D01*
X70647050Y-55985000D01*
X70792950Y-55985000D01*
X71011111Y-55963513D01*
X71291034Y-55878599D01*
X71549014Y-55740706D01*
X71775134Y-55555134D01*
X71960706Y-55329014D01*
X71990000Y-55274209D01*
X72019294Y-55329014D01*
X72204866Y-55555134D01*
X72430986Y-55740706D01*
X72688966Y-55878599D01*
X72968889Y-55963513D01*
X73187050Y-55985000D01*
X73332950Y-55985000D01*
X73551111Y-55963513D01*
X73831034Y-55878599D01*
X74089014Y-55740706D01*
X74315134Y-55555134D01*
X74500706Y-55329014D01*
X74530000Y-55274209D01*
X74559294Y-55329014D01*
X74744866Y-55555134D01*
X74970986Y-55740706D01*
X75228966Y-55878599D01*
X75508889Y-55963513D01*
X75727050Y-55985000D01*
X75872950Y-55985000D01*
X76091111Y-55963513D01*
X76371034Y-55878599D01*
X76629014Y-55740706D01*
X76855134Y-55555134D01*
X77040706Y-55329014D01*
X77070000Y-55274209D01*
X77099294Y-55329014D01*
X77284866Y-55555134D01*
X77510986Y-55740706D01*
X77768966Y-55878599D01*
X78048889Y-55963513D01*
X78267050Y-55985000D01*
X78412950Y-55985000D01*
X78631111Y-55963513D01*
X78911034Y-55878599D01*
X79169014Y-55740706D01*
X79395134Y-55555134D01*
X79580706Y-55329014D01*
X79610000Y-55274209D01*
X79639294Y-55329014D01*
X79824866Y-55555134D01*
X80050986Y-55740706D01*
X80308966Y-55878599D01*
X80588889Y-55963513D01*
X80807050Y-55985000D01*
X80952950Y-55985000D01*
X81171111Y-55963513D01*
X81451034Y-55878599D01*
X81709014Y-55740706D01*
X81935134Y-55555134D01*
X82120706Y-55329014D01*
X82150000Y-55274209D01*
X82179294Y-55329014D01*
X82364866Y-55555134D01*
X82590986Y-55740706D01*
X82848966Y-55878599D01*
X83128889Y-55963513D01*
X83347050Y-55985000D01*
X83492950Y-55985000D01*
X83711111Y-55963513D01*
X83991034Y-55878599D01*
X84249014Y-55740706D01*
X84475134Y-55555134D01*
X84660706Y-55329014D01*
X84690000Y-55274209D01*
X84719294Y-55329014D01*
X84904866Y-55555134D01*
X85130986Y-55740706D01*
X85388966Y-55878599D01*
X85668889Y-55963513D01*
X85887050Y-55985000D01*
X86032950Y-55985000D01*
X86251111Y-55963513D01*
X86531034Y-55878599D01*
X86789014Y-55740706D01*
X87015134Y-55555134D01*
X87039607Y-55525313D01*
X87060498Y-55594180D01*
X87119463Y-55704494D01*
X87198815Y-55801185D01*
X87295506Y-55880537D01*
X87405820Y-55939502D01*
X87525518Y-55975812D01*
X87650000Y-55988072D01*
X89350000Y-55988072D01*
X89474482Y-55975812D01*
X89594180Y-55939502D01*
X89704494Y-55880537D01*
X89801185Y-55801185D01*
X89880537Y-55704494D01*
X89939502Y-55594180D01*
X89975812Y-55474482D01*
X89988072Y-55350000D01*
X89988072Y-54500000D01*
X93727815Y-54500000D01*
X93756487Y-54791111D01*
X93841401Y-55071034D01*
X93979294Y-55329014D01*
X94164866Y-55555134D01*
X94390986Y-55740706D01*
X94648966Y-55878599D01*
X94928889Y-55963513D01*
X95147050Y-55985000D01*
X95292950Y-55985000D01*
X95511111Y-55963513D01*
X95791034Y-55878599D01*
X96049014Y-55740706D01*
X96275134Y-55555134D01*
X96460706Y-55329014D01*
X96490000Y-55274209D01*
X96519294Y-55329014D01*
X96704866Y-55555134D01*
X96930986Y-55740706D01*
X97188966Y-55878599D01*
X97468889Y-55963513D01*
X97687050Y-55985000D01*
X97832950Y-55985000D01*
X98051111Y-55963513D01*
X98331034Y-55878599D01*
X98589014Y-55740706D01*
X98815134Y-55555134D01*
X99000706Y-55329014D01*
X99030000Y-55274209D01*
X99059294Y-55329014D01*
X99244866Y-55555134D01*
X99470986Y-55740706D01*
X99728966Y-55878599D01*
X100008889Y-55963513D01*
X100227050Y-55985000D01*
X100372950Y-55985000D01*
X100591111Y-55963513D01*
X100871034Y-55878599D01*
X101129014Y-55740706D01*
X101355134Y-55555134D01*
X101540706Y-55329014D01*
X101570000Y-55274209D01*
X101599294Y-55329014D01*
X101784866Y-55555134D01*
X102010986Y-55740706D01*
X102268966Y-55878599D01*
X102548889Y-55963513D01*
X102767050Y-55985000D01*
X102912950Y-55985000D01*
X103131111Y-55963513D01*
X103411034Y-55878599D01*
X103669014Y-55740706D01*
X103895134Y-55555134D01*
X104080706Y-55329014D01*
X104110000Y-55274209D01*
X104139294Y-55329014D01*
X104324866Y-55555134D01*
X104550986Y-55740706D01*
X104808966Y-55878599D01*
X105088889Y-55963513D01*
X105307050Y-55985000D01*
X105452950Y-55985000D01*
X105671111Y-55963513D01*
X105951034Y-55878599D01*
X106209014Y-55740706D01*
X106435134Y-55555134D01*
X106620706Y-55329014D01*
X106650000Y-55274209D01*
X106679294Y-55329014D01*
X106864866Y-55555134D01*
X107090986Y-55740706D01*
X107348966Y-55878599D01*
X107628889Y-55963513D01*
X107847050Y-55985000D01*
X107992950Y-55985000D01*
X108211111Y-55963513D01*
X108491034Y-55878599D01*
X108749014Y-55740706D01*
X108975134Y-55555134D01*
X109160706Y-55329014D01*
X109190000Y-55274209D01*
X109219294Y-55329014D01*
X109404866Y-55555134D01*
X109630986Y-55740706D01*
X109888966Y-55878599D01*
X110168889Y-55963513D01*
X110387050Y-55985000D01*
X110532950Y-55985000D01*
X110751111Y-55963513D01*
X111031034Y-55878599D01*
X111289014Y-55740706D01*
X111515134Y-55555134D01*
X111539607Y-55525313D01*
X111560498Y-55594180D01*
X111619463Y-55704494D01*
X111698815Y-55801185D01*
X111795506Y-55880537D01*
X111905820Y-55939502D01*
X112025518Y-55975812D01*
X112150000Y-55988072D01*
X113850000Y-55988072D01*
X113974482Y-55975812D01*
X114094180Y-55939502D01*
X114204494Y-55880537D01*
X114301185Y-55801185D01*
X114380537Y-55704494D01*
X114439502Y-55594180D01*
X114475812Y-55474482D01*
X114488072Y-55350000D01*
X114488072Y-53700000D01*
X118061928Y-53700000D01*
X118061928Y-56300000D01*
X118074188Y-56424482D01*
X118110498Y-56544180D01*
X118169463Y-56654494D01*
X118248815Y-56751185D01*
X118345506Y-56830537D01*
X118455820Y-56889502D01*
X118575518Y-56925812D01*
X118700000Y-56938072D01*
X121300000Y-56938072D01*
X121424482Y-56925812D01*
X121544180Y-56889502D01*
X121654494Y-56830537D01*
X121751185Y-56751185D01*
X121830537Y-56654494D01*
X121889502Y-56544180D01*
X121925812Y-56424482D01*
X121938072Y-56300000D01*
X121938072Y-54809419D01*
X123065000Y-54809419D01*
X123065000Y-55190581D01*
X123139361Y-55564419D01*
X123285225Y-55916566D01*
X123496987Y-56233491D01*
X123766509Y-56503013D01*
X124083434Y-56714775D01*
X124435581Y-56860639D01*
X124809419Y-56935000D01*
X125190581Y-56935000D01*
X125564419Y-56860639D01*
X125916566Y-56714775D01*
X126233491Y-56503013D01*
X126503013Y-56233491D01*
X126714775Y-55916566D01*
X126860639Y-55564419D01*
X126935000Y-55190581D01*
X126935000Y-54809419D01*
X128065000Y-54809419D01*
X128065000Y-55190581D01*
X128139361Y-55564419D01*
X128285225Y-55916566D01*
X128496987Y-56233491D01*
X128766509Y-56503013D01*
X129083434Y-56714775D01*
X129435581Y-56860639D01*
X129809419Y-56935000D01*
X130190581Y-56935000D01*
X130564419Y-56860639D01*
X130916566Y-56714775D01*
X131233491Y-56503013D01*
X131503013Y-56233491D01*
X131714775Y-55916566D01*
X131860639Y-55564419D01*
X131935000Y-55190581D01*
X131935000Y-54809419D01*
X133065000Y-54809419D01*
X133065000Y-55190581D01*
X133139361Y-55564419D01*
X133285225Y-55916566D01*
X133496987Y-56233491D01*
X133766509Y-56503013D01*
X134083434Y-56714775D01*
X134435581Y-56860639D01*
X134809419Y-56935000D01*
X135190581Y-56935000D01*
X135564419Y-56860639D01*
X135916566Y-56714775D01*
X136233491Y-56503013D01*
X136503013Y-56233491D01*
X136714775Y-55916566D01*
X136860639Y-55564419D01*
X136935000Y-55190581D01*
X136935000Y-54809419D01*
X138065000Y-54809419D01*
X138065000Y-55190581D01*
X138139361Y-55564419D01*
X138285225Y-55916566D01*
X138496987Y-56233491D01*
X138766509Y-56503013D01*
X139083434Y-56714775D01*
X139435581Y-56860639D01*
X139809419Y-56935000D01*
X140190581Y-56935000D01*
X140564419Y-56860639D01*
X140916566Y-56714775D01*
X141233491Y-56503013D01*
X141503013Y-56233491D01*
X141714775Y-55916566D01*
X141860639Y-55564419D01*
X141935000Y-55190581D01*
X141935000Y-54809419D01*
X143065000Y-54809419D01*
X143065000Y-55190581D01*
X143139361Y-55564419D01*
X143285225Y-55916566D01*
X143496987Y-56233491D01*
X143766509Y-56503013D01*
X144083434Y-56714775D01*
X144435581Y-56860639D01*
X144809419Y-56935000D01*
X145190581Y-56935000D01*
X145564419Y-56860639D01*
X145916566Y-56714775D01*
X146233491Y-56503013D01*
X146503013Y-56233491D01*
X146714775Y-55916566D01*
X146860639Y-55564419D01*
X146935000Y-55190581D01*
X146935000Y-54809419D01*
X148065000Y-54809419D01*
X148065000Y-55190581D01*
X148139361Y-55564419D01*
X148285225Y-55916566D01*
X148496987Y-56233491D01*
X148766509Y-56503013D01*
X149083434Y-56714775D01*
X149435581Y-56860639D01*
X149809419Y-56935000D01*
X150190581Y-56935000D01*
X150564419Y-56860639D01*
X150916566Y-56714775D01*
X151233491Y-56503013D01*
X151503013Y-56233491D01*
X151714775Y-55916566D01*
X151860639Y-55564419D01*
X151935000Y-55190581D01*
X151935000Y-54809419D01*
X153065000Y-54809419D01*
X153065000Y-55190581D01*
X153139361Y-55564419D01*
X153285225Y-55916566D01*
X153496987Y-56233491D01*
X153766509Y-56503013D01*
X154083434Y-56714775D01*
X154435581Y-56860639D01*
X154809419Y-56935000D01*
X155190581Y-56935000D01*
X155564419Y-56860639D01*
X155916566Y-56714775D01*
X156233491Y-56503013D01*
X156436504Y-56300000D01*
X160561928Y-56300000D01*
X160574188Y-56424482D01*
X160610498Y-56544180D01*
X160669463Y-56654494D01*
X160748815Y-56751185D01*
X160845506Y-56830537D01*
X160955820Y-56889502D01*
X161075518Y-56925812D01*
X161200000Y-56938072D01*
X162214250Y-56935000D01*
X162373000Y-56776250D01*
X162373000Y-55127000D01*
X162627000Y-55127000D01*
X162627000Y-56776250D01*
X162785750Y-56935000D01*
X163800000Y-56938072D01*
X163924482Y-56925812D01*
X164044180Y-56889502D01*
X164154494Y-56830537D01*
X164251185Y-56751185D01*
X164330537Y-56654494D01*
X164389502Y-56544180D01*
X164425812Y-56424482D01*
X164433224Y-56349224D01*
X166330381Y-56349224D01*
X166462317Y-56644312D01*
X166803045Y-56815159D01*
X167170557Y-56916250D01*
X167550729Y-56943701D01*
X167928951Y-56896457D01*
X168290690Y-56776333D01*
X168537683Y-56644312D01*
X168669619Y-56349224D01*
X171330381Y-56349224D01*
X171462317Y-56644312D01*
X171803045Y-56815159D01*
X172170557Y-56916250D01*
X172550729Y-56943701D01*
X172928951Y-56896457D01*
X173290690Y-56776333D01*
X173537683Y-56644312D01*
X173669619Y-56349224D01*
X176330381Y-56349224D01*
X176462317Y-56644312D01*
X176803045Y-56815159D01*
X177170557Y-56916250D01*
X177550729Y-56943701D01*
X177928951Y-56896457D01*
X178290690Y-56776333D01*
X178537683Y-56644312D01*
X178669619Y-56349224D01*
X181330381Y-56349224D01*
X181462317Y-56644312D01*
X181803045Y-56815159D01*
X182170557Y-56916250D01*
X182550729Y-56943701D01*
X182928951Y-56896457D01*
X183290690Y-56776333D01*
X183537683Y-56644312D01*
X183669619Y-56349224D01*
X186330381Y-56349224D01*
X186462317Y-56644312D01*
X186803045Y-56815159D01*
X187170557Y-56916250D01*
X187550729Y-56943701D01*
X187928951Y-56896457D01*
X188290690Y-56776333D01*
X188537683Y-56644312D01*
X188669619Y-56349224D01*
X191330381Y-56349224D01*
X191462317Y-56644312D01*
X191803045Y-56815159D01*
X192170557Y-56916250D01*
X192550729Y-56943701D01*
X192928951Y-56896457D01*
X193290690Y-56776333D01*
X193537683Y-56644312D01*
X193669619Y-56349224D01*
X196330381Y-56349224D01*
X196462317Y-56644312D01*
X196803045Y-56815159D01*
X197170557Y-56916250D01*
X197550729Y-56943701D01*
X197928951Y-56896457D01*
X198290690Y-56776333D01*
X198537683Y-56644312D01*
X198669619Y-56349224D01*
X197500000Y-55179605D01*
X196330381Y-56349224D01*
X193669619Y-56349224D01*
X192500000Y-55179605D01*
X191330381Y-56349224D01*
X188669619Y-56349224D01*
X187500000Y-55179605D01*
X186330381Y-56349224D01*
X183669619Y-56349224D01*
X182500000Y-55179605D01*
X181330381Y-56349224D01*
X178669619Y-56349224D01*
X177500000Y-55179605D01*
X176330381Y-56349224D01*
X173669619Y-56349224D01*
X172500000Y-55179605D01*
X171330381Y-56349224D01*
X168669619Y-56349224D01*
X167500000Y-55179605D01*
X166330381Y-56349224D01*
X164433224Y-56349224D01*
X164438072Y-56300000D01*
X164435000Y-55285750D01*
X164276250Y-55127000D01*
X162627000Y-55127000D01*
X162373000Y-55127000D01*
X160723750Y-55127000D01*
X160565000Y-55285750D01*
X160561928Y-56300000D01*
X156436504Y-56300000D01*
X156503013Y-56233491D01*
X156714775Y-55916566D01*
X156860639Y-55564419D01*
X156935000Y-55190581D01*
X156935000Y-55050729D01*
X165556299Y-55050729D01*
X165603543Y-55428951D01*
X165723667Y-55790690D01*
X165855688Y-56037683D01*
X166150776Y-56169619D01*
X167320395Y-55000000D01*
X167679605Y-55000000D01*
X168849224Y-56169619D01*
X169144312Y-56037683D01*
X169315159Y-55696955D01*
X169416250Y-55329443D01*
X169436375Y-55050729D01*
X170556299Y-55050729D01*
X170603543Y-55428951D01*
X170723667Y-55790690D01*
X170855688Y-56037683D01*
X171150776Y-56169619D01*
X172320395Y-55000000D01*
X172679605Y-55000000D01*
X173849224Y-56169619D01*
X174144312Y-56037683D01*
X174315159Y-55696955D01*
X174416250Y-55329443D01*
X174436375Y-55050729D01*
X175556299Y-55050729D01*
X175603543Y-55428951D01*
X175723667Y-55790690D01*
X175855688Y-56037683D01*
X176150776Y-56169619D01*
X177320395Y-55000000D01*
X177679605Y-55000000D01*
X178849224Y-56169619D01*
X179144312Y-56037683D01*
X179315159Y-55696955D01*
X179416250Y-55329443D01*
X179436375Y-55050729D01*
X180556299Y-55050729D01*
X180603543Y-55428951D01*
X180723667Y-55790690D01*
X180855688Y-56037683D01*
X181150776Y-56169619D01*
X182320395Y-55000000D01*
X182679605Y-55000000D01*
X183849224Y-56169619D01*
X184144312Y-56037683D01*
X184315159Y-55696955D01*
X184416250Y-55329443D01*
X184436375Y-55050729D01*
X185556299Y-55050729D01*
X185603543Y-55428951D01*
X185723667Y-55790690D01*
X185855688Y-56037683D01*
X186150776Y-56169619D01*
X187320395Y-55000000D01*
X187679605Y-55000000D01*
X188849224Y-56169619D01*
X189144312Y-56037683D01*
X189315159Y-55696955D01*
X189416250Y-55329443D01*
X189436375Y-55050729D01*
X190556299Y-55050729D01*
X190603543Y-55428951D01*
X190723667Y-55790690D01*
X190855688Y-56037683D01*
X191150776Y-56169619D01*
X192320395Y-55000000D01*
X192679605Y-55000000D01*
X193849224Y-56169619D01*
X194144312Y-56037683D01*
X194315159Y-55696955D01*
X194416250Y-55329443D01*
X194436375Y-55050729D01*
X195556299Y-55050729D01*
X195603543Y-55428951D01*
X195723667Y-55790690D01*
X195855688Y-56037683D01*
X196150776Y-56169619D01*
X197320395Y-55000000D01*
X197679605Y-55000000D01*
X198849224Y-56169619D01*
X199144312Y-56037683D01*
X199315159Y-55696955D01*
X199416250Y-55329443D01*
X199443701Y-54949271D01*
X199426232Y-54809419D01*
X200565000Y-54809419D01*
X200565000Y-55190581D01*
X200639361Y-55564419D01*
X200785225Y-55916566D01*
X200996987Y-56233491D01*
X201266509Y-56503013D01*
X201583434Y-56714775D01*
X201935581Y-56860639D01*
X202309419Y-56935000D01*
X202690581Y-56935000D01*
X203064419Y-56860639D01*
X203416566Y-56714775D01*
X203733491Y-56503013D01*
X204003013Y-56233491D01*
X204214775Y-55916566D01*
X204360639Y-55564419D01*
X204435000Y-55190581D01*
X204435000Y-54809419D01*
X205565000Y-54809419D01*
X205565000Y-55190581D01*
X205639361Y-55564419D01*
X205785225Y-55916566D01*
X205996987Y-56233491D01*
X206266509Y-56503013D01*
X206583434Y-56714775D01*
X206935581Y-56860639D01*
X207309419Y-56935000D01*
X207690581Y-56935000D01*
X208064419Y-56860639D01*
X208416566Y-56714775D01*
X208733491Y-56503013D01*
X209003013Y-56233491D01*
X209214775Y-55916566D01*
X209360639Y-55564419D01*
X209435000Y-55190581D01*
X209435000Y-54809419D01*
X209360639Y-54435581D01*
X209214775Y-54083434D01*
X209003013Y-53766509D01*
X208733491Y-53496987D01*
X208416566Y-53285225D01*
X208064419Y-53139361D01*
X207690581Y-53065000D01*
X207309419Y-53065000D01*
X206935581Y-53139361D01*
X206583434Y-53285225D01*
X206266509Y-53496987D01*
X205996987Y-53766509D01*
X205785225Y-54083434D01*
X205639361Y-54435581D01*
X205565000Y-54809419D01*
X204435000Y-54809419D01*
X204360639Y-54435581D01*
X204214775Y-54083434D01*
X204003013Y-53766509D01*
X203733491Y-53496987D01*
X203416566Y-53285225D01*
X203064419Y-53139361D01*
X202690581Y-53065000D01*
X202309419Y-53065000D01*
X201935581Y-53139361D01*
X201583434Y-53285225D01*
X201266509Y-53496987D01*
X200996987Y-53766509D01*
X200785225Y-54083434D01*
X200639361Y-54435581D01*
X200565000Y-54809419D01*
X199426232Y-54809419D01*
X199396457Y-54571049D01*
X199276333Y-54209310D01*
X199144312Y-53962317D01*
X198849224Y-53830381D01*
X197679605Y-55000000D01*
X197320395Y-55000000D01*
X196150776Y-53830381D01*
X195855688Y-53962317D01*
X195684841Y-54303045D01*
X195583750Y-54670557D01*
X195556299Y-55050729D01*
X194436375Y-55050729D01*
X194443701Y-54949271D01*
X194396457Y-54571049D01*
X194276333Y-54209310D01*
X194144312Y-53962317D01*
X193849224Y-53830381D01*
X192679605Y-55000000D01*
X192320395Y-55000000D01*
X191150776Y-53830381D01*
X190855688Y-53962317D01*
X190684841Y-54303045D01*
X190583750Y-54670557D01*
X190556299Y-55050729D01*
X189436375Y-55050729D01*
X189443701Y-54949271D01*
X189396457Y-54571049D01*
X189276333Y-54209310D01*
X189144312Y-53962317D01*
X188849224Y-53830381D01*
X187679605Y-55000000D01*
X187320395Y-55000000D01*
X186150776Y-53830381D01*
X185855688Y-53962317D01*
X185684841Y-54303045D01*
X185583750Y-54670557D01*
X185556299Y-55050729D01*
X184436375Y-55050729D01*
X184443701Y-54949271D01*
X184396457Y-54571049D01*
X184276333Y-54209310D01*
X184144312Y-53962317D01*
X183849224Y-53830381D01*
X182679605Y-55000000D01*
X182320395Y-55000000D01*
X181150776Y-53830381D01*
X180855688Y-53962317D01*
X180684841Y-54303045D01*
X180583750Y-54670557D01*
X180556299Y-55050729D01*
X179436375Y-55050729D01*
X179443701Y-54949271D01*
X179396457Y-54571049D01*
X179276333Y-54209310D01*
X179144312Y-53962317D01*
X178849224Y-53830381D01*
X177679605Y-55000000D01*
X177320395Y-55000000D01*
X176150776Y-53830381D01*
X175855688Y-53962317D01*
X175684841Y-54303045D01*
X175583750Y-54670557D01*
X175556299Y-55050729D01*
X174436375Y-55050729D01*
X174443701Y-54949271D01*
X174396457Y-54571049D01*
X174276333Y-54209310D01*
X174144312Y-53962317D01*
X173849224Y-53830381D01*
X172679605Y-55000000D01*
X172320395Y-55000000D01*
X171150776Y-53830381D01*
X170855688Y-53962317D01*
X170684841Y-54303045D01*
X170583750Y-54670557D01*
X170556299Y-55050729D01*
X169436375Y-55050729D01*
X169443701Y-54949271D01*
X169396457Y-54571049D01*
X169276333Y-54209310D01*
X169144312Y-53962317D01*
X168849224Y-53830381D01*
X167679605Y-55000000D01*
X167320395Y-55000000D01*
X166150776Y-53830381D01*
X165855688Y-53962317D01*
X165684841Y-54303045D01*
X165583750Y-54670557D01*
X165556299Y-55050729D01*
X156935000Y-55050729D01*
X156935000Y-54809419D01*
X156860639Y-54435581D01*
X156714775Y-54083434D01*
X156503013Y-53766509D01*
X156436504Y-53700000D01*
X160561928Y-53700000D01*
X160565000Y-54714250D01*
X160723750Y-54873000D01*
X162373000Y-54873000D01*
X162373000Y-53223750D01*
X162627000Y-53223750D01*
X162627000Y-54873000D01*
X164276250Y-54873000D01*
X164435000Y-54714250D01*
X164438072Y-53700000D01*
X164433225Y-53650776D01*
X166330381Y-53650776D01*
X167500000Y-54820395D01*
X168669619Y-53650776D01*
X171330381Y-53650776D01*
X172500000Y-54820395D01*
X173669619Y-53650776D01*
X176330381Y-53650776D01*
X177500000Y-54820395D01*
X178669619Y-53650776D01*
X181330381Y-53650776D01*
X182500000Y-54820395D01*
X183669619Y-53650776D01*
X186330381Y-53650776D01*
X187500000Y-54820395D01*
X188669619Y-53650776D01*
X191330381Y-53650776D01*
X192500000Y-54820395D01*
X193669619Y-53650776D01*
X196330381Y-53650776D01*
X197500000Y-54820395D01*
X198669619Y-53650776D01*
X198537683Y-53355688D01*
X198196955Y-53184841D01*
X197829443Y-53083750D01*
X197449271Y-53056299D01*
X197071049Y-53103543D01*
X196709310Y-53223667D01*
X196462317Y-53355688D01*
X196330381Y-53650776D01*
X193669619Y-53650776D01*
X193537683Y-53355688D01*
X193196955Y-53184841D01*
X192829443Y-53083750D01*
X192449271Y-53056299D01*
X192071049Y-53103543D01*
X191709310Y-53223667D01*
X191462317Y-53355688D01*
X191330381Y-53650776D01*
X188669619Y-53650776D01*
X188537683Y-53355688D01*
X188196955Y-53184841D01*
X187829443Y-53083750D01*
X187449271Y-53056299D01*
X187071049Y-53103543D01*
X186709310Y-53223667D01*
X186462317Y-53355688D01*
X186330381Y-53650776D01*
X183669619Y-53650776D01*
X183537683Y-53355688D01*
X183196955Y-53184841D01*
X182829443Y-53083750D01*
X182449271Y-53056299D01*
X182071049Y-53103543D01*
X181709310Y-53223667D01*
X181462317Y-53355688D01*
X181330381Y-53650776D01*
X178669619Y-53650776D01*
X178537683Y-53355688D01*
X178196955Y-53184841D01*
X177829443Y-53083750D01*
X177449271Y-53056299D01*
X177071049Y-53103543D01*
X176709310Y-53223667D01*
X176462317Y-53355688D01*
X176330381Y-53650776D01*
X173669619Y-53650776D01*
X173537683Y-53355688D01*
X173196955Y-53184841D01*
X172829443Y-53083750D01*
X172449271Y-53056299D01*
X172071049Y-53103543D01*
X171709310Y-53223667D01*
X171462317Y-53355688D01*
X171330381Y-53650776D01*
X168669619Y-53650776D01*
X168537683Y-53355688D01*
X168196955Y-53184841D01*
X167829443Y-53083750D01*
X167449271Y-53056299D01*
X167071049Y-53103543D01*
X166709310Y-53223667D01*
X166462317Y-53355688D01*
X166330381Y-53650776D01*
X164433225Y-53650776D01*
X164425812Y-53575518D01*
X164389502Y-53455820D01*
X164330537Y-53345506D01*
X164251185Y-53248815D01*
X164154494Y-53169463D01*
X164044180Y-53110498D01*
X163924482Y-53074188D01*
X163800000Y-53061928D01*
X162785750Y-53065000D01*
X162627000Y-53223750D01*
X162373000Y-53223750D01*
X162214250Y-53065000D01*
X161200000Y-53061928D01*
X161075518Y-53074188D01*
X160955820Y-53110498D01*
X160845506Y-53169463D01*
X160748815Y-53248815D01*
X160669463Y-53345506D01*
X160610498Y-53455820D01*
X160574188Y-53575518D01*
X160561928Y-53700000D01*
X156436504Y-53700000D01*
X156233491Y-53496987D01*
X155916566Y-53285225D01*
X155564419Y-53139361D01*
X155190581Y-53065000D01*
X154809419Y-53065000D01*
X154435581Y-53139361D01*
X154083434Y-53285225D01*
X153766509Y-53496987D01*
X153496987Y-53766509D01*
X153285225Y-54083434D01*
X153139361Y-54435581D01*
X153065000Y-54809419D01*
X151935000Y-54809419D01*
X151860639Y-54435581D01*
X151714775Y-54083434D01*
X151503013Y-53766509D01*
X151233491Y-53496987D01*
X150916566Y-53285225D01*
X150564419Y-53139361D01*
X150190581Y-53065000D01*
X149809419Y-53065000D01*
X149435581Y-53139361D01*
X149083434Y-53285225D01*
X148766509Y-53496987D01*
X148496987Y-53766509D01*
X148285225Y-54083434D01*
X148139361Y-54435581D01*
X148065000Y-54809419D01*
X146935000Y-54809419D01*
X146860639Y-54435581D01*
X146714775Y-54083434D01*
X146503013Y-53766509D01*
X146233491Y-53496987D01*
X145916566Y-53285225D01*
X145564419Y-53139361D01*
X145190581Y-53065000D01*
X144809419Y-53065000D01*
X144435581Y-53139361D01*
X144083434Y-53285225D01*
X143766509Y-53496987D01*
X143496987Y-53766509D01*
X143285225Y-54083434D01*
X143139361Y-54435581D01*
X143065000Y-54809419D01*
X141935000Y-54809419D01*
X141860639Y-54435581D01*
X141714775Y-54083434D01*
X141503013Y-53766509D01*
X141233491Y-53496987D01*
X140916566Y-53285225D01*
X140564419Y-53139361D01*
X140190581Y-53065000D01*
X139809419Y-53065000D01*
X139435581Y-53139361D01*
X139083434Y-53285225D01*
X138766509Y-53496987D01*
X138496987Y-53766509D01*
X138285225Y-54083434D01*
X138139361Y-54435581D01*
X138065000Y-54809419D01*
X136935000Y-54809419D01*
X136860639Y-54435581D01*
X136714775Y-54083434D01*
X136503013Y-53766509D01*
X136233491Y-53496987D01*
X135916566Y-53285225D01*
X135564419Y-53139361D01*
X135190581Y-53065000D01*
X134809419Y-53065000D01*
X134435581Y-53139361D01*
X134083434Y-53285225D01*
X133766509Y-53496987D01*
X133496987Y-53766509D01*
X133285225Y-54083434D01*
X133139361Y-54435581D01*
X133065000Y-54809419D01*
X131935000Y-54809419D01*
X131860639Y-54435581D01*
X131714775Y-54083434D01*
X131503013Y-53766509D01*
X131233491Y-53496987D01*
X130916566Y-53285225D01*
X130564419Y-53139361D01*
X130190581Y-53065000D01*
X129809419Y-53065000D01*
X129435581Y-53139361D01*
X129083434Y-53285225D01*
X128766509Y-53496987D01*
X128496987Y-53766509D01*
X128285225Y-54083434D01*
X128139361Y-54435581D01*
X128065000Y-54809419D01*
X126935000Y-54809419D01*
X126860639Y-54435581D01*
X126714775Y-54083434D01*
X126503013Y-53766509D01*
X126233491Y-53496987D01*
X125916566Y-53285225D01*
X125564419Y-53139361D01*
X125190581Y-53065000D01*
X124809419Y-53065000D01*
X124435581Y-53139361D01*
X124083434Y-53285225D01*
X123766509Y-53496987D01*
X123496987Y-53766509D01*
X123285225Y-54083434D01*
X123139361Y-54435581D01*
X123065000Y-54809419D01*
X121938072Y-54809419D01*
X121938072Y-53700000D01*
X121925812Y-53575518D01*
X121889502Y-53455820D01*
X121830537Y-53345506D01*
X121751185Y-53248815D01*
X121654494Y-53169463D01*
X121544180Y-53110498D01*
X121424482Y-53074188D01*
X121300000Y-53061928D01*
X118700000Y-53061928D01*
X118575518Y-53074188D01*
X118455820Y-53110498D01*
X118345506Y-53169463D01*
X118248815Y-53248815D01*
X118169463Y-53345506D01*
X118110498Y-53455820D01*
X118074188Y-53575518D01*
X118061928Y-53700000D01*
X114488072Y-53700000D01*
X114488072Y-53650000D01*
X114475812Y-53525518D01*
X114439502Y-53405820D01*
X114380537Y-53295506D01*
X114301185Y-53198815D01*
X114204494Y-53119463D01*
X114094180Y-53060498D01*
X113974482Y-53024188D01*
X113850000Y-53011928D01*
X112150000Y-53011928D01*
X112025518Y-53024188D01*
X111905820Y-53060498D01*
X111795506Y-53119463D01*
X111698815Y-53198815D01*
X111619463Y-53295506D01*
X111560498Y-53405820D01*
X111539607Y-53474687D01*
X111515134Y-53444866D01*
X111289014Y-53259294D01*
X111031034Y-53121401D01*
X110751111Y-53036487D01*
X110532950Y-53015000D01*
X110387050Y-53015000D01*
X110168889Y-53036487D01*
X109888966Y-53121401D01*
X109630986Y-53259294D01*
X109404866Y-53444866D01*
X109219294Y-53670986D01*
X109190000Y-53725791D01*
X109160706Y-53670986D01*
X108975134Y-53444866D01*
X108749014Y-53259294D01*
X108491034Y-53121401D01*
X108211111Y-53036487D01*
X107992950Y-53015000D01*
X107847050Y-53015000D01*
X107628889Y-53036487D01*
X107348966Y-53121401D01*
X107090986Y-53259294D01*
X106864866Y-53444866D01*
X106679294Y-53670986D01*
X106650000Y-53725791D01*
X106620706Y-53670986D01*
X106435134Y-53444866D01*
X106209014Y-53259294D01*
X105951034Y-53121401D01*
X105671111Y-53036487D01*
X105452950Y-53015000D01*
X105307050Y-53015000D01*
X105088889Y-53036487D01*
X104808966Y-53121401D01*
X104550986Y-53259294D01*
X104324866Y-53444866D01*
X104139294Y-53670986D01*
X104110000Y-53725791D01*
X104080706Y-53670986D01*
X103895134Y-53444866D01*
X103669014Y-53259294D01*
X103411034Y-53121401D01*
X103131111Y-53036487D01*
X102912950Y-53015000D01*
X102767050Y-53015000D01*
X102548889Y-53036487D01*
X102268966Y-53121401D01*
X102010986Y-53259294D01*
X101784866Y-53444866D01*
X101599294Y-53670986D01*
X101570000Y-53725791D01*
X101540706Y-53670986D01*
X101355134Y-53444866D01*
X101129014Y-53259294D01*
X100871034Y-53121401D01*
X100591111Y-53036487D01*
X100372950Y-53015000D01*
X100227050Y-53015000D01*
X100008889Y-53036487D01*
X99728966Y-53121401D01*
X99470986Y-53259294D01*
X99244866Y-53444866D01*
X99059294Y-53670986D01*
X99030000Y-53725791D01*
X99000706Y-53670986D01*
X98815134Y-53444866D01*
X98589014Y-53259294D01*
X98331034Y-53121401D01*
X98051111Y-53036487D01*
X97832950Y-53015000D01*
X97687050Y-53015000D01*
X97468889Y-53036487D01*
X97188966Y-53121401D01*
X96930986Y-53259294D01*
X96704866Y-53444866D01*
X96519294Y-53670986D01*
X96490000Y-53725791D01*
X96460706Y-53670986D01*
X96275134Y-53444866D01*
X96049014Y-53259294D01*
X95791034Y-53121401D01*
X95511111Y-53036487D01*
X95292950Y-53015000D01*
X95147050Y-53015000D01*
X94928889Y-53036487D01*
X94648966Y-53121401D01*
X94390986Y-53259294D01*
X94164866Y-53444866D01*
X93979294Y-53670986D01*
X93841401Y-53928966D01*
X93756487Y-54208889D01*
X93727815Y-54500000D01*
X89988072Y-54500000D01*
X89988072Y-53650000D01*
X89975812Y-53525518D01*
X89939502Y-53405820D01*
X89880537Y-53295506D01*
X89801185Y-53198815D01*
X89704494Y-53119463D01*
X89594180Y-53060498D01*
X89474482Y-53024188D01*
X89350000Y-53011928D01*
X87650000Y-53011928D01*
X87525518Y-53024188D01*
X87405820Y-53060498D01*
X87295506Y-53119463D01*
X87198815Y-53198815D01*
X87119463Y-53295506D01*
X87060498Y-53405820D01*
X87039607Y-53474687D01*
X87015134Y-53444866D01*
X86789014Y-53259294D01*
X86531034Y-53121401D01*
X86251111Y-53036487D01*
X86032950Y-53015000D01*
X85887050Y-53015000D01*
X85668889Y-53036487D01*
X85388966Y-53121401D01*
X85130986Y-53259294D01*
X84904866Y-53444866D01*
X84719294Y-53670986D01*
X84690000Y-53725791D01*
X84660706Y-53670986D01*
X84475134Y-53444866D01*
X84249014Y-53259294D01*
X83991034Y-53121401D01*
X83711111Y-53036487D01*
X83492950Y-53015000D01*
X83347050Y-53015000D01*
X83128889Y-53036487D01*
X82848966Y-53121401D01*
X82590986Y-53259294D01*
X82364866Y-53444866D01*
X82179294Y-53670986D01*
X82150000Y-53725791D01*
X82120706Y-53670986D01*
X81935134Y-53444866D01*
X81709014Y-53259294D01*
X81451034Y-53121401D01*
X81171111Y-53036487D01*
X80952950Y-53015000D01*
X80807050Y-53015000D01*
X80588889Y-53036487D01*
X80308966Y-53121401D01*
X80050986Y-53259294D01*
X79824866Y-53444866D01*
X79639294Y-53670986D01*
X79610000Y-53725791D01*
X79580706Y-53670986D01*
X79395134Y-53444866D01*
X79169014Y-53259294D01*
X78911034Y-53121401D01*
X78631111Y-53036487D01*
X78412950Y-53015000D01*
X78267050Y-53015000D01*
X78048889Y-53036487D01*
X77768966Y-53121401D01*
X77510986Y-53259294D01*
X77284866Y-53444866D01*
X77099294Y-53670986D01*
X77070000Y-53725791D01*
X77040706Y-53670986D01*
X76855134Y-53444866D01*
X76629014Y-53259294D01*
X76371034Y-53121401D01*
X76091111Y-53036487D01*
X75872950Y-53015000D01*
X75727050Y-53015000D01*
X75508889Y-53036487D01*
X75228966Y-53121401D01*
X74970986Y-53259294D01*
X74744866Y-53444866D01*
X74559294Y-53670986D01*
X74530000Y-53725791D01*
X74500706Y-53670986D01*
X74315134Y-53444866D01*
X74089014Y-53259294D01*
X73831034Y-53121401D01*
X73551111Y-53036487D01*
X73332950Y-53015000D01*
X73187050Y-53015000D01*
X72968889Y-53036487D01*
X72688966Y-53121401D01*
X72430986Y-53259294D01*
X72204866Y-53444866D01*
X72019294Y-53670986D01*
X71990000Y-53725791D01*
X71960706Y-53670986D01*
X71775134Y-53444866D01*
X71549014Y-53259294D01*
X71291034Y-53121401D01*
X71011111Y-53036487D01*
X70792950Y-53015000D01*
X70647050Y-53015000D01*
X70428889Y-53036487D01*
X70148966Y-53121401D01*
X69890986Y-53259294D01*
X69664866Y-53444866D01*
X69479294Y-53670986D01*
X69450000Y-53725791D01*
X69420706Y-53670986D01*
X69235134Y-53444866D01*
X69009014Y-53259294D01*
X68751034Y-53121401D01*
X68471111Y-53036487D01*
X68252950Y-53015000D01*
X68107050Y-53015000D01*
X67888889Y-53036487D01*
X67608966Y-53121401D01*
X67350986Y-53259294D01*
X67124866Y-53444866D01*
X66939294Y-53670986D01*
X66910000Y-53725791D01*
X66880706Y-53670986D01*
X66695134Y-53444866D01*
X66469014Y-53259294D01*
X66211034Y-53121401D01*
X65931111Y-53036487D01*
X65712950Y-53015000D01*
X65567050Y-53015000D01*
X65348889Y-53036487D01*
X65068966Y-53121401D01*
X64810986Y-53259294D01*
X64584866Y-53444866D01*
X64399294Y-53670986D01*
X64364799Y-53735523D01*
X64295178Y-53618645D01*
X64100269Y-53402412D01*
X63866920Y-53228359D01*
X63604099Y-53103175D01*
X63456890Y-53058524D01*
X63227000Y-53179845D01*
X62973000Y-53179845D01*
X62743110Y-53058524D01*
X62595901Y-53103175D01*
X62333080Y-53228359D01*
X62099731Y-53402412D01*
X61904822Y-53618645D01*
X61755843Y-53868748D01*
X61658519Y-54143109D01*
X53660000Y-54143109D01*
X53660000Y-50660000D01*
X215340000Y-50660000D01*
X215340001Y-74340000D01*
M02*
