M48
; DRILL file {KiCad (5.1.10)-1} date 11/19/22 08:35:42
; FORMAT={-:-/ absolute / inch / decimal}
; #@! TF.CreationDate,2022-11-19T08:35:42-06:00
; #@! TF.GenerationSoftware,Kicad,Pcbnew,(5.1.10)-1
; #@! TF.FileFunction,Plated,1,4,PTH
FMAT,2
INCH
T1C0.0157
T2C0.0197
T3C0.0315
T4C0.0350
T5C0.0394
T6C0.0402
T7C0.0469
T8C0.0512
T9C0.0591
T10C0.0642
T11C0.0689
T12C0.1154
T13C0.1260
T14C0.1890
%
G90
G05
T1
X1.051Y-1.191
X1.121Y-5.064
X1.121Y-5.128
X1.208Y-5.064
X1.208Y-5.128
X1.268Y-2.423
X1.387Y-2.886
X1.452Y-3.078
X1.583Y-1.411
X1.593Y-1.992
X1.629Y-0.925
X1.638Y-2.911
X1.69Y-1.614
X1.719Y-1.98
X1.743Y-1.559
X2.154Y-1.557
X2.251Y-1.971
X2.295Y-2.221
X2.4431Y-3.2181
X2.4675Y-3.1143
X2.474Y-2.057
X2.4845Y-2.2229
X2.615Y-2.055
X2.975Y-2.325
X3.066Y-2.481
X3.074Y-3.14
X3.185Y-2.996
X3.195Y-2.692
X3.263Y-1.779
X3.269Y-2.032
X3.288Y-1.459
X3.327Y-2.539
X3.408Y-2.965
X3.489Y-2.827
X3.612Y-0.929
X3.661Y-1.113
X3.804Y-2.822
X3.904Y-2.344
X4.3447Y-1.6923
X4.4266Y-1.7266
X4.469Y-1.142
X4.5049Y-4.6969
X5.06Y-1.136
X5.1974Y-2.6316
X5.2287Y-2.134
X5.469Y-3.317
X5.58Y-2.627
X5.6167Y-2.134
X6.104Y-5.48
X6.142Y-5.117
X6.143Y-5.304
X6.175Y-5.234
X6.18Y-5.478
X6.318Y-4.81
X6.3289Y-4.971
X6.34Y-4.574
X6.424Y-4.379
X6.54Y-5.432
X6.615Y-5.434
X6.759Y-2.059
X6.768Y-1.918
T3
X3.9446Y-1.378
X3.9446Y-1.4567
X3.9446Y-1.5355
X4.0234Y-1.378
X4.0234Y-1.4567
X4.0234Y-1.5355
X5.4619Y-0.917
X5.5406Y-0.917
X5.6194Y-0.917
X5.6981Y-0.917
T4
X6.15Y-1.746
X6.2Y-1.646
X6.25Y-1.746
X6.3Y-1.646
X6.35Y-1.746
X6.4Y-1.646
X6.45Y-1.746
X6.5Y-1.646
T5
X2.473Y-1.884
X2.573Y-1.884
X2.673Y-1.884
X2.947Y-1.884
X3.047Y-1.884
X3.147Y-1.884
X3.434Y-1.282
X3.434Y-1.882
X3.534Y-1.282
X3.534Y-1.882
X3.634Y-1.282
X3.634Y-1.882
X3.734Y-1.282
X3.734Y-1.882
X3.834Y-1.282
X3.834Y-1.882
X3.934Y-1.282
X3.934Y-1.882
X4.134Y-1.282
X4.134Y-1.882
X4.234Y-1.282
X4.234Y-1.882
X4.334Y-1.282
X4.334Y-1.882
X4.434Y-1.282
X4.434Y-1.882
X4.534Y-1.282
X4.534Y-1.882
X4.634Y-1.282
X4.634Y-1.882
X4.734Y-1.282
X4.734Y-1.882
X4.834Y-1.282
X4.834Y-1.882
X5.034Y-1.282
X5.034Y-1.882
X5.134Y-1.282
X5.134Y-1.882
X5.234Y-1.282
X5.234Y-1.882
X5.334Y-1.282
X5.334Y-1.882
X5.434Y-1.282
X5.434Y-1.882
X5.534Y-1.282
X5.534Y-1.882
X5.634Y-1.282
X5.634Y-1.882
X5.734Y-1.282
X5.734Y-1.882
X6.713Y-4.273
X6.713Y-4.373
X6.713Y-4.473
X6.713Y-4.573
X6.713Y-4.673
X6.713Y-4.773
X6.713Y-4.873
X6.713Y-4.973
X6.713Y-5.073
X6.713Y-5.173
T6
X6.0642Y-2.1889
X6.1642Y-2.1889
X6.4858Y-2.1889
X6.5858Y-2.1889
T7
X6.109Y-1.104
X6.209Y-1.104
X6.309Y-1.104
X6.409Y-1.104
X6.509Y-1.104
T8
X1.113Y-3.6252
X1.113Y-4.1055
X1.207Y-4.3891
X1.207Y-4.6891
X1.407Y-4.3891
X1.407Y-4.6891
X1.5854Y-3.6252
X1.607Y-4.3891
X1.607Y-4.6891
X1.807Y-4.3891
X1.807Y-4.6891
X1.8153Y-3.6252
X1.8153Y-4.1055
X2.2878Y-3.6252
X2.5177Y-3.6252
X2.5177Y-4.1055
X2.544Y-0.9051
X2.544Y-1.2051
X2.744Y-0.9051
X2.744Y-1.2051
X2.944Y-0.9051
X2.944Y-1.2051
X2.9901Y-3.6252
X3.144Y-0.9051
X3.144Y-1.2051
X3.22Y-3.6252
X3.22Y-4.1055
X3.6924Y-3.6252
X3.9223Y-3.6252
X3.9223Y-4.1055
X4.3948Y-3.6252
X4.6247Y-3.6252
X4.6247Y-4.1055
X4.7377Y-4.414
X5.0971Y-3.6252
X5.218Y-4.414
X5.218Y-4.8864
X5.327Y-3.6252
X5.327Y-4.1055
X5.5001Y-4.624
X5.5001Y-4.824
X5.5001Y-5.024
X5.5001Y-5.224
X5.7994Y-3.6252
X5.8001Y-4.624
X5.8001Y-4.824
X5.8001Y-5.024
X5.8001Y-5.224
T9
X1.3492Y-3.5465
X2.0516Y-3.5465
X2.7539Y-3.5465
X3.4562Y-3.5465
X4.1586Y-3.5465
X4.8609Y-3.5465
X5.2967Y-4.6502
X5.5632Y-3.5465
T10
X6.0201Y-1.8759
X6.6299Y-1.8759
T11
X2.7559Y-4.9803
X2.7559Y-5.2953
X2.8346Y-5.1378
X2.9134Y-4.9803
X2.9134Y-5.2953
X2.9921Y-5.1378
X3.0709Y-4.9803
X3.0709Y-5.2953
X3.1496Y-5.1378
X3.2283Y-4.9803
X3.2283Y-5.2953
X3.3071Y-5.1378
X3.3858Y-4.9803
X3.3858Y-5.2953
X3.4646Y-5.1378
X3.5433Y-4.9803
X3.5433Y-5.2953
X3.622Y-5.1378
X3.7008Y-4.9803
X3.7008Y-5.2953
X3.7795Y-5.1378
X3.8583Y-4.9803
X3.8583Y-5.2953
T12
X2.5Y-5.1575
X4.1142Y-5.1575
T13
X2.6436Y-2.1845
X2.6436Y-4.3845
X3.5389Y-2.1845
X3.5389Y-3.2868
X3.8436Y-2.9443
X3.8436Y-4.3845
X5.7436Y-2.1845
X5.7436Y-2.9443
X5.7436Y-3.2868
X5.7436Y-4.3845
T14
X1.211Y-2.118
X1.845Y-5.176
T2
G00X1.639Y-2.985
M15
G01X1.6665Y-2.985
M16
G05
G00X1.7413Y-3.0696
M15
G01X1.7847Y-3.0696
M16
G05
G00X1.8595Y-2.985
M15
G01X1.887Y-2.985
M16
G05
T0
M30
