%TF.GenerationSoftware,KiCad,Pcbnew,(5.1.10)-1*%
%TF.CreationDate,2022-11-19T08:35:40-06:00*%
%TF.ProjectId,RC10,52433130-2e6b-4696-9361-645f70636258,rev?*%
%TF.SameCoordinates,Original*%
%TF.FileFunction,Soldermask,Bot*%
%TF.FilePolarity,Negative*%
%FSLAX46Y46*%
G04 Gerber Fmt 4.6, Leading zero omitted, Abs format (unit mm)*
G04 Created by KiCad (PCBNEW (5.1.10)-1) date 2022-11-19 08:35:40*
%MOMM*%
%LPD*%
G01*
G04 APERTURE LIST*
%ADD10O,2.200000X1.100000*%
%ADD11O,2.000000X1.100000*%
%ADD12C,2.600000*%
%ADD13R,2.600000X2.600000*%
%ADD14O,1.740000X2.190000*%
%ADD15C,3.200000*%
%ADD16O,1.700000X1.700000*%
%ADD17R,1.700000X1.700000*%
%ADD18C,1.950000*%
%ADD19C,2.250000*%
%ADD20R,1.950000X1.950000*%
%ADD21C,9.000000*%
%ADD22C,1.308000*%
%ADD23R,1.308000X1.308000*%
%ADD24O,1.350000X1.350000*%
%ADD25R,1.350000X1.350000*%
%ADD26C,2.445000*%
%ADD27C,1.530000*%
%ADD28C,1.446000*%
%ADD29C,4.395000*%
%ADD30C,2.625000*%
G04 APERTURE END LIST*
D10*
%TO.C,J9*%
X44780200Y-77969000D03*
X47580200Y-75819000D03*
D11*
X41980200Y-75819000D03*
%TD*%
D12*
%TO.C,KF3*%
X64617600Y-30608400D03*
X64617600Y-22988400D03*
X69697600Y-30608400D03*
X69697600Y-22988400D03*
X74777600Y-30608400D03*
X74777600Y-22988400D03*
D13*
X79857600Y-30608400D03*
X79857600Y-22988400D03*
%TD*%
D12*
%TO.C,KF2*%
X147321400Y-132689600D03*
X139701400Y-132689600D03*
X147321400Y-127609600D03*
X139701400Y-127609600D03*
X147321400Y-122529600D03*
X139701400Y-122529600D03*
D13*
X147321400Y-117449600D03*
X139701400Y-117449600D03*
%TD*%
D12*
%TO.C,KF1*%
X30657800Y-119102000D03*
X30657800Y-111482000D03*
X35737800Y-119102000D03*
X35737800Y-111482000D03*
X40817800Y-119102000D03*
X40817800Y-111482000D03*
D13*
X45897800Y-119102000D03*
X45897800Y-111482000D03*
%TD*%
D14*
%TO.C,J13*%
X155168600Y-28041600D03*
X157708600Y-28041600D03*
X160248600Y-28041600D03*
X162788600Y-28041600D03*
G36*
G01*
X166198600Y-27196599D02*
X166198600Y-28886601D01*
G75*
G02*
X165948601Y-29136600I-249999J0D01*
G01*
X164708599Y-29136600D01*
G75*
G02*
X164458600Y-28886601I0J249999D01*
G01*
X164458600Y-27196599D01*
G75*
G02*
X164708599Y-26946600I249999J0D01*
G01*
X165948601Y-26946600D01*
G75*
G02*
X166198600Y-27196599I0J-249999D01*
G01*
G37*
%TD*%
D15*
%TO.C,REF\u002A\u002A*%
X145887800Y-83485600D03*
X89887800Y-83485600D03*
X89887800Y-55485600D03*
X145887800Y-55485600D03*
X145887800Y-111365600D03*
X67147800Y-111365600D03*
X67147800Y-55485600D03*
X145887800Y-74785600D03*
X97627800Y-74785600D03*
X97627800Y-111365600D03*
%TD*%
D16*
%TO.C,J19*%
X170510200Y-108534200D03*
X170510200Y-111074200D03*
X170510200Y-113614200D03*
X170510200Y-116154200D03*
X170510200Y-118694200D03*
X170510200Y-121234200D03*
X170510200Y-123774200D03*
X170510200Y-126314200D03*
X170510200Y-128854200D03*
D17*
X170510200Y-131394200D03*
%TD*%
D16*
%TO.C,J18*%
X74853800Y-47852800D03*
X77393800Y-47852800D03*
D17*
X79933800Y-47852800D03*
%TD*%
D16*
%TO.C,J10*%
X62814200Y-47852800D03*
X65354200Y-47852800D03*
D17*
X67894200Y-47852800D03*
%TD*%
D18*
%TO.C,RLY3*%
X63948732Y-104280600D03*
X75948732Y-92080600D03*
D19*
X69948732Y-90080600D03*
D20*
X63948732Y-92080600D03*
%TD*%
D21*
%TO.C,J17*%
X46863000Y-131470400D03*
%TD*%
%TO.C,J14*%
X30759400Y-53797200D03*
%TD*%
D22*
%TO.C,J21*%
X144732000Y-23291800D03*
X142732000Y-23291800D03*
X140732000Y-23291800D03*
D23*
X138732000Y-23291800D03*
%TD*%
D16*
%TO.C,J16*%
X122783600Y-32562800D03*
X120243600Y-32562800D03*
X117703600Y-32562800D03*
X115163600Y-32562800D03*
X112623600Y-32562800D03*
X110083600Y-32562800D03*
X107543600Y-32562800D03*
D17*
X105003600Y-32562800D03*
%TD*%
D16*
%TO.C,J15*%
X99923600Y-32562800D03*
X97383600Y-32562800D03*
X94843600Y-32562800D03*
X92303600Y-32562800D03*
X89763600Y-32562800D03*
D17*
X87223600Y-32562800D03*
%TD*%
D16*
%TO.C,J6*%
X122783600Y-47802800D03*
X120243600Y-47802800D03*
X117703600Y-47802800D03*
X115163600Y-47802800D03*
X112623600Y-47802800D03*
X110083600Y-47802800D03*
X107543600Y-47802800D03*
D17*
X105003600Y-47802800D03*
%TD*%
D16*
%TO.C,J4*%
X99923600Y-47802800D03*
X97383600Y-47802800D03*
X94843600Y-47802800D03*
X92303600Y-47802800D03*
X89763600Y-47802800D03*
D17*
X87223600Y-47802800D03*
%TD*%
D15*
%TO.C, *%
X175539400Y-23469600D03*
%TD*%
%TO.C, *%
X23393400Y-23444200D03*
%TD*%
%TO.C, *%
X23520400Y-136517400D03*
%TD*%
%TO.C, *%
X175514000Y-136466600D03*
%TD*%
D24*
%TO.C,J11*%
X102193600Y-39001200D03*
X100193600Y-39001200D03*
X102193600Y-37001200D03*
X100193600Y-37001200D03*
X102193600Y-35001200D03*
D25*
X100193600Y-35001200D03*
%TD*%
D16*
%TO.C,J7*%
X145643600Y-32562800D03*
X143103600Y-32562800D03*
X140563600Y-32562800D03*
X138023600Y-32562800D03*
X135483600Y-32562800D03*
X132943600Y-32562800D03*
X130403600Y-32562800D03*
D17*
X127863600Y-32562800D03*
%TD*%
D16*
%TO.C,J5*%
X145643600Y-47802800D03*
X143103600Y-47802800D03*
X140563600Y-47802800D03*
X138023600Y-47802800D03*
X135483600Y-47802800D03*
X132943600Y-47802800D03*
X130403600Y-47802800D03*
D17*
X127863600Y-47802800D03*
%TD*%
D18*
%TO.C,RLY7*%
X135305800Y-104280600D03*
X147305800Y-92080600D03*
D19*
X141305800Y-90080600D03*
D20*
X135305800Y-92080600D03*
%TD*%
D18*
%TO.C,RLY6*%
X117466530Y-104280600D03*
X129466530Y-92080600D03*
D19*
X123466530Y-90080600D03*
D20*
X117466530Y-92080600D03*
%TD*%
D18*
%TO.C,RLY5*%
X99627264Y-104280600D03*
X111627264Y-92080600D03*
D19*
X105627264Y-90080600D03*
D20*
X99627264Y-92080600D03*
%TD*%
D18*
%TO.C,RLY4*%
X81787998Y-104280600D03*
X93787998Y-92080600D03*
D19*
X87787998Y-90080600D03*
D20*
X81787998Y-92080600D03*
%TD*%
D18*
%TO.C,RLY2*%
X46109466Y-104280600D03*
X58109466Y-92080600D03*
D19*
X52109466Y-90080600D03*
D20*
X46109466Y-92080600D03*
%TD*%
D18*
%TO.C,RLY1*%
X28270200Y-104280600D03*
X40270200Y-92080600D03*
D19*
X34270200Y-90080600D03*
D20*
X28270200Y-92080600D03*
%TD*%
D18*
%TO.C,RLY8*%
X120337200Y-112115600D03*
X132537200Y-124115600D03*
D19*
X134537200Y-118115600D03*
D20*
X132537200Y-112115600D03*
%TD*%
D26*
%TO.C,J12*%
X168400000Y-47648400D03*
X152910000Y-47648400D03*
D27*
X167280000Y-55598400D03*
X164740000Y-55598400D03*
X156570000Y-55598400D03*
X154030000Y-55598400D03*
D28*
X165100000Y-41808400D03*
X163830000Y-44348400D03*
X162560000Y-41808400D03*
X161290000Y-44348400D03*
X160020000Y-41808400D03*
X158750000Y-44348400D03*
X157480000Y-41808400D03*
X156210000Y-44348400D03*
%TD*%
D29*
%TO.C,J8*%
X104500000Y-131000000D03*
X63500000Y-131000000D03*
D30*
X98000000Y-134500000D03*
X94000000Y-134500000D03*
X90000000Y-134500000D03*
X86000000Y-134500000D03*
X82000000Y-134500000D03*
X78000000Y-134500000D03*
X74000000Y-134500000D03*
X70000000Y-134500000D03*
X96000000Y-130500000D03*
X92000000Y-130500000D03*
X88000000Y-130500000D03*
X84000000Y-130500000D03*
X80000000Y-130500000D03*
X76000000Y-130500000D03*
X72000000Y-130500000D03*
X98000000Y-126500000D03*
X94000000Y-126500000D03*
X90000000Y-126500000D03*
X86000000Y-126500000D03*
X82000000Y-126500000D03*
X78000000Y-126500000D03*
X74000000Y-126500000D03*
X70000000Y-126500000D03*
%TD*%
M02*
