%TF.GenerationSoftware,KiCad,Pcbnew,(5.1.10)-1*%
%TF.CreationDate,2022-08-04T08:13:07-06:00*%
%TF.ProjectId,AS14,41533134-2e6b-4696-9361-645f70636258,rev?*%
%TF.SameCoordinates,Original*%
%TF.FileFunction,Copper,L1,Top*%
%TF.FilePolarity,Positive*%
%FSLAX46Y46*%
G04 Gerber Fmt 4.6, Leading zero omitted, Abs format (unit mm)*
G04 Created by KiCad (PCBNEW (5.1.10)-1) date 2022-08-04 08:13:07*
%MOMM*%
%LPD*%
G01*
G04 APERTURE LIST*
%TA.AperFunction,ComponentPad*%
%ADD10C,3.300000*%
%TD*%
%TA.AperFunction,ComponentPad*%
%ADD11C,4.485000*%
%TD*%
%TA.AperFunction,ComponentPad*%
%ADD12C,2.715000*%
%TD*%
%TA.AperFunction,ComponentPad*%
%ADD13R,2.715000X2.715000*%
%TD*%
%TA.AperFunction,ComponentPad*%
%ADD14O,1.700000X1.700000*%
%TD*%
%TA.AperFunction,ComponentPad*%
%ADD15R,1.700000X1.700000*%
%TD*%
%TA.AperFunction,ComponentPad*%
%ADD16C,1.600000*%
%TD*%
%TA.AperFunction,ComponentPad*%
%ADD17R,1.600000X1.500000*%
%TD*%
%TA.AperFunction,ComponentPad*%
%ADD18C,3.000000*%
%TD*%
%TA.AperFunction,SMDPad,CuDef*%
%ADD19R,0.900000X0.800000*%
%TD*%
%TA.AperFunction,SMDPad,CuDef*%
%ADD20R,0.850000X0.300000*%
%TD*%
%TA.AperFunction,SMDPad,CuDef*%
%ADD21R,2.000000X1.500000*%
%TD*%
%TA.AperFunction,SMDPad,CuDef*%
%ADD22R,2.000000X3.800000*%
%TD*%
%TA.AperFunction,ComponentPad*%
%ADD23C,2.999999*%
%TD*%
%TA.AperFunction,ComponentPad*%
%ADD24C,3.200000*%
%TD*%
%TA.AperFunction,SMDPad,CuDef*%
%ADD25R,0.450000X1.750000*%
%TD*%
%TA.AperFunction,ComponentPad*%
%ADD26C,2.600000*%
%TD*%
%TA.AperFunction,ComponentPad*%
%ADD27R,2.600000X2.600000*%
%TD*%
%TA.AperFunction,ComponentPad*%
%ADD28O,2.500000X2.500000*%
%TD*%
%TA.AperFunction,ComponentPad*%
%ADD29R,2.500000X2.500000*%
%TD*%
%TA.AperFunction,SMDPad,CuDef*%
%ADD30R,1.800000X1.800000*%
%TD*%
%TA.AperFunction,ComponentPad*%
%ADD31C,1.308000*%
%TD*%
%TA.AperFunction,ComponentPad*%
%ADD32R,1.308000X1.308000*%
%TD*%
%TA.AperFunction,ComponentPad*%
%ADD33C,2.445000*%
%TD*%
%TA.AperFunction,ComponentPad*%
%ADD34C,1.530000*%
%TD*%
%TA.AperFunction,ComponentPad*%
%ADD35C,1.446000*%
%TD*%
%TA.AperFunction,ComponentPad*%
%ADD36R,2.250000X2.250000*%
%TD*%
%TA.AperFunction,ComponentPad*%
%ADD37C,2.250000*%
%TD*%
%TA.AperFunction,SMDPad,CuDef*%
%ADD38R,0.530000X1.980000*%
%TD*%
%TA.AperFunction,SMDPad,CuDef*%
%ADD39R,2.500000X1.800000*%
%TD*%
%TA.AperFunction,SMDPad,CuDef*%
%ADD40R,10.530000X8.460000*%
%TD*%
%TA.AperFunction,SMDPad,CuDef*%
%ADD41R,1.050000X3.210000*%
%TD*%
%TA.AperFunction,SMDPad,CuDef*%
%ADD42R,2.900000X5.400000*%
%TD*%
%TA.AperFunction,ComponentPad*%
%ADD43O,1.350000X1.350000*%
%TD*%
%TA.AperFunction,ComponentPad*%
%ADD44R,1.350000X1.350000*%
%TD*%
%TA.AperFunction,ViaPad*%
%ADD45C,0.800000*%
%TD*%
%TA.AperFunction,Conductor*%
%ADD46C,1.016000*%
%TD*%
%TA.AperFunction,Conductor*%
%ADD47C,0.431800*%
%TD*%
%TA.AperFunction,Conductor*%
%ADD48C,0.508000*%
%TD*%
%TA.AperFunction,Conductor*%
%ADD49C,1.270000*%
%TD*%
%TA.AperFunction,Conductor*%
%ADD50C,2.032000*%
%TD*%
%TA.AperFunction,Conductor*%
%ADD51C,0.254000*%
%TD*%
G04 APERTURE END LIST*
%TO.P,C18,2*%
%TO.N,GND*%
%TA.AperFunction,SMDPad,CuDef*%
G36*
G01*
X35796200Y-99459200D02*
X36746200Y-99459200D01*
G75*
G02*
X36996200Y-99709200I0J-250000D01*
G01*
X36996200Y-100209200D01*
G75*
G02*
X36746200Y-100459200I-250000J0D01*
G01*
X35796200Y-100459200D01*
G75*
G02*
X35546200Y-100209200I0J250000D01*
G01*
X35546200Y-99709200D01*
G75*
G02*
X35796200Y-99459200I250000J0D01*
G01*
G37*
%TD.AperFunction*%
%TO.P,C18,1*%
%TO.N,Net-(C1-Pad1)*%
%TA.AperFunction,SMDPad,CuDef*%
G36*
G01*
X35796200Y-97559200D02*
X36746200Y-97559200D01*
G75*
G02*
X36996200Y-97809200I0J-250000D01*
G01*
X36996200Y-98309200D01*
G75*
G02*
X36746200Y-98559200I-250000J0D01*
G01*
X35796200Y-98559200D01*
G75*
G02*
X35546200Y-98309200I0J250000D01*
G01*
X35546200Y-97809200D01*
G75*
G02*
X35796200Y-97559200I250000J0D01*
G01*
G37*
%TD.AperFunction*%
%TD*%
%TO.P,C17,2*%
%TO.N,GND*%
%TA.AperFunction,SMDPad,CuDef*%
G36*
G01*
X153372800Y-153104000D02*
X154322800Y-153104000D01*
G75*
G02*
X154572800Y-153354000I0J-250000D01*
G01*
X154572800Y-153854000D01*
G75*
G02*
X154322800Y-154104000I-250000J0D01*
G01*
X153372800Y-154104000D01*
G75*
G02*
X153122800Y-153854000I0J250000D01*
G01*
X153122800Y-153354000D01*
G75*
G02*
X153372800Y-153104000I250000J0D01*
G01*
G37*
%TD.AperFunction*%
%TO.P,C17,1*%
%TO.N,Net-(C10-Pad1)*%
%TA.AperFunction,SMDPad,CuDef*%
G36*
G01*
X153372800Y-151204000D02*
X154322800Y-151204000D01*
G75*
G02*
X154572800Y-151454000I0J-250000D01*
G01*
X154572800Y-151954000D01*
G75*
G02*
X154322800Y-152204000I-250000J0D01*
G01*
X153372800Y-152204000D01*
G75*
G02*
X153122800Y-151954000I0J250000D01*
G01*
X153122800Y-151454000D01*
G75*
G02*
X153372800Y-151204000I250000J0D01*
G01*
G37*
%TD.AperFunction*%
%TD*%
%TO.P,U7,8*%
%TO.N,Net-(C10-Pad1)*%
%TA.AperFunction,SMDPad,CuDef*%
G36*
G01*
X152548400Y-147413000D02*
X153064400Y-147413000D01*
G75*
G02*
X153106400Y-147455000I0J-42000D01*
G01*
X153106400Y-149341000D01*
G75*
G02*
X153064400Y-149383000I-42000J0D01*
G01*
X152548400Y-149383000D01*
G75*
G02*
X152506400Y-149341000I0J42000D01*
G01*
X152506400Y-147455000D01*
G75*
G02*
X152548400Y-147413000I42000J0D01*
G01*
G37*
%TD.AperFunction*%
%TO.P,U7,7*%
%TO.N,Net-(J11-Pad9)*%
%TA.AperFunction,SMDPad,CuDef*%
G36*
G01*
X151278400Y-147413000D02*
X151794400Y-147413000D01*
G75*
G02*
X151836400Y-147455000I0J-42000D01*
G01*
X151836400Y-149341000D01*
G75*
G02*
X151794400Y-149383000I-42000J0D01*
G01*
X151278400Y-149383000D01*
G75*
G02*
X151236400Y-149341000I0J42000D01*
G01*
X151236400Y-147455000D01*
G75*
G02*
X151278400Y-147413000I42000J0D01*
G01*
G37*
%TD.AperFunction*%
%TO.P,U7,6*%
%TO.N,Net-(C16-Pad1)*%
%TA.AperFunction,SMDPad,CuDef*%
G36*
G01*
X150008400Y-147413000D02*
X150524400Y-147413000D01*
G75*
G02*
X150566400Y-147455000I0J-42000D01*
G01*
X150566400Y-149341000D01*
G75*
G02*
X150524400Y-149383000I-42000J0D01*
G01*
X150008400Y-149383000D01*
G75*
G02*
X149966400Y-149341000I0J42000D01*
G01*
X149966400Y-147455000D01*
G75*
G02*
X150008400Y-147413000I42000J0D01*
G01*
G37*
%TD.AperFunction*%
%TO.P,U7,5*%
%TO.N,GND*%
%TA.AperFunction,SMDPad,CuDef*%
G36*
G01*
X148738400Y-147413000D02*
X149254400Y-147413000D01*
G75*
G02*
X149296400Y-147455000I0J-42000D01*
G01*
X149296400Y-149341000D01*
G75*
G02*
X149254400Y-149383000I-42000J0D01*
G01*
X148738400Y-149383000D01*
G75*
G02*
X148696400Y-149341000I0J42000D01*
G01*
X148696400Y-147455000D01*
G75*
G02*
X148738400Y-147413000I42000J0D01*
G01*
G37*
%TD.AperFunction*%
%TO.P,U7,4*%
%TO.N,Net-(KF2-Pad6)*%
%TA.AperFunction,SMDPad,CuDef*%
G36*
G01*
X148738400Y-142463000D02*
X149254400Y-142463000D01*
G75*
G02*
X149296400Y-142505000I0J-42000D01*
G01*
X149296400Y-144391000D01*
G75*
G02*
X149254400Y-144433000I-42000J0D01*
G01*
X148738400Y-144433000D01*
G75*
G02*
X148696400Y-144391000I0J42000D01*
G01*
X148696400Y-142505000D01*
G75*
G02*
X148738400Y-142463000I42000J0D01*
G01*
G37*
%TD.AperFunction*%
%TO.P,U7,3*%
%TA.AperFunction,SMDPad,CuDef*%
G36*
G01*
X150008400Y-142463000D02*
X150524400Y-142463000D01*
G75*
G02*
X150566400Y-142505000I0J-42000D01*
G01*
X150566400Y-144391000D01*
G75*
G02*
X150524400Y-144433000I-42000J0D01*
G01*
X150008400Y-144433000D01*
G75*
G02*
X149966400Y-144391000I0J42000D01*
G01*
X149966400Y-142505000D01*
G75*
G02*
X150008400Y-142463000I42000J0D01*
G01*
G37*
%TD.AperFunction*%
%TO.P,U7,2*%
%TO.N,Net-(K1-Pad3)*%
%TA.AperFunction,SMDPad,CuDef*%
G36*
G01*
X151278400Y-142463000D02*
X151794400Y-142463000D01*
G75*
G02*
X151836400Y-142505000I0J-42000D01*
G01*
X151836400Y-144391000D01*
G75*
G02*
X151794400Y-144433000I-42000J0D01*
G01*
X151278400Y-144433000D01*
G75*
G02*
X151236400Y-144391000I0J42000D01*
G01*
X151236400Y-142505000D01*
G75*
G02*
X151278400Y-142463000I42000J0D01*
G01*
G37*
%TD.AperFunction*%
%TO.P,U7,1*%
%TA.AperFunction,SMDPad,CuDef*%
G36*
G01*
X152548400Y-142463000D02*
X153064400Y-142463000D01*
G75*
G02*
X153106400Y-142505000I0J-42000D01*
G01*
X153106400Y-144391000D01*
G75*
G02*
X153064400Y-144433000I-42000J0D01*
G01*
X152548400Y-144433000D01*
G75*
G02*
X152506400Y-144391000I0J42000D01*
G01*
X152506400Y-142505000D01*
G75*
G02*
X152548400Y-142463000I42000J0D01*
G01*
G37*
%TD.AperFunction*%
%TD*%
D10*
%TO.P,REF\u002A\u002A,*%
%TO.N,*%
X128540000Y-60833000D03*
X128540000Y-22733000D03*
X166640000Y-22733000D03*
X166640000Y-60833000D03*
%TD*%
D11*
%TO.P,J28,MH3*%
%TO.N,Net-(J28-PadMH3)*%
X135655000Y-157992000D03*
%TO.P,J28,MH2*%
%TO.N,Net-(J28-PadMH2)*%
X118115000Y-169422000D03*
%TO.P,J28,MH1*%
%TO.N,Net-(J28-PadMH1)*%
X100575000Y-157992000D03*
D12*
%TO.P,J28,12*%
%TO.N,Net-(J28-Pad12)*%
X107000000Y-163322000D03*
%TO.P,J28,11*%
%TO.N,GND*%
X111445000Y-163322000D03*
%TO.P,J28,10*%
%TO.N,Net-(D5-Pad2)*%
X115890000Y-163322000D03*
%TO.P,J28,9*%
%TO.N,GND*%
X120340000Y-163322000D03*
%TO.P,J28,8*%
X124785000Y-163322000D03*
%TO.P,J28,7*%
%TO.N,Net-(D4-Pad3)*%
X129230000Y-163322000D03*
%TO.P,J28,6*%
%TO.N,Net-(J28-Pad6)*%
X129230000Y-156972000D03*
%TO.P,J28,5*%
%TO.N,Net-(J28-Pad5)*%
X124785000Y-156972000D03*
%TO.P,J28,4*%
%TO.N,Net-(C10-Pad1)*%
X120340000Y-156972000D03*
%TO.P,J28,3*%
%TO.N,Net-(J28-Pad3)*%
X115890000Y-156972000D03*
%TO.P,J28,2*%
%TO.N,Net-(J28-Pad2)*%
X111445000Y-156972000D03*
D13*
%TO.P,J28,1*%
%TO.N,GND*%
X107000000Y-156972000D03*
%TD*%
D14*
%TO.P,J6,5*%
%TO.N,GND*%
X103035600Y-38404800D03*
%TO.P,J6,4*%
X103035600Y-35864800D03*
%TO.P,J6,3*%
%TO.N,Net-(J5-Pad3)*%
X103035600Y-33324800D03*
%TO.P,J6,2*%
%TO.N,Net-(J5-Pad2)*%
X103035600Y-30784800D03*
D15*
%TO.P,J6,1*%
%TO.N,Net-(J6-Pad1)*%
X103035600Y-28244800D03*
%TD*%
D16*
%TO.P,J5,4*%
%TO.N,GND*%
X74051400Y-29260800D03*
%TO.P,J5,3*%
%TO.N,Net-(J5-Pad3)*%
X76551400Y-29260800D03*
%TO.P,J5,2*%
%TO.N,Net-(J5-Pad2)*%
X78551400Y-29260800D03*
D17*
%TO.P,J5,1*%
%TO.N,Net-(C10-Pad1)*%
X81051400Y-29260800D03*
D18*
%TO.P,J5,5*%
%TO.N,GND*%
X70981400Y-26550800D03*
X84121400Y-26550800D03*
%TD*%
D11*
%TO.P,J7,MH3*%
%TO.N,Net-(J7-PadMH3)*%
X73655000Y-157992000D03*
%TO.P,J7,MH2*%
%TO.N,Net-(J7-PadMH2)*%
X56115000Y-169422000D03*
%TO.P,J7,MH1*%
%TO.N,Net-(J7-PadMH1)*%
X38575000Y-157992000D03*
D12*
%TO.P,J7,12*%
%TO.N,Net-(J7-Pad12)*%
X45000000Y-163322000D03*
%TO.P,J7,11*%
%TO.N,Net-(J7-Pad11)*%
X49445000Y-163322000D03*
%TO.P,J7,10*%
%TO.N,GND*%
X53890000Y-163322000D03*
%TO.P,J7,9*%
%TO.N,Net-(C10-Pad1)*%
X58340000Y-163322000D03*
%TO.P,J7,8*%
%TO.N,Net-(D2-Pad3)*%
X62785000Y-163322000D03*
%TO.P,J7,7*%
%TO.N,Net-(J7-Pad7)*%
X67230000Y-163322000D03*
%TO.P,J7,6*%
%TO.N,Net-(D5-Pad2)*%
X67230000Y-156972000D03*
%TO.P,J7,5*%
%TO.N,Net-(J7-Pad5)*%
X62785000Y-156972000D03*
%TO.P,J7,4*%
%TO.N,GND*%
X58340000Y-156972000D03*
%TO.P,J7,3*%
%TO.N,Net-(J7-Pad3)*%
X53890000Y-156972000D03*
%TO.P,J7,2*%
%TO.N,Net-(J7-Pad2)*%
X49445000Y-156972000D03*
D13*
%TO.P,J7,1*%
%TO.N,GND*%
X45000000Y-156972000D03*
%TD*%
D19*
%TO.P,D2,3*%
%TO.N,Net-(D2-Pad3)*%
X156734000Y-174498000D03*
%TO.P,D2,2*%
%TO.N,Net-(C10-Pad1)*%
X158734000Y-173548000D03*
%TO.P,D2,1*%
%TO.N,GND*%
X158734000Y-175448000D03*
%TD*%
%TO.P,R8,2*%
%TO.N,Net-(IC3-Pad3)*%
%TA.AperFunction,SMDPad,CuDef*%
G36*
G01*
X133818200Y-124958001D02*
X133818200Y-123707999D01*
G75*
G02*
X134068199Y-123458000I249999J0D01*
G01*
X134693201Y-123458000D01*
G75*
G02*
X134943200Y-123707999I0J-249999D01*
G01*
X134943200Y-124958001D01*
G75*
G02*
X134693201Y-125208000I-249999J0D01*
G01*
X134068199Y-125208000D01*
G75*
G02*
X133818200Y-124958001I0J249999D01*
G01*
G37*
%TD.AperFunction*%
%TO.P,R8,1*%
%TO.N,Net-(C1-Pad1)*%
%TA.AperFunction,SMDPad,CuDef*%
G36*
G01*
X130893200Y-124958001D02*
X130893200Y-123707999D01*
G75*
G02*
X131143199Y-123458000I249999J0D01*
G01*
X131768201Y-123458000D01*
G75*
G02*
X132018200Y-123707999I0J-249999D01*
G01*
X132018200Y-124958001D01*
G75*
G02*
X131768201Y-125208000I-249999J0D01*
G01*
X131143199Y-125208000D01*
G75*
G02*
X130893200Y-124958001I0J249999D01*
G01*
G37*
%TD.AperFunction*%
%TD*%
%TO.P,R5,2*%
%TO.N,Net-(IC3-Pad4)*%
%TA.AperFunction,SMDPad,CuDef*%
G36*
G01*
X133742000Y-128996601D02*
X133742000Y-127746599D01*
G75*
G02*
X133991999Y-127496600I249999J0D01*
G01*
X134617001Y-127496600D01*
G75*
G02*
X134867000Y-127746599I0J-249999D01*
G01*
X134867000Y-128996601D01*
G75*
G02*
X134617001Y-129246600I-249999J0D01*
G01*
X133991999Y-129246600D01*
G75*
G02*
X133742000Y-128996601I0J249999D01*
G01*
G37*
%TD.AperFunction*%
%TO.P,R5,1*%
%TO.N,Net-(C1-Pad1)*%
%TA.AperFunction,SMDPad,CuDef*%
G36*
G01*
X130817000Y-128996601D02*
X130817000Y-127746599D01*
G75*
G02*
X131066999Y-127496600I249999J0D01*
G01*
X131692001Y-127496600D01*
G75*
G02*
X131942000Y-127746599I0J-249999D01*
G01*
X131942000Y-128996601D01*
G75*
G02*
X131692001Y-129246600I-249999J0D01*
G01*
X131066999Y-129246600D01*
G75*
G02*
X130817000Y-128996601I0J249999D01*
G01*
G37*
%TD.AperFunction*%
%TD*%
%TO.P,R4,2*%
%TO.N,Net-(IC3-Pad7)*%
%TA.AperFunction,SMDPad,CuDef*%
G36*
G01*
X158608600Y-164886801D02*
X158608600Y-163636799D01*
G75*
G02*
X158858599Y-163386800I249999J0D01*
G01*
X159483601Y-163386800D01*
G75*
G02*
X159733600Y-163636799I0J-249999D01*
G01*
X159733600Y-164886801D01*
G75*
G02*
X159483601Y-165136800I-249999J0D01*
G01*
X158858599Y-165136800D01*
G75*
G02*
X158608600Y-164886801I0J249999D01*
G01*
G37*
%TD.AperFunction*%
%TO.P,R4,1*%
%TO.N,Net-(C10-Pad1)*%
%TA.AperFunction,SMDPad,CuDef*%
G36*
G01*
X155683600Y-164886801D02*
X155683600Y-163636799D01*
G75*
G02*
X155933599Y-163386800I249999J0D01*
G01*
X156558601Y-163386800D01*
G75*
G02*
X156808600Y-163636799I0J-249999D01*
G01*
X156808600Y-164886801D01*
G75*
G02*
X156558601Y-165136800I-249999J0D01*
G01*
X155933599Y-165136800D01*
G75*
G02*
X155683600Y-164886801I0J249999D01*
G01*
G37*
%TD.AperFunction*%
%TD*%
%TO.P,R3,2*%
%TO.N,Net-(IC3-Pad5)*%
%TA.AperFunction,SMDPad,CuDef*%
G36*
G01*
X158608600Y-154930001D02*
X158608600Y-153679999D01*
G75*
G02*
X158858599Y-153430000I249999J0D01*
G01*
X159483601Y-153430000D01*
G75*
G02*
X159733600Y-153679999I0J-249999D01*
G01*
X159733600Y-154930001D01*
G75*
G02*
X159483601Y-155180000I-249999J0D01*
G01*
X158858599Y-155180000D01*
G75*
G02*
X158608600Y-154930001I0J249999D01*
G01*
G37*
%TD.AperFunction*%
%TO.P,R3,1*%
%TO.N,Net-(C10-Pad1)*%
%TA.AperFunction,SMDPad,CuDef*%
G36*
G01*
X155683600Y-154930001D02*
X155683600Y-153679999D01*
G75*
G02*
X155933599Y-153430000I249999J0D01*
G01*
X156558601Y-153430000D01*
G75*
G02*
X156808600Y-153679999I0J-249999D01*
G01*
X156808600Y-154930001D01*
G75*
G02*
X156558601Y-155180000I-249999J0D01*
G01*
X155933599Y-155180000D01*
G75*
G02*
X155683600Y-154930001I0J249999D01*
G01*
G37*
%TD.AperFunction*%
%TD*%
%TO.P,R2,2*%
%TO.N,Net-(IC3-Pad6)*%
%TA.AperFunction,SMDPad,CuDef*%
G36*
G01*
X158354600Y-160010001D02*
X158354600Y-158759999D01*
G75*
G02*
X158604599Y-158510000I249999J0D01*
G01*
X159229601Y-158510000D01*
G75*
G02*
X159479600Y-158759999I0J-249999D01*
G01*
X159479600Y-160010001D01*
G75*
G02*
X159229601Y-160260000I-249999J0D01*
G01*
X158604599Y-160260000D01*
G75*
G02*
X158354600Y-160010001I0J249999D01*
G01*
G37*
%TD.AperFunction*%
%TO.P,R2,1*%
%TO.N,Net-(C10-Pad1)*%
%TA.AperFunction,SMDPad,CuDef*%
G36*
G01*
X155429600Y-160010001D02*
X155429600Y-158759999D01*
G75*
G02*
X155679599Y-158510000I249999J0D01*
G01*
X156304601Y-158510000D01*
G75*
G02*
X156554600Y-158759999I0J-249999D01*
G01*
X156554600Y-160010001D01*
G75*
G02*
X156304601Y-160260000I-249999J0D01*
G01*
X155679599Y-160260000D01*
G75*
G02*
X155429600Y-160010001I0J249999D01*
G01*
G37*
%TD.AperFunction*%
%TD*%
D20*
%TO.P,IC3,1*%
%TO.N,GND*%
X164312800Y-155944000D03*
%TO.P,IC3,2*%
%TO.N,Net-(C1-Pad1)*%
X164312800Y-155444000D03*
%TO.P,IC3,3*%
%TO.N,Net-(IC3-Pad3)*%
X164312800Y-154944000D03*
%TO.P,IC3,4*%
%TO.N,Net-(IC3-Pad4)*%
X164312800Y-154444000D03*
%TO.P,IC3,5*%
%TO.N,Net-(IC3-Pad5)*%
X161162800Y-154444000D03*
%TO.P,IC3,6*%
%TO.N,Net-(IC3-Pad6)*%
X161162800Y-154944000D03*
%TO.P,IC3,7*%
%TO.N,Net-(IC3-Pad7)*%
X161162800Y-155444000D03*
%TO.P,IC3,8*%
X161162800Y-155944000D03*
%TD*%
D19*
%TO.P,D4,3*%
%TO.N,Net-(D4-Pad3)*%
X156632400Y-169189400D03*
%TO.P,D4,2*%
%TO.N,Net-(C10-Pad1)*%
X158632400Y-168239400D03*
%TO.P,D4,1*%
%TO.N,GND*%
X158632400Y-170139400D03*
%TD*%
%TO.P,C5,2*%
%TO.N,GND*%
%TA.AperFunction,SMDPad,CuDef*%
G36*
G01*
X163974800Y-174251200D02*
X163024800Y-174251200D01*
G75*
G02*
X162774800Y-174001200I0J250000D01*
G01*
X162774800Y-173501200D01*
G75*
G02*
X163024800Y-173251200I250000J0D01*
G01*
X163974800Y-173251200D01*
G75*
G02*
X164224800Y-173501200I0J-250000D01*
G01*
X164224800Y-174001200D01*
G75*
G02*
X163974800Y-174251200I-250000J0D01*
G01*
G37*
%TD.AperFunction*%
%TO.P,C5,1*%
%TO.N,Net-(C10-Pad1)*%
%TA.AperFunction,SMDPad,CuDef*%
G36*
G01*
X163974800Y-176151200D02*
X163024800Y-176151200D01*
G75*
G02*
X162774800Y-175901200I0J250000D01*
G01*
X162774800Y-175401200D01*
G75*
G02*
X163024800Y-175151200I250000J0D01*
G01*
X163974800Y-175151200D01*
G75*
G02*
X164224800Y-175401200I0J-250000D01*
G01*
X164224800Y-175901200D01*
G75*
G02*
X163974800Y-176151200I-250000J0D01*
G01*
G37*
%TD.AperFunction*%
%TD*%
D14*
%TO.P,J16,3*%
%TO.N,Net-(J16-Pad3)*%
X143027400Y-119278400D03*
%TO.P,J16,2*%
%TO.N,Net-(IC3-Pad3)*%
X140487400Y-119278400D03*
D15*
%TO.P,J16,1*%
%TO.N,Net-(J14-Pad8)*%
X137947400Y-119278400D03*
%TD*%
D14*
%TO.P,J17,3*%
%TO.N,Net-(J17-Pad3)*%
X143027400Y-128498600D03*
%TO.P,J17,2*%
%TO.N,Net-(IC3-Pad4)*%
X140487400Y-128498600D03*
D15*
%TO.P,J17,1*%
%TO.N,Net-(J14-Pad9)*%
X137947400Y-128498600D03*
%TD*%
%TO.P,C16,2*%
%TO.N,GND*%
%TA.AperFunction,SMDPad,CuDef*%
G36*
G01*
X149435800Y-153104000D02*
X150385800Y-153104000D01*
G75*
G02*
X150635800Y-153354000I0J-250000D01*
G01*
X150635800Y-153854000D01*
G75*
G02*
X150385800Y-154104000I-250000J0D01*
G01*
X149435800Y-154104000D01*
G75*
G02*
X149185800Y-153854000I0J250000D01*
G01*
X149185800Y-153354000D01*
G75*
G02*
X149435800Y-153104000I250000J0D01*
G01*
G37*
%TD.AperFunction*%
%TO.P,C16,1*%
%TO.N,Net-(C16-Pad1)*%
%TA.AperFunction,SMDPad,CuDef*%
G36*
G01*
X149435800Y-151204000D02*
X150385800Y-151204000D01*
G75*
G02*
X150635800Y-151454000I0J-250000D01*
G01*
X150635800Y-151954000D01*
G75*
G02*
X150385800Y-152204000I-250000J0D01*
G01*
X149435800Y-152204000D01*
G75*
G02*
X149185800Y-151954000I0J250000D01*
G01*
X149185800Y-151454000D01*
G75*
G02*
X149435800Y-151204000I250000J0D01*
G01*
G37*
%TD.AperFunction*%
%TD*%
D21*
%TO.P,IC1,1*%
%TO.N,GND*%
X46253800Y-122594400D03*
%TO.P,IC1,3*%
%TO.N,Net-(C10-Pad1)*%
X46253800Y-117994400D03*
%TO.P,IC1,2*%
%TO.N,Net-(C1-Pad1)*%
X46253800Y-120294400D03*
D22*
%TO.P,IC1,4*%
%TO.N,Net-(IC1-Pad4)*%
X39953800Y-120294400D03*
%TD*%
D18*
%TO.P,M1,2*%
%TO.N,N/C*%
X141127600Y-108726000D03*
%TO.P,M1,1*%
X127127600Y-97226000D03*
%TD*%
%TO.P,C11,2*%
%TO.N,GND*%
%TA.AperFunction,SMDPad,CuDef*%
G36*
G01*
X118143000Y-24580000D02*
X119093000Y-24580000D01*
G75*
G02*
X119343000Y-24830000I0J-250000D01*
G01*
X119343000Y-25330000D01*
G75*
G02*
X119093000Y-25580000I-250000J0D01*
G01*
X118143000Y-25580000D01*
G75*
G02*
X117893000Y-25330000I0J250000D01*
G01*
X117893000Y-24830000D01*
G75*
G02*
X118143000Y-24580000I250000J0D01*
G01*
G37*
%TD.AperFunction*%
%TO.P,C11,1*%
%TO.N,Net-(C10-Pad1)*%
%TA.AperFunction,SMDPad,CuDef*%
G36*
G01*
X118143000Y-22680000D02*
X119093000Y-22680000D01*
G75*
G02*
X119343000Y-22930000I0J-250000D01*
G01*
X119343000Y-23430000D01*
G75*
G02*
X119093000Y-23680000I-250000J0D01*
G01*
X118143000Y-23680000D01*
G75*
G02*
X117893000Y-23430000I0J250000D01*
G01*
X117893000Y-22930000D01*
G75*
G02*
X118143000Y-22680000I250000J0D01*
G01*
G37*
%TD.AperFunction*%
%TD*%
D23*
%TO.P,REF\u002A\u002A,4*%
%TO.N,N/C*%
X124256800Y-92684600D03*
%TO.P,REF\u002A\u002A,3*%
X142036800Y-92684600D03*
%TO.P,REF\u002A\u002A,2*%
X142036800Y-113004600D03*
%TO.P,REF\u002A\u002A,1*%
X124256800Y-113004600D03*
%TD*%
D18*
%TO.P,REF\u002A\u002A,*%
%TO.N,*%
X93245000Y-130837000D03*
X118645000Y-130837000D03*
%TD*%
D24*
%TO.P,REF\u002A\u002A,8*%
%TO.N,N/C*%
X58746000Y-43266000D03*
X58746000Y-99266000D03*
X30746000Y-99266000D03*
X30746000Y-43266000D03*
X86626000Y-43266000D03*
X86626000Y-122006000D03*
X30746000Y-122006000D03*
%TD*%
D14*
%TO.P,J11,10*%
%TO.N,Net-(J11-Pad10)*%
X170383200Y-153187400D03*
%TO.P,J11,9*%
%TO.N,Net-(J11-Pad9)*%
X170383200Y-155727400D03*
%TO.P,J11,8*%
%TO.N,Net-(D2-Pad3)*%
X170383200Y-158267400D03*
%TO.P,J11,7*%
%TO.N,Net-(D4-Pad3)*%
X170383200Y-160807400D03*
%TO.P,J11,6*%
%TO.N,Net-(J11-Pad6)*%
X170383200Y-163347400D03*
%TO.P,J11,5*%
%TO.N,GND*%
X170383200Y-165887400D03*
%TO.P,J11,4*%
%TO.N,Net-(IC3-Pad5)*%
X170383200Y-168427400D03*
%TO.P,J11,3*%
%TO.N,Net-(IC3-Pad6)*%
X170383200Y-170967400D03*
%TO.P,J11,2*%
%TO.N,GND*%
X170383200Y-173507400D03*
D15*
%TO.P,J11,1*%
%TO.N,Net-(C10-Pad1)*%
X170383200Y-176047400D03*
%TD*%
%TO.P,C12,2*%
%TO.N,GND*%
%TA.AperFunction,SMDPad,CuDef*%
G36*
G01*
X126702800Y-66083600D02*
X127652800Y-66083600D01*
G75*
G02*
X127902800Y-66333600I0J-250000D01*
G01*
X127902800Y-66833600D01*
G75*
G02*
X127652800Y-67083600I-250000J0D01*
G01*
X126702800Y-67083600D01*
G75*
G02*
X126452800Y-66833600I0J250000D01*
G01*
X126452800Y-66333600D01*
G75*
G02*
X126702800Y-66083600I250000J0D01*
G01*
G37*
%TD.AperFunction*%
%TO.P,C12,1*%
%TO.N,Net-(C10-Pad1)*%
%TA.AperFunction,SMDPad,CuDef*%
G36*
G01*
X126702800Y-64183600D02*
X127652800Y-64183600D01*
G75*
G02*
X127902800Y-64433600I0J-250000D01*
G01*
X127902800Y-64933600D01*
G75*
G02*
X127652800Y-65183600I-250000J0D01*
G01*
X126702800Y-65183600D01*
G75*
G02*
X126452800Y-64933600I0J250000D01*
G01*
X126452800Y-64433600D01*
G75*
G02*
X126702800Y-64183600I250000J0D01*
G01*
G37*
%TD.AperFunction*%
%TD*%
D14*
%TO.P,J23,8*%
%TO.N,Net-(J23-Pad8)*%
X97025460Y-109273100D03*
%TO.P,J23,7*%
%TO.N,Net-(J23-Pad7)*%
X99565460Y-109273100D03*
%TO.P,J23,6*%
%TO.N,Net-(J14-Pad8)*%
X102105460Y-109273100D03*
%TO.P,J23,5*%
%TO.N,Net-(J14-Pad9)*%
X104645460Y-109273100D03*
%TO.P,J23,4*%
%TO.N,Net-(J23-Pad4)*%
X107185460Y-109273100D03*
%TO.P,J23,3*%
%TO.N,Net-(J23-Pad3)*%
X109725460Y-109273100D03*
%TO.P,J23,2*%
%TO.N,Net-(J23-Pad2)*%
X112265460Y-109273100D03*
D15*
%TO.P,J23,1*%
%TO.N,Net-(J23-Pad1)*%
X114805460Y-109273100D03*
%TD*%
%TO.P,C3,2*%
%TO.N,GND*%
%TA.AperFunction,SMDPad,CuDef*%
G36*
G01*
X29903000Y-106967000D02*
X29903000Y-107917000D01*
G75*
G02*
X29653000Y-108167000I-250000J0D01*
G01*
X29153000Y-108167000D01*
G75*
G02*
X28903000Y-107917000I0J250000D01*
G01*
X28903000Y-106967000D01*
G75*
G02*
X29153000Y-106717000I250000J0D01*
G01*
X29653000Y-106717000D01*
G75*
G02*
X29903000Y-106967000I0J-250000D01*
G01*
G37*
%TD.AperFunction*%
%TO.P,C3,1*%
%TO.N,Net-(C2-Pad1)*%
%TA.AperFunction,SMDPad,CuDef*%
G36*
G01*
X31803000Y-106967000D02*
X31803000Y-107917000D01*
G75*
G02*
X31553000Y-108167000I-250000J0D01*
G01*
X31053000Y-108167000D01*
G75*
G02*
X30803000Y-107917000I0J250000D01*
G01*
X30803000Y-106967000D01*
G75*
G02*
X31053000Y-106717000I250000J0D01*
G01*
X31553000Y-106717000D01*
G75*
G02*
X31803000Y-106967000I0J-250000D01*
G01*
G37*
%TD.AperFunction*%
%TD*%
D25*
%TO.P,U1,24*%
%TO.N,Net-(C2-Pad1)*%
X33255000Y-104223000D03*
%TO.P,U1,23*%
%TO.N,Net-(J1-Pad4)*%
X33905000Y-104223000D03*
%TO.P,U1,22*%
%TO.N,Net-(J12-Pad11)*%
X34555000Y-104223000D03*
%TO.P,U1,21*%
%TO.N,Net-(J1-Pad3)*%
X35205000Y-104223000D03*
%TO.P,U1,20*%
%TO.N,Net-(C1-Pad1)*%
X35855000Y-104223000D03*
%TO.P,U1,19*%
%TO.N,Net-(J12-Pad12)*%
X36505000Y-104223000D03*
%TO.P,U1,18*%
%TO.N,GND*%
X37155000Y-104223000D03*
%TO.P,U1,17*%
%TO.N,Net-(U1-Pad17)*%
X37805000Y-104223000D03*
%TO.P,U1,16*%
%TO.N,Net-(U1-Pad16)*%
X38455000Y-104223000D03*
%TO.P,U1,15*%
%TO.N,Net-(U1-Pad15)*%
X39105000Y-104223000D03*
%TO.P,U1,14*%
%TO.N,Net-(C2-Pad1)*%
X39755000Y-104223000D03*
%TO.P,U1,13*%
X40405000Y-104223000D03*
%TO.P,U1,12*%
%TO.N,Net-(U1-Pad11)*%
X40405000Y-111423000D03*
%TO.P,U1,11*%
X39755000Y-111423000D03*
%TO.P,U1,10*%
%TO.N,GND*%
X39105000Y-111423000D03*
%TO.P,U1,9*%
X38455000Y-111423000D03*
%TO.P,U1,8*%
%TO.N,Net-(U1-Pad7)*%
X37805000Y-111423000D03*
%TO.P,U1,7*%
X37155000Y-111423000D03*
%TO.P,U1,6*%
%TO.N,Net-(J7-Pad12)*%
X36505000Y-111423000D03*
%TO.P,U1,5*%
X35855000Y-111423000D03*
%TO.P,U1,4*%
%TO.N,GND*%
X35205000Y-111423000D03*
%TO.P,U1,3*%
X34555000Y-111423000D03*
%TO.P,U1,2*%
%TO.N,Net-(J7-Pad11)*%
X33905000Y-111423000D03*
%TO.P,U1,1*%
X33255000Y-111423000D03*
%TD*%
%TO.P,C2,2*%
%TO.N,GND*%
%TA.AperFunction,SMDPad,CuDef*%
G36*
G01*
X29903000Y-103538000D02*
X29903000Y-104488000D01*
G75*
G02*
X29653000Y-104738000I-250000J0D01*
G01*
X29153000Y-104738000D01*
G75*
G02*
X28903000Y-104488000I0J250000D01*
G01*
X28903000Y-103538000D01*
G75*
G02*
X29153000Y-103288000I250000J0D01*
G01*
X29653000Y-103288000D01*
G75*
G02*
X29903000Y-103538000I0J-250000D01*
G01*
G37*
%TD.AperFunction*%
%TO.P,C2,1*%
%TO.N,Net-(C2-Pad1)*%
%TA.AperFunction,SMDPad,CuDef*%
G36*
G01*
X31803000Y-103538000D02*
X31803000Y-104488000D01*
G75*
G02*
X31553000Y-104738000I-250000J0D01*
G01*
X31053000Y-104738000D01*
G75*
G02*
X30803000Y-104488000I0J250000D01*
G01*
X30803000Y-103538000D01*
G75*
G02*
X31053000Y-103288000I250000J0D01*
G01*
X31553000Y-103288000D01*
G75*
G02*
X31803000Y-103538000I0J-250000D01*
G01*
G37*
%TD.AperFunction*%
%TD*%
%TO.P,C1,2*%
%TO.N,GND*%
%TA.AperFunction,SMDPad,CuDef*%
G36*
G01*
X39631600Y-99459200D02*
X40581600Y-99459200D01*
G75*
G02*
X40831600Y-99709200I0J-250000D01*
G01*
X40831600Y-100209200D01*
G75*
G02*
X40581600Y-100459200I-250000J0D01*
G01*
X39631600Y-100459200D01*
G75*
G02*
X39381600Y-100209200I0J250000D01*
G01*
X39381600Y-99709200D01*
G75*
G02*
X39631600Y-99459200I250000J0D01*
G01*
G37*
%TD.AperFunction*%
%TO.P,C1,1*%
%TO.N,Net-(C1-Pad1)*%
%TA.AperFunction,SMDPad,CuDef*%
G36*
G01*
X39631600Y-97559200D02*
X40581600Y-97559200D01*
G75*
G02*
X40831600Y-97809200I0J-250000D01*
G01*
X40831600Y-98309200D01*
G75*
G02*
X40581600Y-98559200I-250000J0D01*
G01*
X39631600Y-98559200D01*
G75*
G02*
X39381600Y-98309200I0J250000D01*
G01*
X39381600Y-97809200D01*
G75*
G02*
X39631600Y-97559200I250000J0D01*
G01*
G37*
%TD.AperFunction*%
%TD*%
%TO.P,C15,2*%
%TO.N,GND*%
%TA.AperFunction,SMDPad,CuDef*%
G36*
G01*
X113099000Y-126205000D02*
X113099000Y-125255000D01*
G75*
G02*
X113349000Y-125005000I250000J0D01*
G01*
X113849000Y-125005000D01*
G75*
G02*
X114099000Y-125255000I0J-250000D01*
G01*
X114099000Y-126205000D01*
G75*
G02*
X113849000Y-126455000I-250000J0D01*
G01*
X113349000Y-126455000D01*
G75*
G02*
X113099000Y-126205000I0J250000D01*
G01*
G37*
%TD.AperFunction*%
%TO.P,C15,1*%
%TO.N,Net-(C1-Pad1)*%
%TA.AperFunction,SMDPad,CuDef*%
G36*
G01*
X111199000Y-126205000D02*
X111199000Y-125255000D01*
G75*
G02*
X111449000Y-125005000I250000J0D01*
G01*
X111949000Y-125005000D01*
G75*
G02*
X112199000Y-125255000I0J-250000D01*
G01*
X112199000Y-126205000D01*
G75*
G02*
X111949000Y-126455000I-250000J0D01*
G01*
X111449000Y-126455000D01*
G75*
G02*
X111199000Y-126205000I0J250000D01*
G01*
G37*
%TD.AperFunction*%
%TD*%
%TO.P,R9,2*%
%TO.N,Net-(J7-Pad2)*%
%TA.AperFunction,SMDPad,CuDef*%
G36*
G01*
X125617400Y-126197199D02*
X125617400Y-127447201D01*
G75*
G02*
X125367401Y-127697200I-249999J0D01*
G01*
X124742399Y-127697200D01*
G75*
G02*
X124492400Y-127447201I0J249999D01*
G01*
X124492400Y-126197199D01*
G75*
G02*
X124742399Y-125947200I249999J0D01*
G01*
X125367401Y-125947200D01*
G75*
G02*
X125617400Y-126197199I0J-249999D01*
G01*
G37*
%TD.AperFunction*%
%TO.P,R9,1*%
%TO.N,Net-(J7-Pad3)*%
%TA.AperFunction,SMDPad,CuDef*%
G36*
G01*
X128542400Y-126197199D02*
X128542400Y-127447201D01*
G75*
G02*
X128292401Y-127697200I-249999J0D01*
G01*
X127667399Y-127697200D01*
G75*
G02*
X127417400Y-127447201I0J249999D01*
G01*
X127417400Y-126197199D01*
G75*
G02*
X127667399Y-125947200I249999J0D01*
G01*
X128292401Y-125947200D01*
G75*
G02*
X128542400Y-126197199I0J-249999D01*
G01*
G37*
%TD.AperFunction*%
%TD*%
D26*
%TO.P,KF2,6*%
%TO.N,Net-(KF2-Pad6)*%
X108038900Y-143178400D03*
X108038900Y-150798400D03*
%TO.P,KF2,5*%
%TO.N,Net-(J28-Pad5)*%
X102958900Y-143178400D03*
X102958900Y-150798400D03*
%TO.P,KF2,4*%
%TO.N,Net-(J28-Pad12)*%
X97878900Y-143178400D03*
X97878900Y-150798400D03*
%TO.P,KF2,3*%
%TO.N,GND*%
X92798900Y-143178400D03*
X92798900Y-150798400D03*
%TO.P,KF2,2*%
%TO.N,Net-(D5-Pad2)*%
X87718900Y-143178400D03*
X87718900Y-150798400D03*
D27*
%TO.P,KF2,1*%
X82638900Y-143178400D03*
X82638900Y-150798400D03*
%TD*%
D26*
%TO.P,KF1,4*%
%TO.N,GND*%
X44373800Y-142949800D03*
X44373800Y-150569800D03*
%TO.P,KF1,3*%
%TO.N,Net-(C10-Pad1)*%
X39293800Y-142949800D03*
X39293800Y-150569800D03*
%TO.P,KF1,2*%
%TO.N,Net-(J7-Pad12)*%
X34213800Y-142949800D03*
X34213800Y-150569800D03*
D27*
%TO.P,KF1,1*%
%TO.N,Net-(J7-Pad11)*%
X29133800Y-142949800D03*
X29133800Y-150569800D03*
%TD*%
D28*
%TO.P,K1,2*%
%TO.N,Net-(D1-Pad2)*%
X169753800Y-131336800D03*
%TO.P,K1,4*%
%TO.N,Net-(K1-Pad4)*%
X169753800Y-143536800D03*
%TO.P,K1,5*%
%TO.N,Net-(J28-Pad6)*%
X157753800Y-143536800D03*
%TO.P,K1,1*%
%TO.N,Net-(C10-Pad1)*%
X157753800Y-131336800D03*
D29*
%TO.P,K1,3*%
%TO.N,Net-(K1-Pad3)*%
X163753800Y-129336800D03*
%TD*%
D30*
%TO.P,D3,2*%
%TO.N,GND*%
X80365600Y-131616200D03*
%TO.P,D3,1*%
%TO.N,Net-(D3-Pad1)*%
X80365600Y-127616200D03*
%TD*%
D31*
%TO.P,J2,4*%
%TO.N,GND*%
X106299000Y-93678000D03*
%TO.P,J2,3*%
%TO.N,Net-(J2-Pad3)*%
X106299000Y-91678000D03*
%TO.P,J2,2*%
%TO.N,Net-(J1-Pad3)*%
X106299000Y-89678000D03*
D32*
%TO.P,J2,1*%
%TO.N,Net-(J1-Pad4)*%
X106299000Y-87678000D03*
%TD*%
D15*
%TO.P,J8,1*%
%TO.N,Net-(C10-Pad1)*%
X41249600Y-131572000D03*
D14*
%TO.P,J8,2*%
X41249600Y-134112000D03*
%TO.P,J8,3*%
%TO.N,GND*%
X43789600Y-131572000D03*
%TO.P,J8,4*%
X43789600Y-134112000D03*
%TD*%
D33*
%TO.P,J9,MH2*%
%TO.N,GND*%
X40464200Y-29288200D03*
%TO.P,J9,MH1*%
X55954200Y-29288200D03*
D34*
%TO.P,J9,12*%
%TO.N,Net-(J9-Pad12)*%
X41584200Y-21338200D03*
%TO.P,J9,11*%
%TO.N,Net-(J9-Pad11)*%
X44124200Y-21338200D03*
%TO.P,J9,10*%
%TO.N,GND*%
X52294200Y-21338200D03*
%TO.P,J9,9*%
%TO.N,Net-(J10-Pad3)*%
X54834200Y-21338200D03*
D35*
%TO.P,J9,8*%
%TO.N,GND*%
X43764200Y-35128200D03*
%TO.P,J9,7*%
%TO.N,Net-(J9-Pad7)*%
X45034200Y-32588200D03*
%TO.P,J9,6*%
%TO.N,Net-(J10-Pad2)*%
X46304200Y-35128200D03*
%TO.P,J9,5*%
%TO.N,Net-(C4-Pad1)*%
X47574200Y-32588200D03*
%TO.P,J9,4*%
X48844200Y-35128200D03*
%TO.P,J9,3*%
%TO.N,Net-(J10-Pad1)*%
X50114200Y-32588200D03*
%TO.P,J9,2*%
%TO.N,Net-(J10-Pad5)*%
X51384200Y-35128200D03*
%TO.P,J9,1*%
%TO.N,Net-(J10-Pad6)*%
X52654200Y-32588200D03*
%TD*%
%TO.P,R1,2*%
%TO.N,Net-(Q1-Pad1)*%
%TA.AperFunction,SMDPad,CuDef*%
G36*
G01*
X147583998Y-129997500D02*
X148834002Y-129997500D01*
G75*
G02*
X149084000Y-130247498I0J-249998D01*
G01*
X149084000Y-130872502D01*
G75*
G02*
X148834002Y-131122500I-249998J0D01*
G01*
X147583998Y-131122500D01*
G75*
G02*
X147334000Y-130872502I0J249998D01*
G01*
X147334000Y-130247498D01*
G75*
G02*
X147583998Y-129997500I249998J0D01*
G01*
G37*
%TD.AperFunction*%
%TO.P,R1,1*%
%TO.N,Net-(J15-Pad5)*%
%TA.AperFunction,SMDPad,CuDef*%
G36*
G01*
X147583998Y-127072500D02*
X148834002Y-127072500D01*
G75*
G02*
X149084000Y-127322498I0J-249998D01*
G01*
X149084000Y-127947502D01*
G75*
G02*
X148834002Y-128197500I-249998J0D01*
G01*
X147583998Y-128197500D01*
G75*
G02*
X147334000Y-127947502I0J249998D01*
G01*
X147334000Y-127322498D01*
G75*
G02*
X147583998Y-127072500I249998J0D01*
G01*
G37*
%TD.AperFunction*%
%TD*%
%TO.P,R11,2*%
%TO.N,Net-(R11-Pad2)*%
%TA.AperFunction,SMDPad,CuDef*%
G36*
G01*
X132500800Y-147558598D02*
X132500800Y-148808602D01*
G75*
G02*
X132250802Y-149058600I-249998J0D01*
G01*
X131625798Y-149058600D01*
G75*
G02*
X131375800Y-148808602I0J249998D01*
G01*
X131375800Y-147558598D01*
G75*
G02*
X131625798Y-147308600I249998J0D01*
G01*
X132250802Y-147308600D01*
G75*
G02*
X132500800Y-147558598I0J-249998D01*
G01*
G37*
%TD.AperFunction*%
%TO.P,R11,1*%
%TO.N,Net-(C10-Pad1)*%
%TA.AperFunction,SMDPad,CuDef*%
G36*
G01*
X135425800Y-147558598D02*
X135425800Y-148808602D01*
G75*
G02*
X135175802Y-149058600I-249998J0D01*
G01*
X134550798Y-149058600D01*
G75*
G02*
X134300800Y-148808602I0J249998D01*
G01*
X134300800Y-147558598D01*
G75*
G02*
X134550798Y-147308600I249998J0D01*
G01*
X135175802Y-147308600D01*
G75*
G02*
X135425800Y-147558598I0J-249998D01*
G01*
G37*
%TD.AperFunction*%
%TD*%
%TO.P,R12,2*%
%TO.N,Net-(R12-Pad2)*%
%TA.AperFunction,SMDPad,CuDef*%
G36*
G01*
X125122100Y-147558598D02*
X125122100Y-148808602D01*
G75*
G02*
X124872102Y-149058600I-249998J0D01*
G01*
X124247098Y-149058600D01*
G75*
G02*
X123997100Y-148808602I0J249998D01*
G01*
X123997100Y-147558598D01*
G75*
G02*
X124247098Y-147308600I249998J0D01*
G01*
X124872102Y-147308600D01*
G75*
G02*
X125122100Y-147558598I0J-249998D01*
G01*
G37*
%TD.AperFunction*%
%TO.P,R12,1*%
%TO.N,Net-(C10-Pad1)*%
%TA.AperFunction,SMDPad,CuDef*%
G36*
G01*
X128047100Y-147558598D02*
X128047100Y-148808602D01*
G75*
G02*
X127797102Y-149058600I-249998J0D01*
G01*
X127172098Y-149058600D01*
G75*
G02*
X126922100Y-148808602I0J249998D01*
G01*
X126922100Y-147558598D01*
G75*
G02*
X127172098Y-147308600I249998J0D01*
G01*
X127797102Y-147308600D01*
G75*
G02*
X128047100Y-147558598I0J-249998D01*
G01*
G37*
%TD.AperFunction*%
%TD*%
%TO.P,R13,2*%
%TO.N,Net-(R13-Pad2)*%
%TA.AperFunction,SMDPad,CuDef*%
G36*
G01*
X117743400Y-147558598D02*
X117743400Y-148808602D01*
G75*
G02*
X117493402Y-149058600I-249998J0D01*
G01*
X116868398Y-149058600D01*
G75*
G02*
X116618400Y-148808602I0J249998D01*
G01*
X116618400Y-147558598D01*
G75*
G02*
X116868398Y-147308600I249998J0D01*
G01*
X117493402Y-147308600D01*
G75*
G02*
X117743400Y-147558598I0J-249998D01*
G01*
G37*
%TD.AperFunction*%
%TO.P,R13,1*%
%TO.N,Net-(C10-Pad1)*%
%TA.AperFunction,SMDPad,CuDef*%
G36*
G01*
X120668400Y-147558598D02*
X120668400Y-148808602D01*
G75*
G02*
X120418402Y-149058600I-249998J0D01*
G01*
X119793398Y-149058600D01*
G75*
G02*
X119543400Y-148808602I0J249998D01*
G01*
X119543400Y-147558598D01*
G75*
G02*
X119793398Y-147308600I249998J0D01*
G01*
X120418402Y-147308600D01*
G75*
G02*
X120668400Y-147558598I0J-249998D01*
G01*
G37*
%TD.AperFunction*%
%TD*%
D36*
%TO.P,D5,1*%
%TO.N,Net-(C2-Pad1)*%
X51943000Y-147320000D03*
D37*
%TO.P,D5,2*%
%TO.N,Net-(D5-Pad2)*%
X74543000Y-147320000D03*
%TD*%
%TO.P,R6,2*%
%TO.N,Net-(J14-Pad8)*%
%TA.AperFunction,SMDPad,CuDef*%
G36*
G01*
X109082000Y-47507997D02*
X109082000Y-48758003D01*
G75*
G02*
X108832003Y-49008000I-249997J0D01*
G01*
X108206997Y-49008000D01*
G75*
G02*
X107957000Y-48758003I0J249997D01*
G01*
X107957000Y-47507997D01*
G75*
G02*
X108206997Y-47258000I249997J0D01*
G01*
X108832003Y-47258000D01*
G75*
G02*
X109082000Y-47507997I0J-249997D01*
G01*
G37*
%TD.AperFunction*%
%TO.P,R6,1*%
%TO.N,Net-(J12-Pad15)*%
%TA.AperFunction,SMDPad,CuDef*%
G36*
G01*
X112007000Y-47507997D02*
X112007000Y-48758003D01*
G75*
G02*
X111757003Y-49008000I-249997J0D01*
G01*
X111131997Y-49008000D01*
G75*
G02*
X110882000Y-48758003I0J249997D01*
G01*
X110882000Y-47507997D01*
G75*
G02*
X111131997Y-47258000I249997J0D01*
G01*
X111757003Y-47258000D01*
G75*
G02*
X112007000Y-47507997I0J-249997D01*
G01*
G37*
%TD.AperFunction*%
%TD*%
%TO.P,R7,2*%
%TO.N,Net-(J14-Pad9)*%
%TA.AperFunction,SMDPad,CuDef*%
G36*
G01*
X109082000Y-50682997D02*
X109082000Y-51933003D01*
G75*
G02*
X108832003Y-52183000I-249997J0D01*
G01*
X108206997Y-52183000D01*
G75*
G02*
X107957000Y-51933003I0J249997D01*
G01*
X107957000Y-50682997D01*
G75*
G02*
X108206997Y-50433000I249997J0D01*
G01*
X108832003Y-50433000D01*
G75*
G02*
X109082000Y-50682997I0J-249997D01*
G01*
G37*
%TD.AperFunction*%
%TO.P,R7,1*%
%TO.N,Net-(J12-Pad15)*%
%TA.AperFunction,SMDPad,CuDef*%
G36*
G01*
X112007000Y-50682997D02*
X112007000Y-51933003D01*
G75*
G02*
X111757003Y-52183000I-249997J0D01*
G01*
X111131997Y-52183000D01*
G75*
G02*
X110882000Y-51933003I0J249997D01*
G01*
X110882000Y-50682997D01*
G75*
G02*
X111131997Y-50433000I249997J0D01*
G01*
X111757003Y-50433000D01*
G75*
G02*
X112007000Y-50682997I0J-249997D01*
G01*
G37*
%TD.AperFunction*%
%TD*%
%TO.P,C4,2*%
%TO.N,GND*%
%TA.AperFunction,SMDPad,CuDef*%
G36*
G01*
X36177200Y-34816200D02*
X37127200Y-34816200D01*
G75*
G02*
X37377200Y-35066200I0J-250000D01*
G01*
X37377200Y-35566200D01*
G75*
G02*
X37127200Y-35816200I-250000J0D01*
G01*
X36177200Y-35816200D01*
G75*
G02*
X35927200Y-35566200I0J250000D01*
G01*
X35927200Y-35066200D01*
G75*
G02*
X36177200Y-34816200I250000J0D01*
G01*
G37*
%TD.AperFunction*%
%TO.P,C4,1*%
%TO.N,Net-(C4-Pad1)*%
%TA.AperFunction,SMDPad,CuDef*%
G36*
G01*
X36177200Y-32916200D02*
X37127200Y-32916200D01*
G75*
G02*
X37377200Y-33166200I0J-250000D01*
G01*
X37377200Y-33666200D01*
G75*
G02*
X37127200Y-33916200I-250000J0D01*
G01*
X36177200Y-33916200D01*
G75*
G02*
X35927200Y-33666200I0J250000D01*
G01*
X35927200Y-33166200D01*
G75*
G02*
X36177200Y-32916200I250000J0D01*
G01*
G37*
%TD.AperFunction*%
%TD*%
D14*
%TO.P,J15,8*%
%TO.N,Net-(J15-Pad8)*%
X115224800Y-80365600D03*
%TO.P,J15,7*%
%TO.N,Net-(J15-Pad7)*%
X115224800Y-77825600D03*
%TO.P,J15,6*%
%TO.N,Net-(J15-Pad6)*%
X115224800Y-75285600D03*
%TO.P,J15,5*%
%TO.N,Net-(J15-Pad5)*%
X115224800Y-72745600D03*
%TO.P,J15,4*%
%TO.N,Net-(J15-Pad4)*%
X115224800Y-70205600D03*
%TO.P,J15,3*%
%TO.N,Net-(J15-Pad3)*%
X115224800Y-67665600D03*
%TO.P,J15,2*%
%TO.N,Net-(J15-Pad2)*%
X115224800Y-65125600D03*
D15*
%TO.P,J15,1*%
%TO.N,Net-(J15-Pad1)*%
X115224800Y-62585600D03*
%TD*%
D38*
%TO.P,U2,8*%
%TO.N,Net-(C1-Pad1)*%
X127584200Y-122988000D03*
%TO.P,U2,7*%
%TO.N,Net-(J7-Pad3)*%
X126314200Y-122988000D03*
%TO.P,U2,6*%
%TO.N,Net-(J7-Pad2)*%
X125044200Y-122988000D03*
%TO.P,U2,5*%
%TO.N,GND*%
X123774200Y-122988000D03*
%TO.P,U2,4*%
%TO.N,Net-(J15-Pad6)*%
X123774200Y-118058000D03*
%TO.P,U2,3*%
%TO.N,Net-(J15-Pad8)*%
X125044200Y-118058000D03*
%TO.P,U2,2*%
X126314200Y-118058000D03*
%TO.P,U2,1*%
%TO.N,Net-(J15-Pad7)*%
X127584200Y-118058000D03*
%TD*%
%TO.P,C6,2*%
%TO.N,GND*%
%TA.AperFunction,SMDPad,CuDef*%
G36*
G01*
X49537600Y-121846800D02*
X50487600Y-121846800D01*
G75*
G02*
X50737600Y-122096800I0J-250000D01*
G01*
X50737600Y-122596800D01*
G75*
G02*
X50487600Y-122846800I-250000J0D01*
G01*
X49537600Y-122846800D01*
G75*
G02*
X49287600Y-122596800I0J250000D01*
G01*
X49287600Y-122096800D01*
G75*
G02*
X49537600Y-121846800I250000J0D01*
G01*
G37*
%TD.AperFunction*%
%TO.P,C6,1*%
%TO.N,Net-(C10-Pad1)*%
%TA.AperFunction,SMDPad,CuDef*%
G36*
G01*
X49537600Y-119946800D02*
X50487600Y-119946800D01*
G75*
G02*
X50737600Y-120196800I0J-250000D01*
G01*
X50737600Y-120696800D01*
G75*
G02*
X50487600Y-120946800I-250000J0D01*
G01*
X49537600Y-120946800D01*
G75*
G02*
X49287600Y-120696800I0J250000D01*
G01*
X49287600Y-120196800D01*
G75*
G02*
X49537600Y-119946800I250000J0D01*
G01*
G37*
%TD.AperFunction*%
%TD*%
D39*
%TO.P,D1,2*%
%TO.N,Net-(D1-Pad2)*%
X148495000Y-133985000D03*
%TO.P,D1,1*%
%TO.N,Net-(C10-Pad1)*%
X152495000Y-133985000D03*
%TD*%
D40*
%TO.P,IC2,6*%
%TO.N,GND*%
X70040500Y-138869300D03*
D41*
%TO.P,IC2,5*%
X66640500Y-129239300D03*
%TO.P,IC2,4*%
%TO.N,Net-(C10-Pad1)*%
X68340500Y-129239300D03*
%TO.P,IC2,3*%
%TO.N,GND*%
X70040500Y-129239300D03*
%TO.P,IC2,2*%
%TO.N,Net-(D3-Pad1)*%
X71740500Y-129239300D03*
%TO.P,IC2,1*%
%TO.N,Net-(C2-Pad1)*%
X73440500Y-129239300D03*
%TD*%
%TO.P,C8,2*%
%TO.N,GND*%
%TA.AperFunction,SMDPad,CuDef*%
G36*
G01*
X62705000Y-129598000D02*
X61755000Y-129598000D01*
G75*
G02*
X61505000Y-129348000I0J250000D01*
G01*
X61505000Y-128848000D01*
G75*
G02*
X61755000Y-128598000I250000J0D01*
G01*
X62705000Y-128598000D01*
G75*
G02*
X62955000Y-128848000I0J-250000D01*
G01*
X62955000Y-129348000D01*
G75*
G02*
X62705000Y-129598000I-250000J0D01*
G01*
G37*
%TD.AperFunction*%
%TO.P,C8,1*%
%TO.N,Net-(C2-Pad1)*%
%TA.AperFunction,SMDPad,CuDef*%
G36*
G01*
X62705000Y-131498000D02*
X61755000Y-131498000D01*
G75*
G02*
X61505000Y-131248000I0J250000D01*
G01*
X61505000Y-130748000D01*
G75*
G02*
X61755000Y-130498000I250000J0D01*
G01*
X62705000Y-130498000D01*
G75*
G02*
X62955000Y-130748000I0J-250000D01*
G01*
X62955000Y-131248000D01*
G75*
G02*
X62705000Y-131498000I-250000J0D01*
G01*
G37*
%TD.AperFunction*%
%TD*%
D42*
%TO.P,L1,2*%
%TO.N,Net-(C10-Pad1)*%
X72596200Y-119126000D03*
%TO.P,L1,1*%
%TO.N,Net-(D3-Pad1)*%
X82496200Y-119126000D03*
%TD*%
%TO.P,C10,2*%
%TO.N,GND*%
%TA.AperFunction,SMDPad,CuDef*%
G36*
G01*
X60103000Y-118126000D02*
X60103000Y-120126000D01*
G75*
G02*
X59853000Y-120376000I-250000J0D01*
G01*
X55953000Y-120376000D01*
G75*
G02*
X55703000Y-120126000I0J250000D01*
G01*
X55703000Y-118126000D01*
G75*
G02*
X55953000Y-117876000I250000J0D01*
G01*
X59853000Y-117876000D01*
G75*
G02*
X60103000Y-118126000I0J-250000D01*
G01*
G37*
%TD.AperFunction*%
%TO.P,C10,1*%
%TO.N,Net-(C10-Pad1)*%
%TA.AperFunction,SMDPad,CuDef*%
G36*
G01*
X68503000Y-118126000D02*
X68503000Y-120126000D01*
G75*
G02*
X68253000Y-120376000I-250000J0D01*
G01*
X64353000Y-120376000D01*
G75*
G02*
X64103000Y-120126000I0J250000D01*
G01*
X64103000Y-118126000D01*
G75*
G02*
X64353000Y-117876000I250000J0D01*
G01*
X68253000Y-117876000D01*
G75*
G02*
X68503000Y-118126000I0J-250000D01*
G01*
G37*
%TD.AperFunction*%
%TD*%
%TO.P,C9,2*%
%TO.N,GND*%
%TA.AperFunction,SMDPad,CuDef*%
G36*
G01*
X54819800Y-136744200D02*
X54819800Y-138744200D01*
G75*
G02*
X54569800Y-138994200I-250000J0D01*
G01*
X50669800Y-138994200D01*
G75*
G02*
X50419800Y-138744200I0J250000D01*
G01*
X50419800Y-136744200D01*
G75*
G02*
X50669800Y-136494200I250000J0D01*
G01*
X54569800Y-136494200D01*
G75*
G02*
X54819800Y-136744200I0J-250000D01*
G01*
G37*
%TD.AperFunction*%
%TO.P,C9,1*%
%TO.N,Net-(C2-Pad1)*%
%TA.AperFunction,SMDPad,CuDef*%
G36*
G01*
X63219800Y-136744200D02*
X63219800Y-138744200D01*
G75*
G02*
X62969800Y-138994200I-250000J0D01*
G01*
X59069800Y-138994200D01*
G75*
G02*
X58819800Y-138744200I0J250000D01*
G01*
X58819800Y-136744200D01*
G75*
G02*
X59069800Y-136494200I250000J0D01*
G01*
X62969800Y-136494200D01*
G75*
G02*
X63219800Y-136744200I0J-250000D01*
G01*
G37*
%TD.AperFunction*%
%TD*%
%TO.P,R10,2*%
%TO.N,Net-(R10-Pad2)*%
%TA.AperFunction,SMDPad,CuDef*%
G36*
G01*
X141057200Y-136921403D02*
X141057200Y-135671397D01*
G75*
G02*
X141307197Y-135421400I249997J0D01*
G01*
X141932203Y-135421400D01*
G75*
G02*
X142182200Y-135671397I0J-249997D01*
G01*
X142182200Y-136921403D01*
G75*
G02*
X141932203Y-137171400I-249997J0D01*
G01*
X141307197Y-137171400D01*
G75*
G02*
X141057200Y-136921403I0J249997D01*
G01*
G37*
%TD.AperFunction*%
%TO.P,R10,1*%
%TO.N,Net-(J15-Pad4)*%
%TA.AperFunction,SMDPad,CuDef*%
G36*
G01*
X138132200Y-136921403D02*
X138132200Y-135671397D01*
G75*
G02*
X138382197Y-135421400I249997J0D01*
G01*
X139007203Y-135421400D01*
G75*
G02*
X139257200Y-135671397I0J-249997D01*
G01*
X139257200Y-136921403D01*
G75*
G02*
X139007203Y-137171400I-249997J0D01*
G01*
X138382197Y-137171400D01*
G75*
G02*
X138132200Y-136921403I0J249997D01*
G01*
G37*
%TD.AperFunction*%
%TD*%
%TO.P,U3,4*%
%TO.N,Net-(J7-Pad7)*%
%TA.AperFunction,SMDPad,CuDef*%
G36*
G01*
X140953600Y-146740400D02*
X141900800Y-146740400D01*
G75*
G02*
X142167200Y-147006800I0J-266400D01*
G01*
X142167200Y-148624000D01*
G75*
G02*
X141900800Y-148890400I-266400J0D01*
G01*
X140953600Y-148890400D01*
G75*
G02*
X140687200Y-148624000I0J266400D01*
G01*
X140687200Y-147006800D01*
G75*
G02*
X140953600Y-146740400I266400J0D01*
G01*
G37*
%TD.AperFunction*%
%TO.P,U3,3*%
%TO.N,GND*%
%TA.AperFunction,SMDPad,CuDef*%
G36*
G01*
X138413600Y-146740400D02*
X139360800Y-146740400D01*
G75*
G02*
X139627200Y-147006800I0J-266400D01*
G01*
X139627200Y-148624000D01*
G75*
G02*
X139360800Y-148890400I-266400J0D01*
G01*
X138413600Y-148890400D01*
G75*
G02*
X138147200Y-148624000I0J266400D01*
G01*
X138147200Y-147006800D01*
G75*
G02*
X138413600Y-146740400I266400J0D01*
G01*
G37*
%TD.AperFunction*%
%TO.P,U3,2*%
%TA.AperFunction,SMDPad,CuDef*%
G36*
G01*
X138413600Y-138180400D02*
X139360800Y-138180400D01*
G75*
G02*
X139627200Y-138446800I0J-266400D01*
G01*
X139627200Y-140064000D01*
G75*
G02*
X139360800Y-140330400I-266400J0D01*
G01*
X138413600Y-140330400D01*
G75*
G02*
X138147200Y-140064000I0J266400D01*
G01*
X138147200Y-138446800D01*
G75*
G02*
X138413600Y-138180400I266400J0D01*
G01*
G37*
%TD.AperFunction*%
%TO.P,U3,1*%
%TO.N,Net-(R10-Pad2)*%
%TA.AperFunction,SMDPad,CuDef*%
G36*
G01*
X140953600Y-138180400D02*
X141900800Y-138180400D01*
G75*
G02*
X142167200Y-138446800I0J-266400D01*
G01*
X142167200Y-140064000D01*
G75*
G02*
X141900800Y-140330400I-266400J0D01*
G01*
X140953600Y-140330400D01*
G75*
G02*
X140687200Y-140064000I0J266400D01*
G01*
X140687200Y-138446800D01*
G75*
G02*
X140953600Y-138180400I266400J0D01*
G01*
G37*
%TD.AperFunction*%
%TD*%
D14*
%TO.P,J22,8*%
%TO.N,Net-(C10-Pad1)*%
X148522000Y-99362300D03*
%TO.P,J22,7*%
%TO.N,GND*%
X148522000Y-101902300D03*
%TO.P,J22,6*%
%TO.N,Net-(J22-Pad6)*%
X148522000Y-104442300D03*
%TO.P,J22,5*%
%TO.N,Net-(J22-Pad5)*%
X148522000Y-106982300D03*
%TO.P,J22,4*%
%TO.N,Net-(J17-Pad3)*%
X148522000Y-109522300D03*
%TO.P,J22,3*%
%TO.N,Net-(J16-Pad3)*%
X148522000Y-112062300D03*
%TO.P,J22,2*%
%TO.N,Net-(J14-Pad13)*%
X148522000Y-114602300D03*
D15*
%TO.P,J22,1*%
%TO.N,Net-(J14-Pad12)*%
X148522000Y-117142300D03*
%TD*%
D14*
%TO.P,J24,8*%
%TO.N,Net-(J24-Pad8)*%
X171382000Y-99362300D03*
%TO.P,J24,7*%
%TO.N,Net-(J24-Pad7)*%
X171382000Y-101902300D03*
%TO.P,J24,6*%
%TO.N,Net-(J24-Pad6)*%
X171382000Y-104442300D03*
%TO.P,J24,5*%
%TO.N,Net-(J24-Pad5)*%
X171382000Y-106982300D03*
%TO.P,J24,4*%
%TO.N,Net-(J24-Pad4)*%
X171382000Y-109522300D03*
%TO.P,J24,3*%
%TO.N,Net-(J24-Pad3)*%
X171382000Y-112062300D03*
%TO.P,J24,2*%
%TO.N,Net-(J24-Pad2)*%
X171382000Y-114602300D03*
D15*
%TO.P,J24,1*%
%TO.N,Net-(J24-Pad1)*%
X171382000Y-117142300D03*
%TD*%
%TO.P,C14,2*%
%TO.N,GND*%
%TA.AperFunction,SMDPad,CuDef*%
G36*
G01*
X151798000Y-100780000D02*
X152748000Y-100780000D01*
G75*
G02*
X152998000Y-101030000I0J-250000D01*
G01*
X152998000Y-101530000D01*
G75*
G02*
X152748000Y-101780000I-250000J0D01*
G01*
X151798000Y-101780000D01*
G75*
G02*
X151548000Y-101530000I0J250000D01*
G01*
X151548000Y-101030000D01*
G75*
G02*
X151798000Y-100780000I250000J0D01*
G01*
G37*
%TD.AperFunction*%
%TO.P,C14,1*%
%TO.N,Net-(C10-Pad1)*%
%TA.AperFunction,SMDPad,CuDef*%
G36*
G01*
X151798000Y-98880000D02*
X152748000Y-98880000D01*
G75*
G02*
X152998000Y-99130000I0J-250000D01*
G01*
X152998000Y-99630000D01*
G75*
G02*
X152748000Y-99880000I-250000J0D01*
G01*
X151798000Y-99880000D01*
G75*
G02*
X151548000Y-99630000I0J250000D01*
G01*
X151548000Y-99130000D01*
G75*
G02*
X151798000Y-98880000I250000J0D01*
G01*
G37*
%TD.AperFunction*%
%TD*%
%TO.P,U5,4*%
%TO.N,Net-(J15-Pad2)*%
%TA.AperFunction,SMDPad,CuDef*%
G36*
G01*
X125153733Y-137739600D02*
X124206533Y-137739600D01*
G75*
G02*
X123940133Y-137473200I0J266400D01*
G01*
X123940133Y-135856000D01*
G75*
G02*
X124206533Y-135589600I266400J0D01*
G01*
X125153733Y-135589600D01*
G75*
G02*
X125420133Y-135856000I0J-266400D01*
G01*
X125420133Y-137473200D01*
G75*
G02*
X125153733Y-137739600I-266400J0D01*
G01*
G37*
%TD.AperFunction*%
%TO.P,U5,3*%
%TO.N,GND*%
%TA.AperFunction,SMDPad,CuDef*%
G36*
G01*
X127693733Y-137739600D02*
X126746533Y-137739600D01*
G75*
G02*
X126480133Y-137473200I0J266400D01*
G01*
X126480133Y-135856000D01*
G75*
G02*
X126746533Y-135589600I266400J0D01*
G01*
X127693733Y-135589600D01*
G75*
G02*
X127960133Y-135856000I0J-266400D01*
G01*
X127960133Y-137473200D01*
G75*
G02*
X127693733Y-137739600I-266400J0D01*
G01*
G37*
%TD.AperFunction*%
%TO.P,U5,2*%
%TO.N,Net-(J28-Pad2)*%
%TA.AperFunction,SMDPad,CuDef*%
G36*
G01*
X127693733Y-146299600D02*
X126746533Y-146299600D01*
G75*
G02*
X126480133Y-146033200I0J266400D01*
G01*
X126480133Y-144416000D01*
G75*
G02*
X126746533Y-144149600I266400J0D01*
G01*
X127693733Y-144149600D01*
G75*
G02*
X127960133Y-144416000I0J-266400D01*
G01*
X127960133Y-146033200D01*
G75*
G02*
X127693733Y-146299600I-266400J0D01*
G01*
G37*
%TD.AperFunction*%
%TO.P,U5,1*%
%TO.N,Net-(R12-Pad2)*%
%TA.AperFunction,SMDPad,CuDef*%
G36*
G01*
X125153733Y-146299600D02*
X124206533Y-146299600D01*
G75*
G02*
X123940133Y-146033200I0J266400D01*
G01*
X123940133Y-144416000D01*
G75*
G02*
X124206533Y-144149600I266400J0D01*
G01*
X125153733Y-144149600D01*
G75*
G02*
X125420133Y-144416000I0J-266400D01*
G01*
X125420133Y-146033200D01*
G75*
G02*
X125153733Y-146299600I-266400J0D01*
G01*
G37*
%TD.AperFunction*%
%TD*%
%TO.P,U6,4*%
%TO.N,Net-(J13-Pad3)*%
%TA.AperFunction,SMDPad,CuDef*%
G36*
G01*
X117872400Y-137739600D02*
X116925200Y-137739600D01*
G75*
G02*
X116658800Y-137473200I0J266400D01*
G01*
X116658800Y-135856000D01*
G75*
G02*
X116925200Y-135589600I266400J0D01*
G01*
X117872400Y-135589600D01*
G75*
G02*
X118138800Y-135856000I0J-266400D01*
G01*
X118138800Y-137473200D01*
G75*
G02*
X117872400Y-137739600I-266400J0D01*
G01*
G37*
%TD.AperFunction*%
%TO.P,U6,3*%
%TO.N,GND*%
%TA.AperFunction,SMDPad,CuDef*%
G36*
G01*
X120412400Y-137739600D02*
X119465200Y-137739600D01*
G75*
G02*
X119198800Y-137473200I0J266400D01*
G01*
X119198800Y-135856000D01*
G75*
G02*
X119465200Y-135589600I266400J0D01*
G01*
X120412400Y-135589600D01*
G75*
G02*
X120678800Y-135856000I0J-266400D01*
G01*
X120678800Y-137473200D01*
G75*
G02*
X120412400Y-137739600I-266400J0D01*
G01*
G37*
%TD.AperFunction*%
%TO.P,U6,2*%
%TO.N,Net-(J28-Pad3)*%
%TA.AperFunction,SMDPad,CuDef*%
G36*
G01*
X120412400Y-146299600D02*
X119465200Y-146299600D01*
G75*
G02*
X119198800Y-146033200I0J266400D01*
G01*
X119198800Y-144416000D01*
G75*
G02*
X119465200Y-144149600I266400J0D01*
G01*
X120412400Y-144149600D01*
G75*
G02*
X120678800Y-144416000I0J-266400D01*
G01*
X120678800Y-146033200D01*
G75*
G02*
X120412400Y-146299600I-266400J0D01*
G01*
G37*
%TD.AperFunction*%
%TO.P,U6,1*%
%TO.N,Net-(R13-Pad2)*%
%TA.AperFunction,SMDPad,CuDef*%
G36*
G01*
X117872400Y-146299600D02*
X116925200Y-146299600D01*
G75*
G02*
X116658800Y-146033200I0J266400D01*
G01*
X116658800Y-144416000D01*
G75*
G02*
X116925200Y-144149600I266400J0D01*
G01*
X117872400Y-144149600D01*
G75*
G02*
X118138800Y-144416000I0J-266400D01*
G01*
X118138800Y-146033200D01*
G75*
G02*
X117872400Y-146299600I-266400J0D01*
G01*
G37*
%TD.AperFunction*%
%TD*%
%TO.P,J1,MP*%
%TO.N,N/C*%
%TA.AperFunction,SMDPad,CuDef*%
G36*
G01*
X104987001Y-99698800D02*
X103686999Y-99698800D01*
G75*
G02*
X103437000Y-99448801I0J249999D01*
G01*
X103437000Y-98748799D01*
G75*
G02*
X103686999Y-98498800I249999J0D01*
G01*
X104987001Y-98498800D01*
G75*
G02*
X105237000Y-98748799I0J-249999D01*
G01*
X105237000Y-99448801D01*
G75*
G02*
X104987001Y-99698800I-249999J0D01*
G01*
G37*
%TD.AperFunction*%
%TA.AperFunction,SMDPad,CuDef*%
G36*
G01*
X104987001Y-105298800D02*
X103686999Y-105298800D01*
G75*
G02*
X103437000Y-105048801I0J249999D01*
G01*
X103437000Y-104348799D01*
G75*
G02*
X103686999Y-104098800I249999J0D01*
G01*
X104987001Y-104098800D01*
G75*
G02*
X105237000Y-104348799I0J-249999D01*
G01*
X105237000Y-105048801D01*
G75*
G02*
X104987001Y-105298800I-249999J0D01*
G01*
G37*
%TD.AperFunction*%
%TO.P,J1,4*%
%TO.N,Net-(J1-Pad4)*%
%TA.AperFunction,SMDPad,CuDef*%
G36*
G01*
X107487000Y-100698800D02*
X106237000Y-100698800D01*
G75*
G02*
X106087000Y-100548800I0J150000D01*
G01*
X106087000Y-100248800D01*
G75*
G02*
X106237000Y-100098800I150000J0D01*
G01*
X107487000Y-100098800D01*
G75*
G02*
X107637000Y-100248800I0J-150000D01*
G01*
X107637000Y-100548800D01*
G75*
G02*
X107487000Y-100698800I-150000J0D01*
G01*
G37*
%TD.AperFunction*%
%TO.P,J1,3*%
%TO.N,Net-(J1-Pad3)*%
%TA.AperFunction,SMDPad,CuDef*%
G36*
G01*
X107487000Y-101698800D02*
X106237000Y-101698800D01*
G75*
G02*
X106087000Y-101548800I0J150000D01*
G01*
X106087000Y-101248800D01*
G75*
G02*
X106237000Y-101098800I150000J0D01*
G01*
X107487000Y-101098800D01*
G75*
G02*
X107637000Y-101248800I0J-150000D01*
G01*
X107637000Y-101548800D01*
G75*
G02*
X107487000Y-101698800I-150000J0D01*
G01*
G37*
%TD.AperFunction*%
%TO.P,J1,2*%
%TO.N,Net-(J1-Pad2)*%
%TA.AperFunction,SMDPad,CuDef*%
G36*
G01*
X107487000Y-102698800D02*
X106237000Y-102698800D01*
G75*
G02*
X106087000Y-102548800I0J150000D01*
G01*
X106087000Y-102248800D01*
G75*
G02*
X106237000Y-102098800I150000J0D01*
G01*
X107487000Y-102098800D01*
G75*
G02*
X107637000Y-102248800I0J-150000D01*
G01*
X107637000Y-102548800D01*
G75*
G02*
X107487000Y-102698800I-150000J0D01*
G01*
G37*
%TD.AperFunction*%
%TO.P,J1,1*%
%TO.N,GND*%
%TA.AperFunction,SMDPad,CuDef*%
G36*
G01*
X107487000Y-103698800D02*
X106237000Y-103698800D01*
G75*
G02*
X106087000Y-103548800I0J150000D01*
G01*
X106087000Y-103248800D01*
G75*
G02*
X106237000Y-103098800I150000J0D01*
G01*
X107487000Y-103098800D01*
G75*
G02*
X107637000Y-103248800I0J-150000D01*
G01*
X107637000Y-103548800D01*
G75*
G02*
X107487000Y-103698800I-150000J0D01*
G01*
G37*
%TD.AperFunction*%
%TD*%
%TO.P,C13,2*%
%TO.N,GND*%
%TA.AperFunction,SMDPad,CuDef*%
G36*
G01*
X121013200Y-124132800D02*
X121963200Y-124132800D01*
G75*
G02*
X122213200Y-124382800I0J-250000D01*
G01*
X122213200Y-124882800D01*
G75*
G02*
X121963200Y-125132800I-250000J0D01*
G01*
X121013200Y-125132800D01*
G75*
G02*
X120763200Y-124882800I0J250000D01*
G01*
X120763200Y-124382800D01*
G75*
G02*
X121013200Y-124132800I250000J0D01*
G01*
G37*
%TD.AperFunction*%
%TO.P,C13,1*%
%TO.N,Net-(C1-Pad1)*%
%TA.AperFunction,SMDPad,CuDef*%
G36*
G01*
X121013200Y-122232800D02*
X121963200Y-122232800D01*
G75*
G02*
X122213200Y-122482800I0J-250000D01*
G01*
X122213200Y-122982800D01*
G75*
G02*
X121963200Y-123232800I-250000J0D01*
G01*
X121013200Y-123232800D01*
G75*
G02*
X120763200Y-122982800I0J250000D01*
G01*
X120763200Y-122482800D01*
G75*
G02*
X121013200Y-122232800I250000J0D01*
G01*
G37*
%TD.AperFunction*%
%TD*%
D31*
%TO.P,J4,4*%
%TO.N,GND*%
X98209100Y-93578700D03*
%TO.P,J4,3*%
%TO.N,Net-(J4-Pad3)*%
X98209100Y-91578700D03*
%TO.P,J4,2*%
%TO.N,Net-(J13-Pad1)*%
X98209100Y-89578700D03*
D32*
%TO.P,J4,1*%
%TO.N,Net-(J13-Pad2)*%
X98209100Y-87578700D03*
%TD*%
%TO.P,U4,4*%
%TO.N,Net-(J15-Pad3)*%
%TA.AperFunction,SMDPad,CuDef*%
G36*
G01*
X132435066Y-137739600D02*
X131487866Y-137739600D01*
G75*
G02*
X131221466Y-137473200I0J266400D01*
G01*
X131221466Y-135856000D01*
G75*
G02*
X131487866Y-135589600I266400J0D01*
G01*
X132435066Y-135589600D01*
G75*
G02*
X132701466Y-135856000I0J-266400D01*
G01*
X132701466Y-137473200D01*
G75*
G02*
X132435066Y-137739600I-266400J0D01*
G01*
G37*
%TD.AperFunction*%
%TO.P,U4,3*%
%TO.N,GND*%
%TA.AperFunction,SMDPad,CuDef*%
G36*
G01*
X134975066Y-137739600D02*
X134027866Y-137739600D01*
G75*
G02*
X133761466Y-137473200I0J266400D01*
G01*
X133761466Y-135856000D01*
G75*
G02*
X134027866Y-135589600I266400J0D01*
G01*
X134975066Y-135589600D01*
G75*
G02*
X135241466Y-135856000I0J-266400D01*
G01*
X135241466Y-137473200D01*
G75*
G02*
X134975066Y-137739600I-266400J0D01*
G01*
G37*
%TD.AperFunction*%
%TO.P,U4,2*%
%TO.N,Net-(J7-Pad5)*%
%TA.AperFunction,SMDPad,CuDef*%
G36*
G01*
X134975066Y-146299600D02*
X134027866Y-146299600D01*
G75*
G02*
X133761466Y-146033200I0J266400D01*
G01*
X133761466Y-144416000D01*
G75*
G02*
X134027866Y-144149600I266400J0D01*
G01*
X134975066Y-144149600D01*
G75*
G02*
X135241466Y-144416000I0J-266400D01*
G01*
X135241466Y-146033200D01*
G75*
G02*
X134975066Y-146299600I-266400J0D01*
G01*
G37*
%TD.AperFunction*%
%TO.P,U4,1*%
%TO.N,Net-(R11-Pad2)*%
%TA.AperFunction,SMDPad,CuDef*%
G36*
G01*
X132435066Y-146299600D02*
X131487866Y-146299600D01*
G75*
G02*
X131221466Y-146033200I0J266400D01*
G01*
X131221466Y-144416000D01*
G75*
G02*
X131487866Y-144149600I266400J0D01*
G01*
X132435066Y-144149600D01*
G75*
G02*
X132701466Y-144416000I0J-266400D01*
G01*
X132701466Y-146033200D01*
G75*
G02*
X132435066Y-146299600I-266400J0D01*
G01*
G37*
%TD.AperFunction*%
%TD*%
D19*
%TO.P,Q1,3*%
%TO.N,Net-(D1-Pad2)*%
X152892000Y-128778000D03*
%TO.P,Q1,2*%
%TO.N,GND*%
X150892000Y-129728000D03*
%TO.P,Q1,1*%
%TO.N,Net-(Q1-Pad1)*%
X150892000Y-127828000D03*
%TD*%
D14*
%TO.P,J27,8*%
%TO.N,Net-(J14-Pad11)*%
X170800000Y-84328000D03*
%TO.P,J27,7*%
%TO.N,Net-(J14-Pad10)*%
X170800000Y-81788000D03*
%TO.P,J27,6*%
%TO.N,Net-(J14-Pad7)*%
X170800000Y-79248000D03*
%TO.P,J27,5*%
%TO.N,Net-(J27-Pad5)*%
X170800000Y-76708000D03*
%TO.P,J27,4*%
%TO.N,Net-(J27-Pad4)*%
X170800000Y-74168000D03*
%TO.P,J27,3*%
%TO.N,Net-(J27-Pad3)*%
X170800000Y-71628000D03*
%TO.P,J27,2*%
%TO.N,Net-(J27-Pad2)*%
X170800000Y-69088000D03*
D15*
%TO.P,J27,1*%
%TO.N,Net-(J27-Pad1)*%
X170800000Y-66548000D03*
%TD*%
D14*
%TO.P,J26,10*%
%TO.N,Net-(J14-Pad6)*%
X170800000Y-62488000D03*
%TO.P,J26,9*%
%TO.N,Net-(J26-Pad9)*%
X170800000Y-59948000D03*
%TO.P,J26,8*%
%TO.N,Net-(J26-Pad8)*%
X170800000Y-57408000D03*
%TO.P,J26,7*%
%TO.N,Net-(J26-Pad7)*%
X170800000Y-54868000D03*
%TO.P,J26,6*%
%TO.N,Net-(J26-Pad6)*%
X170800000Y-52328000D03*
%TO.P,J26,5*%
%TO.N,Net-(J26-Pad5)*%
X170800000Y-49788000D03*
%TO.P,J26,4*%
%TO.N,GND*%
X170800000Y-47248000D03*
%TO.P,J26,3*%
%TO.N,Net-(J26-Pad3)*%
X170800000Y-44708000D03*
%TO.P,J26,2*%
%TO.N,Net-(J26-Pad2)*%
X170800000Y-42168000D03*
D15*
%TO.P,J26,1*%
%TO.N,Net-(J26-Pad1)*%
X170800000Y-39628000D03*
%TD*%
D14*
%TO.P,J21,6*%
%TO.N,Net-(J21-Pad6)*%
X122540000Y-84328000D03*
%TO.P,J21,5*%
%TO.N,Net-(J21-Pad5)*%
X122540000Y-81788000D03*
%TO.P,J21,4*%
%TO.N,Net-(J21-Pad4)*%
X122540000Y-79248000D03*
%TO.P,J21,3*%
%TO.N,Net-(J21-Pad3)*%
X122540000Y-76708000D03*
%TO.P,J21,2*%
%TO.N,Net-(J21-Pad2)*%
X122540000Y-74168000D03*
D15*
%TO.P,J21,1*%
%TO.N,Net-(J21-Pad1)*%
X122540000Y-71628000D03*
%TD*%
D14*
%TO.P,J20,8*%
%TO.N,Net-(J20-Pad8)*%
X122540000Y-66548000D03*
%TO.P,J20,7*%
%TO.N,GND*%
X122540000Y-64008000D03*
%TO.P,J20,6*%
X122540000Y-61468000D03*
%TO.P,J20,5*%
%TO.N,Net-(C10-Pad1)*%
X122540000Y-58928000D03*
%TO.P,J20,4*%
%TO.N,Net-(J20-Pad4)*%
X122540000Y-56388000D03*
%TO.P,J20,3*%
%TO.N,Net-(J20-Pad3)*%
X122540000Y-53848000D03*
%TO.P,J20,2*%
%TO.N,Net-(J12-Pad15)*%
X122540000Y-51308000D03*
D15*
%TO.P,J20,1*%
%TO.N,Net-(J20-Pad1)*%
X122540000Y-48768000D03*
%TD*%
%TO.P,J3,MP*%
%TO.N,N/C*%
%TA.AperFunction,SMDPad,CuDef*%
G36*
G01*
X97265401Y-99698800D02*
X95965399Y-99698800D01*
G75*
G02*
X95715400Y-99448801I0J249999D01*
G01*
X95715400Y-98748799D01*
G75*
G02*
X95965399Y-98498800I249999J0D01*
G01*
X97265401Y-98498800D01*
G75*
G02*
X97515400Y-98748799I0J-249999D01*
G01*
X97515400Y-99448801D01*
G75*
G02*
X97265401Y-99698800I-249999J0D01*
G01*
G37*
%TD.AperFunction*%
%TA.AperFunction,SMDPad,CuDef*%
G36*
G01*
X97265401Y-105298800D02*
X95965399Y-105298800D01*
G75*
G02*
X95715400Y-105048801I0J249999D01*
G01*
X95715400Y-104348799D01*
G75*
G02*
X95965399Y-104098800I249999J0D01*
G01*
X97265401Y-104098800D01*
G75*
G02*
X97515400Y-104348799I0J-249999D01*
G01*
X97515400Y-105048801D01*
G75*
G02*
X97265401Y-105298800I-249999J0D01*
G01*
G37*
%TD.AperFunction*%
%TO.P,J3,4*%
%TO.N,Net-(J13-Pad2)*%
%TA.AperFunction,SMDPad,CuDef*%
G36*
G01*
X99765400Y-100698800D02*
X98515400Y-100698800D01*
G75*
G02*
X98365400Y-100548800I0J150000D01*
G01*
X98365400Y-100248800D01*
G75*
G02*
X98515400Y-100098800I150000J0D01*
G01*
X99765400Y-100098800D01*
G75*
G02*
X99915400Y-100248800I0J-150000D01*
G01*
X99915400Y-100548800D01*
G75*
G02*
X99765400Y-100698800I-150000J0D01*
G01*
G37*
%TD.AperFunction*%
%TO.P,J3,3*%
%TO.N,Net-(J13-Pad1)*%
%TA.AperFunction,SMDPad,CuDef*%
G36*
G01*
X99765400Y-101698800D02*
X98515400Y-101698800D01*
G75*
G02*
X98365400Y-101548800I0J150000D01*
G01*
X98365400Y-101248800D01*
G75*
G02*
X98515400Y-101098800I150000J0D01*
G01*
X99765400Y-101098800D01*
G75*
G02*
X99915400Y-101248800I0J-150000D01*
G01*
X99915400Y-101548800D01*
G75*
G02*
X99765400Y-101698800I-150000J0D01*
G01*
G37*
%TD.AperFunction*%
%TO.P,J3,2*%
%TO.N,Net-(J3-Pad2)*%
%TA.AperFunction,SMDPad,CuDef*%
G36*
G01*
X99765400Y-102698800D02*
X98515400Y-102698800D01*
G75*
G02*
X98365400Y-102548800I0J150000D01*
G01*
X98365400Y-102248800D01*
G75*
G02*
X98515400Y-102098800I150000J0D01*
G01*
X99765400Y-102098800D01*
G75*
G02*
X99915400Y-102248800I0J-150000D01*
G01*
X99915400Y-102548800D01*
G75*
G02*
X99765400Y-102698800I-150000J0D01*
G01*
G37*
%TD.AperFunction*%
%TO.P,J3,1*%
%TO.N,GND*%
%TA.AperFunction,SMDPad,CuDef*%
G36*
G01*
X99765400Y-103698800D02*
X98515400Y-103698800D01*
G75*
G02*
X98365400Y-103548800I0J150000D01*
G01*
X98365400Y-103248800D01*
G75*
G02*
X98515400Y-103098800I150000J0D01*
G01*
X99765400Y-103098800D01*
G75*
G02*
X99915400Y-103248800I0J-150000D01*
G01*
X99915400Y-103548800D01*
G75*
G02*
X99765400Y-103698800I-150000J0D01*
G01*
G37*
%TD.AperFunction*%
%TD*%
D14*
%TO.P,J14,15*%
%TO.N,GND*%
X115224800Y-57505600D03*
%TO.P,J14,14*%
%TO.N,Net-(J14-Pad14)*%
X115224800Y-54965600D03*
%TO.P,J14,13*%
%TO.N,Net-(J14-Pad13)*%
X115224800Y-52425600D03*
%TO.P,J14,12*%
%TO.N,Net-(J14-Pad12)*%
X115224800Y-49885600D03*
%TO.P,J14,11*%
%TO.N,Net-(J14-Pad11)*%
X115224800Y-47345600D03*
%TO.P,J14,10*%
%TO.N,Net-(J14-Pad10)*%
X115224800Y-44805600D03*
%TO.P,J14,9*%
%TO.N,Net-(J14-Pad9)*%
X115224800Y-42265600D03*
%TO.P,J14,8*%
%TO.N,Net-(J14-Pad8)*%
X115224800Y-39725600D03*
%TO.P,J14,7*%
%TO.N,Net-(J14-Pad7)*%
X115224800Y-37185600D03*
%TO.P,J14,6*%
%TO.N,Net-(J14-Pad6)*%
X115224800Y-34645600D03*
%TO.P,J14,5*%
%TO.N,Net-(J14-Pad5)*%
X115224800Y-32105600D03*
%TO.P,J14,4*%
%TO.N,Net-(J14-Pad4)*%
X115224800Y-29565600D03*
%TO.P,J14,3*%
%TO.N,Net-(J14-Pad3)*%
X115224800Y-27025600D03*
%TO.P,J14,2*%
%TO.N,GND*%
X115224800Y-24485600D03*
D15*
%TO.P,J14,1*%
%TO.N,Net-(C10-Pad1)*%
X115224800Y-21945600D03*
%TD*%
D43*
%TO.P,J10,6*%
%TO.N,Net-(J10-Pad6)*%
X108786400Y-36915600D03*
%TO.P,J10,5*%
%TO.N,Net-(J10-Pad5)*%
X108786400Y-34915600D03*
%TO.P,J10,4*%
%TO.N,GND*%
X110786400Y-36915600D03*
%TO.P,J10,3*%
%TO.N,Net-(J10-Pad3)*%
X110786400Y-34915600D03*
%TO.P,J10,2*%
%TO.N,Net-(J10-Pad2)*%
X112786400Y-36915600D03*
D44*
%TO.P,J10,1*%
%TO.N,Net-(J10-Pad1)*%
X112786400Y-34915600D03*
%TD*%
D14*
%TO.P,J13,8*%
%TO.N,Net-(J13-Pad8)*%
X99984800Y-80365600D03*
%TO.P,J13,7*%
%TO.N,Net-(J13-Pad7)*%
X99984800Y-77825600D03*
%TO.P,J13,6*%
%TO.N,Net-(J13-Pad6)*%
X99984800Y-75285600D03*
%TO.P,J13,5*%
%TO.N,Net-(J1-Pad3)*%
X99984800Y-72745600D03*
%TO.P,J13,4*%
%TO.N,Net-(J1-Pad4)*%
X99984800Y-70205600D03*
%TO.P,J13,3*%
%TO.N,Net-(J13-Pad3)*%
X99984800Y-67665600D03*
%TO.P,J13,2*%
%TO.N,Net-(J13-Pad2)*%
X99984800Y-65125600D03*
D15*
%TO.P,J13,1*%
%TO.N,Net-(J13-Pad1)*%
X99984800Y-62585600D03*
%TD*%
D14*
%TO.P,J12,15*%
%TO.N,Net-(J12-Pad15)*%
X99984800Y-57505600D03*
%TO.P,J12,14*%
%TO.N,Net-(J12-Pad14)*%
X99984800Y-54965600D03*
%TO.P,J12,13*%
%TO.N,Net-(J12-Pad13)*%
X99984800Y-52425600D03*
%TO.P,J12,12*%
%TO.N,Net-(J12-Pad12)*%
X99984800Y-49885600D03*
%TO.P,J12,11*%
%TO.N,Net-(J12-Pad11)*%
X99984800Y-47345600D03*
%TO.P,J12,10*%
%TO.N,Net-(J12-Pad10)*%
X99984800Y-44805600D03*
%TO.P,J12,9*%
%TO.N,Net-(J12-Pad9)*%
X99984800Y-42265600D03*
%TO.P,J12,8*%
%TO.N,Net-(J12-Pad8)*%
X99984800Y-39725600D03*
%TO.P,J12,7*%
%TO.N,Net-(J12-Pad7)*%
X99984800Y-37185600D03*
%TO.P,J12,6*%
%TO.N,Net-(J12-Pad6)*%
X99984800Y-34645600D03*
%TO.P,J12,5*%
%TO.N,Net-(J12-Pad5)*%
X99984800Y-32105600D03*
%TO.P,J12,4*%
%TO.N,Net-(J12-Pad4)*%
X99984800Y-29565600D03*
%TO.P,J12,3*%
%TO.N,Net-(J12-Pad3)*%
X99984800Y-27025600D03*
%TO.P,J12,2*%
%TO.N,Net-(J12-Pad2)*%
X99984800Y-24485600D03*
D15*
%TO.P,J12,1*%
%TO.N,GND*%
X99984800Y-21945600D03*
%TD*%
%TO.P,J18,MP*%
%TO.N,N/C*%
%TA.AperFunction,SMDPad,CuDef*%
G36*
G01*
X92541001Y-77175000D02*
X91240999Y-77175000D01*
G75*
G02*
X90991000Y-76925001I0J249999D01*
G01*
X90991000Y-76224999D01*
G75*
G02*
X91240999Y-75975000I249999J0D01*
G01*
X92541001Y-75975000D01*
G75*
G02*
X92791000Y-76224999I0J-249999D01*
G01*
X92791000Y-76925001D01*
G75*
G02*
X92541001Y-77175000I-249999J0D01*
G01*
G37*
%TD.AperFunction*%
%TA.AperFunction,SMDPad,CuDef*%
G36*
G01*
X92541001Y-82775000D02*
X91240999Y-82775000D01*
G75*
G02*
X90991000Y-82525001I0J249999D01*
G01*
X90991000Y-81824999D01*
G75*
G02*
X91240999Y-81575000I249999J0D01*
G01*
X92541001Y-81575000D01*
G75*
G02*
X92791000Y-81824999I0J-249999D01*
G01*
X92791000Y-82525001D01*
G75*
G02*
X92541001Y-82775000I-249999J0D01*
G01*
G37*
%TD.AperFunction*%
%TO.P,J18,4*%
%TO.N,Net-(J14-Pad8)*%
%TA.AperFunction,SMDPad,CuDef*%
G36*
G01*
X95041000Y-78175000D02*
X93791000Y-78175000D01*
G75*
G02*
X93641000Y-78025000I0J150000D01*
G01*
X93641000Y-77725000D01*
G75*
G02*
X93791000Y-77575000I150000J0D01*
G01*
X95041000Y-77575000D01*
G75*
G02*
X95191000Y-77725000I0J-150000D01*
G01*
X95191000Y-78025000D01*
G75*
G02*
X95041000Y-78175000I-150000J0D01*
G01*
G37*
%TD.AperFunction*%
%TO.P,J18,3*%
%TO.N,Net-(J14-Pad9)*%
%TA.AperFunction,SMDPad,CuDef*%
G36*
G01*
X95041000Y-79175000D02*
X93791000Y-79175000D01*
G75*
G02*
X93641000Y-79025000I0J150000D01*
G01*
X93641000Y-78725000D01*
G75*
G02*
X93791000Y-78575000I150000J0D01*
G01*
X95041000Y-78575000D01*
G75*
G02*
X95191000Y-78725000I0J-150000D01*
G01*
X95191000Y-79025000D01*
G75*
G02*
X95041000Y-79175000I-150000J0D01*
G01*
G37*
%TD.AperFunction*%
%TO.P,J18,2*%
%TO.N,Net-(C1-Pad1)*%
%TA.AperFunction,SMDPad,CuDef*%
G36*
G01*
X95041000Y-80175000D02*
X93791000Y-80175000D01*
G75*
G02*
X93641000Y-80025000I0J150000D01*
G01*
X93641000Y-79725000D01*
G75*
G02*
X93791000Y-79575000I150000J0D01*
G01*
X95041000Y-79575000D01*
G75*
G02*
X95191000Y-79725000I0J-150000D01*
G01*
X95191000Y-80025000D01*
G75*
G02*
X95041000Y-80175000I-150000J0D01*
G01*
G37*
%TD.AperFunction*%
%TO.P,J18,1*%
%TO.N,GND*%
%TA.AperFunction,SMDPad,CuDef*%
G36*
G01*
X95041000Y-81175000D02*
X93791000Y-81175000D01*
G75*
G02*
X93641000Y-81025000I0J150000D01*
G01*
X93641000Y-80725000D01*
G75*
G02*
X93791000Y-80575000I150000J0D01*
G01*
X95041000Y-80575000D01*
G75*
G02*
X95191000Y-80725000I0J-150000D01*
G01*
X95191000Y-81025000D01*
G75*
G02*
X95041000Y-81175000I-150000J0D01*
G01*
G37*
%TD.AperFunction*%
%TD*%
%TO.P,J19,MP*%
%TO.N,N/C*%
%TA.AperFunction,SMDPad,CuDef*%
G36*
G01*
X92541001Y-64094000D02*
X91240999Y-64094000D01*
G75*
G02*
X90991000Y-63844001I0J249999D01*
G01*
X90991000Y-63143999D01*
G75*
G02*
X91240999Y-62894000I249999J0D01*
G01*
X92541001Y-62894000D01*
G75*
G02*
X92791000Y-63143999I0J-249999D01*
G01*
X92791000Y-63844001D01*
G75*
G02*
X92541001Y-64094000I-249999J0D01*
G01*
G37*
%TD.AperFunction*%
%TA.AperFunction,SMDPad,CuDef*%
G36*
G01*
X92541001Y-69694000D02*
X91240999Y-69694000D01*
G75*
G02*
X90991000Y-69444001I0J249999D01*
G01*
X90991000Y-68743999D01*
G75*
G02*
X91240999Y-68494000I249999J0D01*
G01*
X92541001Y-68494000D01*
G75*
G02*
X92791000Y-68743999I0J-249999D01*
G01*
X92791000Y-69444001D01*
G75*
G02*
X92541001Y-69694000I-249999J0D01*
G01*
G37*
%TD.AperFunction*%
%TO.P,J19,4*%
%TO.N,Net-(J14-Pad8)*%
%TA.AperFunction,SMDPad,CuDef*%
G36*
G01*
X95041000Y-65094000D02*
X93791000Y-65094000D01*
G75*
G02*
X93641000Y-64944000I0J150000D01*
G01*
X93641000Y-64644000D01*
G75*
G02*
X93791000Y-64494000I150000J0D01*
G01*
X95041000Y-64494000D01*
G75*
G02*
X95191000Y-64644000I0J-150000D01*
G01*
X95191000Y-64944000D01*
G75*
G02*
X95041000Y-65094000I-150000J0D01*
G01*
G37*
%TD.AperFunction*%
%TO.P,J19,3*%
%TO.N,Net-(J14-Pad9)*%
%TA.AperFunction,SMDPad,CuDef*%
G36*
G01*
X95041000Y-66094000D02*
X93791000Y-66094000D01*
G75*
G02*
X93641000Y-65944000I0J150000D01*
G01*
X93641000Y-65644000D01*
G75*
G02*
X93791000Y-65494000I150000J0D01*
G01*
X95041000Y-65494000D01*
G75*
G02*
X95191000Y-65644000I0J-150000D01*
G01*
X95191000Y-65944000D01*
G75*
G02*
X95041000Y-66094000I-150000J0D01*
G01*
G37*
%TD.AperFunction*%
%TO.P,J19,2*%
%TO.N,Net-(C1-Pad1)*%
%TA.AperFunction,SMDPad,CuDef*%
G36*
G01*
X95041000Y-67094000D02*
X93791000Y-67094000D01*
G75*
G02*
X93641000Y-66944000I0J150000D01*
G01*
X93641000Y-66644000D01*
G75*
G02*
X93791000Y-66494000I150000J0D01*
G01*
X95041000Y-66494000D01*
G75*
G02*
X95191000Y-66644000I0J-150000D01*
G01*
X95191000Y-66944000D01*
G75*
G02*
X95041000Y-67094000I-150000J0D01*
G01*
G37*
%TD.AperFunction*%
%TO.P,J19,1*%
%TO.N,GND*%
%TA.AperFunction,SMDPad,CuDef*%
G36*
G01*
X95041000Y-68094000D02*
X93791000Y-68094000D01*
G75*
G02*
X93641000Y-67944000I0J150000D01*
G01*
X93641000Y-67644000D01*
G75*
G02*
X93791000Y-67494000I150000J0D01*
G01*
X95041000Y-67494000D01*
G75*
G02*
X95191000Y-67644000I0J-150000D01*
G01*
X95191000Y-67944000D01*
G75*
G02*
X95041000Y-68094000I-150000J0D01*
G01*
G37*
%TD.AperFunction*%
%TD*%
D14*
%TO.P,J25,8*%
%TO.N,Net-(J25-Pad8)*%
X97025460Y-132133100D03*
%TO.P,J25,7*%
%TO.N,Net-(J25-Pad7)*%
X99565460Y-132133100D03*
%TO.P,J25,6*%
%TO.N,Net-(J25-Pad6)*%
X102105460Y-132133100D03*
%TO.P,J25,5*%
%TO.N,Net-(J25-Pad5)*%
X104645460Y-132133100D03*
%TO.P,J25,4*%
%TO.N,Net-(J25-Pad4)*%
X107185460Y-132133100D03*
%TO.P,J25,3*%
%TO.N,Net-(J25-Pad3)*%
X109725460Y-132133100D03*
%TO.P,J25,2*%
%TO.N,Net-(C1-Pad1)*%
X112265460Y-132133100D03*
D15*
%TO.P,J25,1*%
%TO.N,GND*%
X114805460Y-132133100D03*
%TD*%
%TO.P,C7,2*%
%TO.N,GND*%
%TA.AperFunction,SMDPad,CuDef*%
G36*
G01*
X42857000Y-113520200D02*
X42857000Y-114470200D01*
G75*
G02*
X42607000Y-114720200I-250000J0D01*
G01*
X42107000Y-114720200D01*
G75*
G02*
X41857000Y-114470200I0J250000D01*
G01*
X41857000Y-113520200D01*
G75*
G02*
X42107000Y-113270200I250000J0D01*
G01*
X42607000Y-113270200D01*
G75*
G02*
X42857000Y-113520200I0J-250000D01*
G01*
G37*
%TD.AperFunction*%
%TO.P,C7,1*%
%TO.N,Net-(C1-Pad1)*%
%TA.AperFunction,SMDPad,CuDef*%
G36*
G01*
X44757000Y-113520200D02*
X44757000Y-114470200D01*
G75*
G02*
X44507000Y-114720200I-250000J0D01*
G01*
X44007000Y-114720200D01*
G75*
G02*
X43757000Y-114470200I0J250000D01*
G01*
X43757000Y-113520200D01*
G75*
G02*
X44007000Y-113270200I250000J0D01*
G01*
X44507000Y-113270200D01*
G75*
G02*
X44757000Y-113520200I0J-250000D01*
G01*
G37*
%TD.AperFunction*%
%TD*%
D45*
%TO.N,GND*%
X29464000Y-105664000D03*
X34925000Y-113411000D03*
X38862000Y-113411000D03*
X37083996Y-106045000D03*
X101854000Y-103505000D03*
X94615000Y-71247000D03*
X69977000Y-126619000D03*
X76327000Y-139319000D03*
X76327000Y-138303000D03*
X94361000Y-83947000D03*
X149987000Y-130810000D03*
X121361200Y-126187200D03*
X123850400Y-124968000D03*
X53848000Y-119176800D03*
X80518000Y-135204200D03*
X64922401Y-129209799D03*
X60528198Y-129133600D03*
X50139600Y-124155200D03*
X46202600Y-124790200D03*
X40767000Y-113919000D03*
X158648400Y-171526200D03*
X158744277Y-176637323D03*
X165658800Y-155905200D03*
X136779000Y-139192000D03*
X136652000Y-136601200D03*
X136525000Y-147904200D03*
X127170257Y-134767480D03*
X121767600Y-136728200D03*
X149936200Y-155295600D03*
X148056600Y-150418800D03*
X153873200Y-155244800D03*
X38176200Y-100050600D03*
%TO.N,Net-(J1-Pad3)*%
X35433000Y-108839000D03*
X35406961Y-106030577D03*
%TO.N,Net-(C10-Pad1)*%
X146304000Y-141528800D03*
X141401800Y-150596600D03*
X121539000Y-23495000D03*
X161417000Y-135128000D03*
X157784800Y-123139200D03*
X90093800Y-159308800D03*
%TO.N,Net-(J1-Pad4)*%
X34163000Y-108839000D03*
X34036000Y-106045006D03*
%TO.N,Net-(J7-Pad2)*%
X114604800Y-134696200D03*
X123203585Y-128950511D03*
%TO.N,Net-(J12-Pad11)*%
X34671000Y-102489000D03*
X36703000Y-101472998D03*
%TO.N,Net-(J7-Pad5)*%
X111226600Y-142468600D03*
X107950000Y-140335000D03*
%TO.N,Net-(J7-Pad3)*%
X114884200Y-135915400D03*
X123901200Y-129667000D03*
%TO.N,Net-(C2-Pad1)*%
X31699200Y-137591800D03*
%TO.N,Net-(J10-Pad1)*%
X63373000Y-30911800D03*
%TO.N,Net-(J11-Pad9)*%
X163055300Y-157518100D03*
X154686000Y-157556200D03*
%TO.N,Net-(J14-Pad9)*%
X130175000Y-119684800D03*
%TO.N,Net-(J14-Pad8)*%
X132074277Y-120350923D03*
%TO.N,Net-(C1-Pad1)*%
X95758000Y-72771000D03*
X48920400Y-111252000D03*
X84835998Y-78105002D03*
X48768000Y-98475800D03*
X134264400Y-130530600D03*
X132556389Y-130494199D03*
X119255378Y-125159624D03*
%TD*%
D46*
%TO.N,GND*%
X29403000Y-105725000D02*
X29464000Y-105664000D01*
X29403000Y-107442000D02*
X29403000Y-105725000D01*
X29464000Y-104074000D02*
X29403000Y-104013000D01*
X29464000Y-105664000D02*
X29464000Y-104074000D01*
X38862000Y-113411000D02*
X38862000Y-112903000D01*
X38862000Y-112903000D02*
X38738001Y-112779001D01*
X34925000Y-113411000D02*
X34925000Y-112867402D01*
X34925000Y-112867402D02*
X34921999Y-112864401D01*
D47*
X37155000Y-104223000D02*
X37155000Y-105973996D01*
X37155000Y-105973996D02*
X37083996Y-106045000D01*
D48*
X99246600Y-103505000D02*
X99140400Y-103398800D01*
X101854000Y-103505000D02*
X99246600Y-103505000D01*
X106755800Y-103505000D02*
X106862000Y-103398800D01*
X101854000Y-103505000D02*
X106755800Y-103505000D01*
X94416000Y-71048000D02*
X94615000Y-71247000D01*
X94416000Y-67794000D02*
X94416000Y-71048000D01*
D46*
X70040500Y-126682500D02*
X69977000Y-126619000D01*
X70040500Y-129239300D02*
X70040500Y-126682500D01*
D49*
X151650700Y-101902300D02*
X152273000Y-101280000D01*
X148522000Y-101902300D02*
X151650700Y-101902300D01*
X115819200Y-25080000D02*
X115224800Y-24485600D01*
X118618000Y-25080000D02*
X115819200Y-25080000D01*
D48*
X94416000Y-83892000D02*
X94361000Y-83947000D01*
X94416000Y-80875000D02*
X94416000Y-83892000D01*
X150892000Y-129728000D02*
X149987000Y-130633000D01*
X149987000Y-130633000D02*
X149987000Y-130810000D01*
D50*
X70040500Y-138869300D02*
X76141700Y-138869300D01*
X76327000Y-138684000D02*
X76327000Y-138303000D01*
X76141700Y-138869300D02*
X76327000Y-138684000D01*
D48*
X121361200Y-124759800D02*
X121488200Y-124632800D01*
X121361200Y-126187200D02*
X121361200Y-124759800D01*
X123850400Y-123064200D02*
X123774200Y-122988000D01*
X123850400Y-124968000D02*
X123850400Y-123064200D01*
D46*
X66640500Y-129239300D02*
X64951902Y-129239300D01*
X64951902Y-129239300D02*
X64922401Y-129209799D01*
D49*
X62230000Y-129098000D02*
X60563798Y-129098000D01*
X60563798Y-129098000D02*
X60528198Y-129133600D01*
D50*
X53898800Y-119126000D02*
X53848000Y-119176800D01*
X57903000Y-119126000D02*
X53898800Y-119126000D01*
D49*
X40843200Y-113995200D02*
X40767000Y-113919000D01*
X42357000Y-113995200D02*
X40843200Y-113995200D01*
X46253800Y-124739000D02*
X46202600Y-124790200D01*
X46253800Y-122594400D02*
X46253800Y-124739000D01*
X50012600Y-124028200D02*
X50139600Y-124155200D01*
X50012600Y-122346800D02*
X50012600Y-124028200D01*
D50*
X80365600Y-135051800D02*
X80518000Y-135204200D01*
X80365600Y-131616200D02*
X80365600Y-135051800D01*
D49*
X170139400Y-173751200D02*
X170383200Y-173507400D01*
X163499800Y-173751200D02*
X170139400Y-173751200D01*
D48*
X158632400Y-170139400D02*
X158632400Y-171510200D01*
X158632400Y-171510200D02*
X158648400Y-171526200D01*
X158734000Y-175448000D02*
X158734000Y-176627046D01*
X158734000Y-176627046D02*
X158744277Y-176637323D01*
D49*
X114805460Y-132133100D02*
X114805460Y-126936460D01*
X114805460Y-126936460D02*
X113599000Y-125730000D01*
D51*
X165620000Y-155944000D02*
X165658800Y-155905200D01*
X164312800Y-155944000D02*
X165620000Y-155944000D01*
D50*
X48987600Y-134112000D02*
X52619800Y-137744200D01*
X43789600Y-134112000D02*
X48987600Y-134112000D01*
D48*
X136588600Y-136664600D02*
X136652000Y-136601200D01*
X134501466Y-136664600D02*
X136588600Y-136664600D01*
X136842400Y-139255400D02*
X136779000Y-139192000D01*
X138887200Y-139255400D02*
X136842400Y-139255400D01*
X136613800Y-147815400D02*
X136525000Y-147904200D01*
X138887200Y-147815400D02*
X136613800Y-147815400D01*
D47*
X36840200Y-35128200D02*
X36652200Y-35316200D01*
X43764200Y-35128200D02*
X36840200Y-35128200D01*
D46*
X34921999Y-112864401D02*
X34921999Y-110998000D01*
X38738001Y-112779001D02*
X38738001Y-111252000D01*
D48*
X127220133Y-134817356D02*
X127170257Y-134767480D01*
X127220133Y-136664600D02*
X127220133Y-134817356D01*
X119938800Y-136664600D02*
X121704000Y-136664600D01*
X121704000Y-136664600D02*
X121767600Y-136728200D01*
D50*
X126253271Y-66915609D02*
X127177800Y-66915609D01*
X125921262Y-66583600D02*
X126253271Y-66915609D01*
X125633282Y-66583600D02*
X125921262Y-66583600D01*
X123057682Y-64008000D02*
X125633282Y-66583600D01*
X122540000Y-64008000D02*
X123057682Y-64008000D01*
D46*
X148996400Y-149479000D02*
X148056600Y-150418800D01*
X148996400Y-148398000D02*
X148996400Y-149479000D01*
D48*
X149910800Y-155270200D02*
X149936200Y-155295600D01*
X149910800Y-153604000D02*
X149910800Y-155270200D01*
X153847800Y-155219400D02*
X153873200Y-155244800D01*
X153847800Y-153604000D02*
X153847800Y-155219400D01*
D47*
X38084800Y-99959200D02*
X38176200Y-100050600D01*
X36271200Y-99959200D02*
X38084800Y-99959200D01*
X40015200Y-100050600D02*
X40106600Y-99959200D01*
X38176200Y-100050600D02*
X40015200Y-100050600D01*
D48*
%TO.N,Net-(Q1-Pad1)*%
X148209000Y-130511000D02*
X150892000Y-127828000D01*
X148209000Y-130560000D02*
X148209000Y-130511000D01*
%TO.N,Net-(J1-Pad3)*%
X106862000Y-101398800D02*
X104065800Y-101398800D01*
X104065800Y-101398800D02*
X102362000Y-99695000D01*
X102362000Y-99695000D02*
X102362000Y-90932000D01*
X103616000Y-89678000D02*
X106299000Y-89678000D01*
X102362000Y-90932000D02*
X103616000Y-89678000D01*
X103616000Y-76376800D02*
X99984800Y-72745600D01*
X103616000Y-89678000D02*
X103616000Y-76376800D01*
D47*
X35205000Y-104223000D02*
X35205000Y-105828616D01*
X35205000Y-105828616D02*
X35406961Y-106030577D01*
X96417825Y-110539001D02*
X113456379Y-110539001D01*
X113539559Y-110455821D02*
X113539559Y-107301359D01*
X94717824Y-108839000D02*
X96417825Y-110539001D01*
X107637000Y-101398800D02*
X106862000Y-101398800D01*
X35433000Y-108839000D02*
X94717824Y-108839000D01*
X113539559Y-107301359D02*
X107637000Y-101398800D01*
X113456379Y-110539001D02*
X113539559Y-110455821D01*
%TO.N,Net-(J10-Pad3)*%
X54834200Y-24074800D02*
X54834200Y-21338200D01*
X101115365Y-38451501D02*
X69210901Y-38451501D01*
X110786400Y-34915600D02*
X109695499Y-33824699D01*
X109695499Y-33824699D02*
X108297499Y-33824699D01*
X102436165Y-37130701D02*
X101115365Y-38451501D01*
X108297499Y-33824699D02*
X104991497Y-37130701D01*
X104991497Y-37130701D02*
X102436165Y-37130701D01*
X69210901Y-38451501D02*
X54834200Y-24074800D01*
D48*
%TO.N,Net-(J13-Pad3)*%
X100834799Y-68515599D02*
X99984800Y-67665600D01*
X117398800Y-136664600D02*
X116173366Y-135439166D01*
X116173366Y-135439166D02*
X116173366Y-111301213D01*
X108800958Y-86009068D02*
X108800958Y-76481758D01*
X116741272Y-107812893D02*
X116544767Y-107616388D01*
X116544767Y-93752879D02*
X108800958Y-86009068D01*
X116741272Y-110733307D02*
X116741272Y-107812893D01*
X116173366Y-111301213D02*
X116741272Y-110733307D01*
X116544767Y-107616388D02*
X116544767Y-93752879D01*
X108800958Y-76481758D02*
X100834799Y-68515599D01*
D50*
%TO.N,Net-(K1-Pad3)*%
X163753800Y-129336800D02*
X153536060Y-139554540D01*
X153536060Y-139554540D02*
X153536060Y-142018340D01*
X153536060Y-142018340D02*
X152171400Y-143383000D01*
D48*
%TO.N,Net-(D2-Pad3)*%
X158253533Y-178406411D02*
X172149667Y-178406411D01*
X156734000Y-174498000D02*
X156734000Y-176886878D01*
X156734000Y-176886878D02*
X158253533Y-178406411D01*
X172149667Y-178406411D02*
X173355000Y-177201078D01*
X173355000Y-177201078D02*
X173355000Y-161239200D01*
X173355000Y-161239200D02*
X170383200Y-158267400D01*
X73961000Y-174498000D02*
X79552800Y-174498000D01*
X62785000Y-163322000D02*
X73961000Y-174498000D01*
X156734000Y-174498000D02*
X79552800Y-174498000D01*
D49*
%TO.N,Net-(C10-Pad1)*%
X170164800Y-175829000D02*
X170383200Y-176047400D01*
D50*
X155105600Y-133985000D02*
X157372300Y-131718300D01*
X152495000Y-133985000D02*
X155105600Y-133985000D01*
X157435800Y-131654800D02*
X157753800Y-131336800D01*
X148539700Y-99380000D02*
X148522000Y-99362300D01*
X152273000Y-99380000D02*
X148539700Y-99380000D01*
X117383600Y-21945600D02*
X115224800Y-21945600D01*
X118618000Y-23180000D02*
X117383600Y-21945600D01*
X121224000Y-23180000D02*
X121539000Y-23495000D01*
X118618000Y-23180000D02*
X121224000Y-23180000D01*
X157372300Y-131718300D02*
X157435800Y-131654800D01*
X72596200Y-119126000D02*
X66303000Y-119126000D01*
D49*
X68340500Y-121163500D02*
X66303000Y-119126000D01*
X68340500Y-124931700D02*
X68340500Y-121163500D01*
X68340500Y-129239300D02*
X68340500Y-125769900D01*
D50*
X50910854Y-120446800D02*
X50012600Y-120446800D01*
X55027300Y-124563246D02*
X50910854Y-120446800D01*
X55027300Y-125769900D02*
X55027300Y-124563246D01*
X48458454Y-117994400D02*
X50910854Y-120446800D01*
X46253800Y-117994400D02*
X48458454Y-117994400D01*
X55027300Y-125769900D02*
X68340500Y-125769900D01*
D49*
X163896000Y-176047400D02*
X163499800Y-175651200D01*
X170383200Y-176047400D02*
X163896000Y-176047400D01*
X161417000Y-135128000D02*
X161417000Y-143078200D01*
X156728200Y-147767000D02*
X156781500Y-147713700D01*
X156781500Y-147713700D02*
X156246100Y-148249100D01*
X161417000Y-143078200D02*
X156781500Y-147713700D01*
X156246100Y-159131000D02*
X155992100Y-159385000D01*
X156246100Y-154305000D02*
X156246100Y-159131000D01*
X155992100Y-164007800D02*
X156246100Y-164261800D01*
X155992100Y-159385000D02*
X155992100Y-164007800D01*
X156246100Y-164261800D02*
X156246100Y-165136800D01*
X156246100Y-165853100D02*
X158632400Y-168239400D01*
X156246100Y-164261800D02*
X156246100Y-165853100D01*
X159085402Y-168239400D02*
X160680400Y-169834398D01*
X158632400Y-168239400D02*
X159085402Y-168239400D01*
X163140362Y-175651200D02*
X163499800Y-175651200D01*
X158734000Y-173548000D02*
X161037162Y-173548000D01*
X160680400Y-173191238D02*
X162692681Y-175203519D01*
X160680400Y-169834398D02*
X160680400Y-173191238D01*
X162692681Y-175203519D02*
X163140362Y-175651200D01*
X161037162Y-173548000D02*
X162692681Y-175203519D01*
D50*
X153692085Y-99380000D02*
X157784800Y-103472715D01*
X157784800Y-103472715D02*
X157784800Y-123139200D01*
X152273000Y-99380000D02*
X153692085Y-99380000D01*
X39293800Y-150569800D02*
X39293800Y-142949800D01*
X51142622Y-125769900D02*
X55027300Y-125769900D01*
X50271314Y-126641208D02*
X51142622Y-125769900D01*
X45662710Y-126641208D02*
X50271314Y-126641208D01*
X41249600Y-131054318D02*
X45662710Y-126641208D01*
X41249600Y-131572000D02*
X41249600Y-131054318D01*
X39293800Y-136067800D02*
X41249600Y-134112000D01*
X39293800Y-142949800D02*
X39293800Y-136067800D01*
X41249600Y-134112000D02*
X41249600Y-131572000D01*
X146304000Y-140176000D02*
X152495000Y-133985000D01*
X146304000Y-141528800D02*
X146304000Y-140176000D01*
D49*
X115224800Y-21945600D02*
X103682800Y-21945600D01*
X103682800Y-21945600D02*
X102285800Y-23342600D01*
X68340500Y-125769900D02*
X68340500Y-124931700D01*
X102285800Y-23342600D02*
X102285800Y-23342600D01*
D50*
X118618000Y-23180000D02*
X118618000Y-23180000D01*
D49*
X96850200Y-24892000D02*
X98145600Y-23596600D01*
D47*
X98522501Y-23219699D02*
X98145600Y-23596600D01*
X102162899Y-23219699D02*
X98522501Y-23219699D01*
X102285800Y-23342600D02*
X102162899Y-23219699D01*
X97709701Y-25751501D02*
X96850200Y-24892000D01*
X100592433Y-25751501D02*
X97709701Y-25751501D01*
X102285800Y-24058134D02*
X100592433Y-25751501D01*
X102285800Y-23342600D02*
X102285800Y-24058134D01*
X103682800Y-21945600D02*
X102793800Y-21945600D01*
X98145600Y-21336178D02*
X98145600Y-23596600D01*
X98802079Y-20679699D02*
X98145600Y-21336178D01*
X101527899Y-20679699D02*
X98802079Y-20679699D01*
X102793800Y-21945600D02*
X101527899Y-20679699D01*
D49*
X92481400Y-29260800D02*
X96850200Y-24892000D01*
X81051400Y-29260800D02*
X92481400Y-29260800D01*
D50*
X58340000Y-163322000D02*
X55342800Y-160324800D01*
X42033501Y-158909303D02*
X42033501Y-153309501D01*
X42033501Y-153309501D02*
X39293800Y-150569800D01*
X43448998Y-160324800D02*
X42033501Y-158909303D01*
X55342800Y-160324800D02*
X43448998Y-160324800D01*
X120340000Y-156972000D02*
X126410600Y-150901400D01*
X141097000Y-150901400D02*
X141401800Y-150596600D01*
D49*
X120340000Y-148417700D02*
X120105900Y-148183600D01*
X120340000Y-156972000D02*
X120340000Y-148417700D01*
X127484600Y-150801800D02*
X127584200Y-150901400D01*
X127484600Y-148183600D02*
X127484600Y-150801800D01*
D50*
X126410600Y-150901400D02*
X127584200Y-150901400D01*
D49*
X134863300Y-150128700D02*
X135636000Y-150901400D01*
D50*
X135636000Y-150901400D02*
X141097000Y-150901400D01*
D49*
X134863300Y-148183600D02*
X134863300Y-150128700D01*
D50*
X127584200Y-150901400D02*
X135636000Y-150901400D01*
X87952099Y-161450501D02*
X90093800Y-159308800D01*
X71994919Y-161450501D02*
X87952099Y-161450501D01*
X70234218Y-159689800D02*
X71994919Y-161450501D01*
X61972200Y-159689800D02*
X70234218Y-159689800D01*
X58340000Y-163322000D02*
X61972200Y-159689800D01*
X128102328Y-64683599D02*
X127177800Y-64683599D01*
X129409810Y-65991081D02*
X128102328Y-64683599D01*
X129409810Y-66915610D02*
X129409810Y-65991081D01*
X148522000Y-86027800D02*
X129409810Y-66915610D01*
X148522000Y-99362300D02*
X148522000Y-86027800D01*
X123742081Y-58928000D02*
X122540000Y-58928000D01*
X125673999Y-60859918D02*
X123742081Y-58928000D01*
X125673999Y-63179799D02*
X125673999Y-60859918D01*
X127177800Y-64683600D02*
X125673999Y-63179799D01*
D46*
X152806400Y-150662600D02*
X153847800Y-151704000D01*
X152806400Y-148398000D02*
X152806400Y-150662600D01*
X156241600Y-151704000D02*
X156246100Y-151699500D01*
X153847800Y-151704000D02*
X156241600Y-151704000D01*
D49*
X156246100Y-151699500D02*
X156246100Y-154305000D01*
X156246100Y-148249100D02*
X156246100Y-151699500D01*
D47*
%TO.N,Net-(J10-Pad5)*%
X52107199Y-35851199D02*
X51384200Y-35128200D01*
X55339312Y-39083312D02*
X52107199Y-35851199D01*
X96969912Y-39083312D02*
X55339312Y-39083312D01*
X98878101Y-40991501D02*
X96969912Y-39083312D01*
X102710499Y-40991501D02*
X98878101Y-40991501D01*
X108786400Y-34915600D02*
X102710499Y-40991501D01*
%TO.N,Net-(J10-Pad2)*%
X55905400Y-44729400D02*
X46304200Y-35128200D01*
X57247501Y-46071501D02*
X55905400Y-44729400D01*
X103630499Y-46071501D02*
X57247501Y-46071501D01*
X112786400Y-36915600D02*
X103630499Y-46071501D01*
D49*
%TO.N,Net-(D1-Pad2)*%
X152892000Y-130113804D02*
X152892000Y-128778000D01*
X149020804Y-133985000D02*
X152892000Y-130113804D01*
X148495000Y-133985000D02*
X149020804Y-133985000D01*
X152892000Y-128778000D02*
X160620294Y-128778000D01*
X160620294Y-128778000D02*
X162146495Y-127251799D01*
X165668799Y-127251799D02*
X169753800Y-131336800D01*
X162146495Y-127251799D02*
X165668799Y-127251799D01*
D48*
%TO.N,Net-(J1-Pad4)*%
X106862000Y-100398800D02*
X106862000Y-98624000D01*
X106862000Y-98624000D02*
X110490000Y-94996000D01*
X110490000Y-94996000D02*
X110490000Y-89154000D01*
X109014000Y-87678000D02*
X106299000Y-87678000D01*
X110490000Y-89154000D02*
X109014000Y-87678000D01*
X106299000Y-76519800D02*
X99984800Y-70205600D01*
X106299000Y-87678000D02*
X106299000Y-76519800D01*
D47*
X33905000Y-105914006D02*
X34036000Y-106045006D01*
X33905000Y-104223000D02*
X33905000Y-105914006D01*
X116071361Y-110455821D02*
X116071361Y-108090379D01*
X116071361Y-108090379D02*
X108379782Y-100398800D01*
X108379782Y-100398800D02*
X106862000Y-100398800D01*
X112992371Y-113534811D02*
X116071361Y-110455821D01*
X98520120Y-113534811D02*
X112992371Y-113534811D01*
X94713310Y-109728000D02*
X98520120Y-113534811D01*
X35052000Y-109728000D02*
X94713310Y-109728000D01*
X34163000Y-108839000D02*
X35052000Y-109728000D01*
D48*
%TO.N,Net-(J7-Pad2)*%
X125054900Y-122998700D02*
X125044200Y-122988000D01*
X125054900Y-126822200D02*
X125054900Y-122998700D01*
X125054900Y-126822200D02*
X125054900Y-126822200D01*
X123203585Y-128673515D02*
X123203585Y-128950511D01*
X125054900Y-126822200D02*
X123203585Y-128673515D01*
X62092022Y-144324978D02*
X49445000Y-156972000D01*
X75918422Y-144324978D02*
X62092022Y-144324978D01*
X85547200Y-134696200D02*
X75918422Y-144324978D01*
X114604800Y-134696200D02*
X85547200Y-134696200D01*
D47*
%TO.N,Net-(J10-Pad6)*%
X102170499Y-43531501D02*
X108786400Y-36915600D01*
X99132101Y-43531501D02*
X102170499Y-43531501D01*
X55570125Y-40999699D02*
X96600299Y-40999699D01*
X50245299Y-35674873D02*
X55570125Y-40999699D01*
X96600299Y-40999699D02*
X99132101Y-43531501D01*
X50245299Y-34581527D02*
X50245299Y-35674873D01*
X52238626Y-32588200D02*
X50245299Y-34581527D01*
X52654200Y-32588200D02*
X52238626Y-32588200D01*
%TO.N,Net-(J12-Pad12)*%
X37278723Y-102358811D02*
X36505000Y-103132534D01*
X87376000Y-79223200D02*
X64240389Y-102358811D01*
X87376000Y-62494400D02*
X87376000Y-79223200D01*
X36505000Y-103132534D02*
X36505000Y-104223000D01*
X64240389Y-102358811D02*
X37278723Y-102358811D01*
X99984800Y-49885600D02*
X87376000Y-62494400D01*
%TO.N,Net-(J12-Pad11)*%
X34555000Y-102605000D02*
X34671000Y-102489000D01*
X34555000Y-104223000D02*
X34555000Y-102605000D01*
X63373002Y-101472998D02*
X36703000Y-101472998D01*
X86233000Y-78613000D02*
X63373002Y-101472998D01*
X86233000Y-61097400D02*
X86233000Y-78613000D01*
X99984800Y-47345600D02*
X86233000Y-61097400D01*
D48*
%TO.N,Net-(J13-Pad2)*%
X99140400Y-100398800D02*
X99140400Y-98344600D01*
X99140400Y-98344600D02*
X101346000Y-96139000D01*
X101346000Y-96139000D02*
X101346000Y-88519000D01*
X100405700Y-87578700D02*
X98209100Y-87578700D01*
X101346000Y-88519000D02*
X100405700Y-87578700D01*
X98209100Y-87578700D02*
X97972789Y-87342389D01*
X97972789Y-87342389D02*
X97972789Y-73756333D01*
X98209100Y-66901300D02*
X99984800Y-65125600D01*
X97972789Y-73756333D02*
X98209100Y-73520022D01*
X98209100Y-73520022D02*
X98209100Y-66901300D01*
%TO.N,Net-(J13-Pad1)*%
X99140400Y-101398800D02*
X99140400Y-101426400D01*
X96222300Y-89578700D02*
X98209100Y-89578700D01*
X95250000Y-100203000D02*
X95250000Y-90551000D01*
X95250000Y-90551000D02*
X96222300Y-89578700D01*
X96445800Y-101398800D02*
X95250000Y-100203000D01*
X99140400Y-101398800D02*
X96445800Y-101398800D01*
X97008979Y-81104535D02*
X97008979Y-88378579D01*
X97135979Y-73591865D02*
X97135979Y-80977535D01*
X97555101Y-88924701D02*
X98209100Y-89578700D01*
X97501089Y-73226755D02*
X97135979Y-73591865D01*
X97501089Y-65069311D02*
X97501089Y-73226755D01*
X99984800Y-62585600D02*
X97501089Y-65069311D01*
X97135979Y-80977535D02*
X97008979Y-81104535D01*
X97008979Y-88378579D02*
X97555101Y-88924701D01*
%TO.N,Net-(R11-Pad2)*%
X131961466Y-148160434D02*
X131938300Y-148183600D01*
X131961466Y-145224600D02*
X131961466Y-148160434D01*
%TO.N,Net-(R12-Pad2)*%
X124680133Y-148063067D02*
X124559600Y-148183600D01*
X124680133Y-145224600D02*
X124680133Y-148063067D01*
%TO.N,Net-(R13-Pad2)*%
X117398800Y-147965700D02*
X117180900Y-148183600D01*
X117398800Y-145224600D02*
X117398800Y-147965700D01*
D50*
%TO.N,Net-(KF2-Pad6)*%
X108038900Y-150798400D02*
X108038900Y-143178400D01*
X110407741Y-140809559D02*
X137062713Y-140809559D01*
X108038900Y-143178400D02*
X110407741Y-140809559D01*
X137062713Y-140809559D02*
X140198143Y-143944989D01*
X140198143Y-143944989D02*
X149221811Y-143944989D01*
X149221811Y-143944989D02*
X149758400Y-143408400D01*
D48*
%TO.N,Net-(IC3-Pad3)*%
X135432800Y-124333000D02*
X140487400Y-119278400D01*
X134380700Y-124333000D02*
X135432800Y-124333000D01*
D51*
X165499800Y-154436000D02*
X165535800Y-154436000D01*
X164991800Y-154944000D02*
X165499800Y-154436000D01*
X164312800Y-154944000D02*
X164991800Y-154944000D01*
D48*
X145818211Y-124609211D02*
X167763811Y-124609211D01*
X173736000Y-133019800D02*
X165535800Y-141220000D01*
X167763811Y-124609211D02*
X173736000Y-130581400D01*
X165535800Y-141220000D02*
X165535800Y-154436000D01*
X140487400Y-119278400D02*
X145818211Y-124609211D01*
X173736000Y-130581400D02*
X173736000Y-133019800D01*
%TO.N,Net-(IC3-Pad4)*%
X139183399Y-129802601D02*
X140487400Y-128498600D01*
X135735501Y-129802601D02*
X139183399Y-129802601D01*
X134304500Y-128371600D02*
X135735501Y-129802601D01*
D51*
X164312800Y-154431800D02*
X164490400Y-154254200D01*
X164312800Y-154444000D02*
X164312800Y-154431800D01*
D48*
X167441100Y-125317222D02*
X143668778Y-125317222D01*
X164490400Y-154254200D02*
X164490400Y-140944600D01*
X164490400Y-140944600D02*
X172593000Y-132842000D01*
X143668778Y-125317222D02*
X140487400Y-128498600D01*
X172593000Y-132842000D02*
X172593000Y-130469122D01*
X172593000Y-130469122D02*
X167441100Y-125317222D01*
D51*
%TO.N,Net-(IC3-Pad5)*%
X159310100Y-154444000D02*
X159171100Y-154305000D01*
X161162800Y-154444000D02*
X159310100Y-154444000D01*
D48*
X162124811Y-160169011D02*
X170383200Y-168427400D01*
X162124811Y-154225411D02*
X162124811Y-160169011D01*
X160972500Y-153073100D02*
X162124811Y-154225411D01*
X159677100Y-153073100D02*
X160972500Y-153073100D01*
X159171100Y-153579100D02*
X159677100Y-153073100D01*
X159171100Y-154305000D02*
X159171100Y-153579100D01*
D51*
%TO.N,Net-(IC3-Pad6)*%
X160483800Y-154944000D02*
X161162800Y-154944000D01*
X158917100Y-156510700D02*
X160483800Y-154944000D01*
X158917100Y-159385000D02*
X158917100Y-156510700D01*
D48*
X158154590Y-165178412D02*
X158154590Y-160147510D01*
X163943578Y-170967400D02*
X158154590Y-165178412D01*
X158154590Y-160147510D02*
X158917100Y-159385000D01*
X170383200Y-170967400D02*
X163943578Y-170967400D01*
%TO.N,Net-(IC3-Pad7)*%
X161162800Y-162270100D02*
X161162800Y-155944000D01*
X159171100Y-164261800D02*
X161162800Y-162270100D01*
X161162800Y-155944000D02*
X161162800Y-155548001D01*
D50*
%TO.N,Net-(J7-Pad12)*%
X34213800Y-142949800D02*
X34213800Y-150569800D01*
D49*
X36195000Y-140968600D02*
X34213800Y-142949800D01*
X36195000Y-114554000D02*
X36195000Y-140968600D01*
D46*
X36195000Y-114554000D02*
X36195000Y-111125000D01*
D50*
X38786418Y-163322000D02*
X45000000Y-163322000D01*
X34213800Y-158749382D02*
X38786418Y-163322000D01*
X34213800Y-150569800D02*
X34213800Y-158749382D01*
D48*
%TO.N,Net-(J7-Pad5)*%
X134501466Y-145224600D02*
X131556436Y-142279570D01*
X131556436Y-142279570D02*
X111415630Y-142279570D01*
X111415630Y-142279570D02*
X111226600Y-142468600D01*
X62785000Y-155052206D02*
X62785000Y-156972000D01*
X72096206Y-145741000D02*
X62785000Y-155052206D01*
X107950000Y-140335000D02*
X81910956Y-140335000D01*
X81910956Y-140335000D02*
X76504956Y-145741000D01*
X76504956Y-145741000D02*
X72096206Y-145741000D01*
%TO.N,Net-(J7-Pad3)*%
X126314200Y-125156500D02*
X126314200Y-122988000D01*
X127979900Y-126822200D02*
X126314200Y-125156500D01*
X127979900Y-126959900D02*
X127979900Y-126822200D01*
X127979900Y-127697200D02*
X127979900Y-126959900D01*
X125135100Y-129667000D02*
X123901200Y-129667000D01*
X127979900Y-126822200D02*
X125135100Y-129667000D01*
X65829011Y-145032989D02*
X53890000Y-156972000D01*
X76211689Y-145032989D02*
X65829011Y-145032989D01*
X85329278Y-135915400D02*
X76211689Y-145032989D01*
X114884200Y-135915400D02*
X85329278Y-135915400D01*
D50*
%TO.N,Net-(D5-Pad2)*%
X87718900Y-143178400D02*
X82638900Y-143178400D01*
X87718900Y-150798400D02*
X82638900Y-150798400D01*
X78021400Y-150798400D02*
X74543000Y-147320000D01*
X82638900Y-150798400D02*
X78021400Y-150798400D01*
X67230000Y-154633000D02*
X74543000Y-147320000D01*
X67230000Y-156972000D02*
X67230000Y-154633000D01*
X78435200Y-147320000D02*
X74543000Y-147320000D01*
X82576800Y-143178400D02*
X78435200Y-147320000D01*
X82638900Y-143178400D02*
X82576800Y-143178400D01*
X100073367Y-165765489D02*
X105634707Y-165765489D01*
X87718900Y-150798400D02*
X87718900Y-153411022D01*
X87718900Y-153411022D02*
X100073367Y-165765489D01*
X113316499Y-165895501D02*
X115890000Y-163322000D01*
X105764719Y-165895501D02*
X113316499Y-165895501D01*
X105634707Y-165765489D02*
X105764719Y-165895501D01*
X87718900Y-143178400D02*
X87718900Y-150798400D01*
X82638900Y-143178400D02*
X82638900Y-150798400D01*
D49*
%TO.N,Net-(C2-Pad1)*%
X31303000Y-107442000D02*
X31303000Y-104013000D01*
D46*
X31303000Y-104013000D02*
X31303000Y-105205842D01*
D47*
X33045000Y-104013000D02*
X33255000Y-104223000D01*
X31303000Y-104013000D02*
X33045000Y-104013000D01*
D50*
X61019800Y-132208200D02*
X62230000Y-130998000D01*
X61019800Y-137744200D02*
X61019800Y-132208200D01*
D46*
X62784301Y-131552301D02*
X72878301Y-131552301D01*
X62230000Y-130998000D02*
X62784301Y-131552301D01*
X73440500Y-130990102D02*
X73440500Y-129239300D01*
X72878301Y-131552301D02*
X73440500Y-130990102D01*
D50*
X51943000Y-146821000D02*
X61019800Y-137744200D01*
X51943000Y-147320000D02*
X51943000Y-146821000D01*
D46*
X31303000Y-105205842D02*
X33666158Y-107569000D01*
X33666158Y-107569000D02*
X39624000Y-107569000D01*
X39624000Y-107569000D02*
X40132000Y-107061000D01*
X40132000Y-107061000D02*
X40132000Y-104013000D01*
D49*
X31303000Y-107442000D02*
X31303000Y-108167000D01*
X31303000Y-108167000D02*
X28048001Y-111421999D01*
X28048001Y-111421999D02*
X28048001Y-133940601D01*
X28048001Y-133940601D02*
X31699200Y-137591800D01*
D47*
%TO.N,Net-(C4-Pad1)*%
X48844200Y-33858200D02*
X47574200Y-32588200D01*
X48844200Y-35128200D02*
X48844200Y-33858200D01*
X36963101Y-33727101D02*
X36652200Y-33416200D01*
X46435299Y-33727101D02*
X36963101Y-33727101D01*
X47574200Y-32588200D02*
X46435299Y-33727101D01*
D48*
%TO.N,Net-(C16-Pad1)*%
X150266400Y-151348400D02*
X149910800Y-151704000D01*
X150266400Y-148398000D02*
X150266400Y-151348400D01*
D49*
%TO.N,Net-(D3-Pad1)*%
X79548699Y-126799299D02*
X80365600Y-127616200D01*
X72247499Y-126799299D02*
X79548699Y-126799299D01*
X71740500Y-127306298D02*
X72247499Y-126799299D01*
X71740500Y-129239300D02*
X71740500Y-127306298D01*
D50*
X80365600Y-121256600D02*
X82496200Y-119126000D01*
X80365600Y-127616200D02*
X80365600Y-121256600D01*
D48*
%TO.N,Net-(D4-Pad3)*%
X157638001Y-170195001D02*
X157638001Y-176789601D01*
X156632400Y-169189400D02*
X157638001Y-170195001D01*
X157638001Y-176789601D02*
X158546800Y-177698400D01*
X171249402Y-177698400D02*
X172567600Y-176380202D01*
X158546800Y-177698400D02*
X171249402Y-177698400D01*
X172567600Y-162991800D02*
X170383200Y-160807400D01*
X172567600Y-176380202D02*
X172567600Y-162991800D01*
X135097400Y-169189400D02*
X129230000Y-163322000D01*
X156632400Y-169189400D02*
X135097400Y-169189400D01*
D47*
%TO.N,Net-(J5-Pad3)*%
X80662101Y-33371501D02*
X76551400Y-29260800D01*
X102988899Y-33371501D02*
X80662101Y-33371501D01*
X103035600Y-33324800D02*
X102988899Y-33371501D01*
%TO.N,Net-(J5-Pad2)*%
X80122101Y-30831501D02*
X78551400Y-29260800D01*
X102988899Y-30831501D02*
X80122101Y-30831501D01*
X103035600Y-30784800D02*
X102988899Y-30831501D01*
D50*
%TO.N,Net-(J7-Pad11)*%
X29133800Y-142949800D02*
X29133800Y-150569800D01*
D46*
X33528000Y-114681000D02*
X33528000Y-110998000D01*
D50*
X29133800Y-156825922D02*
X38779478Y-166471600D01*
X29133800Y-150569800D02*
X29133800Y-156825922D01*
X46295400Y-166471600D02*
X49445000Y-163322000D01*
X38779478Y-166471600D02*
X46295400Y-166471600D01*
D49*
X33528000Y-138555600D02*
X29133800Y-142949800D01*
X33528000Y-114681000D02*
X33528000Y-138555600D01*
D48*
%TO.N,Net-(J7-Pad7)*%
X143637000Y-150025200D02*
X141427200Y-147815400D01*
X130457490Y-153063488D02*
X141982912Y-153063488D01*
X127418499Y-157019523D02*
X127418499Y-156102479D01*
X122973499Y-163369523D02*
X122973499Y-161464523D01*
X122973499Y-161464523D02*
X127418499Y-157019523D01*
X119617523Y-166725499D02*
X122973499Y-163369523D01*
X143637000Y-151409400D02*
X143637000Y-150025200D01*
X116180666Y-167365512D02*
X116820679Y-166725499D01*
X116820679Y-166725499D02*
X119617523Y-166725499D01*
X105155821Y-167365512D02*
X116180666Y-167365512D01*
X105025809Y-167235500D02*
X105155821Y-167365512D01*
X71143500Y-167235500D02*
X105025809Y-167235500D01*
X67230000Y-163322000D02*
X71143500Y-167235500D01*
X141982912Y-153063488D02*
X143637000Y-151409400D01*
X127418499Y-156102479D02*
X130457490Y-153063488D01*
D47*
%TO.N,Net-(J10-Pad1)*%
X110753900Y-32883100D02*
X112786400Y-34915600D01*
X105359032Y-32883100D02*
X110753900Y-32883100D01*
X103643233Y-34598899D02*
X105359032Y-32883100D01*
X102427967Y-34598899D02*
X103643233Y-34598899D01*
X101115365Y-35911501D02*
X102427967Y-34598899D01*
X99377167Y-35911501D02*
X101115365Y-35911501D01*
X98771666Y-35306000D02*
X99377167Y-35911501D01*
X63398400Y-30911800D02*
X67792600Y-35306000D01*
X67792600Y-35306000D02*
X98771666Y-35306000D01*
X63373000Y-30911800D02*
X63398400Y-30911800D01*
D48*
%TO.N,Net-(J11-Pad9)*%
X170383200Y-155727400D02*
X168071800Y-155727400D01*
X166281100Y-157518100D02*
X164350700Y-157518100D01*
X168071800Y-155727400D02*
X166281100Y-157518100D01*
X163055300Y-157518100D02*
X163055300Y-157518100D01*
X164350700Y-157518100D02*
X163055300Y-157518100D01*
X151536400Y-154406600D02*
X154686000Y-157556200D01*
X151536400Y-148398000D02*
X151536400Y-154406600D01*
D47*
%TO.N,Net-(J12-Pad15)*%
X105246900Y-57505600D02*
X111444500Y-51308000D01*
X99984800Y-57505600D02*
X105246900Y-57505600D01*
X111444500Y-51308000D02*
X111444500Y-48133000D01*
X114456499Y-48611501D02*
X111760000Y-51308000D01*
X111760000Y-51308000D02*
X111444500Y-51308000D01*
X116429501Y-48611501D02*
X114456499Y-48611501D01*
X119126000Y-51308000D02*
X116429501Y-48611501D01*
X122540000Y-51308000D02*
X119126000Y-51308000D01*
D48*
%TO.N,Net-(J14-Pad13)*%
X117348000Y-54548800D02*
X115224800Y-52425600D01*
X117348000Y-63285922D02*
X117348000Y-54548800D01*
X121914079Y-67852001D02*
X117348000Y-63285922D01*
X123605001Y-67852001D02*
X121914079Y-67852001D01*
X146523090Y-90770090D02*
X123605001Y-67852001D01*
X146523090Y-112603390D02*
X146523090Y-90770090D01*
X148522000Y-114602300D02*
X146523090Y-112603390D01*
%TO.N,Net-(J14-Pad12)*%
X148522000Y-116727278D02*
X145464000Y-113669278D01*
X116528801Y-63468001D02*
X116528801Y-60509199D01*
X148522000Y-117142300D02*
X148522000Y-116727278D01*
X145464000Y-113669278D02*
X145464000Y-91401922D01*
X116298477Y-60509199D02*
X113920799Y-58131521D01*
X113920799Y-51189601D02*
X115224800Y-49885600D01*
X122622090Y-68560012D02*
X121620811Y-68560011D01*
X145464000Y-91401922D02*
X122622090Y-68560012D01*
X121620811Y-68560011D02*
X116528801Y-63468001D01*
X113920799Y-58131521D02*
X113920799Y-51189601D01*
X116528801Y-60509199D02*
X116298477Y-60509199D01*
%TO.N,Net-(J14-Pad11)*%
X133817600Y-47345600D02*
X170800000Y-84328000D01*
X115224800Y-47345600D02*
X133817600Y-47345600D01*
%TO.N,Net-(J14-Pad10)*%
X133817600Y-44805600D02*
X170800000Y-81788000D01*
X115224800Y-44805600D02*
X133817600Y-44805600D01*
%TO.N,Net-(J14-Pad9)*%
X104645460Y-109273100D02*
X104607480Y-109235120D01*
X101544360Y-106172000D02*
X94869000Y-106172000D01*
X94869000Y-106172000D02*
X90170000Y-101473000D01*
X90170000Y-101473000D02*
X90170000Y-80899000D01*
X92194000Y-78875000D02*
X94416000Y-78875000D01*
X90170000Y-80899000D02*
X92194000Y-78875000D01*
D47*
X108519500Y-51308000D02*
X110466090Y-49361410D01*
X110466090Y-49361410D02*
X110466090Y-47079924D01*
X110466090Y-47079924D02*
X115224800Y-42321214D01*
X115224800Y-42321214D02*
X115224800Y-42265600D01*
X95191000Y-65794000D02*
X98425000Y-62560000D01*
X94416000Y-65794000D02*
X95191000Y-65794000D01*
X103587801Y-56239699D02*
X108519500Y-51308000D01*
X99377167Y-56239699D02*
X103587801Y-56239699D01*
X98425000Y-57191866D02*
X99377167Y-56239699D01*
X98425000Y-62560000D02*
X98425000Y-57191866D01*
D48*
X91305000Y-65794000D02*
X94416000Y-65794000D01*
X90043000Y-67056000D02*
X91305000Y-65794000D01*
X95176989Y-74375611D02*
X90043000Y-69241622D01*
X95045200Y-78875000D02*
X95645010Y-78275190D01*
X95645010Y-78275190D02*
X95645010Y-77474810D01*
X94416000Y-78875000D02*
X95045200Y-78875000D01*
X95645010Y-77474810D02*
X95176989Y-77006789D01*
X90043000Y-69241622D02*
X90043000Y-67056000D01*
X95176989Y-77006789D02*
X95176989Y-74375611D01*
X104607480Y-109235120D02*
X101544360Y-106172000D01*
X137947400Y-128498600D02*
X136613178Y-128498600D01*
X136613178Y-128498600D02*
X133364190Y-125249612D01*
X133364190Y-125249612D02*
X133364190Y-122873990D01*
X133364190Y-122873990D02*
X130175000Y-119684800D01*
%TO.N,Net-(J14-Pad8)*%
X94180011Y-106880011D02*
X89154000Y-101854000D01*
X102105460Y-109273100D02*
X99712371Y-106880011D01*
X89154000Y-101854000D02*
X89154000Y-80913722D01*
X92192722Y-77875000D02*
X94416000Y-77875000D01*
X99712371Y-106880011D02*
X94180011Y-106880011D01*
X89154000Y-80913722D02*
X92192722Y-77875000D01*
X94416000Y-77875000D02*
X94416000Y-75112000D01*
X94416000Y-75112000D02*
X88773000Y-69469000D01*
X88773000Y-69469000D02*
X88773000Y-66294000D01*
X90273000Y-64794000D02*
X94416000Y-64794000D01*
X88773000Y-66294000D02*
X90273000Y-64794000D01*
D47*
X113958899Y-40991501D02*
X113958899Y-42693601D01*
X115224800Y-39725600D02*
X113958899Y-40991501D01*
X113958899Y-42693601D02*
X108519500Y-48133000D01*
X94416000Y-64794000D02*
X94416000Y-58492000D01*
X102960999Y-53691501D02*
X108519500Y-48133000D01*
X99216499Y-53691501D02*
X102960999Y-53691501D01*
X94416000Y-58492000D02*
X99216499Y-53691501D01*
D48*
X137947400Y-119278400D02*
X133146800Y-119278400D01*
X133146800Y-119278400D02*
X132074277Y-120350923D01*
%TO.N,Net-(J14-Pad7)*%
X128737600Y-37185600D02*
X170800000Y-79248000D01*
X115224800Y-37185600D02*
X128737600Y-37185600D01*
%TO.N,Net-(J14-Pad6)*%
X115224800Y-34645600D02*
X142957600Y-34645600D01*
X165343822Y-56422900D02*
X164734900Y-56422900D01*
X169495999Y-61183999D02*
X169495999Y-60575077D01*
X169495999Y-60575077D02*
X165343822Y-56422900D01*
X170800000Y-62488000D02*
X169495999Y-61183999D01*
X142957600Y-34645600D02*
X164734900Y-56422900D01*
%TO.N,Net-(J15-Pad8)*%
X121594789Y-93411467D02*
X121594790Y-105527268D01*
X115224800Y-87041478D02*
X121594789Y-93411467D01*
X115224800Y-80365600D02*
X115224800Y-87041478D01*
X121594790Y-113110590D02*
X121594790Y-105527268D01*
X125044200Y-116560000D02*
X121594790Y-113110590D01*
X125044200Y-118058000D02*
X125044200Y-116560000D01*
X126314200Y-118058000D02*
X125044200Y-118058000D01*
%TO.N,Net-(J15-Pad7)*%
X122302800Y-92381600D02*
X122302800Y-105234000D01*
X115224800Y-77825600D02*
X116528801Y-79129601D01*
X116528801Y-86607601D02*
X122302800Y-92381600D01*
X116528801Y-79129601D02*
X116528801Y-86607601D01*
X127584200Y-113440079D02*
X122302800Y-108158679D01*
X127584200Y-118058000D02*
X127584200Y-113440079D01*
X122302800Y-108158679D02*
X122302800Y-105234000D01*
%TO.N,Net-(J15-Pad6)*%
X113920799Y-76589601D02*
X115224800Y-75285600D01*
X120597361Y-114881161D02*
X120597361Y-93800361D01*
X113920799Y-87123799D02*
X113920799Y-76589601D01*
X120597361Y-93800361D02*
X113920799Y-87123799D01*
X123774200Y-118058000D02*
X120597361Y-114881161D01*
%TO.N,Net-(J15-Pad5)*%
X132901401Y-125811877D02*
X132689600Y-125600076D01*
X132689600Y-125552198D02*
X132511801Y-125374399D01*
X132689600Y-125600076D02*
X132689600Y-125552198D01*
X132901401Y-125811877D02*
X132901401Y-125788101D01*
X121235999Y-78756799D02*
X115224800Y-72745600D01*
X129159000Y-92876922D02*
X121235999Y-84953921D01*
X129159000Y-120103178D02*
X129159000Y-92876922D01*
X132562600Y-123506778D02*
X129159000Y-120103178D01*
X132901401Y-125788101D02*
X132562600Y-125449300D01*
X132901401Y-126711999D02*
X132901401Y-125788101D01*
X121235999Y-84953921D02*
X121235999Y-78756799D01*
X132562600Y-125449300D02*
X132562600Y-123506778D01*
X132901401Y-126711999D02*
X132901401Y-125811877D01*
X133410399Y-130889721D02*
X133410399Y-129987475D01*
X133905279Y-131384601D02*
X133410399Y-130889721D01*
X133410399Y-129987475D02*
X132901401Y-129478477D01*
X148209000Y-127635000D02*
X144459399Y-131384601D01*
X144459399Y-131384601D02*
X133905279Y-131384601D01*
X132901401Y-129478477D02*
X132901401Y-126711999D01*
%TO.N,Net-(J15-Pad4)*%
X127529880Y-132807002D02*
X128923865Y-134200987D01*
X118865303Y-106933090D02*
X118865302Y-111613107D01*
X118297398Y-112181011D02*
X118297398Y-125688800D01*
X123097998Y-131092922D02*
X124812078Y-132807002D01*
X136599287Y-134200987D02*
X138132200Y-135733900D01*
X113212788Y-72217612D02*
X113212788Y-87417064D01*
X124812078Y-132807002D02*
X127529880Y-132807002D01*
X118668800Y-106736587D02*
X118865303Y-106933090D01*
X118297398Y-125688800D02*
X123097998Y-130489400D01*
X138132200Y-135733900D02*
X138694700Y-136296400D01*
X115224800Y-70205600D02*
X113212788Y-72217612D01*
X118668800Y-92873078D02*
X118668800Y-106736587D01*
X123097998Y-130489400D02*
X123097998Y-131092922D01*
X118865302Y-111613107D02*
X118297398Y-112181011D01*
X128923865Y-134200987D02*
X136599287Y-134200987D01*
X113212788Y-87417064D02*
X118668800Y-92873078D01*
%TO.N,Net-(J15-Pad3)*%
X113157000Y-69215000D02*
X113157000Y-68580000D01*
X113157000Y-69215000D02*
X113157000Y-68707000D01*
X114071400Y-67665600D02*
X115224800Y-67665600D01*
X113157000Y-68580000D02*
X114071400Y-67665600D01*
X127589198Y-133867598D02*
X130386200Y-136664600D01*
X117589387Y-126007465D02*
X122389989Y-130808067D01*
X124835876Y-133867598D02*
X127589198Y-133867598D01*
X122389989Y-131421711D02*
X124835876Y-133867598D01*
X122389989Y-130808067D02*
X122389989Y-131421711D01*
X117589387Y-111887744D02*
X117589387Y-126007465D01*
X118157292Y-107226357D02*
X118157291Y-111319840D01*
X117960790Y-107029855D02*
X118157292Y-107226357D01*
X117960788Y-93166344D02*
X117960790Y-107029855D01*
X112504777Y-87710331D02*
X117960788Y-93166344D01*
X112504777Y-69867223D02*
X112504777Y-87710331D01*
X118157291Y-111319840D02*
X117589387Y-111887744D01*
X113157000Y-69215000D02*
X112504777Y-69867223D01*
X130386200Y-136664600D02*
X131961466Y-136664600D01*
%TO.N,Net-(J15-Pad2)*%
X121681978Y-131714978D02*
X124680133Y-134713133D01*
X117449281Y-111026572D02*
X116881376Y-111594477D01*
X116881376Y-126300732D02*
X121681978Y-131101334D01*
X117449281Y-107519624D02*
X117449281Y-111026572D01*
X110397967Y-86604799D02*
X117252778Y-93459612D01*
X116881376Y-111594477D02*
X116881376Y-126300732D01*
X117252778Y-93459612D02*
X117252780Y-107323123D01*
X110397968Y-69952432D02*
X110397967Y-86604799D01*
X121681978Y-131101334D02*
X121681978Y-131714978D01*
X117252780Y-107323123D02*
X117449281Y-107519624D01*
X115224800Y-65125600D02*
X110397968Y-69952432D01*
X124680133Y-134713133D02*
X124680133Y-136664600D01*
%TO.N,Net-(J16-Pad3)*%
X150749000Y-114289300D02*
X148522000Y-112062300D01*
X150749000Y-117432502D02*
X150749000Y-114289300D01*
X148903102Y-119278400D02*
X150749000Y-117432502D01*
X143027400Y-119278400D02*
X148903102Y-119278400D01*
D50*
%TO.N,Net-(J28-Pad12)*%
X97878900Y-143178400D02*
X97878900Y-150798400D01*
X100786418Y-163322000D02*
X107000000Y-163322000D01*
X97116499Y-159652081D02*
X100786418Y-163322000D01*
X97116499Y-156331919D02*
X97116499Y-159652081D01*
X97878900Y-155569518D02*
X97116499Y-156331919D01*
X97878900Y-150798400D02*
X97878900Y-155569518D01*
%TO.N,Net-(J28-Pad6)*%
X157753800Y-143536800D02*
X155113600Y-146177000D01*
X148237304Y-146177000D02*
X145313400Y-149100904D01*
X155113600Y-146177000D02*
X148237304Y-146177000D01*
X145313400Y-149100904D02*
X145313400Y-152349200D01*
X131668501Y-154533499D02*
X129230000Y-156972000D01*
X143129101Y-154533499D02*
X131668501Y-154533499D01*
X145313400Y-152349200D02*
X143129101Y-154533499D01*
%TO.N,Net-(J28-Pad5)*%
X102958900Y-143178400D02*
X102958900Y-150798400D01*
X104258899Y-152098399D02*
X102958900Y-150798400D01*
X104258899Y-159134701D02*
X104258899Y-152098399D01*
X105872697Y-160748499D02*
X104258899Y-159134701D01*
X121008501Y-160748499D02*
X124785000Y-156972000D01*
X105872697Y-160748499D02*
X121008501Y-160748499D01*
D48*
%TO.N,Net-(J28-Pad3)*%
X114528600Y-155610600D02*
X115890000Y-156972000D01*
X114528600Y-145762665D02*
X114528600Y-155610600D01*
X116595673Y-143695592D02*
X114528600Y-145762665D01*
X118409792Y-143695592D02*
X116595673Y-143695592D01*
X119938800Y-145224600D02*
X118409792Y-143695592D01*
%TO.N,Net-(J28-Pad2)*%
X112344200Y-156072800D02*
X111445000Y-156972000D01*
X113385600Y-155031400D02*
X111445000Y-156972000D01*
X113385600Y-145904387D02*
X113385600Y-155031400D01*
X116302406Y-142987581D02*
X113385600Y-145904387D01*
X124983114Y-142987581D02*
X116302406Y-142987581D01*
X127220133Y-145224600D02*
X124983114Y-142987581D01*
%TO.N,Net-(R10-Pad2)*%
X141619700Y-139062900D02*
X141427200Y-139255400D01*
X141619700Y-136296400D02*
X141619700Y-139062900D01*
D47*
%TO.N,Net-(U1-Pad11)*%
X40405000Y-111423000D02*
X39755000Y-111423000D01*
%TO.N,Net-(U1-Pad7)*%
X37805000Y-111423000D02*
X37155000Y-111423000D01*
D48*
%TO.N,Net-(C1-Pad1)*%
X94416000Y-66794000D02*
X95496000Y-66794000D01*
X95645010Y-66943010D02*
X95645010Y-72658010D01*
X95645010Y-72658010D02*
X95758000Y-72771000D01*
X95496000Y-66794000D02*
X95645010Y-66943010D01*
X95885000Y-79181000D02*
X95191000Y-79875000D01*
X95885000Y-79036478D02*
X95885000Y-79181000D01*
X96353021Y-78568457D02*
X95885000Y-79036478D01*
X95191000Y-79875000D02*
X94416000Y-79875000D01*
X95885000Y-76713522D02*
X96353021Y-77181543D01*
X95885000Y-72898000D02*
X95885000Y-76713522D01*
X95758000Y-72771000D02*
X95885000Y-72898000D01*
X96353021Y-77181543D02*
X96353021Y-78568457D01*
D50*
X112265460Y-130931019D02*
X112265460Y-132133100D01*
X111699000Y-130364559D02*
X112265460Y-130931019D01*
X111699000Y-125730000D02*
X111699000Y-130364559D01*
D48*
X121488200Y-122732800D02*
X123063000Y-121158000D01*
X123063000Y-121158000D02*
X126720600Y-121158000D01*
X127584200Y-122021600D02*
X127584200Y-122988000D01*
X126720600Y-121158000D02*
X127584200Y-122021600D01*
D50*
X94212284Y-111252000D02*
X108690284Y-125730000D01*
X108690284Y-125730000D02*
X111699000Y-125730000D01*
X94212284Y-111252000D02*
X48920400Y-111252000D01*
X46177200Y-113995200D02*
X48920400Y-111252000D01*
X44257000Y-113995200D02*
X46177200Y-113995200D01*
X44614998Y-120294400D02*
X43307000Y-118986402D01*
X46253800Y-120294400D02*
X44614998Y-120294400D01*
X44257000Y-114893454D02*
X44257000Y-113995200D01*
X43307000Y-115843454D02*
X44257000Y-114893454D01*
X43307000Y-118986402D02*
X43307000Y-115843454D01*
D48*
X131379500Y-124409200D02*
X131455700Y-124333000D01*
X128929200Y-124333000D02*
X127584200Y-122988000D01*
X131455700Y-124333000D02*
X128929200Y-124333000D01*
X131379500Y-128371600D02*
X131379500Y-124409200D01*
D51*
X163547411Y-155357611D02*
X163547411Y-153927189D01*
X163633800Y-155444000D02*
X163547411Y-155357611D01*
X164312800Y-155444000D02*
X163633800Y-155444000D01*
D48*
X131379500Y-129317310D02*
X132556389Y-130494199D01*
X131379500Y-128371600D02*
X131379500Y-129317310D01*
D51*
X163547411Y-153927189D02*
X163652200Y-153822400D01*
D48*
X163652200Y-140172802D02*
X171457801Y-132367201D01*
X143380278Y-130530600D02*
X134264400Y-130530600D01*
X167147832Y-126025232D02*
X147885646Y-126025232D01*
X171457801Y-130335201D02*
X167147832Y-126025232D01*
X171457801Y-132367201D02*
X171457801Y-130335201D01*
X163652200Y-153822400D02*
X163652200Y-140172802D01*
X147885646Y-126025232D02*
X143380278Y-130530600D01*
X119255378Y-124965622D02*
X119255378Y-125159624D01*
X121488200Y-122732800D02*
X119255378Y-124965622D01*
D49*
X69138798Y-78105002D02*
X84835998Y-78105002D01*
X48768000Y-98475800D02*
X69138798Y-78105002D01*
D48*
X131379500Y-128371600D02*
X131379500Y-128371600D01*
D47*
X35855000Y-101209742D02*
X35855000Y-104223000D01*
X35130290Y-100485032D02*
X35855000Y-101209742D01*
X35130290Y-99200110D02*
X35130290Y-100485032D01*
X36271200Y-98059200D02*
X35130290Y-99200110D01*
X36271200Y-98059200D02*
X40106600Y-98059200D01*
X48351400Y-98059200D02*
X48768000Y-98475800D01*
X40106600Y-98059200D02*
X48351400Y-98059200D01*
%TD*%
M02*
