%TF.GenerationSoftware,KiCad,Pcbnew,(5.1.10)-1*%
%TF.CreationDate,2022-08-04T08:13:07-06:00*%
%TF.ProjectId,AS14,41533134-2e6b-4696-9361-645f70636258,rev?*%
%TF.SameCoordinates,Original*%
%TF.FileFunction,Soldermask,Top*%
%TF.FilePolarity,Negative*%
%FSLAX46Y46*%
G04 Gerber Fmt 4.6, Leading zero omitted, Abs format (unit mm)*
G04 Created by KiCad (PCBNEW (5.1.10)-1) date 2022-08-04 08:13:07*
%MOMM*%
%LPD*%
G01*
G04 APERTURE LIST*
%ADD10C,3.300000*%
%ADD11C,4.485000*%
%ADD12C,2.715000*%
%ADD13R,2.715000X2.715000*%
%ADD14O,1.700000X1.700000*%
%ADD15R,1.700000X1.700000*%
%ADD16C,1.600000*%
%ADD17R,1.600000X1.500000*%
%ADD18C,3.000000*%
%ADD19R,0.900000X0.800000*%
%ADD20R,0.850000X0.300000*%
%ADD21R,2.000000X1.500000*%
%ADD22R,2.000000X3.800000*%
%ADD23C,2.999999*%
%ADD24C,3.200000*%
%ADD25R,0.450000X1.750000*%
%ADD26C,2.600000*%
%ADD27R,2.600000X2.600000*%
%ADD28O,2.500000X2.500000*%
%ADD29R,2.500000X2.500000*%
%ADD30R,1.800000X1.800000*%
%ADD31C,1.308000*%
%ADD32R,1.308000X1.308000*%
%ADD33C,2.445000*%
%ADD34C,1.530000*%
%ADD35C,1.446000*%
%ADD36R,2.250000X2.250000*%
%ADD37C,2.250000*%
%ADD38R,0.530000X1.980000*%
%ADD39R,2.500000X1.800000*%
%ADD40R,10.530000X8.460000*%
%ADD41R,1.050000X3.210000*%
%ADD42R,2.900000X5.400000*%
%ADD43O,1.350000X1.350000*%
%ADD44R,1.350000X1.350000*%
G04 APERTURE END LIST*
%TO.C,C18*%
G36*
G01*
X35796200Y-99459200D02*
X36746200Y-99459200D01*
G75*
G02*
X36996200Y-99709200I0J-250000D01*
G01*
X36996200Y-100209200D01*
G75*
G02*
X36746200Y-100459200I-250000J0D01*
G01*
X35796200Y-100459200D01*
G75*
G02*
X35546200Y-100209200I0J250000D01*
G01*
X35546200Y-99709200D01*
G75*
G02*
X35796200Y-99459200I250000J0D01*
G01*
G37*
G36*
G01*
X35796200Y-97559200D02*
X36746200Y-97559200D01*
G75*
G02*
X36996200Y-97809200I0J-250000D01*
G01*
X36996200Y-98309200D01*
G75*
G02*
X36746200Y-98559200I-250000J0D01*
G01*
X35796200Y-98559200D01*
G75*
G02*
X35546200Y-98309200I0J250000D01*
G01*
X35546200Y-97809200D01*
G75*
G02*
X35796200Y-97559200I250000J0D01*
G01*
G37*
%TD*%
%TO.C,C17*%
G36*
G01*
X153372800Y-153104000D02*
X154322800Y-153104000D01*
G75*
G02*
X154572800Y-153354000I0J-250000D01*
G01*
X154572800Y-153854000D01*
G75*
G02*
X154322800Y-154104000I-250000J0D01*
G01*
X153372800Y-154104000D01*
G75*
G02*
X153122800Y-153854000I0J250000D01*
G01*
X153122800Y-153354000D01*
G75*
G02*
X153372800Y-153104000I250000J0D01*
G01*
G37*
G36*
G01*
X153372800Y-151204000D02*
X154322800Y-151204000D01*
G75*
G02*
X154572800Y-151454000I0J-250000D01*
G01*
X154572800Y-151954000D01*
G75*
G02*
X154322800Y-152204000I-250000J0D01*
G01*
X153372800Y-152204000D01*
G75*
G02*
X153122800Y-151954000I0J250000D01*
G01*
X153122800Y-151454000D01*
G75*
G02*
X153372800Y-151204000I250000J0D01*
G01*
G37*
%TD*%
%TO.C,U7*%
G36*
G01*
X152548400Y-147413000D02*
X153064400Y-147413000D01*
G75*
G02*
X153106400Y-147455000I0J-42000D01*
G01*
X153106400Y-149341000D01*
G75*
G02*
X153064400Y-149383000I-42000J0D01*
G01*
X152548400Y-149383000D01*
G75*
G02*
X152506400Y-149341000I0J42000D01*
G01*
X152506400Y-147455000D01*
G75*
G02*
X152548400Y-147413000I42000J0D01*
G01*
G37*
G36*
G01*
X151278400Y-147413000D02*
X151794400Y-147413000D01*
G75*
G02*
X151836400Y-147455000I0J-42000D01*
G01*
X151836400Y-149341000D01*
G75*
G02*
X151794400Y-149383000I-42000J0D01*
G01*
X151278400Y-149383000D01*
G75*
G02*
X151236400Y-149341000I0J42000D01*
G01*
X151236400Y-147455000D01*
G75*
G02*
X151278400Y-147413000I42000J0D01*
G01*
G37*
G36*
G01*
X150008400Y-147413000D02*
X150524400Y-147413000D01*
G75*
G02*
X150566400Y-147455000I0J-42000D01*
G01*
X150566400Y-149341000D01*
G75*
G02*
X150524400Y-149383000I-42000J0D01*
G01*
X150008400Y-149383000D01*
G75*
G02*
X149966400Y-149341000I0J42000D01*
G01*
X149966400Y-147455000D01*
G75*
G02*
X150008400Y-147413000I42000J0D01*
G01*
G37*
G36*
G01*
X148738400Y-147413000D02*
X149254400Y-147413000D01*
G75*
G02*
X149296400Y-147455000I0J-42000D01*
G01*
X149296400Y-149341000D01*
G75*
G02*
X149254400Y-149383000I-42000J0D01*
G01*
X148738400Y-149383000D01*
G75*
G02*
X148696400Y-149341000I0J42000D01*
G01*
X148696400Y-147455000D01*
G75*
G02*
X148738400Y-147413000I42000J0D01*
G01*
G37*
G36*
G01*
X148738400Y-142463000D02*
X149254400Y-142463000D01*
G75*
G02*
X149296400Y-142505000I0J-42000D01*
G01*
X149296400Y-144391000D01*
G75*
G02*
X149254400Y-144433000I-42000J0D01*
G01*
X148738400Y-144433000D01*
G75*
G02*
X148696400Y-144391000I0J42000D01*
G01*
X148696400Y-142505000D01*
G75*
G02*
X148738400Y-142463000I42000J0D01*
G01*
G37*
G36*
G01*
X150008400Y-142463000D02*
X150524400Y-142463000D01*
G75*
G02*
X150566400Y-142505000I0J-42000D01*
G01*
X150566400Y-144391000D01*
G75*
G02*
X150524400Y-144433000I-42000J0D01*
G01*
X150008400Y-144433000D01*
G75*
G02*
X149966400Y-144391000I0J42000D01*
G01*
X149966400Y-142505000D01*
G75*
G02*
X150008400Y-142463000I42000J0D01*
G01*
G37*
G36*
G01*
X151278400Y-142463000D02*
X151794400Y-142463000D01*
G75*
G02*
X151836400Y-142505000I0J-42000D01*
G01*
X151836400Y-144391000D01*
G75*
G02*
X151794400Y-144433000I-42000J0D01*
G01*
X151278400Y-144433000D01*
G75*
G02*
X151236400Y-144391000I0J42000D01*
G01*
X151236400Y-142505000D01*
G75*
G02*
X151278400Y-142463000I42000J0D01*
G01*
G37*
G36*
G01*
X152548400Y-142463000D02*
X153064400Y-142463000D01*
G75*
G02*
X153106400Y-142505000I0J-42000D01*
G01*
X153106400Y-144391000D01*
G75*
G02*
X153064400Y-144433000I-42000J0D01*
G01*
X152548400Y-144433000D01*
G75*
G02*
X152506400Y-144391000I0J42000D01*
G01*
X152506400Y-142505000D01*
G75*
G02*
X152548400Y-142463000I42000J0D01*
G01*
G37*
%TD*%
D10*
%TO.C,REF\u002A\u002A*%
X128540000Y-60833000D03*
X128540000Y-22733000D03*
X166640000Y-22733000D03*
X166640000Y-60833000D03*
%TD*%
D11*
%TO.C,J28*%
X135655000Y-157992000D03*
X118115000Y-169422000D03*
X100575000Y-157992000D03*
D12*
X107000000Y-163322000D03*
X111445000Y-163322000D03*
X115890000Y-163322000D03*
X120340000Y-163322000D03*
X124785000Y-163322000D03*
X129230000Y-163322000D03*
X129230000Y-156972000D03*
X124785000Y-156972000D03*
X120340000Y-156972000D03*
X115890000Y-156972000D03*
X111445000Y-156972000D03*
D13*
X107000000Y-156972000D03*
%TD*%
D14*
%TO.C,J6*%
X103035600Y-38404800D03*
X103035600Y-35864800D03*
X103035600Y-33324800D03*
X103035600Y-30784800D03*
D15*
X103035600Y-28244800D03*
%TD*%
D16*
%TO.C,J5*%
X74051400Y-29260800D03*
X76551400Y-29260800D03*
X78551400Y-29260800D03*
D17*
X81051400Y-29260800D03*
D18*
X70981400Y-26550800D03*
X84121400Y-26550800D03*
%TD*%
D11*
%TO.C,J7*%
X73655000Y-157992000D03*
X56115000Y-169422000D03*
X38575000Y-157992000D03*
D12*
X45000000Y-163322000D03*
X49445000Y-163322000D03*
X53890000Y-163322000D03*
X58340000Y-163322000D03*
X62785000Y-163322000D03*
X67230000Y-163322000D03*
X67230000Y-156972000D03*
X62785000Y-156972000D03*
X58340000Y-156972000D03*
X53890000Y-156972000D03*
X49445000Y-156972000D03*
D13*
X45000000Y-156972000D03*
%TD*%
D19*
%TO.C,D2*%
X156734000Y-174498000D03*
X158734000Y-173548000D03*
X158734000Y-175448000D03*
%TD*%
%TO.C,R8*%
G36*
G01*
X133818200Y-124958001D02*
X133818200Y-123707999D01*
G75*
G02*
X134068199Y-123458000I249999J0D01*
G01*
X134693201Y-123458000D01*
G75*
G02*
X134943200Y-123707999I0J-249999D01*
G01*
X134943200Y-124958001D01*
G75*
G02*
X134693201Y-125208000I-249999J0D01*
G01*
X134068199Y-125208000D01*
G75*
G02*
X133818200Y-124958001I0J249999D01*
G01*
G37*
G36*
G01*
X130893200Y-124958001D02*
X130893200Y-123707999D01*
G75*
G02*
X131143199Y-123458000I249999J0D01*
G01*
X131768201Y-123458000D01*
G75*
G02*
X132018200Y-123707999I0J-249999D01*
G01*
X132018200Y-124958001D01*
G75*
G02*
X131768201Y-125208000I-249999J0D01*
G01*
X131143199Y-125208000D01*
G75*
G02*
X130893200Y-124958001I0J249999D01*
G01*
G37*
%TD*%
%TO.C,R5*%
G36*
G01*
X133742000Y-128996601D02*
X133742000Y-127746599D01*
G75*
G02*
X133991999Y-127496600I249999J0D01*
G01*
X134617001Y-127496600D01*
G75*
G02*
X134867000Y-127746599I0J-249999D01*
G01*
X134867000Y-128996601D01*
G75*
G02*
X134617001Y-129246600I-249999J0D01*
G01*
X133991999Y-129246600D01*
G75*
G02*
X133742000Y-128996601I0J249999D01*
G01*
G37*
G36*
G01*
X130817000Y-128996601D02*
X130817000Y-127746599D01*
G75*
G02*
X131066999Y-127496600I249999J0D01*
G01*
X131692001Y-127496600D01*
G75*
G02*
X131942000Y-127746599I0J-249999D01*
G01*
X131942000Y-128996601D01*
G75*
G02*
X131692001Y-129246600I-249999J0D01*
G01*
X131066999Y-129246600D01*
G75*
G02*
X130817000Y-128996601I0J249999D01*
G01*
G37*
%TD*%
%TO.C,R4*%
G36*
G01*
X158608600Y-164886801D02*
X158608600Y-163636799D01*
G75*
G02*
X158858599Y-163386800I249999J0D01*
G01*
X159483601Y-163386800D01*
G75*
G02*
X159733600Y-163636799I0J-249999D01*
G01*
X159733600Y-164886801D01*
G75*
G02*
X159483601Y-165136800I-249999J0D01*
G01*
X158858599Y-165136800D01*
G75*
G02*
X158608600Y-164886801I0J249999D01*
G01*
G37*
G36*
G01*
X155683600Y-164886801D02*
X155683600Y-163636799D01*
G75*
G02*
X155933599Y-163386800I249999J0D01*
G01*
X156558601Y-163386800D01*
G75*
G02*
X156808600Y-163636799I0J-249999D01*
G01*
X156808600Y-164886801D01*
G75*
G02*
X156558601Y-165136800I-249999J0D01*
G01*
X155933599Y-165136800D01*
G75*
G02*
X155683600Y-164886801I0J249999D01*
G01*
G37*
%TD*%
%TO.C,R3*%
G36*
G01*
X158608600Y-154930001D02*
X158608600Y-153679999D01*
G75*
G02*
X158858599Y-153430000I249999J0D01*
G01*
X159483601Y-153430000D01*
G75*
G02*
X159733600Y-153679999I0J-249999D01*
G01*
X159733600Y-154930001D01*
G75*
G02*
X159483601Y-155180000I-249999J0D01*
G01*
X158858599Y-155180000D01*
G75*
G02*
X158608600Y-154930001I0J249999D01*
G01*
G37*
G36*
G01*
X155683600Y-154930001D02*
X155683600Y-153679999D01*
G75*
G02*
X155933599Y-153430000I249999J0D01*
G01*
X156558601Y-153430000D01*
G75*
G02*
X156808600Y-153679999I0J-249999D01*
G01*
X156808600Y-154930001D01*
G75*
G02*
X156558601Y-155180000I-249999J0D01*
G01*
X155933599Y-155180000D01*
G75*
G02*
X155683600Y-154930001I0J249999D01*
G01*
G37*
%TD*%
%TO.C,R2*%
G36*
G01*
X158354600Y-160010001D02*
X158354600Y-158759999D01*
G75*
G02*
X158604599Y-158510000I249999J0D01*
G01*
X159229601Y-158510000D01*
G75*
G02*
X159479600Y-158759999I0J-249999D01*
G01*
X159479600Y-160010001D01*
G75*
G02*
X159229601Y-160260000I-249999J0D01*
G01*
X158604599Y-160260000D01*
G75*
G02*
X158354600Y-160010001I0J249999D01*
G01*
G37*
G36*
G01*
X155429600Y-160010001D02*
X155429600Y-158759999D01*
G75*
G02*
X155679599Y-158510000I249999J0D01*
G01*
X156304601Y-158510000D01*
G75*
G02*
X156554600Y-158759999I0J-249999D01*
G01*
X156554600Y-160010001D01*
G75*
G02*
X156304601Y-160260000I-249999J0D01*
G01*
X155679599Y-160260000D01*
G75*
G02*
X155429600Y-160010001I0J249999D01*
G01*
G37*
%TD*%
D20*
%TO.C,IC3*%
X164312800Y-155944000D03*
X164312800Y-155444000D03*
X164312800Y-154944000D03*
X164312800Y-154444000D03*
X161162800Y-154444000D03*
X161162800Y-154944000D03*
X161162800Y-155444000D03*
X161162800Y-155944000D03*
%TD*%
D19*
%TO.C,D4*%
X156632400Y-169189400D03*
X158632400Y-168239400D03*
X158632400Y-170139400D03*
%TD*%
%TO.C,C5*%
G36*
G01*
X163974800Y-174251200D02*
X163024800Y-174251200D01*
G75*
G02*
X162774800Y-174001200I0J250000D01*
G01*
X162774800Y-173501200D01*
G75*
G02*
X163024800Y-173251200I250000J0D01*
G01*
X163974800Y-173251200D01*
G75*
G02*
X164224800Y-173501200I0J-250000D01*
G01*
X164224800Y-174001200D01*
G75*
G02*
X163974800Y-174251200I-250000J0D01*
G01*
G37*
G36*
G01*
X163974800Y-176151200D02*
X163024800Y-176151200D01*
G75*
G02*
X162774800Y-175901200I0J250000D01*
G01*
X162774800Y-175401200D01*
G75*
G02*
X163024800Y-175151200I250000J0D01*
G01*
X163974800Y-175151200D01*
G75*
G02*
X164224800Y-175401200I0J-250000D01*
G01*
X164224800Y-175901200D01*
G75*
G02*
X163974800Y-176151200I-250000J0D01*
G01*
G37*
%TD*%
D14*
%TO.C,J16*%
X143027400Y-119278400D03*
X140487400Y-119278400D03*
D15*
X137947400Y-119278400D03*
%TD*%
D14*
%TO.C,J17*%
X143027400Y-128498600D03*
X140487400Y-128498600D03*
D15*
X137947400Y-128498600D03*
%TD*%
%TO.C,C16*%
G36*
G01*
X149435800Y-153104000D02*
X150385800Y-153104000D01*
G75*
G02*
X150635800Y-153354000I0J-250000D01*
G01*
X150635800Y-153854000D01*
G75*
G02*
X150385800Y-154104000I-250000J0D01*
G01*
X149435800Y-154104000D01*
G75*
G02*
X149185800Y-153854000I0J250000D01*
G01*
X149185800Y-153354000D01*
G75*
G02*
X149435800Y-153104000I250000J0D01*
G01*
G37*
G36*
G01*
X149435800Y-151204000D02*
X150385800Y-151204000D01*
G75*
G02*
X150635800Y-151454000I0J-250000D01*
G01*
X150635800Y-151954000D01*
G75*
G02*
X150385800Y-152204000I-250000J0D01*
G01*
X149435800Y-152204000D01*
G75*
G02*
X149185800Y-151954000I0J250000D01*
G01*
X149185800Y-151454000D01*
G75*
G02*
X149435800Y-151204000I250000J0D01*
G01*
G37*
%TD*%
D21*
%TO.C,IC1*%
X46253800Y-122594400D03*
X46253800Y-117994400D03*
X46253800Y-120294400D03*
D22*
X39953800Y-120294400D03*
%TD*%
D18*
%TO.C,M1*%
X141127600Y-108726000D03*
X127127600Y-97226000D03*
%TD*%
%TO.C,C11*%
G36*
G01*
X118143000Y-24580000D02*
X119093000Y-24580000D01*
G75*
G02*
X119343000Y-24830000I0J-250000D01*
G01*
X119343000Y-25330000D01*
G75*
G02*
X119093000Y-25580000I-250000J0D01*
G01*
X118143000Y-25580000D01*
G75*
G02*
X117893000Y-25330000I0J250000D01*
G01*
X117893000Y-24830000D01*
G75*
G02*
X118143000Y-24580000I250000J0D01*
G01*
G37*
G36*
G01*
X118143000Y-22680000D02*
X119093000Y-22680000D01*
G75*
G02*
X119343000Y-22930000I0J-250000D01*
G01*
X119343000Y-23430000D01*
G75*
G02*
X119093000Y-23680000I-250000J0D01*
G01*
X118143000Y-23680000D01*
G75*
G02*
X117893000Y-23430000I0J250000D01*
G01*
X117893000Y-22930000D01*
G75*
G02*
X118143000Y-22680000I250000J0D01*
G01*
G37*
%TD*%
D23*
%TO.C,REF\u002A\u002A*%
X124256800Y-92684600D03*
X142036800Y-92684600D03*
X142036800Y-113004600D03*
X124256800Y-113004600D03*
%TD*%
D18*
%TO.C,REF\u002A\u002A*%
X93245000Y-130837000D03*
X118645000Y-130837000D03*
%TD*%
%TO.C, *%
X175641000Y-175641000D03*
%TD*%
%TO.C, *%
X175641000Y-99504500D03*
%TD*%
%TO.C, *%
X175641000Y-23368000D03*
%TD*%
%TO.C, *%
X23368000Y-175641000D03*
%TD*%
%TO.C, *%
X23368000Y-99504500D03*
%TD*%
%TO.C, *%
X23368000Y-23368000D03*
%TD*%
D24*
%TO.C,REF\u002A\u002A*%
X58746000Y-43266000D03*
X58746000Y-99266000D03*
X30746000Y-99266000D03*
X30746000Y-43266000D03*
X86626000Y-43266000D03*
X86626000Y-122006000D03*
X30746000Y-122006000D03*
%TD*%
D14*
%TO.C,J11*%
X170383200Y-153187400D03*
X170383200Y-155727400D03*
X170383200Y-158267400D03*
X170383200Y-160807400D03*
X170383200Y-163347400D03*
X170383200Y-165887400D03*
X170383200Y-168427400D03*
X170383200Y-170967400D03*
X170383200Y-173507400D03*
D15*
X170383200Y-176047400D03*
%TD*%
%TO.C,C12*%
G36*
G01*
X126702800Y-66083600D02*
X127652800Y-66083600D01*
G75*
G02*
X127902800Y-66333600I0J-250000D01*
G01*
X127902800Y-66833600D01*
G75*
G02*
X127652800Y-67083600I-250000J0D01*
G01*
X126702800Y-67083600D01*
G75*
G02*
X126452800Y-66833600I0J250000D01*
G01*
X126452800Y-66333600D01*
G75*
G02*
X126702800Y-66083600I250000J0D01*
G01*
G37*
G36*
G01*
X126702800Y-64183600D02*
X127652800Y-64183600D01*
G75*
G02*
X127902800Y-64433600I0J-250000D01*
G01*
X127902800Y-64933600D01*
G75*
G02*
X127652800Y-65183600I-250000J0D01*
G01*
X126702800Y-65183600D01*
G75*
G02*
X126452800Y-64933600I0J250000D01*
G01*
X126452800Y-64433600D01*
G75*
G02*
X126702800Y-64183600I250000J0D01*
G01*
G37*
%TD*%
D14*
%TO.C,J23*%
X97025460Y-109273100D03*
X99565460Y-109273100D03*
X102105460Y-109273100D03*
X104645460Y-109273100D03*
X107185460Y-109273100D03*
X109725460Y-109273100D03*
X112265460Y-109273100D03*
D15*
X114805460Y-109273100D03*
%TD*%
%TO.C,C3*%
G36*
G01*
X29903000Y-106967000D02*
X29903000Y-107917000D01*
G75*
G02*
X29653000Y-108167000I-250000J0D01*
G01*
X29153000Y-108167000D01*
G75*
G02*
X28903000Y-107917000I0J250000D01*
G01*
X28903000Y-106967000D01*
G75*
G02*
X29153000Y-106717000I250000J0D01*
G01*
X29653000Y-106717000D01*
G75*
G02*
X29903000Y-106967000I0J-250000D01*
G01*
G37*
G36*
G01*
X31803000Y-106967000D02*
X31803000Y-107917000D01*
G75*
G02*
X31553000Y-108167000I-250000J0D01*
G01*
X31053000Y-108167000D01*
G75*
G02*
X30803000Y-107917000I0J250000D01*
G01*
X30803000Y-106967000D01*
G75*
G02*
X31053000Y-106717000I250000J0D01*
G01*
X31553000Y-106717000D01*
G75*
G02*
X31803000Y-106967000I0J-250000D01*
G01*
G37*
%TD*%
D25*
%TO.C,U1*%
X33255000Y-104223000D03*
X33905000Y-104223000D03*
X34555000Y-104223000D03*
X35205000Y-104223000D03*
X35855000Y-104223000D03*
X36505000Y-104223000D03*
X37155000Y-104223000D03*
X37805000Y-104223000D03*
X38455000Y-104223000D03*
X39105000Y-104223000D03*
X39755000Y-104223000D03*
X40405000Y-104223000D03*
X40405000Y-111423000D03*
X39755000Y-111423000D03*
X39105000Y-111423000D03*
X38455000Y-111423000D03*
X37805000Y-111423000D03*
X37155000Y-111423000D03*
X36505000Y-111423000D03*
X35855000Y-111423000D03*
X35205000Y-111423000D03*
X34555000Y-111423000D03*
X33905000Y-111423000D03*
X33255000Y-111423000D03*
%TD*%
%TO.C,C2*%
G36*
G01*
X29903000Y-103538000D02*
X29903000Y-104488000D01*
G75*
G02*
X29653000Y-104738000I-250000J0D01*
G01*
X29153000Y-104738000D01*
G75*
G02*
X28903000Y-104488000I0J250000D01*
G01*
X28903000Y-103538000D01*
G75*
G02*
X29153000Y-103288000I250000J0D01*
G01*
X29653000Y-103288000D01*
G75*
G02*
X29903000Y-103538000I0J-250000D01*
G01*
G37*
G36*
G01*
X31803000Y-103538000D02*
X31803000Y-104488000D01*
G75*
G02*
X31553000Y-104738000I-250000J0D01*
G01*
X31053000Y-104738000D01*
G75*
G02*
X30803000Y-104488000I0J250000D01*
G01*
X30803000Y-103538000D01*
G75*
G02*
X31053000Y-103288000I250000J0D01*
G01*
X31553000Y-103288000D01*
G75*
G02*
X31803000Y-103538000I0J-250000D01*
G01*
G37*
%TD*%
%TO.C,C1*%
G36*
G01*
X39631600Y-99459200D02*
X40581600Y-99459200D01*
G75*
G02*
X40831600Y-99709200I0J-250000D01*
G01*
X40831600Y-100209200D01*
G75*
G02*
X40581600Y-100459200I-250000J0D01*
G01*
X39631600Y-100459200D01*
G75*
G02*
X39381600Y-100209200I0J250000D01*
G01*
X39381600Y-99709200D01*
G75*
G02*
X39631600Y-99459200I250000J0D01*
G01*
G37*
G36*
G01*
X39631600Y-97559200D02*
X40581600Y-97559200D01*
G75*
G02*
X40831600Y-97809200I0J-250000D01*
G01*
X40831600Y-98309200D01*
G75*
G02*
X40581600Y-98559200I-250000J0D01*
G01*
X39631600Y-98559200D01*
G75*
G02*
X39381600Y-98309200I0J250000D01*
G01*
X39381600Y-97809200D01*
G75*
G02*
X39631600Y-97559200I250000J0D01*
G01*
G37*
%TD*%
%TO.C,C15*%
G36*
G01*
X113099000Y-126205000D02*
X113099000Y-125255000D01*
G75*
G02*
X113349000Y-125005000I250000J0D01*
G01*
X113849000Y-125005000D01*
G75*
G02*
X114099000Y-125255000I0J-250000D01*
G01*
X114099000Y-126205000D01*
G75*
G02*
X113849000Y-126455000I-250000J0D01*
G01*
X113349000Y-126455000D01*
G75*
G02*
X113099000Y-126205000I0J250000D01*
G01*
G37*
G36*
G01*
X111199000Y-126205000D02*
X111199000Y-125255000D01*
G75*
G02*
X111449000Y-125005000I250000J0D01*
G01*
X111949000Y-125005000D01*
G75*
G02*
X112199000Y-125255000I0J-250000D01*
G01*
X112199000Y-126205000D01*
G75*
G02*
X111949000Y-126455000I-250000J0D01*
G01*
X111449000Y-126455000D01*
G75*
G02*
X111199000Y-126205000I0J250000D01*
G01*
G37*
%TD*%
%TO.C,R9*%
G36*
G01*
X125617400Y-126197199D02*
X125617400Y-127447201D01*
G75*
G02*
X125367401Y-127697200I-249999J0D01*
G01*
X124742399Y-127697200D01*
G75*
G02*
X124492400Y-127447201I0J249999D01*
G01*
X124492400Y-126197199D01*
G75*
G02*
X124742399Y-125947200I249999J0D01*
G01*
X125367401Y-125947200D01*
G75*
G02*
X125617400Y-126197199I0J-249999D01*
G01*
G37*
G36*
G01*
X128542400Y-126197199D02*
X128542400Y-127447201D01*
G75*
G02*
X128292401Y-127697200I-249999J0D01*
G01*
X127667399Y-127697200D01*
G75*
G02*
X127417400Y-127447201I0J249999D01*
G01*
X127417400Y-126197199D01*
G75*
G02*
X127667399Y-125947200I249999J0D01*
G01*
X128292401Y-125947200D01*
G75*
G02*
X128542400Y-126197199I0J-249999D01*
G01*
G37*
%TD*%
D26*
%TO.C,KF2*%
X108038900Y-143178400D03*
X108038900Y-150798400D03*
X102958900Y-143178400D03*
X102958900Y-150798400D03*
X97878900Y-143178400D03*
X97878900Y-150798400D03*
X92798900Y-143178400D03*
X92798900Y-150798400D03*
X87718900Y-143178400D03*
X87718900Y-150798400D03*
D27*
X82638900Y-143178400D03*
X82638900Y-150798400D03*
%TD*%
D26*
%TO.C,KF1*%
X44373800Y-142949800D03*
X44373800Y-150569800D03*
X39293800Y-142949800D03*
X39293800Y-150569800D03*
X34213800Y-142949800D03*
X34213800Y-150569800D03*
D27*
X29133800Y-142949800D03*
X29133800Y-150569800D03*
%TD*%
D28*
%TO.C,K1*%
X169753800Y-131336800D03*
X169753800Y-143536800D03*
X157753800Y-143536800D03*
X157753800Y-131336800D03*
D29*
X163753800Y-129336800D03*
%TD*%
D30*
%TO.C,D3*%
X80365600Y-131616200D03*
X80365600Y-127616200D03*
%TD*%
D31*
%TO.C,J2*%
X106299000Y-93678000D03*
X106299000Y-91678000D03*
X106299000Y-89678000D03*
D32*
X106299000Y-87678000D03*
%TD*%
D15*
%TO.C,J8*%
X41249600Y-131572000D03*
D14*
X41249600Y-134112000D03*
X43789600Y-131572000D03*
X43789600Y-134112000D03*
%TD*%
D33*
%TO.C,J9*%
X40464200Y-29288200D03*
X55954200Y-29288200D03*
D34*
X41584200Y-21338200D03*
X44124200Y-21338200D03*
X52294200Y-21338200D03*
X54834200Y-21338200D03*
D35*
X43764200Y-35128200D03*
X45034200Y-32588200D03*
X46304200Y-35128200D03*
X47574200Y-32588200D03*
X48844200Y-35128200D03*
X50114200Y-32588200D03*
X51384200Y-35128200D03*
X52654200Y-32588200D03*
%TD*%
%TO.C,R1*%
G36*
G01*
X147583998Y-129997500D02*
X148834002Y-129997500D01*
G75*
G02*
X149084000Y-130247498I0J-249998D01*
G01*
X149084000Y-130872502D01*
G75*
G02*
X148834002Y-131122500I-249998J0D01*
G01*
X147583998Y-131122500D01*
G75*
G02*
X147334000Y-130872502I0J249998D01*
G01*
X147334000Y-130247498D01*
G75*
G02*
X147583998Y-129997500I249998J0D01*
G01*
G37*
G36*
G01*
X147583998Y-127072500D02*
X148834002Y-127072500D01*
G75*
G02*
X149084000Y-127322498I0J-249998D01*
G01*
X149084000Y-127947502D01*
G75*
G02*
X148834002Y-128197500I-249998J0D01*
G01*
X147583998Y-128197500D01*
G75*
G02*
X147334000Y-127947502I0J249998D01*
G01*
X147334000Y-127322498D01*
G75*
G02*
X147583998Y-127072500I249998J0D01*
G01*
G37*
%TD*%
%TO.C,R11*%
G36*
G01*
X132500800Y-147558598D02*
X132500800Y-148808602D01*
G75*
G02*
X132250802Y-149058600I-249998J0D01*
G01*
X131625798Y-149058600D01*
G75*
G02*
X131375800Y-148808602I0J249998D01*
G01*
X131375800Y-147558598D01*
G75*
G02*
X131625798Y-147308600I249998J0D01*
G01*
X132250802Y-147308600D01*
G75*
G02*
X132500800Y-147558598I0J-249998D01*
G01*
G37*
G36*
G01*
X135425800Y-147558598D02*
X135425800Y-148808602D01*
G75*
G02*
X135175802Y-149058600I-249998J0D01*
G01*
X134550798Y-149058600D01*
G75*
G02*
X134300800Y-148808602I0J249998D01*
G01*
X134300800Y-147558598D01*
G75*
G02*
X134550798Y-147308600I249998J0D01*
G01*
X135175802Y-147308600D01*
G75*
G02*
X135425800Y-147558598I0J-249998D01*
G01*
G37*
%TD*%
%TO.C,R12*%
G36*
G01*
X125122100Y-147558598D02*
X125122100Y-148808602D01*
G75*
G02*
X124872102Y-149058600I-249998J0D01*
G01*
X124247098Y-149058600D01*
G75*
G02*
X123997100Y-148808602I0J249998D01*
G01*
X123997100Y-147558598D01*
G75*
G02*
X124247098Y-147308600I249998J0D01*
G01*
X124872102Y-147308600D01*
G75*
G02*
X125122100Y-147558598I0J-249998D01*
G01*
G37*
G36*
G01*
X128047100Y-147558598D02*
X128047100Y-148808602D01*
G75*
G02*
X127797102Y-149058600I-249998J0D01*
G01*
X127172098Y-149058600D01*
G75*
G02*
X126922100Y-148808602I0J249998D01*
G01*
X126922100Y-147558598D01*
G75*
G02*
X127172098Y-147308600I249998J0D01*
G01*
X127797102Y-147308600D01*
G75*
G02*
X128047100Y-147558598I0J-249998D01*
G01*
G37*
%TD*%
%TO.C,R13*%
G36*
G01*
X117743400Y-147558598D02*
X117743400Y-148808602D01*
G75*
G02*
X117493402Y-149058600I-249998J0D01*
G01*
X116868398Y-149058600D01*
G75*
G02*
X116618400Y-148808602I0J249998D01*
G01*
X116618400Y-147558598D01*
G75*
G02*
X116868398Y-147308600I249998J0D01*
G01*
X117493402Y-147308600D01*
G75*
G02*
X117743400Y-147558598I0J-249998D01*
G01*
G37*
G36*
G01*
X120668400Y-147558598D02*
X120668400Y-148808602D01*
G75*
G02*
X120418402Y-149058600I-249998J0D01*
G01*
X119793398Y-149058600D01*
G75*
G02*
X119543400Y-148808602I0J249998D01*
G01*
X119543400Y-147558598D01*
G75*
G02*
X119793398Y-147308600I249998J0D01*
G01*
X120418402Y-147308600D01*
G75*
G02*
X120668400Y-147558598I0J-249998D01*
G01*
G37*
%TD*%
D36*
%TO.C,D5*%
X51943000Y-147320000D03*
D37*
X74543000Y-147320000D03*
%TD*%
%TO.C,R6*%
G36*
G01*
X109082000Y-47507997D02*
X109082000Y-48758003D01*
G75*
G02*
X108832003Y-49008000I-249997J0D01*
G01*
X108206997Y-49008000D01*
G75*
G02*
X107957000Y-48758003I0J249997D01*
G01*
X107957000Y-47507997D01*
G75*
G02*
X108206997Y-47258000I249997J0D01*
G01*
X108832003Y-47258000D01*
G75*
G02*
X109082000Y-47507997I0J-249997D01*
G01*
G37*
G36*
G01*
X112007000Y-47507997D02*
X112007000Y-48758003D01*
G75*
G02*
X111757003Y-49008000I-249997J0D01*
G01*
X111131997Y-49008000D01*
G75*
G02*
X110882000Y-48758003I0J249997D01*
G01*
X110882000Y-47507997D01*
G75*
G02*
X111131997Y-47258000I249997J0D01*
G01*
X111757003Y-47258000D01*
G75*
G02*
X112007000Y-47507997I0J-249997D01*
G01*
G37*
%TD*%
%TO.C,R7*%
G36*
G01*
X109082000Y-50682997D02*
X109082000Y-51933003D01*
G75*
G02*
X108832003Y-52183000I-249997J0D01*
G01*
X108206997Y-52183000D01*
G75*
G02*
X107957000Y-51933003I0J249997D01*
G01*
X107957000Y-50682997D01*
G75*
G02*
X108206997Y-50433000I249997J0D01*
G01*
X108832003Y-50433000D01*
G75*
G02*
X109082000Y-50682997I0J-249997D01*
G01*
G37*
G36*
G01*
X112007000Y-50682997D02*
X112007000Y-51933003D01*
G75*
G02*
X111757003Y-52183000I-249997J0D01*
G01*
X111131997Y-52183000D01*
G75*
G02*
X110882000Y-51933003I0J249997D01*
G01*
X110882000Y-50682997D01*
G75*
G02*
X111131997Y-50433000I249997J0D01*
G01*
X111757003Y-50433000D01*
G75*
G02*
X112007000Y-50682997I0J-249997D01*
G01*
G37*
%TD*%
%TO.C,C4*%
G36*
G01*
X36177200Y-34816200D02*
X37127200Y-34816200D01*
G75*
G02*
X37377200Y-35066200I0J-250000D01*
G01*
X37377200Y-35566200D01*
G75*
G02*
X37127200Y-35816200I-250000J0D01*
G01*
X36177200Y-35816200D01*
G75*
G02*
X35927200Y-35566200I0J250000D01*
G01*
X35927200Y-35066200D01*
G75*
G02*
X36177200Y-34816200I250000J0D01*
G01*
G37*
G36*
G01*
X36177200Y-32916200D02*
X37127200Y-32916200D01*
G75*
G02*
X37377200Y-33166200I0J-250000D01*
G01*
X37377200Y-33666200D01*
G75*
G02*
X37127200Y-33916200I-250000J0D01*
G01*
X36177200Y-33916200D01*
G75*
G02*
X35927200Y-33666200I0J250000D01*
G01*
X35927200Y-33166200D01*
G75*
G02*
X36177200Y-32916200I250000J0D01*
G01*
G37*
%TD*%
D14*
%TO.C,J15*%
X115224800Y-80365600D03*
X115224800Y-77825600D03*
X115224800Y-75285600D03*
X115224800Y-72745600D03*
X115224800Y-70205600D03*
X115224800Y-67665600D03*
X115224800Y-65125600D03*
D15*
X115224800Y-62585600D03*
%TD*%
D38*
%TO.C,U2*%
X127584200Y-122988000D03*
X126314200Y-122988000D03*
X125044200Y-122988000D03*
X123774200Y-122988000D03*
X123774200Y-118058000D03*
X125044200Y-118058000D03*
X126314200Y-118058000D03*
X127584200Y-118058000D03*
%TD*%
%TO.C,C6*%
G36*
G01*
X49537600Y-121846800D02*
X50487600Y-121846800D01*
G75*
G02*
X50737600Y-122096800I0J-250000D01*
G01*
X50737600Y-122596800D01*
G75*
G02*
X50487600Y-122846800I-250000J0D01*
G01*
X49537600Y-122846800D01*
G75*
G02*
X49287600Y-122596800I0J250000D01*
G01*
X49287600Y-122096800D01*
G75*
G02*
X49537600Y-121846800I250000J0D01*
G01*
G37*
G36*
G01*
X49537600Y-119946800D02*
X50487600Y-119946800D01*
G75*
G02*
X50737600Y-120196800I0J-250000D01*
G01*
X50737600Y-120696800D01*
G75*
G02*
X50487600Y-120946800I-250000J0D01*
G01*
X49537600Y-120946800D01*
G75*
G02*
X49287600Y-120696800I0J250000D01*
G01*
X49287600Y-120196800D01*
G75*
G02*
X49537600Y-119946800I250000J0D01*
G01*
G37*
%TD*%
D39*
%TO.C,D1*%
X148495000Y-133985000D03*
X152495000Y-133985000D03*
%TD*%
D40*
%TO.C,IC2*%
X70040500Y-138869300D03*
D41*
X66640500Y-129239300D03*
X68340500Y-129239300D03*
X70040500Y-129239300D03*
X71740500Y-129239300D03*
X73440500Y-129239300D03*
%TD*%
%TO.C,C8*%
G36*
G01*
X62705000Y-129598000D02*
X61755000Y-129598000D01*
G75*
G02*
X61505000Y-129348000I0J250000D01*
G01*
X61505000Y-128848000D01*
G75*
G02*
X61755000Y-128598000I250000J0D01*
G01*
X62705000Y-128598000D01*
G75*
G02*
X62955000Y-128848000I0J-250000D01*
G01*
X62955000Y-129348000D01*
G75*
G02*
X62705000Y-129598000I-250000J0D01*
G01*
G37*
G36*
G01*
X62705000Y-131498000D02*
X61755000Y-131498000D01*
G75*
G02*
X61505000Y-131248000I0J250000D01*
G01*
X61505000Y-130748000D01*
G75*
G02*
X61755000Y-130498000I250000J0D01*
G01*
X62705000Y-130498000D01*
G75*
G02*
X62955000Y-130748000I0J-250000D01*
G01*
X62955000Y-131248000D01*
G75*
G02*
X62705000Y-131498000I-250000J0D01*
G01*
G37*
%TD*%
D42*
%TO.C,L1*%
X72596200Y-119126000D03*
X82496200Y-119126000D03*
%TD*%
%TO.C,C10*%
G36*
G01*
X60103000Y-118126000D02*
X60103000Y-120126000D01*
G75*
G02*
X59853000Y-120376000I-250000J0D01*
G01*
X55953000Y-120376000D01*
G75*
G02*
X55703000Y-120126000I0J250000D01*
G01*
X55703000Y-118126000D01*
G75*
G02*
X55953000Y-117876000I250000J0D01*
G01*
X59853000Y-117876000D01*
G75*
G02*
X60103000Y-118126000I0J-250000D01*
G01*
G37*
G36*
G01*
X68503000Y-118126000D02*
X68503000Y-120126000D01*
G75*
G02*
X68253000Y-120376000I-250000J0D01*
G01*
X64353000Y-120376000D01*
G75*
G02*
X64103000Y-120126000I0J250000D01*
G01*
X64103000Y-118126000D01*
G75*
G02*
X64353000Y-117876000I250000J0D01*
G01*
X68253000Y-117876000D01*
G75*
G02*
X68503000Y-118126000I0J-250000D01*
G01*
G37*
%TD*%
%TO.C,C9*%
G36*
G01*
X54819800Y-136744200D02*
X54819800Y-138744200D01*
G75*
G02*
X54569800Y-138994200I-250000J0D01*
G01*
X50669800Y-138994200D01*
G75*
G02*
X50419800Y-138744200I0J250000D01*
G01*
X50419800Y-136744200D01*
G75*
G02*
X50669800Y-136494200I250000J0D01*
G01*
X54569800Y-136494200D01*
G75*
G02*
X54819800Y-136744200I0J-250000D01*
G01*
G37*
G36*
G01*
X63219800Y-136744200D02*
X63219800Y-138744200D01*
G75*
G02*
X62969800Y-138994200I-250000J0D01*
G01*
X59069800Y-138994200D01*
G75*
G02*
X58819800Y-138744200I0J250000D01*
G01*
X58819800Y-136744200D01*
G75*
G02*
X59069800Y-136494200I250000J0D01*
G01*
X62969800Y-136494200D01*
G75*
G02*
X63219800Y-136744200I0J-250000D01*
G01*
G37*
%TD*%
%TO.C,R10*%
G36*
G01*
X141057200Y-136921403D02*
X141057200Y-135671397D01*
G75*
G02*
X141307197Y-135421400I249997J0D01*
G01*
X141932203Y-135421400D01*
G75*
G02*
X142182200Y-135671397I0J-249997D01*
G01*
X142182200Y-136921403D01*
G75*
G02*
X141932203Y-137171400I-249997J0D01*
G01*
X141307197Y-137171400D01*
G75*
G02*
X141057200Y-136921403I0J249997D01*
G01*
G37*
G36*
G01*
X138132200Y-136921403D02*
X138132200Y-135671397D01*
G75*
G02*
X138382197Y-135421400I249997J0D01*
G01*
X139007203Y-135421400D01*
G75*
G02*
X139257200Y-135671397I0J-249997D01*
G01*
X139257200Y-136921403D01*
G75*
G02*
X139007203Y-137171400I-249997J0D01*
G01*
X138382197Y-137171400D01*
G75*
G02*
X138132200Y-136921403I0J249997D01*
G01*
G37*
%TD*%
%TO.C,U3*%
G36*
G01*
X140953600Y-146740400D02*
X141900800Y-146740400D01*
G75*
G02*
X142167200Y-147006800I0J-266400D01*
G01*
X142167200Y-148624000D01*
G75*
G02*
X141900800Y-148890400I-266400J0D01*
G01*
X140953600Y-148890400D01*
G75*
G02*
X140687200Y-148624000I0J266400D01*
G01*
X140687200Y-147006800D01*
G75*
G02*
X140953600Y-146740400I266400J0D01*
G01*
G37*
G36*
G01*
X138413600Y-146740400D02*
X139360800Y-146740400D01*
G75*
G02*
X139627200Y-147006800I0J-266400D01*
G01*
X139627200Y-148624000D01*
G75*
G02*
X139360800Y-148890400I-266400J0D01*
G01*
X138413600Y-148890400D01*
G75*
G02*
X138147200Y-148624000I0J266400D01*
G01*
X138147200Y-147006800D01*
G75*
G02*
X138413600Y-146740400I266400J0D01*
G01*
G37*
G36*
G01*
X138413600Y-138180400D02*
X139360800Y-138180400D01*
G75*
G02*
X139627200Y-138446800I0J-266400D01*
G01*
X139627200Y-140064000D01*
G75*
G02*
X139360800Y-140330400I-266400J0D01*
G01*
X138413600Y-140330400D01*
G75*
G02*
X138147200Y-140064000I0J266400D01*
G01*
X138147200Y-138446800D01*
G75*
G02*
X138413600Y-138180400I266400J0D01*
G01*
G37*
G36*
G01*
X140953600Y-138180400D02*
X141900800Y-138180400D01*
G75*
G02*
X142167200Y-138446800I0J-266400D01*
G01*
X142167200Y-140064000D01*
G75*
G02*
X141900800Y-140330400I-266400J0D01*
G01*
X140953600Y-140330400D01*
G75*
G02*
X140687200Y-140064000I0J266400D01*
G01*
X140687200Y-138446800D01*
G75*
G02*
X140953600Y-138180400I266400J0D01*
G01*
G37*
%TD*%
D14*
%TO.C,J22*%
X148522000Y-99362300D03*
X148522000Y-101902300D03*
X148522000Y-104442300D03*
X148522000Y-106982300D03*
X148522000Y-109522300D03*
X148522000Y-112062300D03*
X148522000Y-114602300D03*
D15*
X148522000Y-117142300D03*
%TD*%
D14*
%TO.C,J24*%
X171382000Y-99362300D03*
X171382000Y-101902300D03*
X171382000Y-104442300D03*
X171382000Y-106982300D03*
X171382000Y-109522300D03*
X171382000Y-112062300D03*
X171382000Y-114602300D03*
D15*
X171382000Y-117142300D03*
%TD*%
%TO.C,C14*%
G36*
G01*
X151798000Y-100780000D02*
X152748000Y-100780000D01*
G75*
G02*
X152998000Y-101030000I0J-250000D01*
G01*
X152998000Y-101530000D01*
G75*
G02*
X152748000Y-101780000I-250000J0D01*
G01*
X151798000Y-101780000D01*
G75*
G02*
X151548000Y-101530000I0J250000D01*
G01*
X151548000Y-101030000D01*
G75*
G02*
X151798000Y-100780000I250000J0D01*
G01*
G37*
G36*
G01*
X151798000Y-98880000D02*
X152748000Y-98880000D01*
G75*
G02*
X152998000Y-99130000I0J-250000D01*
G01*
X152998000Y-99630000D01*
G75*
G02*
X152748000Y-99880000I-250000J0D01*
G01*
X151798000Y-99880000D01*
G75*
G02*
X151548000Y-99630000I0J250000D01*
G01*
X151548000Y-99130000D01*
G75*
G02*
X151798000Y-98880000I250000J0D01*
G01*
G37*
%TD*%
%TO.C,U5*%
G36*
G01*
X125153733Y-137739600D02*
X124206533Y-137739600D01*
G75*
G02*
X123940133Y-137473200I0J266400D01*
G01*
X123940133Y-135856000D01*
G75*
G02*
X124206533Y-135589600I266400J0D01*
G01*
X125153733Y-135589600D01*
G75*
G02*
X125420133Y-135856000I0J-266400D01*
G01*
X125420133Y-137473200D01*
G75*
G02*
X125153733Y-137739600I-266400J0D01*
G01*
G37*
G36*
G01*
X127693733Y-137739600D02*
X126746533Y-137739600D01*
G75*
G02*
X126480133Y-137473200I0J266400D01*
G01*
X126480133Y-135856000D01*
G75*
G02*
X126746533Y-135589600I266400J0D01*
G01*
X127693733Y-135589600D01*
G75*
G02*
X127960133Y-135856000I0J-266400D01*
G01*
X127960133Y-137473200D01*
G75*
G02*
X127693733Y-137739600I-266400J0D01*
G01*
G37*
G36*
G01*
X127693733Y-146299600D02*
X126746533Y-146299600D01*
G75*
G02*
X126480133Y-146033200I0J266400D01*
G01*
X126480133Y-144416000D01*
G75*
G02*
X126746533Y-144149600I266400J0D01*
G01*
X127693733Y-144149600D01*
G75*
G02*
X127960133Y-144416000I0J-266400D01*
G01*
X127960133Y-146033200D01*
G75*
G02*
X127693733Y-146299600I-266400J0D01*
G01*
G37*
G36*
G01*
X125153733Y-146299600D02*
X124206533Y-146299600D01*
G75*
G02*
X123940133Y-146033200I0J266400D01*
G01*
X123940133Y-144416000D01*
G75*
G02*
X124206533Y-144149600I266400J0D01*
G01*
X125153733Y-144149600D01*
G75*
G02*
X125420133Y-144416000I0J-266400D01*
G01*
X125420133Y-146033200D01*
G75*
G02*
X125153733Y-146299600I-266400J0D01*
G01*
G37*
%TD*%
%TO.C,U6*%
G36*
G01*
X117872400Y-137739600D02*
X116925200Y-137739600D01*
G75*
G02*
X116658800Y-137473200I0J266400D01*
G01*
X116658800Y-135856000D01*
G75*
G02*
X116925200Y-135589600I266400J0D01*
G01*
X117872400Y-135589600D01*
G75*
G02*
X118138800Y-135856000I0J-266400D01*
G01*
X118138800Y-137473200D01*
G75*
G02*
X117872400Y-137739600I-266400J0D01*
G01*
G37*
G36*
G01*
X120412400Y-137739600D02*
X119465200Y-137739600D01*
G75*
G02*
X119198800Y-137473200I0J266400D01*
G01*
X119198800Y-135856000D01*
G75*
G02*
X119465200Y-135589600I266400J0D01*
G01*
X120412400Y-135589600D01*
G75*
G02*
X120678800Y-135856000I0J-266400D01*
G01*
X120678800Y-137473200D01*
G75*
G02*
X120412400Y-137739600I-266400J0D01*
G01*
G37*
G36*
G01*
X120412400Y-146299600D02*
X119465200Y-146299600D01*
G75*
G02*
X119198800Y-146033200I0J266400D01*
G01*
X119198800Y-144416000D01*
G75*
G02*
X119465200Y-144149600I266400J0D01*
G01*
X120412400Y-144149600D01*
G75*
G02*
X120678800Y-144416000I0J-266400D01*
G01*
X120678800Y-146033200D01*
G75*
G02*
X120412400Y-146299600I-266400J0D01*
G01*
G37*
G36*
G01*
X117872400Y-146299600D02*
X116925200Y-146299600D01*
G75*
G02*
X116658800Y-146033200I0J266400D01*
G01*
X116658800Y-144416000D01*
G75*
G02*
X116925200Y-144149600I266400J0D01*
G01*
X117872400Y-144149600D01*
G75*
G02*
X118138800Y-144416000I0J-266400D01*
G01*
X118138800Y-146033200D01*
G75*
G02*
X117872400Y-146299600I-266400J0D01*
G01*
G37*
%TD*%
%TO.C,J1*%
G36*
G01*
X104987001Y-99698800D02*
X103686999Y-99698800D01*
G75*
G02*
X103437000Y-99448801I0J249999D01*
G01*
X103437000Y-98748799D01*
G75*
G02*
X103686999Y-98498800I249999J0D01*
G01*
X104987001Y-98498800D01*
G75*
G02*
X105237000Y-98748799I0J-249999D01*
G01*
X105237000Y-99448801D01*
G75*
G02*
X104987001Y-99698800I-249999J0D01*
G01*
G37*
G36*
G01*
X104987001Y-105298800D02*
X103686999Y-105298800D01*
G75*
G02*
X103437000Y-105048801I0J249999D01*
G01*
X103437000Y-104348799D01*
G75*
G02*
X103686999Y-104098800I249999J0D01*
G01*
X104987001Y-104098800D01*
G75*
G02*
X105237000Y-104348799I0J-249999D01*
G01*
X105237000Y-105048801D01*
G75*
G02*
X104987001Y-105298800I-249999J0D01*
G01*
G37*
G36*
G01*
X107487000Y-100698800D02*
X106237000Y-100698800D01*
G75*
G02*
X106087000Y-100548800I0J150000D01*
G01*
X106087000Y-100248800D01*
G75*
G02*
X106237000Y-100098800I150000J0D01*
G01*
X107487000Y-100098800D01*
G75*
G02*
X107637000Y-100248800I0J-150000D01*
G01*
X107637000Y-100548800D01*
G75*
G02*
X107487000Y-100698800I-150000J0D01*
G01*
G37*
G36*
G01*
X107487000Y-101698800D02*
X106237000Y-101698800D01*
G75*
G02*
X106087000Y-101548800I0J150000D01*
G01*
X106087000Y-101248800D01*
G75*
G02*
X106237000Y-101098800I150000J0D01*
G01*
X107487000Y-101098800D01*
G75*
G02*
X107637000Y-101248800I0J-150000D01*
G01*
X107637000Y-101548800D01*
G75*
G02*
X107487000Y-101698800I-150000J0D01*
G01*
G37*
G36*
G01*
X107487000Y-102698800D02*
X106237000Y-102698800D01*
G75*
G02*
X106087000Y-102548800I0J150000D01*
G01*
X106087000Y-102248800D01*
G75*
G02*
X106237000Y-102098800I150000J0D01*
G01*
X107487000Y-102098800D01*
G75*
G02*
X107637000Y-102248800I0J-150000D01*
G01*
X107637000Y-102548800D01*
G75*
G02*
X107487000Y-102698800I-150000J0D01*
G01*
G37*
G36*
G01*
X107487000Y-103698800D02*
X106237000Y-103698800D01*
G75*
G02*
X106087000Y-103548800I0J150000D01*
G01*
X106087000Y-103248800D01*
G75*
G02*
X106237000Y-103098800I150000J0D01*
G01*
X107487000Y-103098800D01*
G75*
G02*
X107637000Y-103248800I0J-150000D01*
G01*
X107637000Y-103548800D01*
G75*
G02*
X107487000Y-103698800I-150000J0D01*
G01*
G37*
%TD*%
%TO.C,C13*%
G36*
G01*
X121013200Y-124132800D02*
X121963200Y-124132800D01*
G75*
G02*
X122213200Y-124382800I0J-250000D01*
G01*
X122213200Y-124882800D01*
G75*
G02*
X121963200Y-125132800I-250000J0D01*
G01*
X121013200Y-125132800D01*
G75*
G02*
X120763200Y-124882800I0J250000D01*
G01*
X120763200Y-124382800D01*
G75*
G02*
X121013200Y-124132800I250000J0D01*
G01*
G37*
G36*
G01*
X121013200Y-122232800D02*
X121963200Y-122232800D01*
G75*
G02*
X122213200Y-122482800I0J-250000D01*
G01*
X122213200Y-122982800D01*
G75*
G02*
X121963200Y-123232800I-250000J0D01*
G01*
X121013200Y-123232800D01*
G75*
G02*
X120763200Y-122982800I0J250000D01*
G01*
X120763200Y-122482800D01*
G75*
G02*
X121013200Y-122232800I250000J0D01*
G01*
G37*
%TD*%
D31*
%TO.C,J4*%
X98209100Y-93578700D03*
X98209100Y-91578700D03*
X98209100Y-89578700D03*
D32*
X98209100Y-87578700D03*
%TD*%
%TO.C,U4*%
G36*
G01*
X132435066Y-137739600D02*
X131487866Y-137739600D01*
G75*
G02*
X131221466Y-137473200I0J266400D01*
G01*
X131221466Y-135856000D01*
G75*
G02*
X131487866Y-135589600I266400J0D01*
G01*
X132435066Y-135589600D01*
G75*
G02*
X132701466Y-135856000I0J-266400D01*
G01*
X132701466Y-137473200D01*
G75*
G02*
X132435066Y-137739600I-266400J0D01*
G01*
G37*
G36*
G01*
X134975066Y-137739600D02*
X134027866Y-137739600D01*
G75*
G02*
X133761466Y-137473200I0J266400D01*
G01*
X133761466Y-135856000D01*
G75*
G02*
X134027866Y-135589600I266400J0D01*
G01*
X134975066Y-135589600D01*
G75*
G02*
X135241466Y-135856000I0J-266400D01*
G01*
X135241466Y-137473200D01*
G75*
G02*
X134975066Y-137739600I-266400J0D01*
G01*
G37*
G36*
G01*
X134975066Y-146299600D02*
X134027866Y-146299600D01*
G75*
G02*
X133761466Y-146033200I0J266400D01*
G01*
X133761466Y-144416000D01*
G75*
G02*
X134027866Y-144149600I266400J0D01*
G01*
X134975066Y-144149600D01*
G75*
G02*
X135241466Y-144416000I0J-266400D01*
G01*
X135241466Y-146033200D01*
G75*
G02*
X134975066Y-146299600I-266400J0D01*
G01*
G37*
G36*
G01*
X132435066Y-146299600D02*
X131487866Y-146299600D01*
G75*
G02*
X131221466Y-146033200I0J266400D01*
G01*
X131221466Y-144416000D01*
G75*
G02*
X131487866Y-144149600I266400J0D01*
G01*
X132435066Y-144149600D01*
G75*
G02*
X132701466Y-144416000I0J-266400D01*
G01*
X132701466Y-146033200D01*
G75*
G02*
X132435066Y-146299600I-266400J0D01*
G01*
G37*
%TD*%
D19*
%TO.C,Q1*%
X152892000Y-128778000D03*
X150892000Y-129728000D03*
X150892000Y-127828000D03*
%TD*%
D14*
%TO.C,J27*%
X170800000Y-84328000D03*
X170800000Y-81788000D03*
X170800000Y-79248000D03*
X170800000Y-76708000D03*
X170800000Y-74168000D03*
X170800000Y-71628000D03*
X170800000Y-69088000D03*
D15*
X170800000Y-66548000D03*
%TD*%
D14*
%TO.C,J26*%
X170800000Y-62488000D03*
X170800000Y-59948000D03*
X170800000Y-57408000D03*
X170800000Y-54868000D03*
X170800000Y-52328000D03*
X170800000Y-49788000D03*
X170800000Y-47248000D03*
X170800000Y-44708000D03*
X170800000Y-42168000D03*
D15*
X170800000Y-39628000D03*
%TD*%
D14*
%TO.C,J21*%
X122540000Y-84328000D03*
X122540000Y-81788000D03*
X122540000Y-79248000D03*
X122540000Y-76708000D03*
X122540000Y-74168000D03*
D15*
X122540000Y-71628000D03*
%TD*%
D14*
%TO.C,J20*%
X122540000Y-66548000D03*
X122540000Y-64008000D03*
X122540000Y-61468000D03*
X122540000Y-58928000D03*
X122540000Y-56388000D03*
X122540000Y-53848000D03*
X122540000Y-51308000D03*
D15*
X122540000Y-48768000D03*
%TD*%
%TO.C,J3*%
G36*
G01*
X97265401Y-99698800D02*
X95965399Y-99698800D01*
G75*
G02*
X95715400Y-99448801I0J249999D01*
G01*
X95715400Y-98748799D01*
G75*
G02*
X95965399Y-98498800I249999J0D01*
G01*
X97265401Y-98498800D01*
G75*
G02*
X97515400Y-98748799I0J-249999D01*
G01*
X97515400Y-99448801D01*
G75*
G02*
X97265401Y-99698800I-249999J0D01*
G01*
G37*
G36*
G01*
X97265401Y-105298800D02*
X95965399Y-105298800D01*
G75*
G02*
X95715400Y-105048801I0J249999D01*
G01*
X95715400Y-104348799D01*
G75*
G02*
X95965399Y-104098800I249999J0D01*
G01*
X97265401Y-104098800D01*
G75*
G02*
X97515400Y-104348799I0J-249999D01*
G01*
X97515400Y-105048801D01*
G75*
G02*
X97265401Y-105298800I-249999J0D01*
G01*
G37*
G36*
G01*
X99765400Y-100698800D02*
X98515400Y-100698800D01*
G75*
G02*
X98365400Y-100548800I0J150000D01*
G01*
X98365400Y-100248800D01*
G75*
G02*
X98515400Y-100098800I150000J0D01*
G01*
X99765400Y-100098800D01*
G75*
G02*
X99915400Y-100248800I0J-150000D01*
G01*
X99915400Y-100548800D01*
G75*
G02*
X99765400Y-100698800I-150000J0D01*
G01*
G37*
G36*
G01*
X99765400Y-101698800D02*
X98515400Y-101698800D01*
G75*
G02*
X98365400Y-101548800I0J150000D01*
G01*
X98365400Y-101248800D01*
G75*
G02*
X98515400Y-101098800I150000J0D01*
G01*
X99765400Y-101098800D01*
G75*
G02*
X99915400Y-101248800I0J-150000D01*
G01*
X99915400Y-101548800D01*
G75*
G02*
X99765400Y-101698800I-150000J0D01*
G01*
G37*
G36*
G01*
X99765400Y-102698800D02*
X98515400Y-102698800D01*
G75*
G02*
X98365400Y-102548800I0J150000D01*
G01*
X98365400Y-102248800D01*
G75*
G02*
X98515400Y-102098800I150000J0D01*
G01*
X99765400Y-102098800D01*
G75*
G02*
X99915400Y-102248800I0J-150000D01*
G01*
X99915400Y-102548800D01*
G75*
G02*
X99765400Y-102698800I-150000J0D01*
G01*
G37*
G36*
G01*
X99765400Y-103698800D02*
X98515400Y-103698800D01*
G75*
G02*
X98365400Y-103548800I0J150000D01*
G01*
X98365400Y-103248800D01*
G75*
G02*
X98515400Y-103098800I150000J0D01*
G01*
X99765400Y-103098800D01*
G75*
G02*
X99915400Y-103248800I0J-150000D01*
G01*
X99915400Y-103548800D01*
G75*
G02*
X99765400Y-103698800I-150000J0D01*
G01*
G37*
%TD*%
D14*
%TO.C,J14*%
X115224800Y-57505600D03*
X115224800Y-54965600D03*
X115224800Y-52425600D03*
X115224800Y-49885600D03*
X115224800Y-47345600D03*
X115224800Y-44805600D03*
X115224800Y-42265600D03*
X115224800Y-39725600D03*
X115224800Y-37185600D03*
X115224800Y-34645600D03*
X115224800Y-32105600D03*
X115224800Y-29565600D03*
X115224800Y-27025600D03*
X115224800Y-24485600D03*
D15*
X115224800Y-21945600D03*
%TD*%
D43*
%TO.C,J10*%
X108786400Y-36915600D03*
X108786400Y-34915600D03*
X110786400Y-36915600D03*
X110786400Y-34915600D03*
X112786400Y-36915600D03*
D44*
X112786400Y-34915600D03*
%TD*%
D14*
%TO.C,J13*%
X99984800Y-80365600D03*
X99984800Y-77825600D03*
X99984800Y-75285600D03*
X99984800Y-72745600D03*
X99984800Y-70205600D03*
X99984800Y-67665600D03*
X99984800Y-65125600D03*
D15*
X99984800Y-62585600D03*
%TD*%
D14*
%TO.C,J12*%
X99984800Y-57505600D03*
X99984800Y-54965600D03*
X99984800Y-52425600D03*
X99984800Y-49885600D03*
X99984800Y-47345600D03*
X99984800Y-44805600D03*
X99984800Y-42265600D03*
X99984800Y-39725600D03*
X99984800Y-37185600D03*
X99984800Y-34645600D03*
X99984800Y-32105600D03*
X99984800Y-29565600D03*
X99984800Y-27025600D03*
X99984800Y-24485600D03*
D15*
X99984800Y-21945600D03*
%TD*%
%TO.C,J18*%
G36*
G01*
X92541001Y-77175000D02*
X91240999Y-77175000D01*
G75*
G02*
X90991000Y-76925001I0J249999D01*
G01*
X90991000Y-76224999D01*
G75*
G02*
X91240999Y-75975000I249999J0D01*
G01*
X92541001Y-75975000D01*
G75*
G02*
X92791000Y-76224999I0J-249999D01*
G01*
X92791000Y-76925001D01*
G75*
G02*
X92541001Y-77175000I-249999J0D01*
G01*
G37*
G36*
G01*
X92541001Y-82775000D02*
X91240999Y-82775000D01*
G75*
G02*
X90991000Y-82525001I0J249999D01*
G01*
X90991000Y-81824999D01*
G75*
G02*
X91240999Y-81575000I249999J0D01*
G01*
X92541001Y-81575000D01*
G75*
G02*
X92791000Y-81824999I0J-249999D01*
G01*
X92791000Y-82525001D01*
G75*
G02*
X92541001Y-82775000I-249999J0D01*
G01*
G37*
G36*
G01*
X95041000Y-78175000D02*
X93791000Y-78175000D01*
G75*
G02*
X93641000Y-78025000I0J150000D01*
G01*
X93641000Y-77725000D01*
G75*
G02*
X93791000Y-77575000I150000J0D01*
G01*
X95041000Y-77575000D01*
G75*
G02*
X95191000Y-77725000I0J-150000D01*
G01*
X95191000Y-78025000D01*
G75*
G02*
X95041000Y-78175000I-150000J0D01*
G01*
G37*
G36*
G01*
X95041000Y-79175000D02*
X93791000Y-79175000D01*
G75*
G02*
X93641000Y-79025000I0J150000D01*
G01*
X93641000Y-78725000D01*
G75*
G02*
X93791000Y-78575000I150000J0D01*
G01*
X95041000Y-78575000D01*
G75*
G02*
X95191000Y-78725000I0J-150000D01*
G01*
X95191000Y-79025000D01*
G75*
G02*
X95041000Y-79175000I-150000J0D01*
G01*
G37*
G36*
G01*
X95041000Y-80175000D02*
X93791000Y-80175000D01*
G75*
G02*
X93641000Y-80025000I0J150000D01*
G01*
X93641000Y-79725000D01*
G75*
G02*
X93791000Y-79575000I150000J0D01*
G01*
X95041000Y-79575000D01*
G75*
G02*
X95191000Y-79725000I0J-150000D01*
G01*
X95191000Y-80025000D01*
G75*
G02*
X95041000Y-80175000I-150000J0D01*
G01*
G37*
G36*
G01*
X95041000Y-81175000D02*
X93791000Y-81175000D01*
G75*
G02*
X93641000Y-81025000I0J150000D01*
G01*
X93641000Y-80725000D01*
G75*
G02*
X93791000Y-80575000I150000J0D01*
G01*
X95041000Y-80575000D01*
G75*
G02*
X95191000Y-80725000I0J-150000D01*
G01*
X95191000Y-81025000D01*
G75*
G02*
X95041000Y-81175000I-150000J0D01*
G01*
G37*
%TD*%
%TO.C,J19*%
G36*
G01*
X92541001Y-64094000D02*
X91240999Y-64094000D01*
G75*
G02*
X90991000Y-63844001I0J249999D01*
G01*
X90991000Y-63143999D01*
G75*
G02*
X91240999Y-62894000I249999J0D01*
G01*
X92541001Y-62894000D01*
G75*
G02*
X92791000Y-63143999I0J-249999D01*
G01*
X92791000Y-63844001D01*
G75*
G02*
X92541001Y-64094000I-249999J0D01*
G01*
G37*
G36*
G01*
X92541001Y-69694000D02*
X91240999Y-69694000D01*
G75*
G02*
X90991000Y-69444001I0J249999D01*
G01*
X90991000Y-68743999D01*
G75*
G02*
X91240999Y-68494000I249999J0D01*
G01*
X92541001Y-68494000D01*
G75*
G02*
X92791000Y-68743999I0J-249999D01*
G01*
X92791000Y-69444001D01*
G75*
G02*
X92541001Y-69694000I-249999J0D01*
G01*
G37*
G36*
G01*
X95041000Y-65094000D02*
X93791000Y-65094000D01*
G75*
G02*
X93641000Y-64944000I0J150000D01*
G01*
X93641000Y-64644000D01*
G75*
G02*
X93791000Y-64494000I150000J0D01*
G01*
X95041000Y-64494000D01*
G75*
G02*
X95191000Y-64644000I0J-150000D01*
G01*
X95191000Y-64944000D01*
G75*
G02*
X95041000Y-65094000I-150000J0D01*
G01*
G37*
G36*
G01*
X95041000Y-66094000D02*
X93791000Y-66094000D01*
G75*
G02*
X93641000Y-65944000I0J150000D01*
G01*
X93641000Y-65644000D01*
G75*
G02*
X93791000Y-65494000I150000J0D01*
G01*
X95041000Y-65494000D01*
G75*
G02*
X95191000Y-65644000I0J-150000D01*
G01*
X95191000Y-65944000D01*
G75*
G02*
X95041000Y-66094000I-150000J0D01*
G01*
G37*
G36*
G01*
X95041000Y-67094000D02*
X93791000Y-67094000D01*
G75*
G02*
X93641000Y-66944000I0J150000D01*
G01*
X93641000Y-66644000D01*
G75*
G02*
X93791000Y-66494000I150000J0D01*
G01*
X95041000Y-66494000D01*
G75*
G02*
X95191000Y-66644000I0J-150000D01*
G01*
X95191000Y-66944000D01*
G75*
G02*
X95041000Y-67094000I-150000J0D01*
G01*
G37*
G36*
G01*
X95041000Y-68094000D02*
X93791000Y-68094000D01*
G75*
G02*
X93641000Y-67944000I0J150000D01*
G01*
X93641000Y-67644000D01*
G75*
G02*
X93791000Y-67494000I150000J0D01*
G01*
X95041000Y-67494000D01*
G75*
G02*
X95191000Y-67644000I0J-150000D01*
G01*
X95191000Y-67944000D01*
G75*
G02*
X95041000Y-68094000I-150000J0D01*
G01*
G37*
%TD*%
D14*
%TO.C,J25*%
X97025460Y-132133100D03*
X99565460Y-132133100D03*
X102105460Y-132133100D03*
X104645460Y-132133100D03*
X107185460Y-132133100D03*
X109725460Y-132133100D03*
X112265460Y-132133100D03*
D15*
X114805460Y-132133100D03*
%TD*%
%TO.C,C7*%
G36*
G01*
X42857000Y-113520200D02*
X42857000Y-114470200D01*
G75*
G02*
X42607000Y-114720200I-250000J0D01*
G01*
X42107000Y-114720200D01*
G75*
G02*
X41857000Y-114470200I0J250000D01*
G01*
X41857000Y-113520200D01*
G75*
G02*
X42107000Y-113270200I250000J0D01*
G01*
X42607000Y-113270200D01*
G75*
G02*
X42857000Y-113520200I0J-250000D01*
G01*
G37*
G36*
G01*
X44757000Y-113520200D02*
X44757000Y-114470200D01*
G75*
G02*
X44507000Y-114720200I-250000J0D01*
G01*
X44007000Y-114720200D01*
G75*
G02*
X43757000Y-114470200I0J250000D01*
G01*
X43757000Y-113520200D01*
G75*
G02*
X44007000Y-113270200I250000J0D01*
G01*
X44507000Y-113270200D01*
G75*
G02*
X44757000Y-113520200I0J-250000D01*
G01*
G37*
%TD*%
M02*
