%TF.GenerationSoftware,KiCad,Pcbnew,(5.1.10)-1*%
%TF.CreationDate,2022-08-04T08:13:07-06:00*%
%TF.ProjectId,AS14,41533134-2e6b-4696-9361-645f70636258,rev?*%
%TF.SameCoordinates,Original*%
%TF.FileFunction,Soldermask,Bot*%
%TF.FilePolarity,Negative*%
%FSLAX46Y46*%
G04 Gerber Fmt 4.6, Leading zero omitted, Abs format (unit mm)*
G04 Created by KiCad (PCBNEW (5.1.10)-1) date 2022-08-04 08:13:07*
%MOMM*%
%LPD*%
G01*
G04 APERTURE LIST*
%ADD10C,3.300000*%
%ADD11C,4.485000*%
%ADD12C,2.715000*%
%ADD13R,2.715000X2.715000*%
%ADD14O,1.700000X1.700000*%
%ADD15R,1.700000X1.700000*%
%ADD16C,1.600000*%
%ADD17R,1.600000X1.500000*%
%ADD18C,3.000000*%
%ADD19C,2.999999*%
%ADD20C,3.200000*%
%ADD21C,2.600000*%
%ADD22R,2.600000X2.600000*%
%ADD23O,2.500000X2.500000*%
%ADD24R,2.500000X2.500000*%
%ADD25C,1.308000*%
%ADD26R,1.308000X1.308000*%
%ADD27C,2.445000*%
%ADD28C,1.530000*%
%ADD29C,1.446000*%
%ADD30R,2.250000X2.250000*%
%ADD31C,2.250000*%
%ADD32O,1.350000X1.350000*%
%ADD33R,1.350000X1.350000*%
G04 APERTURE END LIST*
D10*
%TO.C,REF\u002A\u002A*%
X128540000Y-60833000D03*
X128540000Y-22733000D03*
X166640000Y-22733000D03*
X166640000Y-60833000D03*
%TD*%
D11*
%TO.C,J28*%
X135655000Y-157992000D03*
X118115000Y-169422000D03*
X100575000Y-157992000D03*
D12*
X107000000Y-163322000D03*
X111445000Y-163322000D03*
X115890000Y-163322000D03*
X120340000Y-163322000D03*
X124785000Y-163322000D03*
X129230000Y-163322000D03*
X129230000Y-156972000D03*
X124785000Y-156972000D03*
X120340000Y-156972000D03*
X115890000Y-156972000D03*
X111445000Y-156972000D03*
D13*
X107000000Y-156972000D03*
%TD*%
D14*
%TO.C,J6*%
X103035600Y-38404800D03*
X103035600Y-35864800D03*
X103035600Y-33324800D03*
X103035600Y-30784800D03*
D15*
X103035600Y-28244800D03*
%TD*%
D16*
%TO.C,J5*%
X74051400Y-29260800D03*
X76551400Y-29260800D03*
X78551400Y-29260800D03*
D17*
X81051400Y-29260800D03*
D18*
X70981400Y-26550800D03*
X84121400Y-26550800D03*
%TD*%
D11*
%TO.C,J7*%
X73655000Y-157992000D03*
X56115000Y-169422000D03*
X38575000Y-157992000D03*
D12*
X45000000Y-163322000D03*
X49445000Y-163322000D03*
X53890000Y-163322000D03*
X58340000Y-163322000D03*
X62785000Y-163322000D03*
X67230000Y-163322000D03*
X67230000Y-156972000D03*
X62785000Y-156972000D03*
X58340000Y-156972000D03*
X53890000Y-156972000D03*
X49445000Y-156972000D03*
D13*
X45000000Y-156972000D03*
%TD*%
D14*
%TO.C,J16*%
X143027400Y-119278400D03*
X140487400Y-119278400D03*
D15*
X137947400Y-119278400D03*
%TD*%
D14*
%TO.C,J17*%
X143027400Y-128498600D03*
X140487400Y-128498600D03*
D15*
X137947400Y-128498600D03*
%TD*%
D18*
%TO.C,M1*%
X141127600Y-108726000D03*
X127127600Y-97226000D03*
%TD*%
D19*
%TO.C,REF\u002A\u002A*%
X124256800Y-92684600D03*
X142036800Y-92684600D03*
X142036800Y-113004600D03*
X124256800Y-113004600D03*
%TD*%
D18*
%TO.C,REF\u002A\u002A*%
X93245000Y-130837000D03*
X118645000Y-130837000D03*
%TD*%
%TO.C, *%
X175641000Y-175641000D03*
%TD*%
%TO.C, *%
X175641000Y-99504500D03*
%TD*%
%TO.C, *%
X175641000Y-23368000D03*
%TD*%
%TO.C, *%
X23368000Y-175641000D03*
%TD*%
%TO.C, *%
X23368000Y-99504500D03*
%TD*%
%TO.C, *%
X23368000Y-23368000D03*
%TD*%
D20*
%TO.C,REF\u002A\u002A*%
X58746000Y-43266000D03*
X58746000Y-99266000D03*
X30746000Y-99266000D03*
X30746000Y-43266000D03*
X86626000Y-43266000D03*
X86626000Y-122006000D03*
X30746000Y-122006000D03*
%TD*%
D14*
%TO.C,J11*%
X170383200Y-153187400D03*
X170383200Y-155727400D03*
X170383200Y-158267400D03*
X170383200Y-160807400D03*
X170383200Y-163347400D03*
X170383200Y-165887400D03*
X170383200Y-168427400D03*
X170383200Y-170967400D03*
X170383200Y-173507400D03*
D15*
X170383200Y-176047400D03*
%TD*%
D14*
%TO.C,J23*%
X97025460Y-109273100D03*
X99565460Y-109273100D03*
X102105460Y-109273100D03*
X104645460Y-109273100D03*
X107185460Y-109273100D03*
X109725460Y-109273100D03*
X112265460Y-109273100D03*
D15*
X114805460Y-109273100D03*
%TD*%
D21*
%TO.C,KF2*%
X108038900Y-143178400D03*
X108038900Y-150798400D03*
X102958900Y-143178400D03*
X102958900Y-150798400D03*
X97878900Y-143178400D03*
X97878900Y-150798400D03*
X92798900Y-143178400D03*
X92798900Y-150798400D03*
X87718900Y-143178400D03*
X87718900Y-150798400D03*
D22*
X82638900Y-143178400D03*
X82638900Y-150798400D03*
%TD*%
D21*
%TO.C,KF1*%
X44373800Y-142949800D03*
X44373800Y-150569800D03*
X39293800Y-142949800D03*
X39293800Y-150569800D03*
X34213800Y-142949800D03*
X34213800Y-150569800D03*
D22*
X29133800Y-142949800D03*
X29133800Y-150569800D03*
%TD*%
D23*
%TO.C,K1*%
X169753800Y-131336800D03*
X169753800Y-143536800D03*
X157753800Y-143536800D03*
X157753800Y-131336800D03*
D24*
X163753800Y-129336800D03*
%TD*%
D25*
%TO.C,J2*%
X106299000Y-93678000D03*
X106299000Y-91678000D03*
X106299000Y-89678000D03*
D26*
X106299000Y-87678000D03*
%TD*%
D15*
%TO.C,J8*%
X41249600Y-131572000D03*
D14*
X41249600Y-134112000D03*
X43789600Y-131572000D03*
X43789600Y-134112000D03*
%TD*%
D27*
%TO.C,J9*%
X40464200Y-29288200D03*
X55954200Y-29288200D03*
D28*
X41584200Y-21338200D03*
X44124200Y-21338200D03*
X52294200Y-21338200D03*
X54834200Y-21338200D03*
D29*
X43764200Y-35128200D03*
X45034200Y-32588200D03*
X46304200Y-35128200D03*
X47574200Y-32588200D03*
X48844200Y-35128200D03*
X50114200Y-32588200D03*
X51384200Y-35128200D03*
X52654200Y-32588200D03*
%TD*%
D30*
%TO.C,D5*%
X51943000Y-147320000D03*
D31*
X74543000Y-147320000D03*
%TD*%
D14*
%TO.C,J15*%
X115224800Y-80365600D03*
X115224800Y-77825600D03*
X115224800Y-75285600D03*
X115224800Y-72745600D03*
X115224800Y-70205600D03*
X115224800Y-67665600D03*
X115224800Y-65125600D03*
D15*
X115224800Y-62585600D03*
%TD*%
D14*
%TO.C,J22*%
X148522000Y-99362300D03*
X148522000Y-101902300D03*
X148522000Y-104442300D03*
X148522000Y-106982300D03*
X148522000Y-109522300D03*
X148522000Y-112062300D03*
X148522000Y-114602300D03*
D15*
X148522000Y-117142300D03*
%TD*%
D14*
%TO.C,J24*%
X171382000Y-99362300D03*
X171382000Y-101902300D03*
X171382000Y-104442300D03*
X171382000Y-106982300D03*
X171382000Y-109522300D03*
X171382000Y-112062300D03*
X171382000Y-114602300D03*
D15*
X171382000Y-117142300D03*
%TD*%
D25*
%TO.C,J4*%
X98209100Y-93578700D03*
X98209100Y-91578700D03*
X98209100Y-89578700D03*
D26*
X98209100Y-87578700D03*
%TD*%
D14*
%TO.C,J27*%
X170800000Y-84328000D03*
X170800000Y-81788000D03*
X170800000Y-79248000D03*
X170800000Y-76708000D03*
X170800000Y-74168000D03*
X170800000Y-71628000D03*
X170800000Y-69088000D03*
D15*
X170800000Y-66548000D03*
%TD*%
D14*
%TO.C,J26*%
X170800000Y-62488000D03*
X170800000Y-59948000D03*
X170800000Y-57408000D03*
X170800000Y-54868000D03*
X170800000Y-52328000D03*
X170800000Y-49788000D03*
X170800000Y-47248000D03*
X170800000Y-44708000D03*
X170800000Y-42168000D03*
D15*
X170800000Y-39628000D03*
%TD*%
D14*
%TO.C,J21*%
X122540000Y-84328000D03*
X122540000Y-81788000D03*
X122540000Y-79248000D03*
X122540000Y-76708000D03*
X122540000Y-74168000D03*
D15*
X122540000Y-71628000D03*
%TD*%
D14*
%TO.C,J20*%
X122540000Y-66548000D03*
X122540000Y-64008000D03*
X122540000Y-61468000D03*
X122540000Y-58928000D03*
X122540000Y-56388000D03*
X122540000Y-53848000D03*
X122540000Y-51308000D03*
D15*
X122540000Y-48768000D03*
%TD*%
D14*
%TO.C,J14*%
X115224800Y-57505600D03*
X115224800Y-54965600D03*
X115224800Y-52425600D03*
X115224800Y-49885600D03*
X115224800Y-47345600D03*
X115224800Y-44805600D03*
X115224800Y-42265600D03*
X115224800Y-39725600D03*
X115224800Y-37185600D03*
X115224800Y-34645600D03*
X115224800Y-32105600D03*
X115224800Y-29565600D03*
X115224800Y-27025600D03*
X115224800Y-24485600D03*
D15*
X115224800Y-21945600D03*
%TD*%
D32*
%TO.C,J10*%
X108786400Y-36915600D03*
X108786400Y-34915600D03*
X110786400Y-36915600D03*
X110786400Y-34915600D03*
X112786400Y-36915600D03*
D33*
X112786400Y-34915600D03*
%TD*%
D14*
%TO.C,J13*%
X99984800Y-80365600D03*
X99984800Y-77825600D03*
X99984800Y-75285600D03*
X99984800Y-72745600D03*
X99984800Y-70205600D03*
X99984800Y-67665600D03*
X99984800Y-65125600D03*
D15*
X99984800Y-62585600D03*
%TD*%
D14*
%TO.C,J12*%
X99984800Y-57505600D03*
X99984800Y-54965600D03*
X99984800Y-52425600D03*
X99984800Y-49885600D03*
X99984800Y-47345600D03*
X99984800Y-44805600D03*
X99984800Y-42265600D03*
X99984800Y-39725600D03*
X99984800Y-37185600D03*
X99984800Y-34645600D03*
X99984800Y-32105600D03*
X99984800Y-29565600D03*
X99984800Y-27025600D03*
X99984800Y-24485600D03*
D15*
X99984800Y-21945600D03*
%TD*%
D14*
%TO.C,J25*%
X97025460Y-132133100D03*
X99565460Y-132133100D03*
X102105460Y-132133100D03*
X104645460Y-132133100D03*
X107185460Y-132133100D03*
X109725460Y-132133100D03*
X112265460Y-132133100D03*
D15*
X114805460Y-132133100D03*
%TD*%
M02*
