%TF.GenerationSoftware,KiCad,Pcbnew,(5.1.9)-1*%
%TF.CreationDate,2021-11-25T16:44:50-06:00*%
%TF.ProjectId,RC8,5243382e-6b69-4636-9164-5f7063625858,rev?*%
%TF.SameCoordinates,Original*%
%TF.FileFunction,Legend,Top*%
%TF.FilePolarity,Positive*%
%FSLAX46Y46*%
G04 Gerber Fmt 4.6, Leading zero omitted, Abs format (unit mm)*
G04 Created by KiCad (PCBNEW (5.1.9)-1) date 2021-11-25 16:44:50*
%MOMM*%
%LPD*%
G01*
G04 APERTURE LIST*
%ADD10C,0.150000*%
%ADD11C,0.120000*%
%ADD12C,0.100000*%
%ADD13C,0.152400*%
%ADD14C,0.127000*%
G04 APERTURE END LIST*
D10*
X94168055Y-60932940D02*
X94072817Y-60885320D01*
X93929960Y-60885320D01*
X93787102Y-60932940D01*
X93691864Y-61028178D01*
X93644245Y-61123416D01*
X93596626Y-61313892D01*
X93596626Y-61456749D01*
X93644245Y-61647225D01*
X93691864Y-61742463D01*
X93787102Y-61837701D01*
X93929960Y-61885320D01*
X94025198Y-61885320D01*
X94168055Y-61837701D01*
X94215674Y-61790082D01*
X94215674Y-61456749D01*
X94025198Y-61456749D01*
X94644245Y-61885320D02*
X94644245Y-60885320D01*
X95215674Y-61885320D01*
X95215674Y-60885320D01*
X95691864Y-61885320D02*
X95691864Y-60885320D01*
X95929960Y-60885320D01*
X96072817Y-60932940D01*
X96168055Y-61028178D01*
X96215674Y-61123416D01*
X96263293Y-61313892D01*
X96263293Y-61456749D01*
X96215674Y-61647225D01*
X96168055Y-61742463D01*
X96072817Y-61837701D01*
X95929960Y-61885320D01*
X95691864Y-61885320D01*
X64519252Y-51658780D02*
X63947823Y-51658780D01*
X64233538Y-51658780D02*
X64233538Y-50658780D01*
X64138300Y-50801638D01*
X64043061Y-50896876D01*
X63947823Y-50944495D01*
X64900204Y-50754019D02*
X64947823Y-50706400D01*
X65043061Y-50658780D01*
X65281157Y-50658780D01*
X65376395Y-50706400D01*
X65424014Y-50754019D01*
X65471633Y-50849257D01*
X65471633Y-50944495D01*
X65424014Y-51087352D01*
X64852585Y-51658780D01*
X65471633Y-51658780D01*
X65757347Y-50658780D02*
X66090680Y-51658780D01*
X66424014Y-50658780D01*
X69103335Y-50706400D02*
X69008097Y-50658780D01*
X68865240Y-50658780D01*
X68722382Y-50706400D01*
X68627144Y-50801638D01*
X68579525Y-50896876D01*
X68531906Y-51087352D01*
X68531906Y-51230209D01*
X68579525Y-51420685D01*
X68627144Y-51515923D01*
X68722382Y-51611161D01*
X68865240Y-51658780D01*
X68960478Y-51658780D01*
X69103335Y-51611161D01*
X69150954Y-51563542D01*
X69150954Y-51230209D01*
X68960478Y-51230209D01*
X69579525Y-51658780D02*
X69579525Y-50658780D01*
X70150954Y-51658780D01*
X70150954Y-50658780D01*
X70627144Y-51658780D02*
X70627144Y-50658780D01*
X70865240Y-50658780D01*
X71008097Y-50706400D01*
X71103335Y-50801638D01*
X71150954Y-50896876D01*
X71198573Y-51087352D01*
X71198573Y-51230209D01*
X71150954Y-51420685D01*
X71103335Y-51515923D01*
X71008097Y-51611161D01*
X70865240Y-51658780D01*
X70627144Y-51658780D01*
X74254455Y-50706400D02*
X74159217Y-50658780D01*
X74016360Y-50658780D01*
X73873502Y-50706400D01*
X73778264Y-50801638D01*
X73730645Y-50896876D01*
X73683026Y-51087352D01*
X73683026Y-51230209D01*
X73730645Y-51420685D01*
X73778264Y-51515923D01*
X73873502Y-51611161D01*
X74016360Y-51658780D01*
X74111598Y-51658780D01*
X74254455Y-51611161D01*
X74302074Y-51563542D01*
X74302074Y-51230209D01*
X74111598Y-51230209D01*
X74730645Y-51658780D02*
X74730645Y-50658780D01*
X75302074Y-51658780D01*
X75302074Y-50658780D01*
X75778264Y-51658780D02*
X75778264Y-50658780D01*
X76016360Y-50658780D01*
X76159217Y-50706400D01*
X76254455Y-50801638D01*
X76302074Y-50896876D01*
X76349693Y-51087352D01*
X76349693Y-51230209D01*
X76302074Y-51420685D01*
X76254455Y-51515923D01*
X76159217Y-51611161D01*
X76016360Y-51658780D01*
X75778264Y-51658780D01*
X79174435Y-50706400D02*
X79079197Y-50658780D01*
X78936340Y-50658780D01*
X78793482Y-50706400D01*
X78698244Y-50801638D01*
X78650625Y-50896876D01*
X78603006Y-51087352D01*
X78603006Y-51230209D01*
X78650625Y-51420685D01*
X78698244Y-51515923D01*
X78793482Y-51611161D01*
X78936340Y-51658780D01*
X79031578Y-51658780D01*
X79174435Y-51611161D01*
X79222054Y-51563542D01*
X79222054Y-51230209D01*
X79031578Y-51230209D01*
X79650625Y-51658780D02*
X79650625Y-50658780D01*
X80222054Y-51658780D01*
X80222054Y-50658780D01*
X80698244Y-51658780D02*
X80698244Y-50658780D01*
X80936340Y-50658780D01*
X81079197Y-50706400D01*
X81174435Y-50801638D01*
X81222054Y-50896876D01*
X81269673Y-51087352D01*
X81269673Y-51230209D01*
X81222054Y-51420685D01*
X81174435Y-51515923D01*
X81079197Y-51611161D01*
X80936340Y-51658780D01*
X80698244Y-51658780D01*
X83954715Y-50706400D02*
X83859477Y-50658780D01*
X83716620Y-50658780D01*
X83573762Y-50706400D01*
X83478524Y-50801638D01*
X83430905Y-50896876D01*
X83383286Y-51087352D01*
X83383286Y-51230209D01*
X83430905Y-51420685D01*
X83478524Y-51515923D01*
X83573762Y-51611161D01*
X83716620Y-51658780D01*
X83811858Y-51658780D01*
X83954715Y-51611161D01*
X84002334Y-51563542D01*
X84002334Y-51230209D01*
X83811858Y-51230209D01*
X84430905Y-51658780D02*
X84430905Y-50658780D01*
X85002334Y-51658780D01*
X85002334Y-50658780D01*
X85478524Y-51658780D02*
X85478524Y-50658780D01*
X85716620Y-50658780D01*
X85859477Y-50706400D01*
X85954715Y-50801638D01*
X86002334Y-50896876D01*
X86049953Y-51087352D01*
X86049953Y-51230209D01*
X86002334Y-51420685D01*
X85954715Y-51515923D01*
X85859477Y-51611161D01*
X85716620Y-51658780D01*
X85478524Y-51658780D01*
X99992203Y-50658780D02*
X99516013Y-50658780D01*
X99468394Y-51134971D01*
X99516013Y-51087352D01*
X99611251Y-51039733D01*
X99849346Y-51039733D01*
X99944584Y-51087352D01*
X99992203Y-51134971D01*
X100039822Y-51230209D01*
X100039822Y-51468304D01*
X99992203Y-51563542D01*
X99944584Y-51611161D01*
X99849346Y-51658780D01*
X99611251Y-51658780D01*
X99516013Y-51611161D01*
X99468394Y-51563542D01*
X100325537Y-50658780D02*
X100658870Y-51658780D01*
X100992203Y-50658780D01*
X94874103Y-50658780D02*
X94397913Y-50658780D01*
X94350294Y-51134971D01*
X94397913Y-51087352D01*
X94493151Y-51039733D01*
X94731246Y-51039733D01*
X94826484Y-51087352D01*
X94874103Y-51134971D01*
X94921722Y-51230209D01*
X94921722Y-51468304D01*
X94874103Y-51563542D01*
X94826484Y-51611161D01*
X94731246Y-51658780D01*
X94493151Y-51658780D01*
X94397913Y-51611161D01*
X94350294Y-51563542D01*
X95207437Y-50658780D02*
X95540770Y-51658780D01*
X95874103Y-50658780D01*
X90002383Y-50658780D02*
X89526193Y-50658780D01*
X89478574Y-51134971D01*
X89526193Y-51087352D01*
X89621431Y-51039733D01*
X89859526Y-51039733D01*
X89954764Y-51087352D01*
X90002383Y-51134971D01*
X90050002Y-51230209D01*
X90050002Y-51468304D01*
X90002383Y-51563542D01*
X89954764Y-51611161D01*
X89859526Y-51658780D01*
X89621431Y-51658780D01*
X89526193Y-51611161D01*
X89478574Y-51563542D01*
X90335717Y-50658780D02*
X90669050Y-51658780D01*
X91002383Y-50658780D01*
X95751567Y-55019700D02*
X95751567Y-54019700D01*
X96132520Y-54019700D01*
X96227758Y-54067320D01*
X96275377Y-54114939D01*
X96322996Y-54210177D01*
X96322996Y-54353034D01*
X96275377Y-54448272D01*
X96227758Y-54495891D01*
X96132520Y-54543510D01*
X95751567Y-54543510D01*
X96656329Y-54019700D02*
X96894424Y-55019700D01*
X97084900Y-54305415D01*
X97275377Y-55019700D01*
X97513472Y-54019700D01*
X97894424Y-55019700D02*
X97894424Y-54019700D01*
X98227758Y-54733986D01*
X98561091Y-54019700D01*
X98561091Y-55019700D01*
X98989662Y-54114939D02*
X99037281Y-54067320D01*
X99132520Y-54019700D01*
X99370615Y-54019700D01*
X99465853Y-54067320D01*
X99513472Y-54114939D01*
X99561091Y-54210177D01*
X99561091Y-54305415D01*
X99513472Y-54448272D01*
X98942043Y-55019700D01*
X99561091Y-55019700D01*
X96894424Y-56669700D02*
X96894424Y-55669700D01*
X97132520Y-55669700D01*
X97275377Y-55717320D01*
X97370615Y-55812558D01*
X97418234Y-55907796D01*
X97465853Y-56098272D01*
X97465853Y-56241129D01*
X97418234Y-56431605D01*
X97370615Y-56526843D01*
X97275377Y-56622081D01*
X97132520Y-56669700D01*
X96894424Y-56669700D01*
X97942043Y-56669700D02*
X98132520Y-56669700D01*
X98227758Y-56622081D01*
X98275377Y-56574462D01*
X98370615Y-56431605D01*
X98418234Y-56241129D01*
X98418234Y-55860177D01*
X98370615Y-55764939D01*
X98322996Y-55717320D01*
X98227758Y-55669700D01*
X98037281Y-55669700D01*
X97942043Y-55717320D01*
X97894424Y-55764939D01*
X97846805Y-55860177D01*
X97846805Y-56098272D01*
X97894424Y-56193510D01*
X97942043Y-56241129D01*
X98037281Y-56288748D01*
X98227758Y-56288748D01*
X98322996Y-56241129D01*
X98370615Y-56193510D01*
X98418234Y-56098272D01*
X98825845Y-61885320D02*
X98825845Y-60885320D01*
X99063940Y-60885320D01*
X99206798Y-60932940D01*
X99302036Y-61028178D01*
X99349655Y-61123416D01*
X99397274Y-61313892D01*
X99397274Y-61456749D01*
X99349655Y-61647225D01*
X99302036Y-61742463D01*
X99206798Y-61837701D01*
X99063940Y-61885320D01*
X98825845Y-61885320D01*
X99825845Y-61885320D02*
X99825845Y-61218654D01*
X99825845Y-60885320D02*
X99778226Y-60932940D01*
X99825845Y-60980559D01*
X99873464Y-60932940D01*
X99825845Y-60885320D01*
X99825845Y-60980559D01*
X100302036Y-61885320D02*
X100302036Y-61218654D01*
X100302036Y-61409130D02*
X100349655Y-61313892D01*
X100397274Y-61266273D01*
X100492512Y-61218654D01*
X100587750Y-61218654D01*
X100873464Y-60980559D02*
X100921083Y-60932940D01*
X101016321Y-60885320D01*
X101254417Y-60885320D01*
X101349655Y-60932940D01*
X101397274Y-60980559D01*
X101444893Y-61075797D01*
X101444893Y-61171035D01*
X101397274Y-61313892D01*
X100825845Y-61885320D01*
X101444893Y-61885320D01*
X99373464Y-63535320D02*
X99373464Y-62535320D01*
X99611560Y-62535320D01*
X99754417Y-62582940D01*
X99849655Y-62678178D01*
X99897274Y-62773416D01*
X99944893Y-62963892D01*
X99944893Y-63106749D01*
X99897274Y-63297225D01*
X99849655Y-63392463D01*
X99754417Y-63487701D01*
X99611560Y-63535320D01*
X99373464Y-63535320D01*
X100802036Y-62535320D02*
X100611560Y-62535320D01*
X100516321Y-62582940D01*
X100468702Y-62630559D01*
X100373464Y-62773416D01*
X100325845Y-62963892D01*
X100325845Y-63344844D01*
X100373464Y-63440082D01*
X100421083Y-63487701D01*
X100516321Y-63535320D01*
X100706798Y-63535320D01*
X100802036Y-63487701D01*
X100849655Y-63440082D01*
X100897274Y-63344844D01*
X100897274Y-63106749D01*
X100849655Y-63011511D01*
X100802036Y-62963892D01*
X100706798Y-62916273D01*
X100516321Y-62916273D01*
X100421083Y-62963892D01*
X100373464Y-63011511D01*
X100325845Y-63106749D01*
X100747747Y-55019700D02*
X100747747Y-54019700D01*
X101128700Y-54019700D01*
X101223938Y-54067320D01*
X101271557Y-54114939D01*
X101319176Y-54210177D01*
X101319176Y-54353034D01*
X101271557Y-54448272D01*
X101223938Y-54495891D01*
X101128700Y-54543510D01*
X100747747Y-54543510D01*
X101652509Y-54019700D02*
X101890604Y-55019700D01*
X102081080Y-54305415D01*
X102271557Y-55019700D01*
X102509652Y-54019700D01*
X102890604Y-55019700D02*
X102890604Y-54019700D01*
X103223938Y-54733986D01*
X103557271Y-54019700D01*
X103557271Y-55019700D01*
X104557271Y-55019700D02*
X103985842Y-55019700D01*
X104271557Y-55019700D02*
X104271557Y-54019700D01*
X104176319Y-54162558D01*
X104081080Y-54257796D01*
X103985842Y-54305415D01*
X101890604Y-56669700D02*
X101890604Y-55669700D01*
X102128700Y-55669700D01*
X102271557Y-55717320D01*
X102366795Y-55812558D01*
X102414414Y-55907796D01*
X102462033Y-56098272D01*
X102462033Y-56241129D01*
X102414414Y-56431605D01*
X102366795Y-56526843D01*
X102271557Y-56622081D01*
X102128700Y-56669700D01*
X101890604Y-56669700D01*
X103366795Y-55669700D02*
X102890604Y-55669700D01*
X102842985Y-56145891D01*
X102890604Y-56098272D01*
X102985842Y-56050653D01*
X103223938Y-56050653D01*
X103319176Y-56098272D01*
X103366795Y-56145891D01*
X103414414Y-56241129D01*
X103414414Y-56479224D01*
X103366795Y-56574462D01*
X103319176Y-56622081D01*
X103223938Y-56669700D01*
X102985842Y-56669700D01*
X102890604Y-56622081D01*
X102842985Y-56574462D01*
X103849965Y-61885320D02*
X103849965Y-60885320D01*
X104088060Y-60885320D01*
X104230918Y-60932940D01*
X104326156Y-61028178D01*
X104373775Y-61123416D01*
X104421394Y-61313892D01*
X104421394Y-61456749D01*
X104373775Y-61647225D01*
X104326156Y-61742463D01*
X104230918Y-61837701D01*
X104088060Y-61885320D01*
X103849965Y-61885320D01*
X104849965Y-61885320D02*
X104849965Y-61218654D01*
X104849965Y-60885320D02*
X104802346Y-60932940D01*
X104849965Y-60980559D01*
X104897584Y-60932940D01*
X104849965Y-60885320D01*
X104849965Y-60980559D01*
X105326156Y-61885320D02*
X105326156Y-61218654D01*
X105326156Y-61409130D02*
X105373775Y-61313892D01*
X105421394Y-61266273D01*
X105516632Y-61218654D01*
X105611870Y-61218654D01*
X106469013Y-61885320D02*
X105897584Y-61885320D01*
X106183299Y-61885320D02*
X106183299Y-60885320D01*
X106088060Y-61028178D01*
X105992822Y-61123416D01*
X105897584Y-61171035D01*
X104397584Y-63535320D02*
X104397584Y-62535320D01*
X104635680Y-62535320D01*
X104778537Y-62582940D01*
X104873775Y-62678178D01*
X104921394Y-62773416D01*
X104969013Y-62963892D01*
X104969013Y-63106749D01*
X104921394Y-63297225D01*
X104873775Y-63392463D01*
X104778537Y-63487701D01*
X104635680Y-63535320D01*
X104397584Y-63535320D01*
X105826156Y-62868654D02*
X105826156Y-63535320D01*
X105588060Y-62487701D02*
X105349965Y-63201987D01*
X105969013Y-63201987D01*
X104119419Y-51658780D02*
X103786085Y-51182590D01*
X103547990Y-51658780D02*
X103547990Y-50658780D01*
X103928942Y-50658780D01*
X104024180Y-50706400D01*
X104071800Y-50754019D01*
X104119419Y-50849257D01*
X104119419Y-50992114D01*
X104071800Y-51087352D01*
X104024180Y-51134971D01*
X103928942Y-51182590D01*
X103547990Y-51182590D01*
X104405133Y-50992114D02*
X104786085Y-50992114D01*
X104547990Y-50658780D02*
X104547990Y-51515923D01*
X104595609Y-51611161D01*
X104690847Y-51658780D01*
X104786085Y-51658780D01*
X105071800Y-50754019D02*
X105119419Y-50706400D01*
X105214657Y-50658780D01*
X105452752Y-50658780D01*
X105547990Y-50706400D01*
X105595609Y-50754019D01*
X105643228Y-50849257D01*
X105643228Y-50944495D01*
X105595609Y-51087352D01*
X105024180Y-51658780D01*
X105643228Y-51658780D01*
X103833704Y-53308780D02*
X103833704Y-52308780D01*
X104071800Y-52308780D01*
X104214657Y-52356400D01*
X104309895Y-52451638D01*
X104357514Y-52546876D01*
X104405133Y-52737352D01*
X104405133Y-52880209D01*
X104357514Y-53070685D01*
X104309895Y-53165923D01*
X104214657Y-53261161D01*
X104071800Y-53308780D01*
X103833704Y-53308780D01*
X104738466Y-52308780D02*
X105357514Y-52308780D01*
X105024180Y-52689733D01*
X105167038Y-52689733D01*
X105262276Y-52737352D01*
X105309895Y-52784971D01*
X105357514Y-52880209D01*
X105357514Y-53118304D01*
X105309895Y-53213542D01*
X105262276Y-53261161D01*
X105167038Y-53308780D01*
X104881323Y-53308780D01*
X104786085Y-53261161D01*
X104738466Y-53213542D01*
X109689639Y-51658780D02*
X109356305Y-51182590D01*
X109118210Y-51658780D02*
X109118210Y-50658780D01*
X109499162Y-50658780D01*
X109594400Y-50706400D01*
X109642020Y-50754019D01*
X109689639Y-50849257D01*
X109689639Y-50992114D01*
X109642020Y-51087352D01*
X109594400Y-51134971D01*
X109499162Y-51182590D01*
X109118210Y-51182590D01*
X109975353Y-50992114D02*
X110356305Y-50992114D01*
X110118210Y-50658780D02*
X110118210Y-51515923D01*
X110165829Y-51611161D01*
X110261067Y-51658780D01*
X110356305Y-51658780D01*
X111213448Y-51658780D02*
X110642020Y-51658780D01*
X110927734Y-51658780D02*
X110927734Y-50658780D01*
X110832496Y-50801638D01*
X110737258Y-50896876D01*
X110642020Y-50944495D01*
X109403924Y-53308780D02*
X109403924Y-52308780D01*
X109642020Y-52308780D01*
X109784877Y-52356400D01*
X109880115Y-52451638D01*
X109927734Y-52546876D01*
X109975353Y-52737352D01*
X109975353Y-52880209D01*
X109927734Y-53070685D01*
X109880115Y-53165923D01*
X109784877Y-53261161D01*
X109642020Y-53308780D01*
X109403924Y-53308780D01*
X110356305Y-52404019D02*
X110403924Y-52356400D01*
X110499162Y-52308780D01*
X110737258Y-52308780D01*
X110832496Y-52356400D01*
X110880115Y-52404019D01*
X110927734Y-52499257D01*
X110927734Y-52594495D01*
X110880115Y-52737352D01*
X110308686Y-53308780D01*
X110927734Y-53308780D01*
X115351940Y-89461244D02*
X115304320Y-89556482D01*
X115304320Y-89699340D01*
X115351940Y-89842197D01*
X115447178Y-89937435D01*
X115542416Y-89985054D01*
X115732892Y-90032673D01*
X115875749Y-90032673D01*
X116066225Y-89985054D01*
X116161463Y-89937435D01*
X116256701Y-89842197D01*
X116304320Y-89699340D01*
X116304320Y-89604101D01*
X116256701Y-89461244D01*
X116209082Y-89413625D01*
X115875749Y-89413625D01*
X115875749Y-89604101D01*
X116304320Y-88985054D02*
X115304320Y-88985054D01*
X116304320Y-88413625D01*
X115304320Y-88413625D01*
X116304320Y-87937435D02*
X115304320Y-87937435D01*
X115304320Y-87699340D01*
X115351940Y-87556482D01*
X115447178Y-87461244D01*
X115542416Y-87413625D01*
X115732892Y-87366006D01*
X115875749Y-87366006D01*
X116066225Y-87413625D01*
X116161463Y-87461244D01*
X116256701Y-87556482D01*
X116304320Y-87699340D01*
X116304320Y-87937435D01*
X92378280Y-88607567D02*
X92378280Y-89083757D01*
X92854471Y-89131376D01*
X92806852Y-89083757D01*
X92759233Y-88988519D01*
X92759233Y-88750424D01*
X92806852Y-88655186D01*
X92854471Y-88607567D01*
X92949709Y-88559948D01*
X93187804Y-88559948D01*
X93283042Y-88607567D01*
X93330661Y-88655186D01*
X93378280Y-88750424D01*
X93378280Y-88988519D01*
X93330661Y-89083757D01*
X93283042Y-89131376D01*
X92378280Y-88274233D02*
X93378280Y-87940900D01*
X92378280Y-87607567D01*
X95819220Y-88655186D02*
X95343030Y-88988520D01*
X95819220Y-89226615D02*
X94819220Y-89226615D01*
X94819220Y-88845662D01*
X94866840Y-88750424D01*
X94914459Y-88702805D01*
X95009697Y-88655186D01*
X95152554Y-88655186D01*
X95247792Y-88702805D01*
X95295411Y-88750424D01*
X95343030Y-88845662D01*
X95343030Y-89226615D01*
X95247792Y-88083758D02*
X95200173Y-88178996D01*
X95152554Y-88226615D01*
X95057316Y-88274234D01*
X95009697Y-88274234D01*
X94914459Y-88226615D01*
X94866840Y-88178996D01*
X94819220Y-88083758D01*
X94819220Y-87893281D01*
X94866840Y-87798043D01*
X94914459Y-87750424D01*
X95009697Y-87702805D01*
X95057316Y-87702805D01*
X95152554Y-87750424D01*
X95200173Y-87798043D01*
X95247792Y-87893281D01*
X95247792Y-88083758D01*
X95295411Y-88178996D01*
X95343030Y-88226615D01*
X95438268Y-88274234D01*
X95628744Y-88274234D01*
X95723982Y-88226615D01*
X95771601Y-88178996D01*
X95819220Y-88083758D01*
X95819220Y-87893281D01*
X95771601Y-87798043D01*
X95723982Y-87750424D01*
X95628744Y-87702805D01*
X95438268Y-87702805D01*
X95343030Y-87750424D01*
X95295411Y-87798043D01*
X95247792Y-87893281D01*
X98383894Y-88655186D02*
X97907704Y-88988520D01*
X98383894Y-89226615D02*
X97383894Y-89226615D01*
X97383894Y-88845662D01*
X97431514Y-88750424D01*
X97479133Y-88702805D01*
X97574371Y-88655186D01*
X97717228Y-88655186D01*
X97812466Y-88702805D01*
X97860085Y-88750424D01*
X97907704Y-88845662D01*
X97907704Y-89226615D01*
X97383894Y-88321853D02*
X97383894Y-87655186D01*
X98383894Y-88083758D01*
X100948568Y-88655186D02*
X100472378Y-88988520D01*
X100948568Y-89226615D02*
X99948568Y-89226615D01*
X99948568Y-88845662D01*
X99996188Y-88750424D01*
X100043807Y-88702805D01*
X100139045Y-88655186D01*
X100281902Y-88655186D01*
X100377140Y-88702805D01*
X100424759Y-88750424D01*
X100472378Y-88845662D01*
X100472378Y-89226615D01*
X99948568Y-87798043D02*
X99948568Y-87988520D01*
X99996188Y-88083758D01*
X100043807Y-88131377D01*
X100186664Y-88226615D01*
X100377140Y-88274234D01*
X100758092Y-88274234D01*
X100853330Y-88226615D01*
X100900949Y-88178996D01*
X100948568Y-88083758D01*
X100948568Y-87893281D01*
X100900949Y-87798043D01*
X100853330Y-87750424D01*
X100758092Y-87702805D01*
X100519997Y-87702805D01*
X100424759Y-87750424D01*
X100377140Y-87798043D01*
X100329521Y-87893281D01*
X100329521Y-88083758D01*
X100377140Y-88178996D01*
X100424759Y-88226615D01*
X100519997Y-88274234D01*
X103513242Y-88655186D02*
X103037052Y-88988520D01*
X103513242Y-89226615D02*
X102513242Y-89226615D01*
X102513242Y-88845662D01*
X102560862Y-88750424D01*
X102608481Y-88702805D01*
X102703719Y-88655186D01*
X102846576Y-88655186D01*
X102941814Y-88702805D01*
X102989433Y-88750424D01*
X103037052Y-88845662D01*
X103037052Y-89226615D01*
X102513242Y-87750424D02*
X102513242Y-88226615D01*
X102989433Y-88274234D01*
X102941814Y-88226615D01*
X102894195Y-88131377D01*
X102894195Y-87893281D01*
X102941814Y-87798043D01*
X102989433Y-87750424D01*
X103084671Y-87702805D01*
X103322766Y-87702805D01*
X103418004Y-87750424D01*
X103465623Y-87798043D01*
X103513242Y-87893281D01*
X103513242Y-88131377D01*
X103465623Y-88226615D01*
X103418004Y-88274234D01*
X106077916Y-88655186D02*
X105601726Y-88988520D01*
X106077916Y-89226615D02*
X105077916Y-89226615D01*
X105077916Y-88845662D01*
X105125536Y-88750424D01*
X105173155Y-88702805D01*
X105268393Y-88655186D01*
X105411250Y-88655186D01*
X105506488Y-88702805D01*
X105554107Y-88750424D01*
X105601726Y-88845662D01*
X105601726Y-89226615D01*
X105411250Y-87798043D02*
X106077916Y-87798043D01*
X105030297Y-88036139D02*
X105744583Y-88274234D01*
X105744583Y-87655186D01*
X108642590Y-88655186D02*
X108166400Y-88988520D01*
X108642590Y-89226615D02*
X107642590Y-89226615D01*
X107642590Y-88845662D01*
X107690210Y-88750424D01*
X107737829Y-88702805D01*
X107833067Y-88655186D01*
X107975924Y-88655186D01*
X108071162Y-88702805D01*
X108118781Y-88750424D01*
X108166400Y-88845662D01*
X108166400Y-89226615D01*
X107642590Y-88321853D02*
X107642590Y-87702805D01*
X108023543Y-88036139D01*
X108023543Y-87893281D01*
X108071162Y-87798043D01*
X108118781Y-87750424D01*
X108214019Y-87702805D01*
X108452114Y-87702805D01*
X108547352Y-87750424D01*
X108594971Y-87798043D01*
X108642590Y-87893281D01*
X108642590Y-88178996D01*
X108594971Y-88274234D01*
X108547352Y-88321853D01*
X111207264Y-88655186D02*
X110731074Y-88988520D01*
X111207264Y-89226615D02*
X110207264Y-89226615D01*
X110207264Y-88845662D01*
X110254884Y-88750424D01*
X110302503Y-88702805D01*
X110397741Y-88655186D01*
X110540598Y-88655186D01*
X110635836Y-88702805D01*
X110683455Y-88750424D01*
X110731074Y-88845662D01*
X110731074Y-89226615D01*
X110302503Y-88274234D02*
X110254884Y-88226615D01*
X110207264Y-88131377D01*
X110207264Y-87893281D01*
X110254884Y-87798043D01*
X110302503Y-87750424D01*
X110397741Y-87702805D01*
X110492979Y-87702805D01*
X110635836Y-87750424D01*
X111207264Y-88321853D01*
X111207264Y-87702805D01*
X113771940Y-88655186D02*
X113295750Y-88988520D01*
X113771940Y-89226615D02*
X112771940Y-89226615D01*
X112771940Y-88845662D01*
X112819560Y-88750424D01*
X112867179Y-88702805D01*
X112962417Y-88655186D01*
X113105274Y-88655186D01*
X113200512Y-88702805D01*
X113248131Y-88750424D01*
X113295750Y-88845662D01*
X113295750Y-89226615D01*
X113771940Y-87702805D02*
X113771940Y-88274234D01*
X113771940Y-87988520D02*
X112771940Y-87988520D01*
X112914798Y-88083758D01*
X113010036Y-88178996D01*
X113057655Y-88274234D01*
X98258748Y-108244569D02*
X97782558Y-108577902D01*
X98258748Y-108815997D02*
X97258748Y-108815997D01*
X97258748Y-108435045D01*
X97306368Y-108339807D01*
X97353987Y-108292188D01*
X97449225Y-108244569D01*
X97592082Y-108244569D01*
X97687320Y-108292188D01*
X97734939Y-108339807D01*
X97782558Y-108435045D01*
X97782558Y-108815997D01*
X98258748Y-107292188D02*
X98258748Y-107863616D01*
X98258748Y-107577902D02*
X97258748Y-107577902D01*
X97401606Y-107673140D01*
X97496844Y-107768378D01*
X97544463Y-107863616D01*
X97258748Y-106387426D02*
X97258748Y-106863616D01*
X97734939Y-106911235D01*
X97687320Y-106863616D01*
X97639701Y-106768378D01*
X97639701Y-106530283D01*
X97687320Y-106435045D01*
X97734939Y-106387426D01*
X97830177Y-106339807D01*
X98068272Y-106339807D01*
X98163510Y-106387426D01*
X98211129Y-106435045D01*
X98258748Y-106530283D01*
X98258748Y-106768378D01*
X98211129Y-106863616D01*
X98163510Y-106911235D01*
X95713104Y-108244569D02*
X95236914Y-108577902D01*
X95713104Y-108815997D02*
X94713104Y-108815997D01*
X94713104Y-108435045D01*
X94760724Y-108339807D01*
X94808343Y-108292188D01*
X94903581Y-108244569D01*
X95046438Y-108244569D01*
X95141676Y-108292188D01*
X95189295Y-108339807D01*
X95236914Y-108435045D01*
X95236914Y-108815997D01*
X95713104Y-107292188D02*
X95713104Y-107863616D01*
X95713104Y-107577902D02*
X94713104Y-107577902D01*
X94855962Y-107673140D01*
X94951200Y-107768378D01*
X94998819Y-107863616D01*
X94713104Y-106435045D02*
X94713104Y-106625521D01*
X94760724Y-106720759D01*
X94808343Y-106768378D01*
X94951200Y-106863616D01*
X95141676Y-106911235D01*
X95522628Y-106911235D01*
X95617866Y-106863616D01*
X95665485Y-106815997D01*
X95713104Y-106720759D01*
X95713104Y-106530283D01*
X95665485Y-106435045D01*
X95617866Y-106387426D01*
X95522628Y-106339807D01*
X95284533Y-106339807D01*
X95189295Y-106387426D01*
X95141676Y-106435045D01*
X95094057Y-106530283D01*
X95094057Y-106720759D01*
X95141676Y-106815997D01*
X95189295Y-106863616D01*
X95284533Y-106911235D01*
X103350036Y-108244569D02*
X102873846Y-108577902D01*
X103350036Y-108815997D02*
X102350036Y-108815997D01*
X102350036Y-108435045D01*
X102397656Y-108339807D01*
X102445275Y-108292188D01*
X102540513Y-108244569D01*
X102683370Y-108244569D01*
X102778608Y-108292188D01*
X102826227Y-108339807D01*
X102873846Y-108435045D01*
X102873846Y-108815997D01*
X103350036Y-107292188D02*
X103350036Y-107863616D01*
X103350036Y-107577902D02*
X102350036Y-107577902D01*
X102492894Y-107673140D01*
X102588132Y-107768378D01*
X102635751Y-107863616D01*
X102350036Y-106958854D02*
X102350036Y-106339807D01*
X102730989Y-106673140D01*
X102730989Y-106530283D01*
X102778608Y-106435045D01*
X102826227Y-106387426D01*
X102921465Y-106339807D01*
X103159560Y-106339807D01*
X103254798Y-106387426D01*
X103302417Y-106435045D01*
X103350036Y-106530283D01*
X103350036Y-106815997D01*
X103302417Y-106911235D01*
X103254798Y-106958854D01*
X105895680Y-108244569D02*
X105419490Y-108577902D01*
X105895680Y-108815997D02*
X104895680Y-108815997D01*
X104895680Y-108435045D01*
X104943300Y-108339807D01*
X104990919Y-108292188D01*
X105086157Y-108244569D01*
X105229014Y-108244569D01*
X105324252Y-108292188D01*
X105371871Y-108339807D01*
X105419490Y-108435045D01*
X105419490Y-108815997D01*
X105895680Y-107292188D02*
X105895680Y-107863616D01*
X105895680Y-107577902D02*
X104895680Y-107577902D01*
X105038538Y-107673140D01*
X105133776Y-107768378D01*
X105181395Y-107863616D01*
X104990919Y-106911235D02*
X104943300Y-106863616D01*
X104895680Y-106768378D01*
X104895680Y-106530283D01*
X104943300Y-106435045D01*
X104990919Y-106387426D01*
X105086157Y-106339807D01*
X105181395Y-106339807D01*
X105324252Y-106387426D01*
X105895680Y-106958854D01*
X105895680Y-106339807D01*
X113532612Y-107292188D02*
X113056422Y-107625522D01*
X113532612Y-107863617D02*
X112532612Y-107863617D01*
X112532612Y-107482664D01*
X112580232Y-107387426D01*
X112627851Y-107339807D01*
X112723089Y-107292188D01*
X112865946Y-107292188D01*
X112961184Y-107339807D01*
X113008803Y-107387426D01*
X113056422Y-107482664D01*
X113056422Y-107863617D01*
X113532612Y-106815998D02*
X113532612Y-106625522D01*
X113484993Y-106530283D01*
X113437374Y-106482664D01*
X113294517Y-106387426D01*
X113104041Y-106339807D01*
X112723089Y-106339807D01*
X112627851Y-106387426D01*
X112580232Y-106435045D01*
X112532612Y-106530283D01*
X112532612Y-106720760D01*
X112580232Y-106815998D01*
X112627851Y-106863617D01*
X112723089Y-106911236D01*
X112961184Y-106911236D01*
X113056422Y-106863617D01*
X113104041Y-106815998D01*
X113151660Y-106720760D01*
X113151660Y-106530283D01*
X113104041Y-106435045D01*
X113056422Y-106387426D01*
X112961184Y-106339807D01*
X108441324Y-108244569D02*
X107965134Y-108577902D01*
X108441324Y-108815997D02*
X107441324Y-108815997D01*
X107441324Y-108435045D01*
X107488944Y-108339807D01*
X107536563Y-108292188D01*
X107631801Y-108244569D01*
X107774658Y-108244569D01*
X107869896Y-108292188D01*
X107917515Y-108339807D01*
X107965134Y-108435045D01*
X107965134Y-108815997D01*
X108441324Y-107292188D02*
X108441324Y-107863616D01*
X108441324Y-107577902D02*
X107441324Y-107577902D01*
X107584182Y-107673140D01*
X107679420Y-107768378D01*
X107727039Y-107863616D01*
X108441324Y-106339807D02*
X108441324Y-106911235D01*
X108441324Y-106625521D02*
X107441324Y-106625521D01*
X107584182Y-106720759D01*
X107679420Y-106815997D01*
X107727039Y-106911235D01*
X100804392Y-108244569D02*
X100328202Y-108577902D01*
X100804392Y-108815997D02*
X99804392Y-108815997D01*
X99804392Y-108435045D01*
X99852012Y-108339807D01*
X99899631Y-108292188D01*
X99994869Y-108244569D01*
X100137726Y-108244569D01*
X100232964Y-108292188D01*
X100280583Y-108339807D01*
X100328202Y-108435045D01*
X100328202Y-108815997D01*
X100804392Y-107292188D02*
X100804392Y-107863616D01*
X100804392Y-107577902D02*
X99804392Y-107577902D01*
X99947250Y-107673140D01*
X100042488Y-107768378D01*
X100090107Y-107863616D01*
X100137726Y-106435045D02*
X100804392Y-106435045D01*
X99756773Y-106673140D02*
X100471059Y-106911235D01*
X100471059Y-106292188D01*
X110986968Y-108244569D02*
X110510778Y-108577902D01*
X110986968Y-108815997D02*
X109986968Y-108815997D01*
X109986968Y-108435045D01*
X110034588Y-108339807D01*
X110082207Y-108292188D01*
X110177445Y-108244569D01*
X110320302Y-108244569D01*
X110415540Y-108292188D01*
X110463159Y-108339807D01*
X110510778Y-108435045D01*
X110510778Y-108815997D01*
X110986968Y-107292188D02*
X110986968Y-107863616D01*
X110986968Y-107577902D02*
X109986968Y-107577902D01*
X110129826Y-107673140D01*
X110225064Y-107768378D01*
X110272683Y-107863616D01*
X109986968Y-106673140D02*
X109986968Y-106577902D01*
X110034588Y-106482664D01*
X110082207Y-106435045D01*
X110177445Y-106387426D01*
X110367921Y-106339807D01*
X110606016Y-106339807D01*
X110796492Y-106387426D01*
X110891730Y-106435045D01*
X110939349Y-106482664D01*
X110986968Y-106577902D01*
X110986968Y-106673140D01*
X110939349Y-106768378D01*
X110891730Y-106815997D01*
X110796492Y-106863616D01*
X110606016Y-106911235D01*
X110367921Y-106911235D01*
X110177445Y-106863616D01*
X110082207Y-106815997D01*
X110034588Y-106768378D01*
X109986968Y-106673140D01*
X115123340Y-108435045D02*
X115075720Y-108530283D01*
X115075720Y-108673141D01*
X115123340Y-108815998D01*
X115218578Y-108911236D01*
X115313816Y-108958855D01*
X115504292Y-109006474D01*
X115647149Y-109006474D01*
X115837625Y-108958855D01*
X115932863Y-108911236D01*
X116028101Y-108815998D01*
X116075720Y-108673141D01*
X116075720Y-108577902D01*
X116028101Y-108435045D01*
X115980482Y-108387426D01*
X115647149Y-108387426D01*
X115647149Y-108577902D01*
X116075720Y-107958855D02*
X115075720Y-107958855D01*
X116075720Y-107387426D01*
X115075720Y-107387426D01*
X116075720Y-106911236D02*
X115075720Y-106911236D01*
X115075720Y-106673141D01*
X115123340Y-106530283D01*
X115218578Y-106435045D01*
X115313816Y-106387426D01*
X115504292Y-106339807D01*
X115647149Y-106339807D01*
X115837625Y-106387426D01*
X115932863Y-106435045D01*
X116028101Y-106530283D01*
X116075720Y-106673141D01*
X116075720Y-106911236D01*
X92297000Y-107244569D02*
X92297000Y-107720759D01*
X92773191Y-107768378D01*
X92725572Y-107720759D01*
X92677953Y-107625521D01*
X92677953Y-107387426D01*
X92725572Y-107292188D01*
X92773191Y-107244569D01*
X92868429Y-107196950D01*
X93106524Y-107196950D01*
X93201762Y-107244569D01*
X93249381Y-107292188D01*
X93297000Y-107387426D01*
X93297000Y-107625521D01*
X93249381Y-107720759D01*
X93201762Y-107768378D01*
X92297000Y-106911235D02*
X93297000Y-106577902D01*
X92297000Y-106244569D01*
X124158000Y-101170880D02*
X123681810Y-101504213D01*
X124158000Y-101742308D02*
X123158000Y-101742308D01*
X123158000Y-101361356D01*
X123205620Y-101266118D01*
X123253239Y-101218499D01*
X123348477Y-101170880D01*
X123491334Y-101170880D01*
X123586572Y-101218499D01*
X123634191Y-101266118D01*
X123681810Y-101361356D01*
X123681810Y-101742308D01*
X124062762Y-100170880D02*
X124110381Y-100218499D01*
X124158000Y-100361356D01*
X124158000Y-100456594D01*
X124110381Y-100599451D01*
X124015143Y-100694689D01*
X123919905Y-100742308D01*
X123729429Y-100789927D01*
X123586572Y-100789927D01*
X123396096Y-100742308D01*
X123300858Y-100694689D01*
X123205620Y-100599451D01*
X123158000Y-100456594D01*
X123158000Y-100361356D01*
X123205620Y-100218499D01*
X123253239Y-100170880D01*
X123586572Y-99599451D02*
X123538953Y-99694689D01*
X123491334Y-99742308D01*
X123396096Y-99789927D01*
X123348477Y-99789927D01*
X123253239Y-99742308D01*
X123205620Y-99694689D01*
X123158000Y-99599451D01*
X123158000Y-99408975D01*
X123205620Y-99313737D01*
X123253239Y-99266118D01*
X123348477Y-99218499D01*
X123396096Y-99218499D01*
X123491334Y-99266118D01*
X123538953Y-99313737D01*
X123586572Y-99408975D01*
X123586572Y-99599451D01*
X123634191Y-99694689D01*
X123681810Y-99742308D01*
X123777048Y-99789927D01*
X123967524Y-99789927D01*
X124062762Y-99742308D01*
X124110381Y-99694689D01*
X124158000Y-99599451D01*
X124158000Y-99408975D01*
X124110381Y-99313737D01*
X124062762Y-99266118D01*
X123967524Y-99218499D01*
X123777048Y-99218499D01*
X123681810Y-99266118D01*
X123634191Y-99313737D01*
X123586572Y-99408975D01*
X123253239Y-98075641D02*
X123205620Y-98028022D01*
X123158000Y-97932784D01*
X123158000Y-97694689D01*
X123205620Y-97599451D01*
X123253239Y-97551832D01*
X123348477Y-97504213D01*
X123443715Y-97504213D01*
X123586572Y-97551832D01*
X124158000Y-98123260D01*
X124158000Y-97504213D01*
X123491334Y-96647070D02*
X124158000Y-96647070D01*
X123110381Y-96885165D02*
X123824667Y-97123260D01*
X123824667Y-96504213D01*
X123777048Y-96123260D02*
X123777048Y-95361356D01*
X124158000Y-94885165D02*
X123158000Y-94885165D01*
X124158000Y-94313737D01*
X123158000Y-94313737D01*
X124158000Y-93694689D02*
X124110381Y-93789927D01*
X124062762Y-93837546D01*
X123967524Y-93885165D01*
X123681810Y-93885165D01*
X123586572Y-93837546D01*
X123538953Y-93789927D01*
X123491334Y-93694689D01*
X123491334Y-93551832D01*
X123538953Y-93456594D01*
X123586572Y-93408975D01*
X123681810Y-93361356D01*
X123967524Y-93361356D01*
X124062762Y-93408975D01*
X124110381Y-93456594D01*
X124158000Y-93551832D01*
X124158000Y-93694689D01*
X123491334Y-93028022D02*
X124158000Y-92789927D01*
X123491334Y-92551832D01*
X123777048Y-92170880D02*
X123777048Y-91408975D01*
X123253239Y-90980403D02*
X123205620Y-90932784D01*
X123158000Y-90837546D01*
X123158000Y-90599451D01*
X123205620Y-90504213D01*
X123253239Y-90456594D01*
X123348477Y-90408975D01*
X123443715Y-90408975D01*
X123586572Y-90456594D01*
X124158000Y-91028022D01*
X124158000Y-90408975D01*
X123158000Y-89789927D02*
X123158000Y-89694689D01*
X123205620Y-89599451D01*
X123253239Y-89551832D01*
X123348477Y-89504213D01*
X123538953Y-89456594D01*
X123777048Y-89456594D01*
X123967524Y-89504213D01*
X124062762Y-89551832D01*
X124110381Y-89599451D01*
X124158000Y-89694689D01*
X124158000Y-89789927D01*
X124110381Y-89885165D01*
X124062762Y-89932784D01*
X123967524Y-89980403D01*
X123777048Y-90028022D01*
X123538953Y-90028022D01*
X123348477Y-89980403D01*
X123253239Y-89932784D01*
X123205620Y-89885165D01*
X123158000Y-89789927D01*
X123253239Y-89075641D02*
X123205620Y-89028022D01*
X123158000Y-88932784D01*
X123158000Y-88694689D01*
X123205620Y-88599451D01*
X123253239Y-88551832D01*
X123348477Y-88504213D01*
X123443715Y-88504213D01*
X123586572Y-88551832D01*
X124158000Y-89123260D01*
X124158000Y-88504213D01*
X124158000Y-87551832D02*
X124158000Y-88123260D01*
X124158000Y-87837546D02*
X123158000Y-87837546D01*
X123300858Y-87932784D01*
X123396096Y-88028022D01*
X123443715Y-88123260D01*
D11*
%TO.C,J4*%
X112805740Y-40354180D02*
X112405740Y-40354180D01*
X112805740Y-40994180D02*
X112805740Y-40354180D01*
X66263740Y-44662180D02*
X66658740Y-44266180D01*
X63617740Y-47308180D02*
X63997740Y-46928180D01*
X66012740Y-44380180D02*
X66392740Y-44000180D01*
X63351740Y-47042180D02*
X63746740Y-46646180D01*
X71263740Y-44662180D02*
X71658740Y-44266180D01*
X68617740Y-47308180D02*
X68997740Y-46928180D01*
X71012740Y-44380180D02*
X71392740Y-44000180D01*
X68351740Y-47042180D02*
X68746740Y-46646180D01*
X76263740Y-44662180D02*
X76658740Y-44266180D01*
X73617740Y-47308180D02*
X73997740Y-46928180D01*
X76012740Y-44380180D02*
X76392740Y-44000180D01*
X73351740Y-47042180D02*
X73746740Y-46646180D01*
X81263740Y-44662180D02*
X81658740Y-44266180D01*
X78617740Y-47308180D02*
X78997740Y-46928180D01*
X81012740Y-44380180D02*
X81392740Y-44000180D01*
X78351740Y-47042180D02*
X78746740Y-46646180D01*
X86263740Y-44662180D02*
X86658740Y-44266180D01*
X83617740Y-47308180D02*
X83997740Y-46928180D01*
X86012740Y-44380180D02*
X86392740Y-44000180D01*
X83351740Y-47042180D02*
X83746740Y-46646180D01*
X91263740Y-44662180D02*
X91658740Y-44266180D01*
X88617740Y-47308180D02*
X88997740Y-46928180D01*
X91012740Y-44380180D02*
X91392740Y-44000180D01*
X88351740Y-47042180D02*
X88746740Y-46646180D01*
X96263740Y-44662180D02*
X96658740Y-44266180D01*
X93617740Y-47308180D02*
X93997740Y-46928180D01*
X96012740Y-44380180D02*
X96392740Y-44000180D01*
X93351740Y-47042180D02*
X93746740Y-46646180D01*
X101263740Y-44662180D02*
X101658740Y-44266180D01*
X98617740Y-47308180D02*
X98997740Y-46928180D01*
X101012740Y-44380180D02*
X101392740Y-44000180D01*
X98351740Y-47042180D02*
X98746740Y-46646180D01*
X106263740Y-44662180D02*
X106658740Y-44266180D01*
X103617740Y-47308180D02*
X103997740Y-46928180D01*
X106012740Y-44380180D02*
X106392740Y-44000180D01*
X103351740Y-47042180D02*
X103746740Y-46646180D01*
X111553740Y-44373180D02*
X111659740Y-44266180D01*
X108617740Y-47308180D02*
X108724740Y-47201180D01*
X111287740Y-44107180D02*
X111393740Y-44000180D01*
X108351740Y-47042180D02*
X108458740Y-46935180D01*
X62445740Y-49714180D02*
X62445740Y-40594180D01*
X112565740Y-49714180D02*
X112565740Y-40594180D01*
X112565740Y-40594180D02*
X62445740Y-40594180D01*
X112565740Y-49714180D02*
X62445740Y-49714180D01*
X112565740Y-42154180D02*
X62445740Y-42154180D01*
X112565740Y-41054180D02*
X62445740Y-41054180D01*
X67185740Y-45654180D02*
G75*
G03*
X67185740Y-45654180I-2180000J0D01*
G01*
X72185740Y-45654180D02*
G75*
G03*
X72185740Y-45654180I-2180000J0D01*
G01*
X77185740Y-45654180D02*
G75*
G03*
X77185740Y-45654180I-2180000J0D01*
G01*
X82185740Y-45654180D02*
G75*
G03*
X82185740Y-45654180I-2180000J0D01*
G01*
X87185740Y-45654180D02*
G75*
G03*
X87185740Y-45654180I-2180000J0D01*
G01*
X92185740Y-45654180D02*
G75*
G03*
X92185740Y-45654180I-2180000J0D01*
G01*
X97185740Y-45654180D02*
G75*
G03*
X97185740Y-45654180I-2180000J0D01*
G01*
X102185740Y-45654180D02*
G75*
G03*
X102185740Y-45654180I-2180000J0D01*
G01*
X107185740Y-45654180D02*
G75*
G03*
X107185740Y-45654180I-2180000J0D01*
G01*
X112185740Y-45654180D02*
G75*
G03*
X112185740Y-45654180I-2180000J0D01*
G01*
%TO.C,J3*%
X93688860Y-58742580D02*
X93688860Y-57412580D01*
X93688860Y-57412580D02*
X95018860Y-57412580D01*
X96288860Y-57412580D02*
X106508860Y-57412580D01*
X106508860Y-60072580D02*
X106508860Y-57412580D01*
X96288860Y-60072580D02*
X106508860Y-60072580D01*
X96288860Y-60072580D02*
X96288860Y-57412580D01*
%TO.C,U2*%
X78643300Y-106727120D02*
X85543300Y-106727120D01*
X78643300Y-109267120D02*
X78643300Y-106727120D01*
D10*
G36*
X58788300Y-110307120D02*
G01*
X60058300Y-110307120D01*
X59423300Y-109672120D01*
X58788300Y-110307120D01*
G37*
X58788300Y-110307120D02*
X60058300Y-110307120D01*
X59423300Y-109672120D01*
X58788300Y-110307120D01*
D11*
X51083300Y-85527120D02*
X51083300Y-107137120D01*
X85543300Y-83407120D02*
X53213300Y-83407120D01*
X78643300Y-109267120D02*
X53213300Y-109267120D01*
X85543300Y-106727120D02*
X85543300Y-83407120D01*
X51083300Y-85537120D02*
G75*
G02*
X53213300Y-83407120I2130000J0D01*
G01*
X53213300Y-109267120D02*
G75*
G02*
X51083300Y-107137120I0J2130000D01*
G01*
%TO.C,C4*%
X76516540Y-78319960D02*
X76516540Y-81059960D01*
X71276540Y-78319960D02*
X71276540Y-81059960D01*
X71276540Y-81059960D02*
X76516540Y-81059960D01*
X71276540Y-78319960D02*
X76516540Y-78319960D01*
%TO.C,J1*%
X91495880Y-85498940D02*
X91495880Y-84168940D01*
X91495880Y-84168940D02*
X92825880Y-84168940D01*
X94095880Y-84168940D02*
X117015880Y-84168940D01*
X117015880Y-86828940D02*
X117015880Y-84168940D01*
X94095880Y-86828940D02*
X117015880Y-86828940D01*
X94095880Y-86828940D02*
X94095880Y-84168940D01*
%TO.C,J2*%
X116955880Y-104371140D02*
X116955880Y-105701140D01*
X116955880Y-105701140D02*
X115625880Y-105701140D01*
X114355880Y-105701140D02*
X91435880Y-105701140D01*
X91435880Y-103041140D02*
X91435880Y-105701140D01*
X114355880Y-103041140D02*
X91435880Y-103041140D01*
X114355880Y-103041140D02*
X114355880Y-105701140D01*
%TO.C,C1*%
X91015180Y-58298720D02*
G75*
G03*
X91015180Y-58298720I-5120000J0D01*
G01*
X90975180Y-58298720D02*
X80815180Y-58298720D01*
X90975180Y-58338720D02*
X80815180Y-58338720D01*
X90975180Y-58378720D02*
X80815180Y-58378720D01*
X90974180Y-58418720D02*
X80816180Y-58418720D01*
X90973180Y-58458720D02*
X80817180Y-58458720D01*
X90972180Y-58498720D02*
X80818180Y-58498720D01*
X90970180Y-58538720D02*
X80820180Y-58538720D01*
X90968180Y-58578720D02*
X80822180Y-58578720D01*
X90965180Y-58618720D02*
X80825180Y-58618720D01*
X90963180Y-58658720D02*
X80827180Y-58658720D01*
X90960180Y-58698720D02*
X80830180Y-58698720D01*
X90957180Y-58738720D02*
X80833180Y-58738720D01*
X90953180Y-58778720D02*
X80837180Y-58778720D01*
X90949180Y-58818720D02*
X80841180Y-58818720D01*
X90945180Y-58858720D02*
X80845180Y-58858720D01*
X90940180Y-58898720D02*
X80850180Y-58898720D01*
X90935180Y-58938720D02*
X80855180Y-58938720D01*
X90930180Y-58978720D02*
X80860180Y-58978720D01*
X90925180Y-59019720D02*
X80865180Y-59019720D01*
X90919180Y-59059720D02*
X80871180Y-59059720D01*
X90913180Y-59099720D02*
X80877180Y-59099720D01*
X90906180Y-59139720D02*
X80884180Y-59139720D01*
X90899180Y-59179720D02*
X80891180Y-59179720D01*
X90892180Y-59219720D02*
X80898180Y-59219720D01*
X90885180Y-59259720D02*
X80905180Y-59259720D01*
X90877180Y-59299720D02*
X80913180Y-59299720D01*
X90869180Y-59339720D02*
X80921180Y-59339720D01*
X90860180Y-59379720D02*
X80930180Y-59379720D01*
X90851180Y-59419720D02*
X80939180Y-59419720D01*
X90842180Y-59459720D02*
X80948180Y-59459720D01*
X90833180Y-59499720D02*
X80957180Y-59499720D01*
X90823180Y-59539720D02*
X80967180Y-59539720D01*
X90813180Y-59579720D02*
X87136180Y-59579720D01*
X84654180Y-59579720D02*
X80977180Y-59579720D01*
X90802180Y-59619720D02*
X87136180Y-59619720D01*
X84654180Y-59619720D02*
X80988180Y-59619720D01*
X90792180Y-59659720D02*
X87136180Y-59659720D01*
X84654180Y-59659720D02*
X80998180Y-59659720D01*
X90780180Y-59699720D02*
X87136180Y-59699720D01*
X84654180Y-59699720D02*
X81010180Y-59699720D01*
X90769180Y-59739720D02*
X87136180Y-59739720D01*
X84654180Y-59739720D02*
X81021180Y-59739720D01*
X90757180Y-59779720D02*
X87136180Y-59779720D01*
X84654180Y-59779720D02*
X81033180Y-59779720D01*
X90745180Y-59819720D02*
X87136180Y-59819720D01*
X84654180Y-59819720D02*
X81045180Y-59819720D01*
X90732180Y-59859720D02*
X87136180Y-59859720D01*
X84654180Y-59859720D02*
X81058180Y-59859720D01*
X90719180Y-59899720D02*
X87136180Y-59899720D01*
X84654180Y-59899720D02*
X81071180Y-59899720D01*
X90706180Y-59939720D02*
X87136180Y-59939720D01*
X84654180Y-59939720D02*
X81084180Y-59939720D01*
X90692180Y-59979720D02*
X87136180Y-59979720D01*
X84654180Y-59979720D02*
X81098180Y-59979720D01*
X90678180Y-60019720D02*
X87136180Y-60019720D01*
X84654180Y-60019720D02*
X81112180Y-60019720D01*
X90663180Y-60059720D02*
X87136180Y-60059720D01*
X84654180Y-60059720D02*
X81127180Y-60059720D01*
X90649180Y-60099720D02*
X87136180Y-60099720D01*
X84654180Y-60099720D02*
X81141180Y-60099720D01*
X90633180Y-60139720D02*
X87136180Y-60139720D01*
X84654180Y-60139720D02*
X81157180Y-60139720D01*
X90618180Y-60179720D02*
X87136180Y-60179720D01*
X84654180Y-60179720D02*
X81172180Y-60179720D01*
X90602180Y-60219720D02*
X87136180Y-60219720D01*
X84654180Y-60219720D02*
X81188180Y-60219720D01*
X90585180Y-60259720D02*
X87136180Y-60259720D01*
X84654180Y-60259720D02*
X81205180Y-60259720D01*
X90569180Y-60299720D02*
X87136180Y-60299720D01*
X84654180Y-60299720D02*
X81221180Y-60299720D01*
X90552180Y-60339720D02*
X87136180Y-60339720D01*
X84654180Y-60339720D02*
X81238180Y-60339720D01*
X90534180Y-60379720D02*
X87136180Y-60379720D01*
X84654180Y-60379720D02*
X81256180Y-60379720D01*
X90516180Y-60419720D02*
X87136180Y-60419720D01*
X84654180Y-60419720D02*
X81274180Y-60419720D01*
X90498180Y-60459720D02*
X87136180Y-60459720D01*
X84654180Y-60459720D02*
X81292180Y-60459720D01*
X90479180Y-60499720D02*
X87136180Y-60499720D01*
X84654180Y-60499720D02*
X81311180Y-60499720D01*
X90459180Y-60539720D02*
X87136180Y-60539720D01*
X84654180Y-60539720D02*
X81331180Y-60539720D01*
X90440180Y-60579720D02*
X87136180Y-60579720D01*
X84654180Y-60579720D02*
X81350180Y-60579720D01*
X90420180Y-60619720D02*
X87136180Y-60619720D01*
X84654180Y-60619720D02*
X81370180Y-60619720D01*
X90399180Y-60659720D02*
X87136180Y-60659720D01*
X84654180Y-60659720D02*
X81391180Y-60659720D01*
X90378180Y-60699720D02*
X87136180Y-60699720D01*
X84654180Y-60699720D02*
X81412180Y-60699720D01*
X90357180Y-60739720D02*
X87136180Y-60739720D01*
X84654180Y-60739720D02*
X81433180Y-60739720D01*
X90335180Y-60779720D02*
X87136180Y-60779720D01*
X84654180Y-60779720D02*
X81455180Y-60779720D01*
X90312180Y-60819720D02*
X87136180Y-60819720D01*
X84654180Y-60819720D02*
X81478180Y-60819720D01*
X90290180Y-60859720D02*
X87136180Y-60859720D01*
X84654180Y-60859720D02*
X81500180Y-60859720D01*
X90266180Y-60899720D02*
X87136180Y-60899720D01*
X84654180Y-60899720D02*
X81524180Y-60899720D01*
X90242180Y-60939720D02*
X87136180Y-60939720D01*
X84654180Y-60939720D02*
X81548180Y-60939720D01*
X90218180Y-60979720D02*
X87136180Y-60979720D01*
X84654180Y-60979720D02*
X81572180Y-60979720D01*
X90193180Y-61019720D02*
X87136180Y-61019720D01*
X84654180Y-61019720D02*
X81597180Y-61019720D01*
X90168180Y-61059720D02*
X87136180Y-61059720D01*
X84654180Y-61059720D02*
X81622180Y-61059720D01*
X90142180Y-61099720D02*
X87136180Y-61099720D01*
X84654180Y-61099720D02*
X81648180Y-61099720D01*
X90116180Y-61139720D02*
X87136180Y-61139720D01*
X84654180Y-61139720D02*
X81674180Y-61139720D01*
X90089180Y-61179720D02*
X87136180Y-61179720D01*
X84654180Y-61179720D02*
X81701180Y-61179720D01*
X90061180Y-61219720D02*
X87136180Y-61219720D01*
X84654180Y-61219720D02*
X81729180Y-61219720D01*
X90033180Y-61259720D02*
X87136180Y-61259720D01*
X84654180Y-61259720D02*
X81757180Y-61259720D01*
X90005180Y-61299720D02*
X87136180Y-61299720D01*
X84654180Y-61299720D02*
X81785180Y-61299720D01*
X89975180Y-61339720D02*
X87136180Y-61339720D01*
X84654180Y-61339720D02*
X81815180Y-61339720D01*
X89945180Y-61379720D02*
X87136180Y-61379720D01*
X84654180Y-61379720D02*
X81845180Y-61379720D01*
X89915180Y-61419720D02*
X87136180Y-61419720D01*
X84654180Y-61419720D02*
X81875180Y-61419720D01*
X89884180Y-61459720D02*
X87136180Y-61459720D01*
X84654180Y-61459720D02*
X81906180Y-61459720D01*
X89852180Y-61499720D02*
X87136180Y-61499720D01*
X84654180Y-61499720D02*
X81938180Y-61499720D01*
X89820180Y-61539720D02*
X87136180Y-61539720D01*
X84654180Y-61539720D02*
X81970180Y-61539720D01*
X89787180Y-61579720D02*
X87136180Y-61579720D01*
X84654180Y-61579720D02*
X82003180Y-61579720D01*
X89753180Y-61619720D02*
X87136180Y-61619720D01*
X84654180Y-61619720D02*
X82037180Y-61619720D01*
X89719180Y-61659720D02*
X87136180Y-61659720D01*
X84654180Y-61659720D02*
X82071180Y-61659720D01*
X89684180Y-61699720D02*
X87136180Y-61699720D01*
X84654180Y-61699720D02*
X82106180Y-61699720D01*
X89648180Y-61739720D02*
X87136180Y-61739720D01*
X84654180Y-61739720D02*
X82142180Y-61739720D01*
X89611180Y-61779720D02*
X87136180Y-61779720D01*
X84654180Y-61779720D02*
X82179180Y-61779720D01*
X89574180Y-61819720D02*
X87136180Y-61819720D01*
X84654180Y-61819720D02*
X82216180Y-61819720D01*
X89535180Y-61859720D02*
X87136180Y-61859720D01*
X84654180Y-61859720D02*
X82255180Y-61859720D01*
X89496180Y-61899720D02*
X87136180Y-61899720D01*
X84654180Y-61899720D02*
X82294180Y-61899720D01*
X89456180Y-61939720D02*
X87136180Y-61939720D01*
X84654180Y-61939720D02*
X82334180Y-61939720D01*
X89415180Y-61979720D02*
X87136180Y-61979720D01*
X84654180Y-61979720D02*
X82375180Y-61979720D01*
X89373180Y-62019720D02*
X87136180Y-62019720D01*
X84654180Y-62019720D02*
X82417180Y-62019720D01*
X89331180Y-62059720D02*
X82459180Y-62059720D01*
X89287180Y-62099720D02*
X82503180Y-62099720D01*
X89242180Y-62139720D02*
X82548180Y-62139720D01*
X89196180Y-62179720D02*
X82594180Y-62179720D01*
X89149180Y-62219720D02*
X82641180Y-62219720D01*
X89101180Y-62259720D02*
X82689180Y-62259720D01*
X89051180Y-62299720D02*
X82739180Y-62299720D01*
X89001180Y-62339720D02*
X82789180Y-62339720D01*
X88949180Y-62379720D02*
X82841180Y-62379720D01*
X88895180Y-62419720D02*
X82895180Y-62419720D01*
X88840180Y-62459720D02*
X82950180Y-62459720D01*
X88784180Y-62499720D02*
X83006180Y-62499720D01*
X88725180Y-62539720D02*
X83065180Y-62539720D01*
X88665180Y-62579720D02*
X83125180Y-62579720D01*
X88604180Y-62619720D02*
X83186180Y-62619720D01*
X88540180Y-62659720D02*
X83250180Y-62659720D01*
X88474180Y-62699720D02*
X83316180Y-62699720D01*
X88405180Y-62739720D02*
X83385180Y-62739720D01*
X88334180Y-62779720D02*
X83456180Y-62779720D01*
X88260180Y-62819720D02*
X83530180Y-62819720D01*
X88184180Y-62859720D02*
X83606180Y-62859720D01*
X88104180Y-62899720D02*
X83686180Y-62899720D01*
X88020180Y-62939720D02*
X83770180Y-62939720D01*
X87932180Y-62979720D02*
X83858180Y-62979720D01*
X87839180Y-63019720D02*
X83951180Y-63019720D01*
X87741180Y-63059720D02*
X84049180Y-63059720D01*
X87637180Y-63099720D02*
X84153180Y-63099720D01*
X87525180Y-63139720D02*
X84265180Y-63139720D01*
X87405180Y-63179720D02*
X84385180Y-63179720D01*
X87273180Y-63219720D02*
X84517180Y-63219720D01*
X87125180Y-63259720D02*
X84665180Y-63259720D01*
X86957180Y-63299720D02*
X84833180Y-63299720D01*
X86757180Y-63339720D02*
X85033180Y-63339720D01*
X86494180Y-63379720D02*
X85296180Y-63379720D01*
X88770180Y-52819074D02*
X88770180Y-53819074D01*
X89270180Y-53319074D02*
X88270180Y-53319074D01*
%TO.C,U1*%
X117205880Y-93945040D02*
X117205880Y-92295040D01*
X117205880Y-92295040D02*
X81525880Y-92295040D01*
X81525880Y-92295040D02*
X81525880Y-97595040D01*
X81525880Y-97595040D02*
X117205880Y-97595040D01*
X117205880Y-97595040D02*
X117205880Y-95945040D01*
X117205880Y-95945040D02*
G75*
G02*
X117205880Y-93945040I0J1000000D01*
G01*
%TO.C,RG1*%
X58889900Y-58216800D02*
X58889900Y-68216800D01*
X69089900Y-58216800D02*
X69089900Y-68216800D01*
X58889900Y-68216800D02*
X69089900Y-68216800D01*
X58889900Y-58216800D02*
X69089900Y-58216800D01*
%TO.C,R2*%
X103335760Y-70014080D02*
X100595760Y-70014080D01*
X100595760Y-70014080D02*
X100595760Y-76554080D01*
X100595760Y-76554080D02*
X103335760Y-76554080D01*
X103335760Y-76554080D02*
X103335760Y-70014080D01*
X101965760Y-69244080D02*
X101965760Y-70014080D01*
X101965760Y-77324080D02*
X101965760Y-76554080D01*
%TO.C,R3*%
X107298160Y-70014080D02*
X104558160Y-70014080D01*
X104558160Y-70014080D02*
X104558160Y-76554080D01*
X104558160Y-76554080D02*
X107298160Y-76554080D01*
X107298160Y-76554080D02*
X107298160Y-70014080D01*
X105928160Y-69244080D02*
X105928160Y-70014080D01*
X105928160Y-77324080D02*
X105928160Y-76554080D01*
%TO.C,R1*%
X85904200Y-103789480D02*
X85134200Y-103789480D01*
X77824200Y-103789480D02*
X78594200Y-103789480D01*
X85134200Y-102419480D02*
X78594200Y-102419480D01*
X85134200Y-105159480D02*
X85134200Y-102419480D01*
X78594200Y-105159480D02*
X85134200Y-105159480D01*
X78594200Y-102419480D02*
X78594200Y-105159480D01*
D12*
%TO.C,D1*%
G36*
X54836060Y-54284880D02*
G01*
X53947060Y-54284880D01*
X53947060Y-55554880D01*
X54836060Y-55554880D01*
X54836060Y-54284880D01*
G37*
G36*
X65885060Y-54284880D02*
G01*
X64996060Y-54284880D01*
X64996060Y-55554880D01*
X65885060Y-55554880D01*
X65885060Y-54284880D01*
G37*
G36*
X64107060Y-52125880D02*
G01*
X63345060Y-52125880D01*
X63345060Y-57713880D01*
X64107060Y-57713880D01*
X64107060Y-52125880D01*
G37*
D13*
X54836060Y-52125880D02*
X64996060Y-52125880D01*
X64996060Y-57713880D02*
X54836060Y-57713880D01*
X54836060Y-57713880D02*
X54836060Y-52125880D01*
X64996060Y-52125880D02*
X64996060Y-57713880D01*
X59916060Y-54919880D02*
X59916060Y-54335680D01*
X59916060Y-54919880D02*
X57630060Y-54919880D01*
X58773060Y-54335680D02*
X59916060Y-54919880D01*
X58773060Y-55504080D02*
X58773060Y-54335680D01*
X59916060Y-54919880D02*
X58773060Y-55504080D01*
X59916060Y-55504080D02*
X59916060Y-54919880D01*
X61186060Y-54919880D02*
X59916060Y-54919880D01*
D11*
%TO.C,C7*%
X116396440Y-78552980D02*
X111156440Y-78552980D01*
X116396440Y-75812980D02*
X111156440Y-75812980D01*
X116396440Y-78552980D02*
X116396440Y-75812980D01*
X111156440Y-78552980D02*
X111156440Y-75812980D01*
%TO.C,C6*%
X79976340Y-58298720D02*
G75*
G03*
X79976340Y-58298720I-5120000J0D01*
G01*
X79936340Y-58298720D02*
X69776340Y-58298720D01*
X79936340Y-58338720D02*
X69776340Y-58338720D01*
X79936340Y-58378720D02*
X69776340Y-58378720D01*
X79935340Y-58418720D02*
X69777340Y-58418720D01*
X79934340Y-58458720D02*
X69778340Y-58458720D01*
X79933340Y-58498720D02*
X69779340Y-58498720D01*
X79931340Y-58538720D02*
X69781340Y-58538720D01*
X79929340Y-58578720D02*
X69783340Y-58578720D01*
X79926340Y-58618720D02*
X69786340Y-58618720D01*
X79924340Y-58658720D02*
X69788340Y-58658720D01*
X79921340Y-58698720D02*
X69791340Y-58698720D01*
X79918340Y-58738720D02*
X69794340Y-58738720D01*
X79914340Y-58778720D02*
X69798340Y-58778720D01*
X79910340Y-58818720D02*
X69802340Y-58818720D01*
X79906340Y-58858720D02*
X69806340Y-58858720D01*
X79901340Y-58898720D02*
X69811340Y-58898720D01*
X79896340Y-58938720D02*
X69816340Y-58938720D01*
X79891340Y-58978720D02*
X69821340Y-58978720D01*
X79886340Y-59019720D02*
X69826340Y-59019720D01*
X79880340Y-59059720D02*
X69832340Y-59059720D01*
X79874340Y-59099720D02*
X69838340Y-59099720D01*
X79867340Y-59139720D02*
X69845340Y-59139720D01*
X79860340Y-59179720D02*
X69852340Y-59179720D01*
X79853340Y-59219720D02*
X69859340Y-59219720D01*
X79846340Y-59259720D02*
X69866340Y-59259720D01*
X79838340Y-59299720D02*
X69874340Y-59299720D01*
X79830340Y-59339720D02*
X69882340Y-59339720D01*
X79821340Y-59379720D02*
X69891340Y-59379720D01*
X79812340Y-59419720D02*
X69900340Y-59419720D01*
X79803340Y-59459720D02*
X69909340Y-59459720D01*
X79794340Y-59499720D02*
X69918340Y-59499720D01*
X79784340Y-59539720D02*
X69928340Y-59539720D01*
X79774340Y-59579720D02*
X76097340Y-59579720D01*
X73615340Y-59579720D02*
X69938340Y-59579720D01*
X79763340Y-59619720D02*
X76097340Y-59619720D01*
X73615340Y-59619720D02*
X69949340Y-59619720D01*
X79753340Y-59659720D02*
X76097340Y-59659720D01*
X73615340Y-59659720D02*
X69959340Y-59659720D01*
X79741340Y-59699720D02*
X76097340Y-59699720D01*
X73615340Y-59699720D02*
X69971340Y-59699720D01*
X79730340Y-59739720D02*
X76097340Y-59739720D01*
X73615340Y-59739720D02*
X69982340Y-59739720D01*
X79718340Y-59779720D02*
X76097340Y-59779720D01*
X73615340Y-59779720D02*
X69994340Y-59779720D01*
X79706340Y-59819720D02*
X76097340Y-59819720D01*
X73615340Y-59819720D02*
X70006340Y-59819720D01*
X79693340Y-59859720D02*
X76097340Y-59859720D01*
X73615340Y-59859720D02*
X70019340Y-59859720D01*
X79680340Y-59899720D02*
X76097340Y-59899720D01*
X73615340Y-59899720D02*
X70032340Y-59899720D01*
X79667340Y-59939720D02*
X76097340Y-59939720D01*
X73615340Y-59939720D02*
X70045340Y-59939720D01*
X79653340Y-59979720D02*
X76097340Y-59979720D01*
X73615340Y-59979720D02*
X70059340Y-59979720D01*
X79639340Y-60019720D02*
X76097340Y-60019720D01*
X73615340Y-60019720D02*
X70073340Y-60019720D01*
X79624340Y-60059720D02*
X76097340Y-60059720D01*
X73615340Y-60059720D02*
X70088340Y-60059720D01*
X79610340Y-60099720D02*
X76097340Y-60099720D01*
X73615340Y-60099720D02*
X70102340Y-60099720D01*
X79594340Y-60139720D02*
X76097340Y-60139720D01*
X73615340Y-60139720D02*
X70118340Y-60139720D01*
X79579340Y-60179720D02*
X76097340Y-60179720D01*
X73615340Y-60179720D02*
X70133340Y-60179720D01*
X79563340Y-60219720D02*
X76097340Y-60219720D01*
X73615340Y-60219720D02*
X70149340Y-60219720D01*
X79546340Y-60259720D02*
X76097340Y-60259720D01*
X73615340Y-60259720D02*
X70166340Y-60259720D01*
X79530340Y-60299720D02*
X76097340Y-60299720D01*
X73615340Y-60299720D02*
X70182340Y-60299720D01*
X79513340Y-60339720D02*
X76097340Y-60339720D01*
X73615340Y-60339720D02*
X70199340Y-60339720D01*
X79495340Y-60379720D02*
X76097340Y-60379720D01*
X73615340Y-60379720D02*
X70217340Y-60379720D01*
X79477340Y-60419720D02*
X76097340Y-60419720D01*
X73615340Y-60419720D02*
X70235340Y-60419720D01*
X79459340Y-60459720D02*
X76097340Y-60459720D01*
X73615340Y-60459720D02*
X70253340Y-60459720D01*
X79440340Y-60499720D02*
X76097340Y-60499720D01*
X73615340Y-60499720D02*
X70272340Y-60499720D01*
X79420340Y-60539720D02*
X76097340Y-60539720D01*
X73615340Y-60539720D02*
X70292340Y-60539720D01*
X79401340Y-60579720D02*
X76097340Y-60579720D01*
X73615340Y-60579720D02*
X70311340Y-60579720D01*
X79381340Y-60619720D02*
X76097340Y-60619720D01*
X73615340Y-60619720D02*
X70331340Y-60619720D01*
X79360340Y-60659720D02*
X76097340Y-60659720D01*
X73615340Y-60659720D02*
X70352340Y-60659720D01*
X79339340Y-60699720D02*
X76097340Y-60699720D01*
X73615340Y-60699720D02*
X70373340Y-60699720D01*
X79318340Y-60739720D02*
X76097340Y-60739720D01*
X73615340Y-60739720D02*
X70394340Y-60739720D01*
X79296340Y-60779720D02*
X76097340Y-60779720D01*
X73615340Y-60779720D02*
X70416340Y-60779720D01*
X79273340Y-60819720D02*
X76097340Y-60819720D01*
X73615340Y-60819720D02*
X70439340Y-60819720D01*
X79251340Y-60859720D02*
X76097340Y-60859720D01*
X73615340Y-60859720D02*
X70461340Y-60859720D01*
X79227340Y-60899720D02*
X76097340Y-60899720D01*
X73615340Y-60899720D02*
X70485340Y-60899720D01*
X79203340Y-60939720D02*
X76097340Y-60939720D01*
X73615340Y-60939720D02*
X70509340Y-60939720D01*
X79179340Y-60979720D02*
X76097340Y-60979720D01*
X73615340Y-60979720D02*
X70533340Y-60979720D01*
X79154340Y-61019720D02*
X76097340Y-61019720D01*
X73615340Y-61019720D02*
X70558340Y-61019720D01*
X79129340Y-61059720D02*
X76097340Y-61059720D01*
X73615340Y-61059720D02*
X70583340Y-61059720D01*
X79103340Y-61099720D02*
X76097340Y-61099720D01*
X73615340Y-61099720D02*
X70609340Y-61099720D01*
X79077340Y-61139720D02*
X76097340Y-61139720D01*
X73615340Y-61139720D02*
X70635340Y-61139720D01*
X79050340Y-61179720D02*
X76097340Y-61179720D01*
X73615340Y-61179720D02*
X70662340Y-61179720D01*
X79022340Y-61219720D02*
X76097340Y-61219720D01*
X73615340Y-61219720D02*
X70690340Y-61219720D01*
X78994340Y-61259720D02*
X76097340Y-61259720D01*
X73615340Y-61259720D02*
X70718340Y-61259720D01*
X78966340Y-61299720D02*
X76097340Y-61299720D01*
X73615340Y-61299720D02*
X70746340Y-61299720D01*
X78936340Y-61339720D02*
X76097340Y-61339720D01*
X73615340Y-61339720D02*
X70776340Y-61339720D01*
X78906340Y-61379720D02*
X76097340Y-61379720D01*
X73615340Y-61379720D02*
X70806340Y-61379720D01*
X78876340Y-61419720D02*
X76097340Y-61419720D01*
X73615340Y-61419720D02*
X70836340Y-61419720D01*
X78845340Y-61459720D02*
X76097340Y-61459720D01*
X73615340Y-61459720D02*
X70867340Y-61459720D01*
X78813340Y-61499720D02*
X76097340Y-61499720D01*
X73615340Y-61499720D02*
X70899340Y-61499720D01*
X78781340Y-61539720D02*
X76097340Y-61539720D01*
X73615340Y-61539720D02*
X70931340Y-61539720D01*
X78748340Y-61579720D02*
X76097340Y-61579720D01*
X73615340Y-61579720D02*
X70964340Y-61579720D01*
X78714340Y-61619720D02*
X76097340Y-61619720D01*
X73615340Y-61619720D02*
X70998340Y-61619720D01*
X78680340Y-61659720D02*
X76097340Y-61659720D01*
X73615340Y-61659720D02*
X71032340Y-61659720D01*
X78645340Y-61699720D02*
X76097340Y-61699720D01*
X73615340Y-61699720D02*
X71067340Y-61699720D01*
X78609340Y-61739720D02*
X76097340Y-61739720D01*
X73615340Y-61739720D02*
X71103340Y-61739720D01*
X78572340Y-61779720D02*
X76097340Y-61779720D01*
X73615340Y-61779720D02*
X71140340Y-61779720D01*
X78535340Y-61819720D02*
X76097340Y-61819720D01*
X73615340Y-61819720D02*
X71177340Y-61819720D01*
X78496340Y-61859720D02*
X76097340Y-61859720D01*
X73615340Y-61859720D02*
X71216340Y-61859720D01*
X78457340Y-61899720D02*
X76097340Y-61899720D01*
X73615340Y-61899720D02*
X71255340Y-61899720D01*
X78417340Y-61939720D02*
X76097340Y-61939720D01*
X73615340Y-61939720D02*
X71295340Y-61939720D01*
X78376340Y-61979720D02*
X76097340Y-61979720D01*
X73615340Y-61979720D02*
X71336340Y-61979720D01*
X78334340Y-62019720D02*
X76097340Y-62019720D01*
X73615340Y-62019720D02*
X71378340Y-62019720D01*
X78292340Y-62059720D02*
X71420340Y-62059720D01*
X78248340Y-62099720D02*
X71464340Y-62099720D01*
X78203340Y-62139720D02*
X71509340Y-62139720D01*
X78157340Y-62179720D02*
X71555340Y-62179720D01*
X78110340Y-62219720D02*
X71602340Y-62219720D01*
X78062340Y-62259720D02*
X71650340Y-62259720D01*
X78012340Y-62299720D02*
X71700340Y-62299720D01*
X77962340Y-62339720D02*
X71750340Y-62339720D01*
X77910340Y-62379720D02*
X71802340Y-62379720D01*
X77856340Y-62419720D02*
X71856340Y-62419720D01*
X77801340Y-62459720D02*
X71911340Y-62459720D01*
X77745340Y-62499720D02*
X71967340Y-62499720D01*
X77686340Y-62539720D02*
X72026340Y-62539720D01*
X77626340Y-62579720D02*
X72086340Y-62579720D01*
X77565340Y-62619720D02*
X72147340Y-62619720D01*
X77501340Y-62659720D02*
X72211340Y-62659720D01*
X77435340Y-62699720D02*
X72277340Y-62699720D01*
X77366340Y-62739720D02*
X72346340Y-62739720D01*
X77295340Y-62779720D02*
X72417340Y-62779720D01*
X77221340Y-62819720D02*
X72491340Y-62819720D01*
X77145340Y-62859720D02*
X72567340Y-62859720D01*
X77065340Y-62899720D02*
X72647340Y-62899720D01*
X76981340Y-62939720D02*
X72731340Y-62939720D01*
X76893340Y-62979720D02*
X72819340Y-62979720D01*
X76800340Y-63019720D02*
X72912340Y-63019720D01*
X76702340Y-63059720D02*
X73010340Y-63059720D01*
X76598340Y-63099720D02*
X73114340Y-63099720D01*
X76486340Y-63139720D02*
X73226340Y-63139720D01*
X76366340Y-63179720D02*
X73346340Y-63179720D01*
X76234340Y-63219720D02*
X73478340Y-63219720D01*
X76086340Y-63259720D02*
X73626340Y-63259720D01*
X75918340Y-63299720D02*
X73794340Y-63299720D01*
X75718340Y-63339720D02*
X73994340Y-63339720D01*
X75455340Y-63379720D02*
X74257340Y-63379720D01*
X77731340Y-52819074D02*
X77731340Y-53819074D01*
X78231340Y-53319074D02*
X77231340Y-53319074D01*
%TO.C,C5*%
X58199960Y-64087680D02*
X52959960Y-64087680D01*
X58199960Y-61347680D02*
X52959960Y-61347680D01*
X58199960Y-64087680D02*
X58199960Y-61347680D01*
X52959960Y-64087680D02*
X52959960Y-61347680D01*
%TO.C,C3*%
X75551360Y-93532020D02*
X80791360Y-93532020D01*
X75551360Y-96272020D02*
X80791360Y-96272020D01*
X75551360Y-93532020D02*
X75551360Y-96272020D01*
X80791360Y-93532020D02*
X80791360Y-96272020D01*
%TO.C,C2*%
X72848140Y-66420060D02*
X72848140Y-71660060D01*
X70108140Y-66420060D02*
X70108140Y-71660060D01*
X72848140Y-66420060D02*
X70108140Y-66420060D01*
X72848140Y-71660060D02*
X70108140Y-71660060D01*
%TO.C,A1*%
X118872000Y-66903600D02*
X121412000Y-66903600D01*
X121412000Y-66903600D02*
X121412000Y-64233600D01*
X118872000Y-64233600D02*
X80642000Y-64233600D01*
X124082000Y-64233600D02*
X121412000Y-64233600D01*
X121412000Y-79603600D02*
X121412000Y-82273600D01*
X121412000Y-79603600D02*
X83312000Y-79603600D01*
X83312000Y-79603600D02*
X83312000Y-82273600D01*
X118872000Y-66903600D02*
X118872000Y-64233600D01*
X118872000Y-66903600D02*
X83312000Y-66903600D01*
X83312000Y-66903600D02*
X83312000Y-64233600D01*
X80642000Y-64233600D02*
X80642000Y-82273600D01*
X80642000Y-82273600D02*
X124082000Y-82273600D01*
X124082000Y-82273600D02*
X124082000Y-64233600D01*
%TO.C,J4*%
D10*
X60757086Y-40641240D02*
X60757086Y-41355526D01*
X60709467Y-41498383D01*
X60614229Y-41593621D01*
X60471372Y-41641240D01*
X60376134Y-41641240D01*
X61661848Y-40974574D02*
X61661848Y-41641240D01*
X61423753Y-40593621D02*
X61185658Y-41307907D01*
X61804705Y-41307907D01*
%TO.C,J3*%
X91701240Y-59075913D02*
X92415526Y-59075913D01*
X92558383Y-59123532D01*
X92653621Y-59218770D01*
X92701240Y-59361627D01*
X92701240Y-59456865D01*
X91701240Y-58694960D02*
X91701240Y-58075913D01*
X92082193Y-58409246D01*
X92082193Y-58266389D01*
X92129812Y-58171151D01*
X92177431Y-58123532D01*
X92272669Y-58075913D01*
X92510764Y-58075913D01*
X92606002Y-58123532D01*
X92653621Y-58171151D01*
X92701240Y-58266389D01*
X92701240Y-58552103D01*
X92653621Y-58647341D01*
X92606002Y-58694960D01*
%TO.C,U2*%
X82374835Y-109972860D02*
X82374835Y-110782384D01*
X82422454Y-110877622D01*
X82470073Y-110925241D01*
X82565311Y-110972860D01*
X82755787Y-110972860D01*
X82851025Y-110925241D01*
X82898644Y-110877622D01*
X82946263Y-110782384D01*
X82946263Y-109972860D01*
X83374835Y-110068099D02*
X83422454Y-110020480D01*
X83517692Y-109972860D01*
X83755787Y-109972860D01*
X83851025Y-110020480D01*
X83898644Y-110068099D01*
X83946263Y-110163337D01*
X83946263Y-110258575D01*
X83898644Y-110401432D01*
X83327216Y-110972860D01*
X83946263Y-110972860D01*
%TO.C,C4*%
X73729873Y-77547102D02*
X73682254Y-77594721D01*
X73539397Y-77642340D01*
X73444159Y-77642340D01*
X73301301Y-77594721D01*
X73206063Y-77499483D01*
X73158444Y-77404245D01*
X73110825Y-77213769D01*
X73110825Y-77070912D01*
X73158444Y-76880436D01*
X73206063Y-76785198D01*
X73301301Y-76689960D01*
X73444159Y-76642340D01*
X73539397Y-76642340D01*
X73682254Y-76689960D01*
X73729873Y-76737579D01*
X74587016Y-76975674D02*
X74587016Y-77642340D01*
X74348920Y-76594721D02*
X74110825Y-77309007D01*
X74729873Y-77309007D01*
X72253682Y-81642340D02*
X72348920Y-81642340D01*
X72444159Y-81689960D01*
X72491778Y-81737579D01*
X72539397Y-81832817D01*
X72587016Y-82023293D01*
X72587016Y-82261388D01*
X72539397Y-82451864D01*
X72491778Y-82547102D01*
X72444159Y-82594721D01*
X72348920Y-82642340D01*
X72253682Y-82642340D01*
X72158444Y-82594721D01*
X72110825Y-82547102D01*
X72063206Y-82451864D01*
X72015587Y-82261388D01*
X72015587Y-82023293D01*
X72063206Y-81832817D01*
X72110825Y-81737579D01*
X72158444Y-81689960D01*
X72253682Y-81642340D01*
X73015587Y-82547102D02*
X73063206Y-82594721D01*
X73015587Y-82642340D01*
X72967968Y-82594721D01*
X73015587Y-82547102D01*
X73015587Y-82642340D01*
X74015587Y-82642340D02*
X73444159Y-82642340D01*
X73729873Y-82642340D02*
X73729873Y-81642340D01*
X73634635Y-81785198D01*
X73539397Y-81880436D01*
X73444159Y-81928055D01*
X74872730Y-81975674D02*
X74872730Y-82642340D01*
X74444159Y-81975674D02*
X74444159Y-82499483D01*
X74491778Y-82594721D01*
X74587016Y-82642340D01*
X74729873Y-82642340D01*
X74825111Y-82594721D01*
X74872730Y-82547102D01*
X75682254Y-82118531D02*
X75348920Y-82118531D01*
X75348920Y-82642340D02*
X75348920Y-81642340D01*
X75825111Y-81642340D01*
%TO.C,J1*%
X89508260Y-85832273D02*
X90222546Y-85832273D01*
X90365403Y-85879892D01*
X90460641Y-85975130D01*
X90508260Y-86117987D01*
X90508260Y-86213225D01*
X90508260Y-84832273D02*
X90508260Y-85403701D01*
X90508260Y-85117987D02*
X89508260Y-85117987D01*
X89651118Y-85213225D01*
X89746356Y-85308463D01*
X89793975Y-85403701D01*
%TO.C,J2*%
X89668100Y-104788293D02*
X90382386Y-104788293D01*
X90525243Y-104835912D01*
X90620481Y-104931150D01*
X90668100Y-105074007D01*
X90668100Y-105169245D01*
X89763339Y-104359721D02*
X89715720Y-104312102D01*
X89668100Y-104216864D01*
X89668100Y-103978769D01*
X89715720Y-103883531D01*
X89763339Y-103835912D01*
X89858577Y-103788293D01*
X89953815Y-103788293D01*
X90096672Y-103835912D01*
X90668100Y-104407340D01*
X90668100Y-103788293D01*
%TO.C,C1*%
X80511353Y-62033422D02*
X80463734Y-62081041D01*
X80320877Y-62128660D01*
X80225639Y-62128660D01*
X80082781Y-62081041D01*
X79987543Y-61985803D01*
X79939924Y-61890565D01*
X79892305Y-61700089D01*
X79892305Y-61557232D01*
X79939924Y-61366756D01*
X79987543Y-61271518D01*
X80082781Y-61176280D01*
X80225639Y-61128660D01*
X80320877Y-61128660D01*
X80463734Y-61176280D01*
X80511353Y-61223899D01*
X81463734Y-62128660D02*
X80892305Y-62128660D01*
X81178020Y-62128660D02*
X81178020Y-61128660D01*
X81082781Y-61271518D01*
X80987543Y-61366756D01*
X80892305Y-61414375D01*
X78489110Y-63612020D02*
X77917681Y-63612020D01*
X78203396Y-63612020D02*
X78203396Y-62612020D01*
X78108158Y-62754878D01*
X78012920Y-62850116D01*
X77917681Y-62897735D01*
X79108158Y-62612020D02*
X79203396Y-62612020D01*
X79298634Y-62659640D01*
X79346253Y-62707259D01*
X79393872Y-62802497D01*
X79441491Y-62992973D01*
X79441491Y-63231068D01*
X79393872Y-63421544D01*
X79346253Y-63516782D01*
X79298634Y-63564401D01*
X79203396Y-63612020D01*
X79108158Y-63612020D01*
X79012920Y-63564401D01*
X78965300Y-63516782D01*
X78917681Y-63421544D01*
X78870062Y-63231068D01*
X78870062Y-62992973D01*
X78917681Y-62802497D01*
X78965300Y-62707259D01*
X79012920Y-62659640D01*
X79108158Y-62612020D01*
X80060539Y-62612020D02*
X80155777Y-62612020D01*
X80251015Y-62659640D01*
X80298634Y-62707259D01*
X80346253Y-62802497D01*
X80393872Y-62992973D01*
X80393872Y-63231068D01*
X80346253Y-63421544D01*
X80298634Y-63516782D01*
X80251015Y-63564401D01*
X80155777Y-63612020D01*
X80060539Y-63612020D01*
X79965300Y-63564401D01*
X79917681Y-63516782D01*
X79870062Y-63421544D01*
X79822443Y-63231068D01*
X79822443Y-62992973D01*
X79870062Y-62802497D01*
X79917681Y-62707259D01*
X79965300Y-62659640D01*
X80060539Y-62612020D01*
X81012920Y-62612020D02*
X81108158Y-62612020D01*
X81203396Y-62659640D01*
X81251015Y-62707259D01*
X81298634Y-62802497D01*
X81346253Y-62992973D01*
X81346253Y-63231068D01*
X81298634Y-63421544D01*
X81251015Y-63516782D01*
X81203396Y-63564401D01*
X81108158Y-63612020D01*
X81012920Y-63612020D01*
X80917681Y-63564401D01*
X80870062Y-63516782D01*
X80822443Y-63421544D01*
X80774824Y-63231068D01*
X80774824Y-62992973D01*
X80822443Y-62802497D01*
X80870062Y-62707259D01*
X80917681Y-62659640D01*
X81012920Y-62612020D01*
X82203396Y-62945354D02*
X82203396Y-63612020D01*
X81774824Y-62945354D02*
X81774824Y-63469163D01*
X81822443Y-63564401D01*
X81917681Y-63612020D01*
X82060539Y-63612020D01*
X82155777Y-63564401D01*
X82203396Y-63516782D01*
X83012920Y-63088211D02*
X82679586Y-63088211D01*
X82679586Y-63612020D02*
X82679586Y-62612020D01*
X83155777Y-62612020D01*
%TO.C,U1*%
X81470060Y-89712544D02*
X82279584Y-89712544D01*
X82374822Y-89664925D01*
X82422441Y-89617306D01*
X82470060Y-89522068D01*
X82470060Y-89331592D01*
X82422441Y-89236354D01*
X82374822Y-89188735D01*
X82279584Y-89141116D01*
X81470060Y-89141116D01*
X82470060Y-88141116D02*
X82470060Y-88712544D01*
X82470060Y-88426830D02*
X81470060Y-88426830D01*
X81612918Y-88522068D01*
X81708156Y-88617306D01*
X81755775Y-88712544D01*
X119245640Y-100130928D02*
X118245640Y-100130928D01*
X118959926Y-99797595D01*
X118245640Y-99464261D01*
X119245640Y-99464261D01*
X119150402Y-98416642D02*
X119198021Y-98464261D01*
X119245640Y-98607119D01*
X119245640Y-98702357D01*
X119198021Y-98845214D01*
X119102783Y-98940452D01*
X119007545Y-98988071D01*
X118817069Y-99035690D01*
X118674212Y-99035690D01*
X118483736Y-98988071D01*
X118388498Y-98940452D01*
X118293260Y-98845214D01*
X118245640Y-98702357D01*
X118245640Y-98607119D01*
X118293260Y-98464261D01*
X118340879Y-98416642D01*
X119245640Y-97988071D02*
X118245640Y-97988071D01*
X118245640Y-97607119D01*
X118293260Y-97511880D01*
X118340879Y-97464261D01*
X118436117Y-97416642D01*
X118578974Y-97416642D01*
X118674212Y-97464261D01*
X118721831Y-97511880D01*
X118769450Y-97607119D01*
X118769450Y-97988071D01*
X118340879Y-97035690D02*
X118293260Y-96988071D01*
X118245640Y-96892833D01*
X118245640Y-96654738D01*
X118293260Y-96559500D01*
X118340879Y-96511880D01*
X118436117Y-96464261D01*
X118531355Y-96464261D01*
X118674212Y-96511880D01*
X119245640Y-97083309D01*
X119245640Y-96464261D01*
X118245640Y-96130928D02*
X118245640Y-95511880D01*
X118626593Y-95845214D01*
X118626593Y-95702357D01*
X118674212Y-95607119D01*
X118721831Y-95559500D01*
X118817069Y-95511880D01*
X119055164Y-95511880D01*
X119150402Y-95559500D01*
X119198021Y-95607119D01*
X119245640Y-95702357D01*
X119245640Y-95988071D01*
X119198021Y-96083309D01*
X119150402Y-96130928D01*
X118245640Y-94892833D02*
X118245640Y-94797595D01*
X118293260Y-94702357D01*
X118340879Y-94654738D01*
X118436117Y-94607119D01*
X118626593Y-94559500D01*
X118864688Y-94559500D01*
X119055164Y-94607119D01*
X119150402Y-94654738D01*
X119198021Y-94702357D01*
X119245640Y-94797595D01*
X119245640Y-94892833D01*
X119198021Y-94988071D01*
X119150402Y-95035690D01*
X119055164Y-95083309D01*
X118864688Y-95130928D01*
X118626593Y-95130928D01*
X118436117Y-95083309D01*
X118340879Y-95035690D01*
X118293260Y-94988071D01*
X118245640Y-94892833D01*
X119245640Y-93607119D02*
X119245640Y-94178547D01*
X119245640Y-93892833D02*
X118245640Y-93892833D01*
X118388498Y-93988071D01*
X118483736Y-94083309D01*
X118531355Y-94178547D01*
X118245640Y-93273785D02*
X118245640Y-92607119D01*
X119245640Y-93035690D01*
X119340879Y-92464261D02*
X119340879Y-91702357D01*
X119198021Y-91511880D02*
X119245640Y-91369023D01*
X119245640Y-91130928D01*
X119198021Y-91035690D01*
X119150402Y-90988071D01*
X119055164Y-90940452D01*
X118959926Y-90940452D01*
X118864688Y-90988071D01*
X118817069Y-91035690D01*
X118769450Y-91130928D01*
X118721831Y-91321404D01*
X118674212Y-91416642D01*
X118626593Y-91464261D01*
X118531355Y-91511880D01*
X118436117Y-91511880D01*
X118340879Y-91464261D01*
X118293260Y-91416642D01*
X118245640Y-91321404D01*
X118245640Y-91083309D01*
X118293260Y-90940452D01*
X119245640Y-90511880D02*
X118245640Y-90511880D01*
X118245640Y-90130928D01*
X118293260Y-90035690D01*
X118340879Y-89988071D01*
X118436117Y-89940452D01*
X118578974Y-89940452D01*
X118674212Y-89988071D01*
X118721831Y-90035690D01*
X118769450Y-90130928D01*
X118769450Y-90511880D01*
%TO.C,RG1*%
X63577553Y-60147460D02*
X63244220Y-59671270D01*
X63006124Y-60147460D02*
X63006124Y-59147460D01*
X63387077Y-59147460D01*
X63482315Y-59195080D01*
X63529934Y-59242699D01*
X63577553Y-59337937D01*
X63577553Y-59480794D01*
X63529934Y-59576032D01*
X63482315Y-59623651D01*
X63387077Y-59671270D01*
X63006124Y-59671270D01*
X64529934Y-59195080D02*
X64434696Y-59147460D01*
X64291839Y-59147460D01*
X64148981Y-59195080D01*
X64053743Y-59290318D01*
X64006124Y-59385556D01*
X63958505Y-59576032D01*
X63958505Y-59718889D01*
X64006124Y-59909365D01*
X64053743Y-60004603D01*
X64148981Y-60099841D01*
X64291839Y-60147460D01*
X64387077Y-60147460D01*
X64529934Y-60099841D01*
X64577553Y-60052222D01*
X64577553Y-59718889D01*
X64387077Y-59718889D01*
X65529934Y-60147460D02*
X64958505Y-60147460D01*
X65244220Y-60147460D02*
X65244220Y-59147460D01*
X65148981Y-59290318D01*
X65053743Y-59385556D01*
X64958505Y-59433175D01*
X59409913Y-61646060D02*
X59409913Y-60979394D01*
X59409913Y-61074632D02*
X59457532Y-61027013D01*
X59552770Y-60979394D01*
X59695627Y-60979394D01*
X59790865Y-61027013D01*
X59838484Y-61122251D01*
X59838484Y-61646060D01*
X59838484Y-61122251D02*
X59886103Y-61027013D01*
X59981341Y-60979394D01*
X60124199Y-60979394D01*
X60219437Y-61027013D01*
X60267056Y-61122251D01*
X60267056Y-61646060D01*
X60743246Y-61122251D02*
X61076580Y-61122251D01*
X61219437Y-61646060D02*
X60743246Y-61646060D01*
X60743246Y-60646060D01*
X61219437Y-60646060D01*
X61552770Y-60646060D02*
X62219437Y-60646060D01*
X61552770Y-61646060D01*
X62219437Y-61646060D01*
X62600389Y-61646060D02*
X62600389Y-60646060D01*
X62838484Y-60646060D01*
X62981341Y-60693680D01*
X63076580Y-60788918D01*
X63124199Y-60884156D01*
X63171818Y-61074632D01*
X63171818Y-61217489D01*
X63124199Y-61407965D01*
X63076580Y-61503203D01*
X62981341Y-61598441D01*
X62838484Y-61646060D01*
X62600389Y-61646060D01*
X63505151Y-60646060D02*
X64171818Y-60646060D01*
X63743246Y-61646060D01*
X65076580Y-61646060D02*
X64505151Y-61646060D01*
X64790865Y-61646060D02*
X64790865Y-60646060D01*
X64695627Y-60788918D01*
X64600389Y-60884156D01*
X64505151Y-60931775D01*
X65457532Y-60741299D02*
X65505151Y-60693680D01*
X65600389Y-60646060D01*
X65838484Y-60646060D01*
X65933722Y-60693680D01*
X65981341Y-60741299D01*
X66028960Y-60836537D01*
X66028960Y-60931775D01*
X65981341Y-61074632D01*
X65409913Y-61646060D01*
X66028960Y-61646060D01*
X66648008Y-60646060D02*
X66743246Y-60646060D01*
X66838484Y-60693680D01*
X66886103Y-60741299D01*
X66933722Y-60836537D01*
X66981341Y-61027013D01*
X66981341Y-61265108D01*
X66933722Y-61455584D01*
X66886103Y-61550822D01*
X66838484Y-61598441D01*
X66743246Y-61646060D01*
X66648008Y-61646060D01*
X66552770Y-61598441D01*
X66505151Y-61550822D01*
X66457532Y-61455584D01*
X66409913Y-61265108D01*
X66409913Y-61027013D01*
X66457532Y-60836537D01*
X66505151Y-60741299D01*
X66552770Y-60693680D01*
X66648008Y-60646060D01*
X67362294Y-60741299D02*
X67409913Y-60693680D01*
X67505151Y-60646060D01*
X67743246Y-60646060D01*
X67838484Y-60693680D01*
X67886103Y-60741299D01*
X67933722Y-60836537D01*
X67933722Y-60931775D01*
X67886103Y-61074632D01*
X67314675Y-61646060D01*
X67933722Y-61646060D01*
X68314675Y-61360346D02*
X68790865Y-61360346D01*
X68219437Y-61646060D02*
X68552770Y-60646060D01*
X68886103Y-61646060D01*
X60780680Y-65240609D02*
X61780680Y-64907276D01*
X60780680Y-64573942D01*
X61780680Y-64240609D02*
X61114014Y-64240609D01*
X60780680Y-64240609D02*
X60828300Y-64288228D01*
X60875919Y-64240609D01*
X60828300Y-64192990D01*
X60780680Y-64240609D01*
X60875919Y-64240609D01*
X61114014Y-63764419D02*
X61780680Y-63764419D01*
X61209252Y-63764419D02*
X61161633Y-63716800D01*
X61114014Y-63621561D01*
X61114014Y-63478704D01*
X61161633Y-63383466D01*
X61256871Y-63335847D01*
X61780680Y-63335847D01*
X63393700Y-64573942D02*
X63346080Y-64669180D01*
X63346080Y-64812038D01*
X63393700Y-64954895D01*
X63488938Y-65050133D01*
X63584176Y-65097752D01*
X63774652Y-65145371D01*
X63917509Y-65145371D01*
X64107985Y-65097752D01*
X64203223Y-65050133D01*
X64298461Y-64954895D01*
X64346080Y-64812038D01*
X64346080Y-64716799D01*
X64298461Y-64573942D01*
X64250842Y-64526323D01*
X63917509Y-64526323D01*
X63917509Y-64716799D01*
X64346080Y-64097752D02*
X63346080Y-64097752D01*
X64346080Y-63526323D01*
X63346080Y-63526323D01*
X64346080Y-63050133D02*
X63346080Y-63050133D01*
X63346080Y-62812038D01*
X63393700Y-62669180D01*
X63488938Y-62573942D01*
X63584176Y-62526323D01*
X63774652Y-62478704D01*
X63917509Y-62478704D01*
X64107985Y-62526323D01*
X64203223Y-62573942D01*
X64298461Y-62669180D01*
X64346080Y-62812038D01*
X64346080Y-63050133D01*
X65860680Y-65240609D02*
X66860680Y-64907276D01*
X65860680Y-64573942D01*
X66860680Y-64097752D02*
X66813061Y-64192990D01*
X66765442Y-64240609D01*
X66670204Y-64288228D01*
X66384490Y-64288228D01*
X66289252Y-64240609D01*
X66241633Y-64192990D01*
X66194014Y-64097752D01*
X66194014Y-63954895D01*
X66241633Y-63859657D01*
X66289252Y-63812038D01*
X66384490Y-63764419D01*
X66670204Y-63764419D01*
X66765442Y-63812038D01*
X66813061Y-63859657D01*
X66860680Y-63954895D01*
X66860680Y-64097752D01*
X66194014Y-62907276D02*
X66860680Y-62907276D01*
X66194014Y-63335847D02*
X66717823Y-63335847D01*
X66813061Y-63288228D01*
X66860680Y-63192990D01*
X66860680Y-63050133D01*
X66813061Y-62954895D01*
X66765442Y-62907276D01*
X66194014Y-62573942D02*
X66194014Y-62192990D01*
X65860680Y-62431085D02*
X66717823Y-62431085D01*
X66813061Y-62383466D01*
X66860680Y-62288228D01*
X66860680Y-62192990D01*
%TO.C,R2*%
X100005140Y-78606946D02*
X99528950Y-78940280D01*
X100005140Y-79178375D02*
X99005140Y-79178375D01*
X99005140Y-78797422D01*
X99052760Y-78702184D01*
X99100379Y-78654565D01*
X99195617Y-78606946D01*
X99338474Y-78606946D01*
X99433712Y-78654565D01*
X99481331Y-78702184D01*
X99528950Y-78797422D01*
X99528950Y-79178375D01*
X99100379Y-78225994D02*
X99052760Y-78178375D01*
X99005140Y-78083137D01*
X99005140Y-77845041D01*
X99052760Y-77749803D01*
X99100379Y-77702184D01*
X99195617Y-77654565D01*
X99290855Y-77654565D01*
X99433712Y-77702184D01*
X100005140Y-78273613D01*
X100005140Y-77654565D01*
X99313074Y-74231689D02*
X99979740Y-74231689D01*
X98932121Y-74469784D02*
X99646407Y-74707880D01*
X99646407Y-74088832D01*
X99884502Y-73707880D02*
X99932121Y-73660260D01*
X99979740Y-73707880D01*
X99932121Y-73755499D01*
X99884502Y-73707880D01*
X99979740Y-73707880D01*
X98979740Y-73326927D02*
X98979740Y-72660260D01*
X99979740Y-73088832D01*
X99979740Y-72279308D02*
X98979740Y-72279308D01*
X99979740Y-71707880D02*
X99408312Y-72136451D01*
X98979740Y-71707880D02*
X99551169Y-72279308D01*
%TO.C,R3*%
X108793540Y-78581546D02*
X108317350Y-78914880D01*
X108793540Y-79152975D02*
X107793540Y-79152975D01*
X107793540Y-78772022D01*
X107841160Y-78676784D01*
X107888779Y-78629165D01*
X107984017Y-78581546D01*
X108126874Y-78581546D01*
X108222112Y-78629165D01*
X108269731Y-78676784D01*
X108317350Y-78772022D01*
X108317350Y-79152975D01*
X107793540Y-78248213D02*
X107793540Y-77629165D01*
X108174493Y-77962499D01*
X108174493Y-77819641D01*
X108222112Y-77724403D01*
X108269731Y-77676784D01*
X108364969Y-77629165D01*
X108603064Y-77629165D01*
X108698302Y-77676784D01*
X108745921Y-77724403D01*
X108793540Y-77819641D01*
X108793540Y-78105356D01*
X108745921Y-78200594D01*
X108698302Y-78248213D01*
X108203074Y-74104689D02*
X108869740Y-74104689D01*
X107822121Y-74342784D02*
X108536407Y-74580880D01*
X108536407Y-73961832D01*
X108774502Y-73580880D02*
X108822121Y-73533260D01*
X108869740Y-73580880D01*
X108822121Y-73628499D01*
X108774502Y-73580880D01*
X108869740Y-73580880D01*
X107869740Y-73199927D02*
X107869740Y-72533260D01*
X108869740Y-72961832D01*
X108869740Y-72152308D02*
X107869740Y-72152308D01*
X108869740Y-71580880D02*
X108298312Y-72009451D01*
X107869740Y-71580880D02*
X108441169Y-72152308D01*
%TO.C,R1*%
X79170233Y-101856800D02*
X78836900Y-101380610D01*
X78598804Y-101856800D02*
X78598804Y-100856800D01*
X78979757Y-100856800D01*
X79074995Y-100904420D01*
X79122614Y-100952039D01*
X79170233Y-101047277D01*
X79170233Y-101190134D01*
X79122614Y-101285372D01*
X79074995Y-101332991D01*
X78979757Y-101380610D01*
X78598804Y-101380610D01*
X80122614Y-101856800D02*
X79551185Y-101856800D01*
X79836900Y-101856800D02*
X79836900Y-100856800D01*
X79741661Y-100999658D01*
X79646423Y-101094896D01*
X79551185Y-101142515D01*
X83187943Y-101856800D02*
X82616515Y-101856800D01*
X82902229Y-101856800D02*
X82902229Y-100856800D01*
X82806991Y-100999658D01*
X82711753Y-101094896D01*
X82616515Y-101142515D01*
X83806991Y-100856800D02*
X83902229Y-100856800D01*
X83997467Y-100904420D01*
X84045086Y-100952039D01*
X84092705Y-101047277D01*
X84140324Y-101237753D01*
X84140324Y-101475848D01*
X84092705Y-101666324D01*
X84045086Y-101761562D01*
X83997467Y-101809181D01*
X83902229Y-101856800D01*
X83806991Y-101856800D01*
X83711753Y-101809181D01*
X83664134Y-101761562D01*
X83616515Y-101666324D01*
X83568896Y-101475848D01*
X83568896Y-101237753D01*
X83616515Y-101047277D01*
X83664134Y-100952039D01*
X83711753Y-100904420D01*
X83806991Y-100856800D01*
X84568896Y-101856800D02*
X84568896Y-100856800D01*
X85140324Y-101856800D02*
X84711753Y-101285372D01*
X85140324Y-100856800D02*
X84568896Y-101428229D01*
%TO.C,D1*%
D14*
X58423084Y-53653387D02*
X58423084Y-52446887D01*
X58710346Y-52446887D01*
X58882703Y-52504340D01*
X58997608Y-52619244D01*
X59055060Y-52734149D01*
X59112512Y-52963959D01*
X59112512Y-53136316D01*
X59055060Y-53366125D01*
X58997608Y-53481030D01*
X58882703Y-53595935D01*
X58710346Y-53653387D01*
X58423084Y-53653387D01*
X60261560Y-53653387D02*
X59572131Y-53653387D01*
X59916846Y-53653387D02*
X59916846Y-52446887D01*
X59801941Y-52619244D01*
X59687036Y-52734149D01*
X59572131Y-52791601D01*
X56268317Y-57006187D02*
X55578889Y-57006187D01*
X55923603Y-57006187D02*
X55923603Y-55799687D01*
X55808698Y-55972044D01*
X55693793Y-56086949D01*
X55578889Y-56144401D01*
X56785389Y-57006187D02*
X56785389Y-55799687D01*
X57474817Y-57006187D01*
X57474817Y-55799687D01*
X58623865Y-55799687D02*
X58049341Y-55799687D01*
X57991889Y-56374211D01*
X58049341Y-56316759D01*
X58164246Y-56259306D01*
X58451508Y-56259306D01*
X58566412Y-56316759D01*
X58623865Y-56374211D01*
X58681317Y-56489116D01*
X58681317Y-56776378D01*
X58623865Y-56891282D01*
X58566412Y-56948735D01*
X58451508Y-57006187D01*
X58164246Y-57006187D01*
X58049341Y-56948735D01*
X57991889Y-56891282D01*
X59715460Y-56201854D02*
X59715460Y-57006187D01*
X59428198Y-55742235D02*
X59140936Y-56604020D01*
X59887817Y-56604020D01*
X60577246Y-55799687D02*
X60692150Y-55799687D01*
X60807055Y-55857140D01*
X60864508Y-55914592D01*
X60921960Y-56029497D01*
X60979412Y-56259306D01*
X60979412Y-56546568D01*
X60921960Y-56776378D01*
X60864508Y-56891282D01*
X60807055Y-56948735D01*
X60692150Y-57006187D01*
X60577246Y-57006187D01*
X60462341Y-56948735D01*
X60404889Y-56891282D01*
X60347436Y-56776378D01*
X60289984Y-56546568D01*
X60289984Y-56259306D01*
X60347436Y-56029497D01*
X60404889Y-55914592D01*
X60462341Y-55857140D01*
X60577246Y-55799687D01*
X61726293Y-55799687D02*
X61841198Y-55799687D01*
X61956103Y-55857140D01*
X62013555Y-55914592D01*
X62071008Y-56029497D01*
X62128460Y-56259306D01*
X62128460Y-56546568D01*
X62071008Y-56776378D01*
X62013555Y-56891282D01*
X61956103Y-56948735D01*
X61841198Y-57006187D01*
X61726293Y-57006187D01*
X61611389Y-56948735D01*
X61553936Y-56891282D01*
X61496484Y-56776378D01*
X61439031Y-56546568D01*
X61439031Y-56259306D01*
X61496484Y-56029497D01*
X61553936Y-55914592D01*
X61611389Y-55857140D01*
X61726293Y-55799687D01*
%TO.C,C7*%
D10*
X113818373Y-73679322D02*
X113770754Y-73726941D01*
X113627897Y-73774560D01*
X113532659Y-73774560D01*
X113389801Y-73726941D01*
X113294563Y-73631703D01*
X113246944Y-73536465D01*
X113199325Y-73345989D01*
X113199325Y-73203132D01*
X113246944Y-73012656D01*
X113294563Y-72917418D01*
X113389801Y-72822180D01*
X113532659Y-72774560D01*
X113627897Y-72774560D01*
X113770754Y-72822180D01*
X113818373Y-72869799D01*
X114151706Y-72774560D02*
X114818373Y-72774560D01*
X114389801Y-73774560D01*
X112342182Y-74222360D02*
X112437420Y-74222360D01*
X112532659Y-74269980D01*
X112580278Y-74317599D01*
X112627897Y-74412837D01*
X112675516Y-74603313D01*
X112675516Y-74841408D01*
X112627897Y-75031884D01*
X112580278Y-75127122D01*
X112532659Y-75174741D01*
X112437420Y-75222360D01*
X112342182Y-75222360D01*
X112246944Y-75174741D01*
X112199325Y-75127122D01*
X112151706Y-75031884D01*
X112104087Y-74841408D01*
X112104087Y-74603313D01*
X112151706Y-74412837D01*
X112199325Y-74317599D01*
X112246944Y-74269980D01*
X112342182Y-74222360D01*
X113104087Y-75127122D02*
X113151706Y-75174741D01*
X113104087Y-75222360D01*
X113056468Y-75174741D01*
X113104087Y-75127122D01*
X113104087Y-75222360D01*
X114104087Y-75222360D02*
X113532659Y-75222360D01*
X113818373Y-75222360D02*
X113818373Y-74222360D01*
X113723135Y-74365218D01*
X113627897Y-74460456D01*
X113532659Y-74508075D01*
X114961230Y-74555694D02*
X114961230Y-75222360D01*
X114532659Y-74555694D02*
X114532659Y-75079503D01*
X114580278Y-75174741D01*
X114675516Y-75222360D01*
X114818373Y-75222360D01*
X114913611Y-75174741D01*
X114961230Y-75127122D01*
X115770754Y-74698551D02*
X115437420Y-74698551D01*
X115437420Y-75222360D02*
X115437420Y-74222360D01*
X115913611Y-74222360D01*
%TO.C,C6*%
X71009213Y-63956202D02*
X70961594Y-64003821D01*
X70818737Y-64051440D01*
X70723499Y-64051440D01*
X70580641Y-64003821D01*
X70485403Y-63908583D01*
X70437784Y-63813345D01*
X70390165Y-63622869D01*
X70390165Y-63480012D01*
X70437784Y-63289536D01*
X70485403Y-63194298D01*
X70580641Y-63099060D01*
X70723499Y-63051440D01*
X70818737Y-63051440D01*
X70961594Y-63099060D01*
X71009213Y-63146679D01*
X71866356Y-63051440D02*
X71675880Y-63051440D01*
X71580641Y-63099060D01*
X71533022Y-63146679D01*
X71437784Y-63289536D01*
X71390165Y-63480012D01*
X71390165Y-63860964D01*
X71437784Y-63956202D01*
X71485403Y-64003821D01*
X71580641Y-64051440D01*
X71771118Y-64051440D01*
X71866356Y-64003821D01*
X71913975Y-63956202D01*
X71961594Y-63860964D01*
X71961594Y-63622869D01*
X71913975Y-63527631D01*
X71866356Y-63480012D01*
X71771118Y-63432393D01*
X71580641Y-63432393D01*
X71485403Y-63480012D01*
X71437784Y-63527631D01*
X71390165Y-63622869D01*
X71074850Y-65590680D02*
X70503421Y-65590680D01*
X70789136Y-65590680D02*
X70789136Y-64590680D01*
X70693898Y-64733538D01*
X70598660Y-64828776D01*
X70503421Y-64876395D01*
X71693898Y-64590680D02*
X71789136Y-64590680D01*
X71884374Y-64638300D01*
X71931993Y-64685919D01*
X71979612Y-64781157D01*
X72027231Y-64971633D01*
X72027231Y-65209728D01*
X71979612Y-65400204D01*
X71931993Y-65495442D01*
X71884374Y-65543061D01*
X71789136Y-65590680D01*
X71693898Y-65590680D01*
X71598660Y-65543061D01*
X71551040Y-65495442D01*
X71503421Y-65400204D01*
X71455802Y-65209728D01*
X71455802Y-64971633D01*
X71503421Y-64781157D01*
X71551040Y-64685919D01*
X71598660Y-64638300D01*
X71693898Y-64590680D01*
X72646279Y-64590680D02*
X72741517Y-64590680D01*
X72836755Y-64638300D01*
X72884374Y-64685919D01*
X72931993Y-64781157D01*
X72979612Y-64971633D01*
X72979612Y-65209728D01*
X72931993Y-65400204D01*
X72884374Y-65495442D01*
X72836755Y-65543061D01*
X72741517Y-65590680D01*
X72646279Y-65590680D01*
X72551040Y-65543061D01*
X72503421Y-65495442D01*
X72455802Y-65400204D01*
X72408183Y-65209728D01*
X72408183Y-64971633D01*
X72455802Y-64781157D01*
X72503421Y-64685919D01*
X72551040Y-64638300D01*
X72646279Y-64590680D01*
X73598660Y-64590680D02*
X73693898Y-64590680D01*
X73789136Y-64638300D01*
X73836755Y-64685919D01*
X73884374Y-64781157D01*
X73931993Y-64971633D01*
X73931993Y-65209728D01*
X73884374Y-65400204D01*
X73836755Y-65495442D01*
X73789136Y-65543061D01*
X73693898Y-65590680D01*
X73598660Y-65590680D01*
X73503421Y-65543061D01*
X73455802Y-65495442D01*
X73408183Y-65400204D01*
X73360564Y-65209728D01*
X73360564Y-64971633D01*
X73408183Y-64781157D01*
X73455802Y-64685919D01*
X73503421Y-64638300D01*
X73598660Y-64590680D01*
X74789136Y-64924014D02*
X74789136Y-65590680D01*
X74360564Y-64924014D02*
X74360564Y-65447823D01*
X74408183Y-65543061D01*
X74503421Y-65590680D01*
X74646279Y-65590680D01*
X74741517Y-65543061D01*
X74789136Y-65495442D01*
X75598660Y-65066871D02*
X75265326Y-65066871D01*
X75265326Y-65590680D02*
X75265326Y-64590680D01*
X75741517Y-64590680D01*
%TO.C,C5*%
X55070713Y-65327802D02*
X55023094Y-65375421D01*
X54880237Y-65423040D01*
X54784999Y-65423040D01*
X54642141Y-65375421D01*
X54546903Y-65280183D01*
X54499284Y-65184945D01*
X54451665Y-64994469D01*
X54451665Y-64851612D01*
X54499284Y-64661136D01*
X54546903Y-64565898D01*
X54642141Y-64470660D01*
X54784999Y-64423040D01*
X54880237Y-64423040D01*
X55023094Y-64470660D01*
X55070713Y-64518279D01*
X55975475Y-64423040D02*
X55499284Y-64423040D01*
X55451665Y-64899231D01*
X55499284Y-64851612D01*
X55594522Y-64803993D01*
X55832618Y-64803993D01*
X55927856Y-64851612D01*
X55975475Y-64899231D01*
X56023094Y-64994469D01*
X56023094Y-65232564D01*
X55975475Y-65327802D01*
X55927856Y-65375421D01*
X55832618Y-65423040D01*
X55594522Y-65423040D01*
X55499284Y-65375421D01*
X55451665Y-65327802D01*
X53684087Y-65780659D02*
X53731706Y-65733040D01*
X53826944Y-65685420D01*
X54065040Y-65685420D01*
X54160278Y-65733040D01*
X54207897Y-65780659D01*
X54255516Y-65875897D01*
X54255516Y-65971135D01*
X54207897Y-66113992D01*
X53636468Y-66685420D01*
X54255516Y-66685420D01*
X54684087Y-66590182D02*
X54731706Y-66637801D01*
X54684087Y-66685420D01*
X54636468Y-66637801D01*
X54684087Y-66590182D01*
X54684087Y-66685420D01*
X55112659Y-65780659D02*
X55160278Y-65733040D01*
X55255516Y-65685420D01*
X55493611Y-65685420D01*
X55588849Y-65733040D01*
X55636468Y-65780659D01*
X55684087Y-65875897D01*
X55684087Y-65971135D01*
X55636468Y-66113992D01*
X55065040Y-66685420D01*
X55684087Y-66685420D01*
X56541230Y-66018754D02*
X56541230Y-66685420D01*
X56112659Y-66018754D02*
X56112659Y-66542563D01*
X56160278Y-66637801D01*
X56255516Y-66685420D01*
X56398373Y-66685420D01*
X56493611Y-66637801D01*
X56541230Y-66590182D01*
X57350754Y-66161611D02*
X57017420Y-66161611D01*
X57017420Y-66685420D02*
X57017420Y-65685420D01*
X57493611Y-65685420D01*
%TO.C,C3*%
X78339653Y-99107262D02*
X78292034Y-99154881D01*
X78149177Y-99202500D01*
X78053939Y-99202500D01*
X77911081Y-99154881D01*
X77815843Y-99059643D01*
X77768224Y-98964405D01*
X77720605Y-98773929D01*
X77720605Y-98631072D01*
X77768224Y-98440596D01*
X77815843Y-98345358D01*
X77911081Y-98250120D01*
X78053939Y-98202500D01*
X78149177Y-98202500D01*
X78292034Y-98250120D01*
X78339653Y-98297739D01*
X78672986Y-98202500D02*
X79292034Y-98202500D01*
X78958700Y-98583453D01*
X79101558Y-98583453D01*
X79196796Y-98631072D01*
X79244415Y-98678691D01*
X79292034Y-98773929D01*
X79292034Y-99012024D01*
X79244415Y-99107262D01*
X79196796Y-99154881D01*
X79101558Y-99202500D01*
X78815843Y-99202500D01*
X78720605Y-99154881D01*
X78672986Y-99107262D01*
X76637402Y-96843600D02*
X76732640Y-96843600D01*
X76827879Y-96891220D01*
X76875498Y-96938839D01*
X76923117Y-97034077D01*
X76970736Y-97224553D01*
X76970736Y-97462648D01*
X76923117Y-97653124D01*
X76875498Y-97748362D01*
X76827879Y-97795981D01*
X76732640Y-97843600D01*
X76637402Y-97843600D01*
X76542164Y-97795981D01*
X76494545Y-97748362D01*
X76446926Y-97653124D01*
X76399307Y-97462648D01*
X76399307Y-97224553D01*
X76446926Y-97034077D01*
X76494545Y-96938839D01*
X76542164Y-96891220D01*
X76637402Y-96843600D01*
X77399307Y-97748362D02*
X77446926Y-97795981D01*
X77399307Y-97843600D01*
X77351688Y-97795981D01*
X77399307Y-97748362D01*
X77399307Y-97843600D01*
X78399307Y-97843600D02*
X77827879Y-97843600D01*
X78113593Y-97843600D02*
X78113593Y-96843600D01*
X78018355Y-96986458D01*
X77923117Y-97081696D01*
X77827879Y-97129315D01*
X79256450Y-97176934D02*
X79256450Y-97843600D01*
X78827879Y-97176934D02*
X78827879Y-97700743D01*
X78875498Y-97795981D01*
X78970736Y-97843600D01*
X79113593Y-97843600D01*
X79208831Y-97795981D01*
X79256450Y-97748362D01*
X80065974Y-97319791D02*
X79732640Y-97319791D01*
X79732640Y-97843600D02*
X79732640Y-96843600D01*
X80208831Y-96843600D01*
%TO.C,C2*%
X74171513Y-68185302D02*
X74123894Y-68232921D01*
X73981037Y-68280540D01*
X73885799Y-68280540D01*
X73742941Y-68232921D01*
X73647703Y-68137683D01*
X73600084Y-68042445D01*
X73552465Y-67851969D01*
X73552465Y-67709112D01*
X73600084Y-67518636D01*
X73647703Y-67423398D01*
X73742941Y-67328160D01*
X73885799Y-67280540D01*
X73981037Y-67280540D01*
X74123894Y-67328160D01*
X74171513Y-67375779D01*
X74552465Y-67375779D02*
X74600084Y-67328160D01*
X74695322Y-67280540D01*
X74933418Y-67280540D01*
X75028656Y-67328160D01*
X75076275Y-67375779D01*
X75123894Y-67471017D01*
X75123894Y-67566255D01*
X75076275Y-67709112D01*
X74504846Y-68280540D01*
X75123894Y-68280540D01*
X73723951Y-70188080D02*
X73152522Y-70188080D01*
X73438237Y-70188080D02*
X73438237Y-69188080D01*
X73342999Y-69330938D01*
X73247760Y-69426176D01*
X73152522Y-69473795D01*
X74342999Y-69188080D02*
X74438237Y-69188080D01*
X74533475Y-69235700D01*
X74581094Y-69283319D01*
X74628713Y-69378557D01*
X74676332Y-69569033D01*
X74676332Y-69807128D01*
X74628713Y-69997604D01*
X74581094Y-70092842D01*
X74533475Y-70140461D01*
X74438237Y-70188080D01*
X74342999Y-70188080D01*
X74247760Y-70140461D01*
X74200141Y-70092842D01*
X74152522Y-69997604D01*
X74104903Y-69807128D01*
X74104903Y-69569033D01*
X74152522Y-69378557D01*
X74200141Y-69283319D01*
X74247760Y-69235700D01*
X74342999Y-69188080D01*
X75533475Y-69521414D02*
X75533475Y-70188080D01*
X75104903Y-69521414D02*
X75104903Y-70045223D01*
X75152522Y-70140461D01*
X75247760Y-70188080D01*
X75390618Y-70188080D01*
X75485856Y-70140461D01*
X75533475Y-70092842D01*
X76342999Y-69664271D02*
X76009665Y-69664271D01*
X76009665Y-70188080D02*
X76009665Y-69188080D01*
X76485856Y-69188080D01*
%TO.C,A1*%
X80049666Y-73561485D02*
X80049666Y-73085295D01*
X80335380Y-73656723D02*
X79335380Y-73323390D01*
X80335380Y-72990057D01*
X80335380Y-72132914D02*
X80335380Y-72704342D01*
X80335380Y-72418628D02*
X79335380Y-72418628D01*
X79478238Y-72513866D01*
X79573476Y-72609104D01*
X79621095Y-72704342D01*
X85184504Y-68543466D02*
X85660695Y-68543466D01*
X85089266Y-68829180D02*
X85422600Y-67829180D01*
X85755933Y-68829180D01*
X86089266Y-68829180D02*
X86089266Y-68162514D01*
X86089266Y-68352990D02*
X86136885Y-68257752D01*
X86184504Y-68210133D01*
X86279742Y-68162514D01*
X86374980Y-68162514D01*
X87136885Y-68829180D02*
X87136885Y-67829180D01*
X87136885Y-68781561D02*
X87041647Y-68829180D01*
X86851171Y-68829180D01*
X86755933Y-68781561D01*
X86708314Y-68733942D01*
X86660695Y-68638704D01*
X86660695Y-68352990D01*
X86708314Y-68257752D01*
X86755933Y-68210133D01*
X86851171Y-68162514D01*
X87041647Y-68162514D01*
X87136885Y-68210133D01*
X88041647Y-68162514D02*
X88041647Y-68829180D01*
X87613076Y-68162514D02*
X87613076Y-68686323D01*
X87660695Y-68781561D01*
X87755933Y-68829180D01*
X87898790Y-68829180D01*
X87994028Y-68781561D01*
X88041647Y-68733942D01*
X88517838Y-68829180D02*
X88517838Y-68162514D01*
X88517838Y-67829180D02*
X88470219Y-67876800D01*
X88517838Y-67924419D01*
X88565457Y-67876800D01*
X88517838Y-67829180D01*
X88517838Y-67924419D01*
X88994028Y-68162514D02*
X88994028Y-68829180D01*
X88994028Y-68257752D02*
X89041647Y-68210133D01*
X89136885Y-68162514D01*
X89279742Y-68162514D01*
X89374980Y-68210133D01*
X89422600Y-68305371D01*
X89422600Y-68829180D01*
X90041647Y-68829180D02*
X89946409Y-68781561D01*
X89898790Y-68733942D01*
X89851171Y-68638704D01*
X89851171Y-68352990D01*
X89898790Y-68257752D01*
X89946409Y-68210133D01*
X90041647Y-68162514D01*
X90184504Y-68162514D01*
X90279742Y-68210133D01*
X90327361Y-68257752D01*
X90374980Y-68352990D01*
X90374980Y-68638704D01*
X90327361Y-68733942D01*
X90279742Y-68781561D01*
X90184504Y-68829180D01*
X90041647Y-68829180D01*
X90565457Y-68924419D02*
X91327361Y-68924419D01*
X91565457Y-68829180D02*
X91565457Y-67829180D01*
X92136885Y-68829180D01*
X92136885Y-67829180D01*
X93041647Y-68829180D02*
X93041647Y-68305371D01*
X92994028Y-68210133D01*
X92898790Y-68162514D01*
X92708314Y-68162514D01*
X92613076Y-68210133D01*
X93041647Y-68781561D02*
X92946409Y-68829180D01*
X92708314Y-68829180D01*
X92613076Y-68781561D01*
X92565457Y-68686323D01*
X92565457Y-68591085D01*
X92613076Y-68495847D01*
X92708314Y-68448228D01*
X92946409Y-68448228D01*
X93041647Y-68400609D01*
X93517838Y-68162514D02*
X93517838Y-68829180D01*
X93517838Y-68257752D02*
X93565457Y-68210133D01*
X93660695Y-68162514D01*
X93803552Y-68162514D01*
X93898790Y-68210133D01*
X93946409Y-68305371D01*
X93946409Y-68829180D01*
X94565457Y-68829180D02*
X94470219Y-68781561D01*
X94422600Y-68733942D01*
X94374980Y-68638704D01*
X94374980Y-68352990D01*
X94422600Y-68257752D01*
X94470219Y-68210133D01*
X94565457Y-68162514D01*
X94708314Y-68162514D01*
X94803552Y-68210133D01*
X94851171Y-68257752D01*
X94898790Y-68352990D01*
X94898790Y-68638704D01*
X94851171Y-68733942D01*
X94803552Y-68781561D01*
X94708314Y-68829180D01*
X94565457Y-68829180D01*
X95089266Y-68924419D02*
X95851171Y-68924419D01*
X95994028Y-68162514D02*
X96232123Y-68829180D01*
X96470219Y-68162514D01*
X96755933Y-67829180D02*
X97374980Y-67829180D01*
X97041647Y-68210133D01*
X97184504Y-68210133D01*
X97279742Y-68257752D01*
X97327361Y-68305371D01*
X97374980Y-68400609D01*
X97374980Y-68638704D01*
X97327361Y-68733942D01*
X97279742Y-68781561D01*
X97184504Y-68829180D01*
X96898790Y-68829180D01*
X96803552Y-68781561D01*
X96755933Y-68733942D01*
X97803552Y-68733942D02*
X97851171Y-68781561D01*
X97803552Y-68829180D01*
X97755933Y-68781561D01*
X97803552Y-68733942D01*
X97803552Y-68829180D01*
X98184504Y-68829180D02*
X98708314Y-68162514D01*
X98184504Y-68162514D02*
X98708314Y-68829180D01*
%TD*%
M02*
