M48
; DRILL file {KiCad (5.1.9)-1} date 11/25/21 16:44:58
; FORMAT={-:-/ absolute / inch / decimal}
; #@! TF.CreationDate,2021-11-25T16:44:58-06:00
; #@! TF.GenerationSoftware,Kicad,Pcbnew,(5.1.9)-1
; #@! TF.FileFunction,Plated,1,2,PTH
FMAT,2
INCH
T1C0.0315
T2C0.0350
T3C0.0394
T4C0.0492
T5C0.0512
%
G90
G05
T1
X2.139Y-2.4692
X2.2374Y-2.4692
X2.8141Y-2.6689
X2.8141Y-2.7673
X2.8601Y-3.1374
X2.9585Y-3.1374
X3.023Y-4.0862
X3.0284Y-3.7363
X3.1268Y-3.7363
X3.262Y-3.588
X3.262Y-3.888
X3.362Y-3.588
X3.362Y-3.888
X3.423Y-4.0862
X3.462Y-3.588
X3.462Y-3.888
X3.562Y-3.588
X3.562Y-3.888
X3.662Y-3.588
X3.662Y-3.888
X3.762Y-3.588
X3.762Y-3.888
X3.862Y-3.588
X3.862Y-3.888
X3.962Y-3.588
X3.962Y-3.888
X4.0144Y-2.6852
X4.0144Y-3.0852
X4.062Y-3.588
X4.062Y-3.888
X4.162Y-3.588
X4.162Y-3.888
X4.1704Y-2.6852
X4.1704Y-3.0852
X4.262Y-3.588
X4.262Y-3.888
X4.362Y-3.588
X4.362Y-3.888
X4.4302Y-3.0387
X4.462Y-3.588
X4.462Y-3.888
X4.5286Y-3.0387
X4.562Y-3.588
X4.562Y-3.888
T2
X2.4105Y-2.6266
X2.5105Y-2.6266
X2.6105Y-2.6266
T3
X2.3395Y-3.3428
X2.3395Y-4.2428
X2.4395Y-3.3428
X2.4395Y-4.2428
X2.5395Y-3.3428
X2.5395Y-4.2428
X2.6395Y-3.3428
X2.6395Y-4.2428
X2.7395Y-3.3428
X2.7395Y-4.2428
X2.8395Y-3.3428
X2.8395Y-4.2428
X2.9395Y-3.3428
X2.9395Y-4.2428
X2.9471Y-2.1968
X2.9471Y-2.3937
X3.0395Y-3.3428
X3.0395Y-4.2428
X3.33Y-2.584
X3.33Y-3.184
X3.3817Y-2.1968
X3.3817Y-2.3937
X3.43Y-2.584
X3.43Y-3.184
X3.53Y-2.584
X3.53Y-3.184
X3.63Y-2.584
X3.63Y-3.184
X3.6522Y-4.1091
X3.6546Y-3.3661
X3.73Y-2.584
X3.73Y-3.184
X3.7409Y-2.3127
X3.7522Y-4.1091
X3.7546Y-3.3661
X3.83Y-2.584
X3.83Y-3.184
X3.8409Y-2.3127
X3.8522Y-4.1091
X3.8546Y-3.3661
X3.93Y-2.584
X3.93Y-3.184
X3.9409Y-2.3127
X3.9522Y-4.1091
X3.9546Y-3.3661
X4.03Y-2.584
X4.03Y-3.184
X4.0409Y-2.3127
X4.0522Y-4.1091
X4.0546Y-3.3661
X4.13Y-2.584
X4.13Y-3.184
X4.1409Y-2.3127
X4.1522Y-4.1091
X4.1546Y-3.3661
X4.23Y-2.584
X4.23Y-3.184
X4.2522Y-4.1091
X4.2546Y-3.3661
X4.33Y-2.584
X4.33Y-3.184
X4.3522Y-4.1091
X4.3546Y-3.3661
X4.43Y-2.584
X4.43Y-3.184
X4.4522Y-4.1091
X4.4546Y-3.3661
X4.53Y-2.584
X4.53Y-3.184
X4.5522Y-4.1091
X4.5546Y-3.3661
X4.63Y-2.584
X4.63Y-3.184
X4.73Y-2.584
X4.73Y-3.184
T4
X2.0589Y-2.1622
X2.6589Y-2.1622
T5
X2.5593Y-1.7974
X2.7561Y-1.7974
X2.953Y-1.7974
X3.1498Y-1.7974
X3.3467Y-1.7974
X3.5435Y-1.7974
X3.7404Y-1.7974
X3.9372Y-1.7974
X4.1341Y-1.7974
X4.3309Y-1.7974
T0
M30
