%TF.GenerationSoftware,KiCad,Pcbnew,(5.1.9)-1*%
%TF.CreationDate,2021-11-25T16:44:50-06:00*%
%TF.ProjectId,RC8,5243382e-6b69-4636-9164-5f7063625858,rev?*%
%TF.SameCoordinates,Original*%
%TF.FileFunction,Soldermask,Bot*%
%TF.FilePolarity,Negative*%
%FSLAX46Y46*%
G04 Gerber Fmt 4.6, Leading zero omitted, Abs format (unit mm)*
G04 Created by KiCad (PCBNEW (5.1.9)-1) date 2021-11-25 16:44:50*
%MOMM*%
%LPD*%
G01*
G04 APERTURE LIST*
%ADD10C,2.600000*%
%ADD11R,2.600000X2.600000*%
%ADD12O,1.700000X1.700000*%
%ADD13R,1.700000X1.700000*%
%ADD14O,1.600000X2.000000*%
%ADD15R,2.000000X2.000000*%
%ADD16C,1.600000*%
%ADD17C,3.200000*%
%ADD18C,2.000000*%
%ADD19O,1.600000X1.600000*%
%ADD20R,1.600000X1.600000*%
%ADD21C,1.590000*%
%ADD22C,3.703200*%
G04 APERTURE END LIST*
D10*
%TO.C,J4*%
X65005740Y-45654180D03*
X70005740Y-45654180D03*
X75005740Y-45654180D03*
X80005740Y-45654180D03*
X85005740Y-45654180D03*
X90005740Y-45654180D03*
X95005740Y-45654180D03*
X100005740Y-45654180D03*
X105005740Y-45654180D03*
D11*
X110005740Y-45654180D03*
%TD*%
D12*
%TO.C,J3*%
X105178860Y-58742580D03*
X102638860Y-58742580D03*
X100098860Y-58742580D03*
X97558860Y-58742580D03*
D13*
X95018860Y-58742580D03*
%TD*%
D14*
%TO.C,U2*%
X59423300Y-84907120D03*
X61963300Y-84907120D03*
X64503300Y-84907120D03*
X67043300Y-84907120D03*
X69583300Y-84907120D03*
X72123300Y-84907120D03*
X74663300Y-84907120D03*
X77203300Y-84907120D03*
X77203300Y-107767120D03*
X74663300Y-107767120D03*
X72123300Y-107767120D03*
X69583300Y-107767120D03*
X67043300Y-107767120D03*
X64503300Y-107767120D03*
D15*
X59423300Y-107767120D03*
D14*
X61963300Y-107767120D03*
%TD*%
D16*
%TO.C,C4*%
X75146540Y-79689960D03*
X72646540Y-79689960D03*
%TD*%
D17*
%TO.C, *%
X121432320Y-106316780D03*
%TD*%
%TO.C, *%
X121432320Y-43604180D03*
%TD*%
%TO.C, *%
X53599080Y-43604180D03*
%TD*%
%TO.C, *%
X53599080Y-106316780D03*
%TD*%
D12*
%TO.C,J1*%
X115685880Y-85498940D03*
X113145880Y-85498940D03*
X110605880Y-85498940D03*
X108065880Y-85498940D03*
X105525880Y-85498940D03*
X102985880Y-85498940D03*
X100445880Y-85498940D03*
X97905880Y-85498940D03*
X95365880Y-85498940D03*
D13*
X92825880Y-85498940D03*
%TD*%
D12*
%TO.C,J2*%
X92765880Y-104371140D03*
X95305880Y-104371140D03*
X97845880Y-104371140D03*
X100385880Y-104371140D03*
X102925880Y-104371140D03*
X105465880Y-104371140D03*
X108005880Y-104371140D03*
X110545880Y-104371140D03*
X113085880Y-104371140D03*
D13*
X115625880Y-104371140D03*
%TD*%
D18*
%TO.C,C1*%
X85895180Y-60798720D03*
D15*
X85895180Y-55798720D03*
%TD*%
D19*
%TO.C,U1*%
X115875880Y-98755040D03*
X82855880Y-91135040D03*
X113335880Y-98755040D03*
X85395880Y-91135040D03*
X110795880Y-98755040D03*
X87935880Y-91135040D03*
X108255880Y-98755040D03*
X90475880Y-91135040D03*
X105715880Y-98755040D03*
X93015880Y-91135040D03*
X103175880Y-98755040D03*
X95555880Y-91135040D03*
X100635880Y-98755040D03*
X98095880Y-91135040D03*
X98095880Y-98755040D03*
X100635880Y-91135040D03*
X95555880Y-98755040D03*
X103175880Y-91135040D03*
X93015880Y-98755040D03*
X105715880Y-91135040D03*
X90475880Y-98755040D03*
X108255880Y-91135040D03*
X87935880Y-98755040D03*
X110795880Y-91135040D03*
X85395880Y-98755040D03*
X113335880Y-91135040D03*
X82855880Y-98755040D03*
D20*
X115875880Y-91135040D03*
%TD*%
D21*
%TO.C,RG1*%
X66306700Y-66716800D03*
X63766700Y-66716800D03*
X61226700Y-66716800D03*
%TD*%
D19*
%TO.C,R2*%
X101965760Y-78364080D03*
D16*
X101965760Y-68204080D03*
%TD*%
D19*
%TO.C,R3*%
X105928160Y-78364080D03*
D16*
X105928160Y-68204080D03*
%TD*%
%TO.C,R1*%
X76784200Y-103789480D03*
D19*
X86944200Y-103789480D03*
%TD*%
D22*
%TO.C,D1*%
X67536060Y-54919880D03*
X52296060Y-54919880D03*
%TD*%
D16*
%TO.C,C7*%
X112526440Y-77182980D03*
X115026440Y-77182980D03*
%TD*%
D18*
%TO.C,C6*%
X74856340Y-60798720D03*
D15*
X74856340Y-55798720D03*
%TD*%
D16*
%TO.C,C5*%
X54329960Y-62717680D03*
X56829960Y-62717680D03*
%TD*%
%TO.C,C3*%
X79421360Y-94902020D03*
X76921360Y-94902020D03*
%TD*%
%TO.C,C2*%
X71478140Y-70290060D03*
X71478140Y-67790060D03*
%TD*%
D19*
%TO.C,A1*%
X84582000Y-80873600D03*
X84582000Y-65633600D03*
X120142000Y-80873600D03*
X87122000Y-65633600D03*
X117602000Y-80873600D03*
X89662000Y-65633600D03*
X115062000Y-80873600D03*
X92202000Y-65633600D03*
X112522000Y-80873600D03*
X94742000Y-65633600D03*
X109982000Y-80873600D03*
X97282000Y-65633600D03*
X107442000Y-80873600D03*
X99822000Y-65633600D03*
X104902000Y-80873600D03*
X102362000Y-65633600D03*
X102362000Y-80873600D03*
X104902000Y-65633600D03*
X99822000Y-80873600D03*
X107442000Y-65633600D03*
X97282000Y-80873600D03*
X109982000Y-65633600D03*
X94742000Y-80873600D03*
X112522000Y-65633600D03*
X92202000Y-80873600D03*
X115062000Y-65633600D03*
X89662000Y-80873600D03*
X117602000Y-65633600D03*
X87122000Y-80873600D03*
D20*
X120142000Y-65633600D03*
%TD*%
M02*
