M48
; DRILL file {KiCad (5.1.2)-2} date 2020-02-16 1:42:11 PM
; FORMAT={-:-/ absolute / inch / decimal}
; #@! TF.CreationDate,2020-02-16T13:42:11-06:00
; #@! TF.GenerationSoftware,Kicad,Pcbnew,(5.1.2)-2
; #@! TF.FileFunction,Plated,1,2,PTH
FMAT,2
INCH
T1C0.0157
T2C0.0315
T3C0.0320
T4C0.0350
T5C0.0354
T6C0.0394
T7C0.0492
T8C0.0512
T9C0.0591
%
G90
G05
T1
X5.1969Y-2.5591
X5.5512Y-2.3228
T2
X4.4488Y-3.4646
X4.4488Y-3.563
X5.2906Y-4.1528
X5.2906Y-4.2528
X5.2906Y-4.3528
X5.2906Y-4.4528
X5.2906Y-4.5528
X5.2906Y-4.6528
X5.2906Y-4.7528
X5.2906Y-4.8528
X5.2906Y-4.9528
X5.2906Y-5.0528
X5.2906Y-5.1528
X5.2906Y-5.2528
X5.2906Y-5.3528
X5.2906Y-5.4528
X5.5906Y-4.1528
X5.5906Y-4.2528
X5.5906Y-4.3528
X5.5906Y-4.4528
X5.5906Y-4.5528
X5.5906Y-4.6528
X5.5906Y-4.7528
X5.5906Y-4.8528
X5.5906Y-4.9528
X5.5906Y-5.0528
X5.5906Y-5.1528
X5.5906Y-5.2528
X5.5906Y-5.3528
X5.5906Y-5.4528
X5.8465Y-4.6063
X5.8465Y-4.7047
X5.4528Y-5.7087
X5.8528Y-5.7087
X4.8992Y-3.2677
X4.8992Y-3.8677
X4.9992Y-3.2677
X4.9992Y-3.8677
X5.0992Y-3.2677
X5.0992Y-3.8677
X5.1992Y-3.2677
X5.1992Y-3.8677
X5.2992Y-3.2677
X5.2992Y-3.8677
X5.3992Y-3.2677
X5.3992Y-3.8677
X5.4992Y-3.2677
X5.4992Y-3.8677
X5.5992Y-3.2677
X5.5992Y-3.8677
X5.6992Y-3.2677
X5.6992Y-3.8677
X5.7992Y-3.2677
X5.7992Y-3.8677
X5.8992Y-3.2677
X5.8992Y-3.8677
X5.9992Y-3.2677
X5.9992Y-3.8677
X6.0992Y-3.2677
X6.0992Y-3.8677
X6.1992Y-3.2677
X6.1992Y-3.8677
X6.2992Y-3.2677
X6.2992Y-3.8677
X6.1811Y-4.0551
X6.2795Y-4.0551
X4.0354Y-4.5079
X4.1339Y-4.5079
X4.1732Y-3.4646
X4.1732Y-3.563
X5.8402Y-3.7205
X6.2402Y-3.7205
X4.6457Y-4.4488
X5.0457Y-4.4488
X5.6827Y-3.5236
X6.0827Y-3.5236
T3
X3.9875Y-4.6524
X3.9875Y-4.7524
X3.9875Y-4.8524
X3.9875Y-4.9524
X3.9875Y-5.0524
X3.9875Y-5.1524
X3.9875Y-5.2524
X3.9875Y-5.3524
X3.9875Y-5.4524
X4.2875Y-4.6524
X4.2875Y-4.7524
X4.2875Y-4.8524
X4.2875Y-4.9524
X4.2875Y-5.0524
X4.2875Y-5.1524
X4.2875Y-5.2524
X4.2875Y-5.3524
X4.2875Y-5.4524
T4
X4.2062Y-3.3071
X4.3062Y-3.3071
X4.4062Y-3.3071
T5
X5.0787Y-5.6102
X5.0787Y-5.7102
T6
X5.7661Y-2.126
X5.7661Y-2.226
X5.7661Y-2.326
X5.7661Y-2.426
X5.7661Y-2.526
X5.8661Y-2.126
X5.8661Y-2.226
X5.8661Y-2.326
X5.8661Y-2.426
X5.8661Y-2.526
X5.8465Y-4.0898
X5.8465Y-4.1898
X5.8465Y-4.2898
X5.8465Y-4.3898
X6.1614Y-4.4528
X6.1614Y-4.5528
X6.1614Y-4.6528
X6.1614Y-4.7528
X6.1614Y-4.8528
X6.1614Y-4.9528
X6.1614Y-5.0528
X6.1614Y-5.1528
X6.1614Y-5.2528
X6.1614Y-5.3528
X6.1614Y-5.4528
X4.7638Y-4.7441
X4.7638Y-4.8441
X4.7638Y-4.9441
X4.7638Y-5.0441
X4.7638Y-5.1441
X4.7638Y-5.2441
X4.7638Y-5.3441
X4.7638Y-5.4441
X3.8189Y-3.0512
X3.8189Y-3.248
X4.3701Y-4.0157
X4.3701Y-4.2126
T7
X3.7157Y-2.7559
X4.3157Y-2.7559
T8
X3.7205Y-2.1654
X3.9173Y-2.1654
X4.1142Y-2.1654
X4.311Y-2.1654
X4.5079Y-2.1654
X4.7047Y-2.1654
X4.9016Y-2.1654
X5.0984Y-2.1654
X5.2953Y-2.1654
X2.2047Y-2.6555
X2.2047Y-2.8523
X2.2047Y-3.0492
X2.2047Y-3.246
X2.2047Y-3.4429
X2.2047Y-3.6397
X2.2047Y-3.8366
X2.2047Y-4.0334
X2.2047Y-4.2303
X2.2047Y-4.4271
X2.2047Y-4.624
X2.2047Y-4.8208
X2.2047Y-5.0177
X2.2047Y-5.2145
T9
X2.7688Y-3.2814
X2.9657Y-3.0649
X3.1625Y-3.2814
X3.3594Y-3.0649
X3.3594Y-3.2814
X2.7688Y-5.76
X2.9657Y-5.5435
X3.1625Y-5.76
X3.3594Y-5.5435
X3.3594Y-5.76
X2.7688Y-2.29
X2.9657Y-2.0735
X3.1625Y-2.29
X3.3594Y-2.0735
X3.3594Y-2.29
X2.7688Y-2.7857
X2.9657Y-2.5692
X3.1625Y-2.7857
X3.3594Y-2.5692
X3.3594Y-2.7857
X2.7688Y-4.7686
X2.9657Y-4.552
X3.1625Y-4.7686
X3.3594Y-4.552
X3.3594Y-4.7686
X2.7688Y-3.7771
X2.9657Y-3.5606
X3.1625Y-3.7771
X3.3594Y-3.5606
X3.3594Y-3.7771
X2.7688Y-4.2729
X2.9657Y-4.0563
X3.1625Y-4.2729
X3.3594Y-4.0563
X3.3594Y-4.2729
X2.7688Y-5.2643
X2.9657Y-5.0478
X3.1625Y-5.2643
X3.3594Y-5.0478
X3.3594Y-5.2643
T0
M30
