G04 #@! TF.GenerationSoftware,KiCad,Pcbnew,(5.1.2)-2*
G04 #@! TF.CreationDate,2020-02-16T13:42:17-06:00*
G04 #@! TF.ProjectId,RC4,5243342e-6b69-4636-9164-5f7063625858,rev?*
G04 #@! TF.SameCoordinates,Original*
G04 #@! TF.FileFunction,Legend,Top*
G04 #@! TF.FilePolarity,Positive*
%FSLAX46Y46*%
G04 Gerber Fmt 4.6, Leading zero omitted, Abs format (unit mm)*
G04 Created by KiCad (PCBNEW (5.1.2)-2) date 2020-02-16 13:42:17*
%MOMM*%
%LPD*%
G04 APERTURE LIST*
%ADD10C,0.150000*%
%ADD11C,0.120000*%
%ADD12C,0.152400*%
%ADD13C,0.100000*%
%ADD14C,0.127000*%
G04 APERTURE END LIST*
D10*
X117404761Y-138380952D02*
X117309523Y-138333333D01*
X117261904Y-138285714D01*
X117214285Y-138190476D01*
X117214285Y-138142857D01*
X117261904Y-138047619D01*
X117309523Y-138000000D01*
X117404761Y-137952380D01*
X117595238Y-137952380D01*
X117690476Y-138000000D01*
X117738095Y-138047619D01*
X117785714Y-138142857D01*
X117785714Y-138190476D01*
X117738095Y-138285714D01*
X117690476Y-138333333D01*
X117595238Y-138380952D01*
X117404761Y-138380952D01*
X117309523Y-138428571D01*
X117261904Y-138476190D01*
X117214285Y-138571428D01*
X117214285Y-138761904D01*
X117261904Y-138857142D01*
X117309523Y-138904761D01*
X117404761Y-138952380D01*
X117595238Y-138952380D01*
X117690476Y-138904761D01*
X117738095Y-138857142D01*
X117785714Y-138761904D01*
X117785714Y-138571428D01*
X117738095Y-138476190D01*
X117690476Y-138428571D01*
X117595238Y-138380952D01*
X134000000Y-63261904D02*
X133952380Y-63357142D01*
X133952380Y-63500000D01*
X134000000Y-63642857D01*
X134095238Y-63738095D01*
X134190476Y-63785714D01*
X134380952Y-63833333D01*
X134523809Y-63833333D01*
X134714285Y-63785714D01*
X134809523Y-63738095D01*
X134904761Y-63642857D01*
X134952380Y-63500000D01*
X134952380Y-63404761D01*
X134904761Y-63261904D01*
X134857142Y-63214285D01*
X134523809Y-63214285D01*
X134523809Y-63404761D01*
X134952380Y-62785714D02*
X133952380Y-62785714D01*
X134952380Y-62214285D01*
X133952380Y-62214285D01*
X134952380Y-61738095D02*
X133952380Y-61738095D01*
X133952380Y-61500000D01*
X134000000Y-61357142D01*
X134095238Y-61261904D01*
X134190476Y-61214285D01*
X134380952Y-61166666D01*
X134523809Y-61166666D01*
X134714285Y-61214285D01*
X134809523Y-61261904D01*
X134904761Y-61357142D01*
X134952380Y-61500000D01*
X134952380Y-61738095D01*
X63261904Y-113413912D02*
X62690475Y-113413912D01*
X62976190Y-113413912D02*
X62976190Y-112413912D01*
X62880952Y-112556770D01*
X62785713Y-112652008D01*
X62690475Y-112699627D01*
X63642856Y-112509151D02*
X63690475Y-112461532D01*
X63785713Y-112413912D01*
X64023809Y-112413912D01*
X64119047Y-112461532D01*
X64166666Y-112509151D01*
X64214285Y-112604389D01*
X64214285Y-112699627D01*
X64166666Y-112842484D01*
X63595237Y-113413912D01*
X64214285Y-113413912D01*
X64499999Y-112413912D02*
X64833332Y-113413912D01*
X65166666Y-112413912D01*
X63261904Y-108378404D02*
X62690475Y-108378404D01*
X62976190Y-108378404D02*
X62976190Y-107378404D01*
X62880952Y-107521262D01*
X62785713Y-107616500D01*
X62690475Y-107664119D01*
X63642856Y-107473643D02*
X63690475Y-107426024D01*
X63785713Y-107378404D01*
X64023809Y-107378404D01*
X64119047Y-107426024D01*
X64166666Y-107473643D01*
X64214285Y-107568881D01*
X64214285Y-107664119D01*
X64166666Y-107806976D01*
X63595237Y-108378404D01*
X64214285Y-108378404D01*
X64499999Y-107378404D02*
X64833332Y-108378404D01*
X65166666Y-107378404D01*
X63261904Y-97213012D02*
X63166666Y-97165392D01*
X63023809Y-97165392D01*
X62880951Y-97213012D01*
X62785713Y-97308250D01*
X62738094Y-97403488D01*
X62690475Y-97593964D01*
X62690475Y-97736821D01*
X62738094Y-97927297D01*
X62785713Y-98022535D01*
X62880951Y-98117773D01*
X63023809Y-98165392D01*
X63119047Y-98165392D01*
X63261904Y-98117773D01*
X63309523Y-98070154D01*
X63309523Y-97736821D01*
X63119047Y-97736821D01*
X63738094Y-98165392D02*
X63738094Y-97165392D01*
X64309523Y-98165392D01*
X64309523Y-97165392D01*
X64785713Y-98165392D02*
X64785713Y-97165392D01*
X65023809Y-97165392D01*
X65166666Y-97213012D01*
X65261904Y-97308250D01*
X65309523Y-97403488D01*
X65357142Y-97593964D01*
X65357142Y-97736821D01*
X65309523Y-97927297D01*
X65261904Y-98022535D01*
X65166666Y-98117773D01*
X65023809Y-98165392D01*
X64785713Y-98165392D01*
X63261904Y-92177510D02*
X63166666Y-92129890D01*
X63023809Y-92129890D01*
X62880951Y-92177510D01*
X62785713Y-92272748D01*
X62738094Y-92367986D01*
X62690475Y-92558462D01*
X62690475Y-92701319D01*
X62738094Y-92891795D01*
X62785713Y-92987033D01*
X62880951Y-93082271D01*
X63023809Y-93129890D01*
X63119047Y-93129890D01*
X63261904Y-93082271D01*
X63309523Y-93034652D01*
X63309523Y-92701319D01*
X63119047Y-92701319D01*
X63738094Y-93129890D02*
X63738094Y-92129890D01*
X64309523Y-93129890D01*
X64309523Y-92129890D01*
X64785713Y-93129890D02*
X64785713Y-92129890D01*
X65023809Y-92129890D01*
X65166666Y-92177510D01*
X65261904Y-92272748D01*
X65309523Y-92367986D01*
X65357142Y-92558462D01*
X65357142Y-92701319D01*
X65309523Y-92891795D01*
X65261904Y-92987033D01*
X65166666Y-93082271D01*
X65023809Y-93129890D01*
X64785713Y-93129890D01*
X151761904Y-56952380D02*
X151428571Y-56476190D01*
X151190476Y-56952380D02*
X151190476Y-55952380D01*
X151571428Y-55952380D01*
X151666666Y-56000000D01*
X151714285Y-56047619D01*
X151761904Y-56142857D01*
X151761904Y-56285714D01*
X151714285Y-56380952D01*
X151666666Y-56428571D01*
X151571428Y-56476190D01*
X151190476Y-56476190D01*
X152571428Y-56904761D02*
X152476190Y-56952380D01*
X152285714Y-56952380D01*
X152190476Y-56904761D01*
X152142857Y-56809523D01*
X152142857Y-56428571D01*
X152190476Y-56333333D01*
X152285714Y-56285714D01*
X152476190Y-56285714D01*
X152571428Y-56333333D01*
X152619047Y-56428571D01*
X152619047Y-56523809D01*
X152142857Y-56619047D01*
X153000000Y-56904761D02*
X153095238Y-56952380D01*
X153285714Y-56952380D01*
X153380952Y-56904761D01*
X153428571Y-56809523D01*
X153428571Y-56761904D01*
X153380952Y-56666666D01*
X153285714Y-56619047D01*
X153142857Y-56619047D01*
X153047619Y-56571428D01*
X153000000Y-56476190D01*
X153000000Y-56428571D01*
X153047619Y-56333333D01*
X153142857Y-56285714D01*
X153285714Y-56285714D01*
X153380952Y-56333333D01*
X154238095Y-56904761D02*
X154142857Y-56952380D01*
X153952380Y-56952380D01*
X153857142Y-56904761D01*
X153809523Y-56809523D01*
X153809523Y-56428571D01*
X153857142Y-56333333D01*
X153952380Y-56285714D01*
X154142857Y-56285714D01*
X154238095Y-56333333D01*
X154285714Y-56428571D01*
X154285714Y-56523809D01*
X153809523Y-56619047D01*
X154571428Y-56285714D02*
X154952380Y-56285714D01*
X154714285Y-55952380D02*
X154714285Y-56809523D01*
X154761904Y-56904761D01*
X154857142Y-56952380D01*
X154952380Y-56952380D01*
X151214285Y-59404761D02*
X151357142Y-59452380D01*
X151595238Y-59452380D01*
X151690476Y-59404761D01*
X151738095Y-59357142D01*
X151785714Y-59261904D01*
X151785714Y-59166666D01*
X151738095Y-59071428D01*
X151690476Y-59023809D01*
X151595238Y-58976190D01*
X151404761Y-58928571D01*
X151309523Y-58880952D01*
X151261904Y-58833333D01*
X151214285Y-58738095D01*
X151214285Y-58642857D01*
X151261904Y-58547619D01*
X151309523Y-58500000D01*
X151404761Y-58452380D01*
X151642857Y-58452380D01*
X151785714Y-58500000D01*
X152785714Y-59357142D02*
X152738095Y-59404761D01*
X152595238Y-59452380D01*
X152500000Y-59452380D01*
X152357142Y-59404761D01*
X152261904Y-59309523D01*
X152214285Y-59214285D01*
X152166666Y-59023809D01*
X152166666Y-58880952D01*
X152214285Y-58690476D01*
X152261904Y-58595238D01*
X152357142Y-58500000D01*
X152500000Y-58452380D01*
X152595238Y-58452380D01*
X152738095Y-58500000D01*
X152785714Y-58547619D01*
X153214285Y-59452380D02*
X153214285Y-58452380D01*
X153785714Y-59452380D02*
X153357142Y-58880952D01*
X153785714Y-58452380D02*
X153214285Y-59023809D01*
X151190476Y-61904761D02*
X151333333Y-61952380D01*
X151571428Y-61952380D01*
X151666666Y-61904761D01*
X151714285Y-61857142D01*
X151761904Y-61761904D01*
X151761904Y-61666666D01*
X151714285Y-61571428D01*
X151666666Y-61523809D01*
X151571428Y-61476190D01*
X151380952Y-61428571D01*
X151285714Y-61380952D01*
X151238095Y-61333333D01*
X151190476Y-61238095D01*
X151190476Y-61142857D01*
X151238095Y-61047619D01*
X151285714Y-61000000D01*
X151380952Y-60952380D01*
X151619047Y-60952380D01*
X151761904Y-61000000D01*
X152380952Y-60952380D02*
X152571428Y-60952380D01*
X152666666Y-61000000D01*
X152761904Y-61095238D01*
X152809523Y-61285714D01*
X152809523Y-61619047D01*
X152761904Y-61809523D01*
X152666666Y-61904761D01*
X152571428Y-61952380D01*
X152380952Y-61952380D01*
X152285714Y-61904761D01*
X152190476Y-61809523D01*
X152142857Y-61619047D01*
X152142857Y-61285714D01*
X152190476Y-61095238D01*
X152285714Y-61000000D01*
X152380952Y-60952380D01*
X151214285Y-64452380D02*
X151214285Y-63452380D01*
X151785714Y-64452380D01*
X151785714Y-63452380D01*
X152833333Y-64357142D02*
X152785714Y-64404761D01*
X152642857Y-64452380D01*
X152547619Y-64452380D01*
X152404761Y-64404761D01*
X152309523Y-64309523D01*
X152261904Y-64214285D01*
X152214285Y-64023809D01*
X152214285Y-63880952D01*
X152261904Y-63690476D01*
X152309523Y-63595238D01*
X152404761Y-63500000D01*
X152547619Y-63452380D01*
X152642857Y-63452380D01*
X152785714Y-63500000D01*
X152833333Y-63547619D01*
X142214285Y-64452380D02*
X142214285Y-63452380D01*
X142785714Y-64452380D01*
X142785714Y-63452380D01*
X143833333Y-64357142D02*
X143785714Y-64404761D01*
X143642857Y-64452380D01*
X143547619Y-64452380D01*
X143404761Y-64404761D01*
X143309523Y-64309523D01*
X143261904Y-64214285D01*
X143214285Y-64023809D01*
X143214285Y-63880952D01*
X143261904Y-63690476D01*
X143309523Y-63595238D01*
X143404761Y-63500000D01*
X143547619Y-63452380D01*
X143642857Y-63452380D01*
X143785714Y-63500000D01*
X143833333Y-63547619D01*
X142214285Y-61952380D02*
X142214285Y-60952380D01*
X142785714Y-61952380D01*
X142785714Y-60952380D01*
X143833333Y-61857142D02*
X143785714Y-61904761D01*
X143642857Y-61952380D01*
X143547619Y-61952380D01*
X143404761Y-61904761D01*
X143309523Y-61809523D01*
X143261904Y-61714285D01*
X143214285Y-61523809D01*
X143214285Y-61380952D01*
X143261904Y-61190476D01*
X143309523Y-61095238D01*
X143404761Y-61000000D01*
X143547619Y-60952380D01*
X143642857Y-60952380D01*
X143785714Y-61000000D01*
X143833333Y-61047619D01*
X142785714Y-59404761D02*
X142928571Y-59452380D01*
X143166666Y-59452380D01*
X143261904Y-59404761D01*
X143309524Y-59357142D01*
X143357143Y-59261904D01*
X143357143Y-59166666D01*
X143309524Y-59071428D01*
X143261904Y-59023809D01*
X143166666Y-58976190D01*
X142976190Y-58928571D01*
X142880952Y-58880952D01*
X142833333Y-58833333D01*
X142785714Y-58738095D01*
X142785714Y-58642857D01*
X142833333Y-58547619D01*
X142880952Y-58500000D01*
X142976190Y-58452380D01*
X143214285Y-58452380D01*
X143357143Y-58500000D01*
X143785714Y-59452380D02*
X143785714Y-58452380D01*
X142880952Y-56857142D02*
X142833333Y-56904761D01*
X142690476Y-56952380D01*
X142595238Y-56952380D01*
X142452380Y-56904761D01*
X142357142Y-56809523D01*
X142309523Y-56714285D01*
X142261904Y-56523809D01*
X142261904Y-56380952D01*
X142309523Y-56190476D01*
X142357142Y-56095238D01*
X142452380Y-56000000D01*
X142595238Y-55952380D01*
X142690476Y-55952380D01*
X142833333Y-56000000D01*
X142880952Y-56047619D01*
X143261904Y-56904761D02*
X143404761Y-56952380D01*
X143642857Y-56952380D01*
X143738095Y-56904761D01*
X143785714Y-56857142D01*
X143833333Y-56761904D01*
X143833333Y-56666666D01*
X143785714Y-56571428D01*
X143738095Y-56523809D01*
X143642857Y-56476190D01*
X143452380Y-56428571D01*
X143357142Y-56380952D01*
X143309523Y-56333333D01*
X143261904Y-56238095D01*
X143261904Y-56142857D01*
X143309523Y-56047619D01*
X143357142Y-56000000D01*
X143452380Y-55952380D01*
X143690476Y-55952380D01*
X143833333Y-56000000D01*
X141404761Y-53452380D02*
X142023809Y-53452380D01*
X141690476Y-53833333D01*
X141833333Y-53833333D01*
X141928571Y-53880952D01*
X141976190Y-53928571D01*
X142023809Y-54023809D01*
X142023809Y-54261904D01*
X141976190Y-54357142D01*
X141928571Y-54404761D01*
X141833333Y-54452380D01*
X141547618Y-54452380D01*
X141452380Y-54404761D01*
X141404761Y-54357142D01*
X142309523Y-53452380D02*
X142642857Y-54452380D01*
X142976190Y-53452380D01*
X143214285Y-53452380D02*
X143833333Y-53452380D01*
X143499999Y-53833333D01*
X143642857Y-53833333D01*
X143738095Y-53880952D01*
X143785714Y-53928571D01*
X143833333Y-54023809D01*
X143833333Y-54261904D01*
X143785714Y-54357142D01*
X143738095Y-54404761D01*
X143642857Y-54452380D01*
X143357142Y-54452380D01*
X143261904Y-54404761D01*
X143214285Y-54357142D01*
X151738095Y-53500000D02*
X151642857Y-53452380D01*
X151500000Y-53452380D01*
X151357142Y-53500000D01*
X151261904Y-53595238D01*
X151214285Y-53690476D01*
X151166666Y-53880952D01*
X151166666Y-54023809D01*
X151214285Y-54214285D01*
X151261904Y-54309523D01*
X151357142Y-54404761D01*
X151500000Y-54452380D01*
X151595238Y-54452380D01*
X151738095Y-54404761D01*
X151785714Y-54357142D01*
X151785714Y-54023809D01*
X151595238Y-54023809D01*
X152214285Y-54452380D02*
X152214285Y-53452380D01*
X152785714Y-54452380D01*
X152785714Y-53452380D01*
X153261904Y-54452380D02*
X153261904Y-53452380D01*
X153500000Y-53452380D01*
X153642857Y-53500000D01*
X153738095Y-53595238D01*
X153785714Y-53690476D01*
X153833333Y-53880952D01*
X153833333Y-54023809D01*
X153785714Y-54214285D01*
X153738095Y-54309523D01*
X153642857Y-54404761D01*
X153500000Y-54452380D01*
X153261904Y-54452380D01*
X145309523Y-111452380D02*
X144833333Y-111452380D01*
X144785714Y-111928571D01*
X144833333Y-111880952D01*
X144928571Y-111833333D01*
X145166666Y-111833333D01*
X145261904Y-111880952D01*
X145309523Y-111928571D01*
X145357142Y-112023809D01*
X145357142Y-112261904D01*
X145309523Y-112357142D01*
X145261904Y-112404761D01*
X145166666Y-112452380D01*
X144928571Y-112452380D01*
X144833333Y-112404761D01*
X144785714Y-112357142D01*
X145642857Y-111452380D02*
X145976190Y-112452380D01*
X146309523Y-111452380D01*
X144238095Y-109000000D02*
X144142857Y-108952380D01*
X144000000Y-108952380D01*
X143857142Y-109000000D01*
X143761904Y-109095238D01*
X143714285Y-109190476D01*
X143666666Y-109380952D01*
X143666666Y-109523809D01*
X143714285Y-109714285D01*
X143761904Y-109809523D01*
X143857142Y-109904761D01*
X144000000Y-109952380D01*
X144095238Y-109952380D01*
X144238095Y-109904761D01*
X144285714Y-109857142D01*
X144285714Y-109523809D01*
X144095238Y-109523809D01*
X144714285Y-109952380D02*
X144714285Y-108952380D01*
X145285714Y-109952380D01*
X145285714Y-108952380D01*
X145761904Y-109952380D02*
X145761904Y-108952380D01*
X146000000Y-108952380D01*
X146142857Y-109000000D01*
X146238095Y-109095238D01*
X146285714Y-109190476D01*
X146333333Y-109380952D01*
X146333333Y-109523809D01*
X146285714Y-109714285D01*
X146238095Y-109809523D01*
X146142857Y-109904761D01*
X146000000Y-109952380D01*
X145761904Y-109952380D01*
X143809523Y-107404761D02*
X143952380Y-107452380D01*
X144190476Y-107452380D01*
X144285714Y-107404761D01*
X144333333Y-107357142D01*
X144380952Y-107261904D01*
X144380952Y-107166666D01*
X144333333Y-107071428D01*
X144285714Y-107023809D01*
X144190476Y-106976190D01*
X144000000Y-106928571D01*
X143904761Y-106880952D01*
X143857142Y-106833333D01*
X143809523Y-106738095D01*
X143809523Y-106642857D01*
X143857142Y-106547619D01*
X143904761Y-106500000D01*
X144000000Y-106452380D01*
X144238095Y-106452380D01*
X144380952Y-106500000D01*
X145380952Y-107357142D02*
X145333333Y-107404761D01*
X145190476Y-107452380D01*
X145095238Y-107452380D01*
X144952380Y-107404761D01*
X144857142Y-107309523D01*
X144809523Y-107214285D01*
X144761904Y-107023809D01*
X144761904Y-106880952D01*
X144809523Y-106690476D01*
X144857142Y-106595238D01*
X144952380Y-106500000D01*
X145095238Y-106452380D01*
X145190476Y-106452380D01*
X145333333Y-106500000D01*
X145380952Y-106547619D01*
X146285714Y-107452380D02*
X145809523Y-107452380D01*
X145809523Y-106452380D01*
X143785714Y-104404761D02*
X143928571Y-104452380D01*
X144166666Y-104452380D01*
X144261904Y-104404761D01*
X144309523Y-104357142D01*
X144357142Y-104261904D01*
X144357142Y-104166666D01*
X144309523Y-104071428D01*
X144261904Y-104023809D01*
X144166666Y-103976190D01*
X143976190Y-103928571D01*
X143880952Y-103880952D01*
X143833333Y-103833333D01*
X143785714Y-103738095D01*
X143785714Y-103642857D01*
X143833333Y-103547619D01*
X143880952Y-103500000D01*
X143976190Y-103452380D01*
X144214285Y-103452380D01*
X144357142Y-103500000D01*
X144785714Y-104452380D02*
X144785714Y-103452380D01*
X145023809Y-103452380D01*
X145166666Y-103500000D01*
X145261904Y-103595238D01*
X145309523Y-103690476D01*
X145357142Y-103880952D01*
X145357142Y-104023809D01*
X145309523Y-104214285D01*
X145261904Y-104309523D01*
X145166666Y-104404761D01*
X145023809Y-104452380D01*
X144785714Y-104452380D01*
X145738095Y-104166666D02*
X146214285Y-104166666D01*
X145642857Y-104452380D02*
X145976190Y-103452380D01*
X146309523Y-104452380D01*
X117166666Y-135452380D02*
X117833333Y-135452380D01*
X117404761Y-136452380D01*
X117690476Y-132869045D02*
X117500000Y-132869045D01*
X117404761Y-132916665D01*
X117357142Y-132964284D01*
X117261904Y-133107141D01*
X117214285Y-133297617D01*
X117214285Y-133678569D01*
X117261904Y-133773807D01*
X117309523Y-133821426D01*
X117404761Y-133869045D01*
X117595238Y-133869045D01*
X117690476Y-133821426D01*
X117738095Y-133773807D01*
X117785714Y-133678569D01*
X117785714Y-133440474D01*
X117738095Y-133345236D01*
X117690476Y-133297617D01*
X117595238Y-133249998D01*
X117404761Y-133249998D01*
X117309523Y-133297617D01*
X117261904Y-133345236D01*
X117214285Y-133440474D01*
X117738095Y-130285712D02*
X117261904Y-130285712D01*
X117214285Y-130761903D01*
X117261904Y-130714284D01*
X117357142Y-130666665D01*
X117595238Y-130666665D01*
X117690476Y-130714284D01*
X117738095Y-130761903D01*
X117785714Y-130857141D01*
X117785714Y-131095236D01*
X117738095Y-131190474D01*
X117690476Y-131238093D01*
X117595238Y-131285712D01*
X117357142Y-131285712D01*
X117261904Y-131238093D01*
X117214285Y-131190474D01*
X117690476Y-128035713D02*
X117690476Y-128702379D01*
X117452380Y-127654760D02*
X117214285Y-128369046D01*
X117833333Y-128369046D01*
X117166666Y-125119046D02*
X117785714Y-125119046D01*
X117452380Y-125499999D01*
X117595238Y-125499999D01*
X117690476Y-125547618D01*
X117738095Y-125595237D01*
X117785714Y-125690475D01*
X117785714Y-125928570D01*
X117738095Y-126023808D01*
X117690476Y-126071427D01*
X117595238Y-126119046D01*
X117309523Y-126119046D01*
X117214285Y-126071427D01*
X117166666Y-126023808D01*
X117214285Y-122630952D02*
X117261904Y-122583333D01*
X117357142Y-122535713D01*
X117595238Y-122535713D01*
X117690476Y-122583333D01*
X117738095Y-122630952D01*
X117785714Y-122726190D01*
X117785714Y-122821428D01*
X117738095Y-122964285D01*
X117166666Y-123535713D01*
X117785714Y-123535713D01*
X117785714Y-120952380D02*
X117214285Y-120952380D01*
X117500000Y-120952380D02*
X117500000Y-119952380D01*
X117404761Y-120095238D01*
X117309523Y-120190476D01*
X117214285Y-120238095D01*
X96523809Y-145952380D02*
X96190476Y-145476190D01*
X95952380Y-145952380D02*
X95952380Y-144952380D01*
X96333333Y-144952380D01*
X96428571Y-145000000D01*
X96476190Y-145047619D01*
X96523809Y-145142857D01*
X96523809Y-145285714D01*
X96476190Y-145380952D01*
X96428571Y-145428571D01*
X96333333Y-145476190D01*
X95952380Y-145476190D01*
X97380952Y-145952380D02*
X97380952Y-145428571D01*
X97333333Y-145333333D01*
X97238095Y-145285714D01*
X97047619Y-145285714D01*
X96952380Y-145333333D01*
X97380952Y-145904761D02*
X97285714Y-145952380D01*
X97047619Y-145952380D01*
X96952380Y-145904761D01*
X96904761Y-145809523D01*
X96904761Y-145714285D01*
X96952380Y-145619047D01*
X97047619Y-145571428D01*
X97285714Y-145571428D01*
X97380952Y-145523809D01*
X97714285Y-145285714D02*
X98095238Y-145285714D01*
X97857142Y-144952380D02*
X97857142Y-145809523D01*
X97904761Y-145904761D01*
X98000000Y-145952380D01*
X98095238Y-145952380D01*
X98809523Y-145904761D02*
X98714285Y-145952380D01*
X98523809Y-145952380D01*
X98428571Y-145904761D01*
X98380952Y-145809523D01*
X98380952Y-145428571D01*
X98428571Y-145333333D01*
X98523809Y-145285714D01*
X98714285Y-145285714D01*
X98809523Y-145333333D01*
X98857142Y-145428571D01*
X98857142Y-145523809D01*
X98380952Y-145619047D01*
X100619047Y-145857142D02*
X100571428Y-145904761D01*
X100428571Y-145952380D01*
X100333333Y-145952380D01*
X100190476Y-145904761D01*
X100095238Y-145809523D01*
X100047619Y-145714285D01*
X100000000Y-145523809D01*
X100000000Y-145380952D01*
X100047619Y-145190476D01*
X100095238Y-145095238D01*
X100190476Y-145000000D01*
X100333333Y-144952380D01*
X100428571Y-144952380D01*
X100571428Y-145000000D01*
X100619047Y-145047619D01*
X101190476Y-145952380D02*
X101095238Y-145904761D01*
X101047619Y-145857142D01*
X101000000Y-145761904D01*
X101000000Y-145476190D01*
X101047619Y-145380952D01*
X101095238Y-145333333D01*
X101190476Y-145285714D01*
X101333333Y-145285714D01*
X101428571Y-145333333D01*
X101476190Y-145380952D01*
X101523809Y-145476190D01*
X101523809Y-145761904D01*
X101476190Y-145857142D01*
X101428571Y-145904761D01*
X101333333Y-145952380D01*
X101190476Y-145952380D01*
X101952380Y-145285714D02*
X101952380Y-145952380D01*
X101952380Y-145380952D02*
X102000000Y-145333333D01*
X102095238Y-145285714D01*
X102238095Y-145285714D01*
X102333333Y-145333333D01*
X102380952Y-145428571D01*
X102380952Y-145952380D01*
X102714285Y-145285714D02*
X103095238Y-145285714D01*
X102857142Y-144952380D02*
X102857142Y-145809523D01*
X102904761Y-145904761D01*
X103000000Y-145952380D01*
X103095238Y-145952380D01*
X103428571Y-145952380D02*
X103428571Y-145285714D01*
X103428571Y-145476190D02*
X103476190Y-145380952D01*
X103523809Y-145333333D01*
X103619047Y-145285714D01*
X103714285Y-145285714D01*
X104190476Y-145952380D02*
X104095238Y-145904761D01*
X104047619Y-145857142D01*
X104000000Y-145761904D01*
X104000000Y-145476190D01*
X104047619Y-145380952D01*
X104095238Y-145333333D01*
X104190476Y-145285714D01*
X104333333Y-145285714D01*
X104428571Y-145333333D01*
X104476190Y-145380952D01*
X104523809Y-145476190D01*
X104523809Y-145761904D01*
X104476190Y-145857142D01*
X104428571Y-145904761D01*
X104333333Y-145952380D01*
X104190476Y-145952380D01*
X105095238Y-145952380D02*
X105000000Y-145904761D01*
X104952380Y-145809523D01*
X104952380Y-144952380D01*
X105619047Y-145952380D02*
X105523809Y-145904761D01*
X105476190Y-145809523D01*
X105476190Y-144952380D01*
X106380952Y-145904761D02*
X106285714Y-145952380D01*
X106095238Y-145952380D01*
X106000000Y-145904761D01*
X105952380Y-145809523D01*
X105952380Y-145428571D01*
X106000000Y-145333333D01*
X106095238Y-145285714D01*
X106285714Y-145285714D01*
X106380952Y-145333333D01*
X106428571Y-145428571D01*
X106428571Y-145523809D01*
X105952380Y-145619047D01*
X106857142Y-145952380D02*
X106857142Y-145285714D01*
X106857142Y-145476190D02*
X106904761Y-145380952D01*
X106952380Y-145333333D01*
X107047619Y-145285714D01*
X107142857Y-145285714D01*
X108666666Y-145285714D02*
X108666666Y-145952380D01*
X108428571Y-144904761D02*
X108190476Y-145619047D01*
X108809523Y-145619047D01*
X111238095Y-145952380D02*
X110666666Y-145952380D01*
X110952380Y-145952380D02*
X110952380Y-144952380D01*
X110857142Y-145095238D01*
X110761904Y-145190476D01*
X110666666Y-145238095D01*
X112142857Y-144952380D02*
X111666666Y-144952380D01*
X111619047Y-145428571D01*
X111666666Y-145380952D01*
X111761904Y-145333333D01*
X112000000Y-145333333D01*
X112095238Y-145380952D01*
X112142857Y-145428571D01*
X112190476Y-145523809D01*
X112190476Y-145761904D01*
X112142857Y-145857142D01*
X112095238Y-145904761D01*
X112000000Y-145952380D01*
X111761904Y-145952380D01*
X111666666Y-145904761D01*
X111619047Y-145857142D01*
X112619047Y-145571428D02*
X113380952Y-145571428D01*
X114190476Y-145428571D02*
X113857142Y-145428571D01*
X113857142Y-145952380D02*
X113857142Y-144952380D01*
X114333333Y-144952380D01*
X115095238Y-145904761D02*
X115000000Y-145952380D01*
X114809523Y-145952380D01*
X114714285Y-145904761D01*
X114666666Y-145809523D01*
X114666666Y-145428571D01*
X114714285Y-145333333D01*
X114809523Y-145285714D01*
X115000000Y-145285714D01*
X115095238Y-145333333D01*
X115142857Y-145428571D01*
X115142857Y-145523809D01*
X114666666Y-145619047D01*
X115571428Y-145952380D02*
X115571428Y-144952380D01*
X115571428Y-145333333D02*
X115666666Y-145285714D01*
X115857142Y-145285714D01*
X115952380Y-145333333D01*
X116000000Y-145380952D01*
X116047619Y-145476190D01*
X116047619Y-145761904D01*
X116000000Y-145857142D01*
X115952380Y-145904761D01*
X115857142Y-145952380D01*
X115666666Y-145952380D01*
X115571428Y-145904761D01*
X116476190Y-145571428D02*
X117238095Y-145571428D01*
X117666666Y-145047619D02*
X117714285Y-145000000D01*
X117809523Y-144952380D01*
X118047619Y-144952380D01*
X118142857Y-145000000D01*
X118190476Y-145047619D01*
X118238095Y-145142857D01*
X118238095Y-145238095D01*
X118190476Y-145380952D01*
X117619047Y-145952380D01*
X118238095Y-145952380D01*
X118857142Y-144952380D02*
X118952380Y-144952380D01*
X119047619Y-145000000D01*
X119095238Y-145047619D01*
X119142857Y-145142857D01*
X119190476Y-145333333D01*
X119190476Y-145571428D01*
X119142857Y-145761904D01*
X119095238Y-145857142D01*
X119047619Y-145904761D01*
X118952380Y-145952380D01*
X118857142Y-145952380D01*
X118761904Y-145904761D01*
X118714285Y-145857142D01*
X118666666Y-145761904D01*
X118619047Y-145571428D01*
X118619047Y-145333333D01*
X118666666Y-145142857D01*
X118714285Y-145047619D01*
X118761904Y-145000000D01*
X118857142Y-144952380D01*
X119571428Y-145047619D02*
X119619047Y-145000000D01*
X119714285Y-144952380D01*
X119952380Y-144952380D01*
X120047619Y-145000000D01*
X120095238Y-145047619D01*
X120142857Y-145142857D01*
X120142857Y-145238095D01*
X120095238Y-145380952D01*
X119523809Y-145952380D01*
X120142857Y-145952380D01*
X120761904Y-144952380D02*
X120857142Y-144952380D01*
X120952380Y-145000000D01*
X121000000Y-145047619D01*
X121047619Y-145142857D01*
X121095238Y-145333333D01*
X121095238Y-145571428D01*
X121047619Y-145761904D01*
X121000000Y-145857142D01*
X120952380Y-145904761D01*
X120857142Y-145952380D01*
X120761904Y-145952380D01*
X120666666Y-145904761D01*
X120619047Y-145857142D01*
X120571428Y-145761904D01*
X120523809Y-145571428D01*
X120523809Y-145333333D01*
X120571428Y-145142857D01*
X120619047Y-145047619D01*
X120666666Y-145000000D01*
X120761904Y-144952380D01*
X119000000Y-63261904D02*
X118952380Y-63357142D01*
X118952380Y-63500000D01*
X119000000Y-63642857D01*
X119095238Y-63738095D01*
X119190476Y-63785714D01*
X119380952Y-63833333D01*
X119523809Y-63833333D01*
X119714285Y-63785714D01*
X119809523Y-63738095D01*
X119904761Y-63642857D01*
X119952380Y-63500000D01*
X119952380Y-63404761D01*
X119904761Y-63261904D01*
X119857142Y-63214285D01*
X119523809Y-63214285D01*
X119523809Y-63404761D01*
X119952380Y-62785714D02*
X118952380Y-62785714D01*
X119952380Y-62214285D01*
X118952380Y-62214285D01*
X119952380Y-61738095D02*
X118952380Y-61738095D01*
X118952380Y-61500000D01*
X119000000Y-61357142D01*
X119095238Y-61261904D01*
X119190476Y-61214285D01*
X119380952Y-61166666D01*
X119523809Y-61166666D01*
X119714285Y-61214285D01*
X119809523Y-61261904D01*
X119904761Y-61357142D01*
X119952380Y-61500000D01*
X119952380Y-61738095D01*
X63261904Y-103342902D02*
X62690475Y-103342902D01*
X62976190Y-103342902D02*
X62976190Y-102342902D01*
X62880952Y-102485760D01*
X62785713Y-102580998D01*
X62690475Y-102628617D01*
X63642856Y-102438141D02*
X63690475Y-102390522D01*
X63785713Y-102342902D01*
X64023809Y-102342902D01*
X64119047Y-102390522D01*
X64166666Y-102438141D01*
X64214285Y-102533379D01*
X64214285Y-102628617D01*
X64166666Y-102771474D01*
X63595237Y-103342902D01*
X64214285Y-103342902D01*
X64499999Y-102342902D02*
X64833332Y-103342902D01*
X65166666Y-102342902D01*
X63309523Y-133307400D02*
X62976190Y-132831210D01*
X62738095Y-133307400D02*
X62738095Y-132307400D01*
X63119047Y-132307400D01*
X63214285Y-132355020D01*
X63261904Y-132402639D01*
X63309523Y-132497877D01*
X63309523Y-132640734D01*
X63261904Y-132735972D01*
X63214285Y-132783591D01*
X63119047Y-132831210D01*
X62738095Y-132831210D01*
X64119047Y-133259781D02*
X64023809Y-133307400D01*
X63833333Y-133307400D01*
X63738095Y-133259781D01*
X63690476Y-133164543D01*
X63690476Y-132783591D01*
X63738095Y-132688353D01*
X63833333Y-132640734D01*
X64023809Y-132640734D01*
X64119047Y-132688353D01*
X64166666Y-132783591D01*
X64166666Y-132878829D01*
X63690476Y-132974067D01*
X64738095Y-133307400D02*
X64642857Y-133259781D01*
X64595238Y-133164543D01*
X64595238Y-132307400D01*
X65547619Y-133307400D02*
X65547619Y-132783591D01*
X65500000Y-132688353D01*
X65404761Y-132640734D01*
X65214285Y-132640734D01*
X65119047Y-132688353D01*
X65547619Y-133259781D02*
X65452380Y-133307400D01*
X65214285Y-133307400D01*
X65119047Y-133259781D01*
X65071428Y-133164543D01*
X65071428Y-133069305D01*
X65119047Y-132974067D01*
X65214285Y-132926448D01*
X65452380Y-132926448D01*
X65547619Y-132878829D01*
X65928571Y-132640734D02*
X66166666Y-133307400D01*
X66404761Y-132640734D02*
X66166666Y-133307400D01*
X66071428Y-133545496D01*
X66023809Y-133593115D01*
X65928571Y-133640734D01*
X66928571Y-132735972D02*
X66833333Y-132688353D01*
X66785714Y-132640734D01*
X66738095Y-132545496D01*
X66738095Y-132497877D01*
X66785714Y-132402639D01*
X66833333Y-132355020D01*
X66928571Y-132307400D01*
X67119047Y-132307400D01*
X67214285Y-132355020D01*
X67261904Y-132402639D01*
X67309523Y-132497877D01*
X67309523Y-132545496D01*
X67261904Y-132640734D01*
X67214285Y-132688353D01*
X67119047Y-132735972D01*
X66928571Y-132735972D01*
X66833333Y-132783591D01*
X66785714Y-132831210D01*
X66738095Y-132926448D01*
X66738095Y-133116924D01*
X66785714Y-133212162D01*
X66833333Y-133259781D01*
X66928571Y-133307400D01*
X67119047Y-133307400D01*
X67214285Y-133259781D01*
X67261904Y-133212162D01*
X67309523Y-133116924D01*
X67309523Y-132926448D01*
X67261904Y-132831210D01*
X67214285Y-132783591D01*
X67119047Y-132735972D01*
X104428571Y-66309523D02*
X104428571Y-66642856D01*
X104952380Y-66642856D02*
X103952380Y-66642856D01*
X103952380Y-66166666D01*
X104952380Y-65309523D02*
X104952380Y-65785713D01*
X103952380Y-65785713D01*
X103952380Y-65071428D02*
X104952380Y-64833332D01*
X104238095Y-64642856D01*
X104952380Y-64452380D01*
X103952380Y-64214285D01*
X104904761Y-63119047D02*
X104952380Y-62976190D01*
X104952380Y-62738094D01*
X104904761Y-62642856D01*
X104857142Y-62595237D01*
X104761904Y-62547618D01*
X104666666Y-62547618D01*
X104571428Y-62595237D01*
X104523809Y-62642856D01*
X104476190Y-62738094D01*
X104428571Y-62928571D01*
X104380952Y-63023809D01*
X104333333Y-63071428D01*
X104238095Y-63119047D01*
X104142857Y-63119047D01*
X104047619Y-63071428D01*
X104000000Y-63023809D01*
X103952380Y-62928571D01*
X103952380Y-62690475D01*
X104000000Y-62547618D01*
X104952380Y-62119047D02*
X104285714Y-62119047D01*
X103952380Y-62119047D02*
X104000000Y-62166666D01*
X104047619Y-62119047D01*
X104000000Y-62071428D01*
X103952380Y-62119047D01*
X104047619Y-62119047D01*
X104285714Y-61214285D02*
X105095238Y-61214285D01*
X105190476Y-61261904D01*
X105238095Y-61309523D01*
X105285714Y-61404761D01*
X105285714Y-61547618D01*
X105238095Y-61642856D01*
X104904761Y-61214285D02*
X104952380Y-61309523D01*
X104952380Y-61499999D01*
X104904761Y-61595237D01*
X104857142Y-61642856D01*
X104761904Y-61690475D01*
X104476190Y-61690475D01*
X104380952Y-61642856D01*
X104333333Y-61595237D01*
X104285714Y-61499999D01*
X104285714Y-61309523D01*
X104333333Y-61214285D01*
X99428571Y-65785713D02*
X99428571Y-66119046D01*
X99952380Y-66119046D02*
X98952380Y-66119046D01*
X98952380Y-65642856D01*
X99952380Y-64785713D02*
X99952380Y-65261904D01*
X98952380Y-65261904D01*
X98952380Y-64547618D02*
X99952380Y-64309523D01*
X99238095Y-64119046D01*
X99952380Y-63928570D01*
X98952380Y-63690475D01*
X98952380Y-62071427D02*
X98952380Y-62547618D01*
X99428571Y-62595237D01*
X99380952Y-62547618D01*
X99333333Y-62452380D01*
X99333333Y-62214285D01*
X99380952Y-62119046D01*
X99428571Y-62071427D01*
X99523809Y-62023808D01*
X99761904Y-62023808D01*
X99857142Y-62071427D01*
X99904761Y-62119046D01*
X99952380Y-62214285D01*
X99952380Y-62452380D01*
X99904761Y-62547618D01*
X99857142Y-62595237D01*
X98952380Y-61738094D02*
X99952380Y-61404761D01*
X98952380Y-61071427D01*
X63261904Y-87142008D02*
X63166666Y-87094388D01*
X63023809Y-87094388D01*
X62880951Y-87142008D01*
X62785713Y-87237246D01*
X62738094Y-87332484D01*
X62690475Y-87522960D01*
X62690475Y-87665817D01*
X62738094Y-87856293D01*
X62785713Y-87951531D01*
X62880951Y-88046769D01*
X63023809Y-88094388D01*
X63119047Y-88094388D01*
X63261904Y-88046769D01*
X63309523Y-87999150D01*
X63309523Y-87665817D01*
X63119047Y-87665817D01*
X63738094Y-88094388D02*
X63738094Y-87094388D01*
X64309523Y-88094388D01*
X64309523Y-87094388D01*
X64785713Y-88094388D02*
X64785713Y-87094388D01*
X65023809Y-87094388D01*
X65166666Y-87142008D01*
X65261904Y-87237246D01*
X65309523Y-87332484D01*
X65357142Y-87522960D01*
X65357142Y-87665817D01*
X65309523Y-87856293D01*
X65261904Y-87951531D01*
X65166666Y-88046769D01*
X65023809Y-88094388D01*
X64785713Y-88094388D01*
X63309523Y-128271898D02*
X62976190Y-127795708D01*
X62738095Y-128271898D02*
X62738095Y-127271898D01*
X63119047Y-127271898D01*
X63214285Y-127319518D01*
X63261904Y-127367137D01*
X63309523Y-127462375D01*
X63309523Y-127605232D01*
X63261904Y-127700470D01*
X63214285Y-127748089D01*
X63119047Y-127795708D01*
X62738095Y-127795708D01*
X64119047Y-128224279D02*
X64023809Y-128271898D01*
X63833333Y-128271898D01*
X63738095Y-128224279D01*
X63690476Y-128129041D01*
X63690476Y-127748089D01*
X63738095Y-127652851D01*
X63833333Y-127605232D01*
X64023809Y-127605232D01*
X64119047Y-127652851D01*
X64166666Y-127748089D01*
X64166666Y-127843327D01*
X63690476Y-127938565D01*
X64738095Y-128271898D02*
X64642857Y-128224279D01*
X64595238Y-128129041D01*
X64595238Y-127271898D01*
X65547619Y-128271898D02*
X65547619Y-127748089D01*
X65500000Y-127652851D01*
X65404761Y-127605232D01*
X65214285Y-127605232D01*
X65119047Y-127652851D01*
X65547619Y-128224279D02*
X65452380Y-128271898D01*
X65214285Y-128271898D01*
X65119047Y-128224279D01*
X65071428Y-128129041D01*
X65071428Y-128033803D01*
X65119047Y-127938565D01*
X65214285Y-127890946D01*
X65452380Y-127890946D01*
X65547619Y-127843327D01*
X65928571Y-127605232D02*
X66166666Y-128271898D01*
X66404761Y-127605232D02*
X66166666Y-128271898D01*
X66071428Y-128509994D01*
X66023809Y-128557613D01*
X65928571Y-128605232D01*
X66690476Y-127271898D02*
X67357142Y-127271898D01*
X66928571Y-128271898D01*
X63309523Y-123236396D02*
X62976190Y-122760206D01*
X62738095Y-123236396D02*
X62738095Y-122236396D01*
X63119047Y-122236396D01*
X63214285Y-122284016D01*
X63261904Y-122331635D01*
X63309523Y-122426873D01*
X63309523Y-122569730D01*
X63261904Y-122664968D01*
X63214285Y-122712587D01*
X63119047Y-122760206D01*
X62738095Y-122760206D01*
X64119047Y-123188777D02*
X64023809Y-123236396D01*
X63833333Y-123236396D01*
X63738095Y-123188777D01*
X63690476Y-123093539D01*
X63690476Y-122712587D01*
X63738095Y-122617349D01*
X63833333Y-122569730D01*
X64023809Y-122569730D01*
X64119047Y-122617349D01*
X64166666Y-122712587D01*
X64166666Y-122807825D01*
X63690476Y-122903063D01*
X64738095Y-123236396D02*
X64642857Y-123188777D01*
X64595238Y-123093539D01*
X64595238Y-122236396D01*
X65547619Y-123236396D02*
X65547619Y-122712587D01*
X65500000Y-122617349D01*
X65404761Y-122569730D01*
X65214285Y-122569730D01*
X65119047Y-122617349D01*
X65547619Y-123188777D02*
X65452380Y-123236396D01*
X65214285Y-123236396D01*
X65119047Y-123188777D01*
X65071428Y-123093539D01*
X65071428Y-122998301D01*
X65119047Y-122903063D01*
X65214285Y-122855444D01*
X65452380Y-122855444D01*
X65547619Y-122807825D01*
X65928571Y-122569730D02*
X66166666Y-123236396D01*
X66404761Y-122569730D02*
X66166666Y-123236396D01*
X66071428Y-123474492D01*
X66023809Y-123522111D01*
X65928571Y-123569730D01*
X67214285Y-122236396D02*
X67023809Y-122236396D01*
X66928571Y-122284016D01*
X66880952Y-122331635D01*
X66785714Y-122474492D01*
X66738095Y-122664968D01*
X66738095Y-123045920D01*
X66785714Y-123141158D01*
X66833333Y-123188777D01*
X66928571Y-123236396D01*
X67119047Y-123236396D01*
X67214285Y-123188777D01*
X67261904Y-123141158D01*
X67309523Y-123045920D01*
X67309523Y-122807825D01*
X67261904Y-122712587D01*
X67214285Y-122664968D01*
X67119047Y-122617349D01*
X66928571Y-122617349D01*
X66833333Y-122664968D01*
X66785714Y-122712587D01*
X66738095Y-122807825D01*
X63309523Y-118200894D02*
X62976190Y-117724704D01*
X62738095Y-118200894D02*
X62738095Y-117200894D01*
X63119047Y-117200894D01*
X63214285Y-117248514D01*
X63261904Y-117296133D01*
X63309523Y-117391371D01*
X63309523Y-117534228D01*
X63261904Y-117629466D01*
X63214285Y-117677085D01*
X63119047Y-117724704D01*
X62738095Y-117724704D01*
X64119047Y-118153275D02*
X64023809Y-118200894D01*
X63833333Y-118200894D01*
X63738095Y-118153275D01*
X63690476Y-118058037D01*
X63690476Y-117677085D01*
X63738095Y-117581847D01*
X63833333Y-117534228D01*
X64023809Y-117534228D01*
X64119047Y-117581847D01*
X64166666Y-117677085D01*
X64166666Y-117772323D01*
X63690476Y-117867561D01*
X64738095Y-118200894D02*
X64642857Y-118153275D01*
X64595238Y-118058037D01*
X64595238Y-117200894D01*
X65547619Y-118200894D02*
X65547619Y-117677085D01*
X65500000Y-117581847D01*
X65404761Y-117534228D01*
X65214285Y-117534228D01*
X65119047Y-117581847D01*
X65547619Y-118153275D02*
X65452380Y-118200894D01*
X65214285Y-118200894D01*
X65119047Y-118153275D01*
X65071428Y-118058037D01*
X65071428Y-117962799D01*
X65119047Y-117867561D01*
X65214285Y-117819942D01*
X65452380Y-117819942D01*
X65547619Y-117772323D01*
X65928571Y-117534228D02*
X66166666Y-118200894D01*
X66404761Y-117534228D02*
X66166666Y-118200894D01*
X66071428Y-118438990D01*
X66023809Y-118486609D01*
X65928571Y-118534228D01*
X67261904Y-117200894D02*
X66785714Y-117200894D01*
X66738095Y-117677085D01*
X66785714Y-117629466D01*
X66880952Y-117581847D01*
X67119047Y-117581847D01*
X67214285Y-117629466D01*
X67261904Y-117677085D01*
X67309523Y-117772323D01*
X67309523Y-118010418D01*
X67261904Y-118105656D01*
X67214285Y-118153275D01*
X67119047Y-118200894D01*
X66880952Y-118200894D01*
X66785714Y-118153275D01*
X66738095Y-118105656D01*
X63309523Y-83058886D02*
X62976190Y-82582696D01*
X62738095Y-83058886D02*
X62738095Y-82058886D01*
X63119047Y-82058886D01*
X63214285Y-82106506D01*
X63261904Y-82154125D01*
X63309523Y-82249363D01*
X63309523Y-82392220D01*
X63261904Y-82487458D01*
X63214285Y-82535077D01*
X63119047Y-82582696D01*
X62738095Y-82582696D01*
X64119047Y-83011267D02*
X64023809Y-83058886D01*
X63833333Y-83058886D01*
X63738095Y-83011267D01*
X63690476Y-82916029D01*
X63690476Y-82535077D01*
X63738095Y-82439839D01*
X63833333Y-82392220D01*
X64023809Y-82392220D01*
X64119047Y-82439839D01*
X64166666Y-82535077D01*
X64166666Y-82630315D01*
X63690476Y-82725553D01*
X64738095Y-83058886D02*
X64642857Y-83011267D01*
X64595238Y-82916029D01*
X64595238Y-82058886D01*
X65547619Y-83058886D02*
X65547619Y-82535077D01*
X65500000Y-82439839D01*
X65404761Y-82392220D01*
X65214285Y-82392220D01*
X65119047Y-82439839D01*
X65547619Y-83011267D02*
X65452380Y-83058886D01*
X65214285Y-83058886D01*
X65119047Y-83011267D01*
X65071428Y-82916029D01*
X65071428Y-82820791D01*
X65119047Y-82725553D01*
X65214285Y-82677934D01*
X65452380Y-82677934D01*
X65547619Y-82630315D01*
X65928571Y-82392220D02*
X66166666Y-83058886D01*
X66404761Y-82392220D02*
X66166666Y-83058886D01*
X66071428Y-83296982D01*
X66023809Y-83344601D01*
X65928571Y-83392220D01*
X67214285Y-82392220D02*
X67214285Y-83058886D01*
X66976190Y-82011267D02*
X66738095Y-82725553D01*
X67357142Y-82725553D01*
X63309523Y-67952380D02*
X62976190Y-67476190D01*
X62738095Y-67952380D02*
X62738095Y-66952380D01*
X63119047Y-66952380D01*
X63214285Y-67000000D01*
X63261904Y-67047619D01*
X63309523Y-67142857D01*
X63309523Y-67285714D01*
X63261904Y-67380952D01*
X63214285Y-67428571D01*
X63119047Y-67476190D01*
X62738095Y-67476190D01*
X64119047Y-67904761D02*
X64023809Y-67952380D01*
X63833333Y-67952380D01*
X63738095Y-67904761D01*
X63690476Y-67809523D01*
X63690476Y-67428571D01*
X63738095Y-67333333D01*
X63833333Y-67285714D01*
X64023809Y-67285714D01*
X64119047Y-67333333D01*
X64166666Y-67428571D01*
X64166666Y-67523809D01*
X63690476Y-67619047D01*
X64738095Y-67952380D02*
X64642857Y-67904761D01*
X64595238Y-67809523D01*
X64595238Y-66952380D01*
X65547619Y-67952380D02*
X65547619Y-67428571D01*
X65500000Y-67333333D01*
X65404761Y-67285714D01*
X65214285Y-67285714D01*
X65119047Y-67333333D01*
X65547619Y-67904761D02*
X65452380Y-67952380D01*
X65214285Y-67952380D01*
X65119047Y-67904761D01*
X65071428Y-67809523D01*
X65071428Y-67714285D01*
X65119047Y-67619047D01*
X65214285Y-67571428D01*
X65452380Y-67571428D01*
X65547619Y-67523809D01*
X65928571Y-67285714D02*
X66166666Y-67952380D01*
X66404761Y-67285714D02*
X66166666Y-67952380D01*
X66071428Y-68190476D01*
X66023809Y-68238095D01*
X65928571Y-68285714D01*
X67309523Y-67952380D02*
X66738095Y-67952380D01*
X67023809Y-67952380D02*
X67023809Y-66952380D01*
X66928571Y-67095238D01*
X66833333Y-67190476D01*
X66738095Y-67238095D01*
X63309523Y-78023384D02*
X62976190Y-77547194D01*
X62738095Y-78023384D02*
X62738095Y-77023384D01*
X63119047Y-77023384D01*
X63214285Y-77071004D01*
X63261904Y-77118623D01*
X63309523Y-77213861D01*
X63309523Y-77356718D01*
X63261904Y-77451956D01*
X63214285Y-77499575D01*
X63119047Y-77547194D01*
X62738095Y-77547194D01*
X64119047Y-77975765D02*
X64023809Y-78023384D01*
X63833333Y-78023384D01*
X63738095Y-77975765D01*
X63690476Y-77880527D01*
X63690476Y-77499575D01*
X63738095Y-77404337D01*
X63833333Y-77356718D01*
X64023809Y-77356718D01*
X64119047Y-77404337D01*
X64166666Y-77499575D01*
X64166666Y-77594813D01*
X63690476Y-77690051D01*
X64738095Y-78023384D02*
X64642857Y-77975765D01*
X64595238Y-77880527D01*
X64595238Y-77023384D01*
X65547619Y-78023384D02*
X65547619Y-77499575D01*
X65500000Y-77404337D01*
X65404761Y-77356718D01*
X65214285Y-77356718D01*
X65119047Y-77404337D01*
X65547619Y-77975765D02*
X65452380Y-78023384D01*
X65214285Y-78023384D01*
X65119047Y-77975765D01*
X65071428Y-77880527D01*
X65071428Y-77785289D01*
X65119047Y-77690051D01*
X65214285Y-77642432D01*
X65452380Y-77642432D01*
X65547619Y-77594813D01*
X65928571Y-77356718D02*
X66166666Y-78023384D01*
X66404761Y-77356718D02*
X66166666Y-78023384D01*
X66071428Y-78261480D01*
X66023809Y-78309099D01*
X65928571Y-78356718D01*
X66690476Y-77023384D02*
X67309523Y-77023384D01*
X66976190Y-77404337D01*
X67119047Y-77404337D01*
X67214285Y-77451956D01*
X67261904Y-77499575D01*
X67309523Y-77594813D01*
X67309523Y-77832908D01*
X67261904Y-77928146D01*
X67214285Y-77975765D01*
X67119047Y-78023384D01*
X66833333Y-78023384D01*
X66738095Y-77975765D01*
X66690476Y-77928146D01*
X63309523Y-72987882D02*
X62976190Y-72511692D01*
X62738095Y-72987882D02*
X62738095Y-71987882D01*
X63119047Y-71987882D01*
X63214285Y-72035502D01*
X63261904Y-72083121D01*
X63309523Y-72178359D01*
X63309523Y-72321216D01*
X63261904Y-72416454D01*
X63214285Y-72464073D01*
X63119047Y-72511692D01*
X62738095Y-72511692D01*
X64119047Y-72940263D02*
X64023809Y-72987882D01*
X63833333Y-72987882D01*
X63738095Y-72940263D01*
X63690476Y-72845025D01*
X63690476Y-72464073D01*
X63738095Y-72368835D01*
X63833333Y-72321216D01*
X64023809Y-72321216D01*
X64119047Y-72368835D01*
X64166666Y-72464073D01*
X64166666Y-72559311D01*
X63690476Y-72654549D01*
X64738095Y-72987882D02*
X64642857Y-72940263D01*
X64595238Y-72845025D01*
X64595238Y-71987882D01*
X65547619Y-72987882D02*
X65547619Y-72464073D01*
X65500000Y-72368835D01*
X65404761Y-72321216D01*
X65214285Y-72321216D01*
X65119047Y-72368835D01*
X65547619Y-72940263D02*
X65452380Y-72987882D01*
X65214285Y-72987882D01*
X65119047Y-72940263D01*
X65071428Y-72845025D01*
X65071428Y-72749787D01*
X65119047Y-72654549D01*
X65214285Y-72606930D01*
X65452380Y-72606930D01*
X65547619Y-72559311D01*
X65928571Y-72321216D02*
X66166666Y-72987882D01*
X66404761Y-72321216D02*
X66166666Y-72987882D01*
X66071428Y-73225978D01*
X66023809Y-73273597D01*
X65928571Y-73321216D01*
X66738095Y-72083121D02*
X66785714Y-72035502D01*
X66880952Y-71987882D01*
X67119047Y-71987882D01*
X67214285Y-72035502D01*
X67261904Y-72083121D01*
X67309523Y-72178359D01*
X67309523Y-72273597D01*
X67261904Y-72416454D01*
X66690476Y-72987882D01*
X67309523Y-72987882D01*
X94952380Y-65261904D02*
X94952380Y-65833333D01*
X94952380Y-65547619D02*
X93952380Y-65547619D01*
X94095238Y-65642857D01*
X94190476Y-65738095D01*
X94238095Y-65833333D01*
X94047619Y-64880952D02*
X94000000Y-64833333D01*
X93952380Y-64738095D01*
X93952380Y-64500000D01*
X94000000Y-64404761D01*
X94047619Y-64357142D01*
X94142857Y-64309523D01*
X94238095Y-64309523D01*
X94380952Y-64357142D01*
X94952380Y-64928571D01*
X94952380Y-64309523D01*
X93952380Y-64023809D02*
X94952380Y-63690476D01*
X93952380Y-63357142D01*
X94952380Y-62261904D02*
X93952380Y-62261904D01*
X94952380Y-61785714D02*
X93952380Y-61785714D01*
X94952380Y-61214285D01*
X93952380Y-61214285D01*
X129000000Y-63261904D02*
X128952380Y-63357142D01*
X128952380Y-63500000D01*
X129000000Y-63642857D01*
X129095238Y-63738095D01*
X129190476Y-63785714D01*
X129380952Y-63833333D01*
X129523809Y-63833333D01*
X129714285Y-63785714D01*
X129809523Y-63738095D01*
X129904761Y-63642857D01*
X129952380Y-63500000D01*
X129952380Y-63404761D01*
X129904761Y-63261904D01*
X129857142Y-63214285D01*
X129523809Y-63214285D01*
X129523809Y-63404761D01*
X129952380Y-62785714D02*
X128952380Y-62785714D01*
X129952380Y-62214285D01*
X128952380Y-62214285D01*
X129952380Y-61738095D02*
X128952380Y-61738095D01*
X128952380Y-61500000D01*
X129000000Y-61357142D01*
X129095238Y-61261904D01*
X129190476Y-61214285D01*
X129380952Y-61166666D01*
X129523809Y-61166666D01*
X129714285Y-61214285D01*
X129809523Y-61261904D01*
X129904761Y-61357142D01*
X129952380Y-61500000D01*
X129952380Y-61738095D01*
X159307261Y-135402380D02*
X158831071Y-135402380D01*
X158783452Y-135878571D01*
X158831071Y-135830952D01*
X158926309Y-135783333D01*
X159164404Y-135783333D01*
X159259642Y-135830952D01*
X159307261Y-135878571D01*
X159354880Y-135973809D01*
X159354880Y-136211904D01*
X159307261Y-136307142D01*
X159259642Y-136354761D01*
X159164404Y-136402380D01*
X158926309Y-136402380D01*
X158831071Y-136354761D01*
X158783452Y-136307142D01*
X159640595Y-135402380D02*
X159973928Y-136402380D01*
X160307261Y-135402380D01*
X158973928Y-132852380D02*
X159164404Y-132852380D01*
X159259642Y-132900000D01*
X159354880Y-132995238D01*
X159402499Y-133185714D01*
X159402499Y-133519047D01*
X159354880Y-133709523D01*
X159259642Y-133804761D01*
X159164404Y-133852380D01*
X158973928Y-133852380D01*
X158878690Y-133804761D01*
X158783452Y-133709523D01*
X158735833Y-133519047D01*
X158735833Y-133185714D01*
X158783452Y-132995238D01*
X158878690Y-132900000D01*
X158973928Y-132852380D01*
X159831071Y-133185714D02*
X159831071Y-133852380D01*
X159831071Y-133280952D02*
X159878690Y-133233333D01*
X159973928Y-133185714D01*
X160116785Y-133185714D01*
X160212023Y-133233333D01*
X160259642Y-133328571D01*
X160259642Y-133852380D01*
X158783452Y-113452380D02*
X158783452Y-112452380D01*
X159021547Y-112452380D01*
X159164404Y-112500000D01*
X159259642Y-112595238D01*
X159307261Y-112690476D01*
X159354880Y-112880952D01*
X159354880Y-113023809D01*
X159307261Y-113214285D01*
X159259642Y-113309523D01*
X159164404Y-113404761D01*
X159021547Y-113452380D01*
X158783452Y-113452380D01*
X159926309Y-113452380D02*
X159831071Y-113404761D01*
X159783452Y-113357142D01*
X159735833Y-113261904D01*
X159735833Y-112976190D01*
X159783452Y-112880952D01*
X159831071Y-112833333D01*
X159926309Y-112785714D01*
X160069166Y-112785714D01*
X160164404Y-112833333D01*
X160212023Y-112880952D01*
X160259642Y-112976190D01*
X160259642Y-113261904D01*
X160212023Y-113357142D01*
X160164404Y-113404761D01*
X160069166Y-113452380D01*
X159926309Y-113452380D01*
X160592976Y-112785714D02*
X160783452Y-113452380D01*
X160973928Y-112976190D01*
X161164404Y-113452380D01*
X161354880Y-112785714D01*
X161735833Y-112785714D02*
X161735833Y-113452380D01*
X161735833Y-112880952D02*
X161783452Y-112833333D01*
X161878690Y-112785714D01*
X162021547Y-112785714D01*
X162116785Y-112833333D01*
X162164404Y-112928571D01*
X162164404Y-113452380D01*
X158783452Y-115002380D02*
X158783452Y-115811904D01*
X158831071Y-115907142D01*
X158878690Y-115954761D01*
X158973928Y-116002380D01*
X159164404Y-116002380D01*
X159259642Y-115954761D01*
X159307261Y-115907142D01*
X159354880Y-115811904D01*
X159354880Y-115002380D01*
X159831071Y-115335714D02*
X159831071Y-116335714D01*
X159831071Y-115383333D02*
X159926309Y-115335714D01*
X160116785Y-115335714D01*
X160212023Y-115383333D01*
X160259642Y-115430952D01*
X160307261Y-115526190D01*
X160307261Y-115811904D01*
X160259642Y-115907142D01*
X160212023Y-115954761D01*
X160116785Y-116002380D01*
X159926309Y-116002380D01*
X159831071Y-115954761D01*
X158735832Y-118266666D02*
X159212023Y-118266666D01*
X158640594Y-118552380D02*
X158973928Y-117552380D01*
X159307261Y-118552380D01*
X160069166Y-117885714D02*
X160069166Y-118552380D01*
X159640594Y-117885714D02*
X159640594Y-118409523D01*
X159688213Y-118504761D01*
X159783452Y-118552380D01*
X159926309Y-118552380D01*
X160021547Y-118504761D01*
X160069166Y-118457142D01*
X160402499Y-117885714D02*
X160783452Y-117885714D01*
X160545356Y-117552380D02*
X160545356Y-118409523D01*
X160592975Y-118504761D01*
X160688213Y-118552380D01*
X160783452Y-118552380D01*
X161259642Y-118552380D02*
X161164404Y-118504761D01*
X161116785Y-118457142D01*
X161069166Y-118361904D01*
X161069166Y-118076190D01*
X161116785Y-117980952D01*
X161164404Y-117933333D01*
X161259642Y-117885714D01*
X161402499Y-117885714D01*
X161497737Y-117933333D01*
X161545356Y-117980952D01*
X161592975Y-118076190D01*
X161592975Y-118361904D01*
X161545356Y-118457142D01*
X161497737Y-118504761D01*
X161402499Y-118552380D01*
X161259642Y-118552380D01*
X158735833Y-121054761D02*
X158878690Y-121102380D01*
X159116785Y-121102380D01*
X159212023Y-121054761D01*
X159259642Y-121007142D01*
X159307261Y-120911904D01*
X159307261Y-120816666D01*
X159259642Y-120721428D01*
X159212023Y-120673809D01*
X159116785Y-120626190D01*
X158926309Y-120578571D01*
X158831071Y-120530952D01*
X158783452Y-120483333D01*
X158735833Y-120388095D01*
X158735833Y-120292857D01*
X158783452Y-120197619D01*
X158831071Y-120150000D01*
X158926309Y-120102380D01*
X159164404Y-120102380D01*
X159307261Y-120150000D01*
X159640595Y-120102380D02*
X159878690Y-121102380D01*
X160069166Y-120388095D01*
X160259642Y-121102380D01*
X160497737Y-120102380D01*
X161307261Y-120435714D02*
X161307261Y-121102380D01*
X161069166Y-120054761D02*
X160831071Y-120769047D01*
X161450118Y-120769047D01*
X158735833Y-123604761D02*
X158878690Y-123652380D01*
X159116785Y-123652380D01*
X159212023Y-123604761D01*
X159259642Y-123557142D01*
X159307261Y-123461904D01*
X159307261Y-123366666D01*
X159259642Y-123271428D01*
X159212023Y-123223809D01*
X159116785Y-123176190D01*
X158926309Y-123128571D01*
X158831071Y-123080952D01*
X158783452Y-123033333D01*
X158735833Y-122938095D01*
X158735833Y-122842857D01*
X158783452Y-122747619D01*
X158831071Y-122700000D01*
X158926309Y-122652380D01*
X159164404Y-122652380D01*
X159307261Y-122700000D01*
X159640595Y-122652380D02*
X159878690Y-123652380D01*
X160069166Y-122938095D01*
X160259642Y-123652380D01*
X160497737Y-122652380D01*
X160783452Y-122652380D02*
X161402499Y-122652380D01*
X161069166Y-123033333D01*
X161212023Y-123033333D01*
X161307261Y-123080952D01*
X161354880Y-123128571D01*
X161402499Y-123223809D01*
X161402499Y-123461904D01*
X161354880Y-123557142D01*
X161307261Y-123604761D01*
X161212023Y-123652380D01*
X160926309Y-123652380D01*
X160831071Y-123604761D01*
X160783452Y-123557142D01*
X158735833Y-126154761D02*
X158878690Y-126202380D01*
X159116785Y-126202380D01*
X159212023Y-126154761D01*
X159259642Y-126107142D01*
X159307261Y-126011904D01*
X159307261Y-125916666D01*
X159259642Y-125821428D01*
X159212023Y-125773809D01*
X159116785Y-125726190D01*
X158926309Y-125678571D01*
X158831071Y-125630952D01*
X158783452Y-125583333D01*
X158735833Y-125488095D01*
X158735833Y-125392857D01*
X158783452Y-125297619D01*
X158831071Y-125250000D01*
X158926309Y-125202380D01*
X159164404Y-125202380D01*
X159307261Y-125250000D01*
X159640595Y-125202380D02*
X159878690Y-126202380D01*
X160069166Y-125488095D01*
X160259642Y-126202380D01*
X160497737Y-125202380D01*
X160831071Y-125297619D02*
X160878690Y-125250000D01*
X160973928Y-125202380D01*
X161212023Y-125202380D01*
X161307261Y-125250000D01*
X161354880Y-125297619D01*
X161402499Y-125392857D01*
X161402499Y-125488095D01*
X161354880Y-125630952D01*
X160783452Y-126202380D01*
X161402499Y-126202380D01*
X158735833Y-128704761D02*
X158878690Y-128752380D01*
X159116785Y-128752380D01*
X159212023Y-128704761D01*
X159259642Y-128657142D01*
X159307261Y-128561904D01*
X159307261Y-128466666D01*
X159259642Y-128371428D01*
X159212023Y-128323809D01*
X159116785Y-128276190D01*
X158926309Y-128228571D01*
X158831071Y-128180952D01*
X158783452Y-128133333D01*
X158735833Y-128038095D01*
X158735833Y-127942857D01*
X158783452Y-127847619D01*
X158831071Y-127800000D01*
X158926309Y-127752380D01*
X159164404Y-127752380D01*
X159307261Y-127800000D01*
X159640595Y-127752380D02*
X159878690Y-128752380D01*
X160069166Y-128038095D01*
X160259642Y-128752380D01*
X160497737Y-127752380D01*
X161402499Y-128752380D02*
X160831071Y-128752380D01*
X161116785Y-128752380D02*
X161116785Y-127752380D01*
X161021547Y-127895238D01*
X160926309Y-127990476D01*
X160831071Y-128038095D01*
X158973928Y-130302380D02*
X159164404Y-130302380D01*
X159259642Y-130350000D01*
X159354880Y-130445238D01*
X159402499Y-130635714D01*
X159402499Y-130969047D01*
X159354880Y-131159523D01*
X159259642Y-131254761D01*
X159164404Y-131302380D01*
X158973928Y-131302380D01*
X158878690Y-131254761D01*
X158783452Y-131159523D01*
X158735833Y-130969047D01*
X158735833Y-130635714D01*
X158783452Y-130445238D01*
X158878690Y-130350000D01*
X158973928Y-130302380D01*
X159688213Y-130635714D02*
X160069166Y-130635714D01*
X159831071Y-131302380D02*
X159831071Y-130445238D01*
X159878690Y-130350000D01*
X159973928Y-130302380D01*
X160069166Y-130302380D01*
X160259642Y-130635714D02*
X160640594Y-130635714D01*
X160402499Y-131302380D02*
X160402499Y-130445238D01*
X160450118Y-130350000D01*
X160545356Y-130302380D01*
X160640594Y-130302380D01*
X159307261Y-138000000D02*
X159212023Y-137952380D01*
X159069166Y-137952380D01*
X158926309Y-138000000D01*
X158831071Y-138095238D01*
X158783452Y-138190476D01*
X158735833Y-138380952D01*
X158735833Y-138523809D01*
X158783452Y-138714285D01*
X158831071Y-138809523D01*
X158926309Y-138904761D01*
X159069166Y-138952380D01*
X159164404Y-138952380D01*
X159307261Y-138904761D01*
X159354880Y-138857142D01*
X159354880Y-138523809D01*
X159164404Y-138523809D01*
X159783452Y-138952380D02*
X159783452Y-137952380D01*
X160354880Y-138952380D01*
X160354880Y-137952380D01*
X160831071Y-138952380D02*
X160831071Y-137952380D01*
X161069166Y-137952380D01*
X161212023Y-138000000D01*
X161307261Y-138095238D01*
X161354880Y-138190476D01*
X161402499Y-138380952D01*
X161402499Y-138523809D01*
X161354880Y-138714285D01*
X161307261Y-138809523D01*
X161212023Y-138904761D01*
X161069166Y-138952380D01*
X160831071Y-138952380D01*
X124000000Y-63261904D02*
X123952380Y-63357142D01*
X123952380Y-63500000D01*
X124000000Y-63642857D01*
X124095238Y-63738095D01*
X124190476Y-63785714D01*
X124380952Y-63833333D01*
X124523809Y-63833333D01*
X124714285Y-63785714D01*
X124809523Y-63738095D01*
X124904761Y-63642857D01*
X124952380Y-63500000D01*
X124952380Y-63404761D01*
X124904761Y-63261904D01*
X124857142Y-63214285D01*
X124523809Y-63214285D01*
X124523809Y-63404761D01*
X124952380Y-62785714D02*
X123952380Y-62785714D01*
X124952380Y-62214285D01*
X123952380Y-62214285D01*
X124952380Y-61738095D02*
X123952380Y-61738095D01*
X123952380Y-61500000D01*
X124000000Y-61357142D01*
X124095238Y-61261904D01*
X124190476Y-61214285D01*
X124380952Y-61166666D01*
X124523809Y-61166666D01*
X124714285Y-61214285D01*
X124809523Y-61261904D01*
X124904761Y-61357142D01*
X124952380Y-61500000D01*
X124952380Y-61738095D01*
X114952380Y-64023808D02*
X113952380Y-64023808D01*
X113952380Y-63642856D01*
X114000000Y-63547618D01*
X114047619Y-63499999D01*
X114142857Y-63452380D01*
X114285714Y-63452380D01*
X114380952Y-63499999D01*
X114428571Y-63547618D01*
X114476190Y-63642856D01*
X114476190Y-64023808D01*
X113952380Y-63119047D02*
X114952380Y-62880951D01*
X114238095Y-62690475D01*
X114952380Y-62499999D01*
X113952380Y-62261904D01*
X114952380Y-61880951D02*
X113952380Y-61880951D01*
X114666666Y-61547618D01*
X113952380Y-61214285D01*
X114952380Y-61214285D01*
X109952380Y-63214285D02*
X108952380Y-63214285D01*
X108952380Y-62976189D01*
X109000000Y-62833332D01*
X109095238Y-62738094D01*
X109190476Y-62690475D01*
X109380952Y-62642856D01*
X109523809Y-62642856D01*
X109714285Y-62690475D01*
X109809523Y-62738094D01*
X109904761Y-62833332D01*
X109952380Y-62976189D01*
X109952380Y-63214285D01*
X109952380Y-62214285D02*
X108952380Y-62214285D01*
X109952380Y-61166665D02*
X109476190Y-61499999D01*
X109952380Y-61738094D02*
X108952380Y-61738094D01*
X108952380Y-61357142D01*
X109000000Y-61261904D01*
X109047619Y-61214285D01*
X109142857Y-61166665D01*
X109285714Y-61166665D01*
X109380952Y-61214285D01*
X109428571Y-61261904D01*
X109476190Y-61357142D01*
X109476190Y-61738094D01*
D11*
X119670000Y-119170000D02*
X121000000Y-119170000D01*
X119670000Y-120500000D02*
X119670000Y-119170000D01*
X119670000Y-121770000D02*
X122330000Y-121770000D01*
X122330000Y-121770000D02*
X122330000Y-139610000D01*
X119670000Y-121770000D02*
X119670000Y-139610000D01*
X119670000Y-139610000D02*
X122330000Y-139610000D01*
X91700000Y-60300000D02*
X92100000Y-60300000D01*
X91700000Y-59660000D02*
X91700000Y-60300000D01*
X133242000Y-55992000D02*
X132847000Y-56388000D01*
X135888000Y-53346000D02*
X135508000Y-53726000D01*
X133493000Y-56274000D02*
X133113000Y-56654000D01*
X136154000Y-53612000D02*
X135759000Y-54008000D01*
X128242000Y-55992000D02*
X127847000Y-56388000D01*
X130888000Y-53346000D02*
X130508000Y-53726000D01*
X128493000Y-56274000D02*
X128113000Y-56654000D01*
X131154000Y-53612000D02*
X130759000Y-54008000D01*
X123242000Y-55992000D02*
X122847000Y-56388000D01*
X125888000Y-53346000D02*
X125508000Y-53726000D01*
X123493000Y-56274000D02*
X123113000Y-56654000D01*
X126154000Y-53612000D02*
X125759000Y-54008000D01*
X118242000Y-55992000D02*
X117847000Y-56388000D01*
X120888000Y-53346000D02*
X120508000Y-53726000D01*
X118493000Y-56274000D02*
X118113000Y-56654000D01*
X121154000Y-53612000D02*
X120759000Y-54008000D01*
X113242000Y-55992000D02*
X112847000Y-56388000D01*
X115888000Y-53346000D02*
X115508000Y-53726000D01*
X113493000Y-56274000D02*
X113113000Y-56654000D01*
X116154000Y-53612000D02*
X115759000Y-54008000D01*
X108242000Y-55992000D02*
X107847000Y-56388000D01*
X110888000Y-53346000D02*
X110508000Y-53726000D01*
X108493000Y-56274000D02*
X108113000Y-56654000D01*
X111154000Y-53612000D02*
X110759000Y-54008000D01*
X103242000Y-55992000D02*
X102847000Y-56388000D01*
X105888000Y-53346000D02*
X105508000Y-53726000D01*
X103493000Y-56274000D02*
X103113000Y-56654000D01*
X106154000Y-53612000D02*
X105759000Y-54008000D01*
X98242000Y-55992000D02*
X97847000Y-56388000D01*
X100888000Y-53346000D02*
X100508000Y-53726000D01*
X98493000Y-56274000D02*
X98113000Y-56654000D01*
X101154000Y-53612000D02*
X100759000Y-54008000D01*
X92952000Y-56281000D02*
X92846000Y-56388000D01*
X95888000Y-53346000D02*
X95781000Y-53453000D01*
X93218000Y-56547000D02*
X93112000Y-56654000D01*
X96154000Y-53612000D02*
X96047000Y-53719000D01*
X137060000Y-50940000D02*
X137060000Y-60060000D01*
X91940000Y-50940000D02*
X91940000Y-60060000D01*
X91940000Y-60060000D02*
X137060000Y-60060000D01*
X91940000Y-50940000D02*
X137060000Y-50940000D01*
X91940000Y-58500000D02*
X137060000Y-58500000D01*
X91940000Y-59600000D02*
X137060000Y-59600000D01*
X136680000Y-55000000D02*
G75*
G03X136680000Y-55000000I-2180000J0D01*
G01*
X131680000Y-55000000D02*
G75*
G03X131680000Y-55000000I-2180000J0D01*
G01*
X126680000Y-55000000D02*
G75*
G03X126680000Y-55000000I-2180000J0D01*
G01*
X121680000Y-55000000D02*
G75*
G03X121680000Y-55000000I-2180000J0D01*
G01*
X116680000Y-55000000D02*
G75*
G03X116680000Y-55000000I-2180000J0D01*
G01*
X111680000Y-55000000D02*
G75*
G03X111680000Y-55000000I-2180000J0D01*
G01*
X106680000Y-55000000D02*
G75*
G03X106680000Y-55000000I-2180000J0D01*
G01*
X101680000Y-55000000D02*
G75*
G03X101680000Y-55000000I-2180000J0D01*
G01*
X96680000Y-55000000D02*
G75*
G03X96680000Y-55000000I-2180000J0D01*
G01*
X51100000Y-64649000D02*
X51100000Y-65149000D01*
X51840000Y-64649000D02*
X51100000Y-64649000D01*
X54977000Y-131222000D02*
X54931000Y-131175000D01*
X57275000Y-133519000D02*
X57239000Y-133484000D01*
X54761000Y-131415000D02*
X54726000Y-131380000D01*
X57069000Y-133724000D02*
X57023000Y-133677000D01*
X54977000Y-126222000D02*
X54931000Y-126175000D01*
X57275000Y-128519000D02*
X57239000Y-128484000D01*
X54761000Y-126415000D02*
X54726000Y-126380000D01*
X57069000Y-128724000D02*
X57023000Y-128677000D01*
X54977000Y-121222000D02*
X54931000Y-121175000D01*
X57275000Y-123519000D02*
X57239000Y-123484000D01*
X54761000Y-121415000D02*
X54726000Y-121380000D01*
X57069000Y-123724000D02*
X57023000Y-123677000D01*
X54977000Y-116222000D02*
X54931000Y-116175000D01*
X57275000Y-118519000D02*
X57239000Y-118484000D01*
X54761000Y-116415000D02*
X54726000Y-116380000D01*
X57069000Y-118724000D02*
X57023000Y-118677000D01*
X54977000Y-111222000D02*
X54931000Y-111175000D01*
X57275000Y-113519000D02*
X57239000Y-113484000D01*
X54761000Y-111415000D02*
X54726000Y-111380000D01*
X57069000Y-113724000D02*
X57023000Y-113677000D01*
X54977000Y-106222000D02*
X54931000Y-106175000D01*
X57275000Y-108519000D02*
X57239000Y-108484000D01*
X54761000Y-106415000D02*
X54726000Y-106380000D01*
X57069000Y-108724000D02*
X57023000Y-108677000D01*
X54977000Y-101222000D02*
X54931000Y-101175000D01*
X57275000Y-103519000D02*
X57239000Y-103484000D01*
X54761000Y-101415000D02*
X54726000Y-101380000D01*
X57069000Y-103724000D02*
X57023000Y-103677000D01*
X54977000Y-96222000D02*
X54931000Y-96175000D01*
X57275000Y-98519000D02*
X57239000Y-98484000D01*
X54761000Y-96415000D02*
X54726000Y-96380000D01*
X57069000Y-98724000D02*
X57023000Y-98677000D01*
X54977000Y-91222000D02*
X54931000Y-91175000D01*
X57275000Y-93519000D02*
X57239000Y-93484000D01*
X54761000Y-91415000D02*
X54726000Y-91380000D01*
X57069000Y-93724000D02*
X57023000Y-93677000D01*
X54977000Y-86222000D02*
X54931000Y-86175000D01*
X57275000Y-88519000D02*
X57239000Y-88484000D01*
X54761000Y-86415000D02*
X54726000Y-86380000D01*
X57069000Y-88724000D02*
X57023000Y-88677000D01*
X54977000Y-81222000D02*
X54931000Y-81175000D01*
X57275000Y-83519000D02*
X57239000Y-83484000D01*
X54761000Y-81415000D02*
X54726000Y-81380000D01*
X57069000Y-83724000D02*
X57023000Y-83677000D01*
X54977000Y-76222000D02*
X54931000Y-76175000D01*
X57275000Y-78519000D02*
X57239000Y-78484000D01*
X54761000Y-76415000D02*
X54726000Y-76380000D01*
X57069000Y-78724000D02*
X57023000Y-78677000D01*
X54977000Y-71222000D02*
X54931000Y-71175000D01*
X57275000Y-73519000D02*
X57239000Y-73484000D01*
X54761000Y-71415000D02*
X54726000Y-71380000D01*
X57069000Y-73724000D02*
X57023000Y-73677000D01*
X61261000Y-135009000D02*
X51340000Y-135009000D01*
X61261000Y-64889000D02*
X51340000Y-64889000D01*
X51340000Y-64889000D02*
X51340000Y-135009000D01*
X61261000Y-64889000D02*
X61261000Y-135009000D01*
X58301000Y-64889000D02*
X58301000Y-135009000D01*
X53400000Y-64889000D02*
X53400000Y-135009000D01*
X51900000Y-64889000D02*
X51900000Y-135009000D01*
X57680000Y-132449000D02*
G75*
G03X57680000Y-132449000I-1680000J0D01*
G01*
X57680000Y-127449000D02*
G75*
G03X57680000Y-127449000I-1680000J0D01*
G01*
X57680000Y-122449000D02*
G75*
G03X57680000Y-122449000I-1680000J0D01*
G01*
X57680000Y-117449000D02*
G75*
G03X57680000Y-117449000I-1680000J0D01*
G01*
X57680000Y-112449000D02*
G75*
G03X57680000Y-112449000I-1680000J0D01*
G01*
X57680000Y-107449000D02*
G75*
G03X57680000Y-107449000I-1680000J0D01*
G01*
X57680000Y-102449000D02*
G75*
G03X57680000Y-102449000I-1680000J0D01*
G01*
X57680000Y-97449000D02*
G75*
G03X57680000Y-97449000I-1680000J0D01*
G01*
X57680000Y-92449000D02*
G75*
G03X57680000Y-92449000I-1680000J0D01*
G01*
X57680000Y-87449000D02*
G75*
G03X57680000Y-87449000I-1680000J0D01*
G01*
X57680000Y-82449000D02*
G75*
G03X57680000Y-82449000I-1680000J0D01*
G01*
X57680000Y-77449000D02*
G75*
G03X57680000Y-77449000I-1680000J0D01*
G01*
X57680000Y-72449000D02*
G75*
G03X57680000Y-72449000I-1680000J0D01*
G01*
X54319747Y-67477805D02*
G75*
G02X54465000Y-66765000I1680253J28805D01*
G01*
X55316958Y-65913574D02*
G75*
G02X56684000Y-65914000I683042J-1535426D01*
G01*
X57535426Y-66765958D02*
G75*
G02X57535000Y-68133000I-1535426J-683042D01*
G01*
X56683042Y-68984426D02*
G75*
G02X55316000Y-68984000I-683042J1535426D01*
G01*
X54465244Y-68132318D02*
G75*
G02X54320000Y-67449000I1534756J683318D01*
G01*
X148500000Y-112830000D02*
X147170000Y-112830000D01*
X147170000Y-112830000D02*
X147170000Y-111500000D01*
X147170000Y-110230000D02*
X147170000Y-102550000D01*
X149830000Y-102550000D02*
X147170000Y-102550000D01*
X149830000Y-110230000D02*
X149830000Y-102550000D01*
X149830000Y-110230000D02*
X147170000Y-110230000D01*
X149000000Y-52670000D02*
X150330000Y-52670000D01*
X150330000Y-52670000D02*
X150330000Y-54000000D01*
X147730000Y-52670000D02*
X147730000Y-55270000D01*
X147730000Y-55270000D02*
X150330000Y-55270000D01*
X150330000Y-55270000D02*
X150330000Y-65490000D01*
X145130000Y-65490000D02*
X150330000Y-65490000D01*
X145130000Y-52670000D02*
X145130000Y-65490000D01*
X145130000Y-52670000D02*
X147730000Y-52670000D01*
X107370000Y-91870000D02*
X104630000Y-91870000D01*
X107370000Y-86630000D02*
X104630000Y-86630000D01*
X104630000Y-86630000D02*
X104630000Y-91870000D01*
X107370000Y-86630000D02*
X107370000Y-91870000D01*
X114370000Y-91870000D02*
X111630000Y-91870000D01*
X114370000Y-86630000D02*
X111630000Y-86630000D01*
X111630000Y-86630000D02*
X111630000Y-91870000D01*
X114370000Y-86630000D02*
X114370000Y-91870000D01*
X135540000Y-139830000D02*
X137190000Y-139830000D01*
X135540000Y-104150000D02*
X135540000Y-139830000D01*
X140840000Y-104150000D02*
X135540000Y-104150000D01*
X140840000Y-139830000D02*
X140840000Y-104150000D01*
X139190000Y-139830000D02*
X140840000Y-139830000D01*
X137190000Y-139830000D02*
G75*
G02X139190000Y-139830000I1000000J0D01*
G01*
X145380000Y-89500000D02*
X146150000Y-89500000D01*
X153460000Y-89500000D02*
X152690000Y-89500000D01*
X146150000Y-90870000D02*
X152690000Y-90870000D01*
X146150000Y-88130000D02*
X146150000Y-90870000D01*
X152690000Y-88130000D02*
X146150000Y-88130000D01*
X152690000Y-90870000D02*
X152690000Y-88130000D01*
X149380000Y-94500000D02*
X150150000Y-94500000D01*
X157460000Y-94500000D02*
X156690000Y-94500000D01*
X150150000Y-95870000D02*
X156690000Y-95870000D01*
X150150000Y-93130000D02*
X150150000Y-95870000D01*
X156690000Y-93130000D02*
X150150000Y-93130000D01*
X156690000Y-95870000D02*
X156690000Y-93130000D01*
X127120000Y-113000000D02*
X126350000Y-113000000D01*
X119040000Y-113000000D02*
X119810000Y-113000000D01*
X126350000Y-111630000D02*
X119810000Y-111630000D01*
X126350000Y-114370000D02*
X126350000Y-111630000D01*
X119810000Y-114370000D02*
X126350000Y-114370000D01*
X119810000Y-111630000D02*
X119810000Y-114370000D01*
X147620000Y-145000000D02*
X146850000Y-145000000D01*
X139540000Y-145000000D02*
X140310000Y-145000000D01*
X146850000Y-143630000D02*
X140310000Y-143630000D01*
X146850000Y-146370000D02*
X146850000Y-143630000D01*
X140310000Y-146370000D02*
X146850000Y-146370000D01*
X140310000Y-143630000D02*
X140310000Y-146370000D01*
X160870000Y-101630000D02*
X160870000Y-104370000D01*
X155630000Y-101630000D02*
X155630000Y-104370000D01*
X155630000Y-104370000D02*
X160870000Y-104370000D01*
X155630000Y-101630000D02*
X160870000Y-101630000D01*
X163940000Y-99640000D02*
X163940000Y-81600000D01*
X120500000Y-99640000D02*
X163940000Y-99640000D01*
X120500000Y-81600000D02*
X120500000Y-99640000D01*
X123170000Y-84270000D02*
X123170000Y-81600000D01*
X158730000Y-84270000D02*
X123170000Y-84270000D01*
X158730000Y-84270000D02*
X158730000Y-81600000D01*
X123170000Y-96970000D02*
X123170000Y-99640000D01*
X161270000Y-96970000D02*
X123170000Y-96970000D01*
X161270000Y-96970000D02*
X161270000Y-99640000D01*
X163940000Y-81600000D02*
X161270000Y-81600000D01*
X158730000Y-81600000D02*
X120500000Y-81600000D01*
X161270000Y-84270000D02*
X161270000Y-81600000D01*
X158730000Y-84270000D02*
X161270000Y-84270000D01*
X101130000Y-115870000D02*
X101130000Y-113130000D01*
X106370000Y-115870000D02*
X106370000Y-113130000D01*
X106370000Y-113130000D02*
X101130000Y-113130000D01*
X106370000Y-115870000D02*
X101130000Y-115870000D01*
X104500000Y-75500000D02*
X104500000Y-85500000D01*
X114700000Y-75500000D02*
X114700000Y-85500000D01*
X104500000Y-85500000D02*
X114700000Y-85500000D01*
X104500000Y-75500000D02*
X114700000Y-75500000D01*
D12*
X100730000Y-70000000D02*
X102000000Y-70000000D01*
X102000000Y-69415800D02*
X102000000Y-70000000D01*
X102000000Y-70000000D02*
X103143000Y-69415800D01*
X103143000Y-69415800D02*
X103143000Y-70584200D01*
X103143000Y-70584200D02*
X102000000Y-70000000D01*
X102000000Y-70000000D02*
X104286000Y-70000000D01*
X102000000Y-70000000D02*
X102000000Y-70584200D01*
X96920000Y-72794000D02*
X96920000Y-67206000D01*
X107080000Y-67206000D02*
X107080000Y-72794000D01*
X96920000Y-67206000D02*
X107080000Y-67206000D01*
X107080000Y-72794000D02*
X96920000Y-72794000D01*
D13*
G36*
X97809000Y-72794000D02*
G01*
X98571000Y-72794000D01*
X98571000Y-67206000D01*
X97809000Y-67206000D01*
X97809000Y-72794000D01*
G37*
G36*
X96031000Y-70635000D02*
G01*
X96920000Y-70635000D01*
X96920000Y-69365000D01*
X96031000Y-69365000D01*
X96031000Y-70635000D01*
G37*
G36*
X107080000Y-70635000D02*
G01*
X107969000Y-70635000D01*
X107969000Y-69365000D01*
X107080000Y-69365000D01*
X107080000Y-70635000D01*
G37*
D11*
X68578000Y-72507142D02*
X68578000Y-63507142D01*
X87078000Y-72507142D02*
X87078000Y-63507142D01*
X87078000Y-63507142D02*
X68578000Y-63507142D01*
X87078000Y-72507142D02*
X68578000Y-72507142D01*
X68578000Y-148054000D02*
X68578000Y-139054000D01*
X87078000Y-148054000D02*
X87078000Y-139054000D01*
X87078000Y-139054000D02*
X68578000Y-139054000D01*
X87078000Y-148054000D02*
X68578000Y-148054000D01*
X68578000Y-135462852D02*
X68578000Y-126462852D01*
X87078000Y-135462852D02*
X87078000Y-126462852D01*
X87078000Y-126462852D02*
X68578000Y-126462852D01*
X87078000Y-135462852D02*
X68578000Y-135462852D01*
X68578000Y-122871710D02*
X68578000Y-113871710D01*
X87078000Y-122871710D02*
X87078000Y-113871710D01*
X87078000Y-113871710D02*
X68578000Y-113871710D01*
X87078000Y-122871710D02*
X68578000Y-122871710D01*
X68578000Y-110280568D02*
X68578000Y-101280568D01*
X87078000Y-110280568D02*
X87078000Y-101280568D01*
X87078000Y-101280568D02*
X68578000Y-101280568D01*
X87078000Y-110280568D02*
X68578000Y-110280568D01*
X68578000Y-97689426D02*
X68578000Y-88689426D01*
X87078000Y-97689426D02*
X87078000Y-88689426D01*
X87078000Y-88689426D02*
X68578000Y-88689426D01*
X87078000Y-97689426D02*
X68578000Y-97689426D01*
X68578000Y-85098284D02*
X68578000Y-76098284D01*
X87078000Y-85098284D02*
X87078000Y-76098284D01*
X87078000Y-76098284D02*
X68578000Y-76098284D01*
X87078000Y-85098284D02*
X68578000Y-85098284D01*
X68578000Y-59916000D02*
X68578000Y-50916000D01*
X87078000Y-59916000D02*
X87078000Y-50916000D01*
X87078000Y-50916000D02*
X68578000Y-50916000D01*
X87078000Y-59916000D02*
X68578000Y-59916000D01*
D12*
X106108000Y-139760000D02*
G75*
G03X104076000Y-139760000I-1016000J0D01*
G01*
X108013000Y-139760000D02*
X106108000Y-139760000D01*
X102171000Y-139760000D02*
X104076000Y-139760000D01*
X102171000Y-116900000D02*
X108013000Y-116900000D01*
X108013000Y-139760000D02*
X108013000Y-116900000D01*
X102171000Y-116900000D02*
X102171000Y-139760000D01*
D11*
X127920000Y-142210000D02*
X127764000Y-142210000D01*
X130236000Y-142210000D02*
X130080000Y-142210000D01*
X127920163Y-144811130D02*
G75*
G02X127920000Y-142729039I1079837J1041130D01*
G01*
X130079837Y-144811130D02*
G75*
G03X130080000Y-142729039I-1079837J1041130D01*
G01*
X127921392Y-145442335D02*
G75*
G02X127764484Y-142210000I1078608J1672335D01*
G01*
X130078608Y-145442335D02*
G75*
G03X130235516Y-142210000I-1078608J1672335D01*
G01*
X147130000Y-115630000D02*
X149870000Y-115630000D01*
X147130000Y-120870000D02*
X149870000Y-120870000D01*
X149870000Y-120870000D02*
X149870000Y-115630000D01*
X147130000Y-120870000D02*
X147130000Y-115630000D01*
X100375000Y-75020354D02*
X99375000Y-75020354D01*
X99875000Y-74520354D02*
X99875000Y-75520354D01*
X97599000Y-85081000D02*
X96401000Y-85081000D01*
X97862000Y-85041000D02*
X96138000Y-85041000D01*
X98062000Y-85001000D02*
X95938000Y-85001000D01*
X98230000Y-84961000D02*
X95770000Y-84961000D01*
X98378000Y-84921000D02*
X95622000Y-84921000D01*
X98510000Y-84881000D02*
X95490000Y-84881000D01*
X98630000Y-84841000D02*
X95370000Y-84841000D01*
X98742000Y-84801000D02*
X95258000Y-84801000D01*
X98846000Y-84761000D02*
X95154000Y-84761000D01*
X98944000Y-84721000D02*
X95056000Y-84721000D01*
X99037000Y-84681000D02*
X94963000Y-84681000D01*
X99125000Y-84641000D02*
X94875000Y-84641000D01*
X99209000Y-84601000D02*
X94791000Y-84601000D01*
X99289000Y-84561000D02*
X94711000Y-84561000D01*
X99365000Y-84521000D02*
X94635000Y-84521000D01*
X99439000Y-84481000D02*
X94561000Y-84481000D01*
X99510000Y-84441000D02*
X94490000Y-84441000D01*
X99579000Y-84401000D02*
X94421000Y-84401000D01*
X99645000Y-84361000D02*
X94355000Y-84361000D01*
X99709000Y-84321000D02*
X94291000Y-84321000D01*
X99770000Y-84281000D02*
X94230000Y-84281000D01*
X99830000Y-84241000D02*
X94170000Y-84241000D01*
X99889000Y-84201000D02*
X94111000Y-84201000D01*
X99945000Y-84161000D02*
X94055000Y-84161000D01*
X100000000Y-84121000D02*
X94000000Y-84121000D01*
X100054000Y-84081000D02*
X93946000Y-84081000D01*
X100106000Y-84041000D02*
X93894000Y-84041000D01*
X100156000Y-84001000D02*
X93844000Y-84001000D01*
X100206000Y-83961000D02*
X93794000Y-83961000D01*
X100254000Y-83921000D02*
X93746000Y-83921000D01*
X100301000Y-83881000D02*
X93699000Y-83881000D01*
X100347000Y-83841000D02*
X93653000Y-83841000D01*
X100392000Y-83801000D02*
X93608000Y-83801000D01*
X100436000Y-83761000D02*
X93564000Y-83761000D01*
X95759000Y-83721000D02*
X93522000Y-83721000D01*
X100478000Y-83721000D02*
X98241000Y-83721000D01*
X95759000Y-83681000D02*
X93480000Y-83681000D01*
X100520000Y-83681000D02*
X98241000Y-83681000D01*
X95759000Y-83641000D02*
X93439000Y-83641000D01*
X100561000Y-83641000D02*
X98241000Y-83641000D01*
X95759000Y-83601000D02*
X93399000Y-83601000D01*
X100601000Y-83601000D02*
X98241000Y-83601000D01*
X95759000Y-83561000D02*
X93360000Y-83561000D01*
X100640000Y-83561000D02*
X98241000Y-83561000D01*
X95759000Y-83521000D02*
X93321000Y-83521000D01*
X100679000Y-83521000D02*
X98241000Y-83521000D01*
X95759000Y-83481000D02*
X93284000Y-83481000D01*
X100716000Y-83481000D02*
X98241000Y-83481000D01*
X95759000Y-83441000D02*
X93247000Y-83441000D01*
X100753000Y-83441000D02*
X98241000Y-83441000D01*
X95759000Y-83401000D02*
X93211000Y-83401000D01*
X100789000Y-83401000D02*
X98241000Y-83401000D01*
X95759000Y-83361000D02*
X93176000Y-83361000D01*
X100824000Y-83361000D02*
X98241000Y-83361000D01*
X95759000Y-83321000D02*
X93142000Y-83321000D01*
X100858000Y-83321000D02*
X98241000Y-83321000D01*
X95759000Y-83281000D02*
X93108000Y-83281000D01*
X100892000Y-83281000D02*
X98241000Y-83281000D01*
X95759000Y-83241000D02*
X93075000Y-83241000D01*
X100925000Y-83241000D02*
X98241000Y-83241000D01*
X95759000Y-83201000D02*
X93043000Y-83201000D01*
X100957000Y-83201000D02*
X98241000Y-83201000D01*
X95759000Y-83161000D02*
X93011000Y-83161000D01*
X100989000Y-83161000D02*
X98241000Y-83161000D01*
X95759000Y-83121000D02*
X92980000Y-83121000D01*
X101020000Y-83121000D02*
X98241000Y-83121000D01*
X95759000Y-83081000D02*
X92950000Y-83081000D01*
X101050000Y-83081000D02*
X98241000Y-83081000D01*
X95759000Y-83041000D02*
X92920000Y-83041000D01*
X101080000Y-83041000D02*
X98241000Y-83041000D01*
X95759000Y-83001000D02*
X92890000Y-83001000D01*
X101110000Y-83001000D02*
X98241000Y-83001000D01*
X95759000Y-82961000D02*
X92862000Y-82961000D01*
X101138000Y-82961000D02*
X98241000Y-82961000D01*
X95759000Y-82921000D02*
X92834000Y-82921000D01*
X101166000Y-82921000D02*
X98241000Y-82921000D01*
X95759000Y-82881000D02*
X92806000Y-82881000D01*
X101194000Y-82881000D02*
X98241000Y-82881000D01*
X95759000Y-82841000D02*
X92779000Y-82841000D01*
X101221000Y-82841000D02*
X98241000Y-82841000D01*
X95759000Y-82801000D02*
X92753000Y-82801000D01*
X101247000Y-82801000D02*
X98241000Y-82801000D01*
X95759000Y-82761000D02*
X92727000Y-82761000D01*
X101273000Y-82761000D02*
X98241000Y-82761000D01*
X95759000Y-82721000D02*
X92702000Y-82721000D01*
X101298000Y-82721000D02*
X98241000Y-82721000D01*
X95759000Y-82681000D02*
X92677000Y-82681000D01*
X101323000Y-82681000D02*
X98241000Y-82681000D01*
X95759000Y-82641000D02*
X92653000Y-82641000D01*
X101347000Y-82641000D02*
X98241000Y-82641000D01*
X95759000Y-82601000D02*
X92629000Y-82601000D01*
X101371000Y-82601000D02*
X98241000Y-82601000D01*
X95759000Y-82561000D02*
X92605000Y-82561000D01*
X101395000Y-82561000D02*
X98241000Y-82561000D01*
X95759000Y-82521000D02*
X92583000Y-82521000D01*
X101417000Y-82521000D02*
X98241000Y-82521000D01*
X95759000Y-82481000D02*
X92560000Y-82481000D01*
X101440000Y-82481000D02*
X98241000Y-82481000D01*
X95759000Y-82441000D02*
X92538000Y-82441000D01*
X101462000Y-82441000D02*
X98241000Y-82441000D01*
X95759000Y-82401000D02*
X92517000Y-82401000D01*
X101483000Y-82401000D02*
X98241000Y-82401000D01*
X95759000Y-82361000D02*
X92496000Y-82361000D01*
X101504000Y-82361000D02*
X98241000Y-82361000D01*
X95759000Y-82321000D02*
X92475000Y-82321000D01*
X101525000Y-82321000D02*
X98241000Y-82321000D01*
X95759000Y-82281000D02*
X92455000Y-82281000D01*
X101545000Y-82281000D02*
X98241000Y-82281000D01*
X95759000Y-82241000D02*
X92436000Y-82241000D01*
X101564000Y-82241000D02*
X98241000Y-82241000D01*
X95759000Y-82201000D02*
X92416000Y-82201000D01*
X101584000Y-82201000D02*
X98241000Y-82201000D01*
X95759000Y-82161000D02*
X92397000Y-82161000D01*
X101603000Y-82161000D02*
X98241000Y-82161000D01*
X95759000Y-82121000D02*
X92379000Y-82121000D01*
X101621000Y-82121000D02*
X98241000Y-82121000D01*
X95759000Y-82081000D02*
X92361000Y-82081000D01*
X101639000Y-82081000D02*
X98241000Y-82081000D01*
X95759000Y-82041000D02*
X92343000Y-82041000D01*
X101657000Y-82041000D02*
X98241000Y-82041000D01*
X95759000Y-82001000D02*
X92326000Y-82001000D01*
X101674000Y-82001000D02*
X98241000Y-82001000D01*
X95759000Y-81961000D02*
X92310000Y-81961000D01*
X101690000Y-81961000D02*
X98241000Y-81961000D01*
X95759000Y-81921000D02*
X92293000Y-81921000D01*
X101707000Y-81921000D02*
X98241000Y-81921000D01*
X95759000Y-81881000D02*
X92277000Y-81881000D01*
X101723000Y-81881000D02*
X98241000Y-81881000D01*
X95759000Y-81841000D02*
X92262000Y-81841000D01*
X101738000Y-81841000D02*
X98241000Y-81841000D01*
X95759000Y-81801000D02*
X92246000Y-81801000D01*
X101754000Y-81801000D02*
X98241000Y-81801000D01*
X95759000Y-81761000D02*
X92232000Y-81761000D01*
X101768000Y-81761000D02*
X98241000Y-81761000D01*
X95759000Y-81721000D02*
X92217000Y-81721000D01*
X101783000Y-81721000D02*
X98241000Y-81721000D01*
X95759000Y-81681000D02*
X92203000Y-81681000D01*
X101797000Y-81681000D02*
X98241000Y-81681000D01*
X95759000Y-81641000D02*
X92189000Y-81641000D01*
X101811000Y-81641000D02*
X98241000Y-81641000D01*
X95759000Y-81601000D02*
X92176000Y-81601000D01*
X101824000Y-81601000D02*
X98241000Y-81601000D01*
X95759000Y-81561000D02*
X92163000Y-81561000D01*
X101837000Y-81561000D02*
X98241000Y-81561000D01*
X95759000Y-81521000D02*
X92150000Y-81521000D01*
X101850000Y-81521000D02*
X98241000Y-81521000D01*
X95759000Y-81481000D02*
X92138000Y-81481000D01*
X101862000Y-81481000D02*
X98241000Y-81481000D01*
X95759000Y-81441000D02*
X92126000Y-81441000D01*
X101874000Y-81441000D02*
X98241000Y-81441000D01*
X95759000Y-81401000D02*
X92115000Y-81401000D01*
X101885000Y-81401000D02*
X98241000Y-81401000D01*
X95759000Y-81361000D02*
X92103000Y-81361000D01*
X101897000Y-81361000D02*
X98241000Y-81361000D01*
X95759000Y-81321000D02*
X92093000Y-81321000D01*
X101907000Y-81321000D02*
X98241000Y-81321000D01*
X95759000Y-81281000D02*
X92082000Y-81281000D01*
X101918000Y-81281000D02*
X98241000Y-81281000D01*
X101928000Y-81241000D02*
X92072000Y-81241000D01*
X101938000Y-81201000D02*
X92062000Y-81201000D01*
X101947000Y-81161000D02*
X92053000Y-81161000D01*
X101956000Y-81121000D02*
X92044000Y-81121000D01*
X101965000Y-81081000D02*
X92035000Y-81081000D01*
X101974000Y-81041000D02*
X92026000Y-81041000D01*
X101982000Y-81001000D02*
X92018000Y-81001000D01*
X101990000Y-80961000D02*
X92010000Y-80961000D01*
X101997000Y-80921000D02*
X92003000Y-80921000D01*
X102004000Y-80881000D02*
X91996000Y-80881000D01*
X102011000Y-80841000D02*
X91989000Y-80841000D01*
X102018000Y-80801000D02*
X91982000Y-80801000D01*
X102024000Y-80761000D02*
X91976000Y-80761000D01*
X102030000Y-80721000D02*
X91970000Y-80721000D01*
X102035000Y-80680000D02*
X91965000Y-80680000D01*
X102040000Y-80640000D02*
X91960000Y-80640000D01*
X102045000Y-80600000D02*
X91955000Y-80600000D01*
X102050000Y-80560000D02*
X91950000Y-80560000D01*
X102054000Y-80520000D02*
X91946000Y-80520000D01*
X102058000Y-80480000D02*
X91942000Y-80480000D01*
X102062000Y-80440000D02*
X91938000Y-80440000D01*
X102065000Y-80400000D02*
X91935000Y-80400000D01*
X102068000Y-80360000D02*
X91932000Y-80360000D01*
X102070000Y-80320000D02*
X91930000Y-80320000D01*
X102073000Y-80280000D02*
X91927000Y-80280000D01*
X102075000Y-80240000D02*
X91925000Y-80240000D01*
X102077000Y-80200000D02*
X91923000Y-80200000D01*
X102078000Y-80160000D02*
X91922000Y-80160000D01*
X102079000Y-80120000D02*
X91921000Y-80120000D01*
X102080000Y-80080000D02*
X91920000Y-80080000D01*
X102080000Y-80040000D02*
X91920000Y-80040000D01*
X102080000Y-80000000D02*
X91920000Y-80000000D01*
X102120000Y-80000000D02*
G75*
G03X102120000Y-80000000I-5120000J0D01*
G01*
X114375000Y-99520354D02*
X113375000Y-99520354D01*
X113875000Y-99020354D02*
X113875000Y-100020354D01*
X111599000Y-109581000D02*
X110401000Y-109581000D01*
X111862000Y-109541000D02*
X110138000Y-109541000D01*
X112062000Y-109501000D02*
X109938000Y-109501000D01*
X112230000Y-109461000D02*
X109770000Y-109461000D01*
X112378000Y-109421000D02*
X109622000Y-109421000D01*
X112510000Y-109381000D02*
X109490000Y-109381000D01*
X112630000Y-109341000D02*
X109370000Y-109341000D01*
X112742000Y-109301000D02*
X109258000Y-109301000D01*
X112846000Y-109261000D02*
X109154000Y-109261000D01*
X112944000Y-109221000D02*
X109056000Y-109221000D01*
X113037000Y-109181000D02*
X108963000Y-109181000D01*
X113125000Y-109141000D02*
X108875000Y-109141000D01*
X113209000Y-109101000D02*
X108791000Y-109101000D01*
X113289000Y-109061000D02*
X108711000Y-109061000D01*
X113365000Y-109021000D02*
X108635000Y-109021000D01*
X113439000Y-108981000D02*
X108561000Y-108981000D01*
X113510000Y-108941000D02*
X108490000Y-108941000D01*
X113579000Y-108901000D02*
X108421000Y-108901000D01*
X113645000Y-108861000D02*
X108355000Y-108861000D01*
X113709000Y-108821000D02*
X108291000Y-108821000D01*
X113770000Y-108781000D02*
X108230000Y-108781000D01*
X113830000Y-108741000D02*
X108170000Y-108741000D01*
X113889000Y-108701000D02*
X108111000Y-108701000D01*
X113945000Y-108661000D02*
X108055000Y-108661000D01*
X114000000Y-108621000D02*
X108000000Y-108621000D01*
X114054000Y-108581000D02*
X107946000Y-108581000D01*
X114106000Y-108541000D02*
X107894000Y-108541000D01*
X114156000Y-108501000D02*
X107844000Y-108501000D01*
X114206000Y-108461000D02*
X107794000Y-108461000D01*
X114254000Y-108421000D02*
X107746000Y-108421000D01*
X114301000Y-108381000D02*
X107699000Y-108381000D01*
X114347000Y-108341000D02*
X107653000Y-108341000D01*
X114392000Y-108301000D02*
X107608000Y-108301000D01*
X114436000Y-108261000D02*
X107564000Y-108261000D01*
X109759000Y-108221000D02*
X107522000Y-108221000D01*
X114478000Y-108221000D02*
X112241000Y-108221000D01*
X109759000Y-108181000D02*
X107480000Y-108181000D01*
X114520000Y-108181000D02*
X112241000Y-108181000D01*
X109759000Y-108141000D02*
X107439000Y-108141000D01*
X114561000Y-108141000D02*
X112241000Y-108141000D01*
X109759000Y-108101000D02*
X107399000Y-108101000D01*
X114601000Y-108101000D02*
X112241000Y-108101000D01*
X109759000Y-108061000D02*
X107360000Y-108061000D01*
X114640000Y-108061000D02*
X112241000Y-108061000D01*
X109759000Y-108021000D02*
X107321000Y-108021000D01*
X114679000Y-108021000D02*
X112241000Y-108021000D01*
X109759000Y-107981000D02*
X107284000Y-107981000D01*
X114716000Y-107981000D02*
X112241000Y-107981000D01*
X109759000Y-107941000D02*
X107247000Y-107941000D01*
X114753000Y-107941000D02*
X112241000Y-107941000D01*
X109759000Y-107901000D02*
X107211000Y-107901000D01*
X114789000Y-107901000D02*
X112241000Y-107901000D01*
X109759000Y-107861000D02*
X107176000Y-107861000D01*
X114824000Y-107861000D02*
X112241000Y-107861000D01*
X109759000Y-107821000D02*
X107142000Y-107821000D01*
X114858000Y-107821000D02*
X112241000Y-107821000D01*
X109759000Y-107781000D02*
X107108000Y-107781000D01*
X114892000Y-107781000D02*
X112241000Y-107781000D01*
X109759000Y-107741000D02*
X107075000Y-107741000D01*
X114925000Y-107741000D02*
X112241000Y-107741000D01*
X109759000Y-107701000D02*
X107043000Y-107701000D01*
X114957000Y-107701000D02*
X112241000Y-107701000D01*
X109759000Y-107661000D02*
X107011000Y-107661000D01*
X114989000Y-107661000D02*
X112241000Y-107661000D01*
X109759000Y-107621000D02*
X106980000Y-107621000D01*
X115020000Y-107621000D02*
X112241000Y-107621000D01*
X109759000Y-107581000D02*
X106950000Y-107581000D01*
X115050000Y-107581000D02*
X112241000Y-107581000D01*
X109759000Y-107541000D02*
X106920000Y-107541000D01*
X115080000Y-107541000D02*
X112241000Y-107541000D01*
X109759000Y-107501000D02*
X106890000Y-107501000D01*
X115110000Y-107501000D02*
X112241000Y-107501000D01*
X109759000Y-107461000D02*
X106862000Y-107461000D01*
X115138000Y-107461000D02*
X112241000Y-107461000D01*
X109759000Y-107421000D02*
X106834000Y-107421000D01*
X115166000Y-107421000D02*
X112241000Y-107421000D01*
X109759000Y-107381000D02*
X106806000Y-107381000D01*
X115194000Y-107381000D02*
X112241000Y-107381000D01*
X109759000Y-107341000D02*
X106779000Y-107341000D01*
X115221000Y-107341000D02*
X112241000Y-107341000D01*
X109759000Y-107301000D02*
X106753000Y-107301000D01*
X115247000Y-107301000D02*
X112241000Y-107301000D01*
X109759000Y-107261000D02*
X106727000Y-107261000D01*
X115273000Y-107261000D02*
X112241000Y-107261000D01*
X109759000Y-107221000D02*
X106702000Y-107221000D01*
X115298000Y-107221000D02*
X112241000Y-107221000D01*
X109759000Y-107181000D02*
X106677000Y-107181000D01*
X115323000Y-107181000D02*
X112241000Y-107181000D01*
X109759000Y-107141000D02*
X106653000Y-107141000D01*
X115347000Y-107141000D02*
X112241000Y-107141000D01*
X109759000Y-107101000D02*
X106629000Y-107101000D01*
X115371000Y-107101000D02*
X112241000Y-107101000D01*
X109759000Y-107061000D02*
X106605000Y-107061000D01*
X115395000Y-107061000D02*
X112241000Y-107061000D01*
X109759000Y-107021000D02*
X106583000Y-107021000D01*
X115417000Y-107021000D02*
X112241000Y-107021000D01*
X109759000Y-106981000D02*
X106560000Y-106981000D01*
X115440000Y-106981000D02*
X112241000Y-106981000D01*
X109759000Y-106941000D02*
X106538000Y-106941000D01*
X115462000Y-106941000D02*
X112241000Y-106941000D01*
X109759000Y-106901000D02*
X106517000Y-106901000D01*
X115483000Y-106901000D02*
X112241000Y-106901000D01*
X109759000Y-106861000D02*
X106496000Y-106861000D01*
X115504000Y-106861000D02*
X112241000Y-106861000D01*
X109759000Y-106821000D02*
X106475000Y-106821000D01*
X115525000Y-106821000D02*
X112241000Y-106821000D01*
X109759000Y-106781000D02*
X106455000Y-106781000D01*
X115545000Y-106781000D02*
X112241000Y-106781000D01*
X109759000Y-106741000D02*
X106436000Y-106741000D01*
X115564000Y-106741000D02*
X112241000Y-106741000D01*
X109759000Y-106701000D02*
X106416000Y-106701000D01*
X115584000Y-106701000D02*
X112241000Y-106701000D01*
X109759000Y-106661000D02*
X106397000Y-106661000D01*
X115603000Y-106661000D02*
X112241000Y-106661000D01*
X109759000Y-106621000D02*
X106379000Y-106621000D01*
X115621000Y-106621000D02*
X112241000Y-106621000D01*
X109759000Y-106581000D02*
X106361000Y-106581000D01*
X115639000Y-106581000D02*
X112241000Y-106581000D01*
X109759000Y-106541000D02*
X106343000Y-106541000D01*
X115657000Y-106541000D02*
X112241000Y-106541000D01*
X109759000Y-106501000D02*
X106326000Y-106501000D01*
X115674000Y-106501000D02*
X112241000Y-106501000D01*
X109759000Y-106461000D02*
X106310000Y-106461000D01*
X115690000Y-106461000D02*
X112241000Y-106461000D01*
X109759000Y-106421000D02*
X106293000Y-106421000D01*
X115707000Y-106421000D02*
X112241000Y-106421000D01*
X109759000Y-106381000D02*
X106277000Y-106381000D01*
X115723000Y-106381000D02*
X112241000Y-106381000D01*
X109759000Y-106341000D02*
X106262000Y-106341000D01*
X115738000Y-106341000D02*
X112241000Y-106341000D01*
X109759000Y-106301000D02*
X106246000Y-106301000D01*
X115754000Y-106301000D02*
X112241000Y-106301000D01*
X109759000Y-106261000D02*
X106232000Y-106261000D01*
X115768000Y-106261000D02*
X112241000Y-106261000D01*
X109759000Y-106221000D02*
X106217000Y-106221000D01*
X115783000Y-106221000D02*
X112241000Y-106221000D01*
X109759000Y-106181000D02*
X106203000Y-106181000D01*
X115797000Y-106181000D02*
X112241000Y-106181000D01*
X109759000Y-106141000D02*
X106189000Y-106141000D01*
X115811000Y-106141000D02*
X112241000Y-106141000D01*
X109759000Y-106101000D02*
X106176000Y-106101000D01*
X115824000Y-106101000D02*
X112241000Y-106101000D01*
X109759000Y-106061000D02*
X106163000Y-106061000D01*
X115837000Y-106061000D02*
X112241000Y-106061000D01*
X109759000Y-106021000D02*
X106150000Y-106021000D01*
X115850000Y-106021000D02*
X112241000Y-106021000D01*
X109759000Y-105981000D02*
X106138000Y-105981000D01*
X115862000Y-105981000D02*
X112241000Y-105981000D01*
X109759000Y-105941000D02*
X106126000Y-105941000D01*
X115874000Y-105941000D02*
X112241000Y-105941000D01*
X109759000Y-105901000D02*
X106115000Y-105901000D01*
X115885000Y-105901000D02*
X112241000Y-105901000D01*
X109759000Y-105861000D02*
X106103000Y-105861000D01*
X115897000Y-105861000D02*
X112241000Y-105861000D01*
X109759000Y-105821000D02*
X106093000Y-105821000D01*
X115907000Y-105821000D02*
X112241000Y-105821000D01*
X109759000Y-105781000D02*
X106082000Y-105781000D01*
X115918000Y-105781000D02*
X112241000Y-105781000D01*
X115928000Y-105741000D02*
X106072000Y-105741000D01*
X115938000Y-105701000D02*
X106062000Y-105701000D01*
X115947000Y-105661000D02*
X106053000Y-105661000D01*
X115956000Y-105621000D02*
X106044000Y-105621000D01*
X115965000Y-105581000D02*
X106035000Y-105581000D01*
X115974000Y-105541000D02*
X106026000Y-105541000D01*
X115982000Y-105501000D02*
X106018000Y-105501000D01*
X115990000Y-105461000D02*
X106010000Y-105461000D01*
X115997000Y-105421000D02*
X106003000Y-105421000D01*
X116004000Y-105381000D02*
X105996000Y-105381000D01*
X116011000Y-105341000D02*
X105989000Y-105341000D01*
X116018000Y-105301000D02*
X105982000Y-105301000D01*
X116024000Y-105261000D02*
X105976000Y-105261000D01*
X116030000Y-105221000D02*
X105970000Y-105221000D01*
X116035000Y-105180000D02*
X105965000Y-105180000D01*
X116040000Y-105140000D02*
X105960000Y-105140000D01*
X116045000Y-105100000D02*
X105955000Y-105100000D01*
X116050000Y-105060000D02*
X105950000Y-105060000D01*
X116054000Y-105020000D02*
X105946000Y-105020000D01*
X116058000Y-104980000D02*
X105942000Y-104980000D01*
X116062000Y-104940000D02*
X105938000Y-104940000D01*
X116065000Y-104900000D02*
X105935000Y-104900000D01*
X116068000Y-104860000D02*
X105932000Y-104860000D01*
X116070000Y-104820000D02*
X105930000Y-104820000D01*
X116073000Y-104780000D02*
X105927000Y-104780000D01*
X116075000Y-104740000D02*
X105925000Y-104740000D01*
X116077000Y-104700000D02*
X105923000Y-104700000D01*
X116078000Y-104660000D02*
X105922000Y-104660000D01*
X116079000Y-104620000D02*
X105921000Y-104620000D01*
X116080000Y-104580000D02*
X105920000Y-104580000D01*
X116080000Y-104540000D02*
X105920000Y-104540000D01*
X116080000Y-104500000D02*
X105920000Y-104500000D01*
X116120000Y-104500000D02*
G75*
G03X116120000Y-104500000I-5120000J0D01*
G01*
X157830000Y-139830000D02*
X156500000Y-139830000D01*
X157830000Y-138500000D02*
X157830000Y-139830000D01*
X157830000Y-137230000D02*
X155170000Y-137230000D01*
X155170000Y-137230000D02*
X155170000Y-111770000D01*
X157830000Y-137230000D02*
X157830000Y-111770000D01*
X157830000Y-111770000D02*
X155170000Y-111770000D01*
D10*
X120666666Y-117622380D02*
X120666666Y-118336666D01*
X120619047Y-118479523D01*
X120523809Y-118574761D01*
X120380952Y-118622380D01*
X120285714Y-118622380D01*
X121666666Y-118622380D02*
X121095238Y-118622380D01*
X121380952Y-118622380D02*
X121380952Y-117622380D01*
X121285714Y-117765238D01*
X121190476Y-117860476D01*
X121095238Y-117908095D01*
X117642857Y-141062380D02*
X117309523Y-140586190D01*
X117071428Y-141062380D02*
X117071428Y-140062380D01*
X117452380Y-140062380D01*
X117547619Y-140110000D01*
X117595238Y-140157619D01*
X117642857Y-140252857D01*
X117642857Y-140395714D01*
X117595238Y-140490952D01*
X117547619Y-140538571D01*
X117452380Y-140586190D01*
X117071428Y-140586190D01*
X118452380Y-141014761D02*
X118357142Y-141062380D01*
X118166666Y-141062380D01*
X118071428Y-141014761D01*
X118023809Y-140919523D01*
X118023809Y-140538571D01*
X118071428Y-140443333D01*
X118166666Y-140395714D01*
X118357142Y-140395714D01*
X118452380Y-140443333D01*
X118500000Y-140538571D01*
X118500000Y-140633809D01*
X118023809Y-140729047D01*
X119071428Y-141062380D02*
X118976190Y-141014761D01*
X118928571Y-140919523D01*
X118928571Y-140062380D01*
X119880952Y-141062380D02*
X119880952Y-140538571D01*
X119833333Y-140443333D01*
X119738095Y-140395714D01*
X119547619Y-140395714D01*
X119452380Y-140443333D01*
X119880952Y-141014761D02*
X119785714Y-141062380D01*
X119547619Y-141062380D01*
X119452380Y-141014761D01*
X119404761Y-140919523D01*
X119404761Y-140824285D01*
X119452380Y-140729047D01*
X119547619Y-140681428D01*
X119785714Y-140681428D01*
X119880952Y-140633809D01*
X120261904Y-140395714D02*
X120500000Y-141062380D01*
X120738095Y-140395714D02*
X120500000Y-141062380D01*
X120404761Y-141300476D01*
X120357142Y-141348095D01*
X120261904Y-141395714D01*
X122357142Y-141062380D02*
X121880952Y-141062380D01*
X121880952Y-140062380D01*
X122690476Y-140538571D02*
X123023809Y-140538571D01*
X123166666Y-141062380D02*
X122690476Y-141062380D01*
X122690476Y-140062380D01*
X123166666Y-140062380D01*
X123595238Y-141062380D02*
X123595238Y-140062380D01*
X123833333Y-140062380D01*
X123976190Y-140110000D01*
X124071428Y-140205238D01*
X124119047Y-140300476D01*
X124166666Y-140490952D01*
X124166666Y-140633809D01*
X124119047Y-140824285D01*
X124071428Y-140919523D01*
X123976190Y-141014761D01*
X123833333Y-141062380D01*
X123595238Y-141062380D01*
X124547619Y-141014761D02*
X124642857Y-141062380D01*
X124833333Y-141062380D01*
X124928571Y-141014761D01*
X124976190Y-140919523D01*
X124976190Y-140871904D01*
X124928571Y-140776666D01*
X124833333Y-140729047D01*
X124690476Y-140729047D01*
X124595238Y-140681428D01*
X124547619Y-140586190D01*
X124547619Y-140538571D01*
X124595238Y-140443333D01*
X124690476Y-140395714D01*
X124833333Y-140395714D01*
X124928571Y-140443333D01*
X90166666Y-50952380D02*
X90166666Y-51666666D01*
X90119047Y-51809523D01*
X90023809Y-51904761D01*
X89880952Y-51952380D01*
X89785714Y-51952380D01*
X91071428Y-51285714D02*
X91071428Y-51952380D01*
X90833333Y-50904761D02*
X90595238Y-51619047D01*
X91214285Y-51619047D01*
X54952380Y-63333333D02*
X55666666Y-63333333D01*
X55809523Y-63380952D01*
X55904761Y-63476190D01*
X55952380Y-63619047D01*
X55952380Y-63714285D01*
X55047619Y-62904761D02*
X55000000Y-62857142D01*
X54952380Y-62761904D01*
X54952380Y-62523809D01*
X55000000Y-62428571D01*
X55047619Y-62380952D01*
X55142857Y-62333333D01*
X55238095Y-62333333D01*
X55380952Y-62380952D01*
X55952380Y-62952380D01*
X55952380Y-62333333D01*
X148166666Y-113722380D02*
X148166666Y-114436666D01*
X148119047Y-114579523D01*
X148023809Y-114674761D01*
X147880952Y-114722380D01*
X147785714Y-114722380D01*
X149119047Y-113722380D02*
X148642857Y-113722380D01*
X148595238Y-114198571D01*
X148642857Y-114150952D01*
X148738095Y-114103333D01*
X148976190Y-114103333D01*
X149071428Y-114150952D01*
X149119047Y-114198571D01*
X149166666Y-114293809D01*
X149166666Y-114531904D01*
X149119047Y-114627142D01*
X149071428Y-114674761D01*
X148976190Y-114722380D01*
X148738095Y-114722380D01*
X148642857Y-114674761D01*
X148595238Y-114627142D01*
X151952380Y-110500000D02*
X150952380Y-110500000D01*
X151047619Y-110071428D02*
X151000000Y-110023809D01*
X150952380Y-109928571D01*
X150952380Y-109690476D01*
X151000000Y-109595238D01*
X151047619Y-109547619D01*
X151142857Y-109500000D01*
X151238095Y-109500000D01*
X151380952Y-109547619D01*
X151952380Y-110119047D01*
X151952380Y-109500000D01*
X151857142Y-108500000D02*
X151904761Y-108547619D01*
X151952380Y-108690476D01*
X151952380Y-108785714D01*
X151904761Y-108928571D01*
X151809523Y-109023809D01*
X151714285Y-109071428D01*
X151523809Y-109119047D01*
X151380952Y-109119047D01*
X151190476Y-109071428D01*
X151095238Y-109023809D01*
X151000000Y-108928571D01*
X150952380Y-108785714D01*
X150952380Y-108690476D01*
X151000000Y-108547619D01*
X151047619Y-108500000D01*
X151571428Y-108071428D02*
X151571428Y-107309523D01*
X150952380Y-106357142D02*
X150952380Y-106833333D01*
X151428571Y-106880952D01*
X151380952Y-106833333D01*
X151333333Y-106738095D01*
X151333333Y-106500000D01*
X151380952Y-106404761D01*
X151428571Y-106357142D01*
X151523809Y-106309523D01*
X151761904Y-106309523D01*
X151857142Y-106357142D01*
X151904761Y-106404761D01*
X151952380Y-106500000D01*
X151952380Y-106738095D01*
X151904761Y-106833333D01*
X151857142Y-106880952D01*
X150952380Y-106023809D02*
X151952380Y-105690476D01*
X150952380Y-105357142D01*
X147396666Y-50682380D02*
X147396666Y-51396666D01*
X147349047Y-51539523D01*
X147253809Y-51634761D01*
X147110952Y-51682380D01*
X147015714Y-51682380D01*
X147777619Y-50682380D02*
X148396666Y-50682380D01*
X148063333Y-51063333D01*
X148206190Y-51063333D01*
X148301428Y-51110952D01*
X148349047Y-51158571D01*
X148396666Y-51253809D01*
X148396666Y-51491904D01*
X148349047Y-51587142D01*
X148301428Y-51634761D01*
X148206190Y-51682380D01*
X147920476Y-51682380D01*
X147825238Y-51634761D01*
X147777619Y-51587142D01*
X145039523Y-67382380D02*
X145039523Y-66382380D01*
X145610952Y-67382380D01*
X145610952Y-66382380D01*
X146468095Y-67334761D02*
X146372857Y-67382380D01*
X146182380Y-67382380D01*
X146087142Y-67334761D01*
X146039523Y-67239523D01*
X146039523Y-66858571D01*
X146087142Y-66763333D01*
X146182380Y-66715714D01*
X146372857Y-66715714D01*
X146468095Y-66763333D01*
X146515714Y-66858571D01*
X146515714Y-66953809D01*
X146039523Y-67049047D01*
X146801428Y-66715714D02*
X147182380Y-66715714D01*
X146944285Y-66382380D02*
X146944285Y-67239523D01*
X146991904Y-67334761D01*
X147087142Y-67382380D01*
X147182380Y-67382380D01*
X147420476Y-66715714D02*
X147610952Y-67382380D01*
X147801428Y-66906190D01*
X147991904Y-67382380D01*
X148182380Y-66715714D01*
X148706190Y-67382380D02*
X148610952Y-67334761D01*
X148563333Y-67287142D01*
X148515714Y-67191904D01*
X148515714Y-66906190D01*
X148563333Y-66810952D01*
X148610952Y-66763333D01*
X148706190Y-66715714D01*
X148849047Y-66715714D01*
X148944285Y-66763333D01*
X148991904Y-66810952D01*
X149039523Y-66906190D01*
X149039523Y-67191904D01*
X148991904Y-67287142D01*
X148944285Y-67334761D01*
X148849047Y-67382380D01*
X148706190Y-67382380D01*
X149468095Y-67382380D02*
X149468095Y-66715714D01*
X149468095Y-66906190D02*
X149515714Y-66810952D01*
X149563333Y-66763333D01*
X149658571Y-66715714D01*
X149753809Y-66715714D01*
X150087142Y-67382380D02*
X150087142Y-66382380D01*
X150182380Y-67001428D02*
X150468095Y-67382380D01*
X150468095Y-66715714D02*
X150087142Y-67096666D01*
X108857142Y-89416666D02*
X108904761Y-89464285D01*
X108952380Y-89607142D01*
X108952380Y-89702380D01*
X108904761Y-89845238D01*
X108809523Y-89940476D01*
X108714285Y-89988095D01*
X108523809Y-90035714D01*
X108380952Y-90035714D01*
X108190476Y-89988095D01*
X108095238Y-89940476D01*
X108000000Y-89845238D01*
X107952380Y-89702380D01*
X107952380Y-89607142D01*
X108000000Y-89464285D01*
X108047619Y-89416666D01*
X108285714Y-88559523D02*
X108952380Y-88559523D01*
X107904761Y-88797619D02*
X108619047Y-89035714D01*
X108619047Y-88416666D01*
X115857142Y-89416666D02*
X115904761Y-89464285D01*
X115952380Y-89607142D01*
X115952380Y-89702380D01*
X115904761Y-89845238D01*
X115809523Y-89940476D01*
X115714285Y-89988095D01*
X115523809Y-90035714D01*
X115380952Y-90035714D01*
X115190476Y-89988095D01*
X115095238Y-89940476D01*
X115000000Y-89845238D01*
X114952380Y-89702380D01*
X114952380Y-89607142D01*
X115000000Y-89464285D01*
X115047619Y-89416666D01*
X114952380Y-89083333D02*
X114952380Y-88464285D01*
X115333333Y-88797619D01*
X115333333Y-88654761D01*
X115380952Y-88559523D01*
X115428571Y-88511904D01*
X115523809Y-88464285D01*
X115761904Y-88464285D01*
X115857142Y-88511904D01*
X115904761Y-88559523D01*
X115952380Y-88654761D01*
X115952380Y-88940476D01*
X115904761Y-89035714D01*
X115857142Y-89083333D01*
X137428095Y-140282380D02*
X137428095Y-141091904D01*
X137475714Y-141187142D01*
X137523333Y-141234761D01*
X137618571Y-141282380D01*
X137809047Y-141282380D01*
X137904285Y-141234761D01*
X137951904Y-141187142D01*
X137999523Y-141091904D01*
X137999523Y-140282380D01*
X138999523Y-141282380D02*
X138428095Y-141282380D01*
X138713809Y-141282380D02*
X138713809Y-140282380D01*
X138618571Y-140425238D01*
X138523333Y-140520476D01*
X138428095Y-140568095D01*
X131928571Y-103602380D02*
X131928571Y-102602380D01*
X132261904Y-103316666D01*
X132595238Y-102602380D01*
X132595238Y-103602380D01*
X133642857Y-103507142D02*
X133595238Y-103554761D01*
X133452380Y-103602380D01*
X133357142Y-103602380D01*
X133214285Y-103554761D01*
X133119047Y-103459523D01*
X133071428Y-103364285D01*
X133023809Y-103173809D01*
X133023809Y-103030952D01*
X133071428Y-102840476D01*
X133119047Y-102745238D01*
X133214285Y-102650000D01*
X133357142Y-102602380D01*
X133452380Y-102602380D01*
X133595238Y-102650000D01*
X133642857Y-102697619D01*
X134071428Y-103602380D02*
X134071428Y-102602380D01*
X134452380Y-102602380D01*
X134547619Y-102650000D01*
X134595238Y-102697619D01*
X134642857Y-102792857D01*
X134642857Y-102935714D01*
X134595238Y-103030952D01*
X134547619Y-103078571D01*
X134452380Y-103126190D01*
X134071428Y-103126190D01*
X135023809Y-102697619D02*
X135071428Y-102650000D01*
X135166666Y-102602380D01*
X135404761Y-102602380D01*
X135500000Y-102650000D01*
X135547619Y-102697619D01*
X135595238Y-102792857D01*
X135595238Y-102888095D01*
X135547619Y-103030952D01*
X134976190Y-103602380D01*
X135595238Y-103602380D01*
X135928571Y-102602380D02*
X136547619Y-102602380D01*
X136214285Y-102983333D01*
X136357142Y-102983333D01*
X136452380Y-103030952D01*
X136500000Y-103078571D01*
X136547619Y-103173809D01*
X136547619Y-103411904D01*
X136500000Y-103507142D01*
X136452380Y-103554761D01*
X136357142Y-103602380D01*
X136071428Y-103602380D01*
X135976190Y-103554761D01*
X135928571Y-103507142D01*
X137166666Y-102602380D02*
X137261904Y-102602380D01*
X137357142Y-102650000D01*
X137404761Y-102697619D01*
X137452380Y-102792857D01*
X137500000Y-102983333D01*
X137500000Y-103221428D01*
X137452380Y-103411904D01*
X137404761Y-103507142D01*
X137357142Y-103554761D01*
X137261904Y-103602380D01*
X137166666Y-103602380D01*
X137071428Y-103554761D01*
X137023809Y-103507142D01*
X136976190Y-103411904D01*
X136928571Y-103221428D01*
X136928571Y-102983333D01*
X136976190Y-102792857D01*
X137023809Y-102697619D01*
X137071428Y-102650000D01*
X137166666Y-102602380D01*
X138452380Y-103602380D02*
X137880952Y-103602380D01*
X138166666Y-103602380D02*
X138166666Y-102602380D01*
X138071428Y-102745238D01*
X137976190Y-102840476D01*
X137880952Y-102888095D01*
X138785714Y-102602380D02*
X139452380Y-102602380D01*
X139023809Y-103602380D01*
X139595238Y-103697619D02*
X140357142Y-103697619D01*
X140547619Y-103554761D02*
X140690476Y-103602380D01*
X140928571Y-103602380D01*
X141023809Y-103554761D01*
X141071428Y-103507142D01*
X141119047Y-103411904D01*
X141119047Y-103316666D01*
X141071428Y-103221428D01*
X141023809Y-103173809D01*
X140928571Y-103126190D01*
X140738095Y-103078571D01*
X140642857Y-103030952D01*
X140595238Y-102983333D01*
X140547619Y-102888095D01*
X140547619Y-102792857D01*
X140595238Y-102697619D01*
X140642857Y-102650000D01*
X140738095Y-102602380D01*
X140976190Y-102602380D01*
X141119047Y-102650000D01*
X141547619Y-103602380D02*
X141547619Y-102602380D01*
X141928571Y-102602380D01*
X142023809Y-102650000D01*
X142071428Y-102697619D01*
X142119047Y-102792857D01*
X142119047Y-102935714D01*
X142071428Y-103030952D01*
X142023809Y-103078571D01*
X141928571Y-103126190D01*
X141547619Y-103126190D01*
X149253333Y-92322380D02*
X148920000Y-91846190D01*
X148681904Y-92322380D02*
X148681904Y-91322380D01*
X149062857Y-91322380D01*
X149158095Y-91370000D01*
X149205714Y-91417619D01*
X149253333Y-91512857D01*
X149253333Y-91655714D01*
X149205714Y-91750952D01*
X149158095Y-91798571D01*
X149062857Y-91846190D01*
X148681904Y-91846190D01*
X150110476Y-91655714D02*
X150110476Y-92322380D01*
X149872380Y-91274761D02*
X149634285Y-91989047D01*
X150253333Y-91989047D01*
X148634285Y-86915714D02*
X148634285Y-87582380D01*
X148396190Y-86534761D02*
X148158095Y-87249047D01*
X148777142Y-87249047D01*
X149158095Y-87582380D02*
X149158095Y-86582380D01*
X149729523Y-87582380D02*
X149300952Y-87010952D01*
X149729523Y-86582380D02*
X149158095Y-87153809D01*
X150062857Y-86582380D02*
X150729523Y-86582380D01*
X150300952Y-87582380D01*
X153253333Y-97322380D02*
X152920000Y-96846190D01*
X152681904Y-97322380D02*
X152681904Y-96322380D01*
X153062857Y-96322380D01*
X153158095Y-96370000D01*
X153205714Y-96417619D01*
X153253333Y-96512857D01*
X153253333Y-96655714D01*
X153205714Y-96750952D01*
X153158095Y-96798571D01*
X153062857Y-96846190D01*
X152681904Y-96846190D01*
X153586666Y-96322380D02*
X154205714Y-96322380D01*
X153872380Y-96703333D01*
X154015238Y-96703333D01*
X154110476Y-96750952D01*
X154158095Y-96798571D01*
X154205714Y-96893809D01*
X154205714Y-97131904D01*
X154158095Y-97227142D01*
X154110476Y-97274761D01*
X154015238Y-97322380D01*
X153729523Y-97322380D01*
X153634285Y-97274761D01*
X153586666Y-97227142D01*
X152634285Y-91915714D02*
X152634285Y-92582380D01*
X152396190Y-91534761D02*
X152158095Y-92249047D01*
X152777142Y-92249047D01*
X153158095Y-92582380D02*
X153158095Y-91582380D01*
X153729523Y-92582380D02*
X153300952Y-92010952D01*
X153729523Y-91582380D02*
X153158095Y-92153809D01*
X154062857Y-91582380D02*
X154729523Y-91582380D01*
X154300952Y-92582380D01*
X115333333Y-112952380D02*
X115000000Y-112476190D01*
X114761904Y-112952380D02*
X114761904Y-111952380D01*
X115142857Y-111952380D01*
X115238095Y-112000000D01*
X115285714Y-112047619D01*
X115333333Y-112142857D01*
X115333333Y-112285714D01*
X115285714Y-112380952D01*
X115238095Y-112428571D01*
X115142857Y-112476190D01*
X114761904Y-112476190D01*
X115714285Y-112047619D02*
X115761904Y-112000000D01*
X115857142Y-111952380D01*
X116095238Y-111952380D01*
X116190476Y-112000000D01*
X116238095Y-112047619D01*
X116285714Y-112142857D01*
X116285714Y-112238095D01*
X116238095Y-112380952D01*
X115666666Y-112952380D01*
X116285714Y-112952380D01*
X120937142Y-115822380D02*
X120365714Y-115822380D01*
X120651428Y-115822380D02*
X120651428Y-114822380D01*
X120556190Y-114965238D01*
X120460952Y-115060476D01*
X120365714Y-115108095D01*
X121556190Y-114822380D02*
X121651428Y-114822380D01*
X121746666Y-114870000D01*
X121794285Y-114917619D01*
X121841904Y-115012857D01*
X121889523Y-115203333D01*
X121889523Y-115441428D01*
X121841904Y-115631904D01*
X121794285Y-115727142D01*
X121746666Y-115774761D01*
X121651428Y-115822380D01*
X121556190Y-115822380D01*
X121460952Y-115774761D01*
X121413333Y-115727142D01*
X121365714Y-115631904D01*
X121318095Y-115441428D01*
X121318095Y-115203333D01*
X121365714Y-115012857D01*
X121413333Y-114917619D01*
X121460952Y-114870000D01*
X121556190Y-114822380D01*
X123222857Y-115822380D02*
X123127619Y-115774761D01*
X123080000Y-115727142D01*
X123032380Y-115631904D01*
X123032380Y-115346190D01*
X123080000Y-115250952D01*
X123127619Y-115203333D01*
X123222857Y-115155714D01*
X123365714Y-115155714D01*
X123460952Y-115203333D01*
X123508571Y-115250952D01*
X123556190Y-115346190D01*
X123556190Y-115631904D01*
X123508571Y-115727142D01*
X123460952Y-115774761D01*
X123365714Y-115822380D01*
X123222857Y-115822380D01*
X123984761Y-115822380D02*
X123984761Y-114822380D01*
X124413333Y-115822380D02*
X124413333Y-115298571D01*
X124365714Y-115203333D01*
X124270476Y-115155714D01*
X124127619Y-115155714D01*
X124032380Y-115203333D01*
X123984761Y-115250952D01*
X124889523Y-115822380D02*
X124889523Y-115155714D01*
X124889523Y-115250952D02*
X124937142Y-115203333D01*
X125032380Y-115155714D01*
X125175238Y-115155714D01*
X125270476Y-115203333D01*
X125318095Y-115298571D01*
X125318095Y-115822380D01*
X125318095Y-115298571D02*
X125365714Y-115203333D01*
X125460952Y-115155714D01*
X125603809Y-115155714D01*
X125699047Y-115203333D01*
X125746666Y-115298571D01*
X125746666Y-115822380D01*
X143413333Y-143082380D02*
X143080000Y-142606190D01*
X142841904Y-143082380D02*
X142841904Y-142082380D01*
X143222857Y-142082380D01*
X143318095Y-142130000D01*
X143365714Y-142177619D01*
X143413333Y-142272857D01*
X143413333Y-142415714D01*
X143365714Y-142510952D01*
X143318095Y-142558571D01*
X143222857Y-142606190D01*
X142841904Y-142606190D01*
X144365714Y-143082380D02*
X143794285Y-143082380D01*
X144080000Y-143082380D02*
X144080000Y-142082380D01*
X143984761Y-142225238D01*
X143889523Y-142320476D01*
X143794285Y-142368095D01*
X143365714Y-147822380D02*
X142794285Y-147822380D01*
X143080000Y-147822380D02*
X143080000Y-146822380D01*
X142984761Y-146965238D01*
X142889523Y-147060476D01*
X142794285Y-147108095D01*
X143794285Y-147822380D02*
X143794285Y-146822380D01*
X144365714Y-147822380D02*
X143937142Y-147250952D01*
X144365714Y-146822380D02*
X143794285Y-147393809D01*
X158083333Y-100857142D02*
X158035714Y-100904761D01*
X157892857Y-100952380D01*
X157797619Y-100952380D01*
X157654761Y-100904761D01*
X157559523Y-100809523D01*
X157511904Y-100714285D01*
X157464285Y-100523809D01*
X157464285Y-100380952D01*
X157511904Y-100190476D01*
X157559523Y-100095238D01*
X157654761Y-100000000D01*
X157797619Y-99952380D01*
X157892857Y-99952380D01*
X158035714Y-100000000D01*
X158083333Y-100047619D01*
X158416666Y-99952380D02*
X159083333Y-99952380D01*
X158654761Y-100952380D01*
X165246666Y-91334285D02*
X165246666Y-90858095D01*
X165532380Y-91429523D02*
X164532380Y-91096190D01*
X165532380Y-90762857D01*
X165532380Y-89905714D02*
X165532380Y-90477142D01*
X165532380Y-90191428D02*
X164532380Y-90191428D01*
X164675238Y-90286666D01*
X164770476Y-90381904D01*
X164818095Y-90477142D01*
X107833333Y-115357142D02*
X107785714Y-115404761D01*
X107642857Y-115452380D01*
X107547619Y-115452380D01*
X107404761Y-115404761D01*
X107309523Y-115309523D01*
X107261904Y-115214285D01*
X107214285Y-115023809D01*
X107214285Y-114880952D01*
X107261904Y-114690476D01*
X107309523Y-114595238D01*
X107404761Y-114500000D01*
X107547619Y-114452380D01*
X107642857Y-114452380D01*
X107785714Y-114500000D01*
X107833333Y-114547619D01*
X108785714Y-115452380D02*
X108214285Y-115452380D01*
X108500000Y-115452380D02*
X108500000Y-114452380D01*
X108404761Y-114595238D01*
X108309523Y-114690476D01*
X108214285Y-114738095D01*
X96857142Y-113952380D02*
X96952380Y-113952380D01*
X97047619Y-114000000D01*
X97095238Y-114047619D01*
X97142857Y-114142857D01*
X97190476Y-114333333D01*
X97190476Y-114571428D01*
X97142857Y-114761904D01*
X97095238Y-114857142D01*
X97047619Y-114904761D01*
X96952380Y-114952380D01*
X96857142Y-114952380D01*
X96761904Y-114904761D01*
X96714285Y-114857142D01*
X96666666Y-114761904D01*
X96619047Y-114571428D01*
X96619047Y-114333333D01*
X96666666Y-114142857D01*
X96714285Y-114047619D01*
X96761904Y-114000000D01*
X96857142Y-113952380D01*
X97619047Y-114857142D02*
X97666666Y-114904761D01*
X97619047Y-114952380D01*
X97571428Y-114904761D01*
X97619047Y-114857142D01*
X97619047Y-114952380D01*
X98619047Y-114952380D02*
X98047619Y-114952380D01*
X98333333Y-114952380D02*
X98333333Y-113952380D01*
X98238095Y-114095238D01*
X98142857Y-114190476D01*
X98047619Y-114238095D01*
X99476190Y-114285714D02*
X99476190Y-114952380D01*
X99047619Y-114285714D02*
X99047619Y-114809523D01*
X99095238Y-114904761D01*
X99190476Y-114952380D01*
X99333333Y-114952380D01*
X99428571Y-114904761D01*
X99476190Y-114857142D01*
X100285714Y-114428571D02*
X99952380Y-114428571D01*
X99952380Y-114952380D02*
X99952380Y-113952380D01*
X100428571Y-113952380D01*
X103936380Y-77515666D02*
X103460190Y-77849000D01*
X103936380Y-78087095D02*
X102936380Y-78087095D01*
X102936380Y-77706142D01*
X102984000Y-77610904D01*
X103031619Y-77563285D01*
X103126857Y-77515666D01*
X103269714Y-77515666D01*
X103364952Y-77563285D01*
X103412571Y-77610904D01*
X103460190Y-77706142D01*
X103460190Y-78087095D01*
X102984000Y-76563285D02*
X102936380Y-76658523D01*
X102936380Y-76801380D01*
X102984000Y-76944238D01*
X103079238Y-77039476D01*
X103174476Y-77087095D01*
X103364952Y-77134714D01*
X103507809Y-77134714D01*
X103698285Y-77087095D01*
X103793523Y-77039476D01*
X103888761Y-76944238D01*
X103936380Y-76801380D01*
X103936380Y-76706142D01*
X103888761Y-76563285D01*
X103841142Y-76515666D01*
X103507809Y-76515666D01*
X103507809Y-76706142D01*
X103936380Y-75563285D02*
X103936380Y-76134714D01*
X103936380Y-75849000D02*
X102936380Y-75849000D01*
X103079238Y-75944238D01*
X103174476Y-76039476D01*
X103222095Y-76134714D01*
X104938733Y-74504580D02*
X104938733Y-73837914D01*
X104938733Y-73933152D02*
X104986352Y-73885533D01*
X105081590Y-73837914D01*
X105224447Y-73837914D01*
X105319685Y-73885533D01*
X105367304Y-73980771D01*
X105367304Y-74504580D01*
X105367304Y-73980771D02*
X105414923Y-73885533D01*
X105510161Y-73837914D01*
X105653019Y-73837914D01*
X105748257Y-73885533D01*
X105795876Y-73980771D01*
X105795876Y-74504580D01*
X106272066Y-73980771D02*
X106605400Y-73980771D01*
X106748257Y-74504580D02*
X106272066Y-74504580D01*
X106272066Y-73504580D01*
X106748257Y-73504580D01*
X107081590Y-73504580D02*
X107748257Y-73504580D01*
X107081590Y-74504580D01*
X107748257Y-74504580D01*
X108129209Y-74504580D02*
X108129209Y-73504580D01*
X108367304Y-73504580D01*
X108510161Y-73552200D01*
X108605400Y-73647438D01*
X108653019Y-73742676D01*
X108700638Y-73933152D01*
X108700638Y-74076009D01*
X108653019Y-74266485D01*
X108605400Y-74361723D01*
X108510161Y-74456961D01*
X108367304Y-74504580D01*
X108129209Y-74504580D01*
X109033971Y-73504580D02*
X109700638Y-73504580D01*
X109272066Y-74504580D01*
X110605400Y-74504580D02*
X110033971Y-74504580D01*
X110319685Y-74504580D02*
X110319685Y-73504580D01*
X110224447Y-73647438D01*
X110129209Y-73742676D01*
X110033971Y-73790295D01*
X110986352Y-73599819D02*
X111033971Y-73552200D01*
X111129209Y-73504580D01*
X111367304Y-73504580D01*
X111462542Y-73552200D01*
X111510161Y-73599819D01*
X111557780Y-73695057D01*
X111557780Y-73790295D01*
X111510161Y-73933152D01*
X110938733Y-74504580D01*
X111557780Y-74504580D01*
X112176828Y-73504580D02*
X112272066Y-73504580D01*
X112367304Y-73552200D01*
X112414923Y-73599819D01*
X112462542Y-73695057D01*
X112510161Y-73885533D01*
X112510161Y-74123628D01*
X112462542Y-74314104D01*
X112414923Y-74409342D01*
X112367304Y-74456961D01*
X112272066Y-74504580D01*
X112176828Y-74504580D01*
X112081590Y-74456961D01*
X112033971Y-74409342D01*
X111986352Y-74314104D01*
X111938733Y-74123628D01*
X111938733Y-73885533D01*
X111986352Y-73695057D01*
X112033971Y-73599819D01*
X112081590Y-73552200D01*
X112176828Y-73504580D01*
X113462542Y-74504580D02*
X112891114Y-74504580D01*
X113176828Y-74504580D02*
X113176828Y-73504580D01*
X113081590Y-73647438D01*
X112986352Y-73742676D01*
X112891114Y-73790295D01*
X113843495Y-74218866D02*
X114319685Y-74218866D01*
X113748257Y-74504580D02*
X114081590Y-73504580D01*
X114414923Y-74504580D01*
X106136780Y-82340409D02*
X107136780Y-82007076D01*
X106136780Y-81673742D01*
X107136780Y-81340409D02*
X106470114Y-81340409D01*
X106136780Y-81340409D02*
X106184400Y-81388028D01*
X106232019Y-81340409D01*
X106184400Y-81292790D01*
X106136780Y-81340409D01*
X106232019Y-81340409D01*
X106470114Y-80864219D02*
X107136780Y-80864219D01*
X106565352Y-80864219D02*
X106517733Y-80816600D01*
X106470114Y-80721361D01*
X106470114Y-80578504D01*
X106517733Y-80483266D01*
X106612971Y-80435647D01*
X107136780Y-80435647D01*
X108749800Y-81900704D02*
X108702180Y-81995942D01*
X108702180Y-82138800D01*
X108749800Y-82281657D01*
X108845038Y-82376895D01*
X108940276Y-82424514D01*
X109130752Y-82472133D01*
X109273609Y-82472133D01*
X109464085Y-82424514D01*
X109559323Y-82376895D01*
X109654561Y-82281657D01*
X109702180Y-82138800D01*
X109702180Y-82043561D01*
X109654561Y-81900704D01*
X109606942Y-81853085D01*
X109273609Y-81853085D01*
X109273609Y-82043561D01*
X109702180Y-81424514D02*
X108702180Y-81424514D01*
X109702180Y-80853085D01*
X108702180Y-80853085D01*
X109702180Y-80376895D02*
X108702180Y-80376895D01*
X108702180Y-80138800D01*
X108749800Y-79995942D01*
X108845038Y-79900704D01*
X108940276Y-79853085D01*
X109130752Y-79805466D01*
X109273609Y-79805466D01*
X109464085Y-79853085D01*
X109559323Y-79900704D01*
X109654561Y-79995942D01*
X109702180Y-80138800D01*
X109702180Y-80376895D01*
X111216780Y-82459409D02*
X112216780Y-82126076D01*
X111216780Y-81792742D01*
X112216780Y-81316552D02*
X112169161Y-81411790D01*
X112121542Y-81459409D01*
X112026304Y-81507028D01*
X111740590Y-81507028D01*
X111645352Y-81459409D01*
X111597733Y-81411790D01*
X111550114Y-81316552D01*
X111550114Y-81173695D01*
X111597733Y-81078457D01*
X111645352Y-81030838D01*
X111740590Y-80983219D01*
X112026304Y-80983219D01*
X112121542Y-81030838D01*
X112169161Y-81078457D01*
X112216780Y-81173695D01*
X112216780Y-81316552D01*
X111550114Y-80126076D02*
X112216780Y-80126076D01*
X111550114Y-80554647D02*
X112073923Y-80554647D01*
X112169161Y-80507028D01*
X112216780Y-80411790D01*
X112216780Y-80268933D01*
X112169161Y-80173695D01*
X112121542Y-80126076D01*
X111550114Y-79792742D02*
X111550114Y-79411790D01*
X111216780Y-79649885D02*
X112073923Y-79649885D01*
X112169161Y-79602266D01*
X112216780Y-79507028D01*
X112216780Y-79411790D01*
D14*
X108369811Y-71442547D02*
X108369811Y-70236047D01*
X108657073Y-70236047D01*
X108829430Y-70293500D01*
X108944335Y-70408404D01*
X109001788Y-70523309D01*
X109059240Y-70753119D01*
X109059240Y-70925476D01*
X109001788Y-71155285D01*
X108944335Y-71270190D01*
X108829430Y-71385095D01*
X108657073Y-71442547D01*
X108369811Y-71442547D01*
X109518859Y-70350952D02*
X109576311Y-70293500D01*
X109691216Y-70236047D01*
X109978478Y-70236047D01*
X110093383Y-70293500D01*
X110150835Y-70350952D01*
X110208288Y-70465857D01*
X110208288Y-70580761D01*
X110150835Y-70753119D01*
X109461407Y-71442547D01*
X110208288Y-71442547D01*
X99827497Y-68942547D02*
X99138069Y-68942547D01*
X99482783Y-68942547D02*
X99482783Y-67736047D01*
X99367878Y-67908404D01*
X99252973Y-68023309D01*
X99138069Y-68080761D01*
X100344569Y-68942547D02*
X100344569Y-67736047D01*
X101033997Y-68942547D01*
X101033997Y-67736047D01*
X102183045Y-67736047D02*
X101608521Y-67736047D01*
X101551069Y-68310571D01*
X101608521Y-68253119D01*
X101723426Y-68195666D01*
X102010688Y-68195666D01*
X102125592Y-68253119D01*
X102183045Y-68310571D01*
X102240497Y-68425476D01*
X102240497Y-68712738D01*
X102183045Y-68827642D01*
X102125592Y-68885095D01*
X102010688Y-68942547D01*
X101723426Y-68942547D01*
X101608521Y-68885095D01*
X101551069Y-68827642D01*
X103274640Y-68138214D02*
X103274640Y-68942547D01*
X102987378Y-67678595D02*
X102700116Y-68540380D01*
X103446997Y-68540380D01*
X104136426Y-67736047D02*
X104251330Y-67736047D01*
X104366235Y-67793500D01*
X104423688Y-67850952D01*
X104481140Y-67965857D01*
X104538592Y-68195666D01*
X104538592Y-68482928D01*
X104481140Y-68712738D01*
X104423688Y-68827642D01*
X104366235Y-68885095D01*
X104251330Y-68942547D01*
X104136426Y-68942547D01*
X104021521Y-68885095D01*
X103964069Y-68827642D01*
X103906616Y-68712738D01*
X103849164Y-68482928D01*
X103849164Y-68195666D01*
X103906616Y-67965857D01*
X103964069Y-67850952D01*
X104021521Y-67793500D01*
X104136426Y-67736047D01*
X105285473Y-67736047D02*
X105400378Y-67736047D01*
X105515283Y-67793500D01*
X105572735Y-67850952D01*
X105630188Y-67965857D01*
X105687640Y-68195666D01*
X105687640Y-68482928D01*
X105630188Y-68712738D01*
X105572735Y-68827642D01*
X105515283Y-68885095D01*
X105400378Y-68942547D01*
X105285473Y-68942547D01*
X105170569Y-68885095D01*
X105113116Y-68827642D01*
X105055664Y-68712738D01*
X104998211Y-68482928D01*
X104998211Y-68195666D01*
X105055664Y-67965857D01*
X105113116Y-67850952D01*
X105170569Y-67793500D01*
X105285473Y-67736047D01*
D10*
X88828380Y-69072000D02*
X88352190Y-69405333D01*
X88828380Y-69643428D02*
X87828380Y-69643428D01*
X87828380Y-69262476D01*
X87876000Y-69167238D01*
X87923619Y-69119619D01*
X88018857Y-69072000D01*
X88161714Y-69072000D01*
X88256952Y-69119619D01*
X88304571Y-69167238D01*
X88352190Y-69262476D01*
X88352190Y-69643428D01*
X88828380Y-68167238D02*
X88828380Y-68643428D01*
X87828380Y-68643428D01*
X88352190Y-67643428D02*
X88828380Y-67643428D01*
X87828380Y-67976761D02*
X88352190Y-67643428D01*
X87828380Y-67310095D01*
X87923619Y-67024380D02*
X87876000Y-66976761D01*
X87828380Y-66881523D01*
X87828380Y-66643428D01*
X87876000Y-66548190D01*
X87923619Y-66500571D01*
X88018857Y-66452952D01*
X88114095Y-66452952D01*
X88256952Y-66500571D01*
X88828380Y-67072000D01*
X88828380Y-66452952D01*
X68549810Y-73447903D02*
X68692667Y-73495522D01*
X68930762Y-73495522D01*
X69026000Y-73447903D01*
X69073619Y-73400284D01*
X69121238Y-73305046D01*
X69121238Y-73209808D01*
X69073619Y-73114570D01*
X69026000Y-73066951D01*
X68930762Y-73019332D01*
X68740286Y-72971713D01*
X68645048Y-72924094D01*
X68597429Y-72876475D01*
X68549810Y-72781237D01*
X68549810Y-72685999D01*
X68597429Y-72590761D01*
X68645048Y-72543142D01*
X68740286Y-72495522D01*
X68978381Y-72495522D01*
X69121238Y-72543142D01*
X69930762Y-73447903D02*
X69835524Y-73495522D01*
X69645048Y-73495522D01*
X69549810Y-73447903D01*
X69502191Y-73352665D01*
X69502191Y-72971713D01*
X69549810Y-72876475D01*
X69645048Y-72828856D01*
X69835524Y-72828856D01*
X69930762Y-72876475D01*
X69978381Y-72971713D01*
X69978381Y-73066951D01*
X69502191Y-73162189D01*
X70835524Y-73447903D02*
X70740286Y-73495522D01*
X70549810Y-73495522D01*
X70454572Y-73447903D01*
X70406952Y-73400284D01*
X70359333Y-73305046D01*
X70359333Y-73019332D01*
X70406952Y-72924094D01*
X70454572Y-72876475D01*
X70549810Y-72828856D01*
X70740286Y-72828856D01*
X70835524Y-72876475D01*
X71216476Y-72590761D02*
X71264095Y-72543142D01*
X71359333Y-72495522D01*
X71597429Y-72495522D01*
X71692667Y-72543142D01*
X71740286Y-72590761D01*
X71787905Y-72685999D01*
X71787905Y-72781237D01*
X71740286Y-72924094D01*
X71168857Y-73495522D01*
X71787905Y-73495522D01*
X72978381Y-73114570D02*
X73740286Y-73114570D01*
X75311714Y-72971713D02*
X74978381Y-72971713D01*
X74978381Y-73495522D02*
X74978381Y-72495522D01*
X75454572Y-72495522D01*
X75692667Y-72495522D02*
X76264095Y-72495522D01*
X75978381Y-73495522D02*
X75978381Y-72495522D01*
X77168857Y-73495522D02*
X76835524Y-73019332D01*
X76597429Y-73495522D02*
X76597429Y-72495522D01*
X76978381Y-72495522D01*
X77073619Y-72543142D01*
X77121238Y-72590761D01*
X77168857Y-72685999D01*
X77168857Y-72828856D01*
X77121238Y-72924094D01*
X77073619Y-72971713D01*
X76978381Y-73019332D01*
X76597429Y-73019332D01*
X77597429Y-73114570D02*
X78359333Y-73114570D01*
X78835524Y-73495522D02*
X78835524Y-72495522D01*
X79216476Y-72495522D01*
X79311714Y-72543142D01*
X79359333Y-72590761D01*
X79406952Y-72685999D01*
X79406952Y-72828856D01*
X79359333Y-72924094D01*
X79311714Y-72971713D01*
X79216476Y-73019332D01*
X78835524Y-73019332D01*
X79740286Y-72495522D02*
X80359333Y-72495522D01*
X80026000Y-72876475D01*
X80168857Y-72876475D01*
X80264095Y-72924094D01*
X80311714Y-72971713D01*
X80359333Y-73066951D01*
X80359333Y-73305046D01*
X80311714Y-73400284D01*
X80264095Y-73447903D01*
X80168857Y-73495522D01*
X79883143Y-73495522D01*
X79787905Y-73447903D01*
X79740286Y-73400284D01*
X81359333Y-73400284D02*
X81311714Y-73447903D01*
X81168857Y-73495522D01*
X81073619Y-73495522D01*
X80930762Y-73447903D01*
X80835524Y-73352665D01*
X80787905Y-73257427D01*
X80740286Y-73066951D01*
X80740286Y-72924094D01*
X80787905Y-72733618D01*
X80835524Y-72638380D01*
X80930762Y-72543142D01*
X81073619Y-72495522D01*
X81168857Y-72495522D01*
X81311714Y-72543142D01*
X81359333Y-72590761D01*
X81787905Y-73495522D02*
X81787905Y-72495522D01*
X82359333Y-73495522D01*
X82359333Y-72495522D01*
X83026000Y-72495522D02*
X83121238Y-72495522D01*
X83216476Y-72543142D01*
X83264095Y-72590761D01*
X83311714Y-72685999D01*
X83359333Y-72876475D01*
X83359333Y-73114570D01*
X83311714Y-73305046D01*
X83264095Y-73400284D01*
X83216476Y-73447903D01*
X83121238Y-73495522D01*
X83026000Y-73495522D01*
X82930762Y-73447903D01*
X82883143Y-73400284D01*
X82835524Y-73305046D01*
X82787905Y-73114570D01*
X82787905Y-72876475D01*
X82835524Y-72685999D01*
X82883143Y-72590761D01*
X82930762Y-72543142D01*
X83026000Y-72495522D01*
X84311714Y-73495522D02*
X83740286Y-73495522D01*
X84026000Y-73495522D02*
X84026000Y-72495522D01*
X83930762Y-72638380D01*
X83835524Y-72733618D01*
X83740286Y-72781237D01*
X84692667Y-72590761D02*
X84740286Y-72543142D01*
X84835524Y-72495522D01*
X85073619Y-72495522D01*
X85168857Y-72543142D01*
X85216476Y-72590761D01*
X85264095Y-72685999D01*
X85264095Y-72781237D01*
X85216476Y-72924094D01*
X84645048Y-73495522D01*
X85264095Y-73495522D01*
X85597429Y-72495522D02*
X85835524Y-73495522D01*
X86026000Y-72781237D01*
X86216476Y-73495522D01*
X86454572Y-72495522D01*
X87359333Y-73495522D02*
X86787905Y-73495522D01*
X87073619Y-73495522D02*
X87073619Y-72495522D01*
X86978381Y-72638380D01*
X86883143Y-72733618D01*
X86787905Y-72781237D01*
X88828380Y-144510000D02*
X88352190Y-144843333D01*
X88828380Y-145081428D02*
X87828380Y-145081428D01*
X87828380Y-144700476D01*
X87876000Y-144605238D01*
X87923619Y-144557619D01*
X88018857Y-144510000D01*
X88161714Y-144510000D01*
X88256952Y-144557619D01*
X88304571Y-144605238D01*
X88352190Y-144700476D01*
X88352190Y-145081428D01*
X88828380Y-143605238D02*
X88828380Y-144081428D01*
X87828380Y-144081428D01*
X88352190Y-143081428D02*
X88828380Y-143081428D01*
X87828380Y-143414761D02*
X88352190Y-143081428D01*
X87828380Y-142748095D01*
X88256952Y-142271904D02*
X88209333Y-142367142D01*
X88161714Y-142414761D01*
X88066476Y-142462380D01*
X88018857Y-142462380D01*
X87923619Y-142414761D01*
X87876000Y-142367142D01*
X87828380Y-142271904D01*
X87828380Y-142081428D01*
X87876000Y-141986190D01*
X87923619Y-141938571D01*
X88018857Y-141890952D01*
X88066476Y-141890952D01*
X88161714Y-141938571D01*
X88209333Y-141986190D01*
X88256952Y-142081428D01*
X88256952Y-142271904D01*
X88304571Y-142367142D01*
X88352190Y-142414761D01*
X88447428Y-142462380D01*
X88637904Y-142462380D01*
X88733142Y-142414761D01*
X88780761Y-142367142D01*
X88828380Y-142271904D01*
X88828380Y-142081428D01*
X88780761Y-141986190D01*
X88733142Y-141938571D01*
X88637904Y-141890952D01*
X88447428Y-141890952D01*
X88352190Y-141938571D01*
X88304571Y-141986190D01*
X88256952Y-142081428D01*
X72621238Y-149248761D02*
X72764095Y-149296380D01*
X73002190Y-149296380D01*
X73097428Y-149248761D01*
X73145047Y-149201142D01*
X73192666Y-149105904D01*
X73192666Y-149010666D01*
X73145047Y-148915428D01*
X73097428Y-148867809D01*
X73002190Y-148820190D01*
X72811714Y-148772571D01*
X72716476Y-148724952D01*
X72668857Y-148677333D01*
X72621238Y-148582095D01*
X72621238Y-148486857D01*
X72668857Y-148391619D01*
X72716476Y-148344000D01*
X72811714Y-148296380D01*
X73049809Y-148296380D01*
X73192666Y-148344000D01*
X74002190Y-149248761D02*
X73906952Y-149296380D01*
X73716476Y-149296380D01*
X73621238Y-149248761D01*
X73573619Y-149153523D01*
X73573619Y-148772571D01*
X73621238Y-148677333D01*
X73716476Y-148629714D01*
X73906952Y-148629714D01*
X74002190Y-148677333D01*
X74049809Y-148772571D01*
X74049809Y-148867809D01*
X73573619Y-148963047D01*
X74906952Y-149248761D02*
X74811714Y-149296380D01*
X74621238Y-149296380D01*
X74526000Y-149248761D01*
X74478380Y-149201142D01*
X74430761Y-149105904D01*
X74430761Y-148820190D01*
X74478380Y-148724952D01*
X74526000Y-148677333D01*
X74621238Y-148629714D01*
X74811714Y-148629714D01*
X74906952Y-148677333D01*
X75478380Y-148724952D02*
X75383142Y-148677333D01*
X75335523Y-148629714D01*
X75287904Y-148534476D01*
X75287904Y-148486857D01*
X75335523Y-148391619D01*
X75383142Y-148344000D01*
X75478380Y-148296380D01*
X75668857Y-148296380D01*
X75764095Y-148344000D01*
X75811714Y-148391619D01*
X75859333Y-148486857D01*
X75859333Y-148534476D01*
X75811714Y-148629714D01*
X75764095Y-148677333D01*
X75668857Y-148724952D01*
X75478380Y-148724952D01*
X75383142Y-148772571D01*
X75335523Y-148820190D01*
X75287904Y-148915428D01*
X75287904Y-149105904D01*
X75335523Y-149201142D01*
X75383142Y-149248761D01*
X75478380Y-149296380D01*
X75668857Y-149296380D01*
X75764095Y-149248761D01*
X75811714Y-149201142D01*
X75859333Y-149105904D01*
X75859333Y-148915428D01*
X75811714Y-148820190D01*
X75764095Y-148772571D01*
X75668857Y-148724952D01*
X77049809Y-148915428D02*
X77811714Y-148915428D01*
X79383142Y-148772571D02*
X79049809Y-148772571D01*
X79049809Y-149296380D02*
X79049809Y-148296380D01*
X79526000Y-148296380D01*
X79764095Y-148296380D02*
X80335523Y-148296380D01*
X80049809Y-149296380D02*
X80049809Y-148296380D01*
X81240285Y-149296380D02*
X80906952Y-148820190D01*
X80668857Y-149296380D02*
X80668857Y-148296380D01*
X81049809Y-148296380D01*
X81145047Y-148344000D01*
X81192666Y-148391619D01*
X81240285Y-148486857D01*
X81240285Y-148629714D01*
X81192666Y-148724952D01*
X81145047Y-148772571D01*
X81049809Y-148820190D01*
X80668857Y-148820190D01*
X81668857Y-148915428D02*
X82430761Y-148915428D01*
X82906952Y-149296380D02*
X82906952Y-148296380D01*
X83287904Y-148296380D01*
X83383142Y-148344000D01*
X83430761Y-148391619D01*
X83478380Y-148486857D01*
X83478380Y-148629714D01*
X83430761Y-148724952D01*
X83383142Y-148772571D01*
X83287904Y-148820190D01*
X82906952Y-148820190D01*
X83811714Y-148296380D02*
X84430761Y-148296380D01*
X84097428Y-148677333D01*
X84240285Y-148677333D01*
X84335523Y-148724952D01*
X84383142Y-148772571D01*
X84430761Y-148867809D01*
X84430761Y-149105904D01*
X84383142Y-149201142D01*
X84335523Y-149248761D01*
X84240285Y-149296380D01*
X83954571Y-149296380D01*
X83859333Y-149248761D01*
X83811714Y-149201142D01*
X85430761Y-149201142D02*
X85383142Y-149248761D01*
X85240285Y-149296380D01*
X85145047Y-149296380D01*
X85002190Y-149248761D01*
X84906952Y-149153523D01*
X84859333Y-149058285D01*
X84811714Y-148867809D01*
X84811714Y-148724952D01*
X84859333Y-148534476D01*
X84906952Y-148439238D01*
X85002190Y-148344000D01*
X85145047Y-148296380D01*
X85240285Y-148296380D01*
X85383142Y-148344000D01*
X85430761Y-148391619D01*
X85859333Y-149296380D02*
X85859333Y-148296380D01*
X86430761Y-149296380D01*
X86430761Y-148296380D01*
X87097428Y-148296380D02*
X87192666Y-148296380D01*
X87287904Y-148344000D01*
X87335523Y-148391619D01*
X87383142Y-148486857D01*
X87430761Y-148677333D01*
X87430761Y-148915428D01*
X87383142Y-149105904D01*
X87335523Y-149201142D01*
X87287904Y-149248761D01*
X87192666Y-149296380D01*
X87097428Y-149296380D01*
X87002190Y-149248761D01*
X86954571Y-149201142D01*
X86906952Y-149105904D01*
X86859333Y-148915428D01*
X86859333Y-148677333D01*
X86906952Y-148486857D01*
X86954571Y-148391619D01*
X87002190Y-148344000D01*
X87097428Y-148296380D01*
X88383142Y-149296380D02*
X87811714Y-149296380D01*
X88097428Y-149296380D02*
X88097428Y-148296380D01*
X88002190Y-148439238D01*
X87906952Y-148534476D01*
X87811714Y-148582095D01*
X88764095Y-148391619D02*
X88811714Y-148344000D01*
X88906952Y-148296380D01*
X89145047Y-148296380D01*
X89240285Y-148344000D01*
X89287904Y-148391619D01*
X89335523Y-148486857D01*
X89335523Y-148582095D01*
X89287904Y-148724952D01*
X88716476Y-149296380D01*
X89335523Y-149296380D01*
X89668857Y-148296380D02*
X89906952Y-149296380D01*
X90097428Y-148582095D01*
X90287904Y-149296380D01*
X90526000Y-148296380D01*
X91430761Y-149296380D02*
X90859333Y-149296380D01*
X91145047Y-149296380D02*
X91145047Y-148296380D01*
X91049809Y-148439238D01*
X90954571Y-148534476D01*
X90859333Y-148582095D01*
X88828380Y-132088182D02*
X88352190Y-132421515D01*
X88828380Y-132659610D02*
X87828380Y-132659610D01*
X87828380Y-132278658D01*
X87876000Y-132183420D01*
X87923619Y-132135801D01*
X88018857Y-132088182D01*
X88161714Y-132088182D01*
X88256952Y-132135801D01*
X88304571Y-132183420D01*
X88352190Y-132278658D01*
X88352190Y-132659610D01*
X88828380Y-131183420D02*
X88828380Y-131659610D01*
X87828380Y-131659610D01*
X88352190Y-130659610D02*
X88828380Y-130659610D01*
X87828380Y-130992943D02*
X88352190Y-130659610D01*
X87828380Y-130326277D01*
X87828380Y-130088182D02*
X87828380Y-129421515D01*
X88828380Y-129850086D01*
X68549810Y-136572943D02*
X68692667Y-136620562D01*
X68930762Y-136620562D01*
X69026000Y-136572943D01*
X69073619Y-136525324D01*
X69121238Y-136430086D01*
X69121238Y-136334848D01*
X69073619Y-136239610D01*
X69026000Y-136191991D01*
X68930762Y-136144372D01*
X68740286Y-136096753D01*
X68645048Y-136049134D01*
X68597429Y-136001515D01*
X68549810Y-135906277D01*
X68549810Y-135811039D01*
X68597429Y-135715801D01*
X68645048Y-135668182D01*
X68740286Y-135620562D01*
X68978381Y-135620562D01*
X69121238Y-135668182D01*
X69930762Y-136572943D02*
X69835524Y-136620562D01*
X69645048Y-136620562D01*
X69549810Y-136572943D01*
X69502191Y-136477705D01*
X69502191Y-136096753D01*
X69549810Y-136001515D01*
X69645048Y-135953896D01*
X69835524Y-135953896D01*
X69930762Y-136001515D01*
X69978381Y-136096753D01*
X69978381Y-136191991D01*
X69502191Y-136287229D01*
X70835524Y-136572943D02*
X70740286Y-136620562D01*
X70549810Y-136620562D01*
X70454572Y-136572943D01*
X70406952Y-136525324D01*
X70359333Y-136430086D01*
X70359333Y-136144372D01*
X70406952Y-136049134D01*
X70454572Y-136001515D01*
X70549810Y-135953896D01*
X70740286Y-135953896D01*
X70835524Y-136001515D01*
X71168857Y-135620562D02*
X71835524Y-135620562D01*
X71406952Y-136620562D01*
X72978381Y-136239610D02*
X73740286Y-136239610D01*
X75311714Y-136096753D02*
X74978381Y-136096753D01*
X74978381Y-136620562D02*
X74978381Y-135620562D01*
X75454572Y-135620562D01*
X75692667Y-135620562D02*
X76264095Y-135620562D01*
X75978381Y-136620562D02*
X75978381Y-135620562D01*
X77168857Y-136620562D02*
X76835524Y-136144372D01*
X76597429Y-136620562D02*
X76597429Y-135620562D01*
X76978381Y-135620562D01*
X77073619Y-135668182D01*
X77121238Y-135715801D01*
X77168857Y-135811039D01*
X77168857Y-135953896D01*
X77121238Y-136049134D01*
X77073619Y-136096753D01*
X76978381Y-136144372D01*
X76597429Y-136144372D01*
X77597429Y-136239610D02*
X78359333Y-136239610D01*
X78835524Y-136620562D02*
X78835524Y-135620562D01*
X79216476Y-135620562D01*
X79311714Y-135668182D01*
X79359333Y-135715801D01*
X79406952Y-135811039D01*
X79406952Y-135953896D01*
X79359333Y-136049134D01*
X79311714Y-136096753D01*
X79216476Y-136144372D01*
X78835524Y-136144372D01*
X79740286Y-135620562D02*
X80359333Y-135620562D01*
X80026000Y-136001515D01*
X80168857Y-136001515D01*
X80264095Y-136049134D01*
X80311714Y-136096753D01*
X80359333Y-136191991D01*
X80359333Y-136430086D01*
X80311714Y-136525324D01*
X80264095Y-136572943D01*
X80168857Y-136620562D01*
X79883143Y-136620562D01*
X79787905Y-136572943D01*
X79740286Y-136525324D01*
X81359333Y-136525324D02*
X81311714Y-136572943D01*
X81168857Y-136620562D01*
X81073619Y-136620562D01*
X80930762Y-136572943D01*
X80835524Y-136477705D01*
X80787905Y-136382467D01*
X80740286Y-136191991D01*
X80740286Y-136049134D01*
X80787905Y-135858658D01*
X80835524Y-135763420D01*
X80930762Y-135668182D01*
X81073619Y-135620562D01*
X81168857Y-135620562D01*
X81311714Y-135668182D01*
X81359333Y-135715801D01*
X81787905Y-136620562D02*
X81787905Y-135620562D01*
X82359333Y-136620562D01*
X82359333Y-135620562D01*
X83026000Y-135620562D02*
X83121238Y-135620562D01*
X83216476Y-135668182D01*
X83264095Y-135715801D01*
X83311714Y-135811039D01*
X83359333Y-136001515D01*
X83359333Y-136239610D01*
X83311714Y-136430086D01*
X83264095Y-136525324D01*
X83216476Y-136572943D01*
X83121238Y-136620562D01*
X83026000Y-136620562D01*
X82930762Y-136572943D01*
X82883143Y-136525324D01*
X82835524Y-136430086D01*
X82787905Y-136239610D01*
X82787905Y-136001515D01*
X82835524Y-135811039D01*
X82883143Y-135715801D01*
X82930762Y-135668182D01*
X83026000Y-135620562D01*
X84311714Y-136620562D02*
X83740286Y-136620562D01*
X84026000Y-136620562D02*
X84026000Y-135620562D01*
X83930762Y-135763420D01*
X83835524Y-135858658D01*
X83740286Y-135906277D01*
X84692667Y-135715801D02*
X84740286Y-135668182D01*
X84835524Y-135620562D01*
X85073619Y-135620562D01*
X85168857Y-135668182D01*
X85216476Y-135715801D01*
X85264095Y-135811039D01*
X85264095Y-135906277D01*
X85216476Y-136049134D01*
X84645048Y-136620562D01*
X85264095Y-136620562D01*
X85597429Y-135620562D02*
X85835524Y-136620562D01*
X86026000Y-135906277D01*
X86216476Y-136620562D01*
X86454572Y-135620562D01*
X87359333Y-136620562D02*
X86787905Y-136620562D01*
X87073619Y-136620562D02*
X87073619Y-135620562D01*
X86978381Y-135763420D01*
X86883143Y-135858658D01*
X86787905Y-135906277D01*
X88828380Y-119618000D02*
X88352190Y-119951333D01*
X88828380Y-120189428D02*
X87828380Y-120189428D01*
X87828380Y-119808476D01*
X87876000Y-119713238D01*
X87923619Y-119665619D01*
X88018857Y-119618000D01*
X88161714Y-119618000D01*
X88256952Y-119665619D01*
X88304571Y-119713238D01*
X88352190Y-119808476D01*
X88352190Y-120189428D01*
X88828380Y-118713238D02*
X88828380Y-119189428D01*
X87828380Y-119189428D01*
X88352190Y-118189428D02*
X88828380Y-118189428D01*
X87828380Y-118522761D02*
X88352190Y-118189428D01*
X87828380Y-117856095D01*
X87828380Y-117094190D02*
X87828380Y-117284666D01*
X87876000Y-117379904D01*
X87923619Y-117427523D01*
X88066476Y-117522761D01*
X88256952Y-117570380D01*
X88637904Y-117570380D01*
X88733142Y-117522761D01*
X88780761Y-117475142D01*
X88828380Y-117379904D01*
X88828380Y-117189428D01*
X88780761Y-117094190D01*
X88733142Y-117046571D01*
X88637904Y-116998952D01*
X88399809Y-116998952D01*
X88304571Y-117046571D01*
X88256952Y-117094190D01*
X88209333Y-117189428D01*
X88209333Y-117379904D01*
X88256952Y-117475142D01*
X88304571Y-117522761D01*
X88399809Y-117570380D01*
X68549810Y-123897135D02*
X68692667Y-123944754D01*
X68930762Y-123944754D01*
X69026000Y-123897135D01*
X69073619Y-123849516D01*
X69121238Y-123754278D01*
X69121238Y-123659040D01*
X69073619Y-123563802D01*
X69026000Y-123516183D01*
X68930762Y-123468564D01*
X68740286Y-123420945D01*
X68645048Y-123373326D01*
X68597429Y-123325707D01*
X68549810Y-123230469D01*
X68549810Y-123135231D01*
X68597429Y-123039993D01*
X68645048Y-122992374D01*
X68740286Y-122944754D01*
X68978381Y-122944754D01*
X69121238Y-122992374D01*
X69930762Y-123897135D02*
X69835524Y-123944754D01*
X69645048Y-123944754D01*
X69549810Y-123897135D01*
X69502191Y-123801897D01*
X69502191Y-123420945D01*
X69549810Y-123325707D01*
X69645048Y-123278088D01*
X69835524Y-123278088D01*
X69930762Y-123325707D01*
X69978381Y-123420945D01*
X69978381Y-123516183D01*
X69502191Y-123611421D01*
X70835524Y-123897135D02*
X70740286Y-123944754D01*
X70549810Y-123944754D01*
X70454572Y-123897135D01*
X70406952Y-123849516D01*
X70359333Y-123754278D01*
X70359333Y-123468564D01*
X70406952Y-123373326D01*
X70454572Y-123325707D01*
X70549810Y-123278088D01*
X70740286Y-123278088D01*
X70835524Y-123325707D01*
X71692667Y-122944754D02*
X71502191Y-122944754D01*
X71406952Y-122992374D01*
X71359333Y-123039993D01*
X71264095Y-123182850D01*
X71216476Y-123373326D01*
X71216476Y-123754278D01*
X71264095Y-123849516D01*
X71311714Y-123897135D01*
X71406952Y-123944754D01*
X71597429Y-123944754D01*
X71692667Y-123897135D01*
X71740286Y-123849516D01*
X71787905Y-123754278D01*
X71787905Y-123516183D01*
X71740286Y-123420945D01*
X71692667Y-123373326D01*
X71597429Y-123325707D01*
X71406952Y-123325707D01*
X71311714Y-123373326D01*
X71264095Y-123420945D01*
X71216476Y-123516183D01*
X72978381Y-123563802D02*
X73740286Y-123563802D01*
X75311714Y-123420945D02*
X74978381Y-123420945D01*
X74978381Y-123944754D02*
X74978381Y-122944754D01*
X75454572Y-122944754D01*
X75692667Y-122944754D02*
X76264095Y-122944754D01*
X75978381Y-123944754D02*
X75978381Y-122944754D01*
X77168857Y-123944754D02*
X76835524Y-123468564D01*
X76597429Y-123944754D02*
X76597429Y-122944754D01*
X76978381Y-122944754D01*
X77073619Y-122992374D01*
X77121238Y-123039993D01*
X77168857Y-123135231D01*
X77168857Y-123278088D01*
X77121238Y-123373326D01*
X77073619Y-123420945D01*
X76978381Y-123468564D01*
X76597429Y-123468564D01*
X77597429Y-123563802D02*
X78359333Y-123563802D01*
X78835524Y-123944754D02*
X78835524Y-122944754D01*
X79216476Y-122944754D01*
X79311714Y-122992374D01*
X79359333Y-123039993D01*
X79406952Y-123135231D01*
X79406952Y-123278088D01*
X79359333Y-123373326D01*
X79311714Y-123420945D01*
X79216476Y-123468564D01*
X78835524Y-123468564D01*
X79740286Y-122944754D02*
X80359333Y-122944754D01*
X80026000Y-123325707D01*
X80168857Y-123325707D01*
X80264095Y-123373326D01*
X80311714Y-123420945D01*
X80359333Y-123516183D01*
X80359333Y-123754278D01*
X80311714Y-123849516D01*
X80264095Y-123897135D01*
X80168857Y-123944754D01*
X79883143Y-123944754D01*
X79787905Y-123897135D01*
X79740286Y-123849516D01*
X81359333Y-123849516D02*
X81311714Y-123897135D01*
X81168857Y-123944754D01*
X81073619Y-123944754D01*
X80930762Y-123897135D01*
X80835524Y-123801897D01*
X80787905Y-123706659D01*
X80740286Y-123516183D01*
X80740286Y-123373326D01*
X80787905Y-123182850D01*
X80835524Y-123087612D01*
X80930762Y-122992374D01*
X81073619Y-122944754D01*
X81168857Y-122944754D01*
X81311714Y-122992374D01*
X81359333Y-123039993D01*
X81787905Y-123944754D02*
X81787905Y-122944754D01*
X82359333Y-123944754D01*
X82359333Y-122944754D01*
X83026000Y-122944754D02*
X83121238Y-122944754D01*
X83216476Y-122992374D01*
X83264095Y-123039993D01*
X83311714Y-123135231D01*
X83359333Y-123325707D01*
X83359333Y-123563802D01*
X83311714Y-123754278D01*
X83264095Y-123849516D01*
X83216476Y-123897135D01*
X83121238Y-123944754D01*
X83026000Y-123944754D01*
X82930762Y-123897135D01*
X82883143Y-123849516D01*
X82835524Y-123754278D01*
X82787905Y-123563802D01*
X82787905Y-123325707D01*
X82835524Y-123135231D01*
X82883143Y-123039993D01*
X82930762Y-122992374D01*
X83026000Y-122944754D01*
X84311714Y-123944754D02*
X83740286Y-123944754D01*
X84026000Y-123944754D02*
X84026000Y-122944754D01*
X83930762Y-123087612D01*
X83835524Y-123182850D01*
X83740286Y-123230469D01*
X84692667Y-123039993D02*
X84740286Y-122992374D01*
X84835524Y-122944754D01*
X85073619Y-122944754D01*
X85168857Y-122992374D01*
X85216476Y-123039993D01*
X85264095Y-123135231D01*
X85264095Y-123230469D01*
X85216476Y-123373326D01*
X84645048Y-123944754D01*
X85264095Y-123944754D01*
X85597429Y-122944754D02*
X85835524Y-123944754D01*
X86026000Y-123230469D01*
X86216476Y-123944754D01*
X86454572Y-122944754D01*
X87359333Y-123944754D02*
X86787905Y-123944754D01*
X87073619Y-123944754D02*
X87073619Y-122944754D01*
X86978381Y-123087612D01*
X86883143Y-123182850D01*
X86787905Y-123230469D01*
X88828380Y-106664000D02*
X88352190Y-106997333D01*
X88828380Y-107235428D02*
X87828380Y-107235428D01*
X87828380Y-106854476D01*
X87876000Y-106759238D01*
X87923619Y-106711619D01*
X88018857Y-106664000D01*
X88161714Y-106664000D01*
X88256952Y-106711619D01*
X88304571Y-106759238D01*
X88352190Y-106854476D01*
X88352190Y-107235428D01*
X88828380Y-105759238D02*
X88828380Y-106235428D01*
X87828380Y-106235428D01*
X88352190Y-105235428D02*
X88828380Y-105235428D01*
X87828380Y-105568761D02*
X88352190Y-105235428D01*
X87828380Y-104902095D01*
X87828380Y-104092571D02*
X87828380Y-104568761D01*
X88304571Y-104616380D01*
X88256952Y-104568761D01*
X88209333Y-104473523D01*
X88209333Y-104235428D01*
X88256952Y-104140190D01*
X88304571Y-104092571D01*
X88399809Y-104044952D01*
X88637904Y-104044952D01*
X88733142Y-104092571D01*
X88780761Y-104140190D01*
X88828380Y-104235428D01*
X88828380Y-104473523D01*
X88780761Y-104568761D01*
X88733142Y-104616380D01*
X68549810Y-111475327D02*
X68692667Y-111522946D01*
X68930762Y-111522946D01*
X69026000Y-111475327D01*
X69073619Y-111427708D01*
X69121238Y-111332470D01*
X69121238Y-111237232D01*
X69073619Y-111141994D01*
X69026000Y-111094375D01*
X68930762Y-111046756D01*
X68740286Y-110999137D01*
X68645048Y-110951518D01*
X68597429Y-110903899D01*
X68549810Y-110808661D01*
X68549810Y-110713423D01*
X68597429Y-110618185D01*
X68645048Y-110570566D01*
X68740286Y-110522946D01*
X68978381Y-110522946D01*
X69121238Y-110570566D01*
X69930762Y-111475327D02*
X69835524Y-111522946D01*
X69645048Y-111522946D01*
X69549810Y-111475327D01*
X69502191Y-111380089D01*
X69502191Y-110999137D01*
X69549810Y-110903899D01*
X69645048Y-110856280D01*
X69835524Y-110856280D01*
X69930762Y-110903899D01*
X69978381Y-110999137D01*
X69978381Y-111094375D01*
X69502191Y-111189613D01*
X70835524Y-111475327D02*
X70740286Y-111522946D01*
X70549810Y-111522946D01*
X70454572Y-111475327D01*
X70406952Y-111427708D01*
X70359333Y-111332470D01*
X70359333Y-111046756D01*
X70406952Y-110951518D01*
X70454572Y-110903899D01*
X70549810Y-110856280D01*
X70740286Y-110856280D01*
X70835524Y-110903899D01*
X71740286Y-110522946D02*
X71264095Y-110522946D01*
X71216476Y-110999137D01*
X71264095Y-110951518D01*
X71359333Y-110903899D01*
X71597429Y-110903899D01*
X71692667Y-110951518D01*
X71740286Y-110999137D01*
X71787905Y-111094375D01*
X71787905Y-111332470D01*
X71740286Y-111427708D01*
X71692667Y-111475327D01*
X71597429Y-111522946D01*
X71359333Y-111522946D01*
X71264095Y-111475327D01*
X71216476Y-111427708D01*
X72978381Y-111141994D02*
X73740286Y-111141994D01*
X75311714Y-110999137D02*
X74978381Y-110999137D01*
X74978381Y-111522946D02*
X74978381Y-110522946D01*
X75454572Y-110522946D01*
X75692667Y-110522946D02*
X76264095Y-110522946D01*
X75978381Y-111522946D02*
X75978381Y-110522946D01*
X77168857Y-111522946D02*
X76835524Y-111046756D01*
X76597429Y-111522946D02*
X76597429Y-110522946D01*
X76978381Y-110522946D01*
X77073619Y-110570566D01*
X77121238Y-110618185D01*
X77168857Y-110713423D01*
X77168857Y-110856280D01*
X77121238Y-110951518D01*
X77073619Y-110999137D01*
X76978381Y-111046756D01*
X76597429Y-111046756D01*
X77597429Y-111141994D02*
X78359333Y-111141994D01*
X78835524Y-111522946D02*
X78835524Y-110522946D01*
X79216476Y-110522946D01*
X79311714Y-110570566D01*
X79359333Y-110618185D01*
X79406952Y-110713423D01*
X79406952Y-110856280D01*
X79359333Y-110951518D01*
X79311714Y-110999137D01*
X79216476Y-111046756D01*
X78835524Y-111046756D01*
X79740286Y-110522946D02*
X80359333Y-110522946D01*
X80026000Y-110903899D01*
X80168857Y-110903899D01*
X80264095Y-110951518D01*
X80311714Y-110999137D01*
X80359333Y-111094375D01*
X80359333Y-111332470D01*
X80311714Y-111427708D01*
X80264095Y-111475327D01*
X80168857Y-111522946D01*
X79883143Y-111522946D01*
X79787905Y-111475327D01*
X79740286Y-111427708D01*
X81359333Y-111427708D02*
X81311714Y-111475327D01*
X81168857Y-111522946D01*
X81073619Y-111522946D01*
X80930762Y-111475327D01*
X80835524Y-111380089D01*
X80787905Y-111284851D01*
X80740286Y-111094375D01*
X80740286Y-110951518D01*
X80787905Y-110761042D01*
X80835524Y-110665804D01*
X80930762Y-110570566D01*
X81073619Y-110522946D01*
X81168857Y-110522946D01*
X81311714Y-110570566D01*
X81359333Y-110618185D01*
X81787905Y-111522946D02*
X81787905Y-110522946D01*
X82359333Y-111522946D01*
X82359333Y-110522946D01*
X83026000Y-110522946D02*
X83121238Y-110522946D01*
X83216476Y-110570566D01*
X83264095Y-110618185D01*
X83311714Y-110713423D01*
X83359333Y-110903899D01*
X83359333Y-111141994D01*
X83311714Y-111332470D01*
X83264095Y-111427708D01*
X83216476Y-111475327D01*
X83121238Y-111522946D01*
X83026000Y-111522946D01*
X82930762Y-111475327D01*
X82883143Y-111427708D01*
X82835524Y-111332470D01*
X82787905Y-111141994D01*
X82787905Y-110903899D01*
X82835524Y-110713423D01*
X82883143Y-110618185D01*
X82930762Y-110570566D01*
X83026000Y-110522946D01*
X84311714Y-111522946D02*
X83740286Y-111522946D01*
X84026000Y-111522946D02*
X84026000Y-110522946D01*
X83930762Y-110665804D01*
X83835524Y-110761042D01*
X83740286Y-110808661D01*
X84692667Y-110618185D02*
X84740286Y-110570566D01*
X84835524Y-110522946D01*
X85073619Y-110522946D01*
X85168857Y-110570566D01*
X85216476Y-110618185D01*
X85264095Y-110713423D01*
X85264095Y-110808661D01*
X85216476Y-110951518D01*
X84645048Y-111522946D01*
X85264095Y-111522946D01*
X85597429Y-110522946D02*
X85835524Y-111522946D01*
X86026000Y-110808661D01*
X86216476Y-111522946D01*
X86454572Y-110522946D01*
X87359333Y-111522946D02*
X86787905Y-111522946D01*
X87073619Y-111522946D02*
X87073619Y-110522946D01*
X86978381Y-110665804D01*
X86883143Y-110761042D01*
X86787905Y-110808661D01*
X88828380Y-94218000D02*
X88352190Y-94551333D01*
X88828380Y-94789428D02*
X87828380Y-94789428D01*
X87828380Y-94408476D01*
X87876000Y-94313238D01*
X87923619Y-94265619D01*
X88018857Y-94218000D01*
X88161714Y-94218000D01*
X88256952Y-94265619D01*
X88304571Y-94313238D01*
X88352190Y-94408476D01*
X88352190Y-94789428D01*
X88828380Y-93313238D02*
X88828380Y-93789428D01*
X87828380Y-93789428D01*
X88352190Y-92789428D02*
X88828380Y-92789428D01*
X87828380Y-93122761D02*
X88352190Y-92789428D01*
X87828380Y-92456095D01*
X88161714Y-91694190D02*
X88828380Y-91694190D01*
X87780761Y-91932285D02*
X88495047Y-92170380D01*
X88495047Y-91551333D01*
X68549810Y-98799519D02*
X68692667Y-98847138D01*
X68930762Y-98847138D01*
X69026000Y-98799519D01*
X69073619Y-98751900D01*
X69121238Y-98656662D01*
X69121238Y-98561424D01*
X69073619Y-98466186D01*
X69026000Y-98418567D01*
X68930762Y-98370948D01*
X68740286Y-98323329D01*
X68645048Y-98275710D01*
X68597429Y-98228091D01*
X68549810Y-98132853D01*
X68549810Y-98037615D01*
X68597429Y-97942377D01*
X68645048Y-97894758D01*
X68740286Y-97847138D01*
X68978381Y-97847138D01*
X69121238Y-97894758D01*
X69930762Y-98799519D02*
X69835524Y-98847138D01*
X69645048Y-98847138D01*
X69549810Y-98799519D01*
X69502191Y-98704281D01*
X69502191Y-98323329D01*
X69549810Y-98228091D01*
X69645048Y-98180472D01*
X69835524Y-98180472D01*
X69930762Y-98228091D01*
X69978381Y-98323329D01*
X69978381Y-98418567D01*
X69502191Y-98513805D01*
X70835524Y-98799519D02*
X70740286Y-98847138D01*
X70549810Y-98847138D01*
X70454572Y-98799519D01*
X70406952Y-98751900D01*
X70359333Y-98656662D01*
X70359333Y-98370948D01*
X70406952Y-98275710D01*
X70454572Y-98228091D01*
X70549810Y-98180472D01*
X70740286Y-98180472D01*
X70835524Y-98228091D01*
X71692667Y-98180472D02*
X71692667Y-98847138D01*
X71454572Y-97799519D02*
X71216476Y-98513805D01*
X71835524Y-98513805D01*
X72978381Y-98466186D02*
X73740286Y-98466186D01*
X75311714Y-98323329D02*
X74978381Y-98323329D01*
X74978381Y-98847138D02*
X74978381Y-97847138D01*
X75454572Y-97847138D01*
X75692667Y-97847138D02*
X76264095Y-97847138D01*
X75978381Y-98847138D02*
X75978381Y-97847138D01*
X77168857Y-98847138D02*
X76835524Y-98370948D01*
X76597429Y-98847138D02*
X76597429Y-97847138D01*
X76978381Y-97847138D01*
X77073619Y-97894758D01*
X77121238Y-97942377D01*
X77168857Y-98037615D01*
X77168857Y-98180472D01*
X77121238Y-98275710D01*
X77073619Y-98323329D01*
X76978381Y-98370948D01*
X76597429Y-98370948D01*
X77597429Y-98466186D02*
X78359333Y-98466186D01*
X78835524Y-98847138D02*
X78835524Y-97847138D01*
X79216476Y-97847138D01*
X79311714Y-97894758D01*
X79359333Y-97942377D01*
X79406952Y-98037615D01*
X79406952Y-98180472D01*
X79359333Y-98275710D01*
X79311714Y-98323329D01*
X79216476Y-98370948D01*
X78835524Y-98370948D01*
X79740286Y-97847138D02*
X80359333Y-97847138D01*
X80026000Y-98228091D01*
X80168857Y-98228091D01*
X80264095Y-98275710D01*
X80311714Y-98323329D01*
X80359333Y-98418567D01*
X80359333Y-98656662D01*
X80311714Y-98751900D01*
X80264095Y-98799519D01*
X80168857Y-98847138D01*
X79883143Y-98847138D01*
X79787905Y-98799519D01*
X79740286Y-98751900D01*
X81359333Y-98751900D02*
X81311714Y-98799519D01*
X81168857Y-98847138D01*
X81073619Y-98847138D01*
X80930762Y-98799519D01*
X80835524Y-98704281D01*
X80787905Y-98609043D01*
X80740286Y-98418567D01*
X80740286Y-98275710D01*
X80787905Y-98085234D01*
X80835524Y-97989996D01*
X80930762Y-97894758D01*
X81073619Y-97847138D01*
X81168857Y-97847138D01*
X81311714Y-97894758D01*
X81359333Y-97942377D01*
X81787905Y-98847138D02*
X81787905Y-97847138D01*
X82359333Y-98847138D01*
X82359333Y-97847138D01*
X83026000Y-97847138D02*
X83121238Y-97847138D01*
X83216476Y-97894758D01*
X83264095Y-97942377D01*
X83311714Y-98037615D01*
X83359333Y-98228091D01*
X83359333Y-98466186D01*
X83311714Y-98656662D01*
X83264095Y-98751900D01*
X83216476Y-98799519D01*
X83121238Y-98847138D01*
X83026000Y-98847138D01*
X82930762Y-98799519D01*
X82883143Y-98751900D01*
X82835524Y-98656662D01*
X82787905Y-98466186D01*
X82787905Y-98228091D01*
X82835524Y-98037615D01*
X82883143Y-97942377D01*
X82930762Y-97894758D01*
X83026000Y-97847138D01*
X84311714Y-98847138D02*
X83740286Y-98847138D01*
X84026000Y-98847138D02*
X84026000Y-97847138D01*
X83930762Y-97989996D01*
X83835524Y-98085234D01*
X83740286Y-98132853D01*
X84692667Y-97942377D02*
X84740286Y-97894758D01*
X84835524Y-97847138D01*
X85073619Y-97847138D01*
X85168857Y-97894758D01*
X85216476Y-97942377D01*
X85264095Y-98037615D01*
X85264095Y-98132853D01*
X85216476Y-98275710D01*
X84645048Y-98847138D01*
X85264095Y-98847138D01*
X85597429Y-97847138D02*
X85835524Y-98847138D01*
X86026000Y-98132853D01*
X86216476Y-98847138D01*
X86454572Y-97847138D01*
X87359333Y-98847138D02*
X86787905Y-98847138D01*
X87073619Y-98847138D02*
X87073619Y-97847138D01*
X86978381Y-97989996D01*
X86883143Y-98085234D01*
X86787905Y-98132853D01*
X88828380Y-81772000D02*
X88352190Y-82105333D01*
X88828380Y-82343428D02*
X87828380Y-82343428D01*
X87828380Y-81962476D01*
X87876000Y-81867238D01*
X87923619Y-81819619D01*
X88018857Y-81772000D01*
X88161714Y-81772000D01*
X88256952Y-81819619D01*
X88304571Y-81867238D01*
X88352190Y-81962476D01*
X88352190Y-82343428D01*
X88828380Y-80867238D02*
X88828380Y-81343428D01*
X87828380Y-81343428D01*
X88352190Y-80343428D02*
X88828380Y-80343428D01*
X87828380Y-80676761D02*
X88352190Y-80343428D01*
X87828380Y-80010095D01*
X87828380Y-79772000D02*
X87828380Y-79152952D01*
X88209333Y-79486285D01*
X88209333Y-79343428D01*
X88256952Y-79248190D01*
X88304571Y-79200571D01*
X88399809Y-79152952D01*
X88637904Y-79152952D01*
X88733142Y-79200571D01*
X88780761Y-79248190D01*
X88828380Y-79343428D01*
X88828380Y-79629142D01*
X88780761Y-79724380D01*
X88733142Y-79772000D01*
X68549810Y-86123711D02*
X68692667Y-86171330D01*
X68930762Y-86171330D01*
X69026000Y-86123711D01*
X69073619Y-86076092D01*
X69121238Y-85980854D01*
X69121238Y-85885616D01*
X69073619Y-85790378D01*
X69026000Y-85742759D01*
X68930762Y-85695140D01*
X68740286Y-85647521D01*
X68645048Y-85599902D01*
X68597429Y-85552283D01*
X68549810Y-85457045D01*
X68549810Y-85361807D01*
X68597429Y-85266569D01*
X68645048Y-85218950D01*
X68740286Y-85171330D01*
X68978381Y-85171330D01*
X69121238Y-85218950D01*
X69930762Y-86123711D02*
X69835524Y-86171330D01*
X69645048Y-86171330D01*
X69549810Y-86123711D01*
X69502191Y-86028473D01*
X69502191Y-85647521D01*
X69549810Y-85552283D01*
X69645048Y-85504664D01*
X69835524Y-85504664D01*
X69930762Y-85552283D01*
X69978381Y-85647521D01*
X69978381Y-85742759D01*
X69502191Y-85837997D01*
X70835524Y-86123711D02*
X70740286Y-86171330D01*
X70549810Y-86171330D01*
X70454572Y-86123711D01*
X70406952Y-86076092D01*
X70359333Y-85980854D01*
X70359333Y-85695140D01*
X70406952Y-85599902D01*
X70454572Y-85552283D01*
X70549810Y-85504664D01*
X70740286Y-85504664D01*
X70835524Y-85552283D01*
X71168857Y-85171330D02*
X71787905Y-85171330D01*
X71454572Y-85552283D01*
X71597429Y-85552283D01*
X71692667Y-85599902D01*
X71740286Y-85647521D01*
X71787905Y-85742759D01*
X71787905Y-85980854D01*
X71740286Y-86076092D01*
X71692667Y-86123711D01*
X71597429Y-86171330D01*
X71311714Y-86171330D01*
X71216476Y-86123711D01*
X71168857Y-86076092D01*
X72978381Y-85790378D02*
X73740286Y-85790378D01*
X75311714Y-85647521D02*
X74978381Y-85647521D01*
X74978381Y-86171330D02*
X74978381Y-85171330D01*
X75454572Y-85171330D01*
X75692667Y-85171330D02*
X76264095Y-85171330D01*
X75978381Y-86171330D02*
X75978381Y-85171330D01*
X77168857Y-86171330D02*
X76835524Y-85695140D01*
X76597429Y-86171330D02*
X76597429Y-85171330D01*
X76978381Y-85171330D01*
X77073619Y-85218950D01*
X77121238Y-85266569D01*
X77168857Y-85361807D01*
X77168857Y-85504664D01*
X77121238Y-85599902D01*
X77073619Y-85647521D01*
X76978381Y-85695140D01*
X76597429Y-85695140D01*
X77597429Y-85790378D02*
X78359333Y-85790378D01*
X78835524Y-86171330D02*
X78835524Y-85171330D01*
X79216476Y-85171330D01*
X79311714Y-85218950D01*
X79359333Y-85266569D01*
X79406952Y-85361807D01*
X79406952Y-85504664D01*
X79359333Y-85599902D01*
X79311714Y-85647521D01*
X79216476Y-85695140D01*
X78835524Y-85695140D01*
X79740286Y-85171330D02*
X80359333Y-85171330D01*
X80026000Y-85552283D01*
X80168857Y-85552283D01*
X80264095Y-85599902D01*
X80311714Y-85647521D01*
X80359333Y-85742759D01*
X80359333Y-85980854D01*
X80311714Y-86076092D01*
X80264095Y-86123711D01*
X80168857Y-86171330D01*
X79883143Y-86171330D01*
X79787905Y-86123711D01*
X79740286Y-86076092D01*
X81359333Y-86076092D02*
X81311714Y-86123711D01*
X81168857Y-86171330D01*
X81073619Y-86171330D01*
X80930762Y-86123711D01*
X80835524Y-86028473D01*
X80787905Y-85933235D01*
X80740286Y-85742759D01*
X80740286Y-85599902D01*
X80787905Y-85409426D01*
X80835524Y-85314188D01*
X80930762Y-85218950D01*
X81073619Y-85171330D01*
X81168857Y-85171330D01*
X81311714Y-85218950D01*
X81359333Y-85266569D01*
X81787905Y-86171330D02*
X81787905Y-85171330D01*
X82359333Y-86171330D01*
X82359333Y-85171330D01*
X83026000Y-85171330D02*
X83121238Y-85171330D01*
X83216476Y-85218950D01*
X83264095Y-85266569D01*
X83311714Y-85361807D01*
X83359333Y-85552283D01*
X83359333Y-85790378D01*
X83311714Y-85980854D01*
X83264095Y-86076092D01*
X83216476Y-86123711D01*
X83121238Y-86171330D01*
X83026000Y-86171330D01*
X82930762Y-86123711D01*
X82883143Y-86076092D01*
X82835524Y-85980854D01*
X82787905Y-85790378D01*
X82787905Y-85552283D01*
X82835524Y-85361807D01*
X82883143Y-85266569D01*
X82930762Y-85218950D01*
X83026000Y-85171330D01*
X84311714Y-86171330D02*
X83740286Y-86171330D01*
X84026000Y-86171330D02*
X84026000Y-85171330D01*
X83930762Y-85314188D01*
X83835524Y-85409426D01*
X83740286Y-85457045D01*
X84692667Y-85266569D02*
X84740286Y-85218950D01*
X84835524Y-85171330D01*
X85073619Y-85171330D01*
X85168857Y-85218950D01*
X85216476Y-85266569D01*
X85264095Y-85361807D01*
X85264095Y-85457045D01*
X85216476Y-85599902D01*
X84645048Y-86171330D01*
X85264095Y-86171330D01*
X85597429Y-85171330D02*
X85835524Y-86171330D01*
X86026000Y-85457045D01*
X86216476Y-86171330D01*
X86454572Y-85171330D01*
X87359333Y-86171330D02*
X86787905Y-86171330D01*
X87073619Y-86171330D02*
X87073619Y-85171330D01*
X86978381Y-85314188D01*
X86883143Y-85409426D01*
X86787905Y-85457045D01*
X88828380Y-56880000D02*
X88352190Y-57213333D01*
X88828380Y-57451428D02*
X87828380Y-57451428D01*
X87828380Y-57070476D01*
X87876000Y-56975238D01*
X87923619Y-56927619D01*
X88018857Y-56880000D01*
X88161714Y-56880000D01*
X88256952Y-56927619D01*
X88304571Y-56975238D01*
X88352190Y-57070476D01*
X88352190Y-57451428D01*
X88828380Y-55975238D02*
X88828380Y-56451428D01*
X87828380Y-56451428D01*
X88352190Y-55451428D02*
X88828380Y-55451428D01*
X87828380Y-55784761D02*
X88352190Y-55451428D01*
X87828380Y-55118095D01*
X88828380Y-54260952D02*
X88828380Y-54832380D01*
X88828380Y-54546666D02*
X87828380Y-54546666D01*
X87971238Y-54641904D01*
X88066476Y-54737142D01*
X88114095Y-54832380D01*
X68549810Y-61669561D02*
X68692667Y-61717180D01*
X68930762Y-61717180D01*
X69026000Y-61669561D01*
X69073619Y-61621942D01*
X69121238Y-61526704D01*
X69121238Y-61431466D01*
X69073619Y-61336228D01*
X69026000Y-61288609D01*
X68930762Y-61240990D01*
X68740286Y-61193371D01*
X68645048Y-61145752D01*
X68597429Y-61098133D01*
X68549810Y-61002895D01*
X68549810Y-60907657D01*
X68597429Y-60812419D01*
X68645048Y-60764800D01*
X68740286Y-60717180D01*
X68978381Y-60717180D01*
X69121238Y-60764800D01*
X69930762Y-61669561D02*
X69835524Y-61717180D01*
X69645048Y-61717180D01*
X69549810Y-61669561D01*
X69502191Y-61574323D01*
X69502191Y-61193371D01*
X69549810Y-61098133D01*
X69645048Y-61050514D01*
X69835524Y-61050514D01*
X69930762Y-61098133D01*
X69978381Y-61193371D01*
X69978381Y-61288609D01*
X69502191Y-61383847D01*
X70835524Y-61669561D02*
X70740286Y-61717180D01*
X70549810Y-61717180D01*
X70454572Y-61669561D01*
X70406952Y-61621942D01*
X70359333Y-61526704D01*
X70359333Y-61240990D01*
X70406952Y-61145752D01*
X70454572Y-61098133D01*
X70549810Y-61050514D01*
X70740286Y-61050514D01*
X70835524Y-61098133D01*
X71787905Y-61717180D02*
X71216476Y-61717180D01*
X71502191Y-61717180D02*
X71502191Y-60717180D01*
X71406952Y-60860038D01*
X71311714Y-60955276D01*
X71216476Y-61002895D01*
X72978381Y-61336228D02*
X73740286Y-61336228D01*
X75311714Y-61193371D02*
X74978381Y-61193371D01*
X74978381Y-61717180D02*
X74978381Y-60717180D01*
X75454572Y-60717180D01*
X75692667Y-60717180D02*
X76264095Y-60717180D01*
X75978381Y-61717180D02*
X75978381Y-60717180D01*
X77168857Y-61717180D02*
X76835524Y-61240990D01*
X76597429Y-61717180D02*
X76597429Y-60717180D01*
X76978381Y-60717180D01*
X77073619Y-60764800D01*
X77121238Y-60812419D01*
X77168857Y-60907657D01*
X77168857Y-61050514D01*
X77121238Y-61145752D01*
X77073619Y-61193371D01*
X76978381Y-61240990D01*
X76597429Y-61240990D01*
X77597429Y-61336228D02*
X78359333Y-61336228D01*
X78835524Y-61717180D02*
X78835524Y-60717180D01*
X79216476Y-60717180D01*
X79311714Y-60764800D01*
X79359333Y-60812419D01*
X79406952Y-60907657D01*
X79406952Y-61050514D01*
X79359333Y-61145752D01*
X79311714Y-61193371D01*
X79216476Y-61240990D01*
X78835524Y-61240990D01*
X79740286Y-60717180D02*
X80359333Y-60717180D01*
X80026000Y-61098133D01*
X80168857Y-61098133D01*
X80264095Y-61145752D01*
X80311714Y-61193371D01*
X80359333Y-61288609D01*
X80359333Y-61526704D01*
X80311714Y-61621942D01*
X80264095Y-61669561D01*
X80168857Y-61717180D01*
X79883143Y-61717180D01*
X79787905Y-61669561D01*
X79740286Y-61621942D01*
X81359333Y-61621942D02*
X81311714Y-61669561D01*
X81168857Y-61717180D01*
X81073619Y-61717180D01*
X80930762Y-61669561D01*
X80835524Y-61574323D01*
X80787905Y-61479085D01*
X80740286Y-61288609D01*
X80740286Y-61145752D01*
X80787905Y-60955276D01*
X80835524Y-60860038D01*
X80930762Y-60764800D01*
X81073619Y-60717180D01*
X81168857Y-60717180D01*
X81311714Y-60764800D01*
X81359333Y-60812419D01*
X81787905Y-61717180D02*
X81787905Y-60717180D01*
X82359333Y-61717180D01*
X82359333Y-60717180D01*
X83026000Y-60717180D02*
X83121238Y-60717180D01*
X83216476Y-60764800D01*
X83264095Y-60812419D01*
X83311714Y-60907657D01*
X83359333Y-61098133D01*
X83359333Y-61336228D01*
X83311714Y-61526704D01*
X83264095Y-61621942D01*
X83216476Y-61669561D01*
X83121238Y-61717180D01*
X83026000Y-61717180D01*
X82930762Y-61669561D01*
X82883143Y-61621942D01*
X82835524Y-61526704D01*
X82787905Y-61336228D01*
X82787905Y-61098133D01*
X82835524Y-60907657D01*
X82883143Y-60812419D01*
X82930762Y-60764800D01*
X83026000Y-60717180D01*
X84311714Y-61717180D02*
X83740286Y-61717180D01*
X84026000Y-61717180D02*
X84026000Y-60717180D01*
X83930762Y-60860038D01*
X83835524Y-60955276D01*
X83740286Y-61002895D01*
X84692667Y-60812419D02*
X84740286Y-60764800D01*
X84835524Y-60717180D01*
X85073619Y-60717180D01*
X85168857Y-60764800D01*
X85216476Y-60812419D01*
X85264095Y-60907657D01*
X85264095Y-61002895D01*
X85216476Y-61145752D01*
X84645048Y-61717180D01*
X85264095Y-61717180D01*
X85597429Y-60717180D02*
X85835524Y-61717180D01*
X86026000Y-61002895D01*
X86216476Y-61717180D01*
X86454572Y-60717180D01*
X87359333Y-61717180D02*
X86787905Y-61717180D01*
X87073619Y-61717180D02*
X87073619Y-60717180D01*
X86978381Y-60860038D01*
X86883143Y-60955276D01*
X86787905Y-61002895D01*
D14*
X108509811Y-141163047D02*
X108509811Y-139956547D01*
X109773764Y-141048142D02*
X109716311Y-141105595D01*
X109543954Y-141163047D01*
X109429050Y-141163047D01*
X109256692Y-141105595D01*
X109141788Y-140990690D01*
X109084335Y-140875785D01*
X109026883Y-140645976D01*
X109026883Y-140473619D01*
X109084335Y-140243809D01*
X109141788Y-140128904D01*
X109256692Y-140014000D01*
X109429050Y-139956547D01*
X109543954Y-139956547D01*
X109716311Y-140014000D01*
X109773764Y-140071452D01*
X110922811Y-141163047D02*
X110233383Y-141163047D01*
X110578097Y-141163047D02*
X110578097Y-139956547D01*
X110463192Y-140128904D01*
X110348288Y-140243809D01*
X110233383Y-140301261D01*
X104463047Y-137485188D02*
X105439738Y-137485188D01*
X105554642Y-137427735D01*
X105612095Y-137370283D01*
X105669547Y-137255378D01*
X105669547Y-137025569D01*
X105612095Y-136910664D01*
X105554642Y-136853211D01*
X105439738Y-136795759D01*
X104463047Y-136795759D01*
X105669547Y-135646711D02*
X105669547Y-136221235D01*
X104463047Y-136221235D01*
X105669547Y-135244545D02*
X104463047Y-135244545D01*
X105669547Y-134555116D01*
X104463047Y-134555116D01*
X104577952Y-134038045D02*
X104520500Y-133980592D01*
X104463047Y-133865688D01*
X104463047Y-133578426D01*
X104520500Y-133463521D01*
X104577952Y-133406069D01*
X104692857Y-133348616D01*
X104807761Y-133348616D01*
X104980119Y-133406069D01*
X105669547Y-134095497D01*
X105669547Y-133348616D01*
X104980119Y-132659188D02*
X104922666Y-132774092D01*
X104865214Y-132831545D01*
X104750309Y-132888997D01*
X104692857Y-132888997D01*
X104577952Y-132831545D01*
X104520500Y-132774092D01*
X104463047Y-132659188D01*
X104463047Y-132429378D01*
X104520500Y-132314473D01*
X104577952Y-132257021D01*
X104692857Y-132199569D01*
X104750309Y-132199569D01*
X104865214Y-132257021D01*
X104922666Y-132314473D01*
X104980119Y-132429378D01*
X104980119Y-132659188D01*
X105037571Y-132774092D01*
X105095023Y-132831545D01*
X105209928Y-132888997D01*
X105439738Y-132888997D01*
X105554642Y-132831545D01*
X105612095Y-132774092D01*
X105669547Y-132659188D01*
X105669547Y-132429378D01*
X105612095Y-132314473D01*
X105554642Y-132257021D01*
X105439738Y-132199569D01*
X105209928Y-132199569D01*
X105095023Y-132257021D01*
X105037571Y-132314473D01*
X104980119Y-132429378D01*
X104463047Y-131452688D02*
X104463047Y-131337783D01*
X104520500Y-131222878D01*
X104577952Y-131165426D01*
X104692857Y-131107973D01*
X104922666Y-131050521D01*
X105209928Y-131050521D01*
X105439738Y-131107973D01*
X105554642Y-131165426D01*
X105612095Y-131222878D01*
X105669547Y-131337783D01*
X105669547Y-131452688D01*
X105612095Y-131567592D01*
X105554642Y-131625045D01*
X105439738Y-131682497D01*
X105209928Y-131739950D01*
X104922666Y-131739950D01*
X104692857Y-131682497D01*
X104577952Y-131625045D01*
X104520500Y-131567592D01*
X104463047Y-131452688D01*
X104463047Y-130648354D02*
X104463047Y-129901473D01*
X104922666Y-130303640D01*
X104922666Y-130131283D01*
X104980119Y-130016378D01*
X105037571Y-129958926D01*
X105152476Y-129901473D01*
X105439738Y-129901473D01*
X105554642Y-129958926D01*
X105612095Y-130016378D01*
X105669547Y-130131283D01*
X105669547Y-130475997D01*
X105612095Y-130590902D01*
X105554642Y-130648354D01*
X105324833Y-129441854D02*
X105324833Y-128867330D01*
X105669547Y-129556759D02*
X104463047Y-129154592D01*
X105669547Y-128752426D01*
D10*
X124959904Y-147016380D02*
X124959904Y-146016380D01*
X125198000Y-146016380D01*
X125340857Y-146064000D01*
X125436095Y-146159238D01*
X125483714Y-146254476D01*
X125531333Y-146444952D01*
X125531333Y-146587809D01*
X125483714Y-146778285D01*
X125436095Y-146873523D01*
X125340857Y-146968761D01*
X125198000Y-147016380D01*
X124959904Y-147016380D01*
X126483714Y-147016380D02*
X125912285Y-147016380D01*
X126198000Y-147016380D02*
X126198000Y-146016380D01*
X126102761Y-146159238D01*
X126007523Y-146254476D01*
X125912285Y-146302095D01*
X132357142Y-143952380D02*
X131880952Y-143952380D01*
X131880952Y-142952380D01*
X132690476Y-143428571D02*
X133023809Y-143428571D01*
X133166666Y-143952380D02*
X132690476Y-143952380D01*
X132690476Y-142952380D01*
X133166666Y-142952380D01*
X133595238Y-143952380D02*
X133595238Y-142952380D01*
X133833333Y-142952380D01*
X133976190Y-143000000D01*
X134071428Y-143095238D01*
X134119047Y-143190476D01*
X134166666Y-143380952D01*
X134166666Y-143523809D01*
X134119047Y-143714285D01*
X134071428Y-143809523D01*
X133976190Y-143904761D01*
X133833333Y-143952380D01*
X133595238Y-143952380D01*
X150381142Y-122460666D02*
X150428761Y-122508285D01*
X150476380Y-122651142D01*
X150476380Y-122746380D01*
X150428761Y-122889238D01*
X150333523Y-122984476D01*
X150238285Y-123032095D01*
X150047809Y-123079714D01*
X149904952Y-123079714D01*
X149714476Y-123032095D01*
X149619238Y-122984476D01*
X149524000Y-122889238D01*
X149476380Y-122746380D01*
X149476380Y-122651142D01*
X149524000Y-122508285D01*
X149571619Y-122460666D01*
X149476380Y-121603523D02*
X149476380Y-121794000D01*
X149524000Y-121889238D01*
X149571619Y-121936857D01*
X149714476Y-122032095D01*
X149904952Y-122079714D01*
X150285904Y-122079714D01*
X150381142Y-122032095D01*
X150428761Y-121984476D01*
X150476380Y-121889238D01*
X150476380Y-121698761D01*
X150428761Y-121603523D01*
X150381142Y-121555904D01*
X150285904Y-121508285D01*
X150047809Y-121508285D01*
X149952571Y-121555904D01*
X149904952Y-121603523D01*
X149857333Y-121698761D01*
X149857333Y-121889238D01*
X149904952Y-121984476D01*
X149952571Y-122032095D01*
X150047809Y-122079714D01*
X150452380Y-119892857D02*
X150452380Y-119797619D01*
X150500000Y-119702380D01*
X150547619Y-119654761D01*
X150642857Y-119607142D01*
X150833333Y-119559523D01*
X151071428Y-119559523D01*
X151261904Y-119607142D01*
X151357142Y-119654761D01*
X151404761Y-119702380D01*
X151452380Y-119797619D01*
X151452380Y-119892857D01*
X151404761Y-119988095D01*
X151357142Y-120035714D01*
X151261904Y-120083333D01*
X151071428Y-120130952D01*
X150833333Y-120130952D01*
X150642857Y-120083333D01*
X150547619Y-120035714D01*
X150500000Y-119988095D01*
X150452380Y-119892857D01*
X151357142Y-119130952D02*
X151404761Y-119083333D01*
X151452380Y-119130952D01*
X151404761Y-119178571D01*
X151357142Y-119130952D01*
X151452380Y-119130952D01*
X151452380Y-118130952D02*
X151452380Y-118702380D01*
X151452380Y-118416666D02*
X150452380Y-118416666D01*
X150595238Y-118511904D01*
X150690476Y-118607142D01*
X150738095Y-118702380D01*
X150785714Y-117273809D02*
X151452380Y-117273809D01*
X150785714Y-117702380D02*
X151309523Y-117702380D01*
X151404761Y-117654761D01*
X151452380Y-117559523D01*
X151452380Y-117416666D01*
X151404761Y-117321428D01*
X151357142Y-117273809D01*
X150928571Y-116464285D02*
X150928571Y-116797619D01*
X151452380Y-116797619D02*
X150452380Y-116797619D01*
X150452380Y-116321428D01*
X100389333Y-79381142D02*
X100341714Y-79428761D01*
X100198857Y-79476380D01*
X100103619Y-79476380D01*
X99960761Y-79428761D01*
X99865523Y-79333523D01*
X99817904Y-79238285D01*
X99770285Y-79047809D01*
X99770285Y-78904952D01*
X99817904Y-78714476D01*
X99865523Y-78619238D01*
X99960761Y-78524000D01*
X100103619Y-78476380D01*
X100198857Y-78476380D01*
X100341714Y-78524000D01*
X100389333Y-78571619D01*
X101294095Y-78476380D02*
X100817904Y-78476380D01*
X100770285Y-78952571D01*
X100817904Y-78904952D01*
X100913142Y-78857333D01*
X101151238Y-78857333D01*
X101246476Y-78904952D01*
X101294095Y-78952571D01*
X101341714Y-79047809D01*
X101341714Y-79285904D01*
X101294095Y-79381142D01*
X101246476Y-79428761D01*
X101151238Y-79476380D01*
X100913142Y-79476380D01*
X100817904Y-79428761D01*
X100770285Y-79381142D01*
X91420190Y-74650380D02*
X90848761Y-74650380D01*
X91134476Y-74650380D02*
X91134476Y-73650380D01*
X91039238Y-73793238D01*
X90944000Y-73888476D01*
X90848761Y-73936095D01*
X92039238Y-73650380D02*
X92134476Y-73650380D01*
X92229714Y-73698000D01*
X92277333Y-73745619D01*
X92324952Y-73840857D01*
X92372571Y-74031333D01*
X92372571Y-74269428D01*
X92324952Y-74459904D01*
X92277333Y-74555142D01*
X92229714Y-74602761D01*
X92134476Y-74650380D01*
X92039238Y-74650380D01*
X91944000Y-74602761D01*
X91896380Y-74555142D01*
X91848761Y-74459904D01*
X91801142Y-74269428D01*
X91801142Y-74031333D01*
X91848761Y-73840857D01*
X91896380Y-73745619D01*
X91944000Y-73698000D01*
X92039238Y-73650380D01*
X92991619Y-73650380D02*
X93086857Y-73650380D01*
X93182095Y-73698000D01*
X93229714Y-73745619D01*
X93277333Y-73840857D01*
X93324952Y-74031333D01*
X93324952Y-74269428D01*
X93277333Y-74459904D01*
X93229714Y-74555142D01*
X93182095Y-74602761D01*
X93086857Y-74650380D01*
X92991619Y-74650380D01*
X92896380Y-74602761D01*
X92848761Y-74555142D01*
X92801142Y-74459904D01*
X92753523Y-74269428D01*
X92753523Y-74031333D01*
X92801142Y-73840857D01*
X92848761Y-73745619D01*
X92896380Y-73698000D01*
X92991619Y-73650380D01*
X93944000Y-73650380D02*
X94039238Y-73650380D01*
X94134476Y-73698000D01*
X94182095Y-73745619D01*
X94229714Y-73840857D01*
X94277333Y-74031333D01*
X94277333Y-74269428D01*
X94229714Y-74459904D01*
X94182095Y-74555142D01*
X94134476Y-74602761D01*
X94039238Y-74650380D01*
X93944000Y-74650380D01*
X93848761Y-74602761D01*
X93801142Y-74555142D01*
X93753523Y-74459904D01*
X93705904Y-74269428D01*
X93705904Y-74031333D01*
X93753523Y-73840857D01*
X93801142Y-73745619D01*
X93848761Y-73698000D01*
X93944000Y-73650380D01*
X95134476Y-73983714D02*
X95134476Y-74650380D01*
X94705904Y-73983714D02*
X94705904Y-74507523D01*
X94753523Y-74602761D01*
X94848761Y-74650380D01*
X94991619Y-74650380D01*
X95086857Y-74602761D01*
X95134476Y-74555142D01*
X95944000Y-74126571D02*
X95610666Y-74126571D01*
X95610666Y-74650380D02*
X95610666Y-73650380D01*
X96086857Y-73650380D01*
X114389333Y-103881142D02*
X114341714Y-103928761D01*
X114198857Y-103976380D01*
X114103619Y-103976380D01*
X113960761Y-103928761D01*
X113865523Y-103833523D01*
X113817904Y-103738285D01*
X113770285Y-103547809D01*
X113770285Y-103404952D01*
X113817904Y-103214476D01*
X113865523Y-103119238D01*
X113960761Y-103024000D01*
X114103619Y-102976380D01*
X114198857Y-102976380D01*
X114341714Y-103024000D01*
X114389333Y-103071619D01*
X114770285Y-103071619D02*
X114817904Y-103024000D01*
X114913142Y-102976380D01*
X115151238Y-102976380D01*
X115246476Y-103024000D01*
X115294095Y-103071619D01*
X115341714Y-103166857D01*
X115341714Y-103262095D01*
X115294095Y-103404952D01*
X114722666Y-103976380D01*
X115341714Y-103976380D01*
X104404190Y-99150380D02*
X103832761Y-99150380D01*
X104118476Y-99150380D02*
X104118476Y-98150380D01*
X104023238Y-98293238D01*
X103928000Y-98388476D01*
X103832761Y-98436095D01*
X105023238Y-98150380D02*
X105118476Y-98150380D01*
X105213714Y-98198000D01*
X105261333Y-98245619D01*
X105308952Y-98340857D01*
X105356571Y-98531333D01*
X105356571Y-98769428D01*
X105308952Y-98959904D01*
X105261333Y-99055142D01*
X105213714Y-99102761D01*
X105118476Y-99150380D01*
X105023238Y-99150380D01*
X104928000Y-99102761D01*
X104880380Y-99055142D01*
X104832761Y-98959904D01*
X104785142Y-98769428D01*
X104785142Y-98531333D01*
X104832761Y-98340857D01*
X104880380Y-98245619D01*
X104928000Y-98198000D01*
X105023238Y-98150380D01*
X105975619Y-98150380D02*
X106070857Y-98150380D01*
X106166095Y-98198000D01*
X106213714Y-98245619D01*
X106261333Y-98340857D01*
X106308952Y-98531333D01*
X106308952Y-98769428D01*
X106261333Y-98959904D01*
X106213714Y-99055142D01*
X106166095Y-99102761D01*
X106070857Y-99150380D01*
X105975619Y-99150380D01*
X105880380Y-99102761D01*
X105832761Y-99055142D01*
X105785142Y-98959904D01*
X105737523Y-98769428D01*
X105737523Y-98531333D01*
X105785142Y-98340857D01*
X105832761Y-98245619D01*
X105880380Y-98198000D01*
X105975619Y-98150380D01*
X106928000Y-98150380D02*
X107023238Y-98150380D01*
X107118476Y-98198000D01*
X107166095Y-98245619D01*
X107213714Y-98340857D01*
X107261333Y-98531333D01*
X107261333Y-98769428D01*
X107213714Y-98959904D01*
X107166095Y-99055142D01*
X107118476Y-99102761D01*
X107023238Y-99150380D01*
X106928000Y-99150380D01*
X106832761Y-99102761D01*
X106785142Y-99055142D01*
X106737523Y-98959904D01*
X106689904Y-98769428D01*
X106689904Y-98531333D01*
X106737523Y-98340857D01*
X106785142Y-98245619D01*
X106832761Y-98198000D01*
X106928000Y-98150380D01*
X108118476Y-98483714D02*
X108118476Y-99150380D01*
X107689904Y-98483714D02*
X107689904Y-99007523D01*
X107737523Y-99102761D01*
X107832761Y-99150380D01*
X107975619Y-99150380D01*
X108070857Y-99102761D01*
X108118476Y-99055142D01*
X108928000Y-98626571D02*
X108594666Y-98626571D01*
X108594666Y-99150380D02*
X108594666Y-98150380D01*
X109070857Y-98150380D01*
X156046666Y-109504380D02*
X156046666Y-110218666D01*
X155999047Y-110361523D01*
X155903809Y-110456761D01*
X155760952Y-110504380D01*
X155665714Y-110504380D01*
X156951428Y-109504380D02*
X156760952Y-109504380D01*
X156665714Y-109552000D01*
X156618095Y-109599619D01*
X156522857Y-109742476D01*
X156475238Y-109932952D01*
X156475238Y-110313904D01*
X156522857Y-110409142D01*
X156570476Y-110456761D01*
X156665714Y-110504380D01*
X156856190Y-110504380D01*
X156951428Y-110456761D01*
X156999047Y-110409142D01*
X157046666Y-110313904D01*
X157046666Y-110075809D01*
X156999047Y-109980571D01*
X156951428Y-109932952D01*
X156856190Y-109885333D01*
X156665714Y-109885333D01*
X156570476Y-109932952D01*
X156522857Y-109980571D01*
X156475238Y-110075809D01*
X153904761Y-127047619D02*
X153952380Y-126904761D01*
X153952380Y-126666666D01*
X153904761Y-126571428D01*
X153857142Y-126523809D01*
X153761904Y-126476190D01*
X153666666Y-126476190D01*
X153571428Y-126523809D01*
X153523809Y-126571428D01*
X153476190Y-126666666D01*
X153428571Y-126857142D01*
X153380952Y-126952380D01*
X153333333Y-127000000D01*
X153238095Y-127047619D01*
X153142857Y-127047619D01*
X153047619Y-127000000D01*
X153000000Y-126952380D01*
X152952380Y-126857142D01*
X152952380Y-126619047D01*
X153000000Y-126476190D01*
X153285714Y-126142857D02*
X153952380Y-125952380D01*
X153476190Y-125761904D01*
X153952380Y-125571428D01*
X153285714Y-125380952D01*
X153952380Y-125000000D02*
X153285714Y-125000000D01*
X152952380Y-125000000D02*
X153000000Y-125047619D01*
X153047619Y-125000000D01*
X153000000Y-124952380D01*
X152952380Y-125000000D01*
X153047619Y-125000000D01*
X153285714Y-124666666D02*
X153285714Y-124285714D01*
X152952380Y-124523809D02*
X153809523Y-124523809D01*
X153904761Y-124476190D01*
X153952380Y-124380952D01*
X153952380Y-124285714D01*
X153904761Y-123523809D02*
X153952380Y-123619047D01*
X153952380Y-123809523D01*
X153904761Y-123904761D01*
X153857142Y-123952380D01*
X153761904Y-124000000D01*
X153476190Y-124000000D01*
X153380952Y-123952380D01*
X153333333Y-123904761D01*
X153285714Y-123809523D01*
X153285714Y-123619047D01*
X153333333Y-123523809D01*
X153952380Y-123095238D02*
X152952380Y-123095238D01*
X153952380Y-122666666D02*
X153428571Y-122666666D01*
X153333333Y-122714285D01*
X153285714Y-122809523D01*
X153285714Y-122952380D01*
X153333333Y-123047619D01*
X153380952Y-123095238D01*
X153904761Y-121809523D02*
X153952380Y-121904761D01*
X153952380Y-122095238D01*
X153904761Y-122190476D01*
X153809523Y-122238095D01*
X153428571Y-122238095D01*
X153333333Y-122190476D01*
X153285714Y-122095238D01*
X153285714Y-121904761D01*
X153333333Y-121809523D01*
X153428571Y-121761904D01*
X153523809Y-121761904D01*
X153619047Y-122238095D01*
X153904761Y-121380952D02*
X153952380Y-121285714D01*
X153952380Y-121095238D01*
X153904761Y-121000000D01*
X153809523Y-120952380D01*
X153761904Y-120952380D01*
X153666666Y-121000000D01*
X153619047Y-121095238D01*
X153619047Y-121238095D01*
X153571428Y-121333333D01*
X153476190Y-121380952D01*
X153428571Y-121380952D01*
X153333333Y-121333333D01*
X153285714Y-121238095D01*
X153285714Y-121095238D01*
X153333333Y-121000000D01*
M02*
