%TF.GenerationSoftware,KiCad,Pcbnew,(5.1.7)-1*%
%TF.CreationDate,2021-12-22T18:53:21-06:00*%
%TF.ProjectId,AS12,41533132-2e6b-4696-9361-645f70636258,rev?*%
%TF.SameCoordinates,Original*%
%TF.FileFunction,Soldermask,Top*%
%TF.FilePolarity,Negative*%
%FSLAX46Y46*%
G04 Gerber Fmt 4.6, Leading zero omitted, Abs format (unit mm)*
G04 Created by KiCad (PCBNEW (5.1.7)-1) date 2021-12-22 18:53:21*
%MOMM*%
%LPD*%
G01*
G04 APERTURE LIST*
%ADD10R,2.250000X3.200000*%
%ADD11R,0.540800X1.981200*%
%ADD12O,1.700000X1.700000*%
%ADD13R,1.700000X1.700000*%
%ADD14C,3.200000*%
%ADD15R,5.650000X2.350000*%
%ADD16R,5.400000X2.900000*%
%ADD17C,2.445000*%
%ADD18C,1.530000*%
%ADD19C,1.446000*%
%ADD20C,1.575000*%
%ADD21R,1.575000X1.575000*%
%ADD22C,1.950000*%
%ADD23C,2.250000*%
%ADD24C,2.600000*%
%ADD25R,2.600000X2.600000*%
%ADD26R,2.250000X2.250000*%
%ADD27C,1.308000*%
%ADD28R,1.308000X1.308000*%
%ADD29C,3.000000*%
%ADD30R,2.000000X1.500000*%
%ADD31R,2.000000X3.800000*%
%ADD32R,0.900000X0.800000*%
%ADD33O,1.350000X1.350000*%
%ADD34R,1.350000X1.350000*%
%ADD35C,4.485000*%
%ADD36C,2.715000*%
%ADD37R,2.715000X2.715000*%
%ADD38R,8.460000X10.530000*%
%ADD39R,3.210000X1.050000*%
%ADD40R,0.850000X0.300000*%
%ADD41R,3.000000X3.000000*%
%ADD42R,1.100000X1.100000*%
G04 APERTURE END LIST*
D10*
%TO.C,D2*%
X54906500Y-129361066D03*
X61806500Y-129361066D03*
%TD*%
%TO.C,C5*%
G36*
G01*
X117710800Y-131579600D02*
X117710800Y-132529600D01*
G75*
G02*
X117460800Y-132779600I-250000J0D01*
G01*
X116960800Y-132779600D01*
G75*
G02*
X116710800Y-132529600I0J250000D01*
G01*
X116710800Y-131579600D01*
G75*
G02*
X116960800Y-131329600I250000J0D01*
G01*
X117460800Y-131329600D01*
G75*
G02*
X117710800Y-131579600I0J-250000D01*
G01*
G37*
G36*
G01*
X119610800Y-131579600D02*
X119610800Y-132529600D01*
G75*
G02*
X119360800Y-132779600I-250000J0D01*
G01*
X118860800Y-132779600D01*
G75*
G02*
X118610800Y-132529600I0J250000D01*
G01*
X118610800Y-131579600D01*
G75*
G02*
X118860800Y-131329600I250000J0D01*
G01*
X119360800Y-131329600D01*
G75*
G02*
X119610800Y-131579600I0J-250000D01*
G01*
G37*
%TD*%
D11*
%TO.C,U6*%
X158939260Y-122566759D03*
X157669260Y-122566759D03*
X156399260Y-122566759D03*
X155129260Y-122566759D03*
X155129260Y-117636761D03*
X156399260Y-117636761D03*
X157669260Y-117636761D03*
X158939260Y-117636761D03*
%TD*%
D12*
%TO.C,J24*%
X54795000Y-123679400D03*
X52255000Y-123679400D03*
X49715000Y-123679400D03*
X47175000Y-123679400D03*
X44635000Y-123679400D03*
X42095000Y-123679400D03*
X39555000Y-123679400D03*
D13*
X37015000Y-123679400D03*
%TD*%
D12*
%TO.C,J2*%
X54795000Y-146539400D03*
X52255000Y-146539400D03*
X49715000Y-146539400D03*
X47175000Y-146539400D03*
X44635000Y-146539400D03*
X42095000Y-146539400D03*
X39555000Y-146539400D03*
D13*
X37015000Y-146539400D03*
%TD*%
%TO.C,C13*%
G36*
G01*
X47975100Y-119959100D02*
X47975100Y-120909100D01*
G75*
G02*
X47725100Y-121159100I-250000J0D01*
G01*
X47225100Y-121159100D01*
G75*
G02*
X46975100Y-120909100I0J250000D01*
G01*
X46975100Y-119959100D01*
G75*
G02*
X47225100Y-119709100I250000J0D01*
G01*
X47725100Y-119709100D01*
G75*
G02*
X47975100Y-119959100I0J-250000D01*
G01*
G37*
G36*
G01*
X49875100Y-119959100D02*
X49875100Y-120909100D01*
G75*
G02*
X49625100Y-121159100I-250000J0D01*
G01*
X49125100Y-121159100D01*
G75*
G02*
X48875100Y-120909100I0J250000D01*
G01*
X48875100Y-119959100D01*
G75*
G02*
X49125100Y-119709100I250000J0D01*
G01*
X49625100Y-119709100D01*
G75*
G02*
X49875100Y-119959100I0J-250000D01*
G01*
G37*
%TD*%
D14*
%TO.C,REF\u002A\u002A*%
X58601220Y-23133960D03*
X58601220Y-79133960D03*
X30601220Y-79133960D03*
X30601220Y-23133960D03*
X86481220Y-23133960D03*
X86481220Y-101873960D03*
X30601220Y-101873960D03*
%TD*%
%TO.C,R11*%
G36*
G01*
X156717180Y-124880960D02*
X156717180Y-125430960D01*
G75*
G02*
X156517180Y-125630960I-200000J0D01*
G01*
X156117180Y-125630960D01*
G75*
G02*
X155917180Y-125430960I0J200000D01*
G01*
X155917180Y-124880960D01*
G75*
G02*
X156117180Y-124680960I200000J0D01*
G01*
X156517180Y-124680960D01*
G75*
G02*
X156717180Y-124880960I0J-200000D01*
G01*
G37*
G36*
G01*
X158367180Y-124880960D02*
X158367180Y-125430960D01*
G75*
G02*
X158167180Y-125630960I-200000J0D01*
G01*
X157767180Y-125630960D01*
G75*
G02*
X157567180Y-125430960I0J200000D01*
G01*
X157567180Y-124880960D01*
G75*
G02*
X157767180Y-124680960I200000J0D01*
G01*
X158167180Y-124680960D01*
G75*
G02*
X158367180Y-124880960I0J-200000D01*
G01*
G37*
%TD*%
%TO.C,C6*%
G36*
G01*
X75750400Y-112362400D02*
X76700400Y-112362400D01*
G75*
G02*
X76950400Y-112612400I0J-250000D01*
G01*
X76950400Y-113112400D01*
G75*
G02*
X76700400Y-113362400I-250000J0D01*
G01*
X75750400Y-113362400D01*
G75*
G02*
X75500400Y-113112400I0J250000D01*
G01*
X75500400Y-112612400D01*
G75*
G02*
X75750400Y-112362400I250000J0D01*
G01*
G37*
G36*
G01*
X75750400Y-110462400D02*
X76700400Y-110462400D01*
G75*
G02*
X76950400Y-110712400I0J-250000D01*
G01*
X76950400Y-111212400D01*
G75*
G02*
X76700400Y-111462400I-250000J0D01*
G01*
X75750400Y-111462400D01*
G75*
G02*
X75500400Y-111212400I0J250000D01*
G01*
X75500400Y-110712400D01*
G75*
G02*
X75750400Y-110462400I250000J0D01*
G01*
G37*
%TD*%
%TO.C,U4*%
G36*
G01*
X119746100Y-138476000D02*
X119746100Y-137876000D01*
G75*
G02*
X119946100Y-137676000I200000J0D01*
G01*
X121496100Y-137676000D01*
G75*
G02*
X121696100Y-137876000I0J-200000D01*
G01*
X121696100Y-138476000D01*
G75*
G02*
X121496100Y-138676000I-200000J0D01*
G01*
X119946100Y-138676000D01*
G75*
G02*
X119746100Y-138476000I0J200000D01*
G01*
G37*
G36*
G01*
X119746100Y-137206000D02*
X119746100Y-136606000D01*
G75*
G02*
X119946100Y-136406000I200000J0D01*
G01*
X121496100Y-136406000D01*
G75*
G02*
X121696100Y-136606000I0J-200000D01*
G01*
X121696100Y-137206000D01*
G75*
G02*
X121496100Y-137406000I-200000J0D01*
G01*
X119946100Y-137406000D01*
G75*
G02*
X119746100Y-137206000I0J200000D01*
G01*
G37*
G36*
G01*
X119746100Y-134666000D02*
X119746100Y-134066000D01*
G75*
G02*
X119946100Y-133866000I200000J0D01*
G01*
X121496100Y-133866000D01*
G75*
G02*
X121696100Y-134066000I0J-200000D01*
G01*
X121696100Y-134666000D01*
G75*
G02*
X121496100Y-134866000I-200000J0D01*
G01*
X119946100Y-134866000D01*
G75*
G02*
X119746100Y-134666000I0J200000D01*
G01*
G37*
G36*
G01*
X116296100Y-137876000D02*
X116296100Y-138476000D01*
G75*
G02*
X116096100Y-138676000I-200000J0D01*
G01*
X114546100Y-138676000D01*
G75*
G02*
X114346100Y-138476000I0J200000D01*
G01*
X114346100Y-137876000D01*
G75*
G02*
X114546100Y-137676000I200000J0D01*
G01*
X116096100Y-137676000D01*
G75*
G02*
X116296100Y-137876000I0J-200000D01*
G01*
G37*
G36*
G01*
X114346100Y-137206000D02*
X114346100Y-136606000D01*
G75*
G02*
X114546100Y-136406000I200000J0D01*
G01*
X116096100Y-136406000D01*
G75*
G02*
X116296100Y-136606000I0J-200000D01*
G01*
X116296100Y-137206000D01*
G75*
G02*
X116096100Y-137406000I-200000J0D01*
G01*
X114546100Y-137406000D01*
G75*
G02*
X114346100Y-137206000I0J200000D01*
G01*
G37*
G36*
G01*
X114346100Y-134666000D02*
X114346100Y-134066000D01*
G75*
G02*
X114546100Y-133866000I200000J0D01*
G01*
X116096100Y-133866000D01*
G75*
G02*
X116296100Y-134066000I0J-200000D01*
G01*
X116296100Y-134666000D01*
G75*
G02*
X116096100Y-134866000I-200000J0D01*
G01*
X114546100Y-134866000D01*
G75*
G02*
X114346100Y-134666000I0J200000D01*
G01*
G37*
G36*
G01*
X119746100Y-135936000D02*
X119746100Y-135336000D01*
G75*
G02*
X119946100Y-135136000I200000J0D01*
G01*
X121496100Y-135136000D01*
G75*
G02*
X121696100Y-135336000I0J-200000D01*
G01*
X121696100Y-135936000D01*
G75*
G02*
X121496100Y-136136000I-200000J0D01*
G01*
X119946100Y-136136000D01*
G75*
G02*
X119746100Y-135936000I0J200000D01*
G01*
G37*
G36*
G01*
X114346100Y-135936000D02*
X114346100Y-135336000D01*
G75*
G02*
X114546100Y-135136000I200000J0D01*
G01*
X116096100Y-135136000D01*
G75*
G02*
X116296100Y-135336000I0J-200000D01*
G01*
X116296100Y-135936000D01*
G75*
G02*
X116096100Y-136136000I-200000J0D01*
G01*
X114546100Y-136136000D01*
G75*
G02*
X114346100Y-135936000I0J200000D01*
G01*
G37*
%TD*%
%TO.C,U2*%
G36*
G01*
X161065600Y-135113000D02*
X160118400Y-135113000D01*
G75*
G02*
X159852000Y-134846600I0J266400D01*
G01*
X159852000Y-133229400D01*
G75*
G02*
X160118400Y-132963000I266400J0D01*
G01*
X161065600Y-132963000D01*
G75*
G02*
X161332000Y-133229400I0J-266400D01*
G01*
X161332000Y-134846600D01*
G75*
G02*
X161065600Y-135113000I-266400J0D01*
G01*
G37*
G36*
G01*
X163605600Y-135113000D02*
X162658400Y-135113000D01*
G75*
G02*
X162392000Y-134846600I0J266400D01*
G01*
X162392000Y-133229400D01*
G75*
G02*
X162658400Y-132963000I266400J0D01*
G01*
X163605600Y-132963000D01*
G75*
G02*
X163872000Y-133229400I0J-266400D01*
G01*
X163872000Y-134846600D01*
G75*
G02*
X163605600Y-135113000I-266400J0D01*
G01*
G37*
G36*
G01*
X163605600Y-143673000D02*
X162658400Y-143673000D01*
G75*
G02*
X162392000Y-143406600I0J266400D01*
G01*
X162392000Y-141789400D01*
G75*
G02*
X162658400Y-141523000I266400J0D01*
G01*
X163605600Y-141523000D01*
G75*
G02*
X163872000Y-141789400I0J-266400D01*
G01*
X163872000Y-143406600D01*
G75*
G02*
X163605600Y-143673000I-266400J0D01*
G01*
G37*
G36*
G01*
X161065600Y-143673000D02*
X160118400Y-143673000D01*
G75*
G02*
X159852000Y-143406600I0J266400D01*
G01*
X159852000Y-141789400D01*
G75*
G02*
X160118400Y-141523000I266400J0D01*
G01*
X161065600Y-141523000D01*
G75*
G02*
X161332000Y-141789400I0J-266400D01*
G01*
X161332000Y-143406600D01*
G75*
G02*
X161065600Y-143673000I-266400J0D01*
G01*
G37*
%TD*%
%TO.C,U1*%
G36*
G01*
X154915600Y-135113000D02*
X153968400Y-135113000D01*
G75*
G02*
X153702000Y-134846600I0J266400D01*
G01*
X153702000Y-133229400D01*
G75*
G02*
X153968400Y-132963000I266400J0D01*
G01*
X154915600Y-132963000D01*
G75*
G02*
X155182000Y-133229400I0J-266400D01*
G01*
X155182000Y-134846600D01*
G75*
G02*
X154915600Y-135113000I-266400J0D01*
G01*
G37*
G36*
G01*
X157455600Y-135113000D02*
X156508400Y-135113000D01*
G75*
G02*
X156242000Y-134846600I0J266400D01*
G01*
X156242000Y-133229400D01*
G75*
G02*
X156508400Y-132963000I266400J0D01*
G01*
X157455600Y-132963000D01*
G75*
G02*
X157722000Y-133229400I0J-266400D01*
G01*
X157722000Y-134846600D01*
G75*
G02*
X157455600Y-135113000I-266400J0D01*
G01*
G37*
G36*
G01*
X157455600Y-143673000D02*
X156508400Y-143673000D01*
G75*
G02*
X156242000Y-143406600I0J266400D01*
G01*
X156242000Y-141789400D01*
G75*
G02*
X156508400Y-141523000I266400J0D01*
G01*
X157455600Y-141523000D01*
G75*
G02*
X157722000Y-141789400I0J-266400D01*
G01*
X157722000Y-143406600D01*
G75*
G02*
X157455600Y-143673000I-266400J0D01*
G01*
G37*
G36*
G01*
X154915600Y-143673000D02*
X153968400Y-143673000D01*
G75*
G02*
X153702000Y-143406600I0J266400D01*
G01*
X153702000Y-141789400D01*
G75*
G02*
X153968400Y-141523000I266400J0D01*
G01*
X154915600Y-141523000D01*
G75*
G02*
X155182000Y-141789400I0J-266400D01*
G01*
X155182000Y-143406600D01*
G75*
G02*
X154915600Y-143673000I-266400J0D01*
G01*
G37*
%TD*%
D15*
%TO.C,C10*%
X77608300Y-127114300D03*
X67908300Y-127114300D03*
%TD*%
%TO.C,C9*%
G36*
G01*
X76396600Y-144037560D02*
X76396600Y-142037560D01*
G75*
G02*
X76646600Y-141787560I250000J0D01*
G01*
X80146600Y-141787560D01*
G75*
G02*
X80396600Y-142037560I0J-250000D01*
G01*
X80396600Y-144037560D01*
G75*
G02*
X80146600Y-144287560I-250000J0D01*
G01*
X76646600Y-144287560D01*
G75*
G02*
X76396600Y-144037560I0J250000D01*
G01*
G37*
G36*
G01*
X68396600Y-144037560D02*
X68396600Y-142037560D01*
G75*
G02*
X68646600Y-141787560I250000J0D01*
G01*
X72146600Y-141787560D01*
G75*
G02*
X72396600Y-142037560I0J-250000D01*
G01*
X72396600Y-144037560D01*
G75*
G02*
X72146600Y-144287560I-250000J0D01*
G01*
X68646600Y-144287560D01*
G75*
G02*
X68396600Y-144037560I0J250000D01*
G01*
G37*
%TD*%
D16*
%TO.C,L1*%
X57315100Y-109477000D03*
X57315100Y-119377000D03*
%TD*%
D17*
%TO.C,J12*%
X45006800Y-160873980D03*
X29516800Y-160873980D03*
D18*
X43886800Y-168823980D03*
X41346800Y-168823980D03*
X33176800Y-168823980D03*
X30636800Y-168823980D03*
D19*
X41706800Y-155033980D03*
X40436800Y-157573980D03*
X39166800Y-155033980D03*
X37896800Y-157573980D03*
X36626800Y-155033980D03*
X35356800Y-157573980D03*
X34086800Y-155033980D03*
X32816800Y-157573980D03*
%TD*%
D20*
%TO.C,D4*%
X90380820Y-130159300D03*
D21*
X90380820Y-144259300D03*
%TD*%
D22*
%TO.C,K1*%
X108770800Y-131191000D03*
X108770800Y-143191000D03*
X96570800Y-143191000D03*
D23*
X94570800Y-137191000D03*
D22*
X96570800Y-131191000D03*
%TD*%
D24*
%TO.C,KF1*%
X104622600Y-161034600D03*
X104622600Y-168654600D03*
X99542600Y-161034600D03*
X99542600Y-168654600D03*
X94462600Y-161034600D03*
X94462600Y-168654600D03*
X89382600Y-161034600D03*
X89382600Y-168654600D03*
X84302600Y-161034600D03*
X84302600Y-168654600D03*
D25*
X79222600Y-161034600D03*
X79222600Y-168654600D03*
%TD*%
D23*
%TO.C,D3*%
X49893620Y-152481280D03*
D26*
X78493620Y-152481280D03*
%TD*%
D14*
%TO.C, *%
X23548340Y-23535640D03*
%TD*%
%TO.C, *%
X175493680Y-23535640D03*
%TD*%
%TO.C, *%
X175394620Y-168460420D03*
%TD*%
%TO.C, *%
X23550880Y-168409620D03*
%TD*%
%TO.C,J15*%
G36*
G01*
X166810601Y-85480800D02*
X165510599Y-85480800D01*
G75*
G02*
X165260600Y-85230801I0J249999D01*
G01*
X165260600Y-84530799D01*
G75*
G02*
X165510599Y-84280800I249999J0D01*
G01*
X166810601Y-84280800D01*
G75*
G02*
X167060600Y-84530799I0J-249999D01*
G01*
X167060600Y-85230801D01*
G75*
G02*
X166810601Y-85480800I-249999J0D01*
G01*
G37*
G36*
G01*
X166810601Y-91080800D02*
X165510599Y-91080800D01*
G75*
G02*
X165260600Y-90830801I0J249999D01*
G01*
X165260600Y-90130799D01*
G75*
G02*
X165510599Y-89880800I249999J0D01*
G01*
X166810601Y-89880800D01*
G75*
G02*
X167060600Y-90130799I0J-249999D01*
G01*
X167060600Y-90830801D01*
G75*
G02*
X166810601Y-91080800I-249999J0D01*
G01*
G37*
G36*
G01*
X169310600Y-86480800D02*
X168060600Y-86480800D01*
G75*
G02*
X167910600Y-86330800I0J150000D01*
G01*
X167910600Y-86030800D01*
G75*
G02*
X168060600Y-85880800I150000J0D01*
G01*
X169310600Y-85880800D01*
G75*
G02*
X169460600Y-86030800I0J-150000D01*
G01*
X169460600Y-86330800D01*
G75*
G02*
X169310600Y-86480800I-150000J0D01*
G01*
G37*
G36*
G01*
X169310600Y-87480800D02*
X168060600Y-87480800D01*
G75*
G02*
X167910600Y-87330800I0J150000D01*
G01*
X167910600Y-87030800D01*
G75*
G02*
X168060600Y-86880800I150000J0D01*
G01*
X169310600Y-86880800D01*
G75*
G02*
X169460600Y-87030800I0J-150000D01*
G01*
X169460600Y-87330800D01*
G75*
G02*
X169310600Y-87480800I-150000J0D01*
G01*
G37*
G36*
G01*
X169310600Y-88480800D02*
X168060600Y-88480800D01*
G75*
G02*
X167910600Y-88330800I0J150000D01*
G01*
X167910600Y-88030800D01*
G75*
G02*
X168060600Y-87880800I150000J0D01*
G01*
X169310600Y-87880800D01*
G75*
G02*
X169460600Y-88030800I0J-150000D01*
G01*
X169460600Y-88330800D01*
G75*
G02*
X169310600Y-88480800I-150000J0D01*
G01*
G37*
G36*
G01*
X169310600Y-89480800D02*
X168060600Y-89480800D01*
G75*
G02*
X167910600Y-89330800I0J150000D01*
G01*
X167910600Y-89030800D01*
G75*
G02*
X168060600Y-88880800I150000J0D01*
G01*
X169310600Y-88880800D01*
G75*
G02*
X169460600Y-89030800I0J-150000D01*
G01*
X169460600Y-89330800D01*
G75*
G02*
X169310600Y-89480800I-150000J0D01*
G01*
G37*
%TD*%
%TO.C,C4*%
G36*
G01*
X88821240Y-121613080D02*
X89771240Y-121613080D01*
G75*
G02*
X90021240Y-121863080I0J-250000D01*
G01*
X90021240Y-122363080D01*
G75*
G02*
X89771240Y-122613080I-250000J0D01*
G01*
X88821240Y-122613080D01*
G75*
G02*
X88571240Y-122363080I0J250000D01*
G01*
X88571240Y-121863080D01*
G75*
G02*
X88821240Y-121613080I250000J0D01*
G01*
G37*
G36*
G01*
X88821240Y-119713080D02*
X89771240Y-119713080D01*
G75*
G02*
X90021240Y-119963080I0J-250000D01*
G01*
X90021240Y-120463080D01*
G75*
G02*
X89771240Y-120713080I-250000J0D01*
G01*
X88821240Y-120713080D01*
G75*
G02*
X88571240Y-120463080I0J250000D01*
G01*
X88571240Y-119963080D01*
G75*
G02*
X88821240Y-119713080I250000J0D01*
G01*
G37*
%TD*%
%TO.C,C1*%
G36*
G01*
X151896660Y-120639820D02*
X151896660Y-121589820D01*
G75*
G02*
X151646660Y-121839820I-250000J0D01*
G01*
X151146660Y-121839820D01*
G75*
G02*
X150896660Y-121589820I0J250000D01*
G01*
X150896660Y-120639820D01*
G75*
G02*
X151146660Y-120389820I250000J0D01*
G01*
X151646660Y-120389820D01*
G75*
G02*
X151896660Y-120639820I0J-250000D01*
G01*
G37*
G36*
G01*
X153796660Y-120639820D02*
X153796660Y-121589820D01*
G75*
G02*
X153546660Y-121839820I-250000J0D01*
G01*
X153046660Y-121839820D01*
G75*
G02*
X152796660Y-121589820I0J250000D01*
G01*
X152796660Y-120639820D01*
G75*
G02*
X153046660Y-120389820I250000J0D01*
G01*
X153546660Y-120389820D01*
G75*
G02*
X153796660Y-120639820I0J-250000D01*
G01*
G37*
%TD*%
D27*
%TO.C,J23*%
X94145100Y-59654700D03*
X94145100Y-57654700D03*
X94145100Y-55654700D03*
D28*
X94145100Y-53654700D03*
%TD*%
D29*
%TO.C,REF\u002A\u002A*%
X93331360Y-124118700D03*
X118731360Y-124118700D03*
%TD*%
D30*
%TO.C,U5*%
X76181820Y-103399560D03*
X76181820Y-107999560D03*
X76181820Y-105699560D03*
D31*
X82481820Y-105699560D03*
%TD*%
%TO.C,U3*%
G36*
G01*
X167215600Y-135113000D02*
X166268400Y-135113000D01*
G75*
G02*
X166002000Y-134846600I0J266400D01*
G01*
X166002000Y-133229400D01*
G75*
G02*
X166268400Y-132963000I266400J0D01*
G01*
X167215600Y-132963000D01*
G75*
G02*
X167482000Y-133229400I0J-266400D01*
G01*
X167482000Y-134846600D01*
G75*
G02*
X167215600Y-135113000I-266400J0D01*
G01*
G37*
G36*
G01*
X169755600Y-135113000D02*
X168808400Y-135113000D01*
G75*
G02*
X168542000Y-134846600I0J266400D01*
G01*
X168542000Y-133229400D01*
G75*
G02*
X168808400Y-132963000I266400J0D01*
G01*
X169755600Y-132963000D01*
G75*
G02*
X170022000Y-133229400I0J-266400D01*
G01*
X170022000Y-134846600D01*
G75*
G02*
X169755600Y-135113000I-266400J0D01*
G01*
G37*
G36*
G01*
X169755600Y-143673000D02*
X168808400Y-143673000D01*
G75*
G02*
X168542000Y-143406600I0J266400D01*
G01*
X168542000Y-141789400D01*
G75*
G02*
X168808400Y-141523000I266400J0D01*
G01*
X169755600Y-141523000D01*
G75*
G02*
X170022000Y-141789400I0J-266400D01*
G01*
X170022000Y-143406600D01*
G75*
G02*
X169755600Y-143673000I-266400J0D01*
G01*
G37*
G36*
G01*
X167215600Y-143673000D02*
X166268400Y-143673000D01*
G75*
G02*
X166002000Y-143406600I0J266400D01*
G01*
X166002000Y-141789400D01*
G75*
G02*
X166268400Y-141523000I266400J0D01*
G01*
X167215600Y-141523000D01*
G75*
G02*
X167482000Y-141789400I0J-266400D01*
G01*
X167482000Y-143406600D01*
G75*
G02*
X167215600Y-143673000I-266400J0D01*
G01*
G37*
%TD*%
%TO.C,R10*%
G36*
G01*
X86157383Y-119074360D02*
X84007377Y-119074360D01*
G75*
G02*
X83757380Y-118824363I0J249997D01*
G01*
X83757380Y-118199357D01*
G75*
G02*
X84007377Y-117949360I249997J0D01*
G01*
X86157383Y-117949360D01*
G75*
G02*
X86407380Y-118199357I0J-249997D01*
G01*
X86407380Y-118824363D01*
G75*
G02*
X86157383Y-119074360I-249997J0D01*
G01*
G37*
G36*
G01*
X86157383Y-121999360D02*
X84007377Y-121999360D01*
G75*
G02*
X83757380Y-121749363I0J249997D01*
G01*
X83757380Y-121124357D01*
G75*
G02*
X84007377Y-120874360I249997J0D01*
G01*
X86157383Y-120874360D01*
G75*
G02*
X86407380Y-121124357I0J-249997D01*
G01*
X86407380Y-121749363D01*
G75*
G02*
X86157383Y-121999360I-249997J0D01*
G01*
G37*
%TD*%
%TO.C,R9*%
G36*
G01*
X138311203Y-90082800D02*
X136161197Y-90082800D01*
G75*
G02*
X135911200Y-89832803I0J249997D01*
G01*
X135911200Y-89207797D01*
G75*
G02*
X136161197Y-88957800I249997J0D01*
G01*
X138311203Y-88957800D01*
G75*
G02*
X138561200Y-89207797I0J-249997D01*
G01*
X138561200Y-89832803D01*
G75*
G02*
X138311203Y-90082800I-249997J0D01*
G01*
G37*
G36*
G01*
X138311203Y-93007800D02*
X136161197Y-93007800D01*
G75*
G02*
X135911200Y-92757803I0J249997D01*
G01*
X135911200Y-92132797D01*
G75*
G02*
X136161197Y-91882800I249997J0D01*
G01*
X138311203Y-91882800D01*
G75*
G02*
X138561200Y-92132797I0J-249997D01*
G01*
X138561200Y-92757803D01*
G75*
G02*
X138311203Y-93007800I-249997J0D01*
G01*
G37*
%TD*%
%TO.C,R8*%
G36*
G01*
X134247203Y-89930400D02*
X132097197Y-89930400D01*
G75*
G02*
X131847200Y-89680403I0J249997D01*
G01*
X131847200Y-89055397D01*
G75*
G02*
X132097197Y-88805400I249997J0D01*
G01*
X134247203Y-88805400D01*
G75*
G02*
X134497200Y-89055397I0J-249997D01*
G01*
X134497200Y-89680403D01*
G75*
G02*
X134247203Y-89930400I-249997J0D01*
G01*
G37*
G36*
G01*
X134247203Y-92855400D02*
X132097197Y-92855400D01*
G75*
G02*
X131847200Y-92605403I0J249997D01*
G01*
X131847200Y-91980397D01*
G75*
G02*
X132097197Y-91730400I249997J0D01*
G01*
X134247203Y-91730400D01*
G75*
G02*
X134497200Y-91980397I0J-249997D01*
G01*
X134497200Y-92605403D01*
G75*
G02*
X134247203Y-92855400I-249997J0D01*
G01*
G37*
%TD*%
%TO.C,R7*%
G36*
G01*
X122360003Y-102619700D02*
X120209997Y-102619700D01*
G75*
G02*
X119960000Y-102369703I0J249997D01*
G01*
X119960000Y-101744697D01*
G75*
G02*
X120209997Y-101494700I249997J0D01*
G01*
X122360003Y-101494700D01*
G75*
G02*
X122610000Y-101744697I0J-249997D01*
G01*
X122610000Y-102369703D01*
G75*
G02*
X122360003Y-102619700I-249997J0D01*
G01*
G37*
G36*
G01*
X122360003Y-105544700D02*
X120209997Y-105544700D01*
G75*
G02*
X119960000Y-105294703I0J249997D01*
G01*
X119960000Y-104669697D01*
G75*
G02*
X120209997Y-104419700I249997J0D01*
G01*
X122360003Y-104419700D01*
G75*
G02*
X122610000Y-104669697I0J-249997D01*
G01*
X122610000Y-105294703D01*
G75*
G02*
X122360003Y-105544700I-249997J0D01*
G01*
G37*
%TD*%
%TO.C,R6*%
G36*
G01*
X126982803Y-102655800D02*
X124832797Y-102655800D01*
G75*
G02*
X124582800Y-102405803I0J249997D01*
G01*
X124582800Y-101780797D01*
G75*
G02*
X124832797Y-101530800I249997J0D01*
G01*
X126982803Y-101530800D01*
G75*
G02*
X127232800Y-101780797I0J-249997D01*
G01*
X127232800Y-102405803D01*
G75*
G02*
X126982803Y-102655800I-249997J0D01*
G01*
G37*
G36*
G01*
X126982803Y-105580800D02*
X124832797Y-105580800D01*
G75*
G02*
X124582800Y-105330803I0J249997D01*
G01*
X124582800Y-104705797D01*
G75*
G02*
X124832797Y-104455800I249997J0D01*
G01*
X126982803Y-104455800D01*
G75*
G02*
X127232800Y-104705797I0J-249997D01*
G01*
X127232800Y-105330803D01*
G75*
G02*
X126982803Y-105580800I-249997J0D01*
G01*
G37*
%TD*%
%TO.C,R5*%
G36*
G01*
X131379800Y-107196203D02*
X131379800Y-105046197D01*
G75*
G02*
X131629797Y-104796200I249997J0D01*
G01*
X132254803Y-104796200D01*
G75*
G02*
X132504800Y-105046197I0J-249997D01*
G01*
X132504800Y-107196203D01*
G75*
G02*
X132254803Y-107446200I-249997J0D01*
G01*
X131629797Y-107446200D01*
G75*
G02*
X131379800Y-107196203I0J249997D01*
G01*
G37*
G36*
G01*
X128454800Y-107196203D02*
X128454800Y-105046197D01*
G75*
G02*
X128704797Y-104796200I249997J0D01*
G01*
X129329803Y-104796200D01*
G75*
G02*
X129579800Y-105046197I0J-249997D01*
G01*
X129579800Y-107196203D01*
G75*
G02*
X129329803Y-107446200I-249997J0D01*
G01*
X128704797Y-107446200D01*
G75*
G02*
X128454800Y-107196203I0J249997D01*
G01*
G37*
%TD*%
%TO.C,R4*%
G36*
G01*
X141190397Y-143698800D02*
X143340403Y-143698800D01*
G75*
G02*
X143590400Y-143948797I0J-249997D01*
G01*
X143590400Y-144573803D01*
G75*
G02*
X143340403Y-144823800I-249997J0D01*
G01*
X141190397Y-144823800D01*
G75*
G02*
X140940400Y-144573803I0J249997D01*
G01*
X140940400Y-143948797D01*
G75*
G02*
X141190397Y-143698800I249997J0D01*
G01*
G37*
G36*
G01*
X141190397Y-140773800D02*
X143340403Y-140773800D01*
G75*
G02*
X143590400Y-141023797I0J-249997D01*
G01*
X143590400Y-141648803D01*
G75*
G02*
X143340403Y-141898800I-249997J0D01*
G01*
X141190397Y-141898800D01*
G75*
G02*
X140940400Y-141648803I0J249997D01*
G01*
X140940400Y-141023797D01*
G75*
G02*
X141190397Y-140773800I249997J0D01*
G01*
G37*
%TD*%
%TO.C,R3*%
G36*
G01*
X149591600Y-134323403D02*
X149591600Y-132173397D01*
G75*
G02*
X149841597Y-131923400I249997J0D01*
G01*
X150466603Y-131923400D01*
G75*
G02*
X150716600Y-132173397I0J-249997D01*
G01*
X150716600Y-134323403D01*
G75*
G02*
X150466603Y-134573400I-249997J0D01*
G01*
X149841597Y-134573400D01*
G75*
G02*
X149591600Y-134323403I0J249997D01*
G01*
G37*
G36*
G01*
X146666600Y-134323403D02*
X146666600Y-132173397D01*
G75*
G02*
X146916597Y-131923400I249997J0D01*
G01*
X147541603Y-131923400D01*
G75*
G02*
X147791600Y-132173397I0J-249997D01*
G01*
X147791600Y-134323403D01*
G75*
G02*
X147541603Y-134573400I-249997J0D01*
G01*
X146916597Y-134573400D01*
G75*
G02*
X146666600Y-134323403I0J249997D01*
G01*
G37*
%TD*%
%TO.C,R2*%
G36*
G01*
X149591600Y-139149403D02*
X149591600Y-136999397D01*
G75*
G02*
X149841597Y-136749400I249997J0D01*
G01*
X150466603Y-136749400D01*
G75*
G02*
X150716600Y-136999397I0J-249997D01*
G01*
X150716600Y-139149403D01*
G75*
G02*
X150466603Y-139399400I-249997J0D01*
G01*
X149841597Y-139399400D01*
G75*
G02*
X149591600Y-139149403I0J249997D01*
G01*
G37*
G36*
G01*
X146666600Y-139149403D02*
X146666600Y-136999397D01*
G75*
G02*
X146916597Y-136749400I249997J0D01*
G01*
X147541603Y-136749400D01*
G75*
G02*
X147791600Y-136999397I0J-249997D01*
G01*
X147791600Y-139149403D01*
G75*
G02*
X147541603Y-139399400I-249997J0D01*
G01*
X146916597Y-139399400D01*
G75*
G02*
X146666600Y-139149403I0J249997D01*
G01*
G37*
%TD*%
%TO.C,R1*%
G36*
G01*
X149642400Y-143772203D02*
X149642400Y-141622197D01*
G75*
G02*
X149892397Y-141372200I249997J0D01*
G01*
X150517403Y-141372200D01*
G75*
G02*
X150767400Y-141622197I0J-249997D01*
G01*
X150767400Y-143772203D01*
G75*
G02*
X150517403Y-144022200I-249997J0D01*
G01*
X149892397Y-144022200D01*
G75*
G02*
X149642400Y-143772203I0J249997D01*
G01*
G37*
G36*
G01*
X146717400Y-143772203D02*
X146717400Y-141622197D01*
G75*
G02*
X146967397Y-141372200I249997J0D01*
G01*
X147592403Y-141372200D01*
G75*
G02*
X147842400Y-141622197I0J-249997D01*
G01*
X147842400Y-143772203D01*
G75*
G02*
X147592403Y-144022200I-249997J0D01*
G01*
X146967397Y-144022200D01*
G75*
G02*
X146717400Y-143772203I0J249997D01*
G01*
G37*
%TD*%
D32*
%TO.C,Q1*%
X85861400Y-130759200D03*
X83861400Y-131709200D03*
X83861400Y-129809200D03*
%TD*%
D12*
%TO.C,J22*%
X165608000Y-24511000D03*
X163068000Y-24511000D03*
X160528000Y-24511000D03*
X157988000Y-24511000D03*
X155448000Y-24511000D03*
X152908000Y-24511000D03*
X150368000Y-24511000D03*
D13*
X147828000Y-24511000D03*
%TD*%
D12*
%TO.C,J21*%
X143768000Y-24511000D03*
X141228000Y-24511000D03*
X138688000Y-24511000D03*
X136148000Y-24511000D03*
X133608000Y-24511000D03*
X131068000Y-24511000D03*
X128528000Y-24511000D03*
X125988000Y-24511000D03*
X123448000Y-24511000D03*
D13*
X120908000Y-24511000D03*
%TD*%
D12*
%TO.C,J20*%
X110794800Y-28336400D03*
X113334800Y-28336400D03*
X115874800Y-28336400D03*
X118414800Y-28336400D03*
X120954800Y-28336400D03*
X123494800Y-28336400D03*
X126034800Y-28336400D03*
X128574800Y-28336400D03*
X131114800Y-28336400D03*
D13*
X133654800Y-28336400D03*
%TD*%
D12*
%TO.C,J19*%
X165608000Y-72771000D03*
X163068000Y-72771000D03*
X160528000Y-72771000D03*
X157988000Y-72771000D03*
X155448000Y-72771000D03*
D13*
X152908000Y-72771000D03*
%TD*%
D12*
%TO.C,J18*%
X147828000Y-72771000D03*
X145288000Y-72771000D03*
X142748000Y-72771000D03*
X140208000Y-72771000D03*
X137668000Y-72771000D03*
X135128000Y-72771000D03*
X132588000Y-72771000D03*
D13*
X130048000Y-72771000D03*
%TD*%
D12*
%TO.C,J17*%
X113334800Y-68986400D03*
X115874800Y-68986400D03*
X118414800Y-68986400D03*
X120954800Y-68986400D03*
X123494800Y-68986400D03*
X126034800Y-68986400D03*
X128574800Y-68986400D03*
X131114800Y-68986400D03*
D13*
X133654800Y-68986400D03*
%TD*%
%TO.C,J16*%
G36*
G01*
X94471401Y-76159000D02*
X93171399Y-76159000D01*
G75*
G02*
X92921400Y-75909001I0J249999D01*
G01*
X92921400Y-75208999D01*
G75*
G02*
X93171399Y-74959000I249999J0D01*
G01*
X94471401Y-74959000D01*
G75*
G02*
X94721400Y-75208999I0J-249999D01*
G01*
X94721400Y-75909001D01*
G75*
G02*
X94471401Y-76159000I-249999J0D01*
G01*
G37*
G36*
G01*
X94471401Y-81759000D02*
X93171399Y-81759000D01*
G75*
G02*
X92921400Y-81509001I0J249999D01*
G01*
X92921400Y-80808999D01*
G75*
G02*
X93171399Y-80559000I249999J0D01*
G01*
X94471401Y-80559000D01*
G75*
G02*
X94721400Y-80808999I0J-249999D01*
G01*
X94721400Y-81509001D01*
G75*
G02*
X94471401Y-81759000I-249999J0D01*
G01*
G37*
G36*
G01*
X96971400Y-77159000D02*
X95721400Y-77159000D01*
G75*
G02*
X95571400Y-77009000I0J150000D01*
G01*
X95571400Y-76709000D01*
G75*
G02*
X95721400Y-76559000I150000J0D01*
G01*
X96971400Y-76559000D01*
G75*
G02*
X97121400Y-76709000I0J-150000D01*
G01*
X97121400Y-77009000D01*
G75*
G02*
X96971400Y-77159000I-150000J0D01*
G01*
G37*
G36*
G01*
X96971400Y-78159000D02*
X95721400Y-78159000D01*
G75*
G02*
X95571400Y-78009000I0J150000D01*
G01*
X95571400Y-77709000D01*
G75*
G02*
X95721400Y-77559000I150000J0D01*
G01*
X96971400Y-77559000D01*
G75*
G02*
X97121400Y-77709000I0J-150000D01*
G01*
X97121400Y-78009000D01*
G75*
G02*
X96971400Y-78159000I-150000J0D01*
G01*
G37*
G36*
G01*
X96971400Y-79159000D02*
X95721400Y-79159000D01*
G75*
G02*
X95571400Y-79009000I0J150000D01*
G01*
X95571400Y-78709000D01*
G75*
G02*
X95721400Y-78559000I150000J0D01*
G01*
X96971400Y-78559000D01*
G75*
G02*
X97121400Y-78709000I0J-150000D01*
G01*
X97121400Y-79009000D01*
G75*
G02*
X96971400Y-79159000I-150000J0D01*
G01*
G37*
G36*
G01*
X96971400Y-80159000D02*
X95721400Y-80159000D01*
G75*
G02*
X95571400Y-80009000I0J150000D01*
G01*
X95571400Y-79709000D01*
G75*
G02*
X95721400Y-79559000I150000J0D01*
G01*
X96971400Y-79559000D01*
G75*
G02*
X97121400Y-79709000I0J-150000D01*
G01*
X97121400Y-80009000D01*
G75*
G02*
X96971400Y-80159000I-150000J0D01*
G01*
G37*
%TD*%
D12*
%TO.C,J14*%
X160248600Y-80594200D03*
X157708600Y-80594200D03*
X155168600Y-80594200D03*
X152628600Y-80594200D03*
X150088600Y-80594200D03*
X147548600Y-80594200D03*
X145008600Y-80594200D03*
D13*
X142468600Y-80594200D03*
%TD*%
D12*
%TO.C,J13*%
X137388600Y-80594200D03*
X134848600Y-80594200D03*
X132308600Y-80594200D03*
X129768600Y-80594200D03*
X127228600Y-80594200D03*
X124688600Y-80594200D03*
X122148600Y-80594200D03*
X119608600Y-80594200D03*
X117068600Y-80594200D03*
X114528600Y-80594200D03*
X111988600Y-80594200D03*
X109448600Y-80594200D03*
X106908600Y-80594200D03*
X104368600Y-80594200D03*
D13*
X101828600Y-80594200D03*
%TD*%
D33*
%TO.C,J11*%
X116798600Y-87032600D03*
X114798600Y-87032600D03*
X116798600Y-85032600D03*
X114798600Y-85032600D03*
X116798600Y-83032600D03*
D34*
X114798600Y-83032600D03*
%TD*%
D12*
%TO.C,J10*%
X160248600Y-95834200D03*
X157708600Y-95834200D03*
X155168600Y-95834200D03*
X152628600Y-95834200D03*
X150088600Y-95834200D03*
X147548600Y-95834200D03*
X145008600Y-95834200D03*
D13*
X142468600Y-95834200D03*
%TD*%
D12*
%TO.C,J9*%
X137388600Y-95834200D03*
X134848600Y-95834200D03*
X132308600Y-95834200D03*
X129768600Y-95834200D03*
X127228600Y-95834200D03*
X124688600Y-95834200D03*
X122148600Y-95834200D03*
X119608600Y-95834200D03*
X117068600Y-95834200D03*
X114528600Y-95834200D03*
X111988600Y-95834200D03*
X109448600Y-95834200D03*
X106908600Y-95834200D03*
X104368600Y-95834200D03*
D13*
X101828600Y-95834200D03*
%TD*%
%TO.C,J8*%
G36*
G01*
X153203999Y-105273200D02*
X154504001Y-105273200D01*
G75*
G02*
X154754000Y-105523199I0J-249999D01*
G01*
X154754000Y-106223201D01*
G75*
G02*
X154504001Y-106473200I-249999J0D01*
G01*
X153203999Y-106473200D01*
G75*
G02*
X152954000Y-106223201I0J249999D01*
G01*
X152954000Y-105523199D01*
G75*
G02*
X153203999Y-105273200I249999J0D01*
G01*
G37*
G36*
G01*
X153203999Y-99673200D02*
X154504001Y-99673200D01*
G75*
G02*
X154754000Y-99923199I0J-249999D01*
G01*
X154754000Y-100623201D01*
G75*
G02*
X154504001Y-100873200I-249999J0D01*
G01*
X153203999Y-100873200D01*
G75*
G02*
X152954000Y-100623201I0J249999D01*
G01*
X152954000Y-99923199D01*
G75*
G02*
X153203999Y-99673200I249999J0D01*
G01*
G37*
G36*
G01*
X150704000Y-104273200D02*
X151954000Y-104273200D01*
G75*
G02*
X152104000Y-104423200I0J-150000D01*
G01*
X152104000Y-104723200D01*
G75*
G02*
X151954000Y-104873200I-150000J0D01*
G01*
X150704000Y-104873200D01*
G75*
G02*
X150554000Y-104723200I0J150000D01*
G01*
X150554000Y-104423200D01*
G75*
G02*
X150704000Y-104273200I150000J0D01*
G01*
G37*
G36*
G01*
X150704000Y-103273200D02*
X151954000Y-103273200D01*
G75*
G02*
X152104000Y-103423200I0J-150000D01*
G01*
X152104000Y-103723200D01*
G75*
G02*
X151954000Y-103873200I-150000J0D01*
G01*
X150704000Y-103873200D01*
G75*
G02*
X150554000Y-103723200I0J150000D01*
G01*
X150554000Y-103423200D01*
G75*
G02*
X150704000Y-103273200I150000J0D01*
G01*
G37*
G36*
G01*
X150704000Y-102273200D02*
X151954000Y-102273200D01*
G75*
G02*
X152104000Y-102423200I0J-150000D01*
G01*
X152104000Y-102723200D01*
G75*
G02*
X151954000Y-102873200I-150000J0D01*
G01*
X150704000Y-102873200D01*
G75*
G02*
X150554000Y-102723200I0J150000D01*
G01*
X150554000Y-102423200D01*
G75*
G02*
X150704000Y-102273200I150000J0D01*
G01*
G37*
G36*
G01*
X150704000Y-101273200D02*
X151954000Y-101273200D01*
G75*
G02*
X152104000Y-101423200I0J-150000D01*
G01*
X152104000Y-101723200D01*
G75*
G02*
X151954000Y-101873200I-150000J0D01*
G01*
X150704000Y-101873200D01*
G75*
G02*
X150554000Y-101723200I0J150000D01*
G01*
X150554000Y-101423200D01*
G75*
G02*
X150704000Y-101273200I150000J0D01*
G01*
G37*
%TD*%
%TO.C,J7*%
G36*
G01*
X146371399Y-105247800D02*
X147671401Y-105247800D01*
G75*
G02*
X147921400Y-105497799I0J-249999D01*
G01*
X147921400Y-106197801D01*
G75*
G02*
X147671401Y-106447800I-249999J0D01*
G01*
X146371399Y-106447800D01*
G75*
G02*
X146121400Y-106197801I0J249999D01*
G01*
X146121400Y-105497799D01*
G75*
G02*
X146371399Y-105247800I249999J0D01*
G01*
G37*
G36*
G01*
X146371399Y-99647800D02*
X147671401Y-99647800D01*
G75*
G02*
X147921400Y-99897799I0J-249999D01*
G01*
X147921400Y-100597801D01*
G75*
G02*
X147671401Y-100847800I-249999J0D01*
G01*
X146371399Y-100847800D01*
G75*
G02*
X146121400Y-100597801I0J249999D01*
G01*
X146121400Y-99897799D01*
G75*
G02*
X146371399Y-99647800I249999J0D01*
G01*
G37*
G36*
G01*
X143871400Y-104247800D02*
X145121400Y-104247800D01*
G75*
G02*
X145271400Y-104397800I0J-150000D01*
G01*
X145271400Y-104697800D01*
G75*
G02*
X145121400Y-104847800I-150000J0D01*
G01*
X143871400Y-104847800D01*
G75*
G02*
X143721400Y-104697800I0J150000D01*
G01*
X143721400Y-104397800D01*
G75*
G02*
X143871400Y-104247800I150000J0D01*
G01*
G37*
G36*
G01*
X143871400Y-103247800D02*
X145121400Y-103247800D01*
G75*
G02*
X145271400Y-103397800I0J-150000D01*
G01*
X145271400Y-103697800D01*
G75*
G02*
X145121400Y-103847800I-150000J0D01*
G01*
X143871400Y-103847800D01*
G75*
G02*
X143721400Y-103697800I0J150000D01*
G01*
X143721400Y-103397800D01*
G75*
G02*
X143871400Y-103247800I150000J0D01*
G01*
G37*
G36*
G01*
X143871400Y-102247800D02*
X145121400Y-102247800D01*
G75*
G02*
X145271400Y-102397800I0J-150000D01*
G01*
X145271400Y-102697800D01*
G75*
G02*
X145121400Y-102847800I-150000J0D01*
G01*
X143871400Y-102847800D01*
G75*
G02*
X143721400Y-102697800I0J150000D01*
G01*
X143721400Y-102397800D01*
G75*
G02*
X143871400Y-102247800I150000J0D01*
G01*
G37*
G36*
G01*
X143871400Y-101247800D02*
X145121400Y-101247800D01*
G75*
G02*
X145271400Y-101397800I0J-150000D01*
G01*
X145271400Y-101697800D01*
G75*
G02*
X145121400Y-101847800I-150000J0D01*
G01*
X143871400Y-101847800D01*
G75*
G02*
X143721400Y-101697800I0J150000D01*
G01*
X143721400Y-101397800D01*
G75*
G02*
X143871400Y-101247800I150000J0D01*
G01*
G37*
%TD*%
D12*
%TO.C,J6*%
X97317560Y-125412500D03*
X99857560Y-125412500D03*
X102397560Y-125412500D03*
X104937560Y-125412500D03*
X107477560Y-125412500D03*
X110017560Y-125412500D03*
X112557560Y-125412500D03*
D13*
X115097560Y-125412500D03*
%TD*%
D12*
%TO.C,J5*%
X97317560Y-102552500D03*
X99857560Y-102552500D03*
X102397560Y-102552500D03*
X104937560Y-102552500D03*
X107477560Y-102552500D03*
X110017560Y-102552500D03*
X112557560Y-102552500D03*
D13*
X115097560Y-102552500D03*
%TD*%
D12*
%TO.C,J4*%
X93685360Y-107632500D03*
X93685360Y-110172500D03*
X93685360Y-112712500D03*
X93685360Y-115252500D03*
X93685360Y-117792500D03*
D13*
X93685360Y-120332500D03*
%TD*%
D35*
%TO.C,J3*%
X158576000Y-151159400D03*
X141036000Y-162589400D03*
X123496000Y-151159400D03*
D36*
X129921000Y-156489400D03*
X134366000Y-156489400D03*
X138811000Y-156489400D03*
X143261000Y-156489400D03*
X147706000Y-156489400D03*
X152151000Y-156489400D03*
X152151000Y-150139400D03*
X147706000Y-150139400D03*
X143261000Y-150139400D03*
X138811000Y-150139400D03*
X134366000Y-150139400D03*
D37*
X129921000Y-150139400D03*
%TD*%
D12*
%TO.C,J1*%
X148887180Y-125811280D03*
X146347180Y-125811280D03*
X143807180Y-125811280D03*
X141267180Y-125811280D03*
X138727180Y-125811280D03*
X136187180Y-125811280D03*
X133647180Y-125811280D03*
X131107180Y-125811280D03*
X128567180Y-125811280D03*
D13*
X126027180Y-125811280D03*
%TD*%
D38*
%TO.C,IC2*%
X51833900Y-138762732D03*
D39*
X61463900Y-135362732D03*
X61463900Y-137062732D03*
X61463900Y-138762732D03*
X61463900Y-140462732D03*
X61463900Y-142162732D03*
%TD*%
D40*
%TO.C,IC1*%
X134289600Y-103391400D03*
X134289600Y-102891400D03*
X134289600Y-102391400D03*
X134289600Y-101891400D03*
X137439600Y-101891400D03*
X137439600Y-102391400D03*
X137439600Y-102891400D03*
X137439600Y-103391400D03*
%TD*%
D29*
%TO.C,F1*%
X72102900Y-163203900D03*
D41*
X50102900Y-163203900D03*
%TD*%
D42*
%TO.C,D1*%
X135150400Y-133756400D03*
X137950400Y-133756400D03*
%TD*%
%TO.C,C12*%
G36*
G01*
X131023380Y-61548860D02*
X130073380Y-61548860D01*
G75*
G02*
X129823380Y-61298860I0J250000D01*
G01*
X129823380Y-60798860D01*
G75*
G02*
X130073380Y-60548860I250000J0D01*
G01*
X131023380Y-60548860D01*
G75*
G02*
X131273380Y-60798860I0J-250000D01*
G01*
X131273380Y-61298860D01*
G75*
G02*
X131023380Y-61548860I-250000J0D01*
G01*
G37*
G36*
G01*
X131023380Y-63448860D02*
X130073380Y-63448860D01*
G75*
G02*
X129823380Y-63198860I0J250000D01*
G01*
X129823380Y-62698860D01*
G75*
G02*
X130073380Y-62448860I250000J0D01*
G01*
X131023380Y-62448860D01*
G75*
G02*
X131273380Y-62698860I0J-250000D01*
G01*
X131273380Y-63198860D01*
G75*
G02*
X131023380Y-63448860I-250000J0D01*
G01*
G37*
%TD*%
%TO.C,C11*%
G36*
G01*
X103279360Y-84676000D02*
X103279360Y-83726000D01*
G75*
G02*
X103529360Y-83476000I250000J0D01*
G01*
X104029360Y-83476000D01*
G75*
G02*
X104279360Y-83726000I0J-250000D01*
G01*
X104279360Y-84676000D01*
G75*
G02*
X104029360Y-84926000I-250000J0D01*
G01*
X103529360Y-84926000D01*
G75*
G02*
X103279360Y-84676000I0J250000D01*
G01*
G37*
G36*
G01*
X101379360Y-84676000D02*
X101379360Y-83726000D01*
G75*
G02*
X101629360Y-83476000I250000J0D01*
G01*
X102129360Y-83476000D01*
G75*
G02*
X102379360Y-83726000I0J-250000D01*
G01*
X102379360Y-84676000D01*
G75*
G02*
X102129360Y-84926000I-250000J0D01*
G01*
X101629360Y-84926000D01*
G75*
G02*
X101379360Y-84676000I0J250000D01*
G01*
G37*
%TD*%
%TO.C,C8*%
G36*
G01*
X42102620Y-150180020D02*
X42102620Y-151130020D01*
G75*
G02*
X41852620Y-151380020I-250000J0D01*
G01*
X41352620Y-151380020D01*
G75*
G02*
X41102620Y-151130020I0J250000D01*
G01*
X41102620Y-150180020D01*
G75*
G02*
X41352620Y-149930020I250000J0D01*
G01*
X41852620Y-149930020D01*
G75*
G02*
X42102620Y-150180020I0J-250000D01*
G01*
G37*
G36*
G01*
X44002620Y-150180020D02*
X44002620Y-151130020D01*
G75*
G02*
X43752620Y-151380020I-250000J0D01*
G01*
X43252620Y-151380020D01*
G75*
G02*
X43002620Y-151130020I0J250000D01*
G01*
X43002620Y-150180020D01*
G75*
G02*
X43252620Y-149930020I250000J0D01*
G01*
X43752620Y-149930020D01*
G75*
G02*
X44002620Y-150180020I0J-250000D01*
G01*
G37*
%TD*%
%TO.C,C7*%
G36*
G01*
X80185240Y-112448760D02*
X81135240Y-112448760D01*
G75*
G02*
X81385240Y-112698760I0J-250000D01*
G01*
X81385240Y-113198760D01*
G75*
G02*
X81135240Y-113448760I-250000J0D01*
G01*
X80185240Y-113448760D01*
G75*
G02*
X79935240Y-113198760I0J250000D01*
G01*
X79935240Y-112698760D01*
G75*
G02*
X80185240Y-112448760I250000J0D01*
G01*
G37*
G36*
G01*
X80185240Y-110548760D02*
X81135240Y-110548760D01*
G75*
G02*
X81385240Y-110798760I0J-250000D01*
G01*
X81385240Y-111298760D01*
G75*
G02*
X81135240Y-111548760I-250000J0D01*
G01*
X80185240Y-111548760D01*
G75*
G02*
X79935240Y-111298760I0J250000D01*
G01*
X79935240Y-110798760D01*
G75*
G02*
X80185240Y-110548760I250000J0D01*
G01*
G37*
%TD*%
%TO.C,C3*%
G36*
G01*
X127356020Y-120449360D02*
X127356020Y-119499360D01*
G75*
G02*
X127606020Y-119249360I250000J0D01*
G01*
X128106020Y-119249360D01*
G75*
G02*
X128356020Y-119499360I0J-250000D01*
G01*
X128356020Y-120449360D01*
G75*
G02*
X128106020Y-120699360I-250000J0D01*
G01*
X127606020Y-120699360D01*
G75*
G02*
X127356020Y-120449360I0J250000D01*
G01*
G37*
G36*
G01*
X125456020Y-120449360D02*
X125456020Y-119499360D01*
G75*
G02*
X125706020Y-119249360I250000J0D01*
G01*
X126206020Y-119249360D01*
G75*
G02*
X126456020Y-119499360I0J-250000D01*
G01*
X126456020Y-120449360D01*
G75*
G02*
X126206020Y-120699360I-250000J0D01*
G01*
X125706020Y-120699360D01*
G75*
G02*
X125456020Y-120449360I0J250000D01*
G01*
G37*
%TD*%
M02*
