%TF.GenerationSoftware,KiCad,Pcbnew,(5.1.7)-1*%
%TF.CreationDate,2021-12-22T18:53:21-06:00*%
%TF.ProjectId,AS12,41533132-2e6b-4696-9361-645f70636258,rev?*%
%TF.SameCoordinates,Original*%
%TF.FileFunction,Soldermask,Bot*%
%TF.FilePolarity,Negative*%
%FSLAX46Y46*%
G04 Gerber Fmt 4.6, Leading zero omitted, Abs format (unit mm)*
G04 Created by KiCad (PCBNEW (5.1.7)-1) date 2021-12-22 18:53:21*
%MOMM*%
%LPD*%
G01*
G04 APERTURE LIST*
%ADD10O,1.700000X1.700000*%
%ADD11R,1.700000X1.700000*%
%ADD12C,3.200000*%
%ADD13C,2.445000*%
%ADD14C,1.530000*%
%ADD15C,1.446000*%
%ADD16C,1.575000*%
%ADD17R,1.575000X1.575000*%
%ADD18C,1.950000*%
%ADD19C,2.250000*%
%ADD20C,2.600000*%
%ADD21R,2.600000X2.600000*%
%ADD22R,2.250000X2.250000*%
%ADD23C,1.308000*%
%ADD24R,1.308000X1.308000*%
%ADD25C,3.000000*%
%ADD26O,1.350000X1.350000*%
%ADD27R,1.350000X1.350000*%
%ADD28C,4.485000*%
%ADD29C,2.715000*%
%ADD30R,2.715000X2.715000*%
%ADD31R,3.000000X3.000000*%
G04 APERTURE END LIST*
D10*
%TO.C,J24*%
X54795000Y-123679400D03*
X52255000Y-123679400D03*
X49715000Y-123679400D03*
X47175000Y-123679400D03*
X44635000Y-123679400D03*
X42095000Y-123679400D03*
X39555000Y-123679400D03*
D11*
X37015000Y-123679400D03*
%TD*%
D10*
%TO.C,J2*%
X54795000Y-146539400D03*
X52255000Y-146539400D03*
X49715000Y-146539400D03*
X47175000Y-146539400D03*
X44635000Y-146539400D03*
X42095000Y-146539400D03*
X39555000Y-146539400D03*
D11*
X37015000Y-146539400D03*
%TD*%
D12*
%TO.C,REF\u002A\u002A*%
X58601220Y-23133960D03*
X58601220Y-79133960D03*
X30601220Y-79133960D03*
X30601220Y-23133960D03*
X86481220Y-23133960D03*
X86481220Y-101873960D03*
X30601220Y-101873960D03*
%TD*%
D13*
%TO.C,J12*%
X45006800Y-160873980D03*
X29516800Y-160873980D03*
D14*
X43886800Y-168823980D03*
X41346800Y-168823980D03*
X33176800Y-168823980D03*
X30636800Y-168823980D03*
D15*
X41706800Y-155033980D03*
X40436800Y-157573980D03*
X39166800Y-155033980D03*
X37896800Y-157573980D03*
X36626800Y-155033980D03*
X35356800Y-157573980D03*
X34086800Y-155033980D03*
X32816800Y-157573980D03*
%TD*%
D16*
%TO.C,D4*%
X90380820Y-130159300D03*
D17*
X90380820Y-144259300D03*
%TD*%
D18*
%TO.C,K1*%
X108770800Y-131191000D03*
X108770800Y-143191000D03*
X96570800Y-143191000D03*
D19*
X94570800Y-137191000D03*
D18*
X96570800Y-131191000D03*
%TD*%
D20*
%TO.C,KF1*%
X104622600Y-161034600D03*
X104622600Y-168654600D03*
X99542600Y-161034600D03*
X99542600Y-168654600D03*
X94462600Y-161034600D03*
X94462600Y-168654600D03*
X89382600Y-161034600D03*
X89382600Y-168654600D03*
X84302600Y-161034600D03*
X84302600Y-168654600D03*
D21*
X79222600Y-161034600D03*
X79222600Y-168654600D03*
%TD*%
D19*
%TO.C,D3*%
X49893620Y-152481280D03*
D22*
X78493620Y-152481280D03*
%TD*%
D12*
%TO.C, *%
X23548340Y-23535640D03*
%TD*%
%TO.C, *%
X175493680Y-23535640D03*
%TD*%
%TO.C, *%
X175394620Y-168460420D03*
%TD*%
%TO.C, *%
X23550880Y-168409620D03*
%TD*%
D23*
%TO.C,J23*%
X94145100Y-59654700D03*
X94145100Y-57654700D03*
X94145100Y-55654700D03*
D24*
X94145100Y-53654700D03*
%TD*%
D25*
%TO.C,REF\u002A\u002A*%
X93331360Y-124118700D03*
X118731360Y-124118700D03*
%TD*%
D10*
%TO.C,J22*%
X165608000Y-24511000D03*
X163068000Y-24511000D03*
X160528000Y-24511000D03*
X157988000Y-24511000D03*
X155448000Y-24511000D03*
X152908000Y-24511000D03*
X150368000Y-24511000D03*
D11*
X147828000Y-24511000D03*
%TD*%
D10*
%TO.C,J21*%
X143768000Y-24511000D03*
X141228000Y-24511000D03*
X138688000Y-24511000D03*
X136148000Y-24511000D03*
X133608000Y-24511000D03*
X131068000Y-24511000D03*
X128528000Y-24511000D03*
X125988000Y-24511000D03*
X123448000Y-24511000D03*
D11*
X120908000Y-24511000D03*
%TD*%
D10*
%TO.C,J20*%
X110794800Y-28336400D03*
X113334800Y-28336400D03*
X115874800Y-28336400D03*
X118414800Y-28336400D03*
X120954800Y-28336400D03*
X123494800Y-28336400D03*
X126034800Y-28336400D03*
X128574800Y-28336400D03*
X131114800Y-28336400D03*
D11*
X133654800Y-28336400D03*
%TD*%
D10*
%TO.C,J19*%
X165608000Y-72771000D03*
X163068000Y-72771000D03*
X160528000Y-72771000D03*
X157988000Y-72771000D03*
X155448000Y-72771000D03*
D11*
X152908000Y-72771000D03*
%TD*%
D10*
%TO.C,J18*%
X147828000Y-72771000D03*
X145288000Y-72771000D03*
X142748000Y-72771000D03*
X140208000Y-72771000D03*
X137668000Y-72771000D03*
X135128000Y-72771000D03*
X132588000Y-72771000D03*
D11*
X130048000Y-72771000D03*
%TD*%
D10*
%TO.C,J17*%
X113334800Y-68986400D03*
X115874800Y-68986400D03*
X118414800Y-68986400D03*
X120954800Y-68986400D03*
X123494800Y-68986400D03*
X126034800Y-68986400D03*
X128574800Y-68986400D03*
X131114800Y-68986400D03*
D11*
X133654800Y-68986400D03*
%TD*%
D10*
%TO.C,J14*%
X160248600Y-80594200D03*
X157708600Y-80594200D03*
X155168600Y-80594200D03*
X152628600Y-80594200D03*
X150088600Y-80594200D03*
X147548600Y-80594200D03*
X145008600Y-80594200D03*
D11*
X142468600Y-80594200D03*
%TD*%
D10*
%TO.C,J13*%
X137388600Y-80594200D03*
X134848600Y-80594200D03*
X132308600Y-80594200D03*
X129768600Y-80594200D03*
X127228600Y-80594200D03*
X124688600Y-80594200D03*
X122148600Y-80594200D03*
X119608600Y-80594200D03*
X117068600Y-80594200D03*
X114528600Y-80594200D03*
X111988600Y-80594200D03*
X109448600Y-80594200D03*
X106908600Y-80594200D03*
X104368600Y-80594200D03*
D11*
X101828600Y-80594200D03*
%TD*%
D26*
%TO.C,J11*%
X116798600Y-87032600D03*
X114798600Y-87032600D03*
X116798600Y-85032600D03*
X114798600Y-85032600D03*
X116798600Y-83032600D03*
D27*
X114798600Y-83032600D03*
%TD*%
D10*
%TO.C,J10*%
X160248600Y-95834200D03*
X157708600Y-95834200D03*
X155168600Y-95834200D03*
X152628600Y-95834200D03*
X150088600Y-95834200D03*
X147548600Y-95834200D03*
X145008600Y-95834200D03*
D11*
X142468600Y-95834200D03*
%TD*%
D10*
%TO.C,J9*%
X137388600Y-95834200D03*
X134848600Y-95834200D03*
X132308600Y-95834200D03*
X129768600Y-95834200D03*
X127228600Y-95834200D03*
X124688600Y-95834200D03*
X122148600Y-95834200D03*
X119608600Y-95834200D03*
X117068600Y-95834200D03*
X114528600Y-95834200D03*
X111988600Y-95834200D03*
X109448600Y-95834200D03*
X106908600Y-95834200D03*
X104368600Y-95834200D03*
D11*
X101828600Y-95834200D03*
%TD*%
D10*
%TO.C,J6*%
X97317560Y-125412500D03*
X99857560Y-125412500D03*
X102397560Y-125412500D03*
X104937560Y-125412500D03*
X107477560Y-125412500D03*
X110017560Y-125412500D03*
X112557560Y-125412500D03*
D11*
X115097560Y-125412500D03*
%TD*%
D10*
%TO.C,J5*%
X97317560Y-102552500D03*
X99857560Y-102552500D03*
X102397560Y-102552500D03*
X104937560Y-102552500D03*
X107477560Y-102552500D03*
X110017560Y-102552500D03*
X112557560Y-102552500D03*
D11*
X115097560Y-102552500D03*
%TD*%
D10*
%TO.C,J4*%
X93685360Y-107632500D03*
X93685360Y-110172500D03*
X93685360Y-112712500D03*
X93685360Y-115252500D03*
X93685360Y-117792500D03*
D11*
X93685360Y-120332500D03*
%TD*%
D28*
%TO.C,J3*%
X158576000Y-151159400D03*
X141036000Y-162589400D03*
X123496000Y-151159400D03*
D29*
X129921000Y-156489400D03*
X134366000Y-156489400D03*
X138811000Y-156489400D03*
X143261000Y-156489400D03*
X147706000Y-156489400D03*
X152151000Y-156489400D03*
X152151000Y-150139400D03*
X147706000Y-150139400D03*
X143261000Y-150139400D03*
X138811000Y-150139400D03*
X134366000Y-150139400D03*
D30*
X129921000Y-150139400D03*
%TD*%
D10*
%TO.C,J1*%
X148887180Y-125811280D03*
X146347180Y-125811280D03*
X143807180Y-125811280D03*
X141267180Y-125811280D03*
X138727180Y-125811280D03*
X136187180Y-125811280D03*
X133647180Y-125811280D03*
X131107180Y-125811280D03*
X128567180Y-125811280D03*
D11*
X126027180Y-125811280D03*
%TD*%
D25*
%TO.C,F1*%
X72102900Y-163203900D03*
D31*
X50102900Y-163203900D03*
%TD*%
M02*
