%TF.GenerationSoftware,KiCad,Pcbnew,(5.1.7)-1*%
%TF.CreationDate,2021-12-22T18:53:21-06:00*%
%TF.ProjectId,AS12,41533132-2e6b-4696-9361-645f70636258,rev?*%
%TF.SameCoordinates,Original*%
%TF.FileFunction,Copper,L1,Top*%
%TF.FilePolarity,Positive*%
%FSLAX46Y46*%
G04 Gerber Fmt 4.6, Leading zero omitted, Abs format (unit mm)*
G04 Created by KiCad (PCBNEW (5.1.7)-1) date 2021-12-22 18:53:21*
%MOMM*%
%LPD*%
G01*
G04 APERTURE LIST*
%TA.AperFunction,SMDPad,CuDef*%
%ADD10R,2.250000X3.200000*%
%TD*%
%TA.AperFunction,SMDPad,CuDef*%
%ADD11R,0.540800X1.981200*%
%TD*%
%TA.AperFunction,ComponentPad*%
%ADD12O,1.700000X1.700000*%
%TD*%
%TA.AperFunction,ComponentPad*%
%ADD13R,1.700000X1.700000*%
%TD*%
%TA.AperFunction,ComponentPad*%
%ADD14C,3.200000*%
%TD*%
%TA.AperFunction,SMDPad,CuDef*%
%ADD15R,1.550000X0.600000*%
%TD*%
%TA.AperFunction,SMDPad,CuDef*%
%ADD16R,5.650000X2.350000*%
%TD*%
%TA.AperFunction,SMDPad,CuDef*%
%ADD17R,5.400000X2.900000*%
%TD*%
%TA.AperFunction,ComponentPad*%
%ADD18C,2.445000*%
%TD*%
%TA.AperFunction,ComponentPad*%
%ADD19C,1.530000*%
%TD*%
%TA.AperFunction,ComponentPad*%
%ADD20C,1.446000*%
%TD*%
%TA.AperFunction,ComponentPad*%
%ADD21C,1.575000*%
%TD*%
%TA.AperFunction,ComponentPad*%
%ADD22R,1.575000X1.575000*%
%TD*%
%TA.AperFunction,ComponentPad*%
%ADD23C,1.950000*%
%TD*%
%TA.AperFunction,ComponentPad*%
%ADD24C,2.250000*%
%TD*%
%TA.AperFunction,ComponentPad*%
%ADD25C,2.600000*%
%TD*%
%TA.AperFunction,ComponentPad*%
%ADD26R,2.600000X2.600000*%
%TD*%
%TA.AperFunction,ComponentPad*%
%ADD27R,2.250000X2.250000*%
%TD*%
%TA.AperFunction,ComponentPad*%
%ADD28C,1.308000*%
%TD*%
%TA.AperFunction,ComponentPad*%
%ADD29R,1.308000X1.308000*%
%TD*%
%TA.AperFunction,ComponentPad*%
%ADD30C,3.000000*%
%TD*%
%TA.AperFunction,SMDPad,CuDef*%
%ADD31R,2.000000X1.500000*%
%TD*%
%TA.AperFunction,SMDPad,CuDef*%
%ADD32R,2.000000X3.800000*%
%TD*%
%TA.AperFunction,SMDPad,CuDef*%
%ADD33R,0.900000X0.800000*%
%TD*%
%TA.AperFunction,ComponentPad*%
%ADD34O,1.350000X1.350000*%
%TD*%
%TA.AperFunction,ComponentPad*%
%ADD35R,1.350000X1.350000*%
%TD*%
%TA.AperFunction,ComponentPad*%
%ADD36C,4.485000*%
%TD*%
%TA.AperFunction,ComponentPad*%
%ADD37C,2.715000*%
%TD*%
%TA.AperFunction,ComponentPad*%
%ADD38R,2.715000X2.715000*%
%TD*%
%TA.AperFunction,SMDPad,CuDef*%
%ADD39R,8.460000X10.530000*%
%TD*%
%TA.AperFunction,SMDPad,CuDef*%
%ADD40R,3.210000X1.050000*%
%TD*%
%TA.AperFunction,SMDPad,CuDef*%
%ADD41R,0.850000X0.300000*%
%TD*%
%TA.AperFunction,ComponentPad*%
%ADD42R,3.000000X3.000000*%
%TD*%
%TA.AperFunction,SMDPad,CuDef*%
%ADD43R,1.100000X1.100000*%
%TD*%
%TA.AperFunction,ViaPad*%
%ADD44C,0.800000*%
%TD*%
%TA.AperFunction,Conductor*%
%ADD45C,1.270000*%
%TD*%
%TA.AperFunction,Conductor*%
%ADD46C,0.254000*%
%TD*%
%TA.AperFunction,Conductor*%
%ADD47C,0.508000*%
%TD*%
%TA.AperFunction,Conductor*%
%ADD48C,3.810000*%
%TD*%
%TA.AperFunction,Conductor*%
%ADD49C,0.431800*%
%TD*%
%TA.AperFunction,Conductor*%
%ADD50C,2.032000*%
%TD*%
G04 APERTURE END LIST*
D10*
%TO.P,D2,2*%
%TO.N,GND*%
X54906500Y-129361066D03*
%TO.P,D2,1*%
%TO.N,Net-(D2-Pad1)*%
X61806500Y-129361066D03*
%TD*%
%TO.P,C5,2*%
%TO.N,GND*%
%TA.AperFunction,SMDPad,CuDef*%
G36*
G01*
X117710800Y-131579600D02*
X117710800Y-132529600D01*
G75*
G02*
X117460800Y-132779600I-250000J0D01*
G01*
X116960800Y-132779600D01*
G75*
G02*
X116710800Y-132529600I0J250000D01*
G01*
X116710800Y-131579600D01*
G75*
G02*
X116960800Y-131329600I250000J0D01*
G01*
X117460800Y-131329600D01*
G75*
G02*
X117710800Y-131579600I0J-250000D01*
G01*
G37*
%TD.AperFunction*%
%TO.P,C5,1*%
%TO.N,Net-(C1-Pad1)*%
%TA.AperFunction,SMDPad,CuDef*%
G36*
G01*
X119610800Y-131579600D02*
X119610800Y-132529600D01*
G75*
G02*
X119360800Y-132779600I-250000J0D01*
G01*
X118860800Y-132779600D01*
G75*
G02*
X118610800Y-132529600I0J250000D01*
G01*
X118610800Y-131579600D01*
G75*
G02*
X118860800Y-131329600I250000J0D01*
G01*
X119360800Y-131329600D01*
G75*
G02*
X119610800Y-131579600I0J-250000D01*
G01*
G37*
%TD.AperFunction*%
%TD*%
D11*
%TO.P,U6,8*%
%TO.N,Net-(C1-Pad1)*%
X158939260Y-122566759D03*
%TO.P,U6,7*%
%TO.N,Net-(J3-Pad5)*%
X157669260Y-122566759D03*
%TO.P,U6,6*%
%TO.N,Net-(J3-Pad6)*%
X156399260Y-122566759D03*
%TO.P,U6,5*%
%TO.N,GND*%
X155129260Y-122566759D03*
%TO.P,U6,4*%
%TO.N,Net-(J10-Pad3)*%
X155129260Y-117636761D03*
%TO.P,U6,3*%
X156399260Y-117636761D03*
%TO.P,U6,2*%
%TO.N,Net-(J10-Pad5)*%
X157669260Y-117636761D03*
%TO.P,U6,1*%
%TO.N,Net-(J10-Pad4)*%
X158939260Y-117636761D03*
%TD*%
D12*
%TO.P,J24,8*%
%TO.N,Net-(C10-Pad1)*%
X54795000Y-123679400D03*
%TO.P,J24,7*%
%TO.N,GND*%
X52255000Y-123679400D03*
%TO.P,J24,6*%
%TO.N,Net-(J24-Pad6)*%
X49715000Y-123679400D03*
%TO.P,J24,5*%
%TO.N,Net-(J24-Pad5)*%
X47175000Y-123679400D03*
%TO.P,J24,4*%
%TO.N,Net-(J24-Pad4)*%
X44635000Y-123679400D03*
%TO.P,J24,3*%
%TO.N,Net-(J24-Pad3)*%
X42095000Y-123679400D03*
%TO.P,J24,2*%
%TO.N,Net-(J24-Pad2)*%
X39555000Y-123679400D03*
D13*
%TO.P,J24,1*%
%TO.N,Net-(J24-Pad1)*%
X37015000Y-123679400D03*
%TD*%
D12*
%TO.P,J2,8*%
%TO.N,Net-(J2-Pad8)*%
X54795000Y-146539400D03*
%TO.P,J2,7*%
%TO.N,Net-(J2-Pad7)*%
X52255000Y-146539400D03*
%TO.P,J2,6*%
%TO.N,Net-(J2-Pad6)*%
X49715000Y-146539400D03*
%TO.P,J2,5*%
%TO.N,Net-(J2-Pad5)*%
X47175000Y-146539400D03*
%TO.P,J2,4*%
%TO.N,Net-(J2-Pad4)*%
X44635000Y-146539400D03*
%TO.P,J2,3*%
%TO.N,Net-(J2-Pad3)*%
X42095000Y-146539400D03*
%TO.P,J2,2*%
%TO.N,Net-(J2-Pad2)*%
X39555000Y-146539400D03*
D13*
%TO.P,J2,1*%
%TO.N,Net-(J2-Pad1)*%
X37015000Y-146539400D03*
%TD*%
%TO.P,C13,2*%
%TO.N,GND*%
%TA.AperFunction,SMDPad,CuDef*%
G36*
G01*
X47975100Y-119959100D02*
X47975100Y-120909100D01*
G75*
G02*
X47725100Y-121159100I-250000J0D01*
G01*
X47225100Y-121159100D01*
G75*
G02*
X46975100Y-120909100I0J250000D01*
G01*
X46975100Y-119959100D01*
G75*
G02*
X47225100Y-119709100I250000J0D01*
G01*
X47725100Y-119709100D01*
G75*
G02*
X47975100Y-119959100I0J-250000D01*
G01*
G37*
%TD.AperFunction*%
%TO.P,C13,1*%
%TO.N,Net-(C10-Pad1)*%
%TA.AperFunction,SMDPad,CuDef*%
G36*
G01*
X49875100Y-119959100D02*
X49875100Y-120909100D01*
G75*
G02*
X49625100Y-121159100I-250000J0D01*
G01*
X49125100Y-121159100D01*
G75*
G02*
X48875100Y-120909100I0J250000D01*
G01*
X48875100Y-119959100D01*
G75*
G02*
X49125100Y-119709100I250000J0D01*
G01*
X49625100Y-119709100D01*
G75*
G02*
X49875100Y-119959100I0J-250000D01*
G01*
G37*
%TD.AperFunction*%
%TD*%
D14*
%TO.P,REF\u002A\u002A,8*%
%TO.N,N/C*%
X58601220Y-23133960D03*
X58601220Y-79133960D03*
X30601220Y-79133960D03*
X30601220Y-23133960D03*
X86481220Y-23133960D03*
X86481220Y-101873960D03*
X30601220Y-101873960D03*
%TD*%
%TO.P,R11,2*%
%TO.N,Net-(J3-Pad6)*%
%TA.AperFunction,SMDPad,CuDef*%
G36*
G01*
X156717180Y-124880960D02*
X156717180Y-125430960D01*
G75*
G02*
X156517180Y-125630960I-200000J0D01*
G01*
X156117180Y-125630960D01*
G75*
G02*
X155917180Y-125430960I0J200000D01*
G01*
X155917180Y-124880960D01*
G75*
G02*
X156117180Y-124680960I200000J0D01*
G01*
X156517180Y-124680960D01*
G75*
G02*
X156717180Y-124880960I0J-200000D01*
G01*
G37*
%TD.AperFunction*%
%TO.P,R11,1*%
%TO.N,Net-(J3-Pad5)*%
%TA.AperFunction,SMDPad,CuDef*%
G36*
G01*
X158367180Y-124880960D02*
X158367180Y-125430960D01*
G75*
G02*
X158167180Y-125630960I-200000J0D01*
G01*
X157767180Y-125630960D01*
G75*
G02*
X157567180Y-125430960I0J200000D01*
G01*
X157567180Y-124880960D01*
G75*
G02*
X157767180Y-124680960I200000J0D01*
G01*
X158167180Y-124680960D01*
G75*
G02*
X158367180Y-124880960I0J-200000D01*
G01*
G37*
%TD.AperFunction*%
%TD*%
%TO.P,C6,2*%
%TO.N,GND*%
%TA.AperFunction,SMDPad,CuDef*%
G36*
G01*
X75750400Y-112362400D02*
X76700400Y-112362400D01*
G75*
G02*
X76950400Y-112612400I0J-250000D01*
G01*
X76950400Y-113112400D01*
G75*
G02*
X76700400Y-113362400I-250000J0D01*
G01*
X75750400Y-113362400D01*
G75*
G02*
X75500400Y-113112400I0J250000D01*
G01*
X75500400Y-112612400D01*
G75*
G02*
X75750400Y-112362400I250000J0D01*
G01*
G37*
%TD.AperFunction*%
%TO.P,C6,1*%
%TO.N,Net-(C10-Pad1)*%
%TA.AperFunction,SMDPad,CuDef*%
G36*
G01*
X75750400Y-110462400D02*
X76700400Y-110462400D01*
G75*
G02*
X76950400Y-110712400I0J-250000D01*
G01*
X76950400Y-111212400D01*
G75*
G02*
X76700400Y-111462400I-250000J0D01*
G01*
X75750400Y-111462400D01*
G75*
G02*
X75500400Y-111212400I0J250000D01*
G01*
X75500400Y-110712400D01*
G75*
G02*
X75750400Y-110462400I250000J0D01*
G01*
G37*
%TD.AperFunction*%
%TD*%
D15*
%TO.P,U4,5*%
%TO.N,GND*%
X120721100Y-138176000D03*
%TO.P,U4,6*%
%TO.N,Net-(U4-Pad6)*%
X120721100Y-136906000D03*
%TO.P,U4,8*%
%TO.N,Net-(C1-Pad1)*%
X120721100Y-134366000D03*
%TO.P,U4,4*%
%TO.N,Net-(J3-Pad1)*%
X115321100Y-138176000D03*
%TO.P,U4,3*%
X115321100Y-136906000D03*
%TO.P,U4,1*%
%TO.N,Net-(K1-Pad4)*%
X115321100Y-134366000D03*
%TO.P,U4,7*%
%TO.N,Net-(J9-Pad8)*%
X120721100Y-135636000D03*
%TO.P,U4,2*%
%TO.N,Net-(K1-Pad4)*%
X115321100Y-135636000D03*
%TD*%
%TO.P,U2,4*%
%TO.N,Net-(J10-Pad7)*%
%TA.AperFunction,SMDPad,CuDef*%
G36*
G01*
X161065600Y-135113000D02*
X160118400Y-135113000D01*
G75*
G02*
X159852000Y-134846600I0J266400D01*
G01*
X159852000Y-133229400D01*
G75*
G02*
X160118400Y-132963000I266400J0D01*
G01*
X161065600Y-132963000D01*
G75*
G02*
X161332000Y-133229400I0J-266400D01*
G01*
X161332000Y-134846600D01*
G75*
G02*
X161065600Y-135113000I-266400J0D01*
G01*
G37*
%TD.AperFunction*%
%TO.P,U2,3*%
%TO.N,GND*%
%TA.AperFunction,SMDPad,CuDef*%
G36*
G01*
X163605600Y-135113000D02*
X162658400Y-135113000D01*
G75*
G02*
X162392000Y-134846600I0J266400D01*
G01*
X162392000Y-133229400D01*
G75*
G02*
X162658400Y-132963000I266400J0D01*
G01*
X163605600Y-132963000D01*
G75*
G02*
X163872000Y-133229400I0J-266400D01*
G01*
X163872000Y-134846600D01*
G75*
G02*
X163605600Y-135113000I-266400J0D01*
G01*
G37*
%TD.AperFunction*%
%TO.P,U2,2*%
%TO.N,Net-(J3-Pad9)*%
%TA.AperFunction,SMDPad,CuDef*%
G36*
G01*
X163605600Y-143673000D02*
X162658400Y-143673000D01*
G75*
G02*
X162392000Y-143406600I0J266400D01*
G01*
X162392000Y-141789400D01*
G75*
G02*
X162658400Y-141523000I266400J0D01*
G01*
X163605600Y-141523000D01*
G75*
G02*
X163872000Y-141789400I0J-266400D01*
G01*
X163872000Y-143406600D01*
G75*
G02*
X163605600Y-143673000I-266400J0D01*
G01*
G37*
%TD.AperFunction*%
%TO.P,U2,1*%
%TO.N,Net-(R2-Pad2)*%
%TA.AperFunction,SMDPad,CuDef*%
G36*
G01*
X161065600Y-143673000D02*
X160118400Y-143673000D01*
G75*
G02*
X159852000Y-143406600I0J266400D01*
G01*
X159852000Y-141789400D01*
G75*
G02*
X160118400Y-141523000I266400J0D01*
G01*
X161065600Y-141523000D01*
G75*
G02*
X161332000Y-141789400I0J-266400D01*
G01*
X161332000Y-143406600D01*
G75*
G02*
X161065600Y-143673000I-266400J0D01*
G01*
G37*
%TD.AperFunction*%
%TD*%
%TO.P,U1,4*%
%TO.N,Net-(J10-Pad6)*%
%TA.AperFunction,SMDPad,CuDef*%
G36*
G01*
X154915600Y-135113000D02*
X153968400Y-135113000D01*
G75*
G02*
X153702000Y-134846600I0J266400D01*
G01*
X153702000Y-133229400D01*
G75*
G02*
X153968400Y-132963000I266400J0D01*
G01*
X154915600Y-132963000D01*
G75*
G02*
X155182000Y-133229400I0J-266400D01*
G01*
X155182000Y-134846600D01*
G75*
G02*
X154915600Y-135113000I-266400J0D01*
G01*
G37*
%TD.AperFunction*%
%TO.P,U1,3*%
%TO.N,GND*%
%TA.AperFunction,SMDPad,CuDef*%
G36*
G01*
X157455600Y-135113000D02*
X156508400Y-135113000D01*
G75*
G02*
X156242000Y-134846600I0J266400D01*
G01*
X156242000Y-133229400D01*
G75*
G02*
X156508400Y-132963000I266400J0D01*
G01*
X157455600Y-132963000D01*
G75*
G02*
X157722000Y-133229400I0J-266400D01*
G01*
X157722000Y-134846600D01*
G75*
G02*
X157455600Y-135113000I-266400J0D01*
G01*
G37*
%TD.AperFunction*%
%TO.P,U1,2*%
%TO.N,Net-(J3-Pad10)*%
%TA.AperFunction,SMDPad,CuDef*%
G36*
G01*
X157455600Y-143673000D02*
X156508400Y-143673000D01*
G75*
G02*
X156242000Y-143406600I0J266400D01*
G01*
X156242000Y-141789400D01*
G75*
G02*
X156508400Y-141523000I266400J0D01*
G01*
X157455600Y-141523000D01*
G75*
G02*
X157722000Y-141789400I0J-266400D01*
G01*
X157722000Y-143406600D01*
G75*
G02*
X157455600Y-143673000I-266400J0D01*
G01*
G37*
%TD.AperFunction*%
%TO.P,U1,1*%
%TO.N,Net-(R1-Pad2)*%
%TA.AperFunction,SMDPad,CuDef*%
G36*
G01*
X154915600Y-143673000D02*
X153968400Y-143673000D01*
G75*
G02*
X153702000Y-143406600I0J266400D01*
G01*
X153702000Y-141789400D01*
G75*
G02*
X153968400Y-141523000I266400J0D01*
G01*
X154915600Y-141523000D01*
G75*
G02*
X155182000Y-141789400I0J-266400D01*
G01*
X155182000Y-143406600D01*
G75*
G02*
X154915600Y-143673000I-266400J0D01*
G01*
G37*
%TD.AperFunction*%
%TD*%
D16*
%TO.P,C10,2*%
%TO.N,GND*%
X77608300Y-127114300D03*
%TO.P,C10,1*%
%TO.N,Net-(C10-Pad1)*%
X67908300Y-127114300D03*
%TD*%
%TO.P,C9,2*%
%TO.N,GND*%
%TA.AperFunction,SMDPad,CuDef*%
G36*
G01*
X76396600Y-144037560D02*
X76396600Y-142037560D01*
G75*
G02*
X76646600Y-141787560I250000J0D01*
G01*
X80146600Y-141787560D01*
G75*
G02*
X80396600Y-142037560I0J-250000D01*
G01*
X80396600Y-144037560D01*
G75*
G02*
X80146600Y-144287560I-250000J0D01*
G01*
X76646600Y-144287560D01*
G75*
G02*
X76396600Y-144037560I0J250000D01*
G01*
G37*
%TD.AperFunction*%
%TO.P,C9,1*%
%TO.N,Net-(C9-Pad1)*%
%TA.AperFunction,SMDPad,CuDef*%
G36*
G01*
X68396600Y-144037560D02*
X68396600Y-142037560D01*
G75*
G02*
X68646600Y-141787560I250000J0D01*
G01*
X72146600Y-141787560D01*
G75*
G02*
X72396600Y-142037560I0J-250000D01*
G01*
X72396600Y-144037560D01*
G75*
G02*
X72146600Y-144287560I-250000J0D01*
G01*
X68646600Y-144287560D01*
G75*
G02*
X68396600Y-144037560I0J250000D01*
G01*
G37*
%TD.AperFunction*%
%TD*%
D17*
%TO.P,L1,2*%
%TO.N,Net-(C10-Pad1)*%
X57315100Y-109477000D03*
%TO.P,L1,1*%
%TO.N,Net-(D2-Pad1)*%
X57315100Y-119377000D03*
%TD*%
D18*
%TO.P,J12,MH2*%
%TO.N,N/C*%
X45006800Y-160873980D03*
%TO.P,J12,MH1*%
X29516800Y-160873980D03*
D19*
%TO.P,J12,12*%
%TO.N,Net-(J12-Pad12)*%
X43886800Y-168823980D03*
%TO.P,J12,11*%
%TO.N,Net-(J12-Pad11)*%
X41346800Y-168823980D03*
%TO.P,J12,10*%
%TO.N,GND*%
X33176800Y-168823980D03*
%TO.P,J12,9*%
%TO.N,Net-(J11-Pad3)*%
X30636800Y-168823980D03*
D20*
%TO.P,J12,8*%
%TO.N,GND*%
X41706800Y-155033980D03*
%TO.P,J12,7*%
%TO.N,Net-(J12-Pad7)*%
X40436800Y-157573980D03*
%TO.P,J12,6*%
%TO.N,Net-(J11-Pad2)*%
X39166800Y-155033980D03*
%TO.P,J12,5*%
%TO.N,Net-(C8-Pad1)*%
X37896800Y-157573980D03*
%TO.P,J12,4*%
X36626800Y-155033980D03*
%TO.P,J12,3*%
%TO.N,Net-(J11-Pad1)*%
X35356800Y-157573980D03*
%TO.P,J12,2*%
%TO.N,Net-(J11-Pad5)*%
X34086800Y-155033980D03*
%TO.P,J12,1*%
%TO.N,Net-(J11-Pad6)*%
X32816800Y-157573980D03*
%TD*%
D21*
%TO.P,D4,2*%
%TO.N,Net-(D4-Pad2)*%
X90380820Y-130159300D03*
D22*
%TO.P,D4,1*%
%TO.N,Net-(C10-Pad1)*%
X90380820Y-144259300D03*
%TD*%
D23*
%TO.P,K1,5*%
%TO.N,Net-(K1-Pad5)*%
X108770800Y-131191000D03*
%TO.P,K1,4*%
%TO.N,Net-(K1-Pad4)*%
X108770800Y-143191000D03*
%TO.P,K1,3*%
%TO.N,Net-(C10-Pad1)*%
X96570800Y-143191000D03*
D24*
%TO.P,K1,2*%
%TO.N,Net-(K1-Pad2)*%
X94570800Y-137191000D03*
D23*
%TO.P,K1,1*%
%TO.N,Net-(D4-Pad2)*%
X96570800Y-131191000D03*
%TD*%
D25*
%TO.P,KF1,6*%
%TO.N,GND*%
X104622600Y-161034600D03*
X104622600Y-168654600D03*
%TO.P,KF1,5*%
%TO.N,Net-(J3-Pad8)*%
X99542600Y-161034600D03*
X99542600Y-168654600D03*
%TO.P,KF1,4*%
%TO.N,Net-(J3-Pad11)*%
X94462600Y-161034600D03*
X94462600Y-168654600D03*
%TO.P,KF1,3*%
%TO.N,Net-(K1-Pad2)*%
X89382600Y-161034600D03*
X89382600Y-168654600D03*
%TO.P,KF1,2*%
%TO.N,Net-(F1-Pad2)*%
X84302600Y-161034600D03*
X84302600Y-168654600D03*
D26*
%TO.P,KF1,1*%
X79222600Y-161034600D03*
X79222600Y-168654600D03*
%TD*%
D24*
%TO.P,D3,2*%
%TO.N,Net-(D3-Pad2)*%
X49893620Y-152481280D03*
D27*
%TO.P,D3,1*%
%TO.N,Net-(C9-Pad1)*%
X78493620Y-152481280D03*
%TD*%
%TO.P,J15,MP*%
%TO.N,N/C*%
%TA.AperFunction,SMDPad,CuDef*%
G36*
G01*
X166810601Y-85480800D02*
X165510599Y-85480800D01*
G75*
G02*
X165260600Y-85230801I0J249999D01*
G01*
X165260600Y-84530799D01*
G75*
G02*
X165510599Y-84280800I249999J0D01*
G01*
X166810601Y-84280800D01*
G75*
G02*
X167060600Y-84530799I0J-249999D01*
G01*
X167060600Y-85230801D01*
G75*
G02*
X166810601Y-85480800I-249999J0D01*
G01*
G37*
%TD.AperFunction*%
%TA.AperFunction,SMDPad,CuDef*%
G36*
G01*
X166810601Y-91080800D02*
X165510599Y-91080800D01*
G75*
G02*
X165260600Y-90830801I0J249999D01*
G01*
X165260600Y-90130799D01*
G75*
G02*
X165510599Y-89880800I249999J0D01*
G01*
X166810601Y-89880800D01*
G75*
G02*
X167060600Y-90130799I0J-249999D01*
G01*
X167060600Y-90830801D01*
G75*
G02*
X166810601Y-91080800I-249999J0D01*
G01*
G37*
%TD.AperFunction*%
%TO.P,J15,4*%
%TO.N,Net-(J14-Pad5)*%
%TA.AperFunction,SMDPad,CuDef*%
G36*
G01*
X169310600Y-86480800D02*
X168060600Y-86480800D01*
G75*
G02*
X167910600Y-86330800I0J150000D01*
G01*
X167910600Y-86030800D01*
G75*
G02*
X168060600Y-85880800I150000J0D01*
G01*
X169310600Y-85880800D01*
G75*
G02*
X169460600Y-86030800I0J-150000D01*
G01*
X169460600Y-86330800D01*
G75*
G02*
X169310600Y-86480800I-150000J0D01*
G01*
G37*
%TD.AperFunction*%
%TO.P,J15,3*%
%TO.N,Net-(J14-Pad4)*%
%TA.AperFunction,SMDPad,CuDef*%
G36*
G01*
X169310600Y-87480800D02*
X168060600Y-87480800D01*
G75*
G02*
X167910600Y-87330800I0J150000D01*
G01*
X167910600Y-87030800D01*
G75*
G02*
X168060600Y-86880800I150000J0D01*
G01*
X169310600Y-86880800D01*
G75*
G02*
X169460600Y-87030800I0J-150000D01*
G01*
X169460600Y-87330800D01*
G75*
G02*
X169310600Y-87480800I-150000J0D01*
G01*
G37*
%TD.AperFunction*%
%TO.P,J15,2*%
%TO.N,Net-(J15-Pad2)*%
%TA.AperFunction,SMDPad,CuDef*%
G36*
G01*
X169310600Y-88480800D02*
X168060600Y-88480800D01*
G75*
G02*
X167910600Y-88330800I0J150000D01*
G01*
X167910600Y-88030800D01*
G75*
G02*
X168060600Y-87880800I150000J0D01*
G01*
X169310600Y-87880800D01*
G75*
G02*
X169460600Y-88030800I0J-150000D01*
G01*
X169460600Y-88330800D01*
G75*
G02*
X169310600Y-88480800I-150000J0D01*
G01*
G37*
%TD.AperFunction*%
%TO.P,J15,1*%
%TO.N,GND*%
%TA.AperFunction,SMDPad,CuDef*%
G36*
G01*
X169310600Y-89480800D02*
X168060600Y-89480800D01*
G75*
G02*
X167910600Y-89330800I0J150000D01*
G01*
X167910600Y-89030800D01*
G75*
G02*
X168060600Y-88880800I150000J0D01*
G01*
X169310600Y-88880800D01*
G75*
G02*
X169460600Y-89030800I0J-150000D01*
G01*
X169460600Y-89330800D01*
G75*
G02*
X169310600Y-89480800I-150000J0D01*
G01*
G37*
%TD.AperFunction*%
%TD*%
%TO.P,C4,2*%
%TO.N,GND*%
%TA.AperFunction,SMDPad,CuDef*%
G36*
G01*
X88821240Y-121613080D02*
X89771240Y-121613080D01*
G75*
G02*
X90021240Y-121863080I0J-250000D01*
G01*
X90021240Y-122363080D01*
G75*
G02*
X89771240Y-122613080I-250000J0D01*
G01*
X88821240Y-122613080D01*
G75*
G02*
X88571240Y-122363080I0J250000D01*
G01*
X88571240Y-121863080D01*
G75*
G02*
X88821240Y-121613080I250000J0D01*
G01*
G37*
%TD.AperFunction*%
%TO.P,C4,1*%
%TO.N,Net-(C1-Pad1)*%
%TA.AperFunction,SMDPad,CuDef*%
G36*
G01*
X88821240Y-119713080D02*
X89771240Y-119713080D01*
G75*
G02*
X90021240Y-119963080I0J-250000D01*
G01*
X90021240Y-120463080D01*
G75*
G02*
X89771240Y-120713080I-250000J0D01*
G01*
X88821240Y-120713080D01*
G75*
G02*
X88571240Y-120463080I0J250000D01*
G01*
X88571240Y-119963080D01*
G75*
G02*
X88821240Y-119713080I250000J0D01*
G01*
G37*
%TD.AperFunction*%
%TD*%
%TO.P,C1,2*%
%TO.N,GND*%
%TA.AperFunction,SMDPad,CuDef*%
G36*
G01*
X151896660Y-120639820D02*
X151896660Y-121589820D01*
G75*
G02*
X151646660Y-121839820I-250000J0D01*
G01*
X151146660Y-121839820D01*
G75*
G02*
X150896660Y-121589820I0J250000D01*
G01*
X150896660Y-120639820D01*
G75*
G02*
X151146660Y-120389820I250000J0D01*
G01*
X151646660Y-120389820D01*
G75*
G02*
X151896660Y-120639820I0J-250000D01*
G01*
G37*
%TD.AperFunction*%
%TO.P,C1,1*%
%TO.N,Net-(C1-Pad1)*%
%TA.AperFunction,SMDPad,CuDef*%
G36*
G01*
X153796660Y-120639820D02*
X153796660Y-121589820D01*
G75*
G02*
X153546660Y-121839820I-250000J0D01*
G01*
X153046660Y-121839820D01*
G75*
G02*
X152796660Y-121589820I0J250000D01*
G01*
X152796660Y-120639820D01*
G75*
G02*
X153046660Y-120389820I250000J0D01*
G01*
X153546660Y-120389820D01*
G75*
G02*
X153796660Y-120639820I0J-250000D01*
G01*
G37*
%TD.AperFunction*%
%TD*%
D28*
%TO.P,J23,4*%
%TO.N,GND*%
X94145100Y-59654700D03*
%TO.P,J23,3*%
%TO.N,Net-(J23-Pad3)*%
X94145100Y-57654700D03*
%TO.P,J23,2*%
%TO.N,Net-(J13-Pad4)*%
X94145100Y-55654700D03*
D29*
%TO.P,J23,1*%
%TO.N,Net-(J13-Pad5)*%
X94145100Y-53654700D03*
%TD*%
D30*
%TO.P,REF\u002A\u002A,*%
%TO.N,*%
X93331360Y-124118700D03*
X118731360Y-124118700D03*
%TD*%
D31*
%TO.P,U5,1*%
%TO.N,GND*%
X76181820Y-103399560D03*
%TO.P,U5,3*%
%TO.N,Net-(C10-Pad1)*%
X76181820Y-107999560D03*
%TO.P,U5,2*%
%TO.N,Net-(C1-Pad1)*%
X76181820Y-105699560D03*
D32*
%TO.P,U5,4*%
%TO.N,N/C*%
X82481820Y-105699560D03*
%TD*%
%TO.P,U3,4*%
%TO.N,Net-(J10-Pad2)*%
%TA.AperFunction,SMDPad,CuDef*%
G36*
G01*
X167215600Y-135113000D02*
X166268400Y-135113000D01*
G75*
G02*
X166002000Y-134846600I0J266400D01*
G01*
X166002000Y-133229400D01*
G75*
G02*
X166268400Y-132963000I266400J0D01*
G01*
X167215600Y-132963000D01*
G75*
G02*
X167482000Y-133229400I0J-266400D01*
G01*
X167482000Y-134846600D01*
G75*
G02*
X167215600Y-135113000I-266400J0D01*
G01*
G37*
%TD.AperFunction*%
%TO.P,U3,3*%
%TO.N,GND*%
%TA.AperFunction,SMDPad,CuDef*%
G36*
G01*
X169755600Y-135113000D02*
X168808400Y-135113000D01*
G75*
G02*
X168542000Y-134846600I0J266400D01*
G01*
X168542000Y-133229400D01*
G75*
G02*
X168808400Y-132963000I266400J0D01*
G01*
X169755600Y-132963000D01*
G75*
G02*
X170022000Y-133229400I0J-266400D01*
G01*
X170022000Y-134846600D01*
G75*
G02*
X169755600Y-135113000I-266400J0D01*
G01*
G37*
%TD.AperFunction*%
%TO.P,U3,2*%
%TO.N,Net-(J3-Pad7)*%
%TA.AperFunction,SMDPad,CuDef*%
G36*
G01*
X169755600Y-143673000D02*
X168808400Y-143673000D01*
G75*
G02*
X168542000Y-143406600I0J266400D01*
G01*
X168542000Y-141789400D01*
G75*
G02*
X168808400Y-141523000I266400J0D01*
G01*
X169755600Y-141523000D01*
G75*
G02*
X170022000Y-141789400I0J-266400D01*
G01*
X170022000Y-143406600D01*
G75*
G02*
X169755600Y-143673000I-266400J0D01*
G01*
G37*
%TD.AperFunction*%
%TO.P,U3,1*%
%TO.N,Net-(R3-Pad2)*%
%TA.AperFunction,SMDPad,CuDef*%
G36*
G01*
X167215600Y-143673000D02*
X166268400Y-143673000D01*
G75*
G02*
X166002000Y-143406600I0J266400D01*
G01*
X166002000Y-141789400D01*
G75*
G02*
X166268400Y-141523000I266400J0D01*
G01*
X167215600Y-141523000D01*
G75*
G02*
X167482000Y-141789400I0J-266400D01*
G01*
X167482000Y-143406600D01*
G75*
G02*
X167215600Y-143673000I-266400J0D01*
G01*
G37*
%TD.AperFunction*%
%TD*%
%TO.P,R10,2*%
%TO.N,Net-(J9-Pad4)*%
%TA.AperFunction,SMDPad,CuDef*%
G36*
G01*
X86157383Y-119074360D02*
X84007377Y-119074360D01*
G75*
G02*
X83757380Y-118824363I0J249997D01*
G01*
X83757380Y-118199357D01*
G75*
G02*
X84007377Y-117949360I249997J0D01*
G01*
X86157383Y-117949360D01*
G75*
G02*
X86407380Y-118199357I0J-249997D01*
G01*
X86407380Y-118824363D01*
G75*
G02*
X86157383Y-119074360I-249997J0D01*
G01*
G37*
%TD.AperFunction*%
%TO.P,R10,1*%
%TO.N,Net-(Q1-Pad1)*%
%TA.AperFunction,SMDPad,CuDef*%
G36*
G01*
X86157383Y-121999360D02*
X84007377Y-121999360D01*
G75*
G02*
X83757380Y-121749363I0J249997D01*
G01*
X83757380Y-121124357D01*
G75*
G02*
X84007377Y-120874360I249997J0D01*
G01*
X86157383Y-120874360D01*
G75*
G02*
X86407380Y-121124357I0J-249997D01*
G01*
X86407380Y-121749363D01*
G75*
G02*
X86157383Y-121999360I-249997J0D01*
G01*
G37*
%TD.AperFunction*%
%TD*%
%TO.P,R9,2*%
%TO.N,Net-(IC1-Pad4)*%
%TA.AperFunction,SMDPad,CuDef*%
G36*
G01*
X138311203Y-90082800D02*
X136161197Y-90082800D01*
G75*
G02*
X135911200Y-89832803I0J249997D01*
G01*
X135911200Y-89207797D01*
G75*
G02*
X136161197Y-88957800I249997J0D01*
G01*
X138311203Y-88957800D01*
G75*
G02*
X138561200Y-89207797I0J-249997D01*
G01*
X138561200Y-89832803D01*
G75*
G02*
X138311203Y-90082800I-249997J0D01*
G01*
G37*
%TD.AperFunction*%
%TO.P,R9,1*%
%TO.N,Net-(IC1-Pad2)*%
%TA.AperFunction,SMDPad,CuDef*%
G36*
G01*
X138311203Y-93007800D02*
X136161197Y-93007800D01*
G75*
G02*
X135911200Y-92757803I0J249997D01*
G01*
X135911200Y-92132797D01*
G75*
G02*
X136161197Y-91882800I249997J0D01*
G01*
X138311203Y-91882800D01*
G75*
G02*
X138561200Y-92132797I0J-249997D01*
G01*
X138561200Y-92757803D01*
G75*
G02*
X138311203Y-93007800I-249997J0D01*
G01*
G37*
%TD.AperFunction*%
%TD*%
%TO.P,R8,2*%
%TO.N,Net-(IC1-Pad3)*%
%TA.AperFunction,SMDPad,CuDef*%
G36*
G01*
X134247203Y-89930400D02*
X132097197Y-89930400D01*
G75*
G02*
X131847200Y-89680403I0J249997D01*
G01*
X131847200Y-89055397D01*
G75*
G02*
X132097197Y-88805400I249997J0D01*
G01*
X134247203Y-88805400D01*
G75*
G02*
X134497200Y-89055397I0J-249997D01*
G01*
X134497200Y-89680403D01*
G75*
G02*
X134247203Y-89930400I-249997J0D01*
G01*
G37*
%TD.AperFunction*%
%TO.P,R8,1*%
%TO.N,Net-(IC1-Pad2)*%
%TA.AperFunction,SMDPad,CuDef*%
G36*
G01*
X134247203Y-92855400D02*
X132097197Y-92855400D01*
G75*
G02*
X131847200Y-92605403I0J249997D01*
G01*
X131847200Y-91980397D01*
G75*
G02*
X132097197Y-91730400I249997J0D01*
G01*
X134247203Y-91730400D01*
G75*
G02*
X134497200Y-91980397I0J-249997D01*
G01*
X134497200Y-92605403D01*
G75*
G02*
X134247203Y-92855400I-249997J0D01*
G01*
G37*
%TD.AperFunction*%
%TD*%
%TO.P,R7,2*%
%TO.N,Net-(IC1-Pad6)*%
%TA.AperFunction,SMDPad,CuDef*%
G36*
G01*
X122360003Y-102619700D02*
X120209997Y-102619700D01*
G75*
G02*
X119960000Y-102369703I0J249997D01*
G01*
X119960000Y-101744697D01*
G75*
G02*
X120209997Y-101494700I249997J0D01*
G01*
X122360003Y-101494700D01*
G75*
G02*
X122610000Y-101744697I0J-249997D01*
G01*
X122610000Y-102369703D01*
G75*
G02*
X122360003Y-102619700I-249997J0D01*
G01*
G37*
%TD.AperFunction*%
%TO.P,R7,1*%
%TO.N,Net-(C10-Pad1)*%
%TA.AperFunction,SMDPad,CuDef*%
G36*
G01*
X122360003Y-105544700D02*
X120209997Y-105544700D01*
G75*
G02*
X119960000Y-105294703I0J249997D01*
G01*
X119960000Y-104669697D01*
G75*
G02*
X120209997Y-104419700I249997J0D01*
G01*
X122360003Y-104419700D01*
G75*
G02*
X122610000Y-104669697I0J-249997D01*
G01*
X122610000Y-105294703D01*
G75*
G02*
X122360003Y-105544700I-249997J0D01*
G01*
G37*
%TD.AperFunction*%
%TD*%
%TO.P,R6,2*%
%TO.N,Net-(IC1-Pad5)*%
%TA.AperFunction,SMDPad,CuDef*%
G36*
G01*
X126982803Y-102655800D02*
X124832797Y-102655800D01*
G75*
G02*
X124582800Y-102405803I0J249997D01*
G01*
X124582800Y-101780797D01*
G75*
G02*
X124832797Y-101530800I249997J0D01*
G01*
X126982803Y-101530800D01*
G75*
G02*
X127232800Y-101780797I0J-249997D01*
G01*
X127232800Y-102405803D01*
G75*
G02*
X126982803Y-102655800I-249997J0D01*
G01*
G37*
%TD.AperFunction*%
%TO.P,R6,1*%
%TO.N,Net-(C10-Pad1)*%
%TA.AperFunction,SMDPad,CuDef*%
G36*
G01*
X126982803Y-105580800D02*
X124832797Y-105580800D01*
G75*
G02*
X124582800Y-105330803I0J249997D01*
G01*
X124582800Y-104705797D01*
G75*
G02*
X124832797Y-104455800I249997J0D01*
G01*
X126982803Y-104455800D01*
G75*
G02*
X127232800Y-104705797I0J-249997D01*
G01*
X127232800Y-105330803D01*
G75*
G02*
X126982803Y-105580800I-249997J0D01*
G01*
G37*
%TD.AperFunction*%
%TD*%
%TO.P,R5,2*%
%TO.N,Net-(IC1-Pad7)*%
%TA.AperFunction,SMDPad,CuDef*%
G36*
G01*
X131379800Y-107196203D02*
X131379800Y-105046197D01*
G75*
G02*
X131629797Y-104796200I249997J0D01*
G01*
X132254803Y-104796200D01*
G75*
G02*
X132504800Y-105046197I0J-249997D01*
G01*
X132504800Y-107196203D01*
G75*
G02*
X132254803Y-107446200I-249997J0D01*
G01*
X131629797Y-107446200D01*
G75*
G02*
X131379800Y-107196203I0J249997D01*
G01*
G37*
%TD.AperFunction*%
%TO.P,R5,1*%
%TO.N,Net-(C10-Pad1)*%
%TA.AperFunction,SMDPad,CuDef*%
G36*
G01*
X128454800Y-107196203D02*
X128454800Y-105046197D01*
G75*
G02*
X128704797Y-104796200I249997J0D01*
G01*
X129329803Y-104796200D01*
G75*
G02*
X129579800Y-105046197I0J-249997D01*
G01*
X129579800Y-107196203D01*
G75*
G02*
X129329803Y-107446200I-249997J0D01*
G01*
X128704797Y-107446200D01*
G75*
G02*
X128454800Y-107196203I0J249997D01*
G01*
G37*
%TD.AperFunction*%
%TD*%
%TO.P,R4,2*%
%TO.N,Net-(J3-Pad4)*%
%TA.AperFunction,SMDPad,CuDef*%
G36*
G01*
X141190397Y-143698800D02*
X143340403Y-143698800D01*
G75*
G02*
X143590400Y-143948797I0J-249997D01*
G01*
X143590400Y-144573803D01*
G75*
G02*
X143340403Y-144823800I-249997J0D01*
G01*
X141190397Y-144823800D01*
G75*
G02*
X140940400Y-144573803I0J249997D01*
G01*
X140940400Y-143948797D01*
G75*
G02*
X141190397Y-143698800I249997J0D01*
G01*
G37*
%TD.AperFunction*%
%TO.P,R4,1*%
%TO.N,Net-(D1-Pad1)*%
%TA.AperFunction,SMDPad,CuDef*%
G36*
G01*
X141190397Y-140773800D02*
X143340403Y-140773800D01*
G75*
G02*
X143590400Y-141023797I0J-249997D01*
G01*
X143590400Y-141648803D01*
G75*
G02*
X143340403Y-141898800I-249997J0D01*
G01*
X141190397Y-141898800D01*
G75*
G02*
X140940400Y-141648803I0J249997D01*
G01*
X140940400Y-141023797D01*
G75*
G02*
X141190397Y-140773800I249997J0D01*
G01*
G37*
%TD.AperFunction*%
%TD*%
%TO.P,R3,2*%
%TO.N,Net-(R3-Pad2)*%
%TA.AperFunction,SMDPad,CuDef*%
G36*
G01*
X149591600Y-134323403D02*
X149591600Y-132173397D01*
G75*
G02*
X149841597Y-131923400I249997J0D01*
G01*
X150466603Y-131923400D01*
G75*
G02*
X150716600Y-132173397I0J-249997D01*
G01*
X150716600Y-134323403D01*
G75*
G02*
X150466603Y-134573400I-249997J0D01*
G01*
X149841597Y-134573400D01*
G75*
G02*
X149591600Y-134323403I0J249997D01*
G01*
G37*
%TD.AperFunction*%
%TO.P,R3,1*%
%TO.N,Net-(C10-Pad1)*%
%TA.AperFunction,SMDPad,CuDef*%
G36*
G01*
X146666600Y-134323403D02*
X146666600Y-132173397D01*
G75*
G02*
X146916597Y-131923400I249997J0D01*
G01*
X147541603Y-131923400D01*
G75*
G02*
X147791600Y-132173397I0J-249997D01*
G01*
X147791600Y-134323403D01*
G75*
G02*
X147541603Y-134573400I-249997J0D01*
G01*
X146916597Y-134573400D01*
G75*
G02*
X146666600Y-134323403I0J249997D01*
G01*
G37*
%TD.AperFunction*%
%TD*%
%TO.P,R2,2*%
%TO.N,Net-(R2-Pad2)*%
%TA.AperFunction,SMDPad,CuDef*%
G36*
G01*
X149591600Y-139149403D02*
X149591600Y-136999397D01*
G75*
G02*
X149841597Y-136749400I249997J0D01*
G01*
X150466603Y-136749400D01*
G75*
G02*
X150716600Y-136999397I0J-249997D01*
G01*
X150716600Y-139149403D01*
G75*
G02*
X150466603Y-139399400I-249997J0D01*
G01*
X149841597Y-139399400D01*
G75*
G02*
X149591600Y-139149403I0J249997D01*
G01*
G37*
%TD.AperFunction*%
%TO.P,R2,1*%
%TO.N,Net-(C10-Pad1)*%
%TA.AperFunction,SMDPad,CuDef*%
G36*
G01*
X146666600Y-139149403D02*
X146666600Y-136999397D01*
G75*
G02*
X146916597Y-136749400I249997J0D01*
G01*
X147541603Y-136749400D01*
G75*
G02*
X147791600Y-136999397I0J-249997D01*
G01*
X147791600Y-139149403D01*
G75*
G02*
X147541603Y-139399400I-249997J0D01*
G01*
X146916597Y-139399400D01*
G75*
G02*
X146666600Y-139149403I0J249997D01*
G01*
G37*
%TD.AperFunction*%
%TD*%
%TO.P,R1,2*%
%TO.N,Net-(R1-Pad2)*%
%TA.AperFunction,SMDPad,CuDef*%
G36*
G01*
X149642400Y-143772203D02*
X149642400Y-141622197D01*
G75*
G02*
X149892397Y-141372200I249997J0D01*
G01*
X150517403Y-141372200D01*
G75*
G02*
X150767400Y-141622197I0J-249997D01*
G01*
X150767400Y-143772203D01*
G75*
G02*
X150517403Y-144022200I-249997J0D01*
G01*
X149892397Y-144022200D01*
G75*
G02*
X149642400Y-143772203I0J249997D01*
G01*
G37*
%TD.AperFunction*%
%TO.P,R1,1*%
%TO.N,Net-(C10-Pad1)*%
%TA.AperFunction,SMDPad,CuDef*%
G36*
G01*
X146717400Y-143772203D02*
X146717400Y-141622197D01*
G75*
G02*
X146967397Y-141372200I249997J0D01*
G01*
X147592403Y-141372200D01*
G75*
G02*
X147842400Y-141622197I0J-249997D01*
G01*
X147842400Y-143772203D01*
G75*
G02*
X147592403Y-144022200I-249997J0D01*
G01*
X146967397Y-144022200D01*
G75*
G02*
X146717400Y-143772203I0J249997D01*
G01*
G37*
%TD.AperFunction*%
%TD*%
D33*
%TO.P,Q1,3*%
%TO.N,Net-(D4-Pad2)*%
X85861400Y-130759200D03*
%TO.P,Q1,2*%
%TO.N,GND*%
X83861400Y-131709200D03*
%TO.P,Q1,1*%
%TO.N,Net-(Q1-Pad1)*%
X83861400Y-129809200D03*
%TD*%
D12*
%TO.P,J22,8*%
%TO.N,Net-(J14-Pad7)*%
X165608000Y-24511000D03*
%TO.P,J22,7*%
%TO.N,Net-(J14-Pad6)*%
X163068000Y-24511000D03*
%TO.P,J22,6*%
%TO.N,Net-(J13-Pad13)*%
X160528000Y-24511000D03*
%TO.P,J22,5*%
%TO.N,Net-(J22-Pad5)*%
X157988000Y-24511000D03*
%TO.P,J22,4*%
%TO.N,Net-(J22-Pad4)*%
X155448000Y-24511000D03*
%TO.P,J22,3*%
%TO.N,Net-(J22-Pad3)*%
X152908000Y-24511000D03*
%TO.P,J22,2*%
%TO.N,Net-(J22-Pad2)*%
X150368000Y-24511000D03*
D13*
%TO.P,J22,1*%
%TO.N,Net-(J22-Pad1)*%
X147828000Y-24511000D03*
%TD*%
D12*
%TO.P,J21,10*%
%TO.N,Net-(J13-Pad12)*%
X143768000Y-24511000D03*
%TO.P,J21,9*%
%TO.N,Net-(J21-Pad9)*%
X141228000Y-24511000D03*
%TO.P,J21,8*%
%TO.N,Net-(J21-Pad8)*%
X138688000Y-24511000D03*
%TO.P,J21,7*%
%TO.N,Net-(J21-Pad7)*%
X136148000Y-24511000D03*
%TO.P,J21,6*%
%TO.N,Net-(J21-Pad6)*%
X133608000Y-24511000D03*
%TO.P,J21,5*%
%TO.N,Net-(J21-Pad5)*%
X131068000Y-24511000D03*
%TO.P,J21,4*%
%TO.N,GND*%
X128528000Y-24511000D03*
%TO.P,J21,3*%
%TO.N,Net-(J21-Pad3)*%
X125988000Y-24511000D03*
%TO.P,J21,2*%
%TO.N,Net-(J21-Pad2)*%
X123448000Y-24511000D03*
D13*
%TO.P,J21,1*%
%TO.N,Net-(J21-Pad1)*%
X120908000Y-24511000D03*
%TD*%
D12*
%TO.P,J20,10*%
%TO.N,Net-(J20-Pad10)*%
X110794800Y-28336400D03*
%TO.P,J20,9*%
%TO.N,Net-(J20-Pad9)*%
X113334800Y-28336400D03*
%TO.P,J20,8*%
%TO.N,Net-(J20-Pad8)*%
X115874800Y-28336400D03*
%TO.P,J20,7*%
%TO.N,Net-(J20-Pad7)*%
X118414800Y-28336400D03*
%TO.P,J20,6*%
%TO.N,Net-(J20-Pad6)*%
X120954800Y-28336400D03*
%TO.P,J20,5*%
%TO.N,Net-(J20-Pad5)*%
X123494800Y-28336400D03*
%TO.P,J20,4*%
%TO.N,Net-(J20-Pad4)*%
X126034800Y-28336400D03*
%TO.P,J20,3*%
%TO.N,Net-(J20-Pad3)*%
X128574800Y-28336400D03*
%TO.P,J20,2*%
%TO.N,Net-(J20-Pad2)*%
X131114800Y-28336400D03*
D13*
%TO.P,J20,1*%
%TO.N,Net-(J20-Pad1)*%
X133654800Y-28336400D03*
%TD*%
D12*
%TO.P,J19,6*%
%TO.N,Net-(J19-Pad6)*%
X165608000Y-72771000D03*
%TO.P,J19,5*%
%TO.N,Net-(J19-Pad5)*%
X163068000Y-72771000D03*
%TO.P,J19,4*%
%TO.N,Net-(J19-Pad4)*%
X160528000Y-72771000D03*
%TO.P,J19,3*%
%TO.N,Net-(J19-Pad3)*%
X157988000Y-72771000D03*
%TO.P,J19,2*%
%TO.N,Net-(J19-Pad2)*%
X155448000Y-72771000D03*
D13*
%TO.P,J19,1*%
%TO.N,Net-(J19-Pad1)*%
X152908000Y-72771000D03*
%TD*%
D12*
%TO.P,J18,8*%
%TO.N,Net-(J18-Pad8)*%
X147828000Y-72771000D03*
%TO.P,J18,7*%
%TO.N,GND*%
X145288000Y-72771000D03*
%TO.P,J18,6*%
X142748000Y-72771000D03*
%TO.P,J18,5*%
%TO.N,Net-(C10-Pad1)*%
X140208000Y-72771000D03*
%TO.P,J18,4*%
%TO.N,Net-(J18-Pad4)*%
X137668000Y-72771000D03*
%TO.P,J18,3*%
%TO.N,Net-(J18-Pad3)*%
X135128000Y-72771000D03*
%TO.P,J18,2*%
%TO.N,Net-(J13-Pad3)*%
X132588000Y-72771000D03*
D13*
%TO.P,J18,1*%
%TO.N,Net-(J18-Pad1)*%
X130048000Y-72771000D03*
%TD*%
D12*
%TO.P,J17,9*%
%TO.N,Net-(J17-Pad9)*%
X113334800Y-68986400D03*
%TO.P,J17,8*%
%TO.N,Net-(J13-Pad6)*%
X115874800Y-68986400D03*
%TO.P,J17,7*%
%TO.N,Net-(J13-Pad7)*%
X118414800Y-68986400D03*
%TO.P,J17,6*%
%TO.N,Net-(J17-Pad6)*%
X120954800Y-68986400D03*
%TO.P,J17,5*%
%TO.N,Net-(J13-Pad10)*%
X123494800Y-68986400D03*
%TO.P,J17,4*%
%TO.N,Net-(J13-Pad11)*%
X126034800Y-68986400D03*
%TO.P,J17,3*%
%TO.N,Net-(J17-Pad3)*%
X128574800Y-68986400D03*
%TO.P,J17,2*%
%TO.N,Net-(C10-Pad1)*%
X131114800Y-68986400D03*
D13*
%TO.P,J17,1*%
%TO.N,GND*%
X133654800Y-68986400D03*
%TD*%
%TO.P,J16,MP*%
%TO.N,N/C*%
%TA.AperFunction,SMDPad,CuDef*%
G36*
G01*
X94471401Y-76159000D02*
X93171399Y-76159000D01*
G75*
G02*
X92921400Y-75909001I0J249999D01*
G01*
X92921400Y-75208999D01*
G75*
G02*
X93171399Y-74959000I249999J0D01*
G01*
X94471401Y-74959000D01*
G75*
G02*
X94721400Y-75208999I0J-249999D01*
G01*
X94721400Y-75909001D01*
G75*
G02*
X94471401Y-76159000I-249999J0D01*
G01*
G37*
%TD.AperFunction*%
%TA.AperFunction,SMDPad,CuDef*%
G36*
G01*
X94471401Y-81759000D02*
X93171399Y-81759000D01*
G75*
G02*
X92921400Y-81509001I0J249999D01*
G01*
X92921400Y-80808999D01*
G75*
G02*
X93171399Y-80559000I249999J0D01*
G01*
X94471401Y-80559000D01*
G75*
G02*
X94721400Y-80808999I0J-249999D01*
G01*
X94721400Y-81509001D01*
G75*
G02*
X94471401Y-81759000I-249999J0D01*
G01*
G37*
%TD.AperFunction*%
%TO.P,J16,4*%
%TO.N,Net-(J13-Pad5)*%
%TA.AperFunction,SMDPad,CuDef*%
G36*
G01*
X96971400Y-77159000D02*
X95721400Y-77159000D01*
G75*
G02*
X95571400Y-77009000I0J150000D01*
G01*
X95571400Y-76709000D01*
G75*
G02*
X95721400Y-76559000I150000J0D01*
G01*
X96971400Y-76559000D01*
G75*
G02*
X97121400Y-76709000I0J-150000D01*
G01*
X97121400Y-77009000D01*
G75*
G02*
X96971400Y-77159000I-150000J0D01*
G01*
G37*
%TD.AperFunction*%
%TO.P,J16,3*%
%TO.N,Net-(J13-Pad4)*%
%TA.AperFunction,SMDPad,CuDef*%
G36*
G01*
X96971400Y-78159000D02*
X95721400Y-78159000D01*
G75*
G02*
X95571400Y-78009000I0J150000D01*
G01*
X95571400Y-77709000D01*
G75*
G02*
X95721400Y-77559000I150000J0D01*
G01*
X96971400Y-77559000D01*
G75*
G02*
X97121400Y-77709000I0J-150000D01*
G01*
X97121400Y-78009000D01*
G75*
G02*
X96971400Y-78159000I-150000J0D01*
G01*
G37*
%TD.AperFunction*%
%TO.P,J16,2*%
%TO.N,Net-(J16-Pad2)*%
%TA.AperFunction,SMDPad,CuDef*%
G36*
G01*
X96971400Y-79159000D02*
X95721400Y-79159000D01*
G75*
G02*
X95571400Y-79009000I0J150000D01*
G01*
X95571400Y-78709000D01*
G75*
G02*
X95721400Y-78559000I150000J0D01*
G01*
X96971400Y-78559000D01*
G75*
G02*
X97121400Y-78709000I0J-150000D01*
G01*
X97121400Y-79009000D01*
G75*
G02*
X96971400Y-79159000I-150000J0D01*
G01*
G37*
%TD.AperFunction*%
%TO.P,J16,1*%
%TO.N,GND*%
%TA.AperFunction,SMDPad,CuDef*%
G36*
G01*
X96971400Y-80159000D02*
X95721400Y-80159000D01*
G75*
G02*
X95571400Y-80009000I0J150000D01*
G01*
X95571400Y-79709000D01*
G75*
G02*
X95721400Y-79559000I150000J0D01*
G01*
X96971400Y-79559000D01*
G75*
G02*
X97121400Y-79709000I0J-150000D01*
G01*
X97121400Y-80009000D01*
G75*
G02*
X96971400Y-80159000I-150000J0D01*
G01*
G37*
%TD.AperFunction*%
%TD*%
D12*
%TO.P,J14,8*%
%TO.N,Net-(J14-Pad8)*%
X160248600Y-80594200D03*
%TO.P,J14,7*%
%TO.N,Net-(J14-Pad7)*%
X157708600Y-80594200D03*
%TO.P,J14,6*%
%TO.N,Net-(J14-Pad6)*%
X155168600Y-80594200D03*
%TO.P,J14,5*%
%TO.N,Net-(J14-Pad5)*%
X152628600Y-80594200D03*
%TO.P,J14,4*%
%TO.N,Net-(J14-Pad4)*%
X150088600Y-80594200D03*
%TO.P,J14,3*%
%TO.N,Net-(J14-Pad3)*%
X147548600Y-80594200D03*
%TO.P,J14,2*%
%TO.N,Net-(J14-Pad2)*%
X145008600Y-80594200D03*
D13*
%TO.P,J14,1*%
%TO.N,Net-(J14-Pad1)*%
X142468600Y-80594200D03*
%TD*%
D12*
%TO.P,J13,15*%
%TO.N,GND*%
X137388600Y-80594200D03*
%TO.P,J13,14*%
%TO.N,Net-(J13-Pad14)*%
X134848600Y-80594200D03*
%TO.P,J13,13*%
%TO.N,Net-(J13-Pad13)*%
X132308600Y-80594200D03*
%TO.P,J13,12*%
%TO.N,Net-(J13-Pad12)*%
X129768600Y-80594200D03*
%TO.P,J13,11*%
%TO.N,Net-(J13-Pad11)*%
X127228600Y-80594200D03*
%TO.P,J13,10*%
%TO.N,Net-(J13-Pad10)*%
X124688600Y-80594200D03*
%TO.P,J13,9*%
%TO.N,Net-(IC1-Pad4)*%
X122148600Y-80594200D03*
%TO.P,J13,8*%
%TO.N,Net-(IC1-Pad3)*%
X119608600Y-80594200D03*
%TO.P,J13,7*%
%TO.N,Net-(J13-Pad7)*%
X117068600Y-80594200D03*
%TO.P,J13,6*%
%TO.N,Net-(J13-Pad6)*%
X114528600Y-80594200D03*
%TO.P,J13,5*%
%TO.N,Net-(J13-Pad5)*%
X111988600Y-80594200D03*
%TO.P,J13,4*%
%TO.N,Net-(J13-Pad4)*%
X109448600Y-80594200D03*
%TO.P,J13,3*%
%TO.N,Net-(J13-Pad3)*%
X106908600Y-80594200D03*
%TO.P,J13,2*%
%TO.N,GND*%
X104368600Y-80594200D03*
D13*
%TO.P,J13,1*%
%TO.N,Net-(C10-Pad1)*%
X101828600Y-80594200D03*
%TD*%
D34*
%TO.P,J11,6*%
%TO.N,Net-(J11-Pad6)*%
X116798600Y-87032600D03*
%TO.P,J11,5*%
%TO.N,Net-(J11-Pad5)*%
X114798600Y-87032600D03*
%TO.P,J11,4*%
%TO.N,GND*%
X116798600Y-85032600D03*
%TO.P,J11,3*%
%TO.N,Net-(J11-Pad3)*%
X114798600Y-85032600D03*
%TO.P,J11,2*%
%TO.N,Net-(J11-Pad2)*%
X116798600Y-83032600D03*
D35*
%TO.P,J11,1*%
%TO.N,Net-(J11-Pad1)*%
X114798600Y-83032600D03*
%TD*%
D12*
%TO.P,J10,8*%
%TO.N,Net-(J10-Pad8)*%
X160248600Y-95834200D03*
%TO.P,J10,7*%
%TO.N,Net-(J10-Pad7)*%
X157708600Y-95834200D03*
%TO.P,J10,6*%
%TO.N,Net-(J10-Pad6)*%
X155168600Y-95834200D03*
%TO.P,J10,5*%
%TO.N,Net-(J10-Pad5)*%
X152628600Y-95834200D03*
%TO.P,J10,4*%
%TO.N,Net-(J10-Pad4)*%
X150088600Y-95834200D03*
%TO.P,J10,3*%
%TO.N,Net-(J10-Pad3)*%
X147548600Y-95834200D03*
%TO.P,J10,2*%
%TO.N,Net-(J10-Pad2)*%
X145008600Y-95834200D03*
D13*
%TO.P,J10,1*%
%TO.N,Net-(J10-Pad1)*%
X142468600Y-95834200D03*
%TD*%
D12*
%TO.P,J9,15*%
%TO.N,Net-(IC1-Pad2)*%
X137388600Y-95834200D03*
%TO.P,J9,14*%
%TO.N,Net-(J9-Pad14)*%
X134848600Y-95834200D03*
%TO.P,J9,13*%
%TO.N,Net-(J9-Pad13)*%
X132308600Y-95834200D03*
%TO.P,J9,12*%
%TO.N,Net-(J9-Pad12)*%
X129768600Y-95834200D03*
%TO.P,J9,11*%
%TO.N,Net-(J9-Pad11)*%
X127228600Y-95834200D03*
%TO.P,J9,10*%
%TO.N,Net-(J9-Pad10)*%
X124688600Y-95834200D03*
%TO.P,J9,9*%
%TO.N,Net-(J9-Pad9)*%
X122148600Y-95834200D03*
%TO.P,J9,8*%
%TO.N,Net-(J9-Pad8)*%
X119608600Y-95834200D03*
%TO.P,J9,7*%
%TO.N,Net-(J9-Pad7)*%
X117068600Y-95834200D03*
%TO.P,J9,6*%
%TO.N,Net-(J9-Pad6)*%
X114528600Y-95834200D03*
%TO.P,J9,5*%
%TO.N,Net-(J9-Pad5)*%
X111988600Y-95834200D03*
%TO.P,J9,4*%
%TO.N,Net-(J9-Pad4)*%
X109448600Y-95834200D03*
%TO.P,J9,3*%
%TO.N,Net-(J24-Pad2)*%
X106908600Y-95834200D03*
%TO.P,J9,2*%
%TO.N,Net-(J24-Pad1)*%
X104368600Y-95834200D03*
D13*
%TO.P,J9,1*%
%TO.N,GND*%
X101828600Y-95834200D03*
%TD*%
%TO.P,J8,MP*%
%TO.N,N/C*%
%TA.AperFunction,SMDPad,CuDef*%
G36*
G01*
X153203999Y-105273200D02*
X154504001Y-105273200D01*
G75*
G02*
X154754000Y-105523199I0J-249999D01*
G01*
X154754000Y-106223201D01*
G75*
G02*
X154504001Y-106473200I-249999J0D01*
G01*
X153203999Y-106473200D01*
G75*
G02*
X152954000Y-106223201I0J249999D01*
G01*
X152954000Y-105523199D01*
G75*
G02*
X153203999Y-105273200I249999J0D01*
G01*
G37*
%TD.AperFunction*%
%TA.AperFunction,SMDPad,CuDef*%
G36*
G01*
X153203999Y-99673200D02*
X154504001Y-99673200D01*
G75*
G02*
X154754000Y-99923199I0J-249999D01*
G01*
X154754000Y-100623201D01*
G75*
G02*
X154504001Y-100873200I-249999J0D01*
G01*
X153203999Y-100873200D01*
G75*
G02*
X152954000Y-100623201I0J249999D01*
G01*
X152954000Y-99923199D01*
G75*
G02*
X153203999Y-99673200I249999J0D01*
G01*
G37*
%TD.AperFunction*%
%TO.P,J8,4*%
%TO.N,Net-(IC1-Pad3)*%
%TA.AperFunction,SMDPad,CuDef*%
G36*
G01*
X150704000Y-104273200D02*
X151954000Y-104273200D01*
G75*
G02*
X152104000Y-104423200I0J-150000D01*
G01*
X152104000Y-104723200D01*
G75*
G02*
X151954000Y-104873200I-150000J0D01*
G01*
X150704000Y-104873200D01*
G75*
G02*
X150554000Y-104723200I0J150000D01*
G01*
X150554000Y-104423200D01*
G75*
G02*
X150704000Y-104273200I150000J0D01*
G01*
G37*
%TD.AperFunction*%
%TO.P,J8,3*%
%TO.N,Net-(IC1-Pad4)*%
%TA.AperFunction,SMDPad,CuDef*%
G36*
G01*
X150704000Y-103273200D02*
X151954000Y-103273200D01*
G75*
G02*
X152104000Y-103423200I0J-150000D01*
G01*
X152104000Y-103723200D01*
G75*
G02*
X151954000Y-103873200I-150000J0D01*
G01*
X150704000Y-103873200D01*
G75*
G02*
X150554000Y-103723200I0J150000D01*
G01*
X150554000Y-103423200D01*
G75*
G02*
X150704000Y-103273200I150000J0D01*
G01*
G37*
%TD.AperFunction*%
%TO.P,J8,2*%
%TO.N,Net-(C1-Pad1)*%
%TA.AperFunction,SMDPad,CuDef*%
G36*
G01*
X150704000Y-102273200D02*
X151954000Y-102273200D01*
G75*
G02*
X152104000Y-102423200I0J-150000D01*
G01*
X152104000Y-102723200D01*
G75*
G02*
X151954000Y-102873200I-150000J0D01*
G01*
X150704000Y-102873200D01*
G75*
G02*
X150554000Y-102723200I0J150000D01*
G01*
X150554000Y-102423200D01*
G75*
G02*
X150704000Y-102273200I150000J0D01*
G01*
G37*
%TD.AperFunction*%
%TO.P,J8,1*%
%TO.N,GND*%
%TA.AperFunction,SMDPad,CuDef*%
G36*
G01*
X150704000Y-101273200D02*
X151954000Y-101273200D01*
G75*
G02*
X152104000Y-101423200I0J-150000D01*
G01*
X152104000Y-101723200D01*
G75*
G02*
X151954000Y-101873200I-150000J0D01*
G01*
X150704000Y-101873200D01*
G75*
G02*
X150554000Y-101723200I0J150000D01*
G01*
X150554000Y-101423200D01*
G75*
G02*
X150704000Y-101273200I150000J0D01*
G01*
G37*
%TD.AperFunction*%
%TD*%
%TO.P,J7,MP*%
%TO.N,N/C*%
%TA.AperFunction,SMDPad,CuDef*%
G36*
G01*
X146371399Y-105247800D02*
X147671401Y-105247800D01*
G75*
G02*
X147921400Y-105497799I0J-249999D01*
G01*
X147921400Y-106197801D01*
G75*
G02*
X147671401Y-106447800I-249999J0D01*
G01*
X146371399Y-106447800D01*
G75*
G02*
X146121400Y-106197801I0J249999D01*
G01*
X146121400Y-105497799D01*
G75*
G02*
X146371399Y-105247800I249999J0D01*
G01*
G37*
%TD.AperFunction*%
%TA.AperFunction,SMDPad,CuDef*%
G36*
G01*
X146371399Y-99647800D02*
X147671401Y-99647800D01*
G75*
G02*
X147921400Y-99897799I0J-249999D01*
G01*
X147921400Y-100597801D01*
G75*
G02*
X147671401Y-100847800I-249999J0D01*
G01*
X146371399Y-100847800D01*
G75*
G02*
X146121400Y-100597801I0J249999D01*
G01*
X146121400Y-99897799D01*
G75*
G02*
X146371399Y-99647800I249999J0D01*
G01*
G37*
%TD.AperFunction*%
%TO.P,J7,4*%
%TO.N,Net-(IC1-Pad3)*%
%TA.AperFunction,SMDPad,CuDef*%
G36*
G01*
X143871400Y-104247800D02*
X145121400Y-104247800D01*
G75*
G02*
X145271400Y-104397800I0J-150000D01*
G01*
X145271400Y-104697800D01*
G75*
G02*
X145121400Y-104847800I-150000J0D01*
G01*
X143871400Y-104847800D01*
G75*
G02*
X143721400Y-104697800I0J150000D01*
G01*
X143721400Y-104397800D01*
G75*
G02*
X143871400Y-104247800I150000J0D01*
G01*
G37*
%TD.AperFunction*%
%TO.P,J7,3*%
%TO.N,Net-(IC1-Pad4)*%
%TA.AperFunction,SMDPad,CuDef*%
G36*
G01*
X143871400Y-103247800D02*
X145121400Y-103247800D01*
G75*
G02*
X145271400Y-103397800I0J-150000D01*
G01*
X145271400Y-103697800D01*
G75*
G02*
X145121400Y-103847800I-150000J0D01*
G01*
X143871400Y-103847800D01*
G75*
G02*
X143721400Y-103697800I0J150000D01*
G01*
X143721400Y-103397800D01*
G75*
G02*
X143871400Y-103247800I150000J0D01*
G01*
G37*
%TD.AperFunction*%
%TO.P,J7,2*%
%TO.N,Net-(C1-Pad1)*%
%TA.AperFunction,SMDPad,CuDef*%
G36*
G01*
X143871400Y-102247800D02*
X145121400Y-102247800D01*
G75*
G02*
X145271400Y-102397800I0J-150000D01*
G01*
X145271400Y-102697800D01*
G75*
G02*
X145121400Y-102847800I-150000J0D01*
G01*
X143871400Y-102847800D01*
G75*
G02*
X143721400Y-102697800I0J150000D01*
G01*
X143721400Y-102397800D01*
G75*
G02*
X143871400Y-102247800I150000J0D01*
G01*
G37*
%TD.AperFunction*%
%TO.P,J7,1*%
%TO.N,GND*%
%TA.AperFunction,SMDPad,CuDef*%
G36*
G01*
X143871400Y-101247800D02*
X145121400Y-101247800D01*
G75*
G02*
X145271400Y-101397800I0J-150000D01*
G01*
X145271400Y-101697800D01*
G75*
G02*
X145121400Y-101847800I-150000J0D01*
G01*
X143871400Y-101847800D01*
G75*
G02*
X143721400Y-101697800I0J150000D01*
G01*
X143721400Y-101397800D01*
G75*
G02*
X143871400Y-101247800I150000J0D01*
G01*
G37*
%TD.AperFunction*%
%TD*%
D12*
%TO.P,J6,8*%
%TO.N,Net-(J6-Pad8)*%
X97317560Y-125412500D03*
%TO.P,J6,7*%
%TO.N,Net-(J6-Pad7)*%
X99857560Y-125412500D03*
%TO.P,J6,6*%
%TO.N,Net-(J6-Pad6)*%
X102397560Y-125412500D03*
%TO.P,J6,5*%
%TO.N,Net-(J6-Pad5)*%
X104937560Y-125412500D03*
%TO.P,J6,4*%
%TO.N,Net-(J6-Pad4)*%
X107477560Y-125412500D03*
%TO.P,J6,3*%
%TO.N,Net-(J6-Pad3)*%
X110017560Y-125412500D03*
%TO.P,J6,2*%
%TO.N,Net-(C1-Pad1)*%
X112557560Y-125412500D03*
D13*
%TO.P,J6,1*%
%TO.N,GND*%
X115097560Y-125412500D03*
%TD*%
D12*
%TO.P,J5,8*%
%TO.N,Net-(J5-Pad8)*%
X97317560Y-102552500D03*
%TO.P,J5,7*%
%TO.N,Net-(J5-Pad7)*%
X99857560Y-102552500D03*
%TO.P,J5,6*%
%TO.N,Net-(IC1-Pad6)*%
X102397560Y-102552500D03*
%TO.P,J5,5*%
%TO.N,Net-(IC1-Pad5)*%
X104937560Y-102552500D03*
%TO.P,J5,4*%
%TO.N,Net-(J5-Pad4)*%
X107477560Y-102552500D03*
%TO.P,J5,3*%
%TO.N,Net-(J5-Pad3)*%
X110017560Y-102552500D03*
%TO.P,J5,2*%
%TO.N,Net-(J5-Pad2)*%
X112557560Y-102552500D03*
D13*
%TO.P,J5,1*%
%TO.N,Net-(J5-Pad1)*%
X115097560Y-102552500D03*
%TD*%
D12*
%TO.P,J4,6*%
%TO.N,GND*%
X93685360Y-107632500D03*
%TO.P,J4,5*%
%TO.N,Net-(J4-Pad5)*%
X93685360Y-110172500D03*
%TO.P,J4,4*%
%TO.N,Net-(J4-Pad4)*%
X93685360Y-112712500D03*
%TO.P,J4,3*%
%TO.N,Net-(IC1-Pad6)*%
X93685360Y-115252500D03*
%TO.P,J4,2*%
%TO.N,Net-(IC1-Pad5)*%
X93685360Y-117792500D03*
D13*
%TO.P,J4,1*%
%TO.N,Net-(C1-Pad1)*%
X93685360Y-120332500D03*
%TD*%
D36*
%TO.P,J3,MH3*%
%TO.N,Net-(J3-PadMH3)*%
X158576000Y-151159400D03*
%TO.P,J3,MH2*%
%TO.N,Net-(J3-PadMH2)*%
X141036000Y-162589400D03*
%TO.P,J3,MH1*%
%TO.N,Net-(J3-PadMH1)*%
X123496000Y-151159400D03*
D37*
%TO.P,J3,12*%
%TO.N,GND*%
X129921000Y-156489400D03*
%TO.P,J3,11*%
%TO.N,Net-(J3-Pad11)*%
X134366000Y-156489400D03*
%TO.P,J3,10*%
%TO.N,Net-(J3-Pad10)*%
X138811000Y-156489400D03*
%TO.P,J3,9*%
%TO.N,Net-(J3-Pad9)*%
X143261000Y-156489400D03*
%TO.P,J3,8*%
%TO.N,Net-(J3-Pad8)*%
X147706000Y-156489400D03*
%TO.P,J3,7*%
%TO.N,Net-(J3-Pad7)*%
X152151000Y-156489400D03*
%TO.P,J3,6*%
%TO.N,Net-(J3-Pad6)*%
X152151000Y-150139400D03*
%TO.P,J3,5*%
%TO.N,Net-(J3-Pad5)*%
X147706000Y-150139400D03*
%TO.P,J3,4*%
%TO.N,Net-(J3-Pad4)*%
X143261000Y-150139400D03*
%TO.P,J3,3*%
%TO.N,GND*%
X138811000Y-150139400D03*
%TO.P,J3,2*%
%TO.N,Net-(C10-Pad1)*%
X134366000Y-150139400D03*
D38*
%TO.P,J3,1*%
%TO.N,Net-(J3-Pad1)*%
X129921000Y-150139400D03*
%TD*%
D12*
%TO.P,J1,10*%
%TO.N,Net-(J1-Pad10)*%
X148887180Y-125811280D03*
%TO.P,J1,9*%
%TO.N,Net-(J1-Pad9)*%
X146347180Y-125811280D03*
%TO.P,J1,8*%
%TO.N,Net-(J1-Pad8)*%
X143807180Y-125811280D03*
%TO.P,J1,7*%
%TO.N,Net-(D1-Pad1)*%
X141267180Y-125811280D03*
%TO.P,J1,6*%
%TO.N,Net-(J1-Pad6)*%
X138727180Y-125811280D03*
%TO.P,J1,5*%
%TO.N,GND*%
X136187180Y-125811280D03*
%TO.P,J1,4*%
%TO.N,Net-(IC1-Pad5)*%
X133647180Y-125811280D03*
%TO.P,J1,3*%
%TO.N,Net-(IC1-Pad6)*%
X131107180Y-125811280D03*
%TO.P,J1,2*%
%TO.N,GND*%
X128567180Y-125811280D03*
D13*
%TO.P,J1,1*%
%TO.N,Net-(C10-Pad1)*%
X126027180Y-125811280D03*
%TD*%
D39*
%TO.P,IC2,6*%
%TO.N,N/C*%
X51833900Y-138762732D03*
D40*
%TO.P,IC2,5*%
%TO.N,GND*%
X61463900Y-135362732D03*
%TO.P,IC2,4*%
%TO.N,Net-(C10-Pad1)*%
X61463900Y-137062732D03*
%TO.P,IC2,3*%
%TO.N,GND*%
X61463900Y-138762732D03*
%TO.P,IC2,2*%
%TO.N,Net-(D2-Pad1)*%
X61463900Y-140462732D03*
%TO.P,IC2,1*%
%TO.N,Net-(C9-Pad1)*%
X61463900Y-142162732D03*
%TD*%
D41*
%TO.P,IC1,8*%
%TO.N,Net-(IC1-Pad7)*%
X134289600Y-103391400D03*
%TO.P,IC1,7*%
X134289600Y-102891400D03*
%TO.P,IC1,6*%
%TO.N,Net-(IC1-Pad6)*%
X134289600Y-102391400D03*
%TO.P,IC1,5*%
%TO.N,Net-(IC1-Pad5)*%
X134289600Y-101891400D03*
%TO.P,IC1,4*%
%TO.N,Net-(IC1-Pad4)*%
X137439600Y-101891400D03*
%TO.P,IC1,3*%
%TO.N,Net-(IC1-Pad3)*%
X137439600Y-102391400D03*
%TO.P,IC1,2*%
%TO.N,Net-(IC1-Pad2)*%
X137439600Y-102891400D03*
%TO.P,IC1,1*%
%TO.N,GND*%
X137439600Y-103391400D03*
%TD*%
D30*
%TO.P,F1,2*%
%TO.N,Net-(F1-Pad2)*%
X72102900Y-163203900D03*
D42*
%TO.P,F1,1*%
%TO.N,Net-(D3-Pad2)*%
X50102900Y-163203900D03*
%TD*%
D43*
%TO.P,D1,2*%
%TO.N,GND*%
X135150400Y-133756400D03*
%TO.P,D1,1*%
%TO.N,Net-(D1-Pad1)*%
X137950400Y-133756400D03*
%TD*%
%TO.P,C12,2*%
%TO.N,GND*%
%TA.AperFunction,SMDPad,CuDef*%
G36*
G01*
X131023380Y-61548860D02*
X130073380Y-61548860D01*
G75*
G02*
X129823380Y-61298860I0J250000D01*
G01*
X129823380Y-60798860D01*
G75*
G02*
X130073380Y-60548860I250000J0D01*
G01*
X131023380Y-60548860D01*
G75*
G02*
X131273380Y-60798860I0J-250000D01*
G01*
X131273380Y-61298860D01*
G75*
G02*
X131023380Y-61548860I-250000J0D01*
G01*
G37*
%TD.AperFunction*%
%TO.P,C12,1*%
%TO.N,Net-(C10-Pad1)*%
%TA.AperFunction,SMDPad,CuDef*%
G36*
G01*
X131023380Y-63448860D02*
X130073380Y-63448860D01*
G75*
G02*
X129823380Y-63198860I0J250000D01*
G01*
X129823380Y-62698860D01*
G75*
G02*
X130073380Y-62448860I250000J0D01*
G01*
X131023380Y-62448860D01*
G75*
G02*
X131273380Y-62698860I0J-250000D01*
G01*
X131273380Y-63198860D01*
G75*
G02*
X131023380Y-63448860I-250000J0D01*
G01*
G37*
%TD.AperFunction*%
%TD*%
%TO.P,C11,2*%
%TO.N,GND*%
%TA.AperFunction,SMDPad,CuDef*%
G36*
G01*
X103279360Y-84676000D02*
X103279360Y-83726000D01*
G75*
G02*
X103529360Y-83476000I250000J0D01*
G01*
X104029360Y-83476000D01*
G75*
G02*
X104279360Y-83726000I0J-250000D01*
G01*
X104279360Y-84676000D01*
G75*
G02*
X104029360Y-84926000I-250000J0D01*
G01*
X103529360Y-84926000D01*
G75*
G02*
X103279360Y-84676000I0J250000D01*
G01*
G37*
%TD.AperFunction*%
%TO.P,C11,1*%
%TO.N,Net-(C10-Pad1)*%
%TA.AperFunction,SMDPad,CuDef*%
G36*
G01*
X101379360Y-84676000D02*
X101379360Y-83726000D01*
G75*
G02*
X101629360Y-83476000I250000J0D01*
G01*
X102129360Y-83476000D01*
G75*
G02*
X102379360Y-83726000I0J-250000D01*
G01*
X102379360Y-84676000D01*
G75*
G02*
X102129360Y-84926000I-250000J0D01*
G01*
X101629360Y-84926000D01*
G75*
G02*
X101379360Y-84676000I0J250000D01*
G01*
G37*
%TD.AperFunction*%
%TD*%
%TO.P,C8,2*%
%TO.N,GND*%
%TA.AperFunction,SMDPad,CuDef*%
G36*
G01*
X42102620Y-150180020D02*
X42102620Y-151130020D01*
G75*
G02*
X41852620Y-151380020I-250000J0D01*
G01*
X41352620Y-151380020D01*
G75*
G02*
X41102620Y-151130020I0J250000D01*
G01*
X41102620Y-150180020D01*
G75*
G02*
X41352620Y-149930020I250000J0D01*
G01*
X41852620Y-149930020D01*
G75*
G02*
X42102620Y-150180020I0J-250000D01*
G01*
G37*
%TD.AperFunction*%
%TO.P,C8,1*%
%TO.N,Net-(C8-Pad1)*%
%TA.AperFunction,SMDPad,CuDef*%
G36*
G01*
X44002620Y-150180020D02*
X44002620Y-151130020D01*
G75*
G02*
X43752620Y-151380020I-250000J0D01*
G01*
X43252620Y-151380020D01*
G75*
G02*
X43002620Y-151130020I0J250000D01*
G01*
X43002620Y-150180020D01*
G75*
G02*
X43252620Y-149930020I250000J0D01*
G01*
X43752620Y-149930020D01*
G75*
G02*
X44002620Y-150180020I0J-250000D01*
G01*
G37*
%TD.AperFunction*%
%TD*%
%TO.P,C7,2*%
%TO.N,GND*%
%TA.AperFunction,SMDPad,CuDef*%
G36*
G01*
X80185240Y-112448760D02*
X81135240Y-112448760D01*
G75*
G02*
X81385240Y-112698760I0J-250000D01*
G01*
X81385240Y-113198760D01*
G75*
G02*
X81135240Y-113448760I-250000J0D01*
G01*
X80185240Y-113448760D01*
G75*
G02*
X79935240Y-113198760I0J250000D01*
G01*
X79935240Y-112698760D01*
G75*
G02*
X80185240Y-112448760I250000J0D01*
G01*
G37*
%TD.AperFunction*%
%TO.P,C7,1*%
%TO.N,Net-(C1-Pad1)*%
%TA.AperFunction,SMDPad,CuDef*%
G36*
G01*
X80185240Y-110548760D02*
X81135240Y-110548760D01*
G75*
G02*
X81385240Y-110798760I0J-250000D01*
G01*
X81385240Y-111298760D01*
G75*
G02*
X81135240Y-111548760I-250000J0D01*
G01*
X80185240Y-111548760D01*
G75*
G02*
X79935240Y-111298760I0J250000D01*
G01*
X79935240Y-110798760D01*
G75*
G02*
X80185240Y-110548760I250000J0D01*
G01*
G37*
%TD.AperFunction*%
%TD*%
%TO.P,C3,2*%
%TO.N,GND*%
%TA.AperFunction,SMDPad,CuDef*%
G36*
G01*
X127356020Y-120449360D02*
X127356020Y-119499360D01*
G75*
G02*
X127606020Y-119249360I250000J0D01*
G01*
X128106020Y-119249360D01*
G75*
G02*
X128356020Y-119499360I0J-250000D01*
G01*
X128356020Y-120449360D01*
G75*
G02*
X128106020Y-120699360I-250000J0D01*
G01*
X127606020Y-120699360D01*
G75*
G02*
X127356020Y-120449360I0J250000D01*
G01*
G37*
%TD.AperFunction*%
%TO.P,C3,1*%
%TO.N,Net-(C10-Pad1)*%
%TA.AperFunction,SMDPad,CuDef*%
G36*
G01*
X125456020Y-120449360D02*
X125456020Y-119499360D01*
G75*
G02*
X125706020Y-119249360I250000J0D01*
G01*
X126206020Y-119249360D01*
G75*
G02*
X126456020Y-119499360I0J-250000D01*
G01*
X126456020Y-120449360D01*
G75*
G02*
X126206020Y-120699360I-250000J0D01*
G01*
X125706020Y-120699360D01*
G75*
G02*
X125456020Y-120449360I0J250000D01*
G01*
G37*
%TD.AperFunction*%
%TD*%
D44*
%TO.N,GND*%
X76537820Y-100543360D03*
X80624680Y-115356640D03*
X130055620Y-120075960D03*
X132740400Y-133985000D03*
X138150600Y-105054400D03*
X142443200Y-100761800D03*
X158292800Y-131826000D03*
X164795200Y-131648200D03*
X170256200Y-131495800D03*
X130695700Y-58849260D03*
X89303860Y-124193300D03*
X163080700Y-89154000D03*
X82008980Y-131942840D03*
X76225400Y-115387120D03*
X81267300Y-146098260D03*
X153705560Y-124000260D03*
X98877120Y-79834740D03*
X148930360Y-121000520D03*
X82575400Y-127292100D03*
X64503300Y-138772900D03*
X64503300Y-135356600D03*
X52019200Y-129222500D03*
X115430300Y-132029200D03*
X122974100Y-138214100D03*
%TO.N,Net-(C1-Pad1)*%
X136476740Y-122867420D03*
%TO.N,Net-(J9-Pad8)*%
X118437660Y-105102660D03*
%TO.N,Net-(J13-Pad5)*%
X98940620Y-76723240D03*
%TO.N,Net-(J13-Pad4)*%
X98877120Y-77917040D03*
%TO.N,Net-(C10-Pad1)*%
X80050640Y-93515180D03*
X73703180Y-100868480D03*
%TD*%
D45*
%TO.N,GND*%
X76181820Y-100899360D02*
X76537820Y-100543360D01*
X76181820Y-103399560D02*
X76181820Y-100899360D01*
X127856020Y-119974360D02*
X129954020Y-119974360D01*
X132969000Y-133756400D02*
X132740400Y-133985000D01*
X135150400Y-133756400D02*
X132969000Y-133756400D01*
D46*
X137439600Y-104343400D02*
X138150600Y-105054400D01*
X137439600Y-103391400D02*
X137439600Y-104343400D01*
D47*
X143710400Y-100761800D02*
X144496400Y-101547800D01*
X142443200Y-100761800D02*
X143710400Y-100761800D01*
X151303600Y-101547800D02*
X151329000Y-101573200D01*
X144496400Y-101547800D02*
X151303600Y-101547800D01*
X169282000Y-132470000D02*
X170256200Y-131495800D01*
X169282000Y-134038000D02*
X169282000Y-132470000D01*
X163132000Y-133311400D02*
X164795200Y-131648200D01*
X163132000Y-134038000D02*
X163132000Y-133311400D01*
X156982000Y-133136800D02*
X158292800Y-131826000D01*
X156982000Y-134038000D02*
X156982000Y-133136800D01*
X89303860Y-122133400D02*
X89303860Y-124193300D01*
X163107500Y-89180800D02*
X163080700Y-89154000D01*
X168685600Y-89180800D02*
X163107500Y-89180800D01*
D45*
X130548380Y-58996580D02*
X130695700Y-58849260D01*
X130548380Y-61048860D02*
X130548380Y-58996580D01*
D47*
X41602620Y-154871620D02*
X41120220Y-155354020D01*
D45*
X83627760Y-131942840D02*
X83861400Y-131709200D01*
X82008980Y-131942840D02*
X83627760Y-131942840D01*
X76225400Y-115387120D02*
X76225400Y-113387400D01*
X78396600Y-143227560D02*
X81267300Y-146098260D01*
X78396600Y-143037560D02*
X78396600Y-143227560D01*
D47*
X41706800Y-150759200D02*
X41602620Y-150655020D01*
X41706800Y-155033980D02*
X41706800Y-150759200D01*
X154904060Y-122801760D02*
X153705560Y-124000260D01*
X155129260Y-122801760D02*
X154904060Y-122801760D01*
D45*
X103779360Y-81183440D02*
X104368600Y-80594200D01*
X103779360Y-84201000D02*
X103779360Y-81183440D01*
D47*
X96346400Y-79859000D02*
X98852860Y-79859000D01*
X98852860Y-79859000D02*
X98877120Y-79834740D01*
D45*
X80660240Y-115321080D02*
X80624680Y-115356640D01*
X80660240Y-112948760D02*
X80660240Y-115321080D01*
D47*
X151396660Y-121114820D02*
X149044660Y-121114820D01*
X149044660Y-121114820D02*
X148930360Y-121000520D01*
D45*
X82397600Y-127114300D02*
X82575400Y-127292100D01*
X77608300Y-127114300D02*
X82397600Y-127114300D01*
X64493132Y-138762732D02*
X64503300Y-138772900D01*
X61463900Y-138762732D02*
X64493132Y-138762732D01*
X64497168Y-135362732D02*
X64503300Y-135356600D01*
X61463900Y-135362732D02*
X64497168Y-135362732D01*
X52157766Y-129361066D02*
X52019200Y-129222500D01*
X54906500Y-129361066D02*
X52157766Y-129361066D01*
X50569710Y-121994110D02*
X52255000Y-123679400D01*
X48310110Y-121994110D02*
X50569710Y-121994110D01*
X47475100Y-121159100D02*
X48310110Y-121994110D01*
X47475100Y-120434100D02*
X47475100Y-121159100D01*
D47*
X115455700Y-132054600D02*
X115430300Y-132029200D01*
X117210800Y-132054600D02*
X115455700Y-132054600D01*
X122936000Y-138176000D02*
X122974100Y-138214100D01*
X120721100Y-138176000D02*
X122936000Y-138176000D01*
D46*
%TO.N,Net-(C1-Pad1)*%
X144521800Y-102573200D02*
X144496400Y-102547800D01*
X151329000Y-102573200D02*
X144521800Y-102573200D01*
D47*
X155208010Y-106514812D02*
X155208010Y-105154770D01*
X153331441Y-108391381D02*
X155208010Y-106514812D01*
X153331441Y-121572759D02*
X153331441Y-108391381D01*
X152626440Y-102573200D02*
X151329000Y-102573200D01*
X155208010Y-105154770D02*
X152626440Y-102573200D01*
D45*
X80660240Y-109224978D02*
X80660240Y-111048760D01*
X77134822Y-105699560D02*
X80660240Y-109224978D01*
X76181820Y-105699560D02*
X77134822Y-105699560D01*
X81385240Y-111048760D02*
X82610960Y-112274480D01*
X80660240Y-111048760D02*
X81385240Y-111048760D01*
X89122510Y-120039350D02*
X89296240Y-120213080D01*
X83687932Y-120039350D02*
X89122510Y-120039350D01*
X82610960Y-118962378D02*
X83687932Y-120039350D01*
X82610960Y-112274480D02*
X82610960Y-118962378D01*
X93565940Y-120213080D02*
X93685360Y-120332500D01*
X89296240Y-120213080D02*
X93565940Y-120213080D01*
X107477560Y-120332500D02*
X112557560Y-125412500D01*
X93685360Y-120332500D02*
X107477560Y-120332500D01*
X112557560Y-125412500D02*
X112557560Y-125412500D01*
X153296660Y-121839820D02*
X153296660Y-121114820D01*
X152269060Y-122867420D02*
X153296660Y-121839820D01*
X136476740Y-122867420D02*
X152269060Y-122867420D01*
D47*
X119110800Y-131965740D02*
X119110800Y-132054600D01*
X112557560Y-125412500D02*
X119110800Y-131965740D01*
X119110800Y-132755700D02*
X120721100Y-134366000D01*
X119110800Y-132054600D02*
X119110800Y-132755700D01*
X158939260Y-121758557D02*
X158939260Y-122566759D01*
X158295523Y-121114820D02*
X158939260Y-121758557D01*
X153296660Y-121114820D02*
X158295523Y-121114820D01*
D48*
%TO.N,Net-(F1-Pad2)*%
X84302600Y-161034600D02*
X79222600Y-161034600D01*
X79222600Y-161034600D02*
X79222600Y-168654600D01*
X79222600Y-168654600D02*
X84302600Y-168654600D01*
X74272200Y-161034600D02*
X72102900Y-163203900D01*
X79222600Y-161034600D02*
X74272200Y-161034600D01*
D47*
%TO.N,Net-(J10-Pad3)*%
X156399260Y-117401760D02*
X155129260Y-117401760D01*
X155129260Y-117401760D02*
X156387800Y-116143220D01*
X147548600Y-95963422D02*
X147548600Y-95834200D01*
X156387800Y-104802622D02*
X147548600Y-95963422D01*
X156387800Y-116143220D02*
X156387800Y-104802622D01*
%TO.N,Net-(D1-Pad1)*%
X142265400Y-138071400D02*
X137950400Y-133756400D01*
X142265400Y-141336300D02*
X142265400Y-138071400D01*
X137950400Y-129128060D02*
X141267180Y-125811280D01*
X137950400Y-133756400D02*
X137950400Y-129128060D01*
%TO.N,Net-(J10-Pad6)*%
X154442000Y-134038000D02*
X154442000Y-131689000D01*
X154442000Y-131689000D02*
X160901380Y-125229620D01*
X160901380Y-101566980D02*
X155168600Y-95834200D01*
X160901380Y-125229620D02*
X160901380Y-101566980D01*
%TO.N,Net-(J10-Pad5)*%
X152628600Y-95834200D02*
X155130500Y-98336100D01*
X155130500Y-98552800D02*
X159931100Y-103353400D01*
X155130500Y-98336100D02*
X155130500Y-98552800D01*
X158305659Y-119081362D02*
X157669260Y-118444963D01*
X159572861Y-119081362D02*
X158305659Y-119081362D01*
X157669260Y-118444963D02*
X157669260Y-117636761D01*
X159931100Y-118723123D02*
X159572861Y-119081362D01*
X159931100Y-103353400D02*
X159931100Y-118723123D01*
%TO.N,Net-(J11-Pad2)*%
X59253177Y-97777244D02*
X33524811Y-123505610D01*
X100084291Y-93967243D02*
X96274290Y-97777244D01*
X117927601Y-84161601D02*
X117927601Y-87710799D01*
X117927601Y-87710799D02*
X111671157Y-93967243D01*
X111671157Y-93967243D02*
X100084291Y-93967243D01*
X33524811Y-123505610D02*
X33524811Y-149391991D01*
X116798600Y-83032600D02*
X117927601Y-84161601D01*
X33524811Y-149391991D02*
X39166800Y-155033980D01*
X96274290Y-97777244D02*
X59253177Y-97777244D01*
%TO.N,Net-(J11-Pad1)*%
X30051679Y-170042981D02*
X33761921Y-170042981D01*
X27863800Y-167855102D02*
X30051679Y-170042981D01*
X27840299Y-161678701D02*
X27863800Y-161702202D01*
X27863800Y-161702202D02*
X27863800Y-167855102D01*
X27863800Y-160045758D02*
X27840299Y-160069259D01*
X35356800Y-168448102D02*
X35356800Y-157573980D01*
X27863800Y-125161508D02*
X27863800Y-160045758D01*
X33761921Y-170042981D02*
X35356800Y-168448102D01*
X27840299Y-160069259D02*
X27840299Y-161678701D01*
X58080108Y-94945200D02*
X27863800Y-125161508D01*
X107013822Y-83032600D02*
X95101222Y-94945200D01*
X95101222Y-94945200D02*
X58080108Y-94945200D01*
X114798600Y-83032600D02*
X107013822Y-83032600D01*
D46*
%TO.N,Net-(IC1-Pad6)*%
X122210610Y-102982810D02*
X121285000Y-102057200D01*
X127221808Y-102982810D02*
X122210610Y-102982810D01*
X127813218Y-102391400D02*
X127221808Y-102982810D01*
X131923600Y-102391400D02*
X127813218Y-102391400D01*
X134289600Y-102391400D02*
X131923600Y-102391400D01*
X131107180Y-124609199D02*
X135146429Y-120569950D01*
X131107180Y-125811280D02*
X131107180Y-124609199D01*
X135146429Y-120569950D02*
X135146429Y-102584627D01*
X135146429Y-102584627D02*
X134953202Y-102391400D01*
X134953202Y-102391400D02*
X134289600Y-102391400D01*
D47*
X102397560Y-106540300D02*
X102397560Y-102552500D01*
X93685360Y-115252500D02*
X102397560Y-106540300D01*
X119485699Y-103856501D02*
X121285000Y-102057200D01*
X103701561Y-103856501D02*
X119485699Y-103856501D01*
X102397560Y-102552500D02*
X103701561Y-103856501D01*
D46*
%TO.N,Net-(IC1-Pad5)*%
X126109700Y-101891400D02*
X125907800Y-102093300D01*
X134289600Y-101891400D02*
X126109700Y-101891400D01*
X125907800Y-102093300D02*
X125907800Y-102093300D01*
X133647180Y-125811280D02*
X133647180Y-123662440D01*
X133647180Y-123662440D02*
X135600440Y-121709180D01*
X135600438Y-102396568D02*
X135095270Y-101891400D01*
X135600440Y-121709180D02*
X135600438Y-102396568D01*
X135095270Y-101891400D02*
X134289600Y-101891400D01*
D47*
X93685360Y-117792500D02*
X91770200Y-115877340D01*
X96691639Y-101248499D02*
X103633559Y-101248499D01*
X103633559Y-101248499D02*
X104937560Y-102552500D01*
X91770200Y-115877340D02*
X91770200Y-106169938D01*
X91770200Y-106169938D02*
X96691639Y-101248499D01*
X124855190Y-101040690D02*
X125907800Y-102093300D01*
X106449370Y-101040690D02*
X124855190Y-101040690D01*
X104937560Y-102552500D02*
X106449370Y-101040690D01*
D46*
%TO.N,Net-(IC1-Pad4)*%
X144046804Y-103547800D02*
X144496400Y-103547800D01*
X142390404Y-101891400D02*
X144046804Y-103547800D01*
X137439600Y-101891400D02*
X142390404Y-101891400D01*
X151303600Y-103547800D02*
X151329000Y-103573200D01*
X144496400Y-103547800D02*
X151303600Y-103547800D01*
X139342221Y-91626321D02*
X137236200Y-89520300D01*
X137439600Y-101891400D02*
X139342221Y-99988779D01*
X139342221Y-99988779D02*
X139342221Y-91626321D01*
X123325601Y-81771201D02*
X122148600Y-80594200D01*
X129487101Y-81771201D02*
X123325601Y-81771201D01*
X137236200Y-89520300D02*
X129487101Y-81771201D01*
%TO.N,Net-(IC1-Pad3)*%
X144046804Y-104547800D02*
X144496400Y-104547800D01*
X141890404Y-102391400D02*
X144046804Y-104547800D01*
X137439600Y-102391400D02*
X141890404Y-102391400D01*
X151303600Y-104547800D02*
X151329000Y-104573200D01*
X144496400Y-104547800D02*
X151303600Y-104547800D01*
X136687599Y-102318399D02*
X136687599Y-101412001D01*
X136760600Y-102391400D02*
X136687599Y-102318399D01*
X137439600Y-102391400D02*
X136760600Y-102391400D01*
X138888210Y-99211390D02*
X138888210Y-91822010D01*
X136687599Y-101412001D02*
X138888210Y-99211390D01*
X134214110Y-90409810D02*
X133172200Y-89367900D01*
X137476010Y-90409810D02*
X134214110Y-90409810D01*
X138888210Y-91822010D02*
X137476010Y-90409810D01*
X128382300Y-89367900D02*
X119608600Y-80594200D01*
X133172200Y-89367900D02*
X128382300Y-89367900D01*
%TO.N,Net-(IC1-Pad2)*%
X137083800Y-92292900D02*
X137236200Y-92445300D01*
X133172200Y-92292900D02*
X137083800Y-92292900D01*
X137236200Y-95681800D02*
X137388600Y-95834200D01*
X137236200Y-92445300D02*
X137236200Y-95681800D01*
X136163671Y-97059129D02*
X136163671Y-102610271D01*
X137388600Y-95834200D02*
X136163671Y-97059129D01*
X136163671Y-102610271D02*
X136444800Y-102891400D01*
X136444800Y-102891400D02*
X137439600Y-102891400D01*
D47*
%TO.N,Net-(J10-Pad7)*%
X160592000Y-134038000D02*
X160592000Y-127365260D01*
X160592000Y-127365260D02*
X162499040Y-125458220D01*
X162499040Y-100624640D02*
X157708600Y-95834200D01*
X162499040Y-125458220D02*
X162499040Y-100624640D01*
%TO.N,Net-(J10-Pad4)*%
X151392601Y-97138201D02*
X150088600Y-95834200D01*
X152714623Y-97138201D02*
X151392601Y-97138201D01*
X158939260Y-103362838D02*
X152714623Y-97138201D01*
X158939260Y-117401760D02*
X158939260Y-103362838D01*
%TO.N,Net-(J11-Pad6)*%
X58959910Y-97069233D02*
X32816800Y-123212343D01*
X116798600Y-87032600D02*
X110571968Y-93259232D01*
X32816800Y-156551504D02*
X32816800Y-157573980D01*
X110571968Y-93259232D02*
X99791023Y-93259233D01*
X99791023Y-93259233D02*
X95981023Y-97069233D01*
X95981023Y-97069233D02*
X58959910Y-97069233D01*
X32816800Y-123212343D02*
X32816800Y-156551504D01*
%TO.N,Net-(J11-Pad5)*%
X32382938Y-158882080D02*
X33250662Y-158882080D01*
X105016378Y-87032600D02*
X95687756Y-96361222D01*
X33250662Y-158882080D02*
X34086800Y-158045942D01*
X34086800Y-158045942D02*
X34086800Y-155033980D01*
X114798600Y-87032600D02*
X105016378Y-87032600D01*
X31036210Y-157535352D02*
X32382938Y-158882080D01*
X31036210Y-123991655D02*
X31036210Y-157535352D01*
X95687756Y-96361222D02*
X58666643Y-96361222D01*
X58666643Y-96361222D02*
X31036210Y-123991655D01*
%TO.N,Net-(J11-Pad3)*%
X106015100Y-85032600D02*
X114798600Y-85032600D01*
X95394489Y-95653211D02*
X106015100Y-85032600D01*
X30328199Y-123698387D02*
X58373375Y-95653211D01*
X30328199Y-159204157D02*
X30328199Y-123698387D01*
X33625801Y-165834979D02*
X33625801Y-162501759D01*
X30636800Y-168823980D02*
X33625801Y-165834979D01*
X58373375Y-95653211D02*
X95394489Y-95653211D01*
X33625801Y-162501759D02*
X30328199Y-159204157D01*
%TO.N,Net-(R1-Pad2)*%
X154342800Y-142697200D02*
X154442000Y-142598000D01*
X150204900Y-142697200D02*
X154342800Y-142697200D01*
%TO.N,Net-(R2-Pad2)*%
X150154100Y-138074400D02*
X156068400Y-138074400D01*
X156068400Y-138074400D02*
X160592000Y-142598000D01*
%TO.N,Net-(R3-Pad2)*%
X166742000Y-142598000D02*
X161510389Y-137366389D01*
X161510389Y-137366389D02*
X154272089Y-137366389D01*
X154272089Y-137366389D02*
X150154100Y-133248400D01*
D46*
%TO.N,Net-(IC1-Pad7)*%
X134289600Y-102891400D02*
X134289600Y-103479800D01*
X134289600Y-103773900D02*
X131942300Y-106121200D01*
X134289600Y-103391400D02*
X134289600Y-103773900D01*
D45*
%TO.N,Net-(D2-Pad1)*%
X59023899Y-132143667D02*
X61806500Y-129361066D01*
X59023899Y-139955733D02*
X59023899Y-132143667D01*
X59530898Y-140462732D02*
X59023899Y-139955733D01*
X61463900Y-140462732D02*
X59530898Y-140462732D01*
X61806500Y-123868400D02*
X57315100Y-119377000D01*
X61806500Y-129361066D02*
X61806500Y-123868400D01*
D48*
%TO.N,Net-(D3-Pad2)*%
X50102900Y-152690560D02*
X49893620Y-152481280D01*
X50102900Y-163203900D02*
X50102900Y-152690560D01*
D45*
%TO.N,Net-(D4-Pad2)*%
X91412520Y-131191000D02*
X90380820Y-130159300D01*
X96570800Y-131191000D02*
X91412520Y-131191000D01*
X86461300Y-130159300D02*
X85861400Y-130759200D01*
X90380820Y-130159300D02*
X86461300Y-130159300D01*
D48*
%TO.N,Net-(J3-Pad11)*%
X94462600Y-168654600D02*
X94462600Y-161034600D01*
X120730698Y-160499410D02*
X132275784Y-160499410D01*
X134366000Y-158409194D02*
X134366000Y-156489400D01*
X132275784Y-160499410D02*
X134366000Y-158409194D01*
X94462600Y-161034600D02*
X94462600Y-159196123D01*
X94462600Y-159196123D02*
X96681811Y-156976912D01*
X96681811Y-156976912D02*
X117208200Y-156976912D01*
X117208200Y-156976912D02*
X120730698Y-160499410D01*
D47*
%TO.N,Net-(J3-Pad10)*%
X156982000Y-142598000D02*
X155171488Y-144408512D01*
X141932011Y-153368389D02*
X138811000Y-156489400D01*
X155171488Y-144408512D02*
X155171488Y-149694034D01*
X155171488Y-149694034D02*
X151497133Y-153368389D01*
X151497133Y-153368389D02*
X141932011Y-153368389D01*
%TO.N,Net-(J3-Pad9)*%
X155879499Y-149850501D02*
X155879499Y-150723901D01*
X163132000Y-142598000D02*
X155879499Y-149850501D01*
X155879499Y-150723901D02*
X152527000Y-154076400D01*
X145674000Y-154076400D02*
X143261000Y-156489400D01*
X152527000Y-154076400D02*
X145674000Y-154076400D01*
D48*
%TO.N,Net-(J3-Pad8)*%
X99542600Y-161034600D02*
X99542600Y-168654600D01*
X147706000Y-162353702D02*
X147706000Y-156489400D01*
X143122801Y-166936901D02*
X147706000Y-162353702D01*
X137261897Y-165249599D02*
X138949199Y-166936901D01*
X102947601Y-165249599D02*
X137261897Y-165249599D01*
X138949199Y-166936901D02*
X143122801Y-166936901D01*
X99542600Y-168654600D02*
X102947601Y-165249599D01*
D47*
%TO.N,Net-(J3-Pad7)*%
X169282000Y-144444222D02*
X169282000Y-142598000D01*
X157236822Y-156489400D02*
X169282000Y-144444222D01*
X152151000Y-156489400D02*
X157236822Y-156489400D01*
%TO.N,Net-(J3-Pad4)*%
X143261000Y-145256900D02*
X142265400Y-144261300D01*
X143261000Y-150139400D02*
X143261000Y-145256900D01*
%TO.N,Net-(J9-Pad8)*%
X121950101Y-108615101D02*
X118437660Y-105102660D01*
X121950101Y-135029201D02*
X121950101Y-108615101D01*
X121343302Y-135636000D02*
X121950101Y-135029201D01*
X120721100Y-135636000D02*
X121343302Y-135636000D01*
%TO.N,Net-(J9-Pad4)*%
X85082380Y-118511860D02*
X85082380Y-111856480D01*
X85082380Y-111856480D02*
X96739050Y-100199810D01*
X96739050Y-100199810D02*
X105082990Y-100199810D01*
X105082990Y-100199810D02*
X109448600Y-95834200D01*
%TO.N,Net-(J10-Pad2)*%
X166742000Y-134038000D02*
X166742000Y-99015440D01*
X146312601Y-94530199D02*
X145008600Y-95834200D01*
X162256759Y-94530199D02*
X146312601Y-94530199D01*
X166742000Y-99015440D02*
X162256759Y-94530199D01*
%TO.N,Net-(J13-Pad13)*%
X160528000Y-24511000D02*
X151603999Y-33435001D01*
X151603999Y-33435001D02*
X151603999Y-73730079D01*
X151603999Y-73730079D02*
X146043879Y-79290199D01*
X146043879Y-79290199D02*
X133612601Y-79290199D01*
X133612601Y-79290199D02*
X132308600Y-80594200D01*
%TO.N,Net-(J13-Pad12)*%
X145750612Y-78582188D02*
X131780612Y-78582188D01*
X131780612Y-78582188D02*
X129768600Y-80594200D01*
X150622000Y-73710800D02*
X145750612Y-78582188D01*
X150622000Y-31365000D02*
X150622000Y-73710800D01*
X143768000Y-24511000D02*
X150622000Y-31365000D01*
%TO.N,Net-(J13-Pad11)*%
X126034800Y-79400400D02*
X127228600Y-80594200D01*
X126034800Y-68986400D02*
X126034800Y-79400400D01*
%TO.N,Net-(J13-Pad10)*%
X123494800Y-79400400D02*
X124688600Y-80594200D01*
X123494800Y-68986400D02*
X123494800Y-79400400D01*
%TO.N,Net-(J13-Pad7)*%
X118414800Y-79248000D02*
X117068600Y-80594200D01*
X118414800Y-68986400D02*
X118414800Y-79248000D01*
%TO.N,Net-(J13-Pad6)*%
X115874800Y-79248000D02*
X114528600Y-80594200D01*
X115874800Y-68986400D02*
X115874800Y-79248000D01*
%TO.N,Net-(J13-Pad5)*%
X96346400Y-55856000D02*
X94145100Y-53654700D01*
X96346400Y-76859000D02*
X96346400Y-76859000D01*
X96346400Y-76859000D02*
X96346400Y-55856000D01*
X96482160Y-76723240D02*
X96346400Y-76859000D01*
X98940620Y-76723240D02*
X96482160Y-76723240D01*
%TO.N,Net-(J13-Pad4)*%
X92467390Y-57332410D02*
X94145100Y-55654700D01*
X92467390Y-76200612D02*
X92467390Y-57332410D01*
X94125778Y-77859000D02*
X92467390Y-76200612D01*
X96346400Y-77859000D02*
X96346400Y-77859000D01*
X96346400Y-77859000D02*
X94125778Y-77859000D01*
X96404440Y-77917040D02*
X96346400Y-77859000D01*
X98877120Y-77917040D02*
X96404440Y-77917040D01*
D49*
%TO.N,Net-(J13-Pad3)*%
X109738653Y-70709013D02*
X112727167Y-67720499D01*
X127308899Y-69594033D02*
X129219965Y-71505099D01*
X127308899Y-68386965D02*
X127308899Y-69594033D01*
X129219965Y-71505099D02*
X131322099Y-71505099D01*
X126642433Y-67720499D02*
X127308899Y-68386965D01*
X131322099Y-71505099D02*
X132588000Y-72771000D01*
X112727167Y-67720499D02*
X126642433Y-67720499D01*
D47*
X106908600Y-73539066D02*
X112727167Y-67720499D01*
X106908600Y-80594200D02*
X106908600Y-73539066D01*
%TO.N,Net-(J14-Pad7)*%
X167620011Y-28061734D02*
X167620011Y-74035589D01*
X165608000Y-26049724D02*
X167620011Y-28061734D01*
X165608000Y-24511000D02*
X165608000Y-26049724D01*
X159012601Y-79290199D02*
X157708600Y-80594200D01*
X167620011Y-74035589D02*
X162365401Y-79290199D01*
X162365401Y-79290199D02*
X159012601Y-79290199D01*
%TO.N,Net-(J14-Pad6)*%
X157180612Y-78582188D02*
X155168600Y-80594200D01*
X166912001Y-28355001D02*
X166912001Y-73396921D01*
X163068000Y-24511000D02*
X166912001Y-28355001D01*
X161726734Y-78582188D02*
X157180612Y-78582188D01*
X166912001Y-73396921D02*
X161726734Y-78582188D01*
%TO.N,Net-(J14-Pad5)*%
X158215200Y-86180800D02*
X152628600Y-80594200D01*
X168685600Y-86180800D02*
X158215200Y-86180800D01*
%TO.N,Net-(J14-Pad4)*%
X156675200Y-87180800D02*
X150088600Y-80594200D01*
X168685600Y-87180800D02*
X156675200Y-87180800D01*
D48*
%TO.N,Net-(K1-Pad2)*%
X89382600Y-168654600D02*
X89382600Y-161034600D01*
X89382600Y-159196123D02*
X84912200Y-154725723D01*
X89382600Y-161034600D02*
X89382600Y-159196123D01*
X84912200Y-154725723D02*
X84912200Y-145104802D01*
X84912200Y-145104802D02*
X92826002Y-137191000D01*
X92826002Y-137191000D02*
X94570800Y-137191000D01*
D47*
%TO.N,Net-(Q1-Pad1)*%
X85082380Y-128588220D02*
X83861400Y-129809200D01*
X85082380Y-121436860D02*
X85082380Y-128588220D01*
D45*
%TO.N,Net-(C10-Pad1)*%
X101615200Y-80807600D02*
X101828600Y-80594200D01*
D47*
X147279900Y-138125200D02*
X147229100Y-138074400D01*
X147279900Y-142697200D02*
X147279900Y-138125200D01*
X147229100Y-138074400D02*
X147229100Y-133248400D01*
D45*
X127010700Y-106121200D02*
X125907800Y-105018300D01*
X129017300Y-106121200D02*
X127010700Y-106121200D01*
X121321100Y-105018300D02*
X121285000Y-104982200D01*
X125907800Y-105018300D02*
X121321100Y-105018300D01*
D47*
X134696200Y-142697200D02*
X134366000Y-142367000D01*
X147279900Y-142697200D02*
X134696200Y-142697200D01*
D45*
X134366000Y-142367000D02*
X134366000Y-150139400D01*
X130268499Y-154236901D02*
X107616701Y-154236901D01*
X134366000Y-150139400D02*
X130268499Y-154236901D01*
X107616701Y-154236901D02*
X96570800Y-143191000D01*
X140208000Y-72197000D02*
X140208000Y-72771000D01*
X131114800Y-68021200D02*
X133573500Y-65562500D01*
X131114800Y-68986400D02*
X131114800Y-68021200D01*
X133573500Y-65562500D02*
X140208000Y-72197000D01*
X131155400Y-63144400D02*
X133573500Y-65562500D01*
X91449120Y-143191000D02*
X90380820Y-144259300D01*
X96570800Y-143191000D02*
X91449120Y-143191000D01*
X101879360Y-80644960D02*
X101828600Y-80594200D01*
X101879360Y-84201000D02*
X101879360Y-80644960D01*
X101879360Y-84201000D02*
X92565180Y-93515180D01*
X92565180Y-93515180D02*
X80050640Y-93515180D01*
X101828600Y-80594200D02*
X101828600Y-75854560D01*
X114734300Y-62948860D02*
X130548380Y-62948860D01*
X101828600Y-75854560D02*
X114734300Y-62948860D01*
X134366000Y-142367000D02*
X134366000Y-139463780D01*
X126027180Y-131124960D02*
X126027180Y-125811280D01*
X134366000Y-139463780D02*
X126027180Y-131124960D01*
X125809391Y-120268299D02*
X125809391Y-119974360D01*
X125809391Y-109329109D02*
X129017300Y-106121200D01*
X125809391Y-120268299D02*
X125809391Y-109329109D01*
X126027180Y-123174760D02*
X126027180Y-120486088D01*
X126027180Y-120486088D02*
X125809391Y-120268299D01*
X126027180Y-125811280D02*
X126027180Y-123174760D01*
X67908300Y-121416400D02*
X67908300Y-127114300D01*
X75500400Y-110962400D02*
X76225400Y-110962400D01*
X67908300Y-118554500D02*
X75500400Y-110962400D01*
X76225400Y-108043140D02*
X76181820Y-107999560D01*
X76225400Y-110962400D02*
X76225400Y-108043140D01*
X67908300Y-127114300D02*
X75426700Y-134632700D01*
X91509343Y-134632700D02*
X91691053Y-134450990D01*
X75426700Y-134632700D02*
X91509343Y-134632700D01*
X91691053Y-134450990D02*
X98154390Y-134450990D01*
X98154390Y-134450990D02*
X100190300Y-136486900D01*
X100190300Y-139571500D02*
X96570800Y-143191000D01*
X100190300Y-136486900D02*
X100190300Y-139571500D01*
X61463900Y-137062732D02*
X65781668Y-137062732D01*
X67908300Y-134936100D02*
X67908300Y-127114300D01*
X65781668Y-137062732D02*
X67908300Y-134936100D01*
X76181820Y-107999560D02*
X73911820Y-107999560D01*
X73703180Y-107790920D02*
X73703180Y-100868480D01*
X73911820Y-107999560D02*
X73703180Y-107790920D01*
X51549700Y-120434100D02*
X49375100Y-120434100D01*
X54795000Y-123679400D02*
X51549700Y-120434100D01*
X49375100Y-117417000D02*
X57315100Y-109477000D01*
X49375100Y-120434100D02*
X49375100Y-117417000D01*
X58286100Y-109477000D02*
X67908300Y-119099200D01*
X57315100Y-109477000D02*
X58286100Y-109477000D01*
X67908300Y-119099200D02*
X67908300Y-118554500D01*
X67908300Y-121416400D02*
X67908300Y-119099200D01*
D47*
%TO.N,Net-(C8-Pad1)*%
X36626800Y-156303980D02*
X37896800Y-157573980D01*
X36626800Y-155033980D02*
X36626800Y-156303980D01*
X43502620Y-156250122D02*
X43502620Y-150655020D01*
X41001761Y-158750981D02*
X43502620Y-156250122D01*
X39073801Y-158750981D02*
X41001761Y-158750981D01*
X37896800Y-157573980D02*
X39073801Y-158750981D01*
D50*
%TO.N,Net-(K1-Pad4)*%
X108770800Y-138109300D02*
X111904500Y-134975600D01*
X108770800Y-143191000D02*
X108770800Y-138109300D01*
X111904500Y-134975600D02*
X115633500Y-134975600D01*
D48*
%TO.N,Net-(C9-Pad1)*%
X78493620Y-151134580D02*
X70396600Y-143037560D01*
X78493620Y-152481280D02*
X78493620Y-151134580D01*
D45*
X69521772Y-142162732D02*
X70396600Y-143037560D01*
X61463900Y-142162732D02*
X69521772Y-142162732D01*
D50*
%TO.N,Net-(J3-Pad1)*%
X127482499Y-147700899D02*
X125679099Y-147700899D01*
X129921000Y-150139400D02*
X127482499Y-147700899D01*
X125679099Y-147700899D02*
X115290600Y-137312400D01*
D47*
%TO.N,Net-(J3-Pad6)*%
X156399260Y-125073880D02*
X156317180Y-125155960D01*
X156399260Y-122801760D02*
X156399260Y-125073880D01*
X150339499Y-151950901D02*
X152151000Y-150139400D01*
X146784541Y-151950901D02*
X150339499Y-151950901D01*
X145894499Y-148334021D02*
X145894499Y-151060859D01*
X148296410Y-145932110D02*
X145894499Y-148334021D01*
X145894499Y-151060859D02*
X146784541Y-151950901D01*
X148296410Y-141330588D02*
X148296410Y-145932110D01*
X148275690Y-141309868D02*
X148296410Y-141330588D01*
X148275689Y-131742411D02*
X148275690Y-141309868D01*
X156317180Y-125155960D02*
X154862140Y-125155960D01*
X154862140Y-125155960D02*
X148275689Y-131742411D01*
%TO.N,Net-(J3-Pad5)*%
X157669260Y-124858040D02*
X157967180Y-125155960D01*
X157669260Y-122801760D02*
X157669260Y-124858040D01*
X151653750Y-131469390D02*
X157967180Y-125155960D01*
X149549988Y-131469390D02*
X151653750Y-131469390D01*
X148983700Y-141016600D02*
X148983700Y-132035678D01*
X149004421Y-141037321D02*
X148983700Y-141016600D01*
X149004421Y-148840979D02*
X149004421Y-141037321D01*
X148983700Y-132035678D02*
X149549988Y-131469390D01*
X147706000Y-150139400D02*
X149004421Y-148840979D01*
%TO.N,Net-(J24-Pad2)*%
X106908600Y-95834200D02*
X104876600Y-97866200D01*
X104876600Y-97866200D02*
X98793300Y-97866200D01*
X98793300Y-97866200D02*
X97167700Y-99491800D01*
X76049288Y-99491800D02*
X59726076Y-99491800D01*
X76988903Y-99454351D02*
X76086737Y-99454351D01*
X77026352Y-99491800D02*
X76988903Y-99454351D01*
X76086737Y-99454351D02*
X76049288Y-99491800D01*
X97167700Y-99491800D02*
X77026352Y-99491800D01*
X39555000Y-119662876D02*
X39555000Y-123679400D01*
X59726076Y-99491800D02*
X39555000Y-119662876D01*
%TO.N,Net-(J24-Pad1)*%
X103064599Y-97138201D02*
X98022699Y-97138201D01*
X96481900Y-98679000D02*
X59537598Y-98679000D01*
X37015000Y-121201598D02*
X37015000Y-123679400D01*
X59537598Y-98679000D02*
X37015000Y-121201598D01*
X104368600Y-95834200D02*
X103064599Y-97138201D01*
X98022699Y-97138201D02*
X96481900Y-98679000D01*
%TD*%
M02*
