M48
; DRILL file {KiCad (5.1.7)-1} date 12/22/21 18:53:24
; FORMAT={-:-/ absolute / inch / decimal}
; #@! TF.CreationDate,2021-12-22T18:53:24-06:00
; #@! TF.GenerationSoftware,Kicad,Pcbnew,(5.1.7)-1
; #@! TF.FileFunction,Plated,1,2,PTH
FMAT,2
INCH
T1C0.0157
T2C0.0315
T3C0.0350
T4C0.0394
T5C0.0402
T6C0.0413
T7C0.0512
T8C0.0591
T9C0.0642
T10C0.0713
T11C0.1177
T12C0.1181
T13C0.1260
%
G90
G05
T1
X2.048Y-5.0875
X2.5395Y-5.329
X2.5395Y-5.4635
X2.9017Y-3.9712
X3.001Y-4.5428
X3.0133Y-3.9584
X3.1516Y-3.6817
X3.1742Y-4.5416
X3.1995Y-5.7519
X3.2287Y-5.1946
X3.251Y-5.0115
X3.5159Y-4.8895
X3.8928Y-3.0676
X3.8928Y-3.1431
X3.8953Y-3.0206
X4.5445Y-5.198
X4.6629Y-4.1379
X4.8415Y-5.4415
X5.1203Y-4.7274
X5.1455Y-2.3169
X5.226Y-5.275
X5.3731Y-4.8373
X5.439Y-4.136
X5.608Y-3.967
X5.8634Y-4.7638
X6.0514Y-4.8819
X6.232Y-5.19
X6.4205Y-3.51
X6.488Y-5.183
X6.703Y-5.177
T2
X3.7065Y-2.1124
X3.7065Y-2.1911
X3.7065Y-2.2699
X3.7065Y-2.3486
X4.5196Y-3.269
X4.5196Y-3.3477
X4.5196Y-3.4265
X4.5984Y-3.269
X4.5984Y-3.3477
X4.5984Y-3.4265
T3
X1.292Y-6.2037
X1.342Y-6.1037
X1.392Y-6.2037
X1.442Y-6.1037
X1.492Y-6.2037
X1.542Y-6.1037
X1.592Y-6.2037
X1.642Y-6.1037
T4
X5.82Y-0.965
X5.92Y-0.965
X6.02Y-0.965
X6.12Y-0.965
X6.22Y-0.965
X6.32Y-0.965
X6.42Y-0.965
X6.52Y-0.965
X4.009Y-3.173
X4.109Y-3.173
X4.209Y-3.173
X4.309Y-3.173
X4.409Y-3.173
X4.509Y-3.173
X4.609Y-3.173
X4.709Y-3.173
X4.809Y-3.173
X4.909Y-3.173
X5.009Y-3.173
X5.109Y-3.173
X5.209Y-3.173
X5.309Y-3.173
X5.409Y-3.173
X4.9617Y-4.9532
X5.0617Y-4.9532
X5.1617Y-4.9532
X5.2617Y-4.9532
X5.3617Y-4.9532
X5.4617Y-4.9532
X5.5617Y-4.9532
X5.6617Y-4.9532
X5.7617Y-4.9532
X5.8617Y-4.9532
X4.462Y-2.716
X4.562Y-2.716
X4.662Y-2.716
X4.762Y-2.716
X4.862Y-2.716
X4.962Y-2.716
X5.062Y-2.716
X5.162Y-2.716
X5.262Y-2.716
X1.4573Y-4.8693
X1.5573Y-4.8693
X1.6573Y-4.8693
X1.7573Y-4.8693
X1.8573Y-4.8693
X1.9573Y-4.8693
X2.0573Y-4.8693
X2.1573Y-4.8693
X5.12Y-2.865
X5.22Y-2.865
X5.32Y-2.865
X5.42Y-2.865
X5.52Y-2.865
X5.62Y-2.865
X5.72Y-2.865
X5.82Y-2.865
X3.8314Y-4.0375
X3.9314Y-4.0375
X4.0314Y-4.0375
X4.1314Y-4.0375
X4.2314Y-4.0375
X4.3314Y-4.0375
X4.4314Y-4.0375
X4.5314Y-4.0375
X5.609Y-3.773
X5.709Y-3.773
X5.809Y-3.773
X5.909Y-3.773
X6.009Y-3.773
X6.109Y-3.773
X6.209Y-3.773
X6.309Y-3.773
X6.02Y-2.865
X6.12Y-2.865
X6.22Y-2.865
X6.32Y-2.865
X6.42Y-2.865
X6.52Y-2.865
X3.8314Y-4.9375
X3.9314Y-4.9375
X4.0314Y-4.9375
X4.1314Y-4.9375
X4.2314Y-4.9375
X4.3314Y-4.9375
X4.4314Y-4.9375
X4.5314Y-4.9375
X4.009Y-3.773
X4.109Y-3.773
X4.209Y-3.773
X4.309Y-3.773
X4.409Y-3.773
X4.509Y-3.773
X4.609Y-3.773
X4.709Y-3.773
X4.809Y-3.773
X4.909Y-3.773
X5.009Y-3.773
X5.109Y-3.773
X5.209Y-3.773
X5.309Y-3.773
X5.409Y-3.773
X4.362Y-1.1156
X4.462Y-1.1156
X4.562Y-1.1156
X4.662Y-1.1156
X4.762Y-1.1156
X4.862Y-1.1156
X4.962Y-1.1156
X5.062Y-1.1156
X5.162Y-1.1156
X5.262Y-1.1156
X3.6884Y-4.2375
X3.6884Y-4.3375
X3.6884Y-4.4375
X3.6884Y-4.5375
X3.6884Y-4.6375
X3.6884Y-4.7375
X5.609Y-3.173
X5.709Y-3.173
X5.809Y-3.173
X5.909Y-3.173
X6.009Y-3.173
X6.109Y-3.173
X6.209Y-3.173
X6.309Y-3.173
X4.7602Y-0.965
X4.8602Y-0.965
X4.9602Y-0.965
X5.0602Y-0.965
X5.1602Y-0.965
X5.2602Y-0.965
X5.3602Y-0.965
X5.4602Y-0.965
X5.5602Y-0.965
X5.6602Y-0.965
X1.4573Y-5.7693
X1.5573Y-5.7693
X1.6573Y-5.7693
X1.7573Y-5.7693
X1.8573Y-5.7693
X1.9573Y-5.7693
X2.0573Y-5.7693
X2.1573Y-5.7693
T5
X1.2062Y-6.6466
X1.3062Y-6.6466
X1.6278Y-6.6466
X1.7278Y-6.6466
T6
X3.5583Y-5.1244
X3.5583Y-5.6795
T7
X3.802Y-5.165
X3.802Y-5.6374
X4.2823Y-5.165
X4.2823Y-5.6374
X3.119Y-6.3399
X3.119Y-6.6399
X3.319Y-6.3399
X3.319Y-6.6399
X3.519Y-6.3399
X3.519Y-6.6399
X3.719Y-6.3399
X3.719Y-6.6399
X3.919Y-6.3399
X3.919Y-6.6399
X4.119Y-6.3399
X4.119Y-6.6399
T8
X3.7233Y-5.4012
X1.9726Y-6.4254
X2.8387Y-6.4254
X1.9643Y-6.0032
X3.0903Y-6.0032
T9
X1.1621Y-6.3336
X1.7719Y-6.3336
T10
X5.115Y-5.911
X5.115Y-6.161
X5.29Y-5.911
X5.29Y-6.161
X5.465Y-5.911
X5.465Y-6.161
X5.6402Y-5.911
X5.6402Y-6.161
X5.8152Y-5.911
X5.8152Y-6.161
X5.9902Y-5.911
X5.9902Y-6.161
T11
X4.862Y-5.9512
X5.5526Y-6.4012
X6.2431Y-5.9512
T12
X3.6745Y-4.8866
X4.6745Y-4.8866
T13
X1.2048Y-0.9108
X1.2048Y-3.1155
X1.2048Y-4.0108
X2.3071Y-0.9108
X2.3071Y-3.1155
X3.4048Y-0.9108
X3.4048Y-4.0108
T0
M30
