G04 #@! TF.GenerationSoftware,KiCad,Pcbnew,(5.1.2)-2*
G04 #@! TF.CreationDate,2020-03-29T17:12:37-06:00*
G04 #@! TF.ProjectId,RC31,52433331-2e6b-4696-9361-645f70636258,rev?*
G04 #@! TF.SameCoordinates,Original*
G04 #@! TF.FileFunction,Copper,L1,Top*
G04 #@! TF.FilePolarity,Positive*
%FSLAX46Y46*%
G04 Gerber Fmt 4.6, Leading zero omitted, Abs format (unit mm)*
G04 Created by KiCad (PCBNEW (5.1.2)-2) date 2020-03-29 17:12:37*
%MOMM*%
%LPD*%
G04 APERTURE LIST*
%ADD10O,1.700000X1.700000*%
%ADD11R,1.700000X1.700000*%
%ADD12C,1.600000*%
%ADD13C,1.700000*%
%ADD14C,1.590000*%
%ADD15C,2.500000*%
%ADD16C,3.000000*%
%ADD17C,2.600000*%
%ADD18O,2.641600X1.320800*%
%ADD19R,1.600000X1.600000*%
%ADD20O,1.600000X1.600000*%
%ADD21O,1.400000X1.400000*%
%ADD22C,1.400000*%
%ADD23C,1.800000*%
%ADD24R,1.800000X1.800000*%
%ADD25C,2.000000*%
%ADD26R,2.000000X2.000000*%
%ADD27C,0.800000*%
%ADD28C,1.270000*%
%ADD29C,2.032000*%
%ADD30C,3.810000*%
G04 APERTURE END LIST*
D10*
X122682000Y-110236000D03*
X125222000Y-110236000D03*
X127762000Y-110236000D03*
D11*
X130302000Y-110236000D03*
D12*
X98592000Y-85090000D03*
X101092000Y-85090000D03*
D13*
X101694999Y-116840000D03*
X101694999Y-119380000D03*
X101694999Y-121920000D03*
X101694999Y-124460000D03*
X101694999Y-127000000D03*
X101694999Y-129540000D03*
X111854999Y-116840000D03*
X111854999Y-119380000D03*
X111854999Y-121920000D03*
X111854999Y-124460000D03*
X111854999Y-127000000D03*
X111854999Y-129540000D03*
D14*
X132627000Y-131775200D03*
X132627000Y-134315200D03*
X132627000Y-136855200D03*
D15*
X121412000Y-144526000D03*
X136652000Y-144526000D03*
D16*
X74328000Y-65257142D03*
X69328000Y-70757142D03*
X79328000Y-70757142D03*
X84328000Y-70757142D03*
X84328000Y-65257142D03*
X74328000Y-140804000D03*
X69328000Y-146304000D03*
X79328000Y-146304000D03*
X84328000Y-146304000D03*
X84328000Y-140804000D03*
X74328000Y-128212852D03*
X69328000Y-133712852D03*
X79328000Y-133712852D03*
X84328000Y-133712852D03*
X84328000Y-128212852D03*
X74328000Y-115621710D03*
X69328000Y-121121710D03*
X79328000Y-121121710D03*
X84328000Y-121121710D03*
X84328000Y-115621710D03*
X74328000Y-103030568D03*
X69328000Y-108530568D03*
X79328000Y-108530568D03*
X84328000Y-108530568D03*
X84328000Y-103030568D03*
X74328000Y-90439426D03*
X69328000Y-95939426D03*
X79328000Y-95939426D03*
X84328000Y-95939426D03*
X84328000Y-90439426D03*
X74328000Y-77848284D03*
X69328000Y-83348284D03*
X79328000Y-83348284D03*
X84328000Y-83348284D03*
X84328000Y-77848284D03*
X74328000Y-52666000D03*
X69328000Y-58166000D03*
X79328000Y-58166000D03*
X84328000Y-58166000D03*
X84328000Y-52666000D03*
D17*
X55198000Y-137952000D03*
X55198000Y-132952000D03*
X55198000Y-127952000D03*
X55198000Y-122952000D03*
X55198000Y-117952000D03*
X55198000Y-112952000D03*
X55198000Y-107952000D03*
X55198000Y-102952000D03*
X55198000Y-97952000D03*
X55198000Y-92952000D03*
X55198000Y-87952000D03*
X55198000Y-82952000D03*
X55198000Y-77952000D03*
X55198000Y-72952000D03*
X55198000Y-67952000D03*
X55198000Y-62952000D03*
X143684000Y-83592000D03*
X143684000Y-88592000D03*
X143684000Y-93592000D03*
X143684000Y-98592000D03*
X142494001Y-120156999D03*
X142494001Y-115156999D03*
X142494001Y-110156999D03*
X143684000Y-131692000D03*
X143684000Y-136692000D03*
D18*
X97282000Y-110490000D03*
X97282000Y-107950000D03*
X97282000Y-105410000D03*
X97282000Y-102870000D03*
X97282000Y-100330000D03*
X97282000Y-97790000D03*
X97282000Y-95250000D03*
X97282000Y-92710000D03*
X97282000Y-90170000D03*
X104902000Y-90170000D03*
X104902000Y-100330000D03*
X104902000Y-97790000D03*
X104902000Y-102870000D03*
X104902000Y-105410000D03*
X104902000Y-92710000D03*
X104902000Y-95250000D03*
X104902000Y-107950000D03*
X104902000Y-110490000D03*
D10*
X101080000Y-56000000D03*
X98540000Y-56000000D03*
D11*
X96000000Y-56000000D03*
D10*
X106680000Y-85598000D03*
X109220000Y-85598000D03*
D11*
X111760000Y-85598000D03*
D10*
X93726000Y-123838000D03*
X93726000Y-126378000D03*
D11*
X93726000Y-128918000D03*
D10*
X118364000Y-123838000D03*
X118364000Y-126378000D03*
D11*
X118364000Y-128918000D03*
D19*
X101854000Y-76708000D03*
D20*
X134874000Y-61468000D03*
X104394000Y-76708000D03*
X132334000Y-61468000D03*
X106934000Y-76708000D03*
X129794000Y-61468000D03*
X109474000Y-76708000D03*
X127254000Y-61468000D03*
X112014000Y-76708000D03*
X124714000Y-61468000D03*
X114554000Y-76708000D03*
X122174000Y-61468000D03*
X117094000Y-76708000D03*
X119634000Y-61468000D03*
X119634000Y-76708000D03*
X117094000Y-61468000D03*
X122174000Y-76708000D03*
X114554000Y-61468000D03*
X124714000Y-76708000D03*
X112014000Y-61468000D03*
X127254000Y-76708000D03*
X109474000Y-61468000D03*
X129794000Y-76708000D03*
X106934000Y-61468000D03*
X132334000Y-76708000D03*
X104394000Y-61468000D03*
X134874000Y-76708000D03*
X101854000Y-61468000D03*
X137414000Y-76708000D03*
X137414000Y-61468000D03*
D21*
X125222000Y-125984000D03*
D22*
X132842000Y-125984000D03*
D23*
X129032000Y-118110000D03*
D24*
X129032000Y-120650000D03*
D12*
X91948000Y-63460000D03*
X91948000Y-60960000D03*
D25*
X95250000Y-143176000D03*
D26*
X95250000Y-138176000D03*
D25*
X111760000Y-143176000D03*
D26*
X111760000Y-138176000D03*
D10*
X132334000Y-56000000D03*
X129794000Y-56000000D03*
X127254000Y-56000000D03*
X124714000Y-56000000D03*
X122174000Y-56000000D03*
X119634000Y-56000000D03*
X117094000Y-56000000D03*
X114554000Y-56000000D03*
X112014000Y-56000000D03*
X109474000Y-56000000D03*
D11*
X106934000Y-56000000D03*
D10*
X128524000Y-92710000D03*
X125984000Y-92710000D03*
X123444000Y-92710000D03*
X120904000Y-92710000D03*
X118364000Y-92710000D03*
X115824000Y-92710000D03*
D11*
X113284000Y-92710000D03*
D21*
X96266000Y-69342000D03*
D22*
X96266000Y-61722000D03*
D21*
X96266000Y-72644000D03*
D22*
X96266000Y-80264000D03*
D27*
X94006289Y-118337711D03*
D28*
X133536081Y-56896000D02*
X137414000Y-60773919D01*
X137414000Y-60773919D02*
X137414000Y-61468000D01*
X133230000Y-56896000D02*
X132334000Y-56000000D01*
X133536081Y-56896000D02*
X133230000Y-56896000D01*
X137414000Y-77839370D02*
X137414000Y-76708000D01*
X137414000Y-86313802D02*
X137414000Y-77839370D01*
X104902000Y-110490000D02*
X113237802Y-110490000D01*
X113237802Y-110490000D02*
X137414000Y-86313802D01*
D29*
X100722630Y-61468000D02*
X101854000Y-61468000D01*
X96000000Y-56745370D02*
X100722630Y-61468000D01*
X96000000Y-56000000D02*
X96000000Y-56745370D01*
D28*
X113284000Y-107950000D02*
X104902000Y-107950000D01*
X128524000Y-92710000D02*
X113284000Y-107950000D01*
X134874000Y-86360000D02*
X128524000Y-92710000D01*
X134874000Y-76708000D02*
X134874000Y-86360000D01*
X101694999Y-121920000D02*
X111854999Y-121920000D01*
X133969001Y-75072999D02*
X133133999Y-75908001D01*
X133133999Y-75908001D02*
X132334000Y-76708000D01*
X139039958Y-75072999D02*
X133969001Y-75072999D01*
X146611989Y-82645030D02*
X139039958Y-75072999D01*
X146611989Y-106039011D02*
X146611989Y-82645030D01*
X142494001Y-110156999D02*
X146611989Y-106039011D01*
X142494001Y-115156999D02*
X148082000Y-109569000D01*
X130593999Y-75908001D02*
X129794000Y-76708000D01*
X132899012Y-73602988D02*
X130593999Y-75908001D01*
X139648855Y-73602988D02*
X132899012Y-73602988D01*
X148082000Y-82036133D02*
X139648855Y-73602988D01*
X148082000Y-109569000D02*
X148082000Y-82036133D01*
X127254000Y-91440000D02*
X125984000Y-92710000D01*
X127254000Y-76708000D02*
X127254000Y-91440000D01*
X113284000Y-105410000D02*
X104902000Y-105410000D01*
X125984000Y-92710000D02*
X113284000Y-105410000D01*
X124714000Y-91440000D02*
X123444000Y-92710000D01*
X124714000Y-76708000D02*
X124714000Y-91440000D01*
X107492800Y-102870000D02*
X104902000Y-102870000D01*
X122594001Y-93559999D02*
X122594001Y-94021091D01*
X123444000Y-92710000D02*
X122594001Y-93559999D01*
X122594001Y-94021091D02*
X113745092Y-102870000D01*
X113745092Y-102870000D02*
X107492800Y-102870000D01*
X114206184Y-100330000D02*
X107492800Y-100330000D01*
X107492800Y-100330000D02*
X104902000Y-100330000D01*
X120054001Y-94482183D02*
X114206184Y-100330000D01*
X120054001Y-93559999D02*
X120054001Y-94482183D01*
X120904000Y-92710000D02*
X120054001Y-93559999D01*
X122174000Y-91440000D02*
X120904000Y-92710000D01*
X122174000Y-76708000D02*
X122174000Y-91440000D01*
X117094000Y-56000000D02*
X117094000Y-61468000D01*
X107492800Y-97790000D02*
X104902000Y-97790000D01*
X114486081Y-97790000D02*
X107492800Y-97790000D01*
X118364000Y-93912081D02*
X114486081Y-97790000D01*
X118364000Y-92710000D02*
X118364000Y-93912081D01*
X119634000Y-91440000D02*
X118364000Y-92710000D01*
X119634000Y-76708000D02*
X119634000Y-91440000D01*
X119634000Y-61468000D02*
X119634000Y-56000000D01*
X107492800Y-95250000D02*
X104902000Y-95250000D01*
X114486081Y-95250000D02*
X107492800Y-95250000D01*
X115824000Y-93912081D02*
X114486081Y-95250000D01*
X115824000Y-92710000D02*
X115824000Y-93912081D01*
X117094000Y-91440000D02*
X115824000Y-92710000D01*
X117094000Y-76708000D02*
X117094000Y-91440000D01*
X122174000Y-56000000D02*
X122174000Y-61468000D01*
X113284000Y-92710000D02*
X104902000Y-92710000D01*
X114554000Y-91440000D02*
X113284000Y-92710000D01*
X114554000Y-76708000D02*
X114554000Y-91440000D01*
X124714000Y-61468000D02*
X124714000Y-56000000D01*
X127254000Y-56000000D02*
X127254000Y-61468000D01*
X129794000Y-61468000D02*
X129794000Y-56000000D01*
D29*
X96507956Y-107950000D02*
X97282000Y-107950000D01*
X90932000Y-127108852D02*
X90932000Y-113525956D01*
X84328000Y-133712852D02*
X90932000Y-127108852D01*
X90932000Y-113525956D02*
X96507956Y-107950000D01*
X88699989Y-110639211D02*
X93929200Y-105410000D01*
X93929200Y-105410000D02*
X97282000Y-105410000D01*
X88699989Y-116749721D02*
X88699989Y-110639211D01*
X84328000Y-121121710D02*
X88699989Y-116749721D01*
X89988568Y-102870000D02*
X97282000Y-102870000D01*
X84328000Y-108530568D02*
X89988568Y-102870000D01*
X96974010Y-100022010D02*
X97282000Y-100330000D01*
X95196012Y-100022010D02*
X96974010Y-100022010D01*
X94580034Y-99406032D02*
X95196012Y-100022010D01*
X87794606Y-99406032D02*
X94580034Y-99406032D01*
X84328000Y-95939426D02*
X87794606Y-99406032D01*
X94488561Y-97174021D02*
X95504562Y-97174022D01*
X96120540Y-97790000D02*
X97282000Y-97790000D01*
X88677949Y-91363409D02*
X94488561Y-97174021D01*
X88677949Y-87698233D02*
X88677949Y-91363409D01*
X95504562Y-97174022D02*
X96120540Y-97790000D01*
X84328000Y-83348284D02*
X88677949Y-87698233D01*
X87449010Y-76555520D02*
X87449010Y-81316090D01*
X87449010Y-81316090D02*
X90909960Y-84777040D01*
X90909960Y-84777040D02*
X90909960Y-90268542D01*
X90909960Y-90268542D02*
X95583427Y-94942011D01*
X96974011Y-94942011D02*
X97282000Y-95250000D01*
X95583427Y-94942011D02*
X96974011Y-94942011D01*
X84328000Y-73434510D02*
X87449010Y-76555520D01*
X84328000Y-70757142D02*
X84328000Y-73434510D01*
X96507956Y-92710000D02*
X97282000Y-92710000D01*
X94745190Y-90947234D02*
X96507956Y-92710000D01*
X94745190Y-85455730D02*
X94745190Y-90947234D01*
X89681019Y-80391559D02*
X94745190Y-85455730D01*
X89681019Y-75630991D02*
X89681019Y-80391559D01*
X87449009Y-73398979D02*
X89681019Y-75630991D01*
X87449009Y-61287009D02*
X87449009Y-73398979D01*
X84328000Y-58166000D02*
X87449009Y-61287009D01*
D30*
X79328000Y-145804000D02*
X79328000Y-146304000D01*
X84328000Y-140804000D02*
X79328000Y-145804000D01*
X79328000Y-135804000D02*
X79328000Y-133712852D01*
X84328000Y-140804000D02*
X79328000Y-135804000D01*
X79328000Y-123212852D02*
X79328000Y-121121710D01*
X84328000Y-128212852D02*
X79328000Y-123212852D01*
X79328000Y-120621710D02*
X84328000Y-115621710D01*
X79328000Y-121121710D02*
X79328000Y-120621710D01*
X79328000Y-110621710D02*
X79328000Y-108530568D01*
X84328000Y-115621710D02*
X79328000Y-110621710D01*
X79328000Y-108030568D02*
X84328000Y-103030568D01*
X79328000Y-108530568D02*
X79328000Y-108030568D01*
X79328000Y-98030568D02*
X79328000Y-95939426D01*
X84328000Y-103030568D02*
X79328000Y-98030568D01*
X79328000Y-95439426D02*
X84328000Y-90439426D01*
X79328000Y-95939426D02*
X79328000Y-95439426D01*
X79328000Y-85439426D02*
X79328000Y-83348284D01*
X84328000Y-90439426D02*
X79328000Y-85439426D01*
X79328000Y-82848284D02*
X84328000Y-77848284D01*
X79328000Y-83348284D02*
X79328000Y-82848284D01*
X79328000Y-72848284D02*
X79328000Y-70757142D01*
X84328000Y-77848284D02*
X79328000Y-72848284D01*
X79328000Y-70257142D02*
X84328000Y-65257142D01*
X79328000Y-70757142D02*
X79328000Y-70257142D01*
X79328000Y-60257142D02*
X79328000Y-58166000D01*
X84328000Y-65257142D02*
X79328000Y-60257142D01*
X79328000Y-57666000D02*
X84328000Y-52666000D01*
X79328000Y-58166000D02*
X79328000Y-57666000D01*
X57036477Y-137952000D02*
X55198000Y-137952000D01*
X70424254Y-137952000D02*
X57036477Y-137952000D01*
X74663402Y-133712852D02*
X70424254Y-137952000D01*
X79328000Y-133712852D02*
X74663402Y-133712852D01*
X86956000Y-138176000D02*
X84328000Y-140804000D01*
X95250000Y-138176000D02*
X86956000Y-138176000D01*
X100060000Y-138176000D02*
X95250000Y-138176000D01*
X108165001Y-146281001D02*
X100060000Y-138176000D01*
X119656999Y-146281001D02*
X108165001Y-146281001D01*
X121412000Y-144526000D02*
X119656999Y-146281001D01*
X82706680Y-128212852D02*
X84328000Y-128212852D01*
X79328000Y-133712852D02*
X79328000Y-131591532D01*
X79328000Y-131591532D02*
X82706680Y-128212852D01*
X143684000Y-83592000D02*
X140154011Y-87121989D01*
X126708202Y-144526000D02*
X123179766Y-144526000D01*
X123179766Y-144526000D02*
X121412000Y-144526000D01*
X136398000Y-134836202D02*
X126708202Y-144526000D01*
X136398000Y-91204762D02*
X136398000Y-134836202D01*
X140154011Y-87121989D02*
X140154011Y-87448751D01*
X140154011Y-87448751D02*
X136398000Y-91204762D01*
D29*
X97282000Y-86400000D02*
X98592000Y-85090000D01*
X97282000Y-90170000D02*
X97282000Y-86400000D01*
D30*
X143684000Y-137494000D02*
X136652000Y-144526000D01*
X143684000Y-136692000D02*
X143684000Y-137494000D01*
D29*
X102897080Y-124460000D02*
X101694999Y-124460000D01*
X111760000Y-133322920D02*
X102897080Y-124460000D01*
X111760000Y-138176000D02*
X111760000Y-133322920D01*
X132842000Y-131560200D02*
X132627000Y-131775200D01*
X132842000Y-125984000D02*
X132842000Y-131560200D01*
X111760000Y-135144000D02*
X111760000Y-138176000D01*
X115128800Y-131775200D02*
X111760000Y-135144000D01*
X132627000Y-131775200D02*
X115128800Y-131775200D01*
X94406288Y-117937712D02*
X94006289Y-118337711D01*
X99818810Y-112525190D02*
X94406288Y-117937712D01*
X99818810Y-91939146D02*
X99818810Y-112525190D01*
X105309957Y-86447999D02*
X99818810Y-91939146D01*
X106680000Y-85598000D02*
X105830001Y-86447999D01*
X105830001Y-86447999D02*
X105309957Y-86447999D01*
X106680000Y-85598000D02*
X103632000Y-82550000D01*
X103632000Y-82550000D02*
X95250000Y-82550000D01*
X90816630Y-60960000D02*
X91948000Y-60960000D01*
X89931999Y-61844631D02*
X90816630Y-60960000D01*
X89931999Y-64427681D02*
X89931999Y-61844631D01*
X91913030Y-66408712D02*
X89931999Y-64427681D01*
X91913030Y-79213027D02*
X91913030Y-66408712D01*
X95250000Y-82550000D02*
X91913030Y-79213027D01*
X125222000Y-124994051D02*
X125222000Y-125984000D01*
X125222000Y-120647208D02*
X125222000Y-124994051D01*
X127759208Y-118110000D02*
X125222000Y-120647208D01*
X129032000Y-118110000D02*
X127759208Y-118110000D01*
D28*
X114554000Y-61468000D02*
X114554000Y-56000000D01*
X103378000Y-72644000D02*
X114554000Y-61468000D01*
X96266000Y-72644000D02*
X103378000Y-72644000D01*
X112014000Y-56000000D02*
X112014000Y-61468000D01*
X111325010Y-62234713D02*
X111325010Y-62156990D01*
X104217723Y-69342000D02*
X111325010Y-62234713D01*
X96266000Y-69342000D02*
X104217723Y-69342000D01*
X111325010Y-62156990D02*
X112014000Y-61468000D01*
D29*
X109474000Y-60336630D02*
X109474000Y-61468000D01*
X107203371Y-58066001D02*
X109474000Y-60336630D01*
X103146001Y-58066001D02*
X107203371Y-58066001D01*
X101080000Y-56000000D02*
X103146001Y-58066001D01*
X118364000Y-120291319D02*
X118364000Y-122635919D01*
X118364000Y-122635919D02*
X118364000Y-123838000D01*
X112846680Y-114773999D02*
X118364000Y-120291319D01*
X100726541Y-114773999D02*
X112846680Y-114773999D01*
X93726000Y-121774540D02*
X100726541Y-114773999D01*
X93726000Y-123838000D02*
X93726000Y-121774540D01*
X117742000Y-129540000D02*
X118364000Y-128918000D01*
X111854999Y-129540000D02*
X117742000Y-129540000D01*
X93218000Y-54893198D02*
X94771198Y-53340000D01*
X93218000Y-58674000D02*
X93218000Y-54893198D01*
X96266000Y-61722000D02*
X93218000Y-58674000D01*
X109474000Y-54797919D02*
X109474000Y-56000000D01*
X108016081Y-53340000D02*
X109474000Y-54797919D01*
X94771198Y-53340000D02*
X108016081Y-53340000D01*
X97255949Y-80264000D02*
X96266000Y-80264000D01*
X105088081Y-80264000D02*
X97255949Y-80264000D01*
X109220000Y-84395919D02*
X105088081Y-80264000D01*
X109220000Y-85598000D02*
X109220000Y-84395919D01*
X95566001Y-62421999D02*
X96266000Y-61722000D01*
X94349999Y-63638001D02*
X95566001Y-62421999D01*
X94349999Y-78347999D02*
X94349999Y-63638001D01*
X96266000Y-80264000D02*
X94349999Y-78347999D01*
X94348000Y-129540000D02*
X101694999Y-129540000D01*
X93726000Y-128918000D02*
X94348000Y-129540000D01*
X56497999Y-109251999D02*
X55198000Y-107952000D01*
X57714001Y-110468001D02*
X56497999Y-109251999D01*
X57714001Y-113720173D02*
X57714001Y-110468001D01*
X72206680Y-128212852D02*
X57714001Y-113720173D01*
X74328000Y-128212852D02*
X72206680Y-128212852D01*
X67867710Y-115621710D02*
X55198000Y-102952000D01*
X74328000Y-115621710D02*
X67867710Y-115621710D01*
X56497999Y-99251999D02*
X55198000Y-97952000D01*
X58776569Y-101530569D02*
X56497999Y-99251999D01*
X72828001Y-101530569D02*
X58776569Y-101530569D01*
X74328000Y-103030568D02*
X72828001Y-101530569D01*
X57710574Y-90439426D02*
X55198000Y-92952000D01*
X74328000Y-90439426D02*
X57710574Y-90439426D01*
X72206680Y-52666000D02*
X74328000Y-52666000D01*
X70808318Y-52666000D02*
X72206680Y-52666000D01*
X64258608Y-59215710D02*
X70808318Y-52666000D01*
X55210608Y-59215710D02*
X64258608Y-59215710D01*
X52681999Y-61744319D02*
X55210608Y-59215710D01*
X52681999Y-85435999D02*
X52681999Y-61744319D01*
X55198000Y-87952000D02*
X52681999Y-85435999D01*
X72206680Y-77848284D02*
X74328000Y-77848284D01*
X62140193Y-77848284D02*
X72206680Y-77848284D01*
X57036477Y-82952000D02*
X62140193Y-77848284D01*
X55198000Y-82952000D02*
X57036477Y-82952000D01*
X71633142Y-67952000D02*
X74328000Y-65257142D01*
X55198000Y-67952000D02*
X71633142Y-67952000D01*
M02*
