G04 #@! TF.GenerationSoftware,KiCad,Pcbnew,(5.1.2)-2*
G04 #@! TF.CreationDate,2020-03-29T17:12:37-06:00*
G04 #@! TF.ProjectId,RC31,52433331-2e6b-4696-9361-645f70636258,rev?*
G04 #@! TF.SameCoordinates,Original*
G04 #@! TF.FileFunction,Soldermask,Top*
G04 #@! TF.FilePolarity,Negative*
%FSLAX46Y46*%
G04 Gerber Fmt 4.6, Leading zero omitted, Abs format (unit mm)*
G04 Created by KiCad (PCBNEW (5.1.2)-2) date 2020-03-29 17:12:37*
%MOMM*%
%LPD*%
G04 APERTURE LIST*
%ADD10C,0.100000*%
G04 APERTURE END LIST*
D10*
G36*
X84630585Y-144782802D02*
G01*
X84780410Y-144812604D01*
X85062674Y-144929521D01*
X85316705Y-145099259D01*
X85532741Y-145315295D01*
X85702479Y-145569326D01*
X85819396Y-145851590D01*
X85879000Y-146151240D01*
X85879000Y-146456760D01*
X85819396Y-146756410D01*
X85702479Y-147038674D01*
X85532741Y-147292705D01*
X85316705Y-147508741D01*
X85062674Y-147678479D01*
X84780410Y-147795396D01*
X84630585Y-147825198D01*
X84480761Y-147855000D01*
X84175239Y-147855000D01*
X84025415Y-147825198D01*
X83875590Y-147795396D01*
X83593326Y-147678479D01*
X83339295Y-147508741D01*
X83123259Y-147292705D01*
X82953521Y-147038674D01*
X82836604Y-146756410D01*
X82777000Y-146456760D01*
X82777000Y-146151240D01*
X82836604Y-145851590D01*
X82953521Y-145569326D01*
X83123259Y-145315295D01*
X83339295Y-145099259D01*
X83593326Y-144929521D01*
X83875590Y-144812604D01*
X84025415Y-144782802D01*
X84175239Y-144753000D01*
X84480761Y-144753000D01*
X84630585Y-144782802D01*
X84630585Y-144782802D01*
G37*
G36*
X79630585Y-144782802D02*
G01*
X79780410Y-144812604D01*
X80062674Y-144929521D01*
X80316705Y-145099259D01*
X80532741Y-145315295D01*
X80702479Y-145569326D01*
X80819396Y-145851590D01*
X80879000Y-146151240D01*
X80879000Y-146456760D01*
X80819396Y-146756410D01*
X80702479Y-147038674D01*
X80532741Y-147292705D01*
X80316705Y-147508741D01*
X80062674Y-147678479D01*
X79780410Y-147795396D01*
X79630585Y-147825198D01*
X79480761Y-147855000D01*
X79175239Y-147855000D01*
X79025415Y-147825198D01*
X78875590Y-147795396D01*
X78593326Y-147678479D01*
X78339295Y-147508741D01*
X78123259Y-147292705D01*
X77953521Y-147038674D01*
X77836604Y-146756410D01*
X77777000Y-146456760D01*
X77777000Y-146151240D01*
X77836604Y-145851590D01*
X77953521Y-145569326D01*
X78123259Y-145315295D01*
X78339295Y-145099259D01*
X78593326Y-144929521D01*
X78875590Y-144812604D01*
X79025415Y-144782802D01*
X79175239Y-144753000D01*
X79480761Y-144753000D01*
X79630585Y-144782802D01*
X79630585Y-144782802D01*
G37*
G36*
X69630585Y-144782802D02*
G01*
X69780410Y-144812604D01*
X70062674Y-144929521D01*
X70316705Y-145099259D01*
X70532741Y-145315295D01*
X70702479Y-145569326D01*
X70819396Y-145851590D01*
X70879000Y-146151240D01*
X70879000Y-146456760D01*
X70819396Y-146756410D01*
X70702479Y-147038674D01*
X70532741Y-147292705D01*
X70316705Y-147508741D01*
X70062674Y-147678479D01*
X69780410Y-147795396D01*
X69630585Y-147825198D01*
X69480761Y-147855000D01*
X69175239Y-147855000D01*
X69025415Y-147825198D01*
X68875590Y-147795396D01*
X68593326Y-147678479D01*
X68339295Y-147508741D01*
X68123259Y-147292705D01*
X67953521Y-147038674D01*
X67836604Y-146756410D01*
X67777000Y-146456760D01*
X67777000Y-146151240D01*
X67836604Y-145851590D01*
X67953521Y-145569326D01*
X68123259Y-145315295D01*
X68339295Y-145099259D01*
X68593326Y-144929521D01*
X68875590Y-144812604D01*
X69025415Y-144782802D01*
X69175239Y-144753000D01*
X69480761Y-144753000D01*
X69630585Y-144782802D01*
X69630585Y-144782802D01*
G37*
G36*
X145913797Y-144186610D02*
G01*
X146023579Y-144208447D01*
X146324042Y-144332903D01*
X146594451Y-144513585D01*
X146824415Y-144743549D01*
X147005097Y-145013958D01*
X147129553Y-145314421D01*
X147193000Y-145633391D01*
X147193000Y-145958609D01*
X147129553Y-146277579D01*
X147005097Y-146578042D01*
X146824415Y-146848451D01*
X146594451Y-147078415D01*
X146324042Y-147259097D01*
X146023579Y-147383553D01*
X145917256Y-147404702D01*
X145704611Y-147447000D01*
X145379389Y-147447000D01*
X145166744Y-147404702D01*
X145060421Y-147383553D01*
X144759958Y-147259097D01*
X144489549Y-147078415D01*
X144259585Y-146848451D01*
X144078903Y-146578042D01*
X143954447Y-146277579D01*
X143891000Y-145958609D01*
X143891000Y-145633391D01*
X143954447Y-145314421D01*
X144078903Y-145013958D01*
X144259585Y-144743549D01*
X144489549Y-144513585D01*
X144759958Y-144332903D01*
X145060421Y-144208447D01*
X145170203Y-144186610D01*
X145379389Y-144145000D01*
X145704611Y-144145000D01*
X145913797Y-144186610D01*
X145913797Y-144186610D01*
G37*
G36*
X54219797Y-144186610D02*
G01*
X54329579Y-144208447D01*
X54630042Y-144332903D01*
X54900451Y-144513585D01*
X55130415Y-144743549D01*
X55311097Y-145013958D01*
X55435553Y-145314421D01*
X55499000Y-145633391D01*
X55499000Y-145958609D01*
X55435553Y-146277579D01*
X55311097Y-146578042D01*
X55130415Y-146848451D01*
X54900451Y-147078415D01*
X54630042Y-147259097D01*
X54329579Y-147383553D01*
X54223256Y-147404702D01*
X54010611Y-147447000D01*
X53685389Y-147447000D01*
X53472744Y-147404702D01*
X53366421Y-147383553D01*
X53065958Y-147259097D01*
X52795549Y-147078415D01*
X52565585Y-146848451D01*
X52384903Y-146578042D01*
X52260447Y-146277579D01*
X52197000Y-145958609D01*
X52197000Y-145633391D01*
X52260447Y-145314421D01*
X52384903Y-145013958D01*
X52565585Y-144743549D01*
X52795549Y-144513585D01*
X53065958Y-144332903D01*
X53366421Y-144208447D01*
X53476203Y-144186610D01*
X53685389Y-144145000D01*
X54010611Y-144145000D01*
X54219797Y-144186610D01*
X54219797Y-144186610D01*
G37*
G36*
X121675684Y-143200371D02*
G01*
X121806247Y-143226341D01*
X122052223Y-143328227D01*
X122273595Y-143476144D01*
X122461856Y-143664405D01*
X122609773Y-143885777D01*
X122711659Y-144131753D01*
X122763600Y-144392879D01*
X122763600Y-144659121D01*
X122711659Y-144920247D01*
X122609773Y-145166223D01*
X122461856Y-145387595D01*
X122273595Y-145575856D01*
X122052223Y-145723773D01*
X121806247Y-145825659D01*
X121675883Y-145851590D01*
X121545122Y-145877600D01*
X121278878Y-145877600D01*
X121148117Y-145851590D01*
X121017753Y-145825659D01*
X120771777Y-145723773D01*
X120550405Y-145575856D01*
X120362144Y-145387595D01*
X120214227Y-145166223D01*
X120112341Y-144920247D01*
X120060400Y-144659121D01*
X120060400Y-144392879D01*
X120112341Y-144131753D01*
X120214227Y-143885777D01*
X120362144Y-143664405D01*
X120550405Y-143476144D01*
X120771777Y-143328227D01*
X121017753Y-143226341D01*
X121148316Y-143200371D01*
X121278878Y-143174400D01*
X121545122Y-143174400D01*
X121675684Y-143200371D01*
X121675684Y-143200371D01*
G37*
G36*
X136915684Y-143200371D02*
G01*
X137046247Y-143226341D01*
X137292223Y-143328227D01*
X137513595Y-143476144D01*
X137701856Y-143664405D01*
X137849773Y-143885777D01*
X137951659Y-144131753D01*
X138003600Y-144392879D01*
X138003600Y-144659121D01*
X137951659Y-144920247D01*
X137849773Y-145166223D01*
X137701856Y-145387595D01*
X137513595Y-145575856D01*
X137292223Y-145723773D01*
X137046247Y-145825659D01*
X136915883Y-145851590D01*
X136785122Y-145877600D01*
X136518878Y-145877600D01*
X136388117Y-145851590D01*
X136257753Y-145825659D01*
X136011777Y-145723773D01*
X135790405Y-145575856D01*
X135602144Y-145387595D01*
X135454227Y-145166223D01*
X135352341Y-144920247D01*
X135300400Y-144659121D01*
X135300400Y-144392879D01*
X135352341Y-144131753D01*
X135454227Y-143885777D01*
X135602144Y-143664405D01*
X135790405Y-143476144D01*
X136011777Y-143328227D01*
X136257753Y-143226341D01*
X136388316Y-143200371D01*
X136518878Y-143174400D01*
X136785122Y-143174400D01*
X136915684Y-143200371D01*
X136915684Y-143200371D01*
G37*
G36*
X95556564Y-142165389D02*
G01*
X95747833Y-142244615D01*
X95747835Y-142244616D01*
X95913036Y-142355000D01*
X95919973Y-142359635D01*
X96066365Y-142506027D01*
X96181385Y-142678167D01*
X96260611Y-142869436D01*
X96301000Y-143072484D01*
X96301000Y-143279516D01*
X96260611Y-143482564D01*
X96185290Y-143664405D01*
X96181384Y-143673835D01*
X96066365Y-143845973D01*
X95919973Y-143992365D01*
X95747835Y-144107384D01*
X95747834Y-144107385D01*
X95747833Y-144107385D01*
X95556564Y-144186611D01*
X95353516Y-144227000D01*
X95146484Y-144227000D01*
X94943436Y-144186611D01*
X94752167Y-144107385D01*
X94752166Y-144107385D01*
X94752165Y-144107384D01*
X94580027Y-143992365D01*
X94433635Y-143845973D01*
X94318616Y-143673835D01*
X94314710Y-143664405D01*
X94239389Y-143482564D01*
X94199000Y-143279516D01*
X94199000Y-143072484D01*
X94239389Y-142869436D01*
X94318615Y-142678167D01*
X94433635Y-142506027D01*
X94580027Y-142359635D01*
X94586964Y-142355000D01*
X94752165Y-142244616D01*
X94752167Y-142244615D01*
X94943436Y-142165389D01*
X95146484Y-142125000D01*
X95353516Y-142125000D01*
X95556564Y-142165389D01*
X95556564Y-142165389D01*
G37*
G36*
X112066564Y-142165389D02*
G01*
X112257833Y-142244615D01*
X112257835Y-142244616D01*
X112423036Y-142355000D01*
X112429973Y-142359635D01*
X112576365Y-142506027D01*
X112691385Y-142678167D01*
X112770611Y-142869436D01*
X112811000Y-143072484D01*
X112811000Y-143279516D01*
X112770611Y-143482564D01*
X112695290Y-143664405D01*
X112691384Y-143673835D01*
X112576365Y-143845973D01*
X112429973Y-143992365D01*
X112257835Y-144107384D01*
X112257834Y-144107385D01*
X112257833Y-144107385D01*
X112066564Y-144186611D01*
X111863516Y-144227000D01*
X111656484Y-144227000D01*
X111453436Y-144186611D01*
X111262167Y-144107385D01*
X111262166Y-144107385D01*
X111262165Y-144107384D01*
X111090027Y-143992365D01*
X110943635Y-143845973D01*
X110828616Y-143673835D01*
X110824710Y-143664405D01*
X110749389Y-143482564D01*
X110709000Y-143279516D01*
X110709000Y-143072484D01*
X110749389Y-142869436D01*
X110828615Y-142678167D01*
X110943635Y-142506027D01*
X111090027Y-142359635D01*
X111096964Y-142355000D01*
X111262165Y-142244616D01*
X111262167Y-142244615D01*
X111453436Y-142165389D01*
X111656484Y-142125000D01*
X111863516Y-142125000D01*
X112066564Y-142165389D01*
X112066564Y-142165389D01*
G37*
G36*
X84630585Y-139282802D02*
G01*
X84780410Y-139312604D01*
X85062674Y-139429521D01*
X85316705Y-139599259D01*
X85532741Y-139815295D01*
X85702479Y-140069326D01*
X85819396Y-140351590D01*
X85879000Y-140651240D01*
X85879000Y-140956760D01*
X85819396Y-141256410D01*
X85702479Y-141538674D01*
X85532741Y-141792705D01*
X85316705Y-142008741D01*
X85062674Y-142178479D01*
X84780410Y-142295396D01*
X84630585Y-142325198D01*
X84480761Y-142355000D01*
X84175239Y-142355000D01*
X84025415Y-142325198D01*
X83875590Y-142295396D01*
X83593326Y-142178479D01*
X83339295Y-142008741D01*
X83123259Y-141792705D01*
X82953521Y-141538674D01*
X82836604Y-141256410D01*
X82777000Y-140956760D01*
X82777000Y-140651240D01*
X82836604Y-140351590D01*
X82953521Y-140069326D01*
X83123259Y-139815295D01*
X83339295Y-139599259D01*
X83593326Y-139429521D01*
X83875590Y-139312604D01*
X84025415Y-139282802D01*
X84175239Y-139253000D01*
X84480761Y-139253000D01*
X84630585Y-139282802D01*
X84630585Y-139282802D01*
G37*
G36*
X74630585Y-139282802D02*
G01*
X74780410Y-139312604D01*
X75062674Y-139429521D01*
X75316705Y-139599259D01*
X75532741Y-139815295D01*
X75702479Y-140069326D01*
X75819396Y-140351590D01*
X75879000Y-140651240D01*
X75879000Y-140956760D01*
X75819396Y-141256410D01*
X75702479Y-141538674D01*
X75532741Y-141792705D01*
X75316705Y-142008741D01*
X75062674Y-142178479D01*
X74780410Y-142295396D01*
X74630585Y-142325198D01*
X74480761Y-142355000D01*
X74175239Y-142355000D01*
X74025415Y-142325198D01*
X73875590Y-142295396D01*
X73593326Y-142178479D01*
X73339295Y-142008741D01*
X73123259Y-141792705D01*
X72953521Y-141538674D01*
X72836604Y-141256410D01*
X72777000Y-140956760D01*
X72777000Y-140651240D01*
X72836604Y-140351590D01*
X72953521Y-140069326D01*
X73123259Y-139815295D01*
X73339295Y-139599259D01*
X73593326Y-139429521D01*
X73875590Y-139312604D01*
X74025415Y-139282802D01*
X74175239Y-139253000D01*
X74480761Y-139253000D01*
X74630585Y-139282802D01*
X74630585Y-139282802D01*
G37*
G36*
X55592072Y-136652918D02*
G01*
X55837939Y-136754759D01*
X55863556Y-136771876D01*
X56059211Y-136902609D01*
X56247391Y-137090789D01*
X56254861Y-137101969D01*
X56357735Y-137255929D01*
X56395242Y-137312063D01*
X56497082Y-137557928D01*
X56519114Y-137668688D01*
X56549000Y-137818938D01*
X56549000Y-138085062D01*
X56497082Y-138346072D01*
X56395241Y-138591939D01*
X56247390Y-138813212D01*
X56059212Y-139001390D01*
X55837939Y-139149241D01*
X55837938Y-139149242D01*
X55837937Y-139149242D01*
X55592072Y-139251082D01*
X55331063Y-139303000D01*
X55064937Y-139303000D01*
X54803928Y-139251082D01*
X54558063Y-139149242D01*
X54558062Y-139149242D01*
X54558061Y-139149241D01*
X54336788Y-139001390D01*
X54148610Y-138813212D01*
X54000759Y-138591939D01*
X53898918Y-138346072D01*
X53847000Y-138085062D01*
X53847000Y-137818938D01*
X53876887Y-137668688D01*
X53898918Y-137557928D01*
X54000758Y-137312063D01*
X54038266Y-137255929D01*
X54141139Y-137101969D01*
X54148609Y-137090789D01*
X54336789Y-136902609D01*
X54532444Y-136771876D01*
X54558061Y-136754759D01*
X54803928Y-136652918D01*
X55064937Y-136601000D01*
X55331063Y-136601000D01*
X55592072Y-136652918D01*
X55592072Y-136652918D01*
G37*
G36*
X112811000Y-139227000D02*
G01*
X110709000Y-139227000D01*
X110709000Y-137125000D01*
X112811000Y-137125000D01*
X112811000Y-139227000D01*
X112811000Y-139227000D01*
G37*
G36*
X96301000Y-139227000D02*
G01*
X94199000Y-139227000D01*
X94199000Y-137125000D01*
X96301000Y-137125000D01*
X96301000Y-139227000D01*
X96301000Y-139227000D01*
G37*
G36*
X144078072Y-135392918D02*
G01*
X144323939Y-135494759D01*
X144435328Y-135569187D01*
X144545211Y-135642609D01*
X144733391Y-135830789D01*
X144881242Y-136052063D01*
X144983082Y-136297928D01*
X145035000Y-136558937D01*
X145035000Y-136825063D01*
X144983082Y-137086072D01*
X144912725Y-137255931D01*
X144881241Y-137331939D01*
X144733390Y-137553212D01*
X144545212Y-137741390D01*
X144323939Y-137889241D01*
X144323938Y-137889242D01*
X144323937Y-137889242D01*
X144078072Y-137991082D01*
X143817063Y-138043000D01*
X143550937Y-138043000D01*
X143289928Y-137991082D01*
X143044063Y-137889242D01*
X143044062Y-137889242D01*
X143044061Y-137889241D01*
X142822788Y-137741390D01*
X142634610Y-137553212D01*
X142486759Y-137331939D01*
X142455276Y-137255931D01*
X142384918Y-137086072D01*
X142333000Y-136825063D01*
X142333000Y-136558937D01*
X142384918Y-136297928D01*
X142486758Y-136052063D01*
X142634609Y-135830789D01*
X142822789Y-135642609D01*
X142932672Y-135569187D01*
X143044061Y-135494759D01*
X143289928Y-135392918D01*
X143550937Y-135341000D01*
X143817063Y-135341000D01*
X144078072Y-135392918D01*
X144078072Y-135392918D01*
G37*
G36*
X132873768Y-136041711D02*
G01*
X133027729Y-136105484D01*
X133027731Y-136105485D01*
X133166293Y-136198069D01*
X133284131Y-136315907D01*
X133376716Y-136454471D01*
X133440489Y-136608432D01*
X133473000Y-136771875D01*
X133473000Y-136938525D01*
X133440489Y-137101968D01*
X133376716Y-137255929D01*
X133376715Y-137255931D01*
X133284131Y-137394493D01*
X133166293Y-137512331D01*
X133027731Y-137604915D01*
X133027730Y-137604916D01*
X133027729Y-137604916D01*
X132873768Y-137668689D01*
X132710325Y-137701200D01*
X132543675Y-137701200D01*
X132380232Y-137668689D01*
X132226271Y-137604916D01*
X132226270Y-137604916D01*
X132226269Y-137604915D01*
X132087707Y-137512331D01*
X131969869Y-137394493D01*
X131877285Y-137255931D01*
X131877284Y-137255929D01*
X131813511Y-137101968D01*
X131781000Y-136938525D01*
X131781000Y-136771875D01*
X131813511Y-136608432D01*
X131877284Y-136454471D01*
X131969869Y-136315907D01*
X132087707Y-136198069D01*
X132226269Y-136105485D01*
X132226271Y-136105484D01*
X132380232Y-136041711D01*
X132543675Y-136009200D01*
X132710325Y-136009200D01*
X132873768Y-136041711D01*
X132873768Y-136041711D01*
G37*
G36*
X79630585Y-132191654D02*
G01*
X79780410Y-132221456D01*
X80062674Y-132338373D01*
X80316705Y-132508111D01*
X80532741Y-132724147D01*
X80702479Y-132978178D01*
X80819396Y-133260442D01*
X80819396Y-133260443D01*
X80860921Y-133469200D01*
X80879000Y-133560092D01*
X80879000Y-133865612D01*
X80819396Y-134165262D01*
X80702479Y-134447526D01*
X80532741Y-134701557D01*
X80316705Y-134917593D01*
X80062674Y-135087331D01*
X79780410Y-135204248D01*
X79630585Y-135234050D01*
X79480761Y-135263852D01*
X79175239Y-135263852D01*
X79025415Y-135234050D01*
X78875590Y-135204248D01*
X78593326Y-135087331D01*
X78339295Y-134917593D01*
X78123259Y-134701557D01*
X77953521Y-134447526D01*
X77836604Y-134165262D01*
X77777000Y-133865612D01*
X77777000Y-133560092D01*
X77795080Y-133469200D01*
X77836604Y-133260443D01*
X77836604Y-133260442D01*
X77953521Y-132978178D01*
X78123259Y-132724147D01*
X78339295Y-132508111D01*
X78593326Y-132338373D01*
X78875590Y-132221456D01*
X79025415Y-132191654D01*
X79175239Y-132161852D01*
X79480761Y-132161852D01*
X79630585Y-132191654D01*
X79630585Y-132191654D01*
G37*
G36*
X69630585Y-132191654D02*
G01*
X69780410Y-132221456D01*
X70062674Y-132338373D01*
X70316705Y-132508111D01*
X70532741Y-132724147D01*
X70702479Y-132978178D01*
X70819396Y-133260442D01*
X70819396Y-133260443D01*
X70860921Y-133469200D01*
X70879000Y-133560092D01*
X70879000Y-133865612D01*
X70819396Y-134165262D01*
X70702479Y-134447526D01*
X70532741Y-134701557D01*
X70316705Y-134917593D01*
X70062674Y-135087331D01*
X69780410Y-135204248D01*
X69630585Y-135234050D01*
X69480761Y-135263852D01*
X69175239Y-135263852D01*
X69025415Y-135234050D01*
X68875590Y-135204248D01*
X68593326Y-135087331D01*
X68339295Y-134917593D01*
X68123259Y-134701557D01*
X67953521Y-134447526D01*
X67836604Y-134165262D01*
X67777000Y-133865612D01*
X67777000Y-133560092D01*
X67795080Y-133469200D01*
X67836604Y-133260443D01*
X67836604Y-133260442D01*
X67953521Y-132978178D01*
X68123259Y-132724147D01*
X68339295Y-132508111D01*
X68593326Y-132338373D01*
X68875590Y-132221456D01*
X69025415Y-132191654D01*
X69175239Y-132161852D01*
X69480761Y-132161852D01*
X69630585Y-132191654D01*
X69630585Y-132191654D01*
G37*
G36*
X84630585Y-132191654D02*
G01*
X84780410Y-132221456D01*
X85062674Y-132338373D01*
X85316705Y-132508111D01*
X85532741Y-132724147D01*
X85702479Y-132978178D01*
X85819396Y-133260442D01*
X85819396Y-133260443D01*
X85860921Y-133469200D01*
X85879000Y-133560092D01*
X85879000Y-133865612D01*
X85819396Y-134165262D01*
X85702479Y-134447526D01*
X85532741Y-134701557D01*
X85316705Y-134917593D01*
X85062674Y-135087331D01*
X84780410Y-135204248D01*
X84630585Y-135234050D01*
X84480761Y-135263852D01*
X84175239Y-135263852D01*
X84025415Y-135234050D01*
X83875590Y-135204248D01*
X83593326Y-135087331D01*
X83339295Y-134917593D01*
X83123259Y-134701557D01*
X82953521Y-134447526D01*
X82836604Y-134165262D01*
X82777000Y-133865612D01*
X82777000Y-133560092D01*
X82795080Y-133469200D01*
X82836604Y-133260443D01*
X82836604Y-133260442D01*
X82953521Y-132978178D01*
X83123259Y-132724147D01*
X83339295Y-132508111D01*
X83593326Y-132338373D01*
X83875590Y-132221456D01*
X84025415Y-132191654D01*
X84175239Y-132161852D01*
X84480761Y-132161852D01*
X84630585Y-132191654D01*
X84630585Y-132191654D01*
G37*
G36*
X132873768Y-133501711D02*
G01*
X133027729Y-133565484D01*
X133027731Y-133565485D01*
X133166293Y-133658069D01*
X133284131Y-133775907D01*
X133344071Y-133865613D01*
X133376716Y-133914471D01*
X133440489Y-134068432D01*
X133473000Y-134231875D01*
X133473000Y-134398525D01*
X133440489Y-134561968D01*
X133382669Y-134701557D01*
X133376715Y-134715931D01*
X133284131Y-134854493D01*
X133166293Y-134972331D01*
X133027731Y-135064915D01*
X133027730Y-135064916D01*
X133027729Y-135064916D01*
X132873768Y-135128689D01*
X132710325Y-135161200D01*
X132543675Y-135161200D01*
X132380232Y-135128689D01*
X132226271Y-135064916D01*
X132226270Y-135064916D01*
X132226269Y-135064915D01*
X132087707Y-134972331D01*
X131969869Y-134854493D01*
X131877285Y-134715931D01*
X131871331Y-134701557D01*
X131813511Y-134561968D01*
X131781000Y-134398525D01*
X131781000Y-134231875D01*
X131813511Y-134068432D01*
X131877284Y-133914471D01*
X131909930Y-133865613D01*
X131969869Y-133775907D01*
X132087707Y-133658069D01*
X132226269Y-133565485D01*
X132226271Y-133565484D01*
X132380232Y-133501711D01*
X132543675Y-133469200D01*
X132710325Y-133469200D01*
X132873768Y-133501711D01*
X132873768Y-133501711D01*
G37*
G36*
X55592072Y-131652918D02*
G01*
X55686126Y-131691876D01*
X55837939Y-131754759D01*
X55943154Y-131825062D01*
X56059211Y-131902609D01*
X56247391Y-132090789D01*
X56395242Y-132312063D01*
X56497082Y-132557928D01*
X56549000Y-132818937D01*
X56549000Y-133085063D01*
X56497082Y-133346072D01*
X56408433Y-133560092D01*
X56395241Y-133591939D01*
X56247390Y-133813212D01*
X56059212Y-134001390D01*
X55837939Y-134149241D01*
X55837938Y-134149242D01*
X55837937Y-134149242D01*
X55592072Y-134251082D01*
X55331063Y-134303000D01*
X55064937Y-134303000D01*
X54803928Y-134251082D01*
X54558063Y-134149242D01*
X54558062Y-134149242D01*
X54558061Y-134149241D01*
X54336788Y-134001390D01*
X54148610Y-133813212D01*
X54000759Y-133591939D01*
X53987568Y-133560092D01*
X53898918Y-133346072D01*
X53847000Y-133085063D01*
X53847000Y-132818937D01*
X53898918Y-132557928D01*
X54000758Y-132312063D01*
X54148609Y-132090789D01*
X54336789Y-131902609D01*
X54452846Y-131825062D01*
X54558061Y-131754759D01*
X54709875Y-131691876D01*
X54803928Y-131652918D01*
X55064937Y-131601000D01*
X55331063Y-131601000D01*
X55592072Y-131652918D01*
X55592072Y-131652918D01*
G37*
G36*
X144078072Y-130392918D02*
G01*
X144323939Y-130494759D01*
X144545212Y-130642610D01*
X144733390Y-130830788D01*
X144881241Y-131052061D01*
X144983082Y-131297928D01*
X145035000Y-131558938D01*
X145035000Y-131825062D01*
X144983082Y-132086072D01*
X144881241Y-132331939D01*
X144733390Y-132553212D01*
X144545212Y-132741390D01*
X144323939Y-132889241D01*
X144323938Y-132889242D01*
X144323937Y-132889242D01*
X144078072Y-132991082D01*
X143817063Y-133043000D01*
X143550937Y-133043000D01*
X143289928Y-132991082D01*
X143044063Y-132889242D01*
X143044062Y-132889242D01*
X143044061Y-132889241D01*
X142822788Y-132741390D01*
X142634610Y-132553212D01*
X142486759Y-132331939D01*
X142384918Y-132086072D01*
X142333000Y-131825062D01*
X142333000Y-131558938D01*
X142384918Y-131297928D01*
X142486759Y-131052061D01*
X142634610Y-130830788D01*
X142822788Y-130642610D01*
X143044061Y-130494759D01*
X143289928Y-130392918D01*
X143550937Y-130341000D01*
X143817063Y-130341000D01*
X144078072Y-130392918D01*
X144078072Y-130392918D01*
G37*
G36*
X132873768Y-130961711D02*
G01*
X133027729Y-131025484D01*
X133027731Y-131025485D01*
X133067505Y-131052061D01*
X133166293Y-131118069D01*
X133284131Y-131235907D01*
X133376716Y-131374471D01*
X133440489Y-131528432D01*
X133473000Y-131691875D01*
X133473000Y-131858525D01*
X133440489Y-132021968D01*
X133411982Y-132090789D01*
X133376715Y-132175931D01*
X133284131Y-132314493D01*
X133166293Y-132432331D01*
X133027731Y-132524915D01*
X133027730Y-132524916D01*
X133027729Y-132524916D01*
X132873768Y-132588689D01*
X132710325Y-132621200D01*
X132543675Y-132621200D01*
X132380232Y-132588689D01*
X132226271Y-132524916D01*
X132226270Y-132524916D01*
X132226269Y-132524915D01*
X132087707Y-132432331D01*
X131969869Y-132314493D01*
X131877285Y-132175931D01*
X131842018Y-132090789D01*
X131813511Y-132021968D01*
X131781000Y-131858525D01*
X131781000Y-131691875D01*
X131813511Y-131528432D01*
X131877284Y-131374471D01*
X131969869Y-131235907D01*
X132087707Y-131118069D01*
X132186495Y-131052061D01*
X132226269Y-131025485D01*
X132226271Y-131025484D01*
X132380232Y-130961711D01*
X132543675Y-130929200D01*
X132710325Y-130929200D01*
X132873768Y-130961711D01*
X132873768Y-130961711D01*
G37*
G36*
X101808511Y-128643927D02*
G01*
X101957811Y-128673624D01*
X102121783Y-128741544D01*
X102269353Y-128840147D01*
X102394852Y-128965646D01*
X102493455Y-129113216D01*
X102561375Y-129277188D01*
X102595999Y-129451259D01*
X102595999Y-129628741D01*
X102561375Y-129802812D01*
X102493455Y-129966784D01*
X102394852Y-130114354D01*
X102269353Y-130239853D01*
X102121783Y-130338456D01*
X101957811Y-130406376D01*
X101808511Y-130436073D01*
X101783741Y-130441000D01*
X101606257Y-130441000D01*
X101581487Y-130436073D01*
X101432187Y-130406376D01*
X101268215Y-130338456D01*
X101120645Y-130239853D01*
X100995146Y-130114354D01*
X100896543Y-129966784D01*
X100828623Y-129802812D01*
X100793999Y-129628741D01*
X100793999Y-129451259D01*
X100828623Y-129277188D01*
X100896543Y-129113216D01*
X100995146Y-128965646D01*
X101120645Y-128840147D01*
X101268215Y-128741544D01*
X101432187Y-128673624D01*
X101581487Y-128643927D01*
X101606257Y-128639000D01*
X101783741Y-128639000D01*
X101808511Y-128643927D01*
X101808511Y-128643927D01*
G37*
G36*
X111968511Y-128643927D02*
G01*
X112117811Y-128673624D01*
X112281783Y-128741544D01*
X112429353Y-128840147D01*
X112554852Y-128965646D01*
X112653455Y-129113216D01*
X112721375Y-129277188D01*
X112755999Y-129451259D01*
X112755999Y-129628741D01*
X112721375Y-129802812D01*
X112653455Y-129966784D01*
X112554852Y-130114354D01*
X112429353Y-130239853D01*
X112281783Y-130338456D01*
X112117811Y-130406376D01*
X111968511Y-130436073D01*
X111943741Y-130441000D01*
X111766257Y-130441000D01*
X111741487Y-130436073D01*
X111592187Y-130406376D01*
X111428215Y-130338456D01*
X111280645Y-130239853D01*
X111155146Y-130114354D01*
X111056543Y-129966784D01*
X110988623Y-129802812D01*
X110953999Y-129628741D01*
X110953999Y-129451259D01*
X110988623Y-129277188D01*
X111056543Y-129113216D01*
X111155146Y-128965646D01*
X111280645Y-128840147D01*
X111428215Y-128741544D01*
X111592187Y-128673624D01*
X111741487Y-128643927D01*
X111766257Y-128639000D01*
X111943741Y-128639000D01*
X111968511Y-128643927D01*
X111968511Y-128643927D01*
G37*
G36*
X119265000Y-129819000D02*
G01*
X117463000Y-129819000D01*
X117463000Y-128017000D01*
X119265000Y-128017000D01*
X119265000Y-129819000D01*
X119265000Y-129819000D01*
G37*
G36*
X94627000Y-129819000D02*
G01*
X92825000Y-129819000D01*
X92825000Y-128017000D01*
X94627000Y-128017000D01*
X94627000Y-129819000D01*
X94627000Y-129819000D01*
G37*
G36*
X84577974Y-126681189D02*
G01*
X84780410Y-126721456D01*
X85062674Y-126838373D01*
X85316705Y-127008111D01*
X85532741Y-127224147D01*
X85702479Y-127478178D01*
X85819396Y-127760442D01*
X85847355Y-127901000D01*
X85870429Y-128017000D01*
X85879000Y-128060092D01*
X85879000Y-128365612D01*
X85819396Y-128665262D01*
X85702479Y-128947526D01*
X85532741Y-129201557D01*
X85316705Y-129417593D01*
X85062674Y-129587331D01*
X84780410Y-129704248D01*
X84630585Y-129734050D01*
X84480761Y-129763852D01*
X84175239Y-129763852D01*
X84025415Y-129734050D01*
X83875590Y-129704248D01*
X83593326Y-129587331D01*
X83339295Y-129417593D01*
X83123259Y-129201557D01*
X82953521Y-128947526D01*
X82836604Y-128665262D01*
X82777000Y-128365612D01*
X82777000Y-128060092D01*
X82785572Y-128017000D01*
X82808645Y-127901000D01*
X82836604Y-127760442D01*
X82953521Y-127478178D01*
X83123259Y-127224147D01*
X83339295Y-127008111D01*
X83593326Y-126838373D01*
X83875590Y-126721456D01*
X84078026Y-126681189D01*
X84175239Y-126661852D01*
X84480761Y-126661852D01*
X84577974Y-126681189D01*
X84577974Y-126681189D01*
G37*
G36*
X74577974Y-126681189D02*
G01*
X74780410Y-126721456D01*
X75062674Y-126838373D01*
X75316705Y-127008111D01*
X75532741Y-127224147D01*
X75702479Y-127478178D01*
X75819396Y-127760442D01*
X75847355Y-127901000D01*
X75870429Y-128017000D01*
X75879000Y-128060092D01*
X75879000Y-128365612D01*
X75819396Y-128665262D01*
X75702479Y-128947526D01*
X75532741Y-129201557D01*
X75316705Y-129417593D01*
X75062674Y-129587331D01*
X74780410Y-129704248D01*
X74630585Y-129734050D01*
X74480761Y-129763852D01*
X74175239Y-129763852D01*
X74025415Y-129734050D01*
X73875590Y-129704248D01*
X73593326Y-129587331D01*
X73339295Y-129417593D01*
X73123259Y-129201557D01*
X72953521Y-128947526D01*
X72836604Y-128665262D01*
X72777000Y-128365612D01*
X72777000Y-128060092D01*
X72785572Y-128017000D01*
X72808645Y-127901000D01*
X72836604Y-127760442D01*
X72953521Y-127478178D01*
X73123259Y-127224147D01*
X73339295Y-127008111D01*
X73593326Y-126838373D01*
X73875590Y-126721456D01*
X74078026Y-126681189D01*
X74175239Y-126661852D01*
X74480761Y-126661852D01*
X74577974Y-126681189D01*
X74577974Y-126681189D01*
G37*
G36*
X55592072Y-126652918D02*
G01*
X55790237Y-126735000D01*
X55837939Y-126754759D01*
X55949328Y-126829187D01*
X56059211Y-126902609D01*
X56247391Y-127090789D01*
X56320813Y-127200672D01*
X56362334Y-127262812D01*
X56395242Y-127312063D01*
X56497082Y-127557928D01*
X56537365Y-127760442D01*
X56549000Y-127818938D01*
X56549000Y-128085062D01*
X56497082Y-128346072D01*
X56395241Y-128591939D01*
X56346248Y-128665261D01*
X56295278Y-128741544D01*
X56247390Y-128813212D01*
X56059212Y-129001390D01*
X55837939Y-129149241D01*
X55837938Y-129149242D01*
X55837937Y-129149242D01*
X55592072Y-129251082D01*
X55331063Y-129303000D01*
X55064937Y-129303000D01*
X54803928Y-129251082D01*
X54558063Y-129149242D01*
X54558062Y-129149242D01*
X54558061Y-129149241D01*
X54336788Y-129001390D01*
X54148610Y-128813212D01*
X54100723Y-128741544D01*
X54049752Y-128665261D01*
X54000759Y-128591939D01*
X53898918Y-128346072D01*
X53847000Y-128085062D01*
X53847000Y-127818938D01*
X53858636Y-127760442D01*
X53898918Y-127557928D01*
X54000758Y-127312063D01*
X54033667Y-127262812D01*
X54075187Y-127200672D01*
X54148609Y-127090789D01*
X54336789Y-126902609D01*
X54446672Y-126829187D01*
X54558061Y-126754759D01*
X54605764Y-126735000D01*
X54803928Y-126652918D01*
X55064937Y-126601000D01*
X55331063Y-126601000D01*
X55592072Y-126652918D01*
X55592072Y-126652918D01*
G37*
G36*
X101808511Y-126103927D02*
G01*
X101957811Y-126133624D01*
X102121783Y-126201544D01*
X102269353Y-126300147D01*
X102394852Y-126425646D01*
X102493455Y-126573216D01*
X102561375Y-126737188D01*
X102581501Y-126838373D01*
X102594279Y-126902609D01*
X102595999Y-126911259D01*
X102595999Y-127088741D01*
X102561375Y-127262812D01*
X102493455Y-127426784D01*
X102394852Y-127574354D01*
X102269353Y-127699853D01*
X102121783Y-127798456D01*
X101957811Y-127866376D01*
X101808511Y-127896073D01*
X101783741Y-127901000D01*
X101606257Y-127901000D01*
X101581487Y-127896073D01*
X101432187Y-127866376D01*
X101268215Y-127798456D01*
X101120645Y-127699853D01*
X100995146Y-127574354D01*
X100896543Y-127426784D01*
X100828623Y-127262812D01*
X100793999Y-127088741D01*
X100793999Y-126911259D01*
X100795720Y-126902609D01*
X100808497Y-126838373D01*
X100828623Y-126737188D01*
X100896543Y-126573216D01*
X100995146Y-126425646D01*
X101120645Y-126300147D01*
X101268215Y-126201544D01*
X101432187Y-126133624D01*
X101581487Y-126103927D01*
X101606257Y-126099000D01*
X101783741Y-126099000D01*
X101808511Y-126103927D01*
X101808511Y-126103927D01*
G37*
G36*
X111968511Y-126103927D02*
G01*
X112117811Y-126133624D01*
X112281783Y-126201544D01*
X112429353Y-126300147D01*
X112554852Y-126425646D01*
X112653455Y-126573216D01*
X112721375Y-126737188D01*
X112741501Y-126838373D01*
X112754279Y-126902609D01*
X112755999Y-126911259D01*
X112755999Y-127088741D01*
X112721375Y-127262812D01*
X112653455Y-127426784D01*
X112554852Y-127574354D01*
X112429353Y-127699853D01*
X112281783Y-127798456D01*
X112117811Y-127866376D01*
X111968511Y-127896073D01*
X111943741Y-127901000D01*
X111766257Y-127901000D01*
X111741487Y-127896073D01*
X111592187Y-127866376D01*
X111428215Y-127798456D01*
X111280645Y-127699853D01*
X111155146Y-127574354D01*
X111056543Y-127426784D01*
X110988623Y-127262812D01*
X110953999Y-127088741D01*
X110953999Y-126911259D01*
X110955720Y-126902609D01*
X110968497Y-126838373D01*
X110988623Y-126737188D01*
X111056543Y-126573216D01*
X111155146Y-126425646D01*
X111280645Y-126300147D01*
X111428215Y-126201544D01*
X111592187Y-126133624D01*
X111741487Y-126103927D01*
X111766257Y-126099000D01*
X111943741Y-126099000D01*
X111968511Y-126103927D01*
X111968511Y-126103927D01*
G37*
G36*
X118474442Y-125483518D02*
G01*
X118540627Y-125490037D01*
X118710466Y-125541557D01*
X118866991Y-125625222D01*
X118902729Y-125654552D01*
X119004186Y-125737814D01*
X119085402Y-125836778D01*
X119116778Y-125875009D01*
X119200443Y-126031534D01*
X119251963Y-126201373D01*
X119269359Y-126378000D01*
X119251963Y-126554627D01*
X119206002Y-126706140D01*
X119200442Y-126724468D01*
X119184251Y-126754759D01*
X119116778Y-126880991D01*
X119087448Y-126916729D01*
X119004186Y-127018186D01*
X118902729Y-127101448D01*
X118866991Y-127130778D01*
X118710466Y-127214443D01*
X118540627Y-127265963D01*
X118474442Y-127272482D01*
X118408260Y-127279000D01*
X118319740Y-127279000D01*
X118253558Y-127272482D01*
X118187373Y-127265963D01*
X118017534Y-127214443D01*
X117861009Y-127130778D01*
X117825271Y-127101448D01*
X117723814Y-127018186D01*
X117640552Y-126916729D01*
X117611222Y-126880991D01*
X117543749Y-126754759D01*
X117527558Y-126724468D01*
X117521998Y-126706140D01*
X117476037Y-126554627D01*
X117458641Y-126378000D01*
X117476037Y-126201373D01*
X117527557Y-126031534D01*
X117611222Y-125875009D01*
X117642598Y-125836778D01*
X117723814Y-125737814D01*
X117825271Y-125654552D01*
X117861009Y-125625222D01*
X118017534Y-125541557D01*
X118187373Y-125490037D01*
X118253558Y-125483518D01*
X118319740Y-125477000D01*
X118408260Y-125477000D01*
X118474442Y-125483518D01*
X118474442Y-125483518D01*
G37*
G36*
X93836442Y-125483518D02*
G01*
X93902627Y-125490037D01*
X94072466Y-125541557D01*
X94228991Y-125625222D01*
X94264729Y-125654552D01*
X94366186Y-125737814D01*
X94447402Y-125836778D01*
X94478778Y-125875009D01*
X94562443Y-126031534D01*
X94613963Y-126201373D01*
X94631359Y-126378000D01*
X94613963Y-126554627D01*
X94568002Y-126706140D01*
X94562442Y-126724468D01*
X94546251Y-126754759D01*
X94478778Y-126880991D01*
X94449448Y-126916729D01*
X94366186Y-127018186D01*
X94264729Y-127101448D01*
X94228991Y-127130778D01*
X94072466Y-127214443D01*
X93902627Y-127265963D01*
X93836442Y-127272482D01*
X93770260Y-127279000D01*
X93681740Y-127279000D01*
X93615558Y-127272482D01*
X93549373Y-127265963D01*
X93379534Y-127214443D01*
X93223009Y-127130778D01*
X93187271Y-127101448D01*
X93085814Y-127018186D01*
X93002552Y-126916729D01*
X92973222Y-126880991D01*
X92905749Y-126754759D01*
X92889558Y-126724468D01*
X92883998Y-126706140D01*
X92838037Y-126554627D01*
X92820641Y-126378000D01*
X92838037Y-126201373D01*
X92889557Y-126031534D01*
X92973222Y-125875009D01*
X93004598Y-125836778D01*
X93085814Y-125737814D01*
X93187271Y-125654552D01*
X93223009Y-125625222D01*
X93379534Y-125541557D01*
X93549373Y-125490037D01*
X93615558Y-125483518D01*
X93681740Y-125477000D01*
X93770260Y-125477000D01*
X93836442Y-125483518D01*
X93836442Y-125483518D01*
G37*
G36*
X125295665Y-125236622D02*
G01*
X125369222Y-125243867D01*
X125510786Y-125286810D01*
X125641252Y-125356546D01*
X125646679Y-125361000D01*
X125755607Y-125450393D01*
X125825008Y-125534960D01*
X125849454Y-125564748D01*
X125919190Y-125695214D01*
X125962133Y-125836778D01*
X125976633Y-125984000D01*
X125962133Y-126131222D01*
X125919190Y-126272786D01*
X125849454Y-126403252D01*
X125831076Y-126425646D01*
X125755607Y-126517607D01*
X125687843Y-126573218D01*
X125641252Y-126611454D01*
X125510786Y-126681190D01*
X125369222Y-126724133D01*
X125295665Y-126731378D01*
X125258888Y-126735000D01*
X125185112Y-126735000D01*
X125148335Y-126731378D01*
X125074778Y-126724133D01*
X124933214Y-126681190D01*
X124802748Y-126611454D01*
X124756157Y-126573218D01*
X124688393Y-126517607D01*
X124612924Y-126425646D01*
X124594546Y-126403252D01*
X124524810Y-126272786D01*
X124481867Y-126131222D01*
X124467367Y-125984000D01*
X124481867Y-125836778D01*
X124524810Y-125695214D01*
X124594546Y-125564748D01*
X124618992Y-125534960D01*
X124688393Y-125450393D01*
X124797321Y-125361000D01*
X124802748Y-125356546D01*
X124933214Y-125286810D01*
X125074778Y-125243867D01*
X125148335Y-125236622D01*
X125185112Y-125233000D01*
X125258888Y-125233000D01*
X125295665Y-125236622D01*
X125295665Y-125236622D01*
G37*
G36*
X133061059Y-125261860D02*
G01*
X133121294Y-125286810D01*
X133197732Y-125318472D01*
X133320735Y-125400660D01*
X133425340Y-125505265D01*
X133507528Y-125628268D01*
X133507529Y-125628270D01*
X133564140Y-125764941D01*
X133593000Y-125910032D01*
X133593000Y-126057968D01*
X133564442Y-126201544D01*
X133564140Y-126203059D01*
X133507528Y-126339732D01*
X133425340Y-126462735D01*
X133320735Y-126567340D01*
X133197732Y-126649528D01*
X133197731Y-126649529D01*
X133197730Y-126649529D01*
X133061059Y-126706140D01*
X132915968Y-126735000D01*
X132768032Y-126735000D01*
X132622941Y-126706140D01*
X132486270Y-126649529D01*
X132486269Y-126649529D01*
X132486268Y-126649528D01*
X132363265Y-126567340D01*
X132258660Y-126462735D01*
X132176472Y-126339732D01*
X132119860Y-126203059D01*
X132119559Y-126201544D01*
X132091000Y-126057968D01*
X132091000Y-125910032D01*
X132119860Y-125764941D01*
X132176471Y-125628270D01*
X132176472Y-125628268D01*
X132258660Y-125505265D01*
X132363265Y-125400660D01*
X132486268Y-125318472D01*
X132562707Y-125286810D01*
X132622941Y-125261860D01*
X132768032Y-125233000D01*
X132915968Y-125233000D01*
X133061059Y-125261860D01*
X133061059Y-125261860D01*
G37*
G36*
X101808511Y-123563927D02*
G01*
X101957811Y-123593624D01*
X102121783Y-123661544D01*
X102269353Y-123760147D01*
X102394852Y-123885646D01*
X102493455Y-124033216D01*
X102561375Y-124197188D01*
X102595999Y-124371259D01*
X102595999Y-124548741D01*
X102561375Y-124722812D01*
X102493455Y-124886784D01*
X102394852Y-125034354D01*
X102269353Y-125159853D01*
X102121783Y-125258456D01*
X101957811Y-125326376D01*
X101808511Y-125356073D01*
X101783741Y-125361000D01*
X101606257Y-125361000D01*
X101581487Y-125356073D01*
X101432187Y-125326376D01*
X101268215Y-125258456D01*
X101120645Y-125159853D01*
X100995146Y-125034354D01*
X100896543Y-124886784D01*
X100828623Y-124722812D01*
X100793999Y-124548741D01*
X100793999Y-124371259D01*
X100828623Y-124197188D01*
X100896543Y-124033216D01*
X100995146Y-123885646D01*
X101120645Y-123760147D01*
X101268215Y-123661544D01*
X101432187Y-123593624D01*
X101581487Y-123563927D01*
X101606257Y-123559000D01*
X101783741Y-123559000D01*
X101808511Y-123563927D01*
X101808511Y-123563927D01*
G37*
G36*
X111968511Y-123563927D02*
G01*
X112117811Y-123593624D01*
X112281783Y-123661544D01*
X112429353Y-123760147D01*
X112554852Y-123885646D01*
X112653455Y-124033216D01*
X112721375Y-124197188D01*
X112755999Y-124371259D01*
X112755999Y-124548741D01*
X112721375Y-124722812D01*
X112653455Y-124886784D01*
X112554852Y-125034354D01*
X112429353Y-125159853D01*
X112281783Y-125258456D01*
X112117811Y-125326376D01*
X111968511Y-125356073D01*
X111943741Y-125361000D01*
X111766257Y-125361000D01*
X111741487Y-125356073D01*
X111592187Y-125326376D01*
X111428215Y-125258456D01*
X111280645Y-125159853D01*
X111155146Y-125034354D01*
X111056543Y-124886784D01*
X110988623Y-124722812D01*
X110953999Y-124548741D01*
X110953999Y-124371259D01*
X110988623Y-124197188D01*
X111056543Y-124033216D01*
X111155146Y-123885646D01*
X111280645Y-123760147D01*
X111428215Y-123661544D01*
X111592187Y-123593624D01*
X111741487Y-123563927D01*
X111766257Y-123559000D01*
X111943741Y-123559000D01*
X111968511Y-123563927D01*
X111968511Y-123563927D01*
G37*
G36*
X93836443Y-122943519D02*
G01*
X93902627Y-122950037D01*
X94072466Y-123001557D01*
X94228991Y-123085222D01*
X94264729Y-123114552D01*
X94366186Y-123197814D01*
X94449448Y-123299271D01*
X94478778Y-123335009D01*
X94562443Y-123491534D01*
X94613963Y-123661373D01*
X94631359Y-123838000D01*
X94613963Y-124014627D01*
X94562443Y-124184466D01*
X94478778Y-124340991D01*
X94449448Y-124376729D01*
X94366186Y-124478186D01*
X94280213Y-124548741D01*
X94228991Y-124590778D01*
X94072466Y-124674443D01*
X93902627Y-124725963D01*
X93836442Y-124732482D01*
X93770260Y-124739000D01*
X93681740Y-124739000D01*
X93615558Y-124732482D01*
X93549373Y-124725963D01*
X93379534Y-124674443D01*
X93223009Y-124590778D01*
X93171787Y-124548741D01*
X93085814Y-124478186D01*
X93002552Y-124376729D01*
X92973222Y-124340991D01*
X92889557Y-124184466D01*
X92838037Y-124014627D01*
X92820641Y-123838000D01*
X92838037Y-123661373D01*
X92889557Y-123491534D01*
X92973222Y-123335009D01*
X93002552Y-123299271D01*
X93085814Y-123197814D01*
X93187271Y-123114552D01*
X93223009Y-123085222D01*
X93379534Y-123001557D01*
X93549373Y-122950037D01*
X93615557Y-122943519D01*
X93681740Y-122937000D01*
X93770260Y-122937000D01*
X93836443Y-122943519D01*
X93836443Y-122943519D01*
G37*
G36*
X118474443Y-122943519D02*
G01*
X118540627Y-122950037D01*
X118710466Y-123001557D01*
X118866991Y-123085222D01*
X118902729Y-123114552D01*
X119004186Y-123197814D01*
X119087448Y-123299271D01*
X119116778Y-123335009D01*
X119200443Y-123491534D01*
X119251963Y-123661373D01*
X119269359Y-123838000D01*
X119251963Y-124014627D01*
X119200443Y-124184466D01*
X119116778Y-124340991D01*
X119087448Y-124376729D01*
X119004186Y-124478186D01*
X118918213Y-124548741D01*
X118866991Y-124590778D01*
X118710466Y-124674443D01*
X118540627Y-124725963D01*
X118474442Y-124732482D01*
X118408260Y-124739000D01*
X118319740Y-124739000D01*
X118253558Y-124732482D01*
X118187373Y-124725963D01*
X118017534Y-124674443D01*
X117861009Y-124590778D01*
X117809787Y-124548741D01*
X117723814Y-124478186D01*
X117640552Y-124376729D01*
X117611222Y-124340991D01*
X117527557Y-124184466D01*
X117476037Y-124014627D01*
X117458641Y-123838000D01*
X117476037Y-123661373D01*
X117527557Y-123491534D01*
X117611222Y-123335009D01*
X117640552Y-123299271D01*
X117723814Y-123197814D01*
X117825271Y-123114552D01*
X117861009Y-123085222D01*
X118017534Y-123001557D01*
X118187373Y-122950037D01*
X118253557Y-122943519D01*
X118319740Y-122937000D01*
X118408260Y-122937000D01*
X118474443Y-122943519D01*
X118474443Y-122943519D01*
G37*
G36*
X55592072Y-121652918D02*
G01*
X55837939Y-121754759D01*
X55949328Y-121829187D01*
X56059211Y-121902609D01*
X56247391Y-122090789D01*
X56395242Y-122312063D01*
X56497082Y-122557928D01*
X56549000Y-122818937D01*
X56549000Y-123085063D01*
X56497082Y-123346072D01*
X56395242Y-123591937D01*
X56247391Y-123813211D01*
X56059211Y-124001391D01*
X55949328Y-124074813D01*
X55837939Y-124149241D01*
X55837938Y-124149242D01*
X55837937Y-124149242D01*
X55592072Y-124251082D01*
X55331063Y-124303000D01*
X55064937Y-124303000D01*
X54803928Y-124251082D01*
X54558063Y-124149242D01*
X54558062Y-124149242D01*
X54558061Y-124149241D01*
X54446672Y-124074813D01*
X54336789Y-124001391D01*
X54148609Y-123813211D01*
X54000758Y-123591937D01*
X53898918Y-123346072D01*
X53847000Y-123085063D01*
X53847000Y-122818937D01*
X53898918Y-122557928D01*
X54000758Y-122312063D01*
X54148609Y-122090789D01*
X54336789Y-121902609D01*
X54446672Y-121829187D01*
X54558061Y-121754759D01*
X54803928Y-121652918D01*
X55064937Y-121601000D01*
X55331063Y-121601000D01*
X55592072Y-121652918D01*
X55592072Y-121652918D01*
G37*
G36*
X111968511Y-121023927D02*
G01*
X112117811Y-121053624D01*
X112281783Y-121121544D01*
X112429353Y-121220147D01*
X112554852Y-121345646D01*
X112653455Y-121493216D01*
X112721375Y-121657188D01*
X112755999Y-121831259D01*
X112755999Y-122008741D01*
X112721375Y-122182812D01*
X112653455Y-122346784D01*
X112554852Y-122494354D01*
X112429353Y-122619853D01*
X112281783Y-122718456D01*
X112117811Y-122786376D01*
X111968511Y-122816073D01*
X111943741Y-122821000D01*
X111766257Y-122821000D01*
X111741487Y-122816073D01*
X111592187Y-122786376D01*
X111428215Y-122718456D01*
X111280645Y-122619853D01*
X111155146Y-122494354D01*
X111056543Y-122346784D01*
X110988623Y-122182812D01*
X110953999Y-122008741D01*
X110953999Y-121831259D01*
X110988623Y-121657188D01*
X111056543Y-121493216D01*
X111155146Y-121345646D01*
X111280645Y-121220147D01*
X111428215Y-121121544D01*
X111592187Y-121053624D01*
X111741487Y-121023927D01*
X111766257Y-121019000D01*
X111943741Y-121019000D01*
X111968511Y-121023927D01*
X111968511Y-121023927D01*
G37*
G36*
X101808511Y-121023927D02*
G01*
X101957811Y-121053624D01*
X102121783Y-121121544D01*
X102269353Y-121220147D01*
X102394852Y-121345646D01*
X102493455Y-121493216D01*
X102561375Y-121657188D01*
X102595999Y-121831259D01*
X102595999Y-122008741D01*
X102561375Y-122182812D01*
X102493455Y-122346784D01*
X102394852Y-122494354D01*
X102269353Y-122619853D01*
X102121783Y-122718456D01*
X101957811Y-122786376D01*
X101808511Y-122816073D01*
X101783741Y-122821000D01*
X101606257Y-122821000D01*
X101581487Y-122816073D01*
X101432187Y-122786376D01*
X101268215Y-122718456D01*
X101120645Y-122619853D01*
X100995146Y-122494354D01*
X100896543Y-122346784D01*
X100828623Y-122182812D01*
X100793999Y-122008741D01*
X100793999Y-121831259D01*
X100828623Y-121657188D01*
X100896543Y-121493216D01*
X100995146Y-121345646D01*
X101120645Y-121220147D01*
X101268215Y-121121544D01*
X101432187Y-121053624D01*
X101581487Y-121023927D01*
X101606257Y-121019000D01*
X101783741Y-121019000D01*
X101808511Y-121023927D01*
X101808511Y-121023927D01*
G37*
G36*
X69630585Y-119600512D02*
G01*
X69780410Y-119630314D01*
X70062674Y-119747231D01*
X70316705Y-119916969D01*
X70532741Y-120133005D01*
X70702479Y-120387036D01*
X70819396Y-120669300D01*
X70879000Y-120968950D01*
X70879000Y-121274470D01*
X70819396Y-121574120D01*
X70702479Y-121856384D01*
X70532741Y-122110415D01*
X70316705Y-122326451D01*
X70062674Y-122496189D01*
X69780410Y-122613106D01*
X69746490Y-122619853D01*
X69480761Y-122672710D01*
X69175239Y-122672710D01*
X68909510Y-122619853D01*
X68875590Y-122613106D01*
X68593326Y-122496189D01*
X68339295Y-122326451D01*
X68123259Y-122110415D01*
X67953521Y-121856384D01*
X67836604Y-121574120D01*
X67777000Y-121274470D01*
X67777000Y-120968950D01*
X67836604Y-120669300D01*
X67953521Y-120387036D01*
X68123259Y-120133005D01*
X68339295Y-119916969D01*
X68593326Y-119747231D01*
X68875590Y-119630314D01*
X69025415Y-119600512D01*
X69175239Y-119570710D01*
X69480761Y-119570710D01*
X69630585Y-119600512D01*
X69630585Y-119600512D01*
G37*
G36*
X84630585Y-119600512D02*
G01*
X84780410Y-119630314D01*
X85062674Y-119747231D01*
X85316705Y-119916969D01*
X85532741Y-120133005D01*
X85702479Y-120387036D01*
X85819396Y-120669300D01*
X85879000Y-120968950D01*
X85879000Y-121274470D01*
X85819396Y-121574120D01*
X85702479Y-121856384D01*
X85532741Y-122110415D01*
X85316705Y-122326451D01*
X85062674Y-122496189D01*
X84780410Y-122613106D01*
X84746490Y-122619853D01*
X84480761Y-122672710D01*
X84175239Y-122672710D01*
X83909510Y-122619853D01*
X83875590Y-122613106D01*
X83593326Y-122496189D01*
X83339295Y-122326451D01*
X83123259Y-122110415D01*
X82953521Y-121856384D01*
X82836604Y-121574120D01*
X82777000Y-121274470D01*
X82777000Y-120968950D01*
X82836604Y-120669300D01*
X82953521Y-120387036D01*
X83123259Y-120133005D01*
X83339295Y-119916969D01*
X83593326Y-119747231D01*
X83875590Y-119630314D01*
X84025415Y-119600512D01*
X84175239Y-119570710D01*
X84480761Y-119570710D01*
X84630585Y-119600512D01*
X84630585Y-119600512D01*
G37*
G36*
X79630585Y-119600512D02*
G01*
X79780410Y-119630314D01*
X80062674Y-119747231D01*
X80316705Y-119916969D01*
X80532741Y-120133005D01*
X80702479Y-120387036D01*
X80819396Y-120669300D01*
X80879000Y-120968950D01*
X80879000Y-121274470D01*
X80819396Y-121574120D01*
X80702479Y-121856384D01*
X80532741Y-122110415D01*
X80316705Y-122326451D01*
X80062674Y-122496189D01*
X79780410Y-122613106D01*
X79746490Y-122619853D01*
X79480761Y-122672710D01*
X79175239Y-122672710D01*
X78909510Y-122619853D01*
X78875590Y-122613106D01*
X78593326Y-122496189D01*
X78339295Y-122326451D01*
X78123259Y-122110415D01*
X77953521Y-121856384D01*
X77836604Y-121574120D01*
X77777000Y-121274470D01*
X77777000Y-120968950D01*
X77836604Y-120669300D01*
X77953521Y-120387036D01*
X78123259Y-120133005D01*
X78339295Y-119916969D01*
X78593326Y-119747231D01*
X78875590Y-119630314D01*
X79025415Y-119600512D01*
X79175239Y-119570710D01*
X79480761Y-119570710D01*
X79630585Y-119600512D01*
X79630585Y-119600512D01*
G37*
G36*
X129983000Y-121601000D02*
G01*
X128081000Y-121601000D01*
X128081000Y-119699000D01*
X129983000Y-119699000D01*
X129983000Y-121601000D01*
X129983000Y-121601000D01*
G37*
G36*
X142888073Y-118857917D02*
G01*
X143118147Y-118953216D01*
X143133940Y-118959758D01*
X143230762Y-119024453D01*
X143355212Y-119107608D01*
X143543392Y-119295788D01*
X143691243Y-119517062D01*
X143793083Y-119762927D01*
X143845001Y-120023936D01*
X143845001Y-120290062D01*
X143793083Y-120551071D01*
X143691243Y-120796936D01*
X143543392Y-121018210D01*
X143355212Y-121206390D01*
X143253323Y-121274470D01*
X143133940Y-121354240D01*
X143133939Y-121354241D01*
X143133938Y-121354241D01*
X142888073Y-121456081D01*
X142627064Y-121507999D01*
X142360938Y-121507999D01*
X142099929Y-121456081D01*
X141854064Y-121354241D01*
X141854063Y-121354241D01*
X141854062Y-121354240D01*
X141734679Y-121274470D01*
X141632790Y-121206390D01*
X141444610Y-121018210D01*
X141296759Y-120796936D01*
X141194919Y-120551071D01*
X141143001Y-120290062D01*
X141143001Y-120023936D01*
X141194919Y-119762927D01*
X141296759Y-119517062D01*
X141444610Y-119295788D01*
X141632790Y-119107608D01*
X141757240Y-119024453D01*
X141854062Y-118959758D01*
X141869856Y-118953216D01*
X142099929Y-118857917D01*
X142360938Y-118805999D01*
X142627064Y-118805999D01*
X142888073Y-118857917D01*
X142888073Y-118857917D01*
G37*
G36*
X111968511Y-118483927D02*
G01*
X112117811Y-118513624D01*
X112281783Y-118581544D01*
X112429353Y-118680147D01*
X112554852Y-118805646D01*
X112653455Y-118953216D01*
X112721375Y-119117188D01*
X112755999Y-119291259D01*
X112755999Y-119468741D01*
X112721375Y-119642812D01*
X112653455Y-119806784D01*
X112554852Y-119954354D01*
X112429353Y-120079853D01*
X112281783Y-120178456D01*
X112117811Y-120246376D01*
X111968511Y-120276073D01*
X111943741Y-120281000D01*
X111766257Y-120281000D01*
X111741487Y-120276073D01*
X111592187Y-120246376D01*
X111428215Y-120178456D01*
X111280645Y-120079853D01*
X111155146Y-119954354D01*
X111056543Y-119806784D01*
X110988623Y-119642812D01*
X110953999Y-119468741D01*
X110953999Y-119291259D01*
X110988623Y-119117188D01*
X111056543Y-118953216D01*
X111155146Y-118805646D01*
X111280645Y-118680147D01*
X111428215Y-118581544D01*
X111592187Y-118513624D01*
X111741487Y-118483927D01*
X111766257Y-118479000D01*
X111943741Y-118479000D01*
X111968511Y-118483927D01*
X111968511Y-118483927D01*
G37*
G36*
X101808511Y-118483927D02*
G01*
X101957811Y-118513624D01*
X102121783Y-118581544D01*
X102269353Y-118680147D01*
X102394852Y-118805646D01*
X102493455Y-118953216D01*
X102561375Y-119117188D01*
X102595999Y-119291259D01*
X102595999Y-119468741D01*
X102561375Y-119642812D01*
X102493455Y-119806784D01*
X102394852Y-119954354D01*
X102269353Y-120079853D01*
X102121783Y-120178456D01*
X101957811Y-120246376D01*
X101808511Y-120276073D01*
X101783741Y-120281000D01*
X101606257Y-120281000D01*
X101581487Y-120276073D01*
X101432187Y-120246376D01*
X101268215Y-120178456D01*
X101120645Y-120079853D01*
X100995146Y-119954354D01*
X100896543Y-119806784D01*
X100828623Y-119642812D01*
X100793999Y-119468741D01*
X100793999Y-119291259D01*
X100828623Y-119117188D01*
X100896543Y-118953216D01*
X100995146Y-118805646D01*
X101120645Y-118680147D01*
X101268215Y-118581544D01*
X101432187Y-118513624D01*
X101581487Y-118483927D01*
X101606257Y-118479000D01*
X101783741Y-118479000D01*
X101808511Y-118483927D01*
X101808511Y-118483927D01*
G37*
G36*
X55592072Y-116652918D02*
G01*
X55829490Y-116751259D01*
X55837939Y-116754759D01*
X55945231Y-116826450D01*
X56059211Y-116902609D01*
X56247391Y-117090789D01*
X56262303Y-117113106D01*
X56364988Y-117266784D01*
X56395242Y-117312063D01*
X56497082Y-117557928D01*
X56549000Y-117818937D01*
X56549000Y-118085063D01*
X56497082Y-118346072D01*
X56395242Y-118591937D01*
X56252446Y-118805646D01*
X56247390Y-118813212D01*
X56059212Y-119001390D01*
X55837939Y-119149241D01*
X55837938Y-119149242D01*
X55837937Y-119149242D01*
X55592072Y-119251082D01*
X55331063Y-119303000D01*
X55064937Y-119303000D01*
X54803928Y-119251082D01*
X54558063Y-119149242D01*
X54558062Y-119149242D01*
X54558061Y-119149241D01*
X54336788Y-119001390D01*
X54148610Y-118813212D01*
X54143555Y-118805646D01*
X54000758Y-118591937D01*
X53898918Y-118346072D01*
X53847000Y-118085063D01*
X53847000Y-117818937D01*
X53898918Y-117557928D01*
X54000758Y-117312063D01*
X54031013Y-117266784D01*
X54133697Y-117113106D01*
X54148609Y-117090789D01*
X54336789Y-116902609D01*
X54450769Y-116826450D01*
X54558061Y-116754759D01*
X54566511Y-116751259D01*
X54803928Y-116652918D01*
X55064937Y-116601000D01*
X55331063Y-116601000D01*
X55592072Y-116652918D01*
X55592072Y-116652918D01*
G37*
G36*
X129309395Y-117195546D02*
G01*
X129482466Y-117267234D01*
X129482467Y-117267235D01*
X129638227Y-117371310D01*
X129770690Y-117503773D01*
X129770691Y-117503775D01*
X129874766Y-117659534D01*
X129946454Y-117832605D01*
X129983000Y-118016333D01*
X129983000Y-118203667D01*
X129946454Y-118387395D01*
X129874766Y-118560466D01*
X129874765Y-118560467D01*
X129770690Y-118716227D01*
X129638227Y-118848690D01*
X129559818Y-118901081D01*
X129482466Y-118952766D01*
X129309395Y-119024454D01*
X129125667Y-119061000D01*
X128938333Y-119061000D01*
X128754605Y-119024454D01*
X128581534Y-118952766D01*
X128504182Y-118901081D01*
X128425773Y-118848690D01*
X128293310Y-118716227D01*
X128189235Y-118560467D01*
X128189234Y-118560466D01*
X128117546Y-118387395D01*
X128081000Y-118203667D01*
X128081000Y-118016333D01*
X128117546Y-117832605D01*
X128189234Y-117659534D01*
X128293309Y-117503775D01*
X128293310Y-117503773D01*
X128425773Y-117371310D01*
X128581533Y-117267235D01*
X128581534Y-117267234D01*
X128754605Y-117195546D01*
X128938333Y-117159000D01*
X129125667Y-117159000D01*
X129309395Y-117195546D01*
X129309395Y-117195546D01*
G37*
G36*
X101808511Y-115943927D02*
G01*
X101957811Y-115973624D01*
X102121783Y-116041544D01*
X102269353Y-116140147D01*
X102394852Y-116265646D01*
X102493455Y-116413216D01*
X102561375Y-116577188D01*
X102595999Y-116751259D01*
X102595999Y-116928741D01*
X102561375Y-117102812D01*
X102493455Y-117266784D01*
X102394852Y-117414354D01*
X102269353Y-117539853D01*
X102121783Y-117638456D01*
X101957811Y-117706376D01*
X101808511Y-117736073D01*
X101783741Y-117741000D01*
X101606257Y-117741000D01*
X101581487Y-117736073D01*
X101432187Y-117706376D01*
X101268215Y-117638456D01*
X101120645Y-117539853D01*
X100995146Y-117414354D01*
X100896543Y-117266784D01*
X100828623Y-117102812D01*
X100793999Y-116928741D01*
X100793999Y-116751259D01*
X100828623Y-116577188D01*
X100896543Y-116413216D01*
X100995146Y-116265646D01*
X101120645Y-116140147D01*
X101268215Y-116041544D01*
X101432187Y-115973624D01*
X101581487Y-115943927D01*
X101606257Y-115939000D01*
X101783741Y-115939000D01*
X101808511Y-115943927D01*
X101808511Y-115943927D01*
G37*
G36*
X111968511Y-115943927D02*
G01*
X112117811Y-115973624D01*
X112281783Y-116041544D01*
X112429353Y-116140147D01*
X112554852Y-116265646D01*
X112653455Y-116413216D01*
X112721375Y-116577188D01*
X112755999Y-116751259D01*
X112755999Y-116928741D01*
X112721375Y-117102812D01*
X112653455Y-117266784D01*
X112554852Y-117414354D01*
X112429353Y-117539853D01*
X112281783Y-117638456D01*
X112117811Y-117706376D01*
X111968511Y-117736073D01*
X111943741Y-117741000D01*
X111766257Y-117741000D01*
X111741487Y-117736073D01*
X111592187Y-117706376D01*
X111428215Y-117638456D01*
X111280645Y-117539853D01*
X111155146Y-117414354D01*
X111056543Y-117266784D01*
X110988623Y-117102812D01*
X110953999Y-116928741D01*
X110953999Y-116751259D01*
X110988623Y-116577188D01*
X111056543Y-116413216D01*
X111155146Y-116265646D01*
X111280645Y-116140147D01*
X111428215Y-116041544D01*
X111592187Y-115973624D01*
X111741487Y-115943927D01*
X111766257Y-115939000D01*
X111943741Y-115939000D01*
X111968511Y-115943927D01*
X111968511Y-115943927D01*
G37*
G36*
X74630585Y-114100512D02*
G01*
X74780410Y-114130314D01*
X75062674Y-114247231D01*
X75316705Y-114416969D01*
X75532741Y-114633005D01*
X75702479Y-114887036D01*
X75819396Y-115169300D01*
X75879000Y-115468950D01*
X75879000Y-115774470D01*
X75819396Y-116074120D01*
X75702479Y-116356384D01*
X75532741Y-116610415D01*
X75316705Y-116826451D01*
X75062674Y-116996189D01*
X74780410Y-117113106D01*
X74630585Y-117142908D01*
X74480761Y-117172710D01*
X74175239Y-117172710D01*
X74025415Y-117142908D01*
X73875590Y-117113106D01*
X73593326Y-116996189D01*
X73339295Y-116826451D01*
X73123259Y-116610415D01*
X72953521Y-116356384D01*
X72836604Y-116074120D01*
X72777000Y-115774470D01*
X72777000Y-115468950D01*
X72836604Y-115169300D01*
X72953521Y-114887036D01*
X73123259Y-114633005D01*
X73339295Y-114416969D01*
X73593326Y-114247231D01*
X73875590Y-114130314D01*
X74025415Y-114100512D01*
X74175239Y-114070710D01*
X74480761Y-114070710D01*
X74630585Y-114100512D01*
X74630585Y-114100512D01*
G37*
G36*
X84630585Y-114100512D02*
G01*
X84780410Y-114130314D01*
X85062674Y-114247231D01*
X85316705Y-114416969D01*
X85532741Y-114633005D01*
X85702479Y-114887036D01*
X85819396Y-115169300D01*
X85879000Y-115468950D01*
X85879000Y-115774470D01*
X85819396Y-116074120D01*
X85702479Y-116356384D01*
X85532741Y-116610415D01*
X85316705Y-116826451D01*
X85062674Y-116996189D01*
X84780410Y-117113106D01*
X84630585Y-117142908D01*
X84480761Y-117172710D01*
X84175239Y-117172710D01*
X84025415Y-117142908D01*
X83875590Y-117113106D01*
X83593326Y-116996189D01*
X83339295Y-116826451D01*
X83123259Y-116610415D01*
X82953521Y-116356384D01*
X82836604Y-116074120D01*
X82777000Y-115774470D01*
X82777000Y-115468950D01*
X82836604Y-115169300D01*
X82953521Y-114887036D01*
X83123259Y-114633005D01*
X83339295Y-114416969D01*
X83593326Y-114247231D01*
X83875590Y-114130314D01*
X84025415Y-114100512D01*
X84175239Y-114070710D01*
X84480761Y-114070710D01*
X84630585Y-114100512D01*
X84630585Y-114100512D01*
G37*
G36*
X142888073Y-113857917D02*
G01*
X143133940Y-113959758D01*
X143245329Y-114034186D01*
X143355212Y-114107608D01*
X143543392Y-114295788D01*
X143691243Y-114517062D01*
X143793083Y-114762927D01*
X143845001Y-115023936D01*
X143845001Y-115290062D01*
X143793083Y-115551071D01*
X143691243Y-115796936D01*
X143573184Y-115973624D01*
X143543391Y-116018211D01*
X143355213Y-116206389D01*
X143133940Y-116354240D01*
X143133939Y-116354241D01*
X143133938Y-116354241D01*
X142888073Y-116456081D01*
X142627064Y-116507999D01*
X142360938Y-116507999D01*
X142099929Y-116456081D01*
X141854064Y-116354241D01*
X141854063Y-116354241D01*
X141854062Y-116354240D01*
X141632789Y-116206389D01*
X141444611Y-116018211D01*
X141414819Y-115973624D01*
X141296759Y-115796936D01*
X141194919Y-115551071D01*
X141143001Y-115290062D01*
X141143001Y-115023936D01*
X141194919Y-114762927D01*
X141296759Y-114517062D01*
X141444610Y-114295788D01*
X141632790Y-114107608D01*
X141742673Y-114034186D01*
X141854062Y-113959758D01*
X142099929Y-113857917D01*
X142360938Y-113805999D01*
X142627064Y-113805999D01*
X142888073Y-113857917D01*
X142888073Y-113857917D01*
G37*
G36*
X55592072Y-111652918D02*
G01*
X55837939Y-111754759D01*
X56059212Y-111902610D01*
X56247390Y-112090788D01*
X56395241Y-112312061D01*
X56497082Y-112557928D01*
X56549000Y-112818938D01*
X56549000Y-113085062D01*
X56497082Y-113346072D01*
X56395241Y-113591939D01*
X56247390Y-113813212D01*
X56059212Y-114001390D01*
X55837939Y-114149241D01*
X55837938Y-114149242D01*
X55837937Y-114149242D01*
X55592072Y-114251082D01*
X55331063Y-114303000D01*
X55064937Y-114303000D01*
X54803928Y-114251082D01*
X54558063Y-114149242D01*
X54558062Y-114149242D01*
X54558061Y-114149241D01*
X54336788Y-114001390D01*
X54148610Y-113813212D01*
X54000759Y-113591939D01*
X53898918Y-113346072D01*
X53847000Y-113085062D01*
X53847000Y-112818938D01*
X53898918Y-112557928D01*
X54000759Y-112312061D01*
X54148610Y-112090788D01*
X54336788Y-111902610D01*
X54558061Y-111754759D01*
X54803928Y-111652918D01*
X55064937Y-111601000D01*
X55331063Y-111601000D01*
X55592072Y-111652918D01*
X55592072Y-111652918D01*
G37*
G36*
X142888073Y-108857917D02*
G01*
X143133940Y-108959758D01*
X143245329Y-109034186D01*
X143355212Y-109107608D01*
X143543392Y-109295788D01*
X143691243Y-109517062D01*
X143793083Y-109762927D01*
X143845001Y-110023936D01*
X143845001Y-110290062D01*
X143793083Y-110551071D01*
X143691243Y-110796936D01*
X143543392Y-111018210D01*
X143355212Y-111206390D01*
X143286952Y-111252000D01*
X143133940Y-111354240D01*
X143133939Y-111354241D01*
X143133938Y-111354241D01*
X142888073Y-111456081D01*
X142627064Y-111507999D01*
X142360938Y-111507999D01*
X142099929Y-111456081D01*
X141854064Y-111354241D01*
X141854063Y-111354241D01*
X141854062Y-111354240D01*
X141701050Y-111252000D01*
X141632790Y-111206390D01*
X141444610Y-111018210D01*
X141296759Y-110796936D01*
X141194919Y-110551071D01*
X141143001Y-110290062D01*
X141143001Y-110023936D01*
X141194919Y-109762927D01*
X141296759Y-109517062D01*
X141444610Y-109295788D01*
X141632790Y-109107608D01*
X141742673Y-109034186D01*
X141854062Y-108959758D01*
X142099929Y-108857917D01*
X142360938Y-108805999D01*
X142627064Y-108805999D01*
X142888073Y-108857917D01*
X142888073Y-108857917D01*
G37*
G36*
X98017143Y-109731675D02*
G01*
X98091778Y-109739026D01*
X98198042Y-109771261D01*
X98235419Y-109782599D01*
X98367791Y-109853354D01*
X98483822Y-109948578D01*
X98579046Y-110064609D01*
X98649801Y-110196981D01*
X98649802Y-110196985D01*
X98693374Y-110340622D01*
X98708086Y-110490000D01*
X98693374Y-110639378D01*
X98663157Y-110738989D01*
X98649801Y-110783019D01*
X98579046Y-110915391D01*
X98483822Y-111031422D01*
X98367791Y-111126646D01*
X98235419Y-111197401D01*
X98205789Y-111206389D01*
X98091778Y-111240974D01*
X98017143Y-111248325D01*
X97979827Y-111252000D01*
X96584173Y-111252000D01*
X96546857Y-111248325D01*
X96472222Y-111240974D01*
X96358211Y-111206389D01*
X96328581Y-111197401D01*
X96196209Y-111126646D01*
X96080178Y-111031422D01*
X95984954Y-110915391D01*
X95914199Y-110783019D01*
X95900843Y-110738989D01*
X95870626Y-110639378D01*
X95855914Y-110490000D01*
X95870626Y-110340622D01*
X95914198Y-110196985D01*
X95914199Y-110196981D01*
X95984954Y-110064609D01*
X96080178Y-109948578D01*
X96196209Y-109853354D01*
X96328581Y-109782599D01*
X96365958Y-109771261D01*
X96472222Y-109739026D01*
X96546857Y-109731675D01*
X96584173Y-109728000D01*
X97979827Y-109728000D01*
X98017143Y-109731675D01*
X98017143Y-109731675D01*
G37*
G36*
X105637143Y-109731675D02*
G01*
X105711778Y-109739026D01*
X105818042Y-109771261D01*
X105855419Y-109782599D01*
X105987791Y-109853354D01*
X106103822Y-109948578D01*
X106199046Y-110064609D01*
X106269801Y-110196981D01*
X106269802Y-110196985D01*
X106313374Y-110340622D01*
X106328086Y-110490000D01*
X106313374Y-110639378D01*
X106283157Y-110738989D01*
X106269801Y-110783019D01*
X106199046Y-110915391D01*
X106103822Y-111031422D01*
X105987791Y-111126646D01*
X105855419Y-111197401D01*
X105825789Y-111206389D01*
X105711778Y-111240974D01*
X105637143Y-111248325D01*
X105599827Y-111252000D01*
X104204173Y-111252000D01*
X104166857Y-111248325D01*
X104092222Y-111240974D01*
X103978211Y-111206389D01*
X103948581Y-111197401D01*
X103816209Y-111126646D01*
X103700178Y-111031422D01*
X103604954Y-110915391D01*
X103534199Y-110783019D01*
X103520843Y-110738989D01*
X103490626Y-110639378D01*
X103475914Y-110490000D01*
X103490626Y-110340622D01*
X103534198Y-110196985D01*
X103534199Y-110196981D01*
X103604954Y-110064609D01*
X103700178Y-109948578D01*
X103816209Y-109853354D01*
X103948581Y-109782599D01*
X103985958Y-109771261D01*
X104092222Y-109739026D01*
X104166857Y-109731675D01*
X104204173Y-109728000D01*
X105599827Y-109728000D01*
X105637143Y-109731675D01*
X105637143Y-109731675D01*
G37*
G36*
X131203000Y-111137000D02*
G01*
X129401000Y-111137000D01*
X129401000Y-109335000D01*
X131203000Y-109335000D01*
X131203000Y-111137000D01*
X131203000Y-111137000D01*
G37*
G36*
X122792442Y-109341518D02*
G01*
X122858627Y-109348037D01*
X123028466Y-109399557D01*
X123184991Y-109483222D01*
X123220729Y-109512552D01*
X123322186Y-109595814D01*
X123405448Y-109697271D01*
X123434778Y-109733009D01*
X123518443Y-109889534D01*
X123569963Y-110059373D01*
X123587359Y-110236000D01*
X123569963Y-110412627D01*
X123518443Y-110582466D01*
X123434778Y-110738991D01*
X123405448Y-110774729D01*
X123322186Y-110876186D01*
X123220729Y-110959448D01*
X123184991Y-110988778D01*
X123028466Y-111072443D01*
X122858627Y-111123963D01*
X122792442Y-111130482D01*
X122726260Y-111137000D01*
X122637740Y-111137000D01*
X122571558Y-111130482D01*
X122505373Y-111123963D01*
X122335534Y-111072443D01*
X122179009Y-110988778D01*
X122143271Y-110959448D01*
X122041814Y-110876186D01*
X121958552Y-110774729D01*
X121929222Y-110738991D01*
X121845557Y-110582466D01*
X121794037Y-110412627D01*
X121776641Y-110236000D01*
X121794037Y-110059373D01*
X121845557Y-109889534D01*
X121929222Y-109733009D01*
X121958552Y-109697271D01*
X122041814Y-109595814D01*
X122143271Y-109512552D01*
X122179009Y-109483222D01*
X122335534Y-109399557D01*
X122505373Y-109348037D01*
X122571558Y-109341518D01*
X122637740Y-109335000D01*
X122726260Y-109335000D01*
X122792442Y-109341518D01*
X122792442Y-109341518D01*
G37*
G36*
X125332442Y-109341518D02*
G01*
X125398627Y-109348037D01*
X125568466Y-109399557D01*
X125724991Y-109483222D01*
X125760729Y-109512552D01*
X125862186Y-109595814D01*
X125945448Y-109697271D01*
X125974778Y-109733009D01*
X126058443Y-109889534D01*
X126109963Y-110059373D01*
X126127359Y-110236000D01*
X126109963Y-110412627D01*
X126058443Y-110582466D01*
X125974778Y-110738991D01*
X125945448Y-110774729D01*
X125862186Y-110876186D01*
X125760729Y-110959448D01*
X125724991Y-110988778D01*
X125568466Y-111072443D01*
X125398627Y-111123963D01*
X125332442Y-111130482D01*
X125266260Y-111137000D01*
X125177740Y-111137000D01*
X125111558Y-111130482D01*
X125045373Y-111123963D01*
X124875534Y-111072443D01*
X124719009Y-110988778D01*
X124683271Y-110959448D01*
X124581814Y-110876186D01*
X124498552Y-110774729D01*
X124469222Y-110738991D01*
X124385557Y-110582466D01*
X124334037Y-110412627D01*
X124316641Y-110236000D01*
X124334037Y-110059373D01*
X124385557Y-109889534D01*
X124469222Y-109733009D01*
X124498552Y-109697271D01*
X124581814Y-109595814D01*
X124683271Y-109512552D01*
X124719009Y-109483222D01*
X124875534Y-109399557D01*
X125045373Y-109348037D01*
X125111558Y-109341518D01*
X125177740Y-109335000D01*
X125266260Y-109335000D01*
X125332442Y-109341518D01*
X125332442Y-109341518D01*
G37*
G36*
X127872442Y-109341518D02*
G01*
X127938627Y-109348037D01*
X128108466Y-109399557D01*
X128264991Y-109483222D01*
X128300729Y-109512552D01*
X128402186Y-109595814D01*
X128485448Y-109697271D01*
X128514778Y-109733009D01*
X128598443Y-109889534D01*
X128649963Y-110059373D01*
X128667359Y-110236000D01*
X128649963Y-110412627D01*
X128598443Y-110582466D01*
X128514778Y-110738991D01*
X128485448Y-110774729D01*
X128402186Y-110876186D01*
X128300729Y-110959448D01*
X128264991Y-110988778D01*
X128108466Y-111072443D01*
X127938627Y-111123963D01*
X127872442Y-111130482D01*
X127806260Y-111137000D01*
X127717740Y-111137000D01*
X127651558Y-111130482D01*
X127585373Y-111123963D01*
X127415534Y-111072443D01*
X127259009Y-110988778D01*
X127223271Y-110959448D01*
X127121814Y-110876186D01*
X127038552Y-110774729D01*
X127009222Y-110738991D01*
X126925557Y-110582466D01*
X126874037Y-110412627D01*
X126856641Y-110236000D01*
X126874037Y-110059373D01*
X126925557Y-109889534D01*
X127009222Y-109733009D01*
X127038552Y-109697271D01*
X127121814Y-109595814D01*
X127223271Y-109512552D01*
X127259009Y-109483222D01*
X127415534Y-109399557D01*
X127585373Y-109348037D01*
X127651558Y-109341518D01*
X127717740Y-109335000D01*
X127806260Y-109335000D01*
X127872442Y-109341518D01*
X127872442Y-109341518D01*
G37*
G36*
X69630585Y-107009370D02*
G01*
X69780410Y-107039172D01*
X70062674Y-107156089D01*
X70316705Y-107325827D01*
X70532741Y-107541863D01*
X70702479Y-107795894D01*
X70819396Y-108078158D01*
X70823617Y-108099378D01*
X70878520Y-108375392D01*
X70879000Y-108377808D01*
X70879000Y-108683328D01*
X70819396Y-108982978D01*
X70702479Y-109265242D01*
X70532741Y-109519273D01*
X70316705Y-109735309D01*
X70062674Y-109905047D01*
X69780410Y-110021964D01*
X69630585Y-110051766D01*
X69480761Y-110081568D01*
X69175239Y-110081568D01*
X69025415Y-110051766D01*
X68875590Y-110021964D01*
X68593326Y-109905047D01*
X68339295Y-109735309D01*
X68123259Y-109519273D01*
X67953521Y-109265242D01*
X67836604Y-108982978D01*
X67777000Y-108683328D01*
X67777000Y-108377808D01*
X67777481Y-108375392D01*
X67832383Y-108099378D01*
X67836604Y-108078158D01*
X67953521Y-107795894D01*
X68123259Y-107541863D01*
X68339295Y-107325827D01*
X68593326Y-107156089D01*
X68875590Y-107039172D01*
X69025415Y-107009370D01*
X69175239Y-106979568D01*
X69480761Y-106979568D01*
X69630585Y-107009370D01*
X69630585Y-107009370D01*
G37*
G36*
X79630585Y-107009370D02*
G01*
X79780410Y-107039172D01*
X80062674Y-107156089D01*
X80316705Y-107325827D01*
X80532741Y-107541863D01*
X80702479Y-107795894D01*
X80819396Y-108078158D01*
X80823617Y-108099378D01*
X80878520Y-108375392D01*
X80879000Y-108377808D01*
X80879000Y-108683328D01*
X80819396Y-108982978D01*
X80702479Y-109265242D01*
X80532741Y-109519273D01*
X80316705Y-109735309D01*
X80062674Y-109905047D01*
X79780410Y-110021964D01*
X79630585Y-110051766D01*
X79480761Y-110081568D01*
X79175239Y-110081568D01*
X79025415Y-110051766D01*
X78875590Y-110021964D01*
X78593326Y-109905047D01*
X78339295Y-109735309D01*
X78123259Y-109519273D01*
X77953521Y-109265242D01*
X77836604Y-108982978D01*
X77777000Y-108683328D01*
X77777000Y-108377808D01*
X77777481Y-108375392D01*
X77832383Y-108099378D01*
X77836604Y-108078158D01*
X77953521Y-107795894D01*
X78123259Y-107541863D01*
X78339295Y-107325827D01*
X78593326Y-107156089D01*
X78875590Y-107039172D01*
X79025415Y-107009370D01*
X79175239Y-106979568D01*
X79480761Y-106979568D01*
X79630585Y-107009370D01*
X79630585Y-107009370D01*
G37*
G36*
X84630585Y-107009370D02*
G01*
X84780410Y-107039172D01*
X85062674Y-107156089D01*
X85316705Y-107325827D01*
X85532741Y-107541863D01*
X85702479Y-107795894D01*
X85819396Y-108078158D01*
X85823617Y-108099378D01*
X85878520Y-108375392D01*
X85879000Y-108377808D01*
X85879000Y-108683328D01*
X85819396Y-108982978D01*
X85702479Y-109265242D01*
X85532741Y-109519273D01*
X85316705Y-109735309D01*
X85062674Y-109905047D01*
X84780410Y-110021964D01*
X84630585Y-110051766D01*
X84480761Y-110081568D01*
X84175239Y-110081568D01*
X84025415Y-110051766D01*
X83875590Y-110021964D01*
X83593326Y-109905047D01*
X83339295Y-109735309D01*
X83123259Y-109519273D01*
X82953521Y-109265242D01*
X82836604Y-108982978D01*
X82777000Y-108683328D01*
X82777000Y-108377808D01*
X82777481Y-108375392D01*
X82832383Y-108099378D01*
X82836604Y-108078158D01*
X82953521Y-107795894D01*
X83123259Y-107541863D01*
X83339295Y-107325827D01*
X83593326Y-107156089D01*
X83875590Y-107039172D01*
X84025415Y-107009370D01*
X84175239Y-106979568D01*
X84480761Y-106979568D01*
X84630585Y-107009370D01*
X84630585Y-107009370D01*
G37*
G36*
X55592072Y-106652918D02*
G01*
X55837939Y-106754759D01*
X55949328Y-106829187D01*
X56059211Y-106902609D01*
X56247391Y-107090789D01*
X56395242Y-107312063D01*
X56497082Y-107557928D01*
X56549000Y-107818937D01*
X56549000Y-108085063D01*
X56497082Y-108346072D01*
X56397434Y-108586646D01*
X56395241Y-108591939D01*
X56247390Y-108813212D01*
X56059212Y-109001390D01*
X55837939Y-109149241D01*
X55837938Y-109149242D01*
X55837937Y-109149242D01*
X55592072Y-109251082D01*
X55331063Y-109303000D01*
X55064937Y-109303000D01*
X54803928Y-109251082D01*
X54558063Y-109149242D01*
X54558062Y-109149242D01*
X54558061Y-109149241D01*
X54336788Y-109001390D01*
X54148610Y-108813212D01*
X54000759Y-108591939D01*
X53998567Y-108586646D01*
X53898918Y-108346072D01*
X53847000Y-108085063D01*
X53847000Y-107818937D01*
X53898918Y-107557928D01*
X54000758Y-107312063D01*
X54148609Y-107090789D01*
X54336789Y-106902609D01*
X54446672Y-106829187D01*
X54558061Y-106754759D01*
X54803928Y-106652918D01*
X55064937Y-106601000D01*
X55331063Y-106601000D01*
X55592072Y-106652918D01*
X55592072Y-106652918D01*
G37*
G36*
X98017143Y-107191675D02*
G01*
X98091778Y-107199026D01*
X98198042Y-107231261D01*
X98235419Y-107242599D01*
X98367791Y-107313354D01*
X98483822Y-107408578D01*
X98579046Y-107524609D01*
X98649801Y-107656981D01*
X98649802Y-107656985D01*
X98693374Y-107800622D01*
X98708086Y-107950000D01*
X98693374Y-108099378D01*
X98661139Y-108205642D01*
X98649801Y-108243019D01*
X98579046Y-108375391D01*
X98483822Y-108491422D01*
X98367791Y-108586646D01*
X98235419Y-108657401D01*
X98198042Y-108668739D01*
X98091778Y-108700974D01*
X98017143Y-108708325D01*
X97979827Y-108712000D01*
X96584173Y-108712000D01*
X96546857Y-108708325D01*
X96472222Y-108700974D01*
X96365958Y-108668739D01*
X96328581Y-108657401D01*
X96196209Y-108586646D01*
X96080178Y-108491422D01*
X95984954Y-108375391D01*
X95914199Y-108243019D01*
X95902861Y-108205642D01*
X95870626Y-108099378D01*
X95855914Y-107950000D01*
X95870626Y-107800622D01*
X95914198Y-107656985D01*
X95914199Y-107656981D01*
X95984954Y-107524609D01*
X96080178Y-107408578D01*
X96196209Y-107313354D01*
X96328581Y-107242599D01*
X96365958Y-107231261D01*
X96472222Y-107199026D01*
X96546857Y-107191675D01*
X96584173Y-107188000D01*
X97979827Y-107188000D01*
X98017143Y-107191675D01*
X98017143Y-107191675D01*
G37*
G36*
X105637143Y-107191675D02*
G01*
X105711778Y-107199026D01*
X105818042Y-107231261D01*
X105855419Y-107242599D01*
X105987791Y-107313354D01*
X106103822Y-107408578D01*
X106199046Y-107524609D01*
X106269801Y-107656981D01*
X106269802Y-107656985D01*
X106313374Y-107800622D01*
X106328086Y-107950000D01*
X106313374Y-108099378D01*
X106281139Y-108205642D01*
X106269801Y-108243019D01*
X106199046Y-108375391D01*
X106103822Y-108491422D01*
X105987791Y-108586646D01*
X105855419Y-108657401D01*
X105818042Y-108668739D01*
X105711778Y-108700974D01*
X105637143Y-108708325D01*
X105599827Y-108712000D01*
X104204173Y-108712000D01*
X104166857Y-108708325D01*
X104092222Y-108700974D01*
X103985958Y-108668739D01*
X103948581Y-108657401D01*
X103816209Y-108586646D01*
X103700178Y-108491422D01*
X103604954Y-108375391D01*
X103534199Y-108243019D01*
X103522861Y-108205642D01*
X103490626Y-108099378D01*
X103475914Y-107950000D01*
X103490626Y-107800622D01*
X103534198Y-107656985D01*
X103534199Y-107656981D01*
X103604954Y-107524609D01*
X103700178Y-107408578D01*
X103816209Y-107313354D01*
X103948581Y-107242599D01*
X103985958Y-107231261D01*
X104092222Y-107199026D01*
X104166857Y-107191675D01*
X104204173Y-107188000D01*
X105599827Y-107188000D01*
X105637143Y-107191675D01*
X105637143Y-107191675D01*
G37*
G36*
X105637143Y-104651675D02*
G01*
X105711778Y-104659026D01*
X105818042Y-104691261D01*
X105855419Y-104702599D01*
X105987791Y-104773354D01*
X106103822Y-104868578D01*
X106199046Y-104984609D01*
X106269801Y-105116981D01*
X106269802Y-105116985D01*
X106313374Y-105260622D01*
X106328086Y-105410000D01*
X106313374Y-105559378D01*
X106281139Y-105665642D01*
X106269801Y-105703019D01*
X106199046Y-105835391D01*
X106103822Y-105951422D01*
X105987791Y-106046646D01*
X105855419Y-106117401D01*
X105818042Y-106128739D01*
X105711778Y-106160974D01*
X105637143Y-106168325D01*
X105599827Y-106172000D01*
X104204173Y-106172000D01*
X104166857Y-106168325D01*
X104092222Y-106160974D01*
X103985958Y-106128739D01*
X103948581Y-106117401D01*
X103816209Y-106046646D01*
X103700178Y-105951422D01*
X103604954Y-105835391D01*
X103534199Y-105703019D01*
X103522861Y-105665642D01*
X103490626Y-105559378D01*
X103475914Y-105410000D01*
X103490626Y-105260622D01*
X103534198Y-105116985D01*
X103534199Y-105116981D01*
X103604954Y-104984609D01*
X103700178Y-104868578D01*
X103816209Y-104773354D01*
X103948581Y-104702599D01*
X103985958Y-104691261D01*
X104092222Y-104659026D01*
X104166857Y-104651675D01*
X104204173Y-104648000D01*
X105599827Y-104648000D01*
X105637143Y-104651675D01*
X105637143Y-104651675D01*
G37*
G36*
X98017143Y-104651675D02*
G01*
X98091778Y-104659026D01*
X98198042Y-104691261D01*
X98235419Y-104702599D01*
X98367791Y-104773354D01*
X98483822Y-104868578D01*
X98579046Y-104984609D01*
X98649801Y-105116981D01*
X98649802Y-105116985D01*
X98693374Y-105260622D01*
X98708086Y-105410000D01*
X98693374Y-105559378D01*
X98661139Y-105665642D01*
X98649801Y-105703019D01*
X98579046Y-105835391D01*
X98483822Y-105951422D01*
X98367791Y-106046646D01*
X98235419Y-106117401D01*
X98198042Y-106128739D01*
X98091778Y-106160974D01*
X98017143Y-106168325D01*
X97979827Y-106172000D01*
X96584173Y-106172000D01*
X96546857Y-106168325D01*
X96472222Y-106160974D01*
X96365958Y-106128739D01*
X96328581Y-106117401D01*
X96196209Y-106046646D01*
X96080178Y-105951422D01*
X95984954Y-105835391D01*
X95914199Y-105703019D01*
X95902861Y-105665642D01*
X95870626Y-105559378D01*
X95855914Y-105410000D01*
X95870626Y-105260622D01*
X95914198Y-105116985D01*
X95914199Y-105116981D01*
X95984954Y-104984609D01*
X96080178Y-104868578D01*
X96196209Y-104773354D01*
X96328581Y-104702599D01*
X96365958Y-104691261D01*
X96472222Y-104659026D01*
X96546857Y-104651675D01*
X96584173Y-104648000D01*
X97979827Y-104648000D01*
X98017143Y-104651675D01*
X98017143Y-104651675D01*
G37*
G36*
X84630585Y-101509370D02*
G01*
X84780410Y-101539172D01*
X85062674Y-101656089D01*
X85316705Y-101825827D01*
X85532741Y-102041863D01*
X85702479Y-102295894D01*
X85819396Y-102578158D01*
X85879000Y-102877808D01*
X85879000Y-103183328D01*
X85819396Y-103482978D01*
X85702479Y-103765242D01*
X85532741Y-104019273D01*
X85316705Y-104235309D01*
X85062674Y-104405047D01*
X84780410Y-104521964D01*
X84630585Y-104551766D01*
X84480761Y-104581568D01*
X84175239Y-104581568D01*
X84025415Y-104551766D01*
X83875590Y-104521964D01*
X83593326Y-104405047D01*
X83339295Y-104235309D01*
X83123259Y-104019273D01*
X82953521Y-103765242D01*
X82836604Y-103482978D01*
X82777000Y-103183328D01*
X82777000Y-102877808D01*
X82836604Y-102578158D01*
X82953521Y-102295894D01*
X83123259Y-102041863D01*
X83339295Y-101825827D01*
X83593326Y-101656089D01*
X83875590Y-101539172D01*
X84025415Y-101509370D01*
X84175239Y-101479568D01*
X84480761Y-101479568D01*
X84630585Y-101509370D01*
X84630585Y-101509370D01*
G37*
G36*
X74630585Y-101509370D02*
G01*
X74780410Y-101539172D01*
X75062674Y-101656089D01*
X75316705Y-101825827D01*
X75532741Y-102041863D01*
X75702479Y-102295894D01*
X75819396Y-102578158D01*
X75879000Y-102877808D01*
X75879000Y-103183328D01*
X75819396Y-103482978D01*
X75702479Y-103765242D01*
X75532741Y-104019273D01*
X75316705Y-104235309D01*
X75062674Y-104405047D01*
X74780410Y-104521964D01*
X74630585Y-104551766D01*
X74480761Y-104581568D01*
X74175239Y-104581568D01*
X74025415Y-104551766D01*
X73875590Y-104521964D01*
X73593326Y-104405047D01*
X73339295Y-104235309D01*
X73123259Y-104019273D01*
X72953521Y-103765242D01*
X72836604Y-103482978D01*
X72777000Y-103183328D01*
X72777000Y-102877808D01*
X72836604Y-102578158D01*
X72953521Y-102295894D01*
X73123259Y-102041863D01*
X73339295Y-101825827D01*
X73593326Y-101656089D01*
X73875590Y-101539172D01*
X74025415Y-101509370D01*
X74175239Y-101479568D01*
X74480761Y-101479568D01*
X74630585Y-101509370D01*
X74630585Y-101509370D01*
G37*
G36*
X55592072Y-101652918D02*
G01*
X55837939Y-101754759D01*
X55944299Y-101825827D01*
X56059211Y-101902609D01*
X56247391Y-102090789D01*
X56395242Y-102312063D01*
X56497082Y-102557928D01*
X56549000Y-102818937D01*
X56549000Y-103085063D01*
X56497082Y-103346072D01*
X56395242Y-103591937D01*
X56247391Y-103813211D01*
X56059211Y-104001391D01*
X55949328Y-104074813D01*
X55837939Y-104149241D01*
X55837938Y-104149242D01*
X55837937Y-104149242D01*
X55592072Y-104251082D01*
X55331063Y-104303000D01*
X55064937Y-104303000D01*
X54803928Y-104251082D01*
X54558063Y-104149242D01*
X54558062Y-104149242D01*
X54558061Y-104149241D01*
X54446672Y-104074813D01*
X54336789Y-104001391D01*
X54148609Y-103813211D01*
X54000758Y-103591937D01*
X53898918Y-103346072D01*
X53847000Y-103085063D01*
X53847000Y-102818937D01*
X53898918Y-102557928D01*
X54000758Y-102312063D01*
X54148609Y-102090789D01*
X54336789Y-101902609D01*
X54451701Y-101825827D01*
X54558061Y-101754759D01*
X54803928Y-101652918D01*
X55064937Y-101601000D01*
X55331063Y-101601000D01*
X55592072Y-101652918D01*
X55592072Y-101652918D01*
G37*
G36*
X98017143Y-102111675D02*
G01*
X98091778Y-102119026D01*
X98198042Y-102151261D01*
X98235419Y-102162599D01*
X98367791Y-102233354D01*
X98483822Y-102328578D01*
X98579046Y-102444609D01*
X98649801Y-102576981D01*
X98649802Y-102576985D01*
X98693374Y-102720622D01*
X98708086Y-102870000D01*
X98693374Y-103019378D01*
X98661139Y-103125642D01*
X98649801Y-103163019D01*
X98579046Y-103295391D01*
X98483822Y-103411422D01*
X98367791Y-103506646D01*
X98235419Y-103577401D01*
X98198042Y-103588739D01*
X98091778Y-103620974D01*
X98017143Y-103628325D01*
X97979827Y-103632000D01*
X96584173Y-103632000D01*
X96546857Y-103628325D01*
X96472222Y-103620974D01*
X96365958Y-103588739D01*
X96328581Y-103577401D01*
X96196209Y-103506646D01*
X96080178Y-103411422D01*
X95984954Y-103295391D01*
X95914199Y-103163019D01*
X95902861Y-103125642D01*
X95870626Y-103019378D01*
X95855914Y-102870000D01*
X95870626Y-102720622D01*
X95914198Y-102576985D01*
X95914199Y-102576981D01*
X95984954Y-102444609D01*
X96080178Y-102328578D01*
X96196209Y-102233354D01*
X96328581Y-102162599D01*
X96365958Y-102151261D01*
X96472222Y-102119026D01*
X96546857Y-102111675D01*
X96584173Y-102108000D01*
X97979827Y-102108000D01*
X98017143Y-102111675D01*
X98017143Y-102111675D01*
G37*
G36*
X105637143Y-102111675D02*
G01*
X105711778Y-102119026D01*
X105818042Y-102151261D01*
X105855419Y-102162599D01*
X105987791Y-102233354D01*
X106103822Y-102328578D01*
X106199046Y-102444609D01*
X106269801Y-102576981D01*
X106269802Y-102576985D01*
X106313374Y-102720622D01*
X106328086Y-102870000D01*
X106313374Y-103019378D01*
X106281139Y-103125642D01*
X106269801Y-103163019D01*
X106199046Y-103295391D01*
X106103822Y-103411422D01*
X105987791Y-103506646D01*
X105855419Y-103577401D01*
X105818042Y-103588739D01*
X105711778Y-103620974D01*
X105637143Y-103628325D01*
X105599827Y-103632000D01*
X104204173Y-103632000D01*
X104166857Y-103628325D01*
X104092222Y-103620974D01*
X103985958Y-103588739D01*
X103948581Y-103577401D01*
X103816209Y-103506646D01*
X103700178Y-103411422D01*
X103604954Y-103295391D01*
X103534199Y-103163019D01*
X103522861Y-103125642D01*
X103490626Y-103019378D01*
X103475914Y-102870000D01*
X103490626Y-102720622D01*
X103534198Y-102576985D01*
X103534199Y-102576981D01*
X103604954Y-102444609D01*
X103700178Y-102328578D01*
X103816209Y-102233354D01*
X103948581Y-102162599D01*
X103985958Y-102151261D01*
X104092222Y-102119026D01*
X104166857Y-102111675D01*
X104204173Y-102108000D01*
X105599827Y-102108000D01*
X105637143Y-102111675D01*
X105637143Y-102111675D01*
G37*
G36*
X105637143Y-99571675D02*
G01*
X105711778Y-99579026D01*
X105818042Y-99611261D01*
X105855419Y-99622599D01*
X105987791Y-99693354D01*
X106103822Y-99788578D01*
X106199046Y-99904609D01*
X106269801Y-100036981D01*
X106269802Y-100036985D01*
X106313374Y-100180622D01*
X106328086Y-100330000D01*
X106313374Y-100479378D01*
X106281139Y-100585642D01*
X106269801Y-100623019D01*
X106199046Y-100755391D01*
X106103822Y-100871422D01*
X105987791Y-100966646D01*
X105855419Y-101037401D01*
X105818042Y-101048739D01*
X105711778Y-101080974D01*
X105637143Y-101088325D01*
X105599827Y-101092000D01*
X104204173Y-101092000D01*
X104166857Y-101088325D01*
X104092222Y-101080974D01*
X103985958Y-101048739D01*
X103948581Y-101037401D01*
X103816209Y-100966646D01*
X103700178Y-100871422D01*
X103604954Y-100755391D01*
X103534199Y-100623019D01*
X103522861Y-100585642D01*
X103490626Y-100479378D01*
X103475914Y-100330000D01*
X103490626Y-100180622D01*
X103534198Y-100036985D01*
X103534199Y-100036981D01*
X103604954Y-99904609D01*
X103700178Y-99788578D01*
X103816209Y-99693354D01*
X103948581Y-99622599D01*
X103985958Y-99611261D01*
X104092222Y-99579026D01*
X104166857Y-99571675D01*
X104204173Y-99568000D01*
X105599827Y-99568000D01*
X105637143Y-99571675D01*
X105637143Y-99571675D01*
G37*
G36*
X98017143Y-99571675D02*
G01*
X98091778Y-99579026D01*
X98198042Y-99611261D01*
X98235419Y-99622599D01*
X98367791Y-99693354D01*
X98483822Y-99788578D01*
X98579046Y-99904609D01*
X98649801Y-100036981D01*
X98649802Y-100036985D01*
X98693374Y-100180622D01*
X98708086Y-100330000D01*
X98693374Y-100479378D01*
X98661139Y-100585642D01*
X98649801Y-100623019D01*
X98579046Y-100755391D01*
X98483822Y-100871422D01*
X98367791Y-100966646D01*
X98235419Y-101037401D01*
X98198042Y-101048739D01*
X98091778Y-101080974D01*
X98017143Y-101088325D01*
X97979827Y-101092000D01*
X96584173Y-101092000D01*
X96546857Y-101088325D01*
X96472222Y-101080974D01*
X96365958Y-101048739D01*
X96328581Y-101037401D01*
X96196209Y-100966646D01*
X96080178Y-100871422D01*
X95984954Y-100755391D01*
X95914199Y-100623019D01*
X95902861Y-100585642D01*
X95870626Y-100479378D01*
X95855914Y-100330000D01*
X95870626Y-100180622D01*
X95914198Y-100036985D01*
X95914199Y-100036981D01*
X95984954Y-99904609D01*
X96080178Y-99788578D01*
X96196209Y-99693354D01*
X96328581Y-99622599D01*
X96365958Y-99611261D01*
X96472222Y-99579026D01*
X96546857Y-99571675D01*
X96584173Y-99568000D01*
X97979827Y-99568000D01*
X98017143Y-99571675D01*
X98017143Y-99571675D01*
G37*
G36*
X144078072Y-97292918D02*
G01*
X144124288Y-97312061D01*
X144323939Y-97394759D01*
X144435328Y-97469187D01*
X144545211Y-97542609D01*
X144733391Y-97730789D01*
X144881242Y-97952063D01*
X144983082Y-98197928D01*
X145035000Y-98458937D01*
X145035000Y-98725063D01*
X144983082Y-98986072D01*
X144881242Y-99231937D01*
X144733391Y-99453211D01*
X144545211Y-99641391D01*
X144435328Y-99714813D01*
X144323939Y-99789241D01*
X144323938Y-99789242D01*
X144323937Y-99789242D01*
X144078072Y-99891082D01*
X143817063Y-99943000D01*
X143550937Y-99943000D01*
X143289928Y-99891082D01*
X143044063Y-99789242D01*
X143044062Y-99789242D01*
X143044061Y-99789241D01*
X142932672Y-99714813D01*
X142822789Y-99641391D01*
X142634609Y-99453211D01*
X142486758Y-99231937D01*
X142384918Y-98986072D01*
X142333000Y-98725063D01*
X142333000Y-98458937D01*
X142384918Y-98197928D01*
X142486758Y-97952063D01*
X142634609Y-97730789D01*
X142822789Y-97542609D01*
X142932672Y-97469187D01*
X143044061Y-97394759D01*
X143243713Y-97312061D01*
X143289928Y-97292918D01*
X143550937Y-97241000D01*
X143817063Y-97241000D01*
X144078072Y-97292918D01*
X144078072Y-97292918D01*
G37*
G36*
X55592072Y-96652918D02*
G01*
X55837939Y-96754759D01*
X55949328Y-96829187D01*
X56059211Y-96902609D01*
X56247391Y-97090789D01*
X56395242Y-97312063D01*
X56444433Y-97430822D01*
X56497082Y-97557928D01*
X56549000Y-97818938D01*
X56549000Y-98085062D01*
X56497082Y-98346072D01*
X56395241Y-98591939D01*
X56247390Y-98813212D01*
X56059212Y-99001390D01*
X55837939Y-99149241D01*
X55837938Y-99149242D01*
X55837937Y-99149242D01*
X55592072Y-99251082D01*
X55331063Y-99303000D01*
X55064937Y-99303000D01*
X54803928Y-99251082D01*
X54558063Y-99149242D01*
X54558062Y-99149242D01*
X54558061Y-99149241D01*
X54336788Y-99001390D01*
X54148610Y-98813212D01*
X54000759Y-98591939D01*
X53898918Y-98346072D01*
X53847000Y-98085062D01*
X53847000Y-97818938D01*
X53898918Y-97557928D01*
X53951567Y-97430822D01*
X54000758Y-97312063D01*
X54148609Y-97090789D01*
X54336789Y-96902609D01*
X54446672Y-96829187D01*
X54558061Y-96754759D01*
X54803928Y-96652918D01*
X55064937Y-96601000D01*
X55331063Y-96601000D01*
X55592072Y-96652918D01*
X55592072Y-96652918D01*
G37*
G36*
X98017143Y-97031675D02*
G01*
X98091778Y-97039026D01*
X98198042Y-97071261D01*
X98235419Y-97082599D01*
X98367791Y-97153354D01*
X98483822Y-97248578D01*
X98579046Y-97364609D01*
X98649801Y-97496981D01*
X98649802Y-97496985D01*
X98693374Y-97640622D01*
X98708086Y-97790000D01*
X98693374Y-97939378D01*
X98661139Y-98045642D01*
X98649801Y-98083019D01*
X98579046Y-98215391D01*
X98483822Y-98331422D01*
X98367791Y-98426646D01*
X98235419Y-98497401D01*
X98198042Y-98508739D01*
X98091778Y-98540974D01*
X98017143Y-98548325D01*
X97979827Y-98552000D01*
X96584173Y-98552000D01*
X96546857Y-98548325D01*
X96472222Y-98540974D01*
X96365958Y-98508739D01*
X96328581Y-98497401D01*
X96196209Y-98426646D01*
X96080178Y-98331422D01*
X95984954Y-98215391D01*
X95914199Y-98083019D01*
X95902861Y-98045642D01*
X95870626Y-97939378D01*
X95855914Y-97790000D01*
X95870626Y-97640622D01*
X95914198Y-97496985D01*
X95914199Y-97496981D01*
X95984954Y-97364609D01*
X96080178Y-97248578D01*
X96196209Y-97153354D01*
X96328581Y-97082599D01*
X96365958Y-97071261D01*
X96472222Y-97039026D01*
X96546857Y-97031675D01*
X96584173Y-97028000D01*
X97979827Y-97028000D01*
X98017143Y-97031675D01*
X98017143Y-97031675D01*
G37*
G36*
X105637143Y-97031675D02*
G01*
X105711778Y-97039026D01*
X105818042Y-97071261D01*
X105855419Y-97082599D01*
X105987791Y-97153354D01*
X106103822Y-97248578D01*
X106199046Y-97364609D01*
X106269801Y-97496981D01*
X106269802Y-97496985D01*
X106313374Y-97640622D01*
X106328086Y-97790000D01*
X106313374Y-97939378D01*
X106281139Y-98045642D01*
X106269801Y-98083019D01*
X106199046Y-98215391D01*
X106103822Y-98331422D01*
X105987791Y-98426646D01*
X105855419Y-98497401D01*
X105818042Y-98508739D01*
X105711778Y-98540974D01*
X105637143Y-98548325D01*
X105599827Y-98552000D01*
X104204173Y-98552000D01*
X104166857Y-98548325D01*
X104092222Y-98540974D01*
X103985958Y-98508739D01*
X103948581Y-98497401D01*
X103816209Y-98426646D01*
X103700178Y-98331422D01*
X103604954Y-98215391D01*
X103534199Y-98083019D01*
X103522861Y-98045642D01*
X103490626Y-97939378D01*
X103475914Y-97790000D01*
X103490626Y-97640622D01*
X103534198Y-97496985D01*
X103534199Y-97496981D01*
X103604954Y-97364609D01*
X103700178Y-97248578D01*
X103816209Y-97153354D01*
X103948581Y-97082599D01*
X103985958Y-97071261D01*
X104092222Y-97039026D01*
X104166857Y-97031675D01*
X104204173Y-97028000D01*
X105599827Y-97028000D01*
X105637143Y-97031675D01*
X105637143Y-97031675D01*
G37*
G36*
X79630585Y-94418228D02*
G01*
X79780410Y-94448030D01*
X80062674Y-94564947D01*
X80316705Y-94734685D01*
X80532741Y-94950721D01*
X80702479Y-95204752D01*
X80819396Y-95487016D01*
X80879000Y-95786666D01*
X80879000Y-96092186D01*
X80819396Y-96391836D01*
X80702479Y-96674100D01*
X80532741Y-96928131D01*
X80316705Y-97144167D01*
X80062674Y-97313905D01*
X79780410Y-97430822D01*
X79630585Y-97460624D01*
X79480761Y-97490426D01*
X79175239Y-97490426D01*
X79025415Y-97460624D01*
X78875590Y-97430822D01*
X78593326Y-97313905D01*
X78339295Y-97144167D01*
X78123259Y-96928131D01*
X77953521Y-96674100D01*
X77836604Y-96391836D01*
X77777000Y-96092186D01*
X77777000Y-95786666D01*
X77836604Y-95487016D01*
X77953521Y-95204752D01*
X78123259Y-94950721D01*
X78339295Y-94734685D01*
X78593326Y-94564947D01*
X78875590Y-94448030D01*
X79025415Y-94418228D01*
X79175239Y-94388426D01*
X79480761Y-94388426D01*
X79630585Y-94418228D01*
X79630585Y-94418228D01*
G37*
G36*
X84630585Y-94418228D02*
G01*
X84780410Y-94448030D01*
X85062674Y-94564947D01*
X85316705Y-94734685D01*
X85532741Y-94950721D01*
X85702479Y-95204752D01*
X85819396Y-95487016D01*
X85879000Y-95786666D01*
X85879000Y-96092186D01*
X85819396Y-96391836D01*
X85702479Y-96674100D01*
X85532741Y-96928131D01*
X85316705Y-97144167D01*
X85062674Y-97313905D01*
X84780410Y-97430822D01*
X84630585Y-97460624D01*
X84480761Y-97490426D01*
X84175239Y-97490426D01*
X84025415Y-97460624D01*
X83875590Y-97430822D01*
X83593326Y-97313905D01*
X83339295Y-97144167D01*
X83123259Y-96928131D01*
X82953521Y-96674100D01*
X82836604Y-96391836D01*
X82777000Y-96092186D01*
X82777000Y-95786666D01*
X82836604Y-95487016D01*
X82953521Y-95204752D01*
X83123259Y-94950721D01*
X83339295Y-94734685D01*
X83593326Y-94564947D01*
X83875590Y-94448030D01*
X84025415Y-94418228D01*
X84175239Y-94388426D01*
X84480761Y-94388426D01*
X84630585Y-94418228D01*
X84630585Y-94418228D01*
G37*
G36*
X69630585Y-94418228D02*
G01*
X69780410Y-94448030D01*
X70062674Y-94564947D01*
X70316705Y-94734685D01*
X70532741Y-94950721D01*
X70702479Y-95204752D01*
X70819396Y-95487016D01*
X70879000Y-95786666D01*
X70879000Y-96092186D01*
X70819396Y-96391836D01*
X70702479Y-96674100D01*
X70532741Y-96928131D01*
X70316705Y-97144167D01*
X70062674Y-97313905D01*
X69780410Y-97430822D01*
X69630585Y-97460624D01*
X69480761Y-97490426D01*
X69175239Y-97490426D01*
X69025415Y-97460624D01*
X68875590Y-97430822D01*
X68593326Y-97313905D01*
X68339295Y-97144167D01*
X68123259Y-96928131D01*
X67953521Y-96674100D01*
X67836604Y-96391836D01*
X67777000Y-96092186D01*
X67777000Y-95786666D01*
X67836604Y-95487016D01*
X67953521Y-95204752D01*
X68123259Y-94950721D01*
X68339295Y-94734685D01*
X68593326Y-94564947D01*
X68875590Y-94448030D01*
X69025415Y-94418228D01*
X69175239Y-94388426D01*
X69480761Y-94388426D01*
X69630585Y-94418228D01*
X69630585Y-94418228D01*
G37*
G36*
X98017143Y-94491675D02*
G01*
X98091778Y-94499026D01*
X98198042Y-94531261D01*
X98235419Y-94542599D01*
X98367791Y-94613354D01*
X98483822Y-94708578D01*
X98579046Y-94824609D01*
X98649801Y-94956981D01*
X98649802Y-94956985D01*
X98693374Y-95100622D01*
X98708086Y-95250000D01*
X98693374Y-95399378D01*
X98666789Y-95487016D01*
X98649801Y-95543019D01*
X98579046Y-95675391D01*
X98483822Y-95791422D01*
X98367791Y-95886646D01*
X98235419Y-95957401D01*
X98198042Y-95968739D01*
X98091778Y-96000974D01*
X98017143Y-96008325D01*
X97979827Y-96012000D01*
X96584173Y-96012000D01*
X96546857Y-96008325D01*
X96472222Y-96000974D01*
X96365958Y-95968739D01*
X96328581Y-95957401D01*
X96196209Y-95886646D01*
X96080178Y-95791422D01*
X95984954Y-95675391D01*
X95914199Y-95543019D01*
X95897211Y-95487016D01*
X95870626Y-95399378D01*
X95855914Y-95250000D01*
X95870626Y-95100622D01*
X95914198Y-94956985D01*
X95914199Y-94956981D01*
X95984954Y-94824609D01*
X96080178Y-94708578D01*
X96196209Y-94613354D01*
X96328581Y-94542599D01*
X96365958Y-94531261D01*
X96472222Y-94499026D01*
X96546857Y-94491675D01*
X96584173Y-94488000D01*
X97979827Y-94488000D01*
X98017143Y-94491675D01*
X98017143Y-94491675D01*
G37*
G36*
X105637143Y-94491675D02*
G01*
X105711778Y-94499026D01*
X105818042Y-94531261D01*
X105855419Y-94542599D01*
X105987791Y-94613354D01*
X106103822Y-94708578D01*
X106199046Y-94824609D01*
X106269801Y-94956981D01*
X106269802Y-94956985D01*
X106313374Y-95100622D01*
X106328086Y-95250000D01*
X106313374Y-95399378D01*
X106286789Y-95487016D01*
X106269801Y-95543019D01*
X106199046Y-95675391D01*
X106103822Y-95791422D01*
X105987791Y-95886646D01*
X105855419Y-95957401D01*
X105818042Y-95968739D01*
X105711778Y-96000974D01*
X105637143Y-96008325D01*
X105599827Y-96012000D01*
X104204173Y-96012000D01*
X104166857Y-96008325D01*
X104092222Y-96000974D01*
X103985958Y-95968739D01*
X103948581Y-95957401D01*
X103816209Y-95886646D01*
X103700178Y-95791422D01*
X103604954Y-95675391D01*
X103534199Y-95543019D01*
X103517211Y-95487016D01*
X103490626Y-95399378D01*
X103475914Y-95250000D01*
X103490626Y-95100622D01*
X103534198Y-94956985D01*
X103534199Y-94956981D01*
X103604954Y-94824609D01*
X103700178Y-94708578D01*
X103816209Y-94613354D01*
X103948581Y-94542599D01*
X103985958Y-94531261D01*
X104092222Y-94499026D01*
X104166857Y-94491675D01*
X104204173Y-94488000D01*
X105599827Y-94488000D01*
X105637143Y-94491675D01*
X105637143Y-94491675D01*
G37*
G36*
X144078072Y-92292918D02*
G01*
X144124288Y-92312061D01*
X144323939Y-92394759D01*
X144357196Y-92416981D01*
X144545211Y-92542609D01*
X144733391Y-92730789D01*
X144881242Y-92952063D01*
X144983082Y-93197928D01*
X145035000Y-93458937D01*
X145035000Y-93725063D01*
X144983082Y-93986072D01*
X144915496Y-94149241D01*
X144881241Y-94231939D01*
X144733390Y-94453212D01*
X144545212Y-94641390D01*
X144323939Y-94789241D01*
X144323938Y-94789242D01*
X144323937Y-94789242D01*
X144078072Y-94891082D01*
X143817063Y-94943000D01*
X143550937Y-94943000D01*
X143289928Y-94891082D01*
X143044063Y-94789242D01*
X143044062Y-94789242D01*
X143044061Y-94789241D01*
X142822788Y-94641390D01*
X142634610Y-94453212D01*
X142486759Y-94231939D01*
X142452505Y-94149241D01*
X142384918Y-93986072D01*
X142333000Y-93725063D01*
X142333000Y-93458937D01*
X142384918Y-93197928D01*
X142486758Y-92952063D01*
X142634609Y-92730789D01*
X142822789Y-92542609D01*
X143010804Y-92416981D01*
X143044061Y-92394759D01*
X143243713Y-92312061D01*
X143289928Y-92292918D01*
X143550937Y-92241000D01*
X143817063Y-92241000D01*
X144078072Y-92292918D01*
X144078072Y-92292918D01*
G37*
G36*
X55548073Y-91644166D02*
G01*
X55592072Y-91652918D01*
X55837939Y-91754759D01*
X55938627Y-91822037D01*
X56059211Y-91902609D01*
X56247391Y-92090789D01*
X56395242Y-92312063D01*
X56497082Y-92557928D01*
X56549000Y-92818937D01*
X56549000Y-93085063D01*
X56497082Y-93346072D01*
X56414087Y-93546442D01*
X56395241Y-93591939D01*
X56247390Y-93813212D01*
X56059212Y-94001390D01*
X55837939Y-94149241D01*
X55837938Y-94149242D01*
X55837937Y-94149242D01*
X55592072Y-94251082D01*
X55331063Y-94303000D01*
X55064937Y-94303000D01*
X54803928Y-94251082D01*
X54558063Y-94149242D01*
X54558062Y-94149242D01*
X54558061Y-94149241D01*
X54336788Y-94001390D01*
X54148610Y-93813212D01*
X54000759Y-93591939D01*
X53981914Y-93546442D01*
X53898918Y-93346072D01*
X53847000Y-93085063D01*
X53847000Y-92818937D01*
X53898918Y-92557928D01*
X54000758Y-92312063D01*
X54148609Y-92090789D01*
X54336789Y-91902609D01*
X54457373Y-91822037D01*
X54558061Y-91754759D01*
X54803928Y-91652918D01*
X54847927Y-91644166D01*
X55064937Y-91601000D01*
X55331063Y-91601000D01*
X55548073Y-91644166D01*
X55548073Y-91644166D01*
G37*
G36*
X128634442Y-91815518D02*
G01*
X128700627Y-91822037D01*
X128870466Y-91873557D01*
X129026991Y-91957222D01*
X129062729Y-91986552D01*
X129164186Y-92069814D01*
X129245238Y-92168578D01*
X129276778Y-92207009D01*
X129360443Y-92363534D01*
X129411963Y-92533373D01*
X129429359Y-92710000D01*
X129411963Y-92886627D01*
X129360443Y-93056466D01*
X129360442Y-93056468D01*
X129318611Y-93134728D01*
X129276778Y-93212991D01*
X129247448Y-93248729D01*
X129164186Y-93350186D01*
X129062729Y-93433448D01*
X129026991Y-93462778D01*
X128870466Y-93546443D01*
X128700627Y-93597963D01*
X128634442Y-93604482D01*
X128568260Y-93611000D01*
X128479740Y-93611000D01*
X128413557Y-93604481D01*
X128347373Y-93597963D01*
X128177534Y-93546443D01*
X128021009Y-93462778D01*
X127985271Y-93433448D01*
X127883814Y-93350186D01*
X127800552Y-93248729D01*
X127771222Y-93212991D01*
X127729390Y-93134729D01*
X127687558Y-93056468D01*
X127687557Y-93056466D01*
X127636037Y-92886627D01*
X127618641Y-92710000D01*
X127636037Y-92533373D01*
X127687557Y-92363534D01*
X127771222Y-92207009D01*
X127802762Y-92168578D01*
X127883814Y-92069814D01*
X127985271Y-91986552D01*
X128021009Y-91957222D01*
X128177534Y-91873557D01*
X128347373Y-91822037D01*
X128413558Y-91815518D01*
X128479740Y-91809000D01*
X128568260Y-91809000D01*
X128634442Y-91815518D01*
X128634442Y-91815518D01*
G37*
G36*
X121014442Y-91815518D02*
G01*
X121080627Y-91822037D01*
X121250466Y-91873557D01*
X121406991Y-91957222D01*
X121442729Y-91986552D01*
X121544186Y-92069814D01*
X121625238Y-92168578D01*
X121656778Y-92207009D01*
X121740443Y-92363534D01*
X121791963Y-92533373D01*
X121809359Y-92710000D01*
X121791963Y-92886627D01*
X121740443Y-93056466D01*
X121740442Y-93056468D01*
X121698611Y-93134728D01*
X121656778Y-93212991D01*
X121627448Y-93248729D01*
X121544186Y-93350186D01*
X121442729Y-93433448D01*
X121406991Y-93462778D01*
X121250466Y-93546443D01*
X121080627Y-93597963D01*
X121014443Y-93604481D01*
X120948260Y-93611000D01*
X120859740Y-93611000D01*
X120793557Y-93604481D01*
X120727373Y-93597963D01*
X120557534Y-93546443D01*
X120401009Y-93462778D01*
X120365271Y-93433448D01*
X120263814Y-93350186D01*
X120180552Y-93248729D01*
X120151222Y-93212991D01*
X120109390Y-93134729D01*
X120067558Y-93056468D01*
X120067557Y-93056466D01*
X120016037Y-92886627D01*
X119998641Y-92710000D01*
X120016037Y-92533373D01*
X120067557Y-92363534D01*
X120151222Y-92207009D01*
X120182762Y-92168578D01*
X120263814Y-92069814D01*
X120365271Y-91986552D01*
X120401009Y-91957222D01*
X120557534Y-91873557D01*
X120727373Y-91822037D01*
X120793558Y-91815518D01*
X120859740Y-91809000D01*
X120948260Y-91809000D01*
X121014442Y-91815518D01*
X121014442Y-91815518D01*
G37*
G36*
X123554442Y-91815518D02*
G01*
X123620627Y-91822037D01*
X123790466Y-91873557D01*
X123946991Y-91957222D01*
X123982729Y-91986552D01*
X124084186Y-92069814D01*
X124165238Y-92168578D01*
X124196778Y-92207009D01*
X124280443Y-92363534D01*
X124331963Y-92533373D01*
X124349359Y-92710000D01*
X124331963Y-92886627D01*
X124280443Y-93056466D01*
X124280442Y-93056468D01*
X124238611Y-93134728D01*
X124196778Y-93212991D01*
X124167448Y-93248729D01*
X124084186Y-93350186D01*
X123982729Y-93433448D01*
X123946991Y-93462778D01*
X123790466Y-93546443D01*
X123620627Y-93597963D01*
X123554442Y-93604482D01*
X123488260Y-93611000D01*
X123399740Y-93611000D01*
X123333557Y-93604481D01*
X123267373Y-93597963D01*
X123097534Y-93546443D01*
X122941009Y-93462778D01*
X122905271Y-93433448D01*
X122803814Y-93350186D01*
X122720552Y-93248729D01*
X122691222Y-93212991D01*
X122649390Y-93134729D01*
X122607558Y-93056468D01*
X122607557Y-93056466D01*
X122556037Y-92886627D01*
X122538641Y-92710000D01*
X122556037Y-92533373D01*
X122607557Y-92363534D01*
X122691222Y-92207009D01*
X122722762Y-92168578D01*
X122803814Y-92069814D01*
X122905271Y-91986552D01*
X122941009Y-91957222D01*
X123097534Y-91873557D01*
X123267373Y-91822037D01*
X123333558Y-91815518D01*
X123399740Y-91809000D01*
X123488260Y-91809000D01*
X123554442Y-91815518D01*
X123554442Y-91815518D01*
G37*
G36*
X126094442Y-91815518D02*
G01*
X126160627Y-91822037D01*
X126330466Y-91873557D01*
X126486991Y-91957222D01*
X126522729Y-91986552D01*
X126624186Y-92069814D01*
X126705238Y-92168578D01*
X126736778Y-92207009D01*
X126820443Y-92363534D01*
X126871963Y-92533373D01*
X126889359Y-92710000D01*
X126871963Y-92886627D01*
X126820443Y-93056466D01*
X126820442Y-93056468D01*
X126778611Y-93134728D01*
X126736778Y-93212991D01*
X126707448Y-93248729D01*
X126624186Y-93350186D01*
X126522729Y-93433448D01*
X126486991Y-93462778D01*
X126330466Y-93546443D01*
X126160627Y-93597963D01*
X126094442Y-93604482D01*
X126028260Y-93611000D01*
X125939740Y-93611000D01*
X125873557Y-93604481D01*
X125807373Y-93597963D01*
X125637534Y-93546443D01*
X125481009Y-93462778D01*
X125445271Y-93433448D01*
X125343814Y-93350186D01*
X125260552Y-93248729D01*
X125231222Y-93212991D01*
X125189390Y-93134729D01*
X125147558Y-93056468D01*
X125147557Y-93056466D01*
X125096037Y-92886627D01*
X125078641Y-92710000D01*
X125096037Y-92533373D01*
X125147557Y-92363534D01*
X125231222Y-92207009D01*
X125262762Y-92168578D01*
X125343814Y-92069814D01*
X125445271Y-91986552D01*
X125481009Y-91957222D01*
X125637534Y-91873557D01*
X125807373Y-91822037D01*
X125873558Y-91815518D01*
X125939740Y-91809000D01*
X126028260Y-91809000D01*
X126094442Y-91815518D01*
X126094442Y-91815518D01*
G37*
G36*
X115934442Y-91815518D02*
G01*
X116000627Y-91822037D01*
X116170466Y-91873557D01*
X116326991Y-91957222D01*
X116362729Y-91986552D01*
X116464186Y-92069814D01*
X116545238Y-92168578D01*
X116576778Y-92207009D01*
X116660443Y-92363534D01*
X116711963Y-92533373D01*
X116729359Y-92710000D01*
X116711963Y-92886627D01*
X116660443Y-93056466D01*
X116660442Y-93056468D01*
X116618611Y-93134728D01*
X116576778Y-93212991D01*
X116547448Y-93248729D01*
X116464186Y-93350186D01*
X116362729Y-93433448D01*
X116326991Y-93462778D01*
X116170466Y-93546443D01*
X116000627Y-93597963D01*
X115934443Y-93604481D01*
X115868260Y-93611000D01*
X115779740Y-93611000D01*
X115713557Y-93604481D01*
X115647373Y-93597963D01*
X115477534Y-93546443D01*
X115321009Y-93462778D01*
X115285271Y-93433448D01*
X115183814Y-93350186D01*
X115100552Y-93248729D01*
X115071222Y-93212991D01*
X115029390Y-93134729D01*
X114987558Y-93056468D01*
X114987557Y-93056466D01*
X114936037Y-92886627D01*
X114918641Y-92710000D01*
X114936037Y-92533373D01*
X114987557Y-92363534D01*
X115071222Y-92207009D01*
X115102762Y-92168578D01*
X115183814Y-92069814D01*
X115285271Y-91986552D01*
X115321009Y-91957222D01*
X115477534Y-91873557D01*
X115647373Y-91822037D01*
X115713558Y-91815518D01*
X115779740Y-91809000D01*
X115868260Y-91809000D01*
X115934442Y-91815518D01*
X115934442Y-91815518D01*
G37*
G36*
X114185000Y-93611000D02*
G01*
X112383000Y-93611000D01*
X112383000Y-91809000D01*
X114185000Y-91809000D01*
X114185000Y-93611000D01*
X114185000Y-93611000D01*
G37*
G36*
X118474442Y-91815518D02*
G01*
X118540627Y-91822037D01*
X118710466Y-91873557D01*
X118866991Y-91957222D01*
X118902729Y-91986552D01*
X119004186Y-92069814D01*
X119085238Y-92168578D01*
X119116778Y-92207009D01*
X119200443Y-92363534D01*
X119251963Y-92533373D01*
X119269359Y-92710000D01*
X119251963Y-92886627D01*
X119200443Y-93056466D01*
X119200442Y-93056468D01*
X119158611Y-93134728D01*
X119116778Y-93212991D01*
X119087448Y-93248729D01*
X119004186Y-93350186D01*
X118902729Y-93433448D01*
X118866991Y-93462778D01*
X118710466Y-93546443D01*
X118540627Y-93597963D01*
X118474443Y-93604481D01*
X118408260Y-93611000D01*
X118319740Y-93611000D01*
X118253557Y-93604481D01*
X118187373Y-93597963D01*
X118017534Y-93546443D01*
X117861009Y-93462778D01*
X117825271Y-93433448D01*
X117723814Y-93350186D01*
X117640552Y-93248729D01*
X117611222Y-93212991D01*
X117569390Y-93134729D01*
X117527558Y-93056468D01*
X117527557Y-93056466D01*
X117476037Y-92886627D01*
X117458641Y-92710000D01*
X117476037Y-92533373D01*
X117527557Y-92363534D01*
X117611222Y-92207009D01*
X117642762Y-92168578D01*
X117723814Y-92069814D01*
X117825271Y-91986552D01*
X117861009Y-91957222D01*
X118017534Y-91873557D01*
X118187373Y-91822037D01*
X118253558Y-91815518D01*
X118319740Y-91809000D01*
X118408260Y-91809000D01*
X118474442Y-91815518D01*
X118474442Y-91815518D01*
G37*
G36*
X105637143Y-91951675D02*
G01*
X105711778Y-91959026D01*
X105815289Y-91990426D01*
X105855419Y-92002599D01*
X105987791Y-92073354D01*
X106103822Y-92168578D01*
X106199046Y-92284609D01*
X106269801Y-92416981D01*
X106269802Y-92416985D01*
X106313374Y-92560622D01*
X106328086Y-92710000D01*
X106313374Y-92859378D01*
X106305108Y-92886627D01*
X106269801Y-93003019D01*
X106199046Y-93135391D01*
X106103822Y-93251422D01*
X105987791Y-93346646D01*
X105855419Y-93417401D01*
X105818042Y-93428739D01*
X105711778Y-93460974D01*
X105637143Y-93468325D01*
X105599827Y-93472000D01*
X104204173Y-93472000D01*
X104166857Y-93468325D01*
X104092222Y-93460974D01*
X103985958Y-93428739D01*
X103948581Y-93417401D01*
X103816209Y-93346646D01*
X103700178Y-93251422D01*
X103604954Y-93135391D01*
X103534199Y-93003019D01*
X103498892Y-92886627D01*
X103490626Y-92859378D01*
X103475914Y-92710000D01*
X103490626Y-92560622D01*
X103534198Y-92416985D01*
X103534199Y-92416981D01*
X103604954Y-92284609D01*
X103700178Y-92168578D01*
X103816209Y-92073354D01*
X103948581Y-92002599D01*
X103988711Y-91990426D01*
X104092222Y-91959026D01*
X104166857Y-91951675D01*
X104204173Y-91948000D01*
X105599827Y-91948000D01*
X105637143Y-91951675D01*
X105637143Y-91951675D01*
G37*
G36*
X98017143Y-91951675D02*
G01*
X98091778Y-91959026D01*
X98195289Y-91990426D01*
X98235419Y-92002599D01*
X98367791Y-92073354D01*
X98483822Y-92168578D01*
X98579046Y-92284609D01*
X98649801Y-92416981D01*
X98649802Y-92416985D01*
X98693374Y-92560622D01*
X98708086Y-92710000D01*
X98693374Y-92859378D01*
X98685108Y-92886627D01*
X98649801Y-93003019D01*
X98579046Y-93135391D01*
X98483822Y-93251422D01*
X98367791Y-93346646D01*
X98235419Y-93417401D01*
X98198042Y-93428739D01*
X98091778Y-93460974D01*
X98017143Y-93468325D01*
X97979827Y-93472000D01*
X96584173Y-93472000D01*
X96546857Y-93468325D01*
X96472222Y-93460974D01*
X96365958Y-93428739D01*
X96328581Y-93417401D01*
X96196209Y-93346646D01*
X96080178Y-93251422D01*
X95984954Y-93135391D01*
X95914199Y-93003019D01*
X95878892Y-92886627D01*
X95870626Y-92859378D01*
X95855914Y-92710000D01*
X95870626Y-92560622D01*
X95914198Y-92416985D01*
X95914199Y-92416981D01*
X95984954Y-92284609D01*
X96080178Y-92168578D01*
X96196209Y-92073354D01*
X96328581Y-92002599D01*
X96368711Y-91990426D01*
X96472222Y-91959026D01*
X96546857Y-91951675D01*
X96584173Y-91948000D01*
X97979827Y-91948000D01*
X98017143Y-91951675D01*
X98017143Y-91951675D01*
G37*
G36*
X84630585Y-88918228D02*
G01*
X84780410Y-88948030D01*
X85062674Y-89064947D01*
X85316705Y-89234685D01*
X85532741Y-89450721D01*
X85702479Y-89704752D01*
X85819396Y-89987016D01*
X85826081Y-90020624D01*
X85879000Y-90286665D01*
X85879000Y-90592187D01*
X85878362Y-90595392D01*
X85819396Y-90891836D01*
X85702479Y-91174100D01*
X85532741Y-91428131D01*
X85316705Y-91644167D01*
X85062674Y-91813905D01*
X84780410Y-91930822D01*
X84694050Y-91948000D01*
X84480761Y-91990426D01*
X84175239Y-91990426D01*
X83961950Y-91948000D01*
X83875590Y-91930822D01*
X83593326Y-91813905D01*
X83339295Y-91644167D01*
X83123259Y-91428131D01*
X82953521Y-91174100D01*
X82836604Y-90891836D01*
X82777638Y-90595392D01*
X82777000Y-90592187D01*
X82777000Y-90286665D01*
X82829919Y-90020624D01*
X82836604Y-89987016D01*
X82953521Y-89704752D01*
X83123259Y-89450721D01*
X83339295Y-89234685D01*
X83593326Y-89064947D01*
X83875590Y-88948030D01*
X84025415Y-88918228D01*
X84175239Y-88888426D01*
X84480761Y-88888426D01*
X84630585Y-88918228D01*
X84630585Y-88918228D01*
G37*
G36*
X74630585Y-88918228D02*
G01*
X74780410Y-88948030D01*
X75062674Y-89064947D01*
X75316705Y-89234685D01*
X75532741Y-89450721D01*
X75702479Y-89704752D01*
X75819396Y-89987016D01*
X75826081Y-90020624D01*
X75879000Y-90286665D01*
X75879000Y-90592187D01*
X75878362Y-90595392D01*
X75819396Y-90891836D01*
X75702479Y-91174100D01*
X75532741Y-91428131D01*
X75316705Y-91644167D01*
X75062674Y-91813905D01*
X74780410Y-91930822D01*
X74694050Y-91948000D01*
X74480761Y-91990426D01*
X74175239Y-91990426D01*
X73961950Y-91948000D01*
X73875590Y-91930822D01*
X73593326Y-91813905D01*
X73339295Y-91644167D01*
X73123259Y-91428131D01*
X72953521Y-91174100D01*
X72836604Y-90891836D01*
X72777638Y-90595392D01*
X72777000Y-90592187D01*
X72777000Y-90286665D01*
X72829919Y-90020624D01*
X72836604Y-89987016D01*
X72953521Y-89704752D01*
X73123259Y-89450721D01*
X73339295Y-89234685D01*
X73593326Y-89064947D01*
X73875590Y-88948030D01*
X74025415Y-88918228D01*
X74175239Y-88888426D01*
X74480761Y-88888426D01*
X74630585Y-88918228D01*
X74630585Y-88918228D01*
G37*
G36*
X105637143Y-89411675D02*
G01*
X105711778Y-89419026D01*
X105816262Y-89450721D01*
X105855419Y-89462599D01*
X105987791Y-89533354D01*
X106103822Y-89628578D01*
X106199046Y-89744609D01*
X106269801Y-89876981D01*
X106269802Y-89876985D01*
X106313374Y-90020622D01*
X106328086Y-90170000D01*
X106313374Y-90319378D01*
X106281139Y-90425642D01*
X106269801Y-90463019D01*
X106199046Y-90595391D01*
X106103822Y-90711422D01*
X105987791Y-90806646D01*
X105855419Y-90877401D01*
X105818042Y-90888739D01*
X105711778Y-90920974D01*
X105637143Y-90928325D01*
X105599827Y-90932000D01*
X104204173Y-90932000D01*
X104166857Y-90928325D01*
X104092222Y-90920974D01*
X103985958Y-90888739D01*
X103948581Y-90877401D01*
X103816209Y-90806646D01*
X103700178Y-90711422D01*
X103604954Y-90595391D01*
X103534199Y-90463019D01*
X103522861Y-90425642D01*
X103490626Y-90319378D01*
X103475914Y-90170000D01*
X103490626Y-90020622D01*
X103534198Y-89876985D01*
X103534199Y-89876981D01*
X103604954Y-89744609D01*
X103700178Y-89628578D01*
X103816209Y-89533354D01*
X103948581Y-89462599D01*
X103987738Y-89450721D01*
X104092222Y-89419026D01*
X104166857Y-89411675D01*
X104204173Y-89408000D01*
X105599827Y-89408000D01*
X105637143Y-89411675D01*
X105637143Y-89411675D01*
G37*
G36*
X98017143Y-89411675D02*
G01*
X98091778Y-89419026D01*
X98196262Y-89450721D01*
X98235419Y-89462599D01*
X98367791Y-89533354D01*
X98483822Y-89628578D01*
X98579046Y-89744609D01*
X98649801Y-89876981D01*
X98649802Y-89876985D01*
X98693374Y-90020622D01*
X98708086Y-90170000D01*
X98693374Y-90319378D01*
X98661139Y-90425642D01*
X98649801Y-90463019D01*
X98579046Y-90595391D01*
X98483822Y-90711422D01*
X98367791Y-90806646D01*
X98235419Y-90877401D01*
X98198042Y-90888739D01*
X98091778Y-90920974D01*
X98017143Y-90928325D01*
X97979827Y-90932000D01*
X96584173Y-90932000D01*
X96546857Y-90928325D01*
X96472222Y-90920974D01*
X96365958Y-90888739D01*
X96328581Y-90877401D01*
X96196209Y-90806646D01*
X96080178Y-90711422D01*
X95984954Y-90595391D01*
X95914199Y-90463019D01*
X95902861Y-90425642D01*
X95870626Y-90319378D01*
X95855914Y-90170000D01*
X95870626Y-90020622D01*
X95914198Y-89876985D01*
X95914199Y-89876981D01*
X95984954Y-89744609D01*
X96080178Y-89628578D01*
X96196209Y-89533354D01*
X96328581Y-89462599D01*
X96367738Y-89450721D01*
X96472222Y-89419026D01*
X96546857Y-89411675D01*
X96584173Y-89408000D01*
X97979827Y-89408000D01*
X98017143Y-89411675D01*
X98017143Y-89411675D01*
G37*
G36*
X144078072Y-87292918D02*
G01*
X144124288Y-87312061D01*
X144323939Y-87394759D01*
X144435328Y-87469187D01*
X144545211Y-87542609D01*
X144733391Y-87730789D01*
X144881242Y-87952063D01*
X144983082Y-88197928D01*
X145035000Y-88458937D01*
X145035000Y-88725063D01*
X144983082Y-88986072D01*
X144881242Y-89231937D01*
X144735055Y-89450721D01*
X144733390Y-89453212D01*
X144545212Y-89641390D01*
X144323939Y-89789241D01*
X144323938Y-89789242D01*
X144323937Y-89789242D01*
X144078072Y-89891082D01*
X143817063Y-89943000D01*
X143550937Y-89943000D01*
X143289928Y-89891082D01*
X143044063Y-89789242D01*
X143044062Y-89789242D01*
X143044061Y-89789241D01*
X142822788Y-89641390D01*
X142634610Y-89453212D01*
X142632946Y-89450721D01*
X142486758Y-89231937D01*
X142384918Y-88986072D01*
X142333000Y-88725063D01*
X142333000Y-88458937D01*
X142384918Y-88197928D01*
X142486758Y-87952063D01*
X142634609Y-87730789D01*
X142822789Y-87542609D01*
X142932672Y-87469187D01*
X143044061Y-87394759D01*
X143243713Y-87312061D01*
X143289928Y-87292918D01*
X143550937Y-87241000D01*
X143817063Y-87241000D01*
X144078072Y-87292918D01*
X144078072Y-87292918D01*
G37*
G36*
X55592072Y-86652918D02*
G01*
X55837939Y-86754759D01*
X55949328Y-86829187D01*
X56059211Y-86902609D01*
X56247391Y-87090789D01*
X56395242Y-87312063D01*
X56490737Y-87542609D01*
X56497082Y-87557928D01*
X56549000Y-87818938D01*
X56549000Y-88085062D01*
X56497082Y-88346072D01*
X56395241Y-88591939D01*
X56247390Y-88813212D01*
X56059212Y-89001390D01*
X55837939Y-89149241D01*
X55837938Y-89149242D01*
X55837937Y-89149242D01*
X55592072Y-89251082D01*
X55331063Y-89303000D01*
X55064937Y-89303000D01*
X54803928Y-89251082D01*
X54558063Y-89149242D01*
X54558062Y-89149242D01*
X54558061Y-89149241D01*
X54336788Y-89001390D01*
X54148610Y-88813212D01*
X54000759Y-88591939D01*
X53898918Y-88346072D01*
X53847000Y-88085062D01*
X53847000Y-87818938D01*
X53898918Y-87557928D01*
X53905263Y-87542609D01*
X54000758Y-87312063D01*
X54148609Y-87090789D01*
X54336789Y-86902609D01*
X54446672Y-86829187D01*
X54558061Y-86754759D01*
X54803928Y-86652918D01*
X55064937Y-86601000D01*
X55331063Y-86601000D01*
X55592072Y-86652918D01*
X55592072Y-86652918D01*
G37*
G36*
X106790443Y-84703519D02*
G01*
X106856627Y-84710037D01*
X107026466Y-84761557D01*
X107182991Y-84845222D01*
X107218729Y-84874552D01*
X107320186Y-84957814D01*
X107359882Y-85006185D01*
X107432778Y-85095009D01*
X107516443Y-85251534D01*
X107567963Y-85421373D01*
X107585359Y-85598000D01*
X107567963Y-85774627D01*
X107516443Y-85944466D01*
X107432778Y-86100991D01*
X107403448Y-86136729D01*
X107320186Y-86238186D01*
X107218729Y-86321448D01*
X107182991Y-86350778D01*
X107026466Y-86434443D01*
X106856627Y-86485963D01*
X106790442Y-86492482D01*
X106724260Y-86499000D01*
X106635740Y-86499000D01*
X106569558Y-86492482D01*
X106503373Y-86485963D01*
X106333534Y-86434443D01*
X106177009Y-86350778D01*
X106141271Y-86321448D01*
X106039814Y-86238186D01*
X105956552Y-86136729D01*
X105927222Y-86100991D01*
X105843557Y-85944466D01*
X105792037Y-85774627D01*
X105774641Y-85598000D01*
X105792037Y-85421373D01*
X105843557Y-85251534D01*
X105927222Y-85095009D01*
X106000118Y-85006185D01*
X106039814Y-84957814D01*
X106141271Y-84874552D01*
X106177009Y-84845222D01*
X106333534Y-84761557D01*
X106503373Y-84710037D01*
X106569557Y-84703519D01*
X106635740Y-84697000D01*
X106724260Y-84697000D01*
X106790443Y-84703519D01*
X106790443Y-84703519D01*
G37*
G36*
X109330443Y-84703519D02*
G01*
X109396627Y-84710037D01*
X109566466Y-84761557D01*
X109722991Y-84845222D01*
X109758729Y-84874552D01*
X109860186Y-84957814D01*
X109899882Y-85006185D01*
X109972778Y-85095009D01*
X110056443Y-85251534D01*
X110107963Y-85421373D01*
X110125359Y-85598000D01*
X110107963Y-85774627D01*
X110056443Y-85944466D01*
X109972778Y-86100991D01*
X109943448Y-86136729D01*
X109860186Y-86238186D01*
X109758729Y-86321448D01*
X109722991Y-86350778D01*
X109566466Y-86434443D01*
X109396627Y-86485963D01*
X109330442Y-86492482D01*
X109264260Y-86499000D01*
X109175740Y-86499000D01*
X109109558Y-86492482D01*
X109043373Y-86485963D01*
X108873534Y-86434443D01*
X108717009Y-86350778D01*
X108681271Y-86321448D01*
X108579814Y-86238186D01*
X108496552Y-86136729D01*
X108467222Y-86100991D01*
X108383557Y-85944466D01*
X108332037Y-85774627D01*
X108314641Y-85598000D01*
X108332037Y-85421373D01*
X108383557Y-85251534D01*
X108467222Y-85095009D01*
X108540118Y-85006185D01*
X108579814Y-84957814D01*
X108681271Y-84874552D01*
X108717009Y-84845222D01*
X108873534Y-84761557D01*
X109043373Y-84710037D01*
X109109557Y-84703519D01*
X109175740Y-84697000D01*
X109264260Y-84697000D01*
X109330443Y-84703519D01*
X109330443Y-84703519D01*
G37*
G36*
X112661000Y-86499000D02*
G01*
X110859000Y-86499000D01*
X110859000Y-84697000D01*
X112661000Y-84697000D01*
X112661000Y-86499000D01*
X112661000Y-86499000D01*
G37*
G36*
X101340228Y-84271703D02*
G01*
X101495100Y-84335853D01*
X101634481Y-84428985D01*
X101753015Y-84547519D01*
X101846147Y-84686900D01*
X101910297Y-84841772D01*
X101943000Y-85006184D01*
X101943000Y-85173816D01*
X101910297Y-85338228D01*
X101846147Y-85493100D01*
X101753015Y-85632481D01*
X101634481Y-85751015D01*
X101495100Y-85844147D01*
X101340228Y-85908297D01*
X101175816Y-85941000D01*
X101008184Y-85941000D01*
X100843772Y-85908297D01*
X100688900Y-85844147D01*
X100549519Y-85751015D01*
X100430985Y-85632481D01*
X100337853Y-85493100D01*
X100273703Y-85338228D01*
X100241000Y-85173816D01*
X100241000Y-85006184D01*
X100273703Y-84841772D01*
X100337853Y-84686900D01*
X100430985Y-84547519D01*
X100549519Y-84428985D01*
X100688900Y-84335853D01*
X100843772Y-84271703D01*
X101008184Y-84239000D01*
X101175816Y-84239000D01*
X101340228Y-84271703D01*
X101340228Y-84271703D01*
G37*
G36*
X98840228Y-84271703D02*
G01*
X98995100Y-84335853D01*
X99134481Y-84428985D01*
X99253015Y-84547519D01*
X99346147Y-84686900D01*
X99410297Y-84841772D01*
X99443000Y-85006184D01*
X99443000Y-85173816D01*
X99410297Y-85338228D01*
X99346147Y-85493100D01*
X99253015Y-85632481D01*
X99134481Y-85751015D01*
X98995100Y-85844147D01*
X98840228Y-85908297D01*
X98675816Y-85941000D01*
X98508184Y-85941000D01*
X98343772Y-85908297D01*
X98188900Y-85844147D01*
X98049519Y-85751015D01*
X97930985Y-85632481D01*
X97837853Y-85493100D01*
X97773703Y-85338228D01*
X97741000Y-85173816D01*
X97741000Y-85006184D01*
X97773703Y-84841772D01*
X97837853Y-84686900D01*
X97930985Y-84547519D01*
X98049519Y-84428985D01*
X98188900Y-84335853D01*
X98343772Y-84271703D01*
X98508184Y-84239000D01*
X98675816Y-84239000D01*
X98840228Y-84271703D01*
X98840228Y-84271703D01*
G37*
G36*
X144078072Y-82292918D02*
G01*
X144124288Y-82312061D01*
X144323939Y-82394759D01*
X144435328Y-82469187D01*
X144545211Y-82542609D01*
X144733391Y-82730789D01*
X144881242Y-82952063D01*
X144983082Y-83197928D01*
X145035000Y-83458937D01*
X145035000Y-83725063D01*
X144983082Y-83986072D01*
X144881242Y-84231937D01*
X144733391Y-84453211D01*
X144545211Y-84641391D01*
X144461986Y-84697000D01*
X144323939Y-84789241D01*
X144323938Y-84789242D01*
X144323937Y-84789242D01*
X144078072Y-84891082D01*
X143817063Y-84943000D01*
X143550937Y-84943000D01*
X143289928Y-84891082D01*
X143044063Y-84789242D01*
X143044062Y-84789242D01*
X143044061Y-84789241D01*
X142906014Y-84697000D01*
X142822789Y-84641391D01*
X142634609Y-84453211D01*
X142486758Y-84231937D01*
X142384918Y-83986072D01*
X142333000Y-83725063D01*
X142333000Y-83458937D01*
X142384918Y-83197928D01*
X142486758Y-82952063D01*
X142634609Y-82730789D01*
X142822789Y-82542609D01*
X142932672Y-82469187D01*
X143044061Y-82394759D01*
X143243713Y-82312061D01*
X143289928Y-82292918D01*
X143550937Y-82241000D01*
X143817063Y-82241000D01*
X144078072Y-82292918D01*
X144078072Y-82292918D01*
G37*
G36*
X69630585Y-81827086D02*
G01*
X69780410Y-81856888D01*
X70062674Y-81973805D01*
X70316705Y-82143543D01*
X70532741Y-82359579D01*
X70702479Y-82613610D01*
X70819396Y-82895874D01*
X70879000Y-83195524D01*
X70879000Y-83501044D01*
X70819396Y-83800694D01*
X70702479Y-84082958D01*
X70532741Y-84336989D01*
X70316705Y-84553025D01*
X70062674Y-84722763D01*
X69780410Y-84839680D01*
X69752553Y-84845221D01*
X69480761Y-84899284D01*
X69175239Y-84899284D01*
X68903447Y-84845221D01*
X68875590Y-84839680D01*
X68593326Y-84722763D01*
X68339295Y-84553025D01*
X68123259Y-84336989D01*
X67953521Y-84082958D01*
X67836604Y-83800694D01*
X67777000Y-83501044D01*
X67777000Y-83195524D01*
X67836604Y-82895874D01*
X67953521Y-82613610D01*
X68123259Y-82359579D01*
X68339295Y-82143543D01*
X68593326Y-81973805D01*
X68875590Y-81856888D01*
X69025415Y-81827086D01*
X69175239Y-81797284D01*
X69480761Y-81797284D01*
X69630585Y-81827086D01*
X69630585Y-81827086D01*
G37*
G36*
X79630585Y-81827086D02*
G01*
X79780410Y-81856888D01*
X80062674Y-81973805D01*
X80316705Y-82143543D01*
X80532741Y-82359579D01*
X80702479Y-82613610D01*
X80819396Y-82895874D01*
X80879000Y-83195524D01*
X80879000Y-83501044D01*
X80819396Y-83800694D01*
X80702479Y-84082958D01*
X80532741Y-84336989D01*
X80316705Y-84553025D01*
X80062674Y-84722763D01*
X79780410Y-84839680D01*
X79752553Y-84845221D01*
X79480761Y-84899284D01*
X79175239Y-84899284D01*
X78903447Y-84845221D01*
X78875590Y-84839680D01*
X78593326Y-84722763D01*
X78339295Y-84553025D01*
X78123259Y-84336989D01*
X77953521Y-84082958D01*
X77836604Y-83800694D01*
X77777000Y-83501044D01*
X77777000Y-83195524D01*
X77836604Y-82895874D01*
X77953521Y-82613610D01*
X78123259Y-82359579D01*
X78339295Y-82143543D01*
X78593326Y-81973805D01*
X78875590Y-81856888D01*
X79025415Y-81827086D01*
X79175239Y-81797284D01*
X79480761Y-81797284D01*
X79630585Y-81827086D01*
X79630585Y-81827086D01*
G37*
G36*
X84630585Y-81827086D02*
G01*
X84780410Y-81856888D01*
X85062674Y-81973805D01*
X85316705Y-82143543D01*
X85532741Y-82359579D01*
X85702479Y-82613610D01*
X85819396Y-82895874D01*
X85879000Y-83195524D01*
X85879000Y-83501044D01*
X85819396Y-83800694D01*
X85702479Y-84082958D01*
X85532741Y-84336989D01*
X85316705Y-84553025D01*
X85062674Y-84722763D01*
X84780410Y-84839680D01*
X84752553Y-84845221D01*
X84480761Y-84899284D01*
X84175239Y-84899284D01*
X83903447Y-84845221D01*
X83875590Y-84839680D01*
X83593326Y-84722763D01*
X83339295Y-84553025D01*
X83123259Y-84336989D01*
X82953521Y-84082958D01*
X82836604Y-83800694D01*
X82777000Y-83501044D01*
X82777000Y-83195524D01*
X82836604Y-82895874D01*
X82953521Y-82613610D01*
X83123259Y-82359579D01*
X83339295Y-82143543D01*
X83593326Y-81973805D01*
X83875590Y-81856888D01*
X84025415Y-81827086D01*
X84175239Y-81797284D01*
X84480761Y-81797284D01*
X84630585Y-81827086D01*
X84630585Y-81827086D01*
G37*
G36*
X55592072Y-81652918D02*
G01*
X55837939Y-81754759D01*
X55949328Y-81829187D01*
X56059211Y-81902609D01*
X56247391Y-82090789D01*
X56395242Y-82312063D01*
X56497082Y-82557928D01*
X56549000Y-82818937D01*
X56549000Y-83085063D01*
X56497082Y-83346072D01*
X56395242Y-83591937D01*
X56255755Y-83800694D01*
X56247390Y-83813212D01*
X56059212Y-84001390D01*
X55837939Y-84149241D01*
X55837938Y-84149242D01*
X55837937Y-84149242D01*
X55592072Y-84251082D01*
X55331063Y-84303000D01*
X55064937Y-84303000D01*
X54803928Y-84251082D01*
X54558063Y-84149242D01*
X54558062Y-84149242D01*
X54558061Y-84149241D01*
X54336788Y-84001390D01*
X54148610Y-83813212D01*
X54140246Y-83800694D01*
X54000758Y-83591937D01*
X53898918Y-83346072D01*
X53847000Y-83085063D01*
X53847000Y-82818937D01*
X53898918Y-82557928D01*
X54000758Y-82312063D01*
X54148609Y-82090789D01*
X54336789Y-81902609D01*
X54446672Y-81829187D01*
X54558061Y-81754759D01*
X54803928Y-81652918D01*
X55064937Y-81601000D01*
X55331063Y-81601000D01*
X55592072Y-81652918D01*
X55592072Y-81652918D01*
G37*
G36*
X96485059Y-79541860D02*
G01*
X96621732Y-79598472D01*
X96744735Y-79680660D01*
X96849340Y-79785265D01*
X96931528Y-79908268D01*
X96988140Y-80044941D01*
X97017000Y-80190033D01*
X97017000Y-80337967D01*
X96988140Y-80483059D01*
X96931528Y-80619732D01*
X96849340Y-80742735D01*
X96744735Y-80847340D01*
X96621732Y-80929528D01*
X96621731Y-80929529D01*
X96621730Y-80929529D01*
X96485059Y-80986140D01*
X96339968Y-81015000D01*
X96192032Y-81015000D01*
X96046941Y-80986140D01*
X95910270Y-80929529D01*
X95910269Y-80929529D01*
X95910268Y-80929528D01*
X95787265Y-80847340D01*
X95682660Y-80742735D01*
X95600472Y-80619732D01*
X95543860Y-80483059D01*
X95515000Y-80337967D01*
X95515000Y-80190033D01*
X95543860Y-80044941D01*
X95600472Y-79908268D01*
X95682660Y-79785265D01*
X95787265Y-79680660D01*
X95910268Y-79598472D01*
X96046941Y-79541860D01*
X96192032Y-79513000D01*
X96339968Y-79513000D01*
X96485059Y-79541860D01*
X96485059Y-79541860D01*
G37*
G36*
X74630585Y-76327086D02*
G01*
X74780410Y-76356888D01*
X75062674Y-76473805D01*
X75316705Y-76643543D01*
X75532741Y-76859579D01*
X75702479Y-77113610D01*
X75784927Y-77312659D01*
X75819396Y-77395875D01*
X75851631Y-77557928D01*
X75879000Y-77695524D01*
X75879000Y-78001044D01*
X75819396Y-78300694D01*
X75702479Y-78582958D01*
X75532741Y-78836989D01*
X75316705Y-79053025D01*
X75062674Y-79222763D01*
X74780410Y-79339680D01*
X74630585Y-79369482D01*
X74480761Y-79399284D01*
X74175239Y-79399284D01*
X74025415Y-79369482D01*
X73875590Y-79339680D01*
X73593326Y-79222763D01*
X73339295Y-79053025D01*
X73123259Y-78836989D01*
X72953521Y-78582958D01*
X72836604Y-78300694D01*
X72777000Y-78001044D01*
X72777000Y-77695524D01*
X72804370Y-77557928D01*
X72836604Y-77395875D01*
X72871073Y-77312659D01*
X72953521Y-77113610D01*
X73123259Y-76859579D01*
X73339295Y-76643543D01*
X73593326Y-76473805D01*
X73875590Y-76356888D01*
X74025415Y-76327086D01*
X74175239Y-76297284D01*
X74480761Y-76297284D01*
X74630585Y-76327086D01*
X74630585Y-76327086D01*
G37*
G36*
X84630585Y-76327086D02*
G01*
X84780410Y-76356888D01*
X85062674Y-76473805D01*
X85316705Y-76643543D01*
X85532741Y-76859579D01*
X85702479Y-77113610D01*
X85784927Y-77312659D01*
X85819396Y-77395875D01*
X85851631Y-77557928D01*
X85879000Y-77695524D01*
X85879000Y-78001044D01*
X85819396Y-78300694D01*
X85702479Y-78582958D01*
X85532741Y-78836989D01*
X85316705Y-79053025D01*
X85062674Y-79222763D01*
X84780410Y-79339680D01*
X84630585Y-79369482D01*
X84480761Y-79399284D01*
X84175239Y-79399284D01*
X84025415Y-79369482D01*
X83875590Y-79339680D01*
X83593326Y-79222763D01*
X83339295Y-79053025D01*
X83123259Y-78836989D01*
X82953521Y-78582958D01*
X82836604Y-78300694D01*
X82777000Y-78001044D01*
X82777000Y-77695524D01*
X82804370Y-77557928D01*
X82836604Y-77395875D01*
X82871073Y-77312659D01*
X82953521Y-77113610D01*
X83123259Y-76859579D01*
X83339295Y-76643543D01*
X83593326Y-76473805D01*
X83875590Y-76356888D01*
X84025415Y-76327086D01*
X84175239Y-76297284D01*
X84480761Y-76297284D01*
X84630585Y-76327086D01*
X84630585Y-76327086D01*
G37*
G36*
X55592072Y-76652918D02*
G01*
X55725053Y-76708000D01*
X55837939Y-76754759D01*
X55949328Y-76829187D01*
X56059211Y-76902609D01*
X56247391Y-77090789D01*
X56395242Y-77312063D01*
X56497082Y-77557928D01*
X56524452Y-77695524D01*
X56549000Y-77818938D01*
X56549000Y-78085062D01*
X56497082Y-78346072D01*
X56395241Y-78591939D01*
X56247390Y-78813212D01*
X56059212Y-79001390D01*
X55837939Y-79149241D01*
X55837938Y-79149242D01*
X55837937Y-79149242D01*
X55592072Y-79251082D01*
X55331063Y-79303000D01*
X55064937Y-79303000D01*
X54803928Y-79251082D01*
X54558063Y-79149242D01*
X54558062Y-79149242D01*
X54558061Y-79149241D01*
X54336788Y-79001390D01*
X54148610Y-78813212D01*
X54000759Y-78591939D01*
X53898918Y-78346072D01*
X53847000Y-78085062D01*
X53847000Y-77818938D01*
X53871549Y-77695524D01*
X53898918Y-77557928D01*
X54000758Y-77312063D01*
X54148609Y-77090789D01*
X54336789Y-76902609D01*
X54446672Y-76829187D01*
X54558061Y-76754759D01*
X54670948Y-76708000D01*
X54803928Y-76652918D01*
X55064937Y-76601000D01*
X55331063Y-76601000D01*
X55592072Y-76652918D01*
X55592072Y-76652918D01*
G37*
G36*
X119800823Y-75869313D02*
G01*
X119961242Y-75917976D01*
X120093906Y-75988886D01*
X120109078Y-75996996D01*
X120238659Y-76103341D01*
X120345004Y-76232922D01*
X120345005Y-76232924D01*
X120424024Y-76380758D01*
X120472687Y-76541177D01*
X120489117Y-76708000D01*
X120472687Y-76874823D01*
X120424024Y-77035242D01*
X120394334Y-77090788D01*
X120345004Y-77183078D01*
X120238659Y-77312659D01*
X120109078Y-77419004D01*
X120109076Y-77419005D01*
X119961242Y-77498024D01*
X119800823Y-77546687D01*
X119675804Y-77559000D01*
X119592196Y-77559000D01*
X119467177Y-77546687D01*
X119306758Y-77498024D01*
X119158924Y-77419005D01*
X119158922Y-77419004D01*
X119029341Y-77312659D01*
X118922996Y-77183078D01*
X118873666Y-77090788D01*
X118843976Y-77035242D01*
X118795313Y-76874823D01*
X118778883Y-76708000D01*
X118795313Y-76541177D01*
X118843976Y-76380758D01*
X118922995Y-76232924D01*
X118922996Y-76232922D01*
X119029341Y-76103341D01*
X119158922Y-75996996D01*
X119174094Y-75988886D01*
X119306758Y-75917976D01*
X119467177Y-75869313D01*
X119592196Y-75857000D01*
X119675804Y-75857000D01*
X119800823Y-75869313D01*
X119800823Y-75869313D01*
G37*
G36*
X104560823Y-75869313D02*
G01*
X104721242Y-75917976D01*
X104853906Y-75988886D01*
X104869078Y-75996996D01*
X104998659Y-76103341D01*
X105105004Y-76232922D01*
X105105005Y-76232924D01*
X105184024Y-76380758D01*
X105232687Y-76541177D01*
X105249117Y-76708000D01*
X105232687Y-76874823D01*
X105184024Y-77035242D01*
X105154334Y-77090788D01*
X105105004Y-77183078D01*
X104998659Y-77312659D01*
X104869078Y-77419004D01*
X104869076Y-77419005D01*
X104721242Y-77498024D01*
X104560823Y-77546687D01*
X104435804Y-77559000D01*
X104352196Y-77559000D01*
X104227177Y-77546687D01*
X104066758Y-77498024D01*
X103918924Y-77419005D01*
X103918922Y-77419004D01*
X103789341Y-77312659D01*
X103682996Y-77183078D01*
X103633666Y-77090788D01*
X103603976Y-77035242D01*
X103555313Y-76874823D01*
X103538883Y-76708000D01*
X103555313Y-76541177D01*
X103603976Y-76380758D01*
X103682995Y-76232924D01*
X103682996Y-76232922D01*
X103789341Y-76103341D01*
X103918922Y-75996996D01*
X103934094Y-75988886D01*
X104066758Y-75917976D01*
X104227177Y-75869313D01*
X104352196Y-75857000D01*
X104435804Y-75857000D01*
X104560823Y-75869313D01*
X104560823Y-75869313D01*
G37*
G36*
X107100823Y-75869313D02*
G01*
X107261242Y-75917976D01*
X107393906Y-75988886D01*
X107409078Y-75996996D01*
X107538659Y-76103341D01*
X107645004Y-76232922D01*
X107645005Y-76232924D01*
X107724024Y-76380758D01*
X107772687Y-76541177D01*
X107789117Y-76708000D01*
X107772687Y-76874823D01*
X107724024Y-77035242D01*
X107694334Y-77090788D01*
X107645004Y-77183078D01*
X107538659Y-77312659D01*
X107409078Y-77419004D01*
X107409076Y-77419005D01*
X107261242Y-77498024D01*
X107100823Y-77546687D01*
X106975804Y-77559000D01*
X106892196Y-77559000D01*
X106767177Y-77546687D01*
X106606758Y-77498024D01*
X106458924Y-77419005D01*
X106458922Y-77419004D01*
X106329341Y-77312659D01*
X106222996Y-77183078D01*
X106173666Y-77090788D01*
X106143976Y-77035242D01*
X106095313Y-76874823D01*
X106078883Y-76708000D01*
X106095313Y-76541177D01*
X106143976Y-76380758D01*
X106222995Y-76232924D01*
X106222996Y-76232922D01*
X106329341Y-76103341D01*
X106458922Y-75996996D01*
X106474094Y-75988886D01*
X106606758Y-75917976D01*
X106767177Y-75869313D01*
X106892196Y-75857000D01*
X106975804Y-75857000D01*
X107100823Y-75869313D01*
X107100823Y-75869313D01*
G37*
G36*
X109640823Y-75869313D02*
G01*
X109801242Y-75917976D01*
X109933906Y-75988886D01*
X109949078Y-75996996D01*
X110078659Y-76103341D01*
X110185004Y-76232922D01*
X110185005Y-76232924D01*
X110264024Y-76380758D01*
X110312687Y-76541177D01*
X110329117Y-76708000D01*
X110312687Y-76874823D01*
X110264024Y-77035242D01*
X110234334Y-77090788D01*
X110185004Y-77183078D01*
X110078659Y-77312659D01*
X109949078Y-77419004D01*
X109949076Y-77419005D01*
X109801242Y-77498024D01*
X109640823Y-77546687D01*
X109515804Y-77559000D01*
X109432196Y-77559000D01*
X109307177Y-77546687D01*
X109146758Y-77498024D01*
X108998924Y-77419005D01*
X108998922Y-77419004D01*
X108869341Y-77312659D01*
X108762996Y-77183078D01*
X108713666Y-77090788D01*
X108683976Y-77035242D01*
X108635313Y-76874823D01*
X108618883Y-76708000D01*
X108635313Y-76541177D01*
X108683976Y-76380758D01*
X108762995Y-76232924D01*
X108762996Y-76232922D01*
X108869341Y-76103341D01*
X108998922Y-75996996D01*
X109014094Y-75988886D01*
X109146758Y-75917976D01*
X109307177Y-75869313D01*
X109432196Y-75857000D01*
X109515804Y-75857000D01*
X109640823Y-75869313D01*
X109640823Y-75869313D01*
G37*
G36*
X112180823Y-75869313D02*
G01*
X112341242Y-75917976D01*
X112473906Y-75988886D01*
X112489078Y-75996996D01*
X112618659Y-76103341D01*
X112725004Y-76232922D01*
X112725005Y-76232924D01*
X112804024Y-76380758D01*
X112852687Y-76541177D01*
X112869117Y-76708000D01*
X112852687Y-76874823D01*
X112804024Y-77035242D01*
X112774334Y-77090788D01*
X112725004Y-77183078D01*
X112618659Y-77312659D01*
X112489078Y-77419004D01*
X112489076Y-77419005D01*
X112341242Y-77498024D01*
X112180823Y-77546687D01*
X112055804Y-77559000D01*
X111972196Y-77559000D01*
X111847177Y-77546687D01*
X111686758Y-77498024D01*
X111538924Y-77419005D01*
X111538922Y-77419004D01*
X111409341Y-77312659D01*
X111302996Y-77183078D01*
X111253666Y-77090788D01*
X111223976Y-77035242D01*
X111175313Y-76874823D01*
X111158883Y-76708000D01*
X111175313Y-76541177D01*
X111223976Y-76380758D01*
X111302995Y-76232924D01*
X111302996Y-76232922D01*
X111409341Y-76103341D01*
X111538922Y-75996996D01*
X111554094Y-75988886D01*
X111686758Y-75917976D01*
X111847177Y-75869313D01*
X111972196Y-75857000D01*
X112055804Y-75857000D01*
X112180823Y-75869313D01*
X112180823Y-75869313D01*
G37*
G36*
X114720823Y-75869313D02*
G01*
X114881242Y-75917976D01*
X115013906Y-75988886D01*
X115029078Y-75996996D01*
X115158659Y-76103341D01*
X115265004Y-76232922D01*
X115265005Y-76232924D01*
X115344024Y-76380758D01*
X115392687Y-76541177D01*
X115409117Y-76708000D01*
X115392687Y-76874823D01*
X115344024Y-77035242D01*
X115314334Y-77090788D01*
X115265004Y-77183078D01*
X115158659Y-77312659D01*
X115029078Y-77419004D01*
X115029076Y-77419005D01*
X114881242Y-77498024D01*
X114720823Y-77546687D01*
X114595804Y-77559000D01*
X114512196Y-77559000D01*
X114387177Y-77546687D01*
X114226758Y-77498024D01*
X114078924Y-77419005D01*
X114078922Y-77419004D01*
X113949341Y-77312659D01*
X113842996Y-77183078D01*
X113793666Y-77090788D01*
X113763976Y-77035242D01*
X113715313Y-76874823D01*
X113698883Y-76708000D01*
X113715313Y-76541177D01*
X113763976Y-76380758D01*
X113842995Y-76232924D01*
X113842996Y-76232922D01*
X113949341Y-76103341D01*
X114078922Y-75996996D01*
X114094094Y-75988886D01*
X114226758Y-75917976D01*
X114387177Y-75869313D01*
X114512196Y-75857000D01*
X114595804Y-75857000D01*
X114720823Y-75869313D01*
X114720823Y-75869313D01*
G37*
G36*
X102705000Y-77559000D02*
G01*
X101003000Y-77559000D01*
X101003000Y-75857000D01*
X102705000Y-75857000D01*
X102705000Y-77559000D01*
X102705000Y-77559000D01*
G37*
G36*
X122340823Y-75869313D02*
G01*
X122501242Y-75917976D01*
X122633906Y-75988886D01*
X122649078Y-75996996D01*
X122778659Y-76103341D01*
X122885004Y-76232922D01*
X122885005Y-76232924D01*
X122964024Y-76380758D01*
X123012687Y-76541177D01*
X123029117Y-76708000D01*
X123012687Y-76874823D01*
X122964024Y-77035242D01*
X122934334Y-77090788D01*
X122885004Y-77183078D01*
X122778659Y-77312659D01*
X122649078Y-77419004D01*
X122649076Y-77419005D01*
X122501242Y-77498024D01*
X122340823Y-77546687D01*
X122215804Y-77559000D01*
X122132196Y-77559000D01*
X122007177Y-77546687D01*
X121846758Y-77498024D01*
X121698924Y-77419005D01*
X121698922Y-77419004D01*
X121569341Y-77312659D01*
X121462996Y-77183078D01*
X121413666Y-77090788D01*
X121383976Y-77035242D01*
X121335313Y-76874823D01*
X121318883Y-76708000D01*
X121335313Y-76541177D01*
X121383976Y-76380758D01*
X121462995Y-76232924D01*
X121462996Y-76232922D01*
X121569341Y-76103341D01*
X121698922Y-75996996D01*
X121714094Y-75988886D01*
X121846758Y-75917976D01*
X122007177Y-75869313D01*
X122132196Y-75857000D01*
X122215804Y-75857000D01*
X122340823Y-75869313D01*
X122340823Y-75869313D01*
G37*
G36*
X124880823Y-75869313D02*
G01*
X125041242Y-75917976D01*
X125173906Y-75988886D01*
X125189078Y-75996996D01*
X125318659Y-76103341D01*
X125425004Y-76232922D01*
X125425005Y-76232924D01*
X125504024Y-76380758D01*
X125552687Y-76541177D01*
X125569117Y-76708000D01*
X125552687Y-76874823D01*
X125504024Y-77035242D01*
X125474334Y-77090788D01*
X125425004Y-77183078D01*
X125318659Y-77312659D01*
X125189078Y-77419004D01*
X125189076Y-77419005D01*
X125041242Y-77498024D01*
X124880823Y-77546687D01*
X124755804Y-77559000D01*
X124672196Y-77559000D01*
X124547177Y-77546687D01*
X124386758Y-77498024D01*
X124238924Y-77419005D01*
X124238922Y-77419004D01*
X124109341Y-77312659D01*
X124002996Y-77183078D01*
X123953666Y-77090788D01*
X123923976Y-77035242D01*
X123875313Y-76874823D01*
X123858883Y-76708000D01*
X123875313Y-76541177D01*
X123923976Y-76380758D01*
X124002995Y-76232924D01*
X124002996Y-76232922D01*
X124109341Y-76103341D01*
X124238922Y-75996996D01*
X124254094Y-75988886D01*
X124386758Y-75917976D01*
X124547177Y-75869313D01*
X124672196Y-75857000D01*
X124755804Y-75857000D01*
X124880823Y-75869313D01*
X124880823Y-75869313D01*
G37*
G36*
X127420823Y-75869313D02*
G01*
X127581242Y-75917976D01*
X127713906Y-75988886D01*
X127729078Y-75996996D01*
X127858659Y-76103341D01*
X127965004Y-76232922D01*
X127965005Y-76232924D01*
X128044024Y-76380758D01*
X128092687Y-76541177D01*
X128109117Y-76708000D01*
X128092687Y-76874823D01*
X128044024Y-77035242D01*
X128014334Y-77090788D01*
X127965004Y-77183078D01*
X127858659Y-77312659D01*
X127729078Y-77419004D01*
X127729076Y-77419005D01*
X127581242Y-77498024D01*
X127420823Y-77546687D01*
X127295804Y-77559000D01*
X127212196Y-77559000D01*
X127087177Y-77546687D01*
X126926758Y-77498024D01*
X126778924Y-77419005D01*
X126778922Y-77419004D01*
X126649341Y-77312659D01*
X126542996Y-77183078D01*
X126493666Y-77090788D01*
X126463976Y-77035242D01*
X126415313Y-76874823D01*
X126398883Y-76708000D01*
X126415313Y-76541177D01*
X126463976Y-76380758D01*
X126542995Y-76232924D01*
X126542996Y-76232922D01*
X126649341Y-76103341D01*
X126778922Y-75996996D01*
X126794094Y-75988886D01*
X126926758Y-75917976D01*
X127087177Y-75869313D01*
X127212196Y-75857000D01*
X127295804Y-75857000D01*
X127420823Y-75869313D01*
X127420823Y-75869313D01*
G37*
G36*
X129960823Y-75869313D02*
G01*
X130121242Y-75917976D01*
X130253906Y-75988886D01*
X130269078Y-75996996D01*
X130398659Y-76103341D01*
X130505004Y-76232922D01*
X130505005Y-76232924D01*
X130584024Y-76380758D01*
X130632687Y-76541177D01*
X130649117Y-76708000D01*
X130632687Y-76874823D01*
X130584024Y-77035242D01*
X130554334Y-77090788D01*
X130505004Y-77183078D01*
X130398659Y-77312659D01*
X130269078Y-77419004D01*
X130269076Y-77419005D01*
X130121242Y-77498024D01*
X129960823Y-77546687D01*
X129835804Y-77559000D01*
X129752196Y-77559000D01*
X129627177Y-77546687D01*
X129466758Y-77498024D01*
X129318924Y-77419005D01*
X129318922Y-77419004D01*
X129189341Y-77312659D01*
X129082996Y-77183078D01*
X129033666Y-77090788D01*
X129003976Y-77035242D01*
X128955313Y-76874823D01*
X128938883Y-76708000D01*
X128955313Y-76541177D01*
X129003976Y-76380758D01*
X129082995Y-76232924D01*
X129082996Y-76232922D01*
X129189341Y-76103341D01*
X129318922Y-75996996D01*
X129334094Y-75988886D01*
X129466758Y-75917976D01*
X129627177Y-75869313D01*
X129752196Y-75857000D01*
X129835804Y-75857000D01*
X129960823Y-75869313D01*
X129960823Y-75869313D01*
G37*
G36*
X132500823Y-75869313D02*
G01*
X132661242Y-75917976D01*
X132793906Y-75988886D01*
X132809078Y-75996996D01*
X132938659Y-76103341D01*
X133045004Y-76232922D01*
X133045005Y-76232924D01*
X133124024Y-76380758D01*
X133172687Y-76541177D01*
X133189117Y-76708000D01*
X133172687Y-76874823D01*
X133124024Y-77035242D01*
X133094334Y-77090788D01*
X133045004Y-77183078D01*
X132938659Y-77312659D01*
X132809078Y-77419004D01*
X132809076Y-77419005D01*
X132661242Y-77498024D01*
X132500823Y-77546687D01*
X132375804Y-77559000D01*
X132292196Y-77559000D01*
X132167177Y-77546687D01*
X132006758Y-77498024D01*
X131858924Y-77419005D01*
X131858922Y-77419004D01*
X131729341Y-77312659D01*
X131622996Y-77183078D01*
X131573666Y-77090788D01*
X131543976Y-77035242D01*
X131495313Y-76874823D01*
X131478883Y-76708000D01*
X131495313Y-76541177D01*
X131543976Y-76380758D01*
X131622995Y-76232924D01*
X131622996Y-76232922D01*
X131729341Y-76103341D01*
X131858922Y-75996996D01*
X131874094Y-75988886D01*
X132006758Y-75917976D01*
X132167177Y-75869313D01*
X132292196Y-75857000D01*
X132375804Y-75857000D01*
X132500823Y-75869313D01*
X132500823Y-75869313D01*
G37*
G36*
X135040823Y-75869313D02*
G01*
X135201242Y-75917976D01*
X135333906Y-75988886D01*
X135349078Y-75996996D01*
X135478659Y-76103341D01*
X135585004Y-76232922D01*
X135585005Y-76232924D01*
X135664024Y-76380758D01*
X135712687Y-76541177D01*
X135729117Y-76708000D01*
X135712687Y-76874823D01*
X135664024Y-77035242D01*
X135634334Y-77090788D01*
X135585004Y-77183078D01*
X135478659Y-77312659D01*
X135349078Y-77419004D01*
X135349076Y-77419005D01*
X135201242Y-77498024D01*
X135040823Y-77546687D01*
X134915804Y-77559000D01*
X134832196Y-77559000D01*
X134707177Y-77546687D01*
X134546758Y-77498024D01*
X134398924Y-77419005D01*
X134398922Y-77419004D01*
X134269341Y-77312659D01*
X134162996Y-77183078D01*
X134113666Y-77090788D01*
X134083976Y-77035242D01*
X134035313Y-76874823D01*
X134018883Y-76708000D01*
X134035313Y-76541177D01*
X134083976Y-76380758D01*
X134162995Y-76232924D01*
X134162996Y-76232922D01*
X134269341Y-76103341D01*
X134398922Y-75996996D01*
X134414094Y-75988886D01*
X134546758Y-75917976D01*
X134707177Y-75869313D01*
X134832196Y-75857000D01*
X134915804Y-75857000D01*
X135040823Y-75869313D01*
X135040823Y-75869313D01*
G37*
G36*
X137580823Y-75869313D02*
G01*
X137741242Y-75917976D01*
X137873906Y-75988886D01*
X137889078Y-75996996D01*
X138018659Y-76103341D01*
X138125004Y-76232922D01*
X138125005Y-76232924D01*
X138204024Y-76380758D01*
X138252687Y-76541177D01*
X138269117Y-76708000D01*
X138252687Y-76874823D01*
X138204024Y-77035242D01*
X138174334Y-77090788D01*
X138125004Y-77183078D01*
X138018659Y-77312659D01*
X137889078Y-77419004D01*
X137889076Y-77419005D01*
X137741242Y-77498024D01*
X137580823Y-77546687D01*
X137455804Y-77559000D01*
X137372196Y-77559000D01*
X137247177Y-77546687D01*
X137086758Y-77498024D01*
X136938924Y-77419005D01*
X136938922Y-77419004D01*
X136809341Y-77312659D01*
X136702996Y-77183078D01*
X136653666Y-77090788D01*
X136623976Y-77035242D01*
X136575313Y-76874823D01*
X136558883Y-76708000D01*
X136575313Y-76541177D01*
X136623976Y-76380758D01*
X136702995Y-76232924D01*
X136702996Y-76232922D01*
X136809341Y-76103341D01*
X136938922Y-75996996D01*
X136954094Y-75988886D01*
X137086758Y-75917976D01*
X137247177Y-75869313D01*
X137372196Y-75857000D01*
X137455804Y-75857000D01*
X137580823Y-75869313D01*
X137580823Y-75869313D01*
G37*
G36*
X117260823Y-75869313D02*
G01*
X117421242Y-75917976D01*
X117553906Y-75988886D01*
X117569078Y-75996996D01*
X117698659Y-76103341D01*
X117805004Y-76232922D01*
X117805005Y-76232924D01*
X117884024Y-76380758D01*
X117932687Y-76541177D01*
X117949117Y-76708000D01*
X117932687Y-76874823D01*
X117884024Y-77035242D01*
X117854334Y-77090788D01*
X117805004Y-77183078D01*
X117698659Y-77312659D01*
X117569078Y-77419004D01*
X117569076Y-77419005D01*
X117421242Y-77498024D01*
X117260823Y-77546687D01*
X117135804Y-77559000D01*
X117052196Y-77559000D01*
X116927177Y-77546687D01*
X116766758Y-77498024D01*
X116618924Y-77419005D01*
X116618922Y-77419004D01*
X116489341Y-77312659D01*
X116382996Y-77183078D01*
X116333666Y-77090788D01*
X116303976Y-77035242D01*
X116255313Y-76874823D01*
X116238883Y-76708000D01*
X116255313Y-76541177D01*
X116303976Y-76380758D01*
X116382995Y-76232924D01*
X116382996Y-76232922D01*
X116489341Y-76103341D01*
X116618922Y-75996996D01*
X116634094Y-75988886D01*
X116766758Y-75917976D01*
X116927177Y-75869313D01*
X117052196Y-75857000D01*
X117135804Y-75857000D01*
X117260823Y-75869313D01*
X117260823Y-75869313D01*
G37*
G36*
X55592072Y-71652918D02*
G01*
X55816424Y-71745847D01*
X55837939Y-71754759D01*
X55949328Y-71829187D01*
X56059211Y-71902609D01*
X56247391Y-72090789D01*
X56395242Y-72312063D01*
X56471753Y-72496778D01*
X56497082Y-72557928D01*
X56549000Y-72818938D01*
X56549000Y-73085062D01*
X56497082Y-73346072D01*
X56395241Y-73591939D01*
X56247390Y-73813212D01*
X56059212Y-74001390D01*
X55837939Y-74149241D01*
X55837938Y-74149242D01*
X55837937Y-74149242D01*
X55592072Y-74251082D01*
X55331063Y-74303000D01*
X55064937Y-74303000D01*
X54803928Y-74251082D01*
X54558063Y-74149242D01*
X54558062Y-74149242D01*
X54558061Y-74149241D01*
X54336788Y-74001390D01*
X54148610Y-73813212D01*
X54000759Y-73591939D01*
X53898918Y-73346072D01*
X53847000Y-73085062D01*
X53847000Y-72818938D01*
X53898918Y-72557928D01*
X53924247Y-72496778D01*
X54000758Y-72312063D01*
X54148609Y-72090789D01*
X54336789Y-71902609D01*
X54446672Y-71829187D01*
X54558061Y-71754759D01*
X54579577Y-71745847D01*
X54803928Y-71652918D01*
X55064937Y-71601000D01*
X55331063Y-71601000D01*
X55592072Y-71652918D01*
X55592072Y-71652918D01*
G37*
G36*
X96339665Y-71896622D02*
G01*
X96413222Y-71903867D01*
X96554786Y-71946810D01*
X96685252Y-72016546D01*
X96715040Y-72040992D01*
X96799607Y-72110393D01*
X96869008Y-72194960D01*
X96893454Y-72224748D01*
X96963190Y-72355214D01*
X97006133Y-72496778D01*
X97020633Y-72644000D01*
X97006133Y-72791222D01*
X96963190Y-72932786D01*
X96893454Y-73063252D01*
X96875555Y-73085062D01*
X96799607Y-73177607D01*
X96715040Y-73247008D01*
X96685252Y-73271454D01*
X96554786Y-73341190D01*
X96413222Y-73384133D01*
X96339665Y-73391378D01*
X96302888Y-73395000D01*
X96229112Y-73395000D01*
X96192335Y-73391378D01*
X96118778Y-73384133D01*
X95977214Y-73341190D01*
X95846748Y-73271454D01*
X95816960Y-73247008D01*
X95732393Y-73177607D01*
X95656445Y-73085062D01*
X95638546Y-73063252D01*
X95568810Y-72932786D01*
X95525867Y-72791222D01*
X95511367Y-72644000D01*
X95525867Y-72496778D01*
X95568810Y-72355214D01*
X95638546Y-72224748D01*
X95662992Y-72194960D01*
X95732393Y-72110393D01*
X95816960Y-72040992D01*
X95846748Y-72016546D01*
X95977214Y-71946810D01*
X96118778Y-71903867D01*
X96192335Y-71896622D01*
X96229112Y-71893000D01*
X96302888Y-71893000D01*
X96339665Y-71896622D01*
X96339665Y-71896622D01*
G37*
G36*
X84630585Y-69235944D02*
G01*
X84780410Y-69265746D01*
X85062674Y-69382663D01*
X85316705Y-69552401D01*
X85532741Y-69768437D01*
X85702479Y-70022468D01*
X85819396Y-70304732D01*
X85879000Y-70604382D01*
X85879000Y-70909902D01*
X85819396Y-71209552D01*
X85702479Y-71491816D01*
X85532741Y-71745847D01*
X85316705Y-71961883D01*
X85062674Y-72131621D01*
X84780410Y-72248538D01*
X84630585Y-72278340D01*
X84480761Y-72308142D01*
X84175239Y-72308142D01*
X84025415Y-72278340D01*
X83875590Y-72248538D01*
X83593326Y-72131621D01*
X83339295Y-71961883D01*
X83123259Y-71745847D01*
X82953521Y-71491816D01*
X82836604Y-71209552D01*
X82777000Y-70909902D01*
X82777000Y-70604382D01*
X82836604Y-70304732D01*
X82953521Y-70022468D01*
X83123259Y-69768437D01*
X83339295Y-69552401D01*
X83593326Y-69382663D01*
X83875590Y-69265746D01*
X84025415Y-69235944D01*
X84175239Y-69206142D01*
X84480761Y-69206142D01*
X84630585Y-69235944D01*
X84630585Y-69235944D01*
G37*
G36*
X69630585Y-69235944D02*
G01*
X69780410Y-69265746D01*
X70062674Y-69382663D01*
X70316705Y-69552401D01*
X70532741Y-69768437D01*
X70702479Y-70022468D01*
X70819396Y-70304732D01*
X70879000Y-70604382D01*
X70879000Y-70909902D01*
X70819396Y-71209552D01*
X70702479Y-71491816D01*
X70532741Y-71745847D01*
X70316705Y-71961883D01*
X70062674Y-72131621D01*
X69780410Y-72248538D01*
X69630585Y-72278340D01*
X69480761Y-72308142D01*
X69175239Y-72308142D01*
X69025415Y-72278340D01*
X68875590Y-72248538D01*
X68593326Y-72131621D01*
X68339295Y-71961883D01*
X68123259Y-71745847D01*
X67953521Y-71491816D01*
X67836604Y-71209552D01*
X67777000Y-70909902D01*
X67777000Y-70604382D01*
X67836604Y-70304732D01*
X67953521Y-70022468D01*
X68123259Y-69768437D01*
X68339295Y-69552401D01*
X68593326Y-69382663D01*
X68875590Y-69265746D01*
X69025415Y-69235944D01*
X69175239Y-69206142D01*
X69480761Y-69206142D01*
X69630585Y-69235944D01*
X69630585Y-69235944D01*
G37*
G36*
X79630585Y-69235944D02*
G01*
X79780410Y-69265746D01*
X80062674Y-69382663D01*
X80316705Y-69552401D01*
X80532741Y-69768437D01*
X80702479Y-70022468D01*
X80819396Y-70304732D01*
X80879000Y-70604382D01*
X80879000Y-70909902D01*
X80819396Y-71209552D01*
X80702479Y-71491816D01*
X80532741Y-71745847D01*
X80316705Y-71961883D01*
X80062674Y-72131621D01*
X79780410Y-72248538D01*
X79630585Y-72278340D01*
X79480761Y-72308142D01*
X79175239Y-72308142D01*
X79025415Y-72278340D01*
X78875590Y-72248538D01*
X78593326Y-72131621D01*
X78339295Y-71961883D01*
X78123259Y-71745847D01*
X77953521Y-71491816D01*
X77836604Y-71209552D01*
X77777000Y-70909902D01*
X77777000Y-70604382D01*
X77836604Y-70304732D01*
X77953521Y-70022468D01*
X78123259Y-69768437D01*
X78339295Y-69552401D01*
X78593326Y-69382663D01*
X78875590Y-69265746D01*
X79025415Y-69235944D01*
X79175239Y-69206142D01*
X79480761Y-69206142D01*
X79630585Y-69235944D01*
X79630585Y-69235944D01*
G37*
G36*
X96339665Y-68594622D02*
G01*
X96413222Y-68601867D01*
X96554786Y-68644810D01*
X96685252Y-68714546D01*
X96715040Y-68738992D01*
X96799607Y-68808393D01*
X96869008Y-68892960D01*
X96893454Y-68922748D01*
X96963190Y-69053214D01*
X97006133Y-69194778D01*
X97020633Y-69342000D01*
X97006133Y-69489222D01*
X96963190Y-69630786D01*
X96893454Y-69761252D01*
X96869008Y-69791040D01*
X96799607Y-69875607D01*
X96715040Y-69945008D01*
X96685252Y-69969454D01*
X96685250Y-69969455D01*
X96586071Y-70022468D01*
X96554786Y-70039190D01*
X96413222Y-70082133D01*
X96339665Y-70089378D01*
X96302888Y-70093000D01*
X96229112Y-70093000D01*
X96192335Y-70089378D01*
X96118778Y-70082133D01*
X95977214Y-70039190D01*
X95945930Y-70022468D01*
X95846750Y-69969455D01*
X95846748Y-69969454D01*
X95816960Y-69945008D01*
X95732393Y-69875607D01*
X95662992Y-69791040D01*
X95638546Y-69761252D01*
X95568810Y-69630786D01*
X95525867Y-69489222D01*
X95511367Y-69342000D01*
X95525867Y-69194778D01*
X95568810Y-69053214D01*
X95638546Y-68922748D01*
X95662992Y-68892960D01*
X95732393Y-68808393D01*
X95816960Y-68738992D01*
X95846748Y-68714546D01*
X95977214Y-68644810D01*
X96118778Y-68601867D01*
X96192335Y-68594622D01*
X96229112Y-68591000D01*
X96302888Y-68591000D01*
X96339665Y-68594622D01*
X96339665Y-68594622D01*
G37*
G36*
X55592072Y-66652918D02*
G01*
X55822921Y-66748538D01*
X55837939Y-66754759D01*
X55917832Y-66808142D01*
X56059211Y-66902609D01*
X56247391Y-67090789D01*
X56395242Y-67312063D01*
X56497082Y-67557928D01*
X56549000Y-67818937D01*
X56549000Y-68085063D01*
X56497082Y-68346072D01*
X56395242Y-68591937D01*
X56247391Y-68813211D01*
X56059211Y-69001391D01*
X55949328Y-69074813D01*
X55837939Y-69149241D01*
X55837938Y-69149242D01*
X55837937Y-69149242D01*
X55592072Y-69251082D01*
X55331063Y-69303000D01*
X55064937Y-69303000D01*
X54803928Y-69251082D01*
X54558063Y-69149242D01*
X54558062Y-69149242D01*
X54558061Y-69149241D01*
X54446672Y-69074813D01*
X54336789Y-69001391D01*
X54148609Y-68813211D01*
X54000758Y-68591937D01*
X53898918Y-68346072D01*
X53847000Y-68085063D01*
X53847000Y-67818937D01*
X53898918Y-67557928D01*
X54000758Y-67312063D01*
X54148609Y-67090789D01*
X54336789Y-66902609D01*
X54478168Y-66808142D01*
X54558061Y-66754759D01*
X54573080Y-66748538D01*
X54803928Y-66652918D01*
X55064937Y-66601000D01*
X55331063Y-66601000D01*
X55592072Y-66652918D01*
X55592072Y-66652918D01*
G37*
G36*
X84630585Y-63735944D02*
G01*
X84780410Y-63765746D01*
X85062674Y-63882663D01*
X85316705Y-64052401D01*
X85532741Y-64268437D01*
X85702479Y-64522468D01*
X85819396Y-64804732D01*
X85879000Y-65104382D01*
X85879000Y-65409902D01*
X85819396Y-65709552D01*
X85702479Y-65991816D01*
X85532741Y-66245847D01*
X85316705Y-66461883D01*
X85062674Y-66631621D01*
X84780410Y-66748538D01*
X84630585Y-66778340D01*
X84480761Y-66808142D01*
X84175239Y-66808142D01*
X84025415Y-66778340D01*
X83875590Y-66748538D01*
X83593326Y-66631621D01*
X83339295Y-66461883D01*
X83123259Y-66245847D01*
X82953521Y-65991816D01*
X82836604Y-65709552D01*
X82777000Y-65409902D01*
X82777000Y-65104382D01*
X82836604Y-64804732D01*
X82953521Y-64522468D01*
X83123259Y-64268437D01*
X83339295Y-64052401D01*
X83593326Y-63882663D01*
X83875590Y-63765746D01*
X84025415Y-63735944D01*
X84175239Y-63706142D01*
X84480761Y-63706142D01*
X84630585Y-63735944D01*
X84630585Y-63735944D01*
G37*
G36*
X74630585Y-63735944D02*
G01*
X74780410Y-63765746D01*
X75062674Y-63882663D01*
X75316705Y-64052401D01*
X75532741Y-64268437D01*
X75702479Y-64522468D01*
X75819396Y-64804732D01*
X75879000Y-65104382D01*
X75879000Y-65409902D01*
X75819396Y-65709552D01*
X75702479Y-65991816D01*
X75532741Y-66245847D01*
X75316705Y-66461883D01*
X75062674Y-66631621D01*
X74780410Y-66748538D01*
X74630585Y-66778340D01*
X74480761Y-66808142D01*
X74175239Y-66808142D01*
X74025415Y-66778340D01*
X73875590Y-66748538D01*
X73593326Y-66631621D01*
X73339295Y-66461883D01*
X73123259Y-66245847D01*
X72953521Y-65991816D01*
X72836604Y-65709552D01*
X72777000Y-65409902D01*
X72777000Y-65104382D01*
X72836604Y-64804732D01*
X72953521Y-64522468D01*
X73123259Y-64268437D01*
X73339295Y-64052401D01*
X73593326Y-63882663D01*
X73875590Y-63765746D01*
X74025415Y-63735944D01*
X74175239Y-63706142D01*
X74480761Y-63706142D01*
X74630585Y-63735944D01*
X74630585Y-63735944D01*
G37*
G36*
X92196228Y-62641703D02*
G01*
X92351100Y-62705853D01*
X92490481Y-62798985D01*
X92609015Y-62917519D01*
X92702147Y-63056900D01*
X92766297Y-63211772D01*
X92799000Y-63376184D01*
X92799000Y-63543816D01*
X92766297Y-63708228D01*
X92702147Y-63863100D01*
X92609015Y-64002481D01*
X92490481Y-64121015D01*
X92351100Y-64214147D01*
X92196228Y-64278297D01*
X92031816Y-64311000D01*
X91864184Y-64311000D01*
X91699772Y-64278297D01*
X91544900Y-64214147D01*
X91405519Y-64121015D01*
X91286985Y-64002481D01*
X91193853Y-63863100D01*
X91129703Y-63708228D01*
X91097000Y-63543816D01*
X91097000Y-63376184D01*
X91129703Y-63211772D01*
X91193853Y-63056900D01*
X91286985Y-62917519D01*
X91405519Y-62798985D01*
X91544900Y-62705853D01*
X91699772Y-62641703D01*
X91864184Y-62609000D01*
X92031816Y-62609000D01*
X92196228Y-62641703D01*
X92196228Y-62641703D01*
G37*
G36*
X55501102Y-61634823D02*
G01*
X55592072Y-61652918D01*
X55837939Y-61754759D01*
X55899612Y-61795968D01*
X56059211Y-61902609D01*
X56247391Y-62090789D01*
X56306335Y-62179005D01*
X56391650Y-62306686D01*
X56395242Y-62312063D01*
X56497082Y-62557928D01*
X56549000Y-62818937D01*
X56549000Y-63085063D01*
X56497082Y-63346072D01*
X56395242Y-63591937D01*
X56247391Y-63813211D01*
X56059211Y-64001391D01*
X55982869Y-64052401D01*
X55837939Y-64149241D01*
X55837938Y-64149242D01*
X55837937Y-64149242D01*
X55592072Y-64251082D01*
X55331063Y-64303000D01*
X55064937Y-64303000D01*
X54803928Y-64251082D01*
X54558063Y-64149242D01*
X54558062Y-64149242D01*
X54558061Y-64149241D01*
X54413131Y-64052401D01*
X54336789Y-64001391D01*
X54148609Y-63813211D01*
X54000758Y-63591937D01*
X53898918Y-63346072D01*
X53847000Y-63085063D01*
X53847000Y-62818937D01*
X53898918Y-62557928D01*
X54000758Y-62312063D01*
X54004351Y-62306686D01*
X54089665Y-62179005D01*
X54148609Y-62090789D01*
X54336789Y-61902609D01*
X54496388Y-61795968D01*
X54558061Y-61754759D01*
X54803928Y-61652918D01*
X54894898Y-61634823D01*
X55064937Y-61601000D01*
X55331063Y-61601000D01*
X55501102Y-61634823D01*
X55501102Y-61634823D01*
G37*
G36*
X96485059Y-60999860D02*
G01*
X96591176Y-61043815D01*
X96621732Y-61056472D01*
X96744735Y-61138660D01*
X96849340Y-61243265D01*
X96929409Y-61363097D01*
X96931529Y-61366270D01*
X96988140Y-61502941D01*
X97014373Y-61634823D01*
X97017000Y-61648033D01*
X97017000Y-61795967D01*
X96988140Y-61941059D01*
X96931528Y-62077732D01*
X96849340Y-62200735D01*
X96744735Y-62305340D01*
X96621732Y-62387528D01*
X96621731Y-62387529D01*
X96621730Y-62387529D01*
X96485059Y-62444140D01*
X96339968Y-62473000D01*
X96192032Y-62473000D01*
X96046941Y-62444140D01*
X95910270Y-62387529D01*
X95910269Y-62387529D01*
X95910268Y-62387528D01*
X95787265Y-62305340D01*
X95682660Y-62200735D01*
X95600472Y-62077732D01*
X95543860Y-61941059D01*
X95515000Y-61795967D01*
X95515000Y-61648033D01*
X95517628Y-61634823D01*
X95543860Y-61502941D01*
X95600471Y-61366270D01*
X95602591Y-61363097D01*
X95682660Y-61243265D01*
X95787265Y-61138660D01*
X95910268Y-61056472D01*
X95940825Y-61043815D01*
X96046941Y-60999860D01*
X96192032Y-60971000D01*
X96339968Y-60971000D01*
X96485059Y-60999860D01*
X96485059Y-60999860D01*
G37*
G36*
X135040823Y-60629313D02*
G01*
X135201242Y-60677976D01*
X135333906Y-60748886D01*
X135349078Y-60756996D01*
X135478659Y-60863341D01*
X135585004Y-60992922D01*
X135585005Y-60992924D01*
X135664024Y-61140758D01*
X135712687Y-61301177D01*
X135729117Y-61468000D01*
X135712687Y-61634823D01*
X135664024Y-61795242D01*
X135593114Y-61927906D01*
X135585004Y-61943078D01*
X135478659Y-62072659D01*
X135349078Y-62179004D01*
X135349076Y-62179005D01*
X135201242Y-62258024D01*
X135040823Y-62306687D01*
X134915804Y-62319000D01*
X134832196Y-62319000D01*
X134707177Y-62306687D01*
X134546758Y-62258024D01*
X134398924Y-62179005D01*
X134398922Y-62179004D01*
X134269341Y-62072659D01*
X134162996Y-61943078D01*
X134154886Y-61927906D01*
X134083976Y-61795242D01*
X134035313Y-61634823D01*
X134018883Y-61468000D01*
X134035313Y-61301177D01*
X134083976Y-61140758D01*
X134162995Y-60992924D01*
X134162996Y-60992922D01*
X134269341Y-60863341D01*
X134398922Y-60756996D01*
X134414094Y-60748886D01*
X134546758Y-60677976D01*
X134707177Y-60629313D01*
X134832196Y-60617000D01*
X134915804Y-60617000D01*
X135040823Y-60629313D01*
X135040823Y-60629313D01*
G37*
G36*
X137580823Y-60629313D02*
G01*
X137741242Y-60677976D01*
X137873906Y-60748886D01*
X137889078Y-60756996D01*
X138018659Y-60863341D01*
X138125004Y-60992922D01*
X138125005Y-60992924D01*
X138204024Y-61140758D01*
X138252687Y-61301177D01*
X138269117Y-61468000D01*
X138252687Y-61634823D01*
X138204024Y-61795242D01*
X138133114Y-61927906D01*
X138125004Y-61943078D01*
X138018659Y-62072659D01*
X137889078Y-62179004D01*
X137889076Y-62179005D01*
X137741242Y-62258024D01*
X137580823Y-62306687D01*
X137455804Y-62319000D01*
X137372196Y-62319000D01*
X137247177Y-62306687D01*
X137086758Y-62258024D01*
X136938924Y-62179005D01*
X136938922Y-62179004D01*
X136809341Y-62072659D01*
X136702996Y-61943078D01*
X136694886Y-61927906D01*
X136623976Y-61795242D01*
X136575313Y-61634823D01*
X136558883Y-61468000D01*
X136575313Y-61301177D01*
X136623976Y-61140758D01*
X136702995Y-60992924D01*
X136702996Y-60992922D01*
X136809341Y-60863341D01*
X136938922Y-60756996D01*
X136954094Y-60748886D01*
X137086758Y-60677976D01*
X137247177Y-60629313D01*
X137372196Y-60617000D01*
X137455804Y-60617000D01*
X137580823Y-60629313D01*
X137580823Y-60629313D01*
G37*
G36*
X102020823Y-60629313D02*
G01*
X102181242Y-60677976D01*
X102313906Y-60748886D01*
X102329078Y-60756996D01*
X102458659Y-60863341D01*
X102565004Y-60992922D01*
X102565005Y-60992924D01*
X102644024Y-61140758D01*
X102692687Y-61301177D01*
X102709117Y-61468000D01*
X102692687Y-61634823D01*
X102644024Y-61795242D01*
X102573114Y-61927906D01*
X102565004Y-61943078D01*
X102458659Y-62072659D01*
X102329078Y-62179004D01*
X102329076Y-62179005D01*
X102181242Y-62258024D01*
X102020823Y-62306687D01*
X101895804Y-62319000D01*
X101812196Y-62319000D01*
X101687177Y-62306687D01*
X101526758Y-62258024D01*
X101378924Y-62179005D01*
X101378922Y-62179004D01*
X101249341Y-62072659D01*
X101142996Y-61943078D01*
X101134886Y-61927906D01*
X101063976Y-61795242D01*
X101015313Y-61634823D01*
X100998883Y-61468000D01*
X101015313Y-61301177D01*
X101063976Y-61140758D01*
X101142995Y-60992924D01*
X101142996Y-60992922D01*
X101249341Y-60863341D01*
X101378922Y-60756996D01*
X101394094Y-60748886D01*
X101526758Y-60677976D01*
X101687177Y-60629313D01*
X101812196Y-60617000D01*
X101895804Y-60617000D01*
X102020823Y-60629313D01*
X102020823Y-60629313D01*
G37*
G36*
X104560823Y-60629313D02*
G01*
X104721242Y-60677976D01*
X104853906Y-60748886D01*
X104869078Y-60756996D01*
X104998659Y-60863341D01*
X105105004Y-60992922D01*
X105105005Y-60992924D01*
X105184024Y-61140758D01*
X105232687Y-61301177D01*
X105249117Y-61468000D01*
X105232687Y-61634823D01*
X105184024Y-61795242D01*
X105113114Y-61927906D01*
X105105004Y-61943078D01*
X104998659Y-62072659D01*
X104869078Y-62179004D01*
X104869076Y-62179005D01*
X104721242Y-62258024D01*
X104560823Y-62306687D01*
X104435804Y-62319000D01*
X104352196Y-62319000D01*
X104227177Y-62306687D01*
X104066758Y-62258024D01*
X103918924Y-62179005D01*
X103918922Y-62179004D01*
X103789341Y-62072659D01*
X103682996Y-61943078D01*
X103674886Y-61927906D01*
X103603976Y-61795242D01*
X103555313Y-61634823D01*
X103538883Y-61468000D01*
X103555313Y-61301177D01*
X103603976Y-61140758D01*
X103682995Y-60992924D01*
X103682996Y-60992922D01*
X103789341Y-60863341D01*
X103918922Y-60756996D01*
X103934094Y-60748886D01*
X104066758Y-60677976D01*
X104227177Y-60629313D01*
X104352196Y-60617000D01*
X104435804Y-60617000D01*
X104560823Y-60629313D01*
X104560823Y-60629313D01*
G37*
G36*
X107100823Y-60629313D02*
G01*
X107261242Y-60677976D01*
X107393906Y-60748886D01*
X107409078Y-60756996D01*
X107538659Y-60863341D01*
X107645004Y-60992922D01*
X107645005Y-60992924D01*
X107724024Y-61140758D01*
X107772687Y-61301177D01*
X107789117Y-61468000D01*
X107772687Y-61634823D01*
X107724024Y-61795242D01*
X107653114Y-61927906D01*
X107645004Y-61943078D01*
X107538659Y-62072659D01*
X107409078Y-62179004D01*
X107409076Y-62179005D01*
X107261242Y-62258024D01*
X107100823Y-62306687D01*
X106975804Y-62319000D01*
X106892196Y-62319000D01*
X106767177Y-62306687D01*
X106606758Y-62258024D01*
X106458924Y-62179005D01*
X106458922Y-62179004D01*
X106329341Y-62072659D01*
X106222996Y-61943078D01*
X106214886Y-61927906D01*
X106143976Y-61795242D01*
X106095313Y-61634823D01*
X106078883Y-61468000D01*
X106095313Y-61301177D01*
X106143976Y-61140758D01*
X106222995Y-60992924D01*
X106222996Y-60992922D01*
X106329341Y-60863341D01*
X106458922Y-60756996D01*
X106474094Y-60748886D01*
X106606758Y-60677976D01*
X106767177Y-60629313D01*
X106892196Y-60617000D01*
X106975804Y-60617000D01*
X107100823Y-60629313D01*
X107100823Y-60629313D01*
G37*
G36*
X109640823Y-60629313D02*
G01*
X109801242Y-60677976D01*
X109933906Y-60748886D01*
X109949078Y-60756996D01*
X110078659Y-60863341D01*
X110185004Y-60992922D01*
X110185005Y-60992924D01*
X110264024Y-61140758D01*
X110312687Y-61301177D01*
X110329117Y-61468000D01*
X110312687Y-61634823D01*
X110264024Y-61795242D01*
X110193114Y-61927906D01*
X110185004Y-61943078D01*
X110078659Y-62072659D01*
X109949078Y-62179004D01*
X109949076Y-62179005D01*
X109801242Y-62258024D01*
X109640823Y-62306687D01*
X109515804Y-62319000D01*
X109432196Y-62319000D01*
X109307177Y-62306687D01*
X109146758Y-62258024D01*
X108998924Y-62179005D01*
X108998922Y-62179004D01*
X108869341Y-62072659D01*
X108762996Y-61943078D01*
X108754886Y-61927906D01*
X108683976Y-61795242D01*
X108635313Y-61634823D01*
X108618883Y-61468000D01*
X108635313Y-61301177D01*
X108683976Y-61140758D01*
X108762995Y-60992924D01*
X108762996Y-60992922D01*
X108869341Y-60863341D01*
X108998922Y-60756996D01*
X109014094Y-60748886D01*
X109146758Y-60677976D01*
X109307177Y-60629313D01*
X109432196Y-60617000D01*
X109515804Y-60617000D01*
X109640823Y-60629313D01*
X109640823Y-60629313D01*
G37*
G36*
X112180823Y-60629313D02*
G01*
X112341242Y-60677976D01*
X112473906Y-60748886D01*
X112489078Y-60756996D01*
X112618659Y-60863341D01*
X112725004Y-60992922D01*
X112725005Y-60992924D01*
X112804024Y-61140758D01*
X112852687Y-61301177D01*
X112869117Y-61468000D01*
X112852687Y-61634823D01*
X112804024Y-61795242D01*
X112733114Y-61927906D01*
X112725004Y-61943078D01*
X112618659Y-62072659D01*
X112489078Y-62179004D01*
X112489076Y-62179005D01*
X112341242Y-62258024D01*
X112180823Y-62306687D01*
X112055804Y-62319000D01*
X111972196Y-62319000D01*
X111847177Y-62306687D01*
X111686758Y-62258024D01*
X111538924Y-62179005D01*
X111538922Y-62179004D01*
X111409341Y-62072659D01*
X111302996Y-61943078D01*
X111294886Y-61927906D01*
X111223976Y-61795242D01*
X111175313Y-61634823D01*
X111158883Y-61468000D01*
X111175313Y-61301177D01*
X111223976Y-61140758D01*
X111302995Y-60992924D01*
X111302996Y-60992922D01*
X111409341Y-60863341D01*
X111538922Y-60756996D01*
X111554094Y-60748886D01*
X111686758Y-60677976D01*
X111847177Y-60629313D01*
X111972196Y-60617000D01*
X112055804Y-60617000D01*
X112180823Y-60629313D01*
X112180823Y-60629313D01*
G37*
G36*
X119800823Y-60629313D02*
G01*
X119961242Y-60677976D01*
X120093906Y-60748886D01*
X120109078Y-60756996D01*
X120238659Y-60863341D01*
X120345004Y-60992922D01*
X120345005Y-60992924D01*
X120424024Y-61140758D01*
X120472687Y-61301177D01*
X120489117Y-61468000D01*
X120472687Y-61634823D01*
X120424024Y-61795242D01*
X120353114Y-61927906D01*
X120345004Y-61943078D01*
X120238659Y-62072659D01*
X120109078Y-62179004D01*
X120109076Y-62179005D01*
X119961242Y-62258024D01*
X119800823Y-62306687D01*
X119675804Y-62319000D01*
X119592196Y-62319000D01*
X119467177Y-62306687D01*
X119306758Y-62258024D01*
X119158924Y-62179005D01*
X119158922Y-62179004D01*
X119029341Y-62072659D01*
X118922996Y-61943078D01*
X118914886Y-61927906D01*
X118843976Y-61795242D01*
X118795313Y-61634823D01*
X118778883Y-61468000D01*
X118795313Y-61301177D01*
X118843976Y-61140758D01*
X118922995Y-60992924D01*
X118922996Y-60992922D01*
X119029341Y-60863341D01*
X119158922Y-60756996D01*
X119174094Y-60748886D01*
X119306758Y-60677976D01*
X119467177Y-60629313D01*
X119592196Y-60617000D01*
X119675804Y-60617000D01*
X119800823Y-60629313D01*
X119800823Y-60629313D01*
G37*
G36*
X122340823Y-60629313D02*
G01*
X122501242Y-60677976D01*
X122633906Y-60748886D01*
X122649078Y-60756996D01*
X122778659Y-60863341D01*
X122885004Y-60992922D01*
X122885005Y-60992924D01*
X122964024Y-61140758D01*
X123012687Y-61301177D01*
X123029117Y-61468000D01*
X123012687Y-61634823D01*
X122964024Y-61795242D01*
X122893114Y-61927906D01*
X122885004Y-61943078D01*
X122778659Y-62072659D01*
X122649078Y-62179004D01*
X122649076Y-62179005D01*
X122501242Y-62258024D01*
X122340823Y-62306687D01*
X122215804Y-62319000D01*
X122132196Y-62319000D01*
X122007177Y-62306687D01*
X121846758Y-62258024D01*
X121698924Y-62179005D01*
X121698922Y-62179004D01*
X121569341Y-62072659D01*
X121462996Y-61943078D01*
X121454886Y-61927906D01*
X121383976Y-61795242D01*
X121335313Y-61634823D01*
X121318883Y-61468000D01*
X121335313Y-61301177D01*
X121383976Y-61140758D01*
X121462995Y-60992924D01*
X121462996Y-60992922D01*
X121569341Y-60863341D01*
X121698922Y-60756996D01*
X121714094Y-60748886D01*
X121846758Y-60677976D01*
X122007177Y-60629313D01*
X122132196Y-60617000D01*
X122215804Y-60617000D01*
X122340823Y-60629313D01*
X122340823Y-60629313D01*
G37*
G36*
X124880823Y-60629313D02*
G01*
X125041242Y-60677976D01*
X125173906Y-60748886D01*
X125189078Y-60756996D01*
X125318659Y-60863341D01*
X125425004Y-60992922D01*
X125425005Y-60992924D01*
X125504024Y-61140758D01*
X125552687Y-61301177D01*
X125569117Y-61468000D01*
X125552687Y-61634823D01*
X125504024Y-61795242D01*
X125433114Y-61927906D01*
X125425004Y-61943078D01*
X125318659Y-62072659D01*
X125189078Y-62179004D01*
X125189076Y-62179005D01*
X125041242Y-62258024D01*
X124880823Y-62306687D01*
X124755804Y-62319000D01*
X124672196Y-62319000D01*
X124547177Y-62306687D01*
X124386758Y-62258024D01*
X124238924Y-62179005D01*
X124238922Y-62179004D01*
X124109341Y-62072659D01*
X124002996Y-61943078D01*
X123994886Y-61927906D01*
X123923976Y-61795242D01*
X123875313Y-61634823D01*
X123858883Y-61468000D01*
X123875313Y-61301177D01*
X123923976Y-61140758D01*
X124002995Y-60992924D01*
X124002996Y-60992922D01*
X124109341Y-60863341D01*
X124238922Y-60756996D01*
X124254094Y-60748886D01*
X124386758Y-60677976D01*
X124547177Y-60629313D01*
X124672196Y-60617000D01*
X124755804Y-60617000D01*
X124880823Y-60629313D01*
X124880823Y-60629313D01*
G37*
G36*
X127420823Y-60629313D02*
G01*
X127581242Y-60677976D01*
X127713906Y-60748886D01*
X127729078Y-60756996D01*
X127858659Y-60863341D01*
X127965004Y-60992922D01*
X127965005Y-60992924D01*
X128044024Y-61140758D01*
X128092687Y-61301177D01*
X128109117Y-61468000D01*
X128092687Y-61634823D01*
X128044024Y-61795242D01*
X127973114Y-61927906D01*
X127965004Y-61943078D01*
X127858659Y-62072659D01*
X127729078Y-62179004D01*
X127729076Y-62179005D01*
X127581242Y-62258024D01*
X127420823Y-62306687D01*
X127295804Y-62319000D01*
X127212196Y-62319000D01*
X127087177Y-62306687D01*
X126926758Y-62258024D01*
X126778924Y-62179005D01*
X126778922Y-62179004D01*
X126649341Y-62072659D01*
X126542996Y-61943078D01*
X126534886Y-61927906D01*
X126463976Y-61795242D01*
X126415313Y-61634823D01*
X126398883Y-61468000D01*
X126415313Y-61301177D01*
X126463976Y-61140758D01*
X126542995Y-60992924D01*
X126542996Y-60992922D01*
X126649341Y-60863341D01*
X126778922Y-60756996D01*
X126794094Y-60748886D01*
X126926758Y-60677976D01*
X127087177Y-60629313D01*
X127212196Y-60617000D01*
X127295804Y-60617000D01*
X127420823Y-60629313D01*
X127420823Y-60629313D01*
G37*
G36*
X132500823Y-60629313D02*
G01*
X132661242Y-60677976D01*
X132793906Y-60748886D01*
X132809078Y-60756996D01*
X132938659Y-60863341D01*
X133045004Y-60992922D01*
X133045005Y-60992924D01*
X133124024Y-61140758D01*
X133172687Y-61301177D01*
X133189117Y-61468000D01*
X133172687Y-61634823D01*
X133124024Y-61795242D01*
X133053114Y-61927906D01*
X133045004Y-61943078D01*
X132938659Y-62072659D01*
X132809078Y-62179004D01*
X132809076Y-62179005D01*
X132661242Y-62258024D01*
X132500823Y-62306687D01*
X132375804Y-62319000D01*
X132292196Y-62319000D01*
X132167177Y-62306687D01*
X132006758Y-62258024D01*
X131858924Y-62179005D01*
X131858922Y-62179004D01*
X131729341Y-62072659D01*
X131622996Y-61943078D01*
X131614886Y-61927906D01*
X131543976Y-61795242D01*
X131495313Y-61634823D01*
X131478883Y-61468000D01*
X131495313Y-61301177D01*
X131543976Y-61140758D01*
X131622995Y-60992924D01*
X131622996Y-60992922D01*
X131729341Y-60863341D01*
X131858922Y-60756996D01*
X131874094Y-60748886D01*
X132006758Y-60677976D01*
X132167177Y-60629313D01*
X132292196Y-60617000D01*
X132375804Y-60617000D01*
X132500823Y-60629313D01*
X132500823Y-60629313D01*
G37*
G36*
X129960823Y-60629313D02*
G01*
X130121242Y-60677976D01*
X130253906Y-60748886D01*
X130269078Y-60756996D01*
X130398659Y-60863341D01*
X130505004Y-60992922D01*
X130505005Y-60992924D01*
X130584024Y-61140758D01*
X130632687Y-61301177D01*
X130649117Y-61468000D01*
X130632687Y-61634823D01*
X130584024Y-61795242D01*
X130513114Y-61927906D01*
X130505004Y-61943078D01*
X130398659Y-62072659D01*
X130269078Y-62179004D01*
X130269076Y-62179005D01*
X130121242Y-62258024D01*
X129960823Y-62306687D01*
X129835804Y-62319000D01*
X129752196Y-62319000D01*
X129627177Y-62306687D01*
X129466758Y-62258024D01*
X129318924Y-62179005D01*
X129318922Y-62179004D01*
X129189341Y-62072659D01*
X129082996Y-61943078D01*
X129074886Y-61927906D01*
X129003976Y-61795242D01*
X128955313Y-61634823D01*
X128938883Y-61468000D01*
X128955313Y-61301177D01*
X129003976Y-61140758D01*
X129082995Y-60992924D01*
X129082996Y-60992922D01*
X129189341Y-60863341D01*
X129318922Y-60756996D01*
X129334094Y-60748886D01*
X129466758Y-60677976D01*
X129627177Y-60629313D01*
X129752196Y-60617000D01*
X129835804Y-60617000D01*
X129960823Y-60629313D01*
X129960823Y-60629313D01*
G37*
G36*
X114720823Y-60629313D02*
G01*
X114881242Y-60677976D01*
X115013906Y-60748886D01*
X115029078Y-60756996D01*
X115158659Y-60863341D01*
X115265004Y-60992922D01*
X115265005Y-60992924D01*
X115344024Y-61140758D01*
X115392687Y-61301177D01*
X115409117Y-61468000D01*
X115392687Y-61634823D01*
X115344024Y-61795242D01*
X115273114Y-61927906D01*
X115265004Y-61943078D01*
X115158659Y-62072659D01*
X115029078Y-62179004D01*
X115029076Y-62179005D01*
X114881242Y-62258024D01*
X114720823Y-62306687D01*
X114595804Y-62319000D01*
X114512196Y-62319000D01*
X114387177Y-62306687D01*
X114226758Y-62258024D01*
X114078924Y-62179005D01*
X114078922Y-62179004D01*
X113949341Y-62072659D01*
X113842996Y-61943078D01*
X113834886Y-61927906D01*
X113763976Y-61795242D01*
X113715313Y-61634823D01*
X113698883Y-61468000D01*
X113715313Y-61301177D01*
X113763976Y-61140758D01*
X113842995Y-60992924D01*
X113842996Y-60992922D01*
X113949341Y-60863341D01*
X114078922Y-60756996D01*
X114094094Y-60748886D01*
X114226758Y-60677976D01*
X114387177Y-60629313D01*
X114512196Y-60617000D01*
X114595804Y-60617000D01*
X114720823Y-60629313D01*
X114720823Y-60629313D01*
G37*
G36*
X117260823Y-60629313D02*
G01*
X117421242Y-60677976D01*
X117553906Y-60748886D01*
X117569078Y-60756996D01*
X117698659Y-60863341D01*
X117805004Y-60992922D01*
X117805005Y-60992924D01*
X117884024Y-61140758D01*
X117932687Y-61301177D01*
X117949117Y-61468000D01*
X117932687Y-61634823D01*
X117884024Y-61795242D01*
X117813114Y-61927906D01*
X117805004Y-61943078D01*
X117698659Y-62072659D01*
X117569078Y-62179004D01*
X117569076Y-62179005D01*
X117421242Y-62258024D01*
X117260823Y-62306687D01*
X117135804Y-62319000D01*
X117052196Y-62319000D01*
X116927177Y-62306687D01*
X116766758Y-62258024D01*
X116618924Y-62179005D01*
X116618922Y-62179004D01*
X116489341Y-62072659D01*
X116382996Y-61943078D01*
X116374886Y-61927906D01*
X116303976Y-61795242D01*
X116255313Y-61634823D01*
X116238883Y-61468000D01*
X116255313Y-61301177D01*
X116303976Y-61140758D01*
X116382995Y-60992924D01*
X116382996Y-60992922D01*
X116489341Y-60863341D01*
X116618922Y-60756996D01*
X116634094Y-60748886D01*
X116766758Y-60677976D01*
X116927177Y-60629313D01*
X117052196Y-60617000D01*
X117135804Y-60617000D01*
X117260823Y-60629313D01*
X117260823Y-60629313D01*
G37*
G36*
X92196228Y-60141703D02*
G01*
X92351100Y-60205853D01*
X92490481Y-60298985D01*
X92609015Y-60417519D01*
X92702147Y-60556900D01*
X92766297Y-60711772D01*
X92799000Y-60876184D01*
X92799000Y-61043816D01*
X92766297Y-61208228D01*
X92702147Y-61363100D01*
X92609015Y-61502481D01*
X92490481Y-61621015D01*
X92351100Y-61714147D01*
X92196228Y-61778297D01*
X92031816Y-61811000D01*
X91864184Y-61811000D01*
X91699772Y-61778297D01*
X91544900Y-61714147D01*
X91405519Y-61621015D01*
X91286985Y-61502481D01*
X91193853Y-61363100D01*
X91129703Y-61208228D01*
X91097000Y-61043816D01*
X91097000Y-60876184D01*
X91129703Y-60711772D01*
X91193853Y-60556900D01*
X91286985Y-60417519D01*
X91405519Y-60298985D01*
X91544900Y-60205853D01*
X91699772Y-60141703D01*
X91864184Y-60109000D01*
X92031816Y-60109000D01*
X92196228Y-60141703D01*
X92196228Y-60141703D01*
G37*
G36*
X84607374Y-56640185D02*
G01*
X84780410Y-56674604D01*
X85062674Y-56791521D01*
X85316705Y-56961259D01*
X85532741Y-57177295D01*
X85702479Y-57431326D01*
X85819396Y-57713590D01*
X85879000Y-58013240D01*
X85879000Y-58318760D01*
X85819396Y-58618410D01*
X85702479Y-58900674D01*
X85532741Y-59154705D01*
X85316705Y-59370741D01*
X85062674Y-59540479D01*
X84780410Y-59657396D01*
X84630585Y-59687198D01*
X84480761Y-59717000D01*
X84175239Y-59717000D01*
X84025415Y-59687198D01*
X83875590Y-59657396D01*
X83593326Y-59540479D01*
X83339295Y-59370741D01*
X83123259Y-59154705D01*
X82953521Y-58900674D01*
X82836604Y-58618410D01*
X82777000Y-58318760D01*
X82777000Y-58013240D01*
X82836604Y-57713590D01*
X82953521Y-57431326D01*
X83123259Y-57177295D01*
X83339295Y-56961259D01*
X83593326Y-56791521D01*
X83875590Y-56674604D01*
X84048626Y-56640185D01*
X84175239Y-56615000D01*
X84480761Y-56615000D01*
X84607374Y-56640185D01*
X84607374Y-56640185D01*
G37*
G36*
X69607374Y-56640185D02*
G01*
X69780410Y-56674604D01*
X70062674Y-56791521D01*
X70316705Y-56961259D01*
X70532741Y-57177295D01*
X70702479Y-57431326D01*
X70819396Y-57713590D01*
X70879000Y-58013240D01*
X70879000Y-58318760D01*
X70819396Y-58618410D01*
X70702479Y-58900674D01*
X70532741Y-59154705D01*
X70316705Y-59370741D01*
X70062674Y-59540479D01*
X69780410Y-59657396D01*
X69630585Y-59687198D01*
X69480761Y-59717000D01*
X69175239Y-59717000D01*
X69025415Y-59687198D01*
X68875590Y-59657396D01*
X68593326Y-59540479D01*
X68339295Y-59370741D01*
X68123259Y-59154705D01*
X67953521Y-58900674D01*
X67836604Y-58618410D01*
X67777000Y-58318760D01*
X67777000Y-58013240D01*
X67836604Y-57713590D01*
X67953521Y-57431326D01*
X68123259Y-57177295D01*
X68339295Y-56961259D01*
X68593326Y-56791521D01*
X68875590Y-56674604D01*
X69048626Y-56640185D01*
X69175239Y-56615000D01*
X69480761Y-56615000D01*
X69607374Y-56640185D01*
X69607374Y-56640185D01*
G37*
G36*
X79607374Y-56640185D02*
G01*
X79780410Y-56674604D01*
X80062674Y-56791521D01*
X80316705Y-56961259D01*
X80532741Y-57177295D01*
X80702479Y-57431326D01*
X80819396Y-57713590D01*
X80879000Y-58013240D01*
X80879000Y-58318760D01*
X80819396Y-58618410D01*
X80702479Y-58900674D01*
X80532741Y-59154705D01*
X80316705Y-59370741D01*
X80062674Y-59540479D01*
X79780410Y-59657396D01*
X79630585Y-59687198D01*
X79480761Y-59717000D01*
X79175239Y-59717000D01*
X79025415Y-59687198D01*
X78875590Y-59657396D01*
X78593326Y-59540479D01*
X78339295Y-59370741D01*
X78123259Y-59154705D01*
X77953521Y-58900674D01*
X77836604Y-58618410D01*
X77777000Y-58318760D01*
X77777000Y-58013240D01*
X77836604Y-57713590D01*
X77953521Y-57431326D01*
X78123259Y-57177295D01*
X78339295Y-56961259D01*
X78593326Y-56791521D01*
X78875590Y-56674604D01*
X79048626Y-56640185D01*
X79175239Y-56615000D01*
X79480761Y-56615000D01*
X79607374Y-56640185D01*
X79607374Y-56640185D01*
G37*
G36*
X101190442Y-55105518D02*
G01*
X101256627Y-55112037D01*
X101426466Y-55163557D01*
X101582991Y-55247222D01*
X101618729Y-55276552D01*
X101720186Y-55359814D01*
X101803448Y-55461271D01*
X101832778Y-55497009D01*
X101916443Y-55653534D01*
X101967963Y-55823373D01*
X101985359Y-56000000D01*
X101967963Y-56176627D01*
X101916443Y-56346466D01*
X101832778Y-56502991D01*
X101803448Y-56538729D01*
X101720186Y-56640186D01*
X101618729Y-56723448D01*
X101582991Y-56752778D01*
X101426466Y-56836443D01*
X101256627Y-56887963D01*
X101190443Y-56894481D01*
X101124260Y-56901000D01*
X101035740Y-56901000D01*
X100969557Y-56894481D01*
X100903373Y-56887963D01*
X100733534Y-56836443D01*
X100577009Y-56752778D01*
X100541271Y-56723448D01*
X100439814Y-56640186D01*
X100356552Y-56538729D01*
X100327222Y-56502991D01*
X100243557Y-56346466D01*
X100192037Y-56176627D01*
X100174641Y-56000000D01*
X100192037Y-55823373D01*
X100243557Y-55653534D01*
X100327222Y-55497009D01*
X100356552Y-55461271D01*
X100439814Y-55359814D01*
X100541271Y-55276552D01*
X100577009Y-55247222D01*
X100733534Y-55163557D01*
X100903373Y-55112037D01*
X100969558Y-55105518D01*
X101035740Y-55099000D01*
X101124260Y-55099000D01*
X101190442Y-55105518D01*
X101190442Y-55105518D01*
G37*
G36*
X98650442Y-55105518D02*
G01*
X98716627Y-55112037D01*
X98886466Y-55163557D01*
X99042991Y-55247222D01*
X99078729Y-55276552D01*
X99180186Y-55359814D01*
X99263448Y-55461271D01*
X99292778Y-55497009D01*
X99376443Y-55653534D01*
X99427963Y-55823373D01*
X99445359Y-56000000D01*
X99427963Y-56176627D01*
X99376443Y-56346466D01*
X99292778Y-56502991D01*
X99263448Y-56538729D01*
X99180186Y-56640186D01*
X99078729Y-56723448D01*
X99042991Y-56752778D01*
X98886466Y-56836443D01*
X98716627Y-56887963D01*
X98650443Y-56894481D01*
X98584260Y-56901000D01*
X98495740Y-56901000D01*
X98429557Y-56894481D01*
X98363373Y-56887963D01*
X98193534Y-56836443D01*
X98037009Y-56752778D01*
X98001271Y-56723448D01*
X97899814Y-56640186D01*
X97816552Y-56538729D01*
X97787222Y-56502991D01*
X97703557Y-56346466D01*
X97652037Y-56176627D01*
X97634641Y-56000000D01*
X97652037Y-55823373D01*
X97703557Y-55653534D01*
X97787222Y-55497009D01*
X97816552Y-55461271D01*
X97899814Y-55359814D01*
X98001271Y-55276552D01*
X98037009Y-55247222D01*
X98193534Y-55163557D01*
X98363373Y-55112037D01*
X98429558Y-55105518D01*
X98495740Y-55099000D01*
X98584260Y-55099000D01*
X98650442Y-55105518D01*
X98650442Y-55105518D01*
G37*
G36*
X107835000Y-56901000D02*
G01*
X106033000Y-56901000D01*
X106033000Y-55099000D01*
X107835000Y-55099000D01*
X107835000Y-56901000D01*
X107835000Y-56901000D01*
G37*
G36*
X124824442Y-55105518D02*
G01*
X124890627Y-55112037D01*
X125060466Y-55163557D01*
X125216991Y-55247222D01*
X125252729Y-55276552D01*
X125354186Y-55359814D01*
X125437448Y-55461271D01*
X125466778Y-55497009D01*
X125550443Y-55653534D01*
X125601963Y-55823373D01*
X125619359Y-56000000D01*
X125601963Y-56176627D01*
X125550443Y-56346466D01*
X125466778Y-56502991D01*
X125437448Y-56538729D01*
X125354186Y-56640186D01*
X125252729Y-56723448D01*
X125216991Y-56752778D01*
X125060466Y-56836443D01*
X124890627Y-56887963D01*
X124824443Y-56894481D01*
X124758260Y-56901000D01*
X124669740Y-56901000D01*
X124603557Y-56894481D01*
X124537373Y-56887963D01*
X124367534Y-56836443D01*
X124211009Y-56752778D01*
X124175271Y-56723448D01*
X124073814Y-56640186D01*
X123990552Y-56538729D01*
X123961222Y-56502991D01*
X123877557Y-56346466D01*
X123826037Y-56176627D01*
X123808641Y-56000000D01*
X123826037Y-55823373D01*
X123877557Y-55653534D01*
X123961222Y-55497009D01*
X123990552Y-55461271D01*
X124073814Y-55359814D01*
X124175271Y-55276552D01*
X124211009Y-55247222D01*
X124367534Y-55163557D01*
X124537373Y-55112037D01*
X124603558Y-55105518D01*
X124669740Y-55099000D01*
X124758260Y-55099000D01*
X124824442Y-55105518D01*
X124824442Y-55105518D01*
G37*
G36*
X109584442Y-55105518D02*
G01*
X109650627Y-55112037D01*
X109820466Y-55163557D01*
X109976991Y-55247222D01*
X110012729Y-55276552D01*
X110114186Y-55359814D01*
X110197448Y-55461271D01*
X110226778Y-55497009D01*
X110310443Y-55653534D01*
X110361963Y-55823373D01*
X110379359Y-56000000D01*
X110361963Y-56176627D01*
X110310443Y-56346466D01*
X110226778Y-56502991D01*
X110197448Y-56538729D01*
X110114186Y-56640186D01*
X110012729Y-56723448D01*
X109976991Y-56752778D01*
X109820466Y-56836443D01*
X109650627Y-56887963D01*
X109584443Y-56894481D01*
X109518260Y-56901000D01*
X109429740Y-56901000D01*
X109363557Y-56894481D01*
X109297373Y-56887963D01*
X109127534Y-56836443D01*
X108971009Y-56752778D01*
X108935271Y-56723448D01*
X108833814Y-56640186D01*
X108750552Y-56538729D01*
X108721222Y-56502991D01*
X108637557Y-56346466D01*
X108586037Y-56176627D01*
X108568641Y-56000000D01*
X108586037Y-55823373D01*
X108637557Y-55653534D01*
X108721222Y-55497009D01*
X108750552Y-55461271D01*
X108833814Y-55359814D01*
X108935271Y-55276552D01*
X108971009Y-55247222D01*
X109127534Y-55163557D01*
X109297373Y-55112037D01*
X109363558Y-55105518D01*
X109429740Y-55099000D01*
X109518260Y-55099000D01*
X109584442Y-55105518D01*
X109584442Y-55105518D01*
G37*
G36*
X112124442Y-55105518D02*
G01*
X112190627Y-55112037D01*
X112360466Y-55163557D01*
X112516991Y-55247222D01*
X112552729Y-55276552D01*
X112654186Y-55359814D01*
X112737448Y-55461271D01*
X112766778Y-55497009D01*
X112850443Y-55653534D01*
X112901963Y-55823373D01*
X112919359Y-56000000D01*
X112901963Y-56176627D01*
X112850443Y-56346466D01*
X112766778Y-56502991D01*
X112737448Y-56538729D01*
X112654186Y-56640186D01*
X112552729Y-56723448D01*
X112516991Y-56752778D01*
X112360466Y-56836443D01*
X112190627Y-56887963D01*
X112124443Y-56894481D01*
X112058260Y-56901000D01*
X111969740Y-56901000D01*
X111903557Y-56894481D01*
X111837373Y-56887963D01*
X111667534Y-56836443D01*
X111511009Y-56752778D01*
X111475271Y-56723448D01*
X111373814Y-56640186D01*
X111290552Y-56538729D01*
X111261222Y-56502991D01*
X111177557Y-56346466D01*
X111126037Y-56176627D01*
X111108641Y-56000000D01*
X111126037Y-55823373D01*
X111177557Y-55653534D01*
X111261222Y-55497009D01*
X111290552Y-55461271D01*
X111373814Y-55359814D01*
X111475271Y-55276552D01*
X111511009Y-55247222D01*
X111667534Y-55163557D01*
X111837373Y-55112037D01*
X111903558Y-55105518D01*
X111969740Y-55099000D01*
X112058260Y-55099000D01*
X112124442Y-55105518D01*
X112124442Y-55105518D01*
G37*
G36*
X114664442Y-55105518D02*
G01*
X114730627Y-55112037D01*
X114900466Y-55163557D01*
X115056991Y-55247222D01*
X115092729Y-55276552D01*
X115194186Y-55359814D01*
X115277448Y-55461271D01*
X115306778Y-55497009D01*
X115390443Y-55653534D01*
X115441963Y-55823373D01*
X115459359Y-56000000D01*
X115441963Y-56176627D01*
X115390443Y-56346466D01*
X115306778Y-56502991D01*
X115277448Y-56538729D01*
X115194186Y-56640186D01*
X115092729Y-56723448D01*
X115056991Y-56752778D01*
X114900466Y-56836443D01*
X114730627Y-56887963D01*
X114664443Y-56894481D01*
X114598260Y-56901000D01*
X114509740Y-56901000D01*
X114443557Y-56894481D01*
X114377373Y-56887963D01*
X114207534Y-56836443D01*
X114051009Y-56752778D01*
X114015271Y-56723448D01*
X113913814Y-56640186D01*
X113830552Y-56538729D01*
X113801222Y-56502991D01*
X113717557Y-56346466D01*
X113666037Y-56176627D01*
X113648641Y-56000000D01*
X113666037Y-55823373D01*
X113717557Y-55653534D01*
X113801222Y-55497009D01*
X113830552Y-55461271D01*
X113913814Y-55359814D01*
X114015271Y-55276552D01*
X114051009Y-55247222D01*
X114207534Y-55163557D01*
X114377373Y-55112037D01*
X114443558Y-55105518D01*
X114509740Y-55099000D01*
X114598260Y-55099000D01*
X114664442Y-55105518D01*
X114664442Y-55105518D01*
G37*
G36*
X132444442Y-55105518D02*
G01*
X132510627Y-55112037D01*
X132680466Y-55163557D01*
X132836991Y-55247222D01*
X132872729Y-55276552D01*
X132974186Y-55359814D01*
X133057448Y-55461271D01*
X133086778Y-55497009D01*
X133170443Y-55653534D01*
X133221963Y-55823373D01*
X133239359Y-56000000D01*
X133221963Y-56176627D01*
X133170443Y-56346466D01*
X133086778Y-56502991D01*
X133057448Y-56538729D01*
X132974186Y-56640186D01*
X132872729Y-56723448D01*
X132836991Y-56752778D01*
X132680466Y-56836443D01*
X132510627Y-56887963D01*
X132444443Y-56894481D01*
X132378260Y-56901000D01*
X132289740Y-56901000D01*
X132223557Y-56894481D01*
X132157373Y-56887963D01*
X131987534Y-56836443D01*
X131831009Y-56752778D01*
X131795271Y-56723448D01*
X131693814Y-56640186D01*
X131610552Y-56538729D01*
X131581222Y-56502991D01*
X131497557Y-56346466D01*
X131446037Y-56176627D01*
X131428641Y-56000000D01*
X131446037Y-55823373D01*
X131497557Y-55653534D01*
X131581222Y-55497009D01*
X131610552Y-55461271D01*
X131693814Y-55359814D01*
X131795271Y-55276552D01*
X131831009Y-55247222D01*
X131987534Y-55163557D01*
X132157373Y-55112037D01*
X132223558Y-55105518D01*
X132289740Y-55099000D01*
X132378260Y-55099000D01*
X132444442Y-55105518D01*
X132444442Y-55105518D01*
G37*
G36*
X119744442Y-55105518D02*
G01*
X119810627Y-55112037D01*
X119980466Y-55163557D01*
X120136991Y-55247222D01*
X120172729Y-55276552D01*
X120274186Y-55359814D01*
X120357448Y-55461271D01*
X120386778Y-55497009D01*
X120470443Y-55653534D01*
X120521963Y-55823373D01*
X120539359Y-56000000D01*
X120521963Y-56176627D01*
X120470443Y-56346466D01*
X120386778Y-56502991D01*
X120357448Y-56538729D01*
X120274186Y-56640186D01*
X120172729Y-56723448D01*
X120136991Y-56752778D01*
X119980466Y-56836443D01*
X119810627Y-56887963D01*
X119744443Y-56894481D01*
X119678260Y-56901000D01*
X119589740Y-56901000D01*
X119523557Y-56894481D01*
X119457373Y-56887963D01*
X119287534Y-56836443D01*
X119131009Y-56752778D01*
X119095271Y-56723448D01*
X118993814Y-56640186D01*
X118910552Y-56538729D01*
X118881222Y-56502991D01*
X118797557Y-56346466D01*
X118746037Y-56176627D01*
X118728641Y-56000000D01*
X118746037Y-55823373D01*
X118797557Y-55653534D01*
X118881222Y-55497009D01*
X118910552Y-55461271D01*
X118993814Y-55359814D01*
X119095271Y-55276552D01*
X119131009Y-55247222D01*
X119287534Y-55163557D01*
X119457373Y-55112037D01*
X119523558Y-55105518D01*
X119589740Y-55099000D01*
X119678260Y-55099000D01*
X119744442Y-55105518D01*
X119744442Y-55105518D01*
G37*
G36*
X96901000Y-56901000D02*
G01*
X95099000Y-56901000D01*
X95099000Y-55099000D01*
X96901000Y-55099000D01*
X96901000Y-56901000D01*
X96901000Y-56901000D01*
G37*
G36*
X122284442Y-55105518D02*
G01*
X122350627Y-55112037D01*
X122520466Y-55163557D01*
X122676991Y-55247222D01*
X122712729Y-55276552D01*
X122814186Y-55359814D01*
X122897448Y-55461271D01*
X122926778Y-55497009D01*
X123010443Y-55653534D01*
X123061963Y-55823373D01*
X123079359Y-56000000D01*
X123061963Y-56176627D01*
X123010443Y-56346466D01*
X122926778Y-56502991D01*
X122897448Y-56538729D01*
X122814186Y-56640186D01*
X122712729Y-56723448D01*
X122676991Y-56752778D01*
X122520466Y-56836443D01*
X122350627Y-56887963D01*
X122284443Y-56894481D01*
X122218260Y-56901000D01*
X122129740Y-56901000D01*
X122063557Y-56894481D01*
X121997373Y-56887963D01*
X121827534Y-56836443D01*
X121671009Y-56752778D01*
X121635271Y-56723448D01*
X121533814Y-56640186D01*
X121450552Y-56538729D01*
X121421222Y-56502991D01*
X121337557Y-56346466D01*
X121286037Y-56176627D01*
X121268641Y-56000000D01*
X121286037Y-55823373D01*
X121337557Y-55653534D01*
X121421222Y-55497009D01*
X121450552Y-55461271D01*
X121533814Y-55359814D01*
X121635271Y-55276552D01*
X121671009Y-55247222D01*
X121827534Y-55163557D01*
X121997373Y-55112037D01*
X122063558Y-55105518D01*
X122129740Y-55099000D01*
X122218260Y-55099000D01*
X122284442Y-55105518D01*
X122284442Y-55105518D01*
G37*
G36*
X127364442Y-55105518D02*
G01*
X127430627Y-55112037D01*
X127600466Y-55163557D01*
X127756991Y-55247222D01*
X127792729Y-55276552D01*
X127894186Y-55359814D01*
X127977448Y-55461271D01*
X128006778Y-55497009D01*
X128090443Y-55653534D01*
X128141963Y-55823373D01*
X128159359Y-56000000D01*
X128141963Y-56176627D01*
X128090443Y-56346466D01*
X128006778Y-56502991D01*
X127977448Y-56538729D01*
X127894186Y-56640186D01*
X127792729Y-56723448D01*
X127756991Y-56752778D01*
X127600466Y-56836443D01*
X127430627Y-56887963D01*
X127364443Y-56894481D01*
X127298260Y-56901000D01*
X127209740Y-56901000D01*
X127143557Y-56894481D01*
X127077373Y-56887963D01*
X126907534Y-56836443D01*
X126751009Y-56752778D01*
X126715271Y-56723448D01*
X126613814Y-56640186D01*
X126530552Y-56538729D01*
X126501222Y-56502991D01*
X126417557Y-56346466D01*
X126366037Y-56176627D01*
X126348641Y-56000000D01*
X126366037Y-55823373D01*
X126417557Y-55653534D01*
X126501222Y-55497009D01*
X126530552Y-55461271D01*
X126613814Y-55359814D01*
X126715271Y-55276552D01*
X126751009Y-55247222D01*
X126907534Y-55163557D01*
X127077373Y-55112037D01*
X127143558Y-55105518D01*
X127209740Y-55099000D01*
X127298260Y-55099000D01*
X127364442Y-55105518D01*
X127364442Y-55105518D01*
G37*
G36*
X129904442Y-55105518D02*
G01*
X129970627Y-55112037D01*
X130140466Y-55163557D01*
X130296991Y-55247222D01*
X130332729Y-55276552D01*
X130434186Y-55359814D01*
X130517448Y-55461271D01*
X130546778Y-55497009D01*
X130630443Y-55653534D01*
X130681963Y-55823373D01*
X130699359Y-56000000D01*
X130681963Y-56176627D01*
X130630443Y-56346466D01*
X130546778Y-56502991D01*
X130517448Y-56538729D01*
X130434186Y-56640186D01*
X130332729Y-56723448D01*
X130296991Y-56752778D01*
X130140466Y-56836443D01*
X129970627Y-56887963D01*
X129904443Y-56894481D01*
X129838260Y-56901000D01*
X129749740Y-56901000D01*
X129683557Y-56894481D01*
X129617373Y-56887963D01*
X129447534Y-56836443D01*
X129291009Y-56752778D01*
X129255271Y-56723448D01*
X129153814Y-56640186D01*
X129070552Y-56538729D01*
X129041222Y-56502991D01*
X128957557Y-56346466D01*
X128906037Y-56176627D01*
X128888641Y-56000000D01*
X128906037Y-55823373D01*
X128957557Y-55653534D01*
X129041222Y-55497009D01*
X129070552Y-55461271D01*
X129153814Y-55359814D01*
X129255271Y-55276552D01*
X129291009Y-55247222D01*
X129447534Y-55163557D01*
X129617373Y-55112037D01*
X129683558Y-55105518D01*
X129749740Y-55099000D01*
X129838260Y-55099000D01*
X129904442Y-55105518D01*
X129904442Y-55105518D01*
G37*
G36*
X117204442Y-55105518D02*
G01*
X117270627Y-55112037D01*
X117440466Y-55163557D01*
X117596991Y-55247222D01*
X117632729Y-55276552D01*
X117734186Y-55359814D01*
X117817448Y-55461271D01*
X117846778Y-55497009D01*
X117930443Y-55653534D01*
X117981963Y-55823373D01*
X117999359Y-56000000D01*
X117981963Y-56176627D01*
X117930443Y-56346466D01*
X117846778Y-56502991D01*
X117817448Y-56538729D01*
X117734186Y-56640186D01*
X117632729Y-56723448D01*
X117596991Y-56752778D01*
X117440466Y-56836443D01*
X117270627Y-56887963D01*
X117204443Y-56894481D01*
X117138260Y-56901000D01*
X117049740Y-56901000D01*
X116983557Y-56894481D01*
X116917373Y-56887963D01*
X116747534Y-56836443D01*
X116591009Y-56752778D01*
X116555271Y-56723448D01*
X116453814Y-56640186D01*
X116370552Y-56538729D01*
X116341222Y-56502991D01*
X116257557Y-56346466D01*
X116206037Y-56176627D01*
X116188641Y-56000000D01*
X116206037Y-55823373D01*
X116257557Y-55653534D01*
X116341222Y-55497009D01*
X116370552Y-55461271D01*
X116453814Y-55359814D01*
X116555271Y-55276552D01*
X116591009Y-55247222D01*
X116747534Y-55163557D01*
X116917373Y-55112037D01*
X116983558Y-55105518D01*
X117049740Y-55099000D01*
X117138260Y-55099000D01*
X117204442Y-55105518D01*
X117204442Y-55105518D01*
G37*
G36*
X146171256Y-52493298D02*
G01*
X146277579Y-52514447D01*
X146578042Y-52638903D01*
X146848451Y-52819585D01*
X147078415Y-53049549D01*
X147259097Y-53319958D01*
X147383553Y-53620421D01*
X147404702Y-53726744D01*
X147433345Y-53870740D01*
X147447000Y-53939391D01*
X147447000Y-54264609D01*
X147383553Y-54583579D01*
X147259097Y-54884042D01*
X147078415Y-55154451D01*
X146848451Y-55384415D01*
X146578042Y-55565097D01*
X146277579Y-55689553D01*
X146171256Y-55710702D01*
X145958611Y-55753000D01*
X145633389Y-55753000D01*
X145420744Y-55710702D01*
X145314421Y-55689553D01*
X145013958Y-55565097D01*
X144743549Y-55384415D01*
X144513585Y-55154451D01*
X144332903Y-54884042D01*
X144208447Y-54583579D01*
X144145000Y-54264609D01*
X144145000Y-53939391D01*
X144158656Y-53870740D01*
X144187298Y-53726744D01*
X144208447Y-53620421D01*
X144332903Y-53319958D01*
X144513585Y-53049549D01*
X144743549Y-52819585D01*
X145013958Y-52638903D01*
X145314421Y-52514447D01*
X145420744Y-52493298D01*
X145633389Y-52451000D01*
X145958611Y-52451000D01*
X146171256Y-52493298D01*
X146171256Y-52493298D01*
G37*
G36*
X54223256Y-52493298D02*
G01*
X54329579Y-52514447D01*
X54630042Y-52638903D01*
X54900451Y-52819585D01*
X55130415Y-53049549D01*
X55311097Y-53319958D01*
X55435553Y-53620421D01*
X55456702Y-53726744D01*
X55485345Y-53870740D01*
X55499000Y-53939391D01*
X55499000Y-54264609D01*
X55435553Y-54583579D01*
X55311097Y-54884042D01*
X55130415Y-55154451D01*
X54900451Y-55384415D01*
X54630042Y-55565097D01*
X54329579Y-55689553D01*
X54223256Y-55710702D01*
X54010611Y-55753000D01*
X53685389Y-55753000D01*
X53472744Y-55710702D01*
X53366421Y-55689553D01*
X53065958Y-55565097D01*
X52795549Y-55384415D01*
X52565585Y-55154451D01*
X52384903Y-54884042D01*
X52260447Y-54583579D01*
X52197000Y-54264609D01*
X52197000Y-53939391D01*
X52210656Y-53870740D01*
X52239298Y-53726744D01*
X52260447Y-53620421D01*
X52384903Y-53319958D01*
X52565585Y-53049549D01*
X52795549Y-52819585D01*
X53065958Y-52638903D01*
X53366421Y-52514447D01*
X53472744Y-52493298D01*
X53685389Y-52451000D01*
X54010611Y-52451000D01*
X54223256Y-52493298D01*
X54223256Y-52493298D01*
G37*
G36*
X84630585Y-51144802D02*
G01*
X84780410Y-51174604D01*
X85062674Y-51291521D01*
X85316705Y-51461259D01*
X85532741Y-51677295D01*
X85702479Y-51931326D01*
X85819396Y-52213590D01*
X85879000Y-52513240D01*
X85879000Y-52818760D01*
X85819396Y-53118410D01*
X85702479Y-53400674D01*
X85532741Y-53654705D01*
X85316705Y-53870741D01*
X85062674Y-54040479D01*
X84780410Y-54157396D01*
X84630585Y-54187198D01*
X84480761Y-54217000D01*
X84175239Y-54217000D01*
X84025415Y-54187198D01*
X83875590Y-54157396D01*
X83593326Y-54040479D01*
X83339295Y-53870741D01*
X83123259Y-53654705D01*
X82953521Y-53400674D01*
X82836604Y-53118410D01*
X82777000Y-52818760D01*
X82777000Y-52513240D01*
X82836604Y-52213590D01*
X82953521Y-51931326D01*
X83123259Y-51677295D01*
X83339295Y-51461259D01*
X83593326Y-51291521D01*
X83875590Y-51174604D01*
X84025415Y-51144802D01*
X84175239Y-51115000D01*
X84480761Y-51115000D01*
X84630585Y-51144802D01*
X84630585Y-51144802D01*
G37*
G36*
X74630585Y-51144802D02*
G01*
X74780410Y-51174604D01*
X75062674Y-51291521D01*
X75316705Y-51461259D01*
X75532741Y-51677295D01*
X75702479Y-51931326D01*
X75819396Y-52213590D01*
X75879000Y-52513240D01*
X75879000Y-52818760D01*
X75819396Y-53118410D01*
X75702479Y-53400674D01*
X75532741Y-53654705D01*
X75316705Y-53870741D01*
X75062674Y-54040479D01*
X74780410Y-54157396D01*
X74630585Y-54187198D01*
X74480761Y-54217000D01*
X74175239Y-54217000D01*
X74025415Y-54187198D01*
X73875590Y-54157396D01*
X73593326Y-54040479D01*
X73339295Y-53870741D01*
X73123259Y-53654705D01*
X72953521Y-53400674D01*
X72836604Y-53118410D01*
X72777000Y-52818760D01*
X72777000Y-52513240D01*
X72836604Y-52213590D01*
X72953521Y-51931326D01*
X73123259Y-51677295D01*
X73339295Y-51461259D01*
X73593326Y-51291521D01*
X73875590Y-51174604D01*
X74025415Y-51144802D01*
X74175239Y-51115000D01*
X74480761Y-51115000D01*
X74630585Y-51144802D01*
X74630585Y-51144802D01*
G37*
M02*
