M48
; DRILL file {KiCad (5.1.2)-2} date 2020-03-29 5:12:43 PM
; FORMAT={-:-/ absolute / inch / decimal}
; #@! TF.CreationDate,2020-03-29T17:12:43-06:00
; #@! TF.GenerationSoftware,Kicad,Pcbnew,(5.1.2)-2
; #@! TF.FileFunction,Plated,1,2,PTH
FMAT,2
INCH
T1C0.0157
T2C0.0276
T3C0.0315
T4C0.0320
T5C0.0350
T6C0.0354
T7C0.0390
T8C0.0394
T9C0.0492
T10C0.0512
T11C0.0591
%
G90
G05
T1
X3.701Y-4.659
T2
X3.79Y-2.43
X3.79Y-2.73
X4.93Y-4.96
X5.23Y-4.96
X3.79Y-2.86
X3.79Y-3.16
T3
X3.62Y-2.4
X3.62Y-2.4984
X3.8816Y-3.35
X3.98Y-3.35
T4
X3.83Y-3.55
X3.83Y-3.65
X3.83Y-3.75
X3.83Y-3.85
X3.83Y-3.95
X3.83Y-4.05
X3.83Y-4.15
X3.83Y-4.25
X3.83Y-4.35
X4.13Y-3.55
X4.13Y-3.65
X4.13Y-3.75
X4.13Y-3.85
X4.13Y-3.95
X4.13Y-4.05
X4.13Y-4.15
X4.13Y-4.25
X4.13Y-4.35
T5
X5.2215Y-5.188
X5.2215Y-5.288
X5.2215Y-5.388
T6
X5.08Y-4.65
X5.08Y-4.75
T7
X4.01Y-2.42
X4.01Y-3.02
X4.11Y-2.42
X4.11Y-3.02
X4.21Y-2.42
X4.21Y-3.02
X4.31Y-2.42
X4.31Y-3.02
X4.41Y-2.42
X4.41Y-3.02
X4.51Y-2.42
X4.51Y-3.02
X4.61Y-2.42
X4.61Y-3.02
X4.71Y-2.42
X4.71Y-3.02
X4.81Y-2.42
X4.81Y-3.02
X4.91Y-2.42
X4.91Y-3.02
X5.01Y-2.42
X5.01Y-3.02
X5.11Y-2.42
X5.11Y-3.02
X5.21Y-2.42
X5.21Y-3.02
X5.31Y-2.42
X5.31Y-3.02
X5.41Y-2.42
X5.41Y-3.02
T8
X3.7795Y-2.2047
X3.8795Y-2.2047
X3.9795Y-2.2047
X4.2Y-3.37
X4.3Y-3.37
X4.4Y-3.37
X4.46Y-3.65
X4.56Y-3.65
X4.66Y-3.65
X4.76Y-3.65
X4.86Y-3.65
X4.96Y-3.65
X5.06Y-3.65
X4.0037Y-4.6
X4.0037Y-4.7
X4.0037Y-4.8
X4.0037Y-4.9
X4.0037Y-5.0
X4.0037Y-5.1
X4.4037Y-4.6
X4.4037Y-4.7
X4.4037Y-4.8
X4.4037Y-4.9
X4.4037Y-5.0
X4.4037Y-5.1
X3.75Y-5.44
X3.75Y-5.6369
X3.69Y-4.8755
X3.69Y-4.9755
X3.69Y-5.0755
X4.83Y-4.34
X4.93Y-4.34
X5.03Y-4.34
X5.13Y-4.34
X4.21Y-2.2047
X4.31Y-2.2047
X4.41Y-2.2047
X4.51Y-2.2047
X4.61Y-2.2047
X4.71Y-2.2047
X4.81Y-2.2047
X4.91Y-2.2047
X5.01Y-2.2047
X5.11Y-2.2047
X5.21Y-2.2047
X4.4Y-5.44
X4.4Y-5.6369
X4.66Y-4.8755
X4.66Y-4.9755
X4.66Y-5.0755
T9
X4.78Y-5.69
X5.38Y-5.69
T10
X5.6569Y-3.291
X5.6569Y-3.4879
X5.6569Y-3.6847
X5.6569Y-3.8816
X5.6569Y-5.1847
X5.6569Y-5.3816
X2.1731Y-2.4784
X2.1731Y-2.6753
X2.1731Y-2.8721
X2.1731Y-3.069
X2.1731Y-3.2658
X2.1731Y-3.4627
X2.1731Y-3.6595
X2.1731Y-3.8564
X2.1731Y-4.0532
X2.1731Y-4.2501
X2.1731Y-4.4469
X2.1731Y-4.6438
X2.1731Y-4.8406
X2.1731Y-5.0375
X2.1731Y-5.2343
X2.1731Y-5.4312
X5.61Y-4.3369
X5.61Y-4.5337
X5.61Y-4.7306
T11
X2.7294Y-4.7686
X2.9263Y-4.552
X3.1231Y-4.7686
X3.32Y-4.552
X3.32Y-4.7686
X2.7294Y-3.7771
X2.9263Y-3.5606
X3.1231Y-3.7771
X3.32Y-3.5606
X3.32Y-3.7771
X2.7294Y-5.76
X2.9263Y-5.5435
X3.1231Y-5.76
X3.32Y-5.5435
X3.32Y-5.76
X2.7294Y-4.2729
X2.9263Y-4.0563
X3.1231Y-4.2729
X3.32Y-4.0563
X3.32Y-4.2729
X2.7294Y-3.2814
X2.9263Y-3.0649
X3.1231Y-3.2814
X3.32Y-3.0649
X3.32Y-3.2814
X2.7294Y-2.29
X2.9263Y-2.0735
X3.1231Y-2.29
X3.32Y-2.0735
X3.32Y-2.29
X2.7294Y-5.2643
X2.9263Y-5.0478
X3.1231Y-5.2643
X3.32Y-5.0478
X3.32Y-5.2643
X2.7294Y-2.7857
X2.9263Y-2.5692
X3.1231Y-2.7857
X3.32Y-2.5692
X3.32Y-2.7857
T0
M30
