M48
; DRILL file {KiCad (6.0.10)} date Thu Apr 13 16:58:55 2023
; FORMAT={-:-/ absolute / inch / decimal}
; #@! TF.CreationDate,2023-04-13T16:58:55-06:00
; #@! TF.GenerationSoftware,Kicad,Pcbnew,(6.0.10)
; #@! TF.FileFunction,Plated,1,2,PTH
FMAT,2
INCH
; #@! TA.AperFunction,Plated,PTH,ComponentDrill
T1C0.0315
; #@! TA.AperFunction,Plated,PTH,ComponentDrill
T2C0.0350
; #@! TA.AperFunction,Plated,PTH,ComponentDrill
T3C0.0394
; #@! TA.AperFunction,Plated,PTH,ComponentDrill
T4C0.0469
; #@! TA.AperFunction,Plated,PTH,ComponentDrill
T5C0.0512
; #@! TA.AperFunction,Plated,PTH,ComponentDrill
T6C0.0591
%
G90
G05
T1
X1.874Y-1.0591
X1.9528Y-1.0591
X2.0315Y-1.0591
X2.1102Y-1.0591
X2.2362Y-1.6791
X2.2362Y-1.7776
X2.9091Y-1.6154
X2.9091Y-1.7154
X3.2091Y-1.6154
X3.2091Y-1.7154
X3.7992Y-1.426
X3.7992Y-1.826
X4.0118Y-1.426
X4.0118Y-1.826
X4.378Y-2.5217
X4.378Y-2.6201
X4.9134Y-2.5177
X4.9134Y-2.6161
T2
X4.5389Y-2.3691
X4.6389Y-2.3691
X4.7389Y-2.3691
T3
X1.1287Y-1.3185
X1.1307Y-1.9173
X1.2287Y-1.3185
X1.2307Y-1.9173
X1.3287Y-1.3185
X1.3307Y-1.9173
X1.4287Y-1.3185
X1.4307Y-1.9173
X1.5287Y-1.3185
X1.5307Y-1.9173
X1.6287Y-1.3185
X1.6307Y-1.9173
X1.7287Y-1.3185
X1.7307Y-1.9173
X1.8287Y-1.3185
X1.8307Y-1.9173
X1.9287Y-1.3185
X1.9307Y-1.9173
X2.0287Y-1.3185
X2.0307Y-1.9173
X2.1287Y-1.3185
X2.1307Y-1.9173
X2.2287Y-1.3185
X2.2307Y-1.9173
X2.3287Y-1.3185
X2.3307Y-1.9173
X2.4287Y-1.3185
X2.4307Y-1.9173
X2.5287Y-1.3185
X2.5307Y-1.9173
X3.1142Y-1.0591
X3.2142Y-1.0591
X3.3142Y-1.0591
X3.4142Y-1.0591
X3.5142Y-1.0591
X3.6142Y-1.0591
X3.8173Y-1.2244
X3.9173Y-1.2244
X4.0173Y-1.2244
X4.1082Y-2.2323
X4.305Y-2.2323
X4.9829Y-2.2323
X5.1797Y-2.2323
T4
X1.3421Y-1.0992
X1.4421Y-1.0992
X1.5421Y-1.0992
X1.6421Y-1.0992
T5
X4.3346Y-1.1772
X4.3898Y-3.556
X4.5315Y-1.1772
X4.5866Y-3.556
X4.7283Y-1.1772
X4.7835Y-3.556
X4.9252Y-1.1772
X4.9803Y-3.556
T6
X4.126Y-2.7756
X4.126Y-3.6654
T0
M30
