%TF.GenerationSoftware,KiCad,Pcbnew,(6.0.10)*%
%TF.CreationDate,2023-04-13T16:58:54-06:00*%
%TF.ProjectId,RC12,52433132-2e6b-4696-9361-645f70636258,rev?*%
%TF.SameCoordinates,Original*%
%TF.FileFunction,Copper,L1,Top*%
%TF.FilePolarity,Positive*%
%FSLAX46Y46*%
G04 Gerber Fmt 4.6, Leading zero omitted, Abs format (unit mm)*
G04 Created by KiCad (PCBNEW (6.0.10)) date 2023-04-13 16:58:54*
%MOMM*%
%LPD*%
G01*
G04 APERTURE LIST*
G04 Aperture macros list*
%AMRoundRect*
0 Rectangle with rounded corners*
0 $1 Rounding radius*
0 $2 $3 $4 $5 $6 $7 $8 $9 X,Y pos of 4 corners*
0 Add a 4 corners polygon primitive as box body*
4,1,4,$2,$3,$4,$5,$6,$7,$8,$9,$2,$3,0*
0 Add four circle primitives for the rounded corners*
1,1,$1+$1,$2,$3*
1,1,$1+$1,$4,$5*
1,1,$1+$1,$6,$7*
1,1,$1+$1,$8,$9*
0 Add four rect primitives between the rounded corners*
20,1,$1+$1,$2,$3,$4,$5,0*
20,1,$1+$1,$4,$5,$6,$7,0*
20,1,$1+$1,$6,$7,$8,$9,0*
20,1,$1+$1,$8,$9,$2,$3,0*%
G04 Aperture macros list end*
%TA.AperFunction,ComponentPad*%
%ADD10R,1.200000X1.200000*%
%TD*%
%TA.AperFunction,ComponentPad*%
%ADD11C,1.200000*%
%TD*%
%TA.AperFunction,ComponentPad*%
%ADD12R,1.700000X1.700000*%
%TD*%
%TA.AperFunction,ComponentPad*%
%ADD13O,1.700000X1.700000*%
%TD*%
%TA.AperFunction,ComponentPad*%
%ADD14C,1.600000*%
%TD*%
%TA.AperFunction,ComponentPad*%
%ADD15R,2.000000X2.000000*%
%TD*%
%TA.AperFunction,ComponentPad*%
%ADD16C,2.000000*%
%TD*%
%TA.AperFunction,ComponentPad*%
%ADD17R,2.600000X2.600000*%
%TD*%
%TA.AperFunction,ComponentPad*%
%ADD18C,2.600000*%
%TD*%
%TA.AperFunction,ComponentPad*%
%ADD19R,1.308000X1.308000*%
%TD*%
%TA.AperFunction,ComponentPad*%
%ADD20C,1.308000*%
%TD*%
%TA.AperFunction,ComponentPad*%
%ADD21O,1.600000X1.600000*%
%TD*%
%TA.AperFunction,ComponentPad*%
%ADD22R,2.250000X2.250000*%
%TD*%
%TA.AperFunction,ComponentPad*%
%ADD23C,2.250000*%
%TD*%
%TA.AperFunction,ComponentPad*%
%ADD24C,1.590000*%
%TD*%
%TA.AperFunction,ComponentPad*%
%ADD25RoundRect,0.250000X-0.620000X-0.845000X0.620000X-0.845000X0.620000X0.845000X-0.620000X0.845000X0*%
%TD*%
%TA.AperFunction,ComponentPad*%
%ADD26O,1.740000X2.190000*%
%TD*%
%TA.AperFunction,Conductor*%
%ADD27C,0.508000*%
%TD*%
%TA.AperFunction,Conductor*%
%ADD28C,2.032000*%
%TD*%
%TA.AperFunction,Conductor*%
%ADD29C,1.270000*%
%TD*%
%TA.AperFunction,Conductor*%
%ADD30C,0.254000*%
%TD*%
G04 APERTURE END LIST*
D10*
%TO.P,U1,1*%
%TO.N,Net-(R1-Pad1)*%
X81510000Y-43570000D03*
D11*
%TO.P,U1,2*%
%TO.N,GND*%
X81510000Y-41030000D03*
%TO.P,U1,3*%
X73890000Y-41030000D03*
%TO.P,U1,4*%
%TO.N,RPM*%
X73890000Y-43570000D03*
%TD*%
D12*
%TO.P,J2,1,Pin_1*%
%TO.N,unconnected-(J2-Pad1)*%
X64280000Y-48700000D03*
D13*
%TO.P,J2,2,Pin_2*%
%TO.N,GND*%
X61740000Y-48700000D03*
%TO.P,J2,3,Pin_3*%
%TO.N,unconnected-(J2-Pad3)*%
X59200000Y-48700000D03*
%TO.P,J2,4,Pin_4*%
%TO.N,+5V*%
X56660000Y-48700000D03*
%TO.P,J2,5,Pin_5*%
%TO.N,unconnected-(J2-Pad5)*%
X54120000Y-48700000D03*
%TO.P,J2,6,Pin_6*%
%TO.N,unconnected-(J2-Pad6)*%
X51580000Y-48700000D03*
%TO.P,J2,7,Pin_7*%
%TO.N,Net-(J2-Pad7)*%
X49040000Y-48700000D03*
%TO.P,J2,8,Pin_8*%
%TO.N,Net-(J2-Pad8)*%
X46500000Y-48700000D03*
%TO.P,J2,9,Pin_9*%
%TO.N,unconnected-(J2-Pad9)*%
X43960000Y-48700000D03*
%TO.P,J2,10,Pin_10*%
%TO.N,unconnected-(J2-Pad10)*%
X41420000Y-48700000D03*
%TO.P,J2,11,Pin_11*%
%TO.N,unconnected-(J2-Pad11)*%
X38880000Y-48700000D03*
%TO.P,J2,12,Pin_12*%
%TO.N,unconnected-(J2-Pad12)*%
X36340000Y-48700000D03*
%TO.P,J2,13,Pin_13*%
%TO.N,unconnected-(J2-Pad13)*%
X33800000Y-48700000D03*
%TO.P,J2,14,Pin_14*%
%TO.N,unconnected-(J2-Pad14)*%
X31260000Y-48700000D03*
%TO.P,J2,15,Pin_15*%
%TO.N,unconnected-(J2-Pad15)*%
X28720000Y-48700000D03*
%TD*%
D14*
%TO.P,C3,1*%
%TO.N,Net-(C3-Pad1)*%
X111200000Y-64050000D03*
%TO.P,C3,2*%
%TO.N,GND*%
X111200000Y-66550000D03*
%TD*%
D12*
%TO.P,J1,1,Pin_1*%
%TO.N,unconnected-(J1-Pad1)*%
X64230000Y-33490000D03*
D13*
%TO.P,J1,2,Pin_2*%
%TO.N,unconnected-(J1-Pad2)*%
X61690000Y-33490000D03*
%TO.P,J1,3,Pin_3*%
%TO.N,unconnected-(J1-Pad3)*%
X59150000Y-33490000D03*
%TO.P,J1,4,Pin_4*%
%TO.N,GND*%
X56610000Y-33490000D03*
%TO.P,J1,5,Pin_5*%
%TO.N,unconnected-(J1-Pad5)*%
X54070000Y-33490000D03*
%TO.P,J1,6,Pin_6*%
%TO.N,RPM*%
X51530000Y-33490000D03*
%TO.P,J1,7,Pin_7*%
%TO.N,unconnected-(J1-Pad7)*%
X48990000Y-33490000D03*
%TO.P,J1,8,Pin_8*%
%TO.N,unconnected-(J1-Pad8)*%
X46450000Y-33490000D03*
%TO.P,J1,9,Pin_9*%
%TO.N,Dir*%
X43910000Y-33490000D03*
%TO.P,J1,10,Pin_10*%
%TO.N,unconnected-(J1-Pad10)*%
X41370000Y-33490000D03*
%TO.P,J1,11,Pin_11*%
%TO.N,unconnected-(J1-Pad11)*%
X38830000Y-33490000D03*
%TO.P,J1,12,Pin_12*%
%TO.N,PWM*%
X36290000Y-33490000D03*
%TO.P,J1,13,Pin_13*%
%TO.N,unconnected-(J1-Pad13)*%
X33750000Y-33490000D03*
%TO.P,J1,14,Pin_14*%
%TO.N,unconnected-(J1-Pad14)*%
X31210000Y-33490000D03*
%TO.P,J1,15,Pin_15*%
%TO.N,unconnected-(J1-Pad15)*%
X28670000Y-33490000D03*
%TD*%
D15*
%TO.P,C4,1*%
%TO.N,Net-(C3-Pad1)*%
X109348000Y-56700000D03*
D16*
%TO.P,C4,2*%
%TO.N,GND*%
X104348000Y-56700000D03*
%TD*%
D17*
%TO.P,J5,1,Pin_1*%
%TO.N,GND*%
X110100000Y-29900000D03*
D18*
%TO.P,J5,2,Pin_2*%
X115100000Y-29900000D03*
%TO.P,J5,3,Pin_3*%
%TO.N,+5V*%
X120100000Y-29900000D03*
%TO.P,J5,4,Pin_4*%
%TO.N,RPM Sensor*%
X125100000Y-29900000D03*
%TD*%
D15*
%TO.P,C1,1*%
%TO.N,+5V*%
X126564646Y-56700000D03*
D16*
%TO.P,C1,2*%
%TO.N,GND*%
X131564646Y-56700000D03*
%TD*%
D14*
%TO.P,C2,1*%
%TO.N,+5V*%
X124800000Y-63950000D03*
%TO.P,C2,2*%
%TO.N,GND*%
X124800000Y-66450000D03*
%TD*%
%TO.P,C5,1*%
%TO.N,GND*%
X56800000Y-42650000D03*
%TO.P,C5,2*%
%TO.N,+5V*%
X56800000Y-45150000D03*
%TD*%
D17*
%TO.P,J4,1,Pin_1*%
%TO.N,GND*%
X126500000Y-90322000D03*
D18*
%TO.P,J4,2,Pin_2*%
%TO.N,+12V*%
X121500000Y-90322000D03*
%TO.P,J4,3,Pin_3*%
X116500000Y-90322000D03*
%TO.P,J4,4,Pin_4*%
X111500000Y-90322000D03*
%TD*%
D19*
%TO.P,J6,1,Yellow*%
%TO.N,Dir*%
X47600000Y-26900000D03*
D20*
%TO.P,J6,2,White*%
%TO.N,PWM*%
X49600000Y-26900000D03*
%TO.P,J6,3,Red*%
%TO.N,unconnected-(J6-Pad3)*%
X51600000Y-26900000D03*
%TO.P,J6,4,Black*%
%TO.N,GND*%
X53600000Y-26900000D03*
%TD*%
D14*
%TO.P,R1,1*%
%TO.N,Net-(R1-Pad1)*%
X96500000Y-46380000D03*
D21*
%TO.P,R1,2*%
%TO.N,Net-(J3-Pad1)*%
X96500000Y-36220000D03*
%TD*%
D12*
%TO.P,J7,1,Pin_1*%
%TO.N,Net-(J2-Pad7)*%
X79100000Y-26900000D03*
D13*
%TO.P,J7,2,Pin_2*%
%TO.N,Net-(J2-Pad8)*%
X81640000Y-26900000D03*
%TO.P,J7,3,Pin_3*%
%TO.N,+5V*%
X84180000Y-26900000D03*
%TO.P,J7,4,Pin_4*%
X86720000Y-26900000D03*
%TO.P,J7,5,Pin_5*%
%TO.N,GND*%
X89260000Y-26900000D03*
%TO.P,J7,6,Pin_6*%
X91800000Y-26900000D03*
%TD*%
D12*
%TO.P,J3,1,Pin_1*%
%TO.N,Net-(J3-Pad1)*%
X96960000Y-31100000D03*
D13*
%TO.P,J3,2,Pin_2*%
%TO.N,RPM Sensor*%
X99500000Y-31100000D03*
%TO.P,J3,3,Pin_3*%
%TO.N,Net-(J3-Pad3)*%
X102040000Y-31100000D03*
%TD*%
D14*
%TO.P,R2,1*%
%TO.N,Net-(R1-Pad1)*%
X101900000Y-46380000D03*
D21*
%TO.P,R2,2*%
%TO.N,Net-(J3-Pad3)*%
X101900000Y-36220000D03*
%TD*%
D22*
%TO.P,D1,1,C*%
%TO.N,Net-(C3-Pad1)*%
X104800000Y-70500000D03*
D23*
%TO.P,D1,2,A*%
%TO.N,+12V*%
X104800000Y-93100000D03*
%TD*%
D24*
%TO.P,RG1,1,Vin*%
%TO.N,Net-(C3-Pad1)*%
X115288123Y-60175000D03*
%TO.P,RG1,2,GND*%
%TO.N,GND*%
X117828123Y-60175000D03*
%TO.P,RG1,3,Vout*%
%TO.N,+5V*%
X120368123Y-60175000D03*
%TD*%
D25*
%TO.P,J8,1,Pin_1*%
%TO.N,Dir*%
X34090000Y-27920000D03*
D26*
%TO.P,J8,2,Pin_2*%
%TO.N,PWM*%
X36630000Y-27920000D03*
%TO.P,J8,3,Pin_3*%
%TO.N,unconnected-(J8-Pad3)*%
X39170000Y-27920000D03*
%TO.P,J8,4,Pin_4*%
%TO.N,GND*%
X41710000Y-27920000D03*
%TD*%
D27*
%TO.N,RPM*%
X51530000Y-36030000D02*
X51530000Y-33490000D01*
X71970000Y-43570000D02*
X66400000Y-38000000D01*
X73890000Y-43570000D02*
X71970000Y-43570000D01*
X66400000Y-38000000D02*
X53500000Y-38000000D01*
X53500000Y-38000000D02*
X51530000Y-36030000D01*
%TO.N,Dir*%
X47600000Y-26900000D02*
X47600000Y-29800000D01*
X47071000Y-26371000D02*
X47600000Y-26900000D01*
X34090000Y-27920000D02*
X35639000Y-26371000D01*
X35639000Y-26371000D02*
X47071000Y-26371000D01*
X47600000Y-29800000D02*
X43910000Y-33490000D01*
%TO.N,PWM*%
X32766000Y-29966000D02*
X33500000Y-30700000D01*
X32766000Y-26783394D02*
X32766000Y-29966000D01*
X33850000Y-30700000D02*
X33500000Y-30700000D01*
X36630000Y-27920000D02*
X33850000Y-30700000D01*
X48300000Y-25600000D02*
X49600000Y-26900000D01*
X33500000Y-30700000D02*
X36290000Y-33490000D01*
X33949394Y-25600000D02*
X48300000Y-25600000D01*
X32766000Y-26783394D02*
X33949394Y-25600000D01*
D28*
%TO.N,+5V*%
X71487142Y-49535354D02*
X104735354Y-49535354D01*
X121025000Y-60175000D02*
X124800000Y-63950000D01*
X67101788Y-45150000D02*
X71487142Y-49535354D01*
X104735354Y-49535354D02*
X126564646Y-49535354D01*
X126564646Y-49535354D02*
X126564646Y-36364646D01*
X126564646Y-36364646D02*
X120100000Y-29900000D01*
X56660000Y-45290000D02*
X56800000Y-45150000D01*
D29*
X84180000Y-26900000D02*
X86720000Y-26900000D01*
X86720000Y-30920000D02*
X86720000Y-26900000D01*
X96400000Y-40600000D02*
X86720000Y-30920000D01*
D28*
X120368123Y-60175000D02*
X121025000Y-60175000D01*
X126564646Y-56700000D02*
X126564646Y-49535354D01*
D29*
X99500000Y-40600000D02*
X104735354Y-45835354D01*
D28*
X56800000Y-45150000D02*
X67101788Y-45150000D01*
X126564646Y-56700000D02*
X126564646Y-62185354D01*
X56660000Y-48700000D02*
X56660000Y-45290000D01*
D29*
X104735354Y-45835354D02*
X104735354Y-49535354D01*
X96400000Y-40600000D02*
X99500000Y-40600000D01*
D28*
X126564646Y-62185354D02*
X124800000Y-63950000D01*
%TO.N,Net-(C3-Pad1)*%
X109348000Y-56700000D02*
X109348000Y-62198000D01*
X104800000Y-61248000D02*
X109348000Y-56700000D01*
X109348000Y-62198000D02*
X111200000Y-64050000D01*
X111200000Y-64050000D02*
X111413123Y-64050000D01*
X104800000Y-70500000D02*
X104800000Y-61248000D01*
X111413123Y-64050000D02*
X115288123Y-60175000D01*
%TO.N,+12V*%
X111500000Y-90322000D02*
X107578000Y-90322000D01*
X116500000Y-90322000D02*
X111500000Y-90322000D01*
X121500000Y-90322000D02*
X116500000Y-90322000D01*
X107578000Y-90322000D02*
X104800000Y-93100000D01*
D27*
%TO.N,Net-(J3-Pad1)*%
X96500000Y-36220000D02*
X96500000Y-31560000D01*
X96500000Y-31560000D02*
X96960000Y-31100000D01*
D30*
%TO.N,Net-(J2-Pad7)*%
X79100000Y-28800000D02*
X79100000Y-26900000D01*
X76746499Y-31153501D02*
X79100000Y-28800000D01*
X52201969Y-31153501D02*
X76746499Y-31153501D01*
X49040000Y-48700000D02*
X50167000Y-47573000D01*
X50167000Y-47573000D02*
X50167000Y-33188470D01*
X50167000Y-33188470D02*
X52201969Y-31153501D01*
%TO.N,Net-(J2-Pad8)*%
X72600000Y-30700000D02*
X78300000Y-25000000D01*
X47627000Y-33188470D02*
X50115470Y-30700000D01*
X50115470Y-30700000D02*
X72600000Y-30700000D01*
X46500000Y-48700000D02*
X47627000Y-47573000D01*
X78300000Y-25000000D02*
X79740000Y-25000000D01*
X79740000Y-25000000D02*
X81640000Y-26900000D01*
X47627000Y-47573000D02*
X47627000Y-33188470D01*
D27*
%TO.N,RPM Sensor*%
X99500000Y-31100000D02*
X103800000Y-26800000D01*
X122200000Y-27000000D02*
X125100000Y-29900000D01*
X103800000Y-26800000D02*
X122200000Y-26800000D01*
X122200000Y-26800000D02*
X122200000Y-27000000D01*
%TO.N,Net-(J3-Pad3)*%
X101900000Y-31240000D02*
X102040000Y-31100000D01*
X101900000Y-36220000D02*
X101900000Y-31240000D01*
%TO.N,Net-(R1-Pad1)*%
X93690000Y-43570000D02*
X96500000Y-46380000D01*
X96500000Y-46380000D02*
X101900000Y-46380000D01*
X81510000Y-43570000D02*
X93690000Y-43570000D01*
%TD*%
M02*
