%TF.GenerationSoftware,KiCad,Pcbnew,(6.0.10)*%
%TF.CreationDate,2023-04-13T16:58:54-06:00*%
%TF.ProjectId,RC12,52433132-2e6b-4696-9361-645f70636258,rev?*%
%TF.SameCoordinates,Original*%
%TF.FileFunction,Copper,L2,Bot*%
%TF.FilePolarity,Positive*%
%FSLAX46Y46*%
G04 Gerber Fmt 4.6, Leading zero omitted, Abs format (unit mm)*
G04 Created by KiCad (PCBNEW (6.0.10)) date 2023-04-13 16:58:54*
%MOMM*%
%LPD*%
G01*
G04 APERTURE LIST*
G04 Aperture macros list*
%AMRoundRect*
0 Rectangle with rounded corners*
0 $1 Rounding radius*
0 $2 $3 $4 $5 $6 $7 $8 $9 X,Y pos of 4 corners*
0 Add a 4 corners polygon primitive as box body*
4,1,4,$2,$3,$4,$5,$6,$7,$8,$9,$2,$3,0*
0 Add four circle primitives for the rounded corners*
1,1,$1+$1,$2,$3*
1,1,$1+$1,$4,$5*
1,1,$1+$1,$6,$7*
1,1,$1+$1,$8,$9*
0 Add four rect primitives between the rounded corners*
20,1,$1+$1,$2,$3,$4,$5,0*
20,1,$1+$1,$4,$5,$6,$7,0*
20,1,$1+$1,$6,$7,$8,$9,0*
20,1,$1+$1,$8,$9,$2,$3,0*%
G04 Aperture macros list end*
%TA.AperFunction,ComponentPad*%
%ADD10R,1.200000X1.200000*%
%TD*%
%TA.AperFunction,ComponentPad*%
%ADD11C,1.200000*%
%TD*%
%TA.AperFunction,ComponentPad*%
%ADD12R,1.700000X1.700000*%
%TD*%
%TA.AperFunction,ComponentPad*%
%ADD13O,1.700000X1.700000*%
%TD*%
%TA.AperFunction,ComponentPad*%
%ADD14C,1.600000*%
%TD*%
%TA.AperFunction,ComponentPad*%
%ADD15R,2.000000X2.000000*%
%TD*%
%TA.AperFunction,ComponentPad*%
%ADD16C,2.000000*%
%TD*%
%TA.AperFunction,ComponentPad*%
%ADD17R,2.600000X2.600000*%
%TD*%
%TA.AperFunction,ComponentPad*%
%ADD18C,2.600000*%
%TD*%
%TA.AperFunction,ComponentPad*%
%ADD19R,1.308000X1.308000*%
%TD*%
%TA.AperFunction,ComponentPad*%
%ADD20C,1.308000*%
%TD*%
%TA.AperFunction,ComponentPad*%
%ADD21O,1.600000X1.600000*%
%TD*%
%TA.AperFunction,ComponentPad*%
%ADD22R,2.250000X2.250000*%
%TD*%
%TA.AperFunction,ComponentPad*%
%ADD23C,2.250000*%
%TD*%
%TA.AperFunction,ComponentPad*%
%ADD24C,1.590000*%
%TD*%
%TA.AperFunction,ComponentPad*%
%ADD25RoundRect,0.250000X-0.620000X-0.845000X0.620000X-0.845000X0.620000X0.845000X-0.620000X0.845000X0*%
%TD*%
%TA.AperFunction,ComponentPad*%
%ADD26O,1.740000X2.190000*%
%TD*%
G04 APERTURE END LIST*
D10*
%TO.P,U1,1*%
%TO.N,Net-(R1-Pad1)*%
X81510000Y-43570000D03*
D11*
%TO.P,U1,2*%
%TO.N,GND*%
X81510000Y-41030000D03*
%TO.P,U1,3*%
X73890000Y-41030000D03*
%TO.P,U1,4*%
%TO.N,RPM*%
X73890000Y-43570000D03*
%TD*%
D12*
%TO.P,J2,1,Pin_1*%
%TO.N,unconnected-(J2-Pad1)*%
X64280000Y-48700000D03*
D13*
%TO.P,J2,2,Pin_2*%
%TO.N,GND*%
X61740000Y-48700000D03*
%TO.P,J2,3,Pin_3*%
%TO.N,unconnected-(J2-Pad3)*%
X59200000Y-48700000D03*
%TO.P,J2,4,Pin_4*%
%TO.N,+5V*%
X56660000Y-48700000D03*
%TO.P,J2,5,Pin_5*%
%TO.N,unconnected-(J2-Pad5)*%
X54120000Y-48700000D03*
%TO.P,J2,6,Pin_6*%
%TO.N,unconnected-(J2-Pad6)*%
X51580000Y-48700000D03*
%TO.P,J2,7,Pin_7*%
%TO.N,Net-(J2-Pad7)*%
X49040000Y-48700000D03*
%TO.P,J2,8,Pin_8*%
%TO.N,Net-(J2-Pad8)*%
X46500000Y-48700000D03*
%TO.P,J2,9,Pin_9*%
%TO.N,unconnected-(J2-Pad9)*%
X43960000Y-48700000D03*
%TO.P,J2,10,Pin_10*%
%TO.N,unconnected-(J2-Pad10)*%
X41420000Y-48700000D03*
%TO.P,J2,11,Pin_11*%
%TO.N,unconnected-(J2-Pad11)*%
X38880000Y-48700000D03*
%TO.P,J2,12,Pin_12*%
%TO.N,unconnected-(J2-Pad12)*%
X36340000Y-48700000D03*
%TO.P,J2,13,Pin_13*%
%TO.N,unconnected-(J2-Pad13)*%
X33800000Y-48700000D03*
%TO.P,J2,14,Pin_14*%
%TO.N,unconnected-(J2-Pad14)*%
X31260000Y-48700000D03*
%TO.P,J2,15,Pin_15*%
%TO.N,unconnected-(J2-Pad15)*%
X28720000Y-48700000D03*
%TD*%
D14*
%TO.P,C3,1*%
%TO.N,Net-(C3-Pad1)*%
X111200000Y-64050000D03*
%TO.P,C3,2*%
%TO.N,GND*%
X111200000Y-66550000D03*
%TD*%
D12*
%TO.P,J1,1,Pin_1*%
%TO.N,unconnected-(J1-Pad1)*%
X64230000Y-33490000D03*
D13*
%TO.P,J1,2,Pin_2*%
%TO.N,unconnected-(J1-Pad2)*%
X61690000Y-33490000D03*
%TO.P,J1,3,Pin_3*%
%TO.N,unconnected-(J1-Pad3)*%
X59150000Y-33490000D03*
%TO.P,J1,4,Pin_4*%
%TO.N,GND*%
X56610000Y-33490000D03*
%TO.P,J1,5,Pin_5*%
%TO.N,unconnected-(J1-Pad5)*%
X54070000Y-33490000D03*
%TO.P,J1,6,Pin_6*%
%TO.N,RPM*%
X51530000Y-33490000D03*
%TO.P,J1,7,Pin_7*%
%TO.N,unconnected-(J1-Pad7)*%
X48990000Y-33490000D03*
%TO.P,J1,8,Pin_8*%
%TO.N,unconnected-(J1-Pad8)*%
X46450000Y-33490000D03*
%TO.P,J1,9,Pin_9*%
%TO.N,Dir*%
X43910000Y-33490000D03*
%TO.P,J1,10,Pin_10*%
%TO.N,unconnected-(J1-Pad10)*%
X41370000Y-33490000D03*
%TO.P,J1,11,Pin_11*%
%TO.N,unconnected-(J1-Pad11)*%
X38830000Y-33490000D03*
%TO.P,J1,12,Pin_12*%
%TO.N,PWM*%
X36290000Y-33490000D03*
%TO.P,J1,13,Pin_13*%
%TO.N,unconnected-(J1-Pad13)*%
X33750000Y-33490000D03*
%TO.P,J1,14,Pin_14*%
%TO.N,unconnected-(J1-Pad14)*%
X31210000Y-33490000D03*
%TO.P,J1,15,Pin_15*%
%TO.N,unconnected-(J1-Pad15)*%
X28670000Y-33490000D03*
%TD*%
D15*
%TO.P,C4,1*%
%TO.N,Net-(C3-Pad1)*%
X109348000Y-56700000D03*
D16*
%TO.P,C4,2*%
%TO.N,GND*%
X104348000Y-56700000D03*
%TD*%
D17*
%TO.P,J5,1,Pin_1*%
%TO.N,GND*%
X110100000Y-29900000D03*
D18*
%TO.P,J5,2,Pin_2*%
X115100000Y-29900000D03*
%TO.P,J5,3,Pin_3*%
%TO.N,+5V*%
X120100000Y-29900000D03*
%TO.P,J5,4,Pin_4*%
%TO.N,RPM Sensor*%
X125100000Y-29900000D03*
%TD*%
D15*
%TO.P,C1,1*%
%TO.N,+5V*%
X126564646Y-56700000D03*
D16*
%TO.P,C1,2*%
%TO.N,GND*%
X131564646Y-56700000D03*
%TD*%
D14*
%TO.P,C2,1*%
%TO.N,+5V*%
X124800000Y-63950000D03*
%TO.P,C2,2*%
%TO.N,GND*%
X124800000Y-66450000D03*
%TD*%
%TO.P,C5,1*%
%TO.N,GND*%
X56800000Y-42650000D03*
%TO.P,C5,2*%
%TO.N,+5V*%
X56800000Y-45150000D03*
%TD*%
D17*
%TO.P,J4,1,Pin_1*%
%TO.N,GND*%
X126500000Y-90322000D03*
D18*
%TO.P,J4,2,Pin_2*%
%TO.N,+12V*%
X121500000Y-90322000D03*
%TO.P,J4,3,Pin_3*%
X116500000Y-90322000D03*
%TO.P,J4,4,Pin_4*%
X111500000Y-90322000D03*
%TD*%
D19*
%TO.P,J6,1,Yellow*%
%TO.N,Dir*%
X47600000Y-26900000D03*
D20*
%TO.P,J6,2,White*%
%TO.N,PWM*%
X49600000Y-26900000D03*
%TO.P,J6,3,Red*%
%TO.N,unconnected-(J6-Pad3)*%
X51600000Y-26900000D03*
%TO.P,J6,4,Black*%
%TO.N,GND*%
X53600000Y-26900000D03*
%TD*%
D14*
%TO.P,R1,1*%
%TO.N,Net-(R1-Pad1)*%
X96500000Y-46380000D03*
D21*
%TO.P,R1,2*%
%TO.N,Net-(J3-Pad1)*%
X96500000Y-36220000D03*
%TD*%
D12*
%TO.P,J7,1,Pin_1*%
%TO.N,Net-(J2-Pad7)*%
X79100000Y-26900000D03*
D13*
%TO.P,J7,2,Pin_2*%
%TO.N,Net-(J2-Pad8)*%
X81640000Y-26900000D03*
%TO.P,J7,3,Pin_3*%
%TO.N,+5V*%
X84180000Y-26900000D03*
%TO.P,J7,4,Pin_4*%
X86720000Y-26900000D03*
%TO.P,J7,5,Pin_5*%
%TO.N,GND*%
X89260000Y-26900000D03*
%TO.P,J7,6,Pin_6*%
X91800000Y-26900000D03*
%TD*%
D12*
%TO.P,J3,1,Pin_1*%
%TO.N,Net-(J3-Pad1)*%
X96960000Y-31100000D03*
D13*
%TO.P,J3,2,Pin_2*%
%TO.N,RPM Sensor*%
X99500000Y-31100000D03*
%TO.P,J3,3,Pin_3*%
%TO.N,Net-(J3-Pad3)*%
X102040000Y-31100000D03*
%TD*%
D14*
%TO.P,R2,1*%
%TO.N,Net-(R1-Pad1)*%
X101900000Y-46380000D03*
D21*
%TO.P,R2,2*%
%TO.N,Net-(J3-Pad3)*%
X101900000Y-36220000D03*
%TD*%
D22*
%TO.P,D1,1,C*%
%TO.N,Net-(C3-Pad1)*%
X104800000Y-70500000D03*
D23*
%TO.P,D1,2,A*%
%TO.N,+12V*%
X104800000Y-93100000D03*
%TD*%
D24*
%TO.P,RG1,1,Vin*%
%TO.N,Net-(C3-Pad1)*%
X115288123Y-60175000D03*
%TO.P,RG1,2,GND*%
%TO.N,GND*%
X117828123Y-60175000D03*
%TO.P,RG1,3,Vout*%
%TO.N,+5V*%
X120368123Y-60175000D03*
%TD*%
D25*
%TO.P,J8,1,Pin_1*%
%TO.N,Dir*%
X34090000Y-27920000D03*
D26*
%TO.P,J8,2,Pin_2*%
%TO.N,PWM*%
X36630000Y-27920000D03*
%TO.P,J8,3,Pin_3*%
%TO.N,unconnected-(J8-Pad3)*%
X39170000Y-27920000D03*
%TO.P,J8,4,Pin_4*%
%TO.N,GND*%
X41710000Y-27920000D03*
%TD*%
%TA.AperFunction,Conductor*%
%TO.N,GND*%
G36*
X132970018Y-20510000D02*
G01*
X132984851Y-20512310D01*
X132984855Y-20512310D01*
X132993724Y-20513691D01*
X133008981Y-20511696D01*
X133034302Y-20510953D01*
X133203285Y-20523039D01*
X133221064Y-20525596D01*
X133411392Y-20566999D01*
X133428641Y-20572063D01*
X133611150Y-20640136D01*
X133627502Y-20647604D01*
X133798458Y-20740952D01*
X133813582Y-20750672D01*
X133953901Y-20855714D01*
X133967487Y-20867487D01*
X134132513Y-21032513D01*
X134144286Y-21046099D01*
X134249328Y-21186418D01*
X134259048Y-21201542D01*
X134352396Y-21372498D01*
X134359864Y-21388850D01*
X134427937Y-21571359D01*
X134433001Y-21588607D01*
X134474404Y-21778936D01*
X134476961Y-21796715D01*
X134488540Y-21958601D01*
X134487793Y-21976565D01*
X134487692Y-21984845D01*
X134486309Y-21993724D01*
X134487474Y-22002630D01*
X134490436Y-22025283D01*
X134491500Y-22041621D01*
X134491500Y-97950633D01*
X134490000Y-97970018D01*
X134487690Y-97984851D01*
X134487690Y-97984855D01*
X134486309Y-97993724D01*
X134488304Y-98008976D01*
X134489047Y-98034302D01*
X134481522Y-98139522D01*
X134476962Y-98203279D01*
X134474404Y-98221064D01*
X134456598Y-98302919D01*
X134433001Y-98411392D01*
X134427937Y-98428641D01*
X134394048Y-98519500D01*
X134367462Y-98562123D01*
X133632093Y-99338346D01*
X133584656Y-99369746D01*
X133428641Y-99427937D01*
X133411393Y-99433001D01*
X133221064Y-99474404D01*
X133203285Y-99476961D01*
X133041395Y-99488540D01*
X133023435Y-99487793D01*
X133015155Y-99487692D01*
X133006276Y-99486309D01*
X132974714Y-99490436D01*
X132958379Y-99491500D01*
X28074932Y-99491500D01*
X28006811Y-99471498D01*
X27983256Y-99451938D01*
X25542824Y-96863601D01*
X25510645Y-96800315D01*
X25508500Y-96777163D01*
X25508500Y-96632703D01*
X26390743Y-96632703D01*
X26428268Y-96917734D01*
X26504129Y-97195036D01*
X26616923Y-97459476D01*
X26764561Y-97706161D01*
X26944313Y-97930528D01*
X27152851Y-98128423D01*
X27386317Y-98296186D01*
X27390112Y-98298195D01*
X27390113Y-98298196D01*
X27411869Y-98309715D01*
X27640392Y-98430712D01*
X27664699Y-98439607D01*
X27883017Y-98519500D01*
X27910373Y-98529511D01*
X28191264Y-98590755D01*
X28219841Y-98593004D01*
X28414282Y-98608307D01*
X28414291Y-98608307D01*
X28416739Y-98608500D01*
X28572271Y-98608500D01*
X28574407Y-98608354D01*
X28574418Y-98608354D01*
X28782548Y-98594165D01*
X28782554Y-98594164D01*
X28786825Y-98593873D01*
X28791020Y-98593004D01*
X28791022Y-98593004D01*
X28940141Y-98562123D01*
X29068342Y-98535574D01*
X29339343Y-98439607D01*
X29594812Y-98307750D01*
X29598313Y-98305289D01*
X29598317Y-98305287D01*
X29712418Y-98225095D01*
X29830023Y-98142441D01*
X29983308Y-98000000D01*
X30037479Y-97949661D01*
X30037481Y-97949658D01*
X30040622Y-97946740D01*
X30222713Y-97724268D01*
X30372927Y-97479142D01*
X30488483Y-97215898D01*
X30567244Y-96939406D01*
X30607751Y-96654784D01*
X30607845Y-96636951D01*
X30607867Y-96632703D01*
X129390743Y-96632703D01*
X129428268Y-96917734D01*
X129504129Y-97195036D01*
X129616923Y-97459476D01*
X129764561Y-97706161D01*
X129944313Y-97930528D01*
X130152851Y-98128423D01*
X130386317Y-98296186D01*
X130390112Y-98298195D01*
X130390113Y-98298196D01*
X130411869Y-98309715D01*
X130640392Y-98430712D01*
X130664699Y-98439607D01*
X130883017Y-98519500D01*
X130910373Y-98529511D01*
X131191264Y-98590755D01*
X131219841Y-98593004D01*
X131414282Y-98608307D01*
X131414291Y-98608307D01*
X131416739Y-98608500D01*
X131572271Y-98608500D01*
X131574407Y-98608354D01*
X131574418Y-98608354D01*
X131782548Y-98594165D01*
X131782554Y-98594164D01*
X131786825Y-98593873D01*
X131791020Y-98593004D01*
X131791022Y-98593004D01*
X131940141Y-98562123D01*
X132068342Y-98535574D01*
X132339343Y-98439607D01*
X132594812Y-98307750D01*
X132598313Y-98305289D01*
X132598317Y-98305287D01*
X132712418Y-98225095D01*
X132830023Y-98142441D01*
X132983308Y-98000000D01*
X133037479Y-97949661D01*
X133037481Y-97949658D01*
X133040622Y-97946740D01*
X133222713Y-97724268D01*
X133372927Y-97479142D01*
X133488483Y-97215898D01*
X133567244Y-96939406D01*
X133607751Y-96654784D01*
X133607845Y-96636951D01*
X133609235Y-96371583D01*
X133609235Y-96371576D01*
X133609257Y-96367297D01*
X133571732Y-96082266D01*
X133495871Y-95804964D01*
X133383077Y-95540524D01*
X133235439Y-95293839D01*
X133055687Y-95069472D01*
X132847149Y-94871577D01*
X132613683Y-94703814D01*
X132591843Y-94692250D01*
X132524249Y-94656461D01*
X132359608Y-94569288D01*
X132089627Y-94470489D01*
X131808736Y-94409245D01*
X131777685Y-94406801D01*
X131585718Y-94391693D01*
X131585709Y-94391693D01*
X131583261Y-94391500D01*
X131427729Y-94391500D01*
X131425593Y-94391646D01*
X131425582Y-94391646D01*
X131217452Y-94405835D01*
X131217446Y-94405836D01*
X131213175Y-94406127D01*
X131208980Y-94406996D01*
X131208978Y-94406996D01*
X131106588Y-94428200D01*
X130931658Y-94464426D01*
X130660657Y-94560393D01*
X130656848Y-94562359D01*
X130470859Y-94658355D01*
X130405188Y-94692250D01*
X130401687Y-94694711D01*
X130401683Y-94694713D01*
X130339860Y-94738163D01*
X130169977Y-94857559D01*
X129959378Y-95053260D01*
X129777287Y-95275732D01*
X129627073Y-95520858D01*
X129511517Y-95784102D01*
X129432756Y-96060594D01*
X129392249Y-96345216D01*
X129392227Y-96349505D01*
X129392226Y-96349512D01*
X129390765Y-96628417D01*
X129390743Y-96632703D01*
X30607867Y-96632703D01*
X30609235Y-96371583D01*
X30609235Y-96371576D01*
X30609257Y-96367297D01*
X30571732Y-96082266D01*
X30495871Y-95804964D01*
X30383077Y-95540524D01*
X30235439Y-95293839D01*
X30055687Y-95069472D01*
X29847149Y-94871577D01*
X29613683Y-94703814D01*
X29591843Y-94692250D01*
X29524249Y-94656461D01*
X29359608Y-94569288D01*
X29089627Y-94470489D01*
X28808736Y-94409245D01*
X28777685Y-94406801D01*
X28585718Y-94391693D01*
X28585709Y-94391693D01*
X28583261Y-94391500D01*
X28427729Y-94391500D01*
X28425593Y-94391646D01*
X28425582Y-94391646D01*
X28217452Y-94405835D01*
X28217446Y-94405836D01*
X28213175Y-94406127D01*
X28208980Y-94406996D01*
X28208978Y-94406996D01*
X28106588Y-94428200D01*
X27931658Y-94464426D01*
X27660657Y-94560393D01*
X27656848Y-94562359D01*
X27470859Y-94658355D01*
X27405188Y-94692250D01*
X27401687Y-94694711D01*
X27401683Y-94694713D01*
X27339860Y-94738163D01*
X27169977Y-94857559D01*
X26959378Y-95053260D01*
X26777287Y-95275732D01*
X26627073Y-95520858D01*
X26511517Y-95784102D01*
X26432756Y-96060594D01*
X26392249Y-96345216D01*
X26392227Y-96349505D01*
X26392226Y-96349512D01*
X26390765Y-96628417D01*
X26390743Y-96632703D01*
X25508500Y-96632703D01*
X25508500Y-93100000D01*
X103161449Y-93100000D01*
X103181622Y-93356326D01*
X103241645Y-93606340D01*
X103340040Y-93843887D01*
X103474384Y-94063116D01*
X103641369Y-94258631D01*
X103836884Y-94425616D01*
X104056113Y-94559960D01*
X104060683Y-94561853D01*
X104060687Y-94561855D01*
X104289087Y-94656461D01*
X104293660Y-94658355D01*
X104380502Y-94679204D01*
X104538861Y-94717223D01*
X104538867Y-94717224D01*
X104543674Y-94718378D01*
X104800000Y-94738551D01*
X105056326Y-94718378D01*
X105061133Y-94717224D01*
X105061139Y-94717223D01*
X105219498Y-94679204D01*
X105306340Y-94658355D01*
X105310913Y-94656461D01*
X105539313Y-94561855D01*
X105539317Y-94561853D01*
X105543887Y-94559960D01*
X105763116Y-94425616D01*
X105958631Y-94258631D01*
X106125616Y-94063116D01*
X106259960Y-93843887D01*
X106358355Y-93606340D01*
X106418378Y-93356326D01*
X106438551Y-93100000D01*
X106418378Y-92843674D01*
X106415457Y-92831504D01*
X106368914Y-92637641D01*
X106358355Y-92593660D01*
X106316942Y-92493679D01*
X106261855Y-92360687D01*
X106261853Y-92360683D01*
X106259960Y-92356113D01*
X106125616Y-92136884D01*
X105958631Y-91941369D01*
X105763116Y-91774384D01*
X105543887Y-91640040D01*
X105539317Y-91638147D01*
X105539313Y-91638145D01*
X105310913Y-91543539D01*
X105310911Y-91543538D01*
X105306340Y-91541645D01*
X105219498Y-91520796D01*
X105061139Y-91482777D01*
X105061133Y-91482776D01*
X105056326Y-91481622D01*
X104800000Y-91461449D01*
X104543674Y-91481622D01*
X104538867Y-91482776D01*
X104538861Y-91482777D01*
X104380502Y-91520796D01*
X104293660Y-91541645D01*
X104289089Y-91543538D01*
X104289087Y-91543539D01*
X104060687Y-91638145D01*
X104060683Y-91638147D01*
X104056113Y-91640040D01*
X103836884Y-91774384D01*
X103641369Y-91941369D01*
X103474384Y-92136884D01*
X103340040Y-92356113D01*
X103338147Y-92360683D01*
X103338145Y-92360687D01*
X103283058Y-92493679D01*
X103241645Y-92593660D01*
X103231086Y-92637641D01*
X103184544Y-92831504D01*
X103181622Y-92843674D01*
X103161449Y-93100000D01*
X25508500Y-93100000D01*
X25508500Y-90832703D01*
X26590743Y-90832703D01*
X26591302Y-90836947D01*
X26591302Y-90836951D01*
X26599278Y-90897536D01*
X26628268Y-91117734D01*
X26704129Y-91395036D01*
X26705813Y-91398984D01*
X26808633Y-91640040D01*
X26816923Y-91659476D01*
X26855750Y-91724351D01*
X26938235Y-91862173D01*
X26964561Y-91906161D01*
X27144313Y-92130528D01*
X27352851Y-92328423D01*
X27586317Y-92496186D01*
X27590112Y-92498195D01*
X27590113Y-92498196D01*
X27611869Y-92509715D01*
X27840392Y-92630712D01*
X28110373Y-92729511D01*
X28391264Y-92790755D01*
X28419841Y-92793004D01*
X28614282Y-92808307D01*
X28614291Y-92808307D01*
X28616739Y-92808500D01*
X28772271Y-92808500D01*
X28774407Y-92808354D01*
X28774418Y-92808354D01*
X28982548Y-92794165D01*
X28982554Y-92794164D01*
X28986825Y-92793873D01*
X28991020Y-92793004D01*
X28991022Y-92793004D01*
X29127584Y-92764723D01*
X29268342Y-92735574D01*
X29539343Y-92639607D01*
X29794812Y-92507750D01*
X29798313Y-92505289D01*
X29798317Y-92505287D01*
X29912418Y-92425095D01*
X30030023Y-92342441D01*
X30213466Y-92171975D01*
X30237479Y-92149661D01*
X30237481Y-92149658D01*
X30240622Y-92146740D01*
X30422713Y-91924268D01*
X30572927Y-91679142D01*
X30590924Y-91638145D01*
X30686757Y-91419830D01*
X30688483Y-91415898D01*
X30767244Y-91139406D01*
X30805414Y-90871203D01*
X39592243Y-90871203D01*
X39592802Y-90875447D01*
X39592802Y-90875451D01*
X39609310Y-91000840D01*
X39629768Y-91156234D01*
X39705629Y-91433536D01*
X39707313Y-91437484D01*
X39810390Y-91679142D01*
X39818423Y-91697976D01*
X39874497Y-91791669D01*
X39962168Y-91938156D01*
X39966061Y-91944661D01*
X40145813Y-92169028D01*
X40162897Y-92185240D01*
X40347780Y-92360687D01*
X40354351Y-92366923D01*
X40587817Y-92534686D01*
X40591612Y-92536695D01*
X40591613Y-92536696D01*
X40613369Y-92548215D01*
X40841892Y-92669212D01*
X41111873Y-92768011D01*
X41392764Y-92829255D01*
X41421341Y-92831504D01*
X41615782Y-92846807D01*
X41615791Y-92846807D01*
X41618239Y-92847000D01*
X41773771Y-92847000D01*
X41775907Y-92846854D01*
X41775918Y-92846854D01*
X41984048Y-92832665D01*
X41984054Y-92832664D01*
X41988325Y-92832373D01*
X41992520Y-92831504D01*
X41992522Y-92831504D01*
X42129083Y-92803224D01*
X42269842Y-92774074D01*
X42540843Y-92678107D01*
X42796312Y-92546250D01*
X42799813Y-92543789D01*
X42799817Y-92543787D01*
X42913918Y-92463595D01*
X43031523Y-92380941D01*
X43242122Y-92185240D01*
X43424213Y-91962768D01*
X43574427Y-91717642D01*
X43620795Y-91612014D01*
X43688257Y-91458330D01*
X43689983Y-91454398D01*
X43768744Y-91177906D01*
X43809251Y-90893284D01*
X43809345Y-90875465D01*
X43809569Y-90832703D01*
X95590743Y-90832703D01*
X95591303Y-90836959D01*
X95591573Y-90841239D01*
X95591549Y-90841240D01*
X95592335Y-90853725D01*
X95592243Y-90871203D01*
X95629768Y-91156234D01*
X95705629Y-91433536D01*
X95707313Y-91437484D01*
X95810390Y-91679142D01*
X95818423Y-91697976D01*
X95874497Y-91791669D01*
X95962168Y-91938156D01*
X95966061Y-91944661D01*
X96145813Y-92169028D01*
X96162897Y-92185240D01*
X96347780Y-92360687D01*
X96354351Y-92366923D01*
X96587817Y-92534686D01*
X96591612Y-92536695D01*
X96591613Y-92536696D01*
X96613369Y-92548215D01*
X96841892Y-92669212D01*
X97111873Y-92768011D01*
X97392764Y-92829255D01*
X97421341Y-92831504D01*
X97615782Y-92846807D01*
X97615791Y-92846807D01*
X97618239Y-92847000D01*
X97773771Y-92847000D01*
X97775907Y-92846854D01*
X97775918Y-92846854D01*
X97984048Y-92832665D01*
X97984054Y-92832664D01*
X97988325Y-92832373D01*
X97992520Y-92831504D01*
X97992522Y-92831504D01*
X98129083Y-92803224D01*
X98269842Y-92774074D01*
X98540843Y-92678107D01*
X98796312Y-92546250D01*
X98799813Y-92543789D01*
X98799817Y-92543787D01*
X98913918Y-92463595D01*
X99031523Y-92380941D01*
X99242122Y-92185240D01*
X99424213Y-91962768D01*
X99574427Y-91717642D01*
X99620795Y-91612014D01*
X99688257Y-91458330D01*
X99689983Y-91454398D01*
X99768744Y-91177906D01*
X99809251Y-90893284D01*
X99809345Y-90875465D01*
X99810735Y-90610090D01*
X99810735Y-90610083D01*
X99810757Y-90605797D01*
X99810197Y-90601541D01*
X99809927Y-90597261D01*
X99809951Y-90597260D01*
X99809165Y-90584773D01*
X99809234Y-90571597D01*
X99809257Y-90567297D01*
X99771732Y-90282266D01*
X99769615Y-90274526D01*
X109687050Y-90274526D01*
X109687274Y-90279192D01*
X109687274Y-90279197D01*
X109689482Y-90325160D01*
X109699947Y-90543019D01*
X109752388Y-90806656D01*
X109843220Y-91059646D01*
X109845432Y-91063762D01*
X109845433Y-91063765D01*
X109904482Y-91173659D01*
X109970450Y-91296431D01*
X109973241Y-91300168D01*
X109973245Y-91300175D01*
X110057820Y-91413434D01*
X110131281Y-91511810D01*
X110134590Y-91515090D01*
X110134595Y-91515096D01*
X110294374Y-91673486D01*
X110322180Y-91701050D01*
X110325942Y-91703808D01*
X110325945Y-91703811D01*
X110418671Y-91771800D01*
X110538954Y-91859995D01*
X110543089Y-91862171D01*
X110543093Y-91862173D01*
X110740598Y-91966086D01*
X110776840Y-91985154D01*
X111030613Y-92073775D01*
X111035206Y-92074647D01*
X111290109Y-92123042D01*
X111290112Y-92123042D01*
X111294698Y-92123913D01*
X111422370Y-92128929D01*
X111558625Y-92134283D01*
X111558630Y-92134283D01*
X111563293Y-92134466D01*
X111667607Y-92123042D01*
X111825844Y-92105713D01*
X111825850Y-92105712D01*
X111830497Y-92105203D01*
X111943985Y-92075324D01*
X112085918Y-92037956D01*
X112085920Y-92037955D01*
X112090441Y-92036765D01*
X112198626Y-91990285D01*
X112333120Y-91932502D01*
X112333122Y-91932501D01*
X112337414Y-91930657D01*
X112456071Y-91857230D01*
X112562017Y-91791669D01*
X112562021Y-91791666D01*
X112565990Y-91789210D01*
X112771149Y-91615530D01*
X112948382Y-91413434D01*
X112962879Y-91390897D01*
X113091269Y-91191291D01*
X113093797Y-91187361D01*
X113204199Y-90942278D01*
X113233904Y-90836951D01*
X113275893Y-90688072D01*
X113275894Y-90688069D01*
X113277163Y-90683568D01*
X113289319Y-90588012D01*
X113310688Y-90420045D01*
X113310688Y-90420041D01*
X113311086Y-90416915D01*
X113313571Y-90322000D01*
X113313337Y-90318851D01*
X113310043Y-90274526D01*
X114687050Y-90274526D01*
X114687274Y-90279192D01*
X114687274Y-90279197D01*
X114689482Y-90325160D01*
X114699947Y-90543019D01*
X114752388Y-90806656D01*
X114843220Y-91059646D01*
X114845432Y-91063762D01*
X114845433Y-91063765D01*
X114904482Y-91173659D01*
X114970450Y-91296431D01*
X114973241Y-91300168D01*
X114973245Y-91300175D01*
X115057820Y-91413434D01*
X115131281Y-91511810D01*
X115134590Y-91515090D01*
X115134595Y-91515096D01*
X115294374Y-91673486D01*
X115322180Y-91701050D01*
X115325942Y-91703808D01*
X115325945Y-91703811D01*
X115418671Y-91771800D01*
X115538954Y-91859995D01*
X115543089Y-91862171D01*
X115543093Y-91862173D01*
X115740598Y-91966086D01*
X115776840Y-91985154D01*
X116030613Y-92073775D01*
X116035206Y-92074647D01*
X116290109Y-92123042D01*
X116290112Y-92123042D01*
X116294698Y-92123913D01*
X116422370Y-92128929D01*
X116558625Y-92134283D01*
X116558630Y-92134283D01*
X116563293Y-92134466D01*
X116667607Y-92123042D01*
X116825844Y-92105713D01*
X116825850Y-92105712D01*
X116830497Y-92105203D01*
X116943985Y-92075324D01*
X117085918Y-92037956D01*
X117085920Y-92037955D01*
X117090441Y-92036765D01*
X117198626Y-91990285D01*
X117333120Y-91932502D01*
X117333122Y-91932501D01*
X117337414Y-91930657D01*
X117456071Y-91857230D01*
X117562017Y-91791669D01*
X117562021Y-91791666D01*
X117565990Y-91789210D01*
X117771149Y-91615530D01*
X117948382Y-91413434D01*
X117962879Y-91390897D01*
X118091269Y-91191291D01*
X118093797Y-91187361D01*
X118204199Y-90942278D01*
X118233904Y-90836951D01*
X118275893Y-90688072D01*
X118275894Y-90688069D01*
X118277163Y-90683568D01*
X118289319Y-90588012D01*
X118310688Y-90420045D01*
X118310688Y-90420041D01*
X118311086Y-90416915D01*
X118313571Y-90322000D01*
X118313337Y-90318851D01*
X118310043Y-90274526D01*
X119687050Y-90274526D01*
X119687274Y-90279192D01*
X119687274Y-90279197D01*
X119689482Y-90325160D01*
X119699947Y-90543019D01*
X119752388Y-90806656D01*
X119843220Y-91059646D01*
X119845432Y-91063762D01*
X119845433Y-91063765D01*
X119904482Y-91173659D01*
X119970450Y-91296431D01*
X119973241Y-91300168D01*
X119973245Y-91300175D01*
X120057820Y-91413434D01*
X120131281Y-91511810D01*
X120134590Y-91515090D01*
X120134595Y-91515096D01*
X120294374Y-91673486D01*
X120322180Y-91701050D01*
X120325942Y-91703808D01*
X120325945Y-91703811D01*
X120418671Y-91771800D01*
X120538954Y-91859995D01*
X120543089Y-91862171D01*
X120543093Y-91862173D01*
X120740598Y-91966086D01*
X120776840Y-91985154D01*
X121030613Y-92073775D01*
X121035206Y-92074647D01*
X121290109Y-92123042D01*
X121290112Y-92123042D01*
X121294698Y-92123913D01*
X121422370Y-92128929D01*
X121558625Y-92134283D01*
X121558630Y-92134283D01*
X121563293Y-92134466D01*
X121667607Y-92123042D01*
X121825844Y-92105713D01*
X121825850Y-92105712D01*
X121830497Y-92105203D01*
X121943985Y-92075324D01*
X122085918Y-92037956D01*
X122085920Y-92037955D01*
X122090441Y-92036765D01*
X122198626Y-91990285D01*
X122333120Y-91932502D01*
X122333122Y-91932501D01*
X122337414Y-91930657D01*
X122456071Y-91857230D01*
X122562017Y-91791669D01*
X122562021Y-91791666D01*
X122565990Y-91789210D01*
X122710741Y-91666669D01*
X124692001Y-91666669D01*
X124692371Y-91673490D01*
X124697895Y-91724352D01*
X124701521Y-91739604D01*
X124746676Y-91860054D01*
X124755214Y-91875649D01*
X124831715Y-91977724D01*
X124844276Y-91990285D01*
X124946351Y-92066786D01*
X124961946Y-92075324D01*
X125082394Y-92120478D01*
X125097649Y-92124105D01*
X125148514Y-92129631D01*
X125155328Y-92130000D01*
X126227885Y-92130000D01*
X126243124Y-92125525D01*
X126244329Y-92124135D01*
X126246000Y-92116452D01*
X126246000Y-92111884D01*
X126754000Y-92111884D01*
X126758475Y-92127123D01*
X126759865Y-92128328D01*
X126767548Y-92129999D01*
X127844669Y-92129999D01*
X127851490Y-92129629D01*
X127902352Y-92124105D01*
X127917604Y-92120479D01*
X128038054Y-92075324D01*
X128053649Y-92066786D01*
X128155724Y-91990285D01*
X128168285Y-91977724D01*
X128244786Y-91875649D01*
X128253324Y-91860054D01*
X128298478Y-91739606D01*
X128302105Y-91724351D01*
X128307631Y-91673486D01*
X128308000Y-91666672D01*
X128308000Y-90594115D01*
X128303525Y-90578876D01*
X128302135Y-90577671D01*
X128294452Y-90576000D01*
X126772115Y-90576000D01*
X126756876Y-90580475D01*
X126755671Y-90581865D01*
X126754000Y-90589548D01*
X126754000Y-92111884D01*
X126246000Y-92111884D01*
X126246000Y-90594115D01*
X126241525Y-90578876D01*
X126240135Y-90577671D01*
X126232452Y-90576000D01*
X124710116Y-90576000D01*
X124694877Y-90580475D01*
X124693672Y-90581865D01*
X124692001Y-90589548D01*
X124692001Y-91666669D01*
X122710741Y-91666669D01*
X122771149Y-91615530D01*
X122948382Y-91413434D01*
X122962879Y-91390897D01*
X123091269Y-91191291D01*
X123093797Y-91187361D01*
X123204199Y-90942278D01*
X123233904Y-90836951D01*
X123275893Y-90688072D01*
X123275894Y-90688069D01*
X123277163Y-90683568D01*
X123289319Y-90588012D01*
X123310688Y-90420045D01*
X123310688Y-90420041D01*
X123311086Y-90416915D01*
X123313571Y-90322000D01*
X123313337Y-90318851D01*
X123293996Y-90058592D01*
X123293996Y-90058591D01*
X123293650Y-90053937D01*
X123292733Y-90049885D01*
X124692000Y-90049885D01*
X124696475Y-90065124D01*
X124697865Y-90066329D01*
X124705548Y-90068000D01*
X126227885Y-90068000D01*
X126243124Y-90063525D01*
X126244329Y-90062135D01*
X126246000Y-90054452D01*
X126246000Y-90049885D01*
X126754000Y-90049885D01*
X126758475Y-90065124D01*
X126759865Y-90066329D01*
X126767548Y-90068000D01*
X128289884Y-90068000D01*
X128305123Y-90063525D01*
X128306328Y-90062135D01*
X128307999Y-90054452D01*
X128307999Y-88977331D01*
X128307629Y-88970510D01*
X128302105Y-88919648D01*
X128298479Y-88904396D01*
X128253324Y-88783946D01*
X128244786Y-88768351D01*
X128168285Y-88666276D01*
X128155724Y-88653715D01*
X128053649Y-88577214D01*
X128038054Y-88568676D01*
X127917606Y-88523522D01*
X127902351Y-88519895D01*
X127851486Y-88514369D01*
X127844672Y-88514000D01*
X126772115Y-88514000D01*
X126756876Y-88518475D01*
X126755671Y-88519865D01*
X126754000Y-88527548D01*
X126754000Y-90049885D01*
X126246000Y-90049885D01*
X126246000Y-88532116D01*
X126241525Y-88516877D01*
X126240135Y-88515672D01*
X126232452Y-88514001D01*
X125155331Y-88514001D01*
X125148510Y-88514371D01*
X125097648Y-88519895D01*
X125082396Y-88523521D01*
X124961946Y-88568676D01*
X124946351Y-88577214D01*
X124844276Y-88653715D01*
X124831715Y-88666276D01*
X124755214Y-88768351D01*
X124746676Y-88783946D01*
X124701522Y-88904394D01*
X124697895Y-88919649D01*
X124692369Y-88970514D01*
X124692000Y-88977328D01*
X124692000Y-90049885D01*
X123292733Y-90049885D01*
X123292217Y-90047603D01*
X123235361Y-89796331D01*
X123235360Y-89796326D01*
X123234327Y-89791763D01*
X123136902Y-89541238D01*
X123003518Y-89307864D01*
X122993440Y-89295079D01*
X122937416Y-89224014D01*
X122837105Y-89096769D01*
X122641317Y-88912591D01*
X122434748Y-88769288D01*
X122424299Y-88762039D01*
X122424296Y-88762037D01*
X122420457Y-88759374D01*
X122416264Y-88757306D01*
X122183564Y-88642551D01*
X122183561Y-88642550D01*
X122179376Y-88640486D01*
X122131745Y-88625239D01*
X122026946Y-88591693D01*
X121923370Y-88558538D01*
X121918763Y-88557788D01*
X121918760Y-88557787D01*
X121662674Y-88516081D01*
X121662675Y-88516081D01*
X121658063Y-88515330D01*
X121527719Y-88513624D01*
X121393961Y-88511873D01*
X121393958Y-88511873D01*
X121389284Y-88511812D01*
X121122937Y-88548060D01*
X120864874Y-88623278D01*
X120620763Y-88735815D01*
X120616854Y-88738378D01*
X120399881Y-88880631D01*
X120399876Y-88880635D01*
X120395968Y-88883197D01*
X120195426Y-89062188D01*
X120023544Y-89268854D01*
X119884096Y-89498656D01*
X119882287Y-89502970D01*
X119882285Y-89502974D01*
X119867942Y-89537179D01*
X119780148Y-89746545D01*
X119713981Y-90007077D01*
X119687050Y-90274526D01*
X118310043Y-90274526D01*
X118293996Y-90058592D01*
X118293996Y-90058591D01*
X118293650Y-90053937D01*
X118292217Y-90047603D01*
X118235361Y-89796331D01*
X118235360Y-89796326D01*
X118234327Y-89791763D01*
X118136902Y-89541238D01*
X118003518Y-89307864D01*
X117993440Y-89295079D01*
X117937416Y-89224014D01*
X117837105Y-89096769D01*
X117641317Y-88912591D01*
X117434748Y-88769288D01*
X117424299Y-88762039D01*
X117424296Y-88762037D01*
X117420457Y-88759374D01*
X117416264Y-88757306D01*
X117183564Y-88642551D01*
X117183561Y-88642550D01*
X117179376Y-88640486D01*
X117131745Y-88625239D01*
X117026946Y-88591693D01*
X116923370Y-88558538D01*
X116918763Y-88557788D01*
X116918760Y-88557787D01*
X116662674Y-88516081D01*
X116662675Y-88516081D01*
X116658063Y-88515330D01*
X116527719Y-88513624D01*
X116393961Y-88511873D01*
X116393958Y-88511873D01*
X116389284Y-88511812D01*
X116122937Y-88548060D01*
X115864874Y-88623278D01*
X115620763Y-88735815D01*
X115616854Y-88738378D01*
X115399881Y-88880631D01*
X115399876Y-88880635D01*
X115395968Y-88883197D01*
X115195426Y-89062188D01*
X115023544Y-89268854D01*
X114884096Y-89498656D01*
X114882287Y-89502970D01*
X114882285Y-89502974D01*
X114867942Y-89537179D01*
X114780148Y-89746545D01*
X114713981Y-90007077D01*
X114687050Y-90274526D01*
X113310043Y-90274526D01*
X113293996Y-90058592D01*
X113293996Y-90058591D01*
X113293650Y-90053937D01*
X113292217Y-90047603D01*
X113235361Y-89796331D01*
X113235360Y-89796326D01*
X113234327Y-89791763D01*
X113136902Y-89541238D01*
X113003518Y-89307864D01*
X112993440Y-89295079D01*
X112937416Y-89224014D01*
X112837105Y-89096769D01*
X112641317Y-88912591D01*
X112434748Y-88769288D01*
X112424299Y-88762039D01*
X112424296Y-88762037D01*
X112420457Y-88759374D01*
X112416264Y-88757306D01*
X112183564Y-88642551D01*
X112183561Y-88642550D01*
X112179376Y-88640486D01*
X112131745Y-88625239D01*
X112026946Y-88591693D01*
X111923370Y-88558538D01*
X111918763Y-88557788D01*
X111918760Y-88557787D01*
X111662674Y-88516081D01*
X111662675Y-88516081D01*
X111658063Y-88515330D01*
X111527719Y-88513624D01*
X111393961Y-88511873D01*
X111393958Y-88511873D01*
X111389284Y-88511812D01*
X111122937Y-88548060D01*
X110864874Y-88623278D01*
X110620763Y-88735815D01*
X110616854Y-88738378D01*
X110399881Y-88880631D01*
X110399876Y-88880635D01*
X110395968Y-88883197D01*
X110195426Y-89062188D01*
X110023544Y-89268854D01*
X109884096Y-89498656D01*
X109882287Y-89502970D01*
X109882285Y-89502974D01*
X109867942Y-89537179D01*
X109780148Y-89746545D01*
X109713981Y-90007077D01*
X109687050Y-90274526D01*
X99769615Y-90274526D01*
X99768342Y-90269872D01*
X99749585Y-90201311D01*
X99695871Y-90004964D01*
X99606881Y-89796331D01*
X99584763Y-89744476D01*
X99584761Y-89744472D01*
X99583077Y-89740524D01*
X99463807Y-89541238D01*
X99437643Y-89497521D01*
X99437640Y-89497517D01*
X99435439Y-89493839D01*
X99418275Y-89472414D01*
X99271203Y-89288839D01*
X99255687Y-89269472D01*
X99047149Y-89071577D01*
X98830359Y-88915797D01*
X98817172Y-88906321D01*
X98817171Y-88906320D01*
X98813683Y-88903814D01*
X98791843Y-88892250D01*
X98768654Y-88879972D01*
X98559608Y-88769288D01*
X98289627Y-88670489D01*
X98008736Y-88609245D01*
X97977685Y-88606801D01*
X97785718Y-88591693D01*
X97785709Y-88591693D01*
X97783261Y-88591500D01*
X97627729Y-88591500D01*
X97625593Y-88591646D01*
X97625582Y-88591646D01*
X97417452Y-88605835D01*
X97417446Y-88605836D01*
X97413175Y-88606127D01*
X97408980Y-88606996D01*
X97408978Y-88606996D01*
X97336686Y-88621967D01*
X97131658Y-88664426D01*
X96860657Y-88760393D01*
X96605188Y-88892250D01*
X96601687Y-88894711D01*
X96601683Y-88894713D01*
X96536814Y-88940304D01*
X96369977Y-89057559D01*
X96159378Y-89253260D01*
X95977287Y-89475732D01*
X95827073Y-89720858D01*
X95711517Y-89984102D01*
X95710342Y-89988229D01*
X95710341Y-89988230D01*
X95701670Y-90018670D01*
X95632756Y-90260594D01*
X95592249Y-90545216D01*
X95592227Y-90549505D01*
X95592226Y-90549512D01*
X95590903Y-90802079D01*
X95590743Y-90832703D01*
X43809569Y-90832703D01*
X43810735Y-90610083D01*
X43810735Y-90610076D01*
X43810757Y-90605797D01*
X43809121Y-90593366D01*
X43785890Y-90416915D01*
X43773232Y-90320766D01*
X43697371Y-90043464D01*
X43584577Y-89779024D01*
X43436939Y-89532339D01*
X43257187Y-89307972D01*
X43048649Y-89110077D01*
X42815183Y-88942314D01*
X42793343Y-88930750D01*
X42725280Y-88894713D01*
X42561108Y-88807788D01*
X42291127Y-88708989D01*
X42010236Y-88647745D01*
X41979185Y-88645301D01*
X41787218Y-88630193D01*
X41787209Y-88630193D01*
X41784761Y-88630000D01*
X41629229Y-88630000D01*
X41627093Y-88630146D01*
X41627082Y-88630146D01*
X41418952Y-88644335D01*
X41418946Y-88644336D01*
X41414675Y-88644627D01*
X41410480Y-88645496D01*
X41410478Y-88645496D01*
X41312163Y-88665856D01*
X41133158Y-88702926D01*
X40862157Y-88798893D01*
X40858348Y-88800859D01*
X40641871Y-88912591D01*
X40606688Y-88930750D01*
X40603187Y-88933211D01*
X40603183Y-88933213D01*
X40540414Y-88977328D01*
X40371477Y-89096059D01*
X40356392Y-89110077D01*
X40181231Y-89272847D01*
X40160878Y-89291760D01*
X39978787Y-89514232D01*
X39828573Y-89759358D01*
X39826847Y-89763291D01*
X39826846Y-89763292D01*
X39814348Y-89791763D01*
X39713017Y-90022602D01*
X39634256Y-90299094D01*
X39593749Y-90583716D01*
X39593727Y-90588005D01*
X39593726Y-90588012D01*
X39592265Y-90866917D01*
X39592243Y-90871203D01*
X30805414Y-90871203D01*
X30807751Y-90854784D01*
X30807845Y-90836951D01*
X30809235Y-90571583D01*
X30809235Y-90571576D01*
X30809257Y-90567297D01*
X30806665Y-90547604D01*
X30776963Y-90322000D01*
X30771732Y-90282266D01*
X30768342Y-90269872D01*
X30749585Y-90201311D01*
X30695871Y-90004964D01*
X30606881Y-89796331D01*
X30584763Y-89744476D01*
X30584761Y-89744472D01*
X30583077Y-89740524D01*
X30463807Y-89541238D01*
X30437643Y-89497521D01*
X30437640Y-89497517D01*
X30435439Y-89493839D01*
X30418275Y-89472414D01*
X30271203Y-89288839D01*
X30255687Y-89269472D01*
X30047149Y-89071577D01*
X29830359Y-88915797D01*
X29817172Y-88906321D01*
X29817171Y-88906320D01*
X29813683Y-88903814D01*
X29791843Y-88892250D01*
X29768654Y-88879972D01*
X29559608Y-88769288D01*
X29289627Y-88670489D01*
X29008736Y-88609245D01*
X28977685Y-88606801D01*
X28785718Y-88591693D01*
X28785709Y-88591693D01*
X28783261Y-88591500D01*
X28627729Y-88591500D01*
X28625593Y-88591646D01*
X28625582Y-88591646D01*
X28417452Y-88605835D01*
X28417446Y-88605836D01*
X28413175Y-88606127D01*
X28408980Y-88606996D01*
X28408978Y-88606996D01*
X28336686Y-88621967D01*
X28131658Y-88664426D01*
X27860657Y-88760393D01*
X27605188Y-88892250D01*
X27601687Y-88894711D01*
X27601683Y-88894713D01*
X27536814Y-88940304D01*
X27369977Y-89057559D01*
X27159378Y-89253260D01*
X26977287Y-89475732D01*
X26827073Y-89720858D01*
X26711517Y-89984102D01*
X26710342Y-89988229D01*
X26710341Y-89988230D01*
X26701670Y-90018670D01*
X26632756Y-90260594D01*
X26592249Y-90545216D01*
X26592227Y-90549505D01*
X26592226Y-90549512D01*
X26590903Y-90802079D01*
X26590743Y-90832703D01*
X25508500Y-90832703D01*
X25508500Y-71673134D01*
X103166500Y-71673134D01*
X103173255Y-71735316D01*
X103224385Y-71871705D01*
X103311739Y-71988261D01*
X103428295Y-72075615D01*
X103564684Y-72126745D01*
X103626866Y-72133500D01*
X105973134Y-72133500D01*
X106035316Y-72126745D01*
X106171705Y-72075615D01*
X106288261Y-71988261D01*
X106375615Y-71871705D01*
X106426745Y-71735316D01*
X106433500Y-71673134D01*
X106433500Y-69326866D01*
X106426745Y-69264684D01*
X106375615Y-69128295D01*
X106288261Y-69011739D01*
X106171705Y-68924385D01*
X106035316Y-68873255D01*
X105973134Y-68866500D01*
X103626866Y-68866500D01*
X103564684Y-68873255D01*
X103428295Y-68924385D01*
X103311739Y-69011739D01*
X103224385Y-69128295D01*
X103173255Y-69264684D01*
X103166500Y-69326866D01*
X103166500Y-71673134D01*
X25508500Y-71673134D01*
X25508500Y-67636062D01*
X110478493Y-67636062D01*
X110487789Y-67648077D01*
X110538994Y-67683931D01*
X110548489Y-67689414D01*
X110745947Y-67781490D01*
X110756239Y-67785236D01*
X110966688Y-67841625D01*
X110977481Y-67843528D01*
X111194525Y-67862517D01*
X111205475Y-67862517D01*
X111422519Y-67843528D01*
X111433312Y-67841625D01*
X111643761Y-67785236D01*
X111654053Y-67781490D01*
X111851511Y-67689414D01*
X111861006Y-67683931D01*
X111913048Y-67647491D01*
X111921424Y-67637012D01*
X111914356Y-67623566D01*
X111826852Y-67536062D01*
X124078493Y-67536062D01*
X124087789Y-67548077D01*
X124138994Y-67583931D01*
X124148489Y-67589414D01*
X124345947Y-67681490D01*
X124356239Y-67685236D01*
X124566688Y-67741625D01*
X124577481Y-67743528D01*
X124794525Y-67762517D01*
X124805475Y-67762517D01*
X125022519Y-67743528D01*
X125033312Y-67741625D01*
X125243761Y-67685236D01*
X125254053Y-67681490D01*
X125451511Y-67589414D01*
X125461006Y-67583931D01*
X125513048Y-67547491D01*
X125521424Y-67537012D01*
X125514356Y-67523566D01*
X124812812Y-66822022D01*
X124798868Y-66814408D01*
X124797035Y-66814539D01*
X124790420Y-66818790D01*
X124084923Y-67524287D01*
X124078493Y-67536062D01*
X111826852Y-67536062D01*
X111212812Y-66922022D01*
X111198868Y-66914408D01*
X111197035Y-66914539D01*
X111190420Y-66918790D01*
X110484923Y-67624287D01*
X110478493Y-67636062D01*
X25508500Y-67636062D01*
X25508500Y-66555475D01*
X109887483Y-66555475D01*
X109906472Y-66772519D01*
X109908375Y-66783312D01*
X109964764Y-66993761D01*
X109968510Y-67004053D01*
X110060586Y-67201511D01*
X110066069Y-67211006D01*
X110102509Y-67263048D01*
X110112988Y-67271424D01*
X110126434Y-67264356D01*
X110827978Y-66562812D01*
X110834356Y-66551132D01*
X111564408Y-66551132D01*
X111564539Y-66552965D01*
X111568790Y-66559580D01*
X112274287Y-67265077D01*
X112286062Y-67271507D01*
X112298077Y-67262211D01*
X112333931Y-67211006D01*
X112339414Y-67201511D01*
X112431490Y-67004053D01*
X112435236Y-66993761D01*
X112491625Y-66783312D01*
X112493528Y-66772519D01*
X112512517Y-66555475D01*
X112512517Y-66544525D01*
X112504726Y-66455475D01*
X123487483Y-66455475D01*
X123506472Y-66672519D01*
X123508375Y-66683312D01*
X123564764Y-66893761D01*
X123568510Y-66904053D01*
X123660586Y-67101511D01*
X123666069Y-67111006D01*
X123702509Y-67163048D01*
X123712988Y-67171424D01*
X123726434Y-67164356D01*
X124427978Y-66462812D01*
X124434356Y-66451132D01*
X125164408Y-66451132D01*
X125164539Y-66452965D01*
X125168790Y-66459580D01*
X125874287Y-67165077D01*
X125886062Y-67171507D01*
X125898077Y-67162211D01*
X125933931Y-67111006D01*
X125939414Y-67101511D01*
X126031490Y-66904053D01*
X126035236Y-66893761D01*
X126091625Y-66683312D01*
X126093528Y-66672519D01*
X126112517Y-66455475D01*
X126112517Y-66444525D01*
X126093528Y-66227481D01*
X126091625Y-66216688D01*
X126035236Y-66006239D01*
X126031490Y-65995947D01*
X125939414Y-65798489D01*
X125933931Y-65788994D01*
X125897491Y-65736952D01*
X125887012Y-65728576D01*
X125873566Y-65735644D01*
X125172022Y-66437188D01*
X125164408Y-66451132D01*
X124434356Y-66451132D01*
X124435592Y-66448868D01*
X124435461Y-66447035D01*
X124431210Y-66440420D01*
X123725713Y-65734923D01*
X123713938Y-65728493D01*
X123701923Y-65737789D01*
X123666069Y-65788994D01*
X123660586Y-65798489D01*
X123568510Y-65995947D01*
X123564764Y-66006239D01*
X123508375Y-66216688D01*
X123506472Y-66227481D01*
X123487483Y-66444525D01*
X123487483Y-66455475D01*
X112504726Y-66455475D01*
X112493528Y-66327481D01*
X112491625Y-66316688D01*
X112435236Y-66106239D01*
X112431490Y-66095947D01*
X112339414Y-65898489D01*
X112333931Y-65888994D01*
X112297491Y-65836952D01*
X112287012Y-65828576D01*
X112273566Y-65835644D01*
X111572022Y-66537188D01*
X111564408Y-66551132D01*
X110834356Y-66551132D01*
X110835592Y-66548868D01*
X110835461Y-66547035D01*
X110831210Y-66540420D01*
X110125713Y-65834923D01*
X110113938Y-65828493D01*
X110101923Y-65837789D01*
X110066069Y-65888994D01*
X110060586Y-65898489D01*
X109968510Y-66095947D01*
X109964764Y-66106239D01*
X109908375Y-66316688D01*
X109906472Y-66327481D01*
X109887483Y-66544525D01*
X109887483Y-66555475D01*
X25508500Y-66555475D01*
X25508500Y-62871203D01*
X39592243Y-62871203D01*
X39592802Y-62875447D01*
X39592802Y-62875451D01*
X39597677Y-62912477D01*
X39629768Y-63156234D01*
X39705629Y-63433536D01*
X39818423Y-63697976D01*
X39829568Y-63716598D01*
X39895878Y-63827393D01*
X39966061Y-63944661D01*
X40145813Y-64169028D01*
X40354351Y-64366923D01*
X40587817Y-64534686D01*
X40591612Y-64536695D01*
X40591613Y-64536696D01*
X40613369Y-64548215D01*
X40841892Y-64669212D01*
X41111873Y-64768011D01*
X41392764Y-64829255D01*
X41421341Y-64831504D01*
X41615782Y-64846807D01*
X41615791Y-64846807D01*
X41618239Y-64847000D01*
X41773771Y-64847000D01*
X41775907Y-64846854D01*
X41775918Y-64846854D01*
X41984048Y-64832665D01*
X41984054Y-64832664D01*
X41988325Y-64832373D01*
X41992520Y-64831504D01*
X41992522Y-64831504D01*
X42153356Y-64798197D01*
X42269842Y-64774074D01*
X42540843Y-64678107D01*
X42796312Y-64546250D01*
X42799813Y-64543789D01*
X42799817Y-64543787D01*
X42998393Y-64404225D01*
X43031523Y-64380941D01*
X43242122Y-64185240D01*
X43424213Y-63962768D01*
X43574427Y-63717642D01*
X43689983Y-63454398D01*
X43768744Y-63177906D01*
X43806070Y-62915634D01*
X43808646Y-62897536D01*
X43808646Y-62897534D01*
X43809251Y-62893284D01*
X43809345Y-62875451D01*
X43809367Y-62871203D01*
X95592243Y-62871203D01*
X95592802Y-62875447D01*
X95592802Y-62875451D01*
X95597677Y-62912477D01*
X95629768Y-63156234D01*
X95705629Y-63433536D01*
X95818423Y-63697976D01*
X95829568Y-63716598D01*
X95895878Y-63827393D01*
X95966061Y-63944661D01*
X96145813Y-64169028D01*
X96354351Y-64366923D01*
X96587817Y-64534686D01*
X96591612Y-64536695D01*
X96591613Y-64536696D01*
X96613369Y-64548215D01*
X96841892Y-64669212D01*
X97111873Y-64768011D01*
X97392764Y-64829255D01*
X97421341Y-64831504D01*
X97615782Y-64846807D01*
X97615791Y-64846807D01*
X97618239Y-64847000D01*
X97773771Y-64847000D01*
X97775907Y-64846854D01*
X97775918Y-64846854D01*
X97984048Y-64832665D01*
X97984054Y-64832664D01*
X97988325Y-64832373D01*
X97992520Y-64831504D01*
X97992522Y-64831504D01*
X98153356Y-64798197D01*
X98269842Y-64774074D01*
X98540843Y-64678107D01*
X98796312Y-64546250D01*
X98799813Y-64543789D01*
X98799817Y-64543787D01*
X98998393Y-64404225D01*
X99031523Y-64380941D01*
X99242122Y-64185240D01*
X99352815Y-64050000D01*
X109886502Y-64050000D01*
X109906457Y-64278087D01*
X109965716Y-64499243D01*
X109968039Y-64504224D01*
X109968039Y-64504225D01*
X110060151Y-64701762D01*
X110060154Y-64701767D01*
X110062477Y-64706749D01*
X110105373Y-64768011D01*
X110150645Y-64832665D01*
X110193802Y-64894300D01*
X110355700Y-65056198D01*
X110360208Y-65059355D01*
X110360211Y-65059357D01*
X110405646Y-65091171D01*
X110543251Y-65187523D01*
X110548235Y-65189847D01*
X110550528Y-65191171D01*
X110599521Y-65242553D01*
X110612957Y-65312267D01*
X110586571Y-65378178D01*
X110550528Y-65409409D01*
X110538998Y-65416066D01*
X110486952Y-65452509D01*
X110478576Y-65462988D01*
X110485644Y-65476434D01*
X111187188Y-66177978D01*
X111201132Y-66185592D01*
X111202965Y-66185461D01*
X111209580Y-66181210D01*
X111915077Y-65475713D01*
X111921507Y-65463938D01*
X111912211Y-65451923D01*
X111861002Y-65416066D01*
X111849472Y-65409409D01*
X111800479Y-65358027D01*
X111787042Y-65288313D01*
X111813429Y-65222402D01*
X111849472Y-65191171D01*
X111851765Y-65189847D01*
X111856749Y-65187523D01*
X111994354Y-65091171D01*
X112039789Y-65059357D01*
X112039792Y-65059355D01*
X112044300Y-65056198D01*
X112206198Y-64894300D01*
X112249356Y-64832665D01*
X112294627Y-64768011D01*
X112337523Y-64706749D01*
X112339846Y-64701767D01*
X112339849Y-64701762D01*
X112431961Y-64504225D01*
X112431961Y-64504224D01*
X112434284Y-64499243D01*
X112493543Y-64278087D01*
X112513498Y-64050000D01*
X112504749Y-63950000D01*
X123486502Y-63950000D01*
X123506457Y-64178087D01*
X123507881Y-64183400D01*
X123507881Y-64183402D01*
X123557727Y-64369426D01*
X123565716Y-64399243D01*
X123568039Y-64404224D01*
X123568039Y-64404225D01*
X123660151Y-64601762D01*
X123660154Y-64601767D01*
X123662477Y-64606749D01*
X123735902Y-64711611D01*
X123779640Y-64774074D01*
X123793802Y-64794300D01*
X123955700Y-64956198D01*
X123960208Y-64959355D01*
X123960211Y-64959357D01*
X124063876Y-65031944D01*
X124143251Y-65087523D01*
X124148235Y-65089847D01*
X124150528Y-65091171D01*
X124199521Y-65142553D01*
X124212957Y-65212267D01*
X124186571Y-65278178D01*
X124150528Y-65309409D01*
X124138998Y-65316066D01*
X124086952Y-65352509D01*
X124078576Y-65362988D01*
X124085644Y-65376434D01*
X124787188Y-66077978D01*
X124801132Y-66085592D01*
X124802965Y-66085461D01*
X124809580Y-66081210D01*
X125515077Y-65375713D01*
X125521507Y-65363938D01*
X125512211Y-65351923D01*
X125461002Y-65316066D01*
X125449472Y-65309409D01*
X125400479Y-65258027D01*
X125387042Y-65188313D01*
X125413429Y-65122402D01*
X125449472Y-65091171D01*
X125451765Y-65089847D01*
X125456749Y-65087523D01*
X125536124Y-65031944D01*
X125639789Y-64959357D01*
X125639792Y-64959355D01*
X125644300Y-64956198D01*
X125806198Y-64794300D01*
X125820361Y-64774074D01*
X125864098Y-64711611D01*
X125937523Y-64606749D01*
X125939846Y-64601767D01*
X125939849Y-64601762D01*
X126031961Y-64404225D01*
X126031961Y-64404224D01*
X126034284Y-64399243D01*
X126042274Y-64369426D01*
X126092119Y-64183402D01*
X126092119Y-64183400D01*
X126093543Y-64178087D01*
X126113498Y-63950000D01*
X126093543Y-63721913D01*
X126092119Y-63716598D01*
X126035707Y-63506067D01*
X126035706Y-63506065D01*
X126034284Y-63500757D01*
X125986479Y-63398238D01*
X125939849Y-63298238D01*
X125939846Y-63298233D01*
X125937523Y-63293251D01*
X125844483Y-63160376D01*
X125809357Y-63110211D01*
X125809355Y-63110208D01*
X125806198Y-63105700D01*
X125644300Y-62943802D01*
X125639792Y-62940645D01*
X125639789Y-62940643D01*
X125464692Y-62818039D01*
X125456749Y-62812477D01*
X125451767Y-62810154D01*
X125451762Y-62810151D01*
X125254225Y-62718039D01*
X125254224Y-62718039D01*
X125249243Y-62715716D01*
X125243935Y-62714294D01*
X125243933Y-62714293D01*
X125033402Y-62657881D01*
X125033400Y-62657881D01*
X125028087Y-62656457D01*
X124800000Y-62636502D01*
X124571913Y-62656457D01*
X124566600Y-62657881D01*
X124566598Y-62657881D01*
X124356067Y-62714293D01*
X124356065Y-62714294D01*
X124350757Y-62715716D01*
X124345776Y-62718039D01*
X124345775Y-62718039D01*
X124148238Y-62810151D01*
X124148233Y-62810154D01*
X124143251Y-62812477D01*
X124135308Y-62818039D01*
X123960211Y-62940643D01*
X123960208Y-62940645D01*
X123955700Y-62943802D01*
X123793802Y-63105700D01*
X123790645Y-63110208D01*
X123790643Y-63110211D01*
X123755517Y-63160376D01*
X123662477Y-63293251D01*
X123660154Y-63298233D01*
X123660151Y-63298238D01*
X123613521Y-63398238D01*
X123565716Y-63500757D01*
X123564294Y-63506065D01*
X123564293Y-63506067D01*
X123507881Y-63716598D01*
X123506457Y-63721913D01*
X123486502Y-63950000D01*
X112504749Y-63950000D01*
X112493543Y-63821913D01*
X112466748Y-63721913D01*
X112435707Y-63606067D01*
X112435706Y-63606065D01*
X112434284Y-63600757D01*
X112387654Y-63500757D01*
X112339849Y-63398238D01*
X112339846Y-63398233D01*
X112337523Y-63393251D01*
X112206198Y-63205700D01*
X112044300Y-63043802D01*
X112039792Y-63040645D01*
X112039789Y-63040643D01*
X111907051Y-62947699D01*
X111856749Y-62912477D01*
X111851767Y-62910154D01*
X111851762Y-62910151D01*
X111654225Y-62818039D01*
X111654224Y-62818039D01*
X111649243Y-62815716D01*
X111643935Y-62814294D01*
X111643933Y-62814293D01*
X111433402Y-62757881D01*
X111433400Y-62757881D01*
X111428087Y-62756457D01*
X111200000Y-62736502D01*
X110971913Y-62756457D01*
X110966600Y-62757881D01*
X110966598Y-62757881D01*
X110756067Y-62814293D01*
X110756065Y-62814294D01*
X110750757Y-62815716D01*
X110745776Y-62818039D01*
X110745775Y-62818039D01*
X110548238Y-62910151D01*
X110548233Y-62910154D01*
X110543251Y-62912477D01*
X110492949Y-62947699D01*
X110360211Y-63040643D01*
X110360208Y-63040645D01*
X110355700Y-63043802D01*
X110193802Y-63205700D01*
X110062477Y-63393251D01*
X110060154Y-63398233D01*
X110060151Y-63398238D01*
X110012346Y-63500757D01*
X109965716Y-63600757D01*
X109964294Y-63606065D01*
X109964293Y-63606067D01*
X109933252Y-63721913D01*
X109906457Y-63821913D01*
X109886502Y-64050000D01*
X99352815Y-64050000D01*
X99424213Y-63962768D01*
X99574427Y-63717642D01*
X99689983Y-63454398D01*
X99768744Y-63177906D01*
X99806070Y-62915634D01*
X99808646Y-62897536D01*
X99808646Y-62897534D01*
X99809251Y-62893284D01*
X99809345Y-62875451D01*
X99810735Y-62610083D01*
X99810735Y-62610076D01*
X99810757Y-62605797D01*
X99773232Y-62320766D01*
X99697371Y-62043464D01*
X99584577Y-61779024D01*
X99436939Y-61532339D01*
X99257187Y-61307972D01*
X99048649Y-61110077D01*
X98815183Y-60942314D01*
X98793343Y-60930750D01*
X98709750Y-60886490D01*
X98561108Y-60807788D01*
X98291127Y-60708989D01*
X98010236Y-60647745D01*
X97979185Y-60645301D01*
X97787218Y-60630193D01*
X97787209Y-60630193D01*
X97784761Y-60630000D01*
X97629229Y-60630000D01*
X97627093Y-60630146D01*
X97627082Y-60630146D01*
X97418952Y-60644335D01*
X97418946Y-60644336D01*
X97414675Y-60644627D01*
X97410480Y-60645496D01*
X97410478Y-60645496D01*
X97273916Y-60673777D01*
X97133158Y-60702926D01*
X96862157Y-60798893D01*
X96606688Y-60930750D01*
X96603187Y-60933211D01*
X96603183Y-60933213D01*
X96593094Y-60940304D01*
X96371477Y-61096059D01*
X96356392Y-61110077D01*
X96184847Y-61269487D01*
X96160878Y-61291760D01*
X95978787Y-61514232D01*
X95828573Y-61759358D01*
X95713017Y-62022602D01*
X95634256Y-62299094D01*
X95593749Y-62583716D01*
X95593727Y-62588005D01*
X95593726Y-62588012D01*
X95592521Y-62818039D01*
X95592243Y-62871203D01*
X43809367Y-62871203D01*
X43810735Y-62610083D01*
X43810735Y-62610076D01*
X43810757Y-62605797D01*
X43773232Y-62320766D01*
X43697371Y-62043464D01*
X43584577Y-61779024D01*
X43436939Y-61532339D01*
X43257187Y-61307972D01*
X43048649Y-61110077D01*
X42815183Y-60942314D01*
X42793343Y-60930750D01*
X42709750Y-60886490D01*
X42561108Y-60807788D01*
X42291127Y-60708989D01*
X42010236Y-60647745D01*
X41979185Y-60645301D01*
X41787218Y-60630193D01*
X41787209Y-60630193D01*
X41784761Y-60630000D01*
X41629229Y-60630000D01*
X41627093Y-60630146D01*
X41627082Y-60630146D01*
X41418952Y-60644335D01*
X41418946Y-60644336D01*
X41414675Y-60644627D01*
X41410480Y-60645496D01*
X41410478Y-60645496D01*
X41273916Y-60673777D01*
X41133158Y-60702926D01*
X40862157Y-60798893D01*
X40606688Y-60930750D01*
X40603187Y-60933211D01*
X40603183Y-60933213D01*
X40593094Y-60940304D01*
X40371477Y-61096059D01*
X40356392Y-61110077D01*
X40184847Y-61269487D01*
X40160878Y-61291760D01*
X39978787Y-61514232D01*
X39828573Y-61759358D01*
X39713017Y-62022602D01*
X39634256Y-62299094D01*
X39593749Y-62583716D01*
X39593727Y-62588005D01*
X39593726Y-62588012D01*
X39592521Y-62818039D01*
X39592243Y-62871203D01*
X25508500Y-62871203D01*
X25508500Y-60175000D01*
X113979644Y-60175000D01*
X113999523Y-60402215D01*
X114000947Y-60407528D01*
X114000947Y-60407530D01*
X114038324Y-60547021D01*
X114058555Y-60622526D01*
X114060877Y-60627507D01*
X114060878Y-60627508D01*
X114152621Y-60824252D01*
X114152624Y-60824257D01*
X114154947Y-60829239D01*
X114158103Y-60833746D01*
X114158104Y-60833748D01*
X114234123Y-60942314D01*
X114285770Y-61016074D01*
X114447049Y-61177353D01*
X114451557Y-61180510D01*
X114451560Y-61180512D01*
X114529391Y-61235010D01*
X114633883Y-61308176D01*
X114638865Y-61310499D01*
X114638870Y-61310502D01*
X114835615Y-61402245D01*
X114840597Y-61404568D01*
X114845905Y-61405990D01*
X114845907Y-61405991D01*
X115055593Y-61462176D01*
X115055595Y-61462176D01*
X115060908Y-61463600D01*
X115288123Y-61483479D01*
X115515338Y-61463600D01*
X115520651Y-61462176D01*
X115520653Y-61462176D01*
X115730339Y-61405991D01*
X115730341Y-61405990D01*
X115735649Y-61404568D01*
X115740631Y-61402245D01*
X115937376Y-61310502D01*
X115937381Y-61310499D01*
X115942363Y-61308176D01*
X116014776Y-61257472D01*
X117110205Y-61257472D01*
X117119501Y-61269487D01*
X117169629Y-61304587D01*
X117179119Y-61310065D01*
X117375784Y-61401771D01*
X117386080Y-61405519D01*
X117595684Y-61461683D01*
X117606473Y-61463585D01*
X117822648Y-61482498D01*
X117833598Y-61482498D01*
X118049773Y-61463585D01*
X118060562Y-61461683D01*
X118270166Y-61405519D01*
X118280462Y-61401771D01*
X118477127Y-61310065D01*
X118486617Y-61304587D01*
X118537583Y-61268900D01*
X118545957Y-61258424D01*
X118538891Y-61244979D01*
X117840934Y-60547021D01*
X117826991Y-60539408D01*
X117825157Y-60539539D01*
X117818543Y-60543790D01*
X117116632Y-61245702D01*
X117110205Y-61257472D01*
X116014776Y-61257472D01*
X116046855Y-61235010D01*
X116124686Y-61180512D01*
X116124689Y-61180510D01*
X116129197Y-61177353D01*
X116290476Y-61016074D01*
X116342124Y-60942314D01*
X116418142Y-60833748D01*
X116418143Y-60833746D01*
X116421299Y-60829239D01*
X116423622Y-60824257D01*
X116423625Y-60824252D01*
X116444204Y-60780119D01*
X116491121Y-60726834D01*
X116559399Y-60707373D01*
X116627358Y-60727915D01*
X116672594Y-60780119D01*
X116693056Y-60824001D01*
X116698539Y-60833496D01*
X116734223Y-60884458D01*
X116744700Y-60892833D01*
X116758146Y-60885766D01*
X117456102Y-60187811D01*
X117462479Y-60176132D01*
X118192531Y-60176132D01*
X118192662Y-60177966D01*
X118196913Y-60184580D01*
X118898824Y-60886490D01*
X118910594Y-60892917D01*
X118922608Y-60883623D01*
X118957707Y-60833496D01*
X118963190Y-60824001D01*
X118983652Y-60780119D01*
X119030569Y-60726834D01*
X119098847Y-60707373D01*
X119166807Y-60727915D01*
X119212042Y-60780119D01*
X119232621Y-60824252D01*
X119232624Y-60824257D01*
X119234947Y-60829239D01*
X119238103Y-60833746D01*
X119238104Y-60833748D01*
X119314123Y-60942314D01*
X119365770Y-61016074D01*
X119527049Y-61177353D01*
X119531557Y-61180510D01*
X119531560Y-61180512D01*
X119609391Y-61235010D01*
X119713883Y-61308176D01*
X119718865Y-61310499D01*
X119718870Y-61310502D01*
X119915615Y-61402245D01*
X119920597Y-61404568D01*
X119925905Y-61405990D01*
X119925907Y-61405991D01*
X120135593Y-61462176D01*
X120135595Y-61462176D01*
X120140908Y-61463600D01*
X120368123Y-61483479D01*
X120595338Y-61463600D01*
X120600651Y-61462176D01*
X120600653Y-61462176D01*
X120810339Y-61405991D01*
X120810341Y-61405990D01*
X120815649Y-61404568D01*
X120820631Y-61402245D01*
X121017376Y-61310502D01*
X121017381Y-61310499D01*
X121022363Y-61308176D01*
X121126855Y-61235010D01*
X121204686Y-61180512D01*
X121204689Y-61180510D01*
X121209197Y-61177353D01*
X121370476Y-61016074D01*
X121422124Y-60942314D01*
X121498142Y-60833748D01*
X121498143Y-60833746D01*
X121501299Y-60829239D01*
X121503622Y-60824257D01*
X121503625Y-60824252D01*
X121595368Y-60627508D01*
X121595369Y-60627507D01*
X121597691Y-60622526D01*
X121617923Y-60547021D01*
X121655299Y-60407530D01*
X121655299Y-60407528D01*
X121656723Y-60402215D01*
X121676602Y-60175000D01*
X121656723Y-59947785D01*
X121655299Y-59942470D01*
X121599114Y-59732784D01*
X121599113Y-59732782D01*
X121597691Y-59727474D01*
X121558126Y-59642627D01*
X121503625Y-59525748D01*
X121503622Y-59525743D01*
X121501299Y-59520761D01*
X121463219Y-59466377D01*
X121373635Y-59338437D01*
X121373633Y-59338434D01*
X121370476Y-59333926D01*
X121209197Y-59172647D01*
X121204689Y-59169490D01*
X121204686Y-59169488D01*
X121111585Y-59104298D01*
X121022363Y-59041824D01*
X121017381Y-59039501D01*
X121017376Y-59039498D01*
X120820631Y-58947755D01*
X120820630Y-58947755D01*
X120815649Y-58945432D01*
X120810341Y-58944010D01*
X120810339Y-58944009D01*
X120600653Y-58887824D01*
X120600651Y-58887824D01*
X120595338Y-58886400D01*
X120368123Y-58866521D01*
X120140908Y-58886400D01*
X120135595Y-58887824D01*
X120135593Y-58887824D01*
X119925907Y-58944009D01*
X119925905Y-58944010D01*
X119920597Y-58945432D01*
X119915616Y-58947754D01*
X119915615Y-58947755D01*
X119718871Y-59039498D01*
X119718866Y-59039501D01*
X119713884Y-59041824D01*
X119709377Y-59044980D01*
X119709375Y-59044981D01*
X119531560Y-59169488D01*
X119531557Y-59169490D01*
X119527049Y-59172647D01*
X119365770Y-59333926D01*
X119362613Y-59338434D01*
X119362611Y-59338437D01*
X119273027Y-59466377D01*
X119234947Y-59520761D01*
X119232624Y-59525743D01*
X119232621Y-59525748D01*
X119212042Y-59569881D01*
X119165125Y-59623166D01*
X119096847Y-59642627D01*
X119028888Y-59622085D01*
X118983652Y-59569881D01*
X118963190Y-59525999D01*
X118957707Y-59516504D01*
X118922023Y-59465542D01*
X118911546Y-59457167D01*
X118898100Y-59464234D01*
X118200144Y-60162189D01*
X118192531Y-60176132D01*
X117462479Y-60176132D01*
X117463715Y-60173868D01*
X117463584Y-60172034D01*
X117459333Y-60165420D01*
X116757422Y-59463510D01*
X116745652Y-59457083D01*
X116733638Y-59466377D01*
X116698539Y-59516504D01*
X116693056Y-59525999D01*
X116672594Y-59569881D01*
X116625677Y-59623166D01*
X116557399Y-59642627D01*
X116489439Y-59622085D01*
X116444204Y-59569881D01*
X116423625Y-59525748D01*
X116423622Y-59525743D01*
X116421299Y-59520761D01*
X116383219Y-59466377D01*
X116293635Y-59338437D01*
X116293633Y-59338434D01*
X116290476Y-59333926D01*
X116129197Y-59172647D01*
X116124689Y-59169490D01*
X116124686Y-59169488D01*
X116031585Y-59104298D01*
X116013418Y-59091577D01*
X117110290Y-59091577D01*
X117117357Y-59105023D01*
X117815312Y-59802979D01*
X117829255Y-59810592D01*
X117831089Y-59810461D01*
X117837703Y-59806210D01*
X118539614Y-59104298D01*
X118546041Y-59092528D01*
X118536745Y-59080513D01*
X118486617Y-59045413D01*
X118477127Y-59039935D01*
X118280462Y-58948229D01*
X118270166Y-58944481D01*
X118060562Y-58888317D01*
X118049773Y-58886415D01*
X117833598Y-58867502D01*
X117822648Y-58867502D01*
X117606473Y-58886415D01*
X117595684Y-58888317D01*
X117386080Y-58944481D01*
X117375784Y-58948229D01*
X117179122Y-59039933D01*
X117169627Y-59045416D01*
X117118665Y-59081100D01*
X117110290Y-59091577D01*
X116013418Y-59091577D01*
X115942363Y-59041824D01*
X115937381Y-59039501D01*
X115937376Y-59039498D01*
X115740631Y-58947755D01*
X115740630Y-58947755D01*
X115735649Y-58945432D01*
X115730341Y-58944010D01*
X115730339Y-58944009D01*
X115520653Y-58887824D01*
X115520651Y-58887824D01*
X115515338Y-58886400D01*
X115288123Y-58866521D01*
X115060908Y-58886400D01*
X115055595Y-58887824D01*
X115055593Y-58887824D01*
X114845907Y-58944009D01*
X114845905Y-58944010D01*
X114840597Y-58945432D01*
X114835616Y-58947754D01*
X114835615Y-58947755D01*
X114638871Y-59039498D01*
X114638866Y-59039501D01*
X114633884Y-59041824D01*
X114629377Y-59044980D01*
X114629375Y-59044981D01*
X114451560Y-59169488D01*
X114451557Y-59169490D01*
X114447049Y-59172647D01*
X114285770Y-59333926D01*
X114282613Y-59338434D01*
X114282611Y-59338437D01*
X114193027Y-59466377D01*
X114154947Y-59520761D01*
X114152624Y-59525743D01*
X114152621Y-59525748D01*
X114098120Y-59642627D01*
X114058555Y-59727474D01*
X114057133Y-59732782D01*
X114057132Y-59732784D01*
X114000947Y-59942470D01*
X113999523Y-59947785D01*
X113979644Y-60175000D01*
X25508500Y-60175000D01*
X25508500Y-57932670D01*
X103480160Y-57932670D01*
X103485887Y-57940320D01*
X103657042Y-58045205D01*
X103665837Y-58049687D01*
X103875988Y-58136734D01*
X103885373Y-58139783D01*
X104106554Y-58192885D01*
X104116301Y-58194428D01*
X104343070Y-58212275D01*
X104352930Y-58212275D01*
X104579699Y-58194428D01*
X104589446Y-58192885D01*
X104810627Y-58139783D01*
X104820012Y-58136734D01*
X105030163Y-58049687D01*
X105038958Y-58045205D01*
X105206445Y-57942568D01*
X105215907Y-57932110D01*
X105212124Y-57923334D01*
X105036924Y-57748134D01*
X107839500Y-57748134D01*
X107846255Y-57810316D01*
X107897385Y-57946705D01*
X107984739Y-58063261D01*
X108101295Y-58150615D01*
X108237684Y-58201745D01*
X108299866Y-58208500D01*
X110396134Y-58208500D01*
X110458316Y-58201745D01*
X110594705Y-58150615D01*
X110711261Y-58063261D01*
X110798615Y-57946705D01*
X110849745Y-57810316D01*
X110856500Y-57748134D01*
X125056146Y-57748134D01*
X125062901Y-57810316D01*
X125114031Y-57946705D01*
X125201385Y-58063261D01*
X125317941Y-58150615D01*
X125454330Y-58201745D01*
X125516512Y-58208500D01*
X127612780Y-58208500D01*
X127674962Y-58201745D01*
X127811351Y-58150615D01*
X127927907Y-58063261D01*
X128015261Y-57946705D01*
X128020522Y-57932670D01*
X130696806Y-57932670D01*
X130702533Y-57940320D01*
X130873688Y-58045205D01*
X130882483Y-58049687D01*
X131092634Y-58136734D01*
X131102019Y-58139783D01*
X131323200Y-58192885D01*
X131332947Y-58194428D01*
X131559716Y-58212275D01*
X131569576Y-58212275D01*
X131796345Y-58194428D01*
X131806092Y-58192885D01*
X132027273Y-58139783D01*
X132036658Y-58136734D01*
X132246809Y-58049687D01*
X132255604Y-58045205D01*
X132423091Y-57942568D01*
X132432553Y-57932110D01*
X132428770Y-57923334D01*
X131577458Y-57072022D01*
X131563514Y-57064408D01*
X131561681Y-57064539D01*
X131555066Y-57068790D01*
X130703566Y-57920290D01*
X130696806Y-57932670D01*
X128020522Y-57932670D01*
X128066391Y-57810316D01*
X128073146Y-57748134D01*
X128073146Y-56704930D01*
X130052371Y-56704930D01*
X130070218Y-56931699D01*
X130071761Y-56941446D01*
X130124863Y-57162627D01*
X130127912Y-57172012D01*
X130214959Y-57382163D01*
X130219441Y-57390958D01*
X130322078Y-57558445D01*
X130332536Y-57567907D01*
X130341312Y-57564124D01*
X131192624Y-56712812D01*
X131199002Y-56701132D01*
X131929054Y-56701132D01*
X131929185Y-56702965D01*
X131933436Y-56709580D01*
X132784936Y-57561080D01*
X132797316Y-57567840D01*
X132804966Y-57562113D01*
X132909851Y-57390958D01*
X132914333Y-57382163D01*
X133001380Y-57172012D01*
X133004429Y-57162627D01*
X133057531Y-56941446D01*
X133059074Y-56931699D01*
X133076921Y-56704930D01*
X133076921Y-56695070D01*
X133059074Y-56468301D01*
X133057531Y-56458554D01*
X133004429Y-56237373D01*
X133001380Y-56227988D01*
X132914333Y-56017837D01*
X132909851Y-56009042D01*
X132807214Y-55841555D01*
X132796756Y-55832093D01*
X132787980Y-55835876D01*
X131936668Y-56687188D01*
X131929054Y-56701132D01*
X131199002Y-56701132D01*
X131200238Y-56698868D01*
X131200107Y-56697035D01*
X131195856Y-56690420D01*
X130344356Y-55838920D01*
X130331976Y-55832160D01*
X130324326Y-55837887D01*
X130219441Y-56009042D01*
X130214959Y-56017837D01*
X130127912Y-56227988D01*
X130124863Y-56237373D01*
X130071761Y-56458554D01*
X130070218Y-56468301D01*
X130052371Y-56695070D01*
X130052371Y-56704930D01*
X128073146Y-56704930D01*
X128073146Y-55651866D01*
X128066391Y-55589684D01*
X128020732Y-55467890D01*
X130696739Y-55467890D01*
X130700522Y-55476666D01*
X131551834Y-56327978D01*
X131565778Y-56335592D01*
X131567611Y-56335461D01*
X131574226Y-56331210D01*
X132425726Y-55479710D01*
X132432486Y-55467330D01*
X132426759Y-55459680D01*
X132255604Y-55354795D01*
X132246809Y-55350313D01*
X132036658Y-55263266D01*
X132027273Y-55260217D01*
X131806092Y-55207115D01*
X131796345Y-55205572D01*
X131569576Y-55187725D01*
X131559716Y-55187725D01*
X131332947Y-55205572D01*
X131323200Y-55207115D01*
X131102019Y-55260217D01*
X131092634Y-55263266D01*
X130882483Y-55350313D01*
X130873688Y-55354795D01*
X130706201Y-55457432D01*
X130696739Y-55467890D01*
X128020732Y-55467890D01*
X128015261Y-55453295D01*
X127927907Y-55336739D01*
X127811351Y-55249385D01*
X127674962Y-55198255D01*
X127612780Y-55191500D01*
X125516512Y-55191500D01*
X125454330Y-55198255D01*
X125317941Y-55249385D01*
X125201385Y-55336739D01*
X125114031Y-55453295D01*
X125062901Y-55589684D01*
X125056146Y-55651866D01*
X125056146Y-57748134D01*
X110856500Y-57748134D01*
X110856500Y-55651866D01*
X110849745Y-55589684D01*
X110798615Y-55453295D01*
X110711261Y-55336739D01*
X110594705Y-55249385D01*
X110458316Y-55198255D01*
X110396134Y-55191500D01*
X108299866Y-55191500D01*
X108237684Y-55198255D01*
X108101295Y-55249385D01*
X107984739Y-55336739D01*
X107897385Y-55453295D01*
X107846255Y-55589684D01*
X107839500Y-55651866D01*
X107839500Y-57748134D01*
X105036924Y-57748134D01*
X104360812Y-57072022D01*
X104346868Y-57064408D01*
X104345035Y-57064539D01*
X104338420Y-57068790D01*
X103486920Y-57920290D01*
X103480160Y-57932670D01*
X25508500Y-57932670D01*
X25508500Y-55832703D01*
X26590743Y-55832703D01*
X26628268Y-56117734D01*
X26704129Y-56395036D01*
X26816923Y-56659476D01*
X26964561Y-56906161D01*
X27144313Y-57130528D01*
X27352851Y-57328423D01*
X27586317Y-57496186D01*
X27590112Y-57498195D01*
X27590113Y-57498196D01*
X27611869Y-57509715D01*
X27840392Y-57630712D01*
X28110373Y-57729511D01*
X28391264Y-57790755D01*
X28419841Y-57793004D01*
X28614282Y-57808307D01*
X28614291Y-57808307D01*
X28616739Y-57808500D01*
X28772271Y-57808500D01*
X28774407Y-57808354D01*
X28774418Y-57808354D01*
X28982548Y-57794165D01*
X28982554Y-57794164D01*
X28986825Y-57793873D01*
X28991020Y-57793004D01*
X28991022Y-57793004D01*
X29191288Y-57751531D01*
X29268342Y-57735574D01*
X29539343Y-57639607D01*
X29794812Y-57507750D01*
X29798313Y-57505289D01*
X29798317Y-57505287D01*
X29973504Y-57382163D01*
X30030023Y-57342441D01*
X30240622Y-57146740D01*
X30422713Y-56924268D01*
X30572927Y-56679142D01*
X30688483Y-56415898D01*
X30767244Y-56139406D01*
X30807751Y-55854784D01*
X30807821Y-55841555D01*
X30807867Y-55832703D01*
X95590743Y-55832703D01*
X95628268Y-56117734D01*
X95704129Y-56395036D01*
X95816923Y-56659476D01*
X95964561Y-56906161D01*
X96144313Y-57130528D01*
X96352851Y-57328423D01*
X96586317Y-57496186D01*
X96590112Y-57498195D01*
X96590113Y-57498196D01*
X96611869Y-57509715D01*
X96840392Y-57630712D01*
X97110373Y-57729511D01*
X97391264Y-57790755D01*
X97419841Y-57793004D01*
X97614282Y-57808307D01*
X97614291Y-57808307D01*
X97616739Y-57808500D01*
X97772271Y-57808500D01*
X97774407Y-57808354D01*
X97774418Y-57808354D01*
X97982548Y-57794165D01*
X97982554Y-57794164D01*
X97986825Y-57793873D01*
X97991020Y-57793004D01*
X97991022Y-57793004D01*
X98191288Y-57751531D01*
X98268342Y-57735574D01*
X98539343Y-57639607D01*
X98794812Y-57507750D01*
X98798313Y-57505289D01*
X98798317Y-57505287D01*
X98973504Y-57382163D01*
X99030023Y-57342441D01*
X99240622Y-57146740D01*
X99422713Y-56924268D01*
X99557124Y-56704930D01*
X102835725Y-56704930D01*
X102853572Y-56931699D01*
X102855115Y-56941446D01*
X102908217Y-57162627D01*
X102911266Y-57172012D01*
X102998313Y-57382163D01*
X103002795Y-57390958D01*
X103105432Y-57558445D01*
X103115890Y-57567907D01*
X103124666Y-57564124D01*
X103975978Y-56712812D01*
X103982356Y-56701132D01*
X104712408Y-56701132D01*
X104712539Y-56702965D01*
X104716790Y-56709580D01*
X105568290Y-57561080D01*
X105580670Y-57567840D01*
X105588320Y-57562113D01*
X105693205Y-57390958D01*
X105697687Y-57382163D01*
X105784734Y-57172012D01*
X105787783Y-57162627D01*
X105840885Y-56941446D01*
X105842428Y-56931699D01*
X105860275Y-56704930D01*
X105860275Y-56695070D01*
X105842428Y-56468301D01*
X105840885Y-56458554D01*
X105787783Y-56237373D01*
X105784734Y-56227988D01*
X105697687Y-56017837D01*
X105693205Y-56009042D01*
X105590568Y-55841555D01*
X105580110Y-55832093D01*
X105571334Y-55835876D01*
X104720022Y-56687188D01*
X104712408Y-56701132D01*
X103982356Y-56701132D01*
X103983592Y-56698868D01*
X103983461Y-56697035D01*
X103979210Y-56690420D01*
X103127710Y-55838920D01*
X103115330Y-55832160D01*
X103107680Y-55837887D01*
X103002795Y-56009042D01*
X102998313Y-56017837D01*
X102911266Y-56227988D01*
X102908217Y-56237373D01*
X102855115Y-56458554D01*
X102853572Y-56468301D01*
X102835725Y-56695070D01*
X102835725Y-56704930D01*
X99557124Y-56704930D01*
X99572927Y-56679142D01*
X99688483Y-56415898D01*
X99767244Y-56139406D01*
X99807751Y-55854784D01*
X99807821Y-55841555D01*
X99809235Y-55571583D01*
X99809235Y-55571576D01*
X99809257Y-55567297D01*
X99796170Y-55467890D01*
X103480093Y-55467890D01*
X103483876Y-55476666D01*
X104335188Y-56327978D01*
X104349132Y-56335592D01*
X104350965Y-56335461D01*
X104357580Y-56331210D01*
X105209080Y-55479710D01*
X105215840Y-55467330D01*
X105210113Y-55459680D01*
X105038958Y-55354795D01*
X105030163Y-55350313D01*
X104820012Y-55263266D01*
X104810627Y-55260217D01*
X104589446Y-55207115D01*
X104579699Y-55205572D01*
X104352930Y-55187725D01*
X104343070Y-55187725D01*
X104116301Y-55205572D01*
X104106554Y-55207115D01*
X103885373Y-55260217D01*
X103875988Y-55263266D01*
X103665837Y-55350313D01*
X103657042Y-55354795D01*
X103489555Y-55457432D01*
X103480093Y-55467890D01*
X99796170Y-55467890D01*
X99771732Y-55282266D01*
X99695871Y-55004964D01*
X99583077Y-54740524D01*
X99435439Y-54493839D01*
X99255687Y-54269472D01*
X99047149Y-54071577D01*
X98813683Y-53903814D01*
X98791843Y-53892250D01*
X98768654Y-53879972D01*
X98559608Y-53769288D01*
X98289627Y-53670489D01*
X98008736Y-53609245D01*
X97977685Y-53606801D01*
X97785718Y-53591693D01*
X97785709Y-53591693D01*
X97783261Y-53591500D01*
X97627729Y-53591500D01*
X97625593Y-53591646D01*
X97625582Y-53591646D01*
X97417452Y-53605835D01*
X97417446Y-53605836D01*
X97413175Y-53606127D01*
X97408980Y-53606996D01*
X97408978Y-53606996D01*
X97272417Y-53635276D01*
X97131658Y-53664426D01*
X96860657Y-53760393D01*
X96605188Y-53892250D01*
X96601687Y-53894711D01*
X96601683Y-53894713D01*
X96591594Y-53901804D01*
X96369977Y-54057559D01*
X96159378Y-54253260D01*
X95977287Y-54475732D01*
X95827073Y-54720858D01*
X95711517Y-54984102D01*
X95632756Y-55260594D01*
X95592249Y-55545216D01*
X95592227Y-55549505D01*
X95592226Y-55549512D01*
X95591708Y-55648469D01*
X95590743Y-55832703D01*
X30807867Y-55832703D01*
X30809235Y-55571583D01*
X30809235Y-55571576D01*
X30809257Y-55567297D01*
X30771732Y-55282266D01*
X30695871Y-55004964D01*
X30583077Y-54740524D01*
X30435439Y-54493839D01*
X30255687Y-54269472D01*
X30047149Y-54071577D01*
X29813683Y-53903814D01*
X29791843Y-53892250D01*
X29768654Y-53879972D01*
X29559608Y-53769288D01*
X29289627Y-53670489D01*
X29008736Y-53609245D01*
X28977685Y-53606801D01*
X28785718Y-53591693D01*
X28785709Y-53591693D01*
X28783261Y-53591500D01*
X28627729Y-53591500D01*
X28625593Y-53591646D01*
X28625582Y-53591646D01*
X28417452Y-53605835D01*
X28417446Y-53605836D01*
X28413175Y-53606127D01*
X28408980Y-53606996D01*
X28408978Y-53606996D01*
X28272417Y-53635276D01*
X28131658Y-53664426D01*
X27860657Y-53760393D01*
X27605188Y-53892250D01*
X27601687Y-53894711D01*
X27601683Y-53894713D01*
X27591594Y-53901804D01*
X27369977Y-54057559D01*
X27159378Y-54253260D01*
X26977287Y-54475732D01*
X26827073Y-54720858D01*
X26711517Y-54984102D01*
X26632756Y-55260594D01*
X26592249Y-55545216D01*
X26592227Y-55549505D01*
X26592226Y-55549512D01*
X26591708Y-55648469D01*
X26590743Y-55832703D01*
X25508500Y-55832703D01*
X25508500Y-48666695D01*
X27357251Y-48666695D01*
X27370110Y-48889715D01*
X27371247Y-48894761D01*
X27371248Y-48894767D01*
X27392275Y-48988069D01*
X27419222Y-49107639D01*
X27503266Y-49314616D01*
X27554942Y-49398944D01*
X27617291Y-49500688D01*
X27619987Y-49505088D01*
X27766250Y-49673938D01*
X27938126Y-49816632D01*
X28131000Y-49929338D01*
X28339692Y-50009030D01*
X28344760Y-50010061D01*
X28344763Y-50010062D01*
X28439862Y-50029410D01*
X28558597Y-50053567D01*
X28563772Y-50053757D01*
X28563774Y-50053757D01*
X28776673Y-50061564D01*
X28776677Y-50061564D01*
X28781837Y-50061753D01*
X28786957Y-50061097D01*
X28786959Y-50061097D01*
X28998288Y-50034025D01*
X28998289Y-50034025D01*
X29003416Y-50033368D01*
X29008366Y-50031883D01*
X29212429Y-49970661D01*
X29212434Y-49970659D01*
X29217384Y-49969174D01*
X29417994Y-49870896D01*
X29599860Y-49741173D01*
X29758096Y-49583489D01*
X29817594Y-49500689D01*
X29888453Y-49402077D01*
X29889776Y-49403028D01*
X29936645Y-49359857D01*
X30006580Y-49347625D01*
X30072026Y-49375144D01*
X30099875Y-49406994D01*
X30159987Y-49505088D01*
X30306250Y-49673938D01*
X30478126Y-49816632D01*
X30671000Y-49929338D01*
X30879692Y-50009030D01*
X30884760Y-50010061D01*
X30884763Y-50010062D01*
X30979862Y-50029410D01*
X31098597Y-50053567D01*
X31103772Y-50053757D01*
X31103774Y-50053757D01*
X31316673Y-50061564D01*
X31316677Y-50061564D01*
X31321837Y-50061753D01*
X31326957Y-50061097D01*
X31326959Y-50061097D01*
X31538288Y-50034025D01*
X31538289Y-50034025D01*
X31543416Y-50033368D01*
X31548366Y-50031883D01*
X31752429Y-49970661D01*
X31752434Y-49970659D01*
X31757384Y-49969174D01*
X31957994Y-49870896D01*
X32139860Y-49741173D01*
X32298096Y-49583489D01*
X32357594Y-49500689D01*
X32428453Y-49402077D01*
X32429776Y-49403028D01*
X32476645Y-49359857D01*
X32546580Y-49347625D01*
X32612026Y-49375144D01*
X32639875Y-49406994D01*
X32699987Y-49505088D01*
X32846250Y-49673938D01*
X33018126Y-49816632D01*
X33211000Y-49929338D01*
X33419692Y-50009030D01*
X33424760Y-50010061D01*
X33424763Y-50010062D01*
X33519862Y-50029410D01*
X33638597Y-50053567D01*
X33643772Y-50053757D01*
X33643774Y-50053757D01*
X33856673Y-50061564D01*
X33856677Y-50061564D01*
X33861837Y-50061753D01*
X33866957Y-50061097D01*
X33866959Y-50061097D01*
X34078288Y-50034025D01*
X34078289Y-50034025D01*
X34083416Y-50033368D01*
X34088366Y-50031883D01*
X34292429Y-49970661D01*
X34292434Y-49970659D01*
X34297384Y-49969174D01*
X34497994Y-49870896D01*
X34679860Y-49741173D01*
X34838096Y-49583489D01*
X34897594Y-49500689D01*
X34968453Y-49402077D01*
X34969776Y-49403028D01*
X35016645Y-49359857D01*
X35086580Y-49347625D01*
X35152026Y-49375144D01*
X35179875Y-49406994D01*
X35239987Y-49505088D01*
X35386250Y-49673938D01*
X35558126Y-49816632D01*
X35751000Y-49929338D01*
X35959692Y-50009030D01*
X35964760Y-50010061D01*
X35964763Y-50010062D01*
X36059862Y-50029410D01*
X36178597Y-50053567D01*
X36183772Y-50053757D01*
X36183774Y-50053757D01*
X36396673Y-50061564D01*
X36396677Y-50061564D01*
X36401837Y-50061753D01*
X36406957Y-50061097D01*
X36406959Y-50061097D01*
X36618288Y-50034025D01*
X36618289Y-50034025D01*
X36623416Y-50033368D01*
X36628366Y-50031883D01*
X36832429Y-49970661D01*
X36832434Y-49970659D01*
X36837384Y-49969174D01*
X37037994Y-49870896D01*
X37219860Y-49741173D01*
X37378096Y-49583489D01*
X37437594Y-49500689D01*
X37508453Y-49402077D01*
X37509776Y-49403028D01*
X37556645Y-49359857D01*
X37626580Y-49347625D01*
X37692026Y-49375144D01*
X37719875Y-49406994D01*
X37779987Y-49505088D01*
X37926250Y-49673938D01*
X38098126Y-49816632D01*
X38291000Y-49929338D01*
X38499692Y-50009030D01*
X38504760Y-50010061D01*
X38504763Y-50010062D01*
X38599862Y-50029410D01*
X38718597Y-50053567D01*
X38723772Y-50053757D01*
X38723774Y-50053757D01*
X38936673Y-50061564D01*
X38936677Y-50061564D01*
X38941837Y-50061753D01*
X38946957Y-50061097D01*
X38946959Y-50061097D01*
X39158288Y-50034025D01*
X39158289Y-50034025D01*
X39163416Y-50033368D01*
X39168366Y-50031883D01*
X39372429Y-49970661D01*
X39372434Y-49970659D01*
X39377384Y-49969174D01*
X39577994Y-49870896D01*
X39759860Y-49741173D01*
X39918096Y-49583489D01*
X39977594Y-49500689D01*
X40048453Y-49402077D01*
X40049776Y-49403028D01*
X40096645Y-49359857D01*
X40166580Y-49347625D01*
X40232026Y-49375144D01*
X40259875Y-49406994D01*
X40319987Y-49505088D01*
X40466250Y-49673938D01*
X40638126Y-49816632D01*
X40831000Y-49929338D01*
X41039692Y-50009030D01*
X41044760Y-50010061D01*
X41044763Y-50010062D01*
X41139862Y-50029410D01*
X41258597Y-50053567D01*
X41263772Y-50053757D01*
X41263774Y-50053757D01*
X41476673Y-50061564D01*
X41476677Y-50061564D01*
X41481837Y-50061753D01*
X41486957Y-50061097D01*
X41486959Y-50061097D01*
X41698288Y-50034025D01*
X41698289Y-50034025D01*
X41703416Y-50033368D01*
X41708366Y-50031883D01*
X41912429Y-49970661D01*
X41912434Y-49970659D01*
X41917384Y-49969174D01*
X42117994Y-49870896D01*
X42299860Y-49741173D01*
X42458096Y-49583489D01*
X42517594Y-49500689D01*
X42588453Y-49402077D01*
X42589776Y-49403028D01*
X42636645Y-49359857D01*
X42706580Y-49347625D01*
X42772026Y-49375144D01*
X42799875Y-49406994D01*
X42859987Y-49505088D01*
X43006250Y-49673938D01*
X43178126Y-49816632D01*
X43371000Y-49929338D01*
X43579692Y-50009030D01*
X43584760Y-50010061D01*
X43584763Y-50010062D01*
X43679862Y-50029410D01*
X43798597Y-50053567D01*
X43803772Y-50053757D01*
X43803774Y-50053757D01*
X44016673Y-50061564D01*
X44016677Y-50061564D01*
X44021837Y-50061753D01*
X44026957Y-50061097D01*
X44026959Y-50061097D01*
X44238288Y-50034025D01*
X44238289Y-50034025D01*
X44243416Y-50033368D01*
X44248366Y-50031883D01*
X44452429Y-49970661D01*
X44452434Y-49970659D01*
X44457384Y-49969174D01*
X44657994Y-49870896D01*
X44839860Y-49741173D01*
X44998096Y-49583489D01*
X45057594Y-49500689D01*
X45128453Y-49402077D01*
X45129776Y-49403028D01*
X45176645Y-49359857D01*
X45246580Y-49347625D01*
X45312026Y-49375144D01*
X45339875Y-49406994D01*
X45399987Y-49505088D01*
X45546250Y-49673938D01*
X45718126Y-49816632D01*
X45911000Y-49929338D01*
X46119692Y-50009030D01*
X46124760Y-50010061D01*
X46124763Y-50010062D01*
X46219862Y-50029410D01*
X46338597Y-50053567D01*
X46343772Y-50053757D01*
X46343774Y-50053757D01*
X46556673Y-50061564D01*
X46556677Y-50061564D01*
X46561837Y-50061753D01*
X46566957Y-50061097D01*
X46566959Y-50061097D01*
X46778288Y-50034025D01*
X46778289Y-50034025D01*
X46783416Y-50033368D01*
X46788366Y-50031883D01*
X46992429Y-49970661D01*
X46992434Y-49970659D01*
X46997384Y-49969174D01*
X47197994Y-49870896D01*
X47379860Y-49741173D01*
X47538096Y-49583489D01*
X47597594Y-49500689D01*
X47668453Y-49402077D01*
X47669776Y-49403028D01*
X47716645Y-49359857D01*
X47786580Y-49347625D01*
X47852026Y-49375144D01*
X47879875Y-49406994D01*
X47939987Y-49505088D01*
X48086250Y-49673938D01*
X48258126Y-49816632D01*
X48451000Y-49929338D01*
X48659692Y-50009030D01*
X48664760Y-50010061D01*
X48664763Y-50010062D01*
X48759862Y-50029410D01*
X48878597Y-50053567D01*
X48883772Y-50053757D01*
X48883774Y-50053757D01*
X49096673Y-50061564D01*
X49096677Y-50061564D01*
X49101837Y-50061753D01*
X49106957Y-50061097D01*
X49106959Y-50061097D01*
X49318288Y-50034025D01*
X49318289Y-50034025D01*
X49323416Y-50033368D01*
X49328366Y-50031883D01*
X49532429Y-49970661D01*
X49532434Y-49970659D01*
X49537384Y-49969174D01*
X49737994Y-49870896D01*
X49919860Y-49741173D01*
X50078096Y-49583489D01*
X50137594Y-49500689D01*
X50208453Y-49402077D01*
X50209776Y-49403028D01*
X50256645Y-49359857D01*
X50326580Y-49347625D01*
X50392026Y-49375144D01*
X50419875Y-49406994D01*
X50479987Y-49505088D01*
X50626250Y-49673938D01*
X50798126Y-49816632D01*
X50991000Y-49929338D01*
X51199692Y-50009030D01*
X51204760Y-50010061D01*
X51204763Y-50010062D01*
X51299862Y-50029410D01*
X51418597Y-50053567D01*
X51423772Y-50053757D01*
X51423774Y-50053757D01*
X51636673Y-50061564D01*
X51636677Y-50061564D01*
X51641837Y-50061753D01*
X51646957Y-50061097D01*
X51646959Y-50061097D01*
X51858288Y-50034025D01*
X51858289Y-50034025D01*
X51863416Y-50033368D01*
X51868366Y-50031883D01*
X52072429Y-49970661D01*
X52072434Y-49970659D01*
X52077384Y-49969174D01*
X52277994Y-49870896D01*
X52459860Y-49741173D01*
X52618096Y-49583489D01*
X52677594Y-49500689D01*
X52748453Y-49402077D01*
X52749776Y-49403028D01*
X52796645Y-49359857D01*
X52866580Y-49347625D01*
X52932026Y-49375144D01*
X52959875Y-49406994D01*
X53019987Y-49505088D01*
X53166250Y-49673938D01*
X53338126Y-49816632D01*
X53531000Y-49929338D01*
X53739692Y-50009030D01*
X53744760Y-50010061D01*
X53744763Y-50010062D01*
X53839862Y-50029410D01*
X53958597Y-50053567D01*
X53963772Y-50053757D01*
X53963774Y-50053757D01*
X54176673Y-50061564D01*
X54176677Y-50061564D01*
X54181837Y-50061753D01*
X54186957Y-50061097D01*
X54186959Y-50061097D01*
X54398288Y-50034025D01*
X54398289Y-50034025D01*
X54403416Y-50033368D01*
X54408366Y-50031883D01*
X54612429Y-49970661D01*
X54612434Y-49970659D01*
X54617384Y-49969174D01*
X54817994Y-49870896D01*
X54999860Y-49741173D01*
X55158096Y-49583489D01*
X55217594Y-49500689D01*
X55288453Y-49402077D01*
X55289776Y-49403028D01*
X55336645Y-49359857D01*
X55406580Y-49347625D01*
X55472026Y-49375144D01*
X55499875Y-49406994D01*
X55559987Y-49505088D01*
X55706250Y-49673938D01*
X55878126Y-49816632D01*
X56071000Y-49929338D01*
X56279692Y-50009030D01*
X56284760Y-50010061D01*
X56284763Y-50010062D01*
X56379862Y-50029410D01*
X56498597Y-50053567D01*
X56503772Y-50053757D01*
X56503774Y-50053757D01*
X56716673Y-50061564D01*
X56716677Y-50061564D01*
X56721837Y-50061753D01*
X56726957Y-50061097D01*
X56726959Y-50061097D01*
X56938288Y-50034025D01*
X56938289Y-50034025D01*
X56943416Y-50033368D01*
X56948366Y-50031883D01*
X57152429Y-49970661D01*
X57152434Y-49970659D01*
X57157384Y-49969174D01*
X57357994Y-49870896D01*
X57539860Y-49741173D01*
X57698096Y-49583489D01*
X57757594Y-49500689D01*
X57828453Y-49402077D01*
X57829776Y-49403028D01*
X57876645Y-49359857D01*
X57946580Y-49347625D01*
X58012026Y-49375144D01*
X58039875Y-49406994D01*
X58099987Y-49505088D01*
X58246250Y-49673938D01*
X58418126Y-49816632D01*
X58611000Y-49929338D01*
X58819692Y-50009030D01*
X58824760Y-50010061D01*
X58824763Y-50010062D01*
X58919862Y-50029410D01*
X59038597Y-50053567D01*
X59043772Y-50053757D01*
X59043774Y-50053757D01*
X59256673Y-50061564D01*
X59256677Y-50061564D01*
X59261837Y-50061753D01*
X59266957Y-50061097D01*
X59266959Y-50061097D01*
X59478288Y-50034025D01*
X59478289Y-50034025D01*
X59483416Y-50033368D01*
X59488366Y-50031883D01*
X59692429Y-49970661D01*
X59692434Y-49970659D01*
X59697384Y-49969174D01*
X59897994Y-49870896D01*
X60079860Y-49741173D01*
X60238096Y-49583489D01*
X60297594Y-49500689D01*
X60368453Y-49402077D01*
X60369640Y-49402930D01*
X60416960Y-49359362D01*
X60486897Y-49347145D01*
X60552338Y-49374678D01*
X60580166Y-49406511D01*
X60637694Y-49500388D01*
X60643777Y-49508699D01*
X60783213Y-49669667D01*
X60790580Y-49676883D01*
X60954434Y-49812916D01*
X60962881Y-49818831D01*
X61146756Y-49926279D01*
X61156042Y-49930729D01*
X61355001Y-50006703D01*
X61364899Y-50009579D01*
X61468250Y-50030606D01*
X61482299Y-50029410D01*
X61486000Y-50019065D01*
X61486000Y-50018517D01*
X61994000Y-50018517D01*
X61998064Y-50032359D01*
X62011478Y-50034393D01*
X62018184Y-50033534D01*
X62028262Y-50031392D01*
X62232255Y-49970191D01*
X62241842Y-49966433D01*
X62433095Y-49872739D01*
X62441945Y-49867464D01*
X62615328Y-49743792D01*
X62623193Y-49737145D01*
X62727897Y-49632805D01*
X62790268Y-49598889D01*
X62861075Y-49604077D01*
X62917837Y-49646723D01*
X62934819Y-49677826D01*
X62979385Y-49796705D01*
X63066739Y-49913261D01*
X63183295Y-50000615D01*
X63319684Y-50051745D01*
X63381866Y-50058500D01*
X65178134Y-50058500D01*
X65240316Y-50051745D01*
X65376705Y-50000615D01*
X65493261Y-49913261D01*
X65580615Y-49796705D01*
X65631745Y-49660316D01*
X65638500Y-49598134D01*
X65638500Y-47801866D01*
X65631745Y-47739684D01*
X65580615Y-47603295D01*
X65493261Y-47486739D01*
X65376705Y-47399385D01*
X65240316Y-47348255D01*
X65178134Y-47341500D01*
X63381866Y-47341500D01*
X63319684Y-47348255D01*
X63183295Y-47399385D01*
X63066739Y-47486739D01*
X62979385Y-47603295D01*
X62976233Y-47611703D01*
X62976232Y-47611705D01*
X62934722Y-47722433D01*
X62892081Y-47779198D01*
X62825519Y-47803898D01*
X62756170Y-47788691D01*
X62723546Y-47763004D01*
X62672799Y-47707234D01*
X62665273Y-47700215D01*
X62498139Y-47568222D01*
X62489552Y-47562517D01*
X62303117Y-47459599D01*
X62293705Y-47455369D01*
X62092959Y-47384280D01*
X62082988Y-47381646D01*
X62011837Y-47368972D01*
X61998540Y-47370432D01*
X61994000Y-47384989D01*
X61994000Y-50018517D01*
X61486000Y-50018517D01*
X61486000Y-47383102D01*
X61482082Y-47369758D01*
X61467806Y-47367771D01*
X61429324Y-47373660D01*
X61419288Y-47376051D01*
X61216868Y-47442212D01*
X61207359Y-47446209D01*
X61018463Y-47544542D01*
X61009738Y-47550036D01*
X60839433Y-47677905D01*
X60831726Y-47684748D01*
X60684590Y-47838717D01*
X60678109Y-47846722D01*
X60573498Y-48000074D01*
X60518587Y-48045076D01*
X60448062Y-48053247D01*
X60384315Y-48021993D01*
X60363618Y-47997509D01*
X60282822Y-47872617D01*
X60282820Y-47872614D01*
X60280014Y-47868277D01*
X60129670Y-47703051D01*
X60125619Y-47699852D01*
X60125615Y-47699848D01*
X59958414Y-47567800D01*
X59958410Y-47567798D01*
X59954359Y-47564598D01*
X59918028Y-47544542D01*
X59869082Y-47517523D01*
X59758789Y-47456638D01*
X59753920Y-47454914D01*
X59753916Y-47454912D01*
X59553087Y-47383795D01*
X59553083Y-47383794D01*
X59548212Y-47382069D01*
X59543119Y-47381162D01*
X59543116Y-47381161D01*
X59333373Y-47343800D01*
X59333367Y-47343799D01*
X59328284Y-47342894D01*
X59254452Y-47341992D01*
X59110081Y-47340228D01*
X59110079Y-47340228D01*
X59104911Y-47340165D01*
X58884091Y-47373955D01*
X58671756Y-47443357D01*
X58473607Y-47546507D01*
X58469474Y-47549610D01*
X58469471Y-47549612D01*
X58299100Y-47677530D01*
X58294965Y-47680635D01*
X58140629Y-47842138D01*
X58033201Y-47999621D01*
X57978293Y-48044621D01*
X57907768Y-48052792D01*
X57844021Y-48021538D01*
X57823324Y-47997054D01*
X57742822Y-47872617D01*
X57742820Y-47872614D01*
X57740014Y-47868277D01*
X57589670Y-47703051D01*
X57585619Y-47699852D01*
X57585615Y-47699848D01*
X57418414Y-47567800D01*
X57418410Y-47567798D01*
X57414359Y-47564598D01*
X57378028Y-47544542D01*
X57329082Y-47517523D01*
X57218789Y-47456638D01*
X57213920Y-47454914D01*
X57213916Y-47454912D01*
X57013087Y-47383795D01*
X57013083Y-47383794D01*
X57008212Y-47382069D01*
X57003119Y-47381162D01*
X57003116Y-47381161D01*
X56793373Y-47343800D01*
X56793367Y-47343799D01*
X56788284Y-47342894D01*
X56714452Y-47341992D01*
X56570081Y-47340228D01*
X56570079Y-47340228D01*
X56564911Y-47340165D01*
X56344091Y-47373955D01*
X56131756Y-47443357D01*
X55933607Y-47546507D01*
X55929474Y-47549610D01*
X55929471Y-47549612D01*
X55759100Y-47677530D01*
X55754965Y-47680635D01*
X55600629Y-47842138D01*
X55493201Y-47999621D01*
X55438293Y-48044621D01*
X55367768Y-48052792D01*
X55304021Y-48021538D01*
X55283324Y-47997054D01*
X55202822Y-47872617D01*
X55202820Y-47872614D01*
X55200014Y-47868277D01*
X55049670Y-47703051D01*
X55045619Y-47699852D01*
X55045615Y-47699848D01*
X54878414Y-47567800D01*
X54878410Y-47567798D01*
X54874359Y-47564598D01*
X54838028Y-47544542D01*
X54789082Y-47517523D01*
X54678789Y-47456638D01*
X54673920Y-47454914D01*
X54673916Y-47454912D01*
X54473087Y-47383795D01*
X54473083Y-47383794D01*
X54468212Y-47382069D01*
X54463119Y-47381162D01*
X54463116Y-47381161D01*
X54253373Y-47343800D01*
X54253367Y-47343799D01*
X54248284Y-47342894D01*
X54174452Y-47341992D01*
X54030081Y-47340228D01*
X54030079Y-47340228D01*
X54024911Y-47340165D01*
X53804091Y-47373955D01*
X53591756Y-47443357D01*
X53393607Y-47546507D01*
X53389474Y-47549610D01*
X53389471Y-47549612D01*
X53219100Y-47677530D01*
X53214965Y-47680635D01*
X53060629Y-47842138D01*
X52953201Y-47999621D01*
X52898293Y-48044621D01*
X52827768Y-48052792D01*
X52764021Y-48021538D01*
X52743324Y-47997054D01*
X52662822Y-47872617D01*
X52662820Y-47872614D01*
X52660014Y-47868277D01*
X52509670Y-47703051D01*
X52505619Y-47699852D01*
X52505615Y-47699848D01*
X52338414Y-47567800D01*
X52338410Y-47567798D01*
X52334359Y-47564598D01*
X52298028Y-47544542D01*
X52249082Y-47517523D01*
X52138789Y-47456638D01*
X52133920Y-47454914D01*
X52133916Y-47454912D01*
X51933087Y-47383795D01*
X51933083Y-47383794D01*
X51928212Y-47382069D01*
X51923119Y-47381162D01*
X51923116Y-47381161D01*
X51713373Y-47343800D01*
X51713367Y-47343799D01*
X51708284Y-47342894D01*
X51634452Y-47341992D01*
X51490081Y-47340228D01*
X51490079Y-47340228D01*
X51484911Y-47340165D01*
X51264091Y-47373955D01*
X51051756Y-47443357D01*
X50853607Y-47546507D01*
X50849474Y-47549610D01*
X50849471Y-47549612D01*
X50679100Y-47677530D01*
X50674965Y-47680635D01*
X50520629Y-47842138D01*
X50413201Y-47999621D01*
X50358293Y-48044621D01*
X50287768Y-48052792D01*
X50224021Y-48021538D01*
X50203324Y-47997054D01*
X50122822Y-47872617D01*
X50122820Y-47872614D01*
X50120014Y-47868277D01*
X49969670Y-47703051D01*
X49965619Y-47699852D01*
X49965615Y-47699848D01*
X49798414Y-47567800D01*
X49798410Y-47567798D01*
X49794359Y-47564598D01*
X49758028Y-47544542D01*
X49709082Y-47517523D01*
X49598789Y-47456638D01*
X49593920Y-47454914D01*
X49593916Y-47454912D01*
X49393087Y-47383795D01*
X49393083Y-47383794D01*
X49388212Y-47382069D01*
X49383119Y-47381162D01*
X49383116Y-47381161D01*
X49173373Y-47343800D01*
X49173367Y-47343799D01*
X49168284Y-47342894D01*
X49094452Y-47341992D01*
X48950081Y-47340228D01*
X48950079Y-47340228D01*
X48944911Y-47340165D01*
X48724091Y-47373955D01*
X48511756Y-47443357D01*
X48313607Y-47546507D01*
X48309474Y-47549610D01*
X48309471Y-47549612D01*
X48139100Y-47677530D01*
X48134965Y-47680635D01*
X47980629Y-47842138D01*
X47873201Y-47999621D01*
X47818293Y-48044621D01*
X47747768Y-48052792D01*
X47684021Y-48021538D01*
X47663324Y-47997054D01*
X47582822Y-47872617D01*
X47582820Y-47872614D01*
X47580014Y-47868277D01*
X47429670Y-47703051D01*
X47425619Y-47699852D01*
X47425615Y-47699848D01*
X47258414Y-47567800D01*
X47258410Y-47567798D01*
X47254359Y-47564598D01*
X47218028Y-47544542D01*
X47169082Y-47517523D01*
X47058789Y-47456638D01*
X47053920Y-47454914D01*
X47053916Y-47454912D01*
X46853087Y-47383795D01*
X46853083Y-47383794D01*
X46848212Y-47382069D01*
X46843119Y-47381162D01*
X46843116Y-47381161D01*
X46633373Y-47343800D01*
X46633367Y-47343799D01*
X46628284Y-47342894D01*
X46554452Y-47341992D01*
X46410081Y-47340228D01*
X46410079Y-47340228D01*
X46404911Y-47340165D01*
X46184091Y-47373955D01*
X45971756Y-47443357D01*
X45773607Y-47546507D01*
X45769474Y-47549610D01*
X45769471Y-47549612D01*
X45599100Y-47677530D01*
X45594965Y-47680635D01*
X45440629Y-47842138D01*
X45333201Y-47999621D01*
X45278293Y-48044621D01*
X45207768Y-48052792D01*
X45144021Y-48021538D01*
X45123324Y-47997054D01*
X45042822Y-47872617D01*
X45042820Y-47872614D01*
X45040014Y-47868277D01*
X44889670Y-47703051D01*
X44885619Y-47699852D01*
X44885615Y-47699848D01*
X44718414Y-47567800D01*
X44718410Y-47567798D01*
X44714359Y-47564598D01*
X44678028Y-47544542D01*
X44629082Y-47517523D01*
X44518789Y-47456638D01*
X44513920Y-47454914D01*
X44513916Y-47454912D01*
X44313087Y-47383795D01*
X44313083Y-47383794D01*
X44308212Y-47382069D01*
X44303119Y-47381162D01*
X44303116Y-47381161D01*
X44093373Y-47343800D01*
X44093367Y-47343799D01*
X44088284Y-47342894D01*
X44014452Y-47341992D01*
X43870081Y-47340228D01*
X43870079Y-47340228D01*
X43864911Y-47340165D01*
X43644091Y-47373955D01*
X43431756Y-47443357D01*
X43233607Y-47546507D01*
X43229474Y-47549610D01*
X43229471Y-47549612D01*
X43059100Y-47677530D01*
X43054965Y-47680635D01*
X42900629Y-47842138D01*
X42793201Y-47999621D01*
X42738293Y-48044621D01*
X42667768Y-48052792D01*
X42604021Y-48021538D01*
X42583324Y-47997054D01*
X42502822Y-47872617D01*
X42502820Y-47872614D01*
X42500014Y-47868277D01*
X42349670Y-47703051D01*
X42345619Y-47699852D01*
X42345615Y-47699848D01*
X42178414Y-47567800D01*
X42178410Y-47567798D01*
X42174359Y-47564598D01*
X42138028Y-47544542D01*
X42089082Y-47517523D01*
X41978789Y-47456638D01*
X41973920Y-47454914D01*
X41973916Y-47454912D01*
X41773087Y-47383795D01*
X41773083Y-47383794D01*
X41768212Y-47382069D01*
X41763119Y-47381162D01*
X41763116Y-47381161D01*
X41553373Y-47343800D01*
X41553367Y-47343799D01*
X41548284Y-47342894D01*
X41474452Y-47341992D01*
X41330081Y-47340228D01*
X41330079Y-47340228D01*
X41324911Y-47340165D01*
X41104091Y-47373955D01*
X40891756Y-47443357D01*
X40693607Y-47546507D01*
X40689474Y-47549610D01*
X40689471Y-47549612D01*
X40519100Y-47677530D01*
X40514965Y-47680635D01*
X40360629Y-47842138D01*
X40253201Y-47999621D01*
X40198293Y-48044621D01*
X40127768Y-48052792D01*
X40064021Y-48021538D01*
X40043324Y-47997054D01*
X39962822Y-47872617D01*
X39962820Y-47872614D01*
X39960014Y-47868277D01*
X39809670Y-47703051D01*
X39805619Y-47699852D01*
X39805615Y-47699848D01*
X39638414Y-47567800D01*
X39638410Y-47567798D01*
X39634359Y-47564598D01*
X39598028Y-47544542D01*
X39549082Y-47517523D01*
X39438789Y-47456638D01*
X39433920Y-47454914D01*
X39433916Y-47454912D01*
X39233087Y-47383795D01*
X39233083Y-47383794D01*
X39228212Y-47382069D01*
X39223119Y-47381162D01*
X39223116Y-47381161D01*
X39013373Y-47343800D01*
X39013367Y-47343799D01*
X39008284Y-47342894D01*
X38934452Y-47341992D01*
X38790081Y-47340228D01*
X38790079Y-47340228D01*
X38784911Y-47340165D01*
X38564091Y-47373955D01*
X38351756Y-47443357D01*
X38153607Y-47546507D01*
X38149474Y-47549610D01*
X38149471Y-47549612D01*
X37979100Y-47677530D01*
X37974965Y-47680635D01*
X37820629Y-47842138D01*
X37713201Y-47999621D01*
X37658293Y-48044621D01*
X37587768Y-48052792D01*
X37524021Y-48021538D01*
X37503324Y-47997054D01*
X37422822Y-47872617D01*
X37422820Y-47872614D01*
X37420014Y-47868277D01*
X37269670Y-47703051D01*
X37265619Y-47699852D01*
X37265615Y-47699848D01*
X37098414Y-47567800D01*
X37098410Y-47567798D01*
X37094359Y-47564598D01*
X37058028Y-47544542D01*
X37009082Y-47517523D01*
X36898789Y-47456638D01*
X36893920Y-47454914D01*
X36893916Y-47454912D01*
X36693087Y-47383795D01*
X36693083Y-47383794D01*
X36688212Y-47382069D01*
X36683119Y-47381162D01*
X36683116Y-47381161D01*
X36473373Y-47343800D01*
X36473367Y-47343799D01*
X36468284Y-47342894D01*
X36394452Y-47341992D01*
X36250081Y-47340228D01*
X36250079Y-47340228D01*
X36244911Y-47340165D01*
X36024091Y-47373955D01*
X35811756Y-47443357D01*
X35613607Y-47546507D01*
X35609474Y-47549610D01*
X35609471Y-47549612D01*
X35439100Y-47677530D01*
X35434965Y-47680635D01*
X35280629Y-47842138D01*
X35173201Y-47999621D01*
X35118293Y-48044621D01*
X35047768Y-48052792D01*
X34984021Y-48021538D01*
X34963324Y-47997054D01*
X34882822Y-47872617D01*
X34882820Y-47872614D01*
X34880014Y-47868277D01*
X34729670Y-47703051D01*
X34725619Y-47699852D01*
X34725615Y-47699848D01*
X34558414Y-47567800D01*
X34558410Y-47567798D01*
X34554359Y-47564598D01*
X34518028Y-47544542D01*
X34469082Y-47517523D01*
X34358789Y-47456638D01*
X34353920Y-47454914D01*
X34353916Y-47454912D01*
X34153087Y-47383795D01*
X34153083Y-47383794D01*
X34148212Y-47382069D01*
X34143119Y-47381162D01*
X34143116Y-47381161D01*
X33933373Y-47343800D01*
X33933367Y-47343799D01*
X33928284Y-47342894D01*
X33854452Y-47341992D01*
X33710081Y-47340228D01*
X33710079Y-47340228D01*
X33704911Y-47340165D01*
X33484091Y-47373955D01*
X33271756Y-47443357D01*
X33073607Y-47546507D01*
X33069474Y-47549610D01*
X33069471Y-47549612D01*
X32899100Y-47677530D01*
X32894965Y-47680635D01*
X32740629Y-47842138D01*
X32633201Y-47999621D01*
X32578293Y-48044621D01*
X32507768Y-48052792D01*
X32444021Y-48021538D01*
X32423324Y-47997054D01*
X32342822Y-47872617D01*
X32342820Y-47872614D01*
X32340014Y-47868277D01*
X32189670Y-47703051D01*
X32185619Y-47699852D01*
X32185615Y-47699848D01*
X32018414Y-47567800D01*
X32018410Y-47567798D01*
X32014359Y-47564598D01*
X31978028Y-47544542D01*
X31929082Y-47517523D01*
X31818789Y-47456638D01*
X31813920Y-47454914D01*
X31813916Y-47454912D01*
X31613087Y-47383795D01*
X31613083Y-47383794D01*
X31608212Y-47382069D01*
X31603119Y-47381162D01*
X31603116Y-47381161D01*
X31393373Y-47343800D01*
X31393367Y-47343799D01*
X31388284Y-47342894D01*
X31314452Y-47341992D01*
X31170081Y-47340228D01*
X31170079Y-47340228D01*
X31164911Y-47340165D01*
X30944091Y-47373955D01*
X30731756Y-47443357D01*
X30533607Y-47546507D01*
X30529474Y-47549610D01*
X30529471Y-47549612D01*
X30359100Y-47677530D01*
X30354965Y-47680635D01*
X30200629Y-47842138D01*
X30093201Y-47999621D01*
X30038293Y-48044621D01*
X29967768Y-48052792D01*
X29904021Y-48021538D01*
X29883324Y-47997054D01*
X29802822Y-47872617D01*
X29802820Y-47872614D01*
X29800014Y-47868277D01*
X29649670Y-47703051D01*
X29645619Y-47699852D01*
X29645615Y-47699848D01*
X29478414Y-47567800D01*
X29478410Y-47567798D01*
X29474359Y-47564598D01*
X29438028Y-47544542D01*
X29389082Y-47517523D01*
X29278789Y-47456638D01*
X29273920Y-47454914D01*
X29273916Y-47454912D01*
X29073087Y-47383795D01*
X29073083Y-47383794D01*
X29068212Y-47382069D01*
X29063119Y-47381162D01*
X29063116Y-47381161D01*
X28853373Y-47343800D01*
X28853367Y-47343799D01*
X28848284Y-47342894D01*
X28774452Y-47341992D01*
X28630081Y-47340228D01*
X28630079Y-47340228D01*
X28624911Y-47340165D01*
X28404091Y-47373955D01*
X28191756Y-47443357D01*
X27993607Y-47546507D01*
X27989474Y-47549610D01*
X27989471Y-47549612D01*
X27819100Y-47677530D01*
X27814965Y-47680635D01*
X27660629Y-47842138D01*
X27534743Y-48026680D01*
X27440688Y-48229305D01*
X27380989Y-48444570D01*
X27357251Y-48666695D01*
X25508500Y-48666695D01*
X25508500Y-45150000D01*
X55486502Y-45150000D01*
X55506457Y-45378087D01*
X55507881Y-45383400D01*
X55507881Y-45383402D01*
X55548690Y-45535700D01*
X55565716Y-45599243D01*
X55568039Y-45604224D01*
X55568039Y-45604225D01*
X55660151Y-45801762D01*
X55660154Y-45801767D01*
X55662477Y-45806749D01*
X55665634Y-45811257D01*
X55749309Y-45930757D01*
X55793802Y-45994300D01*
X55955700Y-46156198D01*
X55960208Y-46159355D01*
X55960211Y-46159357D01*
X56038389Y-46214098D01*
X56143251Y-46287523D01*
X56148233Y-46289846D01*
X56148238Y-46289849D01*
X56341570Y-46380000D01*
X56350757Y-46384284D01*
X56356065Y-46385706D01*
X56356067Y-46385707D01*
X56566598Y-46442119D01*
X56566600Y-46442119D01*
X56571913Y-46443543D01*
X56800000Y-46463498D01*
X57028087Y-46443543D01*
X57033400Y-46442119D01*
X57033402Y-46442119D01*
X57243933Y-46385707D01*
X57243935Y-46385706D01*
X57249243Y-46384284D01*
X57258430Y-46380000D01*
X95186502Y-46380000D01*
X95206457Y-46608087D01*
X95265716Y-46829243D01*
X95268039Y-46834224D01*
X95268039Y-46834225D01*
X95360151Y-47031762D01*
X95360154Y-47031767D01*
X95362477Y-47036749D01*
X95493802Y-47224300D01*
X95655700Y-47386198D01*
X95660208Y-47389355D01*
X95660211Y-47389357D01*
X95670031Y-47396233D01*
X95843251Y-47517523D01*
X95848233Y-47519846D01*
X95848238Y-47519849D01*
X96045222Y-47611703D01*
X96050757Y-47614284D01*
X96056065Y-47615706D01*
X96056067Y-47615707D01*
X96266598Y-47672119D01*
X96266600Y-47672119D01*
X96271913Y-47673543D01*
X96500000Y-47693498D01*
X96728087Y-47673543D01*
X96733400Y-47672119D01*
X96733402Y-47672119D01*
X96943933Y-47615707D01*
X96943935Y-47615706D01*
X96949243Y-47614284D01*
X96954778Y-47611703D01*
X97151762Y-47519849D01*
X97151767Y-47519846D01*
X97156749Y-47517523D01*
X97329969Y-47396233D01*
X97339789Y-47389357D01*
X97339792Y-47389355D01*
X97344300Y-47386198D01*
X97506198Y-47224300D01*
X97637523Y-47036749D01*
X97639846Y-47031767D01*
X97639849Y-47031762D01*
X97731961Y-46834225D01*
X97731961Y-46834224D01*
X97734284Y-46829243D01*
X97793543Y-46608087D01*
X97813498Y-46380000D01*
X100586502Y-46380000D01*
X100606457Y-46608087D01*
X100665716Y-46829243D01*
X100668039Y-46834224D01*
X100668039Y-46834225D01*
X100760151Y-47031762D01*
X100760154Y-47031767D01*
X100762477Y-47036749D01*
X100893802Y-47224300D01*
X101055700Y-47386198D01*
X101060208Y-47389355D01*
X101060211Y-47389357D01*
X101070031Y-47396233D01*
X101243251Y-47517523D01*
X101248233Y-47519846D01*
X101248238Y-47519849D01*
X101445222Y-47611703D01*
X101450757Y-47614284D01*
X101456065Y-47615706D01*
X101456067Y-47615707D01*
X101666598Y-47672119D01*
X101666600Y-47672119D01*
X101671913Y-47673543D01*
X101900000Y-47693498D01*
X102128087Y-47673543D01*
X102133400Y-47672119D01*
X102133402Y-47672119D01*
X102343933Y-47615707D01*
X102343935Y-47615706D01*
X102349243Y-47614284D01*
X102354778Y-47611703D01*
X102551762Y-47519849D01*
X102551767Y-47519846D01*
X102556749Y-47517523D01*
X102729969Y-47396233D01*
X102739789Y-47389357D01*
X102739792Y-47389355D01*
X102744300Y-47386198D01*
X102906198Y-47224300D01*
X103037523Y-47036749D01*
X103039846Y-47031767D01*
X103039849Y-47031762D01*
X103131961Y-46834225D01*
X103131961Y-46834224D01*
X103134284Y-46829243D01*
X103193543Y-46608087D01*
X103213498Y-46380000D01*
X103193543Y-46151913D01*
X103152355Y-45998197D01*
X103135707Y-45936067D01*
X103135706Y-45936065D01*
X103134284Y-45930757D01*
X103074133Y-45801762D01*
X103039849Y-45728238D01*
X103039846Y-45728233D01*
X103037523Y-45723251D01*
X102954180Y-45604225D01*
X102909357Y-45540211D01*
X102909355Y-45540208D01*
X102906198Y-45535700D01*
X102744300Y-45373802D01*
X102739792Y-45370645D01*
X102739789Y-45370643D01*
X102661611Y-45315902D01*
X102556749Y-45242477D01*
X102551767Y-45240154D01*
X102551762Y-45240151D01*
X102354225Y-45148039D01*
X102354224Y-45148039D01*
X102349243Y-45145716D01*
X102343935Y-45144294D01*
X102343933Y-45144293D01*
X102133402Y-45087881D01*
X102133400Y-45087881D01*
X102128087Y-45086457D01*
X101900000Y-45066502D01*
X101671913Y-45086457D01*
X101666600Y-45087881D01*
X101666598Y-45087881D01*
X101456067Y-45144293D01*
X101456065Y-45144294D01*
X101450757Y-45145716D01*
X101445776Y-45148039D01*
X101445775Y-45148039D01*
X101248238Y-45240151D01*
X101248233Y-45240154D01*
X101243251Y-45242477D01*
X101138389Y-45315902D01*
X101060211Y-45370643D01*
X101060208Y-45370645D01*
X101055700Y-45373802D01*
X100893802Y-45535700D01*
X100890645Y-45540208D01*
X100890643Y-45540211D01*
X100845820Y-45604225D01*
X100762477Y-45723251D01*
X100760154Y-45728233D01*
X100760151Y-45728238D01*
X100725867Y-45801762D01*
X100665716Y-45930757D01*
X100664294Y-45936065D01*
X100664293Y-45936067D01*
X100647645Y-45998197D01*
X100606457Y-46151913D01*
X100586502Y-46380000D01*
X97813498Y-46380000D01*
X97793543Y-46151913D01*
X97752355Y-45998197D01*
X97735707Y-45936067D01*
X97735706Y-45936065D01*
X97734284Y-45930757D01*
X97674133Y-45801762D01*
X97639849Y-45728238D01*
X97639846Y-45728233D01*
X97637523Y-45723251D01*
X97554180Y-45604225D01*
X97509357Y-45540211D01*
X97509355Y-45540208D01*
X97506198Y-45535700D01*
X97344300Y-45373802D01*
X97339792Y-45370645D01*
X97339789Y-45370643D01*
X97261611Y-45315902D01*
X97156749Y-45242477D01*
X97151767Y-45240154D01*
X97151762Y-45240151D01*
X96954225Y-45148039D01*
X96954224Y-45148039D01*
X96949243Y-45145716D01*
X96943935Y-45144294D01*
X96943933Y-45144293D01*
X96733402Y-45087881D01*
X96733400Y-45087881D01*
X96728087Y-45086457D01*
X96500000Y-45066502D01*
X96271913Y-45086457D01*
X96266600Y-45087881D01*
X96266598Y-45087881D01*
X96056067Y-45144293D01*
X96056065Y-45144294D01*
X96050757Y-45145716D01*
X96045776Y-45148039D01*
X96045775Y-45148039D01*
X95848238Y-45240151D01*
X95848233Y-45240154D01*
X95843251Y-45242477D01*
X95738389Y-45315902D01*
X95660211Y-45370643D01*
X95660208Y-45370645D01*
X95655700Y-45373802D01*
X95493802Y-45535700D01*
X95490645Y-45540208D01*
X95490643Y-45540211D01*
X95445820Y-45604225D01*
X95362477Y-45723251D01*
X95360154Y-45728233D01*
X95360151Y-45728238D01*
X95325867Y-45801762D01*
X95265716Y-45930757D01*
X95264294Y-45936065D01*
X95264293Y-45936067D01*
X95247645Y-45998197D01*
X95206457Y-46151913D01*
X95186502Y-46380000D01*
X57258430Y-46380000D01*
X57451762Y-46289849D01*
X57451767Y-46289846D01*
X57456749Y-46287523D01*
X57561611Y-46214098D01*
X57639789Y-46159357D01*
X57639792Y-46159355D01*
X57644300Y-46156198D01*
X57806198Y-45994300D01*
X57850692Y-45930757D01*
X57934366Y-45811257D01*
X57937523Y-45806749D01*
X57939846Y-45801767D01*
X57939849Y-45801762D01*
X58031961Y-45604225D01*
X58031961Y-45604224D01*
X58034284Y-45599243D01*
X58051311Y-45535700D01*
X58092119Y-45383402D01*
X58092119Y-45383400D01*
X58093543Y-45378087D01*
X58113498Y-45150000D01*
X58093543Y-44921913D01*
X58034284Y-44700757D01*
X58031961Y-44695775D01*
X57939849Y-44498238D01*
X57939846Y-44498233D01*
X57937523Y-44493251D01*
X57864098Y-44388389D01*
X57809357Y-44310211D01*
X57809355Y-44310208D01*
X57806198Y-44305700D01*
X57644300Y-44143802D01*
X57639792Y-44140645D01*
X57639789Y-44140643D01*
X57461253Y-44015631D01*
X57456749Y-44012477D01*
X57451765Y-44010153D01*
X57449472Y-44008829D01*
X57400479Y-43957447D01*
X57387043Y-43887733D01*
X57413429Y-43821822D01*
X57449472Y-43790591D01*
X57461002Y-43783934D01*
X57513048Y-43747491D01*
X57521424Y-43737012D01*
X57514356Y-43723566D01*
X57331649Y-43540859D01*
X72777132Y-43540859D01*
X72790457Y-43744151D01*
X72840605Y-43941610D01*
X72925898Y-44126624D01*
X73043479Y-44292997D01*
X73047613Y-44297024D01*
X73170469Y-44416705D01*
X73189410Y-44435157D01*
X73194206Y-44438362D01*
X73194209Y-44438364D01*
X73283817Y-44498238D01*
X73358803Y-44548342D01*
X73364106Y-44550620D01*
X73364109Y-44550622D01*
X73540680Y-44626483D01*
X73545987Y-44628763D01*
X73618817Y-44645243D01*
X73739055Y-44672450D01*
X73739060Y-44672451D01*
X73744692Y-44673725D01*
X73750463Y-44673952D01*
X73750465Y-44673952D01*
X73813470Y-44676427D01*
X73948263Y-44681723D01*
X74149883Y-44652490D01*
X74155347Y-44650635D01*
X74155352Y-44650634D01*
X74337327Y-44588862D01*
X74337332Y-44588860D01*
X74342799Y-44587004D01*
X74520551Y-44487458D01*
X74677186Y-44357186D01*
X74792834Y-44218134D01*
X80401500Y-44218134D01*
X80408255Y-44280316D01*
X80459385Y-44416705D01*
X80546739Y-44533261D01*
X80663295Y-44620615D01*
X80799684Y-44671745D01*
X80861866Y-44678500D01*
X82158134Y-44678500D01*
X82220316Y-44671745D01*
X82356705Y-44620615D01*
X82473261Y-44533261D01*
X82560615Y-44416705D01*
X82611745Y-44280316D01*
X82618500Y-44218134D01*
X82618500Y-42921866D01*
X82611745Y-42859684D01*
X82560615Y-42723295D01*
X82473261Y-42606739D01*
X82356705Y-42519385D01*
X82220316Y-42468255D01*
X82158134Y-42461500D01*
X80861866Y-42461500D01*
X80799684Y-42468255D01*
X80663295Y-42519385D01*
X80546739Y-42606739D01*
X80459385Y-42723295D01*
X80408255Y-42859684D01*
X80401500Y-42921866D01*
X80401500Y-44218134D01*
X74792834Y-44218134D01*
X74807458Y-44200551D01*
X74907004Y-44022799D01*
X74908860Y-44017332D01*
X74908862Y-44017327D01*
X74970634Y-43835352D01*
X74970635Y-43835347D01*
X74972490Y-43829883D01*
X75001723Y-43628263D01*
X75003249Y-43570000D01*
X74984608Y-43367126D01*
X74929307Y-43171047D01*
X74918680Y-43149496D01*
X74841756Y-42993510D01*
X74839201Y-42988329D01*
X74820796Y-42963681D01*
X74720758Y-42829715D01*
X74720758Y-42829714D01*
X74717305Y-42825091D01*
X74567703Y-42686800D01*
X74518056Y-42655475D01*
X74400288Y-42581169D01*
X74400283Y-42581167D01*
X74395404Y-42578088D01*
X74206180Y-42502595D01*
X74006366Y-42462849D01*
X74000592Y-42462773D01*
X74000588Y-42462773D01*
X73897452Y-42461424D01*
X73802655Y-42460183D01*
X73796958Y-42461162D01*
X73796957Y-42461162D01*
X73607567Y-42493705D01*
X73601870Y-42494684D01*
X73410734Y-42565198D01*
X73405773Y-42568150D01*
X73405772Y-42568150D01*
X73252093Y-42659580D01*
X73235649Y-42669363D01*
X73082478Y-42803690D01*
X73078911Y-42808215D01*
X73078906Y-42808220D01*
X73028217Y-42872519D01*
X72956351Y-42963681D01*
X72861492Y-43143978D01*
X72801078Y-43338543D01*
X72777132Y-43540859D01*
X57331649Y-43540859D01*
X56812812Y-43022022D01*
X56798868Y-43014408D01*
X56797035Y-43014539D01*
X56790420Y-43018790D01*
X56084923Y-43724287D01*
X56078493Y-43736062D01*
X56087789Y-43748077D01*
X56138998Y-43783934D01*
X56150528Y-43790591D01*
X56199521Y-43841973D01*
X56212958Y-43911687D01*
X56186571Y-43977598D01*
X56150528Y-44008829D01*
X56148235Y-44010153D01*
X56143251Y-44012477D01*
X56138747Y-44015631D01*
X55960211Y-44140643D01*
X55960208Y-44140645D01*
X55955700Y-44143802D01*
X55793802Y-44305700D01*
X55790645Y-44310208D01*
X55790643Y-44310211D01*
X55735902Y-44388389D01*
X55662477Y-44493251D01*
X55660154Y-44498233D01*
X55660151Y-44498238D01*
X55568039Y-44695775D01*
X55565716Y-44700757D01*
X55506457Y-44921913D01*
X55486502Y-45150000D01*
X25508500Y-45150000D01*
X25508500Y-42655475D01*
X55487483Y-42655475D01*
X55506472Y-42872519D01*
X55508375Y-42883312D01*
X55564764Y-43093761D01*
X55568510Y-43104053D01*
X55660586Y-43301511D01*
X55666069Y-43311006D01*
X55702509Y-43363048D01*
X55712988Y-43371424D01*
X55726434Y-43364356D01*
X56427978Y-42662812D01*
X56434356Y-42651132D01*
X57164408Y-42651132D01*
X57164539Y-42652965D01*
X57168790Y-42659580D01*
X57874287Y-43365077D01*
X57886062Y-43371507D01*
X57898077Y-43362211D01*
X57933931Y-43311006D01*
X57939414Y-43301511D01*
X58031490Y-43104053D01*
X58035236Y-43093761D01*
X58091625Y-42883312D01*
X58093528Y-42872519D01*
X58112517Y-42655475D01*
X58112517Y-42644525D01*
X58093528Y-42427481D01*
X58091625Y-42416688D01*
X58035236Y-42206239D01*
X58031490Y-42195947D01*
X57939414Y-41998489D01*
X57933931Y-41988994D01*
X57921537Y-41971294D01*
X73313066Y-41971294D01*
X73322948Y-41983783D01*
X73354239Y-42004691D01*
X73364349Y-42010181D01*
X73540835Y-42086005D01*
X73551778Y-42089560D01*
X73739120Y-42131952D01*
X73750530Y-42133454D01*
X73942469Y-42140995D01*
X73953951Y-42140393D01*
X74144045Y-42112832D01*
X74155240Y-42110144D01*
X74337131Y-42048400D01*
X74347628Y-42043726D01*
X74458032Y-41981898D01*
X74467895Y-41971821D01*
X74467692Y-41971294D01*
X80933066Y-41971294D01*
X80942948Y-41983783D01*
X80974239Y-42004691D01*
X80984349Y-42010181D01*
X81160835Y-42086005D01*
X81171778Y-42089560D01*
X81359120Y-42131952D01*
X81370530Y-42133454D01*
X81562469Y-42140995D01*
X81573951Y-42140393D01*
X81764045Y-42112832D01*
X81775240Y-42110144D01*
X81957131Y-42048400D01*
X81967628Y-42043726D01*
X82078032Y-41981898D01*
X82087895Y-41971821D01*
X82084940Y-41964151D01*
X81522811Y-41402021D01*
X81508868Y-41394408D01*
X81507034Y-41394539D01*
X81500420Y-41398790D01*
X80939259Y-41959952D01*
X80933066Y-41971294D01*
X74467692Y-41971294D01*
X74464940Y-41964151D01*
X73902811Y-41402021D01*
X73888868Y-41394408D01*
X73887034Y-41394539D01*
X73880420Y-41398790D01*
X73319259Y-41959952D01*
X73313066Y-41971294D01*
X57921537Y-41971294D01*
X57897491Y-41936952D01*
X57887012Y-41928576D01*
X57873566Y-41935644D01*
X57172022Y-42637188D01*
X57164408Y-42651132D01*
X56434356Y-42651132D01*
X56435592Y-42648868D01*
X56435461Y-42647035D01*
X56431210Y-42640420D01*
X55725713Y-41934923D01*
X55713938Y-41928493D01*
X55701923Y-41937789D01*
X55666069Y-41988994D01*
X55660586Y-41998489D01*
X55568510Y-42195947D01*
X55564764Y-42206239D01*
X55508375Y-42416688D01*
X55506472Y-42427481D01*
X55487483Y-42644525D01*
X55487483Y-42655475D01*
X25508500Y-42655475D01*
X25508500Y-41562988D01*
X56078576Y-41562988D01*
X56085644Y-41576434D01*
X56787188Y-42277978D01*
X56801132Y-42285592D01*
X56802965Y-42285461D01*
X56809580Y-42281210D01*
X57515077Y-41575713D01*
X57521507Y-41563938D01*
X57512211Y-41551923D01*
X57461006Y-41516069D01*
X57451511Y-41510586D01*
X57254053Y-41418510D01*
X57243761Y-41414764D01*
X57033312Y-41358375D01*
X57022519Y-41356472D01*
X56805475Y-41337483D01*
X56794525Y-41337483D01*
X56577481Y-41356472D01*
X56566688Y-41358375D01*
X56356239Y-41414764D01*
X56345947Y-41418510D01*
X56148489Y-41510586D01*
X56138994Y-41516069D01*
X56086952Y-41552509D01*
X56078576Y-41562988D01*
X25508500Y-41562988D01*
X25508500Y-41006638D01*
X72778012Y-41006638D01*
X72790575Y-41198304D01*
X72792376Y-41209674D01*
X72839657Y-41395843D01*
X72843498Y-41406690D01*
X72923916Y-41581130D01*
X72929664Y-41591086D01*
X72935788Y-41599751D01*
X72946377Y-41608140D01*
X72959676Y-41601113D01*
X73517979Y-41042811D01*
X73524356Y-41031132D01*
X74254408Y-41031132D01*
X74254539Y-41032966D01*
X74258790Y-41039580D01*
X74820239Y-41601028D01*
X74832614Y-41607785D01*
X74839194Y-41602859D01*
X74903726Y-41487628D01*
X74908400Y-41477131D01*
X74970144Y-41295240D01*
X74972832Y-41284045D01*
X75000689Y-41091911D01*
X75001319Y-41084528D01*
X75002650Y-41033704D01*
X75002407Y-41026305D01*
X75000600Y-41006638D01*
X80398012Y-41006638D01*
X80410575Y-41198304D01*
X80412376Y-41209674D01*
X80459657Y-41395843D01*
X80463498Y-41406690D01*
X80543916Y-41581130D01*
X80549664Y-41591086D01*
X80555788Y-41599751D01*
X80566377Y-41608140D01*
X80579676Y-41601113D01*
X81137979Y-41042811D01*
X81144356Y-41031132D01*
X81874408Y-41031132D01*
X81874539Y-41032966D01*
X81878790Y-41039580D01*
X82440239Y-41601028D01*
X82452614Y-41607785D01*
X82459194Y-41602859D01*
X82523726Y-41487628D01*
X82528400Y-41477131D01*
X82590144Y-41295240D01*
X82592832Y-41284045D01*
X82620689Y-41091911D01*
X82621319Y-41084528D01*
X82622650Y-41033704D01*
X82622407Y-41026305D01*
X82604643Y-40832975D01*
X82602545Y-40821654D01*
X82550408Y-40636791D01*
X82546283Y-40626044D01*
X82462163Y-40455465D01*
X82454869Y-40449990D01*
X82442449Y-40456762D01*
X81882021Y-41017189D01*
X81874408Y-41031132D01*
X81144356Y-41031132D01*
X81145592Y-41028868D01*
X81145461Y-41027034D01*
X81141210Y-41020420D01*
X80578538Y-40457749D01*
X80566163Y-40450992D01*
X80560197Y-40455458D01*
X80484645Y-40599058D01*
X80480242Y-40609691D01*
X80423281Y-40793132D01*
X80420891Y-40804376D01*
X80398313Y-40995137D01*
X80398012Y-41006638D01*
X75000600Y-41006638D01*
X74984643Y-40832975D01*
X74982545Y-40821654D01*
X74930408Y-40636791D01*
X74926283Y-40626044D01*
X74842163Y-40455465D01*
X74834869Y-40449990D01*
X74822449Y-40456762D01*
X74262021Y-41017189D01*
X74254408Y-41031132D01*
X73524356Y-41031132D01*
X73525592Y-41028868D01*
X73525461Y-41027034D01*
X73521210Y-41020420D01*
X72958538Y-40457749D01*
X72946163Y-40450992D01*
X72940197Y-40455458D01*
X72864645Y-40599058D01*
X72860242Y-40609691D01*
X72803281Y-40793132D01*
X72800891Y-40804376D01*
X72778313Y-40995137D01*
X72778012Y-41006638D01*
X25508500Y-41006638D01*
X25508500Y-40088675D01*
X73312788Y-40088675D01*
X73316275Y-40097064D01*
X73877189Y-40657979D01*
X73891132Y-40665592D01*
X73892966Y-40665461D01*
X73899580Y-40661210D01*
X74460285Y-40100504D01*
X74466744Y-40088675D01*
X80932788Y-40088675D01*
X80936275Y-40097064D01*
X81497189Y-40657979D01*
X81511132Y-40665592D01*
X81512966Y-40665461D01*
X81519580Y-40661210D01*
X82080285Y-40100504D01*
X82087042Y-40088129D01*
X82081012Y-40080073D01*
X82020061Y-40041616D01*
X82009813Y-40036395D01*
X81831401Y-39965216D01*
X81820373Y-39961949D01*
X81631982Y-39924476D01*
X81620535Y-39923273D01*
X81428477Y-39920759D01*
X81416997Y-39921662D01*
X81227697Y-39954190D01*
X81216577Y-39957170D01*
X81036365Y-40023653D01*
X81025991Y-40028601D01*
X80942385Y-40078342D01*
X80932788Y-40088675D01*
X74466744Y-40088675D01*
X74467042Y-40088129D01*
X74461012Y-40080073D01*
X74400061Y-40041616D01*
X74389813Y-40036395D01*
X74211401Y-39965216D01*
X74200373Y-39961949D01*
X74011982Y-39924476D01*
X74000535Y-39923273D01*
X73808477Y-39920759D01*
X73796997Y-39921662D01*
X73607697Y-39954190D01*
X73596577Y-39957170D01*
X73416365Y-40023653D01*
X73405991Y-40028601D01*
X73322385Y-40078342D01*
X73312788Y-40088675D01*
X25508500Y-40088675D01*
X25508500Y-36220000D01*
X95186502Y-36220000D01*
X95206457Y-36448087D01*
X95265716Y-36669243D01*
X95268039Y-36674224D01*
X95268039Y-36674225D01*
X95360151Y-36871762D01*
X95360154Y-36871767D01*
X95362477Y-36876749D01*
X95493802Y-37064300D01*
X95655700Y-37226198D01*
X95660208Y-37229355D01*
X95660211Y-37229357D01*
X95738389Y-37284098D01*
X95843251Y-37357523D01*
X95848233Y-37359846D01*
X95848238Y-37359849D01*
X96045775Y-37451961D01*
X96050757Y-37454284D01*
X96056065Y-37455706D01*
X96056067Y-37455707D01*
X96266598Y-37512119D01*
X96266600Y-37512119D01*
X96271913Y-37513543D01*
X96500000Y-37533498D01*
X96728087Y-37513543D01*
X96733400Y-37512119D01*
X96733402Y-37512119D01*
X96943933Y-37455707D01*
X96943935Y-37455706D01*
X96949243Y-37454284D01*
X96954225Y-37451961D01*
X97151762Y-37359849D01*
X97151767Y-37359846D01*
X97156749Y-37357523D01*
X97261611Y-37284098D01*
X97339789Y-37229357D01*
X97339792Y-37229355D01*
X97344300Y-37226198D01*
X97506198Y-37064300D01*
X97637523Y-36876749D01*
X97639846Y-36871767D01*
X97639849Y-36871762D01*
X97731961Y-36674225D01*
X97731961Y-36674224D01*
X97734284Y-36669243D01*
X97793543Y-36448087D01*
X97813498Y-36220000D01*
X100586502Y-36220000D01*
X100606457Y-36448087D01*
X100665716Y-36669243D01*
X100668039Y-36674224D01*
X100668039Y-36674225D01*
X100760151Y-36871762D01*
X100760154Y-36871767D01*
X100762477Y-36876749D01*
X100893802Y-37064300D01*
X101055700Y-37226198D01*
X101060208Y-37229355D01*
X101060211Y-37229357D01*
X101138389Y-37284098D01*
X101243251Y-37357523D01*
X101248233Y-37359846D01*
X101248238Y-37359849D01*
X101445775Y-37451961D01*
X101450757Y-37454284D01*
X101456065Y-37455706D01*
X101456067Y-37455707D01*
X101666598Y-37512119D01*
X101666600Y-37512119D01*
X101671913Y-37513543D01*
X101900000Y-37533498D01*
X102128087Y-37513543D01*
X102133400Y-37512119D01*
X102133402Y-37512119D01*
X102343933Y-37455707D01*
X102343935Y-37455706D01*
X102349243Y-37454284D01*
X102354225Y-37451961D01*
X102551762Y-37359849D01*
X102551767Y-37359846D01*
X102556749Y-37357523D01*
X102661611Y-37284098D01*
X102739789Y-37229357D01*
X102739792Y-37229355D01*
X102744300Y-37226198D01*
X102906198Y-37064300D01*
X103037523Y-36876749D01*
X103039846Y-36871767D01*
X103039849Y-36871762D01*
X103131961Y-36674225D01*
X103131961Y-36674224D01*
X103134284Y-36669243D01*
X103193543Y-36448087D01*
X103213498Y-36220000D01*
X103193543Y-35991913D01*
X103134284Y-35770757D01*
X103131961Y-35765775D01*
X103039849Y-35568238D01*
X103039846Y-35568233D01*
X103037523Y-35563251D01*
X102906198Y-35375700D01*
X102744300Y-35213802D01*
X102739792Y-35210645D01*
X102739789Y-35210643D01*
X102661611Y-35155902D01*
X102556749Y-35082477D01*
X102551767Y-35080154D01*
X102551762Y-35080151D01*
X102354225Y-34988039D01*
X102354224Y-34988039D01*
X102349243Y-34985716D01*
X102343935Y-34984294D01*
X102343933Y-34984293D01*
X102133402Y-34927881D01*
X102133400Y-34927881D01*
X102128087Y-34926457D01*
X101900000Y-34906502D01*
X101671913Y-34926457D01*
X101666600Y-34927881D01*
X101666598Y-34927881D01*
X101456067Y-34984293D01*
X101456065Y-34984294D01*
X101450757Y-34985716D01*
X101445776Y-34988039D01*
X101445775Y-34988039D01*
X101248238Y-35080151D01*
X101248233Y-35080154D01*
X101243251Y-35082477D01*
X101138389Y-35155902D01*
X101060211Y-35210643D01*
X101060208Y-35210645D01*
X101055700Y-35213802D01*
X100893802Y-35375700D01*
X100762477Y-35563251D01*
X100760154Y-35568233D01*
X100760151Y-35568238D01*
X100668039Y-35765775D01*
X100665716Y-35770757D01*
X100606457Y-35991913D01*
X100586502Y-36220000D01*
X97813498Y-36220000D01*
X97793543Y-35991913D01*
X97734284Y-35770757D01*
X97731961Y-35765775D01*
X97639849Y-35568238D01*
X97639846Y-35568233D01*
X97637523Y-35563251D01*
X97506198Y-35375700D01*
X97344300Y-35213802D01*
X97339792Y-35210645D01*
X97339789Y-35210643D01*
X97261611Y-35155902D01*
X97156749Y-35082477D01*
X97151767Y-35080154D01*
X97151762Y-35080151D01*
X96954225Y-34988039D01*
X96954224Y-34988039D01*
X96949243Y-34985716D01*
X96943935Y-34984294D01*
X96943933Y-34984293D01*
X96733402Y-34927881D01*
X96733400Y-34927881D01*
X96728087Y-34926457D01*
X96500000Y-34906502D01*
X96271913Y-34926457D01*
X96266600Y-34927881D01*
X96266598Y-34927881D01*
X96056067Y-34984293D01*
X96056065Y-34984294D01*
X96050757Y-34985716D01*
X96045776Y-34988039D01*
X96045775Y-34988039D01*
X95848238Y-35080151D01*
X95848233Y-35080154D01*
X95843251Y-35082477D01*
X95738389Y-35155902D01*
X95660211Y-35210643D01*
X95660208Y-35210645D01*
X95655700Y-35213802D01*
X95493802Y-35375700D01*
X95362477Y-35563251D01*
X95360154Y-35568233D01*
X95360151Y-35568238D01*
X95268039Y-35765775D01*
X95265716Y-35770757D01*
X95206457Y-35991913D01*
X95186502Y-36220000D01*
X25508500Y-36220000D01*
X25508500Y-33456695D01*
X27307251Y-33456695D01*
X27320110Y-33679715D01*
X27321247Y-33684761D01*
X27321248Y-33684767D01*
X27342275Y-33778069D01*
X27369222Y-33897639D01*
X27453266Y-34104616D01*
X27490685Y-34165678D01*
X27567291Y-34290688D01*
X27569987Y-34295088D01*
X27716250Y-34463938D01*
X27888126Y-34606632D01*
X28081000Y-34719338D01*
X28289692Y-34799030D01*
X28294760Y-34800061D01*
X28294763Y-34800062D01*
X28389862Y-34819410D01*
X28508597Y-34843567D01*
X28513772Y-34843757D01*
X28513774Y-34843757D01*
X28726673Y-34851564D01*
X28726677Y-34851564D01*
X28731837Y-34851753D01*
X28736957Y-34851097D01*
X28736959Y-34851097D01*
X28948288Y-34824025D01*
X28948289Y-34824025D01*
X28953416Y-34823368D01*
X28958366Y-34821883D01*
X29162429Y-34760661D01*
X29162434Y-34760659D01*
X29167384Y-34759174D01*
X29367994Y-34660896D01*
X29549860Y-34531173D01*
X29708096Y-34373489D01*
X29767594Y-34290689D01*
X29838453Y-34192077D01*
X29839776Y-34193028D01*
X29886645Y-34149857D01*
X29956580Y-34137625D01*
X30022026Y-34165144D01*
X30049875Y-34196994D01*
X30109987Y-34295088D01*
X30256250Y-34463938D01*
X30428126Y-34606632D01*
X30621000Y-34719338D01*
X30829692Y-34799030D01*
X30834760Y-34800061D01*
X30834763Y-34800062D01*
X30929862Y-34819410D01*
X31048597Y-34843567D01*
X31053772Y-34843757D01*
X31053774Y-34843757D01*
X31266673Y-34851564D01*
X31266677Y-34851564D01*
X31271837Y-34851753D01*
X31276957Y-34851097D01*
X31276959Y-34851097D01*
X31488288Y-34824025D01*
X31488289Y-34824025D01*
X31493416Y-34823368D01*
X31498366Y-34821883D01*
X31702429Y-34760661D01*
X31702434Y-34760659D01*
X31707384Y-34759174D01*
X31907994Y-34660896D01*
X32089860Y-34531173D01*
X32248096Y-34373489D01*
X32307594Y-34290689D01*
X32378453Y-34192077D01*
X32379776Y-34193028D01*
X32426645Y-34149857D01*
X32496580Y-34137625D01*
X32562026Y-34165144D01*
X32589875Y-34196994D01*
X32649987Y-34295088D01*
X32796250Y-34463938D01*
X32968126Y-34606632D01*
X33161000Y-34719338D01*
X33369692Y-34799030D01*
X33374760Y-34800061D01*
X33374763Y-34800062D01*
X33469862Y-34819410D01*
X33588597Y-34843567D01*
X33593772Y-34843757D01*
X33593774Y-34843757D01*
X33806673Y-34851564D01*
X33806677Y-34851564D01*
X33811837Y-34851753D01*
X33816957Y-34851097D01*
X33816959Y-34851097D01*
X34028288Y-34824025D01*
X34028289Y-34824025D01*
X34033416Y-34823368D01*
X34038366Y-34821883D01*
X34242429Y-34760661D01*
X34242434Y-34760659D01*
X34247384Y-34759174D01*
X34447994Y-34660896D01*
X34629860Y-34531173D01*
X34788096Y-34373489D01*
X34847594Y-34290689D01*
X34918453Y-34192077D01*
X34919776Y-34193028D01*
X34966645Y-34149857D01*
X35036580Y-34137625D01*
X35102026Y-34165144D01*
X35129875Y-34196994D01*
X35189987Y-34295088D01*
X35336250Y-34463938D01*
X35508126Y-34606632D01*
X35701000Y-34719338D01*
X35909692Y-34799030D01*
X35914760Y-34800061D01*
X35914763Y-34800062D01*
X36009862Y-34819410D01*
X36128597Y-34843567D01*
X36133772Y-34843757D01*
X36133774Y-34843757D01*
X36346673Y-34851564D01*
X36346677Y-34851564D01*
X36351837Y-34851753D01*
X36356957Y-34851097D01*
X36356959Y-34851097D01*
X36568288Y-34824025D01*
X36568289Y-34824025D01*
X36573416Y-34823368D01*
X36578366Y-34821883D01*
X36782429Y-34760661D01*
X36782434Y-34760659D01*
X36787384Y-34759174D01*
X36987994Y-34660896D01*
X37169860Y-34531173D01*
X37328096Y-34373489D01*
X37387594Y-34290689D01*
X37458453Y-34192077D01*
X37459776Y-34193028D01*
X37506645Y-34149857D01*
X37576580Y-34137625D01*
X37642026Y-34165144D01*
X37669875Y-34196994D01*
X37729987Y-34295088D01*
X37876250Y-34463938D01*
X38048126Y-34606632D01*
X38241000Y-34719338D01*
X38449692Y-34799030D01*
X38454760Y-34800061D01*
X38454763Y-34800062D01*
X38549862Y-34819410D01*
X38668597Y-34843567D01*
X38673772Y-34843757D01*
X38673774Y-34843757D01*
X38886673Y-34851564D01*
X38886677Y-34851564D01*
X38891837Y-34851753D01*
X38896957Y-34851097D01*
X38896959Y-34851097D01*
X39108288Y-34824025D01*
X39108289Y-34824025D01*
X39113416Y-34823368D01*
X39118366Y-34821883D01*
X39322429Y-34760661D01*
X39322434Y-34760659D01*
X39327384Y-34759174D01*
X39527994Y-34660896D01*
X39709860Y-34531173D01*
X39868096Y-34373489D01*
X39927594Y-34290689D01*
X39998453Y-34192077D01*
X39999776Y-34193028D01*
X40046645Y-34149857D01*
X40116580Y-34137625D01*
X40182026Y-34165144D01*
X40209875Y-34196994D01*
X40269987Y-34295088D01*
X40416250Y-34463938D01*
X40588126Y-34606632D01*
X40781000Y-34719338D01*
X40989692Y-34799030D01*
X40994760Y-34800061D01*
X40994763Y-34800062D01*
X41089862Y-34819410D01*
X41208597Y-34843567D01*
X41213772Y-34843757D01*
X41213774Y-34843757D01*
X41426673Y-34851564D01*
X41426677Y-34851564D01*
X41431837Y-34851753D01*
X41436957Y-34851097D01*
X41436959Y-34851097D01*
X41648288Y-34824025D01*
X41648289Y-34824025D01*
X41653416Y-34823368D01*
X41658366Y-34821883D01*
X41862429Y-34760661D01*
X41862434Y-34760659D01*
X41867384Y-34759174D01*
X42067994Y-34660896D01*
X42249860Y-34531173D01*
X42408096Y-34373489D01*
X42467594Y-34290689D01*
X42538453Y-34192077D01*
X42539776Y-34193028D01*
X42586645Y-34149857D01*
X42656580Y-34137625D01*
X42722026Y-34165144D01*
X42749875Y-34196994D01*
X42809987Y-34295088D01*
X42956250Y-34463938D01*
X43128126Y-34606632D01*
X43321000Y-34719338D01*
X43529692Y-34799030D01*
X43534760Y-34800061D01*
X43534763Y-34800062D01*
X43629862Y-34819410D01*
X43748597Y-34843567D01*
X43753772Y-34843757D01*
X43753774Y-34843757D01*
X43966673Y-34851564D01*
X43966677Y-34851564D01*
X43971837Y-34851753D01*
X43976957Y-34851097D01*
X43976959Y-34851097D01*
X44188288Y-34824025D01*
X44188289Y-34824025D01*
X44193416Y-34823368D01*
X44198366Y-34821883D01*
X44402429Y-34760661D01*
X44402434Y-34760659D01*
X44407384Y-34759174D01*
X44607994Y-34660896D01*
X44789860Y-34531173D01*
X44948096Y-34373489D01*
X45007594Y-34290689D01*
X45078453Y-34192077D01*
X45079776Y-34193028D01*
X45126645Y-34149857D01*
X45196580Y-34137625D01*
X45262026Y-34165144D01*
X45289875Y-34196994D01*
X45349987Y-34295088D01*
X45496250Y-34463938D01*
X45668126Y-34606632D01*
X45861000Y-34719338D01*
X46069692Y-34799030D01*
X46074760Y-34800061D01*
X46074763Y-34800062D01*
X46169862Y-34819410D01*
X46288597Y-34843567D01*
X46293772Y-34843757D01*
X46293774Y-34843757D01*
X46506673Y-34851564D01*
X46506677Y-34851564D01*
X46511837Y-34851753D01*
X46516957Y-34851097D01*
X46516959Y-34851097D01*
X46728288Y-34824025D01*
X46728289Y-34824025D01*
X46733416Y-34823368D01*
X46738366Y-34821883D01*
X46942429Y-34760661D01*
X46942434Y-34760659D01*
X46947384Y-34759174D01*
X47147994Y-34660896D01*
X47329860Y-34531173D01*
X47488096Y-34373489D01*
X47547594Y-34290689D01*
X47618453Y-34192077D01*
X47619776Y-34193028D01*
X47666645Y-34149857D01*
X47736580Y-34137625D01*
X47802026Y-34165144D01*
X47829875Y-34196994D01*
X47889987Y-34295088D01*
X48036250Y-34463938D01*
X48208126Y-34606632D01*
X48401000Y-34719338D01*
X48609692Y-34799030D01*
X48614760Y-34800061D01*
X48614763Y-34800062D01*
X48709862Y-34819410D01*
X48828597Y-34843567D01*
X48833772Y-34843757D01*
X48833774Y-34843757D01*
X49046673Y-34851564D01*
X49046677Y-34851564D01*
X49051837Y-34851753D01*
X49056957Y-34851097D01*
X49056959Y-34851097D01*
X49268288Y-34824025D01*
X49268289Y-34824025D01*
X49273416Y-34823368D01*
X49278366Y-34821883D01*
X49482429Y-34760661D01*
X49482434Y-34760659D01*
X49487384Y-34759174D01*
X49687994Y-34660896D01*
X49869860Y-34531173D01*
X50028096Y-34373489D01*
X50087594Y-34290689D01*
X50158453Y-34192077D01*
X50159776Y-34193028D01*
X50206645Y-34149857D01*
X50276580Y-34137625D01*
X50342026Y-34165144D01*
X50369875Y-34196994D01*
X50429987Y-34295088D01*
X50576250Y-34463938D01*
X50748126Y-34606632D01*
X50941000Y-34719338D01*
X51149692Y-34799030D01*
X51154760Y-34800061D01*
X51154763Y-34800062D01*
X51249862Y-34819410D01*
X51368597Y-34843567D01*
X51373772Y-34843757D01*
X51373774Y-34843757D01*
X51586673Y-34851564D01*
X51586677Y-34851564D01*
X51591837Y-34851753D01*
X51596957Y-34851097D01*
X51596959Y-34851097D01*
X51808288Y-34824025D01*
X51808289Y-34824025D01*
X51813416Y-34823368D01*
X51818366Y-34821883D01*
X52022429Y-34760661D01*
X52022434Y-34760659D01*
X52027384Y-34759174D01*
X52227994Y-34660896D01*
X52409860Y-34531173D01*
X52568096Y-34373489D01*
X52627594Y-34290689D01*
X52698453Y-34192077D01*
X52699776Y-34193028D01*
X52746645Y-34149857D01*
X52816580Y-34137625D01*
X52882026Y-34165144D01*
X52909875Y-34196994D01*
X52969987Y-34295088D01*
X53116250Y-34463938D01*
X53288126Y-34606632D01*
X53481000Y-34719338D01*
X53689692Y-34799030D01*
X53694760Y-34800061D01*
X53694763Y-34800062D01*
X53789862Y-34819410D01*
X53908597Y-34843567D01*
X53913772Y-34843757D01*
X53913774Y-34843757D01*
X54126673Y-34851564D01*
X54126677Y-34851564D01*
X54131837Y-34851753D01*
X54136957Y-34851097D01*
X54136959Y-34851097D01*
X54348288Y-34824025D01*
X54348289Y-34824025D01*
X54353416Y-34823368D01*
X54358366Y-34821883D01*
X54562429Y-34760661D01*
X54562434Y-34760659D01*
X54567384Y-34759174D01*
X54767994Y-34660896D01*
X54949860Y-34531173D01*
X55108096Y-34373489D01*
X55167594Y-34290689D01*
X55238453Y-34192077D01*
X55239640Y-34192930D01*
X55286960Y-34149362D01*
X55356897Y-34137145D01*
X55422338Y-34164678D01*
X55450166Y-34196511D01*
X55507694Y-34290388D01*
X55513777Y-34298699D01*
X55653213Y-34459667D01*
X55660580Y-34466883D01*
X55824434Y-34602916D01*
X55832881Y-34608831D01*
X56016756Y-34716279D01*
X56026042Y-34720729D01*
X56225001Y-34796703D01*
X56234899Y-34799579D01*
X56338250Y-34820606D01*
X56352299Y-34819410D01*
X56356000Y-34809065D01*
X56356000Y-34808517D01*
X56864000Y-34808517D01*
X56868064Y-34822359D01*
X56881478Y-34824393D01*
X56888184Y-34823534D01*
X56898262Y-34821392D01*
X57102255Y-34760191D01*
X57111842Y-34756433D01*
X57303095Y-34662739D01*
X57311945Y-34657464D01*
X57485328Y-34533792D01*
X57493200Y-34527139D01*
X57644052Y-34376812D01*
X57650730Y-34368965D01*
X57778022Y-34191819D01*
X57779279Y-34192722D01*
X57826373Y-34149362D01*
X57896311Y-34137145D01*
X57961751Y-34164678D01*
X57989579Y-34196511D01*
X58049987Y-34295088D01*
X58196250Y-34463938D01*
X58368126Y-34606632D01*
X58561000Y-34719338D01*
X58769692Y-34799030D01*
X58774760Y-34800061D01*
X58774763Y-34800062D01*
X58869862Y-34819410D01*
X58988597Y-34843567D01*
X58993772Y-34843757D01*
X58993774Y-34843757D01*
X59206673Y-34851564D01*
X59206677Y-34851564D01*
X59211837Y-34851753D01*
X59216957Y-34851097D01*
X59216959Y-34851097D01*
X59428288Y-34824025D01*
X59428289Y-34824025D01*
X59433416Y-34823368D01*
X59438366Y-34821883D01*
X59642429Y-34760661D01*
X59642434Y-34760659D01*
X59647384Y-34759174D01*
X59847994Y-34660896D01*
X60029860Y-34531173D01*
X60188096Y-34373489D01*
X60247594Y-34290689D01*
X60318453Y-34192077D01*
X60319776Y-34193028D01*
X60366645Y-34149857D01*
X60436580Y-34137625D01*
X60502026Y-34165144D01*
X60529875Y-34196994D01*
X60589987Y-34295088D01*
X60736250Y-34463938D01*
X60908126Y-34606632D01*
X61101000Y-34719338D01*
X61309692Y-34799030D01*
X61314760Y-34800061D01*
X61314763Y-34800062D01*
X61409862Y-34819410D01*
X61528597Y-34843567D01*
X61533772Y-34843757D01*
X61533774Y-34843757D01*
X61746673Y-34851564D01*
X61746677Y-34851564D01*
X61751837Y-34851753D01*
X61756957Y-34851097D01*
X61756959Y-34851097D01*
X61968288Y-34824025D01*
X61968289Y-34824025D01*
X61973416Y-34823368D01*
X61978366Y-34821883D01*
X62182429Y-34760661D01*
X62182434Y-34760659D01*
X62187384Y-34759174D01*
X62387994Y-34660896D01*
X62569860Y-34531173D01*
X62678091Y-34423319D01*
X62740462Y-34389404D01*
X62811268Y-34394592D01*
X62868030Y-34437238D01*
X62885012Y-34468341D01*
X62929385Y-34586705D01*
X63016739Y-34703261D01*
X63133295Y-34790615D01*
X63269684Y-34841745D01*
X63331866Y-34848500D01*
X65128134Y-34848500D01*
X65190316Y-34841745D01*
X65326705Y-34790615D01*
X65443261Y-34703261D01*
X65530615Y-34586705D01*
X65581745Y-34450316D01*
X65588500Y-34388134D01*
X65588500Y-32591866D01*
X65581745Y-32529684D01*
X65530615Y-32393295D01*
X65443261Y-32276739D01*
X65326705Y-32189385D01*
X65190316Y-32138255D01*
X65128134Y-32131500D01*
X63331866Y-32131500D01*
X63269684Y-32138255D01*
X63133295Y-32189385D01*
X63016739Y-32276739D01*
X62929385Y-32393295D01*
X62926233Y-32401703D01*
X62884919Y-32511907D01*
X62842277Y-32568671D01*
X62775716Y-32593371D01*
X62706367Y-32578163D01*
X62673743Y-32552476D01*
X62623151Y-32496875D01*
X62623142Y-32496866D01*
X62619670Y-32493051D01*
X62615619Y-32489852D01*
X62615615Y-32489848D01*
X62448414Y-32357800D01*
X62448410Y-32357798D01*
X62444359Y-32354598D01*
X62408028Y-32334542D01*
X62392136Y-32325769D01*
X62248789Y-32246638D01*
X62243920Y-32244914D01*
X62243916Y-32244912D01*
X62043087Y-32173795D01*
X62043083Y-32173794D01*
X62038212Y-32172069D01*
X62033119Y-32171162D01*
X62033116Y-32171161D01*
X61823373Y-32133800D01*
X61823367Y-32133799D01*
X61818284Y-32132894D01*
X61744452Y-32131992D01*
X61600081Y-32130228D01*
X61600079Y-32130228D01*
X61594911Y-32130165D01*
X61374091Y-32163955D01*
X61161756Y-32233357D01*
X60963607Y-32336507D01*
X60959474Y-32339610D01*
X60959471Y-32339612D01*
X60789100Y-32467530D01*
X60784965Y-32470635D01*
X60759541Y-32497240D01*
X60691280Y-32568671D01*
X60630629Y-32632138D01*
X60523201Y-32789621D01*
X60468293Y-32834621D01*
X60397768Y-32842792D01*
X60334021Y-32811538D01*
X60313324Y-32787054D01*
X60232822Y-32662617D01*
X60232820Y-32662614D01*
X60230014Y-32658277D01*
X60079670Y-32493051D01*
X60075619Y-32489852D01*
X60075615Y-32489848D01*
X59908414Y-32357800D01*
X59908410Y-32357798D01*
X59904359Y-32354598D01*
X59868028Y-32334542D01*
X59852136Y-32325769D01*
X59708789Y-32246638D01*
X59703920Y-32244914D01*
X59703916Y-32244912D01*
X59503087Y-32173795D01*
X59503083Y-32173794D01*
X59498212Y-32172069D01*
X59493119Y-32171162D01*
X59493116Y-32171161D01*
X59283373Y-32133800D01*
X59283367Y-32133799D01*
X59278284Y-32132894D01*
X59204452Y-32131992D01*
X59060081Y-32130228D01*
X59060079Y-32130228D01*
X59054911Y-32130165D01*
X58834091Y-32163955D01*
X58621756Y-32233357D01*
X58423607Y-32336507D01*
X58419474Y-32339610D01*
X58419471Y-32339612D01*
X58249100Y-32467530D01*
X58244965Y-32470635D01*
X58219541Y-32497240D01*
X58151280Y-32568671D01*
X58090629Y-32632138D01*
X57983204Y-32789618D01*
X57982898Y-32790066D01*
X57927987Y-32835069D01*
X57857462Y-32843240D01*
X57793715Y-32811986D01*
X57773018Y-32787502D01*
X57692426Y-32662926D01*
X57686136Y-32654757D01*
X57542806Y-32497240D01*
X57535273Y-32490215D01*
X57368139Y-32358222D01*
X57359552Y-32352517D01*
X57173117Y-32249599D01*
X57163705Y-32245369D01*
X56962959Y-32174280D01*
X56952988Y-32171646D01*
X56881837Y-32158972D01*
X56868540Y-32160432D01*
X56864000Y-32174989D01*
X56864000Y-34808517D01*
X56356000Y-34808517D01*
X56356000Y-32173102D01*
X56352082Y-32159758D01*
X56337806Y-32157771D01*
X56299324Y-32163660D01*
X56289288Y-32166051D01*
X56086868Y-32232212D01*
X56077359Y-32236209D01*
X55888463Y-32334542D01*
X55879738Y-32340036D01*
X55709433Y-32467905D01*
X55701726Y-32474748D01*
X55554590Y-32628717D01*
X55548109Y-32636722D01*
X55443498Y-32790074D01*
X55388587Y-32835076D01*
X55318062Y-32843247D01*
X55254315Y-32811993D01*
X55233618Y-32787509D01*
X55152822Y-32662617D01*
X55152820Y-32662614D01*
X55150014Y-32658277D01*
X54999670Y-32493051D01*
X54995619Y-32489852D01*
X54995615Y-32489848D01*
X54828414Y-32357800D01*
X54828410Y-32357798D01*
X54824359Y-32354598D01*
X54788028Y-32334542D01*
X54772136Y-32325769D01*
X54628789Y-32246638D01*
X54623920Y-32244914D01*
X54623916Y-32244912D01*
X54423087Y-32173795D01*
X54423083Y-32173794D01*
X54418212Y-32172069D01*
X54413119Y-32171162D01*
X54413116Y-32171161D01*
X54203373Y-32133800D01*
X54203367Y-32133799D01*
X54198284Y-32132894D01*
X54124452Y-32131992D01*
X53980081Y-32130228D01*
X53980079Y-32130228D01*
X53974911Y-32130165D01*
X53754091Y-32163955D01*
X53541756Y-32233357D01*
X53343607Y-32336507D01*
X53339474Y-32339610D01*
X53339471Y-32339612D01*
X53169100Y-32467530D01*
X53164965Y-32470635D01*
X53139541Y-32497240D01*
X53071280Y-32568671D01*
X53010629Y-32632138D01*
X52903201Y-32789621D01*
X52848293Y-32834621D01*
X52777768Y-32842792D01*
X52714021Y-32811538D01*
X52693324Y-32787054D01*
X52612822Y-32662617D01*
X52612820Y-32662614D01*
X52610014Y-32658277D01*
X52459670Y-32493051D01*
X52455619Y-32489852D01*
X52455615Y-32489848D01*
X52288414Y-32357800D01*
X52288410Y-32357798D01*
X52284359Y-32354598D01*
X52248028Y-32334542D01*
X52232136Y-32325769D01*
X52088789Y-32246638D01*
X52083920Y-32244914D01*
X52083916Y-32244912D01*
X51883087Y-32173795D01*
X51883083Y-32173794D01*
X51878212Y-32172069D01*
X51873119Y-32171162D01*
X51873116Y-32171161D01*
X51663373Y-32133800D01*
X51663367Y-32133799D01*
X51658284Y-32132894D01*
X51584452Y-32131992D01*
X51440081Y-32130228D01*
X51440079Y-32130228D01*
X51434911Y-32130165D01*
X51214091Y-32163955D01*
X51001756Y-32233357D01*
X50803607Y-32336507D01*
X50799474Y-32339610D01*
X50799471Y-32339612D01*
X50629100Y-32467530D01*
X50624965Y-32470635D01*
X50599541Y-32497240D01*
X50531280Y-32568671D01*
X50470629Y-32632138D01*
X50363201Y-32789621D01*
X50308293Y-32834621D01*
X50237768Y-32842792D01*
X50174021Y-32811538D01*
X50153324Y-32787054D01*
X50072822Y-32662617D01*
X50072820Y-32662614D01*
X50070014Y-32658277D01*
X49919670Y-32493051D01*
X49915619Y-32489852D01*
X49915615Y-32489848D01*
X49748414Y-32357800D01*
X49748410Y-32357798D01*
X49744359Y-32354598D01*
X49708028Y-32334542D01*
X49692136Y-32325769D01*
X49548789Y-32246638D01*
X49543920Y-32244914D01*
X49543916Y-32244912D01*
X49343087Y-32173795D01*
X49343083Y-32173794D01*
X49338212Y-32172069D01*
X49333119Y-32171162D01*
X49333116Y-32171161D01*
X49123373Y-32133800D01*
X49123367Y-32133799D01*
X49118284Y-32132894D01*
X49044452Y-32131992D01*
X48900081Y-32130228D01*
X48900079Y-32130228D01*
X48894911Y-32130165D01*
X48674091Y-32163955D01*
X48461756Y-32233357D01*
X48263607Y-32336507D01*
X48259474Y-32339610D01*
X48259471Y-32339612D01*
X48089100Y-32467530D01*
X48084965Y-32470635D01*
X48059541Y-32497240D01*
X47991280Y-32568671D01*
X47930629Y-32632138D01*
X47823201Y-32789621D01*
X47768293Y-32834621D01*
X47697768Y-32842792D01*
X47634021Y-32811538D01*
X47613324Y-32787054D01*
X47532822Y-32662617D01*
X47532820Y-32662614D01*
X47530014Y-32658277D01*
X47379670Y-32493051D01*
X47375619Y-32489852D01*
X47375615Y-32489848D01*
X47208414Y-32357800D01*
X47208410Y-32357798D01*
X47204359Y-32354598D01*
X47168028Y-32334542D01*
X47152136Y-32325769D01*
X47008789Y-32246638D01*
X47003920Y-32244914D01*
X47003916Y-32244912D01*
X46803087Y-32173795D01*
X46803083Y-32173794D01*
X46798212Y-32172069D01*
X46793119Y-32171162D01*
X46793116Y-32171161D01*
X46583373Y-32133800D01*
X46583367Y-32133799D01*
X46578284Y-32132894D01*
X46504452Y-32131992D01*
X46360081Y-32130228D01*
X46360079Y-32130228D01*
X46354911Y-32130165D01*
X46134091Y-32163955D01*
X45921756Y-32233357D01*
X45723607Y-32336507D01*
X45719474Y-32339610D01*
X45719471Y-32339612D01*
X45549100Y-32467530D01*
X45544965Y-32470635D01*
X45519541Y-32497240D01*
X45451280Y-32568671D01*
X45390629Y-32632138D01*
X45283201Y-32789621D01*
X45228293Y-32834621D01*
X45157768Y-32842792D01*
X45094021Y-32811538D01*
X45073324Y-32787054D01*
X44992822Y-32662617D01*
X44992820Y-32662614D01*
X44990014Y-32658277D01*
X44839670Y-32493051D01*
X44835619Y-32489852D01*
X44835615Y-32489848D01*
X44668414Y-32357800D01*
X44668410Y-32357798D01*
X44664359Y-32354598D01*
X44628028Y-32334542D01*
X44612136Y-32325769D01*
X44468789Y-32246638D01*
X44463920Y-32244914D01*
X44463916Y-32244912D01*
X44263087Y-32173795D01*
X44263083Y-32173794D01*
X44258212Y-32172069D01*
X44253119Y-32171162D01*
X44253116Y-32171161D01*
X44043373Y-32133800D01*
X44043367Y-32133799D01*
X44038284Y-32132894D01*
X43964452Y-32131992D01*
X43820081Y-32130228D01*
X43820079Y-32130228D01*
X43814911Y-32130165D01*
X43594091Y-32163955D01*
X43381756Y-32233357D01*
X43183607Y-32336507D01*
X43179474Y-32339610D01*
X43179471Y-32339612D01*
X43009100Y-32467530D01*
X43004965Y-32470635D01*
X42979541Y-32497240D01*
X42911280Y-32568671D01*
X42850629Y-32632138D01*
X42743201Y-32789621D01*
X42688293Y-32834621D01*
X42617768Y-32842792D01*
X42554021Y-32811538D01*
X42533324Y-32787054D01*
X42452822Y-32662617D01*
X42452820Y-32662614D01*
X42450014Y-32658277D01*
X42299670Y-32493051D01*
X42295619Y-32489852D01*
X42295615Y-32489848D01*
X42128414Y-32357800D01*
X42128410Y-32357798D01*
X42124359Y-32354598D01*
X42088028Y-32334542D01*
X42072136Y-32325769D01*
X41928789Y-32246638D01*
X41923920Y-32244914D01*
X41923916Y-32244912D01*
X41723087Y-32173795D01*
X41723083Y-32173794D01*
X41718212Y-32172069D01*
X41713119Y-32171162D01*
X41713116Y-32171161D01*
X41503373Y-32133800D01*
X41503367Y-32133799D01*
X41498284Y-32132894D01*
X41424452Y-32131992D01*
X41280081Y-32130228D01*
X41280079Y-32130228D01*
X41274911Y-32130165D01*
X41054091Y-32163955D01*
X40841756Y-32233357D01*
X40643607Y-32336507D01*
X40639474Y-32339610D01*
X40639471Y-32339612D01*
X40469100Y-32467530D01*
X40464965Y-32470635D01*
X40439541Y-32497240D01*
X40371280Y-32568671D01*
X40310629Y-32632138D01*
X40203201Y-32789621D01*
X40148293Y-32834621D01*
X40077768Y-32842792D01*
X40014021Y-32811538D01*
X39993324Y-32787054D01*
X39912822Y-32662617D01*
X39912820Y-32662614D01*
X39910014Y-32658277D01*
X39759670Y-32493051D01*
X39755619Y-32489852D01*
X39755615Y-32489848D01*
X39588414Y-32357800D01*
X39588410Y-32357798D01*
X39584359Y-32354598D01*
X39548028Y-32334542D01*
X39532136Y-32325769D01*
X39388789Y-32246638D01*
X39383920Y-32244914D01*
X39383916Y-32244912D01*
X39183087Y-32173795D01*
X39183083Y-32173794D01*
X39178212Y-32172069D01*
X39173119Y-32171162D01*
X39173116Y-32171161D01*
X38963373Y-32133800D01*
X38963367Y-32133799D01*
X38958284Y-32132894D01*
X38884452Y-32131992D01*
X38740081Y-32130228D01*
X38740079Y-32130228D01*
X38734911Y-32130165D01*
X38514091Y-32163955D01*
X38301756Y-32233357D01*
X38103607Y-32336507D01*
X38099474Y-32339610D01*
X38099471Y-32339612D01*
X37929100Y-32467530D01*
X37924965Y-32470635D01*
X37899541Y-32497240D01*
X37831280Y-32568671D01*
X37770629Y-32632138D01*
X37663201Y-32789621D01*
X37608293Y-32834621D01*
X37537768Y-32842792D01*
X37474021Y-32811538D01*
X37453324Y-32787054D01*
X37372822Y-32662617D01*
X37372820Y-32662614D01*
X37370014Y-32658277D01*
X37219670Y-32493051D01*
X37215619Y-32489852D01*
X37215615Y-32489848D01*
X37048414Y-32357800D01*
X37048410Y-32357798D01*
X37044359Y-32354598D01*
X37008028Y-32334542D01*
X36992136Y-32325769D01*
X36848789Y-32246638D01*
X36843920Y-32244914D01*
X36843916Y-32244912D01*
X36643087Y-32173795D01*
X36643083Y-32173794D01*
X36638212Y-32172069D01*
X36633119Y-32171162D01*
X36633116Y-32171161D01*
X36423373Y-32133800D01*
X36423367Y-32133799D01*
X36418284Y-32132894D01*
X36344452Y-32131992D01*
X36200081Y-32130228D01*
X36200079Y-32130228D01*
X36194911Y-32130165D01*
X35974091Y-32163955D01*
X35761756Y-32233357D01*
X35563607Y-32336507D01*
X35559474Y-32339610D01*
X35559471Y-32339612D01*
X35389100Y-32467530D01*
X35384965Y-32470635D01*
X35359541Y-32497240D01*
X35291280Y-32568671D01*
X35230629Y-32632138D01*
X35123201Y-32789621D01*
X35068293Y-32834621D01*
X34997768Y-32842792D01*
X34934021Y-32811538D01*
X34913324Y-32787054D01*
X34832822Y-32662617D01*
X34832820Y-32662614D01*
X34830014Y-32658277D01*
X34679670Y-32493051D01*
X34675619Y-32489852D01*
X34675615Y-32489848D01*
X34508414Y-32357800D01*
X34508410Y-32357798D01*
X34504359Y-32354598D01*
X34468028Y-32334542D01*
X34452136Y-32325769D01*
X34308789Y-32246638D01*
X34303920Y-32244914D01*
X34303916Y-32244912D01*
X34103087Y-32173795D01*
X34103083Y-32173794D01*
X34098212Y-32172069D01*
X34093119Y-32171162D01*
X34093116Y-32171161D01*
X33883373Y-32133800D01*
X33883367Y-32133799D01*
X33878284Y-32132894D01*
X33804452Y-32131992D01*
X33660081Y-32130228D01*
X33660079Y-32130228D01*
X33654911Y-32130165D01*
X33434091Y-32163955D01*
X33221756Y-32233357D01*
X33023607Y-32336507D01*
X33019474Y-32339610D01*
X33019471Y-32339612D01*
X32849100Y-32467530D01*
X32844965Y-32470635D01*
X32819541Y-32497240D01*
X32751280Y-32568671D01*
X32690629Y-32632138D01*
X32583201Y-32789621D01*
X32528293Y-32834621D01*
X32457768Y-32842792D01*
X32394021Y-32811538D01*
X32373324Y-32787054D01*
X32292822Y-32662617D01*
X32292820Y-32662614D01*
X32290014Y-32658277D01*
X32139670Y-32493051D01*
X32135619Y-32489852D01*
X32135615Y-32489848D01*
X31968414Y-32357800D01*
X31968410Y-32357798D01*
X31964359Y-32354598D01*
X31928028Y-32334542D01*
X31912136Y-32325769D01*
X31768789Y-32246638D01*
X31763920Y-32244914D01*
X31763916Y-32244912D01*
X31563087Y-32173795D01*
X31563083Y-32173794D01*
X31558212Y-32172069D01*
X31553119Y-32171162D01*
X31553116Y-32171161D01*
X31343373Y-32133800D01*
X31343367Y-32133799D01*
X31338284Y-32132894D01*
X31264452Y-32131992D01*
X31120081Y-32130228D01*
X31120079Y-32130228D01*
X31114911Y-32130165D01*
X30894091Y-32163955D01*
X30681756Y-32233357D01*
X30483607Y-32336507D01*
X30479474Y-32339610D01*
X30479471Y-32339612D01*
X30309100Y-32467530D01*
X30304965Y-32470635D01*
X30279541Y-32497240D01*
X30211280Y-32568671D01*
X30150629Y-32632138D01*
X30043201Y-32789621D01*
X29988293Y-32834621D01*
X29917768Y-32842792D01*
X29854021Y-32811538D01*
X29833324Y-32787054D01*
X29752822Y-32662617D01*
X29752820Y-32662614D01*
X29750014Y-32658277D01*
X29599670Y-32493051D01*
X29595619Y-32489852D01*
X29595615Y-32489848D01*
X29428414Y-32357800D01*
X29428410Y-32357798D01*
X29424359Y-32354598D01*
X29388028Y-32334542D01*
X29372136Y-32325769D01*
X29228789Y-32246638D01*
X29223920Y-32244914D01*
X29223916Y-32244912D01*
X29023087Y-32173795D01*
X29023083Y-32173794D01*
X29018212Y-32172069D01*
X29013119Y-32171162D01*
X29013116Y-32171161D01*
X28803373Y-32133800D01*
X28803367Y-32133799D01*
X28798284Y-32132894D01*
X28724452Y-32131992D01*
X28580081Y-32130228D01*
X28580079Y-32130228D01*
X28574911Y-32130165D01*
X28354091Y-32163955D01*
X28141756Y-32233357D01*
X27943607Y-32336507D01*
X27939474Y-32339610D01*
X27939471Y-32339612D01*
X27769100Y-32467530D01*
X27764965Y-32470635D01*
X27739541Y-32497240D01*
X27671280Y-32568671D01*
X27610629Y-32632138D01*
X27484743Y-32816680D01*
X27390688Y-33019305D01*
X27330989Y-33234570D01*
X27307251Y-33456695D01*
X25508500Y-33456695D01*
X25508500Y-31998134D01*
X95601500Y-31998134D01*
X95608255Y-32060316D01*
X95659385Y-32196705D01*
X95746739Y-32313261D01*
X95863295Y-32400615D01*
X95999684Y-32451745D01*
X96061866Y-32458500D01*
X97858134Y-32458500D01*
X97920316Y-32451745D01*
X98056705Y-32400615D01*
X98173261Y-32313261D01*
X98260615Y-32196705D01*
X98272290Y-32165562D01*
X98304598Y-32079382D01*
X98347240Y-32022618D01*
X98413802Y-31997918D01*
X98483150Y-32013126D01*
X98517817Y-32041114D01*
X98546250Y-32073938D01*
X98718126Y-32216632D01*
X98911000Y-32329338D01*
X98915825Y-32331180D01*
X98915826Y-32331181D01*
X98937905Y-32339612D01*
X99119692Y-32409030D01*
X99124760Y-32410061D01*
X99124763Y-32410062D01*
X99232017Y-32431883D01*
X99338597Y-32453567D01*
X99343772Y-32453757D01*
X99343774Y-32453757D01*
X99556673Y-32461564D01*
X99556677Y-32461564D01*
X99561837Y-32461753D01*
X99566957Y-32461097D01*
X99566959Y-32461097D01*
X99778288Y-32434025D01*
X99778289Y-32434025D01*
X99783416Y-32433368D01*
X99788366Y-32431883D01*
X99992429Y-32370661D01*
X99992434Y-32370659D01*
X99997384Y-32369174D01*
X100197994Y-32270896D01*
X100379860Y-32141173D01*
X100390844Y-32130228D01*
X100523616Y-31997918D01*
X100538096Y-31983489D01*
X100668453Y-31802077D01*
X100669776Y-31803028D01*
X100716645Y-31759857D01*
X100786580Y-31747625D01*
X100852026Y-31775144D01*
X100879875Y-31806994D01*
X100939987Y-31905088D01*
X101086250Y-32073938D01*
X101258126Y-32216632D01*
X101451000Y-32329338D01*
X101455825Y-32331180D01*
X101455826Y-32331181D01*
X101477905Y-32339612D01*
X101659692Y-32409030D01*
X101664760Y-32410061D01*
X101664763Y-32410062D01*
X101772017Y-32431883D01*
X101878597Y-32453567D01*
X101883772Y-32453757D01*
X101883774Y-32453757D01*
X102096673Y-32461564D01*
X102096677Y-32461564D01*
X102101837Y-32461753D01*
X102106957Y-32461097D01*
X102106959Y-32461097D01*
X102318288Y-32434025D01*
X102318289Y-32434025D01*
X102323416Y-32433368D01*
X102328366Y-32431883D01*
X102532429Y-32370661D01*
X102532434Y-32370659D01*
X102537384Y-32369174D01*
X102737994Y-32270896D01*
X102919860Y-32141173D01*
X102930844Y-32130228D01*
X103063616Y-31997918D01*
X103078096Y-31983489D01*
X103208453Y-31802077D01*
X103229320Y-31759857D01*
X103305136Y-31606453D01*
X103305137Y-31606451D01*
X103307430Y-31601811D01*
X103372370Y-31388069D01*
X103391249Y-31244669D01*
X108292001Y-31244669D01*
X108292371Y-31251490D01*
X108297895Y-31302352D01*
X108301521Y-31317604D01*
X108346676Y-31438054D01*
X108355214Y-31453649D01*
X108431715Y-31555724D01*
X108444276Y-31568285D01*
X108546351Y-31644786D01*
X108561946Y-31653324D01*
X108682394Y-31698478D01*
X108697649Y-31702105D01*
X108748514Y-31707631D01*
X108755328Y-31708000D01*
X109827885Y-31708000D01*
X109843124Y-31703525D01*
X109844329Y-31702135D01*
X109846000Y-31694452D01*
X109846000Y-31689884D01*
X110354000Y-31689884D01*
X110358475Y-31705123D01*
X110359865Y-31706328D01*
X110367548Y-31707999D01*
X111444669Y-31707999D01*
X111451490Y-31707629D01*
X111502352Y-31702105D01*
X111517604Y-31698479D01*
X111638054Y-31653324D01*
X111653649Y-31644786D01*
X111755724Y-31568285D01*
X111768285Y-31555724D01*
X111844786Y-31453649D01*
X111853324Y-31438054D01*
X111888244Y-31344906D01*
X114019839Y-31344906D01*
X114028553Y-31356427D01*
X114135452Y-31434809D01*
X114143351Y-31439745D01*
X114372905Y-31560519D01*
X114381454Y-31564236D01*
X114626327Y-31649749D01*
X114635336Y-31652163D01*
X114890166Y-31700544D01*
X114899423Y-31701598D01*
X115158607Y-31711783D01*
X115167921Y-31711457D01*
X115425753Y-31683220D01*
X115434930Y-31681519D01*
X115685758Y-31615481D01*
X115694574Y-31612445D01*
X115932880Y-31510062D01*
X115941167Y-31505748D01*
X116161718Y-31369266D01*
X116169268Y-31363780D01*
X116174559Y-31359301D01*
X116182997Y-31346497D01*
X116176935Y-31336145D01*
X115112812Y-30272022D01*
X115098868Y-30264408D01*
X115097035Y-30264539D01*
X115090420Y-30268790D01*
X114026497Y-31332713D01*
X114019839Y-31344906D01*
X111888244Y-31344906D01*
X111898478Y-31317606D01*
X111902105Y-31302351D01*
X111907631Y-31251486D01*
X111908000Y-31244672D01*
X111908000Y-30172115D01*
X111903525Y-30156876D01*
X111902135Y-30155671D01*
X111894452Y-30154000D01*
X110372115Y-30154000D01*
X110356876Y-30158475D01*
X110355671Y-30159865D01*
X110354000Y-30167548D01*
X110354000Y-31689884D01*
X109846000Y-31689884D01*
X109846000Y-30172115D01*
X109841525Y-30156876D01*
X109840135Y-30155671D01*
X109832452Y-30154000D01*
X108310116Y-30154000D01*
X108294877Y-30158475D01*
X108293672Y-30159865D01*
X108292001Y-30167548D01*
X108292001Y-31244669D01*
X103391249Y-31244669D01*
X103401529Y-31166590D01*
X103403156Y-31100000D01*
X103384852Y-30877361D01*
X103330431Y-30660702D01*
X103241354Y-30455840D01*
X103120014Y-30268277D01*
X102969670Y-30103051D01*
X102965619Y-30099852D01*
X102965615Y-30099848D01*
X102798414Y-29967800D01*
X102798410Y-29967798D01*
X102794359Y-29964598D01*
X102599827Y-29857211D01*
X113287775Y-29857211D01*
X113300220Y-30116288D01*
X113301356Y-30125543D01*
X113351961Y-30379945D01*
X113354449Y-30388917D01*
X113442095Y-30633033D01*
X113445895Y-30641568D01*
X113568658Y-30870042D01*
X113573666Y-30877904D01*
X113643720Y-30971716D01*
X113654979Y-30980165D01*
X113667397Y-30973393D01*
X114727978Y-29912812D01*
X114734356Y-29901132D01*
X115464408Y-29901132D01*
X115464539Y-29902965D01*
X115468790Y-29909580D01*
X116536094Y-30976884D01*
X116548474Y-30983644D01*
X116556815Y-30977400D01*
X116690832Y-30769048D01*
X116695275Y-30760864D01*
X116801807Y-30524370D01*
X116804997Y-30515605D01*
X116875402Y-30265972D01*
X116877262Y-30256830D01*
X116910187Y-29998019D01*
X116910668Y-29991733D01*
X116912987Y-29903160D01*
X116912836Y-29896851D01*
X116909542Y-29852526D01*
X118287050Y-29852526D01*
X118287274Y-29857192D01*
X118287274Y-29857197D01*
X118292313Y-29962101D01*
X118299947Y-30121019D01*
X118352388Y-30384656D01*
X118443220Y-30637646D01*
X118445432Y-30641762D01*
X118445433Y-30641765D01*
X118458305Y-30665720D01*
X118570450Y-30874431D01*
X118573241Y-30878168D01*
X118573245Y-30878175D01*
X118649405Y-30980165D01*
X118731281Y-31089810D01*
X118734590Y-31093090D01*
X118734595Y-31093096D01*
X118894374Y-31251486D01*
X118922180Y-31279050D01*
X118925942Y-31281808D01*
X118925945Y-31281811D01*
X119037737Y-31363780D01*
X119138954Y-31437995D01*
X119143089Y-31440171D01*
X119143093Y-31440173D01*
X119372698Y-31560975D01*
X119376840Y-31563154D01*
X119630613Y-31651775D01*
X119635206Y-31652647D01*
X119890109Y-31701042D01*
X119890112Y-31701042D01*
X119894698Y-31701913D01*
X120022370Y-31706929D01*
X120158625Y-31712283D01*
X120158630Y-31712283D01*
X120163293Y-31712466D01*
X120267607Y-31701042D01*
X120425844Y-31683713D01*
X120425850Y-31683712D01*
X120430497Y-31683203D01*
X120435021Y-31682012D01*
X120685918Y-31615956D01*
X120685920Y-31615955D01*
X120690441Y-31614765D01*
X120709788Y-31606453D01*
X120933120Y-31510502D01*
X120933122Y-31510501D01*
X120937414Y-31508657D01*
X121124277Y-31393023D01*
X121162017Y-31369669D01*
X121162021Y-31369666D01*
X121165990Y-31367210D01*
X121371149Y-31193530D01*
X121548382Y-30991434D01*
X121555631Y-30980165D01*
X121691269Y-30769291D01*
X121693797Y-30765361D01*
X121804199Y-30520278D01*
X121821033Y-30460590D01*
X121875893Y-30266072D01*
X121875894Y-30266069D01*
X121877163Y-30261568D01*
X121885190Y-30198469D01*
X121910688Y-29998045D01*
X121910688Y-29998041D01*
X121911086Y-29994915D01*
X121911170Y-29991733D01*
X121912477Y-29941779D01*
X121913571Y-29900000D01*
X121910043Y-29852526D01*
X123287050Y-29852526D01*
X123287274Y-29857192D01*
X123287274Y-29857197D01*
X123292313Y-29962101D01*
X123299947Y-30121019D01*
X123352388Y-30384656D01*
X123443220Y-30637646D01*
X123445432Y-30641762D01*
X123445433Y-30641765D01*
X123458305Y-30665720D01*
X123570450Y-30874431D01*
X123573241Y-30878168D01*
X123573245Y-30878175D01*
X123649405Y-30980165D01*
X123731281Y-31089810D01*
X123734590Y-31093090D01*
X123734595Y-31093096D01*
X123894374Y-31251486D01*
X123922180Y-31279050D01*
X123925942Y-31281808D01*
X123925945Y-31281811D01*
X124037737Y-31363780D01*
X124138954Y-31437995D01*
X124143089Y-31440171D01*
X124143093Y-31440173D01*
X124372698Y-31560975D01*
X124376840Y-31563154D01*
X124630613Y-31651775D01*
X124635206Y-31652647D01*
X124890109Y-31701042D01*
X124890112Y-31701042D01*
X124894698Y-31701913D01*
X125022370Y-31706929D01*
X125158625Y-31712283D01*
X125158630Y-31712283D01*
X125163293Y-31712466D01*
X125267607Y-31701042D01*
X125425844Y-31683713D01*
X125425850Y-31683712D01*
X125430497Y-31683203D01*
X125435021Y-31682012D01*
X125685918Y-31615956D01*
X125685920Y-31615955D01*
X125690441Y-31614765D01*
X125709788Y-31606453D01*
X125933120Y-31510502D01*
X125933122Y-31510501D01*
X125937414Y-31508657D01*
X126124277Y-31393023D01*
X126162017Y-31369669D01*
X126162021Y-31369666D01*
X126165990Y-31367210D01*
X126371149Y-31193530D01*
X126548382Y-30991434D01*
X126555631Y-30980165D01*
X126691269Y-30769291D01*
X126693797Y-30765361D01*
X126804199Y-30520278D01*
X126821033Y-30460590D01*
X126875893Y-30266072D01*
X126875894Y-30266069D01*
X126877163Y-30261568D01*
X126885190Y-30198469D01*
X126910688Y-29998045D01*
X126910688Y-29998041D01*
X126911086Y-29994915D01*
X126911170Y-29991733D01*
X126912477Y-29941779D01*
X126913571Y-29900000D01*
X126893650Y-29631937D01*
X126892619Y-29627379D01*
X126835361Y-29374331D01*
X126835360Y-29374326D01*
X126834327Y-29369763D01*
X126736902Y-29119238D01*
X126603518Y-28885864D01*
X126556068Y-28825673D01*
X126537416Y-28802014D01*
X126437105Y-28674769D01*
X126241317Y-28490591D01*
X126055877Y-28361946D01*
X126024299Y-28340039D01*
X126024296Y-28340037D01*
X126020457Y-28337374D01*
X125978770Y-28316816D01*
X125783564Y-28220551D01*
X125783561Y-28220550D01*
X125779376Y-28218486D01*
X125753060Y-28210062D01*
X125616762Y-28166433D01*
X125523370Y-28136538D01*
X125518763Y-28135788D01*
X125518760Y-28135787D01*
X125262674Y-28094081D01*
X125262675Y-28094081D01*
X125258063Y-28093330D01*
X125127719Y-28091624D01*
X124993961Y-28089873D01*
X124993958Y-28089873D01*
X124989284Y-28089812D01*
X124722937Y-28126060D01*
X124718451Y-28127368D01*
X124718449Y-28127368D01*
X124652206Y-28146676D01*
X124464874Y-28201278D01*
X124460621Y-28203238D01*
X124460620Y-28203239D01*
X124446868Y-28209579D01*
X124220763Y-28313815D01*
X124216854Y-28316378D01*
X123999881Y-28458631D01*
X123999876Y-28458635D01*
X123995968Y-28461197D01*
X123795426Y-28640188D01*
X123623544Y-28846854D01*
X123484096Y-29076656D01*
X123482287Y-29080970D01*
X123482285Y-29080974D01*
X123405032Y-29265204D01*
X123380148Y-29324545D01*
X123313981Y-29585077D01*
X123287050Y-29852526D01*
X121910043Y-29852526D01*
X121893650Y-29631937D01*
X121892619Y-29627379D01*
X121835361Y-29374331D01*
X121835360Y-29374326D01*
X121834327Y-29369763D01*
X121736902Y-29119238D01*
X121603518Y-28885864D01*
X121556068Y-28825673D01*
X121537416Y-28802014D01*
X121437105Y-28674769D01*
X121241317Y-28490591D01*
X121055877Y-28361946D01*
X121024299Y-28340039D01*
X121024296Y-28340037D01*
X121020457Y-28337374D01*
X120978770Y-28316816D01*
X120783564Y-28220551D01*
X120783561Y-28220550D01*
X120779376Y-28218486D01*
X120753060Y-28210062D01*
X120616762Y-28166433D01*
X120523370Y-28136538D01*
X120518763Y-28135788D01*
X120518760Y-28135787D01*
X120262674Y-28094081D01*
X120262675Y-28094081D01*
X120258063Y-28093330D01*
X120127719Y-28091624D01*
X119993961Y-28089873D01*
X119993958Y-28089873D01*
X119989284Y-28089812D01*
X119722937Y-28126060D01*
X119718451Y-28127368D01*
X119718449Y-28127368D01*
X119652206Y-28146676D01*
X119464874Y-28201278D01*
X119460621Y-28203238D01*
X119460620Y-28203239D01*
X119446868Y-28209579D01*
X119220763Y-28313815D01*
X119216854Y-28316378D01*
X118999881Y-28458631D01*
X118999876Y-28458635D01*
X118995968Y-28461197D01*
X118795426Y-28640188D01*
X118623544Y-28846854D01*
X118484096Y-29076656D01*
X118482287Y-29080970D01*
X118482285Y-29080974D01*
X118405032Y-29265204D01*
X118380148Y-29324545D01*
X118313981Y-29585077D01*
X118287050Y-29852526D01*
X116909542Y-29852526D01*
X116893501Y-29636663D01*
X116892125Y-29627457D01*
X116834878Y-29374467D01*
X116832154Y-29365556D01*
X116738143Y-29123806D01*
X116734132Y-29115397D01*
X116605422Y-28890202D01*
X116600211Y-28882476D01*
X116556996Y-28827658D01*
X116545071Y-28819187D01*
X116533537Y-28825673D01*
X115472022Y-29887188D01*
X115464408Y-29901132D01*
X114734356Y-29901132D01*
X114735592Y-29898868D01*
X114735461Y-29897035D01*
X114731210Y-29890420D01*
X113665816Y-28825026D01*
X113652507Y-28817758D01*
X113642472Y-28824878D01*
X113626937Y-28843556D01*
X113621531Y-28851135D01*
X113486965Y-29072891D01*
X113482736Y-29081192D01*
X113382432Y-29320389D01*
X113379471Y-29329239D01*
X113315628Y-29580625D01*
X113314006Y-29589822D01*
X113288020Y-29847885D01*
X113287775Y-29857211D01*
X102599827Y-29857211D01*
X102598789Y-29856638D01*
X102593920Y-29854914D01*
X102593916Y-29854912D01*
X102393087Y-29783795D01*
X102393083Y-29783794D01*
X102388212Y-29782069D01*
X102383119Y-29781162D01*
X102383116Y-29781161D01*
X102173373Y-29743800D01*
X102173367Y-29743799D01*
X102168284Y-29742894D01*
X102094452Y-29741992D01*
X101950081Y-29740228D01*
X101950079Y-29740228D01*
X101944911Y-29740165D01*
X101724091Y-29773955D01*
X101511756Y-29843357D01*
X101485170Y-29857197D01*
X101405121Y-29898868D01*
X101313607Y-29946507D01*
X101309474Y-29949610D01*
X101309471Y-29949612D01*
X101139100Y-30077530D01*
X101134965Y-30080635D01*
X101131393Y-30084373D01*
X101023729Y-30197037D01*
X100980629Y-30242138D01*
X100873201Y-30399621D01*
X100818293Y-30444621D01*
X100747768Y-30452792D01*
X100684021Y-30421538D01*
X100663324Y-30397054D01*
X100582822Y-30272617D01*
X100582820Y-30272614D01*
X100580014Y-30268277D01*
X100429670Y-30103051D01*
X100425619Y-30099852D01*
X100425615Y-30099848D01*
X100258414Y-29967800D01*
X100258410Y-29967798D01*
X100254359Y-29964598D01*
X100058789Y-29856638D01*
X100053920Y-29854914D01*
X100053916Y-29854912D01*
X99853087Y-29783795D01*
X99853083Y-29783794D01*
X99848212Y-29782069D01*
X99843119Y-29781162D01*
X99843116Y-29781161D01*
X99633373Y-29743800D01*
X99633367Y-29743799D01*
X99628284Y-29742894D01*
X99554452Y-29741992D01*
X99410081Y-29740228D01*
X99410079Y-29740228D01*
X99404911Y-29740165D01*
X99184091Y-29773955D01*
X98971756Y-29843357D01*
X98945170Y-29857197D01*
X98865121Y-29898868D01*
X98773607Y-29946507D01*
X98769474Y-29949610D01*
X98769471Y-29949612D01*
X98599100Y-30077530D01*
X98594965Y-30080635D01*
X98520580Y-30158475D01*
X98514283Y-30165064D01*
X98452759Y-30200494D01*
X98381846Y-30197037D01*
X98324060Y-30155791D01*
X98305207Y-30122243D01*
X98263767Y-30011703D01*
X98260615Y-30003295D01*
X98173261Y-29886739D01*
X98056705Y-29799385D01*
X97920316Y-29748255D01*
X97858134Y-29741500D01*
X96061866Y-29741500D01*
X95999684Y-29748255D01*
X95863295Y-29799385D01*
X95746739Y-29886739D01*
X95659385Y-30003295D01*
X95608255Y-30139684D01*
X95601500Y-30201866D01*
X95601500Y-31998134D01*
X25508500Y-31998134D01*
X25508500Y-29627885D01*
X108292000Y-29627885D01*
X108296475Y-29643124D01*
X108297865Y-29644329D01*
X108305548Y-29646000D01*
X109827885Y-29646000D01*
X109843124Y-29641525D01*
X109844329Y-29640135D01*
X109846000Y-29632452D01*
X109846000Y-29627885D01*
X110354000Y-29627885D01*
X110358475Y-29643124D01*
X110359865Y-29644329D01*
X110367548Y-29646000D01*
X111889884Y-29646000D01*
X111905123Y-29641525D01*
X111906328Y-29640135D01*
X111907999Y-29632452D01*
X111907999Y-28555331D01*
X111907629Y-28548510D01*
X111902105Y-28497648D01*
X111898479Y-28482396D01*
X111887342Y-28452689D01*
X114017102Y-28452689D01*
X114021675Y-28462465D01*
X115087188Y-29527978D01*
X115101132Y-29535592D01*
X115102965Y-29535461D01*
X115109580Y-29531210D01*
X116174349Y-28466441D01*
X116180733Y-28454751D01*
X116171321Y-28442641D01*
X116024045Y-28340471D01*
X116016010Y-28335738D01*
X115783376Y-28221016D01*
X115774743Y-28217528D01*
X115527703Y-28138450D01*
X115518643Y-28136274D01*
X115262630Y-28094580D01*
X115253343Y-28093768D01*
X114993992Y-28090373D01*
X114984681Y-28090943D01*
X114727682Y-28125919D01*
X114718546Y-28127860D01*
X114469543Y-28200439D01*
X114460800Y-28203707D01*
X114225252Y-28312296D01*
X114217097Y-28316816D01*
X114026240Y-28441947D01*
X114017102Y-28452689D01*
X111887342Y-28452689D01*
X111853324Y-28361946D01*
X111844786Y-28346351D01*
X111768285Y-28244276D01*
X111755724Y-28231715D01*
X111653649Y-28155214D01*
X111638054Y-28146676D01*
X111517606Y-28101522D01*
X111502351Y-28097895D01*
X111451486Y-28092369D01*
X111444672Y-28092000D01*
X110372115Y-28092000D01*
X110356876Y-28096475D01*
X110355671Y-28097865D01*
X110354000Y-28105548D01*
X110354000Y-29627885D01*
X109846000Y-29627885D01*
X109846000Y-28110116D01*
X109841525Y-28094877D01*
X109840135Y-28093672D01*
X109832452Y-28092001D01*
X108755331Y-28092001D01*
X108748510Y-28092371D01*
X108697648Y-28097895D01*
X108682396Y-28101521D01*
X108561946Y-28146676D01*
X108546351Y-28155214D01*
X108444276Y-28231715D01*
X108431715Y-28244276D01*
X108355214Y-28346351D01*
X108346676Y-28361946D01*
X108301522Y-28482394D01*
X108297895Y-28497649D01*
X108292369Y-28548514D01*
X108292000Y-28555328D01*
X108292000Y-29627885D01*
X25508500Y-29627885D01*
X25508500Y-28815400D01*
X32711500Y-28815400D01*
X32711837Y-28818646D01*
X32711837Y-28818650D01*
X32718561Y-28883450D01*
X32722474Y-28921166D01*
X32724655Y-28927702D01*
X32724655Y-28927704D01*
X32751162Y-29007155D01*
X32778450Y-29088946D01*
X32871522Y-29239348D01*
X32996697Y-29364305D01*
X33002927Y-29368145D01*
X33002928Y-29368146D01*
X33140090Y-29452694D01*
X33147262Y-29457115D01*
X33189815Y-29471229D01*
X33308611Y-29510632D01*
X33308613Y-29510632D01*
X33315139Y-29512797D01*
X33321975Y-29513497D01*
X33321978Y-29513498D01*
X33365031Y-29517909D01*
X33419600Y-29523500D01*
X34760400Y-29523500D01*
X34763646Y-29523163D01*
X34763650Y-29523163D01*
X34859308Y-29513238D01*
X34859312Y-29513237D01*
X34866166Y-29512526D01*
X34872702Y-29510345D01*
X34872704Y-29510345D01*
X35004806Y-29466272D01*
X35033946Y-29456550D01*
X35184348Y-29363478D01*
X35309305Y-29238303D01*
X35386749Y-29112667D01*
X35402115Y-29087738D01*
X35404262Y-29089062D01*
X35443312Y-29044710D01*
X35511589Y-29025248D01*
X35579549Y-29045788D01*
X35601761Y-29064272D01*
X35709590Y-29177306D01*
X35709602Y-29177316D01*
X35713276Y-29181168D01*
X35900965Y-29320813D01*
X35905716Y-29323229D01*
X35905720Y-29323231D01*
X36104744Y-29424420D01*
X36109500Y-29426838D01*
X36332917Y-29496210D01*
X36338204Y-29496911D01*
X36338205Y-29496911D01*
X36559545Y-29526248D01*
X36559549Y-29526248D01*
X36564829Y-29526948D01*
X36570158Y-29526748D01*
X36570160Y-29526748D01*
X36681716Y-29522560D01*
X36798604Y-29518172D01*
X36901019Y-29496683D01*
X37022332Y-29471229D01*
X37022335Y-29471228D01*
X37027559Y-29470132D01*
X37245146Y-29384203D01*
X37350308Y-29320389D01*
X37440583Y-29265609D01*
X37440586Y-29265607D01*
X37445144Y-29262841D01*
X37621834Y-29109517D01*
X37770165Y-28928614D01*
X37772801Y-28923984D01*
X37772804Y-28923979D01*
X37791301Y-28891484D01*
X37842384Y-28842178D01*
X37912015Y-28828317D01*
X37978085Y-28854301D01*
X38005323Y-28883450D01*
X38091798Y-29011896D01*
X38095477Y-29015753D01*
X38095479Y-29015755D01*
X38153576Y-29076656D01*
X38253276Y-29181168D01*
X38440965Y-29320813D01*
X38445716Y-29323229D01*
X38445720Y-29323231D01*
X38644744Y-29424420D01*
X38649500Y-29426838D01*
X38872917Y-29496210D01*
X38878204Y-29496911D01*
X38878205Y-29496911D01*
X39099545Y-29526248D01*
X39099549Y-29526248D01*
X39104829Y-29526948D01*
X39110158Y-29526748D01*
X39110160Y-29526748D01*
X39221716Y-29522560D01*
X39338604Y-29518172D01*
X39441019Y-29496683D01*
X39562332Y-29471229D01*
X39562335Y-29471228D01*
X39567559Y-29470132D01*
X39785146Y-29384203D01*
X39890308Y-29320389D01*
X39980583Y-29265609D01*
X39980586Y-29265607D01*
X39985144Y-29262841D01*
X40161834Y-29109517D01*
X40310165Y-28928614D01*
X40312968Y-28923691D01*
X40331577Y-28890999D01*
X40382659Y-28841693D01*
X40452289Y-28827831D01*
X40518360Y-28853814D01*
X40545599Y-28882964D01*
X40629210Y-29007155D01*
X40635871Y-29015441D01*
X40789924Y-29176930D01*
X40797892Y-29183979D01*
X40976952Y-29317203D01*
X40985982Y-29322802D01*
X41184931Y-29423953D01*
X41194792Y-29427956D01*
X41407929Y-29494138D01*
X41418309Y-29496420D01*
X41438043Y-29499036D01*
X41452207Y-29496840D01*
X41456000Y-29483655D01*
X41456000Y-29481627D01*
X41964000Y-29481627D01*
X41967973Y-29495158D01*
X41978580Y-29496683D01*
X42102188Y-29470748D01*
X42112384Y-29467688D01*
X42319952Y-29385716D01*
X42329489Y-29380982D01*
X42520285Y-29265204D01*
X42528878Y-29258938D01*
X42697441Y-29112667D01*
X42704861Y-29105036D01*
X42846368Y-28932458D01*
X42852393Y-28923691D01*
X42962797Y-28729738D01*
X42967262Y-28720074D01*
X43043410Y-28510289D01*
X43046181Y-28500021D01*
X43086106Y-28279234D01*
X43087039Y-28271005D01*
X43087930Y-28252126D01*
X43088000Y-28249151D01*
X43088000Y-28192115D01*
X43083525Y-28176876D01*
X43082135Y-28175671D01*
X43074452Y-28174000D01*
X41982115Y-28174000D01*
X41966876Y-28178475D01*
X41965671Y-28179865D01*
X41964000Y-28187548D01*
X41964000Y-29481627D01*
X41456000Y-29481627D01*
X41456000Y-27647885D01*
X41964000Y-27647885D01*
X41968475Y-27663124D01*
X41969865Y-27664329D01*
X41977548Y-27666000D01*
X43069885Y-27666000D01*
X43085124Y-27661525D01*
X43086329Y-27660135D01*
X43088000Y-27652452D01*
X43088000Y-27638946D01*
X43087775Y-27633637D01*
X43085102Y-27602134D01*
X46437500Y-27602134D01*
X46444255Y-27664316D01*
X46495385Y-27800705D01*
X46582739Y-27917261D01*
X46699295Y-28004615D01*
X46835684Y-28055745D01*
X46897866Y-28062500D01*
X48302134Y-28062500D01*
X48364316Y-28055745D01*
X48500705Y-28004615D01*
X48617261Y-27917261D01*
X48684082Y-27828102D01*
X48740940Y-27785588D01*
X48811758Y-27780562D01*
X48863183Y-27805258D01*
X48865281Y-27807302D01*
X48870083Y-27810511D01*
X48870086Y-27810513D01*
X48974423Y-27880228D01*
X49042927Y-27926001D01*
X49048230Y-27928279D01*
X49048233Y-27928281D01*
X49233922Y-28008059D01*
X49239229Y-28010339D01*
X49338836Y-28032878D01*
X49441977Y-28056217D01*
X49441980Y-28056217D01*
X49447613Y-28057492D01*
X49453384Y-28057719D01*
X49453386Y-28057719D01*
X49518363Y-28060272D01*
X49661101Y-28065880D01*
X49766822Y-28050551D01*
X49866829Y-28036051D01*
X49866834Y-28036050D01*
X49872543Y-28035222D01*
X49878007Y-28033367D01*
X49878012Y-28033366D01*
X50069389Y-27968402D01*
X50074857Y-27966546D01*
X50261268Y-27862151D01*
X50334156Y-27801531D01*
X50421095Y-27729224D01*
X50425533Y-27725533D01*
X50501251Y-27634493D01*
X50560187Y-27594909D01*
X50631169Y-27593473D01*
X50691660Y-27630640D01*
X50701021Y-27642342D01*
X50712241Y-27658218D01*
X50716383Y-27662253D01*
X50764360Y-27708990D01*
X50865281Y-27807302D01*
X50870084Y-27810512D01*
X50870085Y-27810512D01*
X50873997Y-27813126D01*
X51042927Y-27926001D01*
X51048230Y-27928279D01*
X51048233Y-27928281D01*
X51233922Y-28008059D01*
X51239229Y-28010339D01*
X51338836Y-28032878D01*
X51441977Y-28056217D01*
X51441980Y-28056217D01*
X51447613Y-28057492D01*
X51453384Y-28057719D01*
X51453386Y-28057719D01*
X51518363Y-28060272D01*
X51661101Y-28065880D01*
X51766822Y-28050551D01*
X51866829Y-28036051D01*
X51866834Y-28036050D01*
X51872543Y-28035222D01*
X51878007Y-28033367D01*
X51878012Y-28033366D01*
X52069389Y-27968402D01*
X52074857Y-27966546D01*
X52228989Y-27880228D01*
X52984132Y-27880228D01*
X52994014Y-27892717D01*
X53038362Y-27922350D01*
X53048472Y-27927840D01*
X53234077Y-28007582D01*
X53245020Y-28011137D01*
X53442042Y-28055719D01*
X53453452Y-28057221D01*
X53655307Y-28065152D01*
X53666789Y-28064550D01*
X53866712Y-28035563D01*
X53877894Y-28032878D01*
X54069185Y-27967943D01*
X54079688Y-27963267D01*
X54207708Y-27891573D01*
X54217570Y-27881497D01*
X54214615Y-27873825D01*
X54138924Y-27798134D01*
X77741500Y-27798134D01*
X77748255Y-27860316D01*
X77799385Y-27996705D01*
X77886739Y-28113261D01*
X78003295Y-28200615D01*
X78139684Y-28251745D01*
X78201866Y-28258500D01*
X79998134Y-28258500D01*
X80060316Y-28251745D01*
X80196705Y-28200615D01*
X80313261Y-28113261D01*
X80400615Y-27996705D01*
X80422799Y-27937529D01*
X80444598Y-27879382D01*
X80487240Y-27822618D01*
X80553802Y-27797918D01*
X80623150Y-27813126D01*
X80657817Y-27841114D01*
X80686250Y-27873938D01*
X80858126Y-28016632D01*
X81051000Y-28129338D01*
X81055825Y-28131180D01*
X81055826Y-28131181D01*
X81118762Y-28155214D01*
X81259692Y-28209030D01*
X81264760Y-28210061D01*
X81264763Y-28210062D01*
X81359862Y-28229410D01*
X81478597Y-28253567D01*
X81483772Y-28253757D01*
X81483774Y-28253757D01*
X81696673Y-28261564D01*
X81696677Y-28261564D01*
X81701837Y-28261753D01*
X81706957Y-28261097D01*
X81706959Y-28261097D01*
X81918288Y-28234025D01*
X81918289Y-28234025D01*
X81923416Y-28233368D01*
X81928926Y-28231715D01*
X82132429Y-28170661D01*
X82132434Y-28170659D01*
X82137384Y-28169174D01*
X82337994Y-28070896D01*
X82519860Y-27941173D01*
X82538307Y-27922791D01*
X82650978Y-27810512D01*
X82678096Y-27783489D01*
X82771504Y-27653498D01*
X82808453Y-27602077D01*
X82809776Y-27603028D01*
X82856645Y-27559857D01*
X82926580Y-27547625D01*
X82992026Y-27575144D01*
X83019875Y-27606994D01*
X83079987Y-27705088D01*
X83226250Y-27873938D01*
X83398126Y-28016632D01*
X83591000Y-28129338D01*
X83595825Y-28131180D01*
X83595826Y-28131181D01*
X83658762Y-28155214D01*
X83799692Y-28209030D01*
X83804760Y-28210061D01*
X83804763Y-28210062D01*
X83899862Y-28229410D01*
X84018597Y-28253567D01*
X84023772Y-28253757D01*
X84023774Y-28253757D01*
X84236673Y-28261564D01*
X84236677Y-28261564D01*
X84241837Y-28261753D01*
X84246957Y-28261097D01*
X84246959Y-28261097D01*
X84458288Y-28234025D01*
X84458289Y-28234025D01*
X84463416Y-28233368D01*
X84468926Y-28231715D01*
X84672429Y-28170661D01*
X84672434Y-28170659D01*
X84677384Y-28169174D01*
X84877994Y-28070896D01*
X85059860Y-27941173D01*
X85078307Y-27922791D01*
X85190978Y-27810512D01*
X85218096Y-27783489D01*
X85311504Y-27653498D01*
X85348453Y-27602077D01*
X85349776Y-27603028D01*
X85396645Y-27559857D01*
X85466580Y-27547625D01*
X85532026Y-27575144D01*
X85559875Y-27606994D01*
X85619987Y-27705088D01*
X85766250Y-27873938D01*
X85938126Y-28016632D01*
X86131000Y-28129338D01*
X86135825Y-28131180D01*
X86135826Y-28131181D01*
X86198762Y-28155214D01*
X86339692Y-28209030D01*
X86344760Y-28210061D01*
X86344763Y-28210062D01*
X86439862Y-28229410D01*
X86558597Y-28253567D01*
X86563772Y-28253757D01*
X86563774Y-28253757D01*
X86776673Y-28261564D01*
X86776677Y-28261564D01*
X86781837Y-28261753D01*
X86786957Y-28261097D01*
X86786959Y-28261097D01*
X86998288Y-28234025D01*
X86998289Y-28234025D01*
X87003416Y-28233368D01*
X87008926Y-28231715D01*
X87212429Y-28170661D01*
X87212434Y-28170659D01*
X87217384Y-28169174D01*
X87417994Y-28070896D01*
X87599860Y-27941173D01*
X87618307Y-27922791D01*
X87730978Y-27810512D01*
X87758096Y-27783489D01*
X87851504Y-27653498D01*
X87888453Y-27602077D01*
X87889640Y-27602930D01*
X87936960Y-27559362D01*
X88006897Y-27547145D01*
X88072338Y-27574678D01*
X88100166Y-27606511D01*
X88157694Y-27700388D01*
X88163777Y-27708699D01*
X88303213Y-27869667D01*
X88310580Y-27876883D01*
X88474434Y-28012916D01*
X88482881Y-28018831D01*
X88666756Y-28126279D01*
X88676042Y-28130729D01*
X88875001Y-28206703D01*
X88884899Y-28209579D01*
X88988250Y-28230606D01*
X89002299Y-28229410D01*
X89006000Y-28219065D01*
X89006000Y-28218517D01*
X89514000Y-28218517D01*
X89518064Y-28232359D01*
X89531478Y-28234393D01*
X89538184Y-28233534D01*
X89548262Y-28231392D01*
X89752255Y-28170191D01*
X89761842Y-28166433D01*
X89953095Y-28072739D01*
X89961945Y-28067464D01*
X90135328Y-27943792D01*
X90143200Y-27937139D01*
X90294052Y-27786812D01*
X90300730Y-27778965D01*
X90428022Y-27601819D01*
X90429147Y-27602627D01*
X90476669Y-27558876D01*
X90546607Y-27546661D01*
X90612046Y-27574197D01*
X90639870Y-27606028D01*
X90697690Y-27700383D01*
X90703777Y-27708699D01*
X90843213Y-27869667D01*
X90850580Y-27876883D01*
X91014434Y-28012916D01*
X91022881Y-28018831D01*
X91206756Y-28126279D01*
X91216042Y-28130729D01*
X91415001Y-28206703D01*
X91424899Y-28209579D01*
X91528250Y-28230606D01*
X91542299Y-28229410D01*
X91546000Y-28219065D01*
X91546000Y-28218517D01*
X92054000Y-28218517D01*
X92058064Y-28232359D01*
X92071478Y-28234393D01*
X92078184Y-28233534D01*
X92088262Y-28231392D01*
X92292255Y-28170191D01*
X92301842Y-28166433D01*
X92493095Y-28072739D01*
X92501945Y-28067464D01*
X92675328Y-27943792D01*
X92683200Y-27937139D01*
X92834052Y-27786812D01*
X92840730Y-27778965D01*
X92965003Y-27606020D01*
X92970313Y-27597183D01*
X93064670Y-27406267D01*
X93068469Y-27396672D01*
X93130377Y-27192910D01*
X93132555Y-27182837D01*
X93133986Y-27171962D01*
X93131775Y-27157778D01*
X93118617Y-27154000D01*
X92072115Y-27154000D01*
X92056876Y-27158475D01*
X92055671Y-27159865D01*
X92054000Y-27167548D01*
X92054000Y-28218517D01*
X91546000Y-28218517D01*
X91546000Y-27172115D01*
X91541525Y-27156876D01*
X91540135Y-27155671D01*
X91532452Y-27154000D01*
X89532115Y-27154000D01*
X89516876Y-27158475D01*
X89515671Y-27159865D01*
X89514000Y-27167548D01*
X89514000Y-28218517D01*
X89006000Y-28218517D01*
X89006000Y-26627885D01*
X89514000Y-26627885D01*
X89518475Y-26643124D01*
X89519865Y-26644329D01*
X89527548Y-26646000D01*
X91527885Y-26646000D01*
X91543124Y-26641525D01*
X91544329Y-26640135D01*
X91546000Y-26632452D01*
X91546000Y-26627885D01*
X92054000Y-26627885D01*
X92058475Y-26643124D01*
X92059865Y-26644329D01*
X92067548Y-26646000D01*
X93118344Y-26646000D01*
X93131875Y-26642027D01*
X93133180Y-26632947D01*
X93091214Y-26465875D01*
X93087894Y-26456124D01*
X93002972Y-26260814D01*
X92998105Y-26251739D01*
X92882426Y-26072926D01*
X92876136Y-26064757D01*
X92732806Y-25907240D01*
X92725273Y-25900215D01*
X92558139Y-25768222D01*
X92549552Y-25762517D01*
X92363117Y-25659599D01*
X92353705Y-25655369D01*
X92152959Y-25584280D01*
X92142988Y-25581646D01*
X92071837Y-25568972D01*
X92058540Y-25570432D01*
X92054000Y-25584989D01*
X92054000Y-26627885D01*
X91546000Y-26627885D01*
X91546000Y-25583102D01*
X91542082Y-25569758D01*
X91527806Y-25567771D01*
X91489324Y-25573660D01*
X91479288Y-25576051D01*
X91276868Y-25642212D01*
X91267359Y-25646209D01*
X91078463Y-25744542D01*
X91069738Y-25750036D01*
X90899433Y-25877905D01*
X90891726Y-25884748D01*
X90744590Y-26038717D01*
X90738104Y-26046727D01*
X90633193Y-26200521D01*
X90578282Y-26245524D01*
X90507757Y-26253695D01*
X90444010Y-26222441D01*
X90423313Y-26197957D01*
X90342427Y-26072926D01*
X90336136Y-26064757D01*
X90192806Y-25907240D01*
X90185273Y-25900215D01*
X90018139Y-25768222D01*
X90009552Y-25762517D01*
X89823117Y-25659599D01*
X89813705Y-25655369D01*
X89612959Y-25584280D01*
X89602988Y-25581646D01*
X89531837Y-25568972D01*
X89518540Y-25570432D01*
X89514000Y-25584989D01*
X89514000Y-26627885D01*
X89006000Y-26627885D01*
X89006000Y-25583102D01*
X89002082Y-25569758D01*
X88987806Y-25567771D01*
X88949324Y-25573660D01*
X88939288Y-25576051D01*
X88736868Y-25642212D01*
X88727359Y-25646209D01*
X88538463Y-25744542D01*
X88529738Y-25750036D01*
X88359433Y-25877905D01*
X88351726Y-25884748D01*
X88204590Y-26038717D01*
X88198109Y-26046722D01*
X88093498Y-26200074D01*
X88038587Y-26245076D01*
X87968062Y-26253247D01*
X87904315Y-26221993D01*
X87883618Y-26197509D01*
X87802822Y-26072617D01*
X87802820Y-26072614D01*
X87800014Y-26068277D01*
X87649670Y-25903051D01*
X87645619Y-25899852D01*
X87645615Y-25899848D01*
X87478414Y-25767800D01*
X87478410Y-25767798D01*
X87474359Y-25764598D01*
X87438028Y-25744542D01*
X87422136Y-25735769D01*
X87278789Y-25656638D01*
X87273920Y-25654914D01*
X87273916Y-25654912D01*
X87073087Y-25583795D01*
X87073083Y-25583794D01*
X87068212Y-25582069D01*
X87063119Y-25581162D01*
X87063116Y-25581161D01*
X86853373Y-25543800D01*
X86853367Y-25543799D01*
X86848284Y-25542894D01*
X86774452Y-25541992D01*
X86630081Y-25540228D01*
X86630079Y-25540228D01*
X86624911Y-25540165D01*
X86404091Y-25573955D01*
X86191756Y-25643357D01*
X86118757Y-25681358D01*
X85999572Y-25743402D01*
X85993607Y-25746507D01*
X85989474Y-25749610D01*
X85989471Y-25749612D01*
X85819100Y-25877530D01*
X85814965Y-25880635D01*
X85778038Y-25919277D01*
X85703729Y-25997037D01*
X85660629Y-26042138D01*
X85553201Y-26199621D01*
X85498293Y-26244621D01*
X85427768Y-26252792D01*
X85364021Y-26221538D01*
X85343324Y-26197054D01*
X85262822Y-26072617D01*
X85262820Y-26072614D01*
X85260014Y-26068277D01*
X85109670Y-25903051D01*
X85105619Y-25899852D01*
X85105615Y-25899848D01*
X84938414Y-25767800D01*
X84938410Y-25767798D01*
X84934359Y-25764598D01*
X84898028Y-25744542D01*
X84882136Y-25735769D01*
X84738789Y-25656638D01*
X84733920Y-25654914D01*
X84733916Y-25654912D01*
X84533087Y-25583795D01*
X84533083Y-25583794D01*
X84528212Y-25582069D01*
X84523119Y-25581162D01*
X84523116Y-25581161D01*
X84313373Y-25543800D01*
X84313367Y-25543799D01*
X84308284Y-25542894D01*
X84234452Y-25541992D01*
X84090081Y-25540228D01*
X84090079Y-25540228D01*
X84084911Y-25540165D01*
X83864091Y-25573955D01*
X83651756Y-25643357D01*
X83578757Y-25681358D01*
X83459572Y-25743402D01*
X83453607Y-25746507D01*
X83449474Y-25749610D01*
X83449471Y-25749612D01*
X83279100Y-25877530D01*
X83274965Y-25880635D01*
X83238038Y-25919277D01*
X83163729Y-25997037D01*
X83120629Y-26042138D01*
X83013201Y-26199621D01*
X82958293Y-26244621D01*
X82887768Y-26252792D01*
X82824021Y-26221538D01*
X82803324Y-26197054D01*
X82722822Y-26072617D01*
X82722820Y-26072614D01*
X82720014Y-26068277D01*
X82569670Y-25903051D01*
X82565619Y-25899852D01*
X82565615Y-25899848D01*
X82398414Y-25767800D01*
X82398410Y-25767798D01*
X82394359Y-25764598D01*
X82358028Y-25744542D01*
X82342136Y-25735769D01*
X82198789Y-25656638D01*
X82193920Y-25654914D01*
X82193916Y-25654912D01*
X81993087Y-25583795D01*
X81993083Y-25583794D01*
X81988212Y-25582069D01*
X81983119Y-25581162D01*
X81983116Y-25581161D01*
X81773373Y-25543800D01*
X81773367Y-25543799D01*
X81768284Y-25542894D01*
X81694452Y-25541992D01*
X81550081Y-25540228D01*
X81550079Y-25540228D01*
X81544911Y-25540165D01*
X81324091Y-25573955D01*
X81111756Y-25643357D01*
X81038757Y-25681358D01*
X80919572Y-25743402D01*
X80913607Y-25746507D01*
X80909474Y-25749610D01*
X80909471Y-25749612D01*
X80739100Y-25877530D01*
X80734965Y-25880635D01*
X80678537Y-25939684D01*
X80654283Y-25965064D01*
X80592759Y-26000494D01*
X80521846Y-25997037D01*
X80464060Y-25955791D01*
X80445207Y-25922243D01*
X80403767Y-25811703D01*
X80400615Y-25803295D01*
X80313261Y-25686739D01*
X80196705Y-25599385D01*
X80060316Y-25548255D01*
X79998134Y-25541500D01*
X78201866Y-25541500D01*
X78139684Y-25548255D01*
X78003295Y-25599385D01*
X77886739Y-25686739D01*
X77799385Y-25803295D01*
X77748255Y-25939684D01*
X77741500Y-26001866D01*
X77741500Y-27798134D01*
X54138924Y-27798134D01*
X53612812Y-27272022D01*
X53598868Y-27264408D01*
X53597035Y-27264539D01*
X53590420Y-27268790D01*
X52990328Y-27868882D01*
X52984132Y-27880228D01*
X52228989Y-27880228D01*
X52261268Y-27862151D01*
X52334156Y-27801531D01*
X52421095Y-27729224D01*
X52425533Y-27725533D01*
X52562151Y-27561268D01*
X52562367Y-27561448D01*
X52604816Y-27523658D01*
X52630931Y-27509859D01*
X53227978Y-26912812D01*
X53234356Y-26901132D01*
X53964408Y-26901132D01*
X53964539Y-26902965D01*
X53968790Y-26909580D01*
X54569910Y-27510700D01*
X54582290Y-27517460D01*
X54588870Y-27512534D01*
X54663267Y-27379688D01*
X54667943Y-27369185D01*
X54732878Y-27177894D01*
X54735563Y-27166712D01*
X54764846Y-26964749D01*
X54765476Y-26957366D01*
X54766881Y-26903704D01*
X54766638Y-26896305D01*
X54747966Y-26693092D01*
X54745868Y-26681771D01*
X54691038Y-26487357D01*
X54686913Y-26476610D01*
X54597567Y-26295438D01*
X54593663Y-26289066D01*
X54583453Y-26281404D01*
X54571033Y-26288177D01*
X53972022Y-26887188D01*
X53964408Y-26901132D01*
X53234356Y-26901132D01*
X53235592Y-26898868D01*
X53235461Y-26897035D01*
X53231210Y-26890420D01*
X52628557Y-26287767D01*
X52593958Y-26268874D01*
X52553386Y-26233675D01*
X52471064Y-26123431D01*
X52471057Y-26123424D01*
X52467607Y-26118803D01*
X52454616Y-26106794D01*
X52314957Y-25977695D01*
X52314954Y-25977693D01*
X52310717Y-25973776D01*
X52224341Y-25919277D01*
X52983389Y-25919277D01*
X52986876Y-25927666D01*
X53587188Y-26527978D01*
X53601132Y-26535592D01*
X53602965Y-26535461D01*
X53609580Y-26531210D01*
X54209433Y-25931357D01*
X54216193Y-25918977D01*
X54210163Y-25910922D01*
X54134680Y-25863296D01*
X54124436Y-25858076D01*
X53936808Y-25783220D01*
X53925770Y-25779950D01*
X53727650Y-25740542D01*
X53716203Y-25739339D01*
X53514222Y-25736695D01*
X53502742Y-25737598D01*
X53303661Y-25771807D01*
X53292541Y-25774787D01*
X53103019Y-25844705D01*
X53092642Y-25849655D01*
X52992987Y-25908944D01*
X52983389Y-25919277D01*
X52224341Y-25919277D01*
X52130025Y-25859768D01*
X51931582Y-25780597D01*
X51925925Y-25779472D01*
X51925919Y-25779470D01*
X51727703Y-25740043D01*
X51727699Y-25740043D01*
X51722035Y-25738916D01*
X51716260Y-25738840D01*
X51716256Y-25738840D01*
X51608997Y-25737436D01*
X51508401Y-25736119D01*
X51502704Y-25737098D01*
X51502703Y-25737098D01*
X51324028Y-25767800D01*
X51297834Y-25772301D01*
X51097387Y-25846250D01*
X51092426Y-25849202D01*
X51092425Y-25849202D01*
X50918740Y-25952533D01*
X50918737Y-25952535D01*
X50913772Y-25955489D01*
X50909432Y-25959295D01*
X50909428Y-25959298D01*
X50779861Y-26072926D01*
X50753140Y-26096360D01*
X50722140Y-26135684D01*
X50699557Y-26164330D01*
X50641676Y-26205443D01*
X50570756Y-26208737D01*
X50509313Y-26173166D01*
X50499649Y-26161712D01*
X50471064Y-26123431D01*
X50471057Y-26123424D01*
X50467607Y-26118803D01*
X50454616Y-26106794D01*
X50314957Y-25977695D01*
X50314954Y-25977693D01*
X50310717Y-25973776D01*
X50130025Y-25859768D01*
X49931582Y-25780597D01*
X49925925Y-25779472D01*
X49925919Y-25779470D01*
X49727703Y-25740043D01*
X49727699Y-25740043D01*
X49722035Y-25738916D01*
X49716260Y-25738840D01*
X49716256Y-25738840D01*
X49608997Y-25737436D01*
X49508401Y-25736119D01*
X49502704Y-25737098D01*
X49502703Y-25737098D01*
X49324028Y-25767800D01*
X49297834Y-25772301D01*
X49097387Y-25846250D01*
X49092426Y-25849202D01*
X49092425Y-25849202D01*
X48918740Y-25952533D01*
X48918737Y-25952535D01*
X48913772Y-25955489D01*
X48909432Y-25959295D01*
X48909428Y-25959298D01*
X48870056Y-25993827D01*
X48805652Y-26023704D01*
X48735319Y-26014018D01*
X48686152Y-25974660D01*
X48617261Y-25882739D01*
X48500705Y-25795385D01*
X48364316Y-25744255D01*
X48302134Y-25737500D01*
X46897866Y-25737500D01*
X46835684Y-25744255D01*
X46699295Y-25795385D01*
X46582739Y-25882739D01*
X46495385Y-25999295D01*
X46444255Y-26135684D01*
X46437500Y-26197866D01*
X46437500Y-27602134D01*
X43085102Y-27602134D01*
X43073661Y-27467293D01*
X43071871Y-27456821D01*
X43015802Y-27240798D01*
X43012266Y-27230758D01*
X42920601Y-27027268D01*
X42915432Y-27017982D01*
X42790790Y-26832845D01*
X42784129Y-26824559D01*
X42630076Y-26663070D01*
X42622108Y-26656021D01*
X42443048Y-26522797D01*
X42434018Y-26517198D01*
X42235069Y-26416047D01*
X42225208Y-26412044D01*
X42012071Y-26345862D01*
X42001691Y-26343580D01*
X41981957Y-26340964D01*
X41967793Y-26343160D01*
X41964000Y-26356345D01*
X41964000Y-27647885D01*
X41456000Y-27647885D01*
X41456000Y-26358373D01*
X41452027Y-26344842D01*
X41441420Y-26343317D01*
X41317812Y-26369252D01*
X41307616Y-26372312D01*
X41100048Y-26454284D01*
X41090511Y-26459018D01*
X40899715Y-26574796D01*
X40891122Y-26581062D01*
X40722559Y-26727333D01*
X40715139Y-26734964D01*
X40573632Y-26907542D01*
X40567607Y-26916309D01*
X40549011Y-26948978D01*
X40497929Y-26998285D01*
X40428298Y-27012146D01*
X40362227Y-26986163D01*
X40334989Y-26957013D01*
X40287980Y-26887188D01*
X40248202Y-26828104D01*
X40086724Y-26658832D01*
X39899035Y-26519187D01*
X39894284Y-26516771D01*
X39894280Y-26516769D01*
X39695256Y-26415580D01*
X39695255Y-26415580D01*
X39690500Y-26413162D01*
X39467083Y-26343790D01*
X39461796Y-26343089D01*
X39461795Y-26343089D01*
X39240455Y-26313752D01*
X39240451Y-26313752D01*
X39235171Y-26313052D01*
X39229842Y-26313252D01*
X39229840Y-26313252D01*
X39134346Y-26316837D01*
X39001396Y-26321828D01*
X38917411Y-26339450D01*
X38777668Y-26368771D01*
X38777665Y-26368772D01*
X38772441Y-26369868D01*
X38554854Y-26455797D01*
X38550290Y-26458566D01*
X38550291Y-26458566D01*
X38359417Y-26574391D01*
X38359414Y-26574393D01*
X38354856Y-26577159D01*
X38178166Y-26730483D01*
X38029835Y-26911386D01*
X38027199Y-26916016D01*
X38027196Y-26916021D01*
X38008699Y-26948516D01*
X37957616Y-26997822D01*
X37887985Y-27011683D01*
X37821915Y-26985699D01*
X37794677Y-26956550D01*
X37754609Y-26897035D01*
X37708202Y-26828104D01*
X37546724Y-26658832D01*
X37359035Y-26519187D01*
X37354284Y-26516771D01*
X37354280Y-26516769D01*
X37155256Y-26415580D01*
X37155255Y-26415580D01*
X37150500Y-26413162D01*
X36927083Y-26343790D01*
X36921796Y-26343089D01*
X36921795Y-26343089D01*
X36700455Y-26313752D01*
X36700451Y-26313752D01*
X36695171Y-26313052D01*
X36689842Y-26313252D01*
X36689840Y-26313252D01*
X36594346Y-26316837D01*
X36461396Y-26321828D01*
X36377411Y-26339450D01*
X36237668Y-26368771D01*
X36237665Y-26368772D01*
X36232441Y-26369868D01*
X36014854Y-26455797D01*
X36010290Y-26458566D01*
X36010291Y-26458566D01*
X35819417Y-26574391D01*
X35819414Y-26574393D01*
X35814856Y-26577159D01*
X35638166Y-26730483D01*
X35620309Y-26752262D01*
X35607593Y-26767770D01*
X35548933Y-26807764D01*
X35477962Y-26809695D01*
X35417214Y-26772950D01*
X35402267Y-26750610D01*
X35401550Y-26751054D01*
X35312332Y-26606880D01*
X35308478Y-26600652D01*
X35183303Y-26475695D01*
X35147840Y-26453835D01*
X35038968Y-26386725D01*
X35038966Y-26386724D01*
X35032738Y-26382885D01*
X34952722Y-26356345D01*
X34871389Y-26329368D01*
X34871387Y-26329368D01*
X34864861Y-26327203D01*
X34858025Y-26326503D01*
X34858022Y-26326502D01*
X34810449Y-26321628D01*
X34760400Y-26316500D01*
X33419600Y-26316500D01*
X33416354Y-26316837D01*
X33416350Y-26316837D01*
X33320692Y-26326762D01*
X33320688Y-26326763D01*
X33313834Y-26327474D01*
X33307298Y-26329655D01*
X33307296Y-26329655D01*
X33190052Y-26368771D01*
X33146054Y-26383450D01*
X32995652Y-26476522D01*
X32870695Y-26601697D01*
X32866855Y-26607927D01*
X32866854Y-26607928D01*
X32788548Y-26734964D01*
X32777885Y-26752262D01*
X32722203Y-26920139D01*
X32721503Y-26926975D01*
X32721502Y-26926978D01*
X32719248Y-26948978D01*
X32711500Y-27024600D01*
X32711500Y-28815400D01*
X25508500Y-28815400D01*
X25508500Y-23632703D01*
X26390743Y-23632703D01*
X26428268Y-23917734D01*
X26504129Y-24195036D01*
X26616923Y-24459476D01*
X26764561Y-24706161D01*
X26944313Y-24930528D01*
X27152851Y-25128423D01*
X27386317Y-25296186D01*
X27390112Y-25298195D01*
X27390113Y-25298196D01*
X27411869Y-25309715D01*
X27640392Y-25430712D01*
X27910373Y-25529511D01*
X28191264Y-25590755D01*
X28219841Y-25593004D01*
X28414282Y-25608307D01*
X28414291Y-25608307D01*
X28416739Y-25608500D01*
X28572271Y-25608500D01*
X28574407Y-25608354D01*
X28574418Y-25608354D01*
X28782548Y-25594165D01*
X28782554Y-25594164D01*
X28786825Y-25593873D01*
X28791020Y-25593004D01*
X28791022Y-25593004D01*
X29011226Y-25547402D01*
X29068342Y-25535574D01*
X29339343Y-25439607D01*
X29594812Y-25307750D01*
X29598313Y-25305289D01*
X29598317Y-25305287D01*
X29712417Y-25225096D01*
X29830023Y-25142441D01*
X30040622Y-24946740D01*
X30222713Y-24724268D01*
X30372927Y-24479142D01*
X30488483Y-24215898D01*
X30567244Y-23939406D01*
X30607751Y-23654784D01*
X30607845Y-23636951D01*
X30607867Y-23632703D01*
X129390743Y-23632703D01*
X129428268Y-23917734D01*
X129504129Y-24195036D01*
X129616923Y-24459476D01*
X129764561Y-24706161D01*
X129944313Y-24930528D01*
X130152851Y-25128423D01*
X130386317Y-25296186D01*
X130390112Y-25298195D01*
X130390113Y-25298196D01*
X130411869Y-25309715D01*
X130640392Y-25430712D01*
X130910373Y-25529511D01*
X131191264Y-25590755D01*
X131219841Y-25593004D01*
X131414282Y-25608307D01*
X131414291Y-25608307D01*
X131416739Y-25608500D01*
X131572271Y-25608500D01*
X131574407Y-25608354D01*
X131574418Y-25608354D01*
X131782548Y-25594165D01*
X131782554Y-25594164D01*
X131786825Y-25593873D01*
X131791020Y-25593004D01*
X131791022Y-25593004D01*
X132011226Y-25547402D01*
X132068342Y-25535574D01*
X132339343Y-25439607D01*
X132594812Y-25307750D01*
X132598313Y-25305289D01*
X132598317Y-25305287D01*
X132712418Y-25225095D01*
X132830023Y-25142441D01*
X133040622Y-24946740D01*
X133222713Y-24724268D01*
X133372927Y-24479142D01*
X133488483Y-24215898D01*
X133567244Y-23939406D01*
X133607751Y-23654784D01*
X133607845Y-23636951D01*
X133609235Y-23371583D01*
X133609235Y-23371576D01*
X133609257Y-23367297D01*
X133571732Y-23082266D01*
X133495871Y-22804964D01*
X133383077Y-22540524D01*
X133235439Y-22293839D01*
X133055687Y-22069472D01*
X132847149Y-21871577D01*
X132613683Y-21703814D01*
X132591843Y-21692250D01*
X132568654Y-21679972D01*
X132359608Y-21569288D01*
X132089627Y-21470489D01*
X131808736Y-21409245D01*
X131777685Y-21406801D01*
X131585718Y-21391693D01*
X131585709Y-21391693D01*
X131583261Y-21391500D01*
X131427729Y-21391500D01*
X131425593Y-21391646D01*
X131425582Y-21391646D01*
X131217452Y-21405835D01*
X131217446Y-21405836D01*
X131213175Y-21406127D01*
X131208980Y-21406996D01*
X131208978Y-21406996D01*
X131072416Y-21435277D01*
X130931658Y-21464426D01*
X130660657Y-21560393D01*
X130405188Y-21692250D01*
X130401687Y-21694711D01*
X130401683Y-21694713D01*
X130398314Y-21697081D01*
X130169977Y-21857559D01*
X130154892Y-21871577D01*
X129989485Y-22025283D01*
X129959378Y-22053260D01*
X129777287Y-22275732D01*
X129627073Y-22520858D01*
X129511517Y-22784102D01*
X129432756Y-23060594D01*
X129392249Y-23345216D01*
X129392227Y-23349505D01*
X129392226Y-23349512D01*
X129390765Y-23628417D01*
X129390743Y-23632703D01*
X30607867Y-23632703D01*
X30609235Y-23371583D01*
X30609235Y-23371576D01*
X30609257Y-23367297D01*
X30571732Y-23082266D01*
X30495871Y-22804964D01*
X30383077Y-22540524D01*
X30235439Y-22293839D01*
X30055687Y-22069472D01*
X29847149Y-21871577D01*
X29613683Y-21703814D01*
X29591843Y-21692250D01*
X29568654Y-21679972D01*
X29359608Y-21569288D01*
X29089627Y-21470489D01*
X28808736Y-21409245D01*
X28777685Y-21406801D01*
X28585718Y-21391693D01*
X28585709Y-21391693D01*
X28583261Y-21391500D01*
X28427729Y-21391500D01*
X28425593Y-21391646D01*
X28425582Y-21391646D01*
X28217452Y-21405835D01*
X28217446Y-21405836D01*
X28213175Y-21406127D01*
X28208980Y-21406996D01*
X28208978Y-21406996D01*
X28072416Y-21435277D01*
X27931658Y-21464426D01*
X27660657Y-21560393D01*
X27405188Y-21692250D01*
X27401687Y-21694711D01*
X27401683Y-21694713D01*
X27398314Y-21697081D01*
X27169977Y-21857559D01*
X27154892Y-21871577D01*
X26989485Y-22025283D01*
X26959378Y-22053260D01*
X26777287Y-22275732D01*
X26627073Y-22520858D01*
X26511517Y-22784102D01*
X26432756Y-23060594D01*
X26392249Y-23345216D01*
X26392227Y-23349505D01*
X26392226Y-23349512D01*
X26390765Y-23628417D01*
X26390743Y-23632703D01*
X25508500Y-23632703D01*
X25508500Y-22957208D01*
X25528502Y-22889087D01*
X25546786Y-22866753D01*
X26159698Y-22272414D01*
X27942079Y-20544044D01*
X28004906Y-20510982D01*
X28029792Y-20508500D01*
X132950633Y-20508500D01*
X132970018Y-20510000D01*
G37*
%TD.AperFunction*%
%TD*%
M02*
