G04 #@! TF.GenerationSoftware,KiCad,Pcbnew,(5.1.2)-2*
G04 #@! TF.CreationDate,2020-02-16T13:47:15-06:00*
G04 #@! TF.ProjectId,AutoSteer7,4175746f-5374-4656-9572-372e6b696361,rev?*
G04 #@! TF.SameCoordinates,Original*
G04 #@! TF.FileFunction,Copper,L1,Top*
G04 #@! TF.FilePolarity,Positive*
%FSLAX46Y46*%
G04 Gerber Fmt 4.6, Leading zero omitted, Abs format (unit mm)*
G04 Created by KiCad (PCBNEW (5.1.2)-2) date 2020-02-16 13:47:15*
%MOMM*%
%LPD*%
G04 APERTURE LIST*
%ADD10C,2.600000*%
%ADD11R,2.600000X2.600000*%
%ADD12O,1.700000X1.700000*%
%ADD13R,1.700000X1.700000*%
%ADD14O,1.600000X1.600000*%
%ADD15C,1.600000*%
%ADD16R,1.600000X1.600000*%
%ADD17C,3.500000*%
%ADD18C,1.700000*%
%ADD19C,1.590000*%
%ADD20C,1.800000*%
%ADD21R,1.800000X1.800000*%
%ADD22C,2.000000*%
%ADD23R,2.000000X2.000000*%
%ADD24C,0.800000*%
%ADD25C,1.270000*%
%ADD26C,2.032000*%
%ADD27C,3.810000*%
G04 APERTURE END LIST*
D10*
X130500000Y-63500000D03*
X125500000Y-63500000D03*
X120500000Y-63500000D03*
X115500000Y-63500000D03*
X110500000Y-63500000D03*
X105500000Y-63500000D03*
X100500000Y-63500000D03*
D11*
X95500000Y-63500000D03*
D12*
X145460000Y-71660000D03*
X148000000Y-71660000D03*
X145460000Y-69120000D03*
X148000000Y-69120000D03*
X145460000Y-66580000D03*
X148000000Y-66580000D03*
X145460000Y-64040000D03*
X148000000Y-64040000D03*
X145460000Y-61500000D03*
D13*
X148000000Y-61500000D03*
D10*
X145797600Y-122000000D03*
X140797600Y-122000000D03*
X135797600Y-122000000D03*
X130797600Y-122000000D03*
X125797600Y-122000000D03*
X120797600Y-122000000D03*
X115797600Y-122000000D03*
X110797600Y-122000000D03*
D11*
X105797600Y-122000000D03*
D12*
X130000000Y-97070000D03*
X130000000Y-99610000D03*
X130000000Y-102150000D03*
D13*
X130000000Y-104690000D03*
D14*
X143000000Y-96340000D03*
D15*
X143000000Y-106500000D03*
D14*
X136650000Y-96340000D03*
D15*
X136650000Y-106500000D03*
D14*
X118000000Y-90160000D03*
D15*
X118000000Y-80000000D03*
D14*
X105500000Y-90160000D03*
D15*
X105500000Y-80000000D03*
D14*
X111750000Y-90160000D03*
D15*
X111750000Y-80000000D03*
D14*
X144660000Y-110500000D03*
D15*
X134500000Y-110500000D03*
D10*
X85500000Y-124250000D03*
X85500000Y-119250000D03*
X85500000Y-114250000D03*
X85500000Y-109250000D03*
X85500000Y-104250000D03*
X85500000Y-99250000D03*
X85500000Y-94250000D03*
X85500000Y-89250000D03*
X85500000Y-84250000D03*
X85500000Y-79250000D03*
X85500000Y-74250000D03*
D11*
X85500000Y-69250000D03*
D14*
X127940000Y-91740000D03*
X127940000Y-76500000D03*
X163500000Y-91740000D03*
X130480000Y-76500000D03*
X160960000Y-91740000D03*
X133020000Y-76500000D03*
X158420000Y-91740000D03*
X135560000Y-76500000D03*
X155880000Y-91740000D03*
X138100000Y-76500000D03*
X153340000Y-91740000D03*
X140640000Y-76500000D03*
X150800000Y-91740000D03*
X143180000Y-76500000D03*
X148260000Y-91740000D03*
X145720000Y-76500000D03*
X145720000Y-91740000D03*
X148260000Y-76500000D03*
X143180000Y-91740000D03*
X150800000Y-76500000D03*
X140640000Y-91740000D03*
X153340000Y-76500000D03*
X138100000Y-91740000D03*
X155880000Y-76500000D03*
X135560000Y-91740000D03*
X158420000Y-76500000D03*
X133020000Y-91740000D03*
X160960000Y-76500000D03*
X130480000Y-91740000D03*
D16*
X163500000Y-76500000D03*
D17*
X98500000Y-109380000D03*
X98500000Y-124620000D03*
D15*
X162000000Y-118000000D03*
X164500000Y-118000000D03*
X162000000Y-103000000D03*
X164500000Y-103000000D03*
D18*
X98463600Y-97049400D03*
X101003600Y-97049400D03*
X103543600Y-97049400D03*
X106083600Y-97049400D03*
X108623600Y-97049400D03*
X111163600Y-97049400D03*
X113703600Y-97049400D03*
X116243600Y-97049400D03*
X118783600Y-97049400D03*
X121323600Y-97049400D03*
D19*
X164500000Y-108083200D03*
X164500000Y-110623200D03*
X164500000Y-113163200D03*
D15*
X164000000Y-97000000D03*
X161500000Y-97000000D03*
D20*
X149500000Y-109960000D03*
D21*
X149500000Y-112500000D03*
D22*
X155500000Y-127500000D03*
D23*
X155500000Y-122500000D03*
D15*
X119000000Y-105000000D03*
X121500000Y-105000000D03*
D22*
X152994999Y-103000000D03*
D23*
X152994999Y-98000000D03*
D24*
X140000000Y-66500000D03*
D25*
X165135001Y-75031999D02*
X164968001Y-74864999D01*
X156683002Y-66580000D02*
X148000000Y-66580000D01*
X165135001Y-75031999D02*
X156683002Y-66580000D01*
X161000000Y-80000000D02*
X162864999Y-78135001D01*
X141962752Y-86955065D02*
X148917817Y-80000000D01*
X132724935Y-86955065D02*
X141962752Y-86955065D01*
X165135001Y-77968001D02*
X165135001Y-75031999D01*
X127940000Y-91740000D02*
X132724935Y-86955065D01*
X148917817Y-80000000D02*
X161000000Y-80000000D01*
X164968001Y-78135001D02*
X165135001Y-77968001D01*
X162864999Y-78135001D02*
X164968001Y-78135001D01*
X166605012Y-78576899D02*
X166605012Y-73605012D01*
X166605012Y-73605012D02*
X152814999Y-59814999D01*
X163711900Y-81470011D02*
X166605012Y-78576899D01*
X145460000Y-60297919D02*
X145460000Y-61500000D01*
X145942920Y-59814999D02*
X145460000Y-60297919D01*
X149526715Y-81470011D02*
X163711900Y-81470011D01*
X142571650Y-88425076D02*
X149526715Y-81470011D01*
X130480000Y-91740000D02*
X133794924Y-88425076D01*
X152814999Y-59814999D02*
X145942920Y-59814999D01*
X133794924Y-88425076D02*
X142571650Y-88425076D01*
X111750000Y-90160000D02*
X116424944Y-85485056D01*
X116424944Y-85485056D02*
X141353852Y-85485056D01*
X141353852Y-85485056D02*
X148703907Y-78135001D01*
X148703907Y-78135001D02*
X149164999Y-78135001D01*
X149164999Y-78135001D02*
X150000001Y-77299999D01*
X150000001Y-77299999D02*
X150800000Y-76500000D01*
X105500000Y-90160000D02*
X111644955Y-84015045D01*
X140744955Y-84015045D02*
X147460001Y-77299999D01*
X147460001Y-77299999D02*
X148260000Y-76500000D01*
X111644955Y-84015045D02*
X140744955Y-84015045D01*
X144920001Y-77299999D02*
X145720000Y-76500000D01*
X139674966Y-82545034D02*
X144920001Y-77299999D01*
X124545034Y-82545034D02*
X139674966Y-82545034D01*
X110500000Y-63500000D02*
X110500000Y-68500000D01*
X110500000Y-68500000D02*
X124545034Y-82545034D01*
X137449999Y-95540001D02*
X136650000Y-96340000D01*
X139614999Y-93375001D02*
X137449999Y-95540001D01*
X144084999Y-93375001D02*
X139614999Y-93375001D01*
X145720000Y-91740000D02*
X144084999Y-93375001D01*
X135518630Y-96340000D02*
X134788630Y-97070000D01*
X136650000Y-96340000D02*
X135518630Y-96340000D01*
X115554608Y-95198392D02*
X114553599Y-96199401D01*
X123961922Y-97070000D02*
X122090314Y-95198392D01*
X130000000Y-97070000D02*
X123961922Y-97070000D01*
X114553599Y-96199401D02*
X113703600Y-97049400D01*
X122090314Y-95198392D02*
X115554608Y-95198392D01*
X134788630Y-97070000D02*
X130000000Y-97070000D01*
X115500000Y-70637620D02*
X125937403Y-81075023D01*
X125937403Y-81075023D02*
X138604977Y-81075023D01*
X142380001Y-77299999D02*
X143180000Y-76500000D01*
X138604977Y-81075023D02*
X142380001Y-77299999D01*
X115500000Y-63500000D02*
X115500000Y-70637620D01*
X143660000Y-96340000D02*
X143000000Y-96340000D01*
X148260000Y-91740000D02*
X143660000Y-96340000D01*
X139730000Y-99610000D02*
X130000000Y-99610000D01*
X143000000Y-96340000D02*
X139730000Y-99610000D01*
X123500000Y-76558711D02*
X126546301Y-79605012D01*
X137534988Y-79605012D02*
X139840001Y-77299999D01*
X126546301Y-79605012D02*
X137534988Y-79605012D01*
X139840001Y-77299999D02*
X140640000Y-76500000D01*
X123500000Y-68338477D02*
X123500000Y-76558711D01*
X120500000Y-65338477D02*
X123500000Y-68338477D01*
X120500000Y-63500000D02*
X120500000Y-65338477D01*
X134760001Y-77299999D02*
X135560000Y-76500000D01*
X133924999Y-78135001D02*
X134760001Y-77299999D01*
X127155199Y-78135001D02*
X133924999Y-78135001D01*
X126304999Y-77284801D02*
X127155199Y-78135001D01*
X126304999Y-66143476D02*
X126304999Y-77284801D01*
X125500000Y-65338477D02*
X126304999Y-66143476D01*
X125500000Y-63500000D02*
X125500000Y-65338477D01*
D26*
X160500000Y-98000000D02*
X161500000Y-97000000D01*
X152994999Y-98000000D02*
X160500000Y-98000000D01*
X155880000Y-92871370D02*
X155880000Y-91740000D01*
X159208631Y-96200001D02*
X155880000Y-92871370D01*
X160700001Y-96200001D02*
X159208631Y-96200001D01*
X161500000Y-97000000D02*
X160700001Y-96200001D01*
X143000000Y-106500000D02*
X136650000Y-106500000D01*
X131810000Y-106500000D02*
X130000000Y-104690000D01*
X136650000Y-106500000D02*
X131810000Y-106500000D01*
X121810000Y-104690000D02*
X121500000Y-105000000D01*
X130000000Y-104690000D02*
X121810000Y-104690000D01*
X121500000Y-97225800D02*
X121323600Y-97049400D01*
X85500000Y-99250000D02*
X85500000Y-94250000D01*
X85500000Y-94250000D02*
X85500000Y-89250000D01*
X164500000Y-108083200D02*
X164500000Y-103000000D01*
X161500000Y-98131370D02*
X161500000Y-97000000D01*
X161500000Y-98868630D02*
X161500000Y-98131370D01*
X164500000Y-101868630D02*
X161500000Y-98868630D01*
X164500000Y-103000000D02*
X164500000Y-101868630D01*
X151500000Y-98000000D02*
X143000000Y-106500000D01*
X152994999Y-98000000D02*
X151500000Y-98000000D01*
X88088477Y-100000000D02*
X121500000Y-100000000D01*
X87338477Y-99250000D02*
X88088477Y-100000000D01*
X85500000Y-99250000D02*
X87338477Y-99250000D01*
X121500000Y-105000000D02*
X121500000Y-100000000D01*
X121500000Y-100000000D02*
X121500000Y-97225800D01*
D25*
X136650000Y-108350000D02*
X134500000Y-110500000D01*
X136650000Y-106500000D02*
X136650000Y-108350000D01*
X148849999Y-69969999D02*
X148000000Y-69120000D01*
X149685001Y-70805001D02*
X148849999Y-69969999D01*
X149685001Y-72468801D02*
X149685001Y-70805001D01*
X147288803Y-74864999D02*
X149685001Y-72468801D01*
X129575001Y-74864999D02*
X147288803Y-74864999D01*
X127940000Y-76500000D02*
X129575001Y-74864999D01*
X148960000Y-110500000D02*
X149500000Y-109960000D01*
X144660000Y-110500000D02*
X148960000Y-110500000D01*
D27*
X93130000Y-119250000D02*
X98500000Y-124620000D01*
X85500000Y-119250000D02*
X93130000Y-119250000D01*
D25*
X140080000Y-66580000D02*
X140000000Y-66500000D01*
X145460000Y-66580000D02*
X140080000Y-66580000D01*
X121238908Y-90160000D02*
X124453909Y-93375001D01*
X124453909Y-93375001D02*
X133924999Y-93375001D01*
X133924999Y-93375001D02*
X134760001Y-92539999D01*
X134760001Y-92539999D02*
X135560000Y-91740000D01*
X118000000Y-90160000D02*
X121238908Y-90160000D01*
D27*
X85500000Y-114250000D02*
X85500000Y-109250000D01*
X85500000Y-109250000D02*
X85500000Y-104250000D01*
D26*
X164500000Y-113163200D02*
X164500000Y-114500000D01*
X164500000Y-114500000D02*
X164500000Y-118000000D01*
D27*
X158690000Y-114500000D02*
X164500000Y-114500000D01*
X155500000Y-117690000D02*
X158690000Y-114500000D01*
X155500000Y-122500000D02*
X155500000Y-117690000D01*
X98370000Y-109250000D02*
X98500000Y-109380000D01*
X85500000Y-109250000D02*
X98370000Y-109250000D01*
X106810000Y-117690000D02*
X155500000Y-117690000D01*
X98500000Y-109380000D02*
X106810000Y-117690000D01*
D25*
X100500000Y-68750000D02*
X111750000Y-80000000D01*
X100500000Y-63500000D02*
X100500000Y-68750000D01*
X85664200Y-84250000D02*
X85500000Y-84250000D01*
X98463600Y-97049400D02*
X85664200Y-84250000D01*
X86799999Y-80549999D02*
X85500000Y-79250000D01*
X99454966Y-93204966D02*
X86799999Y-80549999D01*
X99454966Y-95500766D02*
X99454966Y-93204966D01*
X101003600Y-97049400D02*
X99454966Y-95500766D01*
X86799999Y-75549999D02*
X85500000Y-74250000D01*
X100924977Y-89674977D02*
X86799999Y-75549999D01*
X100924977Y-94430777D02*
X100924977Y-89674977D01*
X103543600Y-97049400D02*
X100924977Y-94430777D01*
X88070000Y-69250000D02*
X85500000Y-69250000D01*
X102394988Y-83574988D02*
X88070000Y-69250000D01*
X102394988Y-93360788D02*
X102394988Y-83574988D01*
X106083600Y-97049400D02*
X102394988Y-93360788D01*
X105500000Y-67500000D02*
X118000000Y-80000000D01*
X105500000Y-63500000D02*
X105500000Y-67500000D01*
X95500000Y-70000000D02*
X105500000Y-80000000D01*
X95500000Y-63500000D02*
X95500000Y-70000000D01*
M02*
