M48
; DRILL file {KiCad (5.1.2)-2} date 2020-02-16 1:47:41 PM
; FORMAT={-:-/ absolute / inch / decimal}
; #@! TF.CreationDate,2020-02-16T13:47:41-06:00
; #@! TF.GenerationSoftware,Kicad,Pcbnew,(5.1.2)-2
; #@! TF.FileFunction,Plated,1,2,PTH
FMAT,2
INCH
T1C0.0157
T2C0.0315
T3C0.0350
T4C0.0354
T5C0.0394
T6C0.0492
T7C0.0512
%
G90
G05
T1
X5.5118Y-2.6181
T2
X4.6457Y-3.1496
X4.6457Y-3.5496
X5.6299Y-3.7929
X5.6299Y-4.1929
X5.037Y-3.0118
X5.037Y-3.6118
X5.137Y-3.0118
X5.137Y-3.6118
X5.237Y-3.0118
X5.237Y-3.6118
X5.337Y-3.0118
X5.337Y-3.6118
X5.437Y-3.0118
X5.437Y-3.6118
X5.537Y-3.0118
X5.537Y-3.6118
X5.637Y-3.0118
X5.637Y-3.6118
X5.737Y-3.0118
X5.737Y-3.6118
X5.837Y-3.0118
X5.837Y-3.6118
X5.937Y-3.0118
X5.937Y-3.6118
X6.037Y-3.0118
X6.037Y-3.6118
X6.137Y-3.0118
X6.137Y-3.6118
X6.237Y-3.0118
X6.237Y-3.6118
X6.337Y-3.0118
X6.337Y-3.6118
X6.437Y-3.0118
X6.437Y-3.6118
X5.3799Y-3.7929
X5.3799Y-4.1929
X4.3996Y-3.1496
X4.3996Y-3.5496
X6.3583Y-3.8189
X6.4567Y-3.8189
X6.378Y-4.6457
X6.4764Y-4.6457
X5.2953Y-4.3504
X5.6953Y-4.3504
X4.1535Y-3.1496
X4.1535Y-3.5496
X4.685Y-4.1339
X4.7835Y-4.1339
X6.378Y-4.0551
X6.4764Y-4.0551
T3
X6.4764Y-4.2552
X6.4764Y-4.3552
X6.4764Y-4.4552
T4
X5.8858Y-4.3291
X5.8858Y-4.4291
T5
X5.7268Y-2.4213
X5.7268Y-2.5213
X5.7268Y-2.6213
X5.7268Y-2.7213
X5.7268Y-2.8213
X5.8268Y-2.4213
X5.8268Y-2.5213
X5.8268Y-2.6213
X5.8268Y-2.7213
X5.8268Y-2.8213
X3.8765Y-3.8208
X3.9765Y-3.8208
X4.0765Y-3.8208
X4.1765Y-3.8208
X4.2765Y-3.8208
X4.3765Y-3.8208
X4.4765Y-3.8208
X4.5765Y-3.8208
X4.6765Y-3.8208
X4.7765Y-3.8208
X6.0234Y-3.8583
X6.0234Y-4.0551
X6.122Y-4.8228
X6.122Y-5.0197
X5.1181Y-3.8217
X5.1181Y-3.9217
X5.1181Y-4.0217
X5.1181Y-4.1217
T6
X3.878Y-4.3063
X3.878Y-4.9063
T7
X4.1653Y-4.8031
X4.3621Y-4.8031
X4.559Y-4.8031
X4.7558Y-4.8031
X4.9527Y-4.8031
X5.1495Y-4.8031
X5.3464Y-4.8031
X5.5432Y-4.8031
X5.7401Y-4.8031
X3.3661Y-2.7264
X3.3661Y-2.9232
X3.3661Y-3.1201
X3.3661Y-3.3169
X3.3661Y-3.5138
X3.3661Y-3.7106
X3.3661Y-3.9075
X3.3661Y-4.1043
X3.3661Y-4.3012
X3.3661Y-4.498
X3.3661Y-4.6949
X3.3661Y-4.8917
X3.7598Y-2.5
X3.9567Y-2.5
X4.1535Y-2.5
X4.3504Y-2.5
X4.5472Y-2.5
X4.7441Y-2.5
X4.9409Y-2.5
X5.1378Y-2.5
T0
M30
