G04 #@! TF.GenerationSoftware,KiCad,Pcbnew,(5.1.2)-2*
G04 #@! TF.CreationDate,2020-02-16T13:47:15-06:00*
G04 #@! TF.ProjectId,AutoSteer7,4175746f-5374-4656-9572-372e6b696361,rev?*
G04 #@! TF.SameCoordinates,Original*
G04 #@! TF.FileFunction,Soldermask,Bot*
G04 #@! TF.FilePolarity,Negative*
%FSLAX46Y46*%
G04 Gerber Fmt 4.6, Leading zero omitted, Abs format (unit mm)*
G04 Created by KiCad (PCBNEW (5.1.2)-2) date 2020-02-16 13:47:15*
%MOMM*%
%LPD*%
G04 APERTURE LIST*
%ADD10C,0.100000*%
G04 APERTURE END LIST*
D10*
G36*
X164375256Y-129391298D02*
G01*
X164481579Y-129412447D01*
X164782042Y-129536903D01*
X165052451Y-129717585D01*
X165282415Y-129947549D01*
X165463097Y-130217958D01*
X165587553Y-130518421D01*
X165651000Y-130837391D01*
X165651000Y-131162609D01*
X165587553Y-131481579D01*
X165463097Y-131782042D01*
X165282415Y-132052451D01*
X165052451Y-132282415D01*
X164782042Y-132463097D01*
X164481579Y-132587553D01*
X164375256Y-132608702D01*
X164162611Y-132651000D01*
X163837389Y-132651000D01*
X163624744Y-132608702D01*
X163518421Y-132587553D01*
X163217958Y-132463097D01*
X162947549Y-132282415D01*
X162717585Y-132052451D01*
X162536903Y-131782042D01*
X162412447Y-131481579D01*
X162349000Y-131162609D01*
X162349000Y-130837391D01*
X162412447Y-130518421D01*
X162536903Y-130217958D01*
X162717585Y-129947549D01*
X162947549Y-129717585D01*
X163217958Y-129536903D01*
X163518421Y-129412447D01*
X163624744Y-129391298D01*
X163837389Y-129349000D01*
X164162611Y-129349000D01*
X164375256Y-129391298D01*
X164375256Y-129391298D01*
G37*
G36*
X83875256Y-129391298D02*
G01*
X83981579Y-129412447D01*
X84282042Y-129536903D01*
X84552451Y-129717585D01*
X84782415Y-129947549D01*
X84963097Y-130217958D01*
X85087553Y-130518421D01*
X85151000Y-130837391D01*
X85151000Y-131162609D01*
X85087553Y-131481579D01*
X84963097Y-131782042D01*
X84782415Y-132052451D01*
X84552451Y-132282415D01*
X84282042Y-132463097D01*
X83981579Y-132587553D01*
X83875256Y-132608702D01*
X83662611Y-132651000D01*
X83337389Y-132651000D01*
X83124744Y-132608702D01*
X83018421Y-132587553D01*
X82717958Y-132463097D01*
X82447549Y-132282415D01*
X82217585Y-132052451D01*
X82036903Y-131782042D01*
X81912447Y-131481579D01*
X81849000Y-131162609D01*
X81849000Y-130837391D01*
X81912447Y-130518421D01*
X82036903Y-130217958D01*
X82217585Y-129947549D01*
X82447549Y-129717585D01*
X82717958Y-129536903D01*
X83018421Y-129412447D01*
X83124744Y-129391298D01*
X83337389Y-129349000D01*
X83662611Y-129349000D01*
X83875256Y-129391298D01*
X83875256Y-129391298D01*
G37*
G36*
X155806564Y-126489389D02*
G01*
X155997833Y-126568615D01*
X155997835Y-126568616D01*
X156169973Y-126683635D01*
X156316365Y-126830027D01*
X156431385Y-127002167D01*
X156510611Y-127193436D01*
X156551000Y-127396484D01*
X156551000Y-127603516D01*
X156510611Y-127806564D01*
X156431385Y-127997833D01*
X156431384Y-127997835D01*
X156316365Y-128169973D01*
X156169973Y-128316365D01*
X155997835Y-128431384D01*
X155997834Y-128431385D01*
X155997833Y-128431385D01*
X155806564Y-128510611D01*
X155603516Y-128551000D01*
X155396484Y-128551000D01*
X155193436Y-128510611D01*
X155002167Y-128431385D01*
X155002166Y-128431385D01*
X155002165Y-128431384D01*
X154830027Y-128316365D01*
X154683635Y-128169973D01*
X154568616Y-127997835D01*
X154568615Y-127997833D01*
X154489389Y-127806564D01*
X154449000Y-127603516D01*
X154449000Y-127396484D01*
X154489389Y-127193436D01*
X154568615Y-127002167D01*
X154683635Y-126830027D01*
X154830027Y-126683635D01*
X155002165Y-126568616D01*
X155002167Y-126568615D01*
X155193436Y-126489389D01*
X155396484Y-126449000D01*
X155603516Y-126449000D01*
X155806564Y-126489389D01*
X155806564Y-126489389D01*
G37*
G36*
X99040092Y-122839556D02*
G01*
X99377061Y-122979133D01*
X99680326Y-123181768D01*
X99938232Y-123439674D01*
X100140867Y-123742939D01*
X100280444Y-124079908D01*
X100351600Y-124437633D01*
X100351600Y-124802367D01*
X100280444Y-125160092D01*
X100140867Y-125497061D01*
X99938232Y-125800326D01*
X99680326Y-126058232D01*
X99377061Y-126260867D01*
X99040092Y-126400444D01*
X98861229Y-126436022D01*
X98682368Y-126471600D01*
X98317632Y-126471600D01*
X98138771Y-126436022D01*
X97959908Y-126400444D01*
X97622939Y-126260867D01*
X97319674Y-126058232D01*
X97061768Y-125800326D01*
X96859133Y-125497061D01*
X96719556Y-125160092D01*
X96648400Y-124802367D01*
X96648400Y-124437633D01*
X96719556Y-124079908D01*
X96859133Y-123742939D01*
X97061768Y-123439674D01*
X97319674Y-123181768D01*
X97622939Y-122979133D01*
X97959908Y-122839556D01*
X98317632Y-122768400D01*
X98682368Y-122768400D01*
X99040092Y-122839556D01*
X99040092Y-122839556D01*
G37*
G36*
X85894072Y-122950918D02*
G01*
X86131806Y-123049390D01*
X86139939Y-123052759D01*
X86251328Y-123127187D01*
X86361211Y-123200609D01*
X86549391Y-123388789D01*
X86697242Y-123610063D01*
X86799082Y-123855928D01*
X86851000Y-124116937D01*
X86851000Y-124383063D01*
X86840145Y-124437633D01*
X86799082Y-124644072D01*
X86697241Y-124889939D01*
X86549390Y-125111212D01*
X86361212Y-125299390D01*
X86139939Y-125447241D01*
X86139938Y-125447242D01*
X86139937Y-125447242D01*
X85894072Y-125549082D01*
X85633063Y-125601000D01*
X85366937Y-125601000D01*
X85105928Y-125549082D01*
X84860063Y-125447242D01*
X84860062Y-125447242D01*
X84860061Y-125447241D01*
X84638788Y-125299390D01*
X84450610Y-125111212D01*
X84302759Y-124889939D01*
X84200918Y-124644072D01*
X84159855Y-124437633D01*
X84149000Y-124383063D01*
X84149000Y-124116937D01*
X84200918Y-123855928D01*
X84302758Y-123610063D01*
X84450609Y-123388789D01*
X84638789Y-123200609D01*
X84748672Y-123127187D01*
X84860061Y-123052759D01*
X84868195Y-123049390D01*
X85105928Y-122950918D01*
X85366937Y-122899000D01*
X85633063Y-122899000D01*
X85894072Y-122950918D01*
X85894072Y-122950918D01*
G37*
G36*
X156551000Y-123551000D02*
G01*
X154449000Y-123551000D01*
X154449000Y-121449000D01*
X156551000Y-121449000D01*
X156551000Y-123551000D01*
X156551000Y-123551000D01*
G37*
G36*
X116191672Y-120700918D02*
G01*
X116437539Y-120802759D01*
X116548928Y-120877187D01*
X116658811Y-120950609D01*
X116846991Y-121138789D01*
X116994842Y-121360063D01*
X117096682Y-121605928D01*
X117148600Y-121866937D01*
X117148600Y-122133063D01*
X117096682Y-122394072D01*
X116994842Y-122639937D01*
X116846991Y-122861211D01*
X116658811Y-123049391D01*
X116653770Y-123052759D01*
X116437539Y-123197241D01*
X116437538Y-123197242D01*
X116437537Y-123197242D01*
X116191672Y-123299082D01*
X115930663Y-123351000D01*
X115664537Y-123351000D01*
X115403528Y-123299082D01*
X115157663Y-123197242D01*
X115157662Y-123197242D01*
X115157661Y-123197241D01*
X114941430Y-123052759D01*
X114936389Y-123049391D01*
X114748209Y-122861211D01*
X114600358Y-122639937D01*
X114498518Y-122394072D01*
X114446600Y-122133063D01*
X114446600Y-121866937D01*
X114498518Y-121605928D01*
X114600358Y-121360063D01*
X114748209Y-121138789D01*
X114936389Y-120950609D01*
X115046272Y-120877187D01*
X115157661Y-120802759D01*
X115403528Y-120700918D01*
X115664537Y-120649000D01*
X115930663Y-120649000D01*
X116191672Y-120700918D01*
X116191672Y-120700918D01*
G37*
G36*
X111191672Y-120700918D02*
G01*
X111437539Y-120802759D01*
X111548928Y-120877187D01*
X111658811Y-120950609D01*
X111846991Y-121138789D01*
X111994842Y-121360063D01*
X112096682Y-121605928D01*
X112148600Y-121866937D01*
X112148600Y-122133063D01*
X112096682Y-122394072D01*
X111994842Y-122639937D01*
X111846991Y-122861211D01*
X111658811Y-123049391D01*
X111653770Y-123052759D01*
X111437539Y-123197241D01*
X111437538Y-123197242D01*
X111437537Y-123197242D01*
X111191672Y-123299082D01*
X110930663Y-123351000D01*
X110664537Y-123351000D01*
X110403528Y-123299082D01*
X110157663Y-123197242D01*
X110157662Y-123197242D01*
X110157661Y-123197241D01*
X109941430Y-123052759D01*
X109936389Y-123049391D01*
X109748209Y-122861211D01*
X109600358Y-122639937D01*
X109498518Y-122394072D01*
X109446600Y-122133063D01*
X109446600Y-121866937D01*
X109498518Y-121605928D01*
X109600358Y-121360063D01*
X109748209Y-121138789D01*
X109936389Y-120950609D01*
X110046272Y-120877187D01*
X110157661Y-120802759D01*
X110403528Y-120700918D01*
X110664537Y-120649000D01*
X110930663Y-120649000D01*
X111191672Y-120700918D01*
X111191672Y-120700918D01*
G37*
G36*
X107148600Y-123351000D02*
G01*
X104446600Y-123351000D01*
X104446600Y-120649000D01*
X107148600Y-120649000D01*
X107148600Y-123351000D01*
X107148600Y-123351000D01*
G37*
G36*
X121191672Y-120700918D02*
G01*
X121437539Y-120802759D01*
X121548928Y-120877187D01*
X121658811Y-120950609D01*
X121846991Y-121138789D01*
X121994842Y-121360063D01*
X122096682Y-121605928D01*
X122148600Y-121866937D01*
X122148600Y-122133063D01*
X122096682Y-122394072D01*
X121994842Y-122639937D01*
X121846991Y-122861211D01*
X121658811Y-123049391D01*
X121653770Y-123052759D01*
X121437539Y-123197241D01*
X121437538Y-123197242D01*
X121437537Y-123197242D01*
X121191672Y-123299082D01*
X120930663Y-123351000D01*
X120664537Y-123351000D01*
X120403528Y-123299082D01*
X120157663Y-123197242D01*
X120157662Y-123197242D01*
X120157661Y-123197241D01*
X119941430Y-123052759D01*
X119936389Y-123049391D01*
X119748209Y-122861211D01*
X119600358Y-122639937D01*
X119498518Y-122394072D01*
X119446600Y-122133063D01*
X119446600Y-121866937D01*
X119498518Y-121605928D01*
X119600358Y-121360063D01*
X119748209Y-121138789D01*
X119936389Y-120950609D01*
X120046272Y-120877187D01*
X120157661Y-120802759D01*
X120403528Y-120700918D01*
X120664537Y-120649000D01*
X120930663Y-120649000D01*
X121191672Y-120700918D01*
X121191672Y-120700918D01*
G37*
G36*
X126191672Y-120700918D02*
G01*
X126437539Y-120802759D01*
X126548928Y-120877187D01*
X126658811Y-120950609D01*
X126846991Y-121138789D01*
X126994842Y-121360063D01*
X127096682Y-121605928D01*
X127148600Y-121866937D01*
X127148600Y-122133063D01*
X127096682Y-122394072D01*
X126994842Y-122639937D01*
X126846991Y-122861211D01*
X126658811Y-123049391D01*
X126653770Y-123052759D01*
X126437539Y-123197241D01*
X126437538Y-123197242D01*
X126437537Y-123197242D01*
X126191672Y-123299082D01*
X125930663Y-123351000D01*
X125664537Y-123351000D01*
X125403528Y-123299082D01*
X125157663Y-123197242D01*
X125157662Y-123197242D01*
X125157661Y-123197241D01*
X124941430Y-123052759D01*
X124936389Y-123049391D01*
X124748209Y-122861211D01*
X124600358Y-122639937D01*
X124498518Y-122394072D01*
X124446600Y-122133063D01*
X124446600Y-121866937D01*
X124498518Y-121605928D01*
X124600358Y-121360063D01*
X124748209Y-121138789D01*
X124936389Y-120950609D01*
X125046272Y-120877187D01*
X125157661Y-120802759D01*
X125403528Y-120700918D01*
X125664537Y-120649000D01*
X125930663Y-120649000D01*
X126191672Y-120700918D01*
X126191672Y-120700918D01*
G37*
G36*
X131191672Y-120700918D02*
G01*
X131437539Y-120802759D01*
X131548928Y-120877187D01*
X131658811Y-120950609D01*
X131846991Y-121138789D01*
X131994842Y-121360063D01*
X132096682Y-121605928D01*
X132148600Y-121866937D01*
X132148600Y-122133063D01*
X132096682Y-122394072D01*
X131994842Y-122639937D01*
X131846991Y-122861211D01*
X131658811Y-123049391D01*
X131653770Y-123052759D01*
X131437539Y-123197241D01*
X131437538Y-123197242D01*
X131437537Y-123197242D01*
X131191672Y-123299082D01*
X130930663Y-123351000D01*
X130664537Y-123351000D01*
X130403528Y-123299082D01*
X130157663Y-123197242D01*
X130157662Y-123197242D01*
X130157661Y-123197241D01*
X129941430Y-123052759D01*
X129936389Y-123049391D01*
X129748209Y-122861211D01*
X129600358Y-122639937D01*
X129498518Y-122394072D01*
X129446600Y-122133063D01*
X129446600Y-121866937D01*
X129498518Y-121605928D01*
X129600358Y-121360063D01*
X129748209Y-121138789D01*
X129936389Y-120950609D01*
X130046272Y-120877187D01*
X130157661Y-120802759D01*
X130403528Y-120700918D01*
X130664537Y-120649000D01*
X130930663Y-120649000D01*
X131191672Y-120700918D01*
X131191672Y-120700918D01*
G37*
G36*
X136191672Y-120700918D02*
G01*
X136437539Y-120802759D01*
X136548928Y-120877187D01*
X136658811Y-120950609D01*
X136846991Y-121138789D01*
X136994842Y-121360063D01*
X137096682Y-121605928D01*
X137148600Y-121866937D01*
X137148600Y-122133063D01*
X137096682Y-122394072D01*
X136994842Y-122639937D01*
X136846991Y-122861211D01*
X136658811Y-123049391D01*
X136653770Y-123052759D01*
X136437539Y-123197241D01*
X136437538Y-123197242D01*
X136437537Y-123197242D01*
X136191672Y-123299082D01*
X135930663Y-123351000D01*
X135664537Y-123351000D01*
X135403528Y-123299082D01*
X135157663Y-123197242D01*
X135157662Y-123197242D01*
X135157661Y-123197241D01*
X134941430Y-123052759D01*
X134936389Y-123049391D01*
X134748209Y-122861211D01*
X134600358Y-122639937D01*
X134498518Y-122394072D01*
X134446600Y-122133063D01*
X134446600Y-121866937D01*
X134498518Y-121605928D01*
X134600358Y-121360063D01*
X134748209Y-121138789D01*
X134936389Y-120950609D01*
X135046272Y-120877187D01*
X135157661Y-120802759D01*
X135403528Y-120700918D01*
X135664537Y-120649000D01*
X135930663Y-120649000D01*
X136191672Y-120700918D01*
X136191672Y-120700918D01*
G37*
G36*
X141191672Y-120700918D02*
G01*
X141437539Y-120802759D01*
X141548928Y-120877187D01*
X141658811Y-120950609D01*
X141846991Y-121138789D01*
X141994842Y-121360063D01*
X142096682Y-121605928D01*
X142148600Y-121866937D01*
X142148600Y-122133063D01*
X142096682Y-122394072D01*
X141994842Y-122639937D01*
X141846991Y-122861211D01*
X141658811Y-123049391D01*
X141653770Y-123052759D01*
X141437539Y-123197241D01*
X141437538Y-123197242D01*
X141437537Y-123197242D01*
X141191672Y-123299082D01*
X140930663Y-123351000D01*
X140664537Y-123351000D01*
X140403528Y-123299082D01*
X140157663Y-123197242D01*
X140157662Y-123197242D01*
X140157661Y-123197241D01*
X139941430Y-123052759D01*
X139936389Y-123049391D01*
X139748209Y-122861211D01*
X139600358Y-122639937D01*
X139498518Y-122394072D01*
X139446600Y-122133063D01*
X139446600Y-121866937D01*
X139498518Y-121605928D01*
X139600358Y-121360063D01*
X139748209Y-121138789D01*
X139936389Y-120950609D01*
X140046272Y-120877187D01*
X140157661Y-120802759D01*
X140403528Y-120700918D01*
X140664537Y-120649000D01*
X140930663Y-120649000D01*
X141191672Y-120700918D01*
X141191672Y-120700918D01*
G37*
G36*
X146191672Y-120700918D02*
G01*
X146437539Y-120802759D01*
X146548928Y-120877187D01*
X146658811Y-120950609D01*
X146846991Y-121138789D01*
X146994842Y-121360063D01*
X147096682Y-121605928D01*
X147148600Y-121866937D01*
X147148600Y-122133063D01*
X147096682Y-122394072D01*
X146994842Y-122639937D01*
X146846991Y-122861211D01*
X146658811Y-123049391D01*
X146653770Y-123052759D01*
X146437539Y-123197241D01*
X146437538Y-123197242D01*
X146437537Y-123197242D01*
X146191672Y-123299082D01*
X145930663Y-123351000D01*
X145664537Y-123351000D01*
X145403528Y-123299082D01*
X145157663Y-123197242D01*
X145157662Y-123197242D01*
X145157661Y-123197241D01*
X144941430Y-123052759D01*
X144936389Y-123049391D01*
X144748209Y-122861211D01*
X144600358Y-122639937D01*
X144498518Y-122394072D01*
X144446600Y-122133063D01*
X144446600Y-121866937D01*
X144498518Y-121605928D01*
X144600358Y-121360063D01*
X144748209Y-121138789D01*
X144936389Y-120950609D01*
X145046272Y-120877187D01*
X145157661Y-120802759D01*
X145403528Y-120700918D01*
X145664537Y-120649000D01*
X145930663Y-120649000D01*
X146191672Y-120700918D01*
X146191672Y-120700918D01*
G37*
G36*
X85894072Y-117950918D02*
G01*
X86139939Y-118052759D01*
X86361212Y-118200610D01*
X86549390Y-118388788D01*
X86697241Y-118610061D01*
X86799082Y-118855928D01*
X86851000Y-119116938D01*
X86851000Y-119383062D01*
X86799082Y-119644072D01*
X86697241Y-119889939D01*
X86549390Y-120111212D01*
X86361212Y-120299390D01*
X86139939Y-120447241D01*
X86139938Y-120447242D01*
X86139937Y-120447242D01*
X85894072Y-120549082D01*
X85633063Y-120601000D01*
X85366937Y-120601000D01*
X85105928Y-120549082D01*
X84860063Y-120447242D01*
X84860062Y-120447242D01*
X84860061Y-120447241D01*
X84638788Y-120299390D01*
X84450610Y-120111212D01*
X84302759Y-119889939D01*
X84200918Y-119644072D01*
X84149000Y-119383062D01*
X84149000Y-119116938D01*
X84200918Y-118855928D01*
X84302759Y-118610061D01*
X84450610Y-118388788D01*
X84638788Y-118200610D01*
X84860061Y-118052759D01*
X85105928Y-117950918D01*
X85366937Y-117899000D01*
X85633063Y-117899000D01*
X85894072Y-117950918D01*
X85894072Y-117950918D01*
G37*
G36*
X162248228Y-117181703D02*
G01*
X162403100Y-117245853D01*
X162542481Y-117338985D01*
X162661015Y-117457519D01*
X162754147Y-117596900D01*
X162818297Y-117751772D01*
X162851000Y-117916184D01*
X162851000Y-118083816D01*
X162818297Y-118248228D01*
X162754147Y-118403100D01*
X162661015Y-118542481D01*
X162542481Y-118661015D01*
X162403100Y-118754147D01*
X162248228Y-118818297D01*
X162083816Y-118851000D01*
X161916184Y-118851000D01*
X161751772Y-118818297D01*
X161596900Y-118754147D01*
X161457519Y-118661015D01*
X161338985Y-118542481D01*
X161245853Y-118403100D01*
X161181703Y-118248228D01*
X161149000Y-118083816D01*
X161149000Y-117916184D01*
X161181703Y-117751772D01*
X161245853Y-117596900D01*
X161338985Y-117457519D01*
X161457519Y-117338985D01*
X161596900Y-117245853D01*
X161751772Y-117181703D01*
X161916184Y-117149000D01*
X162083816Y-117149000D01*
X162248228Y-117181703D01*
X162248228Y-117181703D01*
G37*
G36*
X164748228Y-117181703D02*
G01*
X164903100Y-117245853D01*
X165042481Y-117338985D01*
X165161015Y-117457519D01*
X165254147Y-117596900D01*
X165318297Y-117751772D01*
X165351000Y-117916184D01*
X165351000Y-118083816D01*
X165318297Y-118248228D01*
X165254147Y-118403100D01*
X165161015Y-118542481D01*
X165042481Y-118661015D01*
X164903100Y-118754147D01*
X164748228Y-118818297D01*
X164583816Y-118851000D01*
X164416184Y-118851000D01*
X164251772Y-118818297D01*
X164096900Y-118754147D01*
X163957519Y-118661015D01*
X163838985Y-118542481D01*
X163745853Y-118403100D01*
X163681703Y-118248228D01*
X163649000Y-118083816D01*
X163649000Y-117916184D01*
X163681703Y-117751772D01*
X163745853Y-117596900D01*
X163838985Y-117457519D01*
X163957519Y-117338985D01*
X164096900Y-117245853D01*
X164251772Y-117181703D01*
X164416184Y-117149000D01*
X164583816Y-117149000D01*
X164748228Y-117181703D01*
X164748228Y-117181703D01*
G37*
G36*
X85720694Y-112916431D02*
G01*
X85894072Y-112950918D01*
X86139939Y-113052759D01*
X86361212Y-113200610D01*
X86549390Y-113388788D01*
X86666418Y-113563931D01*
X86697242Y-113610063D01*
X86784337Y-113820331D01*
X86799082Y-113855928D01*
X86851000Y-114116938D01*
X86851000Y-114383062D01*
X86799082Y-114644072D01*
X86697241Y-114889939D01*
X86549390Y-115111212D01*
X86361212Y-115299390D01*
X86139939Y-115447241D01*
X86139938Y-115447242D01*
X86139937Y-115447242D01*
X85894072Y-115549082D01*
X85633063Y-115601000D01*
X85366937Y-115601000D01*
X85105928Y-115549082D01*
X84860063Y-115447242D01*
X84860062Y-115447242D01*
X84860061Y-115447241D01*
X84638788Y-115299390D01*
X84450610Y-115111212D01*
X84302759Y-114889939D01*
X84200918Y-114644072D01*
X84149000Y-114383062D01*
X84149000Y-114116938D01*
X84200918Y-113855928D01*
X84215663Y-113820331D01*
X84302758Y-113610063D01*
X84333583Y-113563931D01*
X84450610Y-113388788D01*
X84638788Y-113200610D01*
X84860061Y-113052759D01*
X85105928Y-112950918D01*
X85279306Y-112916431D01*
X85366937Y-112899000D01*
X85633063Y-112899000D01*
X85720694Y-112916431D01*
X85720694Y-112916431D01*
G37*
G36*
X164746768Y-112349711D02*
G01*
X164900729Y-112413484D01*
X164900731Y-112413485D01*
X165039293Y-112506069D01*
X165157131Y-112623907D01*
X165249716Y-112762471D01*
X165313489Y-112916432D01*
X165346000Y-113079875D01*
X165346000Y-113246525D01*
X165313489Y-113409968D01*
X165249716Y-113563929D01*
X165249715Y-113563931D01*
X165157131Y-113702493D01*
X165039293Y-113820331D01*
X164900731Y-113912915D01*
X164900730Y-113912916D01*
X164900729Y-113912916D01*
X164746768Y-113976689D01*
X164583325Y-114009200D01*
X164416675Y-114009200D01*
X164253232Y-113976689D01*
X164099271Y-113912916D01*
X164099270Y-113912916D01*
X164099269Y-113912915D01*
X163960707Y-113820331D01*
X163842869Y-113702493D01*
X163750285Y-113563931D01*
X163750284Y-113563929D01*
X163686511Y-113409968D01*
X163654000Y-113246525D01*
X163654000Y-113079875D01*
X163686511Y-112916432D01*
X163750284Y-112762471D01*
X163842869Y-112623907D01*
X163960707Y-112506069D01*
X164099269Y-112413485D01*
X164099271Y-112413484D01*
X164253232Y-112349711D01*
X164416675Y-112317200D01*
X164583325Y-112317200D01*
X164746768Y-112349711D01*
X164746768Y-112349711D01*
G37*
G36*
X150451000Y-113451000D02*
G01*
X148549000Y-113451000D01*
X148549000Y-111549000D01*
X150451000Y-111549000D01*
X150451000Y-113451000D01*
X150451000Y-113451000D01*
G37*
G36*
X164746768Y-109809711D02*
G01*
X164900729Y-109873484D01*
X164900731Y-109873485D01*
X164970482Y-109920091D01*
X165039293Y-109966069D01*
X165157131Y-110083907D01*
X165249716Y-110222471D01*
X165313489Y-110376432D01*
X165346000Y-110539875D01*
X165346000Y-110706525D01*
X165313489Y-110869968D01*
X165269951Y-110975078D01*
X165249715Y-111023931D01*
X165157131Y-111162493D01*
X165039293Y-111280331D01*
X164900731Y-111372915D01*
X164900730Y-111372916D01*
X164900729Y-111372916D01*
X164746768Y-111436689D01*
X164583325Y-111469200D01*
X164416675Y-111469200D01*
X164253232Y-111436689D01*
X164099271Y-111372916D01*
X164099270Y-111372916D01*
X164099269Y-111372915D01*
X163960707Y-111280331D01*
X163842869Y-111162493D01*
X163750285Y-111023931D01*
X163730049Y-110975078D01*
X163686511Y-110869968D01*
X163654000Y-110706525D01*
X163654000Y-110539875D01*
X163686511Y-110376432D01*
X163750284Y-110222471D01*
X163842869Y-110083907D01*
X163960707Y-109966069D01*
X164029518Y-109920091D01*
X164099269Y-109873485D01*
X164099271Y-109873484D01*
X164253232Y-109809711D01*
X164416675Y-109777200D01*
X164583325Y-109777200D01*
X164746768Y-109809711D01*
X164746768Y-109809711D01*
G37*
G36*
X134748228Y-109681703D02*
G01*
X134903100Y-109745853D01*
X135042481Y-109838985D01*
X135161015Y-109957519D01*
X135254147Y-110096900D01*
X135318297Y-110251772D01*
X135351000Y-110416184D01*
X135351000Y-110583816D01*
X135318297Y-110748228D01*
X135254147Y-110903100D01*
X135161015Y-111042481D01*
X135042481Y-111161015D01*
X134903100Y-111254147D01*
X134748228Y-111318297D01*
X134583816Y-111351000D01*
X134416184Y-111351000D01*
X134251772Y-111318297D01*
X134096900Y-111254147D01*
X133957519Y-111161015D01*
X133838985Y-111042481D01*
X133745853Y-110903100D01*
X133681703Y-110748228D01*
X133649000Y-110583816D01*
X133649000Y-110416184D01*
X133681703Y-110251772D01*
X133745853Y-110096900D01*
X133838985Y-109957519D01*
X133957519Y-109838985D01*
X134096900Y-109745853D01*
X134251772Y-109681703D01*
X134416184Y-109649000D01*
X134583816Y-109649000D01*
X134748228Y-109681703D01*
X134748228Y-109681703D01*
G37*
G36*
X144826823Y-109661313D02*
G01*
X144987242Y-109709976D01*
X145054361Y-109745852D01*
X145135078Y-109788996D01*
X145264659Y-109895341D01*
X145371004Y-110024922D01*
X145371005Y-110024924D01*
X145450024Y-110172758D01*
X145498687Y-110333177D01*
X145515117Y-110500000D01*
X145498687Y-110666823D01*
X145450024Y-110827242D01*
X145409477Y-110903100D01*
X145371004Y-110975078D01*
X145264659Y-111104659D01*
X145135078Y-111211004D01*
X145135076Y-111211005D01*
X144987242Y-111290024D01*
X144826823Y-111338687D01*
X144701804Y-111351000D01*
X144618196Y-111351000D01*
X144493177Y-111338687D01*
X144332758Y-111290024D01*
X144184924Y-111211005D01*
X144184922Y-111211004D01*
X144055341Y-111104659D01*
X143948996Y-110975078D01*
X143910523Y-110903100D01*
X143869976Y-110827242D01*
X143821313Y-110666823D01*
X143804883Y-110500000D01*
X143821313Y-110333177D01*
X143869976Y-110172758D01*
X143948995Y-110024924D01*
X143948996Y-110024922D01*
X144055341Y-109895341D01*
X144184922Y-109788996D01*
X144265639Y-109745852D01*
X144332758Y-109709976D01*
X144493177Y-109661313D01*
X144618196Y-109649000D01*
X144701804Y-109649000D01*
X144826823Y-109661313D01*
X144826823Y-109661313D01*
G37*
G36*
X98760326Y-107543907D02*
G01*
X99040092Y-107599556D01*
X99377061Y-107739133D01*
X99680326Y-107941768D01*
X99938232Y-108199674D01*
X100140867Y-108502939D01*
X100280444Y-108839908D01*
X100351600Y-109197633D01*
X100351600Y-109562367D01*
X100280444Y-109920092D01*
X100140867Y-110257061D01*
X99938232Y-110560326D01*
X99680326Y-110818232D01*
X99377061Y-111020867D01*
X99040092Y-111160444D01*
X98861229Y-111196022D01*
X98682368Y-111231600D01*
X98317632Y-111231600D01*
X98138771Y-111196022D01*
X97959908Y-111160444D01*
X97622939Y-111020867D01*
X97319674Y-110818232D01*
X97061768Y-110560326D01*
X96859133Y-110257061D01*
X96719556Y-109920092D01*
X96648400Y-109562367D01*
X96648400Y-109197633D01*
X96719556Y-108839908D01*
X96859133Y-108502939D01*
X97061768Y-108199674D01*
X97319674Y-107941768D01*
X97622939Y-107739133D01*
X97959908Y-107599556D01*
X98239674Y-107543907D01*
X98317632Y-107528400D01*
X98682368Y-107528400D01*
X98760326Y-107543907D01*
X98760326Y-107543907D01*
G37*
G36*
X149777395Y-109045546D02*
G01*
X149950466Y-109117234D01*
X149950467Y-109117235D01*
X150106227Y-109221310D01*
X150238690Y-109353773D01*
X150238691Y-109353775D01*
X150342766Y-109509534D01*
X150414454Y-109682605D01*
X150451000Y-109866333D01*
X150451000Y-110053667D01*
X150414454Y-110237395D01*
X150342766Y-110410466D01*
X150318194Y-110447241D01*
X150238690Y-110566227D01*
X150106227Y-110698690D01*
X150094501Y-110706525D01*
X149950466Y-110802766D01*
X149777395Y-110874454D01*
X149593667Y-110911000D01*
X149406333Y-110911000D01*
X149222605Y-110874454D01*
X149049534Y-110802766D01*
X148905499Y-110706525D01*
X148893773Y-110698690D01*
X148761310Y-110566227D01*
X148681806Y-110447241D01*
X148657234Y-110410466D01*
X148585546Y-110237395D01*
X148549000Y-110053667D01*
X148549000Y-109866333D01*
X148585546Y-109682605D01*
X148657234Y-109509534D01*
X148761309Y-109353775D01*
X148761310Y-109353773D01*
X148893773Y-109221310D01*
X149049533Y-109117235D01*
X149049534Y-109117234D01*
X149222605Y-109045546D01*
X149406333Y-109009000D01*
X149593667Y-109009000D01*
X149777395Y-109045546D01*
X149777395Y-109045546D01*
G37*
G36*
X85848072Y-107941768D02*
G01*
X85894072Y-107950918D01*
X86139939Y-108052759D01*
X86251328Y-108127187D01*
X86361211Y-108200609D01*
X86549391Y-108388789D01*
X86697242Y-108610063D01*
X86799082Y-108855928D01*
X86851000Y-109116937D01*
X86851000Y-109383063D01*
X86799082Y-109644072D01*
X86704057Y-109873485D01*
X86697241Y-109889939D01*
X86549390Y-110111212D01*
X86361212Y-110299390D01*
X86139939Y-110447241D01*
X86139938Y-110447242D01*
X86139937Y-110447242D01*
X85894072Y-110549082D01*
X85633063Y-110601000D01*
X85366937Y-110601000D01*
X85105928Y-110549082D01*
X84860063Y-110447242D01*
X84860062Y-110447242D01*
X84860061Y-110447241D01*
X84638788Y-110299390D01*
X84450610Y-110111212D01*
X84302759Y-109889939D01*
X84295944Y-109873485D01*
X84200918Y-109644072D01*
X84149000Y-109383063D01*
X84149000Y-109116937D01*
X84200918Y-108855928D01*
X84302758Y-108610063D01*
X84450609Y-108388789D01*
X84638789Y-108200609D01*
X84748672Y-108127187D01*
X84860061Y-108052759D01*
X85105928Y-107950918D01*
X85151928Y-107941768D01*
X85366937Y-107899000D01*
X85633063Y-107899000D01*
X85848072Y-107941768D01*
X85848072Y-107941768D01*
G37*
G36*
X164746768Y-107269711D02*
G01*
X164864064Y-107318297D01*
X164900731Y-107333485D01*
X164926944Y-107351000D01*
X165039293Y-107426069D01*
X165157131Y-107543907D01*
X165249716Y-107682471D01*
X165313489Y-107836432D01*
X165346000Y-107999875D01*
X165346000Y-108166525D01*
X165313489Y-108329968D01*
X165289124Y-108388789D01*
X165249715Y-108483931D01*
X165157131Y-108622493D01*
X165039293Y-108740331D01*
X164900731Y-108832915D01*
X164900730Y-108832916D01*
X164900729Y-108832916D01*
X164746768Y-108896689D01*
X164583325Y-108929200D01*
X164416675Y-108929200D01*
X164253232Y-108896689D01*
X164099271Y-108832916D01*
X164099270Y-108832916D01*
X164099269Y-108832915D01*
X163960707Y-108740331D01*
X163842869Y-108622493D01*
X163750285Y-108483931D01*
X163710876Y-108388789D01*
X163686511Y-108329968D01*
X163654000Y-108166525D01*
X163654000Y-107999875D01*
X163686511Y-107836432D01*
X163750284Y-107682471D01*
X163842869Y-107543907D01*
X163960707Y-107426069D01*
X164073056Y-107351000D01*
X164099269Y-107333485D01*
X164135936Y-107318297D01*
X164253232Y-107269711D01*
X164416675Y-107237200D01*
X164583325Y-107237200D01*
X164746768Y-107269711D01*
X164746768Y-107269711D01*
G37*
G36*
X143248228Y-105681703D02*
G01*
X143403100Y-105745853D01*
X143542481Y-105838985D01*
X143661015Y-105957519D01*
X143754147Y-106096900D01*
X143818297Y-106251772D01*
X143851000Y-106416184D01*
X143851000Y-106583816D01*
X143818297Y-106748228D01*
X143754147Y-106903100D01*
X143661015Y-107042481D01*
X143542481Y-107161015D01*
X143403100Y-107254147D01*
X143248228Y-107318297D01*
X143083816Y-107351000D01*
X142916184Y-107351000D01*
X142751772Y-107318297D01*
X142596900Y-107254147D01*
X142457519Y-107161015D01*
X142338985Y-107042481D01*
X142245853Y-106903100D01*
X142181703Y-106748228D01*
X142149000Y-106583816D01*
X142149000Y-106416184D01*
X142181703Y-106251772D01*
X142245853Y-106096900D01*
X142338985Y-105957519D01*
X142457519Y-105838985D01*
X142596900Y-105745853D01*
X142751772Y-105681703D01*
X142916184Y-105649000D01*
X143083816Y-105649000D01*
X143248228Y-105681703D01*
X143248228Y-105681703D01*
G37*
G36*
X136898228Y-105681703D02*
G01*
X137053100Y-105745853D01*
X137192481Y-105838985D01*
X137311015Y-105957519D01*
X137404147Y-106096900D01*
X137468297Y-106251772D01*
X137501000Y-106416184D01*
X137501000Y-106583816D01*
X137468297Y-106748228D01*
X137404147Y-106903100D01*
X137311015Y-107042481D01*
X137192481Y-107161015D01*
X137053100Y-107254147D01*
X136898228Y-107318297D01*
X136733816Y-107351000D01*
X136566184Y-107351000D01*
X136401772Y-107318297D01*
X136246900Y-107254147D01*
X136107519Y-107161015D01*
X135988985Y-107042481D01*
X135895853Y-106903100D01*
X135831703Y-106748228D01*
X135799000Y-106583816D01*
X135799000Y-106416184D01*
X135831703Y-106251772D01*
X135895853Y-106096900D01*
X135988985Y-105957519D01*
X136107519Y-105838985D01*
X136246900Y-105745853D01*
X136401772Y-105681703D01*
X136566184Y-105649000D01*
X136733816Y-105649000D01*
X136898228Y-105681703D01*
X136898228Y-105681703D01*
G37*
G36*
X119248228Y-104181703D02*
G01*
X119403100Y-104245853D01*
X119542481Y-104338985D01*
X119661015Y-104457519D01*
X119754147Y-104596900D01*
X119818297Y-104751772D01*
X119851000Y-104916184D01*
X119851000Y-105083816D01*
X119818297Y-105248228D01*
X119754147Y-105403100D01*
X119661015Y-105542481D01*
X119542481Y-105661015D01*
X119403100Y-105754147D01*
X119248228Y-105818297D01*
X119083816Y-105851000D01*
X118916184Y-105851000D01*
X118751772Y-105818297D01*
X118596900Y-105754147D01*
X118457519Y-105661015D01*
X118338985Y-105542481D01*
X118245853Y-105403100D01*
X118181703Y-105248228D01*
X118149000Y-105083816D01*
X118149000Y-104916184D01*
X118181703Y-104751772D01*
X118245853Y-104596900D01*
X118338985Y-104457519D01*
X118457519Y-104338985D01*
X118596900Y-104245853D01*
X118751772Y-104181703D01*
X118916184Y-104149000D01*
X119083816Y-104149000D01*
X119248228Y-104181703D01*
X119248228Y-104181703D01*
G37*
G36*
X121748228Y-104181703D02*
G01*
X121903100Y-104245853D01*
X122042481Y-104338985D01*
X122161015Y-104457519D01*
X122254147Y-104596900D01*
X122318297Y-104751772D01*
X122351000Y-104916184D01*
X122351000Y-105083816D01*
X122318297Y-105248228D01*
X122254147Y-105403100D01*
X122161015Y-105542481D01*
X122042481Y-105661015D01*
X121903100Y-105754147D01*
X121748228Y-105818297D01*
X121583816Y-105851000D01*
X121416184Y-105851000D01*
X121251772Y-105818297D01*
X121096900Y-105754147D01*
X120957519Y-105661015D01*
X120838985Y-105542481D01*
X120745853Y-105403100D01*
X120681703Y-105248228D01*
X120649000Y-105083816D01*
X120649000Y-104916184D01*
X120681703Y-104751772D01*
X120745853Y-104596900D01*
X120838985Y-104457519D01*
X120957519Y-104338985D01*
X121096900Y-104245853D01*
X121251772Y-104181703D01*
X121416184Y-104149000D01*
X121583816Y-104149000D01*
X121748228Y-104181703D01*
X121748228Y-104181703D01*
G37*
G36*
X85894072Y-102950918D02*
G01*
X86135693Y-103051000D01*
X86139939Y-103052759D01*
X86251328Y-103127187D01*
X86361211Y-103200609D01*
X86549391Y-103388789D01*
X86697242Y-103610063D01*
X86799082Y-103855928D01*
X86851000Y-104116937D01*
X86851000Y-104383063D01*
X86799082Y-104644072D01*
X86697241Y-104889939D01*
X86549390Y-105111212D01*
X86361212Y-105299390D01*
X86139939Y-105447241D01*
X86139938Y-105447242D01*
X86139937Y-105447242D01*
X85894072Y-105549082D01*
X85633063Y-105601000D01*
X85366937Y-105601000D01*
X85105928Y-105549082D01*
X84860063Y-105447242D01*
X84860062Y-105447242D01*
X84860061Y-105447241D01*
X84638788Y-105299390D01*
X84450610Y-105111212D01*
X84302759Y-104889939D01*
X84200918Y-104644072D01*
X84149000Y-104383063D01*
X84149000Y-104116937D01*
X84200918Y-103855928D01*
X84302758Y-103610063D01*
X84450609Y-103388789D01*
X84638789Y-103200609D01*
X84748672Y-103127187D01*
X84860061Y-103052759D01*
X84864308Y-103051000D01*
X85105928Y-102950918D01*
X85366937Y-102899000D01*
X85633063Y-102899000D01*
X85894072Y-102950918D01*
X85894072Y-102950918D01*
G37*
G36*
X130901000Y-105591000D02*
G01*
X129099000Y-105591000D01*
X129099000Y-103789000D01*
X130901000Y-103789000D01*
X130901000Y-105591000D01*
X130901000Y-105591000D01*
G37*
G36*
X153301563Y-101989389D02*
G01*
X153492832Y-102068615D01*
X153492834Y-102068616D01*
X153613137Y-102149000D01*
X153664972Y-102183635D01*
X153811364Y-102330027D01*
X153926384Y-102502167D01*
X154005610Y-102693436D01*
X154045999Y-102896484D01*
X154045999Y-103103516D01*
X154005610Y-103306564D01*
X153926384Y-103497833D01*
X153926383Y-103497835D01*
X153811364Y-103669973D01*
X153664972Y-103816365D01*
X153492834Y-103931384D01*
X153492833Y-103931385D01*
X153492832Y-103931385D01*
X153301563Y-104010611D01*
X153098515Y-104051000D01*
X152891483Y-104051000D01*
X152688435Y-104010611D01*
X152497166Y-103931385D01*
X152497165Y-103931385D01*
X152497164Y-103931384D01*
X152325026Y-103816365D01*
X152178634Y-103669973D01*
X152063615Y-103497835D01*
X152063614Y-103497833D01*
X151984388Y-103306564D01*
X151943999Y-103103516D01*
X151943999Y-102896484D01*
X151984388Y-102693436D01*
X152063614Y-102502167D01*
X152178634Y-102330027D01*
X152325026Y-102183635D01*
X152376861Y-102149000D01*
X152497164Y-102068616D01*
X152497166Y-102068615D01*
X152688435Y-101989389D01*
X152891483Y-101949000D01*
X153098515Y-101949000D01*
X153301563Y-101989389D01*
X153301563Y-101989389D01*
G37*
G36*
X162248228Y-102181703D02*
G01*
X162403100Y-102245853D01*
X162542481Y-102338985D01*
X162661015Y-102457519D01*
X162754147Y-102596900D01*
X162818297Y-102751772D01*
X162851000Y-102916184D01*
X162851000Y-103083816D01*
X162818297Y-103248228D01*
X162754147Y-103403100D01*
X162661015Y-103542481D01*
X162542481Y-103661015D01*
X162403100Y-103754147D01*
X162248228Y-103818297D01*
X162083816Y-103851000D01*
X161916184Y-103851000D01*
X161751772Y-103818297D01*
X161596900Y-103754147D01*
X161457519Y-103661015D01*
X161338985Y-103542481D01*
X161245853Y-103403100D01*
X161181703Y-103248228D01*
X161149000Y-103083816D01*
X161149000Y-102916184D01*
X161181703Y-102751772D01*
X161245853Y-102596900D01*
X161338985Y-102457519D01*
X161457519Y-102338985D01*
X161596900Y-102245853D01*
X161751772Y-102181703D01*
X161916184Y-102149000D01*
X162083816Y-102149000D01*
X162248228Y-102181703D01*
X162248228Y-102181703D01*
G37*
G36*
X164748228Y-102181703D02*
G01*
X164903100Y-102245853D01*
X165042481Y-102338985D01*
X165161015Y-102457519D01*
X165254147Y-102596900D01*
X165318297Y-102751772D01*
X165351000Y-102916184D01*
X165351000Y-103083816D01*
X165318297Y-103248228D01*
X165254147Y-103403100D01*
X165161015Y-103542481D01*
X165042481Y-103661015D01*
X164903100Y-103754147D01*
X164748228Y-103818297D01*
X164583816Y-103851000D01*
X164416184Y-103851000D01*
X164251772Y-103818297D01*
X164096900Y-103754147D01*
X163957519Y-103661015D01*
X163838985Y-103542481D01*
X163745853Y-103403100D01*
X163681703Y-103248228D01*
X163649000Y-103083816D01*
X163649000Y-102916184D01*
X163681703Y-102751772D01*
X163745853Y-102596900D01*
X163838985Y-102457519D01*
X163957519Y-102338985D01*
X164096900Y-102245853D01*
X164251772Y-102181703D01*
X164416184Y-102149000D01*
X164583816Y-102149000D01*
X164748228Y-102181703D01*
X164748228Y-102181703D01*
G37*
G36*
X130110442Y-101255518D02*
G01*
X130176627Y-101262037D01*
X130346466Y-101313557D01*
X130502991Y-101397222D01*
X130538729Y-101426552D01*
X130640186Y-101509814D01*
X130723448Y-101611271D01*
X130752778Y-101647009D01*
X130836443Y-101803534D01*
X130887963Y-101973373D01*
X130905359Y-102150000D01*
X130887963Y-102326627D01*
X130836443Y-102496466D01*
X130752778Y-102652991D01*
X130723448Y-102688729D01*
X130640186Y-102790186D01*
X130538729Y-102873448D01*
X130502991Y-102902778D01*
X130346466Y-102986443D01*
X130176627Y-103037963D01*
X130110442Y-103044482D01*
X130044260Y-103051000D01*
X129955740Y-103051000D01*
X129889558Y-103044482D01*
X129823373Y-103037963D01*
X129653534Y-102986443D01*
X129497009Y-102902778D01*
X129461271Y-102873448D01*
X129359814Y-102790186D01*
X129276552Y-102688729D01*
X129247222Y-102652991D01*
X129163557Y-102496466D01*
X129112037Y-102326627D01*
X129094641Y-102150000D01*
X129112037Y-101973373D01*
X129163557Y-101803534D01*
X129247222Y-101647009D01*
X129276552Y-101611271D01*
X129359814Y-101509814D01*
X129461271Y-101426552D01*
X129497009Y-101397222D01*
X129653534Y-101313557D01*
X129823373Y-101262037D01*
X129889557Y-101255519D01*
X129955740Y-101249000D01*
X130044260Y-101249000D01*
X130110442Y-101255518D01*
X130110442Y-101255518D01*
G37*
G36*
X85894072Y-97950918D02*
G01*
X85942555Y-97971000D01*
X86139939Y-98052759D01*
X86251328Y-98127187D01*
X86361211Y-98200609D01*
X86549391Y-98388789D01*
X86697242Y-98610063D01*
X86799082Y-98855928D01*
X86849026Y-99107011D01*
X86851000Y-99116938D01*
X86851000Y-99383062D01*
X86799082Y-99644072D01*
X86697241Y-99889939D01*
X86549390Y-100111212D01*
X86361212Y-100299390D01*
X86139939Y-100447241D01*
X86139938Y-100447242D01*
X86139937Y-100447242D01*
X85894072Y-100549082D01*
X85633063Y-100601000D01*
X85366937Y-100601000D01*
X85105928Y-100549082D01*
X84860063Y-100447242D01*
X84860062Y-100447242D01*
X84860061Y-100447241D01*
X84638788Y-100299390D01*
X84450610Y-100111212D01*
X84302759Y-99889939D01*
X84200918Y-99644072D01*
X84149000Y-99383062D01*
X84149000Y-99116938D01*
X84150975Y-99107011D01*
X84200918Y-98855928D01*
X84302758Y-98610063D01*
X84450609Y-98388789D01*
X84638789Y-98200609D01*
X84748672Y-98127187D01*
X84860061Y-98052759D01*
X85057446Y-97971000D01*
X85105928Y-97950918D01*
X85366937Y-97899000D01*
X85633063Y-97899000D01*
X85894072Y-97950918D01*
X85894072Y-97950918D01*
G37*
G36*
X130110443Y-98715519D02*
G01*
X130176627Y-98722037D01*
X130346466Y-98773557D01*
X130502991Y-98857222D01*
X130538729Y-98886552D01*
X130640186Y-98969814D01*
X130723448Y-99071271D01*
X130752778Y-99107009D01*
X130836443Y-99263534D01*
X130887963Y-99433373D01*
X130905359Y-99610000D01*
X130887963Y-99786627D01*
X130836443Y-99956466D01*
X130752778Y-100112991D01*
X130723448Y-100148729D01*
X130640186Y-100250186D01*
X130538729Y-100333448D01*
X130502991Y-100362778D01*
X130346466Y-100446443D01*
X130176627Y-100497963D01*
X130110442Y-100504482D01*
X130044260Y-100511000D01*
X129955740Y-100511000D01*
X129889557Y-100504481D01*
X129823373Y-100497963D01*
X129653534Y-100446443D01*
X129497009Y-100362778D01*
X129461271Y-100333448D01*
X129359814Y-100250186D01*
X129276552Y-100148729D01*
X129247222Y-100112991D01*
X129163557Y-99956466D01*
X129112037Y-99786627D01*
X129094641Y-99610000D01*
X129112037Y-99433373D01*
X129163557Y-99263534D01*
X129247222Y-99107009D01*
X129276552Y-99071271D01*
X129359814Y-98969814D01*
X129461271Y-98886552D01*
X129497009Y-98857222D01*
X129653534Y-98773557D01*
X129823373Y-98722037D01*
X129889557Y-98715519D01*
X129955740Y-98709000D01*
X130044260Y-98709000D01*
X130110443Y-98715519D01*
X130110443Y-98715519D01*
G37*
G36*
X154045999Y-99051000D02*
G01*
X151943999Y-99051000D01*
X151943999Y-96949000D01*
X154045999Y-96949000D01*
X154045999Y-99051000D01*
X154045999Y-99051000D01*
G37*
G36*
X130110443Y-96175519D02*
G01*
X130176627Y-96182037D01*
X130346466Y-96233557D01*
X130502991Y-96317222D01*
X130529509Y-96338985D01*
X130640186Y-96429814D01*
X130703386Y-96506825D01*
X130752778Y-96567009D01*
X130836443Y-96723534D01*
X130887963Y-96893373D01*
X130905359Y-97070000D01*
X130887963Y-97246627D01*
X130836443Y-97416466D01*
X130752778Y-97572991D01*
X130723448Y-97608729D01*
X130640186Y-97710186D01*
X130538729Y-97793448D01*
X130502991Y-97822778D01*
X130346466Y-97906443D01*
X130176627Y-97957963D01*
X130110443Y-97964481D01*
X130044260Y-97971000D01*
X129955740Y-97971000D01*
X129889557Y-97964481D01*
X129823373Y-97957963D01*
X129653534Y-97906443D01*
X129497009Y-97822778D01*
X129461271Y-97793448D01*
X129359814Y-97710186D01*
X129276552Y-97608729D01*
X129247222Y-97572991D01*
X129163557Y-97416466D01*
X129112037Y-97246627D01*
X129094641Y-97070000D01*
X129112037Y-96893373D01*
X129163557Y-96723534D01*
X129247222Y-96567009D01*
X129296614Y-96506825D01*
X129359814Y-96429814D01*
X129470491Y-96338985D01*
X129497009Y-96317222D01*
X129653534Y-96233557D01*
X129823373Y-96182037D01*
X129889557Y-96175519D01*
X129955740Y-96169000D01*
X130044260Y-96169000D01*
X130110443Y-96175519D01*
X130110443Y-96175519D01*
G37*
G36*
X116357112Y-96153327D02*
G01*
X116506412Y-96183024D01*
X116670384Y-96250944D01*
X116817954Y-96349547D01*
X116943453Y-96475046D01*
X117042056Y-96622616D01*
X117109976Y-96786588D01*
X117135754Y-96916185D01*
X117141418Y-96944659D01*
X117144600Y-96960659D01*
X117144600Y-97138141D01*
X117109976Y-97312212D01*
X117042056Y-97476184D01*
X116943453Y-97623754D01*
X116817954Y-97749253D01*
X116670384Y-97847856D01*
X116506412Y-97915776D01*
X116357112Y-97945473D01*
X116332342Y-97950400D01*
X116154858Y-97950400D01*
X116130088Y-97945473D01*
X115980788Y-97915776D01*
X115816816Y-97847856D01*
X115669246Y-97749253D01*
X115543747Y-97623754D01*
X115445144Y-97476184D01*
X115377224Y-97312212D01*
X115342600Y-97138141D01*
X115342600Y-96960659D01*
X115345783Y-96944659D01*
X115351446Y-96916185D01*
X115377224Y-96786588D01*
X115445144Y-96622616D01*
X115543747Y-96475046D01*
X115669246Y-96349547D01*
X115816816Y-96250944D01*
X115980788Y-96183024D01*
X116130088Y-96153327D01*
X116154858Y-96148400D01*
X116332342Y-96148400D01*
X116357112Y-96153327D01*
X116357112Y-96153327D01*
G37*
G36*
X121437112Y-96153327D02*
G01*
X121586412Y-96183024D01*
X121750384Y-96250944D01*
X121897954Y-96349547D01*
X122023453Y-96475046D01*
X122122056Y-96622616D01*
X122189976Y-96786588D01*
X122215754Y-96916185D01*
X122221418Y-96944659D01*
X122224600Y-96960659D01*
X122224600Y-97138141D01*
X122189976Y-97312212D01*
X122122056Y-97476184D01*
X122023453Y-97623754D01*
X121897954Y-97749253D01*
X121750384Y-97847856D01*
X121586412Y-97915776D01*
X121437112Y-97945473D01*
X121412342Y-97950400D01*
X121234858Y-97950400D01*
X121210088Y-97945473D01*
X121060788Y-97915776D01*
X120896816Y-97847856D01*
X120749246Y-97749253D01*
X120623747Y-97623754D01*
X120525144Y-97476184D01*
X120457224Y-97312212D01*
X120422600Y-97138141D01*
X120422600Y-96960659D01*
X120425783Y-96944659D01*
X120431446Y-96916185D01*
X120457224Y-96786588D01*
X120525144Y-96622616D01*
X120623747Y-96475046D01*
X120749246Y-96349547D01*
X120896816Y-96250944D01*
X121060788Y-96183024D01*
X121210088Y-96153327D01*
X121234858Y-96148400D01*
X121412342Y-96148400D01*
X121437112Y-96153327D01*
X121437112Y-96153327D01*
G37*
G36*
X118897112Y-96153327D02*
G01*
X119046412Y-96183024D01*
X119210384Y-96250944D01*
X119357954Y-96349547D01*
X119483453Y-96475046D01*
X119582056Y-96622616D01*
X119649976Y-96786588D01*
X119675754Y-96916185D01*
X119681418Y-96944659D01*
X119684600Y-96960659D01*
X119684600Y-97138141D01*
X119649976Y-97312212D01*
X119582056Y-97476184D01*
X119483453Y-97623754D01*
X119357954Y-97749253D01*
X119210384Y-97847856D01*
X119046412Y-97915776D01*
X118897112Y-97945473D01*
X118872342Y-97950400D01*
X118694858Y-97950400D01*
X118670088Y-97945473D01*
X118520788Y-97915776D01*
X118356816Y-97847856D01*
X118209246Y-97749253D01*
X118083747Y-97623754D01*
X117985144Y-97476184D01*
X117917224Y-97312212D01*
X117882600Y-97138141D01*
X117882600Y-96960659D01*
X117885783Y-96944659D01*
X117891446Y-96916185D01*
X117917224Y-96786588D01*
X117985144Y-96622616D01*
X118083747Y-96475046D01*
X118209246Y-96349547D01*
X118356816Y-96250944D01*
X118520788Y-96183024D01*
X118670088Y-96153327D01*
X118694858Y-96148400D01*
X118872342Y-96148400D01*
X118897112Y-96153327D01*
X118897112Y-96153327D01*
G37*
G36*
X113817112Y-96153327D02*
G01*
X113966412Y-96183024D01*
X114130384Y-96250944D01*
X114277954Y-96349547D01*
X114403453Y-96475046D01*
X114502056Y-96622616D01*
X114569976Y-96786588D01*
X114595754Y-96916185D01*
X114601418Y-96944659D01*
X114604600Y-96960659D01*
X114604600Y-97138141D01*
X114569976Y-97312212D01*
X114502056Y-97476184D01*
X114403453Y-97623754D01*
X114277954Y-97749253D01*
X114130384Y-97847856D01*
X113966412Y-97915776D01*
X113817112Y-97945473D01*
X113792342Y-97950400D01*
X113614858Y-97950400D01*
X113590088Y-97945473D01*
X113440788Y-97915776D01*
X113276816Y-97847856D01*
X113129246Y-97749253D01*
X113003747Y-97623754D01*
X112905144Y-97476184D01*
X112837224Y-97312212D01*
X112802600Y-97138141D01*
X112802600Y-96960659D01*
X112805783Y-96944659D01*
X112811446Y-96916185D01*
X112837224Y-96786588D01*
X112905144Y-96622616D01*
X113003747Y-96475046D01*
X113129246Y-96349547D01*
X113276816Y-96250944D01*
X113440788Y-96183024D01*
X113590088Y-96153327D01*
X113614858Y-96148400D01*
X113792342Y-96148400D01*
X113817112Y-96153327D01*
X113817112Y-96153327D01*
G37*
G36*
X111277112Y-96153327D02*
G01*
X111426412Y-96183024D01*
X111590384Y-96250944D01*
X111737954Y-96349547D01*
X111863453Y-96475046D01*
X111962056Y-96622616D01*
X112029976Y-96786588D01*
X112055754Y-96916185D01*
X112061418Y-96944659D01*
X112064600Y-96960659D01*
X112064600Y-97138141D01*
X112029976Y-97312212D01*
X111962056Y-97476184D01*
X111863453Y-97623754D01*
X111737954Y-97749253D01*
X111590384Y-97847856D01*
X111426412Y-97915776D01*
X111277112Y-97945473D01*
X111252342Y-97950400D01*
X111074858Y-97950400D01*
X111050088Y-97945473D01*
X110900788Y-97915776D01*
X110736816Y-97847856D01*
X110589246Y-97749253D01*
X110463747Y-97623754D01*
X110365144Y-97476184D01*
X110297224Y-97312212D01*
X110262600Y-97138141D01*
X110262600Y-96960659D01*
X110265783Y-96944659D01*
X110271446Y-96916185D01*
X110297224Y-96786588D01*
X110365144Y-96622616D01*
X110463747Y-96475046D01*
X110589246Y-96349547D01*
X110736816Y-96250944D01*
X110900788Y-96183024D01*
X111050088Y-96153327D01*
X111074858Y-96148400D01*
X111252342Y-96148400D01*
X111277112Y-96153327D01*
X111277112Y-96153327D01*
G37*
G36*
X106197112Y-96153327D02*
G01*
X106346412Y-96183024D01*
X106510384Y-96250944D01*
X106657954Y-96349547D01*
X106783453Y-96475046D01*
X106882056Y-96622616D01*
X106949976Y-96786588D01*
X106975754Y-96916185D01*
X106981418Y-96944659D01*
X106984600Y-96960659D01*
X106984600Y-97138141D01*
X106949976Y-97312212D01*
X106882056Y-97476184D01*
X106783453Y-97623754D01*
X106657954Y-97749253D01*
X106510384Y-97847856D01*
X106346412Y-97915776D01*
X106197112Y-97945473D01*
X106172342Y-97950400D01*
X105994858Y-97950400D01*
X105970088Y-97945473D01*
X105820788Y-97915776D01*
X105656816Y-97847856D01*
X105509246Y-97749253D01*
X105383747Y-97623754D01*
X105285144Y-97476184D01*
X105217224Y-97312212D01*
X105182600Y-97138141D01*
X105182600Y-96960659D01*
X105185783Y-96944659D01*
X105191446Y-96916185D01*
X105217224Y-96786588D01*
X105285144Y-96622616D01*
X105383747Y-96475046D01*
X105509246Y-96349547D01*
X105656816Y-96250944D01*
X105820788Y-96183024D01*
X105970088Y-96153327D01*
X105994858Y-96148400D01*
X106172342Y-96148400D01*
X106197112Y-96153327D01*
X106197112Y-96153327D01*
G37*
G36*
X103657112Y-96153327D02*
G01*
X103806412Y-96183024D01*
X103970384Y-96250944D01*
X104117954Y-96349547D01*
X104243453Y-96475046D01*
X104342056Y-96622616D01*
X104409976Y-96786588D01*
X104435754Y-96916185D01*
X104441418Y-96944659D01*
X104444600Y-96960659D01*
X104444600Y-97138141D01*
X104409976Y-97312212D01*
X104342056Y-97476184D01*
X104243453Y-97623754D01*
X104117954Y-97749253D01*
X103970384Y-97847856D01*
X103806412Y-97915776D01*
X103657112Y-97945473D01*
X103632342Y-97950400D01*
X103454858Y-97950400D01*
X103430088Y-97945473D01*
X103280788Y-97915776D01*
X103116816Y-97847856D01*
X102969246Y-97749253D01*
X102843747Y-97623754D01*
X102745144Y-97476184D01*
X102677224Y-97312212D01*
X102642600Y-97138141D01*
X102642600Y-96960659D01*
X102645783Y-96944659D01*
X102651446Y-96916185D01*
X102677224Y-96786588D01*
X102745144Y-96622616D01*
X102843747Y-96475046D01*
X102969246Y-96349547D01*
X103116816Y-96250944D01*
X103280788Y-96183024D01*
X103430088Y-96153327D01*
X103454858Y-96148400D01*
X103632342Y-96148400D01*
X103657112Y-96153327D01*
X103657112Y-96153327D01*
G37*
G36*
X101117112Y-96153327D02*
G01*
X101266412Y-96183024D01*
X101430384Y-96250944D01*
X101577954Y-96349547D01*
X101703453Y-96475046D01*
X101802056Y-96622616D01*
X101869976Y-96786588D01*
X101895754Y-96916185D01*
X101901418Y-96944659D01*
X101904600Y-96960659D01*
X101904600Y-97138141D01*
X101869976Y-97312212D01*
X101802056Y-97476184D01*
X101703453Y-97623754D01*
X101577954Y-97749253D01*
X101430384Y-97847856D01*
X101266412Y-97915776D01*
X101117112Y-97945473D01*
X101092342Y-97950400D01*
X100914858Y-97950400D01*
X100890088Y-97945473D01*
X100740788Y-97915776D01*
X100576816Y-97847856D01*
X100429246Y-97749253D01*
X100303747Y-97623754D01*
X100205144Y-97476184D01*
X100137224Y-97312212D01*
X100102600Y-97138141D01*
X100102600Y-96960659D01*
X100105783Y-96944659D01*
X100111446Y-96916185D01*
X100137224Y-96786588D01*
X100205144Y-96622616D01*
X100303747Y-96475046D01*
X100429246Y-96349547D01*
X100576816Y-96250944D01*
X100740788Y-96183024D01*
X100890088Y-96153327D01*
X100914858Y-96148400D01*
X101092342Y-96148400D01*
X101117112Y-96153327D01*
X101117112Y-96153327D01*
G37*
G36*
X98577112Y-96153327D02*
G01*
X98726412Y-96183024D01*
X98890384Y-96250944D01*
X99037954Y-96349547D01*
X99163453Y-96475046D01*
X99262056Y-96622616D01*
X99329976Y-96786588D01*
X99355754Y-96916185D01*
X99361418Y-96944659D01*
X99364600Y-96960659D01*
X99364600Y-97138141D01*
X99329976Y-97312212D01*
X99262056Y-97476184D01*
X99163453Y-97623754D01*
X99037954Y-97749253D01*
X98890384Y-97847856D01*
X98726412Y-97915776D01*
X98577112Y-97945473D01*
X98552342Y-97950400D01*
X98374858Y-97950400D01*
X98350088Y-97945473D01*
X98200788Y-97915776D01*
X98036816Y-97847856D01*
X97889246Y-97749253D01*
X97763747Y-97623754D01*
X97665144Y-97476184D01*
X97597224Y-97312212D01*
X97562600Y-97138141D01*
X97562600Y-96960659D01*
X97565783Y-96944659D01*
X97571446Y-96916185D01*
X97597224Y-96786588D01*
X97665144Y-96622616D01*
X97763747Y-96475046D01*
X97889246Y-96349547D01*
X98036816Y-96250944D01*
X98200788Y-96183024D01*
X98350088Y-96153327D01*
X98374858Y-96148400D01*
X98552342Y-96148400D01*
X98577112Y-96153327D01*
X98577112Y-96153327D01*
G37*
G36*
X108737112Y-96153327D02*
G01*
X108886412Y-96183024D01*
X109050384Y-96250944D01*
X109197954Y-96349547D01*
X109323453Y-96475046D01*
X109422056Y-96622616D01*
X109489976Y-96786588D01*
X109515754Y-96916185D01*
X109521418Y-96944659D01*
X109524600Y-96960659D01*
X109524600Y-97138141D01*
X109489976Y-97312212D01*
X109422056Y-97476184D01*
X109323453Y-97623754D01*
X109197954Y-97749253D01*
X109050384Y-97847856D01*
X108886412Y-97915776D01*
X108737112Y-97945473D01*
X108712342Y-97950400D01*
X108534858Y-97950400D01*
X108510088Y-97945473D01*
X108360788Y-97915776D01*
X108196816Y-97847856D01*
X108049246Y-97749253D01*
X107923747Y-97623754D01*
X107825144Y-97476184D01*
X107757224Y-97312212D01*
X107722600Y-97138141D01*
X107722600Y-96960659D01*
X107725783Y-96944659D01*
X107731446Y-96916185D01*
X107757224Y-96786588D01*
X107825144Y-96622616D01*
X107923747Y-96475046D01*
X108049246Y-96349547D01*
X108196816Y-96250944D01*
X108360788Y-96183024D01*
X108510088Y-96153327D01*
X108534858Y-96148400D01*
X108712342Y-96148400D01*
X108737112Y-96153327D01*
X108737112Y-96153327D01*
G37*
G36*
X161748228Y-96181703D02*
G01*
X161903100Y-96245853D01*
X162042481Y-96338985D01*
X162161015Y-96457519D01*
X162254147Y-96596900D01*
X162318297Y-96751772D01*
X162351000Y-96916184D01*
X162351000Y-97083816D01*
X162318297Y-97248228D01*
X162254147Y-97403100D01*
X162161015Y-97542481D01*
X162042481Y-97661015D01*
X161903100Y-97754147D01*
X161748228Y-97818297D01*
X161583816Y-97851000D01*
X161416184Y-97851000D01*
X161251772Y-97818297D01*
X161096900Y-97754147D01*
X160957519Y-97661015D01*
X160838985Y-97542481D01*
X160745853Y-97403100D01*
X160681703Y-97248228D01*
X160649000Y-97083816D01*
X160649000Y-96916184D01*
X160681703Y-96751772D01*
X160745853Y-96596900D01*
X160838985Y-96457519D01*
X160957519Y-96338985D01*
X161096900Y-96245853D01*
X161251772Y-96181703D01*
X161416184Y-96149000D01*
X161583816Y-96149000D01*
X161748228Y-96181703D01*
X161748228Y-96181703D01*
G37*
G36*
X164248228Y-96181703D02*
G01*
X164403100Y-96245853D01*
X164542481Y-96338985D01*
X164661015Y-96457519D01*
X164754147Y-96596900D01*
X164818297Y-96751772D01*
X164851000Y-96916184D01*
X164851000Y-97083816D01*
X164818297Y-97248228D01*
X164754147Y-97403100D01*
X164661015Y-97542481D01*
X164542481Y-97661015D01*
X164403100Y-97754147D01*
X164248228Y-97818297D01*
X164083816Y-97851000D01*
X163916184Y-97851000D01*
X163751772Y-97818297D01*
X163596900Y-97754147D01*
X163457519Y-97661015D01*
X163338985Y-97542481D01*
X163245853Y-97403100D01*
X163181703Y-97248228D01*
X163149000Y-97083816D01*
X163149000Y-96916184D01*
X163181703Y-96751772D01*
X163245853Y-96596900D01*
X163338985Y-96457519D01*
X163457519Y-96338985D01*
X163596900Y-96245853D01*
X163751772Y-96181703D01*
X163916184Y-96149000D01*
X164083816Y-96149000D01*
X164248228Y-96181703D01*
X164248228Y-96181703D01*
G37*
G36*
X143166823Y-95501313D02*
G01*
X143327242Y-95549976D01*
X143422701Y-95601000D01*
X143475078Y-95628996D01*
X143604659Y-95735341D01*
X143711004Y-95864922D01*
X143711005Y-95864924D01*
X143790024Y-96012758D01*
X143838687Y-96173177D01*
X143855117Y-96340000D01*
X143838687Y-96506823D01*
X143790024Y-96667242D01*
X143759936Y-96723532D01*
X143711004Y-96815078D01*
X143604659Y-96944659D01*
X143475078Y-97051004D01*
X143475076Y-97051005D01*
X143327242Y-97130024D01*
X143166823Y-97178687D01*
X143041804Y-97191000D01*
X142958196Y-97191000D01*
X142833177Y-97178687D01*
X142672758Y-97130024D01*
X142524924Y-97051005D01*
X142524922Y-97051004D01*
X142395341Y-96944659D01*
X142288996Y-96815078D01*
X142240064Y-96723532D01*
X142209976Y-96667242D01*
X142161313Y-96506823D01*
X142144883Y-96340000D01*
X142161313Y-96173177D01*
X142209976Y-96012758D01*
X142288995Y-95864924D01*
X142288996Y-95864922D01*
X142395341Y-95735341D01*
X142524922Y-95628996D01*
X142577299Y-95601000D01*
X142672758Y-95549976D01*
X142833177Y-95501313D01*
X142958196Y-95489000D01*
X143041804Y-95489000D01*
X143166823Y-95501313D01*
X143166823Y-95501313D01*
G37*
G36*
X136816823Y-95501313D02*
G01*
X136977242Y-95549976D01*
X137072701Y-95601000D01*
X137125078Y-95628996D01*
X137254659Y-95735341D01*
X137361004Y-95864922D01*
X137361005Y-95864924D01*
X137440024Y-96012758D01*
X137488687Y-96173177D01*
X137505117Y-96340000D01*
X137488687Y-96506823D01*
X137440024Y-96667242D01*
X137409936Y-96723532D01*
X137361004Y-96815078D01*
X137254659Y-96944659D01*
X137125078Y-97051004D01*
X137125076Y-97051005D01*
X136977242Y-97130024D01*
X136816823Y-97178687D01*
X136691804Y-97191000D01*
X136608196Y-97191000D01*
X136483177Y-97178687D01*
X136322758Y-97130024D01*
X136174924Y-97051005D01*
X136174922Y-97051004D01*
X136045341Y-96944659D01*
X135938996Y-96815078D01*
X135890064Y-96723532D01*
X135859976Y-96667242D01*
X135811313Y-96506823D01*
X135794883Y-96340000D01*
X135811313Y-96173177D01*
X135859976Y-96012758D01*
X135938995Y-95864924D01*
X135938996Y-95864922D01*
X136045341Y-95735341D01*
X136174922Y-95628996D01*
X136227299Y-95601000D01*
X136322758Y-95549976D01*
X136483177Y-95501313D01*
X136608196Y-95489000D01*
X136691804Y-95489000D01*
X136816823Y-95501313D01*
X136816823Y-95501313D01*
G37*
G36*
X85894072Y-92950918D02*
G01*
X86139939Y-93052759D01*
X86361212Y-93200610D01*
X86549390Y-93388788D01*
X86697241Y-93610061D01*
X86799082Y-93855928D01*
X86851000Y-94116938D01*
X86851000Y-94383062D01*
X86799082Y-94644072D01*
X86697241Y-94889939D01*
X86549390Y-95111212D01*
X86361212Y-95299390D01*
X86139939Y-95447241D01*
X86139938Y-95447242D01*
X86139937Y-95447242D01*
X85894072Y-95549082D01*
X85633063Y-95601000D01*
X85366937Y-95601000D01*
X85105928Y-95549082D01*
X84860063Y-95447242D01*
X84860062Y-95447242D01*
X84860061Y-95447241D01*
X84638788Y-95299390D01*
X84450610Y-95111212D01*
X84302759Y-94889939D01*
X84200918Y-94644072D01*
X84149000Y-94383062D01*
X84149000Y-94116938D01*
X84200918Y-93855928D01*
X84302759Y-93610061D01*
X84450610Y-93388788D01*
X84638788Y-93200610D01*
X84860061Y-93052759D01*
X85105928Y-92950918D01*
X85366937Y-92899000D01*
X85633063Y-92899000D01*
X85894072Y-92950918D01*
X85894072Y-92950918D01*
G37*
G36*
X163666823Y-90901313D02*
G01*
X163827242Y-90949976D01*
X163941410Y-91011000D01*
X163975078Y-91028996D01*
X164104659Y-91135341D01*
X164211004Y-91264922D01*
X164211005Y-91264924D01*
X164290024Y-91412758D01*
X164338687Y-91573177D01*
X164355117Y-91740000D01*
X164338687Y-91906823D01*
X164290024Y-92067242D01*
X164219114Y-92199906D01*
X164211004Y-92215078D01*
X164104659Y-92344659D01*
X163975078Y-92451004D01*
X163975076Y-92451005D01*
X163827242Y-92530024D01*
X163666823Y-92578687D01*
X163541804Y-92591000D01*
X163458196Y-92591000D01*
X163333177Y-92578687D01*
X163172758Y-92530024D01*
X163024924Y-92451005D01*
X163024922Y-92451004D01*
X162895341Y-92344659D01*
X162788996Y-92215078D01*
X162780886Y-92199906D01*
X162709976Y-92067242D01*
X162661313Y-91906823D01*
X162644883Y-91740000D01*
X162661313Y-91573177D01*
X162709976Y-91412758D01*
X162788995Y-91264924D01*
X162788996Y-91264922D01*
X162895341Y-91135341D01*
X163024922Y-91028996D01*
X163058590Y-91011000D01*
X163172758Y-90949976D01*
X163333177Y-90901313D01*
X163458196Y-90889000D01*
X163541804Y-90889000D01*
X163666823Y-90901313D01*
X163666823Y-90901313D01*
G37*
G36*
X161126823Y-90901313D02*
G01*
X161287242Y-90949976D01*
X161401410Y-91011000D01*
X161435078Y-91028996D01*
X161564659Y-91135341D01*
X161671004Y-91264922D01*
X161671005Y-91264924D01*
X161750024Y-91412758D01*
X161798687Y-91573177D01*
X161815117Y-91740000D01*
X161798687Y-91906823D01*
X161750024Y-92067242D01*
X161679114Y-92199906D01*
X161671004Y-92215078D01*
X161564659Y-92344659D01*
X161435078Y-92451004D01*
X161435076Y-92451005D01*
X161287242Y-92530024D01*
X161126823Y-92578687D01*
X161001804Y-92591000D01*
X160918196Y-92591000D01*
X160793177Y-92578687D01*
X160632758Y-92530024D01*
X160484924Y-92451005D01*
X160484922Y-92451004D01*
X160355341Y-92344659D01*
X160248996Y-92215078D01*
X160240886Y-92199906D01*
X160169976Y-92067242D01*
X160121313Y-91906823D01*
X160104883Y-91740000D01*
X160121313Y-91573177D01*
X160169976Y-91412758D01*
X160248995Y-91264924D01*
X160248996Y-91264922D01*
X160355341Y-91135341D01*
X160484922Y-91028996D01*
X160518590Y-91011000D01*
X160632758Y-90949976D01*
X160793177Y-90901313D01*
X160918196Y-90889000D01*
X161001804Y-90889000D01*
X161126823Y-90901313D01*
X161126823Y-90901313D01*
G37*
G36*
X133186823Y-90901313D02*
G01*
X133347242Y-90949976D01*
X133461410Y-91011000D01*
X133495078Y-91028996D01*
X133624659Y-91135341D01*
X133731004Y-91264922D01*
X133731005Y-91264924D01*
X133810024Y-91412758D01*
X133858687Y-91573177D01*
X133875117Y-91740000D01*
X133858687Y-91906823D01*
X133810024Y-92067242D01*
X133739114Y-92199906D01*
X133731004Y-92215078D01*
X133624659Y-92344659D01*
X133495078Y-92451004D01*
X133495076Y-92451005D01*
X133347242Y-92530024D01*
X133186823Y-92578687D01*
X133061804Y-92591000D01*
X132978196Y-92591000D01*
X132853177Y-92578687D01*
X132692758Y-92530024D01*
X132544924Y-92451005D01*
X132544922Y-92451004D01*
X132415341Y-92344659D01*
X132308996Y-92215078D01*
X132300886Y-92199906D01*
X132229976Y-92067242D01*
X132181313Y-91906823D01*
X132164883Y-91740000D01*
X132181313Y-91573177D01*
X132229976Y-91412758D01*
X132308995Y-91264924D01*
X132308996Y-91264922D01*
X132415341Y-91135341D01*
X132544922Y-91028996D01*
X132578590Y-91011000D01*
X132692758Y-90949976D01*
X132853177Y-90901313D01*
X132978196Y-90889000D01*
X133061804Y-90889000D01*
X133186823Y-90901313D01*
X133186823Y-90901313D01*
G37*
G36*
X158586823Y-90901313D02*
G01*
X158747242Y-90949976D01*
X158861410Y-91011000D01*
X158895078Y-91028996D01*
X159024659Y-91135341D01*
X159131004Y-91264922D01*
X159131005Y-91264924D01*
X159210024Y-91412758D01*
X159258687Y-91573177D01*
X159275117Y-91740000D01*
X159258687Y-91906823D01*
X159210024Y-92067242D01*
X159139114Y-92199906D01*
X159131004Y-92215078D01*
X159024659Y-92344659D01*
X158895078Y-92451004D01*
X158895076Y-92451005D01*
X158747242Y-92530024D01*
X158586823Y-92578687D01*
X158461804Y-92591000D01*
X158378196Y-92591000D01*
X158253177Y-92578687D01*
X158092758Y-92530024D01*
X157944924Y-92451005D01*
X157944922Y-92451004D01*
X157815341Y-92344659D01*
X157708996Y-92215078D01*
X157700886Y-92199906D01*
X157629976Y-92067242D01*
X157581313Y-91906823D01*
X157564883Y-91740000D01*
X157581313Y-91573177D01*
X157629976Y-91412758D01*
X157708995Y-91264924D01*
X157708996Y-91264922D01*
X157815341Y-91135341D01*
X157944922Y-91028996D01*
X157978590Y-91011000D01*
X158092758Y-90949976D01*
X158253177Y-90901313D01*
X158378196Y-90889000D01*
X158461804Y-90889000D01*
X158586823Y-90901313D01*
X158586823Y-90901313D01*
G37*
G36*
X156046823Y-90901313D02*
G01*
X156207242Y-90949976D01*
X156321410Y-91011000D01*
X156355078Y-91028996D01*
X156484659Y-91135341D01*
X156591004Y-91264922D01*
X156591005Y-91264924D01*
X156670024Y-91412758D01*
X156718687Y-91573177D01*
X156735117Y-91740000D01*
X156718687Y-91906823D01*
X156670024Y-92067242D01*
X156599114Y-92199906D01*
X156591004Y-92215078D01*
X156484659Y-92344659D01*
X156355078Y-92451004D01*
X156355076Y-92451005D01*
X156207242Y-92530024D01*
X156046823Y-92578687D01*
X155921804Y-92591000D01*
X155838196Y-92591000D01*
X155713177Y-92578687D01*
X155552758Y-92530024D01*
X155404924Y-92451005D01*
X155404922Y-92451004D01*
X155275341Y-92344659D01*
X155168996Y-92215078D01*
X155160886Y-92199906D01*
X155089976Y-92067242D01*
X155041313Y-91906823D01*
X155024883Y-91740000D01*
X155041313Y-91573177D01*
X155089976Y-91412758D01*
X155168995Y-91264924D01*
X155168996Y-91264922D01*
X155275341Y-91135341D01*
X155404922Y-91028996D01*
X155438590Y-91011000D01*
X155552758Y-90949976D01*
X155713177Y-90901313D01*
X155838196Y-90889000D01*
X155921804Y-90889000D01*
X156046823Y-90901313D01*
X156046823Y-90901313D01*
G37*
G36*
X153506823Y-90901313D02*
G01*
X153667242Y-90949976D01*
X153781410Y-91011000D01*
X153815078Y-91028996D01*
X153944659Y-91135341D01*
X154051004Y-91264922D01*
X154051005Y-91264924D01*
X154130024Y-91412758D01*
X154178687Y-91573177D01*
X154195117Y-91740000D01*
X154178687Y-91906823D01*
X154130024Y-92067242D01*
X154059114Y-92199906D01*
X154051004Y-92215078D01*
X153944659Y-92344659D01*
X153815078Y-92451004D01*
X153815076Y-92451005D01*
X153667242Y-92530024D01*
X153506823Y-92578687D01*
X153381804Y-92591000D01*
X153298196Y-92591000D01*
X153173177Y-92578687D01*
X153012758Y-92530024D01*
X152864924Y-92451005D01*
X152864922Y-92451004D01*
X152735341Y-92344659D01*
X152628996Y-92215078D01*
X152620886Y-92199906D01*
X152549976Y-92067242D01*
X152501313Y-91906823D01*
X152484883Y-91740000D01*
X152501313Y-91573177D01*
X152549976Y-91412758D01*
X152628995Y-91264924D01*
X152628996Y-91264922D01*
X152735341Y-91135341D01*
X152864922Y-91028996D01*
X152898590Y-91011000D01*
X153012758Y-90949976D01*
X153173177Y-90901313D01*
X153298196Y-90889000D01*
X153381804Y-90889000D01*
X153506823Y-90901313D01*
X153506823Y-90901313D01*
G37*
G36*
X150966823Y-90901313D02*
G01*
X151127242Y-90949976D01*
X151241410Y-91011000D01*
X151275078Y-91028996D01*
X151404659Y-91135341D01*
X151511004Y-91264922D01*
X151511005Y-91264924D01*
X151590024Y-91412758D01*
X151638687Y-91573177D01*
X151655117Y-91740000D01*
X151638687Y-91906823D01*
X151590024Y-92067242D01*
X151519114Y-92199906D01*
X151511004Y-92215078D01*
X151404659Y-92344659D01*
X151275078Y-92451004D01*
X151275076Y-92451005D01*
X151127242Y-92530024D01*
X150966823Y-92578687D01*
X150841804Y-92591000D01*
X150758196Y-92591000D01*
X150633177Y-92578687D01*
X150472758Y-92530024D01*
X150324924Y-92451005D01*
X150324922Y-92451004D01*
X150195341Y-92344659D01*
X150088996Y-92215078D01*
X150080886Y-92199906D01*
X150009976Y-92067242D01*
X149961313Y-91906823D01*
X149944883Y-91740000D01*
X149961313Y-91573177D01*
X150009976Y-91412758D01*
X150088995Y-91264924D01*
X150088996Y-91264922D01*
X150195341Y-91135341D01*
X150324922Y-91028996D01*
X150358590Y-91011000D01*
X150472758Y-90949976D01*
X150633177Y-90901313D01*
X150758196Y-90889000D01*
X150841804Y-90889000D01*
X150966823Y-90901313D01*
X150966823Y-90901313D01*
G37*
G36*
X148426823Y-90901313D02*
G01*
X148587242Y-90949976D01*
X148701410Y-91011000D01*
X148735078Y-91028996D01*
X148864659Y-91135341D01*
X148971004Y-91264922D01*
X148971005Y-91264924D01*
X149050024Y-91412758D01*
X149098687Y-91573177D01*
X149115117Y-91740000D01*
X149098687Y-91906823D01*
X149050024Y-92067242D01*
X148979114Y-92199906D01*
X148971004Y-92215078D01*
X148864659Y-92344659D01*
X148735078Y-92451004D01*
X148735076Y-92451005D01*
X148587242Y-92530024D01*
X148426823Y-92578687D01*
X148301804Y-92591000D01*
X148218196Y-92591000D01*
X148093177Y-92578687D01*
X147932758Y-92530024D01*
X147784924Y-92451005D01*
X147784922Y-92451004D01*
X147655341Y-92344659D01*
X147548996Y-92215078D01*
X147540886Y-92199906D01*
X147469976Y-92067242D01*
X147421313Y-91906823D01*
X147404883Y-91740000D01*
X147421313Y-91573177D01*
X147469976Y-91412758D01*
X147548995Y-91264924D01*
X147548996Y-91264922D01*
X147655341Y-91135341D01*
X147784922Y-91028996D01*
X147818590Y-91011000D01*
X147932758Y-90949976D01*
X148093177Y-90901313D01*
X148218196Y-90889000D01*
X148301804Y-90889000D01*
X148426823Y-90901313D01*
X148426823Y-90901313D01*
G37*
G36*
X143346823Y-90901313D02*
G01*
X143507242Y-90949976D01*
X143621410Y-91011000D01*
X143655078Y-91028996D01*
X143784659Y-91135341D01*
X143891004Y-91264922D01*
X143891005Y-91264924D01*
X143970024Y-91412758D01*
X144018687Y-91573177D01*
X144035117Y-91740000D01*
X144018687Y-91906823D01*
X143970024Y-92067242D01*
X143899114Y-92199906D01*
X143891004Y-92215078D01*
X143784659Y-92344659D01*
X143655078Y-92451004D01*
X143655076Y-92451005D01*
X143507242Y-92530024D01*
X143346823Y-92578687D01*
X143221804Y-92591000D01*
X143138196Y-92591000D01*
X143013177Y-92578687D01*
X142852758Y-92530024D01*
X142704924Y-92451005D01*
X142704922Y-92451004D01*
X142575341Y-92344659D01*
X142468996Y-92215078D01*
X142460886Y-92199906D01*
X142389976Y-92067242D01*
X142341313Y-91906823D01*
X142324883Y-91740000D01*
X142341313Y-91573177D01*
X142389976Y-91412758D01*
X142468995Y-91264924D01*
X142468996Y-91264922D01*
X142575341Y-91135341D01*
X142704922Y-91028996D01*
X142738590Y-91011000D01*
X142852758Y-90949976D01*
X143013177Y-90901313D01*
X143138196Y-90889000D01*
X143221804Y-90889000D01*
X143346823Y-90901313D01*
X143346823Y-90901313D01*
G37*
G36*
X140806823Y-90901313D02*
G01*
X140967242Y-90949976D01*
X141081410Y-91011000D01*
X141115078Y-91028996D01*
X141244659Y-91135341D01*
X141351004Y-91264922D01*
X141351005Y-91264924D01*
X141430024Y-91412758D01*
X141478687Y-91573177D01*
X141495117Y-91740000D01*
X141478687Y-91906823D01*
X141430024Y-92067242D01*
X141359114Y-92199906D01*
X141351004Y-92215078D01*
X141244659Y-92344659D01*
X141115078Y-92451004D01*
X141115076Y-92451005D01*
X140967242Y-92530024D01*
X140806823Y-92578687D01*
X140681804Y-92591000D01*
X140598196Y-92591000D01*
X140473177Y-92578687D01*
X140312758Y-92530024D01*
X140164924Y-92451005D01*
X140164922Y-92451004D01*
X140035341Y-92344659D01*
X139928996Y-92215078D01*
X139920886Y-92199906D01*
X139849976Y-92067242D01*
X139801313Y-91906823D01*
X139784883Y-91740000D01*
X139801313Y-91573177D01*
X139849976Y-91412758D01*
X139928995Y-91264924D01*
X139928996Y-91264922D01*
X140035341Y-91135341D01*
X140164922Y-91028996D01*
X140198590Y-91011000D01*
X140312758Y-90949976D01*
X140473177Y-90901313D01*
X140598196Y-90889000D01*
X140681804Y-90889000D01*
X140806823Y-90901313D01*
X140806823Y-90901313D01*
G37*
G36*
X128106823Y-90901313D02*
G01*
X128267242Y-90949976D01*
X128381410Y-91011000D01*
X128415078Y-91028996D01*
X128544659Y-91135341D01*
X128651004Y-91264922D01*
X128651005Y-91264924D01*
X128730024Y-91412758D01*
X128778687Y-91573177D01*
X128795117Y-91740000D01*
X128778687Y-91906823D01*
X128730024Y-92067242D01*
X128659114Y-92199906D01*
X128651004Y-92215078D01*
X128544659Y-92344659D01*
X128415078Y-92451004D01*
X128415076Y-92451005D01*
X128267242Y-92530024D01*
X128106823Y-92578687D01*
X127981804Y-92591000D01*
X127898196Y-92591000D01*
X127773177Y-92578687D01*
X127612758Y-92530024D01*
X127464924Y-92451005D01*
X127464922Y-92451004D01*
X127335341Y-92344659D01*
X127228996Y-92215078D01*
X127220886Y-92199906D01*
X127149976Y-92067242D01*
X127101313Y-91906823D01*
X127084883Y-91740000D01*
X127101313Y-91573177D01*
X127149976Y-91412758D01*
X127228995Y-91264924D01*
X127228996Y-91264922D01*
X127335341Y-91135341D01*
X127464922Y-91028996D01*
X127498590Y-91011000D01*
X127612758Y-90949976D01*
X127773177Y-90901313D01*
X127898196Y-90889000D01*
X127981804Y-90889000D01*
X128106823Y-90901313D01*
X128106823Y-90901313D01*
G37*
G36*
X130646823Y-90901313D02*
G01*
X130807242Y-90949976D01*
X130921410Y-91011000D01*
X130955078Y-91028996D01*
X131084659Y-91135341D01*
X131191004Y-91264922D01*
X131191005Y-91264924D01*
X131270024Y-91412758D01*
X131318687Y-91573177D01*
X131335117Y-91740000D01*
X131318687Y-91906823D01*
X131270024Y-92067242D01*
X131199114Y-92199906D01*
X131191004Y-92215078D01*
X131084659Y-92344659D01*
X130955078Y-92451004D01*
X130955076Y-92451005D01*
X130807242Y-92530024D01*
X130646823Y-92578687D01*
X130521804Y-92591000D01*
X130438196Y-92591000D01*
X130313177Y-92578687D01*
X130152758Y-92530024D01*
X130004924Y-92451005D01*
X130004922Y-92451004D01*
X129875341Y-92344659D01*
X129768996Y-92215078D01*
X129760886Y-92199906D01*
X129689976Y-92067242D01*
X129641313Y-91906823D01*
X129624883Y-91740000D01*
X129641313Y-91573177D01*
X129689976Y-91412758D01*
X129768995Y-91264924D01*
X129768996Y-91264922D01*
X129875341Y-91135341D01*
X130004922Y-91028996D01*
X130038590Y-91011000D01*
X130152758Y-90949976D01*
X130313177Y-90901313D01*
X130438196Y-90889000D01*
X130521804Y-90889000D01*
X130646823Y-90901313D01*
X130646823Y-90901313D01*
G37*
G36*
X138266823Y-90901313D02*
G01*
X138427242Y-90949976D01*
X138541410Y-91011000D01*
X138575078Y-91028996D01*
X138704659Y-91135341D01*
X138811004Y-91264922D01*
X138811005Y-91264924D01*
X138890024Y-91412758D01*
X138938687Y-91573177D01*
X138955117Y-91740000D01*
X138938687Y-91906823D01*
X138890024Y-92067242D01*
X138819114Y-92199906D01*
X138811004Y-92215078D01*
X138704659Y-92344659D01*
X138575078Y-92451004D01*
X138575076Y-92451005D01*
X138427242Y-92530024D01*
X138266823Y-92578687D01*
X138141804Y-92591000D01*
X138058196Y-92591000D01*
X137933177Y-92578687D01*
X137772758Y-92530024D01*
X137624924Y-92451005D01*
X137624922Y-92451004D01*
X137495341Y-92344659D01*
X137388996Y-92215078D01*
X137380886Y-92199906D01*
X137309976Y-92067242D01*
X137261313Y-91906823D01*
X137244883Y-91740000D01*
X137261313Y-91573177D01*
X137309976Y-91412758D01*
X137388995Y-91264924D01*
X137388996Y-91264922D01*
X137495341Y-91135341D01*
X137624922Y-91028996D01*
X137658590Y-91011000D01*
X137772758Y-90949976D01*
X137933177Y-90901313D01*
X138058196Y-90889000D01*
X138141804Y-90889000D01*
X138266823Y-90901313D01*
X138266823Y-90901313D01*
G37*
G36*
X135726823Y-90901313D02*
G01*
X135887242Y-90949976D01*
X136001410Y-91011000D01*
X136035078Y-91028996D01*
X136164659Y-91135341D01*
X136271004Y-91264922D01*
X136271005Y-91264924D01*
X136350024Y-91412758D01*
X136398687Y-91573177D01*
X136415117Y-91740000D01*
X136398687Y-91906823D01*
X136350024Y-92067242D01*
X136279114Y-92199906D01*
X136271004Y-92215078D01*
X136164659Y-92344659D01*
X136035078Y-92451004D01*
X136035076Y-92451005D01*
X135887242Y-92530024D01*
X135726823Y-92578687D01*
X135601804Y-92591000D01*
X135518196Y-92591000D01*
X135393177Y-92578687D01*
X135232758Y-92530024D01*
X135084924Y-92451005D01*
X135084922Y-92451004D01*
X134955341Y-92344659D01*
X134848996Y-92215078D01*
X134840886Y-92199906D01*
X134769976Y-92067242D01*
X134721313Y-91906823D01*
X134704883Y-91740000D01*
X134721313Y-91573177D01*
X134769976Y-91412758D01*
X134848995Y-91264924D01*
X134848996Y-91264922D01*
X134955341Y-91135341D01*
X135084922Y-91028996D01*
X135118590Y-91011000D01*
X135232758Y-90949976D01*
X135393177Y-90901313D01*
X135518196Y-90889000D01*
X135601804Y-90889000D01*
X135726823Y-90901313D01*
X135726823Y-90901313D01*
G37*
G36*
X145886823Y-90901313D02*
G01*
X146047242Y-90949976D01*
X146161410Y-91011000D01*
X146195078Y-91028996D01*
X146324659Y-91135341D01*
X146431004Y-91264922D01*
X146431005Y-91264924D01*
X146510024Y-91412758D01*
X146558687Y-91573177D01*
X146575117Y-91740000D01*
X146558687Y-91906823D01*
X146510024Y-92067242D01*
X146439114Y-92199906D01*
X146431004Y-92215078D01*
X146324659Y-92344659D01*
X146195078Y-92451004D01*
X146195076Y-92451005D01*
X146047242Y-92530024D01*
X145886823Y-92578687D01*
X145761804Y-92591000D01*
X145678196Y-92591000D01*
X145553177Y-92578687D01*
X145392758Y-92530024D01*
X145244924Y-92451005D01*
X145244922Y-92451004D01*
X145115341Y-92344659D01*
X145008996Y-92215078D01*
X145000886Y-92199906D01*
X144929976Y-92067242D01*
X144881313Y-91906823D01*
X144864883Y-91740000D01*
X144881313Y-91573177D01*
X144929976Y-91412758D01*
X145008995Y-91264924D01*
X145008996Y-91264922D01*
X145115341Y-91135341D01*
X145244922Y-91028996D01*
X145278590Y-91011000D01*
X145392758Y-90949976D01*
X145553177Y-90901313D01*
X145678196Y-90889000D01*
X145761804Y-90889000D01*
X145886823Y-90901313D01*
X145886823Y-90901313D01*
G37*
G36*
X105666823Y-89321313D02*
G01*
X105827242Y-89369976D01*
X105959906Y-89440886D01*
X105975078Y-89448996D01*
X106104659Y-89555341D01*
X106211004Y-89684922D01*
X106211005Y-89684924D01*
X106290024Y-89832758D01*
X106338687Y-89993177D01*
X106355117Y-90160000D01*
X106338687Y-90326823D01*
X106290024Y-90487242D01*
X106229219Y-90601000D01*
X106211004Y-90635078D01*
X106104659Y-90764659D01*
X105975078Y-90871004D01*
X105975076Y-90871005D01*
X105827242Y-90950024D01*
X105666823Y-90998687D01*
X105541804Y-91011000D01*
X105458196Y-91011000D01*
X105333177Y-90998687D01*
X105172758Y-90950024D01*
X105024924Y-90871005D01*
X105024922Y-90871004D01*
X104895341Y-90764659D01*
X104788996Y-90635078D01*
X104770781Y-90601000D01*
X104709976Y-90487242D01*
X104661313Y-90326823D01*
X104644883Y-90160000D01*
X104661313Y-89993177D01*
X104709976Y-89832758D01*
X104788995Y-89684924D01*
X104788996Y-89684922D01*
X104895341Y-89555341D01*
X105024922Y-89448996D01*
X105040094Y-89440886D01*
X105172758Y-89369976D01*
X105333177Y-89321313D01*
X105458196Y-89309000D01*
X105541804Y-89309000D01*
X105666823Y-89321313D01*
X105666823Y-89321313D01*
G37*
G36*
X118166823Y-89321313D02*
G01*
X118327242Y-89369976D01*
X118459906Y-89440886D01*
X118475078Y-89448996D01*
X118604659Y-89555341D01*
X118711004Y-89684922D01*
X118711005Y-89684924D01*
X118790024Y-89832758D01*
X118838687Y-89993177D01*
X118855117Y-90160000D01*
X118838687Y-90326823D01*
X118790024Y-90487242D01*
X118729219Y-90601000D01*
X118711004Y-90635078D01*
X118604659Y-90764659D01*
X118475078Y-90871004D01*
X118475076Y-90871005D01*
X118327242Y-90950024D01*
X118166823Y-90998687D01*
X118041804Y-91011000D01*
X117958196Y-91011000D01*
X117833177Y-90998687D01*
X117672758Y-90950024D01*
X117524924Y-90871005D01*
X117524922Y-90871004D01*
X117395341Y-90764659D01*
X117288996Y-90635078D01*
X117270781Y-90601000D01*
X117209976Y-90487242D01*
X117161313Y-90326823D01*
X117144883Y-90160000D01*
X117161313Y-89993177D01*
X117209976Y-89832758D01*
X117288995Y-89684924D01*
X117288996Y-89684922D01*
X117395341Y-89555341D01*
X117524922Y-89448996D01*
X117540094Y-89440886D01*
X117672758Y-89369976D01*
X117833177Y-89321313D01*
X117958196Y-89309000D01*
X118041804Y-89309000D01*
X118166823Y-89321313D01*
X118166823Y-89321313D01*
G37*
G36*
X111916823Y-89321313D02*
G01*
X112077242Y-89369976D01*
X112209906Y-89440886D01*
X112225078Y-89448996D01*
X112354659Y-89555341D01*
X112461004Y-89684922D01*
X112461005Y-89684924D01*
X112540024Y-89832758D01*
X112588687Y-89993177D01*
X112605117Y-90160000D01*
X112588687Y-90326823D01*
X112540024Y-90487242D01*
X112479219Y-90601000D01*
X112461004Y-90635078D01*
X112354659Y-90764659D01*
X112225078Y-90871004D01*
X112225076Y-90871005D01*
X112077242Y-90950024D01*
X111916823Y-90998687D01*
X111791804Y-91011000D01*
X111708196Y-91011000D01*
X111583177Y-90998687D01*
X111422758Y-90950024D01*
X111274924Y-90871005D01*
X111274922Y-90871004D01*
X111145341Y-90764659D01*
X111038996Y-90635078D01*
X111020781Y-90601000D01*
X110959976Y-90487242D01*
X110911313Y-90326823D01*
X110894883Y-90160000D01*
X110911313Y-89993177D01*
X110959976Y-89832758D01*
X111038995Y-89684924D01*
X111038996Y-89684922D01*
X111145341Y-89555341D01*
X111274922Y-89448996D01*
X111290094Y-89440886D01*
X111422758Y-89369976D01*
X111583177Y-89321313D01*
X111708196Y-89309000D01*
X111791804Y-89309000D01*
X111916823Y-89321313D01*
X111916823Y-89321313D01*
G37*
G36*
X85894072Y-87950918D02*
G01*
X86139939Y-88052759D01*
X86361212Y-88200610D01*
X86549390Y-88388788D01*
X86697241Y-88610061D01*
X86799082Y-88855928D01*
X86851000Y-89116938D01*
X86851000Y-89383062D01*
X86799082Y-89644072D01*
X86697241Y-89889939D01*
X86549390Y-90111212D01*
X86361212Y-90299390D01*
X86139939Y-90447241D01*
X86139938Y-90447242D01*
X86139937Y-90447242D01*
X85894072Y-90549082D01*
X85633063Y-90601000D01*
X85366937Y-90601000D01*
X85105928Y-90549082D01*
X84860063Y-90447242D01*
X84860062Y-90447242D01*
X84860061Y-90447241D01*
X84638788Y-90299390D01*
X84450610Y-90111212D01*
X84302759Y-89889939D01*
X84200918Y-89644072D01*
X84149000Y-89383062D01*
X84149000Y-89116938D01*
X84200918Y-88855928D01*
X84302759Y-88610061D01*
X84450610Y-88388788D01*
X84638788Y-88200610D01*
X84860061Y-88052759D01*
X85105928Y-87950918D01*
X85366937Y-87899000D01*
X85633063Y-87899000D01*
X85894072Y-87950918D01*
X85894072Y-87950918D01*
G37*
G36*
X85894072Y-82950918D02*
G01*
X86139939Y-83052759D01*
X86361212Y-83200610D01*
X86549390Y-83388788D01*
X86697241Y-83610061D01*
X86799082Y-83855928D01*
X86851000Y-84116938D01*
X86851000Y-84383062D01*
X86799082Y-84644072D01*
X86697241Y-84889939D01*
X86549390Y-85111212D01*
X86361212Y-85299390D01*
X86139939Y-85447241D01*
X86139938Y-85447242D01*
X86139937Y-85447242D01*
X85894072Y-85549082D01*
X85633063Y-85601000D01*
X85366937Y-85601000D01*
X85105928Y-85549082D01*
X84860063Y-85447242D01*
X84860062Y-85447242D01*
X84860061Y-85447241D01*
X84638788Y-85299390D01*
X84450610Y-85111212D01*
X84302759Y-84889939D01*
X84200918Y-84644072D01*
X84149000Y-84383062D01*
X84149000Y-84116938D01*
X84200918Y-83855928D01*
X84302759Y-83610061D01*
X84450610Y-83388788D01*
X84638788Y-83200610D01*
X84860061Y-83052759D01*
X85105928Y-82950918D01*
X85366937Y-82899000D01*
X85633063Y-82899000D01*
X85894072Y-82950918D01*
X85894072Y-82950918D01*
G37*
G36*
X111998228Y-79181703D02*
G01*
X112153100Y-79245853D01*
X112292481Y-79338985D01*
X112411015Y-79457519D01*
X112504147Y-79596900D01*
X112568297Y-79751772D01*
X112601000Y-79916184D01*
X112601000Y-80083816D01*
X112568297Y-80248228D01*
X112504147Y-80403100D01*
X112411015Y-80542481D01*
X112292481Y-80661015D01*
X112153100Y-80754147D01*
X111998228Y-80818297D01*
X111833816Y-80851000D01*
X111666184Y-80851000D01*
X111501772Y-80818297D01*
X111346900Y-80754147D01*
X111207519Y-80661015D01*
X111088985Y-80542481D01*
X110995853Y-80403100D01*
X110931703Y-80248228D01*
X110899000Y-80083816D01*
X110899000Y-79916184D01*
X110931703Y-79751772D01*
X110995853Y-79596900D01*
X111088985Y-79457519D01*
X111207519Y-79338985D01*
X111346900Y-79245853D01*
X111501772Y-79181703D01*
X111666184Y-79149000D01*
X111833816Y-79149000D01*
X111998228Y-79181703D01*
X111998228Y-79181703D01*
G37*
G36*
X105748228Y-79181703D02*
G01*
X105903100Y-79245853D01*
X106042481Y-79338985D01*
X106161015Y-79457519D01*
X106254147Y-79596900D01*
X106318297Y-79751772D01*
X106351000Y-79916184D01*
X106351000Y-80083816D01*
X106318297Y-80248228D01*
X106254147Y-80403100D01*
X106161015Y-80542481D01*
X106042481Y-80661015D01*
X105903100Y-80754147D01*
X105748228Y-80818297D01*
X105583816Y-80851000D01*
X105416184Y-80851000D01*
X105251772Y-80818297D01*
X105096900Y-80754147D01*
X104957519Y-80661015D01*
X104838985Y-80542481D01*
X104745853Y-80403100D01*
X104681703Y-80248228D01*
X104649000Y-80083816D01*
X104649000Y-79916184D01*
X104681703Y-79751772D01*
X104745853Y-79596900D01*
X104838985Y-79457519D01*
X104957519Y-79338985D01*
X105096900Y-79245853D01*
X105251772Y-79181703D01*
X105416184Y-79149000D01*
X105583816Y-79149000D01*
X105748228Y-79181703D01*
X105748228Y-79181703D01*
G37*
G36*
X118248228Y-79181703D02*
G01*
X118403100Y-79245853D01*
X118542481Y-79338985D01*
X118661015Y-79457519D01*
X118754147Y-79596900D01*
X118818297Y-79751772D01*
X118851000Y-79916184D01*
X118851000Y-80083816D01*
X118818297Y-80248228D01*
X118754147Y-80403100D01*
X118661015Y-80542481D01*
X118542481Y-80661015D01*
X118403100Y-80754147D01*
X118248228Y-80818297D01*
X118083816Y-80851000D01*
X117916184Y-80851000D01*
X117751772Y-80818297D01*
X117596900Y-80754147D01*
X117457519Y-80661015D01*
X117338985Y-80542481D01*
X117245853Y-80403100D01*
X117181703Y-80248228D01*
X117149000Y-80083816D01*
X117149000Y-79916184D01*
X117181703Y-79751772D01*
X117245853Y-79596900D01*
X117338985Y-79457519D01*
X117457519Y-79338985D01*
X117596900Y-79245853D01*
X117751772Y-79181703D01*
X117916184Y-79149000D01*
X118083816Y-79149000D01*
X118248228Y-79181703D01*
X118248228Y-79181703D01*
G37*
G36*
X85894072Y-77950918D02*
G01*
X86139939Y-78052759D01*
X86251328Y-78127187D01*
X86361211Y-78200609D01*
X86549391Y-78388789D01*
X86697242Y-78610063D01*
X86799082Y-78855928D01*
X86851000Y-79116937D01*
X86851000Y-79383063D01*
X86799082Y-79644072D01*
X86697241Y-79889939D01*
X86549390Y-80111212D01*
X86361212Y-80299390D01*
X86139939Y-80447241D01*
X86139938Y-80447242D01*
X86139937Y-80447242D01*
X85894072Y-80549082D01*
X85633063Y-80601000D01*
X85366937Y-80601000D01*
X85105928Y-80549082D01*
X84860063Y-80447242D01*
X84860062Y-80447242D01*
X84860061Y-80447241D01*
X84638788Y-80299390D01*
X84450610Y-80111212D01*
X84302759Y-79889939D01*
X84200918Y-79644072D01*
X84149000Y-79383063D01*
X84149000Y-79116937D01*
X84200918Y-78855928D01*
X84302758Y-78610063D01*
X84450609Y-78388789D01*
X84638789Y-78200609D01*
X84748672Y-78127187D01*
X84860061Y-78052759D01*
X85105928Y-77950918D01*
X85366937Y-77899000D01*
X85633063Y-77899000D01*
X85894072Y-77950918D01*
X85894072Y-77950918D01*
G37*
G36*
X138266823Y-75661313D02*
G01*
X138427242Y-75709976D01*
X138559906Y-75780886D01*
X138575078Y-75788996D01*
X138704659Y-75895341D01*
X138811004Y-76024922D01*
X138811005Y-76024924D01*
X138890024Y-76172758D01*
X138938687Y-76333177D01*
X138955117Y-76500000D01*
X138938687Y-76666823D01*
X138890024Y-76827242D01*
X138819114Y-76959906D01*
X138811004Y-76975078D01*
X138704659Y-77104659D01*
X138575078Y-77211004D01*
X138575076Y-77211005D01*
X138427242Y-77290024D01*
X138266823Y-77338687D01*
X138141804Y-77351000D01*
X138058196Y-77351000D01*
X137933177Y-77338687D01*
X137772758Y-77290024D01*
X137624924Y-77211005D01*
X137624922Y-77211004D01*
X137495341Y-77104659D01*
X137388996Y-76975078D01*
X137380886Y-76959906D01*
X137309976Y-76827242D01*
X137261313Y-76666823D01*
X137244883Y-76500000D01*
X137261313Y-76333177D01*
X137309976Y-76172758D01*
X137388995Y-76024924D01*
X137388996Y-76024922D01*
X137495341Y-75895341D01*
X137624922Y-75788996D01*
X137640094Y-75780886D01*
X137772758Y-75709976D01*
X137933177Y-75661313D01*
X138058196Y-75649000D01*
X138141804Y-75649000D01*
X138266823Y-75661313D01*
X138266823Y-75661313D01*
G37*
G36*
X135726823Y-75661313D02*
G01*
X135887242Y-75709976D01*
X136019906Y-75780886D01*
X136035078Y-75788996D01*
X136164659Y-75895341D01*
X136271004Y-76024922D01*
X136271005Y-76024924D01*
X136350024Y-76172758D01*
X136398687Y-76333177D01*
X136415117Y-76500000D01*
X136398687Y-76666823D01*
X136350024Y-76827242D01*
X136279114Y-76959906D01*
X136271004Y-76975078D01*
X136164659Y-77104659D01*
X136035078Y-77211004D01*
X136035076Y-77211005D01*
X135887242Y-77290024D01*
X135726823Y-77338687D01*
X135601804Y-77351000D01*
X135518196Y-77351000D01*
X135393177Y-77338687D01*
X135232758Y-77290024D01*
X135084924Y-77211005D01*
X135084922Y-77211004D01*
X134955341Y-77104659D01*
X134848996Y-76975078D01*
X134840886Y-76959906D01*
X134769976Y-76827242D01*
X134721313Y-76666823D01*
X134704883Y-76500000D01*
X134721313Y-76333177D01*
X134769976Y-76172758D01*
X134848995Y-76024924D01*
X134848996Y-76024922D01*
X134955341Y-75895341D01*
X135084922Y-75788996D01*
X135100094Y-75780886D01*
X135232758Y-75709976D01*
X135393177Y-75661313D01*
X135518196Y-75649000D01*
X135601804Y-75649000D01*
X135726823Y-75661313D01*
X135726823Y-75661313D01*
G37*
G36*
X133186823Y-75661313D02*
G01*
X133347242Y-75709976D01*
X133479906Y-75780886D01*
X133495078Y-75788996D01*
X133624659Y-75895341D01*
X133731004Y-76024922D01*
X133731005Y-76024924D01*
X133810024Y-76172758D01*
X133858687Y-76333177D01*
X133875117Y-76500000D01*
X133858687Y-76666823D01*
X133810024Y-76827242D01*
X133739114Y-76959906D01*
X133731004Y-76975078D01*
X133624659Y-77104659D01*
X133495078Y-77211004D01*
X133495076Y-77211005D01*
X133347242Y-77290024D01*
X133186823Y-77338687D01*
X133061804Y-77351000D01*
X132978196Y-77351000D01*
X132853177Y-77338687D01*
X132692758Y-77290024D01*
X132544924Y-77211005D01*
X132544922Y-77211004D01*
X132415341Y-77104659D01*
X132308996Y-76975078D01*
X132300886Y-76959906D01*
X132229976Y-76827242D01*
X132181313Y-76666823D01*
X132164883Y-76500000D01*
X132181313Y-76333177D01*
X132229976Y-76172758D01*
X132308995Y-76024924D01*
X132308996Y-76024922D01*
X132415341Y-75895341D01*
X132544922Y-75788996D01*
X132560094Y-75780886D01*
X132692758Y-75709976D01*
X132853177Y-75661313D01*
X132978196Y-75649000D01*
X133061804Y-75649000D01*
X133186823Y-75661313D01*
X133186823Y-75661313D01*
G37*
G36*
X130646823Y-75661313D02*
G01*
X130807242Y-75709976D01*
X130939906Y-75780886D01*
X130955078Y-75788996D01*
X131084659Y-75895341D01*
X131191004Y-76024922D01*
X131191005Y-76024924D01*
X131270024Y-76172758D01*
X131318687Y-76333177D01*
X131335117Y-76500000D01*
X131318687Y-76666823D01*
X131270024Y-76827242D01*
X131199114Y-76959906D01*
X131191004Y-76975078D01*
X131084659Y-77104659D01*
X130955078Y-77211004D01*
X130955076Y-77211005D01*
X130807242Y-77290024D01*
X130646823Y-77338687D01*
X130521804Y-77351000D01*
X130438196Y-77351000D01*
X130313177Y-77338687D01*
X130152758Y-77290024D01*
X130004924Y-77211005D01*
X130004922Y-77211004D01*
X129875341Y-77104659D01*
X129768996Y-76975078D01*
X129760886Y-76959906D01*
X129689976Y-76827242D01*
X129641313Y-76666823D01*
X129624883Y-76500000D01*
X129641313Y-76333177D01*
X129689976Y-76172758D01*
X129768995Y-76024924D01*
X129768996Y-76024922D01*
X129875341Y-75895341D01*
X130004922Y-75788996D01*
X130020094Y-75780886D01*
X130152758Y-75709976D01*
X130313177Y-75661313D01*
X130438196Y-75649000D01*
X130521804Y-75649000D01*
X130646823Y-75661313D01*
X130646823Y-75661313D01*
G37*
G36*
X143346823Y-75661313D02*
G01*
X143507242Y-75709976D01*
X143639906Y-75780886D01*
X143655078Y-75788996D01*
X143784659Y-75895341D01*
X143891004Y-76024922D01*
X143891005Y-76024924D01*
X143970024Y-76172758D01*
X144018687Y-76333177D01*
X144035117Y-76500000D01*
X144018687Y-76666823D01*
X143970024Y-76827242D01*
X143899114Y-76959906D01*
X143891004Y-76975078D01*
X143784659Y-77104659D01*
X143655078Y-77211004D01*
X143655076Y-77211005D01*
X143507242Y-77290024D01*
X143346823Y-77338687D01*
X143221804Y-77351000D01*
X143138196Y-77351000D01*
X143013177Y-77338687D01*
X142852758Y-77290024D01*
X142704924Y-77211005D01*
X142704922Y-77211004D01*
X142575341Y-77104659D01*
X142468996Y-76975078D01*
X142460886Y-76959906D01*
X142389976Y-76827242D01*
X142341313Y-76666823D01*
X142324883Y-76500000D01*
X142341313Y-76333177D01*
X142389976Y-76172758D01*
X142468995Y-76024924D01*
X142468996Y-76024922D01*
X142575341Y-75895341D01*
X142704922Y-75788996D01*
X142720094Y-75780886D01*
X142852758Y-75709976D01*
X143013177Y-75661313D01*
X143138196Y-75649000D01*
X143221804Y-75649000D01*
X143346823Y-75661313D01*
X143346823Y-75661313D01*
G37*
G36*
X145886823Y-75661313D02*
G01*
X146047242Y-75709976D01*
X146179906Y-75780886D01*
X146195078Y-75788996D01*
X146324659Y-75895341D01*
X146431004Y-76024922D01*
X146431005Y-76024924D01*
X146510024Y-76172758D01*
X146558687Y-76333177D01*
X146575117Y-76500000D01*
X146558687Y-76666823D01*
X146510024Y-76827242D01*
X146439114Y-76959906D01*
X146431004Y-76975078D01*
X146324659Y-77104659D01*
X146195078Y-77211004D01*
X146195076Y-77211005D01*
X146047242Y-77290024D01*
X145886823Y-77338687D01*
X145761804Y-77351000D01*
X145678196Y-77351000D01*
X145553177Y-77338687D01*
X145392758Y-77290024D01*
X145244924Y-77211005D01*
X145244922Y-77211004D01*
X145115341Y-77104659D01*
X145008996Y-76975078D01*
X145000886Y-76959906D01*
X144929976Y-76827242D01*
X144881313Y-76666823D01*
X144864883Y-76500000D01*
X144881313Y-76333177D01*
X144929976Y-76172758D01*
X145008995Y-76024924D01*
X145008996Y-76024922D01*
X145115341Y-75895341D01*
X145244922Y-75788996D01*
X145260094Y-75780886D01*
X145392758Y-75709976D01*
X145553177Y-75661313D01*
X145678196Y-75649000D01*
X145761804Y-75649000D01*
X145886823Y-75661313D01*
X145886823Y-75661313D01*
G37*
G36*
X148426823Y-75661313D02*
G01*
X148587242Y-75709976D01*
X148719906Y-75780886D01*
X148735078Y-75788996D01*
X148864659Y-75895341D01*
X148971004Y-76024922D01*
X148971005Y-76024924D01*
X149050024Y-76172758D01*
X149098687Y-76333177D01*
X149115117Y-76500000D01*
X149098687Y-76666823D01*
X149050024Y-76827242D01*
X148979114Y-76959906D01*
X148971004Y-76975078D01*
X148864659Y-77104659D01*
X148735078Y-77211004D01*
X148735076Y-77211005D01*
X148587242Y-77290024D01*
X148426823Y-77338687D01*
X148301804Y-77351000D01*
X148218196Y-77351000D01*
X148093177Y-77338687D01*
X147932758Y-77290024D01*
X147784924Y-77211005D01*
X147784922Y-77211004D01*
X147655341Y-77104659D01*
X147548996Y-76975078D01*
X147540886Y-76959906D01*
X147469976Y-76827242D01*
X147421313Y-76666823D01*
X147404883Y-76500000D01*
X147421313Y-76333177D01*
X147469976Y-76172758D01*
X147548995Y-76024924D01*
X147548996Y-76024922D01*
X147655341Y-75895341D01*
X147784922Y-75788996D01*
X147800094Y-75780886D01*
X147932758Y-75709976D01*
X148093177Y-75661313D01*
X148218196Y-75649000D01*
X148301804Y-75649000D01*
X148426823Y-75661313D01*
X148426823Y-75661313D01*
G37*
G36*
X153506823Y-75661313D02*
G01*
X153667242Y-75709976D01*
X153799906Y-75780886D01*
X153815078Y-75788996D01*
X153944659Y-75895341D01*
X154051004Y-76024922D01*
X154051005Y-76024924D01*
X154130024Y-76172758D01*
X154178687Y-76333177D01*
X154195117Y-76500000D01*
X154178687Y-76666823D01*
X154130024Y-76827242D01*
X154059114Y-76959906D01*
X154051004Y-76975078D01*
X153944659Y-77104659D01*
X153815078Y-77211004D01*
X153815076Y-77211005D01*
X153667242Y-77290024D01*
X153506823Y-77338687D01*
X153381804Y-77351000D01*
X153298196Y-77351000D01*
X153173177Y-77338687D01*
X153012758Y-77290024D01*
X152864924Y-77211005D01*
X152864922Y-77211004D01*
X152735341Y-77104659D01*
X152628996Y-76975078D01*
X152620886Y-76959906D01*
X152549976Y-76827242D01*
X152501313Y-76666823D01*
X152484883Y-76500000D01*
X152501313Y-76333177D01*
X152549976Y-76172758D01*
X152628995Y-76024924D01*
X152628996Y-76024922D01*
X152735341Y-75895341D01*
X152864922Y-75788996D01*
X152880094Y-75780886D01*
X153012758Y-75709976D01*
X153173177Y-75661313D01*
X153298196Y-75649000D01*
X153381804Y-75649000D01*
X153506823Y-75661313D01*
X153506823Y-75661313D01*
G37*
G36*
X156046823Y-75661313D02*
G01*
X156207242Y-75709976D01*
X156339906Y-75780886D01*
X156355078Y-75788996D01*
X156484659Y-75895341D01*
X156591004Y-76024922D01*
X156591005Y-76024924D01*
X156670024Y-76172758D01*
X156718687Y-76333177D01*
X156735117Y-76500000D01*
X156718687Y-76666823D01*
X156670024Y-76827242D01*
X156599114Y-76959906D01*
X156591004Y-76975078D01*
X156484659Y-77104659D01*
X156355078Y-77211004D01*
X156355076Y-77211005D01*
X156207242Y-77290024D01*
X156046823Y-77338687D01*
X155921804Y-77351000D01*
X155838196Y-77351000D01*
X155713177Y-77338687D01*
X155552758Y-77290024D01*
X155404924Y-77211005D01*
X155404922Y-77211004D01*
X155275341Y-77104659D01*
X155168996Y-76975078D01*
X155160886Y-76959906D01*
X155089976Y-76827242D01*
X155041313Y-76666823D01*
X155024883Y-76500000D01*
X155041313Y-76333177D01*
X155089976Y-76172758D01*
X155168995Y-76024924D01*
X155168996Y-76024922D01*
X155275341Y-75895341D01*
X155404922Y-75788996D01*
X155420094Y-75780886D01*
X155552758Y-75709976D01*
X155713177Y-75661313D01*
X155838196Y-75649000D01*
X155921804Y-75649000D01*
X156046823Y-75661313D01*
X156046823Y-75661313D01*
G37*
G36*
X158586823Y-75661313D02*
G01*
X158747242Y-75709976D01*
X158879906Y-75780886D01*
X158895078Y-75788996D01*
X159024659Y-75895341D01*
X159131004Y-76024922D01*
X159131005Y-76024924D01*
X159210024Y-76172758D01*
X159258687Y-76333177D01*
X159275117Y-76500000D01*
X159258687Y-76666823D01*
X159210024Y-76827242D01*
X159139114Y-76959906D01*
X159131004Y-76975078D01*
X159024659Y-77104659D01*
X158895078Y-77211004D01*
X158895076Y-77211005D01*
X158747242Y-77290024D01*
X158586823Y-77338687D01*
X158461804Y-77351000D01*
X158378196Y-77351000D01*
X158253177Y-77338687D01*
X158092758Y-77290024D01*
X157944924Y-77211005D01*
X157944922Y-77211004D01*
X157815341Y-77104659D01*
X157708996Y-76975078D01*
X157700886Y-76959906D01*
X157629976Y-76827242D01*
X157581313Y-76666823D01*
X157564883Y-76500000D01*
X157581313Y-76333177D01*
X157629976Y-76172758D01*
X157708995Y-76024924D01*
X157708996Y-76024922D01*
X157815341Y-75895341D01*
X157944922Y-75788996D01*
X157960094Y-75780886D01*
X158092758Y-75709976D01*
X158253177Y-75661313D01*
X158378196Y-75649000D01*
X158461804Y-75649000D01*
X158586823Y-75661313D01*
X158586823Y-75661313D01*
G37*
G36*
X161126823Y-75661313D02*
G01*
X161287242Y-75709976D01*
X161419906Y-75780886D01*
X161435078Y-75788996D01*
X161564659Y-75895341D01*
X161671004Y-76024922D01*
X161671005Y-76024924D01*
X161750024Y-76172758D01*
X161798687Y-76333177D01*
X161815117Y-76500000D01*
X161798687Y-76666823D01*
X161750024Y-76827242D01*
X161679114Y-76959906D01*
X161671004Y-76975078D01*
X161564659Y-77104659D01*
X161435078Y-77211004D01*
X161435076Y-77211005D01*
X161287242Y-77290024D01*
X161126823Y-77338687D01*
X161001804Y-77351000D01*
X160918196Y-77351000D01*
X160793177Y-77338687D01*
X160632758Y-77290024D01*
X160484924Y-77211005D01*
X160484922Y-77211004D01*
X160355341Y-77104659D01*
X160248996Y-76975078D01*
X160240886Y-76959906D01*
X160169976Y-76827242D01*
X160121313Y-76666823D01*
X160104883Y-76500000D01*
X160121313Y-76333177D01*
X160169976Y-76172758D01*
X160248995Y-76024924D01*
X160248996Y-76024922D01*
X160355341Y-75895341D01*
X160484922Y-75788996D01*
X160500094Y-75780886D01*
X160632758Y-75709976D01*
X160793177Y-75661313D01*
X160918196Y-75649000D01*
X161001804Y-75649000D01*
X161126823Y-75661313D01*
X161126823Y-75661313D01*
G37*
G36*
X164351000Y-77351000D02*
G01*
X162649000Y-77351000D01*
X162649000Y-75649000D01*
X164351000Y-75649000D01*
X164351000Y-77351000D01*
X164351000Y-77351000D01*
G37*
G36*
X140806823Y-75661313D02*
G01*
X140967242Y-75709976D01*
X141099906Y-75780886D01*
X141115078Y-75788996D01*
X141244659Y-75895341D01*
X141351004Y-76024922D01*
X141351005Y-76024924D01*
X141430024Y-76172758D01*
X141478687Y-76333177D01*
X141495117Y-76500000D01*
X141478687Y-76666823D01*
X141430024Y-76827242D01*
X141359114Y-76959906D01*
X141351004Y-76975078D01*
X141244659Y-77104659D01*
X141115078Y-77211004D01*
X141115076Y-77211005D01*
X140967242Y-77290024D01*
X140806823Y-77338687D01*
X140681804Y-77351000D01*
X140598196Y-77351000D01*
X140473177Y-77338687D01*
X140312758Y-77290024D01*
X140164924Y-77211005D01*
X140164922Y-77211004D01*
X140035341Y-77104659D01*
X139928996Y-76975078D01*
X139920886Y-76959906D01*
X139849976Y-76827242D01*
X139801313Y-76666823D01*
X139784883Y-76500000D01*
X139801313Y-76333177D01*
X139849976Y-76172758D01*
X139928995Y-76024924D01*
X139928996Y-76024922D01*
X140035341Y-75895341D01*
X140164922Y-75788996D01*
X140180094Y-75780886D01*
X140312758Y-75709976D01*
X140473177Y-75661313D01*
X140598196Y-75649000D01*
X140681804Y-75649000D01*
X140806823Y-75661313D01*
X140806823Y-75661313D01*
G37*
G36*
X128106823Y-75661313D02*
G01*
X128267242Y-75709976D01*
X128399906Y-75780886D01*
X128415078Y-75788996D01*
X128544659Y-75895341D01*
X128651004Y-76024922D01*
X128651005Y-76024924D01*
X128730024Y-76172758D01*
X128778687Y-76333177D01*
X128795117Y-76500000D01*
X128778687Y-76666823D01*
X128730024Y-76827242D01*
X128659114Y-76959906D01*
X128651004Y-76975078D01*
X128544659Y-77104659D01*
X128415078Y-77211004D01*
X128415076Y-77211005D01*
X128267242Y-77290024D01*
X128106823Y-77338687D01*
X127981804Y-77351000D01*
X127898196Y-77351000D01*
X127773177Y-77338687D01*
X127612758Y-77290024D01*
X127464924Y-77211005D01*
X127464922Y-77211004D01*
X127335341Y-77104659D01*
X127228996Y-76975078D01*
X127220886Y-76959906D01*
X127149976Y-76827242D01*
X127101313Y-76666823D01*
X127084883Y-76500000D01*
X127101313Y-76333177D01*
X127149976Y-76172758D01*
X127228995Y-76024924D01*
X127228996Y-76024922D01*
X127335341Y-75895341D01*
X127464922Y-75788996D01*
X127480094Y-75780886D01*
X127612758Y-75709976D01*
X127773177Y-75661313D01*
X127898196Y-75649000D01*
X127981804Y-75649000D01*
X128106823Y-75661313D01*
X128106823Y-75661313D01*
G37*
G36*
X150966823Y-75661313D02*
G01*
X151127242Y-75709976D01*
X151259906Y-75780886D01*
X151275078Y-75788996D01*
X151404659Y-75895341D01*
X151511004Y-76024922D01*
X151511005Y-76024924D01*
X151590024Y-76172758D01*
X151638687Y-76333177D01*
X151655117Y-76500000D01*
X151638687Y-76666823D01*
X151590024Y-76827242D01*
X151519114Y-76959906D01*
X151511004Y-76975078D01*
X151404659Y-77104659D01*
X151275078Y-77211004D01*
X151275076Y-77211005D01*
X151127242Y-77290024D01*
X150966823Y-77338687D01*
X150841804Y-77351000D01*
X150758196Y-77351000D01*
X150633177Y-77338687D01*
X150472758Y-77290024D01*
X150324924Y-77211005D01*
X150324922Y-77211004D01*
X150195341Y-77104659D01*
X150088996Y-76975078D01*
X150080886Y-76959906D01*
X150009976Y-76827242D01*
X149961313Y-76666823D01*
X149944883Y-76500000D01*
X149961313Y-76333177D01*
X150009976Y-76172758D01*
X150088995Y-76024924D01*
X150088996Y-76024922D01*
X150195341Y-75895341D01*
X150324922Y-75788996D01*
X150340094Y-75780886D01*
X150472758Y-75709976D01*
X150633177Y-75661313D01*
X150758196Y-75649000D01*
X150841804Y-75649000D01*
X150966823Y-75661313D01*
X150966823Y-75661313D01*
G37*
G36*
X85894072Y-72950918D02*
G01*
X86139939Y-73052759D01*
X86361212Y-73200610D01*
X86549390Y-73388788D01*
X86697241Y-73610061D01*
X86799082Y-73855928D01*
X86851000Y-74116938D01*
X86851000Y-74383062D01*
X86799082Y-74644072D01*
X86697241Y-74889939D01*
X86549390Y-75111212D01*
X86361212Y-75299390D01*
X86139939Y-75447241D01*
X86139938Y-75447242D01*
X86139937Y-75447242D01*
X85894072Y-75549082D01*
X85633063Y-75601000D01*
X85366937Y-75601000D01*
X85105928Y-75549082D01*
X84860063Y-75447242D01*
X84860062Y-75447242D01*
X84860061Y-75447241D01*
X84638788Y-75299390D01*
X84450610Y-75111212D01*
X84302759Y-74889939D01*
X84200918Y-74644072D01*
X84149000Y-74383062D01*
X84149000Y-74116938D01*
X84200918Y-73855928D01*
X84302759Y-73610061D01*
X84450610Y-73388788D01*
X84638788Y-73200610D01*
X84860061Y-73052759D01*
X85105928Y-72950918D01*
X85366937Y-72899000D01*
X85633063Y-72899000D01*
X85894072Y-72950918D01*
X85894072Y-72950918D01*
G37*
G36*
X148110442Y-70765518D02*
G01*
X148176627Y-70772037D01*
X148346466Y-70823557D01*
X148502991Y-70907222D01*
X148538729Y-70936552D01*
X148640186Y-71019814D01*
X148723448Y-71121271D01*
X148752778Y-71157009D01*
X148836443Y-71313534D01*
X148887963Y-71483373D01*
X148905359Y-71660000D01*
X148887963Y-71836627D01*
X148836443Y-72006466D01*
X148752778Y-72162991D01*
X148723448Y-72198729D01*
X148640186Y-72300186D01*
X148538729Y-72383448D01*
X148502991Y-72412778D01*
X148346466Y-72496443D01*
X148176627Y-72547963D01*
X148110443Y-72554481D01*
X148044260Y-72561000D01*
X147955740Y-72561000D01*
X147889557Y-72554481D01*
X147823373Y-72547963D01*
X147653534Y-72496443D01*
X147497009Y-72412778D01*
X147461271Y-72383448D01*
X147359814Y-72300186D01*
X147276552Y-72198729D01*
X147247222Y-72162991D01*
X147163557Y-72006466D01*
X147112037Y-71836627D01*
X147094641Y-71660000D01*
X147112037Y-71483373D01*
X147163557Y-71313534D01*
X147247222Y-71157009D01*
X147276552Y-71121271D01*
X147359814Y-71019814D01*
X147461271Y-70936552D01*
X147497009Y-70907222D01*
X147653534Y-70823557D01*
X147823373Y-70772037D01*
X147889558Y-70765518D01*
X147955740Y-70759000D01*
X148044260Y-70759000D01*
X148110442Y-70765518D01*
X148110442Y-70765518D01*
G37*
G36*
X145570442Y-70765518D02*
G01*
X145636627Y-70772037D01*
X145806466Y-70823557D01*
X145962991Y-70907222D01*
X145998729Y-70936552D01*
X146100186Y-71019814D01*
X146183448Y-71121271D01*
X146212778Y-71157009D01*
X146296443Y-71313534D01*
X146347963Y-71483373D01*
X146365359Y-71660000D01*
X146347963Y-71836627D01*
X146296443Y-72006466D01*
X146212778Y-72162991D01*
X146183448Y-72198729D01*
X146100186Y-72300186D01*
X145998729Y-72383448D01*
X145962991Y-72412778D01*
X145806466Y-72496443D01*
X145636627Y-72547963D01*
X145570443Y-72554481D01*
X145504260Y-72561000D01*
X145415740Y-72561000D01*
X145349557Y-72554481D01*
X145283373Y-72547963D01*
X145113534Y-72496443D01*
X144957009Y-72412778D01*
X144921271Y-72383448D01*
X144819814Y-72300186D01*
X144736552Y-72198729D01*
X144707222Y-72162991D01*
X144623557Y-72006466D01*
X144572037Y-71836627D01*
X144554641Y-71660000D01*
X144572037Y-71483373D01*
X144623557Y-71313534D01*
X144707222Y-71157009D01*
X144736552Y-71121271D01*
X144819814Y-71019814D01*
X144921271Y-70936552D01*
X144957009Y-70907222D01*
X145113534Y-70823557D01*
X145283373Y-70772037D01*
X145349558Y-70765518D01*
X145415740Y-70759000D01*
X145504260Y-70759000D01*
X145570442Y-70765518D01*
X145570442Y-70765518D01*
G37*
G36*
X86851000Y-70601000D02*
G01*
X84149000Y-70601000D01*
X84149000Y-67899000D01*
X86851000Y-67899000D01*
X86851000Y-70601000D01*
X86851000Y-70601000D01*
G37*
G36*
X145570443Y-68225519D02*
G01*
X145636627Y-68232037D01*
X145806466Y-68283557D01*
X145962991Y-68367222D01*
X145998729Y-68396552D01*
X146100186Y-68479814D01*
X146183448Y-68581271D01*
X146212778Y-68617009D01*
X146296443Y-68773534D01*
X146347963Y-68943373D01*
X146365359Y-69120000D01*
X146347963Y-69296627D01*
X146296443Y-69466466D01*
X146212778Y-69622991D01*
X146183448Y-69658729D01*
X146100186Y-69760186D01*
X145998729Y-69843448D01*
X145962991Y-69872778D01*
X145806466Y-69956443D01*
X145636627Y-70007963D01*
X145570443Y-70014481D01*
X145504260Y-70021000D01*
X145415740Y-70021000D01*
X145349557Y-70014481D01*
X145283373Y-70007963D01*
X145113534Y-69956443D01*
X144957009Y-69872778D01*
X144921271Y-69843448D01*
X144819814Y-69760186D01*
X144736552Y-69658729D01*
X144707222Y-69622991D01*
X144623557Y-69466466D01*
X144572037Y-69296627D01*
X144554641Y-69120000D01*
X144572037Y-68943373D01*
X144623557Y-68773534D01*
X144707222Y-68617009D01*
X144736552Y-68581271D01*
X144819814Y-68479814D01*
X144921271Y-68396552D01*
X144957009Y-68367222D01*
X145113534Y-68283557D01*
X145283373Y-68232037D01*
X145349557Y-68225519D01*
X145415740Y-68219000D01*
X145504260Y-68219000D01*
X145570443Y-68225519D01*
X145570443Y-68225519D01*
G37*
G36*
X148110443Y-68225519D02*
G01*
X148176627Y-68232037D01*
X148346466Y-68283557D01*
X148502991Y-68367222D01*
X148538729Y-68396552D01*
X148640186Y-68479814D01*
X148723448Y-68581271D01*
X148752778Y-68617009D01*
X148836443Y-68773534D01*
X148887963Y-68943373D01*
X148905359Y-69120000D01*
X148887963Y-69296627D01*
X148836443Y-69466466D01*
X148752778Y-69622991D01*
X148723448Y-69658729D01*
X148640186Y-69760186D01*
X148538729Y-69843448D01*
X148502991Y-69872778D01*
X148346466Y-69956443D01*
X148176627Y-70007963D01*
X148110443Y-70014481D01*
X148044260Y-70021000D01*
X147955740Y-70021000D01*
X147889557Y-70014481D01*
X147823373Y-70007963D01*
X147653534Y-69956443D01*
X147497009Y-69872778D01*
X147461271Y-69843448D01*
X147359814Y-69760186D01*
X147276552Y-69658729D01*
X147247222Y-69622991D01*
X147163557Y-69466466D01*
X147112037Y-69296627D01*
X147094641Y-69120000D01*
X147112037Y-68943373D01*
X147163557Y-68773534D01*
X147247222Y-68617009D01*
X147276552Y-68581271D01*
X147359814Y-68479814D01*
X147461271Y-68396552D01*
X147497009Y-68367222D01*
X147653534Y-68283557D01*
X147823373Y-68232037D01*
X147889557Y-68225519D01*
X147955740Y-68219000D01*
X148044260Y-68219000D01*
X148110443Y-68225519D01*
X148110443Y-68225519D01*
G37*
G36*
X148110443Y-65685519D02*
G01*
X148176627Y-65692037D01*
X148346466Y-65743557D01*
X148502991Y-65827222D01*
X148538729Y-65856552D01*
X148640186Y-65939814D01*
X148723448Y-66041271D01*
X148752778Y-66077009D01*
X148836443Y-66233534D01*
X148887963Y-66403373D01*
X148905359Y-66580000D01*
X148887963Y-66756627D01*
X148836443Y-66926466D01*
X148752778Y-67082991D01*
X148723448Y-67118729D01*
X148640186Y-67220186D01*
X148538729Y-67303448D01*
X148502991Y-67332778D01*
X148346466Y-67416443D01*
X148176627Y-67467963D01*
X148110442Y-67474482D01*
X148044260Y-67481000D01*
X147955740Y-67481000D01*
X147889558Y-67474482D01*
X147823373Y-67467963D01*
X147653534Y-67416443D01*
X147497009Y-67332778D01*
X147461271Y-67303448D01*
X147359814Y-67220186D01*
X147276552Y-67118729D01*
X147247222Y-67082991D01*
X147163557Y-66926466D01*
X147112037Y-66756627D01*
X147094641Y-66580000D01*
X147112037Y-66403373D01*
X147163557Y-66233534D01*
X147247222Y-66077009D01*
X147276552Y-66041271D01*
X147359814Y-65939814D01*
X147461271Y-65856552D01*
X147497009Y-65827222D01*
X147653534Y-65743557D01*
X147823373Y-65692037D01*
X147889557Y-65685519D01*
X147955740Y-65679000D01*
X148044260Y-65679000D01*
X148110443Y-65685519D01*
X148110443Y-65685519D01*
G37*
G36*
X145570443Y-65685519D02*
G01*
X145636627Y-65692037D01*
X145806466Y-65743557D01*
X145962991Y-65827222D01*
X145998729Y-65856552D01*
X146100186Y-65939814D01*
X146183448Y-66041271D01*
X146212778Y-66077009D01*
X146296443Y-66233534D01*
X146347963Y-66403373D01*
X146365359Y-66580000D01*
X146347963Y-66756627D01*
X146296443Y-66926466D01*
X146212778Y-67082991D01*
X146183448Y-67118729D01*
X146100186Y-67220186D01*
X145998729Y-67303448D01*
X145962991Y-67332778D01*
X145806466Y-67416443D01*
X145636627Y-67467963D01*
X145570442Y-67474482D01*
X145504260Y-67481000D01*
X145415740Y-67481000D01*
X145349558Y-67474482D01*
X145283373Y-67467963D01*
X145113534Y-67416443D01*
X144957009Y-67332778D01*
X144921271Y-67303448D01*
X144819814Y-67220186D01*
X144736552Y-67118729D01*
X144707222Y-67082991D01*
X144623557Y-66926466D01*
X144572037Y-66756627D01*
X144554641Y-66580000D01*
X144572037Y-66403373D01*
X144623557Y-66233534D01*
X144707222Y-66077009D01*
X144736552Y-66041271D01*
X144819814Y-65939814D01*
X144921271Y-65856552D01*
X144957009Y-65827222D01*
X145113534Y-65743557D01*
X145283373Y-65692037D01*
X145349557Y-65685519D01*
X145415740Y-65679000D01*
X145504260Y-65679000D01*
X145570443Y-65685519D01*
X145570443Y-65685519D01*
G37*
G36*
X145570442Y-63145518D02*
G01*
X145636627Y-63152037D01*
X145806466Y-63203557D01*
X145962991Y-63287222D01*
X145998729Y-63316552D01*
X146100186Y-63399814D01*
X146183448Y-63501271D01*
X146212778Y-63537009D01*
X146296443Y-63693534D01*
X146347963Y-63863373D01*
X146365359Y-64040000D01*
X146347963Y-64216627D01*
X146296443Y-64386466D01*
X146212778Y-64542991D01*
X146183448Y-64578729D01*
X146100186Y-64680186D01*
X145998729Y-64763448D01*
X145962991Y-64792778D01*
X145806466Y-64876443D01*
X145636627Y-64927963D01*
X145570443Y-64934481D01*
X145504260Y-64941000D01*
X145415740Y-64941000D01*
X145349557Y-64934481D01*
X145283373Y-64927963D01*
X145113534Y-64876443D01*
X144957009Y-64792778D01*
X144921271Y-64763448D01*
X144819814Y-64680186D01*
X144736552Y-64578729D01*
X144707222Y-64542991D01*
X144623557Y-64386466D01*
X144572037Y-64216627D01*
X144554641Y-64040000D01*
X144572037Y-63863373D01*
X144623557Y-63693534D01*
X144707222Y-63537009D01*
X144736552Y-63501271D01*
X144819814Y-63399814D01*
X144921271Y-63316552D01*
X144957009Y-63287222D01*
X145113534Y-63203557D01*
X145283373Y-63152037D01*
X145349558Y-63145518D01*
X145415740Y-63139000D01*
X145504260Y-63139000D01*
X145570442Y-63145518D01*
X145570442Y-63145518D01*
G37*
G36*
X148110442Y-63145518D02*
G01*
X148176627Y-63152037D01*
X148346466Y-63203557D01*
X148502991Y-63287222D01*
X148538729Y-63316552D01*
X148640186Y-63399814D01*
X148723448Y-63501271D01*
X148752778Y-63537009D01*
X148836443Y-63693534D01*
X148887963Y-63863373D01*
X148905359Y-64040000D01*
X148887963Y-64216627D01*
X148836443Y-64386466D01*
X148752778Y-64542991D01*
X148723448Y-64578729D01*
X148640186Y-64680186D01*
X148538729Y-64763448D01*
X148502991Y-64792778D01*
X148346466Y-64876443D01*
X148176627Y-64927963D01*
X148110443Y-64934481D01*
X148044260Y-64941000D01*
X147955740Y-64941000D01*
X147889557Y-64934481D01*
X147823373Y-64927963D01*
X147653534Y-64876443D01*
X147497009Y-64792778D01*
X147461271Y-64763448D01*
X147359814Y-64680186D01*
X147276552Y-64578729D01*
X147247222Y-64542991D01*
X147163557Y-64386466D01*
X147112037Y-64216627D01*
X147094641Y-64040000D01*
X147112037Y-63863373D01*
X147163557Y-63693534D01*
X147247222Y-63537009D01*
X147276552Y-63501271D01*
X147359814Y-63399814D01*
X147461271Y-63316552D01*
X147497009Y-63287222D01*
X147653534Y-63203557D01*
X147823373Y-63152037D01*
X147889558Y-63145518D01*
X147955740Y-63139000D01*
X148044260Y-63139000D01*
X148110442Y-63145518D01*
X148110442Y-63145518D01*
G37*
G36*
X130894072Y-62200918D02*
G01*
X131139939Y-62302759D01*
X131190349Y-62336442D01*
X131361211Y-62450609D01*
X131549391Y-62638789D01*
X131697242Y-62860063D01*
X131799082Y-63105928D01*
X131851000Y-63366937D01*
X131851000Y-63633063D01*
X131821292Y-63782415D01*
X131799082Y-63894072D01*
X131697241Y-64139939D01*
X131549390Y-64361212D01*
X131361212Y-64549390D01*
X131139939Y-64697241D01*
X131139938Y-64697242D01*
X131139937Y-64697242D01*
X130894072Y-64799082D01*
X130633063Y-64851000D01*
X130366937Y-64851000D01*
X130105928Y-64799082D01*
X129860063Y-64697242D01*
X129860062Y-64697242D01*
X129860061Y-64697241D01*
X129638788Y-64549390D01*
X129450610Y-64361212D01*
X129302759Y-64139939D01*
X129200918Y-63894072D01*
X129178708Y-63782415D01*
X129149000Y-63633063D01*
X129149000Y-63366937D01*
X129200918Y-63105928D01*
X129302758Y-62860063D01*
X129450609Y-62638789D01*
X129638789Y-62450609D01*
X129809651Y-62336442D01*
X129860061Y-62302759D01*
X130105928Y-62200918D01*
X130366937Y-62149000D01*
X130633063Y-62149000D01*
X130894072Y-62200918D01*
X130894072Y-62200918D01*
G37*
G36*
X120894072Y-62200918D02*
G01*
X121139939Y-62302759D01*
X121190349Y-62336442D01*
X121361211Y-62450609D01*
X121549391Y-62638789D01*
X121697242Y-62860063D01*
X121799082Y-63105928D01*
X121851000Y-63366937D01*
X121851000Y-63633063D01*
X121821292Y-63782415D01*
X121799082Y-63894072D01*
X121697241Y-64139939D01*
X121549390Y-64361212D01*
X121361212Y-64549390D01*
X121139939Y-64697241D01*
X121139938Y-64697242D01*
X121139937Y-64697242D01*
X120894072Y-64799082D01*
X120633063Y-64851000D01*
X120366937Y-64851000D01*
X120105928Y-64799082D01*
X119860063Y-64697242D01*
X119860062Y-64697242D01*
X119860061Y-64697241D01*
X119638788Y-64549390D01*
X119450610Y-64361212D01*
X119302759Y-64139939D01*
X119200918Y-63894072D01*
X119178708Y-63782415D01*
X119149000Y-63633063D01*
X119149000Y-63366937D01*
X119200918Y-63105928D01*
X119302758Y-62860063D01*
X119450609Y-62638789D01*
X119638789Y-62450609D01*
X119809651Y-62336442D01*
X119860061Y-62302759D01*
X120105928Y-62200918D01*
X120366937Y-62149000D01*
X120633063Y-62149000D01*
X120894072Y-62200918D01*
X120894072Y-62200918D01*
G37*
G36*
X115894072Y-62200918D02*
G01*
X116139939Y-62302759D01*
X116190349Y-62336442D01*
X116361211Y-62450609D01*
X116549391Y-62638789D01*
X116697242Y-62860063D01*
X116799082Y-63105928D01*
X116851000Y-63366937D01*
X116851000Y-63633063D01*
X116821292Y-63782415D01*
X116799082Y-63894072D01*
X116697241Y-64139939D01*
X116549390Y-64361212D01*
X116361212Y-64549390D01*
X116139939Y-64697241D01*
X116139938Y-64697242D01*
X116139937Y-64697242D01*
X115894072Y-64799082D01*
X115633063Y-64851000D01*
X115366937Y-64851000D01*
X115105928Y-64799082D01*
X114860063Y-64697242D01*
X114860062Y-64697242D01*
X114860061Y-64697241D01*
X114638788Y-64549390D01*
X114450610Y-64361212D01*
X114302759Y-64139939D01*
X114200918Y-63894072D01*
X114178708Y-63782415D01*
X114149000Y-63633063D01*
X114149000Y-63366937D01*
X114200918Y-63105928D01*
X114302758Y-62860063D01*
X114450609Y-62638789D01*
X114638789Y-62450609D01*
X114809651Y-62336442D01*
X114860061Y-62302759D01*
X115105928Y-62200918D01*
X115366937Y-62149000D01*
X115633063Y-62149000D01*
X115894072Y-62200918D01*
X115894072Y-62200918D01*
G37*
G36*
X125894072Y-62200918D02*
G01*
X126139939Y-62302759D01*
X126190349Y-62336442D01*
X126361211Y-62450609D01*
X126549391Y-62638789D01*
X126697242Y-62860063D01*
X126799082Y-63105928D01*
X126851000Y-63366937D01*
X126851000Y-63633063D01*
X126821292Y-63782415D01*
X126799082Y-63894072D01*
X126697241Y-64139939D01*
X126549390Y-64361212D01*
X126361212Y-64549390D01*
X126139939Y-64697241D01*
X126139938Y-64697242D01*
X126139937Y-64697242D01*
X125894072Y-64799082D01*
X125633063Y-64851000D01*
X125366937Y-64851000D01*
X125105928Y-64799082D01*
X124860063Y-64697242D01*
X124860062Y-64697242D01*
X124860061Y-64697241D01*
X124638788Y-64549390D01*
X124450610Y-64361212D01*
X124302759Y-64139939D01*
X124200918Y-63894072D01*
X124178708Y-63782415D01*
X124149000Y-63633063D01*
X124149000Y-63366937D01*
X124200918Y-63105928D01*
X124302758Y-62860063D01*
X124450609Y-62638789D01*
X124638789Y-62450609D01*
X124809651Y-62336442D01*
X124860061Y-62302759D01*
X125105928Y-62200918D01*
X125366937Y-62149000D01*
X125633063Y-62149000D01*
X125894072Y-62200918D01*
X125894072Y-62200918D01*
G37*
G36*
X110894072Y-62200918D02*
G01*
X111139939Y-62302759D01*
X111190349Y-62336442D01*
X111361211Y-62450609D01*
X111549391Y-62638789D01*
X111697242Y-62860063D01*
X111799082Y-63105928D01*
X111851000Y-63366937D01*
X111851000Y-63633063D01*
X111821292Y-63782415D01*
X111799082Y-63894072D01*
X111697241Y-64139939D01*
X111549390Y-64361212D01*
X111361212Y-64549390D01*
X111139939Y-64697241D01*
X111139938Y-64697242D01*
X111139937Y-64697242D01*
X110894072Y-64799082D01*
X110633063Y-64851000D01*
X110366937Y-64851000D01*
X110105928Y-64799082D01*
X109860063Y-64697242D01*
X109860062Y-64697242D01*
X109860061Y-64697241D01*
X109638788Y-64549390D01*
X109450610Y-64361212D01*
X109302759Y-64139939D01*
X109200918Y-63894072D01*
X109178708Y-63782415D01*
X109149000Y-63633063D01*
X109149000Y-63366937D01*
X109200918Y-63105928D01*
X109302758Y-62860063D01*
X109450609Y-62638789D01*
X109638789Y-62450609D01*
X109809651Y-62336442D01*
X109860061Y-62302759D01*
X110105928Y-62200918D01*
X110366937Y-62149000D01*
X110633063Y-62149000D01*
X110894072Y-62200918D01*
X110894072Y-62200918D01*
G37*
G36*
X105894072Y-62200918D02*
G01*
X106139939Y-62302759D01*
X106190349Y-62336442D01*
X106361211Y-62450609D01*
X106549391Y-62638789D01*
X106697242Y-62860063D01*
X106799082Y-63105928D01*
X106851000Y-63366937D01*
X106851000Y-63633063D01*
X106821292Y-63782415D01*
X106799082Y-63894072D01*
X106697241Y-64139939D01*
X106549390Y-64361212D01*
X106361212Y-64549390D01*
X106139939Y-64697241D01*
X106139938Y-64697242D01*
X106139937Y-64697242D01*
X105894072Y-64799082D01*
X105633063Y-64851000D01*
X105366937Y-64851000D01*
X105105928Y-64799082D01*
X104860063Y-64697242D01*
X104860062Y-64697242D01*
X104860061Y-64697241D01*
X104638788Y-64549390D01*
X104450610Y-64361212D01*
X104302759Y-64139939D01*
X104200918Y-63894072D01*
X104178708Y-63782415D01*
X104149000Y-63633063D01*
X104149000Y-63366937D01*
X104200918Y-63105928D01*
X104302758Y-62860063D01*
X104450609Y-62638789D01*
X104638789Y-62450609D01*
X104809651Y-62336442D01*
X104860061Y-62302759D01*
X105105928Y-62200918D01*
X105366937Y-62149000D01*
X105633063Y-62149000D01*
X105894072Y-62200918D01*
X105894072Y-62200918D01*
G37*
G36*
X100894072Y-62200918D02*
G01*
X101139939Y-62302759D01*
X101190349Y-62336442D01*
X101361211Y-62450609D01*
X101549391Y-62638789D01*
X101697242Y-62860063D01*
X101799082Y-63105928D01*
X101851000Y-63366937D01*
X101851000Y-63633063D01*
X101821292Y-63782415D01*
X101799082Y-63894072D01*
X101697241Y-64139939D01*
X101549390Y-64361212D01*
X101361212Y-64549390D01*
X101139939Y-64697241D01*
X101139938Y-64697242D01*
X101139937Y-64697242D01*
X100894072Y-64799082D01*
X100633063Y-64851000D01*
X100366937Y-64851000D01*
X100105928Y-64799082D01*
X99860063Y-64697242D01*
X99860062Y-64697242D01*
X99860061Y-64697241D01*
X99638788Y-64549390D01*
X99450610Y-64361212D01*
X99302759Y-64139939D01*
X99200918Y-63894072D01*
X99178708Y-63782415D01*
X99149000Y-63633063D01*
X99149000Y-63366937D01*
X99200918Y-63105928D01*
X99302758Y-62860063D01*
X99450609Y-62638789D01*
X99638789Y-62450609D01*
X99809651Y-62336442D01*
X99860061Y-62302759D01*
X100105928Y-62200918D01*
X100366937Y-62149000D01*
X100633063Y-62149000D01*
X100894072Y-62200918D01*
X100894072Y-62200918D01*
G37*
G36*
X96851000Y-64851000D02*
G01*
X94149000Y-64851000D01*
X94149000Y-62149000D01*
X96851000Y-62149000D01*
X96851000Y-64851000D01*
X96851000Y-64851000D01*
G37*
G36*
X83875256Y-60891298D02*
G01*
X83981579Y-60912447D01*
X84282042Y-61036903D01*
X84552451Y-61217585D01*
X84782415Y-61447549D01*
X84963097Y-61717958D01*
X85081162Y-62002991D01*
X85087553Y-62018422D01*
X85150812Y-62336443D01*
X85151000Y-62337391D01*
X85151000Y-62662609D01*
X85087553Y-62981579D01*
X84963097Y-63282042D01*
X84782415Y-63552451D01*
X84552451Y-63782415D01*
X84282042Y-63963097D01*
X83981579Y-64087553D01*
X83875256Y-64108702D01*
X83662611Y-64151000D01*
X83337389Y-64151000D01*
X83124744Y-64108702D01*
X83018421Y-64087553D01*
X82717958Y-63963097D01*
X82447549Y-63782415D01*
X82217585Y-63552451D01*
X82036903Y-63282042D01*
X81912447Y-62981579D01*
X81849000Y-62662609D01*
X81849000Y-62337391D01*
X81849189Y-62336443D01*
X81912447Y-62018422D01*
X81918839Y-62002991D01*
X82036903Y-61717958D01*
X82217585Y-61447549D01*
X82447549Y-61217585D01*
X82717958Y-61036903D01*
X83018421Y-60912447D01*
X83124744Y-60891298D01*
X83337389Y-60849000D01*
X83662611Y-60849000D01*
X83875256Y-60891298D01*
X83875256Y-60891298D01*
G37*
G36*
X164375256Y-60891298D02*
G01*
X164481579Y-60912447D01*
X164782042Y-61036903D01*
X165052451Y-61217585D01*
X165282415Y-61447549D01*
X165463097Y-61717958D01*
X165581162Y-62002991D01*
X165587553Y-62018422D01*
X165650812Y-62336443D01*
X165651000Y-62337391D01*
X165651000Y-62662609D01*
X165587553Y-62981579D01*
X165463097Y-63282042D01*
X165282415Y-63552451D01*
X165052451Y-63782415D01*
X164782042Y-63963097D01*
X164481579Y-64087553D01*
X164375256Y-64108702D01*
X164162611Y-64151000D01*
X163837389Y-64151000D01*
X163624744Y-64108702D01*
X163518421Y-64087553D01*
X163217958Y-63963097D01*
X162947549Y-63782415D01*
X162717585Y-63552451D01*
X162536903Y-63282042D01*
X162412447Y-62981579D01*
X162349000Y-62662609D01*
X162349000Y-62337391D01*
X162349189Y-62336443D01*
X162412447Y-62018422D01*
X162418839Y-62002991D01*
X162536903Y-61717958D01*
X162717585Y-61447549D01*
X162947549Y-61217585D01*
X163217958Y-61036903D01*
X163518421Y-60912447D01*
X163624744Y-60891298D01*
X163837389Y-60849000D01*
X164162611Y-60849000D01*
X164375256Y-60891298D01*
X164375256Y-60891298D01*
G37*
G36*
X148901000Y-62401000D02*
G01*
X147099000Y-62401000D01*
X147099000Y-60599000D01*
X148901000Y-60599000D01*
X148901000Y-62401000D01*
X148901000Y-62401000D01*
G37*
G36*
X145570442Y-60605518D02*
G01*
X145636627Y-60612037D01*
X145806466Y-60663557D01*
X145962991Y-60747222D01*
X145998729Y-60776552D01*
X146100186Y-60859814D01*
X146183448Y-60961271D01*
X146212778Y-60997009D01*
X146296443Y-61153534D01*
X146347963Y-61323373D01*
X146365359Y-61500000D01*
X146347963Y-61676627D01*
X146296443Y-61846466D01*
X146212778Y-62002991D01*
X146200114Y-62018422D01*
X146100186Y-62140186D01*
X145998729Y-62223448D01*
X145962991Y-62252778D01*
X145806466Y-62336443D01*
X145636627Y-62387963D01*
X145570443Y-62394481D01*
X145504260Y-62401000D01*
X145415740Y-62401000D01*
X145349557Y-62394481D01*
X145283373Y-62387963D01*
X145113534Y-62336443D01*
X144957009Y-62252778D01*
X144921271Y-62223448D01*
X144819814Y-62140186D01*
X144719886Y-62018422D01*
X144707222Y-62002991D01*
X144623557Y-61846466D01*
X144572037Y-61676627D01*
X144554641Y-61500000D01*
X144572037Y-61323373D01*
X144623557Y-61153534D01*
X144707222Y-60997009D01*
X144736552Y-60961271D01*
X144819814Y-60859814D01*
X144921271Y-60776552D01*
X144957009Y-60747222D01*
X145113534Y-60663557D01*
X145283373Y-60612037D01*
X145349558Y-60605518D01*
X145415740Y-60599000D01*
X145504260Y-60599000D01*
X145570442Y-60605518D01*
X145570442Y-60605518D01*
G37*
M02*
