G04 #@! TF.GenerationSoftware,KiCad,Pcbnew,(5.1.2)-2*
G04 #@! TF.CreationDate,2020-02-16T13:47:15-06:00*
G04 #@! TF.ProjectId,AutoSteer7,4175746f-5374-4656-9572-372e6b696361,rev?*
G04 #@! TF.SameCoordinates,Original*
G04 #@! TF.FileFunction,Copper,L2,Bot*
G04 #@! TF.FilePolarity,Positive*
%FSLAX46Y46*%
G04 Gerber Fmt 4.6, Leading zero omitted, Abs format (unit mm)*
G04 Created by KiCad (PCBNEW (5.1.2)-2) date 2020-02-16 13:47:15*
%MOMM*%
%LPD*%
G04 APERTURE LIST*
%ADD10C,2.600000*%
%ADD11R,2.600000X2.600000*%
%ADD12O,1.700000X1.700000*%
%ADD13R,1.700000X1.700000*%
%ADD14O,1.600000X1.600000*%
%ADD15C,1.600000*%
%ADD16R,1.600000X1.600000*%
%ADD17C,3.500000*%
%ADD18C,1.700000*%
%ADD19C,1.590000*%
%ADD20C,1.800000*%
%ADD21R,1.800000X1.800000*%
%ADD22C,2.000000*%
%ADD23R,2.000000X2.000000*%
%ADD24C,0.800000*%
%ADD25C,1.270000*%
%ADD26C,0.254000*%
G04 APERTURE END LIST*
D10*
X130500000Y-63500000D03*
X125500000Y-63500000D03*
X120500000Y-63500000D03*
X115500000Y-63500000D03*
X110500000Y-63500000D03*
X105500000Y-63500000D03*
X100500000Y-63500000D03*
D11*
X95500000Y-63500000D03*
D12*
X145460000Y-71660000D03*
X148000000Y-71660000D03*
X145460000Y-69120000D03*
X148000000Y-69120000D03*
X145460000Y-66580000D03*
X148000000Y-66580000D03*
X145460000Y-64040000D03*
X148000000Y-64040000D03*
X145460000Y-61500000D03*
D13*
X148000000Y-61500000D03*
D10*
X145797600Y-122000000D03*
X140797600Y-122000000D03*
X135797600Y-122000000D03*
X130797600Y-122000000D03*
X125797600Y-122000000D03*
X120797600Y-122000000D03*
X115797600Y-122000000D03*
X110797600Y-122000000D03*
D11*
X105797600Y-122000000D03*
D12*
X130000000Y-97070000D03*
X130000000Y-99610000D03*
X130000000Y-102150000D03*
D13*
X130000000Y-104690000D03*
D14*
X143000000Y-96340000D03*
D15*
X143000000Y-106500000D03*
D14*
X136650000Y-96340000D03*
D15*
X136650000Y-106500000D03*
D14*
X118000000Y-90160000D03*
D15*
X118000000Y-80000000D03*
D14*
X105500000Y-90160000D03*
D15*
X105500000Y-80000000D03*
D14*
X111750000Y-90160000D03*
D15*
X111750000Y-80000000D03*
D14*
X144660000Y-110500000D03*
D15*
X134500000Y-110500000D03*
D10*
X85500000Y-124250000D03*
X85500000Y-119250000D03*
X85500000Y-114250000D03*
X85500000Y-109250000D03*
X85500000Y-104250000D03*
X85500000Y-99250000D03*
X85500000Y-94250000D03*
X85500000Y-89250000D03*
X85500000Y-84250000D03*
X85500000Y-79250000D03*
X85500000Y-74250000D03*
D11*
X85500000Y-69250000D03*
D14*
X127940000Y-91740000D03*
X127940000Y-76500000D03*
X163500000Y-91740000D03*
X130480000Y-76500000D03*
X160960000Y-91740000D03*
X133020000Y-76500000D03*
X158420000Y-91740000D03*
X135560000Y-76500000D03*
X155880000Y-91740000D03*
X138100000Y-76500000D03*
X153340000Y-91740000D03*
X140640000Y-76500000D03*
X150800000Y-91740000D03*
X143180000Y-76500000D03*
X148260000Y-91740000D03*
X145720000Y-76500000D03*
X145720000Y-91740000D03*
X148260000Y-76500000D03*
X143180000Y-91740000D03*
X150800000Y-76500000D03*
X140640000Y-91740000D03*
X153340000Y-76500000D03*
X138100000Y-91740000D03*
X155880000Y-76500000D03*
X135560000Y-91740000D03*
X158420000Y-76500000D03*
X133020000Y-91740000D03*
X160960000Y-76500000D03*
X130480000Y-91740000D03*
D16*
X163500000Y-76500000D03*
D17*
X98500000Y-109380000D03*
X98500000Y-124620000D03*
D15*
X162000000Y-118000000D03*
X164500000Y-118000000D03*
X162000000Y-103000000D03*
X164500000Y-103000000D03*
D18*
X98463600Y-97049400D03*
X101003600Y-97049400D03*
X103543600Y-97049400D03*
X106083600Y-97049400D03*
X108623600Y-97049400D03*
X111163600Y-97049400D03*
X113703600Y-97049400D03*
X116243600Y-97049400D03*
X118783600Y-97049400D03*
X121323600Y-97049400D03*
D19*
X164500000Y-108083200D03*
X164500000Y-110623200D03*
X164500000Y-113163200D03*
D15*
X164000000Y-97000000D03*
X161500000Y-97000000D03*
D20*
X149500000Y-109960000D03*
D21*
X149500000Y-112500000D03*
D22*
X155500000Y-127500000D03*
D23*
X155500000Y-122500000D03*
D15*
X119000000Y-105000000D03*
X121500000Y-105000000D03*
D22*
X152994999Y-103000000D03*
D23*
X152994999Y-98000000D03*
D24*
X140000000Y-66500000D03*
D25*
X158420000Y-74460000D02*
X158420000Y-76500000D01*
X148000000Y-64040000D02*
X158420000Y-74460000D01*
X118804200Y-99610000D02*
X116243600Y-97049400D01*
X130000000Y-99610000D02*
X118804200Y-99610000D01*
X145460000Y-64060000D02*
X145460000Y-64040000D01*
X133020000Y-76500000D02*
X145460000Y-64060000D01*
X140000000Y-66980000D02*
X140000000Y-66500000D01*
X130480000Y-76500000D02*
X140000000Y-66980000D01*
D26*
G36*
X165362560Y-58698715D02*
G01*
X167071652Y-59941691D01*
X167154242Y-60094439D01*
X167289106Y-60530113D01*
X167340001Y-61014353D01*
X167340000Y-131967721D01*
X167292330Y-132453894D01*
X167272585Y-132519294D01*
X164998372Y-134338664D01*
X164985664Y-134340000D01*
X82441959Y-134340000D01*
X80163499Y-133428616D01*
X80126212Y-133383544D01*
X80108524Y-130779872D01*
X81265000Y-130779872D01*
X81265000Y-131220128D01*
X81350890Y-131651925D01*
X81519369Y-132058669D01*
X81763962Y-132424729D01*
X82075271Y-132736038D01*
X82441331Y-132980631D01*
X82848075Y-133149110D01*
X83279872Y-133235000D01*
X83720128Y-133235000D01*
X84151925Y-133149110D01*
X84558669Y-132980631D01*
X84924729Y-132736038D01*
X85236038Y-132424729D01*
X85480631Y-132058669D01*
X85649110Y-131651925D01*
X85735000Y-131220128D01*
X85735000Y-130779872D01*
X161765000Y-130779872D01*
X161765000Y-131220128D01*
X161850890Y-131651925D01*
X162019369Y-132058669D01*
X162263962Y-132424729D01*
X162575271Y-132736038D01*
X162941331Y-132980631D01*
X163348075Y-133149110D01*
X163779872Y-133235000D01*
X164220128Y-133235000D01*
X164651925Y-133149110D01*
X165058669Y-132980631D01*
X165424729Y-132736038D01*
X165736038Y-132424729D01*
X165980631Y-132058669D01*
X166149110Y-131651925D01*
X166235000Y-131220128D01*
X166235000Y-130779872D01*
X166149110Y-130348075D01*
X165980631Y-129941331D01*
X165736038Y-129575271D01*
X165424729Y-129263962D01*
X165058669Y-129019369D01*
X164651925Y-128850890D01*
X164220128Y-128765000D01*
X163779872Y-128765000D01*
X163348075Y-128850890D01*
X162941331Y-129019369D01*
X162575271Y-129263962D01*
X162263962Y-129575271D01*
X162019369Y-129941331D01*
X161850890Y-130348075D01*
X161765000Y-130779872D01*
X85735000Y-130779872D01*
X85649110Y-130348075D01*
X85480631Y-129941331D01*
X85236038Y-129575271D01*
X84924729Y-129263962D01*
X84558669Y-129019369D01*
X84151925Y-128850890D01*
X83720128Y-128765000D01*
X83279872Y-128765000D01*
X82848075Y-128850890D01*
X82441331Y-129019369D01*
X82075271Y-129263962D01*
X81763962Y-129575271D01*
X81519369Y-129941331D01*
X81350890Y-130348075D01*
X81265000Y-130779872D01*
X80108524Y-130779872D01*
X80093956Y-128635413D01*
X154544192Y-128635413D01*
X154639956Y-128899814D01*
X154929571Y-129040704D01*
X155241108Y-129122384D01*
X155562595Y-129141718D01*
X155881675Y-129097961D01*
X156186088Y-128992795D01*
X156360044Y-128899814D01*
X156455808Y-128635413D01*
X155500000Y-127679605D01*
X154544192Y-128635413D01*
X80093956Y-128635413D01*
X80086667Y-127562595D01*
X153858282Y-127562595D01*
X153902039Y-127881675D01*
X154007205Y-128186088D01*
X154100186Y-128360044D01*
X154364587Y-128455808D01*
X155320395Y-127500000D01*
X155679605Y-127500000D01*
X156635413Y-128455808D01*
X156899814Y-128360044D01*
X157040704Y-128070429D01*
X157122384Y-127758892D01*
X157141718Y-127437405D01*
X157097961Y-127118325D01*
X156992795Y-126813912D01*
X156899814Y-126639956D01*
X156635413Y-126544192D01*
X155679605Y-127500000D01*
X155320395Y-127500000D01*
X154364587Y-126544192D01*
X154100186Y-126639956D01*
X153959296Y-126929571D01*
X153877616Y-127241108D01*
X153858282Y-127562595D01*
X80086667Y-127562595D01*
X80073328Y-125599224D01*
X84330381Y-125599224D01*
X84462317Y-125894312D01*
X84803045Y-126065159D01*
X85170557Y-126166250D01*
X85550729Y-126193701D01*
X85928951Y-126146457D01*
X86290690Y-126026333D01*
X86537683Y-125894312D01*
X86669619Y-125599224D01*
X85500000Y-124429605D01*
X84330381Y-125599224D01*
X80073328Y-125599224D01*
X80064506Y-124300729D01*
X83556299Y-124300729D01*
X83603543Y-124678951D01*
X83723667Y-125040690D01*
X83855688Y-125287683D01*
X84150776Y-125419619D01*
X85320395Y-124250000D01*
X85679605Y-124250000D01*
X86849224Y-125419619D01*
X87144312Y-125287683D01*
X87315159Y-124946955D01*
X87416250Y-124579443D01*
X87430283Y-124385098D01*
X96115000Y-124385098D01*
X96115000Y-124854902D01*
X96206654Y-125315679D01*
X96386440Y-125749721D01*
X96647450Y-126140349D01*
X96979651Y-126472550D01*
X97370279Y-126733560D01*
X97804321Y-126913346D01*
X98265098Y-127005000D01*
X98734902Y-127005000D01*
X99195679Y-126913346D01*
X99629721Y-126733560D01*
X100020349Y-126472550D01*
X100128312Y-126364587D01*
X154544192Y-126364587D01*
X155500000Y-127320395D01*
X156455808Y-126364587D01*
X156360044Y-126100186D01*
X156070429Y-125959296D01*
X155758892Y-125877616D01*
X155437405Y-125858282D01*
X155118325Y-125902039D01*
X154813912Y-126007205D01*
X154639956Y-126100186D01*
X154544192Y-126364587D01*
X100128312Y-126364587D01*
X100352550Y-126140349D01*
X100613560Y-125749721D01*
X100793346Y-125315679D01*
X100885000Y-124854902D01*
X100885000Y-124385098D01*
X100793346Y-123924321D01*
X100613560Y-123490279D01*
X100486420Y-123300000D01*
X103859528Y-123300000D01*
X103871788Y-123424482D01*
X103908098Y-123544180D01*
X103967063Y-123654494D01*
X104046415Y-123751185D01*
X104143106Y-123830537D01*
X104253420Y-123889502D01*
X104373118Y-123925812D01*
X104497600Y-123938072D01*
X105511850Y-123935000D01*
X105670600Y-123776250D01*
X105670600Y-122127000D01*
X105924600Y-122127000D01*
X105924600Y-123776250D01*
X106083350Y-123935000D01*
X107097600Y-123938072D01*
X107222082Y-123925812D01*
X107341780Y-123889502D01*
X107452094Y-123830537D01*
X107548785Y-123751185D01*
X107628137Y-123654494D01*
X107687102Y-123544180D01*
X107723412Y-123424482D01*
X107730824Y-123349224D01*
X109627981Y-123349224D01*
X109759917Y-123644312D01*
X110100645Y-123815159D01*
X110468157Y-123916250D01*
X110848329Y-123943701D01*
X111226551Y-123896457D01*
X111588290Y-123776333D01*
X111835283Y-123644312D01*
X111967219Y-123349224D01*
X114627981Y-123349224D01*
X114759917Y-123644312D01*
X115100645Y-123815159D01*
X115468157Y-123916250D01*
X115848329Y-123943701D01*
X116226551Y-123896457D01*
X116588290Y-123776333D01*
X116835283Y-123644312D01*
X116967219Y-123349224D01*
X119627981Y-123349224D01*
X119759917Y-123644312D01*
X120100645Y-123815159D01*
X120468157Y-123916250D01*
X120848329Y-123943701D01*
X121226551Y-123896457D01*
X121588290Y-123776333D01*
X121835283Y-123644312D01*
X121967219Y-123349224D01*
X124627981Y-123349224D01*
X124759917Y-123644312D01*
X125100645Y-123815159D01*
X125468157Y-123916250D01*
X125848329Y-123943701D01*
X126226551Y-123896457D01*
X126588290Y-123776333D01*
X126835283Y-123644312D01*
X126967219Y-123349224D01*
X129627981Y-123349224D01*
X129759917Y-123644312D01*
X130100645Y-123815159D01*
X130468157Y-123916250D01*
X130848329Y-123943701D01*
X131226551Y-123896457D01*
X131588290Y-123776333D01*
X131835283Y-123644312D01*
X131967219Y-123349224D01*
X134627981Y-123349224D01*
X134759917Y-123644312D01*
X135100645Y-123815159D01*
X135468157Y-123916250D01*
X135848329Y-123943701D01*
X136226551Y-123896457D01*
X136588290Y-123776333D01*
X136835283Y-123644312D01*
X136967219Y-123349224D01*
X139627981Y-123349224D01*
X139759917Y-123644312D01*
X140100645Y-123815159D01*
X140468157Y-123916250D01*
X140848329Y-123943701D01*
X141226551Y-123896457D01*
X141588290Y-123776333D01*
X141835283Y-123644312D01*
X141967219Y-123349224D01*
X144627981Y-123349224D01*
X144759917Y-123644312D01*
X145100645Y-123815159D01*
X145468157Y-123916250D01*
X145848329Y-123943701D01*
X146226551Y-123896457D01*
X146588290Y-123776333D01*
X146835283Y-123644312D01*
X146967219Y-123349224D01*
X145797600Y-122179605D01*
X144627981Y-123349224D01*
X141967219Y-123349224D01*
X140797600Y-122179605D01*
X139627981Y-123349224D01*
X136967219Y-123349224D01*
X135797600Y-122179605D01*
X134627981Y-123349224D01*
X131967219Y-123349224D01*
X130797600Y-122179605D01*
X129627981Y-123349224D01*
X126967219Y-123349224D01*
X125797600Y-122179605D01*
X124627981Y-123349224D01*
X121967219Y-123349224D01*
X120797600Y-122179605D01*
X119627981Y-123349224D01*
X116967219Y-123349224D01*
X115797600Y-122179605D01*
X114627981Y-123349224D01*
X111967219Y-123349224D01*
X110797600Y-122179605D01*
X109627981Y-123349224D01*
X107730824Y-123349224D01*
X107735672Y-123300000D01*
X107732600Y-122285750D01*
X107573850Y-122127000D01*
X105924600Y-122127000D01*
X105670600Y-122127000D01*
X104021350Y-122127000D01*
X103862600Y-122285750D01*
X103859528Y-123300000D01*
X100486420Y-123300000D01*
X100352550Y-123099651D01*
X100020349Y-122767450D01*
X99629721Y-122506440D01*
X99195679Y-122326654D01*
X98734902Y-122235000D01*
X98265098Y-122235000D01*
X97804321Y-122326654D01*
X97370279Y-122506440D01*
X96979651Y-122767450D01*
X96647450Y-123099651D01*
X96386440Y-123490279D01*
X96206654Y-123924321D01*
X96115000Y-124385098D01*
X87430283Y-124385098D01*
X87443701Y-124199271D01*
X87396457Y-123821049D01*
X87276333Y-123459310D01*
X87144312Y-123212317D01*
X86849224Y-123080381D01*
X85679605Y-124250000D01*
X85320395Y-124250000D01*
X84150776Y-123080381D01*
X83855688Y-123212317D01*
X83684841Y-123553045D01*
X83583750Y-123920557D01*
X83556299Y-124300729D01*
X80064506Y-124300729D01*
X80054996Y-122900776D01*
X84330381Y-122900776D01*
X85500000Y-124070395D01*
X86669619Y-122900776D01*
X86537683Y-122605688D01*
X86196955Y-122434841D01*
X85829443Y-122333750D01*
X85449271Y-122306299D01*
X85071049Y-122353543D01*
X84709310Y-122473667D01*
X84462317Y-122605688D01*
X84330381Y-122900776D01*
X80054996Y-122900776D01*
X80049221Y-122050729D01*
X108853899Y-122050729D01*
X108901143Y-122428951D01*
X109021267Y-122790690D01*
X109153288Y-123037683D01*
X109448376Y-123169619D01*
X110617995Y-122000000D01*
X110977205Y-122000000D01*
X112146824Y-123169619D01*
X112441912Y-123037683D01*
X112612759Y-122696955D01*
X112713850Y-122329443D01*
X112733975Y-122050729D01*
X113853899Y-122050729D01*
X113901143Y-122428951D01*
X114021267Y-122790690D01*
X114153288Y-123037683D01*
X114448376Y-123169619D01*
X115617995Y-122000000D01*
X115977205Y-122000000D01*
X117146824Y-123169619D01*
X117441912Y-123037683D01*
X117612759Y-122696955D01*
X117713850Y-122329443D01*
X117733975Y-122050729D01*
X118853899Y-122050729D01*
X118901143Y-122428951D01*
X119021267Y-122790690D01*
X119153288Y-123037683D01*
X119448376Y-123169619D01*
X120617995Y-122000000D01*
X120977205Y-122000000D01*
X122146824Y-123169619D01*
X122441912Y-123037683D01*
X122612759Y-122696955D01*
X122713850Y-122329443D01*
X122733975Y-122050729D01*
X123853899Y-122050729D01*
X123901143Y-122428951D01*
X124021267Y-122790690D01*
X124153288Y-123037683D01*
X124448376Y-123169619D01*
X125617995Y-122000000D01*
X125977205Y-122000000D01*
X127146824Y-123169619D01*
X127441912Y-123037683D01*
X127612759Y-122696955D01*
X127713850Y-122329443D01*
X127733975Y-122050729D01*
X128853899Y-122050729D01*
X128901143Y-122428951D01*
X129021267Y-122790690D01*
X129153288Y-123037683D01*
X129448376Y-123169619D01*
X130617995Y-122000000D01*
X130977205Y-122000000D01*
X132146824Y-123169619D01*
X132441912Y-123037683D01*
X132612759Y-122696955D01*
X132713850Y-122329443D01*
X132733975Y-122050729D01*
X133853899Y-122050729D01*
X133901143Y-122428951D01*
X134021267Y-122790690D01*
X134153288Y-123037683D01*
X134448376Y-123169619D01*
X135617995Y-122000000D01*
X135977205Y-122000000D01*
X137146824Y-123169619D01*
X137441912Y-123037683D01*
X137612759Y-122696955D01*
X137713850Y-122329443D01*
X137733975Y-122050729D01*
X138853899Y-122050729D01*
X138901143Y-122428951D01*
X139021267Y-122790690D01*
X139153288Y-123037683D01*
X139448376Y-123169619D01*
X140617995Y-122000000D01*
X140977205Y-122000000D01*
X142146824Y-123169619D01*
X142441912Y-123037683D01*
X142612759Y-122696955D01*
X142713850Y-122329443D01*
X142733975Y-122050729D01*
X143853899Y-122050729D01*
X143901143Y-122428951D01*
X144021267Y-122790690D01*
X144153288Y-123037683D01*
X144448376Y-123169619D01*
X145617995Y-122000000D01*
X145977205Y-122000000D01*
X147146824Y-123169619D01*
X147441912Y-123037683D01*
X147612759Y-122696955D01*
X147713850Y-122329443D01*
X147741301Y-121949271D01*
X147694057Y-121571049D01*
X147670464Y-121500000D01*
X153861928Y-121500000D01*
X153861928Y-123500000D01*
X153874188Y-123624482D01*
X153910498Y-123744180D01*
X153969463Y-123854494D01*
X154048815Y-123951185D01*
X154145506Y-124030537D01*
X154255820Y-124089502D01*
X154375518Y-124125812D01*
X154500000Y-124138072D01*
X156500000Y-124138072D01*
X156624482Y-124125812D01*
X156744180Y-124089502D01*
X156854494Y-124030537D01*
X156951185Y-123951185D01*
X157030537Y-123854494D01*
X157089502Y-123744180D01*
X157125812Y-123624482D01*
X157138072Y-123500000D01*
X157138072Y-121500000D01*
X157125812Y-121375518D01*
X157089502Y-121255820D01*
X157030537Y-121145506D01*
X156951185Y-121048815D01*
X156854494Y-120969463D01*
X156744180Y-120910498D01*
X156624482Y-120874188D01*
X156500000Y-120861928D01*
X154500000Y-120861928D01*
X154375518Y-120874188D01*
X154255820Y-120910498D01*
X154145506Y-120969463D01*
X154048815Y-121048815D01*
X153969463Y-121145506D01*
X153910498Y-121255820D01*
X153874188Y-121375518D01*
X153861928Y-121500000D01*
X147670464Y-121500000D01*
X147573933Y-121209310D01*
X147441912Y-120962317D01*
X147146824Y-120830381D01*
X145977205Y-122000000D01*
X145617995Y-122000000D01*
X144448376Y-120830381D01*
X144153288Y-120962317D01*
X143982441Y-121303045D01*
X143881350Y-121670557D01*
X143853899Y-122050729D01*
X142733975Y-122050729D01*
X142741301Y-121949271D01*
X142694057Y-121571049D01*
X142573933Y-121209310D01*
X142441912Y-120962317D01*
X142146824Y-120830381D01*
X140977205Y-122000000D01*
X140617995Y-122000000D01*
X139448376Y-120830381D01*
X139153288Y-120962317D01*
X138982441Y-121303045D01*
X138881350Y-121670557D01*
X138853899Y-122050729D01*
X137733975Y-122050729D01*
X137741301Y-121949271D01*
X137694057Y-121571049D01*
X137573933Y-121209310D01*
X137441912Y-120962317D01*
X137146824Y-120830381D01*
X135977205Y-122000000D01*
X135617995Y-122000000D01*
X134448376Y-120830381D01*
X134153288Y-120962317D01*
X133982441Y-121303045D01*
X133881350Y-121670557D01*
X133853899Y-122050729D01*
X132733975Y-122050729D01*
X132741301Y-121949271D01*
X132694057Y-121571049D01*
X132573933Y-121209310D01*
X132441912Y-120962317D01*
X132146824Y-120830381D01*
X130977205Y-122000000D01*
X130617995Y-122000000D01*
X129448376Y-120830381D01*
X129153288Y-120962317D01*
X128982441Y-121303045D01*
X128881350Y-121670557D01*
X128853899Y-122050729D01*
X127733975Y-122050729D01*
X127741301Y-121949271D01*
X127694057Y-121571049D01*
X127573933Y-121209310D01*
X127441912Y-120962317D01*
X127146824Y-120830381D01*
X125977205Y-122000000D01*
X125617995Y-122000000D01*
X124448376Y-120830381D01*
X124153288Y-120962317D01*
X123982441Y-121303045D01*
X123881350Y-121670557D01*
X123853899Y-122050729D01*
X122733975Y-122050729D01*
X122741301Y-121949271D01*
X122694057Y-121571049D01*
X122573933Y-121209310D01*
X122441912Y-120962317D01*
X122146824Y-120830381D01*
X120977205Y-122000000D01*
X120617995Y-122000000D01*
X119448376Y-120830381D01*
X119153288Y-120962317D01*
X118982441Y-121303045D01*
X118881350Y-121670557D01*
X118853899Y-122050729D01*
X117733975Y-122050729D01*
X117741301Y-121949271D01*
X117694057Y-121571049D01*
X117573933Y-121209310D01*
X117441912Y-120962317D01*
X117146824Y-120830381D01*
X115977205Y-122000000D01*
X115617995Y-122000000D01*
X114448376Y-120830381D01*
X114153288Y-120962317D01*
X113982441Y-121303045D01*
X113881350Y-121670557D01*
X113853899Y-122050729D01*
X112733975Y-122050729D01*
X112741301Y-121949271D01*
X112694057Y-121571049D01*
X112573933Y-121209310D01*
X112441912Y-120962317D01*
X112146824Y-120830381D01*
X110977205Y-122000000D01*
X110617995Y-122000000D01*
X109448376Y-120830381D01*
X109153288Y-120962317D01*
X108982441Y-121303045D01*
X108881350Y-121670557D01*
X108853899Y-122050729D01*
X80049221Y-122050729D01*
X80028898Y-119059419D01*
X83565000Y-119059419D01*
X83565000Y-119440581D01*
X83639361Y-119814419D01*
X83785225Y-120166566D01*
X83996987Y-120483491D01*
X84266509Y-120753013D01*
X84583434Y-120964775D01*
X84935581Y-121110639D01*
X85309419Y-121185000D01*
X85690581Y-121185000D01*
X86064419Y-121110639D01*
X86416566Y-120964775D01*
X86733491Y-120753013D01*
X86786504Y-120700000D01*
X103859528Y-120700000D01*
X103862600Y-121714250D01*
X104021350Y-121873000D01*
X105670600Y-121873000D01*
X105670600Y-120223750D01*
X105924600Y-120223750D01*
X105924600Y-121873000D01*
X107573850Y-121873000D01*
X107732600Y-121714250D01*
X107735672Y-120700000D01*
X107730825Y-120650776D01*
X109627981Y-120650776D01*
X110797600Y-121820395D01*
X111967219Y-120650776D01*
X114627981Y-120650776D01*
X115797600Y-121820395D01*
X116967219Y-120650776D01*
X119627981Y-120650776D01*
X120797600Y-121820395D01*
X121967219Y-120650776D01*
X124627981Y-120650776D01*
X125797600Y-121820395D01*
X126967219Y-120650776D01*
X129627981Y-120650776D01*
X130797600Y-121820395D01*
X131967219Y-120650776D01*
X134627981Y-120650776D01*
X135797600Y-121820395D01*
X136967219Y-120650776D01*
X139627981Y-120650776D01*
X140797600Y-121820395D01*
X141967219Y-120650776D01*
X144627981Y-120650776D01*
X145797600Y-121820395D01*
X146967219Y-120650776D01*
X146835283Y-120355688D01*
X146494555Y-120184841D01*
X146127043Y-120083750D01*
X145746871Y-120056299D01*
X145368649Y-120103543D01*
X145006910Y-120223667D01*
X144759917Y-120355688D01*
X144627981Y-120650776D01*
X141967219Y-120650776D01*
X141835283Y-120355688D01*
X141494555Y-120184841D01*
X141127043Y-120083750D01*
X140746871Y-120056299D01*
X140368649Y-120103543D01*
X140006910Y-120223667D01*
X139759917Y-120355688D01*
X139627981Y-120650776D01*
X136967219Y-120650776D01*
X136835283Y-120355688D01*
X136494555Y-120184841D01*
X136127043Y-120083750D01*
X135746871Y-120056299D01*
X135368649Y-120103543D01*
X135006910Y-120223667D01*
X134759917Y-120355688D01*
X134627981Y-120650776D01*
X131967219Y-120650776D01*
X131835283Y-120355688D01*
X131494555Y-120184841D01*
X131127043Y-120083750D01*
X130746871Y-120056299D01*
X130368649Y-120103543D01*
X130006910Y-120223667D01*
X129759917Y-120355688D01*
X129627981Y-120650776D01*
X126967219Y-120650776D01*
X126835283Y-120355688D01*
X126494555Y-120184841D01*
X126127043Y-120083750D01*
X125746871Y-120056299D01*
X125368649Y-120103543D01*
X125006910Y-120223667D01*
X124759917Y-120355688D01*
X124627981Y-120650776D01*
X121967219Y-120650776D01*
X121835283Y-120355688D01*
X121494555Y-120184841D01*
X121127043Y-120083750D01*
X120746871Y-120056299D01*
X120368649Y-120103543D01*
X120006910Y-120223667D01*
X119759917Y-120355688D01*
X119627981Y-120650776D01*
X116967219Y-120650776D01*
X116835283Y-120355688D01*
X116494555Y-120184841D01*
X116127043Y-120083750D01*
X115746871Y-120056299D01*
X115368649Y-120103543D01*
X115006910Y-120223667D01*
X114759917Y-120355688D01*
X114627981Y-120650776D01*
X111967219Y-120650776D01*
X111835283Y-120355688D01*
X111494555Y-120184841D01*
X111127043Y-120083750D01*
X110746871Y-120056299D01*
X110368649Y-120103543D01*
X110006910Y-120223667D01*
X109759917Y-120355688D01*
X109627981Y-120650776D01*
X107730825Y-120650776D01*
X107723412Y-120575518D01*
X107687102Y-120455820D01*
X107628137Y-120345506D01*
X107548785Y-120248815D01*
X107452094Y-120169463D01*
X107341780Y-120110498D01*
X107222082Y-120074188D01*
X107097600Y-120061928D01*
X106083350Y-120065000D01*
X105924600Y-120223750D01*
X105670600Y-120223750D01*
X105511850Y-120065000D01*
X104497600Y-120061928D01*
X104373118Y-120074188D01*
X104253420Y-120110498D01*
X104143106Y-120169463D01*
X104046415Y-120248815D01*
X103967063Y-120345506D01*
X103908098Y-120455820D01*
X103871788Y-120575518D01*
X103859528Y-120700000D01*
X86786504Y-120700000D01*
X87003013Y-120483491D01*
X87214775Y-120166566D01*
X87360639Y-119814419D01*
X87435000Y-119440581D01*
X87435000Y-119059419D01*
X87421730Y-118992702D01*
X161186903Y-118992702D01*
X161258486Y-119236671D01*
X161513996Y-119357571D01*
X161788184Y-119426300D01*
X162070512Y-119440217D01*
X162350130Y-119398787D01*
X162616292Y-119303603D01*
X162741514Y-119236671D01*
X162813097Y-118992702D01*
X162000000Y-118179605D01*
X161186903Y-118992702D01*
X87421730Y-118992702D01*
X87360639Y-118685581D01*
X87214775Y-118333434D01*
X87039097Y-118070512D01*
X160559783Y-118070512D01*
X160601213Y-118350130D01*
X160696397Y-118616292D01*
X160763329Y-118741514D01*
X161007298Y-118813097D01*
X161820395Y-118000000D01*
X162179605Y-118000000D01*
X162992702Y-118813097D01*
X163236671Y-118741514D01*
X163250324Y-118712659D01*
X163385363Y-118914759D01*
X163585241Y-119114637D01*
X163820273Y-119271680D01*
X164081426Y-119379853D01*
X164358665Y-119435000D01*
X164641335Y-119435000D01*
X164918574Y-119379853D01*
X165179727Y-119271680D01*
X165414759Y-119114637D01*
X165614637Y-118914759D01*
X165771680Y-118679727D01*
X165879853Y-118418574D01*
X165935000Y-118141335D01*
X165935000Y-117858665D01*
X165879853Y-117581426D01*
X165771680Y-117320273D01*
X165614637Y-117085241D01*
X165414759Y-116885363D01*
X165179727Y-116728320D01*
X164918574Y-116620147D01*
X164641335Y-116565000D01*
X164358665Y-116565000D01*
X164081426Y-116620147D01*
X163820273Y-116728320D01*
X163585241Y-116885363D01*
X163385363Y-117085241D01*
X163251308Y-117285869D01*
X163236671Y-117258486D01*
X162992702Y-117186903D01*
X162179605Y-118000000D01*
X161820395Y-118000000D01*
X161007298Y-117186903D01*
X160763329Y-117258486D01*
X160642429Y-117513996D01*
X160573700Y-117788184D01*
X160559783Y-118070512D01*
X87039097Y-118070512D01*
X87003013Y-118016509D01*
X86733491Y-117746987D01*
X86416566Y-117535225D01*
X86064419Y-117389361D01*
X85690581Y-117315000D01*
X85309419Y-117315000D01*
X84935581Y-117389361D01*
X84583434Y-117535225D01*
X84266509Y-117746987D01*
X83996987Y-118016509D01*
X83785225Y-118333434D01*
X83639361Y-118685581D01*
X83565000Y-119059419D01*
X80028898Y-119059419D01*
X80014957Y-117007298D01*
X161186903Y-117007298D01*
X162000000Y-117820395D01*
X162813097Y-117007298D01*
X162741514Y-116763329D01*
X162486004Y-116642429D01*
X162211816Y-116573700D01*
X161929488Y-116559783D01*
X161649870Y-116601213D01*
X161383708Y-116696397D01*
X161258486Y-116763329D01*
X161186903Y-117007298D01*
X80014957Y-117007298D01*
X79994929Y-114059419D01*
X83565000Y-114059419D01*
X83565000Y-114440581D01*
X83639361Y-114814419D01*
X83785225Y-115166566D01*
X83996987Y-115483491D01*
X84266509Y-115753013D01*
X84583434Y-115964775D01*
X84935581Y-116110639D01*
X85309419Y-116185000D01*
X85690581Y-116185000D01*
X86064419Y-116110639D01*
X86416566Y-115964775D01*
X86733491Y-115753013D01*
X87003013Y-115483491D01*
X87214775Y-115166566D01*
X87360639Y-114814419D01*
X87435000Y-114440581D01*
X87435000Y-114059419D01*
X87360639Y-113685581D01*
X87242348Y-113400000D01*
X147961928Y-113400000D01*
X147974188Y-113524482D01*
X148010498Y-113644180D01*
X148069463Y-113754494D01*
X148148815Y-113851185D01*
X148245506Y-113930537D01*
X148355820Y-113989502D01*
X148475518Y-114025812D01*
X148600000Y-114038072D01*
X149214250Y-114035000D01*
X149373000Y-113876250D01*
X149373000Y-112627000D01*
X149627000Y-112627000D01*
X149627000Y-113876250D01*
X149785750Y-114035000D01*
X150400000Y-114038072D01*
X150524482Y-114025812D01*
X150644180Y-113989502D01*
X150754494Y-113930537D01*
X150851185Y-113851185D01*
X150930537Y-113754494D01*
X150989502Y-113644180D01*
X151025812Y-113524482D01*
X151038072Y-113400000D01*
X151036184Y-113022357D01*
X163070000Y-113022357D01*
X163070000Y-113304043D01*
X163124954Y-113580316D01*
X163232751Y-113840559D01*
X163389247Y-114074772D01*
X163588428Y-114273953D01*
X163822641Y-114430449D01*
X164082884Y-114538246D01*
X164359157Y-114593200D01*
X164640843Y-114593200D01*
X164917116Y-114538246D01*
X165177359Y-114430449D01*
X165411572Y-114273953D01*
X165610753Y-114074772D01*
X165767249Y-113840559D01*
X165875046Y-113580316D01*
X165930000Y-113304043D01*
X165930000Y-113022357D01*
X165875046Y-112746084D01*
X165767249Y-112485841D01*
X165610753Y-112251628D01*
X165411572Y-112052447D01*
X165177359Y-111895951D01*
X165169504Y-111892697D01*
X165238550Y-111855791D01*
X165309527Y-111612332D01*
X164500000Y-110802805D01*
X163690473Y-111612332D01*
X163761450Y-111855791D01*
X163835301Y-111890707D01*
X163822641Y-111895951D01*
X163588428Y-112052447D01*
X163389247Y-112251628D01*
X163232751Y-112485841D01*
X163124954Y-112746084D01*
X163070000Y-113022357D01*
X151036184Y-113022357D01*
X151035000Y-112785750D01*
X150876250Y-112627000D01*
X149627000Y-112627000D01*
X149373000Y-112627000D01*
X148123750Y-112627000D01*
X147965000Y-112785750D01*
X147961928Y-113400000D01*
X87242348Y-113400000D01*
X87214775Y-113333434D01*
X87003013Y-113016509D01*
X86733491Y-112746987D01*
X86416566Y-112535225D01*
X86064419Y-112389361D01*
X85690581Y-112315000D01*
X85309419Y-112315000D01*
X84935581Y-112389361D01*
X84583434Y-112535225D01*
X84266509Y-112746987D01*
X83996987Y-113016509D01*
X83785225Y-113333434D01*
X83639361Y-113685581D01*
X83565000Y-114059419D01*
X79994929Y-114059419D01*
X79960960Y-109059419D01*
X83565000Y-109059419D01*
X83565000Y-109440581D01*
X83639361Y-109814419D01*
X83785225Y-110166566D01*
X83996987Y-110483491D01*
X84266509Y-110753013D01*
X84583434Y-110964775D01*
X84935581Y-111110639D01*
X85309419Y-111185000D01*
X85690581Y-111185000D01*
X86064419Y-111110639D01*
X86416566Y-110964775D01*
X86733491Y-110753013D01*
X87003013Y-110483491D01*
X87214775Y-110166566D01*
X87360639Y-109814419D01*
X87435000Y-109440581D01*
X87435000Y-109145098D01*
X96115000Y-109145098D01*
X96115000Y-109614902D01*
X96206654Y-110075679D01*
X96386440Y-110509721D01*
X96647450Y-110900349D01*
X96979651Y-111232550D01*
X97370279Y-111493560D01*
X97804321Y-111673346D01*
X98265098Y-111765000D01*
X98734902Y-111765000D01*
X99195679Y-111673346D01*
X99629721Y-111493560D01*
X100020349Y-111232550D01*
X100352550Y-110900349D01*
X100613560Y-110509721D01*
X100676129Y-110358665D01*
X133065000Y-110358665D01*
X133065000Y-110641335D01*
X133120147Y-110918574D01*
X133228320Y-111179727D01*
X133385363Y-111414759D01*
X133585241Y-111614637D01*
X133820273Y-111771680D01*
X134081426Y-111879853D01*
X134358665Y-111935000D01*
X134641335Y-111935000D01*
X134918574Y-111879853D01*
X135179727Y-111771680D01*
X135414759Y-111614637D01*
X135614637Y-111414759D01*
X135771680Y-111179727D01*
X135879853Y-110918574D01*
X135935000Y-110641335D01*
X135935000Y-110500000D01*
X143218057Y-110500000D01*
X143245764Y-110781309D01*
X143327818Y-111051808D01*
X143461068Y-111301101D01*
X143640392Y-111519608D01*
X143858899Y-111698932D01*
X144108192Y-111832182D01*
X144378691Y-111914236D01*
X144589508Y-111935000D01*
X144730492Y-111935000D01*
X144941309Y-111914236D01*
X145211808Y-111832182D01*
X145461101Y-111698932D01*
X145581650Y-111600000D01*
X147961928Y-111600000D01*
X147965000Y-112214250D01*
X148123750Y-112373000D01*
X149373000Y-112373000D01*
X149373000Y-112353000D01*
X149627000Y-112353000D01*
X149627000Y-112373000D01*
X150876250Y-112373000D01*
X151035000Y-112214250D01*
X151038072Y-111600000D01*
X151025812Y-111475518D01*
X150989502Y-111355820D01*
X150930537Y-111245506D01*
X150851185Y-111148815D01*
X150754494Y-111069463D01*
X150644180Y-111010498D01*
X150625873Y-111004944D01*
X150692312Y-110938505D01*
X150855746Y-110693909D01*
X163064821Y-110693909D01*
X163106192Y-110972540D01*
X163201127Y-111237747D01*
X163267409Y-111361750D01*
X163510868Y-111432727D01*
X164320395Y-110623200D01*
X164679605Y-110623200D01*
X165489132Y-111432727D01*
X165732591Y-111361750D01*
X165852992Y-111107092D01*
X165921397Y-110833839D01*
X165935179Y-110552491D01*
X165893808Y-110273860D01*
X165798873Y-110008653D01*
X165732591Y-109884650D01*
X165489132Y-109813673D01*
X164679605Y-110623200D01*
X164320395Y-110623200D01*
X163510868Y-109813673D01*
X163267409Y-109884650D01*
X163147008Y-110139308D01*
X163078603Y-110412561D01*
X163064821Y-110693909D01*
X150855746Y-110693909D01*
X150860299Y-110687095D01*
X150976011Y-110407743D01*
X151035000Y-110111184D01*
X151035000Y-109808816D01*
X150976011Y-109512257D01*
X150860299Y-109232905D01*
X150692312Y-108981495D01*
X150478505Y-108767688D01*
X150227095Y-108599701D01*
X149947743Y-108483989D01*
X149651184Y-108425000D01*
X149348816Y-108425000D01*
X149052257Y-108483989D01*
X148772905Y-108599701D01*
X148521495Y-108767688D01*
X148307688Y-108981495D01*
X148139701Y-109232905D01*
X148023989Y-109512257D01*
X147965000Y-109808816D01*
X147965000Y-110111184D01*
X148023989Y-110407743D01*
X148139701Y-110687095D01*
X148307688Y-110938505D01*
X148374127Y-111004944D01*
X148355820Y-111010498D01*
X148245506Y-111069463D01*
X148148815Y-111148815D01*
X148069463Y-111245506D01*
X148010498Y-111355820D01*
X147974188Y-111475518D01*
X147961928Y-111600000D01*
X145581650Y-111600000D01*
X145679608Y-111519608D01*
X145858932Y-111301101D01*
X145992182Y-111051808D01*
X146074236Y-110781309D01*
X146101943Y-110500000D01*
X146074236Y-110218691D01*
X145992182Y-109948192D01*
X145858932Y-109698899D01*
X145679608Y-109480392D01*
X145461101Y-109301068D01*
X145211808Y-109167818D01*
X144941309Y-109085764D01*
X144730492Y-109065000D01*
X144589508Y-109065000D01*
X144378691Y-109085764D01*
X144108192Y-109167818D01*
X143858899Y-109301068D01*
X143640392Y-109480392D01*
X143461068Y-109698899D01*
X143327818Y-109948192D01*
X143245764Y-110218691D01*
X143218057Y-110500000D01*
X135935000Y-110500000D01*
X135935000Y-110358665D01*
X135879853Y-110081426D01*
X135771680Y-109820273D01*
X135614637Y-109585241D01*
X135414759Y-109385363D01*
X135179727Y-109228320D01*
X134918574Y-109120147D01*
X134641335Y-109065000D01*
X134358665Y-109065000D01*
X134081426Y-109120147D01*
X133820273Y-109228320D01*
X133585241Y-109385363D01*
X133385363Y-109585241D01*
X133228320Y-109820273D01*
X133120147Y-110081426D01*
X133065000Y-110358665D01*
X100676129Y-110358665D01*
X100793346Y-110075679D01*
X100885000Y-109614902D01*
X100885000Y-109145098D01*
X100793346Y-108684321D01*
X100613560Y-108250279D01*
X100407813Y-107942357D01*
X163070000Y-107942357D01*
X163070000Y-108224043D01*
X163124954Y-108500316D01*
X163232751Y-108760559D01*
X163389247Y-108994772D01*
X163588428Y-109193953D01*
X163822641Y-109350449D01*
X163830496Y-109353703D01*
X163761450Y-109390609D01*
X163690473Y-109634068D01*
X164500000Y-110443595D01*
X165309527Y-109634068D01*
X165238550Y-109390609D01*
X165164699Y-109355693D01*
X165177359Y-109350449D01*
X165411572Y-109193953D01*
X165610753Y-108994772D01*
X165767249Y-108760559D01*
X165875046Y-108500316D01*
X165930000Y-108224043D01*
X165930000Y-107942357D01*
X165875046Y-107666084D01*
X165767249Y-107405841D01*
X165610753Y-107171628D01*
X165411572Y-106972447D01*
X165177359Y-106815951D01*
X164917116Y-106708154D01*
X164640843Y-106653200D01*
X164359157Y-106653200D01*
X164082884Y-106708154D01*
X163822641Y-106815951D01*
X163588428Y-106972447D01*
X163389247Y-107171628D01*
X163232751Y-107405841D01*
X163124954Y-107666084D01*
X163070000Y-107942357D01*
X100407813Y-107942357D01*
X100352550Y-107859651D01*
X100020349Y-107527450D01*
X99629721Y-107266440D01*
X99195679Y-107086654D01*
X98734902Y-106995000D01*
X98265098Y-106995000D01*
X97804321Y-107086654D01*
X97370279Y-107266440D01*
X96979651Y-107527450D01*
X96647450Y-107859651D01*
X96386440Y-108250279D01*
X96206654Y-108684321D01*
X96115000Y-109145098D01*
X87435000Y-109145098D01*
X87435000Y-109059419D01*
X87360639Y-108685581D01*
X87214775Y-108333434D01*
X87003013Y-108016509D01*
X86733491Y-107746987D01*
X86416566Y-107535225D01*
X86064419Y-107389361D01*
X85690581Y-107315000D01*
X85309419Y-107315000D01*
X84935581Y-107389361D01*
X84583434Y-107535225D01*
X84266509Y-107746987D01*
X83996987Y-108016509D01*
X83785225Y-108333434D01*
X83639361Y-108685581D01*
X83565000Y-109059419D01*
X79960960Y-109059419D01*
X79926991Y-104059419D01*
X83565000Y-104059419D01*
X83565000Y-104440581D01*
X83639361Y-104814419D01*
X83785225Y-105166566D01*
X83996987Y-105483491D01*
X84266509Y-105753013D01*
X84583434Y-105964775D01*
X84935581Y-106110639D01*
X85309419Y-106185000D01*
X85690581Y-106185000D01*
X86064419Y-106110639D01*
X86349144Y-105992702D01*
X118186903Y-105992702D01*
X118258486Y-106236671D01*
X118513996Y-106357571D01*
X118788184Y-106426300D01*
X119070512Y-106440217D01*
X119350130Y-106398787D01*
X119616292Y-106303603D01*
X119741514Y-106236671D01*
X119813097Y-105992702D01*
X119000000Y-105179605D01*
X118186903Y-105992702D01*
X86349144Y-105992702D01*
X86416566Y-105964775D01*
X86733491Y-105753013D01*
X87003013Y-105483491D01*
X87214775Y-105166566D01*
X87254561Y-105070512D01*
X117559783Y-105070512D01*
X117601213Y-105350130D01*
X117696397Y-105616292D01*
X117763329Y-105741514D01*
X118007298Y-105813097D01*
X118820395Y-105000000D01*
X119179605Y-105000000D01*
X119992702Y-105813097D01*
X120236671Y-105741514D01*
X120250324Y-105712659D01*
X120385363Y-105914759D01*
X120585241Y-106114637D01*
X120820273Y-106271680D01*
X121081426Y-106379853D01*
X121358665Y-106435000D01*
X121641335Y-106435000D01*
X121918574Y-106379853D01*
X121969726Y-106358665D01*
X135215000Y-106358665D01*
X135215000Y-106641335D01*
X135270147Y-106918574D01*
X135378320Y-107179727D01*
X135535363Y-107414759D01*
X135735241Y-107614637D01*
X135970273Y-107771680D01*
X136231426Y-107879853D01*
X136508665Y-107935000D01*
X136791335Y-107935000D01*
X137068574Y-107879853D01*
X137329727Y-107771680D01*
X137564759Y-107614637D01*
X137764637Y-107414759D01*
X137921680Y-107179727D01*
X138029853Y-106918574D01*
X138085000Y-106641335D01*
X138085000Y-106358665D01*
X141565000Y-106358665D01*
X141565000Y-106641335D01*
X141620147Y-106918574D01*
X141728320Y-107179727D01*
X141885363Y-107414759D01*
X142085241Y-107614637D01*
X142320273Y-107771680D01*
X142581426Y-107879853D01*
X142858665Y-107935000D01*
X143141335Y-107935000D01*
X143418574Y-107879853D01*
X143679727Y-107771680D01*
X143914759Y-107614637D01*
X144114637Y-107414759D01*
X144271680Y-107179727D01*
X144379853Y-106918574D01*
X144435000Y-106641335D01*
X144435000Y-106358665D01*
X144379853Y-106081426D01*
X144271680Y-105820273D01*
X144114637Y-105585241D01*
X143914759Y-105385363D01*
X143679727Y-105228320D01*
X143418574Y-105120147D01*
X143141335Y-105065000D01*
X142858665Y-105065000D01*
X142581426Y-105120147D01*
X142320273Y-105228320D01*
X142085241Y-105385363D01*
X141885363Y-105585241D01*
X141728320Y-105820273D01*
X141620147Y-106081426D01*
X141565000Y-106358665D01*
X138085000Y-106358665D01*
X138029853Y-106081426D01*
X137921680Y-105820273D01*
X137764637Y-105585241D01*
X137564759Y-105385363D01*
X137329727Y-105228320D01*
X137068574Y-105120147D01*
X136791335Y-105065000D01*
X136508665Y-105065000D01*
X136231426Y-105120147D01*
X135970273Y-105228320D01*
X135735241Y-105385363D01*
X135535363Y-105585241D01*
X135378320Y-105820273D01*
X135270147Y-106081426D01*
X135215000Y-106358665D01*
X121969726Y-106358665D01*
X122179727Y-106271680D01*
X122414759Y-106114637D01*
X122614637Y-105914759D01*
X122771680Y-105679727D01*
X122879853Y-105418574D01*
X122935000Y-105141335D01*
X122935000Y-104858665D01*
X122879853Y-104581426D01*
X122771680Y-104320273D01*
X122614637Y-104085241D01*
X122414759Y-103885363D01*
X122346869Y-103840000D01*
X128511928Y-103840000D01*
X128511928Y-105540000D01*
X128524188Y-105664482D01*
X128560498Y-105784180D01*
X128619463Y-105894494D01*
X128698815Y-105991185D01*
X128795506Y-106070537D01*
X128905820Y-106129502D01*
X129025518Y-106165812D01*
X129150000Y-106178072D01*
X130850000Y-106178072D01*
X130974482Y-106165812D01*
X131094180Y-106129502D01*
X131204494Y-106070537D01*
X131301185Y-105991185D01*
X131380537Y-105894494D01*
X131439502Y-105784180D01*
X131475812Y-105664482D01*
X131488072Y-105540000D01*
X131488072Y-104135413D01*
X152039191Y-104135413D01*
X152134955Y-104399814D01*
X152424570Y-104540704D01*
X152736107Y-104622384D01*
X153057594Y-104641718D01*
X153376674Y-104597961D01*
X153681087Y-104492795D01*
X153855043Y-104399814D01*
X153950807Y-104135413D01*
X153808096Y-103992702D01*
X161186903Y-103992702D01*
X161258486Y-104236671D01*
X161513996Y-104357571D01*
X161788184Y-104426300D01*
X162070512Y-104440217D01*
X162350130Y-104398787D01*
X162616292Y-104303603D01*
X162741514Y-104236671D01*
X162813097Y-103992702D01*
X162000000Y-103179605D01*
X161186903Y-103992702D01*
X153808096Y-103992702D01*
X152994999Y-103179605D01*
X152039191Y-104135413D01*
X131488072Y-104135413D01*
X131488072Y-103840000D01*
X131475812Y-103715518D01*
X131439502Y-103595820D01*
X131380537Y-103485506D01*
X131301185Y-103388815D01*
X131204494Y-103309463D01*
X131094180Y-103250498D01*
X131013534Y-103226034D01*
X131097588Y-103150269D01*
X131162983Y-103062595D01*
X151353281Y-103062595D01*
X151397038Y-103381675D01*
X151502204Y-103686088D01*
X151595185Y-103860044D01*
X151859586Y-103955808D01*
X152815394Y-103000000D01*
X153174604Y-103000000D01*
X154130412Y-103955808D01*
X154394813Y-103860044D01*
X154535703Y-103570429D01*
X154617383Y-103258892D01*
X154628712Y-103070512D01*
X160559783Y-103070512D01*
X160601213Y-103350130D01*
X160696397Y-103616292D01*
X160763329Y-103741514D01*
X161007298Y-103813097D01*
X161820395Y-103000000D01*
X162179605Y-103000000D01*
X162992702Y-103813097D01*
X163236671Y-103741514D01*
X163250324Y-103712659D01*
X163385363Y-103914759D01*
X163585241Y-104114637D01*
X163820273Y-104271680D01*
X164081426Y-104379853D01*
X164358665Y-104435000D01*
X164641335Y-104435000D01*
X164918574Y-104379853D01*
X165179727Y-104271680D01*
X165414759Y-104114637D01*
X165614637Y-103914759D01*
X165771680Y-103679727D01*
X165879853Y-103418574D01*
X165935000Y-103141335D01*
X165935000Y-102858665D01*
X165879853Y-102581426D01*
X165771680Y-102320273D01*
X165614637Y-102085241D01*
X165414759Y-101885363D01*
X165179727Y-101728320D01*
X164918574Y-101620147D01*
X164641335Y-101565000D01*
X164358665Y-101565000D01*
X164081426Y-101620147D01*
X163820273Y-101728320D01*
X163585241Y-101885363D01*
X163385363Y-102085241D01*
X163251308Y-102285869D01*
X163236671Y-102258486D01*
X162992702Y-102186903D01*
X162179605Y-103000000D01*
X161820395Y-103000000D01*
X161007298Y-102186903D01*
X160763329Y-102258486D01*
X160642429Y-102513996D01*
X160573700Y-102788184D01*
X160559783Y-103070512D01*
X154628712Y-103070512D01*
X154636717Y-102937405D01*
X154592960Y-102618325D01*
X154487794Y-102313912D01*
X154394813Y-102139956D01*
X154130412Y-102044192D01*
X153174604Y-103000000D01*
X152815394Y-103000000D01*
X151859586Y-102044192D01*
X151595185Y-102139956D01*
X151454295Y-102429571D01*
X151372615Y-102741108D01*
X151353281Y-103062595D01*
X131162983Y-103062595D01*
X131271641Y-102916920D01*
X131396825Y-102654099D01*
X131441476Y-102506890D01*
X131320155Y-102277000D01*
X130127000Y-102277000D01*
X130127000Y-102297000D01*
X129873000Y-102297000D01*
X129873000Y-102277000D01*
X128679845Y-102277000D01*
X128558524Y-102506890D01*
X128603175Y-102654099D01*
X128728359Y-102916920D01*
X128902412Y-103150269D01*
X128986466Y-103226034D01*
X128905820Y-103250498D01*
X128795506Y-103309463D01*
X128698815Y-103388815D01*
X128619463Y-103485506D01*
X128560498Y-103595820D01*
X128524188Y-103715518D01*
X128511928Y-103840000D01*
X122346869Y-103840000D01*
X122179727Y-103728320D01*
X121918574Y-103620147D01*
X121641335Y-103565000D01*
X121358665Y-103565000D01*
X121081426Y-103620147D01*
X120820273Y-103728320D01*
X120585241Y-103885363D01*
X120385363Y-104085241D01*
X120251308Y-104285869D01*
X120236671Y-104258486D01*
X119992702Y-104186903D01*
X119179605Y-105000000D01*
X118820395Y-105000000D01*
X118007298Y-104186903D01*
X117763329Y-104258486D01*
X117642429Y-104513996D01*
X117573700Y-104788184D01*
X117559783Y-105070512D01*
X87254561Y-105070512D01*
X87360639Y-104814419D01*
X87435000Y-104440581D01*
X87435000Y-104059419D01*
X87424633Y-104007298D01*
X118186903Y-104007298D01*
X119000000Y-104820395D01*
X119813097Y-104007298D01*
X119741514Y-103763329D01*
X119486004Y-103642429D01*
X119211816Y-103573700D01*
X118929488Y-103559783D01*
X118649870Y-103601213D01*
X118383708Y-103696397D01*
X118258486Y-103763329D01*
X118186903Y-104007298D01*
X87424633Y-104007298D01*
X87360639Y-103685581D01*
X87214775Y-103333434D01*
X87003013Y-103016509D01*
X86733491Y-102746987D01*
X86416566Y-102535225D01*
X86064419Y-102389361D01*
X85690581Y-102315000D01*
X85309419Y-102315000D01*
X84935581Y-102389361D01*
X84583434Y-102535225D01*
X84266509Y-102746987D01*
X83996987Y-103016509D01*
X83785225Y-103333434D01*
X83639361Y-103685581D01*
X83565000Y-104059419D01*
X79926991Y-104059419D01*
X79893022Y-99059419D01*
X83565000Y-99059419D01*
X83565000Y-99440581D01*
X83639361Y-99814419D01*
X83785225Y-100166566D01*
X83996987Y-100483491D01*
X84266509Y-100753013D01*
X84583434Y-100964775D01*
X84935581Y-101110639D01*
X85309419Y-101185000D01*
X85690581Y-101185000D01*
X86064419Y-101110639D01*
X86416566Y-100964775D01*
X86733491Y-100753013D01*
X87003013Y-100483491D01*
X87214775Y-100166566D01*
X87360639Y-99814419D01*
X87435000Y-99440581D01*
X87435000Y-99059419D01*
X87360639Y-98685581D01*
X87214775Y-98333434D01*
X87003013Y-98016509D01*
X86733491Y-97746987D01*
X86416566Y-97535225D01*
X86064419Y-97389361D01*
X85690581Y-97315000D01*
X85309419Y-97315000D01*
X84935581Y-97389361D01*
X84583434Y-97535225D01*
X84266509Y-97746987D01*
X83996987Y-98016509D01*
X83785225Y-98333434D01*
X83639361Y-98685581D01*
X83565000Y-99059419D01*
X79893022Y-99059419D01*
X79878373Y-96903140D01*
X96978600Y-96903140D01*
X96978600Y-97195660D01*
X97035668Y-97482558D01*
X97147610Y-97752811D01*
X97310125Y-97996032D01*
X97516968Y-98202875D01*
X97760189Y-98365390D01*
X98030442Y-98477332D01*
X98317340Y-98534400D01*
X98609860Y-98534400D01*
X98896758Y-98477332D01*
X99167011Y-98365390D01*
X99410232Y-98202875D01*
X99617075Y-97996032D01*
X99733600Y-97821640D01*
X99850125Y-97996032D01*
X100056968Y-98202875D01*
X100300189Y-98365390D01*
X100570442Y-98477332D01*
X100857340Y-98534400D01*
X101149860Y-98534400D01*
X101436758Y-98477332D01*
X101707011Y-98365390D01*
X101950232Y-98202875D01*
X102157075Y-97996032D01*
X102273600Y-97821640D01*
X102390125Y-97996032D01*
X102596968Y-98202875D01*
X102840189Y-98365390D01*
X103110442Y-98477332D01*
X103397340Y-98534400D01*
X103689860Y-98534400D01*
X103976758Y-98477332D01*
X104247011Y-98365390D01*
X104490232Y-98202875D01*
X104697075Y-97996032D01*
X104813600Y-97821640D01*
X104930125Y-97996032D01*
X105136968Y-98202875D01*
X105380189Y-98365390D01*
X105650442Y-98477332D01*
X105937340Y-98534400D01*
X106229860Y-98534400D01*
X106516758Y-98477332D01*
X106787011Y-98365390D01*
X107030232Y-98202875D01*
X107237075Y-97996032D01*
X107353600Y-97821640D01*
X107470125Y-97996032D01*
X107676968Y-98202875D01*
X107920189Y-98365390D01*
X108190442Y-98477332D01*
X108477340Y-98534400D01*
X108769860Y-98534400D01*
X109056758Y-98477332D01*
X109327011Y-98365390D01*
X109570232Y-98202875D01*
X109695310Y-98077797D01*
X110314808Y-98077797D01*
X110392443Y-98326872D01*
X110656483Y-98452771D01*
X110940011Y-98524739D01*
X111232131Y-98540011D01*
X111521619Y-98497999D01*
X111797347Y-98400319D01*
X111934757Y-98326872D01*
X112012392Y-98077797D01*
X111163600Y-97229005D01*
X110314808Y-98077797D01*
X109695310Y-98077797D01*
X109777075Y-97996032D01*
X109892911Y-97822671D01*
X110135203Y-97898192D01*
X110983995Y-97049400D01*
X111343205Y-97049400D01*
X112191997Y-97898192D01*
X112434289Y-97822671D01*
X112550125Y-97996032D01*
X112756968Y-98202875D01*
X113000189Y-98365390D01*
X113270442Y-98477332D01*
X113557340Y-98534400D01*
X113849860Y-98534400D01*
X114136758Y-98477332D01*
X114407011Y-98365390D01*
X114650232Y-98202875D01*
X114857075Y-97996032D01*
X114973600Y-97821640D01*
X115090125Y-97996032D01*
X115296968Y-98202875D01*
X115540189Y-98365390D01*
X115810442Y-98477332D01*
X115891631Y-98493482D01*
X117862063Y-100463914D01*
X117901830Y-100512370D01*
X118095212Y-100671075D01*
X118315841Y-100789003D01*
X118448307Y-100829186D01*
X118555236Y-100861623D01*
X118580955Y-100864156D01*
X118741820Y-100880000D01*
X118741826Y-100880000D01*
X118804199Y-100886143D01*
X118866572Y-100880000D01*
X129225791Y-100880000D01*
X129235523Y-100885201D01*
X129118645Y-100954822D01*
X128902412Y-101149731D01*
X128728359Y-101383080D01*
X128603175Y-101645901D01*
X128558524Y-101793110D01*
X128679845Y-102023000D01*
X129873000Y-102023000D01*
X129873000Y-102003000D01*
X130127000Y-102003000D01*
X130127000Y-102023000D01*
X131320155Y-102023000D01*
X131403755Y-101864587D01*
X152039191Y-101864587D01*
X152994999Y-102820395D01*
X153808096Y-102007298D01*
X161186903Y-102007298D01*
X162000000Y-102820395D01*
X162813097Y-102007298D01*
X162741514Y-101763329D01*
X162486004Y-101642429D01*
X162211816Y-101573700D01*
X161929488Y-101559783D01*
X161649870Y-101601213D01*
X161383708Y-101696397D01*
X161258486Y-101763329D01*
X161186903Y-102007298D01*
X153808096Y-102007298D01*
X153950807Y-101864587D01*
X153855043Y-101600186D01*
X153565428Y-101459296D01*
X153253891Y-101377616D01*
X152932404Y-101358282D01*
X152613324Y-101402039D01*
X152308911Y-101507205D01*
X152134955Y-101600186D01*
X152039191Y-101864587D01*
X131403755Y-101864587D01*
X131441476Y-101793110D01*
X131396825Y-101645901D01*
X131271641Y-101383080D01*
X131097588Y-101149731D01*
X130881355Y-100954822D01*
X130764477Y-100885201D01*
X130829014Y-100850706D01*
X131055134Y-100665134D01*
X131240706Y-100439014D01*
X131378599Y-100181034D01*
X131463513Y-99901111D01*
X131492185Y-99610000D01*
X131463513Y-99318889D01*
X131378599Y-99038966D01*
X131240706Y-98780986D01*
X131055134Y-98554866D01*
X130829014Y-98369294D01*
X130774209Y-98340000D01*
X130829014Y-98310706D01*
X131055134Y-98125134D01*
X131240706Y-97899014D01*
X131378599Y-97641034D01*
X131463513Y-97361111D01*
X131492185Y-97070000D01*
X131463513Y-96778889D01*
X131378599Y-96498966D01*
X131293631Y-96340000D01*
X135208057Y-96340000D01*
X135235764Y-96621309D01*
X135317818Y-96891808D01*
X135451068Y-97141101D01*
X135630392Y-97359608D01*
X135848899Y-97538932D01*
X136098192Y-97672182D01*
X136368691Y-97754236D01*
X136579508Y-97775000D01*
X136720492Y-97775000D01*
X136931309Y-97754236D01*
X137201808Y-97672182D01*
X137451101Y-97538932D01*
X137669608Y-97359608D01*
X137848932Y-97141101D01*
X137982182Y-96891808D01*
X138064236Y-96621309D01*
X138091943Y-96340000D01*
X141558057Y-96340000D01*
X141585764Y-96621309D01*
X141667818Y-96891808D01*
X141801068Y-97141101D01*
X141980392Y-97359608D01*
X142198899Y-97538932D01*
X142448192Y-97672182D01*
X142718691Y-97754236D01*
X142929508Y-97775000D01*
X143070492Y-97775000D01*
X143281309Y-97754236D01*
X143551808Y-97672182D01*
X143801101Y-97538932D01*
X144019608Y-97359608D01*
X144198932Y-97141101D01*
X144274352Y-97000000D01*
X151356927Y-97000000D01*
X151356927Y-99000000D01*
X151369187Y-99124482D01*
X151405497Y-99244180D01*
X151464462Y-99354494D01*
X151543814Y-99451185D01*
X151640505Y-99530537D01*
X151750819Y-99589502D01*
X151870517Y-99625812D01*
X151994999Y-99638072D01*
X153994999Y-99638072D01*
X154119481Y-99625812D01*
X154239179Y-99589502D01*
X154349493Y-99530537D01*
X154446184Y-99451185D01*
X154525536Y-99354494D01*
X154584501Y-99244180D01*
X154620811Y-99124482D01*
X154633071Y-99000000D01*
X154633071Y-97000000D01*
X154620811Y-96875518D01*
X154615699Y-96858665D01*
X160065000Y-96858665D01*
X160065000Y-97141335D01*
X160120147Y-97418574D01*
X160228320Y-97679727D01*
X160385363Y-97914759D01*
X160585241Y-98114637D01*
X160820273Y-98271680D01*
X161081426Y-98379853D01*
X161358665Y-98435000D01*
X161641335Y-98435000D01*
X161918574Y-98379853D01*
X162179727Y-98271680D01*
X162414759Y-98114637D01*
X162536694Y-97992702D01*
X163186903Y-97992702D01*
X163258486Y-98236671D01*
X163513996Y-98357571D01*
X163788184Y-98426300D01*
X164070512Y-98440217D01*
X164350130Y-98398787D01*
X164616292Y-98303603D01*
X164741514Y-98236671D01*
X164813097Y-97992702D01*
X164000000Y-97179605D01*
X163186903Y-97992702D01*
X162536694Y-97992702D01*
X162614637Y-97914759D01*
X162748692Y-97714131D01*
X162763329Y-97741514D01*
X163007298Y-97813097D01*
X163820395Y-97000000D01*
X164179605Y-97000000D01*
X164992702Y-97813097D01*
X165236671Y-97741514D01*
X165357571Y-97486004D01*
X165426300Y-97211816D01*
X165440217Y-96929488D01*
X165398787Y-96649870D01*
X165303603Y-96383708D01*
X165236671Y-96258486D01*
X164992702Y-96186903D01*
X164179605Y-97000000D01*
X163820395Y-97000000D01*
X163007298Y-96186903D01*
X162763329Y-96258486D01*
X162749676Y-96287341D01*
X162614637Y-96085241D01*
X162536694Y-96007298D01*
X163186903Y-96007298D01*
X164000000Y-96820395D01*
X164813097Y-96007298D01*
X164741514Y-95763329D01*
X164486004Y-95642429D01*
X164211816Y-95573700D01*
X163929488Y-95559783D01*
X163649870Y-95601213D01*
X163383708Y-95696397D01*
X163258486Y-95763329D01*
X163186903Y-96007298D01*
X162536694Y-96007298D01*
X162414759Y-95885363D01*
X162179727Y-95728320D01*
X161918574Y-95620147D01*
X161641335Y-95565000D01*
X161358665Y-95565000D01*
X161081426Y-95620147D01*
X160820273Y-95728320D01*
X160585241Y-95885363D01*
X160385363Y-96085241D01*
X160228320Y-96320273D01*
X160120147Y-96581426D01*
X160065000Y-96858665D01*
X154615699Y-96858665D01*
X154584501Y-96755820D01*
X154525536Y-96645506D01*
X154446184Y-96548815D01*
X154349493Y-96469463D01*
X154239179Y-96410498D01*
X154119481Y-96374188D01*
X153994999Y-96361928D01*
X151994999Y-96361928D01*
X151870517Y-96374188D01*
X151750819Y-96410498D01*
X151640505Y-96469463D01*
X151543814Y-96548815D01*
X151464462Y-96645506D01*
X151405497Y-96755820D01*
X151369187Y-96875518D01*
X151356927Y-97000000D01*
X144274352Y-97000000D01*
X144332182Y-96891808D01*
X144414236Y-96621309D01*
X144441943Y-96340000D01*
X144414236Y-96058691D01*
X144332182Y-95788192D01*
X144198932Y-95538899D01*
X144019608Y-95320392D01*
X143801101Y-95141068D01*
X143551808Y-95007818D01*
X143281309Y-94925764D01*
X143070492Y-94905000D01*
X142929508Y-94905000D01*
X142718691Y-94925764D01*
X142448192Y-95007818D01*
X142198899Y-95141068D01*
X141980392Y-95320392D01*
X141801068Y-95538899D01*
X141667818Y-95788192D01*
X141585764Y-96058691D01*
X141558057Y-96340000D01*
X138091943Y-96340000D01*
X138064236Y-96058691D01*
X137982182Y-95788192D01*
X137848932Y-95538899D01*
X137669608Y-95320392D01*
X137451101Y-95141068D01*
X137201808Y-95007818D01*
X136931309Y-94925764D01*
X136720492Y-94905000D01*
X136579508Y-94905000D01*
X136368691Y-94925764D01*
X136098192Y-95007818D01*
X135848899Y-95141068D01*
X135630392Y-95320392D01*
X135451068Y-95538899D01*
X135317818Y-95788192D01*
X135235764Y-96058691D01*
X135208057Y-96340000D01*
X131293631Y-96340000D01*
X131240706Y-96240986D01*
X131055134Y-96014866D01*
X130829014Y-95829294D01*
X130571034Y-95691401D01*
X130291111Y-95606487D01*
X130072950Y-95585000D01*
X129927050Y-95585000D01*
X129708889Y-95606487D01*
X129428966Y-95691401D01*
X129170986Y-95829294D01*
X128944866Y-96014866D01*
X128759294Y-96240986D01*
X128621401Y-96498966D01*
X128536487Y-96778889D01*
X128507815Y-97070000D01*
X128536487Y-97361111D01*
X128621401Y-97641034D01*
X128759294Y-97899014D01*
X128944866Y-98125134D01*
X129170986Y-98310706D01*
X129225791Y-98340000D01*
X122065010Y-98340000D01*
X122270232Y-98202875D01*
X122477075Y-97996032D01*
X122639590Y-97752811D01*
X122751532Y-97482558D01*
X122808600Y-97195660D01*
X122808600Y-96903140D01*
X122751532Y-96616242D01*
X122639590Y-96345989D01*
X122477075Y-96102768D01*
X122270232Y-95895925D01*
X122027011Y-95733410D01*
X121756758Y-95621468D01*
X121469860Y-95564400D01*
X121177340Y-95564400D01*
X120890442Y-95621468D01*
X120620189Y-95733410D01*
X120376968Y-95895925D01*
X120170125Y-96102768D01*
X120054289Y-96276129D01*
X119811997Y-96200608D01*
X118963205Y-97049400D01*
X119811997Y-97898192D01*
X120054289Y-97822671D01*
X120170125Y-97996032D01*
X120376968Y-98202875D01*
X120582190Y-98340000D01*
X119530196Y-98340000D01*
X119554757Y-98326872D01*
X119632392Y-98077797D01*
X118783600Y-97229005D01*
X118769458Y-97243148D01*
X118589853Y-97063543D01*
X118603995Y-97049400D01*
X117755203Y-96200608D01*
X117512911Y-96276129D01*
X117397075Y-96102768D01*
X117315310Y-96021003D01*
X117934808Y-96021003D01*
X118783600Y-96869795D01*
X119632392Y-96021003D01*
X119554757Y-95771928D01*
X119290717Y-95646029D01*
X119007189Y-95574061D01*
X118715069Y-95558789D01*
X118425581Y-95600801D01*
X118149853Y-95698481D01*
X118012443Y-95771928D01*
X117934808Y-96021003D01*
X117315310Y-96021003D01*
X117190232Y-95895925D01*
X116947011Y-95733410D01*
X116676758Y-95621468D01*
X116389860Y-95564400D01*
X116097340Y-95564400D01*
X115810442Y-95621468D01*
X115540189Y-95733410D01*
X115296968Y-95895925D01*
X115090125Y-96102768D01*
X114973600Y-96277160D01*
X114857075Y-96102768D01*
X114650232Y-95895925D01*
X114407011Y-95733410D01*
X114136758Y-95621468D01*
X113849860Y-95564400D01*
X113557340Y-95564400D01*
X113270442Y-95621468D01*
X113000189Y-95733410D01*
X112756968Y-95895925D01*
X112550125Y-96102768D01*
X112434289Y-96276129D01*
X112191997Y-96200608D01*
X111343205Y-97049400D01*
X110983995Y-97049400D01*
X110135203Y-96200608D01*
X109892911Y-96276129D01*
X109777075Y-96102768D01*
X109695310Y-96021003D01*
X110314808Y-96021003D01*
X111163600Y-96869795D01*
X112012392Y-96021003D01*
X111934757Y-95771928D01*
X111670717Y-95646029D01*
X111387189Y-95574061D01*
X111095069Y-95558789D01*
X110805581Y-95600801D01*
X110529853Y-95698481D01*
X110392443Y-95771928D01*
X110314808Y-96021003D01*
X109695310Y-96021003D01*
X109570232Y-95895925D01*
X109327011Y-95733410D01*
X109056758Y-95621468D01*
X108769860Y-95564400D01*
X108477340Y-95564400D01*
X108190442Y-95621468D01*
X107920189Y-95733410D01*
X107676968Y-95895925D01*
X107470125Y-96102768D01*
X107353600Y-96277160D01*
X107237075Y-96102768D01*
X107030232Y-95895925D01*
X106787011Y-95733410D01*
X106516758Y-95621468D01*
X106229860Y-95564400D01*
X105937340Y-95564400D01*
X105650442Y-95621468D01*
X105380189Y-95733410D01*
X105136968Y-95895925D01*
X104930125Y-96102768D01*
X104813600Y-96277160D01*
X104697075Y-96102768D01*
X104490232Y-95895925D01*
X104247011Y-95733410D01*
X103976758Y-95621468D01*
X103689860Y-95564400D01*
X103397340Y-95564400D01*
X103110442Y-95621468D01*
X102840189Y-95733410D01*
X102596968Y-95895925D01*
X102390125Y-96102768D01*
X102273600Y-96277160D01*
X102157075Y-96102768D01*
X101950232Y-95895925D01*
X101707011Y-95733410D01*
X101436758Y-95621468D01*
X101149860Y-95564400D01*
X100857340Y-95564400D01*
X100570442Y-95621468D01*
X100300189Y-95733410D01*
X100056968Y-95895925D01*
X99850125Y-96102768D01*
X99733600Y-96277160D01*
X99617075Y-96102768D01*
X99410232Y-95895925D01*
X99167011Y-95733410D01*
X98896758Y-95621468D01*
X98609860Y-95564400D01*
X98317340Y-95564400D01*
X98030442Y-95621468D01*
X97760189Y-95733410D01*
X97516968Y-95895925D01*
X97310125Y-96102768D01*
X97147610Y-96345989D01*
X97035668Y-96616242D01*
X96978600Y-96903140D01*
X79878373Y-96903140D01*
X79859053Y-94059419D01*
X83565000Y-94059419D01*
X83565000Y-94440581D01*
X83639361Y-94814419D01*
X83785225Y-95166566D01*
X83996987Y-95483491D01*
X84266509Y-95753013D01*
X84583434Y-95964775D01*
X84935581Y-96110639D01*
X85309419Y-96185000D01*
X85690581Y-96185000D01*
X86064419Y-96110639D01*
X86416566Y-95964775D01*
X86733491Y-95753013D01*
X87003013Y-95483491D01*
X87214775Y-95166566D01*
X87360639Y-94814419D01*
X87435000Y-94440581D01*
X87435000Y-94059419D01*
X87360639Y-93685581D01*
X87214775Y-93333434D01*
X87003013Y-93016509D01*
X86733491Y-92746987D01*
X86416566Y-92535225D01*
X86064419Y-92389361D01*
X85690581Y-92315000D01*
X85309419Y-92315000D01*
X84935581Y-92389361D01*
X84583434Y-92535225D01*
X84266509Y-92746987D01*
X83996987Y-93016509D01*
X83785225Y-93333434D01*
X83639361Y-93685581D01*
X83565000Y-94059419D01*
X79859053Y-94059419D01*
X79843296Y-91740000D01*
X126498057Y-91740000D01*
X126525764Y-92021309D01*
X126607818Y-92291808D01*
X126741068Y-92541101D01*
X126920392Y-92759608D01*
X127138899Y-92938932D01*
X127388192Y-93072182D01*
X127658691Y-93154236D01*
X127869508Y-93175000D01*
X128010492Y-93175000D01*
X128221309Y-93154236D01*
X128491808Y-93072182D01*
X128741101Y-92938932D01*
X128959608Y-92759608D01*
X129138932Y-92541101D01*
X129210000Y-92408142D01*
X129281068Y-92541101D01*
X129460392Y-92759608D01*
X129678899Y-92938932D01*
X129928192Y-93072182D01*
X130198691Y-93154236D01*
X130409508Y-93175000D01*
X130550492Y-93175000D01*
X130761309Y-93154236D01*
X131031808Y-93072182D01*
X131281101Y-92938932D01*
X131499608Y-92759608D01*
X131678932Y-92541101D01*
X131750000Y-92408142D01*
X131821068Y-92541101D01*
X132000392Y-92759608D01*
X132218899Y-92938932D01*
X132468192Y-93072182D01*
X132738691Y-93154236D01*
X132949508Y-93175000D01*
X133090492Y-93175000D01*
X133301309Y-93154236D01*
X133571808Y-93072182D01*
X133821101Y-92938932D01*
X134039608Y-92759608D01*
X134218932Y-92541101D01*
X134290000Y-92408142D01*
X134361068Y-92541101D01*
X134540392Y-92759608D01*
X134758899Y-92938932D01*
X135008192Y-93072182D01*
X135278691Y-93154236D01*
X135489508Y-93175000D01*
X135630492Y-93175000D01*
X135841309Y-93154236D01*
X136111808Y-93072182D01*
X136361101Y-92938932D01*
X136579608Y-92759608D01*
X136758932Y-92541101D01*
X136830000Y-92408142D01*
X136901068Y-92541101D01*
X137080392Y-92759608D01*
X137298899Y-92938932D01*
X137548192Y-93072182D01*
X137818691Y-93154236D01*
X138029508Y-93175000D01*
X138170492Y-93175000D01*
X138381309Y-93154236D01*
X138651808Y-93072182D01*
X138901101Y-92938932D01*
X139119608Y-92759608D01*
X139298932Y-92541101D01*
X139370000Y-92408142D01*
X139441068Y-92541101D01*
X139620392Y-92759608D01*
X139838899Y-92938932D01*
X140088192Y-93072182D01*
X140358691Y-93154236D01*
X140569508Y-93175000D01*
X140710492Y-93175000D01*
X140921309Y-93154236D01*
X141191808Y-93072182D01*
X141441101Y-92938932D01*
X141659608Y-92759608D01*
X141838932Y-92541101D01*
X141910000Y-92408142D01*
X141981068Y-92541101D01*
X142160392Y-92759608D01*
X142378899Y-92938932D01*
X142628192Y-93072182D01*
X142898691Y-93154236D01*
X143109508Y-93175000D01*
X143250492Y-93175000D01*
X143461309Y-93154236D01*
X143731808Y-93072182D01*
X143981101Y-92938932D01*
X144199608Y-92759608D01*
X144378932Y-92541101D01*
X144450000Y-92408142D01*
X144521068Y-92541101D01*
X144700392Y-92759608D01*
X144918899Y-92938932D01*
X145168192Y-93072182D01*
X145438691Y-93154236D01*
X145649508Y-93175000D01*
X145790492Y-93175000D01*
X146001309Y-93154236D01*
X146271808Y-93072182D01*
X146521101Y-92938932D01*
X146739608Y-92759608D01*
X146918932Y-92541101D01*
X146990000Y-92408142D01*
X147061068Y-92541101D01*
X147240392Y-92759608D01*
X147458899Y-92938932D01*
X147708192Y-93072182D01*
X147978691Y-93154236D01*
X148189508Y-93175000D01*
X148330492Y-93175000D01*
X148541309Y-93154236D01*
X148811808Y-93072182D01*
X149061101Y-92938932D01*
X149279608Y-92759608D01*
X149458932Y-92541101D01*
X149530000Y-92408142D01*
X149601068Y-92541101D01*
X149780392Y-92759608D01*
X149998899Y-92938932D01*
X150248192Y-93072182D01*
X150518691Y-93154236D01*
X150729508Y-93175000D01*
X150870492Y-93175000D01*
X151081309Y-93154236D01*
X151351808Y-93072182D01*
X151601101Y-92938932D01*
X151819608Y-92759608D01*
X151998932Y-92541101D01*
X152070000Y-92408142D01*
X152141068Y-92541101D01*
X152320392Y-92759608D01*
X152538899Y-92938932D01*
X152788192Y-93072182D01*
X153058691Y-93154236D01*
X153269508Y-93175000D01*
X153410492Y-93175000D01*
X153621309Y-93154236D01*
X153891808Y-93072182D01*
X154141101Y-92938932D01*
X154359608Y-92759608D01*
X154538932Y-92541101D01*
X154610000Y-92408142D01*
X154681068Y-92541101D01*
X154860392Y-92759608D01*
X155078899Y-92938932D01*
X155328192Y-93072182D01*
X155598691Y-93154236D01*
X155809508Y-93175000D01*
X155950492Y-93175000D01*
X156161309Y-93154236D01*
X156431808Y-93072182D01*
X156681101Y-92938932D01*
X156899608Y-92759608D01*
X157078932Y-92541101D01*
X157150000Y-92408142D01*
X157221068Y-92541101D01*
X157400392Y-92759608D01*
X157618899Y-92938932D01*
X157868192Y-93072182D01*
X158138691Y-93154236D01*
X158349508Y-93175000D01*
X158490492Y-93175000D01*
X158701309Y-93154236D01*
X158971808Y-93072182D01*
X159221101Y-92938932D01*
X159439608Y-92759608D01*
X159618932Y-92541101D01*
X159692579Y-92403318D01*
X159807615Y-92595131D01*
X159996586Y-92803519D01*
X160222580Y-92971037D01*
X160476913Y-93091246D01*
X160610961Y-93131904D01*
X160833000Y-93009915D01*
X160833000Y-91867000D01*
X160813000Y-91867000D01*
X160813000Y-91613000D01*
X160833000Y-91613000D01*
X160833000Y-90470085D01*
X161087000Y-90470085D01*
X161087000Y-91613000D01*
X161107000Y-91613000D01*
X161107000Y-91867000D01*
X161087000Y-91867000D01*
X161087000Y-93009915D01*
X161309039Y-93131904D01*
X161443087Y-93091246D01*
X161697420Y-92971037D01*
X161923414Y-92803519D01*
X162112385Y-92595131D01*
X162227421Y-92403318D01*
X162301068Y-92541101D01*
X162480392Y-92759608D01*
X162698899Y-92938932D01*
X162948192Y-93072182D01*
X163218691Y-93154236D01*
X163429508Y-93175000D01*
X163570492Y-93175000D01*
X163781309Y-93154236D01*
X164051808Y-93072182D01*
X164301101Y-92938932D01*
X164519608Y-92759608D01*
X164698932Y-92541101D01*
X164832182Y-92291808D01*
X164914236Y-92021309D01*
X164941943Y-91740000D01*
X164914236Y-91458691D01*
X164832182Y-91188192D01*
X164698932Y-90938899D01*
X164519608Y-90720392D01*
X164301101Y-90541068D01*
X164051808Y-90407818D01*
X163781309Y-90325764D01*
X163570492Y-90305000D01*
X163429508Y-90305000D01*
X163218691Y-90325764D01*
X162948192Y-90407818D01*
X162698899Y-90541068D01*
X162480392Y-90720392D01*
X162301068Y-90938899D01*
X162227421Y-91076682D01*
X162112385Y-90884869D01*
X161923414Y-90676481D01*
X161697420Y-90508963D01*
X161443087Y-90388754D01*
X161309039Y-90348096D01*
X161087000Y-90470085D01*
X160833000Y-90470085D01*
X160610961Y-90348096D01*
X160476913Y-90388754D01*
X160222580Y-90508963D01*
X159996586Y-90676481D01*
X159807615Y-90884869D01*
X159692579Y-91076682D01*
X159618932Y-90938899D01*
X159439608Y-90720392D01*
X159221101Y-90541068D01*
X158971808Y-90407818D01*
X158701309Y-90325764D01*
X158490492Y-90305000D01*
X158349508Y-90305000D01*
X158138691Y-90325764D01*
X157868192Y-90407818D01*
X157618899Y-90541068D01*
X157400392Y-90720392D01*
X157221068Y-90938899D01*
X157150000Y-91071858D01*
X157078932Y-90938899D01*
X156899608Y-90720392D01*
X156681101Y-90541068D01*
X156431808Y-90407818D01*
X156161309Y-90325764D01*
X155950492Y-90305000D01*
X155809508Y-90305000D01*
X155598691Y-90325764D01*
X155328192Y-90407818D01*
X155078899Y-90541068D01*
X154860392Y-90720392D01*
X154681068Y-90938899D01*
X154610000Y-91071858D01*
X154538932Y-90938899D01*
X154359608Y-90720392D01*
X154141101Y-90541068D01*
X153891808Y-90407818D01*
X153621309Y-90325764D01*
X153410492Y-90305000D01*
X153269508Y-90305000D01*
X153058691Y-90325764D01*
X152788192Y-90407818D01*
X152538899Y-90541068D01*
X152320392Y-90720392D01*
X152141068Y-90938899D01*
X152070000Y-91071858D01*
X151998932Y-90938899D01*
X151819608Y-90720392D01*
X151601101Y-90541068D01*
X151351808Y-90407818D01*
X151081309Y-90325764D01*
X150870492Y-90305000D01*
X150729508Y-90305000D01*
X150518691Y-90325764D01*
X150248192Y-90407818D01*
X149998899Y-90541068D01*
X149780392Y-90720392D01*
X149601068Y-90938899D01*
X149530000Y-91071858D01*
X149458932Y-90938899D01*
X149279608Y-90720392D01*
X149061101Y-90541068D01*
X148811808Y-90407818D01*
X148541309Y-90325764D01*
X148330492Y-90305000D01*
X148189508Y-90305000D01*
X147978691Y-90325764D01*
X147708192Y-90407818D01*
X147458899Y-90541068D01*
X147240392Y-90720392D01*
X147061068Y-90938899D01*
X146990000Y-91071858D01*
X146918932Y-90938899D01*
X146739608Y-90720392D01*
X146521101Y-90541068D01*
X146271808Y-90407818D01*
X146001309Y-90325764D01*
X145790492Y-90305000D01*
X145649508Y-90305000D01*
X145438691Y-90325764D01*
X145168192Y-90407818D01*
X144918899Y-90541068D01*
X144700392Y-90720392D01*
X144521068Y-90938899D01*
X144450000Y-91071858D01*
X144378932Y-90938899D01*
X144199608Y-90720392D01*
X143981101Y-90541068D01*
X143731808Y-90407818D01*
X143461309Y-90325764D01*
X143250492Y-90305000D01*
X143109508Y-90305000D01*
X142898691Y-90325764D01*
X142628192Y-90407818D01*
X142378899Y-90541068D01*
X142160392Y-90720392D01*
X141981068Y-90938899D01*
X141910000Y-91071858D01*
X141838932Y-90938899D01*
X141659608Y-90720392D01*
X141441101Y-90541068D01*
X141191808Y-90407818D01*
X140921309Y-90325764D01*
X140710492Y-90305000D01*
X140569508Y-90305000D01*
X140358691Y-90325764D01*
X140088192Y-90407818D01*
X139838899Y-90541068D01*
X139620392Y-90720392D01*
X139441068Y-90938899D01*
X139370000Y-91071858D01*
X139298932Y-90938899D01*
X139119608Y-90720392D01*
X138901101Y-90541068D01*
X138651808Y-90407818D01*
X138381309Y-90325764D01*
X138170492Y-90305000D01*
X138029508Y-90305000D01*
X137818691Y-90325764D01*
X137548192Y-90407818D01*
X137298899Y-90541068D01*
X137080392Y-90720392D01*
X136901068Y-90938899D01*
X136830000Y-91071858D01*
X136758932Y-90938899D01*
X136579608Y-90720392D01*
X136361101Y-90541068D01*
X136111808Y-90407818D01*
X135841309Y-90325764D01*
X135630492Y-90305000D01*
X135489508Y-90305000D01*
X135278691Y-90325764D01*
X135008192Y-90407818D01*
X134758899Y-90541068D01*
X134540392Y-90720392D01*
X134361068Y-90938899D01*
X134290000Y-91071858D01*
X134218932Y-90938899D01*
X134039608Y-90720392D01*
X133821101Y-90541068D01*
X133571808Y-90407818D01*
X133301309Y-90325764D01*
X133090492Y-90305000D01*
X132949508Y-90305000D01*
X132738691Y-90325764D01*
X132468192Y-90407818D01*
X132218899Y-90541068D01*
X132000392Y-90720392D01*
X131821068Y-90938899D01*
X131750000Y-91071858D01*
X131678932Y-90938899D01*
X131499608Y-90720392D01*
X131281101Y-90541068D01*
X131031808Y-90407818D01*
X130761309Y-90325764D01*
X130550492Y-90305000D01*
X130409508Y-90305000D01*
X130198691Y-90325764D01*
X129928192Y-90407818D01*
X129678899Y-90541068D01*
X129460392Y-90720392D01*
X129281068Y-90938899D01*
X129210000Y-91071858D01*
X129138932Y-90938899D01*
X128959608Y-90720392D01*
X128741101Y-90541068D01*
X128491808Y-90407818D01*
X128221309Y-90325764D01*
X128010492Y-90305000D01*
X127869508Y-90305000D01*
X127658691Y-90325764D01*
X127388192Y-90407818D01*
X127138899Y-90541068D01*
X126920392Y-90720392D01*
X126741068Y-90938899D01*
X126607818Y-91188192D01*
X126525764Y-91458691D01*
X126498057Y-91740000D01*
X79843296Y-91740000D01*
X79825084Y-89059419D01*
X83565000Y-89059419D01*
X83565000Y-89440581D01*
X83639361Y-89814419D01*
X83785225Y-90166566D01*
X83996987Y-90483491D01*
X84266509Y-90753013D01*
X84583434Y-90964775D01*
X84935581Y-91110639D01*
X85309419Y-91185000D01*
X85690581Y-91185000D01*
X86064419Y-91110639D01*
X86416566Y-90964775D01*
X86733491Y-90753013D01*
X87003013Y-90483491D01*
X87214775Y-90166566D01*
X87217494Y-90160000D01*
X104058057Y-90160000D01*
X104085764Y-90441309D01*
X104167818Y-90711808D01*
X104301068Y-90961101D01*
X104480392Y-91179608D01*
X104698899Y-91358932D01*
X104948192Y-91492182D01*
X105218691Y-91574236D01*
X105429508Y-91595000D01*
X105570492Y-91595000D01*
X105781309Y-91574236D01*
X106051808Y-91492182D01*
X106301101Y-91358932D01*
X106519608Y-91179608D01*
X106698932Y-90961101D01*
X106832182Y-90711808D01*
X106914236Y-90441309D01*
X106941943Y-90160000D01*
X110308057Y-90160000D01*
X110335764Y-90441309D01*
X110417818Y-90711808D01*
X110551068Y-90961101D01*
X110730392Y-91179608D01*
X110948899Y-91358932D01*
X111198192Y-91492182D01*
X111468691Y-91574236D01*
X111679508Y-91595000D01*
X111820492Y-91595000D01*
X112031309Y-91574236D01*
X112301808Y-91492182D01*
X112551101Y-91358932D01*
X112769608Y-91179608D01*
X112948932Y-90961101D01*
X113082182Y-90711808D01*
X113164236Y-90441309D01*
X113191943Y-90160000D01*
X116558057Y-90160000D01*
X116585764Y-90441309D01*
X116667818Y-90711808D01*
X116801068Y-90961101D01*
X116980392Y-91179608D01*
X117198899Y-91358932D01*
X117448192Y-91492182D01*
X117718691Y-91574236D01*
X117929508Y-91595000D01*
X118070492Y-91595000D01*
X118281309Y-91574236D01*
X118551808Y-91492182D01*
X118801101Y-91358932D01*
X119019608Y-91179608D01*
X119198932Y-90961101D01*
X119332182Y-90711808D01*
X119414236Y-90441309D01*
X119441943Y-90160000D01*
X119414236Y-89878691D01*
X119332182Y-89608192D01*
X119198932Y-89358899D01*
X119019608Y-89140392D01*
X118801101Y-88961068D01*
X118551808Y-88827818D01*
X118281309Y-88745764D01*
X118070492Y-88725000D01*
X117929508Y-88725000D01*
X117718691Y-88745764D01*
X117448192Y-88827818D01*
X117198899Y-88961068D01*
X116980392Y-89140392D01*
X116801068Y-89358899D01*
X116667818Y-89608192D01*
X116585764Y-89878691D01*
X116558057Y-90160000D01*
X113191943Y-90160000D01*
X113164236Y-89878691D01*
X113082182Y-89608192D01*
X112948932Y-89358899D01*
X112769608Y-89140392D01*
X112551101Y-88961068D01*
X112301808Y-88827818D01*
X112031309Y-88745764D01*
X111820492Y-88725000D01*
X111679508Y-88725000D01*
X111468691Y-88745764D01*
X111198192Y-88827818D01*
X110948899Y-88961068D01*
X110730392Y-89140392D01*
X110551068Y-89358899D01*
X110417818Y-89608192D01*
X110335764Y-89878691D01*
X110308057Y-90160000D01*
X106941943Y-90160000D01*
X106914236Y-89878691D01*
X106832182Y-89608192D01*
X106698932Y-89358899D01*
X106519608Y-89140392D01*
X106301101Y-88961068D01*
X106051808Y-88827818D01*
X105781309Y-88745764D01*
X105570492Y-88725000D01*
X105429508Y-88725000D01*
X105218691Y-88745764D01*
X104948192Y-88827818D01*
X104698899Y-88961068D01*
X104480392Y-89140392D01*
X104301068Y-89358899D01*
X104167818Y-89608192D01*
X104085764Y-89878691D01*
X104058057Y-90160000D01*
X87217494Y-90160000D01*
X87360639Y-89814419D01*
X87435000Y-89440581D01*
X87435000Y-89059419D01*
X87360639Y-88685581D01*
X87214775Y-88333434D01*
X87003013Y-88016509D01*
X86733491Y-87746987D01*
X86416566Y-87535225D01*
X86064419Y-87389361D01*
X85690581Y-87315000D01*
X85309419Y-87315000D01*
X84935581Y-87389361D01*
X84583434Y-87535225D01*
X84266509Y-87746987D01*
X83996987Y-88016509D01*
X83785225Y-88333434D01*
X83639361Y-88685581D01*
X83565000Y-89059419D01*
X79825084Y-89059419D01*
X79791115Y-84059419D01*
X83565000Y-84059419D01*
X83565000Y-84440581D01*
X83639361Y-84814419D01*
X83785225Y-85166566D01*
X83996987Y-85483491D01*
X84266509Y-85753013D01*
X84583434Y-85964775D01*
X84935581Y-86110639D01*
X85309419Y-86185000D01*
X85690581Y-86185000D01*
X86064419Y-86110639D01*
X86416566Y-85964775D01*
X86733491Y-85753013D01*
X87003013Y-85483491D01*
X87214775Y-85166566D01*
X87360639Y-84814419D01*
X87435000Y-84440581D01*
X87435000Y-84059419D01*
X87360639Y-83685581D01*
X87214775Y-83333434D01*
X87003013Y-83016509D01*
X86733491Y-82746987D01*
X86416566Y-82535225D01*
X86064419Y-82389361D01*
X85690581Y-82315000D01*
X85309419Y-82315000D01*
X84935581Y-82389361D01*
X84583434Y-82535225D01*
X84266509Y-82746987D01*
X83996987Y-83016509D01*
X83785225Y-83333434D01*
X83639361Y-83685581D01*
X83565000Y-84059419D01*
X79791115Y-84059419D01*
X79757146Y-79059419D01*
X83565000Y-79059419D01*
X83565000Y-79440581D01*
X83639361Y-79814419D01*
X83785225Y-80166566D01*
X83996987Y-80483491D01*
X84266509Y-80753013D01*
X84583434Y-80964775D01*
X84935581Y-81110639D01*
X85309419Y-81185000D01*
X85690581Y-81185000D01*
X86064419Y-81110639D01*
X86416566Y-80964775D01*
X86733491Y-80753013D01*
X87003013Y-80483491D01*
X87214775Y-80166566D01*
X87342311Y-79858665D01*
X104065000Y-79858665D01*
X104065000Y-80141335D01*
X104120147Y-80418574D01*
X104228320Y-80679727D01*
X104385363Y-80914759D01*
X104585241Y-81114637D01*
X104820273Y-81271680D01*
X105081426Y-81379853D01*
X105358665Y-81435000D01*
X105641335Y-81435000D01*
X105918574Y-81379853D01*
X106179727Y-81271680D01*
X106414759Y-81114637D01*
X106614637Y-80914759D01*
X106771680Y-80679727D01*
X106879853Y-80418574D01*
X106935000Y-80141335D01*
X106935000Y-79858665D01*
X110315000Y-79858665D01*
X110315000Y-80141335D01*
X110370147Y-80418574D01*
X110478320Y-80679727D01*
X110635363Y-80914759D01*
X110835241Y-81114637D01*
X111070273Y-81271680D01*
X111331426Y-81379853D01*
X111608665Y-81435000D01*
X111891335Y-81435000D01*
X112168574Y-81379853D01*
X112429727Y-81271680D01*
X112664759Y-81114637D01*
X112864637Y-80914759D01*
X113021680Y-80679727D01*
X113129853Y-80418574D01*
X113185000Y-80141335D01*
X113185000Y-79858665D01*
X116565000Y-79858665D01*
X116565000Y-80141335D01*
X116620147Y-80418574D01*
X116728320Y-80679727D01*
X116885363Y-80914759D01*
X117085241Y-81114637D01*
X117320273Y-81271680D01*
X117581426Y-81379853D01*
X117858665Y-81435000D01*
X118141335Y-81435000D01*
X118418574Y-81379853D01*
X118679727Y-81271680D01*
X118914759Y-81114637D01*
X119114637Y-80914759D01*
X119271680Y-80679727D01*
X119379853Y-80418574D01*
X119435000Y-80141335D01*
X119435000Y-79858665D01*
X119379853Y-79581426D01*
X119271680Y-79320273D01*
X119114637Y-79085241D01*
X118914759Y-78885363D01*
X118679727Y-78728320D01*
X118418574Y-78620147D01*
X118141335Y-78565000D01*
X117858665Y-78565000D01*
X117581426Y-78620147D01*
X117320273Y-78728320D01*
X117085241Y-78885363D01*
X116885363Y-79085241D01*
X116728320Y-79320273D01*
X116620147Y-79581426D01*
X116565000Y-79858665D01*
X113185000Y-79858665D01*
X113129853Y-79581426D01*
X113021680Y-79320273D01*
X112864637Y-79085241D01*
X112664759Y-78885363D01*
X112429727Y-78728320D01*
X112168574Y-78620147D01*
X111891335Y-78565000D01*
X111608665Y-78565000D01*
X111331426Y-78620147D01*
X111070273Y-78728320D01*
X110835241Y-78885363D01*
X110635363Y-79085241D01*
X110478320Y-79320273D01*
X110370147Y-79581426D01*
X110315000Y-79858665D01*
X106935000Y-79858665D01*
X106879853Y-79581426D01*
X106771680Y-79320273D01*
X106614637Y-79085241D01*
X106414759Y-78885363D01*
X106179727Y-78728320D01*
X105918574Y-78620147D01*
X105641335Y-78565000D01*
X105358665Y-78565000D01*
X105081426Y-78620147D01*
X104820273Y-78728320D01*
X104585241Y-78885363D01*
X104385363Y-79085241D01*
X104228320Y-79320273D01*
X104120147Y-79581426D01*
X104065000Y-79858665D01*
X87342311Y-79858665D01*
X87360639Y-79814419D01*
X87435000Y-79440581D01*
X87435000Y-79059419D01*
X87360639Y-78685581D01*
X87214775Y-78333434D01*
X87003013Y-78016509D01*
X86733491Y-77746987D01*
X86416566Y-77535225D01*
X86064419Y-77389361D01*
X85690581Y-77315000D01*
X85309419Y-77315000D01*
X84935581Y-77389361D01*
X84583434Y-77535225D01*
X84266509Y-77746987D01*
X83996987Y-78016509D01*
X83785225Y-78333434D01*
X83639361Y-78685581D01*
X83565000Y-79059419D01*
X79757146Y-79059419D01*
X79739758Y-76500000D01*
X126498057Y-76500000D01*
X126525764Y-76781309D01*
X126607818Y-77051808D01*
X126741068Y-77301101D01*
X126920392Y-77519608D01*
X127138899Y-77698932D01*
X127388192Y-77832182D01*
X127658691Y-77914236D01*
X127869508Y-77935000D01*
X128010492Y-77935000D01*
X128221309Y-77914236D01*
X128491808Y-77832182D01*
X128741101Y-77698932D01*
X128959608Y-77519608D01*
X129138932Y-77301101D01*
X129210000Y-77168142D01*
X129281068Y-77301101D01*
X129460392Y-77519608D01*
X129678899Y-77698932D01*
X129928192Y-77832182D01*
X130198691Y-77914236D01*
X130409508Y-77935000D01*
X130550492Y-77935000D01*
X130761309Y-77914236D01*
X131031808Y-77832182D01*
X131281101Y-77698932D01*
X131499608Y-77519608D01*
X131678932Y-77301101D01*
X131750000Y-77168142D01*
X131821068Y-77301101D01*
X132000392Y-77519608D01*
X132218899Y-77698932D01*
X132468192Y-77832182D01*
X132738691Y-77914236D01*
X132949508Y-77935000D01*
X133090492Y-77935000D01*
X133301309Y-77914236D01*
X133571808Y-77832182D01*
X133821101Y-77698932D01*
X134039608Y-77519608D01*
X134218932Y-77301101D01*
X134290000Y-77168142D01*
X134361068Y-77301101D01*
X134540392Y-77519608D01*
X134758899Y-77698932D01*
X135008192Y-77832182D01*
X135278691Y-77914236D01*
X135489508Y-77935000D01*
X135630492Y-77935000D01*
X135841309Y-77914236D01*
X136111808Y-77832182D01*
X136361101Y-77698932D01*
X136579608Y-77519608D01*
X136758932Y-77301101D01*
X136830000Y-77168142D01*
X136901068Y-77301101D01*
X137080392Y-77519608D01*
X137298899Y-77698932D01*
X137548192Y-77832182D01*
X137818691Y-77914236D01*
X138029508Y-77935000D01*
X138170492Y-77935000D01*
X138381309Y-77914236D01*
X138651808Y-77832182D01*
X138901101Y-77698932D01*
X139119608Y-77519608D01*
X139298932Y-77301101D01*
X139370000Y-77168142D01*
X139441068Y-77301101D01*
X139620392Y-77519608D01*
X139838899Y-77698932D01*
X140088192Y-77832182D01*
X140358691Y-77914236D01*
X140569508Y-77935000D01*
X140710492Y-77935000D01*
X140921309Y-77914236D01*
X141191808Y-77832182D01*
X141441101Y-77698932D01*
X141659608Y-77519608D01*
X141838932Y-77301101D01*
X141910000Y-77168142D01*
X141981068Y-77301101D01*
X142160392Y-77519608D01*
X142378899Y-77698932D01*
X142628192Y-77832182D01*
X142898691Y-77914236D01*
X143109508Y-77935000D01*
X143250492Y-77935000D01*
X143461309Y-77914236D01*
X143731808Y-77832182D01*
X143981101Y-77698932D01*
X144199608Y-77519608D01*
X144378932Y-77301101D01*
X144450000Y-77168142D01*
X144521068Y-77301101D01*
X144700392Y-77519608D01*
X144918899Y-77698932D01*
X145168192Y-77832182D01*
X145438691Y-77914236D01*
X145649508Y-77935000D01*
X145790492Y-77935000D01*
X146001309Y-77914236D01*
X146271808Y-77832182D01*
X146521101Y-77698932D01*
X146739608Y-77519608D01*
X146918932Y-77301101D01*
X146990000Y-77168142D01*
X147061068Y-77301101D01*
X147240392Y-77519608D01*
X147458899Y-77698932D01*
X147708192Y-77832182D01*
X147978691Y-77914236D01*
X148189508Y-77935000D01*
X148330492Y-77935000D01*
X148541309Y-77914236D01*
X148811808Y-77832182D01*
X149061101Y-77698932D01*
X149279608Y-77519608D01*
X149458932Y-77301101D01*
X149530000Y-77168142D01*
X149601068Y-77301101D01*
X149780392Y-77519608D01*
X149998899Y-77698932D01*
X150248192Y-77832182D01*
X150518691Y-77914236D01*
X150729508Y-77935000D01*
X150870492Y-77935000D01*
X151081309Y-77914236D01*
X151351808Y-77832182D01*
X151601101Y-77698932D01*
X151819608Y-77519608D01*
X151998932Y-77301101D01*
X152070000Y-77168142D01*
X152141068Y-77301101D01*
X152320392Y-77519608D01*
X152538899Y-77698932D01*
X152788192Y-77832182D01*
X153058691Y-77914236D01*
X153269508Y-77935000D01*
X153410492Y-77935000D01*
X153621309Y-77914236D01*
X153891808Y-77832182D01*
X154141101Y-77698932D01*
X154359608Y-77519608D01*
X154538932Y-77301101D01*
X154612579Y-77163318D01*
X154727615Y-77355131D01*
X154916586Y-77563519D01*
X155142580Y-77731037D01*
X155396913Y-77851246D01*
X155530961Y-77891904D01*
X155753000Y-77769915D01*
X155753000Y-76627000D01*
X155733000Y-76627000D01*
X155733000Y-76373000D01*
X155753000Y-76373000D01*
X155753000Y-75230085D01*
X155530961Y-75108096D01*
X155396913Y-75148754D01*
X155142580Y-75268963D01*
X154916586Y-75436481D01*
X154727615Y-75644869D01*
X154612579Y-75836682D01*
X154538932Y-75698899D01*
X154359608Y-75480392D01*
X154141101Y-75301068D01*
X153891808Y-75167818D01*
X153621309Y-75085764D01*
X153410492Y-75065000D01*
X153269508Y-75065000D01*
X153058691Y-75085764D01*
X152788192Y-75167818D01*
X152538899Y-75301068D01*
X152320392Y-75480392D01*
X152141068Y-75698899D01*
X152070000Y-75831858D01*
X151998932Y-75698899D01*
X151819608Y-75480392D01*
X151601101Y-75301068D01*
X151351808Y-75167818D01*
X151081309Y-75085764D01*
X150870492Y-75065000D01*
X150729508Y-75065000D01*
X150518691Y-75085764D01*
X150248192Y-75167818D01*
X149998899Y-75301068D01*
X149780392Y-75480392D01*
X149601068Y-75698899D01*
X149530000Y-75831858D01*
X149458932Y-75698899D01*
X149279608Y-75480392D01*
X149061101Y-75301068D01*
X148811808Y-75167818D01*
X148541309Y-75085764D01*
X148330492Y-75065000D01*
X148189508Y-75065000D01*
X147978691Y-75085764D01*
X147708192Y-75167818D01*
X147458899Y-75301068D01*
X147240392Y-75480392D01*
X147061068Y-75698899D01*
X146990000Y-75831858D01*
X146918932Y-75698899D01*
X146739608Y-75480392D01*
X146521101Y-75301068D01*
X146271808Y-75167818D01*
X146001309Y-75085764D01*
X145790492Y-75065000D01*
X145649508Y-75065000D01*
X145438691Y-75085764D01*
X145168192Y-75167818D01*
X144918899Y-75301068D01*
X144700392Y-75480392D01*
X144521068Y-75698899D01*
X144450000Y-75831858D01*
X144378932Y-75698899D01*
X144199608Y-75480392D01*
X143981101Y-75301068D01*
X143731808Y-75167818D01*
X143461309Y-75085764D01*
X143250492Y-75065000D01*
X143109508Y-75065000D01*
X142898691Y-75085764D01*
X142628192Y-75167818D01*
X142378899Y-75301068D01*
X142160392Y-75480392D01*
X141981068Y-75698899D01*
X141910000Y-75831858D01*
X141838932Y-75698899D01*
X141659608Y-75480392D01*
X141441101Y-75301068D01*
X141191808Y-75167818D01*
X140921309Y-75085764D01*
X140710492Y-75065000D01*
X140569508Y-75065000D01*
X140358691Y-75085764D01*
X140088192Y-75167818D01*
X139838899Y-75301068D01*
X139620392Y-75480392D01*
X139441068Y-75698899D01*
X139370000Y-75831858D01*
X139298932Y-75698899D01*
X139119608Y-75480392D01*
X138901101Y-75301068D01*
X138651808Y-75167818D01*
X138381309Y-75085764D01*
X138170492Y-75065000D01*
X138029508Y-75065000D01*
X137818691Y-75085764D01*
X137548192Y-75167818D01*
X137298899Y-75301068D01*
X137080392Y-75480392D01*
X136901068Y-75698899D01*
X136830000Y-75831858D01*
X136758932Y-75698899D01*
X136579608Y-75480392D01*
X136361101Y-75301068D01*
X136135545Y-75180506D01*
X144110527Y-67205525D01*
X144219294Y-67409014D01*
X144404866Y-67635134D01*
X144630986Y-67820706D01*
X144685791Y-67850000D01*
X144630986Y-67879294D01*
X144404866Y-68064866D01*
X144219294Y-68290986D01*
X144081401Y-68548966D01*
X143996487Y-68828889D01*
X143967815Y-69120000D01*
X143996487Y-69411111D01*
X144081401Y-69691034D01*
X144219294Y-69949014D01*
X144404866Y-70175134D01*
X144630986Y-70360706D01*
X144685791Y-70390000D01*
X144630986Y-70419294D01*
X144404866Y-70604866D01*
X144219294Y-70830986D01*
X144081401Y-71088966D01*
X143996487Y-71368889D01*
X143967815Y-71660000D01*
X143996487Y-71951111D01*
X144081401Y-72231034D01*
X144219294Y-72489014D01*
X144404866Y-72715134D01*
X144630986Y-72900706D01*
X144888966Y-73038599D01*
X145168889Y-73123513D01*
X145387050Y-73145000D01*
X145532950Y-73145000D01*
X145751111Y-73123513D01*
X146031034Y-73038599D01*
X146289014Y-72900706D01*
X146515134Y-72715134D01*
X146700706Y-72489014D01*
X146730000Y-72434209D01*
X146759294Y-72489014D01*
X146944866Y-72715134D01*
X147170986Y-72900706D01*
X147428966Y-73038599D01*
X147708889Y-73123513D01*
X147927050Y-73145000D01*
X148072950Y-73145000D01*
X148291111Y-73123513D01*
X148571034Y-73038599D01*
X148829014Y-72900706D01*
X149055134Y-72715134D01*
X149240706Y-72489014D01*
X149378599Y-72231034D01*
X149463513Y-71951111D01*
X149492185Y-71660000D01*
X149463513Y-71368889D01*
X149378599Y-71088966D01*
X149240706Y-70830986D01*
X149055134Y-70604866D01*
X148829014Y-70419294D01*
X148774209Y-70390000D01*
X148829014Y-70360706D01*
X149055134Y-70175134D01*
X149240706Y-69949014D01*
X149378599Y-69691034D01*
X149463513Y-69411111D01*
X149492185Y-69120000D01*
X149463513Y-68828889D01*
X149378599Y-68548966D01*
X149240706Y-68290986D01*
X149055134Y-68064866D01*
X148829014Y-67879294D01*
X148774209Y-67850000D01*
X148829014Y-67820706D01*
X149055134Y-67635134D01*
X149240706Y-67409014D01*
X149356440Y-67192490D01*
X157150000Y-74986051D01*
X157150001Y-75831857D01*
X157147421Y-75836682D01*
X157032385Y-75644869D01*
X156843414Y-75436481D01*
X156617420Y-75268963D01*
X156363087Y-75148754D01*
X156229039Y-75108096D01*
X156007000Y-75230085D01*
X156007000Y-76373000D01*
X156027000Y-76373000D01*
X156027000Y-76627000D01*
X156007000Y-76627000D01*
X156007000Y-77769915D01*
X156229039Y-77891904D01*
X156363087Y-77851246D01*
X156617420Y-77731037D01*
X156843414Y-77563519D01*
X157032385Y-77355131D01*
X157147421Y-77163318D01*
X157221068Y-77301101D01*
X157400392Y-77519608D01*
X157618899Y-77698932D01*
X157868192Y-77832182D01*
X158138691Y-77914236D01*
X158349508Y-77935000D01*
X158490492Y-77935000D01*
X158701309Y-77914236D01*
X158971808Y-77832182D01*
X159221101Y-77698932D01*
X159439608Y-77519608D01*
X159618932Y-77301101D01*
X159690000Y-77168142D01*
X159761068Y-77301101D01*
X159940392Y-77519608D01*
X160158899Y-77698932D01*
X160408192Y-77832182D01*
X160678691Y-77914236D01*
X160889508Y-77935000D01*
X161030492Y-77935000D01*
X161241309Y-77914236D01*
X161511808Y-77832182D01*
X161761101Y-77698932D01*
X161979608Y-77519608D01*
X162072419Y-77406518D01*
X162074188Y-77424482D01*
X162110498Y-77544180D01*
X162169463Y-77654494D01*
X162248815Y-77751185D01*
X162345506Y-77830537D01*
X162455820Y-77889502D01*
X162575518Y-77925812D01*
X162700000Y-77938072D01*
X164300000Y-77938072D01*
X164424482Y-77925812D01*
X164544180Y-77889502D01*
X164654494Y-77830537D01*
X164751185Y-77751185D01*
X164830537Y-77654494D01*
X164889502Y-77544180D01*
X164925812Y-77424482D01*
X164938072Y-77300000D01*
X164938072Y-75700000D01*
X164925812Y-75575518D01*
X164889502Y-75455820D01*
X164830537Y-75345506D01*
X164751185Y-75248815D01*
X164654494Y-75169463D01*
X164544180Y-75110498D01*
X164424482Y-75074188D01*
X164300000Y-75061928D01*
X162700000Y-75061928D01*
X162575518Y-75074188D01*
X162455820Y-75110498D01*
X162345506Y-75169463D01*
X162248815Y-75248815D01*
X162169463Y-75345506D01*
X162110498Y-75455820D01*
X162074188Y-75575518D01*
X162072419Y-75593482D01*
X161979608Y-75480392D01*
X161761101Y-75301068D01*
X161511808Y-75167818D01*
X161241309Y-75085764D01*
X161030492Y-75065000D01*
X160889508Y-75065000D01*
X160678691Y-75085764D01*
X160408192Y-75167818D01*
X160158899Y-75301068D01*
X159940392Y-75480392D01*
X159761068Y-75698899D01*
X159690000Y-75831858D01*
X159690000Y-74522372D01*
X159696143Y-74459999D01*
X159690000Y-74397626D01*
X159690000Y-74397620D01*
X159671623Y-74211037D01*
X159599003Y-73971641D01*
X159481075Y-73751012D01*
X159322370Y-73557630D01*
X159273915Y-73517864D01*
X149445475Y-63689425D01*
X149378599Y-63468966D01*
X149240706Y-63210986D01*
X149055134Y-62984866D01*
X149025313Y-62960393D01*
X149094180Y-62939502D01*
X149204494Y-62880537D01*
X149301185Y-62801185D01*
X149380537Y-62704494D01*
X149439502Y-62594180D01*
X149475812Y-62474482D01*
X149488072Y-62350000D01*
X149487691Y-62279872D01*
X161765000Y-62279872D01*
X161765000Y-62720128D01*
X161850890Y-63151925D01*
X162019369Y-63558669D01*
X162263962Y-63924729D01*
X162575271Y-64236038D01*
X162941331Y-64480631D01*
X163348075Y-64649110D01*
X163779872Y-64735000D01*
X164220128Y-64735000D01*
X164651925Y-64649110D01*
X165058669Y-64480631D01*
X165424729Y-64236038D01*
X165736038Y-63924729D01*
X165980631Y-63558669D01*
X166149110Y-63151925D01*
X166235000Y-62720128D01*
X166235000Y-62279872D01*
X166149110Y-61848075D01*
X165980631Y-61441331D01*
X165736038Y-61075271D01*
X165424729Y-60763962D01*
X165058669Y-60519369D01*
X164651925Y-60350890D01*
X164220128Y-60265000D01*
X163779872Y-60265000D01*
X163348075Y-60350890D01*
X162941331Y-60519369D01*
X162575271Y-60763962D01*
X162263962Y-61075271D01*
X162019369Y-61441331D01*
X161850890Y-61848075D01*
X161765000Y-62279872D01*
X149487691Y-62279872D01*
X149485000Y-61785750D01*
X149326250Y-61627000D01*
X148127000Y-61627000D01*
X148127000Y-61647000D01*
X147873000Y-61647000D01*
X147873000Y-61627000D01*
X147853000Y-61627000D01*
X147853000Y-61373000D01*
X147873000Y-61373000D01*
X147873000Y-60173750D01*
X148127000Y-60173750D01*
X148127000Y-61373000D01*
X149326250Y-61373000D01*
X149485000Y-61214250D01*
X149488072Y-60650000D01*
X149475812Y-60525518D01*
X149439502Y-60405820D01*
X149380537Y-60295506D01*
X149301185Y-60198815D01*
X149204494Y-60119463D01*
X149094180Y-60060498D01*
X148974482Y-60024188D01*
X148850000Y-60011928D01*
X148285750Y-60015000D01*
X148127000Y-60173750D01*
X147873000Y-60173750D01*
X147714250Y-60015000D01*
X147150000Y-60011928D01*
X147025518Y-60024188D01*
X146905820Y-60060498D01*
X146795506Y-60119463D01*
X146698815Y-60198815D01*
X146619463Y-60295506D01*
X146560498Y-60405820D01*
X146539607Y-60474687D01*
X146515134Y-60444866D01*
X146289014Y-60259294D01*
X146031034Y-60121401D01*
X145751111Y-60036487D01*
X145532950Y-60015000D01*
X145387050Y-60015000D01*
X145168889Y-60036487D01*
X144888966Y-60121401D01*
X144630986Y-60259294D01*
X144404866Y-60444866D01*
X144219294Y-60670986D01*
X144081401Y-60928966D01*
X143996487Y-61208889D01*
X143967815Y-61500000D01*
X143996487Y-61791111D01*
X144081401Y-62071034D01*
X144219294Y-62329014D01*
X144404866Y-62555134D01*
X144630986Y-62740706D01*
X144685791Y-62770000D01*
X144630986Y-62799294D01*
X144404866Y-62984866D01*
X144219294Y-63210986D01*
X144081401Y-63468966D01*
X144005817Y-63718131D01*
X141270000Y-66453949D01*
X141270000Y-66437621D01*
X141251623Y-66251038D01*
X141179003Y-66011642D01*
X141061075Y-65791012D01*
X140902370Y-65597630D01*
X140708988Y-65438925D01*
X140488359Y-65320997D01*
X140248963Y-65248377D01*
X140000000Y-65223856D01*
X139751038Y-65248377D01*
X139511642Y-65320997D01*
X139291013Y-65438925D01*
X139097631Y-65597630D01*
X138938925Y-65791012D01*
X138820997Y-66011641D01*
X138748377Y-66251037D01*
X138730000Y-66437620D01*
X138730000Y-66453949D01*
X130054423Y-75129527D01*
X129928192Y-75167818D01*
X129678899Y-75301068D01*
X129460392Y-75480392D01*
X129281068Y-75698899D01*
X129210000Y-75831858D01*
X129138932Y-75698899D01*
X128959608Y-75480392D01*
X128741101Y-75301068D01*
X128491808Y-75167818D01*
X128221309Y-75085764D01*
X128010492Y-75065000D01*
X127869508Y-75065000D01*
X127658691Y-75085764D01*
X127388192Y-75167818D01*
X127138899Y-75301068D01*
X126920392Y-75480392D01*
X126741068Y-75698899D01*
X126607818Y-75948192D01*
X126525764Y-76218691D01*
X126498057Y-76500000D01*
X79739758Y-76500000D01*
X79723177Y-74059419D01*
X83565000Y-74059419D01*
X83565000Y-74440581D01*
X83639361Y-74814419D01*
X83785225Y-75166566D01*
X83996987Y-75483491D01*
X84266509Y-75753013D01*
X84583434Y-75964775D01*
X84935581Y-76110639D01*
X85309419Y-76185000D01*
X85690581Y-76185000D01*
X86064419Y-76110639D01*
X86416566Y-75964775D01*
X86733491Y-75753013D01*
X87003013Y-75483491D01*
X87214775Y-75166566D01*
X87360639Y-74814419D01*
X87435000Y-74440581D01*
X87435000Y-74059419D01*
X87360639Y-73685581D01*
X87214775Y-73333434D01*
X87003013Y-73016509D01*
X86733491Y-72746987D01*
X86416566Y-72535225D01*
X86064419Y-72389361D01*
X85690581Y-72315000D01*
X85309419Y-72315000D01*
X84935581Y-72389361D01*
X84583434Y-72535225D01*
X84266509Y-72746987D01*
X83996987Y-73016509D01*
X83785225Y-73333434D01*
X83639361Y-73685581D01*
X83565000Y-74059419D01*
X79723177Y-74059419D01*
X79681669Y-67950000D01*
X83561928Y-67950000D01*
X83561928Y-70550000D01*
X83574188Y-70674482D01*
X83610498Y-70794180D01*
X83669463Y-70904494D01*
X83748815Y-71001185D01*
X83845506Y-71080537D01*
X83955820Y-71139502D01*
X84075518Y-71175812D01*
X84200000Y-71188072D01*
X86800000Y-71188072D01*
X86924482Y-71175812D01*
X87044180Y-71139502D01*
X87154494Y-71080537D01*
X87251185Y-71001185D01*
X87330537Y-70904494D01*
X87389502Y-70794180D01*
X87425812Y-70674482D01*
X87438072Y-70550000D01*
X87438072Y-67950000D01*
X87425812Y-67825518D01*
X87389502Y-67705820D01*
X87330537Y-67595506D01*
X87251185Y-67498815D01*
X87154494Y-67419463D01*
X87044180Y-67360498D01*
X86924482Y-67324188D01*
X86800000Y-67311928D01*
X84200000Y-67311928D01*
X84075518Y-67324188D01*
X83955820Y-67360498D01*
X83845506Y-67419463D01*
X83748815Y-67498815D01*
X83669463Y-67595506D01*
X83610498Y-67705820D01*
X83574188Y-67825518D01*
X83561928Y-67950000D01*
X79681669Y-67950000D01*
X79660000Y-64760532D01*
X79660000Y-62279872D01*
X81265000Y-62279872D01*
X81265000Y-62720128D01*
X81350890Y-63151925D01*
X81519369Y-63558669D01*
X81763962Y-63924729D01*
X82075271Y-64236038D01*
X82441331Y-64480631D01*
X82848075Y-64649110D01*
X83279872Y-64735000D01*
X83720128Y-64735000D01*
X84151925Y-64649110D01*
X84558669Y-64480631D01*
X84924729Y-64236038D01*
X85236038Y-63924729D01*
X85480631Y-63558669D01*
X85649110Y-63151925D01*
X85735000Y-62720128D01*
X85735000Y-62279872D01*
X85719113Y-62200000D01*
X93561928Y-62200000D01*
X93561928Y-64800000D01*
X93574188Y-64924482D01*
X93610498Y-65044180D01*
X93669463Y-65154494D01*
X93748815Y-65251185D01*
X93845506Y-65330537D01*
X93955820Y-65389502D01*
X94075518Y-65425812D01*
X94200000Y-65438072D01*
X96800000Y-65438072D01*
X96924482Y-65425812D01*
X97044180Y-65389502D01*
X97154494Y-65330537D01*
X97251185Y-65251185D01*
X97330537Y-65154494D01*
X97389502Y-65044180D01*
X97425812Y-64924482D01*
X97438072Y-64800000D01*
X97438072Y-63309419D01*
X98565000Y-63309419D01*
X98565000Y-63690581D01*
X98639361Y-64064419D01*
X98785225Y-64416566D01*
X98996987Y-64733491D01*
X99266509Y-65003013D01*
X99583434Y-65214775D01*
X99935581Y-65360639D01*
X100309419Y-65435000D01*
X100690581Y-65435000D01*
X101064419Y-65360639D01*
X101416566Y-65214775D01*
X101733491Y-65003013D01*
X102003013Y-64733491D01*
X102214775Y-64416566D01*
X102360639Y-64064419D01*
X102435000Y-63690581D01*
X102435000Y-63309419D01*
X103565000Y-63309419D01*
X103565000Y-63690581D01*
X103639361Y-64064419D01*
X103785225Y-64416566D01*
X103996987Y-64733491D01*
X104266509Y-65003013D01*
X104583434Y-65214775D01*
X104935581Y-65360639D01*
X105309419Y-65435000D01*
X105690581Y-65435000D01*
X106064419Y-65360639D01*
X106416566Y-65214775D01*
X106733491Y-65003013D01*
X107003013Y-64733491D01*
X107214775Y-64416566D01*
X107360639Y-64064419D01*
X107435000Y-63690581D01*
X107435000Y-63309419D01*
X108565000Y-63309419D01*
X108565000Y-63690581D01*
X108639361Y-64064419D01*
X108785225Y-64416566D01*
X108996987Y-64733491D01*
X109266509Y-65003013D01*
X109583434Y-65214775D01*
X109935581Y-65360639D01*
X110309419Y-65435000D01*
X110690581Y-65435000D01*
X111064419Y-65360639D01*
X111416566Y-65214775D01*
X111733491Y-65003013D01*
X112003013Y-64733491D01*
X112214775Y-64416566D01*
X112360639Y-64064419D01*
X112435000Y-63690581D01*
X112435000Y-63309419D01*
X113565000Y-63309419D01*
X113565000Y-63690581D01*
X113639361Y-64064419D01*
X113785225Y-64416566D01*
X113996987Y-64733491D01*
X114266509Y-65003013D01*
X114583434Y-65214775D01*
X114935581Y-65360639D01*
X115309419Y-65435000D01*
X115690581Y-65435000D01*
X116064419Y-65360639D01*
X116416566Y-65214775D01*
X116733491Y-65003013D01*
X117003013Y-64733491D01*
X117214775Y-64416566D01*
X117360639Y-64064419D01*
X117435000Y-63690581D01*
X117435000Y-63309419D01*
X118565000Y-63309419D01*
X118565000Y-63690581D01*
X118639361Y-64064419D01*
X118785225Y-64416566D01*
X118996987Y-64733491D01*
X119266509Y-65003013D01*
X119583434Y-65214775D01*
X119935581Y-65360639D01*
X120309419Y-65435000D01*
X120690581Y-65435000D01*
X121064419Y-65360639D01*
X121416566Y-65214775D01*
X121733491Y-65003013D01*
X122003013Y-64733491D01*
X122214775Y-64416566D01*
X122360639Y-64064419D01*
X122435000Y-63690581D01*
X122435000Y-63309419D01*
X123565000Y-63309419D01*
X123565000Y-63690581D01*
X123639361Y-64064419D01*
X123785225Y-64416566D01*
X123996987Y-64733491D01*
X124266509Y-65003013D01*
X124583434Y-65214775D01*
X124935581Y-65360639D01*
X125309419Y-65435000D01*
X125690581Y-65435000D01*
X126064419Y-65360639D01*
X126416566Y-65214775D01*
X126733491Y-65003013D01*
X126887280Y-64849224D01*
X129330381Y-64849224D01*
X129462317Y-65144312D01*
X129803045Y-65315159D01*
X130170557Y-65416250D01*
X130550729Y-65443701D01*
X130928951Y-65396457D01*
X131290690Y-65276333D01*
X131537683Y-65144312D01*
X131669619Y-64849224D01*
X130500000Y-63679605D01*
X129330381Y-64849224D01*
X126887280Y-64849224D01*
X127003013Y-64733491D01*
X127214775Y-64416566D01*
X127360639Y-64064419D01*
X127435000Y-63690581D01*
X127435000Y-63550729D01*
X128556299Y-63550729D01*
X128603543Y-63928951D01*
X128723667Y-64290690D01*
X128855688Y-64537683D01*
X129150776Y-64669619D01*
X130320395Y-63500000D01*
X130679605Y-63500000D01*
X131849224Y-64669619D01*
X132144312Y-64537683D01*
X132315159Y-64196955D01*
X132416250Y-63829443D01*
X132443701Y-63449271D01*
X132396457Y-63071049D01*
X132276333Y-62709310D01*
X132144312Y-62462317D01*
X131849224Y-62330381D01*
X130679605Y-63500000D01*
X130320395Y-63500000D01*
X129150776Y-62330381D01*
X128855688Y-62462317D01*
X128684841Y-62803045D01*
X128583750Y-63170557D01*
X128556299Y-63550729D01*
X127435000Y-63550729D01*
X127435000Y-63309419D01*
X127360639Y-62935581D01*
X127214775Y-62583434D01*
X127003013Y-62266509D01*
X126887280Y-62150776D01*
X129330381Y-62150776D01*
X130500000Y-63320395D01*
X131669619Y-62150776D01*
X131537683Y-61855688D01*
X131196955Y-61684841D01*
X130829443Y-61583750D01*
X130449271Y-61556299D01*
X130071049Y-61603543D01*
X129709310Y-61723667D01*
X129462317Y-61855688D01*
X129330381Y-62150776D01*
X126887280Y-62150776D01*
X126733491Y-61996987D01*
X126416566Y-61785225D01*
X126064419Y-61639361D01*
X125690581Y-61565000D01*
X125309419Y-61565000D01*
X124935581Y-61639361D01*
X124583434Y-61785225D01*
X124266509Y-61996987D01*
X123996987Y-62266509D01*
X123785225Y-62583434D01*
X123639361Y-62935581D01*
X123565000Y-63309419D01*
X122435000Y-63309419D01*
X122360639Y-62935581D01*
X122214775Y-62583434D01*
X122003013Y-62266509D01*
X121733491Y-61996987D01*
X121416566Y-61785225D01*
X121064419Y-61639361D01*
X120690581Y-61565000D01*
X120309419Y-61565000D01*
X119935581Y-61639361D01*
X119583434Y-61785225D01*
X119266509Y-61996987D01*
X118996987Y-62266509D01*
X118785225Y-62583434D01*
X118639361Y-62935581D01*
X118565000Y-63309419D01*
X117435000Y-63309419D01*
X117360639Y-62935581D01*
X117214775Y-62583434D01*
X117003013Y-62266509D01*
X116733491Y-61996987D01*
X116416566Y-61785225D01*
X116064419Y-61639361D01*
X115690581Y-61565000D01*
X115309419Y-61565000D01*
X114935581Y-61639361D01*
X114583434Y-61785225D01*
X114266509Y-61996987D01*
X113996987Y-62266509D01*
X113785225Y-62583434D01*
X113639361Y-62935581D01*
X113565000Y-63309419D01*
X112435000Y-63309419D01*
X112360639Y-62935581D01*
X112214775Y-62583434D01*
X112003013Y-62266509D01*
X111733491Y-61996987D01*
X111416566Y-61785225D01*
X111064419Y-61639361D01*
X110690581Y-61565000D01*
X110309419Y-61565000D01*
X109935581Y-61639361D01*
X109583434Y-61785225D01*
X109266509Y-61996987D01*
X108996987Y-62266509D01*
X108785225Y-62583434D01*
X108639361Y-62935581D01*
X108565000Y-63309419D01*
X107435000Y-63309419D01*
X107360639Y-62935581D01*
X107214775Y-62583434D01*
X107003013Y-62266509D01*
X106733491Y-61996987D01*
X106416566Y-61785225D01*
X106064419Y-61639361D01*
X105690581Y-61565000D01*
X105309419Y-61565000D01*
X104935581Y-61639361D01*
X104583434Y-61785225D01*
X104266509Y-61996987D01*
X103996987Y-62266509D01*
X103785225Y-62583434D01*
X103639361Y-62935581D01*
X103565000Y-63309419D01*
X102435000Y-63309419D01*
X102360639Y-62935581D01*
X102214775Y-62583434D01*
X102003013Y-62266509D01*
X101733491Y-61996987D01*
X101416566Y-61785225D01*
X101064419Y-61639361D01*
X100690581Y-61565000D01*
X100309419Y-61565000D01*
X99935581Y-61639361D01*
X99583434Y-61785225D01*
X99266509Y-61996987D01*
X98996987Y-62266509D01*
X98785225Y-62583434D01*
X98639361Y-62935581D01*
X98565000Y-63309419D01*
X97438072Y-63309419D01*
X97438072Y-62200000D01*
X97425812Y-62075518D01*
X97389502Y-61955820D01*
X97330537Y-61845506D01*
X97251185Y-61748815D01*
X97154494Y-61669463D01*
X97044180Y-61610498D01*
X96924482Y-61574188D01*
X96800000Y-61561928D01*
X94200000Y-61561928D01*
X94075518Y-61574188D01*
X93955820Y-61610498D01*
X93845506Y-61669463D01*
X93748815Y-61748815D01*
X93669463Y-61845506D01*
X93610498Y-61955820D01*
X93574188Y-62075518D01*
X93561928Y-62200000D01*
X85719113Y-62200000D01*
X85649110Y-61848075D01*
X85480631Y-61441331D01*
X85236038Y-61075271D01*
X84924729Y-60763962D01*
X84558669Y-60519369D01*
X84151925Y-60350890D01*
X83720128Y-60265000D01*
X83279872Y-60265000D01*
X82848075Y-60350890D01*
X82441331Y-60519369D01*
X82075271Y-60763962D01*
X81763962Y-61075271D01*
X81519369Y-61441331D01*
X81350890Y-61848075D01*
X81265000Y-62279872D01*
X79660000Y-62279872D01*
X79660000Y-61032279D01*
X79707670Y-60546107D01*
X79839489Y-60109502D01*
X79918269Y-59961337D01*
X80962520Y-58917086D01*
X81094439Y-58845758D01*
X81530113Y-58710894D01*
X82014344Y-58660000D01*
X164967721Y-58660000D01*
X165362560Y-58698715D01*
X165362560Y-58698715D01*
G37*
X165362560Y-58698715D02*
X167071652Y-59941691D01*
X167154242Y-60094439D01*
X167289106Y-60530113D01*
X167340001Y-61014353D01*
X167340000Y-131967721D01*
X167292330Y-132453894D01*
X167272585Y-132519294D01*
X164998372Y-134338664D01*
X164985664Y-134340000D01*
X82441959Y-134340000D01*
X80163499Y-133428616D01*
X80126212Y-133383544D01*
X80108524Y-130779872D01*
X81265000Y-130779872D01*
X81265000Y-131220128D01*
X81350890Y-131651925D01*
X81519369Y-132058669D01*
X81763962Y-132424729D01*
X82075271Y-132736038D01*
X82441331Y-132980631D01*
X82848075Y-133149110D01*
X83279872Y-133235000D01*
X83720128Y-133235000D01*
X84151925Y-133149110D01*
X84558669Y-132980631D01*
X84924729Y-132736038D01*
X85236038Y-132424729D01*
X85480631Y-132058669D01*
X85649110Y-131651925D01*
X85735000Y-131220128D01*
X85735000Y-130779872D01*
X161765000Y-130779872D01*
X161765000Y-131220128D01*
X161850890Y-131651925D01*
X162019369Y-132058669D01*
X162263962Y-132424729D01*
X162575271Y-132736038D01*
X162941331Y-132980631D01*
X163348075Y-133149110D01*
X163779872Y-133235000D01*
X164220128Y-133235000D01*
X164651925Y-133149110D01*
X165058669Y-132980631D01*
X165424729Y-132736038D01*
X165736038Y-132424729D01*
X165980631Y-132058669D01*
X166149110Y-131651925D01*
X166235000Y-131220128D01*
X166235000Y-130779872D01*
X166149110Y-130348075D01*
X165980631Y-129941331D01*
X165736038Y-129575271D01*
X165424729Y-129263962D01*
X165058669Y-129019369D01*
X164651925Y-128850890D01*
X164220128Y-128765000D01*
X163779872Y-128765000D01*
X163348075Y-128850890D01*
X162941331Y-129019369D01*
X162575271Y-129263962D01*
X162263962Y-129575271D01*
X162019369Y-129941331D01*
X161850890Y-130348075D01*
X161765000Y-130779872D01*
X85735000Y-130779872D01*
X85649110Y-130348075D01*
X85480631Y-129941331D01*
X85236038Y-129575271D01*
X84924729Y-129263962D01*
X84558669Y-129019369D01*
X84151925Y-128850890D01*
X83720128Y-128765000D01*
X83279872Y-128765000D01*
X82848075Y-128850890D01*
X82441331Y-129019369D01*
X82075271Y-129263962D01*
X81763962Y-129575271D01*
X81519369Y-129941331D01*
X81350890Y-130348075D01*
X81265000Y-130779872D01*
X80108524Y-130779872D01*
X80093956Y-128635413D01*
X154544192Y-128635413D01*
X154639956Y-128899814D01*
X154929571Y-129040704D01*
X155241108Y-129122384D01*
X155562595Y-129141718D01*
X155881675Y-129097961D01*
X156186088Y-128992795D01*
X156360044Y-128899814D01*
X156455808Y-128635413D01*
X155500000Y-127679605D01*
X154544192Y-128635413D01*
X80093956Y-128635413D01*
X80086667Y-127562595D01*
X153858282Y-127562595D01*
X153902039Y-127881675D01*
X154007205Y-128186088D01*
X154100186Y-128360044D01*
X154364587Y-128455808D01*
X155320395Y-127500000D01*
X155679605Y-127500000D01*
X156635413Y-128455808D01*
X156899814Y-128360044D01*
X157040704Y-128070429D01*
X157122384Y-127758892D01*
X157141718Y-127437405D01*
X157097961Y-127118325D01*
X156992795Y-126813912D01*
X156899814Y-126639956D01*
X156635413Y-126544192D01*
X155679605Y-127500000D01*
X155320395Y-127500000D01*
X154364587Y-126544192D01*
X154100186Y-126639956D01*
X153959296Y-126929571D01*
X153877616Y-127241108D01*
X153858282Y-127562595D01*
X80086667Y-127562595D01*
X80073328Y-125599224D01*
X84330381Y-125599224D01*
X84462317Y-125894312D01*
X84803045Y-126065159D01*
X85170557Y-126166250D01*
X85550729Y-126193701D01*
X85928951Y-126146457D01*
X86290690Y-126026333D01*
X86537683Y-125894312D01*
X86669619Y-125599224D01*
X85500000Y-124429605D01*
X84330381Y-125599224D01*
X80073328Y-125599224D01*
X80064506Y-124300729D01*
X83556299Y-124300729D01*
X83603543Y-124678951D01*
X83723667Y-125040690D01*
X83855688Y-125287683D01*
X84150776Y-125419619D01*
X85320395Y-124250000D01*
X85679605Y-124250000D01*
X86849224Y-125419619D01*
X87144312Y-125287683D01*
X87315159Y-124946955D01*
X87416250Y-124579443D01*
X87430283Y-124385098D01*
X96115000Y-124385098D01*
X96115000Y-124854902D01*
X96206654Y-125315679D01*
X96386440Y-125749721D01*
X96647450Y-126140349D01*
X96979651Y-126472550D01*
X97370279Y-126733560D01*
X97804321Y-126913346D01*
X98265098Y-127005000D01*
X98734902Y-127005000D01*
X99195679Y-126913346D01*
X99629721Y-126733560D01*
X100020349Y-126472550D01*
X100128312Y-126364587D01*
X154544192Y-126364587D01*
X155500000Y-127320395D01*
X156455808Y-126364587D01*
X156360044Y-126100186D01*
X156070429Y-125959296D01*
X155758892Y-125877616D01*
X155437405Y-125858282D01*
X155118325Y-125902039D01*
X154813912Y-126007205D01*
X154639956Y-126100186D01*
X154544192Y-126364587D01*
X100128312Y-126364587D01*
X100352550Y-126140349D01*
X100613560Y-125749721D01*
X100793346Y-125315679D01*
X100885000Y-124854902D01*
X100885000Y-124385098D01*
X100793346Y-123924321D01*
X100613560Y-123490279D01*
X100486420Y-123300000D01*
X103859528Y-123300000D01*
X103871788Y-123424482D01*
X103908098Y-123544180D01*
X103967063Y-123654494D01*
X104046415Y-123751185D01*
X104143106Y-123830537D01*
X104253420Y-123889502D01*
X104373118Y-123925812D01*
X104497600Y-123938072D01*
X105511850Y-123935000D01*
X105670600Y-123776250D01*
X105670600Y-122127000D01*
X105924600Y-122127000D01*
X105924600Y-123776250D01*
X106083350Y-123935000D01*
X107097600Y-123938072D01*
X107222082Y-123925812D01*
X107341780Y-123889502D01*
X107452094Y-123830537D01*
X107548785Y-123751185D01*
X107628137Y-123654494D01*
X107687102Y-123544180D01*
X107723412Y-123424482D01*
X107730824Y-123349224D01*
X109627981Y-123349224D01*
X109759917Y-123644312D01*
X110100645Y-123815159D01*
X110468157Y-123916250D01*
X110848329Y-123943701D01*
X111226551Y-123896457D01*
X111588290Y-123776333D01*
X111835283Y-123644312D01*
X111967219Y-123349224D01*
X114627981Y-123349224D01*
X114759917Y-123644312D01*
X115100645Y-123815159D01*
X115468157Y-123916250D01*
X115848329Y-123943701D01*
X116226551Y-123896457D01*
X116588290Y-123776333D01*
X116835283Y-123644312D01*
X116967219Y-123349224D01*
X119627981Y-123349224D01*
X119759917Y-123644312D01*
X120100645Y-123815159D01*
X120468157Y-123916250D01*
X120848329Y-123943701D01*
X121226551Y-123896457D01*
X121588290Y-123776333D01*
X121835283Y-123644312D01*
X121967219Y-123349224D01*
X124627981Y-123349224D01*
X124759917Y-123644312D01*
X125100645Y-123815159D01*
X125468157Y-123916250D01*
X125848329Y-123943701D01*
X126226551Y-123896457D01*
X126588290Y-123776333D01*
X126835283Y-123644312D01*
X126967219Y-123349224D01*
X129627981Y-123349224D01*
X129759917Y-123644312D01*
X130100645Y-123815159D01*
X130468157Y-123916250D01*
X130848329Y-123943701D01*
X131226551Y-123896457D01*
X131588290Y-123776333D01*
X131835283Y-123644312D01*
X131967219Y-123349224D01*
X134627981Y-123349224D01*
X134759917Y-123644312D01*
X135100645Y-123815159D01*
X135468157Y-123916250D01*
X135848329Y-123943701D01*
X136226551Y-123896457D01*
X136588290Y-123776333D01*
X136835283Y-123644312D01*
X136967219Y-123349224D01*
X139627981Y-123349224D01*
X139759917Y-123644312D01*
X140100645Y-123815159D01*
X140468157Y-123916250D01*
X140848329Y-123943701D01*
X141226551Y-123896457D01*
X141588290Y-123776333D01*
X141835283Y-123644312D01*
X141967219Y-123349224D01*
X144627981Y-123349224D01*
X144759917Y-123644312D01*
X145100645Y-123815159D01*
X145468157Y-123916250D01*
X145848329Y-123943701D01*
X146226551Y-123896457D01*
X146588290Y-123776333D01*
X146835283Y-123644312D01*
X146967219Y-123349224D01*
X145797600Y-122179605D01*
X144627981Y-123349224D01*
X141967219Y-123349224D01*
X140797600Y-122179605D01*
X139627981Y-123349224D01*
X136967219Y-123349224D01*
X135797600Y-122179605D01*
X134627981Y-123349224D01*
X131967219Y-123349224D01*
X130797600Y-122179605D01*
X129627981Y-123349224D01*
X126967219Y-123349224D01*
X125797600Y-122179605D01*
X124627981Y-123349224D01*
X121967219Y-123349224D01*
X120797600Y-122179605D01*
X119627981Y-123349224D01*
X116967219Y-123349224D01*
X115797600Y-122179605D01*
X114627981Y-123349224D01*
X111967219Y-123349224D01*
X110797600Y-122179605D01*
X109627981Y-123349224D01*
X107730824Y-123349224D01*
X107735672Y-123300000D01*
X107732600Y-122285750D01*
X107573850Y-122127000D01*
X105924600Y-122127000D01*
X105670600Y-122127000D01*
X104021350Y-122127000D01*
X103862600Y-122285750D01*
X103859528Y-123300000D01*
X100486420Y-123300000D01*
X100352550Y-123099651D01*
X100020349Y-122767450D01*
X99629721Y-122506440D01*
X99195679Y-122326654D01*
X98734902Y-122235000D01*
X98265098Y-122235000D01*
X97804321Y-122326654D01*
X97370279Y-122506440D01*
X96979651Y-122767450D01*
X96647450Y-123099651D01*
X96386440Y-123490279D01*
X96206654Y-123924321D01*
X96115000Y-124385098D01*
X87430283Y-124385098D01*
X87443701Y-124199271D01*
X87396457Y-123821049D01*
X87276333Y-123459310D01*
X87144312Y-123212317D01*
X86849224Y-123080381D01*
X85679605Y-124250000D01*
X85320395Y-124250000D01*
X84150776Y-123080381D01*
X83855688Y-123212317D01*
X83684841Y-123553045D01*
X83583750Y-123920557D01*
X83556299Y-124300729D01*
X80064506Y-124300729D01*
X80054996Y-122900776D01*
X84330381Y-122900776D01*
X85500000Y-124070395D01*
X86669619Y-122900776D01*
X86537683Y-122605688D01*
X86196955Y-122434841D01*
X85829443Y-122333750D01*
X85449271Y-122306299D01*
X85071049Y-122353543D01*
X84709310Y-122473667D01*
X84462317Y-122605688D01*
X84330381Y-122900776D01*
X80054996Y-122900776D01*
X80049221Y-122050729D01*
X108853899Y-122050729D01*
X108901143Y-122428951D01*
X109021267Y-122790690D01*
X109153288Y-123037683D01*
X109448376Y-123169619D01*
X110617995Y-122000000D01*
X110977205Y-122000000D01*
X112146824Y-123169619D01*
X112441912Y-123037683D01*
X112612759Y-122696955D01*
X112713850Y-122329443D01*
X112733975Y-122050729D01*
X113853899Y-122050729D01*
X113901143Y-122428951D01*
X114021267Y-122790690D01*
X114153288Y-123037683D01*
X114448376Y-123169619D01*
X115617995Y-122000000D01*
X115977205Y-122000000D01*
X117146824Y-123169619D01*
X117441912Y-123037683D01*
X117612759Y-122696955D01*
X117713850Y-122329443D01*
X117733975Y-122050729D01*
X118853899Y-122050729D01*
X118901143Y-122428951D01*
X119021267Y-122790690D01*
X119153288Y-123037683D01*
X119448376Y-123169619D01*
X120617995Y-122000000D01*
X120977205Y-122000000D01*
X122146824Y-123169619D01*
X122441912Y-123037683D01*
X122612759Y-122696955D01*
X122713850Y-122329443D01*
X122733975Y-122050729D01*
X123853899Y-122050729D01*
X123901143Y-122428951D01*
X124021267Y-122790690D01*
X124153288Y-123037683D01*
X124448376Y-123169619D01*
X125617995Y-122000000D01*
X125977205Y-122000000D01*
X127146824Y-123169619D01*
X127441912Y-123037683D01*
X127612759Y-122696955D01*
X127713850Y-122329443D01*
X127733975Y-122050729D01*
X128853899Y-122050729D01*
X128901143Y-122428951D01*
X129021267Y-122790690D01*
X129153288Y-123037683D01*
X129448376Y-123169619D01*
X130617995Y-122000000D01*
X130977205Y-122000000D01*
X132146824Y-123169619D01*
X132441912Y-123037683D01*
X132612759Y-122696955D01*
X132713850Y-122329443D01*
X132733975Y-122050729D01*
X133853899Y-122050729D01*
X133901143Y-122428951D01*
X134021267Y-122790690D01*
X134153288Y-123037683D01*
X134448376Y-123169619D01*
X135617995Y-122000000D01*
X135977205Y-122000000D01*
X137146824Y-123169619D01*
X137441912Y-123037683D01*
X137612759Y-122696955D01*
X137713850Y-122329443D01*
X137733975Y-122050729D01*
X138853899Y-122050729D01*
X138901143Y-122428951D01*
X139021267Y-122790690D01*
X139153288Y-123037683D01*
X139448376Y-123169619D01*
X140617995Y-122000000D01*
X140977205Y-122000000D01*
X142146824Y-123169619D01*
X142441912Y-123037683D01*
X142612759Y-122696955D01*
X142713850Y-122329443D01*
X142733975Y-122050729D01*
X143853899Y-122050729D01*
X143901143Y-122428951D01*
X144021267Y-122790690D01*
X144153288Y-123037683D01*
X144448376Y-123169619D01*
X145617995Y-122000000D01*
X145977205Y-122000000D01*
X147146824Y-123169619D01*
X147441912Y-123037683D01*
X147612759Y-122696955D01*
X147713850Y-122329443D01*
X147741301Y-121949271D01*
X147694057Y-121571049D01*
X147670464Y-121500000D01*
X153861928Y-121500000D01*
X153861928Y-123500000D01*
X153874188Y-123624482D01*
X153910498Y-123744180D01*
X153969463Y-123854494D01*
X154048815Y-123951185D01*
X154145506Y-124030537D01*
X154255820Y-124089502D01*
X154375518Y-124125812D01*
X154500000Y-124138072D01*
X156500000Y-124138072D01*
X156624482Y-124125812D01*
X156744180Y-124089502D01*
X156854494Y-124030537D01*
X156951185Y-123951185D01*
X157030537Y-123854494D01*
X157089502Y-123744180D01*
X157125812Y-123624482D01*
X157138072Y-123500000D01*
X157138072Y-121500000D01*
X157125812Y-121375518D01*
X157089502Y-121255820D01*
X157030537Y-121145506D01*
X156951185Y-121048815D01*
X156854494Y-120969463D01*
X156744180Y-120910498D01*
X156624482Y-120874188D01*
X156500000Y-120861928D01*
X154500000Y-120861928D01*
X154375518Y-120874188D01*
X154255820Y-120910498D01*
X154145506Y-120969463D01*
X154048815Y-121048815D01*
X153969463Y-121145506D01*
X153910498Y-121255820D01*
X153874188Y-121375518D01*
X153861928Y-121500000D01*
X147670464Y-121500000D01*
X147573933Y-121209310D01*
X147441912Y-120962317D01*
X147146824Y-120830381D01*
X145977205Y-122000000D01*
X145617995Y-122000000D01*
X144448376Y-120830381D01*
X144153288Y-120962317D01*
X143982441Y-121303045D01*
X143881350Y-121670557D01*
X143853899Y-122050729D01*
X142733975Y-122050729D01*
X142741301Y-121949271D01*
X142694057Y-121571049D01*
X142573933Y-121209310D01*
X142441912Y-120962317D01*
X142146824Y-120830381D01*
X140977205Y-122000000D01*
X140617995Y-122000000D01*
X139448376Y-120830381D01*
X139153288Y-120962317D01*
X138982441Y-121303045D01*
X138881350Y-121670557D01*
X138853899Y-122050729D01*
X137733975Y-122050729D01*
X137741301Y-121949271D01*
X137694057Y-121571049D01*
X137573933Y-121209310D01*
X137441912Y-120962317D01*
X137146824Y-120830381D01*
X135977205Y-122000000D01*
X135617995Y-122000000D01*
X134448376Y-120830381D01*
X134153288Y-120962317D01*
X133982441Y-121303045D01*
X133881350Y-121670557D01*
X133853899Y-122050729D01*
X132733975Y-122050729D01*
X132741301Y-121949271D01*
X132694057Y-121571049D01*
X132573933Y-121209310D01*
X132441912Y-120962317D01*
X132146824Y-120830381D01*
X130977205Y-122000000D01*
X130617995Y-122000000D01*
X129448376Y-120830381D01*
X129153288Y-120962317D01*
X128982441Y-121303045D01*
X128881350Y-121670557D01*
X128853899Y-122050729D01*
X127733975Y-122050729D01*
X127741301Y-121949271D01*
X127694057Y-121571049D01*
X127573933Y-121209310D01*
X127441912Y-120962317D01*
X127146824Y-120830381D01*
X125977205Y-122000000D01*
X125617995Y-122000000D01*
X124448376Y-120830381D01*
X124153288Y-120962317D01*
X123982441Y-121303045D01*
X123881350Y-121670557D01*
X123853899Y-122050729D01*
X122733975Y-122050729D01*
X122741301Y-121949271D01*
X122694057Y-121571049D01*
X122573933Y-121209310D01*
X122441912Y-120962317D01*
X122146824Y-120830381D01*
X120977205Y-122000000D01*
X120617995Y-122000000D01*
X119448376Y-120830381D01*
X119153288Y-120962317D01*
X118982441Y-121303045D01*
X118881350Y-121670557D01*
X118853899Y-122050729D01*
X117733975Y-122050729D01*
X117741301Y-121949271D01*
X117694057Y-121571049D01*
X117573933Y-121209310D01*
X117441912Y-120962317D01*
X117146824Y-120830381D01*
X115977205Y-122000000D01*
X115617995Y-122000000D01*
X114448376Y-120830381D01*
X114153288Y-120962317D01*
X113982441Y-121303045D01*
X113881350Y-121670557D01*
X113853899Y-122050729D01*
X112733975Y-122050729D01*
X112741301Y-121949271D01*
X112694057Y-121571049D01*
X112573933Y-121209310D01*
X112441912Y-120962317D01*
X112146824Y-120830381D01*
X110977205Y-122000000D01*
X110617995Y-122000000D01*
X109448376Y-120830381D01*
X109153288Y-120962317D01*
X108982441Y-121303045D01*
X108881350Y-121670557D01*
X108853899Y-122050729D01*
X80049221Y-122050729D01*
X80028898Y-119059419D01*
X83565000Y-119059419D01*
X83565000Y-119440581D01*
X83639361Y-119814419D01*
X83785225Y-120166566D01*
X83996987Y-120483491D01*
X84266509Y-120753013D01*
X84583434Y-120964775D01*
X84935581Y-121110639D01*
X85309419Y-121185000D01*
X85690581Y-121185000D01*
X86064419Y-121110639D01*
X86416566Y-120964775D01*
X86733491Y-120753013D01*
X86786504Y-120700000D01*
X103859528Y-120700000D01*
X103862600Y-121714250D01*
X104021350Y-121873000D01*
X105670600Y-121873000D01*
X105670600Y-120223750D01*
X105924600Y-120223750D01*
X105924600Y-121873000D01*
X107573850Y-121873000D01*
X107732600Y-121714250D01*
X107735672Y-120700000D01*
X107730825Y-120650776D01*
X109627981Y-120650776D01*
X110797600Y-121820395D01*
X111967219Y-120650776D01*
X114627981Y-120650776D01*
X115797600Y-121820395D01*
X116967219Y-120650776D01*
X119627981Y-120650776D01*
X120797600Y-121820395D01*
X121967219Y-120650776D01*
X124627981Y-120650776D01*
X125797600Y-121820395D01*
X126967219Y-120650776D01*
X129627981Y-120650776D01*
X130797600Y-121820395D01*
X131967219Y-120650776D01*
X134627981Y-120650776D01*
X135797600Y-121820395D01*
X136967219Y-120650776D01*
X139627981Y-120650776D01*
X140797600Y-121820395D01*
X141967219Y-120650776D01*
X144627981Y-120650776D01*
X145797600Y-121820395D01*
X146967219Y-120650776D01*
X146835283Y-120355688D01*
X146494555Y-120184841D01*
X146127043Y-120083750D01*
X145746871Y-120056299D01*
X145368649Y-120103543D01*
X145006910Y-120223667D01*
X144759917Y-120355688D01*
X144627981Y-120650776D01*
X141967219Y-120650776D01*
X141835283Y-120355688D01*
X141494555Y-120184841D01*
X141127043Y-120083750D01*
X140746871Y-120056299D01*
X140368649Y-120103543D01*
X140006910Y-120223667D01*
X139759917Y-120355688D01*
X139627981Y-120650776D01*
X136967219Y-120650776D01*
X136835283Y-120355688D01*
X136494555Y-120184841D01*
X136127043Y-120083750D01*
X135746871Y-120056299D01*
X135368649Y-120103543D01*
X135006910Y-120223667D01*
X134759917Y-120355688D01*
X134627981Y-120650776D01*
X131967219Y-120650776D01*
X131835283Y-120355688D01*
X131494555Y-120184841D01*
X131127043Y-120083750D01*
X130746871Y-120056299D01*
X130368649Y-120103543D01*
X130006910Y-120223667D01*
X129759917Y-120355688D01*
X129627981Y-120650776D01*
X126967219Y-120650776D01*
X126835283Y-120355688D01*
X126494555Y-120184841D01*
X126127043Y-120083750D01*
X125746871Y-120056299D01*
X125368649Y-120103543D01*
X125006910Y-120223667D01*
X124759917Y-120355688D01*
X124627981Y-120650776D01*
X121967219Y-120650776D01*
X121835283Y-120355688D01*
X121494555Y-120184841D01*
X121127043Y-120083750D01*
X120746871Y-120056299D01*
X120368649Y-120103543D01*
X120006910Y-120223667D01*
X119759917Y-120355688D01*
X119627981Y-120650776D01*
X116967219Y-120650776D01*
X116835283Y-120355688D01*
X116494555Y-120184841D01*
X116127043Y-120083750D01*
X115746871Y-120056299D01*
X115368649Y-120103543D01*
X115006910Y-120223667D01*
X114759917Y-120355688D01*
X114627981Y-120650776D01*
X111967219Y-120650776D01*
X111835283Y-120355688D01*
X111494555Y-120184841D01*
X111127043Y-120083750D01*
X110746871Y-120056299D01*
X110368649Y-120103543D01*
X110006910Y-120223667D01*
X109759917Y-120355688D01*
X109627981Y-120650776D01*
X107730825Y-120650776D01*
X107723412Y-120575518D01*
X107687102Y-120455820D01*
X107628137Y-120345506D01*
X107548785Y-120248815D01*
X107452094Y-120169463D01*
X107341780Y-120110498D01*
X107222082Y-120074188D01*
X107097600Y-120061928D01*
X106083350Y-120065000D01*
X105924600Y-120223750D01*
X105670600Y-120223750D01*
X105511850Y-120065000D01*
X104497600Y-120061928D01*
X104373118Y-120074188D01*
X104253420Y-120110498D01*
X104143106Y-120169463D01*
X104046415Y-120248815D01*
X103967063Y-120345506D01*
X103908098Y-120455820D01*
X103871788Y-120575518D01*
X103859528Y-120700000D01*
X86786504Y-120700000D01*
X87003013Y-120483491D01*
X87214775Y-120166566D01*
X87360639Y-119814419D01*
X87435000Y-119440581D01*
X87435000Y-119059419D01*
X87421730Y-118992702D01*
X161186903Y-118992702D01*
X161258486Y-119236671D01*
X161513996Y-119357571D01*
X161788184Y-119426300D01*
X162070512Y-119440217D01*
X162350130Y-119398787D01*
X162616292Y-119303603D01*
X162741514Y-119236671D01*
X162813097Y-118992702D01*
X162000000Y-118179605D01*
X161186903Y-118992702D01*
X87421730Y-118992702D01*
X87360639Y-118685581D01*
X87214775Y-118333434D01*
X87039097Y-118070512D01*
X160559783Y-118070512D01*
X160601213Y-118350130D01*
X160696397Y-118616292D01*
X160763329Y-118741514D01*
X161007298Y-118813097D01*
X161820395Y-118000000D01*
X162179605Y-118000000D01*
X162992702Y-118813097D01*
X163236671Y-118741514D01*
X163250324Y-118712659D01*
X163385363Y-118914759D01*
X163585241Y-119114637D01*
X163820273Y-119271680D01*
X164081426Y-119379853D01*
X164358665Y-119435000D01*
X164641335Y-119435000D01*
X164918574Y-119379853D01*
X165179727Y-119271680D01*
X165414759Y-119114637D01*
X165614637Y-118914759D01*
X165771680Y-118679727D01*
X165879853Y-118418574D01*
X165935000Y-118141335D01*
X165935000Y-117858665D01*
X165879853Y-117581426D01*
X165771680Y-117320273D01*
X165614637Y-117085241D01*
X165414759Y-116885363D01*
X165179727Y-116728320D01*
X164918574Y-116620147D01*
X164641335Y-116565000D01*
X164358665Y-116565000D01*
X164081426Y-116620147D01*
X163820273Y-116728320D01*
X163585241Y-116885363D01*
X163385363Y-117085241D01*
X163251308Y-117285869D01*
X163236671Y-117258486D01*
X162992702Y-117186903D01*
X162179605Y-118000000D01*
X161820395Y-118000000D01*
X161007298Y-117186903D01*
X160763329Y-117258486D01*
X160642429Y-117513996D01*
X160573700Y-117788184D01*
X160559783Y-118070512D01*
X87039097Y-118070512D01*
X87003013Y-118016509D01*
X86733491Y-117746987D01*
X86416566Y-117535225D01*
X86064419Y-117389361D01*
X85690581Y-117315000D01*
X85309419Y-117315000D01*
X84935581Y-117389361D01*
X84583434Y-117535225D01*
X84266509Y-117746987D01*
X83996987Y-118016509D01*
X83785225Y-118333434D01*
X83639361Y-118685581D01*
X83565000Y-119059419D01*
X80028898Y-119059419D01*
X80014957Y-117007298D01*
X161186903Y-117007298D01*
X162000000Y-117820395D01*
X162813097Y-117007298D01*
X162741514Y-116763329D01*
X162486004Y-116642429D01*
X162211816Y-116573700D01*
X161929488Y-116559783D01*
X161649870Y-116601213D01*
X161383708Y-116696397D01*
X161258486Y-116763329D01*
X161186903Y-117007298D01*
X80014957Y-117007298D01*
X79994929Y-114059419D01*
X83565000Y-114059419D01*
X83565000Y-114440581D01*
X83639361Y-114814419D01*
X83785225Y-115166566D01*
X83996987Y-115483491D01*
X84266509Y-115753013D01*
X84583434Y-115964775D01*
X84935581Y-116110639D01*
X85309419Y-116185000D01*
X85690581Y-116185000D01*
X86064419Y-116110639D01*
X86416566Y-115964775D01*
X86733491Y-115753013D01*
X87003013Y-115483491D01*
X87214775Y-115166566D01*
X87360639Y-114814419D01*
X87435000Y-114440581D01*
X87435000Y-114059419D01*
X87360639Y-113685581D01*
X87242348Y-113400000D01*
X147961928Y-113400000D01*
X147974188Y-113524482D01*
X148010498Y-113644180D01*
X148069463Y-113754494D01*
X148148815Y-113851185D01*
X148245506Y-113930537D01*
X148355820Y-113989502D01*
X148475518Y-114025812D01*
X148600000Y-114038072D01*
X149214250Y-114035000D01*
X149373000Y-113876250D01*
X149373000Y-112627000D01*
X149627000Y-112627000D01*
X149627000Y-113876250D01*
X149785750Y-114035000D01*
X150400000Y-114038072D01*
X150524482Y-114025812D01*
X150644180Y-113989502D01*
X150754494Y-113930537D01*
X150851185Y-113851185D01*
X150930537Y-113754494D01*
X150989502Y-113644180D01*
X151025812Y-113524482D01*
X151038072Y-113400000D01*
X151036184Y-113022357D01*
X163070000Y-113022357D01*
X163070000Y-113304043D01*
X163124954Y-113580316D01*
X163232751Y-113840559D01*
X163389247Y-114074772D01*
X163588428Y-114273953D01*
X163822641Y-114430449D01*
X164082884Y-114538246D01*
X164359157Y-114593200D01*
X164640843Y-114593200D01*
X164917116Y-114538246D01*
X165177359Y-114430449D01*
X165411572Y-114273953D01*
X165610753Y-114074772D01*
X165767249Y-113840559D01*
X165875046Y-113580316D01*
X165930000Y-113304043D01*
X165930000Y-113022357D01*
X165875046Y-112746084D01*
X165767249Y-112485841D01*
X165610753Y-112251628D01*
X165411572Y-112052447D01*
X165177359Y-111895951D01*
X165169504Y-111892697D01*
X165238550Y-111855791D01*
X165309527Y-111612332D01*
X164500000Y-110802805D01*
X163690473Y-111612332D01*
X163761450Y-111855791D01*
X163835301Y-111890707D01*
X163822641Y-111895951D01*
X163588428Y-112052447D01*
X163389247Y-112251628D01*
X163232751Y-112485841D01*
X163124954Y-112746084D01*
X163070000Y-113022357D01*
X151036184Y-113022357D01*
X151035000Y-112785750D01*
X150876250Y-112627000D01*
X149627000Y-112627000D01*
X149373000Y-112627000D01*
X148123750Y-112627000D01*
X147965000Y-112785750D01*
X147961928Y-113400000D01*
X87242348Y-113400000D01*
X87214775Y-113333434D01*
X87003013Y-113016509D01*
X86733491Y-112746987D01*
X86416566Y-112535225D01*
X86064419Y-112389361D01*
X85690581Y-112315000D01*
X85309419Y-112315000D01*
X84935581Y-112389361D01*
X84583434Y-112535225D01*
X84266509Y-112746987D01*
X83996987Y-113016509D01*
X83785225Y-113333434D01*
X83639361Y-113685581D01*
X83565000Y-114059419D01*
X79994929Y-114059419D01*
X79960960Y-109059419D01*
X83565000Y-109059419D01*
X83565000Y-109440581D01*
X83639361Y-109814419D01*
X83785225Y-110166566D01*
X83996987Y-110483491D01*
X84266509Y-110753013D01*
X84583434Y-110964775D01*
X84935581Y-111110639D01*
X85309419Y-111185000D01*
X85690581Y-111185000D01*
X86064419Y-111110639D01*
X86416566Y-110964775D01*
X86733491Y-110753013D01*
X87003013Y-110483491D01*
X87214775Y-110166566D01*
X87360639Y-109814419D01*
X87435000Y-109440581D01*
X87435000Y-109145098D01*
X96115000Y-109145098D01*
X96115000Y-109614902D01*
X96206654Y-110075679D01*
X96386440Y-110509721D01*
X96647450Y-110900349D01*
X96979651Y-111232550D01*
X97370279Y-111493560D01*
X97804321Y-111673346D01*
X98265098Y-111765000D01*
X98734902Y-111765000D01*
X99195679Y-111673346D01*
X99629721Y-111493560D01*
X100020349Y-111232550D01*
X100352550Y-110900349D01*
X100613560Y-110509721D01*
X100676129Y-110358665D01*
X133065000Y-110358665D01*
X133065000Y-110641335D01*
X133120147Y-110918574D01*
X133228320Y-111179727D01*
X133385363Y-111414759D01*
X133585241Y-111614637D01*
X133820273Y-111771680D01*
X134081426Y-111879853D01*
X134358665Y-111935000D01*
X134641335Y-111935000D01*
X134918574Y-111879853D01*
X135179727Y-111771680D01*
X135414759Y-111614637D01*
X135614637Y-111414759D01*
X135771680Y-111179727D01*
X135879853Y-110918574D01*
X135935000Y-110641335D01*
X135935000Y-110500000D01*
X143218057Y-110500000D01*
X143245764Y-110781309D01*
X143327818Y-111051808D01*
X143461068Y-111301101D01*
X143640392Y-111519608D01*
X143858899Y-111698932D01*
X144108192Y-111832182D01*
X144378691Y-111914236D01*
X144589508Y-111935000D01*
X144730492Y-111935000D01*
X144941309Y-111914236D01*
X145211808Y-111832182D01*
X145461101Y-111698932D01*
X145581650Y-111600000D01*
X147961928Y-111600000D01*
X147965000Y-112214250D01*
X148123750Y-112373000D01*
X149373000Y-112373000D01*
X149373000Y-112353000D01*
X149627000Y-112353000D01*
X149627000Y-112373000D01*
X150876250Y-112373000D01*
X151035000Y-112214250D01*
X151038072Y-111600000D01*
X151025812Y-111475518D01*
X150989502Y-111355820D01*
X150930537Y-111245506D01*
X150851185Y-111148815D01*
X150754494Y-111069463D01*
X150644180Y-111010498D01*
X150625873Y-111004944D01*
X150692312Y-110938505D01*
X150855746Y-110693909D01*
X163064821Y-110693909D01*
X163106192Y-110972540D01*
X163201127Y-111237747D01*
X163267409Y-111361750D01*
X163510868Y-111432727D01*
X164320395Y-110623200D01*
X164679605Y-110623200D01*
X165489132Y-111432727D01*
X165732591Y-111361750D01*
X165852992Y-111107092D01*
X165921397Y-110833839D01*
X165935179Y-110552491D01*
X165893808Y-110273860D01*
X165798873Y-110008653D01*
X165732591Y-109884650D01*
X165489132Y-109813673D01*
X164679605Y-110623200D01*
X164320395Y-110623200D01*
X163510868Y-109813673D01*
X163267409Y-109884650D01*
X163147008Y-110139308D01*
X163078603Y-110412561D01*
X163064821Y-110693909D01*
X150855746Y-110693909D01*
X150860299Y-110687095D01*
X150976011Y-110407743D01*
X151035000Y-110111184D01*
X151035000Y-109808816D01*
X150976011Y-109512257D01*
X150860299Y-109232905D01*
X150692312Y-108981495D01*
X150478505Y-108767688D01*
X150227095Y-108599701D01*
X149947743Y-108483989D01*
X149651184Y-108425000D01*
X149348816Y-108425000D01*
X149052257Y-108483989D01*
X148772905Y-108599701D01*
X148521495Y-108767688D01*
X148307688Y-108981495D01*
X148139701Y-109232905D01*
X148023989Y-109512257D01*
X147965000Y-109808816D01*
X147965000Y-110111184D01*
X148023989Y-110407743D01*
X148139701Y-110687095D01*
X148307688Y-110938505D01*
X148374127Y-111004944D01*
X148355820Y-111010498D01*
X148245506Y-111069463D01*
X148148815Y-111148815D01*
X148069463Y-111245506D01*
X148010498Y-111355820D01*
X147974188Y-111475518D01*
X147961928Y-111600000D01*
X145581650Y-111600000D01*
X145679608Y-111519608D01*
X145858932Y-111301101D01*
X145992182Y-111051808D01*
X146074236Y-110781309D01*
X146101943Y-110500000D01*
X146074236Y-110218691D01*
X145992182Y-109948192D01*
X145858932Y-109698899D01*
X145679608Y-109480392D01*
X145461101Y-109301068D01*
X145211808Y-109167818D01*
X144941309Y-109085764D01*
X144730492Y-109065000D01*
X144589508Y-109065000D01*
X144378691Y-109085764D01*
X144108192Y-109167818D01*
X143858899Y-109301068D01*
X143640392Y-109480392D01*
X143461068Y-109698899D01*
X143327818Y-109948192D01*
X143245764Y-110218691D01*
X143218057Y-110500000D01*
X135935000Y-110500000D01*
X135935000Y-110358665D01*
X135879853Y-110081426D01*
X135771680Y-109820273D01*
X135614637Y-109585241D01*
X135414759Y-109385363D01*
X135179727Y-109228320D01*
X134918574Y-109120147D01*
X134641335Y-109065000D01*
X134358665Y-109065000D01*
X134081426Y-109120147D01*
X133820273Y-109228320D01*
X133585241Y-109385363D01*
X133385363Y-109585241D01*
X133228320Y-109820273D01*
X133120147Y-110081426D01*
X133065000Y-110358665D01*
X100676129Y-110358665D01*
X100793346Y-110075679D01*
X100885000Y-109614902D01*
X100885000Y-109145098D01*
X100793346Y-108684321D01*
X100613560Y-108250279D01*
X100407813Y-107942357D01*
X163070000Y-107942357D01*
X163070000Y-108224043D01*
X163124954Y-108500316D01*
X163232751Y-108760559D01*
X163389247Y-108994772D01*
X163588428Y-109193953D01*
X163822641Y-109350449D01*
X163830496Y-109353703D01*
X163761450Y-109390609D01*
X163690473Y-109634068D01*
X164500000Y-110443595D01*
X165309527Y-109634068D01*
X165238550Y-109390609D01*
X165164699Y-109355693D01*
X165177359Y-109350449D01*
X165411572Y-109193953D01*
X165610753Y-108994772D01*
X165767249Y-108760559D01*
X165875046Y-108500316D01*
X165930000Y-108224043D01*
X165930000Y-107942357D01*
X165875046Y-107666084D01*
X165767249Y-107405841D01*
X165610753Y-107171628D01*
X165411572Y-106972447D01*
X165177359Y-106815951D01*
X164917116Y-106708154D01*
X164640843Y-106653200D01*
X164359157Y-106653200D01*
X164082884Y-106708154D01*
X163822641Y-106815951D01*
X163588428Y-106972447D01*
X163389247Y-107171628D01*
X163232751Y-107405841D01*
X163124954Y-107666084D01*
X163070000Y-107942357D01*
X100407813Y-107942357D01*
X100352550Y-107859651D01*
X100020349Y-107527450D01*
X99629721Y-107266440D01*
X99195679Y-107086654D01*
X98734902Y-106995000D01*
X98265098Y-106995000D01*
X97804321Y-107086654D01*
X97370279Y-107266440D01*
X96979651Y-107527450D01*
X96647450Y-107859651D01*
X96386440Y-108250279D01*
X96206654Y-108684321D01*
X96115000Y-109145098D01*
X87435000Y-109145098D01*
X87435000Y-109059419D01*
X87360639Y-108685581D01*
X87214775Y-108333434D01*
X87003013Y-108016509D01*
X86733491Y-107746987D01*
X86416566Y-107535225D01*
X86064419Y-107389361D01*
X85690581Y-107315000D01*
X85309419Y-107315000D01*
X84935581Y-107389361D01*
X84583434Y-107535225D01*
X84266509Y-107746987D01*
X83996987Y-108016509D01*
X83785225Y-108333434D01*
X83639361Y-108685581D01*
X83565000Y-109059419D01*
X79960960Y-109059419D01*
X79926991Y-104059419D01*
X83565000Y-104059419D01*
X83565000Y-104440581D01*
X83639361Y-104814419D01*
X83785225Y-105166566D01*
X83996987Y-105483491D01*
X84266509Y-105753013D01*
X84583434Y-105964775D01*
X84935581Y-106110639D01*
X85309419Y-106185000D01*
X85690581Y-106185000D01*
X86064419Y-106110639D01*
X86349144Y-105992702D01*
X118186903Y-105992702D01*
X118258486Y-106236671D01*
X118513996Y-106357571D01*
X118788184Y-106426300D01*
X119070512Y-106440217D01*
X119350130Y-106398787D01*
X119616292Y-106303603D01*
X119741514Y-106236671D01*
X119813097Y-105992702D01*
X119000000Y-105179605D01*
X118186903Y-105992702D01*
X86349144Y-105992702D01*
X86416566Y-105964775D01*
X86733491Y-105753013D01*
X87003013Y-105483491D01*
X87214775Y-105166566D01*
X87254561Y-105070512D01*
X117559783Y-105070512D01*
X117601213Y-105350130D01*
X117696397Y-105616292D01*
X117763329Y-105741514D01*
X118007298Y-105813097D01*
X118820395Y-105000000D01*
X119179605Y-105000000D01*
X119992702Y-105813097D01*
X120236671Y-105741514D01*
X120250324Y-105712659D01*
X120385363Y-105914759D01*
X120585241Y-106114637D01*
X120820273Y-106271680D01*
X121081426Y-106379853D01*
X121358665Y-106435000D01*
X121641335Y-106435000D01*
X121918574Y-106379853D01*
X121969726Y-106358665D01*
X135215000Y-106358665D01*
X135215000Y-106641335D01*
X135270147Y-106918574D01*
X135378320Y-107179727D01*
X135535363Y-107414759D01*
X135735241Y-107614637D01*
X135970273Y-107771680D01*
X136231426Y-107879853D01*
X136508665Y-107935000D01*
X136791335Y-107935000D01*
X137068574Y-107879853D01*
X137329727Y-107771680D01*
X137564759Y-107614637D01*
X137764637Y-107414759D01*
X137921680Y-107179727D01*
X138029853Y-106918574D01*
X138085000Y-106641335D01*
X138085000Y-106358665D01*
X141565000Y-106358665D01*
X141565000Y-106641335D01*
X141620147Y-106918574D01*
X141728320Y-107179727D01*
X141885363Y-107414759D01*
X142085241Y-107614637D01*
X142320273Y-107771680D01*
X142581426Y-107879853D01*
X142858665Y-107935000D01*
X143141335Y-107935000D01*
X143418574Y-107879853D01*
X143679727Y-107771680D01*
X143914759Y-107614637D01*
X144114637Y-107414759D01*
X144271680Y-107179727D01*
X144379853Y-106918574D01*
X144435000Y-106641335D01*
X144435000Y-106358665D01*
X144379853Y-106081426D01*
X144271680Y-105820273D01*
X144114637Y-105585241D01*
X143914759Y-105385363D01*
X143679727Y-105228320D01*
X143418574Y-105120147D01*
X143141335Y-105065000D01*
X142858665Y-105065000D01*
X142581426Y-105120147D01*
X142320273Y-105228320D01*
X142085241Y-105385363D01*
X141885363Y-105585241D01*
X141728320Y-105820273D01*
X141620147Y-106081426D01*
X141565000Y-106358665D01*
X138085000Y-106358665D01*
X138029853Y-106081426D01*
X137921680Y-105820273D01*
X137764637Y-105585241D01*
X137564759Y-105385363D01*
X137329727Y-105228320D01*
X137068574Y-105120147D01*
X136791335Y-105065000D01*
X136508665Y-105065000D01*
X136231426Y-105120147D01*
X135970273Y-105228320D01*
X135735241Y-105385363D01*
X135535363Y-105585241D01*
X135378320Y-105820273D01*
X135270147Y-106081426D01*
X135215000Y-106358665D01*
X121969726Y-106358665D01*
X122179727Y-106271680D01*
X122414759Y-106114637D01*
X122614637Y-105914759D01*
X122771680Y-105679727D01*
X122879853Y-105418574D01*
X122935000Y-105141335D01*
X122935000Y-104858665D01*
X122879853Y-104581426D01*
X122771680Y-104320273D01*
X122614637Y-104085241D01*
X122414759Y-103885363D01*
X122346869Y-103840000D01*
X128511928Y-103840000D01*
X128511928Y-105540000D01*
X128524188Y-105664482D01*
X128560498Y-105784180D01*
X128619463Y-105894494D01*
X128698815Y-105991185D01*
X128795506Y-106070537D01*
X128905820Y-106129502D01*
X129025518Y-106165812D01*
X129150000Y-106178072D01*
X130850000Y-106178072D01*
X130974482Y-106165812D01*
X131094180Y-106129502D01*
X131204494Y-106070537D01*
X131301185Y-105991185D01*
X131380537Y-105894494D01*
X131439502Y-105784180D01*
X131475812Y-105664482D01*
X131488072Y-105540000D01*
X131488072Y-104135413D01*
X152039191Y-104135413D01*
X152134955Y-104399814D01*
X152424570Y-104540704D01*
X152736107Y-104622384D01*
X153057594Y-104641718D01*
X153376674Y-104597961D01*
X153681087Y-104492795D01*
X153855043Y-104399814D01*
X153950807Y-104135413D01*
X153808096Y-103992702D01*
X161186903Y-103992702D01*
X161258486Y-104236671D01*
X161513996Y-104357571D01*
X161788184Y-104426300D01*
X162070512Y-104440217D01*
X162350130Y-104398787D01*
X162616292Y-104303603D01*
X162741514Y-104236671D01*
X162813097Y-103992702D01*
X162000000Y-103179605D01*
X161186903Y-103992702D01*
X153808096Y-103992702D01*
X152994999Y-103179605D01*
X152039191Y-104135413D01*
X131488072Y-104135413D01*
X131488072Y-103840000D01*
X131475812Y-103715518D01*
X131439502Y-103595820D01*
X131380537Y-103485506D01*
X131301185Y-103388815D01*
X131204494Y-103309463D01*
X131094180Y-103250498D01*
X131013534Y-103226034D01*
X131097588Y-103150269D01*
X131162983Y-103062595D01*
X151353281Y-103062595D01*
X151397038Y-103381675D01*
X151502204Y-103686088D01*
X151595185Y-103860044D01*
X151859586Y-103955808D01*
X152815394Y-103000000D01*
X153174604Y-103000000D01*
X154130412Y-103955808D01*
X154394813Y-103860044D01*
X154535703Y-103570429D01*
X154617383Y-103258892D01*
X154628712Y-103070512D01*
X160559783Y-103070512D01*
X160601213Y-103350130D01*
X160696397Y-103616292D01*
X160763329Y-103741514D01*
X161007298Y-103813097D01*
X161820395Y-103000000D01*
X162179605Y-103000000D01*
X162992702Y-103813097D01*
X163236671Y-103741514D01*
X163250324Y-103712659D01*
X163385363Y-103914759D01*
X163585241Y-104114637D01*
X163820273Y-104271680D01*
X164081426Y-104379853D01*
X164358665Y-104435000D01*
X164641335Y-104435000D01*
X164918574Y-104379853D01*
X165179727Y-104271680D01*
X165414759Y-104114637D01*
X165614637Y-103914759D01*
X165771680Y-103679727D01*
X165879853Y-103418574D01*
X165935000Y-103141335D01*
X165935000Y-102858665D01*
X165879853Y-102581426D01*
X165771680Y-102320273D01*
X165614637Y-102085241D01*
X165414759Y-101885363D01*
X165179727Y-101728320D01*
X164918574Y-101620147D01*
X164641335Y-101565000D01*
X164358665Y-101565000D01*
X164081426Y-101620147D01*
X163820273Y-101728320D01*
X163585241Y-101885363D01*
X163385363Y-102085241D01*
X163251308Y-102285869D01*
X163236671Y-102258486D01*
X162992702Y-102186903D01*
X162179605Y-103000000D01*
X161820395Y-103000000D01*
X161007298Y-102186903D01*
X160763329Y-102258486D01*
X160642429Y-102513996D01*
X160573700Y-102788184D01*
X160559783Y-103070512D01*
X154628712Y-103070512D01*
X154636717Y-102937405D01*
X154592960Y-102618325D01*
X154487794Y-102313912D01*
X154394813Y-102139956D01*
X154130412Y-102044192D01*
X153174604Y-103000000D01*
X152815394Y-103000000D01*
X151859586Y-102044192D01*
X151595185Y-102139956D01*
X151454295Y-102429571D01*
X151372615Y-102741108D01*
X151353281Y-103062595D01*
X131162983Y-103062595D01*
X131271641Y-102916920D01*
X131396825Y-102654099D01*
X131441476Y-102506890D01*
X131320155Y-102277000D01*
X130127000Y-102277000D01*
X130127000Y-102297000D01*
X129873000Y-102297000D01*
X129873000Y-102277000D01*
X128679845Y-102277000D01*
X128558524Y-102506890D01*
X128603175Y-102654099D01*
X128728359Y-102916920D01*
X128902412Y-103150269D01*
X128986466Y-103226034D01*
X128905820Y-103250498D01*
X128795506Y-103309463D01*
X128698815Y-103388815D01*
X128619463Y-103485506D01*
X128560498Y-103595820D01*
X128524188Y-103715518D01*
X128511928Y-103840000D01*
X122346869Y-103840000D01*
X122179727Y-103728320D01*
X121918574Y-103620147D01*
X121641335Y-103565000D01*
X121358665Y-103565000D01*
X121081426Y-103620147D01*
X120820273Y-103728320D01*
X120585241Y-103885363D01*
X120385363Y-104085241D01*
X120251308Y-104285869D01*
X120236671Y-104258486D01*
X119992702Y-104186903D01*
X119179605Y-105000000D01*
X118820395Y-105000000D01*
X118007298Y-104186903D01*
X117763329Y-104258486D01*
X117642429Y-104513996D01*
X117573700Y-104788184D01*
X117559783Y-105070512D01*
X87254561Y-105070512D01*
X87360639Y-104814419D01*
X87435000Y-104440581D01*
X87435000Y-104059419D01*
X87424633Y-104007298D01*
X118186903Y-104007298D01*
X119000000Y-104820395D01*
X119813097Y-104007298D01*
X119741514Y-103763329D01*
X119486004Y-103642429D01*
X119211816Y-103573700D01*
X118929488Y-103559783D01*
X118649870Y-103601213D01*
X118383708Y-103696397D01*
X118258486Y-103763329D01*
X118186903Y-104007298D01*
X87424633Y-104007298D01*
X87360639Y-103685581D01*
X87214775Y-103333434D01*
X87003013Y-103016509D01*
X86733491Y-102746987D01*
X86416566Y-102535225D01*
X86064419Y-102389361D01*
X85690581Y-102315000D01*
X85309419Y-102315000D01*
X84935581Y-102389361D01*
X84583434Y-102535225D01*
X84266509Y-102746987D01*
X83996987Y-103016509D01*
X83785225Y-103333434D01*
X83639361Y-103685581D01*
X83565000Y-104059419D01*
X79926991Y-104059419D01*
X79893022Y-99059419D01*
X83565000Y-99059419D01*
X83565000Y-99440581D01*
X83639361Y-99814419D01*
X83785225Y-100166566D01*
X83996987Y-100483491D01*
X84266509Y-100753013D01*
X84583434Y-100964775D01*
X84935581Y-101110639D01*
X85309419Y-101185000D01*
X85690581Y-101185000D01*
X86064419Y-101110639D01*
X86416566Y-100964775D01*
X86733491Y-100753013D01*
X87003013Y-100483491D01*
X87214775Y-100166566D01*
X87360639Y-99814419D01*
X87435000Y-99440581D01*
X87435000Y-99059419D01*
X87360639Y-98685581D01*
X87214775Y-98333434D01*
X87003013Y-98016509D01*
X86733491Y-97746987D01*
X86416566Y-97535225D01*
X86064419Y-97389361D01*
X85690581Y-97315000D01*
X85309419Y-97315000D01*
X84935581Y-97389361D01*
X84583434Y-97535225D01*
X84266509Y-97746987D01*
X83996987Y-98016509D01*
X83785225Y-98333434D01*
X83639361Y-98685581D01*
X83565000Y-99059419D01*
X79893022Y-99059419D01*
X79878373Y-96903140D01*
X96978600Y-96903140D01*
X96978600Y-97195660D01*
X97035668Y-97482558D01*
X97147610Y-97752811D01*
X97310125Y-97996032D01*
X97516968Y-98202875D01*
X97760189Y-98365390D01*
X98030442Y-98477332D01*
X98317340Y-98534400D01*
X98609860Y-98534400D01*
X98896758Y-98477332D01*
X99167011Y-98365390D01*
X99410232Y-98202875D01*
X99617075Y-97996032D01*
X99733600Y-97821640D01*
X99850125Y-97996032D01*
X100056968Y-98202875D01*
X100300189Y-98365390D01*
X100570442Y-98477332D01*
X100857340Y-98534400D01*
X101149860Y-98534400D01*
X101436758Y-98477332D01*
X101707011Y-98365390D01*
X101950232Y-98202875D01*
X102157075Y-97996032D01*
X102273600Y-97821640D01*
X102390125Y-97996032D01*
X102596968Y-98202875D01*
X102840189Y-98365390D01*
X103110442Y-98477332D01*
X103397340Y-98534400D01*
X103689860Y-98534400D01*
X103976758Y-98477332D01*
X104247011Y-98365390D01*
X104490232Y-98202875D01*
X104697075Y-97996032D01*
X104813600Y-97821640D01*
X104930125Y-97996032D01*
X105136968Y-98202875D01*
X105380189Y-98365390D01*
X105650442Y-98477332D01*
X105937340Y-98534400D01*
X106229860Y-98534400D01*
X106516758Y-98477332D01*
X106787011Y-98365390D01*
X107030232Y-98202875D01*
X107237075Y-97996032D01*
X107353600Y-97821640D01*
X107470125Y-97996032D01*
X107676968Y-98202875D01*
X107920189Y-98365390D01*
X108190442Y-98477332D01*
X108477340Y-98534400D01*
X108769860Y-98534400D01*
X109056758Y-98477332D01*
X109327011Y-98365390D01*
X109570232Y-98202875D01*
X109695310Y-98077797D01*
X110314808Y-98077797D01*
X110392443Y-98326872D01*
X110656483Y-98452771D01*
X110940011Y-98524739D01*
X111232131Y-98540011D01*
X111521619Y-98497999D01*
X111797347Y-98400319D01*
X111934757Y-98326872D01*
X112012392Y-98077797D01*
X111163600Y-97229005D01*
X110314808Y-98077797D01*
X109695310Y-98077797D01*
X109777075Y-97996032D01*
X109892911Y-97822671D01*
X110135203Y-97898192D01*
X110983995Y-97049400D01*
X111343205Y-97049400D01*
X112191997Y-97898192D01*
X112434289Y-97822671D01*
X112550125Y-97996032D01*
X112756968Y-98202875D01*
X113000189Y-98365390D01*
X113270442Y-98477332D01*
X113557340Y-98534400D01*
X113849860Y-98534400D01*
X114136758Y-98477332D01*
X114407011Y-98365390D01*
X114650232Y-98202875D01*
X114857075Y-97996032D01*
X114973600Y-97821640D01*
X115090125Y-97996032D01*
X115296968Y-98202875D01*
X115540189Y-98365390D01*
X115810442Y-98477332D01*
X115891631Y-98493482D01*
X117862063Y-100463914D01*
X117901830Y-100512370D01*
X118095212Y-100671075D01*
X118315841Y-100789003D01*
X118448307Y-100829186D01*
X118555236Y-100861623D01*
X118580955Y-100864156D01*
X118741820Y-100880000D01*
X118741826Y-100880000D01*
X118804199Y-100886143D01*
X118866572Y-100880000D01*
X129225791Y-100880000D01*
X129235523Y-100885201D01*
X129118645Y-100954822D01*
X128902412Y-101149731D01*
X128728359Y-101383080D01*
X128603175Y-101645901D01*
X128558524Y-101793110D01*
X128679845Y-102023000D01*
X129873000Y-102023000D01*
X129873000Y-102003000D01*
X130127000Y-102003000D01*
X130127000Y-102023000D01*
X131320155Y-102023000D01*
X131403755Y-101864587D01*
X152039191Y-101864587D01*
X152994999Y-102820395D01*
X153808096Y-102007298D01*
X161186903Y-102007298D01*
X162000000Y-102820395D01*
X162813097Y-102007298D01*
X162741514Y-101763329D01*
X162486004Y-101642429D01*
X162211816Y-101573700D01*
X161929488Y-101559783D01*
X161649870Y-101601213D01*
X161383708Y-101696397D01*
X161258486Y-101763329D01*
X161186903Y-102007298D01*
X153808096Y-102007298D01*
X153950807Y-101864587D01*
X153855043Y-101600186D01*
X153565428Y-101459296D01*
X153253891Y-101377616D01*
X152932404Y-101358282D01*
X152613324Y-101402039D01*
X152308911Y-101507205D01*
X152134955Y-101600186D01*
X152039191Y-101864587D01*
X131403755Y-101864587D01*
X131441476Y-101793110D01*
X131396825Y-101645901D01*
X131271641Y-101383080D01*
X131097588Y-101149731D01*
X130881355Y-100954822D01*
X130764477Y-100885201D01*
X130829014Y-100850706D01*
X131055134Y-100665134D01*
X131240706Y-100439014D01*
X131378599Y-100181034D01*
X131463513Y-99901111D01*
X131492185Y-99610000D01*
X131463513Y-99318889D01*
X131378599Y-99038966D01*
X131240706Y-98780986D01*
X131055134Y-98554866D01*
X130829014Y-98369294D01*
X130774209Y-98340000D01*
X130829014Y-98310706D01*
X131055134Y-98125134D01*
X131240706Y-97899014D01*
X131378599Y-97641034D01*
X131463513Y-97361111D01*
X131492185Y-97070000D01*
X131463513Y-96778889D01*
X131378599Y-96498966D01*
X131293631Y-96340000D01*
X135208057Y-96340000D01*
X135235764Y-96621309D01*
X135317818Y-96891808D01*
X135451068Y-97141101D01*
X135630392Y-97359608D01*
X135848899Y-97538932D01*
X136098192Y-97672182D01*
X136368691Y-97754236D01*
X136579508Y-97775000D01*
X136720492Y-97775000D01*
X136931309Y-97754236D01*
X137201808Y-97672182D01*
X137451101Y-97538932D01*
X137669608Y-97359608D01*
X137848932Y-97141101D01*
X137982182Y-96891808D01*
X138064236Y-96621309D01*
X138091943Y-96340000D01*
X141558057Y-96340000D01*
X141585764Y-96621309D01*
X141667818Y-96891808D01*
X141801068Y-97141101D01*
X141980392Y-97359608D01*
X142198899Y-97538932D01*
X142448192Y-97672182D01*
X142718691Y-97754236D01*
X142929508Y-97775000D01*
X143070492Y-97775000D01*
X143281309Y-97754236D01*
X143551808Y-97672182D01*
X143801101Y-97538932D01*
X144019608Y-97359608D01*
X144198932Y-97141101D01*
X144274352Y-97000000D01*
X151356927Y-97000000D01*
X151356927Y-99000000D01*
X151369187Y-99124482D01*
X151405497Y-99244180D01*
X151464462Y-99354494D01*
X151543814Y-99451185D01*
X151640505Y-99530537D01*
X151750819Y-99589502D01*
X151870517Y-99625812D01*
X151994999Y-99638072D01*
X153994999Y-99638072D01*
X154119481Y-99625812D01*
X154239179Y-99589502D01*
X154349493Y-99530537D01*
X154446184Y-99451185D01*
X154525536Y-99354494D01*
X154584501Y-99244180D01*
X154620811Y-99124482D01*
X154633071Y-99000000D01*
X154633071Y-97000000D01*
X154620811Y-96875518D01*
X154615699Y-96858665D01*
X160065000Y-96858665D01*
X160065000Y-97141335D01*
X160120147Y-97418574D01*
X160228320Y-97679727D01*
X160385363Y-97914759D01*
X160585241Y-98114637D01*
X160820273Y-98271680D01*
X161081426Y-98379853D01*
X161358665Y-98435000D01*
X161641335Y-98435000D01*
X161918574Y-98379853D01*
X162179727Y-98271680D01*
X162414759Y-98114637D01*
X162536694Y-97992702D01*
X163186903Y-97992702D01*
X163258486Y-98236671D01*
X163513996Y-98357571D01*
X163788184Y-98426300D01*
X164070512Y-98440217D01*
X164350130Y-98398787D01*
X164616292Y-98303603D01*
X164741514Y-98236671D01*
X164813097Y-97992702D01*
X164000000Y-97179605D01*
X163186903Y-97992702D01*
X162536694Y-97992702D01*
X162614637Y-97914759D01*
X162748692Y-97714131D01*
X162763329Y-97741514D01*
X163007298Y-97813097D01*
X163820395Y-97000000D01*
X164179605Y-97000000D01*
X164992702Y-97813097D01*
X165236671Y-97741514D01*
X165357571Y-97486004D01*
X165426300Y-97211816D01*
X165440217Y-96929488D01*
X165398787Y-96649870D01*
X165303603Y-96383708D01*
X165236671Y-96258486D01*
X164992702Y-96186903D01*
X164179605Y-97000000D01*
X163820395Y-97000000D01*
X163007298Y-96186903D01*
X162763329Y-96258486D01*
X162749676Y-96287341D01*
X162614637Y-96085241D01*
X162536694Y-96007298D01*
X163186903Y-96007298D01*
X164000000Y-96820395D01*
X164813097Y-96007298D01*
X164741514Y-95763329D01*
X164486004Y-95642429D01*
X164211816Y-95573700D01*
X163929488Y-95559783D01*
X163649870Y-95601213D01*
X163383708Y-95696397D01*
X163258486Y-95763329D01*
X163186903Y-96007298D01*
X162536694Y-96007298D01*
X162414759Y-95885363D01*
X162179727Y-95728320D01*
X161918574Y-95620147D01*
X161641335Y-95565000D01*
X161358665Y-95565000D01*
X161081426Y-95620147D01*
X160820273Y-95728320D01*
X160585241Y-95885363D01*
X160385363Y-96085241D01*
X160228320Y-96320273D01*
X160120147Y-96581426D01*
X160065000Y-96858665D01*
X154615699Y-96858665D01*
X154584501Y-96755820D01*
X154525536Y-96645506D01*
X154446184Y-96548815D01*
X154349493Y-96469463D01*
X154239179Y-96410498D01*
X154119481Y-96374188D01*
X153994999Y-96361928D01*
X151994999Y-96361928D01*
X151870517Y-96374188D01*
X151750819Y-96410498D01*
X151640505Y-96469463D01*
X151543814Y-96548815D01*
X151464462Y-96645506D01*
X151405497Y-96755820D01*
X151369187Y-96875518D01*
X151356927Y-97000000D01*
X144274352Y-97000000D01*
X144332182Y-96891808D01*
X144414236Y-96621309D01*
X144441943Y-96340000D01*
X144414236Y-96058691D01*
X144332182Y-95788192D01*
X144198932Y-95538899D01*
X144019608Y-95320392D01*
X143801101Y-95141068D01*
X143551808Y-95007818D01*
X143281309Y-94925764D01*
X143070492Y-94905000D01*
X142929508Y-94905000D01*
X142718691Y-94925764D01*
X142448192Y-95007818D01*
X142198899Y-95141068D01*
X141980392Y-95320392D01*
X141801068Y-95538899D01*
X141667818Y-95788192D01*
X141585764Y-96058691D01*
X141558057Y-96340000D01*
X138091943Y-96340000D01*
X138064236Y-96058691D01*
X137982182Y-95788192D01*
X137848932Y-95538899D01*
X137669608Y-95320392D01*
X137451101Y-95141068D01*
X137201808Y-95007818D01*
X136931309Y-94925764D01*
X136720492Y-94905000D01*
X136579508Y-94905000D01*
X136368691Y-94925764D01*
X136098192Y-95007818D01*
X135848899Y-95141068D01*
X135630392Y-95320392D01*
X135451068Y-95538899D01*
X135317818Y-95788192D01*
X135235764Y-96058691D01*
X135208057Y-96340000D01*
X131293631Y-96340000D01*
X131240706Y-96240986D01*
X131055134Y-96014866D01*
X130829014Y-95829294D01*
X130571034Y-95691401D01*
X130291111Y-95606487D01*
X130072950Y-95585000D01*
X129927050Y-95585000D01*
X129708889Y-95606487D01*
X129428966Y-95691401D01*
X129170986Y-95829294D01*
X128944866Y-96014866D01*
X128759294Y-96240986D01*
X128621401Y-96498966D01*
X128536487Y-96778889D01*
X128507815Y-97070000D01*
X128536487Y-97361111D01*
X128621401Y-97641034D01*
X128759294Y-97899014D01*
X128944866Y-98125134D01*
X129170986Y-98310706D01*
X129225791Y-98340000D01*
X122065010Y-98340000D01*
X122270232Y-98202875D01*
X122477075Y-97996032D01*
X122639590Y-97752811D01*
X122751532Y-97482558D01*
X122808600Y-97195660D01*
X122808600Y-96903140D01*
X122751532Y-96616242D01*
X122639590Y-96345989D01*
X122477075Y-96102768D01*
X122270232Y-95895925D01*
X122027011Y-95733410D01*
X121756758Y-95621468D01*
X121469860Y-95564400D01*
X121177340Y-95564400D01*
X120890442Y-95621468D01*
X120620189Y-95733410D01*
X120376968Y-95895925D01*
X120170125Y-96102768D01*
X120054289Y-96276129D01*
X119811997Y-96200608D01*
X118963205Y-97049400D01*
X119811997Y-97898192D01*
X120054289Y-97822671D01*
X120170125Y-97996032D01*
X120376968Y-98202875D01*
X120582190Y-98340000D01*
X119530196Y-98340000D01*
X119554757Y-98326872D01*
X119632392Y-98077797D01*
X118783600Y-97229005D01*
X118769458Y-97243148D01*
X118589853Y-97063543D01*
X118603995Y-97049400D01*
X117755203Y-96200608D01*
X117512911Y-96276129D01*
X117397075Y-96102768D01*
X117315310Y-96021003D01*
X117934808Y-96021003D01*
X118783600Y-96869795D01*
X119632392Y-96021003D01*
X119554757Y-95771928D01*
X119290717Y-95646029D01*
X119007189Y-95574061D01*
X118715069Y-95558789D01*
X118425581Y-95600801D01*
X118149853Y-95698481D01*
X118012443Y-95771928D01*
X117934808Y-96021003D01*
X117315310Y-96021003D01*
X117190232Y-95895925D01*
X116947011Y-95733410D01*
X116676758Y-95621468D01*
X116389860Y-95564400D01*
X116097340Y-95564400D01*
X115810442Y-95621468D01*
X115540189Y-95733410D01*
X115296968Y-95895925D01*
X115090125Y-96102768D01*
X114973600Y-96277160D01*
X114857075Y-96102768D01*
X114650232Y-95895925D01*
X114407011Y-95733410D01*
X114136758Y-95621468D01*
X113849860Y-95564400D01*
X113557340Y-95564400D01*
X113270442Y-95621468D01*
X113000189Y-95733410D01*
X112756968Y-95895925D01*
X112550125Y-96102768D01*
X112434289Y-96276129D01*
X112191997Y-96200608D01*
X111343205Y-97049400D01*
X110983995Y-97049400D01*
X110135203Y-96200608D01*
X109892911Y-96276129D01*
X109777075Y-96102768D01*
X109695310Y-96021003D01*
X110314808Y-96021003D01*
X111163600Y-96869795D01*
X112012392Y-96021003D01*
X111934757Y-95771928D01*
X111670717Y-95646029D01*
X111387189Y-95574061D01*
X111095069Y-95558789D01*
X110805581Y-95600801D01*
X110529853Y-95698481D01*
X110392443Y-95771928D01*
X110314808Y-96021003D01*
X109695310Y-96021003D01*
X109570232Y-95895925D01*
X109327011Y-95733410D01*
X109056758Y-95621468D01*
X108769860Y-95564400D01*
X108477340Y-95564400D01*
X108190442Y-95621468D01*
X107920189Y-95733410D01*
X107676968Y-95895925D01*
X107470125Y-96102768D01*
X107353600Y-96277160D01*
X107237075Y-96102768D01*
X107030232Y-95895925D01*
X106787011Y-95733410D01*
X106516758Y-95621468D01*
X106229860Y-95564400D01*
X105937340Y-95564400D01*
X105650442Y-95621468D01*
X105380189Y-95733410D01*
X105136968Y-95895925D01*
X104930125Y-96102768D01*
X104813600Y-96277160D01*
X104697075Y-96102768D01*
X104490232Y-95895925D01*
X104247011Y-95733410D01*
X103976758Y-95621468D01*
X103689860Y-95564400D01*
X103397340Y-95564400D01*
X103110442Y-95621468D01*
X102840189Y-95733410D01*
X102596968Y-95895925D01*
X102390125Y-96102768D01*
X102273600Y-96277160D01*
X102157075Y-96102768D01*
X101950232Y-95895925D01*
X101707011Y-95733410D01*
X101436758Y-95621468D01*
X101149860Y-95564400D01*
X100857340Y-95564400D01*
X100570442Y-95621468D01*
X100300189Y-95733410D01*
X100056968Y-95895925D01*
X99850125Y-96102768D01*
X99733600Y-96277160D01*
X99617075Y-96102768D01*
X99410232Y-95895925D01*
X99167011Y-95733410D01*
X98896758Y-95621468D01*
X98609860Y-95564400D01*
X98317340Y-95564400D01*
X98030442Y-95621468D01*
X97760189Y-95733410D01*
X97516968Y-95895925D01*
X97310125Y-96102768D01*
X97147610Y-96345989D01*
X97035668Y-96616242D01*
X96978600Y-96903140D01*
X79878373Y-96903140D01*
X79859053Y-94059419D01*
X83565000Y-94059419D01*
X83565000Y-94440581D01*
X83639361Y-94814419D01*
X83785225Y-95166566D01*
X83996987Y-95483491D01*
X84266509Y-95753013D01*
X84583434Y-95964775D01*
X84935581Y-96110639D01*
X85309419Y-96185000D01*
X85690581Y-96185000D01*
X86064419Y-96110639D01*
X86416566Y-95964775D01*
X86733491Y-95753013D01*
X87003013Y-95483491D01*
X87214775Y-95166566D01*
X87360639Y-94814419D01*
X87435000Y-94440581D01*
X87435000Y-94059419D01*
X87360639Y-93685581D01*
X87214775Y-93333434D01*
X87003013Y-93016509D01*
X86733491Y-92746987D01*
X86416566Y-92535225D01*
X86064419Y-92389361D01*
X85690581Y-92315000D01*
X85309419Y-92315000D01*
X84935581Y-92389361D01*
X84583434Y-92535225D01*
X84266509Y-92746987D01*
X83996987Y-93016509D01*
X83785225Y-93333434D01*
X83639361Y-93685581D01*
X83565000Y-94059419D01*
X79859053Y-94059419D01*
X79843296Y-91740000D01*
X126498057Y-91740000D01*
X126525764Y-92021309D01*
X126607818Y-92291808D01*
X126741068Y-92541101D01*
X126920392Y-92759608D01*
X127138899Y-92938932D01*
X127388192Y-93072182D01*
X127658691Y-93154236D01*
X127869508Y-93175000D01*
X128010492Y-93175000D01*
X128221309Y-93154236D01*
X128491808Y-93072182D01*
X128741101Y-92938932D01*
X128959608Y-92759608D01*
X129138932Y-92541101D01*
X129210000Y-92408142D01*
X129281068Y-92541101D01*
X129460392Y-92759608D01*
X129678899Y-92938932D01*
X129928192Y-93072182D01*
X130198691Y-93154236D01*
X130409508Y-93175000D01*
X130550492Y-93175000D01*
X130761309Y-93154236D01*
X131031808Y-93072182D01*
X131281101Y-92938932D01*
X131499608Y-92759608D01*
X131678932Y-92541101D01*
X131750000Y-92408142D01*
X131821068Y-92541101D01*
X132000392Y-92759608D01*
X132218899Y-92938932D01*
X132468192Y-93072182D01*
X132738691Y-93154236D01*
X132949508Y-93175000D01*
X133090492Y-93175000D01*
X133301309Y-93154236D01*
X133571808Y-93072182D01*
X133821101Y-92938932D01*
X134039608Y-92759608D01*
X134218932Y-92541101D01*
X134290000Y-92408142D01*
X134361068Y-92541101D01*
X134540392Y-92759608D01*
X134758899Y-92938932D01*
X135008192Y-93072182D01*
X135278691Y-93154236D01*
X135489508Y-93175000D01*
X135630492Y-93175000D01*
X135841309Y-93154236D01*
X136111808Y-93072182D01*
X136361101Y-92938932D01*
X136579608Y-92759608D01*
X136758932Y-92541101D01*
X136830000Y-92408142D01*
X136901068Y-92541101D01*
X137080392Y-92759608D01*
X137298899Y-92938932D01*
X137548192Y-93072182D01*
X137818691Y-93154236D01*
X138029508Y-93175000D01*
X138170492Y-93175000D01*
X138381309Y-93154236D01*
X138651808Y-93072182D01*
X138901101Y-92938932D01*
X139119608Y-92759608D01*
X139298932Y-92541101D01*
X139370000Y-92408142D01*
X139441068Y-92541101D01*
X139620392Y-92759608D01*
X139838899Y-92938932D01*
X140088192Y-93072182D01*
X140358691Y-93154236D01*
X140569508Y-93175000D01*
X140710492Y-93175000D01*
X140921309Y-93154236D01*
X141191808Y-93072182D01*
X141441101Y-92938932D01*
X141659608Y-92759608D01*
X141838932Y-92541101D01*
X141910000Y-92408142D01*
X141981068Y-92541101D01*
X142160392Y-92759608D01*
X142378899Y-92938932D01*
X142628192Y-93072182D01*
X142898691Y-93154236D01*
X143109508Y-93175000D01*
X143250492Y-93175000D01*
X143461309Y-93154236D01*
X143731808Y-93072182D01*
X143981101Y-92938932D01*
X144199608Y-92759608D01*
X144378932Y-92541101D01*
X144450000Y-92408142D01*
X144521068Y-92541101D01*
X144700392Y-92759608D01*
X144918899Y-92938932D01*
X145168192Y-93072182D01*
X145438691Y-93154236D01*
X145649508Y-93175000D01*
X145790492Y-93175000D01*
X146001309Y-93154236D01*
X146271808Y-93072182D01*
X146521101Y-92938932D01*
X146739608Y-92759608D01*
X146918932Y-92541101D01*
X146990000Y-92408142D01*
X147061068Y-92541101D01*
X147240392Y-92759608D01*
X147458899Y-92938932D01*
X147708192Y-93072182D01*
X147978691Y-93154236D01*
X148189508Y-93175000D01*
X148330492Y-93175000D01*
X148541309Y-93154236D01*
X148811808Y-93072182D01*
X149061101Y-92938932D01*
X149279608Y-92759608D01*
X149458932Y-92541101D01*
X149530000Y-92408142D01*
X149601068Y-92541101D01*
X149780392Y-92759608D01*
X149998899Y-92938932D01*
X150248192Y-93072182D01*
X150518691Y-93154236D01*
X150729508Y-93175000D01*
X150870492Y-93175000D01*
X151081309Y-93154236D01*
X151351808Y-93072182D01*
X151601101Y-92938932D01*
X151819608Y-92759608D01*
X151998932Y-92541101D01*
X152070000Y-92408142D01*
X152141068Y-92541101D01*
X152320392Y-92759608D01*
X152538899Y-92938932D01*
X152788192Y-93072182D01*
X153058691Y-93154236D01*
X153269508Y-93175000D01*
X153410492Y-93175000D01*
X153621309Y-93154236D01*
X153891808Y-93072182D01*
X154141101Y-92938932D01*
X154359608Y-92759608D01*
X154538932Y-92541101D01*
X154610000Y-92408142D01*
X154681068Y-92541101D01*
X154860392Y-92759608D01*
X155078899Y-92938932D01*
X155328192Y-93072182D01*
X155598691Y-93154236D01*
X155809508Y-93175000D01*
X155950492Y-93175000D01*
X156161309Y-93154236D01*
X156431808Y-93072182D01*
X156681101Y-92938932D01*
X156899608Y-92759608D01*
X157078932Y-92541101D01*
X157150000Y-92408142D01*
X157221068Y-92541101D01*
X157400392Y-92759608D01*
X157618899Y-92938932D01*
X157868192Y-93072182D01*
X158138691Y-93154236D01*
X158349508Y-93175000D01*
X158490492Y-93175000D01*
X158701309Y-93154236D01*
X158971808Y-93072182D01*
X159221101Y-92938932D01*
X159439608Y-92759608D01*
X159618932Y-92541101D01*
X159692579Y-92403318D01*
X159807615Y-92595131D01*
X159996586Y-92803519D01*
X160222580Y-92971037D01*
X160476913Y-93091246D01*
X160610961Y-93131904D01*
X160833000Y-93009915D01*
X160833000Y-91867000D01*
X160813000Y-91867000D01*
X160813000Y-91613000D01*
X160833000Y-91613000D01*
X160833000Y-90470085D01*
X161087000Y-90470085D01*
X161087000Y-91613000D01*
X161107000Y-91613000D01*
X161107000Y-91867000D01*
X161087000Y-91867000D01*
X161087000Y-93009915D01*
X161309039Y-93131904D01*
X161443087Y-93091246D01*
X161697420Y-92971037D01*
X161923414Y-92803519D01*
X162112385Y-92595131D01*
X162227421Y-92403318D01*
X162301068Y-92541101D01*
X162480392Y-92759608D01*
X162698899Y-92938932D01*
X162948192Y-93072182D01*
X163218691Y-93154236D01*
X163429508Y-93175000D01*
X163570492Y-93175000D01*
X163781309Y-93154236D01*
X164051808Y-93072182D01*
X164301101Y-92938932D01*
X164519608Y-92759608D01*
X164698932Y-92541101D01*
X164832182Y-92291808D01*
X164914236Y-92021309D01*
X164941943Y-91740000D01*
X164914236Y-91458691D01*
X164832182Y-91188192D01*
X164698932Y-90938899D01*
X164519608Y-90720392D01*
X164301101Y-90541068D01*
X164051808Y-90407818D01*
X163781309Y-90325764D01*
X163570492Y-90305000D01*
X163429508Y-90305000D01*
X163218691Y-90325764D01*
X162948192Y-90407818D01*
X162698899Y-90541068D01*
X162480392Y-90720392D01*
X162301068Y-90938899D01*
X162227421Y-91076682D01*
X162112385Y-90884869D01*
X161923414Y-90676481D01*
X161697420Y-90508963D01*
X161443087Y-90388754D01*
X161309039Y-90348096D01*
X161087000Y-90470085D01*
X160833000Y-90470085D01*
X160610961Y-90348096D01*
X160476913Y-90388754D01*
X160222580Y-90508963D01*
X159996586Y-90676481D01*
X159807615Y-90884869D01*
X159692579Y-91076682D01*
X159618932Y-90938899D01*
X159439608Y-90720392D01*
X159221101Y-90541068D01*
X158971808Y-90407818D01*
X158701309Y-90325764D01*
X158490492Y-90305000D01*
X158349508Y-90305000D01*
X158138691Y-90325764D01*
X157868192Y-90407818D01*
X157618899Y-90541068D01*
X157400392Y-90720392D01*
X157221068Y-90938899D01*
X157150000Y-91071858D01*
X157078932Y-90938899D01*
X156899608Y-90720392D01*
X156681101Y-90541068D01*
X156431808Y-90407818D01*
X156161309Y-90325764D01*
X155950492Y-90305000D01*
X155809508Y-90305000D01*
X155598691Y-90325764D01*
X155328192Y-90407818D01*
X155078899Y-90541068D01*
X154860392Y-90720392D01*
X154681068Y-90938899D01*
X154610000Y-91071858D01*
X154538932Y-90938899D01*
X154359608Y-90720392D01*
X154141101Y-90541068D01*
X153891808Y-90407818D01*
X153621309Y-90325764D01*
X153410492Y-90305000D01*
X153269508Y-90305000D01*
X153058691Y-90325764D01*
X152788192Y-90407818D01*
X152538899Y-90541068D01*
X152320392Y-90720392D01*
X152141068Y-90938899D01*
X152070000Y-91071858D01*
X151998932Y-90938899D01*
X151819608Y-90720392D01*
X151601101Y-90541068D01*
X151351808Y-90407818D01*
X151081309Y-90325764D01*
X150870492Y-90305000D01*
X150729508Y-90305000D01*
X150518691Y-90325764D01*
X150248192Y-90407818D01*
X149998899Y-90541068D01*
X149780392Y-90720392D01*
X149601068Y-90938899D01*
X149530000Y-91071858D01*
X149458932Y-90938899D01*
X149279608Y-90720392D01*
X149061101Y-90541068D01*
X148811808Y-90407818D01*
X148541309Y-90325764D01*
X148330492Y-90305000D01*
X148189508Y-90305000D01*
X147978691Y-90325764D01*
X147708192Y-90407818D01*
X147458899Y-90541068D01*
X147240392Y-90720392D01*
X147061068Y-90938899D01*
X146990000Y-91071858D01*
X146918932Y-90938899D01*
X146739608Y-90720392D01*
X146521101Y-90541068D01*
X146271808Y-90407818D01*
X146001309Y-90325764D01*
X145790492Y-90305000D01*
X145649508Y-90305000D01*
X145438691Y-90325764D01*
X145168192Y-90407818D01*
X144918899Y-90541068D01*
X144700392Y-90720392D01*
X144521068Y-90938899D01*
X144450000Y-91071858D01*
X144378932Y-90938899D01*
X144199608Y-90720392D01*
X143981101Y-90541068D01*
X143731808Y-90407818D01*
X143461309Y-90325764D01*
X143250492Y-90305000D01*
X143109508Y-90305000D01*
X142898691Y-90325764D01*
X142628192Y-90407818D01*
X142378899Y-90541068D01*
X142160392Y-90720392D01*
X141981068Y-90938899D01*
X141910000Y-91071858D01*
X141838932Y-90938899D01*
X141659608Y-90720392D01*
X141441101Y-90541068D01*
X141191808Y-90407818D01*
X140921309Y-90325764D01*
X140710492Y-90305000D01*
X140569508Y-90305000D01*
X140358691Y-90325764D01*
X140088192Y-90407818D01*
X139838899Y-90541068D01*
X139620392Y-90720392D01*
X139441068Y-90938899D01*
X139370000Y-91071858D01*
X139298932Y-90938899D01*
X139119608Y-90720392D01*
X138901101Y-90541068D01*
X138651808Y-90407818D01*
X138381309Y-90325764D01*
X138170492Y-90305000D01*
X138029508Y-90305000D01*
X137818691Y-90325764D01*
X137548192Y-90407818D01*
X137298899Y-90541068D01*
X137080392Y-90720392D01*
X136901068Y-90938899D01*
X136830000Y-91071858D01*
X136758932Y-90938899D01*
X136579608Y-90720392D01*
X136361101Y-90541068D01*
X136111808Y-90407818D01*
X135841309Y-90325764D01*
X135630492Y-90305000D01*
X135489508Y-90305000D01*
X135278691Y-90325764D01*
X135008192Y-90407818D01*
X134758899Y-90541068D01*
X134540392Y-90720392D01*
X134361068Y-90938899D01*
X134290000Y-91071858D01*
X134218932Y-90938899D01*
X134039608Y-90720392D01*
X133821101Y-90541068D01*
X133571808Y-90407818D01*
X133301309Y-90325764D01*
X133090492Y-90305000D01*
X132949508Y-90305000D01*
X132738691Y-90325764D01*
X132468192Y-90407818D01*
X132218899Y-90541068D01*
X132000392Y-90720392D01*
X131821068Y-90938899D01*
X131750000Y-91071858D01*
X131678932Y-90938899D01*
X131499608Y-90720392D01*
X131281101Y-90541068D01*
X131031808Y-90407818D01*
X130761309Y-90325764D01*
X130550492Y-90305000D01*
X130409508Y-90305000D01*
X130198691Y-90325764D01*
X129928192Y-90407818D01*
X129678899Y-90541068D01*
X129460392Y-90720392D01*
X129281068Y-90938899D01*
X129210000Y-91071858D01*
X129138932Y-90938899D01*
X128959608Y-90720392D01*
X128741101Y-90541068D01*
X128491808Y-90407818D01*
X128221309Y-90325764D01*
X128010492Y-90305000D01*
X127869508Y-90305000D01*
X127658691Y-90325764D01*
X127388192Y-90407818D01*
X127138899Y-90541068D01*
X126920392Y-90720392D01*
X126741068Y-90938899D01*
X126607818Y-91188192D01*
X126525764Y-91458691D01*
X126498057Y-91740000D01*
X79843296Y-91740000D01*
X79825084Y-89059419D01*
X83565000Y-89059419D01*
X83565000Y-89440581D01*
X83639361Y-89814419D01*
X83785225Y-90166566D01*
X83996987Y-90483491D01*
X84266509Y-90753013D01*
X84583434Y-90964775D01*
X84935581Y-91110639D01*
X85309419Y-91185000D01*
X85690581Y-91185000D01*
X86064419Y-91110639D01*
X86416566Y-90964775D01*
X86733491Y-90753013D01*
X87003013Y-90483491D01*
X87214775Y-90166566D01*
X87217494Y-90160000D01*
X104058057Y-90160000D01*
X104085764Y-90441309D01*
X104167818Y-90711808D01*
X104301068Y-90961101D01*
X104480392Y-91179608D01*
X104698899Y-91358932D01*
X104948192Y-91492182D01*
X105218691Y-91574236D01*
X105429508Y-91595000D01*
X105570492Y-91595000D01*
X105781309Y-91574236D01*
X106051808Y-91492182D01*
X106301101Y-91358932D01*
X106519608Y-91179608D01*
X106698932Y-90961101D01*
X106832182Y-90711808D01*
X106914236Y-90441309D01*
X106941943Y-90160000D01*
X110308057Y-90160000D01*
X110335764Y-90441309D01*
X110417818Y-90711808D01*
X110551068Y-90961101D01*
X110730392Y-91179608D01*
X110948899Y-91358932D01*
X111198192Y-91492182D01*
X111468691Y-91574236D01*
X111679508Y-91595000D01*
X111820492Y-91595000D01*
X112031309Y-91574236D01*
X112301808Y-91492182D01*
X112551101Y-91358932D01*
X112769608Y-91179608D01*
X112948932Y-90961101D01*
X113082182Y-90711808D01*
X113164236Y-90441309D01*
X113191943Y-90160000D01*
X116558057Y-90160000D01*
X116585764Y-90441309D01*
X116667818Y-90711808D01*
X116801068Y-90961101D01*
X116980392Y-91179608D01*
X117198899Y-91358932D01*
X117448192Y-91492182D01*
X117718691Y-91574236D01*
X117929508Y-91595000D01*
X118070492Y-91595000D01*
X118281309Y-91574236D01*
X118551808Y-91492182D01*
X118801101Y-91358932D01*
X119019608Y-91179608D01*
X119198932Y-90961101D01*
X119332182Y-90711808D01*
X119414236Y-90441309D01*
X119441943Y-90160000D01*
X119414236Y-89878691D01*
X119332182Y-89608192D01*
X119198932Y-89358899D01*
X119019608Y-89140392D01*
X118801101Y-88961068D01*
X118551808Y-88827818D01*
X118281309Y-88745764D01*
X118070492Y-88725000D01*
X117929508Y-88725000D01*
X117718691Y-88745764D01*
X117448192Y-88827818D01*
X117198899Y-88961068D01*
X116980392Y-89140392D01*
X116801068Y-89358899D01*
X116667818Y-89608192D01*
X116585764Y-89878691D01*
X116558057Y-90160000D01*
X113191943Y-90160000D01*
X113164236Y-89878691D01*
X113082182Y-89608192D01*
X112948932Y-89358899D01*
X112769608Y-89140392D01*
X112551101Y-88961068D01*
X112301808Y-88827818D01*
X112031309Y-88745764D01*
X111820492Y-88725000D01*
X111679508Y-88725000D01*
X111468691Y-88745764D01*
X111198192Y-88827818D01*
X110948899Y-88961068D01*
X110730392Y-89140392D01*
X110551068Y-89358899D01*
X110417818Y-89608192D01*
X110335764Y-89878691D01*
X110308057Y-90160000D01*
X106941943Y-90160000D01*
X106914236Y-89878691D01*
X106832182Y-89608192D01*
X106698932Y-89358899D01*
X106519608Y-89140392D01*
X106301101Y-88961068D01*
X106051808Y-88827818D01*
X105781309Y-88745764D01*
X105570492Y-88725000D01*
X105429508Y-88725000D01*
X105218691Y-88745764D01*
X104948192Y-88827818D01*
X104698899Y-88961068D01*
X104480392Y-89140392D01*
X104301068Y-89358899D01*
X104167818Y-89608192D01*
X104085764Y-89878691D01*
X104058057Y-90160000D01*
X87217494Y-90160000D01*
X87360639Y-89814419D01*
X87435000Y-89440581D01*
X87435000Y-89059419D01*
X87360639Y-88685581D01*
X87214775Y-88333434D01*
X87003013Y-88016509D01*
X86733491Y-87746987D01*
X86416566Y-87535225D01*
X86064419Y-87389361D01*
X85690581Y-87315000D01*
X85309419Y-87315000D01*
X84935581Y-87389361D01*
X84583434Y-87535225D01*
X84266509Y-87746987D01*
X83996987Y-88016509D01*
X83785225Y-88333434D01*
X83639361Y-88685581D01*
X83565000Y-89059419D01*
X79825084Y-89059419D01*
X79791115Y-84059419D01*
X83565000Y-84059419D01*
X83565000Y-84440581D01*
X83639361Y-84814419D01*
X83785225Y-85166566D01*
X83996987Y-85483491D01*
X84266509Y-85753013D01*
X84583434Y-85964775D01*
X84935581Y-86110639D01*
X85309419Y-86185000D01*
X85690581Y-86185000D01*
X86064419Y-86110639D01*
X86416566Y-85964775D01*
X86733491Y-85753013D01*
X87003013Y-85483491D01*
X87214775Y-85166566D01*
X87360639Y-84814419D01*
X87435000Y-84440581D01*
X87435000Y-84059419D01*
X87360639Y-83685581D01*
X87214775Y-83333434D01*
X87003013Y-83016509D01*
X86733491Y-82746987D01*
X86416566Y-82535225D01*
X86064419Y-82389361D01*
X85690581Y-82315000D01*
X85309419Y-82315000D01*
X84935581Y-82389361D01*
X84583434Y-82535225D01*
X84266509Y-82746987D01*
X83996987Y-83016509D01*
X83785225Y-83333434D01*
X83639361Y-83685581D01*
X83565000Y-84059419D01*
X79791115Y-84059419D01*
X79757146Y-79059419D01*
X83565000Y-79059419D01*
X83565000Y-79440581D01*
X83639361Y-79814419D01*
X83785225Y-80166566D01*
X83996987Y-80483491D01*
X84266509Y-80753013D01*
X84583434Y-80964775D01*
X84935581Y-81110639D01*
X85309419Y-81185000D01*
X85690581Y-81185000D01*
X86064419Y-81110639D01*
X86416566Y-80964775D01*
X86733491Y-80753013D01*
X87003013Y-80483491D01*
X87214775Y-80166566D01*
X87342311Y-79858665D01*
X104065000Y-79858665D01*
X104065000Y-80141335D01*
X104120147Y-80418574D01*
X104228320Y-80679727D01*
X104385363Y-80914759D01*
X104585241Y-81114637D01*
X104820273Y-81271680D01*
X105081426Y-81379853D01*
X105358665Y-81435000D01*
X105641335Y-81435000D01*
X105918574Y-81379853D01*
X106179727Y-81271680D01*
X106414759Y-81114637D01*
X106614637Y-80914759D01*
X106771680Y-80679727D01*
X106879853Y-80418574D01*
X106935000Y-80141335D01*
X106935000Y-79858665D01*
X110315000Y-79858665D01*
X110315000Y-80141335D01*
X110370147Y-80418574D01*
X110478320Y-80679727D01*
X110635363Y-80914759D01*
X110835241Y-81114637D01*
X111070273Y-81271680D01*
X111331426Y-81379853D01*
X111608665Y-81435000D01*
X111891335Y-81435000D01*
X112168574Y-81379853D01*
X112429727Y-81271680D01*
X112664759Y-81114637D01*
X112864637Y-80914759D01*
X113021680Y-80679727D01*
X113129853Y-80418574D01*
X113185000Y-80141335D01*
X113185000Y-79858665D01*
X116565000Y-79858665D01*
X116565000Y-80141335D01*
X116620147Y-80418574D01*
X116728320Y-80679727D01*
X116885363Y-80914759D01*
X117085241Y-81114637D01*
X117320273Y-81271680D01*
X117581426Y-81379853D01*
X117858665Y-81435000D01*
X118141335Y-81435000D01*
X118418574Y-81379853D01*
X118679727Y-81271680D01*
X118914759Y-81114637D01*
X119114637Y-80914759D01*
X119271680Y-80679727D01*
X119379853Y-80418574D01*
X119435000Y-80141335D01*
X119435000Y-79858665D01*
X119379853Y-79581426D01*
X119271680Y-79320273D01*
X119114637Y-79085241D01*
X118914759Y-78885363D01*
X118679727Y-78728320D01*
X118418574Y-78620147D01*
X118141335Y-78565000D01*
X117858665Y-78565000D01*
X117581426Y-78620147D01*
X117320273Y-78728320D01*
X117085241Y-78885363D01*
X116885363Y-79085241D01*
X116728320Y-79320273D01*
X116620147Y-79581426D01*
X116565000Y-79858665D01*
X113185000Y-79858665D01*
X113129853Y-79581426D01*
X113021680Y-79320273D01*
X112864637Y-79085241D01*
X112664759Y-78885363D01*
X112429727Y-78728320D01*
X112168574Y-78620147D01*
X111891335Y-78565000D01*
X111608665Y-78565000D01*
X111331426Y-78620147D01*
X111070273Y-78728320D01*
X110835241Y-78885363D01*
X110635363Y-79085241D01*
X110478320Y-79320273D01*
X110370147Y-79581426D01*
X110315000Y-79858665D01*
X106935000Y-79858665D01*
X106879853Y-79581426D01*
X106771680Y-79320273D01*
X106614637Y-79085241D01*
X106414759Y-78885363D01*
X106179727Y-78728320D01*
X105918574Y-78620147D01*
X105641335Y-78565000D01*
X105358665Y-78565000D01*
X105081426Y-78620147D01*
X104820273Y-78728320D01*
X104585241Y-78885363D01*
X104385363Y-79085241D01*
X104228320Y-79320273D01*
X104120147Y-79581426D01*
X104065000Y-79858665D01*
X87342311Y-79858665D01*
X87360639Y-79814419D01*
X87435000Y-79440581D01*
X87435000Y-79059419D01*
X87360639Y-78685581D01*
X87214775Y-78333434D01*
X87003013Y-78016509D01*
X86733491Y-77746987D01*
X86416566Y-77535225D01*
X86064419Y-77389361D01*
X85690581Y-77315000D01*
X85309419Y-77315000D01*
X84935581Y-77389361D01*
X84583434Y-77535225D01*
X84266509Y-77746987D01*
X83996987Y-78016509D01*
X83785225Y-78333434D01*
X83639361Y-78685581D01*
X83565000Y-79059419D01*
X79757146Y-79059419D01*
X79739758Y-76500000D01*
X126498057Y-76500000D01*
X126525764Y-76781309D01*
X126607818Y-77051808D01*
X126741068Y-77301101D01*
X126920392Y-77519608D01*
X127138899Y-77698932D01*
X127388192Y-77832182D01*
X127658691Y-77914236D01*
X127869508Y-77935000D01*
X128010492Y-77935000D01*
X128221309Y-77914236D01*
X128491808Y-77832182D01*
X128741101Y-77698932D01*
X128959608Y-77519608D01*
X129138932Y-77301101D01*
X129210000Y-77168142D01*
X129281068Y-77301101D01*
X129460392Y-77519608D01*
X129678899Y-77698932D01*
X129928192Y-77832182D01*
X130198691Y-77914236D01*
X130409508Y-77935000D01*
X130550492Y-77935000D01*
X130761309Y-77914236D01*
X131031808Y-77832182D01*
X131281101Y-77698932D01*
X131499608Y-77519608D01*
X131678932Y-77301101D01*
X131750000Y-77168142D01*
X131821068Y-77301101D01*
X132000392Y-77519608D01*
X132218899Y-77698932D01*
X132468192Y-77832182D01*
X132738691Y-77914236D01*
X132949508Y-77935000D01*
X133090492Y-77935000D01*
X133301309Y-77914236D01*
X133571808Y-77832182D01*
X133821101Y-77698932D01*
X134039608Y-77519608D01*
X134218932Y-77301101D01*
X134290000Y-77168142D01*
X134361068Y-77301101D01*
X134540392Y-77519608D01*
X134758899Y-77698932D01*
X135008192Y-77832182D01*
X135278691Y-77914236D01*
X135489508Y-77935000D01*
X135630492Y-77935000D01*
X135841309Y-77914236D01*
X136111808Y-77832182D01*
X136361101Y-77698932D01*
X136579608Y-77519608D01*
X136758932Y-77301101D01*
X136830000Y-77168142D01*
X136901068Y-77301101D01*
X137080392Y-77519608D01*
X137298899Y-77698932D01*
X137548192Y-77832182D01*
X137818691Y-77914236D01*
X138029508Y-77935000D01*
X138170492Y-77935000D01*
X138381309Y-77914236D01*
X138651808Y-77832182D01*
X138901101Y-77698932D01*
X139119608Y-77519608D01*
X139298932Y-77301101D01*
X139370000Y-77168142D01*
X139441068Y-77301101D01*
X139620392Y-77519608D01*
X139838899Y-77698932D01*
X140088192Y-77832182D01*
X140358691Y-77914236D01*
X140569508Y-77935000D01*
X140710492Y-77935000D01*
X140921309Y-77914236D01*
X141191808Y-77832182D01*
X141441101Y-77698932D01*
X141659608Y-77519608D01*
X141838932Y-77301101D01*
X141910000Y-77168142D01*
X141981068Y-77301101D01*
X142160392Y-77519608D01*
X142378899Y-77698932D01*
X142628192Y-77832182D01*
X142898691Y-77914236D01*
X143109508Y-77935000D01*
X143250492Y-77935000D01*
X143461309Y-77914236D01*
X143731808Y-77832182D01*
X143981101Y-77698932D01*
X144199608Y-77519608D01*
X144378932Y-77301101D01*
X144450000Y-77168142D01*
X144521068Y-77301101D01*
X144700392Y-77519608D01*
X144918899Y-77698932D01*
X145168192Y-77832182D01*
X145438691Y-77914236D01*
X145649508Y-77935000D01*
X145790492Y-77935000D01*
X146001309Y-77914236D01*
X146271808Y-77832182D01*
X146521101Y-77698932D01*
X146739608Y-77519608D01*
X146918932Y-77301101D01*
X146990000Y-77168142D01*
X147061068Y-77301101D01*
X147240392Y-77519608D01*
X147458899Y-77698932D01*
X147708192Y-77832182D01*
X147978691Y-77914236D01*
X148189508Y-77935000D01*
X148330492Y-77935000D01*
X148541309Y-77914236D01*
X148811808Y-77832182D01*
X149061101Y-77698932D01*
X149279608Y-77519608D01*
X149458932Y-77301101D01*
X149530000Y-77168142D01*
X149601068Y-77301101D01*
X149780392Y-77519608D01*
X149998899Y-77698932D01*
X150248192Y-77832182D01*
X150518691Y-77914236D01*
X150729508Y-77935000D01*
X150870492Y-77935000D01*
X151081309Y-77914236D01*
X151351808Y-77832182D01*
X151601101Y-77698932D01*
X151819608Y-77519608D01*
X151998932Y-77301101D01*
X152070000Y-77168142D01*
X152141068Y-77301101D01*
X152320392Y-77519608D01*
X152538899Y-77698932D01*
X152788192Y-77832182D01*
X153058691Y-77914236D01*
X153269508Y-77935000D01*
X153410492Y-77935000D01*
X153621309Y-77914236D01*
X153891808Y-77832182D01*
X154141101Y-77698932D01*
X154359608Y-77519608D01*
X154538932Y-77301101D01*
X154612579Y-77163318D01*
X154727615Y-77355131D01*
X154916586Y-77563519D01*
X155142580Y-77731037D01*
X155396913Y-77851246D01*
X155530961Y-77891904D01*
X155753000Y-77769915D01*
X155753000Y-76627000D01*
X155733000Y-76627000D01*
X155733000Y-76373000D01*
X155753000Y-76373000D01*
X155753000Y-75230085D01*
X155530961Y-75108096D01*
X155396913Y-75148754D01*
X155142580Y-75268963D01*
X154916586Y-75436481D01*
X154727615Y-75644869D01*
X154612579Y-75836682D01*
X154538932Y-75698899D01*
X154359608Y-75480392D01*
X154141101Y-75301068D01*
X153891808Y-75167818D01*
X153621309Y-75085764D01*
X153410492Y-75065000D01*
X153269508Y-75065000D01*
X153058691Y-75085764D01*
X152788192Y-75167818D01*
X152538899Y-75301068D01*
X152320392Y-75480392D01*
X152141068Y-75698899D01*
X152070000Y-75831858D01*
X151998932Y-75698899D01*
X151819608Y-75480392D01*
X151601101Y-75301068D01*
X151351808Y-75167818D01*
X151081309Y-75085764D01*
X150870492Y-75065000D01*
X150729508Y-75065000D01*
X150518691Y-75085764D01*
X150248192Y-75167818D01*
X149998899Y-75301068D01*
X149780392Y-75480392D01*
X149601068Y-75698899D01*
X149530000Y-75831858D01*
X149458932Y-75698899D01*
X149279608Y-75480392D01*
X149061101Y-75301068D01*
X148811808Y-75167818D01*
X148541309Y-75085764D01*
X148330492Y-75065000D01*
X148189508Y-75065000D01*
X147978691Y-75085764D01*
X147708192Y-75167818D01*
X147458899Y-75301068D01*
X147240392Y-75480392D01*
X147061068Y-75698899D01*
X146990000Y-75831858D01*
X146918932Y-75698899D01*
X146739608Y-75480392D01*
X146521101Y-75301068D01*
X146271808Y-75167818D01*
X146001309Y-75085764D01*
X145790492Y-75065000D01*
X145649508Y-75065000D01*
X145438691Y-75085764D01*
X145168192Y-75167818D01*
X144918899Y-75301068D01*
X144700392Y-75480392D01*
X144521068Y-75698899D01*
X144450000Y-75831858D01*
X144378932Y-75698899D01*
X144199608Y-75480392D01*
X143981101Y-75301068D01*
X143731808Y-75167818D01*
X143461309Y-75085764D01*
X143250492Y-75065000D01*
X143109508Y-75065000D01*
X142898691Y-75085764D01*
X142628192Y-75167818D01*
X142378899Y-75301068D01*
X142160392Y-75480392D01*
X141981068Y-75698899D01*
X141910000Y-75831858D01*
X141838932Y-75698899D01*
X141659608Y-75480392D01*
X141441101Y-75301068D01*
X141191808Y-75167818D01*
X140921309Y-75085764D01*
X140710492Y-75065000D01*
X140569508Y-75065000D01*
X140358691Y-75085764D01*
X140088192Y-75167818D01*
X139838899Y-75301068D01*
X139620392Y-75480392D01*
X139441068Y-75698899D01*
X139370000Y-75831858D01*
X139298932Y-75698899D01*
X139119608Y-75480392D01*
X138901101Y-75301068D01*
X138651808Y-75167818D01*
X138381309Y-75085764D01*
X138170492Y-75065000D01*
X138029508Y-75065000D01*
X137818691Y-75085764D01*
X137548192Y-75167818D01*
X137298899Y-75301068D01*
X137080392Y-75480392D01*
X136901068Y-75698899D01*
X136830000Y-75831858D01*
X136758932Y-75698899D01*
X136579608Y-75480392D01*
X136361101Y-75301068D01*
X136135545Y-75180506D01*
X144110527Y-67205525D01*
X144219294Y-67409014D01*
X144404866Y-67635134D01*
X144630986Y-67820706D01*
X144685791Y-67850000D01*
X144630986Y-67879294D01*
X144404866Y-68064866D01*
X144219294Y-68290986D01*
X144081401Y-68548966D01*
X143996487Y-68828889D01*
X143967815Y-69120000D01*
X143996487Y-69411111D01*
X144081401Y-69691034D01*
X144219294Y-69949014D01*
X144404866Y-70175134D01*
X144630986Y-70360706D01*
X144685791Y-70390000D01*
X144630986Y-70419294D01*
X144404866Y-70604866D01*
X144219294Y-70830986D01*
X144081401Y-71088966D01*
X143996487Y-71368889D01*
X143967815Y-71660000D01*
X143996487Y-71951111D01*
X144081401Y-72231034D01*
X144219294Y-72489014D01*
X144404866Y-72715134D01*
X144630986Y-72900706D01*
X144888966Y-73038599D01*
X145168889Y-73123513D01*
X145387050Y-73145000D01*
X145532950Y-73145000D01*
X145751111Y-73123513D01*
X146031034Y-73038599D01*
X146289014Y-72900706D01*
X146515134Y-72715134D01*
X146700706Y-72489014D01*
X146730000Y-72434209D01*
X146759294Y-72489014D01*
X146944866Y-72715134D01*
X147170986Y-72900706D01*
X147428966Y-73038599D01*
X147708889Y-73123513D01*
X147927050Y-73145000D01*
X148072950Y-73145000D01*
X148291111Y-73123513D01*
X148571034Y-73038599D01*
X148829014Y-72900706D01*
X149055134Y-72715134D01*
X149240706Y-72489014D01*
X149378599Y-72231034D01*
X149463513Y-71951111D01*
X149492185Y-71660000D01*
X149463513Y-71368889D01*
X149378599Y-71088966D01*
X149240706Y-70830986D01*
X149055134Y-70604866D01*
X148829014Y-70419294D01*
X148774209Y-70390000D01*
X148829014Y-70360706D01*
X149055134Y-70175134D01*
X149240706Y-69949014D01*
X149378599Y-69691034D01*
X149463513Y-69411111D01*
X149492185Y-69120000D01*
X149463513Y-68828889D01*
X149378599Y-68548966D01*
X149240706Y-68290986D01*
X149055134Y-68064866D01*
X148829014Y-67879294D01*
X148774209Y-67850000D01*
X148829014Y-67820706D01*
X149055134Y-67635134D01*
X149240706Y-67409014D01*
X149356440Y-67192490D01*
X157150000Y-74986051D01*
X157150001Y-75831857D01*
X157147421Y-75836682D01*
X157032385Y-75644869D01*
X156843414Y-75436481D01*
X156617420Y-75268963D01*
X156363087Y-75148754D01*
X156229039Y-75108096D01*
X156007000Y-75230085D01*
X156007000Y-76373000D01*
X156027000Y-76373000D01*
X156027000Y-76627000D01*
X156007000Y-76627000D01*
X156007000Y-77769915D01*
X156229039Y-77891904D01*
X156363087Y-77851246D01*
X156617420Y-77731037D01*
X156843414Y-77563519D01*
X157032385Y-77355131D01*
X157147421Y-77163318D01*
X157221068Y-77301101D01*
X157400392Y-77519608D01*
X157618899Y-77698932D01*
X157868192Y-77832182D01*
X158138691Y-77914236D01*
X158349508Y-77935000D01*
X158490492Y-77935000D01*
X158701309Y-77914236D01*
X158971808Y-77832182D01*
X159221101Y-77698932D01*
X159439608Y-77519608D01*
X159618932Y-77301101D01*
X159690000Y-77168142D01*
X159761068Y-77301101D01*
X159940392Y-77519608D01*
X160158899Y-77698932D01*
X160408192Y-77832182D01*
X160678691Y-77914236D01*
X160889508Y-77935000D01*
X161030492Y-77935000D01*
X161241309Y-77914236D01*
X161511808Y-77832182D01*
X161761101Y-77698932D01*
X161979608Y-77519608D01*
X162072419Y-77406518D01*
X162074188Y-77424482D01*
X162110498Y-77544180D01*
X162169463Y-77654494D01*
X162248815Y-77751185D01*
X162345506Y-77830537D01*
X162455820Y-77889502D01*
X162575518Y-77925812D01*
X162700000Y-77938072D01*
X164300000Y-77938072D01*
X164424482Y-77925812D01*
X164544180Y-77889502D01*
X164654494Y-77830537D01*
X164751185Y-77751185D01*
X164830537Y-77654494D01*
X164889502Y-77544180D01*
X164925812Y-77424482D01*
X164938072Y-77300000D01*
X164938072Y-75700000D01*
X164925812Y-75575518D01*
X164889502Y-75455820D01*
X164830537Y-75345506D01*
X164751185Y-75248815D01*
X164654494Y-75169463D01*
X164544180Y-75110498D01*
X164424482Y-75074188D01*
X164300000Y-75061928D01*
X162700000Y-75061928D01*
X162575518Y-75074188D01*
X162455820Y-75110498D01*
X162345506Y-75169463D01*
X162248815Y-75248815D01*
X162169463Y-75345506D01*
X162110498Y-75455820D01*
X162074188Y-75575518D01*
X162072419Y-75593482D01*
X161979608Y-75480392D01*
X161761101Y-75301068D01*
X161511808Y-75167818D01*
X161241309Y-75085764D01*
X161030492Y-75065000D01*
X160889508Y-75065000D01*
X160678691Y-75085764D01*
X160408192Y-75167818D01*
X160158899Y-75301068D01*
X159940392Y-75480392D01*
X159761068Y-75698899D01*
X159690000Y-75831858D01*
X159690000Y-74522372D01*
X159696143Y-74459999D01*
X159690000Y-74397626D01*
X159690000Y-74397620D01*
X159671623Y-74211037D01*
X159599003Y-73971641D01*
X159481075Y-73751012D01*
X159322370Y-73557630D01*
X159273915Y-73517864D01*
X149445475Y-63689425D01*
X149378599Y-63468966D01*
X149240706Y-63210986D01*
X149055134Y-62984866D01*
X149025313Y-62960393D01*
X149094180Y-62939502D01*
X149204494Y-62880537D01*
X149301185Y-62801185D01*
X149380537Y-62704494D01*
X149439502Y-62594180D01*
X149475812Y-62474482D01*
X149488072Y-62350000D01*
X149487691Y-62279872D01*
X161765000Y-62279872D01*
X161765000Y-62720128D01*
X161850890Y-63151925D01*
X162019369Y-63558669D01*
X162263962Y-63924729D01*
X162575271Y-64236038D01*
X162941331Y-64480631D01*
X163348075Y-64649110D01*
X163779872Y-64735000D01*
X164220128Y-64735000D01*
X164651925Y-64649110D01*
X165058669Y-64480631D01*
X165424729Y-64236038D01*
X165736038Y-63924729D01*
X165980631Y-63558669D01*
X166149110Y-63151925D01*
X166235000Y-62720128D01*
X166235000Y-62279872D01*
X166149110Y-61848075D01*
X165980631Y-61441331D01*
X165736038Y-61075271D01*
X165424729Y-60763962D01*
X165058669Y-60519369D01*
X164651925Y-60350890D01*
X164220128Y-60265000D01*
X163779872Y-60265000D01*
X163348075Y-60350890D01*
X162941331Y-60519369D01*
X162575271Y-60763962D01*
X162263962Y-61075271D01*
X162019369Y-61441331D01*
X161850890Y-61848075D01*
X161765000Y-62279872D01*
X149487691Y-62279872D01*
X149485000Y-61785750D01*
X149326250Y-61627000D01*
X148127000Y-61627000D01*
X148127000Y-61647000D01*
X147873000Y-61647000D01*
X147873000Y-61627000D01*
X147853000Y-61627000D01*
X147853000Y-61373000D01*
X147873000Y-61373000D01*
X147873000Y-60173750D01*
X148127000Y-60173750D01*
X148127000Y-61373000D01*
X149326250Y-61373000D01*
X149485000Y-61214250D01*
X149488072Y-60650000D01*
X149475812Y-60525518D01*
X149439502Y-60405820D01*
X149380537Y-60295506D01*
X149301185Y-60198815D01*
X149204494Y-60119463D01*
X149094180Y-60060498D01*
X148974482Y-60024188D01*
X148850000Y-60011928D01*
X148285750Y-60015000D01*
X148127000Y-60173750D01*
X147873000Y-60173750D01*
X147714250Y-60015000D01*
X147150000Y-60011928D01*
X147025518Y-60024188D01*
X146905820Y-60060498D01*
X146795506Y-60119463D01*
X146698815Y-60198815D01*
X146619463Y-60295506D01*
X146560498Y-60405820D01*
X146539607Y-60474687D01*
X146515134Y-60444866D01*
X146289014Y-60259294D01*
X146031034Y-60121401D01*
X145751111Y-60036487D01*
X145532950Y-60015000D01*
X145387050Y-60015000D01*
X145168889Y-60036487D01*
X144888966Y-60121401D01*
X144630986Y-60259294D01*
X144404866Y-60444866D01*
X144219294Y-60670986D01*
X144081401Y-60928966D01*
X143996487Y-61208889D01*
X143967815Y-61500000D01*
X143996487Y-61791111D01*
X144081401Y-62071034D01*
X144219294Y-62329014D01*
X144404866Y-62555134D01*
X144630986Y-62740706D01*
X144685791Y-62770000D01*
X144630986Y-62799294D01*
X144404866Y-62984866D01*
X144219294Y-63210986D01*
X144081401Y-63468966D01*
X144005817Y-63718131D01*
X141270000Y-66453949D01*
X141270000Y-66437621D01*
X141251623Y-66251038D01*
X141179003Y-66011642D01*
X141061075Y-65791012D01*
X140902370Y-65597630D01*
X140708988Y-65438925D01*
X140488359Y-65320997D01*
X140248963Y-65248377D01*
X140000000Y-65223856D01*
X139751038Y-65248377D01*
X139511642Y-65320997D01*
X139291013Y-65438925D01*
X139097631Y-65597630D01*
X138938925Y-65791012D01*
X138820997Y-66011641D01*
X138748377Y-66251037D01*
X138730000Y-66437620D01*
X138730000Y-66453949D01*
X130054423Y-75129527D01*
X129928192Y-75167818D01*
X129678899Y-75301068D01*
X129460392Y-75480392D01*
X129281068Y-75698899D01*
X129210000Y-75831858D01*
X129138932Y-75698899D01*
X128959608Y-75480392D01*
X128741101Y-75301068D01*
X128491808Y-75167818D01*
X128221309Y-75085764D01*
X128010492Y-75065000D01*
X127869508Y-75065000D01*
X127658691Y-75085764D01*
X127388192Y-75167818D01*
X127138899Y-75301068D01*
X126920392Y-75480392D01*
X126741068Y-75698899D01*
X126607818Y-75948192D01*
X126525764Y-76218691D01*
X126498057Y-76500000D01*
X79739758Y-76500000D01*
X79723177Y-74059419D01*
X83565000Y-74059419D01*
X83565000Y-74440581D01*
X83639361Y-74814419D01*
X83785225Y-75166566D01*
X83996987Y-75483491D01*
X84266509Y-75753013D01*
X84583434Y-75964775D01*
X84935581Y-76110639D01*
X85309419Y-76185000D01*
X85690581Y-76185000D01*
X86064419Y-76110639D01*
X86416566Y-75964775D01*
X86733491Y-75753013D01*
X87003013Y-75483491D01*
X87214775Y-75166566D01*
X87360639Y-74814419D01*
X87435000Y-74440581D01*
X87435000Y-74059419D01*
X87360639Y-73685581D01*
X87214775Y-73333434D01*
X87003013Y-73016509D01*
X86733491Y-72746987D01*
X86416566Y-72535225D01*
X86064419Y-72389361D01*
X85690581Y-72315000D01*
X85309419Y-72315000D01*
X84935581Y-72389361D01*
X84583434Y-72535225D01*
X84266509Y-72746987D01*
X83996987Y-73016509D01*
X83785225Y-73333434D01*
X83639361Y-73685581D01*
X83565000Y-74059419D01*
X79723177Y-74059419D01*
X79681669Y-67950000D01*
X83561928Y-67950000D01*
X83561928Y-70550000D01*
X83574188Y-70674482D01*
X83610498Y-70794180D01*
X83669463Y-70904494D01*
X83748815Y-71001185D01*
X83845506Y-71080537D01*
X83955820Y-71139502D01*
X84075518Y-71175812D01*
X84200000Y-71188072D01*
X86800000Y-71188072D01*
X86924482Y-71175812D01*
X87044180Y-71139502D01*
X87154494Y-71080537D01*
X87251185Y-71001185D01*
X87330537Y-70904494D01*
X87389502Y-70794180D01*
X87425812Y-70674482D01*
X87438072Y-70550000D01*
X87438072Y-67950000D01*
X87425812Y-67825518D01*
X87389502Y-67705820D01*
X87330537Y-67595506D01*
X87251185Y-67498815D01*
X87154494Y-67419463D01*
X87044180Y-67360498D01*
X86924482Y-67324188D01*
X86800000Y-67311928D01*
X84200000Y-67311928D01*
X84075518Y-67324188D01*
X83955820Y-67360498D01*
X83845506Y-67419463D01*
X83748815Y-67498815D01*
X83669463Y-67595506D01*
X83610498Y-67705820D01*
X83574188Y-67825518D01*
X83561928Y-67950000D01*
X79681669Y-67950000D01*
X79660000Y-64760532D01*
X79660000Y-62279872D01*
X81265000Y-62279872D01*
X81265000Y-62720128D01*
X81350890Y-63151925D01*
X81519369Y-63558669D01*
X81763962Y-63924729D01*
X82075271Y-64236038D01*
X82441331Y-64480631D01*
X82848075Y-64649110D01*
X83279872Y-64735000D01*
X83720128Y-64735000D01*
X84151925Y-64649110D01*
X84558669Y-64480631D01*
X84924729Y-64236038D01*
X85236038Y-63924729D01*
X85480631Y-63558669D01*
X85649110Y-63151925D01*
X85735000Y-62720128D01*
X85735000Y-62279872D01*
X85719113Y-62200000D01*
X93561928Y-62200000D01*
X93561928Y-64800000D01*
X93574188Y-64924482D01*
X93610498Y-65044180D01*
X93669463Y-65154494D01*
X93748815Y-65251185D01*
X93845506Y-65330537D01*
X93955820Y-65389502D01*
X94075518Y-65425812D01*
X94200000Y-65438072D01*
X96800000Y-65438072D01*
X96924482Y-65425812D01*
X97044180Y-65389502D01*
X97154494Y-65330537D01*
X97251185Y-65251185D01*
X97330537Y-65154494D01*
X97389502Y-65044180D01*
X97425812Y-64924482D01*
X97438072Y-64800000D01*
X97438072Y-63309419D01*
X98565000Y-63309419D01*
X98565000Y-63690581D01*
X98639361Y-64064419D01*
X98785225Y-64416566D01*
X98996987Y-64733491D01*
X99266509Y-65003013D01*
X99583434Y-65214775D01*
X99935581Y-65360639D01*
X100309419Y-65435000D01*
X100690581Y-65435000D01*
X101064419Y-65360639D01*
X101416566Y-65214775D01*
X101733491Y-65003013D01*
X102003013Y-64733491D01*
X102214775Y-64416566D01*
X102360639Y-64064419D01*
X102435000Y-63690581D01*
X102435000Y-63309419D01*
X103565000Y-63309419D01*
X103565000Y-63690581D01*
X103639361Y-64064419D01*
X103785225Y-64416566D01*
X103996987Y-64733491D01*
X104266509Y-65003013D01*
X104583434Y-65214775D01*
X104935581Y-65360639D01*
X105309419Y-65435000D01*
X105690581Y-65435000D01*
X106064419Y-65360639D01*
X106416566Y-65214775D01*
X106733491Y-65003013D01*
X107003013Y-64733491D01*
X107214775Y-64416566D01*
X107360639Y-64064419D01*
X107435000Y-63690581D01*
X107435000Y-63309419D01*
X108565000Y-63309419D01*
X108565000Y-63690581D01*
X108639361Y-64064419D01*
X108785225Y-64416566D01*
X108996987Y-64733491D01*
X109266509Y-65003013D01*
X109583434Y-65214775D01*
X109935581Y-65360639D01*
X110309419Y-65435000D01*
X110690581Y-65435000D01*
X111064419Y-65360639D01*
X111416566Y-65214775D01*
X111733491Y-65003013D01*
X112003013Y-64733491D01*
X112214775Y-64416566D01*
X112360639Y-64064419D01*
X112435000Y-63690581D01*
X112435000Y-63309419D01*
X113565000Y-63309419D01*
X113565000Y-63690581D01*
X113639361Y-64064419D01*
X113785225Y-64416566D01*
X113996987Y-64733491D01*
X114266509Y-65003013D01*
X114583434Y-65214775D01*
X114935581Y-65360639D01*
X115309419Y-65435000D01*
X115690581Y-65435000D01*
X116064419Y-65360639D01*
X116416566Y-65214775D01*
X116733491Y-65003013D01*
X117003013Y-64733491D01*
X117214775Y-64416566D01*
X117360639Y-64064419D01*
X117435000Y-63690581D01*
X117435000Y-63309419D01*
X118565000Y-63309419D01*
X118565000Y-63690581D01*
X118639361Y-64064419D01*
X118785225Y-64416566D01*
X118996987Y-64733491D01*
X119266509Y-65003013D01*
X119583434Y-65214775D01*
X119935581Y-65360639D01*
X120309419Y-65435000D01*
X120690581Y-65435000D01*
X121064419Y-65360639D01*
X121416566Y-65214775D01*
X121733491Y-65003013D01*
X122003013Y-64733491D01*
X122214775Y-64416566D01*
X122360639Y-64064419D01*
X122435000Y-63690581D01*
X122435000Y-63309419D01*
X123565000Y-63309419D01*
X123565000Y-63690581D01*
X123639361Y-64064419D01*
X123785225Y-64416566D01*
X123996987Y-64733491D01*
X124266509Y-65003013D01*
X124583434Y-65214775D01*
X124935581Y-65360639D01*
X125309419Y-65435000D01*
X125690581Y-65435000D01*
X126064419Y-65360639D01*
X126416566Y-65214775D01*
X126733491Y-65003013D01*
X126887280Y-64849224D01*
X129330381Y-64849224D01*
X129462317Y-65144312D01*
X129803045Y-65315159D01*
X130170557Y-65416250D01*
X130550729Y-65443701D01*
X130928951Y-65396457D01*
X131290690Y-65276333D01*
X131537683Y-65144312D01*
X131669619Y-64849224D01*
X130500000Y-63679605D01*
X129330381Y-64849224D01*
X126887280Y-64849224D01*
X127003013Y-64733491D01*
X127214775Y-64416566D01*
X127360639Y-64064419D01*
X127435000Y-63690581D01*
X127435000Y-63550729D01*
X128556299Y-63550729D01*
X128603543Y-63928951D01*
X128723667Y-64290690D01*
X128855688Y-64537683D01*
X129150776Y-64669619D01*
X130320395Y-63500000D01*
X130679605Y-63500000D01*
X131849224Y-64669619D01*
X132144312Y-64537683D01*
X132315159Y-64196955D01*
X132416250Y-63829443D01*
X132443701Y-63449271D01*
X132396457Y-63071049D01*
X132276333Y-62709310D01*
X132144312Y-62462317D01*
X131849224Y-62330381D01*
X130679605Y-63500000D01*
X130320395Y-63500000D01*
X129150776Y-62330381D01*
X128855688Y-62462317D01*
X128684841Y-62803045D01*
X128583750Y-63170557D01*
X128556299Y-63550729D01*
X127435000Y-63550729D01*
X127435000Y-63309419D01*
X127360639Y-62935581D01*
X127214775Y-62583434D01*
X127003013Y-62266509D01*
X126887280Y-62150776D01*
X129330381Y-62150776D01*
X130500000Y-63320395D01*
X131669619Y-62150776D01*
X131537683Y-61855688D01*
X131196955Y-61684841D01*
X130829443Y-61583750D01*
X130449271Y-61556299D01*
X130071049Y-61603543D01*
X129709310Y-61723667D01*
X129462317Y-61855688D01*
X129330381Y-62150776D01*
X126887280Y-62150776D01*
X126733491Y-61996987D01*
X126416566Y-61785225D01*
X126064419Y-61639361D01*
X125690581Y-61565000D01*
X125309419Y-61565000D01*
X124935581Y-61639361D01*
X124583434Y-61785225D01*
X124266509Y-61996987D01*
X123996987Y-62266509D01*
X123785225Y-62583434D01*
X123639361Y-62935581D01*
X123565000Y-63309419D01*
X122435000Y-63309419D01*
X122360639Y-62935581D01*
X122214775Y-62583434D01*
X122003013Y-62266509D01*
X121733491Y-61996987D01*
X121416566Y-61785225D01*
X121064419Y-61639361D01*
X120690581Y-61565000D01*
X120309419Y-61565000D01*
X119935581Y-61639361D01*
X119583434Y-61785225D01*
X119266509Y-61996987D01*
X118996987Y-62266509D01*
X118785225Y-62583434D01*
X118639361Y-62935581D01*
X118565000Y-63309419D01*
X117435000Y-63309419D01*
X117360639Y-62935581D01*
X117214775Y-62583434D01*
X117003013Y-62266509D01*
X116733491Y-61996987D01*
X116416566Y-61785225D01*
X116064419Y-61639361D01*
X115690581Y-61565000D01*
X115309419Y-61565000D01*
X114935581Y-61639361D01*
X114583434Y-61785225D01*
X114266509Y-61996987D01*
X113996987Y-62266509D01*
X113785225Y-62583434D01*
X113639361Y-62935581D01*
X113565000Y-63309419D01*
X112435000Y-63309419D01*
X112360639Y-62935581D01*
X112214775Y-62583434D01*
X112003013Y-62266509D01*
X111733491Y-61996987D01*
X111416566Y-61785225D01*
X111064419Y-61639361D01*
X110690581Y-61565000D01*
X110309419Y-61565000D01*
X109935581Y-61639361D01*
X109583434Y-61785225D01*
X109266509Y-61996987D01*
X108996987Y-62266509D01*
X108785225Y-62583434D01*
X108639361Y-62935581D01*
X108565000Y-63309419D01*
X107435000Y-63309419D01*
X107360639Y-62935581D01*
X107214775Y-62583434D01*
X107003013Y-62266509D01*
X106733491Y-61996987D01*
X106416566Y-61785225D01*
X106064419Y-61639361D01*
X105690581Y-61565000D01*
X105309419Y-61565000D01*
X104935581Y-61639361D01*
X104583434Y-61785225D01*
X104266509Y-61996987D01*
X103996987Y-62266509D01*
X103785225Y-62583434D01*
X103639361Y-62935581D01*
X103565000Y-63309419D01*
X102435000Y-63309419D01*
X102360639Y-62935581D01*
X102214775Y-62583434D01*
X102003013Y-62266509D01*
X101733491Y-61996987D01*
X101416566Y-61785225D01*
X101064419Y-61639361D01*
X100690581Y-61565000D01*
X100309419Y-61565000D01*
X99935581Y-61639361D01*
X99583434Y-61785225D01*
X99266509Y-61996987D01*
X98996987Y-62266509D01*
X98785225Y-62583434D01*
X98639361Y-62935581D01*
X98565000Y-63309419D01*
X97438072Y-63309419D01*
X97438072Y-62200000D01*
X97425812Y-62075518D01*
X97389502Y-61955820D01*
X97330537Y-61845506D01*
X97251185Y-61748815D01*
X97154494Y-61669463D01*
X97044180Y-61610498D01*
X96924482Y-61574188D01*
X96800000Y-61561928D01*
X94200000Y-61561928D01*
X94075518Y-61574188D01*
X93955820Y-61610498D01*
X93845506Y-61669463D01*
X93748815Y-61748815D01*
X93669463Y-61845506D01*
X93610498Y-61955820D01*
X93574188Y-62075518D01*
X93561928Y-62200000D01*
X85719113Y-62200000D01*
X85649110Y-61848075D01*
X85480631Y-61441331D01*
X85236038Y-61075271D01*
X84924729Y-60763962D01*
X84558669Y-60519369D01*
X84151925Y-60350890D01*
X83720128Y-60265000D01*
X83279872Y-60265000D01*
X82848075Y-60350890D01*
X82441331Y-60519369D01*
X82075271Y-60763962D01*
X81763962Y-61075271D01*
X81519369Y-61441331D01*
X81350890Y-61848075D01*
X81265000Y-62279872D01*
X79660000Y-62279872D01*
X79660000Y-61032279D01*
X79707670Y-60546107D01*
X79839489Y-60109502D01*
X79918269Y-59961337D01*
X80962520Y-58917086D01*
X81094439Y-58845758D01*
X81530113Y-58710894D01*
X82014344Y-58660000D01*
X164967721Y-58660000D01*
X165362560Y-58698715D01*
M02*
