%TF.GenerationSoftware,KiCad,Pcbnew,(5.1.12)-1*%
%TF.CreationDate,2022-02-13T14:46:26-06:00*%
%TF.ProjectId,AS12,41533132-2e6b-4696-9361-645f70636258,rev?*%
%TF.SameCoordinates,Original*%
%TF.FileFunction,Paste,Top*%
%TF.FilePolarity,Positive*%
%FSLAX46Y46*%
G04 Gerber Fmt 4.6, Leading zero omitted, Abs format (unit mm)*
G04 Created by KiCad (PCBNEW (5.1.12)-1) date 2022-02-13 14:46:26*
%MOMM*%
%LPD*%
G01*
G04 APERTURE LIST*
%ADD10C,0.010000*%
%ADD11R,1.800000X1.800000*%
%ADD12R,0.530000X1.980000*%
%ADD13R,1.800000X2.500000*%
%ADD14R,2.000000X1.500000*%
%ADD15R,2.000000X3.800000*%
%ADD16R,3.210000X1.050000*%
%ADD17R,2.900000X5.400000*%
%ADD18R,1.100000X1.100000*%
%ADD19R,1.550000X0.600000*%
%ADD20R,0.900000X0.800000*%
%ADD21R,0.850000X0.300000*%
G04 APERTURE END LIST*
D10*
%TO.C,IC2*%
G36*
X70723140Y-143008420D02*
G01*
X69463140Y-143008420D01*
X69463140Y-141588420D01*
X70723140Y-141588420D01*
X70723140Y-143008420D01*
G37*
X70723140Y-143008420D02*
X69463140Y-143008420D01*
X69463140Y-141588420D01*
X70723140Y-141588420D01*
X70723140Y-143008420D01*
G36*
X68603140Y-143008420D02*
G01*
X67343140Y-143008420D01*
X67343140Y-141588420D01*
X68603140Y-141588420D01*
X68603140Y-143008420D01*
G37*
X68603140Y-143008420D02*
X67343140Y-143008420D01*
X67343140Y-141588420D01*
X68603140Y-141588420D01*
X68603140Y-143008420D01*
G36*
X72843140Y-143008420D02*
G01*
X71583140Y-143008420D01*
X71583140Y-141588420D01*
X72843140Y-141588420D01*
X72843140Y-143008420D01*
G37*
X72843140Y-143008420D02*
X71583140Y-143008420D01*
X71583140Y-141588420D01*
X72843140Y-141588420D01*
X72843140Y-143008420D01*
G36*
X74963140Y-143008420D02*
G01*
X73703140Y-143008420D01*
X73703140Y-141588420D01*
X74963140Y-141588420D01*
X74963140Y-143008420D01*
G37*
X74963140Y-143008420D02*
X73703140Y-143008420D01*
X73703140Y-141588420D01*
X74963140Y-141588420D01*
X74963140Y-143008420D01*
G36*
X70723140Y-145118420D02*
G01*
X69463140Y-145118420D01*
X69463140Y-143698420D01*
X70723140Y-143698420D01*
X70723140Y-145118420D01*
G37*
X70723140Y-145118420D02*
X69463140Y-145118420D01*
X69463140Y-143698420D01*
X70723140Y-143698420D01*
X70723140Y-145118420D01*
G36*
X70723140Y-147228420D02*
G01*
X69463140Y-147228420D01*
X69463140Y-145808420D01*
X70723140Y-145808420D01*
X70723140Y-147228420D01*
G37*
X70723140Y-147228420D02*
X69463140Y-147228420D01*
X69463140Y-145808420D01*
X70723140Y-145808420D01*
X70723140Y-147228420D01*
G36*
X70723140Y-140898420D02*
G01*
X69463140Y-140898420D01*
X69463140Y-139478420D01*
X70723140Y-139478420D01*
X70723140Y-140898420D01*
G37*
X70723140Y-140898420D02*
X69463140Y-140898420D01*
X69463140Y-139478420D01*
X70723140Y-139478420D01*
X70723140Y-140898420D01*
G36*
X70723140Y-138788420D02*
G01*
X69463140Y-138788420D01*
X69463140Y-137368420D01*
X70723140Y-137368420D01*
X70723140Y-138788420D01*
G37*
X70723140Y-138788420D02*
X69463140Y-138788420D01*
X69463140Y-137368420D01*
X70723140Y-137368420D01*
X70723140Y-138788420D01*
G36*
X68603140Y-145118420D02*
G01*
X67343140Y-145118420D01*
X67343140Y-143698420D01*
X68603140Y-143698420D01*
X68603140Y-145118420D01*
G37*
X68603140Y-145118420D02*
X67343140Y-145118420D01*
X67343140Y-143698420D01*
X68603140Y-143698420D01*
X68603140Y-145118420D01*
G36*
X68603140Y-147228420D02*
G01*
X67343140Y-147228420D01*
X67343140Y-145808420D01*
X68603140Y-145808420D01*
X68603140Y-147228420D01*
G37*
X68603140Y-147228420D02*
X67343140Y-147228420D01*
X67343140Y-145808420D01*
X68603140Y-145808420D01*
X68603140Y-147228420D01*
G36*
X68603140Y-140898420D02*
G01*
X67343140Y-140898420D01*
X67343140Y-139478420D01*
X68603140Y-139478420D01*
X68603140Y-140898420D01*
G37*
X68603140Y-140898420D02*
X67343140Y-140898420D01*
X67343140Y-139478420D01*
X68603140Y-139478420D01*
X68603140Y-140898420D01*
G36*
X68603140Y-138788420D02*
G01*
X67343140Y-138788420D01*
X67343140Y-137368420D01*
X68603140Y-137368420D01*
X68603140Y-138788420D01*
G37*
X68603140Y-138788420D02*
X67343140Y-138788420D01*
X67343140Y-137368420D01*
X68603140Y-137368420D01*
X68603140Y-138788420D01*
G36*
X72843140Y-140898420D02*
G01*
X71583140Y-140898420D01*
X71583140Y-139478420D01*
X72843140Y-139478420D01*
X72843140Y-140898420D01*
G37*
X72843140Y-140898420D02*
X71583140Y-140898420D01*
X71583140Y-139478420D01*
X72843140Y-139478420D01*
X72843140Y-140898420D01*
G36*
X72843140Y-138788420D02*
G01*
X71583140Y-138788420D01*
X71583140Y-137368420D01*
X72843140Y-137368420D01*
X72843140Y-138788420D01*
G37*
X72843140Y-138788420D02*
X71583140Y-138788420D01*
X71583140Y-137368420D01*
X72843140Y-137368420D01*
X72843140Y-138788420D01*
G36*
X72843140Y-145118420D02*
G01*
X71583140Y-145118420D01*
X71583140Y-143698420D01*
X72843140Y-143698420D01*
X72843140Y-145118420D01*
G37*
X72843140Y-145118420D02*
X71583140Y-145118420D01*
X71583140Y-143698420D01*
X72843140Y-143698420D01*
X72843140Y-145118420D01*
G36*
X74963140Y-145118420D02*
G01*
X73703140Y-145118420D01*
X73703140Y-143698420D01*
X74963140Y-143698420D01*
X74963140Y-145118420D01*
G37*
X74963140Y-145118420D02*
X73703140Y-145118420D01*
X73703140Y-143698420D01*
X74963140Y-143698420D01*
X74963140Y-145118420D01*
G36*
X74963140Y-147228420D02*
G01*
X73703140Y-147228420D01*
X73703140Y-145808420D01*
X74963140Y-145808420D01*
X74963140Y-147228420D01*
G37*
X74963140Y-147228420D02*
X73703140Y-147228420D01*
X73703140Y-145808420D01*
X74963140Y-145808420D01*
X74963140Y-147228420D01*
G36*
X72843140Y-147228420D02*
G01*
X71583140Y-147228420D01*
X71583140Y-145808420D01*
X72843140Y-145808420D01*
X72843140Y-147228420D01*
G37*
X72843140Y-147228420D02*
X71583140Y-147228420D01*
X71583140Y-145808420D01*
X72843140Y-145808420D01*
X72843140Y-147228420D01*
G36*
X74963140Y-140898420D02*
G01*
X73703140Y-140898420D01*
X73703140Y-139478420D01*
X74963140Y-139478420D01*
X74963140Y-140898420D01*
G37*
X74963140Y-140898420D02*
X73703140Y-140898420D01*
X73703140Y-139478420D01*
X74963140Y-139478420D01*
X74963140Y-140898420D01*
G36*
X74963140Y-138788420D02*
G01*
X73703140Y-138788420D01*
X73703140Y-137368420D01*
X74963140Y-137368420D01*
X74963140Y-138788420D01*
G37*
X74963140Y-138788420D02*
X73703140Y-138788420D01*
X73703140Y-137368420D01*
X74963140Y-137368420D01*
X74963140Y-138788420D01*
%TD*%
D11*
%TO.C,D2*%
X74554080Y-128065780D03*
X74554080Y-132065780D03*
%TD*%
D12*
%TO.C,U6*%
X167918160Y-119186020D03*
X166648160Y-119186020D03*
X165378160Y-119186020D03*
X164108160Y-119186020D03*
X164108160Y-114256020D03*
X165378160Y-114256020D03*
X166648160Y-114256020D03*
X167918160Y-114256020D03*
%TD*%
%TO.C,C6*%
G36*
G01*
X65417680Y-118786060D02*
X66367680Y-118786060D01*
G75*
G02*
X66617680Y-119036060I0J-250000D01*
G01*
X66617680Y-119536060D01*
G75*
G02*
X66367680Y-119786060I-250000J0D01*
G01*
X65417680Y-119786060D01*
G75*
G02*
X65167680Y-119536060I0J250000D01*
G01*
X65167680Y-119036060D01*
G75*
G02*
X65417680Y-118786060I250000J0D01*
G01*
G37*
G36*
G01*
X65417680Y-116886060D02*
X66367680Y-116886060D01*
G75*
G02*
X66617680Y-117136060I0J-250000D01*
G01*
X66617680Y-117636060D01*
G75*
G02*
X66367680Y-117886060I-250000J0D01*
G01*
X65417680Y-117886060D01*
G75*
G02*
X65167680Y-117636060I0J250000D01*
G01*
X65167680Y-117136060D01*
G75*
G02*
X65417680Y-116886060I250000J0D01*
G01*
G37*
%TD*%
%TO.C,J25*%
G36*
G01*
X163852500Y-127892899D02*
X163852500Y-129192901D01*
G75*
G02*
X163602501Y-129442900I-249999J0D01*
G01*
X162902499Y-129442900D01*
G75*
G02*
X162652500Y-129192901I0J249999D01*
G01*
X162652500Y-127892899D01*
G75*
G02*
X162902499Y-127642900I249999J0D01*
G01*
X163602501Y-127642900D01*
G75*
G02*
X163852500Y-127892899I0J-249999D01*
G01*
G37*
G36*
G01*
X169452500Y-127892899D02*
X169452500Y-129192901D01*
G75*
G02*
X169202501Y-129442900I-249999J0D01*
G01*
X168502499Y-129442900D01*
G75*
G02*
X168252500Y-129192901I0J249999D01*
G01*
X168252500Y-127892899D01*
G75*
G02*
X168502499Y-127642900I249999J0D01*
G01*
X169202501Y-127642900D01*
G75*
G02*
X169452500Y-127892899I0J-249999D01*
G01*
G37*
G36*
G01*
X164852500Y-125392900D02*
X164852500Y-126642900D01*
G75*
G02*
X164702500Y-126792900I-150000J0D01*
G01*
X164402500Y-126792900D01*
G75*
G02*
X164252500Y-126642900I0J150000D01*
G01*
X164252500Y-125392900D01*
G75*
G02*
X164402500Y-125242900I150000J0D01*
G01*
X164702500Y-125242900D01*
G75*
G02*
X164852500Y-125392900I0J-150000D01*
G01*
G37*
G36*
G01*
X165852500Y-125392900D02*
X165852500Y-126642900D01*
G75*
G02*
X165702500Y-126792900I-150000J0D01*
G01*
X165402500Y-126792900D01*
G75*
G02*
X165252500Y-126642900I0J150000D01*
G01*
X165252500Y-125392900D01*
G75*
G02*
X165402500Y-125242900I150000J0D01*
G01*
X165702500Y-125242900D01*
G75*
G02*
X165852500Y-125392900I0J-150000D01*
G01*
G37*
G36*
G01*
X166852500Y-125392900D02*
X166852500Y-126642900D01*
G75*
G02*
X166702500Y-126792900I-150000J0D01*
G01*
X166402500Y-126792900D01*
G75*
G02*
X166252500Y-126642900I0J150000D01*
G01*
X166252500Y-125392900D01*
G75*
G02*
X166402500Y-125242900I150000J0D01*
G01*
X166702500Y-125242900D01*
G75*
G02*
X166852500Y-125392900I0J-150000D01*
G01*
G37*
G36*
G01*
X167852500Y-125392900D02*
X167852500Y-126642900D01*
G75*
G02*
X167702500Y-126792900I-150000J0D01*
G01*
X167402500Y-126792900D01*
G75*
G02*
X167252500Y-126642900I0J150000D01*
G01*
X167252500Y-125392900D01*
G75*
G02*
X167402500Y-125242900I150000J0D01*
G01*
X167702500Y-125242900D01*
G75*
G02*
X167852500Y-125392900I0J-150000D01*
G01*
G37*
%TD*%
D13*
%TO.C,D4*%
X99260660Y-134184640D03*
X99260660Y-138184640D03*
%TD*%
D14*
%TO.C,IC3*%
X65960860Y-109830840D03*
X65960860Y-114430840D03*
X65960860Y-112130840D03*
D15*
X72260860Y-112130840D03*
%TD*%
D16*
%TO.C,IC2*%
X80783140Y-138898420D03*
X80783140Y-140598420D03*
X80783140Y-142298420D03*
X80783140Y-143998420D03*
X80783140Y-145698420D03*
%TD*%
%TO.C,C2*%
G36*
G01*
X82394640Y-147520640D02*
X82394640Y-148470640D01*
G75*
G02*
X82144640Y-148720640I-250000J0D01*
G01*
X81644640Y-148720640D01*
G75*
G02*
X81394640Y-148470640I0J250000D01*
G01*
X81394640Y-147520640D01*
G75*
G02*
X81644640Y-147270640I250000J0D01*
G01*
X82144640Y-147270640D01*
G75*
G02*
X82394640Y-147520640I0J-250000D01*
G01*
G37*
G36*
G01*
X84294640Y-147520640D02*
X84294640Y-148470640D01*
G75*
G02*
X84044640Y-148720640I-250000J0D01*
G01*
X83544640Y-148720640D01*
G75*
G02*
X83294640Y-148470640I0J250000D01*
G01*
X83294640Y-147520640D01*
G75*
G02*
X83544640Y-147270640I250000J0D01*
G01*
X84044640Y-147270640D01*
G75*
G02*
X84294640Y-147520640I0J-250000D01*
G01*
G37*
%TD*%
D17*
%TO.C,L1*%
X92498720Y-118574820D03*
X82598720Y-118574820D03*
%TD*%
%TO.C,C10*%
G36*
G01*
X84093300Y-130942840D02*
X84093300Y-132942840D01*
G75*
G02*
X83843300Y-133192840I-250000J0D01*
G01*
X79943300Y-133192840D01*
G75*
G02*
X79693300Y-132942840I0J250000D01*
G01*
X79693300Y-130942840D01*
G75*
G02*
X79943300Y-130692840I250000J0D01*
G01*
X83843300Y-130692840D01*
G75*
G02*
X84093300Y-130942840I0J-250000D01*
G01*
G37*
G36*
G01*
X92493300Y-130942840D02*
X92493300Y-132942840D01*
G75*
G02*
X92243300Y-133192840I-250000J0D01*
G01*
X88343300Y-133192840D01*
G75*
G02*
X88093300Y-132942840I0J250000D01*
G01*
X88093300Y-130942840D01*
G75*
G02*
X88343300Y-130692840I250000J0D01*
G01*
X92243300Y-130692840D01*
G75*
G02*
X92493300Y-130942840I0J-250000D01*
G01*
G37*
%TD*%
%TO.C,C9*%
G36*
G01*
X93269820Y-146143220D02*
X93269820Y-144143220D01*
G75*
G02*
X93519820Y-143893220I250000J0D01*
G01*
X97419820Y-143893220D01*
G75*
G02*
X97669820Y-144143220I0J-250000D01*
G01*
X97669820Y-146143220D01*
G75*
G02*
X97419820Y-146393220I-250000J0D01*
G01*
X93519820Y-146393220D01*
G75*
G02*
X93269820Y-146143220I0J250000D01*
G01*
G37*
G36*
G01*
X84869820Y-146143220D02*
X84869820Y-144143220D01*
G75*
G02*
X85119820Y-143893220I250000J0D01*
G01*
X89019820Y-143893220D01*
G75*
G02*
X89269820Y-144143220I0J-250000D01*
G01*
X89269820Y-146143220D01*
G75*
G02*
X89019820Y-146393220I-250000J0D01*
G01*
X85119820Y-146393220D01*
G75*
G02*
X84869820Y-146143220I0J250000D01*
G01*
G37*
%TD*%
%TO.C,R14*%
G36*
G01*
X150775240Y-101493901D02*
X150775240Y-99343899D01*
G75*
G02*
X151025239Y-99093900I249999J0D01*
G01*
X151650241Y-99093900D01*
G75*
G02*
X151900240Y-99343899I0J-249999D01*
G01*
X151900240Y-101493901D01*
G75*
G02*
X151650241Y-101743900I-249999J0D01*
G01*
X151025239Y-101743900D01*
G75*
G02*
X150775240Y-101493901I0J249999D01*
G01*
G37*
G36*
G01*
X147850240Y-101493901D02*
X147850240Y-99343899D01*
G75*
G02*
X148100239Y-99093900I249999J0D01*
G01*
X148725241Y-99093900D01*
G75*
G02*
X148975240Y-99343899I0J-249999D01*
G01*
X148975240Y-101493901D01*
G75*
G02*
X148725241Y-101743900I-249999J0D01*
G01*
X148100239Y-101743900D01*
G75*
G02*
X147850240Y-101493901I0J249999D01*
G01*
G37*
%TD*%
%TO.C,R13*%
G36*
G01*
X150775240Y-108465353D02*
X150775240Y-106315351D01*
G75*
G02*
X151025239Y-106065352I249999J0D01*
G01*
X151650241Y-106065352D01*
G75*
G02*
X151900240Y-106315351I0J-249999D01*
G01*
X151900240Y-108465353D01*
G75*
G02*
X151650241Y-108715352I-249999J0D01*
G01*
X151025239Y-108715352D01*
G75*
G02*
X150775240Y-108465353I0J249999D01*
G01*
G37*
G36*
G01*
X147850240Y-108465353D02*
X147850240Y-106315351D01*
G75*
G02*
X148100239Y-106065352I249999J0D01*
G01*
X148725241Y-106065352D01*
G75*
G02*
X148975240Y-106315351I0J-249999D01*
G01*
X148975240Y-108465353D01*
G75*
G02*
X148725241Y-108715352I-249999J0D01*
G01*
X148100239Y-108715352D01*
G75*
G02*
X147850240Y-108465353I0J249999D01*
G01*
G37*
%TD*%
D18*
%TO.C,D6*%
X151292740Y-110876080D03*
X148492740Y-110876080D03*
%TD*%
%TO.C,D5*%
X151292740Y-103904626D03*
X148492740Y-103904626D03*
%TD*%
%TO.C,R12*%
G36*
G01*
X132222079Y-142837740D02*
X133472081Y-142837740D01*
G75*
G02*
X133722080Y-143087739I0J-249999D01*
G01*
X133722080Y-143712741D01*
G75*
G02*
X133472081Y-143962740I-249999J0D01*
G01*
X132222079Y-143962740D01*
G75*
G02*
X131972080Y-143712741I0J249999D01*
G01*
X131972080Y-143087739D01*
G75*
G02*
X132222079Y-142837740I249999J0D01*
G01*
G37*
G36*
G01*
X132222079Y-139912740D02*
X133472081Y-139912740D01*
G75*
G02*
X133722080Y-140162739I0J-249999D01*
G01*
X133722080Y-140787741D01*
G75*
G02*
X133472081Y-141037740I-249999J0D01*
G01*
X132222079Y-141037740D01*
G75*
G02*
X131972080Y-140787741I0J249999D01*
G01*
X131972080Y-140162739D01*
G75*
G02*
X132222079Y-139912740I249999J0D01*
G01*
G37*
%TD*%
%TO.C,R11*%
G36*
G01*
X165038200Y-121432159D02*
X165038200Y-122682161D01*
G75*
G02*
X164788201Y-122932160I-249999J0D01*
G01*
X164163199Y-122932160D01*
G75*
G02*
X163913200Y-122682161I0J249999D01*
G01*
X163913200Y-121432159D01*
G75*
G02*
X164163199Y-121182160I249999J0D01*
G01*
X164788201Y-121182160D01*
G75*
G02*
X165038200Y-121432159I0J-249999D01*
G01*
G37*
G36*
G01*
X167963200Y-121432159D02*
X167963200Y-122682161D01*
G75*
G02*
X167713201Y-122932160I-249999J0D01*
G01*
X167088199Y-122932160D01*
G75*
G02*
X166838200Y-122682161I0J249999D01*
G01*
X166838200Y-121432159D01*
G75*
G02*
X167088199Y-121182160I249999J0D01*
G01*
X167713201Y-121182160D01*
G75*
G02*
X167963200Y-121432159I0J-249999D01*
G01*
G37*
%TD*%
%TO.C,U7*%
G36*
G01*
X137847180Y-142023000D02*
X138794380Y-142023000D01*
G75*
G02*
X139060780Y-142289400I0J-266400D01*
G01*
X139060780Y-143906600D01*
G75*
G02*
X138794380Y-144173000I-266400J0D01*
G01*
X137847180Y-144173000D01*
G75*
G02*
X137580780Y-143906600I0J266400D01*
G01*
X137580780Y-142289400D01*
G75*
G02*
X137847180Y-142023000I266400J0D01*
G01*
G37*
G36*
G01*
X135307180Y-142023000D02*
X136254380Y-142023000D01*
G75*
G02*
X136520780Y-142289400I0J-266400D01*
G01*
X136520780Y-143906600D01*
G75*
G02*
X136254380Y-144173000I-266400J0D01*
G01*
X135307180Y-144173000D01*
G75*
G02*
X135040780Y-143906600I0J266400D01*
G01*
X135040780Y-142289400D01*
G75*
G02*
X135307180Y-142023000I266400J0D01*
G01*
G37*
G36*
G01*
X135307180Y-133463000D02*
X136254380Y-133463000D01*
G75*
G02*
X136520780Y-133729400I0J-266400D01*
G01*
X136520780Y-135346600D01*
G75*
G02*
X136254380Y-135613000I-266400J0D01*
G01*
X135307180Y-135613000D01*
G75*
G02*
X135040780Y-135346600I0J266400D01*
G01*
X135040780Y-133729400D01*
G75*
G02*
X135307180Y-133463000I266400J0D01*
G01*
G37*
G36*
G01*
X137847180Y-133463000D02*
X138794380Y-133463000D01*
G75*
G02*
X139060780Y-133729400I0J-266400D01*
G01*
X139060780Y-135346600D01*
G75*
G02*
X138794380Y-135613000I-266400J0D01*
G01*
X137847180Y-135613000D01*
G75*
G02*
X137580780Y-135346600I0J266400D01*
G01*
X137580780Y-133729400D01*
G75*
G02*
X137847180Y-133463000I266400J0D01*
G01*
G37*
%TD*%
%TO.C,R10*%
G36*
G01*
X96878980Y-106929503D02*
X96878980Y-104779497D01*
G75*
G02*
X97128977Y-104529500I249997J0D01*
G01*
X97753983Y-104529500D01*
G75*
G02*
X98003980Y-104779497I0J-249997D01*
G01*
X98003980Y-106929503D01*
G75*
G02*
X97753983Y-107179500I-249997J0D01*
G01*
X97128977Y-107179500D01*
G75*
G02*
X96878980Y-106929503I0J249997D01*
G01*
G37*
G36*
G01*
X93953980Y-106929503D02*
X93953980Y-104779497D01*
G75*
G02*
X94203977Y-104529500I249997J0D01*
G01*
X94828983Y-104529500D01*
G75*
G02*
X95078980Y-104779497I0J-249997D01*
G01*
X95078980Y-106929503D01*
G75*
G02*
X94828983Y-107179500I-249997J0D01*
G01*
X94203977Y-107179500D01*
G75*
G02*
X93953980Y-106929503I0J249997D01*
G01*
G37*
%TD*%
%TO.C,C5*%
G36*
G01*
X129733460Y-130736360D02*
X129733460Y-129786360D01*
G75*
G02*
X129983460Y-129536360I250000J0D01*
G01*
X130483460Y-129536360D01*
G75*
G02*
X130733460Y-129786360I0J-250000D01*
G01*
X130733460Y-130736360D01*
G75*
G02*
X130483460Y-130986360I-250000J0D01*
G01*
X129983460Y-130986360D01*
G75*
G02*
X129733460Y-130736360I0J250000D01*
G01*
G37*
G36*
G01*
X127833460Y-130736360D02*
X127833460Y-129786360D01*
G75*
G02*
X128083460Y-129536360I250000J0D01*
G01*
X128583460Y-129536360D01*
G75*
G02*
X128833460Y-129786360I0J-250000D01*
G01*
X128833460Y-130736360D01*
G75*
G02*
X128583460Y-130986360I-250000J0D01*
G01*
X128083460Y-130986360D01*
G75*
G02*
X127833460Y-130736360I0J250000D01*
G01*
G37*
%TD*%
%TO.C,C13*%
G36*
G01*
X53136380Y-119651760D02*
X53136380Y-120601760D01*
G75*
G02*
X52886380Y-120851760I-250000J0D01*
G01*
X52386380Y-120851760D01*
G75*
G02*
X52136380Y-120601760I0J250000D01*
G01*
X52136380Y-119651760D01*
G75*
G02*
X52386380Y-119401760I250000J0D01*
G01*
X52886380Y-119401760D01*
G75*
G02*
X53136380Y-119651760I0J-250000D01*
G01*
G37*
G36*
G01*
X55036380Y-119651760D02*
X55036380Y-120601760D01*
G75*
G02*
X54786380Y-120851760I-250000J0D01*
G01*
X54286380Y-120851760D01*
G75*
G02*
X54036380Y-120601760I0J250000D01*
G01*
X54036380Y-119651760D01*
G75*
G02*
X54286380Y-119401760I250000J0D01*
G01*
X54786380Y-119401760D01*
G75*
G02*
X55036380Y-119651760I0J-250000D01*
G01*
G37*
%TD*%
D19*
%TO.C,U4*%
X131843760Y-136382760D03*
X131843760Y-135112760D03*
X131843760Y-132572760D03*
X126443760Y-136382760D03*
X126443760Y-135112760D03*
X126443760Y-132572760D03*
X131843760Y-133842760D03*
X126443760Y-133842760D03*
%TD*%
%TO.C,U2*%
G36*
G01*
X161065600Y-135113000D02*
X160118400Y-135113000D01*
G75*
G02*
X159852000Y-134846600I0J266400D01*
G01*
X159852000Y-133229400D01*
G75*
G02*
X160118400Y-132963000I266400J0D01*
G01*
X161065600Y-132963000D01*
G75*
G02*
X161332000Y-133229400I0J-266400D01*
G01*
X161332000Y-134846600D01*
G75*
G02*
X161065600Y-135113000I-266400J0D01*
G01*
G37*
G36*
G01*
X163605600Y-135113000D02*
X162658400Y-135113000D01*
G75*
G02*
X162392000Y-134846600I0J266400D01*
G01*
X162392000Y-133229400D01*
G75*
G02*
X162658400Y-132963000I266400J0D01*
G01*
X163605600Y-132963000D01*
G75*
G02*
X163872000Y-133229400I0J-266400D01*
G01*
X163872000Y-134846600D01*
G75*
G02*
X163605600Y-135113000I-266400J0D01*
G01*
G37*
G36*
G01*
X163605600Y-143673000D02*
X162658400Y-143673000D01*
G75*
G02*
X162392000Y-143406600I0J266400D01*
G01*
X162392000Y-141789400D01*
G75*
G02*
X162658400Y-141523000I266400J0D01*
G01*
X163605600Y-141523000D01*
G75*
G02*
X163872000Y-141789400I0J-266400D01*
G01*
X163872000Y-143406600D01*
G75*
G02*
X163605600Y-143673000I-266400J0D01*
G01*
G37*
G36*
G01*
X161065600Y-143673000D02*
X160118400Y-143673000D01*
G75*
G02*
X159852000Y-143406600I0J266400D01*
G01*
X159852000Y-141789400D01*
G75*
G02*
X160118400Y-141523000I266400J0D01*
G01*
X161065600Y-141523000D01*
G75*
G02*
X161332000Y-141789400I0J-266400D01*
G01*
X161332000Y-143406600D01*
G75*
G02*
X161065600Y-143673000I-266400J0D01*
G01*
G37*
%TD*%
%TO.C,U1*%
G36*
G01*
X154915600Y-135113000D02*
X153968400Y-135113000D01*
G75*
G02*
X153702000Y-134846600I0J266400D01*
G01*
X153702000Y-133229400D01*
G75*
G02*
X153968400Y-132963000I266400J0D01*
G01*
X154915600Y-132963000D01*
G75*
G02*
X155182000Y-133229400I0J-266400D01*
G01*
X155182000Y-134846600D01*
G75*
G02*
X154915600Y-135113000I-266400J0D01*
G01*
G37*
G36*
G01*
X157455600Y-135113000D02*
X156508400Y-135113000D01*
G75*
G02*
X156242000Y-134846600I0J266400D01*
G01*
X156242000Y-133229400D01*
G75*
G02*
X156508400Y-132963000I266400J0D01*
G01*
X157455600Y-132963000D01*
G75*
G02*
X157722000Y-133229400I0J-266400D01*
G01*
X157722000Y-134846600D01*
G75*
G02*
X157455600Y-135113000I-266400J0D01*
G01*
G37*
G36*
G01*
X157455600Y-143673000D02*
X156508400Y-143673000D01*
G75*
G02*
X156242000Y-143406600I0J266400D01*
G01*
X156242000Y-141789400D01*
G75*
G02*
X156508400Y-141523000I266400J0D01*
G01*
X157455600Y-141523000D01*
G75*
G02*
X157722000Y-141789400I0J-266400D01*
G01*
X157722000Y-143406600D01*
G75*
G02*
X157455600Y-143673000I-266400J0D01*
G01*
G37*
G36*
G01*
X154915600Y-143673000D02*
X153968400Y-143673000D01*
G75*
G02*
X153702000Y-143406600I0J266400D01*
G01*
X153702000Y-141789400D01*
G75*
G02*
X153968400Y-141523000I266400J0D01*
G01*
X154915600Y-141523000D01*
G75*
G02*
X155182000Y-141789400I0J-266400D01*
G01*
X155182000Y-143406600D01*
G75*
G02*
X154915600Y-143673000I-266400J0D01*
G01*
G37*
%TD*%
%TO.C,J15*%
G36*
G01*
X166810601Y-85480800D02*
X165510599Y-85480800D01*
G75*
G02*
X165260600Y-85230801I0J249999D01*
G01*
X165260600Y-84530799D01*
G75*
G02*
X165510599Y-84280800I249999J0D01*
G01*
X166810601Y-84280800D01*
G75*
G02*
X167060600Y-84530799I0J-249999D01*
G01*
X167060600Y-85230801D01*
G75*
G02*
X166810601Y-85480800I-249999J0D01*
G01*
G37*
G36*
G01*
X166810601Y-91080800D02*
X165510599Y-91080800D01*
G75*
G02*
X165260600Y-90830801I0J249999D01*
G01*
X165260600Y-90130799D01*
G75*
G02*
X165510599Y-89880800I249999J0D01*
G01*
X166810601Y-89880800D01*
G75*
G02*
X167060600Y-90130799I0J-249999D01*
G01*
X167060600Y-90830801D01*
G75*
G02*
X166810601Y-91080800I-249999J0D01*
G01*
G37*
G36*
G01*
X169310600Y-86480800D02*
X168060600Y-86480800D01*
G75*
G02*
X167910600Y-86330800I0J150000D01*
G01*
X167910600Y-86030800D01*
G75*
G02*
X168060600Y-85880800I150000J0D01*
G01*
X169310600Y-85880800D01*
G75*
G02*
X169460600Y-86030800I0J-150000D01*
G01*
X169460600Y-86330800D01*
G75*
G02*
X169310600Y-86480800I-150000J0D01*
G01*
G37*
G36*
G01*
X169310600Y-87480800D02*
X168060600Y-87480800D01*
G75*
G02*
X167910600Y-87330800I0J150000D01*
G01*
X167910600Y-87030800D01*
G75*
G02*
X168060600Y-86880800I150000J0D01*
G01*
X169310600Y-86880800D01*
G75*
G02*
X169460600Y-87030800I0J-150000D01*
G01*
X169460600Y-87330800D01*
G75*
G02*
X169310600Y-87480800I-150000J0D01*
G01*
G37*
G36*
G01*
X169310600Y-88480800D02*
X168060600Y-88480800D01*
G75*
G02*
X167910600Y-88330800I0J150000D01*
G01*
X167910600Y-88030800D01*
G75*
G02*
X168060600Y-87880800I150000J0D01*
G01*
X169310600Y-87880800D01*
G75*
G02*
X169460600Y-88030800I0J-150000D01*
G01*
X169460600Y-88330800D01*
G75*
G02*
X169310600Y-88480800I-150000J0D01*
G01*
G37*
G36*
G01*
X169310600Y-89480800D02*
X168060600Y-89480800D01*
G75*
G02*
X167910600Y-89330800I0J150000D01*
G01*
X167910600Y-89030800D01*
G75*
G02*
X168060600Y-88880800I150000J0D01*
G01*
X169310600Y-88880800D01*
G75*
G02*
X169460600Y-89030800I0J-150000D01*
G01*
X169460600Y-89330800D01*
G75*
G02*
X169310600Y-89480800I-150000J0D01*
G01*
G37*
%TD*%
%TO.C,C4*%
G36*
G01*
X96415840Y-120437060D02*
X97365840Y-120437060D01*
G75*
G02*
X97615840Y-120687060I0J-250000D01*
G01*
X97615840Y-121187060D01*
G75*
G02*
X97365840Y-121437060I-250000J0D01*
G01*
X96415840Y-121437060D01*
G75*
G02*
X96165840Y-121187060I0J250000D01*
G01*
X96165840Y-120687060D01*
G75*
G02*
X96415840Y-120437060I250000J0D01*
G01*
G37*
G36*
G01*
X96415840Y-118537060D02*
X97365840Y-118537060D01*
G75*
G02*
X97615840Y-118787060I0J-250000D01*
G01*
X97615840Y-119287060D01*
G75*
G02*
X97365840Y-119537060I-250000J0D01*
G01*
X96415840Y-119537060D01*
G75*
G02*
X96165840Y-119287060I0J250000D01*
G01*
X96165840Y-118787060D01*
G75*
G02*
X96415840Y-118537060I250000J0D01*
G01*
G37*
%TD*%
%TO.C,C1*%
G36*
G01*
X158988340Y-116486920D02*
X158988340Y-117436920D01*
G75*
G02*
X158738340Y-117686920I-250000J0D01*
G01*
X158238340Y-117686920D01*
G75*
G02*
X157988340Y-117436920I0J250000D01*
G01*
X157988340Y-116486920D01*
G75*
G02*
X158238340Y-116236920I250000J0D01*
G01*
X158738340Y-116236920D01*
G75*
G02*
X158988340Y-116486920I0J-250000D01*
G01*
G37*
G36*
G01*
X160888340Y-116486920D02*
X160888340Y-117436920D01*
G75*
G02*
X160638340Y-117686920I-250000J0D01*
G01*
X160138340Y-117686920D01*
G75*
G02*
X159888340Y-117436920I0J250000D01*
G01*
X159888340Y-116486920D01*
G75*
G02*
X160138340Y-116236920I250000J0D01*
G01*
X160638340Y-116236920D01*
G75*
G02*
X160888340Y-116486920I0J-250000D01*
G01*
G37*
%TD*%
%TO.C,U3*%
G36*
G01*
X167215600Y-135113000D02*
X166268400Y-135113000D01*
G75*
G02*
X166002000Y-134846600I0J266400D01*
G01*
X166002000Y-133229400D01*
G75*
G02*
X166268400Y-132963000I266400J0D01*
G01*
X167215600Y-132963000D01*
G75*
G02*
X167482000Y-133229400I0J-266400D01*
G01*
X167482000Y-134846600D01*
G75*
G02*
X167215600Y-135113000I-266400J0D01*
G01*
G37*
G36*
G01*
X169755600Y-135113000D02*
X168808400Y-135113000D01*
G75*
G02*
X168542000Y-134846600I0J266400D01*
G01*
X168542000Y-133229400D01*
G75*
G02*
X168808400Y-132963000I266400J0D01*
G01*
X169755600Y-132963000D01*
G75*
G02*
X170022000Y-133229400I0J-266400D01*
G01*
X170022000Y-134846600D01*
G75*
G02*
X169755600Y-135113000I-266400J0D01*
G01*
G37*
G36*
G01*
X169755600Y-143673000D02*
X168808400Y-143673000D01*
G75*
G02*
X168542000Y-143406600I0J266400D01*
G01*
X168542000Y-141789400D01*
G75*
G02*
X168808400Y-141523000I266400J0D01*
G01*
X169755600Y-141523000D01*
G75*
G02*
X170022000Y-141789400I0J-266400D01*
G01*
X170022000Y-143406600D01*
G75*
G02*
X169755600Y-143673000I-266400J0D01*
G01*
G37*
G36*
G01*
X167215600Y-143673000D02*
X166268400Y-143673000D01*
G75*
G02*
X166002000Y-143406600I0J266400D01*
G01*
X166002000Y-141789400D01*
G75*
G02*
X166268400Y-141523000I266400J0D01*
G01*
X167215600Y-141523000D01*
G75*
G02*
X167482000Y-141789400I0J-266400D01*
G01*
X167482000Y-143406600D01*
G75*
G02*
X167215600Y-143673000I-266400J0D01*
G01*
G37*
%TD*%
%TO.C,R9*%
G36*
G01*
X138311203Y-90082800D02*
X136161197Y-90082800D01*
G75*
G02*
X135911200Y-89832803I0J249997D01*
G01*
X135911200Y-89207797D01*
G75*
G02*
X136161197Y-88957800I249997J0D01*
G01*
X138311203Y-88957800D01*
G75*
G02*
X138561200Y-89207797I0J-249997D01*
G01*
X138561200Y-89832803D01*
G75*
G02*
X138311203Y-90082800I-249997J0D01*
G01*
G37*
G36*
G01*
X138311203Y-93007800D02*
X136161197Y-93007800D01*
G75*
G02*
X135911200Y-92757803I0J249997D01*
G01*
X135911200Y-92132797D01*
G75*
G02*
X136161197Y-91882800I249997J0D01*
G01*
X138311203Y-91882800D01*
G75*
G02*
X138561200Y-92132797I0J-249997D01*
G01*
X138561200Y-92757803D01*
G75*
G02*
X138311203Y-93007800I-249997J0D01*
G01*
G37*
%TD*%
%TO.C,R8*%
G36*
G01*
X134247203Y-89930400D02*
X132097197Y-89930400D01*
G75*
G02*
X131847200Y-89680403I0J249997D01*
G01*
X131847200Y-89055397D01*
G75*
G02*
X132097197Y-88805400I249997J0D01*
G01*
X134247203Y-88805400D01*
G75*
G02*
X134497200Y-89055397I0J-249997D01*
G01*
X134497200Y-89680403D01*
G75*
G02*
X134247203Y-89930400I-249997J0D01*
G01*
G37*
G36*
G01*
X134247203Y-92855400D02*
X132097197Y-92855400D01*
G75*
G02*
X131847200Y-92605403I0J249997D01*
G01*
X131847200Y-91980397D01*
G75*
G02*
X132097197Y-91730400I249997J0D01*
G01*
X134247203Y-91730400D01*
G75*
G02*
X134497200Y-91980397I0J-249997D01*
G01*
X134497200Y-92605403D01*
G75*
G02*
X134247203Y-92855400I-249997J0D01*
G01*
G37*
%TD*%
%TO.C,R7*%
G36*
G01*
X124643463Y-108146740D02*
X122493457Y-108146740D01*
G75*
G02*
X122243460Y-107896743I0J249997D01*
G01*
X122243460Y-107271737D01*
G75*
G02*
X122493457Y-107021740I249997J0D01*
G01*
X124643463Y-107021740D01*
G75*
G02*
X124893460Y-107271737I0J-249997D01*
G01*
X124893460Y-107896743D01*
G75*
G02*
X124643463Y-108146740I-249997J0D01*
G01*
G37*
G36*
G01*
X124643463Y-111071740D02*
X122493457Y-111071740D01*
G75*
G02*
X122243460Y-110821743I0J249997D01*
G01*
X122243460Y-110196737D01*
G75*
G02*
X122493457Y-109946740I249997J0D01*
G01*
X124643463Y-109946740D01*
G75*
G02*
X124893460Y-110196737I0J-249997D01*
G01*
X124893460Y-110821743D01*
G75*
G02*
X124643463Y-111071740I-249997J0D01*
G01*
G37*
%TD*%
%TO.C,R6*%
G36*
G01*
X129266263Y-108182840D02*
X127116257Y-108182840D01*
G75*
G02*
X126866260Y-107932843I0J249997D01*
G01*
X126866260Y-107307837D01*
G75*
G02*
X127116257Y-107057840I249997J0D01*
G01*
X129266263Y-107057840D01*
G75*
G02*
X129516260Y-107307837I0J-249997D01*
G01*
X129516260Y-107932843D01*
G75*
G02*
X129266263Y-108182840I-249997J0D01*
G01*
G37*
G36*
G01*
X129266263Y-111107840D02*
X127116257Y-111107840D01*
G75*
G02*
X126866260Y-110857843I0J249997D01*
G01*
X126866260Y-110232837D01*
G75*
G02*
X127116257Y-109982840I249997J0D01*
G01*
X129266263Y-109982840D01*
G75*
G02*
X129516260Y-110232837I0J-249997D01*
G01*
X129516260Y-110857843D01*
G75*
G02*
X129266263Y-111107840I-249997J0D01*
G01*
G37*
%TD*%
%TO.C,R5*%
G36*
G01*
X133620080Y-107158103D02*
X133620080Y-105008097D01*
G75*
G02*
X133870077Y-104758100I249997J0D01*
G01*
X134495083Y-104758100D01*
G75*
G02*
X134745080Y-105008097I0J-249997D01*
G01*
X134745080Y-107158103D01*
G75*
G02*
X134495083Y-107408100I-249997J0D01*
G01*
X133870077Y-107408100D01*
G75*
G02*
X133620080Y-107158103I0J249997D01*
G01*
G37*
G36*
G01*
X130695080Y-107158103D02*
X130695080Y-105008097D01*
G75*
G02*
X130945077Y-104758100I249997J0D01*
G01*
X131570083Y-104758100D01*
G75*
G02*
X131820080Y-105008097I0J-249997D01*
G01*
X131820080Y-107158103D01*
G75*
G02*
X131570083Y-107408100I-249997J0D01*
G01*
X130945077Y-107408100D01*
G75*
G02*
X130695080Y-107158103I0J249997D01*
G01*
G37*
%TD*%
%TO.C,R4*%
G36*
G01*
X142511197Y-143693720D02*
X144661203Y-143693720D01*
G75*
G02*
X144911200Y-143943717I0J-249997D01*
G01*
X144911200Y-144568723D01*
G75*
G02*
X144661203Y-144818720I-249997J0D01*
G01*
X142511197Y-144818720D01*
G75*
G02*
X142261200Y-144568723I0J249997D01*
G01*
X142261200Y-143943717D01*
G75*
G02*
X142511197Y-143693720I249997J0D01*
G01*
G37*
G36*
G01*
X142511197Y-140768720D02*
X144661203Y-140768720D01*
G75*
G02*
X144911200Y-141018717I0J-249997D01*
G01*
X144911200Y-141643723D01*
G75*
G02*
X144661203Y-141893720I-249997J0D01*
G01*
X142511197Y-141893720D01*
G75*
G02*
X142261200Y-141643723I0J249997D01*
G01*
X142261200Y-141018717D01*
G75*
G02*
X142511197Y-140768720I249997J0D01*
G01*
G37*
%TD*%
%TO.C,R3*%
G36*
G01*
X149591600Y-134323403D02*
X149591600Y-132173397D01*
G75*
G02*
X149841597Y-131923400I249997J0D01*
G01*
X150466603Y-131923400D01*
G75*
G02*
X150716600Y-132173397I0J-249997D01*
G01*
X150716600Y-134323403D01*
G75*
G02*
X150466603Y-134573400I-249997J0D01*
G01*
X149841597Y-134573400D01*
G75*
G02*
X149591600Y-134323403I0J249997D01*
G01*
G37*
G36*
G01*
X146666600Y-134323403D02*
X146666600Y-132173397D01*
G75*
G02*
X146916597Y-131923400I249997J0D01*
G01*
X147541603Y-131923400D01*
G75*
G02*
X147791600Y-132173397I0J-249997D01*
G01*
X147791600Y-134323403D01*
G75*
G02*
X147541603Y-134573400I-249997J0D01*
G01*
X146916597Y-134573400D01*
G75*
G02*
X146666600Y-134323403I0J249997D01*
G01*
G37*
%TD*%
%TO.C,R2*%
G36*
G01*
X149591600Y-139149403D02*
X149591600Y-136999397D01*
G75*
G02*
X149841597Y-136749400I249997J0D01*
G01*
X150466603Y-136749400D01*
G75*
G02*
X150716600Y-136999397I0J-249997D01*
G01*
X150716600Y-139149403D01*
G75*
G02*
X150466603Y-139399400I-249997J0D01*
G01*
X149841597Y-139399400D01*
G75*
G02*
X149591600Y-139149403I0J249997D01*
G01*
G37*
G36*
G01*
X146666600Y-139149403D02*
X146666600Y-136999397D01*
G75*
G02*
X146916597Y-136749400I249997J0D01*
G01*
X147541603Y-136749400D01*
G75*
G02*
X147791600Y-136999397I0J-249997D01*
G01*
X147791600Y-139149403D01*
G75*
G02*
X147541603Y-139399400I-249997J0D01*
G01*
X146916597Y-139399400D01*
G75*
G02*
X146666600Y-139149403I0J249997D01*
G01*
G37*
%TD*%
%TO.C,R1*%
G36*
G01*
X149642400Y-143772203D02*
X149642400Y-141622197D01*
G75*
G02*
X149892397Y-141372200I249997J0D01*
G01*
X150517403Y-141372200D01*
G75*
G02*
X150767400Y-141622197I0J-249997D01*
G01*
X150767400Y-143772203D01*
G75*
G02*
X150517403Y-144022200I-249997J0D01*
G01*
X149892397Y-144022200D01*
G75*
G02*
X149642400Y-143772203I0J249997D01*
G01*
G37*
G36*
G01*
X146717400Y-143772203D02*
X146717400Y-141622197D01*
G75*
G02*
X146967397Y-141372200I249997J0D01*
G01*
X147592403Y-141372200D01*
G75*
G02*
X147842400Y-141622197I0J-249997D01*
G01*
X147842400Y-143772203D01*
G75*
G02*
X147592403Y-144022200I-249997J0D01*
G01*
X146967397Y-144022200D01*
G75*
G02*
X146717400Y-143772203I0J249997D01*
G01*
G37*
%TD*%
D20*
%TO.C,Q1*%
X97507300Y-130195320D03*
X95507300Y-131145320D03*
X95507300Y-129245320D03*
%TD*%
%TO.C,J16*%
G36*
G01*
X94471401Y-76159000D02*
X93171399Y-76159000D01*
G75*
G02*
X92921400Y-75909001I0J249999D01*
G01*
X92921400Y-75208999D01*
G75*
G02*
X93171399Y-74959000I249999J0D01*
G01*
X94471401Y-74959000D01*
G75*
G02*
X94721400Y-75208999I0J-249999D01*
G01*
X94721400Y-75909001D01*
G75*
G02*
X94471401Y-76159000I-249999J0D01*
G01*
G37*
G36*
G01*
X94471401Y-81759000D02*
X93171399Y-81759000D01*
G75*
G02*
X92921400Y-81509001I0J249999D01*
G01*
X92921400Y-80808999D01*
G75*
G02*
X93171399Y-80559000I249999J0D01*
G01*
X94471401Y-80559000D01*
G75*
G02*
X94721400Y-80808999I0J-249999D01*
G01*
X94721400Y-81509001D01*
G75*
G02*
X94471401Y-81759000I-249999J0D01*
G01*
G37*
G36*
G01*
X96971400Y-77159000D02*
X95721400Y-77159000D01*
G75*
G02*
X95571400Y-77009000I0J150000D01*
G01*
X95571400Y-76709000D01*
G75*
G02*
X95721400Y-76559000I150000J0D01*
G01*
X96971400Y-76559000D01*
G75*
G02*
X97121400Y-76709000I0J-150000D01*
G01*
X97121400Y-77009000D01*
G75*
G02*
X96971400Y-77159000I-150000J0D01*
G01*
G37*
G36*
G01*
X96971400Y-78159000D02*
X95721400Y-78159000D01*
G75*
G02*
X95571400Y-78009000I0J150000D01*
G01*
X95571400Y-77709000D01*
G75*
G02*
X95721400Y-77559000I150000J0D01*
G01*
X96971400Y-77559000D01*
G75*
G02*
X97121400Y-77709000I0J-150000D01*
G01*
X97121400Y-78009000D01*
G75*
G02*
X96971400Y-78159000I-150000J0D01*
G01*
G37*
G36*
G01*
X96971400Y-79159000D02*
X95721400Y-79159000D01*
G75*
G02*
X95571400Y-79009000I0J150000D01*
G01*
X95571400Y-78709000D01*
G75*
G02*
X95721400Y-78559000I150000J0D01*
G01*
X96971400Y-78559000D01*
G75*
G02*
X97121400Y-78709000I0J-150000D01*
G01*
X97121400Y-79009000D01*
G75*
G02*
X96971400Y-79159000I-150000J0D01*
G01*
G37*
G36*
G01*
X96971400Y-80159000D02*
X95721400Y-80159000D01*
G75*
G02*
X95571400Y-80009000I0J150000D01*
G01*
X95571400Y-79709000D01*
G75*
G02*
X95721400Y-79559000I150000J0D01*
G01*
X96971400Y-79559000D01*
G75*
G02*
X97121400Y-79709000I0J-150000D01*
G01*
X97121400Y-80009000D01*
G75*
G02*
X96971400Y-80159000I-150000J0D01*
G01*
G37*
%TD*%
%TO.C,J8*%
G36*
G01*
X137985140Y-109640459D02*
X137985140Y-110940461D01*
G75*
G02*
X137735141Y-111190460I-249999J0D01*
G01*
X137035139Y-111190460D01*
G75*
G02*
X136785140Y-110940461I0J249999D01*
G01*
X136785140Y-109640459D01*
G75*
G02*
X137035139Y-109390460I249999J0D01*
G01*
X137735141Y-109390460D01*
G75*
G02*
X137985140Y-109640459I0J-249999D01*
G01*
G37*
G36*
G01*
X143585140Y-109640459D02*
X143585140Y-110940461D01*
G75*
G02*
X143335141Y-111190460I-249999J0D01*
G01*
X142635139Y-111190460D01*
G75*
G02*
X142385140Y-110940461I0J249999D01*
G01*
X142385140Y-109640459D01*
G75*
G02*
X142635139Y-109390460I249999J0D01*
G01*
X143335141Y-109390460D01*
G75*
G02*
X143585140Y-109640459I0J-249999D01*
G01*
G37*
G36*
G01*
X138985140Y-107140460D02*
X138985140Y-108390460D01*
G75*
G02*
X138835140Y-108540460I-150000J0D01*
G01*
X138535140Y-108540460D01*
G75*
G02*
X138385140Y-108390460I0J150000D01*
G01*
X138385140Y-107140460D01*
G75*
G02*
X138535140Y-106990460I150000J0D01*
G01*
X138835140Y-106990460D01*
G75*
G02*
X138985140Y-107140460I0J-150000D01*
G01*
G37*
G36*
G01*
X139985140Y-107140460D02*
X139985140Y-108390460D01*
G75*
G02*
X139835140Y-108540460I-150000J0D01*
G01*
X139535140Y-108540460D01*
G75*
G02*
X139385140Y-108390460I0J150000D01*
G01*
X139385140Y-107140460D01*
G75*
G02*
X139535140Y-106990460I150000J0D01*
G01*
X139835140Y-106990460D01*
G75*
G02*
X139985140Y-107140460I0J-150000D01*
G01*
G37*
G36*
G01*
X140985140Y-107140460D02*
X140985140Y-108390460D01*
G75*
G02*
X140835140Y-108540460I-150000J0D01*
G01*
X140535140Y-108540460D01*
G75*
G02*
X140385140Y-108390460I0J150000D01*
G01*
X140385140Y-107140460D01*
G75*
G02*
X140535140Y-106990460I150000J0D01*
G01*
X140835140Y-106990460D01*
G75*
G02*
X140985140Y-107140460I0J-150000D01*
G01*
G37*
G36*
G01*
X141985140Y-107140460D02*
X141985140Y-108390460D01*
G75*
G02*
X141835140Y-108540460I-150000J0D01*
G01*
X141535140Y-108540460D01*
G75*
G02*
X141385140Y-108390460I0J150000D01*
G01*
X141385140Y-107140460D01*
G75*
G02*
X141535140Y-106990460I150000J0D01*
G01*
X141835140Y-106990460D01*
G75*
G02*
X141985140Y-107140460I0J-150000D01*
G01*
G37*
%TD*%
%TO.C,J7*%
G36*
G01*
X138010540Y-102807859D02*
X138010540Y-104107861D01*
G75*
G02*
X137760541Y-104357860I-249999J0D01*
G01*
X137060539Y-104357860D01*
G75*
G02*
X136810540Y-104107861I0J249999D01*
G01*
X136810540Y-102807859D01*
G75*
G02*
X137060539Y-102557860I249999J0D01*
G01*
X137760541Y-102557860D01*
G75*
G02*
X138010540Y-102807859I0J-249999D01*
G01*
G37*
G36*
G01*
X143610540Y-102807859D02*
X143610540Y-104107861D01*
G75*
G02*
X143360541Y-104357860I-249999J0D01*
G01*
X142660539Y-104357860D01*
G75*
G02*
X142410540Y-104107861I0J249999D01*
G01*
X142410540Y-102807859D01*
G75*
G02*
X142660539Y-102557860I249999J0D01*
G01*
X143360541Y-102557860D01*
G75*
G02*
X143610540Y-102807859I0J-249999D01*
G01*
G37*
G36*
G01*
X139010540Y-100307860D02*
X139010540Y-101557860D01*
G75*
G02*
X138860540Y-101707860I-150000J0D01*
G01*
X138560540Y-101707860D01*
G75*
G02*
X138410540Y-101557860I0J150000D01*
G01*
X138410540Y-100307860D01*
G75*
G02*
X138560540Y-100157860I150000J0D01*
G01*
X138860540Y-100157860D01*
G75*
G02*
X139010540Y-100307860I0J-150000D01*
G01*
G37*
G36*
G01*
X140010540Y-100307860D02*
X140010540Y-101557860D01*
G75*
G02*
X139860540Y-101707860I-150000J0D01*
G01*
X139560540Y-101707860D01*
G75*
G02*
X139410540Y-101557860I0J150000D01*
G01*
X139410540Y-100307860D01*
G75*
G02*
X139560540Y-100157860I150000J0D01*
G01*
X139860540Y-100157860D01*
G75*
G02*
X140010540Y-100307860I0J-150000D01*
G01*
G37*
G36*
G01*
X141010540Y-100307860D02*
X141010540Y-101557860D01*
G75*
G02*
X140860540Y-101707860I-150000J0D01*
G01*
X140560540Y-101707860D01*
G75*
G02*
X140410540Y-101557860I0J150000D01*
G01*
X140410540Y-100307860D01*
G75*
G02*
X140560540Y-100157860I150000J0D01*
G01*
X140860540Y-100157860D01*
G75*
G02*
X141010540Y-100307860I0J-150000D01*
G01*
G37*
G36*
G01*
X142010540Y-100307860D02*
X142010540Y-101557860D01*
G75*
G02*
X141860540Y-101707860I-150000J0D01*
G01*
X141560540Y-101707860D01*
G75*
G02*
X141410540Y-101557860I0J150000D01*
G01*
X141410540Y-100307860D01*
G75*
G02*
X141560540Y-100157860I150000J0D01*
G01*
X141860540Y-100157860D01*
G75*
G02*
X142010540Y-100307860I0J-150000D01*
G01*
G37*
%TD*%
D21*
%TO.C,IC1*%
X131406700Y-102398260D03*
X131406700Y-101898260D03*
X131406700Y-101398260D03*
X131406700Y-100898260D03*
X134556700Y-100898260D03*
X134556700Y-101398260D03*
X134556700Y-101898260D03*
X134556700Y-102398260D03*
%TD*%
D18*
%TO.C,D1*%
X143545560Y-136504220D03*
X143545560Y-139304220D03*
%TD*%
%TO.C,C12*%
G36*
G01*
X131023380Y-61548860D02*
X130073380Y-61548860D01*
G75*
G02*
X129823380Y-61298860I0J250000D01*
G01*
X129823380Y-60798860D01*
G75*
G02*
X130073380Y-60548860I250000J0D01*
G01*
X131023380Y-60548860D01*
G75*
G02*
X131273380Y-60798860I0J-250000D01*
G01*
X131273380Y-61298860D01*
G75*
G02*
X131023380Y-61548860I-250000J0D01*
G01*
G37*
G36*
G01*
X131023380Y-63448860D02*
X130073380Y-63448860D01*
G75*
G02*
X129823380Y-63198860I0J250000D01*
G01*
X129823380Y-62698860D01*
G75*
G02*
X130073380Y-62448860I250000J0D01*
G01*
X131023380Y-62448860D01*
G75*
G02*
X131273380Y-62698860I0J-250000D01*
G01*
X131273380Y-63198860D01*
G75*
G02*
X131023380Y-63448860I-250000J0D01*
G01*
G37*
%TD*%
%TO.C,C11*%
G36*
G01*
X103279360Y-84676000D02*
X103279360Y-83726000D01*
G75*
G02*
X103529360Y-83476000I250000J0D01*
G01*
X104029360Y-83476000D01*
G75*
G02*
X104279360Y-83726000I0J-250000D01*
G01*
X104279360Y-84676000D01*
G75*
G02*
X104029360Y-84926000I-250000J0D01*
G01*
X103529360Y-84926000D01*
G75*
G02*
X103279360Y-84676000I0J250000D01*
G01*
G37*
G36*
G01*
X101379360Y-84676000D02*
X101379360Y-83726000D01*
G75*
G02*
X101629360Y-83476000I250000J0D01*
G01*
X102129360Y-83476000D01*
G75*
G02*
X102379360Y-83726000I0J-250000D01*
G01*
X102379360Y-84676000D01*
G75*
G02*
X102129360Y-84926000I-250000J0D01*
G01*
X101629360Y-84926000D01*
G75*
G02*
X101379360Y-84676000I0J250000D01*
G01*
G37*
%TD*%
%TO.C,C8*%
G36*
G01*
X42102620Y-150180020D02*
X42102620Y-151130020D01*
G75*
G02*
X41852620Y-151380020I-250000J0D01*
G01*
X41352620Y-151380020D01*
G75*
G02*
X41102620Y-151130020I0J250000D01*
G01*
X41102620Y-150180020D01*
G75*
G02*
X41352620Y-149930020I250000J0D01*
G01*
X41852620Y-149930020D01*
G75*
G02*
X42102620Y-150180020I0J-250000D01*
G01*
G37*
G36*
G01*
X44002620Y-150180020D02*
X44002620Y-151130020D01*
G75*
G02*
X43752620Y-151380020I-250000J0D01*
G01*
X43252620Y-151380020D01*
G75*
G02*
X43002620Y-151130020I0J250000D01*
G01*
X43002620Y-150180020D01*
G75*
G02*
X43252620Y-149930020I250000J0D01*
G01*
X43752620Y-149930020D01*
G75*
G02*
X44002620Y-150180020I0J-250000D01*
G01*
G37*
%TD*%
%TO.C,C7*%
G36*
G01*
X61637760Y-111699020D02*
X61637760Y-112649020D01*
G75*
G02*
X61387760Y-112899020I-250000J0D01*
G01*
X60887760Y-112899020D01*
G75*
G02*
X60637760Y-112649020I0J250000D01*
G01*
X60637760Y-111699020D01*
G75*
G02*
X60887760Y-111449020I250000J0D01*
G01*
X61387760Y-111449020D01*
G75*
G02*
X61637760Y-111699020I0J-250000D01*
G01*
G37*
G36*
G01*
X63537760Y-111699020D02*
X63537760Y-112649020D01*
G75*
G02*
X63287760Y-112899020I-250000J0D01*
G01*
X62787760Y-112899020D01*
G75*
G02*
X62537760Y-112649020I0J250000D01*
G01*
X62537760Y-111699020D01*
G75*
G02*
X62787760Y-111449020I250000J0D01*
G01*
X63287760Y-111449020D01*
G75*
G02*
X63537760Y-111699020I0J-250000D01*
G01*
G37*
%TD*%
%TO.C,C3*%
G36*
G01*
X140078880Y-131516140D02*
X140078880Y-130566140D01*
G75*
G02*
X140328880Y-130316140I250000J0D01*
G01*
X140828880Y-130316140D01*
G75*
G02*
X141078880Y-130566140I0J-250000D01*
G01*
X141078880Y-131516140D01*
G75*
G02*
X140828880Y-131766140I-250000J0D01*
G01*
X140328880Y-131766140D01*
G75*
G02*
X140078880Y-131516140I0J250000D01*
G01*
G37*
G36*
G01*
X138178880Y-131516140D02*
X138178880Y-130566140D01*
G75*
G02*
X138428880Y-130316140I250000J0D01*
G01*
X138928880Y-130316140D01*
G75*
G02*
X139178880Y-130566140I0J-250000D01*
G01*
X139178880Y-131516140D01*
G75*
G02*
X138928880Y-131766140I-250000J0D01*
G01*
X138428880Y-131766140D01*
G75*
G02*
X138178880Y-131516140I0J250000D01*
G01*
G37*
%TD*%
M02*
