%TF.GenerationSoftware,KiCad,Pcbnew,(5.1.12)-1*%
%TF.CreationDate,2022-03-16T22:40:04-06:00*%
%TF.ProjectId,RelayDriver,52656c61-7944-4726-9976-65722e6b6963,rev?*%
%TF.SameCoordinates,Original*%
%TF.FileFunction,Copper,L1,Top*%
%TF.FilePolarity,Positive*%
%FSLAX46Y46*%
G04 Gerber Fmt 4.6, Leading zero omitted, Abs format (unit mm)*
G04 Created by KiCad (PCBNEW (5.1.12)-1) date 2022-03-16 22:40:05*
%MOMM*%
%LPD*%
G01*
G04 APERTURE LIST*
%TA.AperFunction,ComponentPad*%
%ADD10O,1.700000X1.700000*%
%TD*%
%TA.AperFunction,ComponentPad*%
%ADD11R,1.700000X1.700000*%
%TD*%
%TA.AperFunction,SMDPad,CuDef*%
%ADD12R,1.473200X0.355600*%
%TD*%
%TA.AperFunction,ViaPad*%
%ADD13C,0.800000*%
%TD*%
%TA.AperFunction,Conductor*%
%ADD14C,0.381000*%
%TD*%
%TA.AperFunction,Conductor*%
%ADD15C,1.270000*%
%TD*%
G04 APERTURE END LIST*
D10*
%TO.P,J3,2*%
%TO.N,Net-(J2-Pad19)*%
X61874400Y-59588400D03*
D11*
%TO.P,J3,1*%
%TO.N,GND*%
X61874400Y-62128400D03*
%TD*%
D12*
%TO.P,U1,24*%
%TO.N,Net-(J1-Pad2)*%
X78867000Y-66878200D03*
%TO.P,U1,23*%
%TO.N,Net-(J1-Pad3)*%
X78867000Y-66217800D03*
%TO.P,U1,22*%
%TO.N,Net-(J1-Pad4)*%
X78867000Y-65582800D03*
%TO.P,U1,21*%
%TO.N,GND*%
X78867000Y-64922400D03*
%TO.P,U1,20*%
%TO.N,Net-(J2-Pad18)*%
X78867000Y-64262000D03*
%TO.P,U1,19*%
%TO.N,Net-(J2-Pad17)*%
X78867000Y-63627000D03*
%TO.P,U1,18*%
%TO.N,Net-(J2-Pad16)*%
X78867000Y-62966600D03*
%TO.P,U1,17*%
%TO.N,Net-(J2-Pad15)*%
X78867000Y-62331600D03*
%TO.P,U1,16*%
%TO.N,Net-(J2-Pad14)*%
X78867000Y-61671200D03*
%TO.P,U1,15*%
%TO.N,Net-(J2-Pad13)*%
X78867000Y-61010800D03*
%TO.P,U1,14*%
%TO.N,Net-(J2-Pad12)*%
X78867000Y-60375800D03*
%TO.P,U1,13*%
%TO.N,Net-(J2-Pad11)*%
X78867000Y-59715400D03*
%TO.P,U1,12*%
%TO.N,GND*%
X84709000Y-59715400D03*
%TO.P,U1,11*%
%TO.N,Net-(J2-Pad3)*%
X84709000Y-60375800D03*
%TO.P,U1,10*%
%TO.N,Net-(J2-Pad4)*%
X84709000Y-61010800D03*
%TO.P,U1,9*%
%TO.N,Net-(J2-Pad5)*%
X84709000Y-61671200D03*
%TO.P,U1,8*%
%TO.N,Net-(J2-Pad6)*%
X84709000Y-62331600D03*
%TO.P,U1,7*%
%TO.N,Net-(J2-Pad7)*%
X84709000Y-62966600D03*
%TO.P,U1,6*%
%TO.N,Net-(J2-Pad8)*%
X84709000Y-63627000D03*
%TO.P,U1,5*%
%TO.N,Net-(J2-Pad9)*%
X84709000Y-64262000D03*
%TO.P,U1,4*%
%TO.N,Net-(J2-Pad10)*%
X84709000Y-64922400D03*
%TO.P,U1,3*%
%TO.N,GND*%
X84709000Y-65582800D03*
%TO.P,U1,2*%
X84709000Y-66217800D03*
%TO.P,U1,1*%
%TO.N,Net-(U1-Pad1)*%
X84709000Y-66878200D03*
%TD*%
D10*
%TO.P,J2,20*%
%TO.N,Net-(J2-Pad19)*%
X61569600Y-54762400D03*
%TO.P,J2,19*%
X61569600Y-52222400D03*
%TO.P,J2,18*%
%TO.N,Net-(J2-Pad18)*%
X64109600Y-54762400D03*
%TO.P,J2,17*%
%TO.N,Net-(J2-Pad17)*%
X64109600Y-52222400D03*
%TO.P,J2,16*%
%TO.N,Net-(J2-Pad16)*%
X66649600Y-54762400D03*
%TO.P,J2,15*%
%TO.N,Net-(J2-Pad15)*%
X66649600Y-52222400D03*
%TO.P,J2,14*%
%TO.N,Net-(J2-Pad14)*%
X69189600Y-54762400D03*
%TO.P,J2,13*%
%TO.N,Net-(J2-Pad13)*%
X69189600Y-52222400D03*
%TO.P,J2,12*%
%TO.N,Net-(J2-Pad12)*%
X71729600Y-54762400D03*
%TO.P,J2,11*%
%TO.N,Net-(J2-Pad11)*%
X71729600Y-52222400D03*
%TO.P,J2,10*%
%TO.N,Net-(J2-Pad10)*%
X74269600Y-54762400D03*
%TO.P,J2,9*%
%TO.N,Net-(J2-Pad9)*%
X74269600Y-52222400D03*
%TO.P,J2,8*%
%TO.N,Net-(J2-Pad8)*%
X76809600Y-54762400D03*
%TO.P,J2,7*%
%TO.N,Net-(J2-Pad7)*%
X76809600Y-52222400D03*
%TO.P,J2,6*%
%TO.N,Net-(J2-Pad6)*%
X79349600Y-54762400D03*
%TO.P,J2,5*%
%TO.N,Net-(J2-Pad5)*%
X79349600Y-52222400D03*
%TO.P,J2,4*%
%TO.N,Net-(J2-Pad4)*%
X81889600Y-54762400D03*
%TO.P,J2,3*%
%TO.N,Net-(J2-Pad3)*%
X81889600Y-52222400D03*
%TO.P,J2,2*%
%TO.N,GND*%
X84429600Y-54762400D03*
D11*
%TO.P,J2,1*%
X84429600Y-52222400D03*
%TD*%
%TO.P,J1,MP*%
%TO.N,N/C*%
%TA.AperFunction,SMDPad,CuDef*%
G36*
G01*
X68792001Y-61020600D02*
X67491999Y-61020600D01*
G75*
G02*
X67242000Y-60770601I0J249999D01*
G01*
X67242000Y-60070599D01*
G75*
G02*
X67491999Y-59820600I249999J0D01*
G01*
X68792001Y-59820600D01*
G75*
G02*
X69042000Y-60070599I0J-249999D01*
G01*
X69042000Y-60770601D01*
G75*
G02*
X68792001Y-61020600I-249999J0D01*
G01*
G37*
%TD.AperFunction*%
%TA.AperFunction,SMDPad,CuDef*%
G36*
G01*
X68792001Y-66620600D02*
X67491999Y-66620600D01*
G75*
G02*
X67242000Y-66370601I0J249999D01*
G01*
X67242000Y-65670599D01*
G75*
G02*
X67491999Y-65420600I249999J0D01*
G01*
X68792001Y-65420600D01*
G75*
G02*
X69042000Y-65670599I0J-249999D01*
G01*
X69042000Y-66370601D01*
G75*
G02*
X68792001Y-66620600I-249999J0D01*
G01*
G37*
%TD.AperFunction*%
%TO.P,J1,4*%
%TO.N,Net-(J1-Pad4)*%
%TA.AperFunction,SMDPad,CuDef*%
G36*
G01*
X71292000Y-62020600D02*
X70042000Y-62020600D01*
G75*
G02*
X69892000Y-61870600I0J150000D01*
G01*
X69892000Y-61570600D01*
G75*
G02*
X70042000Y-61420600I150000J0D01*
G01*
X71292000Y-61420600D01*
G75*
G02*
X71442000Y-61570600I0J-150000D01*
G01*
X71442000Y-61870600D01*
G75*
G02*
X71292000Y-62020600I-150000J0D01*
G01*
G37*
%TD.AperFunction*%
%TO.P,J1,3*%
%TO.N,Net-(J1-Pad3)*%
%TA.AperFunction,SMDPad,CuDef*%
G36*
G01*
X71292000Y-63020600D02*
X70042000Y-63020600D01*
G75*
G02*
X69892000Y-62870600I0J150000D01*
G01*
X69892000Y-62570600D01*
G75*
G02*
X70042000Y-62420600I150000J0D01*
G01*
X71292000Y-62420600D01*
G75*
G02*
X71442000Y-62570600I0J-150000D01*
G01*
X71442000Y-62870600D01*
G75*
G02*
X71292000Y-63020600I-150000J0D01*
G01*
G37*
%TD.AperFunction*%
%TO.P,J1,2*%
%TO.N,Net-(J1-Pad2)*%
%TA.AperFunction,SMDPad,CuDef*%
G36*
G01*
X71292000Y-64020600D02*
X70042000Y-64020600D01*
G75*
G02*
X69892000Y-63870600I0J150000D01*
G01*
X69892000Y-63570600D01*
G75*
G02*
X70042000Y-63420600I150000J0D01*
G01*
X71292000Y-63420600D01*
G75*
G02*
X71442000Y-63570600I0J-150000D01*
G01*
X71442000Y-63870600D01*
G75*
G02*
X71292000Y-64020600I-150000J0D01*
G01*
G37*
%TD.AperFunction*%
%TO.P,J1,1*%
%TO.N,GND*%
%TA.AperFunction,SMDPad,CuDef*%
G36*
G01*
X71292000Y-65020600D02*
X70042000Y-65020600D01*
G75*
G02*
X69892000Y-64870600I0J150000D01*
G01*
X69892000Y-64570600D01*
G75*
G02*
X70042000Y-64420600I150000J0D01*
G01*
X71292000Y-64420600D01*
G75*
G02*
X71442000Y-64570600I0J-150000D01*
G01*
X71442000Y-64870600D01*
G75*
G02*
X71292000Y-65020600I-150000J0D01*
G01*
G37*
%TD.AperFunction*%
%TD*%
D13*
%TO.N,GND*%
X72669400Y-66446400D03*
X84759800Y-58648600D03*
X86182200Y-65836800D03*
X77442991Y-64894923D03*
%TD*%
D14*
%TO.N,GND*%
X85801200Y-66217800D02*
X86182200Y-65836800D01*
X84709000Y-66217800D02*
X85801200Y-66217800D01*
X85928200Y-65582800D02*
X86182200Y-65836800D01*
X84709000Y-65582800D02*
X85928200Y-65582800D01*
X84709000Y-58699400D02*
X84759800Y-58648600D01*
X84709000Y-59715400D02*
X84709000Y-58699400D01*
X78867000Y-64922400D02*
X77470468Y-64922400D01*
X77470468Y-64922400D02*
X77442991Y-64894923D01*
X70943600Y-64720600D02*
X72669400Y-66446400D01*
X70667000Y-64720600D02*
X70943600Y-64720600D01*
%TO.N,Net-(J1-Pad4)*%
X77822433Y-65685425D02*
X75600297Y-65685425D01*
X78867000Y-65582800D02*
X77925058Y-65582800D01*
X77925058Y-65582800D02*
X77822433Y-65685425D01*
X71635472Y-61720600D02*
X70667000Y-61720600D01*
X75600297Y-65685425D02*
X71635472Y-61720600D01*
%TO.N,Net-(J1-Pad3)*%
X78111731Y-66217800D02*
X78063095Y-66266436D01*
X78063095Y-66266436D02*
X75359636Y-66266436D01*
X78867000Y-66217800D02*
X78111731Y-66217800D01*
X71813800Y-62720600D02*
X70667000Y-62720600D01*
X75359636Y-66266436D02*
X71813800Y-62720600D01*
%TO.N,Net-(J1-Pad2)*%
X71206398Y-63720600D02*
X70667000Y-63720600D01*
X74363998Y-66878200D02*
X71206398Y-63720600D01*
X78867000Y-66878200D02*
X74363998Y-66878200D01*
D15*
%TO.N,Net-(J2-Pad19)*%
X61874400Y-55067200D02*
X61569600Y-54762400D01*
X61874400Y-59588400D02*
X61874400Y-55067200D01*
X61569600Y-54762400D02*
X61569600Y-52222400D01*
D14*
%TO.N,Net-(J2-Pad18)*%
X77536054Y-64074629D02*
X77577337Y-64115912D01*
X64236600Y-54965600D02*
X64236600Y-56167681D01*
X64236600Y-56167681D02*
X66018051Y-57949132D01*
X78033792Y-64262000D02*
X78867000Y-64262000D01*
X77887704Y-64115912D02*
X78033792Y-64262000D01*
X77577337Y-64115912D02*
X77887704Y-64115912D01*
X68794932Y-57949132D02*
X74920429Y-64074629D01*
X74920429Y-64074629D02*
X77536054Y-64074629D01*
X66018051Y-57949132D02*
X68794932Y-57949132D01*
%TO.N,Net-(J2-Pad17)*%
X78220465Y-63627000D02*
X78867000Y-63627000D01*
X64236600Y-52425600D02*
X65350000Y-53539000D01*
X65350000Y-54166858D02*
X65350101Y-54166959D01*
X65350101Y-54166959D02*
X65350101Y-55357841D01*
X65350000Y-53539000D02*
X65350000Y-54166858D01*
X69136492Y-57368122D02*
X75261988Y-63493618D01*
X65350101Y-55357841D02*
X65350000Y-55357942D01*
X77776716Y-63493618D02*
X77817999Y-63534901D01*
X65350000Y-55374942D02*
X67343179Y-57368121D01*
X67343179Y-57368121D02*
X69136492Y-57368122D01*
X65350000Y-55357942D02*
X65350000Y-55374942D01*
X75261988Y-63493618D02*
X77776716Y-63493618D01*
X77817999Y-63534901D02*
X78128367Y-63534901D01*
X78128367Y-63534901D02*
X78220465Y-63627000D01*
%TO.N,Net-(J2-Pad16)*%
X78813009Y-62912609D02*
X78867000Y-62966600D01*
X69377153Y-56787111D02*
X75502651Y-62912610D01*
X68480497Y-56787111D02*
X69377153Y-56787111D01*
X66776600Y-55083214D02*
X68480497Y-56787111D01*
X66776600Y-54965600D02*
X66776600Y-55083214D01*
X75502651Y-62912610D02*
X78813009Y-62912609D01*
%TO.N,Net-(J2-Pad15)*%
X77749400Y-62331600D02*
X78867000Y-62331600D01*
X68721159Y-56206101D02*
X69617815Y-56206101D01*
X75743313Y-62331600D02*
X77749400Y-62331600D01*
X67925000Y-55409942D02*
X68721159Y-56206101D01*
X67925000Y-53574000D02*
X67925000Y-55409942D01*
X69617815Y-56206101D02*
X75743313Y-62331600D01*
X66776600Y-52425600D02*
X67925000Y-53574000D01*
%TO.N,Net-(J2-Pad14)*%
X69316600Y-55083215D02*
X75904585Y-61671200D01*
X69316600Y-54965600D02*
X69316600Y-55083215D01*
X75904585Y-61671200D02*
X78867000Y-61671200D01*
%TO.N,Net-(J2-Pad13)*%
X76065858Y-61010800D02*
X78867000Y-61010800D01*
X70475000Y-53584000D02*
X70475000Y-55419942D01*
X69316600Y-52425600D02*
X70475000Y-53584000D01*
X70475000Y-55419942D02*
X76065858Y-61010800D01*
%TO.N,Net-(J2-Pad12)*%
X71856600Y-55979870D02*
X76252530Y-60375800D01*
X71856600Y-54965600D02*
X71856600Y-55979870D01*
X76252530Y-60375800D02*
X78867000Y-60375800D01*
%TO.N,Net-(J2-Pad11)*%
X77310458Y-59715400D02*
X78867000Y-59715400D01*
X72975000Y-55379942D02*
X77310458Y-59715400D01*
X72975000Y-53544000D02*
X72975000Y-55379942D01*
X71856600Y-52425600D02*
X72975000Y-53544000D01*
%TO.N,Net-(J2-Pad10)*%
X82734238Y-64922400D02*
X84709000Y-64922400D01*
X74396600Y-54965600D02*
X74396600Y-55041800D01*
X74396600Y-55041800D02*
X78486000Y-59131200D01*
X80060801Y-62248963D02*
X82734238Y-64922400D01*
X78486000Y-59131200D02*
X79900102Y-59131200D01*
X79900102Y-59131200D02*
X80060801Y-59291899D01*
X80060801Y-59291899D02*
X80060801Y-62248963D01*
%TO.N,Net-(J2-Pad9)*%
X80667183Y-59076608D02*
X80667183Y-62033673D01*
X80140764Y-58550189D02*
X80667183Y-59076608D01*
X78726661Y-58550189D02*
X80140764Y-58550189D01*
X80667183Y-62033673D02*
X82895510Y-64262000D01*
X75550000Y-55373528D02*
X78726661Y-58550189D01*
X82895510Y-64262000D02*
X84709000Y-64262000D01*
X75550000Y-53579000D02*
X75550000Y-55373528D01*
X74396600Y-52425600D02*
X75550000Y-53579000D01*
%TO.N,Net-(J2-Pad8)*%
X83082182Y-63627000D02*
X84709000Y-63627000D01*
X80381426Y-57969178D02*
X81257855Y-58845607D01*
X81257855Y-61802673D02*
X83082182Y-63627000D01*
X81257855Y-58845607D02*
X81257855Y-61802673D01*
X79898252Y-57969178D02*
X80381426Y-57969178D01*
X76936600Y-55007526D02*
X79898252Y-57969178D01*
X76936600Y-54965600D02*
X76936600Y-55007526D01*
%TO.N,Net-(J2-Pad7)*%
X81838866Y-61562012D02*
X83243454Y-62966600D01*
X81838866Y-58604945D02*
X81838866Y-61562012D01*
X83243454Y-62966600D02*
X84709000Y-62966600D01*
X80622088Y-57388167D02*
X81838866Y-58604945D01*
X80138913Y-57388167D02*
X80622088Y-57388167D01*
X78050101Y-55299355D02*
X80138913Y-57388167D01*
X76936600Y-52425600D02*
X78050000Y-53539000D01*
X78050101Y-53539101D02*
X78050000Y-53539000D01*
X78050101Y-55299355D02*
X78050101Y-53539101D01*
%TO.N,Net-(J2-Pad6)*%
X82419877Y-58364283D02*
X82419877Y-61321351D01*
X79476600Y-54965600D02*
X79476600Y-55421006D01*
X82419877Y-61321351D02*
X83430126Y-62331600D01*
X79476600Y-55421006D02*
X82419877Y-58364283D01*
X83430126Y-62331600D02*
X84709000Y-62331600D01*
%TO.N,Net-(J2-Pad5)*%
X83591400Y-61671200D02*
X84709000Y-61671200D01*
X83000888Y-61080688D02*
X83591400Y-61671200D01*
X83000888Y-58123621D02*
X83000888Y-61080688D01*
X80625000Y-53574000D02*
X80625000Y-55747733D01*
X80625000Y-55747733D02*
X83000888Y-58123621D01*
X79476600Y-52425600D02*
X80625000Y-53574000D01*
%TO.N,Net-(J2-Pad4)*%
X83581899Y-56454699D02*
X81889600Y-54762400D01*
X83581899Y-60737844D02*
X83581899Y-56454699D01*
X83854855Y-61010800D02*
X83581899Y-60737844D01*
X84709000Y-61010800D02*
X83854855Y-61010800D01*
%TO.N,Net-(J2-Pad3)*%
X85836101Y-53842199D02*
X85660003Y-53666101D01*
X85826600Y-60375800D02*
X85836101Y-60366299D01*
X85836101Y-60366299D02*
X85836101Y-53842199D01*
X84709000Y-60375800D02*
X85826600Y-60375800D01*
X83189099Y-53521899D02*
X81889600Y-52222400D01*
X85515801Y-53521899D02*
X83189099Y-53521899D01*
X85836101Y-53842199D02*
X85515801Y-53521899D01*
%TD*%
M02*
