%TF.GenerationSoftware,KiCad,Pcbnew,(5.1.12)-1*%
%TF.CreationDate,2022-03-16T22:40:05-06:00*%
%TF.ProjectId,RelayDriver,52656c61-7944-4726-9976-65722e6b6963,rev?*%
%TF.SameCoordinates,Original*%
%TF.FileFunction,Paste,Top*%
%TF.FilePolarity,Positive*%
%FSLAX46Y46*%
G04 Gerber Fmt 4.6, Leading zero omitted, Abs format (unit mm)*
G04 Created by KiCad (PCBNEW (5.1.12)-1) date 2022-03-16 22:40:05*
%MOMM*%
%LPD*%
G01*
G04 APERTURE LIST*
%ADD10R,1.473200X0.355600*%
G04 APERTURE END LIST*
D10*
%TO.C,U1*%
X78867000Y-66878200D03*
X78867000Y-66217800D03*
X78867000Y-65582800D03*
X78867000Y-64922400D03*
X78867000Y-64262000D03*
X78867000Y-63627000D03*
X78867000Y-62966600D03*
X78867000Y-62331600D03*
X78867000Y-61671200D03*
X78867000Y-61010800D03*
X78867000Y-60375800D03*
X78867000Y-59715400D03*
X84709000Y-59715400D03*
X84709000Y-60375800D03*
X84709000Y-61010800D03*
X84709000Y-61671200D03*
X84709000Y-62331600D03*
X84709000Y-62966600D03*
X84709000Y-63627000D03*
X84709000Y-64262000D03*
X84709000Y-64922400D03*
X84709000Y-65582800D03*
X84709000Y-66217800D03*
X84709000Y-66878200D03*
%TD*%
%TO.C,J1*%
G36*
G01*
X68792001Y-61020600D02*
X67491999Y-61020600D01*
G75*
G02*
X67242000Y-60770601I0J249999D01*
G01*
X67242000Y-60070599D01*
G75*
G02*
X67491999Y-59820600I249999J0D01*
G01*
X68792001Y-59820600D01*
G75*
G02*
X69042000Y-60070599I0J-249999D01*
G01*
X69042000Y-60770601D01*
G75*
G02*
X68792001Y-61020600I-249999J0D01*
G01*
G37*
G36*
G01*
X68792001Y-66620600D02*
X67491999Y-66620600D01*
G75*
G02*
X67242000Y-66370601I0J249999D01*
G01*
X67242000Y-65670599D01*
G75*
G02*
X67491999Y-65420600I249999J0D01*
G01*
X68792001Y-65420600D01*
G75*
G02*
X69042000Y-65670599I0J-249999D01*
G01*
X69042000Y-66370601D01*
G75*
G02*
X68792001Y-66620600I-249999J0D01*
G01*
G37*
G36*
G01*
X71292000Y-62020600D02*
X70042000Y-62020600D01*
G75*
G02*
X69892000Y-61870600I0J150000D01*
G01*
X69892000Y-61570600D01*
G75*
G02*
X70042000Y-61420600I150000J0D01*
G01*
X71292000Y-61420600D01*
G75*
G02*
X71442000Y-61570600I0J-150000D01*
G01*
X71442000Y-61870600D01*
G75*
G02*
X71292000Y-62020600I-150000J0D01*
G01*
G37*
G36*
G01*
X71292000Y-63020600D02*
X70042000Y-63020600D01*
G75*
G02*
X69892000Y-62870600I0J150000D01*
G01*
X69892000Y-62570600D01*
G75*
G02*
X70042000Y-62420600I150000J0D01*
G01*
X71292000Y-62420600D01*
G75*
G02*
X71442000Y-62570600I0J-150000D01*
G01*
X71442000Y-62870600D01*
G75*
G02*
X71292000Y-63020600I-150000J0D01*
G01*
G37*
G36*
G01*
X71292000Y-64020600D02*
X70042000Y-64020600D01*
G75*
G02*
X69892000Y-63870600I0J150000D01*
G01*
X69892000Y-63570600D01*
G75*
G02*
X70042000Y-63420600I150000J0D01*
G01*
X71292000Y-63420600D01*
G75*
G02*
X71442000Y-63570600I0J-150000D01*
G01*
X71442000Y-63870600D01*
G75*
G02*
X71292000Y-64020600I-150000J0D01*
G01*
G37*
G36*
G01*
X71292000Y-65020600D02*
X70042000Y-65020600D01*
G75*
G02*
X69892000Y-64870600I0J150000D01*
G01*
X69892000Y-64570600D01*
G75*
G02*
X70042000Y-64420600I150000J0D01*
G01*
X71292000Y-64420600D01*
G75*
G02*
X71442000Y-64570600I0J-150000D01*
G01*
X71442000Y-64870600D01*
G75*
G02*
X71292000Y-65020600I-150000J0D01*
G01*
G37*
%TD*%
M02*
